<svg id="Layer_1" xmlns="http://www.w3.org/2000/svg" width="430.8" height="86.4" viewBox="0 0 430.8 86.4"><style>.st0{fill:#5895b7}.st1{fill:#c17620}.st2{fill:#f4c24a}.st3{fill:#910e46}.st4{fill:#ee3d53}</style><path class="st0" d="M17.4 86.1H0V25.3h8.7v-8.7h34.7v8.7h8.7v60.8H34.7V60H17.4v26.1zm17.3-43.5V34H17.4v8.7h17.3zm69.5 43.5H60.8V16.6h43.4v8.7h8.7v17.4h-8.7V60h8.7v17.4h-8.7v8.7zm-26-43.5h17.4V34H78.2v8.6zm0 26.1h17.4V60H78.2v8.7zm43.4-43.4h8.7v-8.7H165v8.7h8.7v52.1H165v8.7h-34.7v-8.7h-8.7V25.3zm17.3 43.4h17.4V34h-17.4v34.7zm43.5-52.1h17.4v52.1h17.4V16.6h17.4v60.8h-8.7v8.7H191v-8.7h-8.7V16.6h.1zm60.7 0h52.1V34h-17.4v52.1h-17.4V34H243V16.6z"/><path class="st1" d="M17.4 77.2H0V16.4h8.7V7.7h34.7v8.7h8.7v60.8H34.7v-26H17.4v26zm17.3-43.4v-8.7H17.4v8.7h17.3zm69.5 43.4H60.8V7.7h43.4v8.7h8.7v17.4h-8.7v17.4h8.7v17.4h-8.7v8.6zm-26-43.4h17.4v-8.7H78.2v8.7zm0 26h17.4v-8.7H78.2v8.7zm43.4-43.4h8.7V7.7H165v8.7h8.7v52.1H165v8.7h-34.7v-8.7h-8.7V16.4zm17.3 43.4h17.4V25.1h-17.4v34.7zm43.5-52.1h17.4v52.1h17.4V7.7h17.4v60.8h-8.7v8.7H191v-8.7h-8.7V7.7h.1zm60.7 0h52.1v17.4h-17.4v52.1h-17.4V25.1H243V7.7z"/><path class="st2" d="M17.4 70.1H0V9.4h8.7V.7h34.7v8.7h8.7v60.8H34.7V44.1H17.4v26zm17.3-43.4V18H17.4v8.7h17.3zm69.5 43.4H60.8V.7h43.4v8.7h8.7v17.4h-8.7v17.4h8.7v17.4h-8.7v8.5zm-26-43.4h17.4V18H78.2v8.7zm0 26.1h17.4v-8.7H78.2v8.7zm43.4-43.4h8.7V.7H165v8.7h8.7v52.1H165v8.7h-34.7v-8.7h-8.7V9.4zm17.3 43.4h17.4V18h-17.4v34.8zM182.4.7h17.4v52.1h17.4V.7h17.4v60.8h-8.7v8.7H191v-8.7h-8.7V.7h.1zm60.7 0h52.1V18h-17.4v52.1h-17.4V18H243V.7z"/><path class="st0" d="M316.4 16.4h17.4v52.1h17.4V16.4h17.4v60.8h-8.7v8.7h-34.7v-8.7h-8.7l-.1-60.8zm60.8 8.7h8.7v-8.7h43.4v17.4h-34.7v8.7h26.1v8.7h8.7v26.1h-8.7V86h-43.4V68.5H412v-8.7h-26.1v-8.7h-8.7v-26z"/><path class="st3" d="M316.4 8.6h17.4v52.1h17.4V8.6h17.4v60.8h-8.7v8.7h-34.7v-8.7h-8.7l-.1-60.8zm60.8 8.7h8.7V8.6h43.4V26h-34.7v8.7h26.1v8.7h8.7v26.1h-8.7v8.7h-43.4V60.7H412V52h-26.1v-8.7h-8.7v-26z"/><path class="st4" d="M316.4.7h17.4v52.1h17.4V.7h17.4v60.8h-8.7v8.7h-34.7v-8.7h-8.7L316.4.7zm60.8 8.7h8.7V.7h43.4v17.4h-34.7v8.7h26.1v8.7h8.7v26.1h-8.7v8.7h-43.4V52.8H412v-8.7h-26.1v-8.7h-8.7v-26z"/></svg>