<?xml version="1.0" encoding="utf-8"?>
<!-- Generator: Adobe Illustrator 22.0.1, SVG Export Plug-In . SVG Version: 6.00 Build 0)  -->
<svg version="1.1" xmlns="http://www.w3.org/2000/svg" xmlns:xlink="http://www.w3.org/1999/xlink" x="0px" y="0px" width="678.1px"
	 height="122.8px" viewBox="0 0 678.1 122.8" style="enable-background:new 0 0 678.1 122.8;" xml:space="preserve">
<style type="text/css">
	.st0{fill:#7149A4;}
	.st1{fill:#BD86E0;}
	.st2{fill:#FFFFFF;}
</style>
<g id="Layer_1">
</g>
<g id="Layer_2">
	<polygon class="st0" points="661.3,14 644.4,14 16.8,14 16.8,28 0,28 0,108.8 16.8,108.8 16.8,122.9 644.4,122.9 661.3,122.9 
		661.3,108.8 678.1,108.8 678.1,28 661.3,28 	"/>
	<polygon class="st1" points="661.3,0 644.4,0 16.8,0 16.8,14.1 0,14.1 0,94.9 16.8,94.9 16.8,108.9 644.4,108.9 661.3,108.9 
		661.3,94.9 678.1,94.9 678.1,14.1 661.3,14.1 	"/>
	<g>
		<rect x="35.2" y="6.7" class="st2" width="75.6" height="9.6"/>
		<rect x="120.9" y="6.7" class="st2" width="9.6" height="9.6"/>
	</g>
	<g>
		<path class="st2" d="M112.7,77.7h-10.4V41.4h5.2v-5.2h20.7v5.2h5.2v36.3h-10.4V62.1h-10.4V77.7z M123.1,51.7v-5.2h-10.4v5.2H123.1
			z"/>
		<path class="st2" d="M138.6,36.2h31.1v10.4h-10.4v20.7h10.4v10.4h-31.1V67.3H149V46.6h-10.4V36.2z"/>
		<path class="st2" d="M185.3,77.7h-10.4V36.2h10.4v5.2h5.2v5.2h5.2v-5.2h5.2v-5.2h10.4v41.5h-10.4V56.9h-5.2v5.2h-5.2v-5.2h-5.2
			V77.7z"/>
		<path class="st2" d="M263,77.7h-10.4V41.4h5.2v-5.2h20.7v5.2h5.2v36.3h-10.4V62.1H263V77.7z M273.4,51.7v-5.2H263v5.2H273.4z"/>
		<path class="st2" d="M304.5,56.9h-5.2v20.7H289V36.2h10.4v5.2h5.2v5.2h5.2V36.2h10.4v41.5h-10.4V62.1h-5.2V56.9z"/>
		<path class="st2" d="M346,77.7h-20.7V36.2H346v5.2h5.2v5.2h5.2v20.7h-5.2v5.2H346V77.7z M340.8,46.6h-5.2v20.7h5.2v-5.2h5.2V51.7
			h-5.2V46.6z"/>
		<path class="st2" d="M397.8,41.4h5.2v-5.2h25.9v10.4h-20.7v5.2h15.6v5.2h5.2v15.6h-5.2v5.2h-25.9V67.3h20.7v-5.2H403v-5.2h-5.2
			V41.4z"/>
		<path class="st2" d="M444.5,77.7h-10.4V36.2h10.4v15.6h10.4V36.2h10.4v41.5h-10.4V62.1h-10.4V77.7z"/>
		<path class="st2" d="M470.4,41.4h5.2v-5.2h20.7v5.2h5.2v31.1h-5.2v5.2h-20.7v-5.2h-5.2V41.4z M480.8,67.3h10.4V46.6h-10.4V67.3z"
			/>
		<path class="st2" d="M506.7,41.4h5.2v-5.2h20.7v5.2h5.2v31.1h-5.2v5.2h-20.7v-5.2h-5.2V41.4z M517.1,67.3h10.4V46.6h-10.4V67.3z"
			/>
		<path class="st2" d="M543,36.2h31.1v10.4h-10.4v31.1h-10.4V46.6H543V36.2z"/>
		<path class="st2" d="M579.3,36.2h10.4v25.9h-10.4V36.2z M579.3,67.3h10.4v10.4h-10.4V67.3z"/>
	</g>
</g>
</svg>
