<svg id="Layer_1" xmlns="http://www.w3.org/2000/svg" width="279.5" height="60.5" viewBox="0 0 279.5 60.5"><style>.st0{fill:#c17620}.st1{fill:#fff}</style><path class="st0" d="M272.5 6.9H6.9v6.9H0v40h6.9v6.9h265.6v-6.9h7v-40h-7z"/><path class="st0" d="M272.5 7H6.9v6.9H0v40h6.9v6.9h265.6v-6.9h7v-40h-7z"/><path class="st1" d="M50.6 42.1H38.7V23h11.9v2.4H53v4.8h-2.4V35H53v4.8h-2.4v2.3zm-7.1-11.9h4.8v-2.4h-4.8v2.4zm0 7.1h4.8v-2.4h-4.8v2.4zm16.7 4.8h-4.8V25.4h2.4V23h9.5v2.4h2.4v16.7h-4.8v-7.2h-4.8l.1 7.2zm4.7-11.9v-2.4h-4.8v2.4h4.8zm7.2-4.8h2.4V23h11.9v4.8h-9.5v9.5h9.5v4.8H74.5v-2.4h-2.4V25.4zm21.5 16.7h-4.8V23h4.8v4.8H96v-2.4h2.4V23h4.8v4.8h-2.4v2.4h-2.4V35h2.4v2.4h2.4v4.8h-4.8v-2.4H96v-2.4h-2.4v4.7zM122.2 23h14.3v4.8h-4.8v14.3h-4.8V27.8h-4.8V23h.1zm16.7 2.4h2.4V23h9.5v2.4h2.4v14.3h-2.4v2.4h-9.5v-2.4h-2.4V25.4zm4.7 11.9h4.8v-9.5h-4.8v9.5zm33.4 4.8h-4.8V23h4.8v2.4h2.4v2.4h2.4v-2.4h2.4V23h4.8v19.1h-4.8v-9.5h-2.4V35h-2.4v-2.4H177v9.5zm16.7-2.4h-2.4V25.4h2.4V23h11.9v4.8h-9.5v2.4h4.8V35h-4.8v2.4h9.5v4.8h-11.9v-2.5zm21.5-7.1h-2.4v9.5H208V23h4.8v2.4h2.4v2.4h2.4V23h4.8v19.1h-4.8v-7.2h-2.4v-2.3zm9.5-9.6h4.8v14.3h4.8V23h4.8v16.7h-2.4v2.4h-9.5v-2.4h-2.4V23h-.1z"/></svg>