<svg xmlns="http://www.w3.org/2000/svg" width="683.2" height="134.9" viewBox="0 0 683.2 134.9"><style>.st0{opacity:.8}.st1{fill:#5895b7}.st2{fill:#c17620}.st3{fill:#f4c24a}.st4{fill:#910e46}.st5{fill:#ee3d53}</style><g class="st0"><path class="st1" d="M582 48.2v86.5h101.2v-11.6h-12.6v-12.7h-12.7V97.8h-12.6V85.1h12.6V72.5h12.7V59.8h12.6V48.2z"/><path class="st1" d="M596.8 109.4L582 133.6l.1-24.2z"/></g><path class="st1" d="M93.8 25.3h510.3v86.5H93.8z"/><path class="st1" d="M570.4 103.3h112.8v31.6H570.4z"/><g class="st0"><path class="st1" d="M101.7 48.4v86.4H.5v-11.6h12.6v-12.6h12.7V97.9h12.6V85.3H25.8V72.6H13.1V60H.5V48.4z"/><path class="st1" d="M86.9 109.5l14.8 24.3-.1-24.3z"/></g><path class="st2" d="M582 37.9v86.5h101.2v-11.6h-12.6v-12.7h-12.7V87.5h-12.6V74.8h12.6V62.2h12.7V49.5h12.6V37.9z"/><path class="st3" d="M582 26.3v86.5h101.2v-11.6h-12.6V88.5h-12.7V75.9h-12.6V63.2h12.6V50.6h12.7V37.9h12.6V26.3z"/><path class="st2" d="M596.8 99.1L582 123.3l.1-24.2zM101.2 37.9v86.5H0v-11.6h12.6v-12.7h12.7V87.5h12.6V74.8H25.3V62.2H12.6V49.5H0V37.9z"/><path class="st3" d="M101.2 26.3v86.5H0v-11.6h12.6V88.5h12.7V75.9h12.6V63.2H25.3V50.6H12.6V37.9H0V26.3z"/><path class="st2" d="M86.4 99.1l14.8 24.2-.1-24.2zm0-86.5h510.3v86.5H86.4z"/><path class="st3" d="M86.4 0h510.3v86.5H86.4z"/><path class="st4" d="M200.6 74.9h-37.4V15h37.4v7.5h7.5v15h-7.5v15h7.5v15h-7.5v7.4zm-22.5-37.4h15V30h-15v7.5zm0 22.5h15v-7.5h-15V60zm52.4 14.9h-15V22.5h7.5V15h30v7.5h7.5v52.4h-15V52.5h-15v22.4zm15-37.4V30h-15v7.5h15zm30 29.9H268V15h15v44.9h30v15h-37.4l-.1-7.5zm52.4 0h-7.5V15h15v44.9h30v15H328l-.1-7.5zm44.9-44.9h7.5V15h30v7.5h7.5v44.9h-7.5v7.5h-30v-7.5h-7.5V22.5zm15 37.5h15V30h-15v30zm37.5-37.5h7.5V15h30v7.5h7.5v44.9h-7.5v7.5h-30v-7.5h-7.5V22.5zM440.2 60h15V30h-15v30zm60-15h-7.5v30h-15V15.1h15v7.5h7.5v7.5h7.5v-15h15V75h-15V52.5h-7.5V45z"/><path class="st5" d="M200.6 69.1h-37.4V9.2h37.4v7.5h7.5v15h-7.5v15h7.5v15h-7.5v7.4zm-22.5-37.4h15v-7.5h-15v7.5zm0 22.4h15v-7.5h-15v7.5zm52.4 15h-15V16.7h7.5V9.2h30v7.5h7.5v52.4h-15V46.6h-15v22.5zm15-37.4v-7.5h-15v7.5h15zm30 29.9H268V9.2h15v44.9h30v15h-37.4l-.1-7.5zm52.4 0h-7.5V9.2h15v44.9h30v15H328l-.1-7.5zm44.9-44.9h7.5V9.2h30v7.5h7.5v44.9h-7.5v7.5h-30v-7.5h-7.5V16.7zm15 37.4h15v-30h-15v30zm37.5-37.4h7.5V9.2h30v7.5h7.5v44.9h-7.5v7.5h-30v-7.5h-7.5V16.7zm14.9 37.4h15v-30h-15v30zm60-14.9h-7.5v30h-15V9.3h15v7.5h7.5v7.5h7.5v-15h15v59.9h-15V46.7h-7.5v-7.5z"/></svg>