<!-- Generator: Adobe Illustrator 19.2.1, SVG Export Plug-In  -->
<svg version="1.1"
	 xmlns="http://www.w3.org/2000/svg" xmlns:xlink="http://www.w3.org/1999/xlink" xmlns:a="http://ns.adobe.com/AdobeSVGViewerExtensions/3.0/"
	 x="0px" y="0px" width="33.6px" height="61.5px" viewBox="0 0 33.6 61.5" style="enable-background:new 0 0 33.6 61.5;"
	 xml:space="preserve">
<style type="text/css">
	.st0{fill:#EE3D53;}
	.st1{fill:none;stroke:#000000;stroke-width:2;stroke-miterlimit:10;}
	.st2{fill:#A17559;}
</style>
<defs>
</defs>
<g>
	<polygon class="st0" points="26.1,7.5 26.1,0 7.5,0 7.5,7.5 0,7.5 0,14.9 0,26.1 7.5,26.1 7.5,33.6 18.7,33.6 26.1,33.6 26.1,26.1
		33.6,26.1 33.6,14.9 33.6,7.5 	"/>
	<line class="st1" x1="8.1" y1="33.6" x2="8.1" y2="43.5"/>
	<line class="st1" x1="25.5" y1="33.6" x2="25.5" y2="43.5"/>
	<polygon class="st2" points="24.5,41.7 22.4,41.7 9,41.7 9,43.8 6.8,43.8 6.8,59.4 9,59.4 9,61.5 22.4,61.5 24.5,61.5 24.5,59.4
		26.7,59.4 26.7,43.8 24.5,43.8 	"/>
</g>
</svg>
