<?xml version="1.0" encoding="utf-8"?>
<!-- Generator: Adobe Illustrator 22.0.1, SVG Export Plug-In . SVG Version: 6.00 Build 0)  -->
<svg version="1.1" id="Layer_1" xmlns="http://www.w3.org/2000/svg" xmlns:xlink="http://www.w3.org/1999/xlink" x="0px" y="0px"
	 width="33.6px" height="61.5px" viewBox="0 0 33.6 61.5" style="enable-background:new 0 0 33.6 61.5;" xml:space="preserve">
<style type="text/css">
	.st0{fill:#5895B7;}
	.st1{opacity:0.8;}
	.st2{fill:#C17620;}
	.st3{fill:#F4C24A;}
	.st4{fill:#2A6FBA;}
	.st5{fill:#FFFFFF;}
	.st6{fill:#4ABAEF;}
	.st7{fill:#95C9C8;}
	.st8{fill:#DDEFEE;}
	.st9{fill:#1B8E6F;}
	.st10{fill:#3CEA8A;}
	.st11{opacity:0.4;fill:#666666;}
	.st12{fill:#33BC6E;}
	.st13{fill:none;}
	.st14{fill:#7149A4;}
	.st15{fill:#BD86E0;}
	.st16{opacity:0.4;fill:#666666;stroke:#666666;stroke-width:4;stroke-linejoin:bevel;stroke-miterlimit:10;}
	.st17{fill:#F2F2F2;}
	.st18{fill:#E6E6E6;}
	.st19{fill:none;stroke:#000000;stroke-width:4;stroke-linejoin:bevel;stroke-miterlimit:10;}
	.st20{fill:#C6E0DE;}
	.st21{fill:#A7C6C3;}
	.st22{fill:#EE3D53;}
	.st23{fill:none;stroke:#000000;stroke-width:2;stroke-miterlimit:10;}
	.st24{fill:#A17559;}
</style>
<g>
	<rect x="474.8" y="674.9" class="st0" width="484" height="82"/>
	<rect x="926.8" y="748.9" class="st0" width="107" height="30"/>
	<g class="st1">
		<g>
			<polygon class="st0" points="490.8,694.9 490.8,776.9 394.8,776.9 394.8,765.9 406.8,765.9 406.8,753.9 418.8,753.9 418.8,741.9 
				430.8,741.9 430.8,729.9 418.8,729.9 418.8,717.9 406.8,717.9 406.8,705.9 394.8,705.9 394.8,694.9 			"/>
		</g>
		<polygon class="st0" points="476.8,752.9 490.8,775.9 490.7,752.9 		"/>
	</g>
	<g>
		<g>
			<polygon class="st2" points="937.8,686.9 937.8,768.9 1033.8,768.9 1033.8,757.9 1021.8,757.9 1021.8,745.9 1009.8,745.9 
				1009.8,733.9 997.8,733.9 997.8,721.9 1009.8,721.9 1009.8,709.9 1021.8,709.9 1021.8,697.9 1033.8,697.9 1033.8,686.9 			"/>
			<polygon class="st3" points="937.8,675.9 937.8,757.9 1033.8,757.9 1033.8,746.9 1021.8,746.9 1021.8,734.9 1009.8,734.9 
				1009.8,722.9 997.8,722.9 997.8,710.9 1009.8,710.9 1009.8,698.9 1021.8,698.9 1021.8,686.9 1033.8,686.9 1033.8,675.9 			"/>
		</g>
		<polygon class="st2" points="951.8,744.9 937.8,767.9 937.8,744.9 		"/>
		<g>
			<g>
				<polygon class="st2" points="481.8,686.9 481.8,768.9 385.8,768.9 385.8,757.9 397.8,757.9 397.8,745.9 409.8,745.9 
					409.8,733.9 421.8,733.9 421.8,721.9 409.8,721.9 409.8,709.9 397.8,709.9 397.8,697.9 385.8,697.9 385.8,686.9 				"/>
				<polygon class="st3" points="481.8,675.9 481.8,757.9 385.8,757.9 385.8,746.9 397.8,746.9 397.8,734.9 409.8,734.9 
					409.8,722.9 421.8,722.9 421.8,710.9 409.8,710.9 409.8,698.9 397.8,698.9 397.8,686.9 385.8,686.9 385.8,675.9 				"/>
			</g>
			<polygon class="st2" points="467.8,744.9 481.8,767.9 481.7,744.9 			"/>
		</g>
		<g>
			<rect x="467.8" y="662.9" class="st2" width="484" height="82"/>
			<rect x="467.8" y="650.9" class="st3" width="484" height="82"/>
		</g>
	</g>
	<rect x="490.6" y="676.1" class="st13" width="415.2" height="81.8"/>
	<text transform="matrix(1 0 0 1 529.7704 710.6422)" class="st5" style="font-family:'EditUndoBRK'; font-size:60px;">HOW TO PLAY</text>
</g>
<polygon class="st4" points="643.8,943.9 631.8,943.9 558.8,943.9 558.8,955.9 546.8,955.9 546.8,1040.9 558.8,1040.9 558.8,1052.9 
	631.8,1052.9 643.8,1052.9 643.8,1040.9 655.8,1040.9 655.8,955.9 643.8,955.9 "/>
<polygon class="st4" points="643.8,943.9 631.8,943.9 558.8,943.9 558.8,955.9 546.8,955.9 546.8,1040.9 558.8,1040.9 558.8,1052.9 
	631.8,1052.9 643.8,1052.9 643.8,1040.9 655.8,1040.9 655.8,955.9 643.8,955.9 "/>
<rect x="558.8" y="978.1" class="st13" width="89" height="81.8"/>
<text transform="matrix(1 0 0 1 583.3846 1023.5855)" class="st5" style="font-family:'EditUndoBRK'; font-size:79px;">?</text>
<polygon class="st4" points="794.8,943.9 782.8,943.9 709.8,943.9 709.8,955.9 697.8,955.9 697.8,1040.9 709.8,1040.9 709.8,1052.9 
	782.8,1052.9 794.8,1052.9 794.8,1040.9 806.8,1040.9 806.8,955.9 794.8,955.9 "/>
<polygon class="st6" points="794.8,933.9 782.8,933.9 709.8,933.9 709.8,945.9 697.8,945.9 697.8,1030.9 709.8,1030.9 709.8,1042.9 
	782.8,1042.9 794.8,1042.9 794.8,1030.9 806.8,1030.9 806.8,945.9 794.8,945.9 "/>
<rect x="709.8" y="968.1" class="st13" width="89" height="81.8"/>
<text transform="matrix(1 0 0 1 734.3846 1013.5855)" class="st5" style="font-family:'EditUndoBRK'; font-size:79px;">?</text>
<g>
	<polygon class="st0" points="1829.8,788.4 1818.2,788.4 1818.2,776.7 1806.7,776.7 1806.7,763.9 1307.9,763.9 1307.9,776.7 
		1296.4,776.7 1296.4,788.4 1284.8,788.4 1284.8,1473.1 1296.4,1473.1 1296.4,1484.8 1307.9,1484.8 1307.9,1497.6 1806.7,1497.6 
		1806.7,1484.8 1818.2,1484.8 1818.2,1473.1 1829.8,1473.1 	"/>
	<polygon class="st7" points="1829.8,776.4 1818.2,776.4 1818.2,764.7 1806.7,764.7 1806.7,751.9 1307.9,751.9 1307.9,764.7 
		1296.4,764.7 1296.4,776.4 1284.8,776.4 1284.8,1461.1 1296.4,1461.1 1296.4,1472.7 1307.9,1472.7 1307.9,1485.5 1806.7,1485.5 
		1806.7,1472.7 1818.2,1472.7 1818.2,1461.1 1829.8,1461.1 	"/>
	<polygon class="st8" points="1829.8,764.3 1818.2,764.3 1818.2,752.7 1806.7,752.7 1806.7,739.9 1307.9,739.9 1307.9,752.7 
		1296.4,752.7 1296.4,764.3 1284.8,764.3 1284.8,1449.1 1296.4,1449.1 1296.4,1460.7 1307.9,1460.7 1307.9,1473.5 1806.7,1473.5 
		1806.7,1460.7 1818.2,1460.7 1818.2,1449.1 1829.8,1449.1 	"/>
</g>
<g>
	<polygon class="st9" points="780.8,423.9 770.8,423.9 395.9,423.9 395.9,434 385.8,434 385.8,491.8 395.9,491.8 395.9,501.9 
		770.8,501.9 780.8,501.9 780.8,491.8 790.9,491.8 790.9,434 780.8,434 	"/>
	<polygon class="st10" points="780.8,413.9 770.8,413.9 395.9,413.9 395.9,424 385.8,424 385.8,481.8 395.9,481.8 395.9,491.9 
		770.8,491.9 780.8,491.9 780.8,481.8 790.9,481.8 790.9,424 780.8,424 	"/>
	<rect x="386.8" y="437.1" class="st13" width="404" height="81.8"/>
	<text transform="matrix(1 0 0 1 498.9374 464.7646)" class="st5" style="font-family:'EditUndoBRK'; font-size:48px;">PLAYER 1</text>
</g>
<g>
	<polygon class="st11" points="420,303.3 418,297.5 414,285.5 396.2,291.5 398.1,297.3 392.3,299.2 396.4,311.3 402.2,309.3 
		404.1,315.1 416.2,311 414.2,305.2 	"/>
	<polygon class="st11" points="458.8,291.2 456.8,285.5 452.7,273.4 435,279.5 436.9,285.2 431.1,287.2 435.2,299.2 441,297.3 
		442.9,303 455,299 453,293.2 	"/>
	<rect x="399.2" y="244.3" transform="matrix(0.9472 -0.3207 0.3207 0.9472 -63.2528 143.1021)" width="7.1" height="38.6"/>
	<polygon points="418.3,298.5 416.4,292.7 412.3,280.7 394.5,286.7 396.5,292.5 390.7,294.4 394.8,306.5 400.6,304.5 402.5,310.3 
		414.5,306.2 412.6,300.4 	"/>
	<rect x="437.7" y="231.2" transform="matrix(0.9472 -0.3207 0.3207 0.9472 -57.0428 154.7518)" width="7.1" height="38.6"/>
	<polygon points="456.8,285.5 454.9,279.7 450.8,267.7 433,273.7 435,279.5 429.2,281.4 433.3,293.4 439,291.5 441,297.3 453,293.2 
		451,287.4 	"/>
	<rect x="389.2" y="222" transform="matrix(0.9472 -0.3207 0.3207 0.9472 -52.1386 144.6576)" width="47.7" height="17.3"/>
</g>
<g>
	<polygon class="st11" points="486.2,336.9 487.1,332.7 489,324.1 476.2,321.3 475.3,325.4 471.1,324.5 469.2,333.1 473.4,334.1 
		472.5,338.2 481.1,340.1 482,336 	"/>
	<polygon class="st11" points="513.7,343.6 514.6,339.5 516.5,330.9 503.7,328 502.8,332.2 498.7,331.3 496.8,339.9 500.9,340.8 
		500,345 508.6,346.9 509.5,342.7 	"/>
	<rect x="487.8" y="293.5" transform="matrix(0.9766 0.2149 -0.2149 0.9766 77.4121 -98.1743)" width="5" height="26.9"/>
	<polygon points="486.9,333.4 487.9,329.3 489.8,320.6 477,317.8 476.1,322 471.9,321 470,329.7 474.2,330.6 473.2,334.7 
		481.9,336.7 482.8,332.5 	"/>
	<rect x="515.4" y="299.6" transform="matrix(0.9766 0.2149 -0.2149 0.9766 79.3662 -103.9763)" width="5" height="26.9"/>
	<polygon points="514.6,339.5 515.5,335.4 517.4,326.7 504.6,323.9 503.7,328 499.6,327.1 497.7,335.8 501.8,336.7 500.9,340.8 
		509.5,342.7 510.5,338.6 	"/>
	<rect x="491.6" y="285" transform="matrix(0.9766 0.2149 -0.2149 0.9766 74.4003 -102.4188)" width="33.3" height="12"/>
</g>
<g>
	<polygon class="st11" points="562.2,275.1 561.5,272 560.1,265.7 550.7,267.8 551.4,270.8 548.4,271.5 549.8,277.8 552.8,277.2 
		553.5,280.2 559.8,278.8 559.2,275.8 	"/>
	<polygon class="st11" points="582.6,271.1 581.9,268 580.5,261.7 571.1,263.8 571.8,266.8 568.8,267.5 570.2,273.8 573.2,273.2 
		573.9,276.2 580.3,274.8 579.6,271.7 	"/>
	<rect x="553.8" y="244" transform="matrix(0.9761 -0.2173 0.2173 0.9761 -41.8926 126.7965)" width="3.6" height="19.8"/>
	<polygon points="561.6,272.5 561,269.5 559.6,263.1 550.2,265.2 550.8,268.3 547.8,269 549.2,275.3 552.2,274.6 552.9,277.7 
		559.3,276.3 558.6,273.2 	"/>
	<rect x="574.1" y="239.5" transform="matrix(0.9761 -0.2173 0.2173 0.9761 -40.425 131.1012)" width="3.6" height="19.8"/>
	<polygon points="581.9,268 581.3,265 579.9,258.6 570.5,260.7 571.1,263.8 568.1,264.4 569.5,270.8 572.6,270.1 573.2,273.2 
		579.6,271.7 578.9,268.7 	"/>
	<rect x="550.4" y="233.2" transform="matrix(0.9761 -0.2173 0.2173 0.9761 -38.1993 127.94)" width="24.4" height="8.8"/>
</g>
<g>
	<polygon class="st11" points="582.8,320.8 585.4,316.7 590.9,308.2 578.2,300.1 575.6,304.2 571.5,301.6 566,310.2 570.1,312.8 
		567.5,316.9 576.1,322.3 578.7,318.2 	"/>
	<polygon class="st11" points="609.8,339 612.4,334.8 617.9,326.3 605.2,318.2 602.6,322.3 598.5,319.7 593,328.3 597.1,330.9 
		594.5,335 603.1,340.5 605.7,336.3 	"/>
	<rect x="596.1" y="274.7" transform="matrix(0.844 0.5363 -0.5363 0.844 249.0423 -275.9509)" width="5.7" height="30.9"/>
	<polygon points="585,317.4 587.6,313.3 593.1,304.7 580.4,296.7 577.8,300.8 573.6,298.2 568.2,306.7 572.3,309.4 569.7,313.5 
		578.3,318.9 580.9,314.8 	"/>
	<rect x="623.5" y="292.2" transform="matrix(0.844 0.5363 -0.5363 0.844 262.6667 -287.9417)" width="5.7" height="30.9"/>
	<polygon points="612.4,334.8 615,330.7 620.5,322.2 607.8,314.1 605.2,318.2 601.1,315.6 595.6,324.2 599.7,326.8 597.1,330.9 
		605.7,336.3 608.3,332.2 	"/>
	<rect x="605.5" y="273.1" transform="matrix(0.844 0.5363 -0.5363 0.844 247.6108 -291.3131)" width="38.2" height="13.8"/>
</g>
<g>
	<polygon class="st9" points="304.1,-119.6 297.4,-119.6 51.1,-119.6 51.1,-113 44.5,-113 44.5,-74.9 51.1,-74.9 51.1,-68.3 
		297.4,-68.3 304.1,-68.3 304.1,-74.9 310.7,-74.9 310.7,-113 304.1,-113 	"/>
	<polygon class="st12" points="304.1,-119.6 297.4,-119.6 51.1,-119.6 51.1,-113 44.5,-113 44.5,-74.9 51.1,-74.9 51.1,-68.3 
		297.4,-68.3 304.1,-68.3 304.1,-74.9 310.7,-74.9 310.7,-113 304.1,-113 	"/>
	<rect x="45.1" y="-104.3" class="st13" width="265.5" height="32.8"/>
	<text transform="matrix(1 0 0 1 110.8729 -86.1429)" class="st5" style="font-family:'EditUndoBRK'; font-size:31.5429px;">Calibrate</text>
</g>
<g>
	<polygon class="st9" points="624.1,-51.6 617.4,-51.6 371.1,-51.6 371.1,-45 364.5,-45 364.5,-6.9 371.1,-6.9 371.1,-0.3 
		617.4,-0.3 624.1,-0.3 624.1,-6.9 630.7,-6.9 630.7,-45 624.1,-45 	"/>
	<polygon class="st10" points="624.1,-58.1 617.4,-58.1 371.1,-58.1 371.1,-51.5 364.5,-51.5 364.5,-13.5 371.1,-13.5 371.1,-6.9 
		617.4,-6.9 624.1,-6.9 624.1,-13.5 630.7,-13.5 630.7,-51.5 624.1,-51.5 	"/>
	<rect x="365.1" y="-42.9" class="st13" width="265.5" height="32.8"/>
	<text transform="matrix(1 0 0 1 430.8729 -24.7143)" class="st5" style="font-family:'EditUndoBRK'; font-size:31.5429px;">Calibrate</text>
</g>
<g>
	<rect x="366" y="30.8" class="st9" width="219.8" height="28.8"/>
	<rect x="361.2" y="24.2" class="st9" width="229.4" height="30.6"/>
	<polygon class="st10" points="361.2,19.9 361.2,49.1 366,49.1 366,54.8 585.8,54.8 585.8,49.1 590.6,49.1 590.6,19.9 	"/>
</g>
<polygon class="st9" points="581,34.7 581,29.6 575.9,29.6 575.9,29.5 519.3,29.5 488.7,29.5 463.1,29.5 439.3,29.5 375.9,29.5 
	375.9,29.6 370.8,29.6 370.8,34.7 365.7,34.7 365.7,42.3 370.8,42.3 370.8,47.4 375.9,47.4 375.9,47.5 439.3,47.5 463.1,47.5 
	488.7,47.5 519.3,47.5 575.9,47.5 575.9,47.5 581,47.5 581,42.4 586.1,42.4 586.1,34.7 "/>
<g>
	<rect x="357.1" y="128.8" class="st13" width="4.7" height="0.1"/>
	<rect x="357.1" y="146.7" class="st13" width="4.7" height="0.1"/>
	<polygon class="st5" points="378.1,146.7 378.1,141.6 383.2,141.6 383.2,134 378.1,134 378.1,128.9 373,128.9 373,128.8 
		361.8,128.8 361.8,128.8 357.1,128.8 357.1,146.7 361.8,146.7 361.8,146.8 373,146.8 373,146.7 	"/>
</g>
<g>
	<polygon class="st5" points="331.3,93.2 331.3,88.1 326.2,88.1 326.2,88 310.3,88 310.3,106 326.2,106 326.2,106 331.3,106 
		331.3,100.9 336.4,100.9 336.4,93.2 	"/>
	<polygon class="st5" points="317.8,132.1 317.8,127 317.8,127 317.8,126.9 313.3,126.9 312.7,126.9 308.2,126.9 308.2,127 
		308.2,127 308.2,132.1 303.1,132.1 303.1,139.7 308.2,139.7 308.2,144.8 308.2,144.8 308.2,144.9 312.7,144.9 313.3,144.9 
		317.8,144.9 317.8,144.8 317.8,144.8 317.8,139.7 322.9,139.7 322.9,132.1 	"/>
</g>
<polygon class="st5" points="268,34.7 268,29.6 268,29.6 268,29.5 263.5,29.5 262.9,29.5 258.4,29.5 258.4,29.6 258.4,29.6 
	258.4,34.7 253.3,34.7 253.3,42.3 258.4,42.3 258.4,47.4 258.4,47.4 258.4,47.5 262.9,47.5 263.5,47.5 268,47.5 268,47.5 268,47.5 
	268,42.4 273.1,42.4 273.1,34.7 "/>
<polygon class="st14" points="1233.8,423.9 1223.8,423.9 848.9,423.9 848.9,434 838.8,434 838.8,491.8 848.9,491.8 848.9,501.9 
	1223.8,501.9 1233.8,501.9 1233.8,491.8 1243.9,491.8 1243.9,434 1233.8,434 "/>
<polygon class="st15" points="1233.8,413.9 1223.8,413.9 848.9,413.9 848.9,424 838.8,424 838.8,481.8 848.9,481.8 848.9,491.9 
	1223.8,491.9 1233.8,491.9 1233.8,481.8 1243.9,481.8 1243.9,424 1233.8,424 "/>
<rect x="838.8" y="437.1" class="st13" width="405" height="81.8"/>
<text transform="matrix(1 0 0 1 944.5253 464.7646)" class="st5" style="font-family:'EditUndoBRK'; font-size:48px;">PLAYER 2</text>
<g>
	<rect x="859.8" y="417.9" class="st5" width="45.1" height="5.7"/>
	<rect x="911" y="417.9" class="st5" width="5.7" height="5.7"/>
</g>
<g>
	<rect x="405.3" y="418.9" class="st5" width="45.1" height="5.7"/>
	<rect x="456.5" y="418.9" class="st5" width="5.7" height="5.7"/>
</g>
<polygon class="st16" points="794.4,258.9 800.8,264.5 795.2,270.9 815.6,288.3 815.6,326.1 836.4,300 868.1,329.4 874,323.2 
	878.9,327.8 950.6,209.1 "/>
<polygon class="st17" points="791.9,251.8 798.3,257.4 792.7,263.8 813.2,281.1 813.2,319 833.9,292.9 865.7,322.3 871.5,316 
	876.5,320.7 948.1,202 "/>
<polygon class="st18" points="834,292.7 948.4,201.9 813.2,280.9 813.2,318.8 "/>
<polygon class="st19" points="790.9,251.9 797.3,257.5 791.7,263.9 812.1,281.3 812.1,319.2 832.9,293.1 864.6,322.5 870.5,316.2 
	875.4,320.8 947,202.1 "/>
<g>
	<polygon class="st20" points="726.7,-54.8 726.7,108.8 737.1,108.8 737.1,118.3 747.5,118.3 747.5,128.8 1195,128.8 1195,118.3 
		1205.4,118.3 1205.4,108.8 1215.7,108.8 1215.7,-54.8 	"/>
	<polygon class="st20" points="1215.7,-54.8 1215.7,-148.9 1205.4,-148.9 1205.4,-158.5 1195,-158.5 1195,-168.9 747.5,-168.9 
		747.5,-158.5 737.1,-158.5 737.1,-148.9 726.7,-148.9 726.7,-54.8 	"/>
</g>
<g>
	<polygon class="st21" points="737.1,-152.3 747.5,-152.3 747.5,-160.3 737.1,-160.3 737.1,-152.4 726.7,-152.4 726.7,-144.4 
		737.1,-144.4 	"/>
	<rect x="747.5" y="-169" class="st21" width="447.5" height="8"/>
	<polygon class="st21" points="1205.4,-152.4 1205.4,-160.3 1195,-160.3 1195,-152.3 1205.4,-152.3 1205.4,-144.4 1215.7,-144.4 
		1215.7,-152.4 	"/>
</g>
<g>
	<g>
		<g>
			<rect x="333.6" y="-233.3" width="10.2" height="10.2"/>
		</g>
	</g>
	<g>
		<g>
			<path d="M395-243.5v5.1h-5.1v5.1h5.1v20.5h5.1v5.1H395v5.1h5.1h5.1v-10.2h15.4v5.1h5.1v-5.1v-30.7H395z M420.6-217.9h-20.5v-20.5
				h20.5V-217.9z"/>
		</g>
	</g>
	<g>
		<g>
			<rect x="405.3" y="-233.3" width="10.2" height="10.2"/>
		</g>
	</g>
	<g>
		<g>
			<rect x="333.6" y="-161.6" width="10.2" height="10.2"/>
		</g>
	</g>
	<g>
		<g>
			<rect x="395" y="-171.9" width="5.1" height="5.1"/>
		</g>
	</g>
	<g>
		<g>
			<rect x="369.4" y="-146.3" width="5.1" height="5.1"/>
		</g>
	</g>
	<g>
		<g>
			<rect x="374.6" y="-166.7" width="5.1" height="5.1"/>
		</g>
	</g>
	<g>
		<g>
			<rect x="374.6" y="-156.5" width="5.1" height="5.1"/>
		</g>
	</g>
	<g>
		<g>
			<rect x="420.6" y="-182.1" width="5.1" height="5.1"/>
		</g>
	</g>
	<g>
		<g>
			<rect x="323.3" y="-182.1" width="5.1" height="5.1"/>
		</g>
	</g>
	<g>
		<g>
			<rect x="323.3" y="-207.7" width="5.1" height="5.1"/>
		</g>
	</g>
	<g>
		<g>
			<polygon points="379.7,-238.4 379.7,-233.3 369.4,-233.3 369.4,-228.2 384.8,-228.2 384.8,-233.3 384.8,-238.4 			"/>
		</g>
	</g>
	<g>
		<g>
			<path d="M420.6-202.6v5.1h-10.2v5.1H395v-5.1h-5.1v5.1h-10.2v5.1H395v5.1h-10.2h-5.1v-5.1h-5.1v5.1h-5.1v-5.1h-5.1v5.1h-5.1v5.1
				h10.2v5.1h5.1v-5.1h10.2v5.1h-5.1v5.1h5.1v10.2h5.1v5.1h5.1v-5.1h15.4v-10.2h5.1v-5.1h-5.1v-10.2h-10.2v-5.1h10.2v5.1h5.1v-5.1
				h5.1v-5.1h5.1v-5.1v-5.1H420.6L420.6-202.6z M405.3-177v15.4h-15.4V-177H405.3z"/>
		</g>
	</g>
	<g>
		<g>
			<polygon points="389.9,-212.8 384.8,-212.8 384.8,-207.7 379.7,-207.7 379.7,-202.6 379.7,-197.5 384.8,-197.5 384.8,-202.6 
				389.9,-202.6 389.9,-207.7 395,-207.7 395,-212.8 			"/>
		</g>
	</g>
	<g>
		<g>
			<rect x="379.7" y="-146.3" width="10.2" height="5.1"/>
		</g>
	</g>
	<g>
		<g>
			<rect x="364.3" y="-238.4" width="5.1" height="5.1"/>
		</g>
	</g>
	<g>
		<g>
			<rect x="405.3" y="-202.6" width="5.1" height="5.1"/>
		</g>
	</g>
	<g>
		<g>
			<rect x="410.4" y="-207.7" width="5.1" height="5.1"/>
		</g>
	</g>
	<g>
		<g>
			<rect x="343.8" y="-182.1" width="5.1" height="5.1"/>
		</g>
	</g>
	<g>
		<g>
			<path d="M354.1-146.3v-20.5h5.1v-5.1v-5.1h-5.1v5.1h-15.4v-5.1h-5.1h-5.1v5.1h-5.1v30.7h30.7h10.2v-5.1H354.1z M348.9-146.3
				h-20.5v-20.5h20.5V-146.3z"/>
		</g>
	</g>
	<g>
		<g>
			<rect x="354.1" y="-212.8" width="5.1" height="5.1"/>
		</g>
	</g>
	<g>
		<g>
			<path d="M359.2-243.5h-5.1h-30.7v30.7h5.1v5.1h5.1v-5.1h5.1v5.1h5.1v-5.1h10.2v-10.2h5.1v-5.1h-5.1v-10.2h5.1h5.1v-5.1H359.2z
				 M348.9-217.9h-20.5v-20.5h20.5V-217.9z"/>
		</g>
	</g>
	<g>
		<g>
			<rect x="384.8" y="-228.2" width="5.1" height="5.1"/>
		</g>
	</g>
	<g>
		<g>
			<rect x="374.6" y="-243.5" width="5.1" height="5.1"/>
		</g>
	</g>
	<g>
		<g>
			<path d="M384.8-212.8v-5.1h-5.1v-5.1h-5.1v5.1h-10.2v-5.1h-5.1v5.1v5.1h5.1v10.2h-15.4v-5.1h-5.1v5.1h-15.4v5.1h10.2v5.1h-15.4
				v5.1h15.4v5.1h5.1v-5.1h5.1v5.1h5.1v-5.1h10.2v-5.1h-5.1v-5.1h5.1h5.1v5.1h5.1h5.1v-5.1h-5.1v-5.1h-5.1v-10.2H384.8L384.8-212.8z
				 M354.1-192.3h-10.2v-5.1h10.2V-192.3z"/>
		</g>
	</g>
	<g>
		<g>
			<polygon points="369.4,-161.6 369.4,-166.7 369.4,-171.9 364.3,-171.9 364.3,-166.7 359.2,-166.7 359.2,-161.6 364.3,-161.6 
				364.3,-156.5 359.2,-156.5 359.2,-151.4 369.4,-151.4 369.4,-156.5 374.6,-156.5 374.6,-161.6 			"/>
		</g>
	</g>
	<g>
		<g>
			<polygon points="415.5,-151.4 415.5,-156.5 410.4,-156.5 410.4,-151.4 395,-151.4 395,-146.3 405.3,-146.3 405.3,-141.1 
				410.4,-141.1 410.4,-146.3 420.6,-146.3 420.6,-141.1 425.8,-141.1 425.8,-146.3 425.8,-151.4 			"/>
		</g>
	</g>
	<g>
		<g>
			<polygon points="420.6,-171.9 420.6,-166.7 415.5,-166.7 415.5,-161.6 425.8,-161.6 425.8,-166.7 425.8,-171.9 			"/>
		</g>
	</g>
</g>
<g>
	<g>
		<polygon class="st9" points="95.2,172.6 91.6,172.6 -45.6,172.6 -45.6,176.3 -49.3,176.3 -49.3,197.4 -45.6,197.4 -45.6,201.1 
			91.6,201.1 95.2,201.1 95.2,197.4 98.9,197.4 98.9,176.3 95.2,176.3 		"/>
		<polygon class="st12" points="95.2,172.6 91.6,172.6 -45.6,172.6 -45.6,176.3 -49.3,176.3 -49.3,197.4 -45.6,197.4 -45.6,201.1 
			91.6,201.1 95.2,201.1 95.2,197.4 98.9,197.4 98.9,176.3 95.2,176.3 		"/>
		<rect x="-48.9" y="181.1" class="st13" width="147.8" height="18.3"/>
		<text transform="matrix(1 0 0 1 -21.1881 191.2014)" class="st5" style="font-family:'EditUndoBRK'; font-size:17.5636px;">Recalibrate</text>
	</g>
	<g>
		<rect x="-43.2" y="174.7" class="st5" width="13.1" height="1.7"/>
		<rect x="-28.3" y="174.7" class="st5" width="1.7" height="1.7"/>
	</g>
</g>
<g>
	<g>
		<polygon class="st9" points="95.2,214.6 91.6,214.6 -45.6,214.6 -45.6,218.3 -49.3,218.3 -49.3,239.4 -45.6,239.4 -45.6,243.1 
			91.6,243.1 95.2,243.1 95.2,239.4 98.9,239.4 98.9,218.3 95.2,218.3 		"/>
		<polygon class="st10" points="95.2,210.9 91.6,210.9 -45.6,210.9 -45.6,214.6 -49.3,214.6 -49.3,235.8 -45.6,235.8 -45.6,239.5 
			91.6,239.5 95.2,239.5 95.2,235.8 98.9,235.8 98.9,214.6 95.2,214.6 		"/>
		<rect x="-48.9" y="219.4" class="st13" width="147.8" height="18.3"/>
		<text transform="matrix(1 0 0 1 -21.1881 229.5424)" class="st5" style="font-family:'EditUndoBRK'; font-size:17.5636px;">Recalibrate</text>
	</g>
	<g>
		<rect x="-43.2" y="213.7" class="st5" width="13.1" height="1.7"/>
		<rect x="-28.3" y="213.7" class="st5" width="1.7" height="1.7"/>
	</g>
</g>
<g>
	<rect x="376.6" y="-54.6" class="st5" width="23.6" height="3"/>
	<rect x="403.4" y="-54.6" class="st5" width="3" height="3"/>
</g>
<g>
	<rect x="56.2" y="-116" class="st5" width="23.6" height="3"/>
	<rect x="82.9" y="-116" class="st5" width="3" height="3"/>
</g>
<g>
	<polygon class="st22" points="26.1,7.5 26.1,0 7.5,0 7.5,7.5 0,7.5 0,14.9 0,26.1 7.5,26.1 7.5,33.6 18.7,33.6 26.1,33.6 
		26.1,26.1 33.6,26.1 33.6,14.9 33.6,7.5 	"/>
	<line class="st23" x1="8.1" y1="33.6" x2="8.1" y2="43.5"/>
	<line class="st23" x1="25.5" y1="33.6" x2="25.5" y2="43.5"/>
	<polygon class="st24" points="24.5,41.7 22.4,41.7 9,41.7 9,43.8 6.8,43.8 6.8,59.4 9,59.4 9,61.5 22.4,61.5 24.5,61.5 24.5,59.4 
		26.7,59.4 26.7,43.8 24.5,43.8 	"/>
</g>
</svg>
