<svg id="Layer_1" xmlns="http://www.w3.org/2000/svg" width="33.6" height="61.5" viewBox="0 0 33.6 61.5"><style>.st0{fill:#5895b7}.st1{opacity:.8}.st2{fill:#c17620}.st3{fill:#f4c24a}.st4{fill:#2a6fba}.st5{fill:#fff}.st6{fill:#4abaef}.st7{fill:#95c9c8}.st8{fill:#ddefee}.st9{fill:#1b8e6f}.st10{fill:#3cea8a}.st11{opacity:.4;fill:#666}.st12{fill:#33bc6e}.st13{fill:none}.st14{fill:#7149a4}.st15{fill:#bd86e0}.st16{opacity:.4;fill:#666;stroke:#666;stroke-width:4;stroke-linejoin:bevel;stroke-miterlimit:10}.st17{fill:#f2f2f2}.st18{fill:#e6e6e6}.st19{fill:none;stroke:#000;stroke-width:4;stroke-linejoin:bevel;stroke-miterlimit:10}.st20{fill:#c6e0de}.st21{fill:#a7c6c3}.st22{fill:#ee3d53}.st23{fill:none;stroke:#000;stroke-width:2;stroke-miterlimit:10}.st24{fill:#a17559}</style><path class="st0" d="M474.8 674.9h484v82h-484z"/><path class="st0" d="M926.8 748.9h107v30h-107z"/><g class="st1"><path class="st0" d="M490.8 694.9v82h-96v-11h12v-12h12v-12h12v-12h-12v-12h-12v-12h-12v-11z"/><path class="st0" d="M476.8 752.9l14 23-.1-23z"/></g><path class="st2" d="M937.8 686.9v82h96v-11h-12v-12h-12v-12h-12v-12h12v-12h12v-12h12v-11z"/><path class="st3" d="M937.8 675.9v82h96v-11h-12v-12h-12v-12h-12v-12h12v-12h12v-12h12v-11z"/><path class="st2" d="M951.8 744.9l-14 23v-23zm-470-58v82h-96v-11h12v-12h12v-12h12v-12h-12v-12h-12v-12h-12v-11z"/><path class="st3" d="M481.8 675.9v82h-96v-11h12v-12h12v-12h12v-12h-12v-12h-12v-12h-12v-11z"/><path class="st2" d="M467.8 744.9l14 23-.1-23zm0-82h484v82h-484z"/><path class="st3" d="M467.8 650.9h484v82h-484z"/><path class="st13" d="M490.6 676.1h415.2v81.8H490.6z"/><text transform="translate(529.77 710.642)" class="st5" font-family="EditUndoBRK" font-size="60">HOW TO PLAY</text><path class="st4" d="M643.8 943.9h-85v12h-12v85h12v12h85v-12h12v-85h-12z"/><path class="st4" d="M643.8 943.9h-85v12h-12v85h12v12h85v-12h12v-85h-12z"/><path class="st13" d="M558.8 978.1h89v81.8h-89z"/><text transform="translate(583.385 1023.586)" class="st5" font-family="EditUndoBRK" font-size="79">?</text><path class="st4" d="M794.8 943.9h-85v12h-12v85h12v12h85v-12h12v-85h-12z"/><path class="st6" d="M794.8 933.9h-85v12h-12v85h12v12h85v-12h12v-85h-12z"/><path class="st13" d="M709.8 968.1h89v81.8h-89z"/><text transform="translate(734.385 1013.586)" class="st5" font-family="EditUndoBRK" font-size="79">?</text><path class="st0" d="M1829.8 788.4h-11.6v-11.7h-11.5v-12.8h-498.8v12.8h-11.5v11.7h-11.6v684.7h11.6v11.7h11.5v12.8h498.8v-12.8h11.5v-11.7h11.6z"/><path class="st7" d="M1829.8 776.4h-11.6v-11.7h-11.5v-12.8h-498.8v12.8h-11.5v11.7h-11.6v684.7h11.6v11.6h11.5v12.8h498.8v-12.8h11.5v-11.6h11.6z"/><path class="st8" d="M1829.8 764.3h-11.6v-11.6h-11.5v-12.8h-498.8v12.8h-11.5v11.6h-11.6v684.8h11.6v11.6h11.5v12.8h498.8v-12.8h11.5v-11.6h11.6z"/><path class="st9" d="M780.8 423.9H395.9V434h-10.1v57.8h10.1v10.1h384.9v-10.1h10.1V434h-10.1z"/><path class="st10" d="M780.8 413.9H395.9V424h-10.1v57.8h10.1v10.1h384.9v-10.1h10.1V424h-10.1z"/><path class="st13" d="M386.8 437.1h404v81.8h-404z"/><text transform="translate(498.937 464.765)" class="st5" font-family="EditUndoBRK" font-size="48">PLAYER 1</text><path class="st11" d="M420 303.3l-2-5.8-4-12-17.8 6 1.9 5.8-5.8 1.9 4.1 12.1 5.8-2 1.9 5.8 12.1-4.1-2-5.8zm38.8-12.1l-2-5.7-4.1-12.1-17.7 6.1 1.9 5.7-5.8 2 4.1 12 5.8-1.9 1.9 5.7 12.1-4-2-5.8z"/><path transform="rotate(-18.702 402.826 263.555)" d="M399.2 244.3h7.1v38.6h-7.1z"/><path d="M418.3 298.5l-1.9-5.8-4.1-12-17.8 6 2 5.8-5.8 1.9 4.1 12.1 5.8-2 1.9 5.8 12-4.1-1.9-5.8z"/><path transform="rotate(-18.702 441.297 250.525)" d="M437.7 231.2h7.1v38.6h-7.1z"/><path d="M456.8 285.5l-1.9-5.8-4.1-12-17.8 6 2 5.8-5.8 1.9 4.1 12 5.7-1.9 2 5.8 12-4.1-2-5.8z"/><path transform="rotate(-18.702 413.104 230.59)" d="M389.2 222h47.7v17.3h-47.7z"/><path class="st11" d="M486.2 336.9l.9-4.2 1.9-8.6-12.8-2.8-.9 4.1-4.2-.9-1.9 8.6 4.2 1-.9 4.1 8.6 1.9.9-4.1zm27.5 6.7l.9-4.1 1.9-8.6-12.8-2.9-.9 4.2-4.1-.9-1.9 8.6 4.1.9-.9 4.2 8.6 1.9.9-4.2z"/><path transform="rotate(12.41 490.207 306.927)" d="M487.8 293.5h5v26.9h-5z"/><path d="M486.9 333.4l1-4.1 1.9-8.7-12.8-2.8-.9 4.2-4.2-1-1.9 8.7 4.2.9-1 4.1 8.7 2 .9-4.2z"/><path transform="rotate(12.41 517.868 313.012)" d="M515.4 299.6h5v26.9h-5z"/><path d="M514.6 339.5l.9-4.1 1.9-8.7-12.8-2.8-.9 4.1-4.1-.9-1.9 8.7 4.1.9-.9 4.1 8.6 1.9 1-4.1z"/><path transform="rotate(12.41 508.222 290.953)" d="M491.6 285h33.3v12h-33.3z"/><path class="st11" d="M562.2 275.1l-.7-3.1-1.4-6.3-9.4 2.1.7 3-3 .7 1.4 6.3 3-.6.7 3 6.3-1.4-.6-3zm20.4-4l-.7-3.1-1.4-6.3-9.4 2.1.7 3-3 .7 1.4 6.3 3-.6.7 3 6.4-1.4-.7-3.1z"/><path transform="rotate(-12.552 555.584 253.894)" d="M553.8 244h3.6v19.8h-3.6z"/><path d="M561.6 272.5l-.6-3-1.4-6.4-9.4 2.1.6 3.1-3 .7 1.4 6.3 3-.7.7 3.1 6.4-1.4-.7-3.1z"/><path transform="rotate(-12.552 575.891 249.373)" d="M574.1 239.5h3.6v19.8h-3.6z"/><path d="M581.9 268l-.6-3-1.4-6.4-9.4 2.1.6 3.1-3 .6 1.4 6.4 3.1-.7.6 3.1 6.4-1.5-.7-3z"/><path transform="rotate(-12.552 562.63 237.672)" d="M550.4 233.2h24.4v8.8h-24.4z"/><path class="st11" d="M582.8 320.8l2.6-4.1 5.5-8.5-12.7-8.1-2.6 4.1-4.1-2.6-5.5 8.6 4.1 2.6-2.6 4.1 8.6 5.4 2.6-4.1zm27 18.2l2.6-4.2 5.5-8.5-12.7-8.1-2.6 4.1-4.1-2.6-5.5 8.6 4.1 2.6-2.6 4.1 8.6 5.5 2.6-4.2z"/><path transform="rotate(32.435 598.945 290.149)" d="M596.1 274.7h5.7v30.9h-5.7z"/><path d="M585 317.4l2.6-4.1 5.5-8.6-12.7-8-2.6 4.1-4.2-2.6-5.4 8.5 4.1 2.7-2.6 4.1 8.6 5.4 2.6-4.1z"/><path transform="rotate(32.435 626.372 307.575)" d="M623.5 292.2h5.7v30.9h-5.7z"/><path d="M612.4 334.8l2.6-4.1 5.5-8.5-12.7-8.1-2.6 4.1-4.1-2.6-5.5 8.6 4.1 2.6-2.6 4.1 8.6 5.4 2.6-4.1z"/><path transform="rotate(32.435 624.64 280.006)" d="M605.5 273.1h38.2v13.8h-38.2z"/><path class="st9" d="M304.1-119.6h-253v6.6h-6.6v38.1h6.6v6.6h253v-6.6h6.6V-113h-6.6z"/><path class="st12" d="M304.1-119.6h-253v6.6h-6.6v38.1h6.6v6.6h253v-6.6h6.6V-113h-6.6z"/><path class="st13" d="M45.1-104.3h265.5v32.8H45.1z"/><text transform="translate(110.873 -86.143)" class="st5" font-family="EditUndoBRK" font-size="31.543">Calibrate</text><path class="st9" d="M624.1-51.6h-253v6.6h-6.6v38.1h6.6v6.6h253v-6.6h6.6V-45h-6.6z"/><path class="st10" d="M624.1-58.1h-253v6.6h-6.6v38h6.6v6.6h253v-6.6h6.6v-38h-6.6z"/><path class="st13" d="M365.1-42.9h265.5v32.8H365.1z"/><text transform="translate(430.873 -24.714)" class="st5" font-family="EditUndoBRK" font-size="31.543">Calibrate</text><path class="st9" d="M366 30.8h219.8v28.8H366z"/><path class="st9" d="M361.2 24.2h229.4v30.6H361.2z"/><path class="st10" d="M361.2 19.9v29.2h4.8v5.7h219.8v-5.7h4.8V19.9z"/><path class="st9" d="M581 34.7v-5.1h-5.1v-.1h-200v.1h-5.1v5.1h-5.1v7.6h5.1v5.1h5.1v.1H581v-5.1h5.1v-7.7z"/><path class="st13" d="M357.1 128.8h4.7v.1h-4.7zm0 17.9h4.7v.1h-4.7z"/><path class="st5" d="M378.1 146.7v-5.1h5.1V134h-5.1v-5.1H373v-.1h-15.9v17.9h4.7v.1H373v-.1zm-46.8-53.5v-5.1h-5.1V88h-15.9v18h21v-5.1h5.1v-7.7zm-13.5 38.9v-5.2h-9.6v5.2h-5.1v7.6h5.1v5.2h9.6v-5.2h5.1v-7.6zM268 34.7v-5.2h-9.6v5.2h-5.1v7.6h5.1v5.2h9.6v-5.1h5.1v-7.7z"/><path class="st14" d="M1233.8 423.9H848.9V434h-10.1v57.8h10.1v10.1h384.9v-10.1h10.1V434h-10.1z"/><path class="st15" d="M1233.8 413.9H848.9V424h-10.1v57.8h10.1v10.1h384.9v-10.1h10.1V424h-10.1z"/><path class="st13" d="M838.8 437.1h405v81.8h-405z"/><text transform="translate(944.525 464.765)" class="st5" font-family="EditUndoBRK" font-size="48">PLAYER 2</text><path class="st5" d="M859.8 417.9h45.1v5.7h-45.1zm51.2 0h5.7v5.7H911zm-505.7 1h45.1v5.7h-45.1zm51.2 0h5.7v5.7h-5.7z"/><path class="st16" d="M794.4 258.9l6.4 5.6-5.6 6.4 20.4 17.4v37.8l20.8-26.1 31.7 29.4 5.9-6.2 4.9 4.6 71.7-118.7z"/><path class="st17" d="M791.9 251.8l6.4 5.6-5.6 6.4 20.5 17.3V319l20.7-26.1 31.8 29.4 5.8-6.3 5 4.7L948.1 202z"/><path class="st18" d="M834 292.7l114.4-90.8-135.2 79v37.9z"/><path class="st19" d="M790.9 251.9l6.4 5.6-5.6 6.4 20.4 17.4v37.9l20.8-26.1 31.7 29.4 5.9-6.3 4.9 4.6L947 202.1z"/><path class="st20" d="M726.7-54.8v163.6h10.4v9.5h10.4v10.5H1195v-10.5h10.4v-9.5h10.3V-54.8z"/><path class="st20" d="M1215.7-54.8v-94.1h-10.3v-9.6H1195v-10.4H747.5v10.4h-10.4v9.6h-10.4v94.1z"/><path class="st21" d="M737.1-152.3h10.4v-8h-10.4v7.9h-10.4v8h10.4zm10.4-16.7H1195v8H747.5zm457.9 16.6v-7.9H1195v8h10.4v7.9h10.3v-8z"/><path d="M333.6-233.3h10.2v10.2h-10.2zm61.4-10.2v5.1h-5.1v5.1h5.1v20.5h5.1v5.1H395v5.1h10.2v-10.2h15.4v5.1h5.1v-35.8H395zm25.6 25.6h-20.5v-20.5h20.5v20.5z"/><path d="M405.3-233.3h10.2v10.2h-10.2zm-71.7 71.7h10.2v10.2h-10.2zm61.4-10.3h5.1v5.1H395zm-25.6 25.6h5.1v5.1h-5.1zm5.2-20.4h5.1v5.1h-5.1zm0 10.2h5.1v5.1h-5.1zm46-25.6h5.1v5.1h-5.1zm-97.3 0h5.1v5.1h-5.1zm0-25.6h5.1v5.1h-5.1zm56.4-30.7v5.1h-10.3v5.1h15.4v-10.2z"/><path d="M420.6-202.6v5.1h-10.2v5.1H395v-5.1h-5.1v5.1h-10.2v5.1H395v5.1h-15.3v-5.1h-5.1v5.1h-5.1v-5.1h-5.1v5.1h-5.1v5.1h10.2v5.1h5.1v-5.1h10.2v5.1h-5.1v5.1h5.1v10.2h5.1v5.1h5.1v-5.1h15.4v-10.2h5.1v-5.1h-5.1v-10.2h-10.2v-5.1h10.2v5.1h5.1v-5.1h5.1v-5.1h5.1v-10.2h-5.1zM405.3-177v15.4h-15.4V-177h15.4zm-15.4-35.8h-5.1v5.1h-5.1v10.2h5.1v-5.1h5.1v-5.1h5.1v-5.1zm-10.2 66.5h10.2v5.1h-10.2zm-15.4-92.1h5.1v5.1h-5.1z"/><path d="M405.3-202.6h5.1v5.1h-5.1zm5.1-5.1h5.1v5.1h-5.1zm-66.6 25.6h5.1v5.1h-5.1zm10.3 35.8v-20.5h5.1V-177h-5.1v5.1h-15.4v-5.1h-10.2v5.1h-5.1v30.7h40.9v-5.1h-10.2zm-5.2 0h-20.5v-20.5h20.5v20.5zm5.2-66.5h5.1v5.1h-5.1zm5.1-30.7h-35.8v30.7h5.1v5.1h5.1v-5.1h5.1v5.1h5.1v-5.1H354V-223h5.1v-5.1H354v-10.2h10.2v-5.1h-5zm-10.3 25.6h-20.5v-20.5h20.5v20.5zm35.9-10.3h5.1v5.1h-5.1zm-10.2-15.3h5.1v5.1h-5.1z"/><path d="M384.8-212.8v-5.1h-5.1v-5.1h-5.1v5.1h-10.2v-5.1h-5.1v10.2h5.1v10.2H349v-5.1h-5.1v5.1h-15.4v5.1h10.2v5.1h-15.4v5.1h15.4v5.1h5.1v-5.1h5.1v5.1h5.1v-5.1h10.2v-5.1h-5.1v-5.1h10.2v5.1h10.2v-5.1h-5.1v-5.1h-5.1v-10.2h15.5zm-30.7 20.5h-10.2v-5.1h10.2v5.1zm15.3 30.7v-10.3h-5.1v5.2h-5.1v5.1h5.1v5.1h-5.1v5.1h10.2v-5.1h5.2v-5.1zm46.1 10.2v-5.1h-5.1v5.1H395v5.1h10.3v5.2h5.1v-5.2h10.2v5.2h5.2v-10.3zm5.1-20.5v5.2h-5.1v5.1h10.3v-10.3z"/><path class="st9" d="M95.2 172.6H-45.6v3.7h-3.7v21.1h3.7v3.7H95.2v-3.7h3.7v-21.1h-3.7z"/><path class="st12" d="M95.2 172.6H-45.6v3.7h-3.7v21.1h3.7v3.7H95.2v-3.7h3.7v-21.1h-3.7z"/><path class="st13" d="M-48.9 181.1H98.9v18.3H-48.9z"/><text transform="translate(-21.188 191.201)" class="st5" font-family="EditUndoBRK" font-size="17.564">Recalibrate</text><path class="st5" d="M-43.2 174.7h13.1v1.7h-13.1zm14.9 0h1.7v1.7h-1.7z"/><path class="st9" d="M95.2 214.6H-45.6v3.7h-3.7v21.1h3.7v3.7H95.2v-3.7h3.7v-21.1h-3.7z"/><path class="st10" d="M95.2 210.9H-45.6v3.7h-3.7v21.2h3.7v3.7H95.2v-3.7h3.7v-21.2h-3.7z"/><path class="st13" d="M-48.9 219.4H98.9v18.3H-48.9z"/><text transform="translate(-21.188 229.542)" class="st5" font-family="EditUndoBRK" font-size="17.564">Recalibrate</text><path class="st5" d="M-43.2 213.7h13.1v1.7h-13.1zm14.9 0h1.7v1.7h-1.7zM376.6-54.6h23.6v3h-23.6zm26.8 0h3v3h-3zM56.2-116h23.6v3H56.2zm26.7 0h3v3h-3z"/><path class="st22" d="M26.1 7.5V0H7.5v7.5H0v18.6h7.5v7.5h18.6v-7.5h7.5V7.5z"/><path class="st23" d="M8.1 33.6v9.9m17.4-9.9v9.9"/><path class="st24" d="M24.5 41.7H9v2.1H6.8v15.6H9v2.1h15.5v-2.1h2.2V43.8h-2.2z"/></svg>