<svg id="Layer_1" xmlns="http://www.w3.org/2000/svg" xmlns:xlink="http://www.w3.org/1999/xlink" width="683.3" height="135" viewBox="0 0 683.3 135"><style>.st0{fill:#5895b7}.st1{opacity:.8}.st2{fill:#c17620}.st3{fill:#f4c24a}.st4{fill:#fff}.st5{fill:#2a6fba}.st6{fill:#4abaef}.st7{fill:#95c9c8}.st8{fill:#ddefee}.st9{fill:#1b8e6f}.st10{fill:#3cea8a}.st11{opacity:.4;fill:#666}.st12{fill:#33bc6e}.st13{fill:none}.st14{fill:#7149a4}.st15{fill:#bd86e0}.st16{opacity:.4;fill:#666;stroke:#666;stroke-width:4;stroke-linejoin:bevel;stroke-miterlimit:10}.st17{fill:#f2f2f2}.st18{fill:#e6e6e6}.st19{fill:none;stroke:#000;stroke-width:4;stroke-linejoin:bevel;stroke-miterlimit:10}.st20{fill:#c6e0de}.st21{fill:#a7c6c3}.st22{fill:#ee3d53}.st23{fill:none;stroke:#000;stroke-width:2;stroke-miterlimit:10}.st24{fill:#a17559}.st25{fill:#910e46}.st26{fill:#238d6f}.st27{fill:#704ca2}.st28{fill:#47e88d}.st29{fill:#bc88de}.st30{fill:#ccc}.st31{opacity:.4}</style><path class="st0" d="M836.6 1340.6h484v82h-484z"/><path class="st0" d="M1288.6 1414.6h107v30h-107z"/><g class="st1"><path class="st0" d="M852.6 1360.6v82h-96v-11h12v-12h12v-12h12v-12h-12v-12h-12v-12h-12v-11z"/><path class="st0" d="M838.6 1418.6l14 23-.1-23z"/></g><path class="st2" d="M1299.6 1352.6v82h96v-11h-12v-12h-12v-12h-12v-12h12v-12h12v-12h12v-11z"/><path class="st3" d="M1299.6 1341.6v82h96v-11h-12v-12h-12v-12h-12v-12h12v-12h12v-12h12v-11z"/><path class="st2" d="M1313.6 1410.6l-14 23v-23zm-470-58v82h-96v-11h12v-12h12v-12h12v-12h-12v-12h-12v-12h-12v-11z"/><path class="st3" d="M843.6 1341.6v82h-96v-11h12v-12h12v-12h12v-12h-12v-12h-12v-12h-12v-11z"/><path class="st2" d="M829.6 1410.6l14 23-.1-23zm0-82h484v82h-484z"/><path class="st3" d="M829.6 1316.6h484v82h-484z"/><path class="st4" d="M900.2 1376.4h-8.6v-34.6h8.6v13h8.6v-13h8.6v34.6h-8.6v-13h-8.6v13zm21.6-30.3h4.3v-4.3h17.3v4.3h4.3v25.9h-4.3v4.3h-17.3v-4.3h-4.3v-25.9zm8.6 21.6h8.6v-17.3h-8.6v17.3zm30.3 8.7H952v-34.6h8.6v17.3h4.3v-4.3h4.3v4.3h4.3v-17.3h8.6v34.6h-8.6v-4.3h-4.3v-4.3H965v4.3h-4.3v4.3zm56.1-34.6h25.9v8.6h-8.6v25.9h-8.6v-25.9h-8.6v-8.6zm30.3 4.3h4.3v-4.3h17.3v4.3h4.3v25.9h-4.3v4.3h-17.3v-4.3h-4.3v-25.9zm8.6 21.6h8.6v-17.3h-8.6v17.3zm60.5 8.7h-8.6v-34.6h21.6v4.3h4.3v13h-4.3v4.3h-13v13zm0-21.6h8.6v-4.3h-8.6v4.3zm25.9 17.2h-4.3v-30.2h8.6v25.9h17.3v8.6h-21.6v-4.3zm34.6 4.4h-8.6v-30.2h4.3v-4.3h17.3v4.3h4.3v30.2h-8.6v-13h-8.6v13zm8.6-21.6v-4.3h-8.6v4.3h8.6zm13-13h8.6v13h8.6v-13h8.6v17.3h-4.3v4.3h-4.3v13h-8.6v-13h-4.3v-4.3h-4.3v-17.3z"/><path class="st5" d="M1005.6 1609.6h-85v12h-12v85h12v12h85v-12h12v-85h-12z"/><path class="st5" d="M1005.6 1609.6h-85v12h-12v85h12v12h85v-12h12v-85h-12z"/><path class="st4" d="M945.2 1643.8h28.4v5.7h5.7v17.1h-5.7v5.7h-17.1v-11.4h11.4v-5.7h-22.8v-11.4zm11.4 34.1H968v11.4h-11.4v-11.4z"/><path class="st5" d="M1156.6 1609.6h-85v12h-12v85h12v12h85v-12h12v-85h-12z"/><path class="st6" d="M1156.6 1599.6h-85v12h-12v85h12v12h85v-12h12v-85h-12z"/><path class="st4" d="M1096.2 1633.8h28.4v5.7h5.7v17.1h-5.7v5.7h-17.1v-11.4h11.4v-5.7h-22.8v-11.4zm11.4 34.1h11.4v11.4h-11.4v-11.4z"/><path class="st0" d="M2191.6 1454.1H2180v-11.6h-11.6v-12.8h-498.7v12.8h-11.5v11.6h-11.6v684.7h11.6v11.7h11.5v12.8h498.7v-12.8h11.6v-11.7h11.6z"/><path class="st7" d="M2191.6 1442.1H2180v-11.7h-11.6v-12.8h-498.7v12.8h-11.5v11.7h-11.6v684.7h11.6v11.7h11.5v12.8h498.7v-12.8h11.6v-11.7h11.6z"/><path class="st8" d="M2191.6 1430.1H2180v-11.7h-11.6v-12.8h-498.7v12.8h-11.5v11.7h-11.6v684.7h11.6v11.6h11.5v12.8h498.7v-12.8h11.6v-11.6h11.6z"/><path class="st9" d="M1142.6 1089.6h-385v10.1h-10v57.8h10v10.1h385v-10.1h10.1v-57.8h-10.1z"/><path class="st10" d="M1142.6 1079.6h-385v10.1h-10v57.8h10v10.1h385v-10.1h10.1v-57.8h-10.1z"/><path class="st4" d="M867.6 1130.5h-6.9v-27.6H878v3.5h3.5v10.4H878v3.5h-10.4v10.2zm0-17.3h6.9v-3.5h-6.9v3.5zm20.8 13.8h-3.5v-24.2h6.9v20.7h13.8v6.9h-17.3v-3.4zm27.6 3.5h-6.9v-24.2h3.5v-3.5h13.8v3.5h3.5v24.2H923v-10.4h-7v10.4zm6.9-17.3v-3.5H916v3.5h6.9zm10.4-10.4h6.9v10.4h6.9v-10.4h6.9v13.8h-3.5v3.5H947v10.4h-6.9v-10.4h-3.5v-3.5h-3.5v-13.8zm27.6 24.2h-3.5v-20.7h3.5v-3.5h17.3v6.9h-13.8v3.5h6.9v6.9h-6.9v3.5h13.8v6.9h-17.3v-3.5zm31.2-6.9h-3.5v10.4h-6.9v-27.6H999v3.5h3.5v10.4H999v3.5h3.5v10.4h-6.9v-6.9h-3.5v-3.7zm-3.5-6.9h6.9v-3.5h-6.9v3.5zm41.5-10.4h6.9v27.6h-6.9v-27.6z"/><path class="st11" d="M781.8 969l-2-5.8-4.1-12-17.8 6.1 2 5.7-5.8 2 4.1 12 5.8-2 1.9 5.8 12-4.1-1.9-5.7zm38.8-12l-2-5.8-4.1-12-17.8 6 2 5.8-5.8 1.9 4.1 12 5.8-1.9 1.9 5.7 12-4-1.9-5.8z"/><path transform="rotate(-18.702 764.699 929.317)" d="M761 910h7.1v38.6H761z"/><path d="M780.1 964.2l-1.9-5.8-4.1-12-17.8 6 2 5.8-5.8 2 4.1 12 5.7-2 2 5.8 12-4.1-1.9-5.7z"/><path transform="rotate(-18.702 803.17 916.287)" d="M799.5 897h7.1v38.6h-7.1z"/><path d="M818.6 951.2l-1.9-5.8-4.1-12-17.8 6 1.9 5.8-5.7 1.9 4 12.1 5.8-2 2 5.8 12-4.1-2-5.8z"/><path transform="rotate(-18.702 774.976 896.353)" d="M751 887.7h47.7V905H751z"/><path class="st11" d="M848 1002.6l.9-4.2 1.9-8.6L838 987l-.9 4.1-4.2-.9-1.9 8.7 4.2.9-.9 4.1 8.6 1.9.9-4.1zm27.5 6.8l.9-4.2 1.9-8.6-12.8-2.8-.9 4.1-4.2-.9-1.9 8.6 4.2 1-.9 4.1 8.6 1.9.9-4.1z"/><path transform="rotate(12.41 851.984 972.611)" d="M849.5 959.2h5v26.9h-5z"/><path d="M848.7 999.1l.9-4.1 2-8.7-12.8-2.8-1 4.2-4.1-.9-1.9 8.6 4.1.9-.9 4.2 8.7 1.9.9-4.2z"/><path transform="rotate(12.41 879.644 978.697)" d="M877.2 965.3h5v26.9h-5z"/><path d="M876.4 1005.2l.9-4.1 1.9-8.7-12.8-2.8-.9 4.2-4.1-.9-1.9 8.6 4.1.9-.9 4.2 8.6 1.9.9-4.2z"/><path transform="rotate(12.41 869.998 956.638)" d="M853.4 950.7h33.3v12h-33.3z"/><path class="st11" d="M924 940.8l-.7-3-1.4-6.4-9.4 2.1.7 3-3.1.7 1.5 6.4 3-.7.7 3 6.3-1.4-.6-3zm20.4-4l-.7-3.1-1.4-6.3-9.4 2.1.7 3-3 .7 1.4 6.4 3-.7.7 3 6.3-1.4-.6-3z"/><path transform="rotate(-12.552 917.333 919.588)" d="M915.6 909.7h3.6v19.8h-3.6z"/><path d="M923.4 938.3l-.6-3.1-1.5-6.3-9.4 2.1.7 3-3 .7 1.4 6.3 3-.6.7 3 6.4-1.4-.7-3.1z"/><path transform="rotate(-12.552 937.64 915.068)" d="M935.9 905.2h3.6V925h-3.6z"/><path d="M943.7 933.7l-.6-3-1.5-6.4-9.3 2.1.6 3.1-3 .7 1.4 6.3 3-.7.7 3.1 6.4-1.4-.7-3.1z"/><path transform="rotate(-12.552 924.379 903.367)" d="M912.2 899h24.4v8.8h-24.4z"/><path class="st11" d="M944.6 986.6l2.6-4.1 5.5-8.6-12.7-8.1-2.6 4.1-4.1-2.6-5.5 8.6 4.1 2.6-2.6 4.1 8.6 5.5 2.6-4.1zm27 18.1l2.6-4.1 5.5-8.6-12.7-8.1-2.6 4.1-4.2-2.6-5.4 8.6 4.1 2.6-2.6 4.1 8.6 5.5 2.6-4.1z"/><path transform="rotate(32.435 960.764 955.862)" d="M957.9 940.5h5.7v30.9h-5.7z"/><path d="M946.8 983.1l2.6-4.1 5.4-8.5-12.6-8.1-2.7 4.1-4.1-2.6-5.4 8.6 4.1 2.6-2.6 4.1 8.6 5.4 2.6-4.1z"/><path transform="rotate(32.435 988.192 973.288)" d="M985.3 957.9h5.7v30.9h-5.7z"/><path d="M974.2 1000.6l2.6-4.2 5.5-8.5-12.7-8.1-2.6 4.1-4.1-2.6-5.5 8.6 4.1 2.6-2.6 4.1 8.6 5.5 2.6-4.2z"/><path transform="rotate(32.435 986.459 945.719)" d="M967.3 938.9h38.2v13.8h-38.2z"/><path class="st9" d="M665.9 546.1h-253v6.7h-6.6v38h6.6v6.6h253v-6.6h6.6v-38h-6.6z"/><path class="st12" d="M665.9 546.1h-253v6.7h-6.6v38h6.6v6.6h253v-6.6h6.6v-38h-6.6z"/><path class="st4" d="M472.7 563.7h2.3v-2.3h11.4v4.5h-9.1v9.1h9.1v4.5H475v-2.3h-2.3v-13.5zm20.4 15.9h-4.5v-15.9h2.3v-2.3h9.1v2.3h2.3v15.9h-4.5v-6.8h-4.5v6.8zm4.5-11.4V566h-4.5v2.3h4.5zm9.1 9.1h-2.3v-15.9h4.5V575h9.1v4.5h-11.4v-2.2zm13.7-15.9h4.5v18.2h-4.5v-18.2zm6.8 0h11.4v2.3h2.3v13.6h-2.3v2.3h-11.4v-18.2zm4.5 6.8h4.5V566h-4.5v2.2zm0 6.8h4.5v-2.3h-4.5v2.3zm18.2-2.2h-2.3v6.8h-4.5v-15.9h2.3v-2.3h9.1v2.3h2.3v6.8h-2.3v2.3h2.3v6.8h-4.5V575H550v-2.2zm-2.3-4.6h4.5V566h-4.5v2.2zm15.9 11.4H559v-15.9h2.3v-2.3h9.1v2.3h2.3v15.9H568v-6.8h-4.5v6.8zm4.5-11.4V566h-4.5v2.3h4.5zm6.9-6.8h13.6v4.5H584v13.6h-4.5V566H575v-4.6zm18.1 15.9h-2.3v-13.6h2.3v-2.3h11.4v4.5h-9.1v2.3h4.5v4.5h-4.5v2.3h9.1v4.5H593v-2.2z"/><path class="st9" d="M985.9 614.1h-253v6.7h-6.6v38h6.6v6.6h253v-6.6h6.6v-38h-6.6z"/><path class="st10" d="M985.9 607.6h-253v6.6h-6.6v38h6.6v6.6h253v-6.6h6.6v-38h-6.6z"/><path class="st4" d="M792.7 625.1h2.3v-2.3h11.4v4.5h-9.1v9.1h9.1v4.5H795v-2.3h-2.3v-13.5zm20.4 15.9h-4.5v-15.9h2.3v-2.3h9.1v2.3h2.3V641h-4.5v-6.8h-4.5v6.8zm4.5-11.3v-2.3h-4.5v2.3h4.5zm9.1 9h-2.3v-15.9h4.5v13.6h9.1v4.5h-11.4v-2.2zm13.7-15.9h4.5V641h-4.5v-18.2zm6.8 0h11.4v2.3h2.3v13.6h-2.3v2.3h-11.4v-18.2zm4.5 6.9h4.5v-2.3h-4.5v2.3zm0 6.8h4.5v-2.3h-4.5v2.3zm18.2-2.3h-2.3v6.8h-4.5v-15.9h2.3v-2.3h9.1v2.3h2.3v6.8h-2.3v2.3h2.3v6.8h-4.5v-4.5H870v-2.3zm-2.3-4.5h4.5v-2.3h-4.5v2.3zm15.9 11.3H879v-15.9h2.3v-2.3h9.1v2.3h2.3V641H888v-6.8h-4.5v6.8zm4.5-11.3v-2.3h-4.5v2.3h4.5zm6.9-6.9h13.6v4.5H904V641h-4.5v-13.6H895v-4.6zm18.1 15.9h-2.3v-13.6h2.3v-2.3h11.4v4.5h-9.1v2.3h4.5v4.5h-4.5v2.3h9.1v4.5H913v-2.2z"/><path class="st9" d="M727.8 696.5h219.8v28.8H727.8z"/><path class="st9" d="M723 689.9h229.4v30.6H723z"/><path class="st10" d="M723 685.6v29.2h4.8v5.7h219.8v-5.7h4.8v-29.2z"/><path class="st9" d="M942.8 700.4v-5.1h-5.1v-.1h-200v.1h-5.1v5.1h-5.1v7.6h5.1v5.1h5.1v.1h205.1v-5.1h5.1v-7.7z"/><path class="st13" d="M718.9 794.5h4.7v.1h-4.7zm0 17.9h4.7v.1h-4.7z"/><path class="st4" d="M739.9 812.4v-5h5.1v-7.7h-5.1v-5.1h-5.1v-.1h-11.2v.1h-4.7v17.8h4.7v.1h11.2v-.1zM693.1 759v-5.1H688v-.1h-15.9v18H688v-.1h5.1v-5.1h5.1V759zm-13.5 38.8v-5.2H670v5.2h-5.1v7.6h5.1v5.2h9.6v-5.1h5.1v-7.7zm-49.8-97.4v-5.2h-9.6v5.2h-5.1v7.6h5.1v5.2h9.6v-5.1h5.1v-7.7z"/><path class="st14" d="M1595.6 1089.6h-385v10.1h-10v57.8h10v10.1h385v-10.1h10.1v-57.8h-10.1z"/><path class="st15" d="M1595.6 1079.6h-385v10.1h-10v57.8h10v10.1h385v-10.1h10.1v-57.8h-10.1z"/><path class="st4" d="M1313.2 1130.5h-6.9v-27.6h17.3v3.5h3.5v10.4h-3.5v3.5h-10.4v10.2zm0-17.3h6.9v-3.5h-6.9v3.5zm20.8 13.8h-3.5v-24.2h6.9v20.7h13.8v6.9H1334v-3.4zm27.6 3.5h-6.9v-24.2h3.5v-3.5h13.8v3.5h3.5v24.2h-6.9v-10.4h-6.9v10.4zm6.9-17.3v-3.5h-6.9v3.5h6.9zm10.4-10.4h6.9v10.4h6.9v-10.4h6.9v13.8h-3.5v3.5h-3.5v10.4h-6.9v-10.4h-3.5v-3.5h-3.5v-13.8zm27.6 24.2h-3.5v-20.7h3.5v-3.5h17.3v6.9H1410v3.5h6.9v6.9h-6.9v3.5h13.8v6.9h-17.3v-3.5zm31.1-6.9h-3.5v10.4h-6.9v-27.6h17.3v3.5h3.5v10.4h-3.5v3.5h3.5v10.4h-6.9v-6.9h-3.5v-3.7zm-3.4-6.9h6.9v-3.5h-6.9v3.5zm41.5-10.4h17.3v3.5h3.5v10.4h-3.5v3.5h-10.4v3.5h13.8v6.9h-20.7v-13.8h3.5v-3.5h10.4v-3.5h-13.8v-7zm-254.1-19.2h45.1v5.7h-45.1zm51.2 0h5.7v5.7h-5.7zm-505.7 1h45.1v5.7h-45.1zm51.2 0h5.7v5.7h-5.7z"/><path class="st16" d="M1156.2 924.6l6.4 5.6-5.6 6.4 20.4 17.4v37.9l20.8-26.1 31.7 29.4 5.9-6.3 4.9 4.6 71.7-118.7z"/><path class="st17" d="M1153.7 917.5l6.4 5.6-5.6 6.4 20.5 17.4v37.8l20.7-26 31.8 29.3 5.8-6.2 5 4.6 71.6-118.7z"/><path class="st18" d="M1195.8 958.4l114.3-90.7-135.1 79v37.8z"/><path class="st19" d="M1152.7 917.6l6.4 5.6-5.6 6.4 20.4 17.4v37.9l20.7-26.1 31.8 29.4 5.9-6.3 4.9 4.6 71.6-118.7z"/><path class="st20" d="M1088.5 610.9v163.6h10.4v9.5h10.4v10.5h447.5V784h10.3v-9.5h10.4V610.9zm489 0v-94.1h-10.4v-9.5h-10.3v-10.5h-447.5v10.5h-10.4v9.5h-10.4v94.1z"/><path class="st21" d="M1098.9 513.4h10.4v-8h-10.4v7.9h-10.4v8h10.4zm10.4-16.7h447.5v8h-447.5zm457.8 16.6v-7.9h-10.3v8h10.3v7.9h10.4v-8z"/><path d="M695.4 432.4h10.2v10.2h-10.2zm61.4-10.2v5.1h-5.1v5.1h5.1v20.5h5.1v5.1h-5.1v5.1H767v-10.2h15.4v5.1h5.1v-35.8h-30.7zm25.6 25.6h-20.5v-20.5h20.5v20.5z"/><path d="M767.1 432.4h10.2v10.2h-10.2zm-71.7 71.7h10.2v10.2h-10.2zm61.4-10.2h5.1v5.1h-5.1zm-25.6 25.6h5.1v5.1h-5.1zm5.1-20.5h5.1v5.1h-5.1zm0 10.2h5.1v5.1h-5.1zm46.1-25.6h5.1v5.1h-5.1zm-97.3 0h5.1v5.1h-5.1zm0-25.6h5.1v5.1h-5.1zm56.4-30.7v5.1h-10.3v5.1h15.4v-10.2z"/><path d="M782.4 463.1v5.1h-10.2v5.1h-15.4v-5.1h-5.1v5.1h-10.2v5.1h15.4v5.1h-15.3v-5.1h-5.1v5.1h-5.1v-5.1h-5.1v5.1H721v5.1h10.2v5.1h5.1v-5.1h10.2v5.1h-5.1v5.1h5.1V509h5.1v5.1h5.1V509h15.4v-10h5.1v-5.1h-5.1v-10.2h-10.2v-5.1h10.2v5.1h5.1v-5.1h5.1v-5.1h5.1v-10.2h-5v-.2zm-15.3 25.6v15.4h-15.4v-15.4h15.4zm-15.4-35.8h-5.1v5.1h-5.1v10.3h5.1v-5.2h5.1V458h5.1v-5.1zm-10.2 66.6h10.2v5.1h-10.2zm-15.4-92.2h5.1v5.1h-5.1z"/><path d="M767.1 463.1h5.1v5.1h-5.1zm5.1-5.1h5.1v5.1h-5.1zm-66.6 25.6h5.1v5.1h-5.1zm10.3 35.9V499h5.1v-10.2h-5.1v5.1h-15.4v-5.1h-10.2v5.1h-5.1v30.7h40.9v-5.1h-10.2zm-5.2 0h-20.5V499h20.5v20.5zm5.2-66.6h5.1v5.1h-5.1zm5.1-30.7h-35.8v30.7h5.1v5.1h5.1v-5.1h5.1v5.1h5.1v-5.1h10.2v-10.2h5.1v-5.1h-5.1v-10.2H726v-5.1h-5zm-10.3 25.6h-20.5v-20.5h20.5v20.5zm35.9-10.3h5.1v5.1h-5.1zm-10.3-15.3h5.1v5.1h-5.1z"/><path d="M746.6 452.9v-5.1h-5.1v-5.1h-5.1v5.1h-10.2v-5.1H721v10.2h5.1v10.2h-15.4V458h-5.1v5.1h-15.4v5.1h10.2v5.1H685v5.1h15.4v5.1h5.1v-5.1h5.1v5.1h5.1v-5.1h10.2v-5.1H721v-5.1h10.2v5.1h10.2v-5.1h-5.1v-5.1h-5.1v-10.2h15.4zm-30.7 20.5h-10.2v-5.1h10.2v5.1zm15.3 30.7v-10.2h-5.1v5.1H721v5.1h5.1v5.1H721v5.1h10.2v-5.1h5.1v-5.1zm46.1 10.2v-5.1h-5.1v5.1h-15.4v5.2h10.3v5.1h5.1v-5.1h10.2v5.1h5.1v-10.3zm5.1-20.4v5.1h-5.1v5.1h10.2v-10.2z"/><path class="st9" d="M457 838.3H316.2v3.7h-3.7v21.2h3.7v3.7H457v-3.7h3.7V842H457z"/><path class="st12" d="M457 838.3H316.2v3.7h-3.7v21.2h3.7v3.7H457v-3.7h3.7V842H457z"/><path class="st4" d="M344.4 853.1h-1.3v3.8h-2.5v-10.1h6.3v1.3h1.3v3.8h-1.3v1.3h1.3v3.8h-2.5v-2.5h-1.3v-1.4zm-1.3-2.5h2.5v-1.3h-2.5v1.3zm7.6 5.1h-1.3v-7.6h1.3v-1.3h6.3v2.5h-5v1.3h2.5v2.5H352v1.3h5.1v2.5h-6.3v-1.2zm8.9 0h-1.3v-7.6h1.3v-1.3h5.1v1.3h1.3v2.5h-2.5v-1.3H361v5.1h2.5v-1.3h2.5v2.5h-1.3v1.3h-5.1v-1.2zm10.1 1.2h-2.5V848h1.3v-1.3h5.1v1.3h1.3v8.9h-2.5v-3.8h-2.5v3.8zm2.5-6.3v-1.3h-2.5v1.3h2.5zm5.1 5.1H376v-8.9h2.5v7.6h5.1v2.5h-6.3v-1.2zm7.6-8.9h2.5v10.1h-2.5v-10.1zm3.8 0h6.3v1.3h1.3v7.6H395v1.3h-6.3v-10.2zm2.5 3.8h2.5v-1.3h-2.5v1.3zm0 3.8h2.5v-1.3h-2.5v1.3zm10.1-1.3H400v3.8h-2.5V848h1.3v-1.3h5.1v1.3h1.3v3.8h-1.3v1.3h1.3v3.8h-2.5v-2.5h-1.3v-1.3zm-1.3-2.5h2.5v-1.3H400v1.3zm8.9 6.3h-2.5V848h1.3v-1.3h5.1v1.3h1.3v8.9h-2.5v-3.8h-2.5v3.8zm2.5-6.3v-1.3h-2.5v1.3h2.5zm3.8-3.8h7.6v2.5h-2.5v7.6h-2.5v-7.6h-2.5v-2.5zm10.1 8.9H424v-7.6h1.3v-1.3h6.3v2.5h-5.1v1.3h2.5v2.5h-2.5v1.3h5.1v2.5h-6.3v-1.2zm-106.7-15.3h13.1v1.7h-13.1zm14.9 0h1.7v1.7h-1.7z"/><path class="st9" d="M457 880.3H316.2v3.7h-3.7v21.2h3.7v3.7H457v-3.7h3.7V884H457z"/><path class="st10" d="M457 876.7H316.2v3.6h-3.7v21.2h3.7v3.7H457v-3.7h3.7v-21.2H457z"/><path class="st4" d="M344.4 891.5h-1.3v3.8h-2.5v-10.1h6.3v1.3h1.3v3.8h-1.3v1.3h1.3v3.8h-2.5v-2.5h-1.3v-1.4zm-1.3-2.6h2.5v-1.3h-2.5v1.3zm7.6 5.1h-1.3v-7.6h1.3v-1.3h6.3v2.5h-5v1.3h2.5v2.5H352v1.3h5.1v2.5h-6.3V894zm8.9 0h-1.3v-7.6h1.3v-1.3h5.1v1.3h1.3v2.5h-2.5v-1.3H361v5.1h2.5v-1.3h2.5v2.5h-1.3v1.3h-5.1V894zm10.1 1.3h-2.5v-8.9h1.3v-1.3h5.1v1.3h1.3v8.9h-2.5v-3.8h-2.5v3.8zm2.5-6.4v-1.3h-2.5v1.3h2.5zm5.1 5.1H376v-8.9h2.5v7.6h5.1v2.5h-6.3V894zm7.6-8.8h2.5v10.1h-2.5v-10.1zm3.8 0h6.3v1.3h1.3v7.6H395v1.3h-6.3v-10.2zm2.5 3.7h2.5v-1.3h-2.5v1.3zm0 3.8h2.5v-1.3h-2.5v1.3zm10.1-1.2H400v3.8h-2.5v-8.9h1.3v-1.3h5.1v1.3h1.3v3.8h-1.3v1.3h1.3v3.8h-2.5v-2.5h-1.3v-1.3zm-1.3-2.6h2.5v-1.3H400v1.3zm8.9 6.4h-2.5v-8.9h1.3v-1.3h5.1v1.3h1.3v8.9h-2.5v-3.8h-2.5v3.8zm2.5-6.4v-1.3h-2.5v1.3h2.5zm3.8-3.7h7.6v2.5h-2.5v7.6h-2.5v-7.6h-2.5v-2.5zm10.1 8.8H424v-7.6h1.3v-1.3h6.3v2.5h-5.1v1.3h2.5v2.5h-2.5v1.3h5.1v2.5h-6.3V894zm-106.7-14.6h13.1v1.7h-13.1zm14.9 0h1.7v1.7h-1.7zm404.9-268.3H762v3h-23.6zm26.8 0h3v3h-3zM418 549.7h23.6v3H418zm26.7 0h3v3h-3z"/><path class="st22" d="M387.9 673.2v-7.5h-18.6v7.5h-7.5v18.6h7.5v7.5h18.6v-7.5h7.5v-18.6z"/><path class="st23" d="M369.9 699.3v9.9m17.4-9.9v9.9"/><path class="st24" d="M386.3 707.4h-15.5v2.2h-2.2v15.5h2.2v2.2h15.5v-2.2h2.2v-15.5h-2.2z"/><path class="st25" d="M455 1112.4v-7.9H313.3v7.9h-7.9v45.6h7.9v7.9H455v-7.9h7.9v-45.6z"/><path class="st25" d="M455 1112.6v-8H313.3v8h-7.9v45.5h7.9v7.9H455v-7.9h7.9v-45.5z"/><path class="st4" d="M351.5 1146H346v-21.8h13.6v2.7h2.7v8.2h-2.7v2.7h-8.2v8.2zm0-13.6h5.4v-2.7h-5.4v2.7zm16.3 10.9h-2.7v-19h5.4v16.3h10.9v5.4h-13.6v-2.7zm21.8 2.7h-5.4v-19h2.7v-2.7h10.9v2.7h2.7v19H395v-8.2h-5.4v8.2zm5.4-13.6v-2.7h-5.4v2.7h5.4zm8.2-8.2h5.4v8.2h5.4v-8.2h5.4v10.9h-2.7v2.7H414v8.2h-5.4v-8.2h-2.7v-2.7h-2.7v-10.9z"/><path class="st25" d="M625 1112.4v-7.9H483.3v7.9h-7.9v45.6h7.9v7.9H625v-7.9h7.9v-45.6z"/><path class="st22" d="M625 1104.6v-8H483.3v8h-7.9v45.5h7.9v7.9H625v-7.9h7.9v-45.5z"/><path class="st4" d="M521.5 1138H516v-21.8h13.6v2.7h2.7v8.2h-2.7v2.7h-8.2v8.2zm0-13.6h5.4v-2.7h-5.4v2.7zm16.3 10.9h-2.7v-19h5.4v16.3h10.9v5.4h-13.6v-2.7zm21.8 2.7h-5.4v-19h2.7v-2.7h10.9v2.7h2.7v19H565v-8.2h-5.4v8.2zm5.4-13.6v-2.7h-5.4v2.7h5.4zm8.2-8.2h5.4v8.2h5.4v-8.2h5.4v10.9h-2.7v2.7H584v8.2h-5.4v-8.2h-2.7v-2.7h-2.7v-10.9z"/><path class="st26" d="M-368.6 866.9h43.2v108h43.2v-108h43.2v129.6h-21.6v21.6h-21.6v21.6h-43.2v-21.6H-347v-21.6h-21.6V866.9z"/><path class="st27" d="M-217.4 890.5h21.6v-21.6h108v43.2h-86.4v21.6h64.8v21.6h21.6v64.8h-21.6v21.6h-108v-43.2h86.4v-21.6h-64.8v-21.6h-21.6v-64.8z"/><path class="st28" d="M-368.6 845.8h43.2v108h43.2v-108h43.2v129.6h-21.6V997h-21.6v21.6h-43.2V997H-347v-21.6h-21.6V845.8z"/><path class="st29" d="M-217.4 867.4h21.6v-21.6h108V889h-86.4v21.6h64.8v21.6h21.6V997h-21.6v21.6h-108v-43.2h86.4v-21.6h-64.8v-21.6h-21.6v-64.8z"/><path class="st0" d="M-319.2 1224.4h27.5v68.7h27.5v-68.7h27.5v82.4h-13.7v13.7h-13.7v13.7h-27.5v-13.7h-13.7v-13.7H-319v-82.4zm96.1 15h13.7v-13.7h68.7v27.5h-54.9v13.7h41.2v13.7h13.7v41.2h-13.7v13.7h-68.7V1308h54.9v-13.7h-41.2v-13.7h-13.7v-41.2z"/><path class="st7" d="M-319.2 1209.9h27.5v68.7h27.5v-68.7h27.5v82.4h-13.7v13.7h-13.7v13.7h-27.5V1306h-13.7v-13.7H-319v-82.4zm96.1 15.1h13.7v-13.7h68.7v27.5h-54.9v13.7h41.2v13.7h13.7v41.2h-13.7v13.7h-68.7v-27.5h54.9v-13.7h-41.2v-13.7h-13.7V1225z"/><path class="st4" d="M-319.2 1196.5h27.5v68.7h27.5v-68.7h27.5v82.4h-13.7v13.7h-13.7v13.7h-27.5v-13.7h-13.7v-13.7H-319v-82.4zm96.1 13.7h13.7v-13.7h68.7v27.5h-54.9v13.7h41.2v13.7h13.7v41.2h-13.7v13.7h-68.7v-27.5h54.9v-13.7h-41.2v-13.7h-13.7v-41.2z"/><path class="st0" d="M255.2 364.7h-21.6v-86.4h54v10.8h10.8v32.4h-10.8v10.8h-32.4v32.4zm0-54h21.6v-10.8h-21.6v10.8zm54-21.6H320v-10.8h43.2v10.8H374v64.8h-10.8v10.8H320v-10.8h-10.8v-64.8zm21.6 54h21.6v-43.2h-21.6v43.2zm64.8 10.8h-10.8v-75.6h21.6v64.8h43.2v21.6h-54v-10.8z"/><path class="st0" d="M438.8 278.3h21.6v32.4H482v-32.4h21.6v43.2h-10.8v10.8H482v32.4h-21.6v-32.4h-10.8v-10.8h-10.8v-43.2z"/><path class="st30" d="M255.2 356.3h-21.6v-86.4h54v10.8h10.8v32.4h-10.8v10.8h-32.4v32.4zm0-54h21.6v-10.8h-21.6v10.8zm54-21.6H320v-10.8h43.2v10.8H374v64.8h-10.8v10.8H320v-10.8h-10.8v-64.8zm21.6 54h21.6v-43.2h-21.6v43.2zm64.8 10.8h-10.8v-75.6h21.6v64.8h43.2v21.6h-54v-10.8z"/><path class="st30" d="M438.8 269.9h21.6v32.4H482v-32.4h21.6v43.2h-10.8v10.8H482v32.4h-21.6v-32.4h-10.8v-10.8h-10.8v-43.2z"/><path class="st4" d="M255.2 348.1h-21.6v-86.4h54v10.8h10.8v32.4h-10.8v10.8h-32.4v32.4zm0-54h21.6v-10.8h-21.6v10.8zm54-21.6H320v-10.8h43.2v10.8H374v64.8h-10.8v10.8H320v-10.8h-10.8v-64.8zm21.6 54h21.6v-43.2h-21.6v43.2zm64.8 10.8h-10.8v-75.6h21.6v64.8h43.2v21.6h-54v-10.8zm43.2-75.6h21.6v32.4H482v-32.4h21.6v43.2h-10.8v10.8H482v32.4h-21.6v-32.4h-10.8v-10.8h-10.8v-43.2z"/><g id="u9MLE1.tif_3_" class="st31"><image width="163" height="260" id="Layer_1_3_" xlink:href="CB0EAE42F92A1C88.png" transform="rotate(15.523 -1523.957 549.408) scale(.8581)" overflow="visible"/></g><g id="u9MLE1.tif_2_"><image width="163" height="260" id="Layer_1_1_" xlink:href="CB0EAE42F92A1C89.png" transform="rotate(15.521 -1469.326 519.348) scale(.8775)" overflow="visible"/></g><g class="st1"><path class="st0" d="M582 48.2v86.5h101.3v-11.6h-12.7v-12.7H658V97.8h-12.7V85.1H658V72.5h12.6V59.8h12.7V48.2z"/><path class="st0" d="M596.8 109.4L582 133.6l.1-24.2z"/></g><path class="st0" d="M93.8 25.3h510.3v86.5H93.8z"/><path class="st0" d="M570.4 103.3h112.8v31.6H570.4z"/><g class="st1"><path class="st0" d="M101.7 48.4v86.5H.5v-11.6h12.6v-12.7h12.7V98h12.6V85.3H25.8V72.6H13.1V60H.5V48.4z"/><path class="st0" d="M87 109.5l14.7 24.3v-24.3z"/></g><path class="st2" d="M582 38v86.4h101.3v-11.6h-12.7v-12.6H658V87.5h-12.7V74.9H658V62.2h12.6V49.6h12.7V38z"/><path class="st3" d="M582 26.4v86.4h101.3v-11.6h-12.7V88.6H658V75.9h-12.7V63.3H658V50.6h12.6V38h12.7V26.4z"/><path class="st2" d="M596.8 99.1L582 123.4l.1-24.3zM101.2 38v86.4H0v-11.6h12.7v-12.6h12.6V87.5H38V74.9H25.3V62.2H12.7V49.6H0V38z"/><path class="st3" d="M101.2 26.4v86.4H0v-11.6h12.7V88.6h12.6V75.9H38V63.3H25.3V50.6H12.7V38H0V26.4z"/><path class="st2" d="M86.5 99.1l14.7 24.3V99.1z"/><path class="st2" d="M86.5 12.7h510.3v86.5H86.5z"/><path class="st3" d="M86.5 0h510.3v86.5H86.5z"/><path class="st25" d="M200.6 75h-37.4V15h37.4v7.5h7.5v15h-7.5v15h7.5v15h-7.5V75zm-22.5-37.5h15V30h-15v7.5zm0 22.5h15v-7.5h-15V60zm52.5 15h-15V22.5h7.5V15h30v7.5h7.5V75h-15V52.5h-15V75zm14.9-37.5V30h-15v7.5h15zm30 30H268V15h15v45h30v15h-37.4v-7.5zm52.4 0h-7.5V15h15v45h30v15H328v-7.5zm45-45h7.5V15h30v7.5h7.5v44.9h-7.5V75h-30v-7.5h-7.5v-45zM387.8 60h15V30h-15v30zm37.5-37.5h7.5V15h30v7.5h7.5v44.9h-7.5V75h-30v-7.5h-7.5v-45zm15 37.5h15V30h-15v30zm59.9-15h-7.5v30h-15V15h15v7.5h7.5V30h7.5V15h15v60h-15V52.5h-7.5V45z"/><path class="st22" d="M200.6 69.1h-37.4V9.2h37.4v7.5h7.5v15h-7.5v15h7.5v15h-7.5v7.4zm-22.5-37.4h15v-7.5h-15v7.5zm0 22.5h15v-7.5h-15v7.5zm52.5 14.9h-15V16.7h7.5V9.2h30v7.5h7.5v52.4h-15V46.7h-15v22.4zm14.9-37.4v-7.5h-15v7.5h15zm30 29.9H268V9.2h15v44.9h30v15h-37.4v-7.5zm52.4 0h-7.5V9.2h15v44.9h30v15H328v-7.5zm45-44.9h7.5V9.2h30v7.5h7.5v44.9h-7.5v7.5h-30v-7.5h-7.5V16.7zm14.9 37.5h15v-30h-15v30zm37.5-37.5h7.5V9.2h30v7.5h7.5v44.9h-7.5v7.5h-30v-7.5h-7.5V16.7zm15 37.5h15v-30h-15v30zm59.9-15h-7.5v30h-15v-60h15v7.5h7.5v7.5h7.5v-15h15v59.9h-15V46.7h-7.5v-7.5z"/><path class="st0" d="M692.2 221.7H713v6.9h-20.7v-6.9zm55.3 17.3h-6.9v-27.6h17.3v3.5h3.5v10.4h-3.5v3.5h-10.4V239zm0-17.3h6.9v-3.5h-6.9v3.5zm27.7 6.9h-3.5V239h-6.9v-27.6h17.3v3.5h3.5v10.4h-3.5v3.5h3.5V239h-6.9v-6.9h-3.5v-3.5zm-3.5-6.9h6.9v-3.5h-6.9v3.5zm20.8 13.8H789v-20.7h3.5v-3.5h17.3v6.9H796v3.5h6.9v6.9H796v3.5h13.8v6.9h-17.3v-3.5zm20.7-20.7h3.5v-3.5H834v6.9h-13.8v3.5h10.4v3.5h3.5v10.4h-3.5v3.5h-17.3v-6.9H827v-3.5h-10.4v-3.5h-3.5v-10.4zm24.2 0h3.5v-3.5h17.3v6.9h-13.8v3.5h10.4v3.5h3.5v10.4h-3.5v3.5h-17.3v-6.9h13.8v-3.5h-10.4v-3.5h-3.5v-10.4zm55.3 24.2h-6.9v-24.2h3.5v-3.5H903v3.5h3.5V239h-6.9v-10.4h-6.9V239zm6.9-17.3v-3.5h-6.9v3.5h6.9zm20.7 3.4h-3.5V239H910v-27.6h6.9v3.5h3.5v3.5h3.5v-6.9h6.9V239h-6.9v-10.4h-3.5v-3.5zm13.8-13.8h6.9v10.4h6.9v-10.4h6.9v13.8h-3.5v3.5H948V239h-6.9v-10.4h-3.5v-3.5h-3.5v-13.8zm55.3 27.7h-6.9v-27.6h6.9v6.9h3.5v-3.5h3.5v-3.5h6.9v6.9h-3.5v3.5h-3.5v6.9h3.5v3.5h3.5v6.9h-6.9v-3.5h-3.5V232h-3.5v7zm20.8-3.5h-3.5v-20.7h3.5v-3.5h17.3v6.9h-13.8v3.5h6.9v6.9h-6.9v3.5h13.8v6.9h-17.3v-3.5zm20.7-24.2h6.9v10.4h6.9v-10.4h6.9v13.8h-3.5v3.5h-3.5V239h-6.9v-10.4h-3.5v-3.5h-3.5v-13.8zm48.4 0h20.7v6.9h-6.9V239h-6.9v-20.7h-6.9v-7zm24.2 3.5h3.5v-3.5h13.8v3.5h3.5v20.7h-3.5v3.5H1107v-3.5h-3.5v-20.7zm6.9 17.3h6.9v-13.8h-6.9v13.8zm48.4 6.9h-6.9v-27.6h17.3v3.5h3.5v10.4h-3.5v3.5h-10.4V239zm0-17.3h6.9v-3.5h-6.9v3.5zm20.7 13.8h-3.5v-24.2h6.9V232h13.8v6.9h-17.3v-3.4zm27.7 3.5h-6.9v-24.2h3.5v-3.5h13.8v3.5h3.5V239h-6.9v-10.4h-6.9V239zm6.9-17.3v-3.5h-6.9v3.5h6.9zm10.3-10.4h6.9v10.4h6.9v-10.4h6.9v13.8h-3.5v3.5h-3.5V239h-6.9v-10.4h-3.5v-3.5h-3.5v-13.8zm48.4 10.4h20.7v6.9h-20.7v-6.9z"/><path class="st30" d="M691.4 215.8h20.7v6.9h-20.7v-6.9zm55.3 17.3h-6.9v-27.6H757v3.5h3.5v10.4H757v3.5h-10.4v10.2zm0-17.3h6.9v-3.5h-6.9v3.5zm27.6 6.9h-3.5v10.4h-6.9v-27.6h17.3v3.5h3.5v10.4h-3.5v3.5h3.5v10.4h-6.9v-6.9h-3.5v-3.7zm-3.4-6.9h6.9v-3.5h-6.9v3.5zm20.7 13.8h-3.5v-20.7h3.5v-3.5h17.3v6.9H795v3.5h6.9v6.9H795v3.5h13.8v6.9h-17.3v-3.5zm20.7-20.7h3.5v-3.5h17.3v6.9h-13.8v3.5h10.4v3.5h3.5v10.4h-3.5v3.5h-17.3v-6.9h13.8v-3.5h-10.4v-3.5h-3.5v-10.4zm24.2 0h3.5v-3.5h17.3v6.9h-13.8v3.5h10.4v3.5h3.5v10.4h-3.5v3.5h-17.3v-6.9h13.8v-3.5H840v-3.5h-3.5v-10.4zm55.3 24.2h-6.9v-24.2h3.5v-3.5h13.8v3.5h3.5v24.2h-6.9v-10.4h-6.9v10.4zm6.9-17.3v-3.5h-6.9v3.5h6.9zm20.8 3.4H916V233h-6.9v-27.6h6.9v3.5h3.5v3.5h3.5v-6.9h6.9v27.6H923v-10.4h-3.5v-3.5zm13.8-13.8h6.9v10.4h6.9v-10.4h6.9v13.8h-3.5v3.5H947v10.4h-6.9v-10.4h-3.5v-3.5h-3.5v-13.8zm55.3 27.7h-6.9v-27.6h6.9v6.9h3.5v-3.5h3.5v-3.5h6.9v6.9H999v3.5h-3.5v6.9h3.5v3.5h3.5v6.9h-6.9v-3.5H992v-3.5h-3.5v7zm20.7-3.5h-3.5v-20.7h3.5v-3.5h17.3v6.9h-13.8v3.5h6.9v6.9h-6.9v3.5h13.8v6.9h-17.3v-3.5zm20.7-24.2h6.9v10.4h6.9v-10.4h6.9v13.8h-3.5v3.5h-3.5v10.4h-6.9v-10.4h-3.5v-3.5h-3.5v-13.8zm48.4 0h20.7v6.9h-6.9V233h-6.9v-20.7h-6.9v-6.9zm24.2 3.5h3.5v-3.5h13.8v3.5h3.5v20.7h-3.5v3.5h-13.8v-3.5h-3.5v-20.7zm6.9 17.3h6.9v-13.8h-6.9v13.8zm48.4 6.9h-6.9v-27.6h17.3v3.5h3.5v10.4h-3.5v3.5h-10.4v10.2zm0-17.3h6.9v-3.5h-6.9v3.5zm20.8 13.8h-3.5v-24.2h6.9v20.7h13.8v6.9h-17.3v-3.4zm27.6 3.5h-6.9v-24.2h3.5v-3.5h13.8v3.5h3.5v24.2h-6.9v-10.4h-6.9v10.4zm6.9-17.3v-3.5h-6.9v3.5h6.9zm10.4-10.4h6.9v10.4h6.9v-10.4h6.9v13.8h-3.5v3.5h-3.5v10.4h-6.9v-10.4h-3.5v-3.5h-3.5v-13.8zm48.4 10.4h20.7v6.9H1272v-6.9z"/><path class="st4" d="M691.4 211.4h20.7v6.9h-20.7v-6.9zm55.3 17.3h-6.9V201H757v3.5h3.5v10.4H757v3.5h-10.4v10.3zm0-17.3h6.9v-3.5h-6.9v3.5zm27.6 6.9h-3.5v10.4h-6.9V201h17.3v3.5h3.5v10.4h-3.5v3.5h3.5v10.4h-6.9v-6.9h-3.5v-3.6zm-3.4-6.9h6.9v-3.5h-6.9v3.5zm20.7 13.8h-3.5v-20.7h3.5V201h17.3v6.9H795v3.5h6.9v6.9H795v3.5h13.8v6.9h-17.3v-3.5zm20.7-20.7h3.5V201h17.3v6.9h-13.8v3.5h10.4v3.5h3.5v10.4h-3.5v3.5h-17.3v-6.9h13.8v-3.5h-10.4v-3.5h-3.5v-10.4zm24.2 0h3.5V201h17.3v6.9h-13.8v3.5h10.4v3.5h3.5v10.4h-3.5v3.5h-17.3v-6.9h13.8v-3.5H840v-3.5h-3.5v-10.4zm55.3 24.2h-6.9v-24.2h3.5V201h13.8v3.5h3.5v24.2h-6.9v-10.4h-6.9v10.4zm6.9-17.3v-3.5h-6.9v3.5h6.9zm20.8 3.4H916v13.8h-6.9V201h6.9v3.5h3.5v3.5h3.5v-7h6.9v27.6H923v-10.4h-3.5v-3.4zm13.8-13.8h6.9v10.4h6.9V201h6.9v13.8h-3.5v3.5H947v10.4h-6.9v-10.4h-3.5v-3.5h-3.5V201zm55.3 27.7h-6.9V201h6.9v6.9h3.5v-3.5h3.5V201h6.9v6.9H999v3.5h-3.5v6.9h3.5v3.5h3.5v6.9h-6.9v-3.5H992v-3.5h-3.5v7zm20.7-3.5h-3.5v-20.7h3.5V201h17.3v6.9h-13.8v3.5h6.9v6.9h-6.9v3.5h13.8v6.9h-17.3v-3.5zM1030 201h6.9v10.4h6.9V201h6.9v13.8h-3.5v3.5h-3.5v10.4h-6.9v-10.4h-3.5v-3.5h-3.5V201zm48.4 0h20.7v6.9h-6.9v20.7h-6.9v-20.7h-6.9V201zm24.2 3.5h3.5V201h13.8v3.5h3.5v20.7h-3.5v3.5h-13.8v-3.5h-3.5v-20.7zm6.9 17.2h6.9v-13.8h-6.9v13.8zm48.4 7h-6.9V201h17.3v3.5h3.5v10.4h-3.5v3.5h-10.4v10.3zm0-17.3h6.9v-3.5h-6.9v3.5zm20.8 13.8h-3.5V201h6.9v20.7h13.8v6.9h-17.3v-3.4zm27.6 3.5h-6.9v-24.2h3.5V201h13.8v3.5h3.5v24.2h-6.9v-10.4h-6.9v10.4zm6.9-17.3v-3.5h-6.9v3.5h6.9zm10.4-10.4h6.9v10.4h6.9V201h6.9v13.8h-3.5v3.5h-3.5v10.4h-6.9v-10.4h-3.5v-3.5h-3.5V201zm48.4 10.4h20.7v6.9H1272v-6.9z"/></svg>