<?xml version="1.0" encoding="utf-8"?>
<!-- Generator: Adobe Illustrator 22.0.1, SVG Export Plug-In . SVG Version: 6.00 Build 0)  -->
<svg version="1.1" id="Layer_1" xmlns="http://www.w3.org/2000/svg" xmlns:xlink="http://www.w3.org/1999/xlink" x="0px" y="0px"
	 width="545px" height="757.7px" viewBox="0 0 545 757.7" style="enable-background:new 0 0 545 757.7;" xml:space="preserve">
<style type="text/css">
	.st0{fill:#5895B7;}
	.st1{opacity:0.8;}
	.st2{fill:#C17620;}
	.st3{fill:#F4C24A;}
	.st4{fill:#2A6FBA;}
	.st5{fill:#4ABAEF;}
	.st6{fill:#FFFFFF;}
	.st7{fill:#95C9C8;}
	.st8{fill:#DDEFEE;}
	.st9{fill:#1B8E6F;}
	.st10{fill:#3CEA8A;}
	.st11{opacity:0.4;fill:#666666;}
	.st12{fill:none;}
	.st13{fill:#7149A4;}
	.st14{fill:#BD86E0;}
	.st15{opacity:0.4;fill:#666666;stroke:#666666;stroke-width:4;stroke-linejoin:bevel;stroke-miterlimit:10;}
	.st16{fill:#F2F2F2;}
	.st17{fill:#E6E6E6;}
	.st18{fill:none;stroke:#000000;stroke-width:4;stroke-linejoin:bevel;stroke-miterlimit:10;}
	.st19{fill:#C6E0DE;}
	.st20{fill:#A7C6C3;}
</style>
<g>
	<rect x="-810" y="-65" class="st0" width="484" height="82"/>
	<rect x="-358" y="9" class="st0" width="107" height="30"/>
	<g class="st1">
		<g>
			<polygon class="st0" points="-794,-45 -794,37 -890,37 -890,26 -878,26 -878,14 -866,14 -866,2 -854,2 -854,-10 -866,-10 
				-866,-22 -878,-22 -878,-34 -890,-34 -890,-45 			"/>
		</g>
		<polygon class="st0" points="-808,13 -794,36 -794,13 		"/>
	</g>
	<g>
		<g>
			<polygon class="st2" points="-347,-53 -347,29 -251,29 -251,18 -263,18 -263,6 -275,6 -275,-6 -287,-6 -287,-18 -275,-18 
				-275,-30 -263,-30 -263,-42 -251,-42 -251,-53 			"/>
			<polygon class="st3" points="-347,-64 -347,18 -251,18 -251,7 -263,7 -263,-5 -275,-5 -275,-17 -287,-17 -287,-29 -275,-29 
				-275,-41 -263,-41 -263,-53 -251,-53 -251,-64 			"/>
		</g>
		<polygon class="st2" points="-333,5 -347,28 -347,5 		"/>
		<g>
			<g>
				<polygon class="st2" points="-803,-53 -803,29 -899,29 -899,18 -887,18 -887,6 -875,6 -875,-6 -863,-6 -863,-18 -875,-18 
					-875,-30 -887,-30 -887,-42 -899,-42 -899,-53 				"/>
				<polygon class="st3" points="-803,-64 -803,18 -899,18 -899,7 -887,7 -887,-5 -875,-5 -875,-17 -863,-17 -863,-29 -875,-29 
					-875,-41 -887,-41 -887,-53 -899,-53 -899,-64 				"/>
			</g>
			<polygon class="st2" points="-817,5 -803,28 -803,5 			"/>
		</g>
		<g>
			<rect x="-817" y="-77" class="st2" width="484" height="82"/>
			<rect x="-817" y="-89" class="st3" width="484" height="82"/>
		</g>
	</g>
	<rect x="-794.2" y="-63.8" class="st12" width="415.2" height="81.8"/>
	<text transform="matrix(1 0 0 1 -755.0225 -29.2435)" class="st6" style="font-family:'EditUndoBRK'; font-size:60px;">HOW TO PLAY</text>
</g>
<polygon class="st4" points="-490,204 -502,204 -575,204 -575,216 -587,216 -587,301 -575,301 -575,313 -502,313 -490,313 -490,301 
	-478,301 -478,216 -490,216 "/>
<polygon class="st5" points="-490,194 -502,194 -575,194 -575,206 -587,206 -587,291 -575,291 -575,303 -502,303 -490,303 -490,291 
	-478,291 -478,206 -490,206 "/>
<rect x="-575" y="228.2" class="st12" width="89" height="81.8"/>
<text transform="matrix(1 0 0 1 -550.4082 273.6998)" class="st6" style="font-family:'EditUndoBRK'; font-size:79px;">?</text>
<g>
	<polygon class="st0" points="545,48.5 533.4,48.5 533.4,36.9 521.9,36.9 521.9,24.1 23.1,24.1 23.1,36.9 11.6,36.9 11.6,48.5 
		0,48.5 0,733.2 11.6,733.2 11.6,744.9 23.1,744.9 23.1,757.7 521.9,757.7 521.9,744.9 533.4,744.9 533.4,733.2 545,733.2 	"/>
	<polygon class="st7" points="545,36.5 533.4,36.5 533.4,24.8 521.9,24.8 521.9,12 23.1,12 23.1,24.8 11.6,24.8 11.6,36.5 0,36.5 
		0,721.2 11.6,721.2 11.6,732.8 23.1,732.8 23.1,745.7 521.9,745.7 521.9,732.8 533.4,732.8 533.4,721.2 545,721.2 	"/>
	<polygon class="st8" points="545,24.5 533.4,24.5 533.4,12.8 521.9,12.8 521.9,0 23.1,0 23.1,12.8 11.6,12.8 11.6,24.5 0,24.5 
		0,709.2 11.6,709.2 11.6,720.8 23.1,720.8 23.1,733.6 521.9,733.6 521.9,720.8 533.4,720.8 533.4,709.2 545,709.2 	"/>
</g>
<g>
	<polygon class="st9" points="-504,-316 -514,-316 -888.9,-316 -888.9,-305.9 -899,-305.9 -899,-248.1 -888.9,-248.1 -888.9,-238 
		-514,-238 -504,-238 -504,-248.1 -493.9,-248.1 -493.9,-305.9 -504,-305.9 	"/>
	<polygon class="st10" points="-504,-326 -514,-326 -888.9,-326 -888.9,-315.9 -899,-315.9 -899,-258.1 -888.9,-258.1 -888.9,-248 
		-514,-248 -504,-248 -504,-258.1 -493.9,-258.1 -493.9,-315.9 -504,-315.9 	"/>
	<rect x="-898" y="-302.8" class="st12" width="404" height="81.8"/>
	<text transform="matrix(1 0 0 1 -785.8555 -275.1211)" class="st6" style="font-family:'EditUndoBRK'; font-size:48px;">PLAYER 1</text>
</g>
<g>
	<polygon class="st11" points="-864.8,-436.6 -866.8,-442.4 -870.8,-454.4 -888.6,-448.4 -886.7,-442.6 -892.5,-440.6 
		-888.4,-428.6 -882.6,-430.6 -880.7,-424.8 -868.6,-428.9 -870.6,-434.6 	"/>
	<polygon class="st11" points="-826,-448.7 -828,-454.4 -832,-466.4 -849.8,-460.4 -847.9,-454.7 -853.7,-452.7 -849.6,-440.7 
		-843.8,-442.6 -841.9,-436.9 -829.8,-440.9 -831.8,-446.7 	"/>
	<rect x="-885.6" y="-495.6" transform="matrix(0.9472 -0.3207 0.3207 0.9472 106.175 -308.052)" width="7.1" height="38.6"/>
	<polygon points="-866.4,-441.4 -868.4,-447.2 -872.5,-459.2 -890.3,-453.2 -888.3,-447.4 -894.1,-445.4 -890,-433.4 -884.2,-435.4 
		-882.3,-429.6 -870.3,-433.7 -872.2,-439.4 	"/>
	<rect x="-847.1" y="-508.6" transform="matrix(0.9472 -0.3207 0.3207 0.9472 112.385 -296.4023)" width="7.1" height="38.6"/>
	<polygon points="-828,-454.4 -829.9,-460.2 -834,-472.2 -851.8,-466.2 -849.8,-460.4 -855.6,-458.5 -851.5,-446.5 -845.8,-448.4 
		-843.8,-442.6 -831.8,-446.7 -833.7,-452.5 	"/>
	<rect x="-895.6" y="-517.9" transform="matrix(0.9472 -0.3207 0.3207 0.9472 117.2892 -306.4965)" width="47.7" height="17.3"/>
</g>
<g>
	<polygon class="st11" points="-798.6,-403 -797.7,-407.2 -795.8,-415.8 -808.6,-418.6 -809.5,-414.5 -813.6,-415.4 -815.6,-406.7 
		-811.4,-405.8 -812.3,-401.7 -803.7,-399.8 -802.8,-403.9 	"/>
	<polygon class="st11" points="-771.1,-396.2 -770.2,-400.4 -768.3,-409 -781.1,-411.8 -782,-407.7 -786.1,-408.6 -788,-400 
		-783.9,-399.1 -784.8,-394.9 -776.2,-393 -775.2,-397.1 	"/>
	<rect x="-797" y="-446.4" transform="matrix(0.9766 0.2149 -0.2149 0.9766 -111.5952 160.6278)" width="5" height="26.9"/>
	<polygon points="-797.8,-406.5 -796.9,-410.6 -795,-419.3 -807.8,-422.1 -808.7,-417.9 -812.9,-418.8 -814.8,-410.2 -810.6,-409.3 
		-811.6,-405.1 -802.9,-403.2 -802,-407.4 	"/>
	<rect x="-769.4" y="-440.3" transform="matrix(0.9766 0.2149 -0.2149 0.9766 -109.6411 154.8259)" width="5" height="26.9"/>
	<polygon points="-770.2,-400.4 -769.3,-404.5 -767.4,-413.2 -780.2,-416 -781.1,-411.8 -785.2,-412.8 -787.1,-404.1 -783,-403.2 
		-783.9,-399.1 -775.2,-397.1 -774.3,-401.3 	"/>
	<rect x="-793.2" y="-454.9" transform="matrix(0.9766 0.2149 -0.2149 0.9766 -114.607 156.3834)" width="33.3" height="12"/>
</g>
<g>
	<polygon class="st11" points="-722.6,-464.8 -723.3,-467.9 -724.7,-474.2 -734.1,-472.1 -733.4,-469.1 -736.4,-468.4 -735,-462 
		-732,-462.7 -731.3,-459.7 -725,-461.1 -725.6,-464.1 	"/>
	<polygon class="st11" points="-702.2,-468.8 -702.8,-471.9 -704.3,-478.2 -713.6,-476.1 -713,-473.1 -716,-472.4 -714.6,-466.1 
		-711.6,-466.7 -710.9,-463.7 -704.5,-465.1 -705.2,-468.1 	"/>
	<rect x="-731" y="-495.9" transform="matrix(0.9761 -0.2173 0.2173 0.9761 88.1785 -170.0501)" width="3.6" height="19.8"/>
	<polygon points="-723.2,-467.3 -723.8,-470.4 -725.2,-476.7 -734.6,-474.7 -734,-471.6 -737,-470.9 -735.6,-464.6 -732.5,-465.3 
		-731.9,-462.2 -725.5,-463.6 -726.2,-466.7 	"/>
	<rect x="-710.7" y="-500.4" transform="matrix(0.9761 -0.2173 0.2173 0.9761 89.646 -165.7454)" width="3.6" height="19.8"/>
	<polygon points="-702.8,-471.9 -703.5,-474.9 -704.9,-481.3 -714.3,-479.2 -713.6,-476.1 -716.7,-475.4 -715.3,-469.1 
		-712.2,-469.8 -711.6,-466.7 -705.2,-468.1 -705.9,-471.2 	"/>
	<rect x="-734.3" y="-506.6" transform="matrix(0.9761 -0.2173 0.2173 0.9761 91.8718 -168.9067)" width="24.4" height="8.8"/>
</g>
<g>
	<polygon class="st11" points="-702,-419 -699.4,-423.2 -693.9,-431.7 -706.6,-439.8 -709.2,-435.7 -713.3,-438.3 -718.8,-429.7 
		-714.7,-427.1 -717.3,-423 -708.7,-417.5 -706.1,-421.7 	"/>
	<polygon class="st11" points="-675,-400.9 -672.4,-405 -666.9,-413.6 -679.6,-421.7 -682.2,-417.6 -686.3,-420.2 -691.8,-411.6 
		-687.7,-409 -690.3,-404.9 -681.7,-399.4 -679.1,-403.5 	"/>
	<rect x="-688.7" y="-465.1" transform="matrix(0.844 0.5363 -0.5363 0.844 -348.164 297.6885)" width="5.7" height="30.9"/>
	<polygon points="-699.8,-422.5 -697.2,-426.6 -691.7,-435.2 -704.4,-443.2 -707,-439.1 -711.2,-441.7 -716.6,-433.1 -712.5,-430.5 
		-715.1,-426.4 -706.5,-421 -703.9,-425.1 	"/>
	<rect x="-661.3" y="-447.7" transform="matrix(0.844 0.5363 -0.5363 0.844 -334.5395 285.6977)" width="5.7" height="30.9"/>
	<polygon points="-672.4,-405 -669.8,-409.2 -664.3,-417.7 -677,-425.8 -679.6,-421.7 -683.7,-424.3 -689.2,-415.7 -685.1,-413.1 
		-687.7,-409 -679.1,-403.5 -676.5,-407.7 	"/>
	<rect x="-679.3" y="-466.8" transform="matrix(0.844 0.5363 -0.5363 0.844 -349.5955 282.3263)" width="38.2" height="13.8"/>
</g>
<g>
	<polygon class="st9" points="-660.7,-791.5 -667.3,-791.5 -913.7,-791.5 -913.7,-784.8 -920.3,-784.8 -920.3,-746.8 -913.7,-746.8 
		-913.7,-740.2 -667.3,-740.2 -660.7,-740.2 -660.7,-746.8 -654.1,-746.8 -654.1,-784.8 -660.7,-784.8 	"/>
	<polygon class="st10" points="-660.7,-798 -667.3,-798 -913.7,-798 -913.7,-791.4 -920.3,-791.4 -920.3,-753.4 -913.7,-753.4 
		-913.7,-746.8 -667.3,-746.8 -660.7,-746.8 -660.7,-753.4 -654.1,-753.4 -654.1,-791.4 -660.7,-791.4 	"/>
	<rect x="-919.7" y="-782.8" class="st12" width="265.5" height="32.8"/>
	<text transform="matrix(1 0 0 1 -853.9199 -764.6)" class="st6" style="font-family:'EditUndoBRK'; font-size:31.5429px;">Calibrate</text>
</g>
<g>
	<rect x="-918.7" y="-709.1" class="st9" width="219.8" height="28.8"/>
	<rect x="-923.6" y="-715.7" class="st9" width="229.4" height="30.6"/>
	<polygon class="st10" points="-923.6,-720 -923.6,-690.8 -918.7,-690.8 -918.7,-685.1 -699,-685.1 -699,-690.8 -694.2,-690.8 
		-694.2,-720 	"/>
</g>
<polygon class="st9" points="-703.8,-705.2 -703.8,-710.3 -708.9,-710.3 -708.9,-710.4 -765.5,-710.4 -796.1,-710.4 -821.7,-710.4 
	-845.5,-710.4 -908.9,-710.4 -908.9,-710.3 -914,-710.3 -914,-705.2 -919.1,-705.2 -919.1,-697.6 -914,-697.6 -914,-692.5 
	-908.9,-692.5 -908.9,-692.4 -845.5,-692.4 -821.7,-692.4 -796.1,-692.4 -765.5,-692.4 -708.9,-692.4 -708.9,-692.4 -703.8,-692.4 
	-703.8,-697.5 -698.7,-697.5 -698.7,-705.2 "/>
<g>
	<rect x="-927.7" y="-611.1" class="st12" width="4.7" height="0.1"/>
	<rect x="-927.7" y="-593.2" class="st12" width="4.7" height="0.1"/>
	<polygon class="st6" points="-906.7,-593.2 -906.7,-598.3 -901.6,-598.3 -901.6,-605.9 -906.7,-605.9 -906.7,-611 -911.8,-611 
		-911.8,-611.1 -923,-611.1 -923,-611 -927.7,-611 -927.7,-593.2 -923,-593.2 -923,-593.1 -911.8,-593.1 -911.8,-593.2 	"/>
</g>
<g>
	<polygon class="st6" points="-953.5,-646.6 -953.5,-651.7 -958.6,-651.7 -958.6,-651.8 -974.5,-651.8 -974.5,-633.8 -958.6,-633.8 
		-958.6,-633.9 -953.5,-633.9 -953.5,-639 -948.4,-639 -948.4,-646.6 	"/>
	<polygon class="st6" points="-967,-607.8 -967,-612.9 -967,-612.9 -967,-613 -971.5,-613 -972.1,-613 -976.6,-613 -976.6,-612.9 
		-976.6,-612.9 -976.6,-607.8 -981.7,-607.8 -981.7,-600.2 -976.6,-600.2 -976.6,-595.1 -976.6,-595.1 -976.6,-595 -972.1,-595 
		-971.5,-595 -967,-595 -967,-595.1 -967,-595.1 -967,-600.1 -961.9,-600.1 -961.9,-607.8 	"/>
</g>
<polygon class="st6" points="-1016.8,-705.2 -1016.8,-710.3 -1016.8,-710.3 -1016.8,-710.4 -1021.3,-710.4 -1021.9,-710.4 
	-1026.4,-710.4 -1026.4,-710.3 -1026.4,-710.3 -1026.4,-705.2 -1031.5,-705.2 -1031.5,-697.6 -1026.4,-697.6 -1026.4,-692.5 
	-1026.4,-692.5 -1026.4,-692.4 -1021.9,-692.4 -1021.3,-692.4 -1016.8,-692.4 -1016.8,-692.4 -1016.8,-692.4 -1016.8,-697.5 
	-1011.7,-697.5 -1011.7,-705.2 "/>
<polygon class="st13" points="-51,-316 -61,-316 -435.9,-316 -435.9,-305.9 -446,-305.9 -446,-248.1 -435.9,-248.1 -435.9,-238 
	-61,-238 -51,-238 -51,-248.1 -40.9,-248.1 -40.9,-305.9 -51,-305.9 "/>
<polygon class="st14" points="-51,-326 -61,-326 -435.9,-326 -435.9,-315.9 -446,-315.9 -446,-258.1 -435.9,-258.1 -435.9,-248 
	-61,-248 -51,-248 -51,-258.1 -40.9,-258.1 -40.9,-315.9 -51,-315.9 "/>
<rect x="-446" y="-302.8" class="st12" width="405" height="81.8"/>
<text transform="matrix(1 0 0 1 -340.2676 -275.1211)" class="st6" style="font-family:'EditUndoBRK'; font-size:48px;">PLAYER 2</text>
<g>
	<rect x="-425" y="-322" class="st6" width="45.1" height="5.7"/>
	<rect x="-373.7" y="-322" class="st6" width="5.7" height="5.7"/>
</g>
<g>
	<rect x="-879.5" y="-321" class="st6" width="45.1" height="5.7"/>
	<rect x="-828.2" y="-321" class="st6" width="5.7" height="5.7"/>
</g>
<polygon class="st15" points="-490.4,-481 -484,-475.4 -489.6,-469 -469.2,-451.6 -469.2,-413.7 -448.4,-439.8 -416.7,-410.5 
	-410.8,-416.7 -405.8,-412.1 -334.2,-530.8 "/>
<polygon class="st16" points="-492.8,-488.1 -486.5,-482.5 -492.1,-476.1 -471.6,-458.8 -471.6,-420.9 -450.9,-447 -419.1,-417.6 
	-413.3,-423.9 -408.3,-419.2 -336.7,-537.9 "/>
<polygon class="st17" points="-450.8,-447.2 -336.4,-537.9 -471.5,-459 -471.5,-421.1 "/>
<polygon class="st18" points="-493.9,-488 -487.5,-482.4 -493.1,-476 -472.7,-458.6 -472.7,-420.7 -451.9,-446.8 -420.2,-417.4 
	-414.3,-423.7 -409.4,-419.1 -337.7,-537.8 "/>
<g>
	<polygon class="st19" points="-558.1,-763.9 -558.1,-627.7 -547.7,-627.7 -547.7,-619.8 -537.3,-619.8 -537.3,-611.1 -89.8,-611.1 
		-89.8,-619.8 -79.4,-619.8 -79.4,-627.7 -69.1,-627.7 -69.1,-763.9 	"/>
	<polygon class="st19" points="-69.1,-763.9 -69.1,-842.3 -79.4,-842.3 -79.4,-850.2 -89.8,-850.2 -89.8,-858.9 -537.3,-858.9 
		-537.3,-850.2 -547.7,-850.2 -547.7,-842.3 -558.1,-842.3 -558.1,-763.9 	"/>
</g>
<g>
	<polygon class="st20" points="-547.7,-842.2 -537.3,-842.2 -537.3,-850.2 -547.7,-850.2 -547.7,-842.3 -558.1,-842.3 
		-558.1,-834.3 -547.7,-834.3 	"/>
	<rect x="-537.3" y="-858.9" class="st20" width="447.5" height="8"/>
	<polygon class="st20" points="-79.4,-842.3 -79.4,-850.2 -89.8,-850.2 -89.8,-842.2 -79.4,-842.2 -79.4,-834.3 -69.1,-834.3 
		-69.1,-842.3 	"/>
</g>
</svg>
