<svg id="Layer_1" xmlns="http://www.w3.org/2000/svg" width="266.2" height="57.8" viewBox="0 0 266.2 57.8"><style>.st0{fill:#5895b7}.st1{opacity:.8}.st2{fill:#c17620}.st3{fill:#f4c24a}.st4{fill:#fff}.st5{fill:#2a6fba}.st6{fill:#4abaef}.st7{fill:#95c9c8}.st8{fill:#ddefee}.st9{fill:#1b8e6f}.st10{fill:#3cea8a}.st11{opacity:.4;fill:#666}.st12{fill:#33bc6e}.st13{fill:none}.st14{fill:#7149a4}.st15{fill:#bd86e0}.st16{opacity:.4;fill:#666;stroke:#666;stroke-width:4;stroke-linejoin:bevel;stroke-miterlimit:10}.st17{fill:#f2f2f2}.st18{fill:#e6e6e6}.st19{fill:none;stroke:#000;stroke-width:4;stroke-linejoin:bevel;stroke-miterlimit:10}.st20{fill:#c6e0de}.st21{fill:#a7c6c3}.st22{fill:#ee3d53}.st23{fill:none;stroke:#000;stroke-width:2;stroke-miterlimit:10}.st24{fill:#a17559}.st25{fill:#910e46}.st26{fill:#238d6f}.st27{fill:#704ca2}.st28{fill:#47e88d}.st29{fill:#bc88de}</style><path class="st0" d="M110.3 733h484v82h-484z"/><path class="st0" d="M562.3 807h107v30h-107z"/><g class="st1"><path class="st0" d="M126.3 753v82h-96v-11h12v-12h12v-12h12v-12h-12v-12h-12v-12h-12v-11z"/><path class="st0" d="M112.3 811l14 23v-23z"/></g><path class="st2" d="M573.3 745v82h96v-11h-12v-12h-12v-12h-12v-12h12v-12h12v-12h12v-11z"/><path class="st3" d="M573.3 734v82h96v-11h-12v-12h-12v-12h-12v-12h12v-12h12v-12h12v-11z"/><path class="st2" d="M587.3 803l-14 23 .1-23zm-470-58v82h-96v-11h12v-12h12v-12h12v-12h-12v-12h-12v-12h-12v-11z"/><path class="st3" d="M117.3 734v82h-96v-11h12v-12h12v-12h12v-12h-12v-12h-12v-12h-12v-11z"/><path class="st2" d="M103.3 803l14 23v-23zm0-82h484v82h-484z"/><path class="st3" d="M103.3 709h484v82h-484z"/><path class="st4" d="M173.9 768.8h-8.6v-34.6h8.6v13h8.6v-13h8.6v34.6h-8.6v-13h-8.6v13zm21.6-30.2h4.3v-4.3h17.3v4.3h4.3v25.9h-4.3v4.3h-17.3v-4.3h-4.3v-25.9zm8.7 21.6h8.6v-17.3h-8.6v17.3zm30.2 8.6h-8.6v-34.6h8.6v17.3h4.3v-4.3h4.3v4.3h4.3v-17.3h8.6v34.6h-8.6v-4.3H243v-4.3h-4.3v4.3h-4.3v4.3zm56.2-34.6h25.9v8.6h-8.6v25.9h-8.6v-25.9h-8.6v-8.6zm30.2 4.4h4.3v-4.3h17.3v4.3h4.3v25.9h-4.3v4.3h-17.3v-4.3h-4.3v-25.9zm8.7 21.6h8.6v-17.3h-8.6v17.3zm60.4 8.6h-8.6v-34.6h21.6v4.3h4.3v13h-4.3v4.3h-13v13zm0-21.6h8.6v-4.3h-8.6v4.3zm26 17.3h-4.3v-30.2h8.6v25.9h17.3v8.6h-21.6v-4.3zm34.5 4.3h-8.6v-30.2h4.3v-4.3h17.3v4.3h4.3v30.2h-8.6v-13h-8.6v13zm8.7-21.6v-4.3h-8.6v4.3h8.6zm12.9-13h8.6v13h8.6v-13h8.6v17.3h-4.3v4.3h-4.3v13h-8.6v-13h-4.3v-4.3H472v-17.3z"/><path class="st5" d="M279.3 1002h-85v12h-12v85h12v12h85v-12h12v-85h-12z"/><path class="st5" d="M279.3 1002h-85v12h-12v85h12v12h85v-12h12v-85h-12z"/><path class="st4" d="M218.9 1036.2h28.4v5.7h5.7v17.1h-5.7v5.7h-17.1v-11.4h11.4v-5.7h-22.8v-11.4zm11.4 34.2h11.4v11.4h-11.4v-11.4z"/><path class="st5" d="M430.3 1002h-85v12h-12v85h12v12h85v-12h12v-85h-12z"/><path class="st6" d="M430.3 992h-85v12h-12v85h12v12h85v-12h12v-85h-12z"/><path class="st4" d="M369.9 1026.2h28.4v5.7h5.7v17.1h-5.7v5.7h-17.1v-11.4h11.4v-5.7h-22.8v-11.4zm11.4 34.2h11.4v11.4h-11.4v-11.4z"/><path class="st0" d="M1465.3 846.5h-11.5v-11.6h-11.6v-12.8H943.5v12.8h-11.6v11.6h-11.6v684.8h11.6v11.6h11.6v12.8h498.7v-12.8h11.6v-11.6h11.5z"/><path class="st7" d="M1465.3 834.5h-11.5v-11.6h-11.6v-12.8H943.5v12.8h-11.6v11.6h-11.6v684.7h11.6v11.7h11.6v12.8h498.7v-12.8h11.6v-11.7h11.5z"/><path class="st8" d="M1465.3 822.5h-11.5v-11.7h-11.6V798H943.5v12.8h-11.6v11.7h-11.6v684.7h11.6v11.6h11.6v12.9h498.7v-12.9h11.6v-11.6h11.5z"/><path class="st9" d="M416.4 482h-385v10.1H21.3V550h10.1v10h385v-10h10v-57.9h-10z"/><path class="st10" d="M416.4 472h-385v10.1H21.3V540h10.1v10h385v-10h10v-57.9h-10z"/><path class="st4" d="M141.4 522.9h-6.9v-27.6h17.3v3.5h3.5v10.4h-3.5v3.5h-10.4v10.2zm0-17.3h6.9v-3.5h-6.9v3.5zm20.7 13.9h-3.5v-24.2h6.9V516h13.8v6.9H162v-3.4zm27.7 3.4h-6.9v-24.2h3.5v-3.5h13.8v3.5h3.5v24.2h-6.9v-10.4h-6.9v10.4zm6.9-17.3v-3.5h-6.9v3.5h6.9zm10.3-10.3h6.9v10.4h6.9v-10.4h6.9v13.8h-3.5v3.5h-3.5V523H214v-10.4h-3.5v-3.5H207v-13.8zm27.7 24.2h-3.5v-20.7h3.5v-3.5H252v6.9h-13.8v3.5h6.9v6.9h-6.9v3.5H252v6.9h-17.3v-3.5zm31.1-7h-3.5v10.4h-6.9v-27.6h17.3v3.5h3.5v10.4h-3.5v3.5h3.5v10.4h-6.9V516h-3.5v-3.5zm-3.5-6.9h6.9v-3.5h-6.9v3.5zm41.5-10.3h6.9v27.6h-6.9v-27.6z"/><path class="st11" d="M55.5 361.4l-1.9-5.7-4.1-12.1-17.8 6.1 1.9 5.7-5.7 2 4 12 5.8-1.9 2 5.7 12-4-2-5.8zm38.8-12l-2-5.8-4-12-17.8 6 1.9 5.8-5.7 1.9 4 12.1 5.8-2 2 5.8 12-4.1-2-5.8z"/><path transform="rotate(-18.702 38.326 321.735)" d="M34.7 302.4h7.1V341h-7.1z"/><path d="M53.9 356.6l-2-5.7-4-12.1-17.8 6.1 1.9 5.7-5.8 2 4.1 12 5.8-1.9 1.9 5.7 12.1-4-2-5.8z"/><path transform="rotate(-18.702 76.797 308.705)" d="M73.2 289.4h7.1V328h-7.1z"/><path d="M92.3 343.6l-1.9-5.8-4.1-12-17.8 6 2 5.8-5.8 2 4.1 12 5.8-2 1.9 5.8 12-4.1-1.9-5.7z"/><path transform="rotate(-18.702 48.604 288.772)" d="M24.7 280.1h47.7v17.3H24.7z"/><path class="st11" d="M121.7 395l.9-4.1 1.9-8.7-12.8-2.8-.9 4.2-4.1-1-1.9 8.7 4.1.9-.9 4.2 8.7 1.9.9-4.2zm27.5 6.8l.9-4.2 1.9-8.6-12.8-2.8-.9 4.1-4.1-.9-1.9 8.7 4.1.9-.9 4.1 8.7 1.9.9-4.1z"/><path transform="rotate(12.41 125.759 365.076)" d="M123.3 351.6h5v26.9h-5z"/><path d="M122.5 391.6l.9-4.2 1.9-8.6-12.8-2.8-.9 4.1-4.2-.9-1.9 8.6 4.2.9-.9 4.2 8.6 1.9.9-4.2z"/><path transform="rotate(12.41 153.419 371.161)" d="M150.9 357.7h5v26.9h-5z"/><path d="M150.1 397.6l1-4.1 1.9-8.6-12.8-2.9-1 4.2-4.1-.9-1.9 8.6 4.1.9-.9 4.2 8.7 1.9.9-4.2z"/><path transform="rotate(12.41 143.773 349.102)" d="M127.1 343.1h33.3v12h-33.3z"/><path class="st11" d="M197.7 333.2l-.6-3-1.5-6.4-9.3 2.1.6 3.1-3 .6 1.4 6.4 3-.7.7 3.1 6.4-1.5-.7-3zm20.5-4l-.7-3-1.4-6.4-9.4 2.1.7 3.1-3.1.6 1.4 6.4 3.1-.7.6 3 6.4-1.4-.7-3z"/><path transform="rotate(-12.552 191.135 312.028)" d="M189.3 302.2h3.6V322h-3.6z"/><path d="M197.2 330.7l-.7-3.1-1.4-6.3-9.4 2.1.7 3-3.1.7 1.4 6.4 3.1-.7.7 3 6.3-1.4-.7-3z"/><path transform="rotate(-12.552 211.443 307.508)" d="M209.6 297.6h3.6v19.8h-3.6z"/><path d="M217.5 326.2l-.7-3.1-1.4-6.3-9.4 2.1.7 3-3.1.7 1.4 6.3 3.1-.6.7 3 6.3-1.4-.7-3.1z"/><path transform="rotate(-12.552 198.182 295.807)" d="M186 291.4h24.4v8.8H186z"/><path class="st11" d="M218.3 379l2.7-4.1 5.4-8.6-12.7-8.1-2.6 4.2-4.1-2.7-5.5 8.6 4.2 2.6-2.7 4.1 8.6 5.5 2.6-4.1zm27 18.1l2.6-4.1 5.5-8.6-12.7-8-2.6 4.1-4.1-2.6-5.5 8.5 4.2 2.6-2.7 4.2 8.6 5.4 2.6-4.1z"/><path transform="rotate(32.435 234.476 348.313)" d="M231.6 332.9h5.7v30.9h-5.7z"/><path d="M220.5 375.6l2.6-4.2 5.5-8.5-12.7-8.1-2.6 4.1-4.1-2.6-5.5 8.6 4.1 2.6-2.6 4.1 8.6 5.5 2.6-4.2z"/><path transform="rotate(32.435 261.904 365.74)" d="M259 350.3h5.7v30.9H259z"/><path d="M247.9 393l2.7-4.1 5.4-8.6-12.7-8.1-2.6 4.2-4.1-2.7-5.4 8.6 4.1 2.6-2.6 4.1 8.5 5.5 2.6-4.1z"/><path transform="rotate(32.435 260.17 338.17)" d="M241.1 331.3h38.2v13.8h-38.2z"/><path class="st9" d="M-60.4-61.4h-253v6.6h-6.6v38h6.6v6.6h253v-6.6h6.6v-38h-6.6z"/><path class="st12" d="M-60.4-61.4h-253v6.6h-6.6v38h6.6v6.6h253v-6.6h6.6v-38h-6.6z"/><path class="st4" d="M-253.6-43.9h2.3v-2.3h11.4v4.5h-9.1v9.1h9.1v4.5h-11.4v-2.3h-2.3v-13.5zm20.4 15.9h-4.5v-15.9h2.3v-2.3h9.1v2.3h2.3V-28h-4.5v-6.8h-4.5v6.8zm4.6-11.3v-2.3h-4.5v2.3h4.5zm9.1 9h-2.3v-15.9h4.5v13.6h9.1v4.5h-11.4v-2.2zm13.6-15.9h4.5V-28h-4.5v-18.2zm6.8 0h11.4v2.3h2.3v13.6h-2.3v2.3h-11.4v-18.2zm4.6 6.9h4.5v-2.3h-4.5v2.3zm0 6.8h4.5v-2.3h-4.5v2.3zm18.1-2.3h-2.3v6.8h-4.5v-15.9h2.3v-2.3h9.1v2.3h2.3v6.8h-2.3v2.3h2.3v6.8h-4.5v-4.5h-2.3v-2.3zm-2.3-4.5h4.5v-2.3h-4.5v2.3zm15.9 11.3h-4.5v-15.9h2.3v-2.3h9.1v2.3h2.3V-28h-4.5v-6.8h-4.5v6.8zm4.6-11.3v-2.3h-4.5v2.3h4.5zm6.8-6.9h13.6v4.5h-4.5V-28h-4.5v-13.6h-4.5v-4.6zm18.2 15.9h-2.3v-13.6h2.3v-2.3h11.4v4.5h-9.1v2.3h4.5v4.5h-4.5v2.3h9.1v4.5h-11.4v-2.2z"/><path class="st9" d="M259.6 6.6H6.6v6.6H0v38h6.6v6.6h253v-6.6h6.6v-38h-6.6z"/><path class="st10" d="M259.6 0H6.6v6.6H0v38h6.6v6.7h253v-6.7h6.6v-38h-6.6z"/><path class="st4" d="M66.4 17.5h2.3v-2.3H80v4.5h-9.1v9.1H80v4.5H68.7V31h-2.3V17.5zm20.4 15.9h-4.5V17.5h2.3v-2.3h9.1v2.3H96v15.9h-4.5v-6.8H87v6.8zm4.6-11.3v-2.3h-4.5v2.3h4.5zm9.1 9.1h-2.3V15.3h4.5v13.6h9.1v4.5h-11.4v-2.2zm13.6-15.9h4.5v18.2h-4.5V15.3zm6.8 0h11.4v2.3h2.3v13.6h-2.3v2.3h-11.4V15.3zm4.6 6.8h4.5v-2.3h-4.5v2.3zm0 6.8h4.5v-2.3h-4.5v2.3zm18.1-2.3h-2.3v6.8h-4.5V17.5h2.3v-2.3h9.1v2.3h2.3v6.8h-2.3v2.3h2.3v6.8H146v-4.5h-2.3v-2.3zm-2.3-4.5h4.5v-2.3h-4.5v2.3zm15.9 11.3h-4.5V17.5h2.3v-2.3h9.1v2.3h2.3v15.9h-4.5v-6.8h-4.5v6.8zm4.6-11.3v-2.3h-4.5v2.3h4.5zm6.8-6.8h13.6v4.5h-4.5v13.6h-4.5V19.8h-4.5v-4.5zm18.2 15.9h-2.3V17.5h2.3v-2.3h11.4v4.5H189V22h4.5v4.5H189v2.3h9.1v4.5h-11.4v-2.1z"/><path class="st9" d="M1.6 88.9h219.8v28.8H1.6z"/><path class="st9" d="M-3.2 82.4h229.4V113H-3.2z"/><path class="st10" d="M-3.2 78v29.3h4.8v5.7h219.7v-5.7h4.8V78z"/><path class="st9" d="M216.6 92.9v-5.1h-5.1v-.1H6.3v5.1h-5v7.7h5v5.1h5.1v.1h200.1v-.1h5.1v-5.1h5.1v-7.6z"/><path class="st13" d="M-7.4 186.9h4.7v.1h-4.7zm0 17.9h4.7v.1h-4.7z"/><path class="st4" d="M13.7 204.9v-5.1h5.1v-7.7h-5.1V187H8.6v-.1H-2.6v.1h-4.8v17.8h4.8v.1H8.6zm-46.9-53.5v-5.1h-5.1v-.1h-15.9v18h15.9v-.1h5.1V159h5.1v-7.6zm-13.5 38.8V185h-9.6v5.2h-5.1v7.6h5.1v5.2h9.6v-5.1h5.1v-7.7zm-49.8-97.3v-5.2h-9.6v5.1h-5.1v7.7h5.1v5.2h9.6v-5.2h5.1v-7.6z"/><path class="st14" d="M869.4 482h-385v10.1h-10.1V550h10.1v10h385v-10h10v-57.9h-10z"/><path class="st15" d="M869.4 472h-385v10.1h-10.1V540h10.1v10h385v-10h10v-57.9h-10z"/><path class="st4" d="M587 522.9h-6.9v-27.6h17.3v3.5h3.5v10.4h-3.5v3.5H587v10.2zm0-17.3h6.9v-3.5H587v3.5zm20.7 13.9h-3.5v-24.2h6.9V516H625v6.9h-17.3v-3.4zm27.7 3.4h-6.9v-24.2h3.5v-3.5h13.8v3.5h3.5v24.2h-6.9v-10.4h-6.9v10.4zm6.9-17.3v-3.5h-6.9v3.5h6.9zm10.3-10.3h6.9v10.4h6.9v-10.4h6.9v13.8h-3.5v3.5h-3.5V523h-6.9v-10.4h-3.5v-3.5h-3.5v-13.8zm27.7 24.2h-3.5v-20.7h3.5v-3.5h17.3v6.9h-13.8v3.5h6.9v6.9h-6.9v3.5h13.8v6.9h-17.3v-3.5zm31.1-7h-3.5v10.4H701v-27.6h17.3v3.5h3.5v10.4h-3.5v3.5h3.5v10.4h-6.9V516h-3.5v-3.5zm-3.5-6.9h6.9v-3.5h-6.9v3.5zm41.5-10.3h17.3v3.5h3.5v10.4h-3.5v3.5h-10.4v3.5h13.8v6.9h-20.7v-13.8h3.5v-3.5h10.4v-3.5h-13.8v-7zM495.3 476h45.1v5.7h-45.1zm51.3 0h5.7v5.7h-5.7zm-505.8 1h45.1v5.7H40.8zm51.3 0h5.7v5.7h-5.7z"/><path class="st16" d="M429.9 317l6.4 5.6-5.6 6.4 20.5 17.4v37.9l20.7-26.1 31.8 29.4 5.8-6.3 5 4.6 71.6-118.7z"/><path class="st17" d="M427.5 309.9l6.4 5.6-5.6 6.4 20.4 17.4v37.9l20.7-26.1 31.8 29.4 5.9-6.3 4.9 4.6 71.6-118.7z"/><path class="st18" d="M469.5 350.9l114.4-90.8-135.1 79V377z"/><path class="st19" d="M426.4 310.1l6.4 5.6-5.6 6.4 20.5 17.3v37.9l20.7-26.1 31.8 29.4 5.8-6.3 5 4.6 71.6-118.6z"/><path class="st20" d="M362.3 3.3V167h10.3v9.5H383v10.4h447.5v-10.4h10.4V167h10.4V3.3zm489 0v-94.1h-10.4v-9.5h-10.4v-10.5H383v10.5h-10.4v9.5h-10.3V3.3z"/><path class="st21" d="M372.6-94.2H383v-8h-10.4v7.9h-10.3v8h10.3zm10.4-16.7h447.5v8H383zm457.9 16.6v-7.9h-10.4v8h10.4v7.9h10.4v-8z"/><path d="M-30.9-175.2h10.2v10.2h-10.2zm61.5-10.2v5.1h-5.1v5.1h5.1v20.5h5.1v5.1h-5.1v5.1h10.2v-10.2h15.4v5.1h5.1v-35.8H30.6zm25.6 25.6H35.7v-20.5h20.5v20.5z"/><path d="M40.8-175.2H51v10.2H40.8zm-71.7 71.7h10.2v10.2h-10.2zm61.5-10.2h5.1v5.1h-5.1zM5-88.1h5.1v5.1H5zm5.1-20.5h5.1v5.1h-5.1zm0 10.3h5.1v5.1h-5.1zM56.2-124h5.1v5.1h-5.1zm-97.3 0h5.1v5.1h-5.1zm0-25.6h5.1v5.1h-5.1zm56.3-30.7v5.1H5v5.2h15.3v-10.3z"/><path d="M56.2-144.4v5.1H45.9v5.1H30.6v-5.1h-5.1v5.1H15.2v5.1h15.4v5.1H15.2v-5.1h-5.1v5.1H5v-5.1H-.1v5.1h-5.1v5.1H5v5.1h5.1v-5.1h10.2v5.1h-5.1v5.1h5.1v10.2h5.1v5.1h5.1v-5.1h15.4v-10.2H51v-5.1h-5.1V-124H35.7v-5.1h10.2v5.1H51v-5.1h5.1v-5.1h5.1v-10.2h-5zm-15.4 25.6v15.4H25.4v-15.4h15.4zm-15.4-35.9h-5.1v5.1h-5.1v10.3h5.1v-5.1h5.1v-5.2h5.2v-5.1zM15.2-88.1h10.2v5.1H15.2zM-.2-180.3h5.1v5.1H-.2z"/><path d="M40.8-144.4h5.1v5.1h-5.1zm5.1-5.2H51v5.1h-5.1zM-20.6-124h5.1v5.1h-5.1zm10.2 35.9v-20.5h5.1v-10.2h-5.1v5.1h-15.4v-5.1H-36v5.1h-5.1V-83H-.2v-5.1h-10.2zm-5.1 0H-36v-20.5h20.5v20.5zm5.1-66.6h5.1v5.1h-5.1zm5.1-30.7h-35.8v30.7h5.1v5.1h5.1v-5.1h5.1v5.1h5.1v-5.1h10.2v-10.2h5.1v-5.1h-5.1v-10.2H-.3v-5.1h-5zm-10.2 25.6H-36v-20.5h20.5v20.5zM20.3-170h5.1v5.1h-5.1zm-10.2-15.4h5.1v5.1h-5.1z"/><path d="M20.3-154.7v-5.1h-5.1v-5.1h-5.1v5.1H-.2v-5.1h-5.1v10.2h5.1v10.2h-15.4v-5.1h-5.1v5.1H-36v5.1h10.2v5.1h-15.4v5.1h15.4v5.1h5.1v-5.1h5.1v5.1h5.1v-5.1H-.3v-5.1h-5.1v-5.1H5v5.1h10.2v-5.1h-5.1v-5.1H5v-10.2h15.3zm-30.7 20.5h-10.2v-5.1h10.2v5.1zM5-103.5v-10.2H-.2v5.1h-5.1v5.1h5.1v5.2h-5.1v5.1H5v-5.1h5.1v-5.2zm46 10.3v-5.1h-5.1v5.1H30.6v5.1h10.2v5.1h5.1v-5.1h10.3v5.1h5.1v-10.2zm5.2-20.5v5.1H51v5.1h10.3v-10.2z"/><path class="st9" d="M-269.2 230.7h-140.9v3.7h-3.7v21.2h3.7v3.7h140.9v-3.7h3.6v-21.2h-3.6z"/><path class="st12" d="M-269.2 230.7h-140.9v3.7h-3.7v21.2h3.7v3.7h140.9v-3.7h3.6v-21.2h-3.6z"/><path class="st4" d="M-381.9 245.6h-1.3v3.8h-2.5v-10.1h6.3v1.3h1.3v3.8h-1.3v1.3h1.3v3.8h-2.5V247h-1.3v-1.4zm-1.2-2.6h2.5v-1.3h-2.5v1.3zm7.6 5.1h-1.3v-7.6h1.3v-1.3h6.3v2.5h-5.1v1.3h2.5v2.5h-2.5v1.3h5.1v2.5h-6.3v-1.2zm8.8 0h-1.3v-7.6h1.3v-1.3h5.1v1.3h1.3v2.5h-2.5v-1.3h-2.5v5.1h2.5v-1.3h2.5v2.5h-1.3v1.3h-5.1v-1.2zm10.1 1.3h-2.5v-8.9h1.3v-1.3h5.1v1.3h1.3v8.9h-2.5v-3.8h-2.5v3.8zm2.6-6.4v-1.3h-2.5v1.3h2.5zm5 5.1h-1.3v-8.9h2.5v7.6h5.1v2.5h-6.3v-1.2zm7.6-8.9h2.5v10.1h-2.5v-10.1zm3.8 0h6.3v1.3h1.3v7.6h-1.3v1.3h-6.3v-10.2zm2.5 3.8h2.5v-1.3h-2.5v1.3zm0 3.8h2.5v-1.3h-2.5v1.3zm10.1-1.2h-1.3v3.8h-2.5v-8.9h1.3v-1.3h5.1v1.3h1.3v3.8h-1.3v1.3h1.3v3.8h-2.5v-2.5h-1.3v-1.3zm-1.2-2.6h2.5v-1.3h-2.5v1.3zm8.8 6.4h-2.5v-8.9h1.3v-1.3h5.1v1.3h1.3v8.9h-2.5v-3.8h-2.5v3.8zm2.6-6.4v-1.3h-2.5v1.3h2.5zm3.7-3.8h7.6v2.5h-2.5v7.6h-2.5v-7.6h-2.5v-2.5zm10.2 8.9h-1.3v-7.6h1.3v-1.3h6.3v2.5h-5.1v1.3h2.5v2.5h-2.5v1.3h5.1v2.5h-6.3v-1.2zm-106.8-15.2h13.1v1.7h-13.1zm14.9 0h1.7v1.7h-1.7z"/><path class="st9" d="M-269.2 272.7h-140.9v3.7h-3.7v21.2h3.7v3.7h140.9v-3.7h3.6v-21.2h-3.6z"/><path class="st10" d="M-269.2 269.1h-140.9v3.7h-3.7v21.1h3.7v3.7h140.9v-3.7h3.6v-21.1h-3.6z"/><path class="st4" d="M-381.9 283.9h-1.3v3.8h-2.5v-10.1h6.3v1.3h1.3v3.8h-1.3v1.3h1.3v3.8h-2.5v-2.5h-1.3v-1.4zm-1.2-2.5h2.5v-1.3h-2.5v1.3zm7.6 5h-1.3v-7.6h1.3v-1.3h6.3v2.5h-5.1v1.3h2.5v2.5h-2.5v1.3h5.1v2.5h-6.3v-1.2zm8.8 0h-1.3v-7.6h1.3v-1.3h5.1v1.3h1.3v2.5h-2.5V280h-2.5v5.1h2.5v-1.3h2.5v2.5h-1.3v1.3h-5.1v-1.2zm10.1 1.3h-2.5v-8.9h1.3v-1.3h5.1v1.3h1.3v8.9h-2.5v-3.8h-2.5v3.8zm2.6-6.3v-1.3h-2.5v1.3h2.5zm5 5h-1.3v-8.9h2.5v7.6h5.1v2.5h-6.3v-1.2zm7.6-8.8h2.5v10.1h-2.5v-10.1zm3.8 0h6.3v1.3h1.3v7.6h-1.3v1.3h-6.3v-10.2zm2.5 3.8h2.5v-1.3h-2.5v1.3zm0 3.8h2.5v-1.3h-2.5v1.3zm10.1-1.3h-1.3v3.8h-2.5v-8.9h1.3v-1.3h5.1v1.3h1.3v3.8h-1.3v1.3h1.3v3.8h-2.5v-2.5h-1.3v-1.3zm-1.2-2.5h2.5v-1.3h-2.5v1.3zm8.8 6.3h-2.5v-8.9h1.3v-1.3h5.1v1.3h1.3v8.9h-2.5v-3.8h-2.5v3.8zm2.6-6.3v-1.3h-2.5v1.3h2.5zm3.7-3.8h7.6v2.5h-2.5v7.6h-2.5v-7.6h-2.5v-2.5zm10.2 8.8h-1.3v-7.6h1.3v-1.3h6.3v2.5h-5.1v1.3h2.5v2.5h-2.5v1.3h5.1v2.5h-6.3v-1.2zm-106.8-14.5h13.1v1.7h-13.1zm14.9 0h1.7v1.7h-1.7zM12.1 3.6h23.6v3H12.1zm26.8 0h3v3h-3zm-347.2-61.5h23.6v3h-23.6zm26.8 0h3v3h-3z"/><path class="st22" d="M-338.4 65.6v-7.5H-357v7.5h-7.5v18.7h7.5v7.4h18.6v-7.4h7.5V65.6z"/><path class="st23" d="M-356.4 91.7v10m17.4-10v10"/><path class="st24" d="M-339.9 99.8h-15.5v2.2h-2.2v15.5h2.2v2.2h15.5v-2.2h2.2V102h-2.2z"/><path class="st25" d="M-271.3 504.9v-8H-413v8h-7.9v45.5h7.9v8h141.7v-8h8v-45.5z"/><path class="st25" d="M-271.3 505v-7.9H-413v7.9h-7.9v45.5h7.9v8h141.7v-8h8V505z"/><path class="st4" d="M-374.8 538.4h-5.4v-21.8h13.6v2.7h2.7v8.2h-2.7v2.7h-8.2v8.2zm0-13.6h5.4v-2.7h-5.4v2.7zm16.4 10.9h-2.7v-19h5.4V533h10.9v5.4h-13.6v-2.7zm21.7 2.7h-5.4v-19h2.7v-2.7h10.9v2.7h2.7v19h-5.4v-8.2h-5.4v8.2zm5.5-13.6v-2.7h-5.4v2.7h5.4zm8.1-8.2h5.4v8.2h5.4v-8.2h5.4v10.9h-2.7v2.7h-2.7v8.2h-5.4v-8.2h-2.7v-2.7h-2.7v-10.9z"/><path class="st25" d="M-101.3 504.9v-8H-243v8h-7.9v45.5h7.9v8h141.7v-8h8v-45.5z"/><path class="st22" d="M-101.3 497v-7.9H-243v7.9h-7.9v45.5h7.9v8h141.7v-8h8V497z"/><path class="st4" d="M-204.8 530.4h-5.4v-21.8h13.6v2.7h2.7v8.2h-2.7v2.7h-8.2v8.2zm0-13.6h5.4v-2.7h-5.4v2.7zm16.4 10.9h-2.7v-19h5.4V525h10.9v5.4h-13.6v-2.7zm21.7 2.7h-5.4v-19h2.7v-2.7h10.9v2.7h2.7v19h-5.4v-8.2h-5.4v8.2zm5.5-13.6v-2.7h-5.4v2.7h5.4zm8.1-8.2h5.4v8.2h5.4v-8.2h5.4v10.9h-2.7v2.7h-2.7v8.2h-5.4v-8.2h-2.7v-2.7h-2.7v-10.9z"/><path class="st26" d="M-1094.8 259.3h43.2v108h43.2v-108h43.2v129.6h-21.6v21.6h-21.6v21.6h-43.2v-21.6h-21.6v-21.6h-21.6V259.3z"/><path class="st27" d="M-943.6 282.9h21.6v-21.6h108v43.2h-86.4v21.6h64.8v21.6h21.6v64.8h-21.6v21.6h-108v-43.2h86.4v-21.6H-922v-21.6h-21.6v-64.8z"/><path class="st28" d="M-1094.8 238.2h43.2v108h43.2v-108h43.2v129.6h-21.6v21.6h-21.6V411h-43.2v-21.6h-21.6v-21.6h-21.6V238.2z"/><path class="st29" d="M-943.6 259.8h21.6v-21.6h108v43.2h-86.4V303h64.8v21.6h21.6v64.8h-21.6V411h-108v-43.2h86.4v-21.6H-922v-21.6h-21.6v-64.8z"/><path class="st0" d="M-1045.5 616.8h27.5v68.7h27.5v-68.7h27.5v82.4h-13.7V713h-13.7v13.7h-27.5V713h-13.7v-13.7h-13.7v-82.5zm96.2 15.1h13.7v-13.7h68.7v27.5h-54.9v13.7h41.2v13.7h13.7v41.2h-13.7V728h-68.7v-27.5h54.9v-13.7h-41.2v-13.7h-13.7v-41.2z"/><path class="st7" d="M-1045.5 602.3h27.5V671h27.5v-68.7h27.5v82.4h-13.7v13.7h-13.7v13.7h-27.5v-13.7h-13.7v-13.7h-13.7v-82.4zm96.2 15.1h13.7v-13.7h68.7v27.5h-54.9v13.7h41.2v13.7h13.7v41.2h-13.7v13.7h-68.7V686h54.9v-13.7h-41.2v-13.7h-13.7v-41.2z"/><path class="st4" d="M-1045.5 588.9h27.5v68.7h27.5v-68.7h27.5v82.4h-13.7V685h-13.7v13.7h-27.5V685h-13.7v-13.7h-13.7v-82.4zm96.2 13.8h13.7V589h68.7v27.5h-54.9v13.7h41.2v13.7h13.7v41.2h-13.7v13.7h-68.7v-27.5h54.9v-13.7h-41.2v-13.7h-13.7v-41.2z"/></svg>