<svg id="Layer_1" xmlns="http://www.w3.org/2000/svg" width="266.2" height="57.8" viewBox="0 0 266.2 57.8"><style>.st0{fill:#5895b7}.st1{opacity:.8}.st2{fill:#c17620}.st3{fill:#f4c24a}.st4{fill:#fff}.st5{fill:#2a6fba}.st6{fill:#4abaef}.st7{fill:#95c9c8}.st8{fill:#ddefee}.st9{fill:#1b8e6f}.st10{fill:#3cea8a}.st11{opacity:.4;fill:#666}.st12{fill:#33bc6e}.st13{fill:none}.st14{fill:#7149a4}.st15{fill:#bd86e0}.st16{opacity:.4;fill:#666;stroke:#666;stroke-width:4;stroke-linejoin:bevel;stroke-miterlimit:10}.st17{fill:#f2f2f2}.st18{fill:#e6e6e6}.st19{fill:none;stroke:#000;stroke-width:4;stroke-linejoin:bevel;stroke-miterlimit:10}.st20{fill:#c6e0de}.st21{fill:#a7c6c3}.st22{fill:#ee3d53}.st23{fill:none;stroke:#000;stroke-width:2;stroke-miterlimit:10}.st24{fill:#a17559}.st25{fill:#910e46}.st26{fill:#238d6f}.st27{fill:#704ca2}.st28{fill:#47e88d}.st29{fill:#bc88de}</style><path class="st0" d="M430.3 801h484v82h-484z"/><path class="st0" d="M882.3 875h107v30h-107z"/><g class="st1"><path class="st0" d="M446.3 821v82h-96v-11h12v-12h12v-12h12v-12h-12v-12h-12v-12h-12v-11z"/><path class="st0" d="M432.3 879l14 23v-23z"/></g><path class="st2" d="M893.3 813v82h96v-11h-12v-12h-12v-12h-12v-12h12v-12h12v-12h12v-11z"/><path class="st3" d="M893.3 802v82h96v-11h-12v-12h-12v-12h-12v-12h12v-12h12v-12h12v-11z"/><path class="st2" d="M907.3 871l-14 23 .1-23zm-470-58v82h-96v-11h12v-12h12v-12h12v-12h-12v-12h-12v-12h-12v-11z"/><path class="st3" d="M437.3 802v82h-96v-11h12v-12h12v-12h12v-12h-12v-12h-12v-12h-12v-11z"/><path class="st2" d="M423.3 871l14 23v-23zm0-82h484v82h-484z"/><path class="st3" d="M423.3 777h484v82h-484z"/><path class="st4" d="M493.9 836.8h-8.6v-34.6h8.6v13h8.6v-13h8.6v34.6h-8.6v-13h-8.6v13zm21.6-30.2h4.3v-4.3h17.3v4.3h4.3v25.9h-4.3v4.3h-17.3v-4.3h-4.3v-25.9zm8.7 21.6h8.6v-17.3h-8.6v17.3zm30.2 8.6h-8.6v-34.6h8.6v17.3h4.3v-4.3h4.3v4.3h4.3v-17.3h8.6v34.6h-8.6v-4.3H563v-4.3h-4.3v4.3h-4.3v4.3zm56.2-34.6h25.9v8.6h-8.6v25.9h-8.6v-25.9h-8.6v-8.6zm30.2 4.4h4.3v-4.3h17.3v4.3h4.3v25.9h-4.3v4.3h-17.3v-4.3h-4.3v-25.9zm8.7 21.6h8.6v-17.3h-8.6v17.3zm60.4 8.6h-8.6v-34.6h21.6v4.3h4.3v13h-4.3v4.3h-13v13zm0-21.6h8.6v-4.3h-8.6v4.3zm26 17.3h-4.3v-30.2h8.6v25.9h17.3v8.6h-21.6v-4.3zm34.5 4.3h-8.6v-30.2h4.3v-4.3h17.3v4.3h4.3v30.2h-8.6v-13h-8.6v13zm8.7-21.6v-4.3h-8.6v4.3h8.6zm12.9-13h8.6v13h8.6v-13h8.6v17.3h-4.3v4.3h-4.3v13h-8.6v-13h-4.3v-4.3H792v-17.3z"/><path class="st5" d="M599.3 1070h-85v12h-12v85h12v12h85v-12h12v-85h-12z"/><path class="st5" d="M599.3 1070h-85v12h-12v85h12v12h85v-12h12v-85h-12z"/><path class="st4" d="M538.9 1104.2h28.4v5.7h5.7v17.1h-5.7v5.7h-17.1v-11.4h11.4v-5.7h-22.8v-11.4zm11.4 34.2h11.4v11.4h-11.4v-11.4z"/><path class="st5" d="M750.3 1070h-85v12h-12v85h12v12h85v-12h12v-85h-12z"/><path class="st6" d="M750.3 1060h-85v12h-12v85h12v12h85v-12h12v-85h-12z"/><path class="st4" d="M689.9 1094.2h28.4v5.7h5.7v17.1h-5.7v5.7h-17.1v-11.4h11.4v-5.7h-22.8v-11.4zm11.4 34.2h11.4v11.4h-11.4v-11.4z"/><path class="st0" d="M1785.3 914.5h-11.5v-11.6h-11.6v-12.8h-498.7v12.8h-11.6v11.6h-11.6v684.8h11.6v11.6h11.6v12.8h498.7v-12.8h11.6v-11.6h11.5z"/><path class="st7" d="M1785.3 902.5h-11.5v-11.6h-11.6v-12.8h-498.7v12.8h-11.6v11.6h-11.6v684.7h11.6v11.7h11.6v12.8h498.7v-12.8h11.6v-11.7h11.5z"/><path class="st8" d="M1785.3 890.5h-11.5v-11.7h-11.6V866h-498.7v12.8h-11.6v11.7h-11.6v684.7h11.6v11.6h11.6v12.9h498.7v-12.9h11.6v-11.6h11.5z"/><path class="st9" d="M736.4 550h-385v10.1h-10.1V618h10.1v10h385v-10h10v-57.9h-10z"/><path class="st10" d="M736.4 540h-385v10.1h-10.1V608h10.1v10h385v-10h10v-57.9h-10z"/><path class="st4" d="M461.4 590.9h-6.9v-27.6h17.3v3.5h3.5v10.4h-3.5v3.5h-10.4v10.2zm0-17.3h6.9v-3.5h-6.9v3.5zm20.7 13.9h-3.5v-24.2h6.9V584h13.8v6.9H482v-3.4zm27.7 3.4h-6.9v-24.2h3.5v-3.5h13.8v3.5h3.5v24.2h-6.9v-10.4h-6.9v10.4zm6.9-17.3v-3.5h-6.9v3.5h6.9zm10.3-10.3h6.9v10.4h6.9v-10.4h6.9v13.8h-3.5v3.5h-3.5V591H534v-10.4h-3.5v-3.5H527v-13.8zm27.7 24.2h-3.5v-20.7h3.5v-3.5H572v6.9h-13.8v3.5h6.9v6.9h-6.9v3.5H572v6.9h-17.3v-3.5zm31.1-7h-3.5v10.4h-6.9v-27.6h17.3v3.5h3.5v10.4h-3.5v3.5h3.5v10.4h-6.9V584h-3.5v-3.5zm-3.5-6.9h6.9v-3.5h-6.9v3.5zm41.5-10.3h6.9v27.6h-6.9v-27.6z"/><path class="st11" d="M375.5 429.4l-1.9-5.7-4.1-12.1-17.8 6.1 1.9 5.7-5.7 2 4 12 5.8-1.9 2 5.7 12-4-2-5.8zm38.8-12l-2-5.8-4-12-17.8 6 1.9 5.8-5.7 1.9 4 12.1 5.8-2 2 5.8 12-4.1-2-5.8z"/><path transform="rotate(-18.702 358.362 389.719)" d="M354.7 370.4h7.1V409h-7.1z"/><path d="M373.9 424.6l-2-5.7-4-12.1-17.8 6.1 1.9 5.7-5.8 2 4.1 12 5.8-1.9 1.9 5.7 12.1-4-2-5.8z"/><path transform="rotate(-18.702 396.833 376.689)" d="M393.2 357.4h7.1V396h-7.1z"/><path d="M412.3 411.6l-1.9-5.8-4.1-12-17.8 6 2 5.8-5.8 2 4.1 12 5.8-2 1.9 5.8 12-4.1-1.9-5.7z"/><path transform="rotate(-18.702 368.64 356.755)" d="M344.7 348.1h47.7v17.3h-47.7z"/><path class="st11" d="M441.7 463l.9-4.1 1.9-8.7-12.8-2.8-.9 4.2-4.1-1-1.9 8.7 4.1.9-.9 4.2 8.7 1.9.9-4.2zm27.5 6.8l.9-4.2 1.9-8.6-12.8-2.8-.9 4.1-4.1-.9-1.9 8.7 4.1.9-.9 4.1 8.7 1.9.9-4.1z"/><path transform="rotate(12.41 445.742 433.069)" d="M443.3 419.6h5v26.9h-5z"/><path d="M442.5 459.6l.9-4.2 1.9-8.6-12.8-2.8-.9 4.1-4.2-.9-1.9 8.6 4.2.9-.9 4.2 8.6 1.9.9-4.2z"/><path transform="rotate(12.41 473.402 439.154)" d="M470.9 425.7h5v26.9h-5z"/><path d="M470.1 465.6l1-4.1 1.9-8.6-12.8-2.9-1 4.2-4.1-.9-1.9 8.6 4.1.9-.9 4.2 8.7 1.9.9-4.2z"/><path transform="rotate(12.41 463.756 417.095)" d="M447.1 411.1h33.3v12h-33.3z"/><path class="st11" d="M517.7 401.2l-.6-3-1.5-6.4-9.3 2.1.6 3.1-3 .6 1.4 6.4 3-.7.7 3.1 6.4-1.5-.7-3zm20.5-4l-.7-3-1.4-6.4-9.4 2.1.7 3.1-3.1.6 1.4 6.4 3.1-.7.6 3 6.4-1.4-.7-3z"/><path transform="rotate(-12.552 511.114 380.033)" d="M509.3 370.2h3.6V390h-3.6z"/><path d="M517.2 398.7l-.7-3.1-1.4-6.3-9.4 2.1.7 3-3.1.7 1.4 6.4 3.1-.7.7 3 6.3-1.4-.7-3z"/><path transform="rotate(-12.552 531.421 375.513)" d="M529.6 365.6h3.6v19.8h-3.6z"/><path d="M537.5 394.2l-.7-3.1-1.4-6.3-9.4 2.1.7 3-3.1.7 1.4 6.3 3.1-.6.7 3 6.3-1.4-.7-3.1z"/><path transform="rotate(-12.552 518.16 363.812)" d="M506 359.4h24.4v8.8H506z"/><path class="st11" d="M538.3 447l2.7-4.1 5.4-8.6-12.7-8.1-2.6 4.2-4.1-2.7-5.5 8.6 4.2 2.6-2.7 4.1 8.6 5.5 2.6-4.1zm27 18.1l2.6-4.1 5.5-8.6-12.7-8-2.6 4.1-4.1-2.6-5.5 8.5 4.2 2.6-2.7 4.2 8.6 5.4 2.6-4.1z"/><path transform="rotate(32.435 554.48 416.3)" d="M551.6 400.9h5.7v30.9h-5.7z"/><path d="M540.5 443.6l2.6-4.2 5.5-8.5-12.7-8.1-2.6 4.1-4.1-2.6-5.5 8.6 4.1 2.6-2.6 4.1 8.6 5.5 2.6-4.2z"/><path transform="rotate(32.435 581.908 433.727)" d="M579 418.3h5.7v30.9H579z"/><path d="M567.9 461l2.7-4.1 5.4-8.6-12.7-8.1-2.6 4.2-4.1-2.7-5.4 8.6 4.1 2.6-2.6 4.1 8.5 5.5 2.6-4.1z"/><path transform="rotate(32.435 580.175 406.157)" d="M561.1 399.3h38.2v13.8h-38.2z"/><path class="st9" d="M259.6 6.6H6.6v6.6H0v38h6.6v6.6h253v-6.6h6.6v-38h-6.6z"/><path class="st12" d="M259.6 6.6H6.6v6.6H0v38h6.6v6.6h253v-6.6h6.6v-38h-6.6z"/><path class="st4" d="M66.4 24.1h2.3v-2.3H80v4.5h-9.1v9.1H80V40H68.7v-2.3h-2.3V24.1zM86.8 40h-4.5V24.1h2.3v-2.3h9.1v2.3H96V40h-4.5v-6.8H87V40zm4.6-11.3v-2.3h-4.5v2.3h4.5zm9.1 9h-2.3V21.8h4.5v13.6h9.1V40h-11.4v-2.3zm13.6-15.9h4.5V40h-4.5V21.8zm6.8 0h11.4v2.3h2.3v13.6h-2.3V40h-11.4V21.8zm4.6 6.9h4.5v-2.3h-4.5v2.3zm0 6.8h4.5v-2.3h-4.5v2.3zm18.1-2.3h-2.3V40h-4.5V24.1h2.3v-2.3h9.1v2.3h2.3v6.8h-2.3v2.3h2.3V40H146v-4.5h-2.3v-2.3zm-2.3-4.5h4.5v-2.3h-4.5v2.3zM157.2 40h-4.5V24.1h2.3v-2.3h9.1v2.3h2.3V40h-4.5v-6.8h-4.5V40zm4.6-11.3v-2.3h-4.5v2.3h4.5zm6.8-6.9h13.6v4.5h-4.5V40h-4.5V26.4h-4.5v-4.6zm18.2 15.9h-2.3V24.1h2.3v-2.3h11.4v4.5H189v2.3h4.5v4.5H189v2.3h9.1V40h-11.4v-2.3z"/><path class="st9" d="M579.6 74.6h-253v6.6H320v38h6.6v6.6h253v-6.6h6.6v-38h-6.6z"/><path class="st10" d="M579.6 68h-253v6.6H320v38h6.6v6.7h253v-6.7h6.6v-38h-6.6z"/><path class="st4" d="M386.4 85.5h2.3v-2.3H400v4.5h-9.1v9.1h9.1v4.5h-11.4V99h-2.3V85.5zm20.4 15.9h-4.5V85.5h2.3v-2.3h9.1v2.3h2.3v15.9h-4.5v-6.8H407v6.8zm4.6-11.3v-2.3h-4.5v2.3h4.5zm9.1 9.1h-2.3V83.3h4.5v13.6h9.1v4.5h-11.4v-2.2zm13.6-15.9h4.5v18.2h-4.5V83.3zm6.8 0h11.4v2.3h2.3v13.6h-2.3v2.3h-11.4V83.3zm4.6 6.8h4.5v-2.3h-4.5v2.3zm0 6.8h4.5v-2.3h-4.5v2.3zm18.1-2.3h-2.3v6.8h-4.5V85.5h2.3v-2.3h9.1v2.3h2.3v6.8h-2.3v2.3h2.3v6.8H466v-4.5h-2.3v-2.3zm-2.3-4.5h4.5v-2.3h-4.5v2.3zm15.9 11.3h-4.5V85.5h2.3v-2.3h9.1v2.3h2.3v15.9h-4.5v-6.8h-4.5v6.8zm4.6-11.3v-2.3h-4.5v2.3h4.5zm6.8-6.8h13.6v4.5h-4.5v13.6h-4.5V87.8h-4.5v-4.5zm18.2 15.9h-2.3V85.5h2.3v-2.3h11.4v4.5H509V90h4.5v4.5H509v2.3h9.1v4.5h-11.4v-2.1z"/><path class="st9" d="M321.6 156.9h219.8v28.8H321.6z"/><path class="st9" d="M316.8 150.4h229.4V181H316.8z"/><path class="st10" d="M316.8 146v29.3h4.8v5.7h219.7v-5.7h4.8V146z"/><path class="st9" d="M536.6 160.9v-5.1h-5.1v-.1H326.3v5.1h-5v7.7h5v5.1h5.1v.1h200.1v-.1h5.1v-5.1h5.1v-7.6z"/><path class="st13" d="M312.6 254.9h4.7v.1h-4.7zm0 17.9h4.7v.1h-4.7z"/><path class="st4" d="M333.7 272.9v-5.1h5.1v-7.7h-5.1V255h-5.1v-.1h-11.2v.1h-4.8v17.8h4.8v.1h11.2zm-46.9-53.5v-5.1h-5.1v-.1h-15.9v18h15.9v-.1h5.1V227h5.1v-7.6zm-13.5 38.8V253h-9.6v5.2h-5.1v7.6h5.1v5.2h9.6v-5.1h5.1v-7.7zm-49.8-97.3v-5.2h-9.6v5.1h-5.1v7.7h5.1v5.2h9.6v-5.2h5.1v-7.6z"/><path class="st14" d="M1189.4 550h-385v10.1h-10.1V618h10.1v10h385v-10h10v-57.9h-10z"/><path class="st15" d="M1189.4 540h-385v10.1h-10.1V608h10.1v10h385v-10h10v-57.9h-10z"/><path class="st4" d="M907 590.9h-6.9v-27.6h17.3v3.5h3.5v10.4h-3.5v3.5H907v10.2zm0-17.3h6.9v-3.5H907v3.5zm20.7 13.9h-3.5v-24.2h6.9V584H945v6.9h-17.3v-3.4zm27.7 3.4h-6.9v-24.2h3.5v-3.5h13.8v3.5h3.5v24.2h-6.9v-10.4h-6.9v10.4zm6.9-17.3v-3.5h-6.9v3.5h6.9zm10.3-10.3h6.9v10.4h6.9v-10.4h6.9v13.8h-3.5v3.5h-3.5V591h-6.9v-10.4h-3.5v-3.5h-3.5v-13.8zm27.7 24.2h-3.5v-20.7h3.5v-3.5h17.3v6.9h-13.8v3.5h6.9v6.9h-6.9v3.5h13.8v6.9h-17.3v-3.5zm31.1-7h-3.5v10.4h-6.9v-27.6h17.3v3.5h3.5v10.4h-3.5v3.5h3.5v10.4h-6.9V584h-3.5v-3.5zm-3.5-6.9h6.9v-3.5h-6.9v3.5zm41.5-10.3h17.3v3.5h3.5v10.4h-3.5v3.5h-10.4v3.5h13.8v6.9h-20.7v-13.8h3.5v-3.5h10.4v-3.5h-13.8v-7zM815.3 544h45.1v5.7h-45.1zm51.3 0h5.7v5.7h-5.7zm-505.8 1h45.1v5.7h-45.1zm51.3 0h5.7v5.7h-5.7z"/><path class="st16" d="M749.9 385l6.4 5.6-5.6 6.4 20.5 17.4v37.9l20.7-26.1 31.8 29.4 5.8-6.3 5 4.6 71.6-118.7z"/><path class="st17" d="M747.5 377.9l6.4 5.6-5.6 6.4 20.4 17.4v37.9l20.7-26.1 31.8 29.4 5.9-6.3 4.9 4.6 71.6-118.7z"/><path class="st18" d="M789.5 418.9l114.4-90.8-135.1 79V445z"/><path class="st19" d="M746.4 378.1l6.4 5.6-5.6 6.4 20.5 17.3v37.9l20.7-26.1 31.8 29.4 5.8-6.3 5 4.6 71.6-118.6z"/><path class="st20" d="M682.3 71.3V235h10.3v9.5H703v10.4h447.5v-10.4h10.4V235h10.4V71.3zm489 0v-94.1h-10.4v-9.5h-10.4v-10.5H703v10.5h-10.4v9.5h-10.3v94.1z"/><path class="st21" d="M692.6-26.2H703v-8h-10.4v7.9h-10.3v8h10.3zM703-42.9h447.5v8H703zm457.9 16.6v-7.9h-10.4v8h10.4v7.9h10.4v-8z"/><path d="M289.1-107.2h10.2V-97h-10.2zm61.5-10.2v5.1h-5.1v5.1h5.1v20.5h5.1v5.1h-5.1v5.1h10.2v-10.2h15.4v5.1h5.1v-35.8h-30.7zm25.6 25.6h-20.5v-20.5h20.5v20.5z"/><path d="M360.8-107.2H371V-97h-10.2zm-71.7 71.7h10.2v10.2h-10.2zm61.5-10.2h5.1v5.1h-5.1zM325-20.1h5.1v5.1H325zm5.1-20.5h5.1v5.1h-5.1zm0 10.3h5.1v5.1h-5.1zM376.2-56h5.1v5.1h-5.1zm-97.3 0h5.1v5.1h-5.1zm0-25.6h5.1v5.1h-5.1zm56.3-30.7v5.1H325v5.2h15.3v-10.3z"/><path d="M376.2-76.4v5.1H366v5.1h-15.4v-5.1h-5.1v5.1h-10.2v5.1h15.4v5.1h-15.3v-5.1h-5.1v5.1H325v-5.1h-5.1v5.1h-5.1v5.1H325v5.1h5.1v-5.1h10.2v5.1h-5.1v5.1h5.1v10.2h5.1v5.1h5.1v-5.1h15.4v-10.2h5.1v-5.1h-5.1V-56h-10.2v-5.1h10.2v5.1h5.1v-5.1h5.1v-5.1h5.1v-10.2h-5zm-15.4 25.6v15.4h-15.4v-15.4h15.4zm-15.4-35.9h-5.1v5.1h-5.1v10.3h5.1v-5.1h5.1v-5.2h5.2v-5.1zm-10.2 66.6h10.2v5.1h-10.2zm-15.4-92.2h5.1v5.1h-5.1z"/><path d="M360.8-76.4h5.1v5.1h-5.1zm5.1-5.2h5.1v5.1h-5.1zM299.4-56h5.1v5.1h-5.1zm10.2 35.9v-20.5h5.1v-10.2h-5.1v5.1h-15.4v-5.1H284v5.1h-5.1V-15h40.9v-5.1h-10.2zm-5.1 0H284v-20.5h20.5v20.5zm5.1-66.6h5.1v5.1h-5.1zm5.1-30.7h-35.8v30.7h5.1v5.1h5.1v-5.1h5.1v5.1h5.1v-5.1h10.2v-10.2h5.1v-5.1h-5.1v-10.2h10.2v-5.1h-5zm-10.2 25.6H284v-20.5h20.5v20.5zm35.8-10.2h5.1v5.1h-5.1zm-10.2-15.4h5.1v5.1h-5.1z"/><path d="M340.3-86.7v-5.1h-5.1v-5.1h-5.1v5.1h-10.2v-5.1h-5.1v10.2h5.1v10.2h-15.4v-5.1h-5.1v5.1H284v5.1h10.2v5.1h-15.4v5.1h15.4v5.1h5.1v-5.1h5.1v5.1h5.1v-5.1h10.2v-5.1h-5.1v-5.1h10.2v5.1H335v-5.1h-5.1v-5.1H325v-10.2h15.3zm-30.7 20.5h-10.2v-5.1h10.2v5.1zM325-35.5v-10.2h-5.2v5.1h-5.1v5.1h5.1v5.2h-5.1v5.1H325v-5.1h5.1v-5.2zm46 10.3v-5.1h-5.1v5.1h-15.3v5.1h10.2v5.1h5.1v-5.1h10.3v5.1h5.1v-10.2zm5.2-20.5v5.1H371v5.1h10.3v-10.2z"/><path class="st9" d="M50.8 298.7H-90.1v3.7h-3.7v21.2h3.7v3.7H50.8v-3.7h3.6v-21.2h-3.6z"/><path class="st12" d="M50.8 298.7H-90.1v3.7h-3.7v21.2h3.7v3.7H50.8v-3.7h3.6v-21.2h-3.6z"/><path class="st4" d="M-61.9 313.6h-1.3v3.8h-2.5v-10.1h6.3v1.3h1.3v3.8h-1.3v1.3h1.3v3.8h-2.5V315h-1.3v-1.4zm-1.2-2.6h2.5v-1.3h-2.5v1.3zm7.6 5.1h-1.3v-7.6h1.3v-1.3h6.3v2.5h-5.1v1.3h2.5v2.5h-2.5v1.3h5.1v2.5h-6.3v-1.2zm8.8 0H-48v-7.6h1.3v-1.3h5.1v1.3h1.3v2.5h-2.5v-1.3h-2.5v5.1h2.5v-1.3h2.5v2.5h-1.3v1.3h-5.1v-1.2zm10.1 1.3h-2.5v-8.9h1.3v-1.3h5.1v1.3h1.3v8.9H-34v-3.8h-2.5v3.8zm2.6-6.4v-1.3h-2.5v1.3h2.5zm5 5.1h-1.3v-8.9h2.5v7.6h5.1v2.5H-29v-1.2zm7.6-8.9h2.5v10.1h-2.5v-10.1zm3.8 0h6.3v1.3h1.3v7.6h-1.3v1.3h-6.3v-10.2zm2.5 3.8h2.5v-1.3h-2.5v1.3zm0 3.8h2.5v-1.3h-2.5v1.3zm10.1-1.2h-1.3v3.8h-2.5v-8.9h1.3v-1.3h5.1v1.3h1.3v3.8h-1.3v1.3h1.3v3.8h-2.5v-2.5H-5v-1.3zm-1.2-2.6h2.5v-1.3h-2.5v1.3zm8.8 6.4H.1v-8.9h1.3v-1.3h5.1v1.3h1.3v8.9H5.2v-3.8H2.6v3.8zm2.6-6.4v-1.3H2.6v1.3h2.6zm3.7-3.8h7.6v2.5H14v7.6h-2.5v-7.6H8.9v-2.5zm10.2 8.9h-1.3v-7.6h1.3v-1.3h6.3v2.5h-5.1v1.3h2.5v2.5h-2.5v1.3h5.1v2.5h-6.3v-1.2zm-106.8-15.2h13.1v1.7h-13.1zm14.9 0h1.7v1.7h-1.7z"/><path class="st9" d="M50.8 340.7H-90.1v3.7h-3.7v21.2h3.7v3.7H50.8v-3.7h3.6v-21.2h-3.6z"/><path class="st10" d="M50.8 337.1H-90.1v3.7h-3.7v21.1h3.7v3.7H50.8v-3.7h3.6v-21.1h-3.6z"/><path class="st4" d="M-61.9 351.9h-1.3v3.8h-2.5v-10.1h6.3v1.3h1.3v3.8h-1.3v1.3h1.3v3.8h-2.5v-2.5h-1.3v-1.4zm-1.2-2.5h2.5v-1.3h-2.5v1.3zm7.6 5h-1.3v-7.6h1.3v-1.3h6.3v2.5h-5.1v1.3h2.5v2.5h-2.5v1.3h5.1v2.5h-6.3v-1.2zm8.8 0H-48v-7.6h1.3v-1.3h5.1v1.3h1.3v2.5h-2.5V348h-2.5v5.1h2.5v-1.3h2.5v2.5h-1.3v1.3h-5.1v-1.2zm10.1 1.3h-2.5v-8.9h1.3v-1.3h5.1v1.3h1.3v8.9H-34v-3.8h-2.5v3.8zm2.6-6.3v-1.3h-2.5v1.3h2.5zm5 5h-1.3v-8.9h2.5v7.6h5.1v2.5H-29v-1.2zm7.6-8.8h2.5v10.1h-2.5v-10.1zm3.8 0h6.3v1.3h1.3v7.6h-1.3v1.3h-6.3v-10.2zm2.5 3.8h2.5v-1.3h-2.5v1.3zm0 3.8h2.5v-1.3h-2.5v1.3zm10.1-1.3h-1.3v3.8h-2.5v-8.9h1.3v-1.3h5.1v1.3h1.3v3.8h-1.3v1.3h1.3v3.8h-2.5v-2.5H-5v-1.3zm-1.2-2.5h2.5v-1.3h-2.5v1.3zm8.8 6.3H.1v-8.9h1.3v-1.3h5.1v1.3h1.3v8.9H5.2v-3.8H2.6v3.8zm2.6-6.3v-1.3H2.6v1.3h2.6zm3.7-3.8h7.6v2.5H14v7.6h-2.5v-7.6H8.9v-2.5zm10.2 8.8h-1.3v-7.6h1.3v-1.3h6.3v2.5h-5.1v1.3h2.5v2.5h-2.5v1.3h5.1v2.5h-6.3v-1.2zm-106.8-14.5h13.1v1.7h-13.1zm14.9 0h1.7v1.7h-1.7zM332.1 71.6h23.6v3h-23.6zm26.8 0h3v3h-3zM11.7 10.1h23.6v3H11.7zm26.8 0h3v3h-3z"/><path class="st22" d="M-18.4 133.6v-7.5H-37v7.5h-7.5v18.7h7.5v7.4h18.6v-7.4h7.5v-18.7z"/><path class="st23" d="M-36.4 159.7v10m17.4-10v10"/><path class="st24" d="M-19.9 167.8h-15.5v2.2h-2.2v15.5h2.2v2.2h15.5v-2.2h2.2V170h-2.2z"/><path class="st25" d="M48.7 572.9v-8H-93v8h-7.9v45.5h7.9v8H48.7v-8h8v-45.5z"/><path class="st25" d="M48.7 573v-7.9H-93v7.9h-7.9v45.5h7.9v8H48.7v-8h8V573z"/><path class="st4" d="M-54.8 606.4h-5.4v-21.8h13.6v2.7h2.7v8.2h-2.7v2.7h-8.2v8.2zm0-13.6h5.4v-2.7h-5.4v2.7zm16.4 10.9h-2.7v-19h5.4V601h10.9v5.4h-13.6v-2.7zm21.7 2.7h-5.4v-19h2.7v-2.7h10.9v2.7h2.7v19h-5.4v-8.2h-5.4v8.2zm5.5-13.6v-2.7h-5.4v2.7h5.4zm8.1-8.2h5.4v8.2h5.4v-8.2h5.4v10.9h-2.7v2.7H7.8v8.2H2.4v-8.2H-.3v-2.7H-3v-10.9z"/><path class="st25" d="M218.7 572.9v-8H77v8h-7.9v45.5H77v8h141.7v-8h8v-45.5z"/><path class="st22" d="M218.7 565v-7.9H77v7.9h-7.9v45.5H77v8h141.7v-8h8V565z"/><path class="st4" d="M115.2 598.4h-5.4v-21.8h13.6v2.7h2.7v8.2h-2.7v2.7h-8.2v8.2zm0-13.6h5.4v-2.7h-5.4v2.7zm16.4 10.9h-2.7v-19h5.4V593h10.9v5.4h-13.6v-2.7zm21.7 2.7h-5.4v-19h2.7v-2.7h10.9v2.7h2.7v19h-5.4v-8.2h-5.4v8.2zm5.5-13.6v-2.7h-5.4v2.7h5.4zm8.1-8.2h5.4v8.2h5.4v-8.2h5.4v10.9h-2.7v2.7h-2.7v8.2h-5.4v-8.2h-2.7v-2.7h-2.7v-10.9z"/><path class="st26" d="M-774.8 327.3h43.2v108h43.2v-108h43.2v129.6h-21.6v21.6h-21.6v21.6h-43.2v-21.6h-21.6v-21.6h-21.6V327.3z"/><path class="st27" d="M-623.6 350.9h21.6v-21.6h108v43.2h-86.4v21.6h64.8v21.6h21.6v64.8h-21.6v21.6h-108v-43.2h86.4v-21.6H-602v-21.6h-21.6v-64.8z"/><path class="st28" d="M-774.8 306.2h43.2v108h43.2v-108h43.2v129.6h-21.6v21.6h-21.6V479h-43.2v-21.6h-21.6v-21.6h-21.6V306.2z"/><path class="st29" d="M-623.6 327.8h21.6v-21.6h108v43.2h-86.4V371h64.8v21.6h21.6v64.8h-21.6V479h-108v-43.2h86.4v-21.6H-602v-21.6h-21.6v-64.8z"/><path class="st0" d="M-725.5 684.8h27.5v68.7h27.5v-68.7h27.5v82.4h-13.7V781h-13.7v13.7H-698V781h-13.7v-13.7h-13.7v-82.5zm96.2 15.1h13.7v-13.7h68.7v27.5h-54.9v13.7h41.2v13.7h13.7v41.2h-13.7V796h-68.7v-27.5h54.9v-13.7h-41.2v-13.7h-13.7v-41.2z"/><path class="st7" d="M-725.5 670.3h27.5V739h27.5v-68.7h27.5v82.4h-13.7v13.7h-13.7v13.7H-698v-13.7h-13.7v-13.7h-13.7v-82.4zm96.2 15.1h13.7v-13.7h68.7v27.5h-54.9v13.7h41.2v13.7h13.7v41.2h-13.7v13.7h-68.7V754h54.9v-13.7h-41.2v-13.7h-13.7v-41.2z"/><path class="st4" d="M-725.5 656.9h27.5v68.7h27.5v-68.7h27.5v82.4h-13.7V753h-13.7v13.7H-698V753h-13.7v-13.7h-13.7v-82.4zm96.2 13.8h13.7V657h68.7v27.5h-54.9v13.7h41.2v13.7h13.7v41.2h-13.7v13.7h-68.7v-27.5h54.9v-13.7h-41.2v-13.7h-13.7v-41.2z"/></svg>