<svg xmlns="http://www.w3.org/2000/svg" width="266.2" height="57.8" viewBox="0 0 266.2 57.8"><style>.st0{fill:#1b8e6f}.st1{fill:#3cea8a}.st2{fill:#fff}</style><path class="st0" d="M259.6 6.5H6.6v6.6H0v38.1h6.6v6.6h253v-6.6h6.6V13.1h-6.6z"/><path class="st1" d="M259.6 0H6.6v6.6H0v38h6.6v6.6h253v-6.6h6.6v-38h-6.6z"/><path class="st2" d="M66.4 17.5h2.3v-2.3h11.4v4.5H71v9.1h9.1v4.5H68.7V31h-2.3V17.5zm20.5 15.9h-4.5V17.5h2.3v-2.3h9.1v2.3h2.3v15.9h-4.5v-6.8h-4.5v6.8h-.2zM91.4 22v-2.3h-4.5V22h4.5zm9.1 9.1h-2.3V15.2h4.5v13.6h9.1v4.5h-11.4v-2.2h.1zm13.6-15.9h4.5v18.2h-4.5V15.2zm6.8 0h11.4v2.3h2.3v13.6h-2.3v2.3h-11.4V15.2zm4.6 6.8h4.5v-2.3h-4.5V22zm0 6.8h4.5v-2.3h-4.5v2.3zm18.2-2.2h-2.3v6.8h-4.5V17.5h2.3v-2.3h9.1v2.3h2.3v6.8h-2.3v2.3h2.3v6.8h-4.5v-4.5h-2.3l-.1-2.3zm-2.3-4.6h4.5v-2.3h-4.5V22zm15.9 11.4h-4.5V17.5h2.3v-2.3h9.1v2.3h2.3v15.9H162v-6.8h-4.5v6.8h-.2zm4.5-11.4v-2.3h-4.5V22h4.5zm6.8-6.8h13.6v4.5h-4.5v13.6h-4.5V19.7h-4.5l-.1-4.5zm18.2 15.9h-2.3V17.5h2.3v-2.3h11.4v4.5h-9.1V22h4.5v4.5h-4.5v2.3h9.1v4.5h-11.4v-2.2zM12.2 3.5h23.6v3H12.2zm26.7 0h3v3h-3z"/></svg>