<svg xmlns="http://www.w3.org/2000/svg" width="266.2" height="51.3" viewBox="0 0 266.2 51.3"><style>.st0{fill:#1b8e6f}.st1{fill:#33bc6e}.st2{fill:#fff}</style><path class="st0" d="M259.6 0H6.6v6.6H0v38.1h6.6v6.6h253v-6.6h6.6V6.6h-6.6z"/><path class="st1" d="M259.6 0H6.6v6.6H0v38.1h6.6v6.6h253v-6.6h6.6V6.6h-6.6z"/><path class="st2" d="M66.4 17.6h2.3v-2.3h11.4v4.5H71v9.1h9.1v4.5H68.7v-2.3h-2.3V17.6zm20.5 15.9h-4.5V17.6h2.3v-2.3h9.1v2.3h2.3v15.9h-4.5v-6.8h-4.5v6.8h-.2zm4.5-11.4v-2.3h-4.5v2.3h4.5zm9.1 9.1h-2.3V15.3h4.5v13.6h9.1v4.5h-11.4v-2.2h.1zm13.6-15.9h4.5v18.2h-4.5V15.3zm6.8 0h11.4v2.3h2.3v13.6h-2.3v2.3h-11.4V15.3zm4.6 6.8h4.5v-2.3h-4.5v2.3zm0 6.8h4.5v-2.3h-4.5v2.3zm18.2-2.3h-2.3v6.8h-4.5V17.5h2.3v-2.3h9.1v2.3h2.3v6.8h-2.3v2.3h2.3v6.8h-4.5v-4.5h-2.3l-.1-2.3zm-2.3-4.5h4.5v-2.3h-4.5v2.3zm15.9 11.4h-4.5V17.6h2.3v-2.3h9.1v2.3h2.3v15.9H162v-6.8h-4.5v6.8h-.2zm4.5-11.4v-2.3h-4.5v2.3h4.5zm6.8-6.8h13.6v4.5h-4.5v13.6h-4.5V19.8h-4.5l-.1-4.5zm18.2 15.9h-2.3V17.6h2.3v-2.3h11.4v4.5h-9.1v2.3h4.5v4.5h-4.5v2.3h9.1v4.5h-11.4v-2.2zM11.8 3.6h23.6v3H11.8zm26.7 0h3v3h-3z"/></svg>