<svg xmlns="http://www.w3.org/2000/svg" width="241.9" height="52.6" viewBox="0 0 241.9 52.6"><style>.st0{fill:#7149a4}.st1{fill:#bd86e0}.st2{fill:#fff}</style><path class="st0" d="M235.9 6H6v6H0v34.6h6v6h229.9v-6h6V12h-6z"/><path class="st1" d="M235.9 0H6v6H0v34.5h6v6.1h229.9v-6.1h6V6h-6z"/><path class="st2" d="M12.5 2.4h26.9v3.4H12.5zm30.6 0h3.4v3.4h-3.4zm10.2 14.3h2.2v-2.2h11.2V19h-8.9v8.9h8.9v4.5H55.6v-2.2h-2.2V16.7zm15.7 0h2.2v-2.2h8.9v2.2h2.2v13.4h-2.2v2.2h-8.9v-2.2H69V16.7zm4.5 11.2H78v-9h-4.5v9zm17.9-4.5h-2.2v8.9h-4.5V14.4h4.5v2.2h2.2v2.2h2.2v-4.5h4.5v17.9h-4.5v-6.7h-2.2v-2.1zm15.6 0h-2.2v8.9h-4.5V14.4h4.5v2.2h2.2v2.2h2.2v-4.5h4.5v17.9h-4.5v-6.7H107v-2.1zm11.2 6.7H116V16.7h2.2v-2.2h11.2V19h-8.9v2.2h4.5v4.5h-4.5v2.2h8.9v4.5h-11.2v-2.3zm13.5-13.4h2.2v-2.2h11.2V19h-8.9v8.9h8.9v4.5H134v-2.2h-2.2V16.7zm15.6-2.3h13.4v4.5h-4.4v13.4h-4.5V18.9h-4.5v-4.5zm18 15.7H163V16.7h2.2v-2.2h11.2V19h-8.9v2.2h4.5v4.5h-4.5v2.2h8.9v4.5h-11.2v-2.3zm22.4 2.2h-8.9V14.4h8.9v2.2h2.2v2.2h2.2v8.9h-2.2v2.2h-2.2v2.4zm-2.3-13.4h-2.2v8.9h2.2v-2.2h2.2v-4.4h-2.2v-2.3zm9-4.5h4.5v11.2h-4.5V14.4zm0 13.5h4.5v4.5h-4.5v-4.5z"/></svg>