<svg xmlns="http://www.w3.org/2000/svg" width="45.3" height="95.8" viewBox="0 0 45.3 95.8"><style>.st0{fill:#060606}.st1{fill:#080808}.st2{fill:#202020}.st3{fill:#101010}.st4{fill:#1b1b1b}.st5{fill:#090909}.st6{fill:#010101}</style><path d="M24.9 93.4H26v2.4h-1.1zm-1.2 0h1.1v2.4h-1.1z"/><path d="M22.6 93.4h1.1v2.4h-1.1zm-1.1 0h1.1v2.4h-1.1zm-1.1 0h1.1v2.4h-1.1zm-1.2 0h1.1v2.4h-1.1zm8-2.4h1.1v2.4h-1.1zM26 91h1.1v2.4H26zm-1.1 0H26v2.4h-1.1zm-1.2 0h1.1v2.4h-1.1z"/><path d="M22.6 91h1.1v2.4h-1.1zm-1.1 0h1.1v2.4h-1.1zm-1.1 0h1.1v2.4h-1.1zm-1.2 0h1.1v2.4h-1.1z"/><path d="M18.1 91h1.1v2.4h-1.1zM17 91h1.1v2.4H17zm12.4-2.4h1.1V91h-1.1z"/><path d="M28.3 88.6h1.1V91h-1.1zm-1.1 0h1.1V91h-1.1zm-1.2 0h1.1V91H26zm-1.1 0H26V91h-1.1zm-1.2 0h1.1V91h-1.1z"/><path d="M22.6 88.6h1.1V91h-1.1zm-1.1 0h1.1V91h-1.1zm-1.1 0h1.1V91h-1.1zm-1.2 0h1.1V91h-1.1z"/><path d="M18.1 88.6h1.1V91h-1.1zm-1.1 0h1.1V91H17zm-1.2 0h1.1V91h-1.1zm-1.1 0h1.1V91h-1.1zm18.1-2.4h1.1v2.4h-1.1zm-1.1 0h1.1v2.4h-1.1zm-1.2 0h1.1v2.4h-1.1zm-1.1 0h1.1v2.4h-1.1zm-1.1 0h1.1v2.4h-1.1zm-1.1 0h1.1v2.4h-1.1zm-1.2 0h1.1v2.4H26zm-1.1 0H26v2.4h-1.1zm-1.2 0h1.1v2.4h-1.1z"/><path d="M22.6 86.2h1.1v2.4h-1.1zm-1.1 0h1.1v2.4h-1.1zm-1.1 0h1.1v2.4h-1.1zm-1.2 0h1.1v2.4h-1.1z"/><path d="M18.1 86.2h1.1v2.4h-1.1zm-1.1 0h1.1v2.4H17zm-1.2 0h1.1v2.4h-1.1zm-1.1 0h1.1v2.4h-1.1zm-1.2 0h1.1v2.4h-1.1zm-1.1 0h1.1v2.4h-1.1z"/><path class="st0" d="M11.3 86.2h1.1v2.4h-1.1z"/><path d="M35.1 83.8h1.1v2.4h-1.1zm-1.2 0H35v2.4h-1.1zm-1.1 0h1.1v2.4h-1.1zm-1.1 0h1.1v2.4h-1.1zm-1.2 0h1.1v2.4h-1.1zm-1.1 0h1.1v2.4h-1.1z"/><path d="M28.3 83.8h1.1v2.4h-1.1zm-1.1 0h1.1v2.4h-1.1zm-1.2 0h1.1v2.4H26zm-1.1 0H26v2.4h-1.1zm-1.2 0h1.1v2.4h-1.1z"/><path d="M22.6 83.8h1.1v2.4h-1.1zm-1.1 0h1.1v2.4h-1.1zm-1.1 0h1.1v2.4h-1.1zm-1.2 0h1.1v2.4h-1.1z"/><path d="M18.1 83.8h1.1v2.4h-1.1zm-1.1 0h1.1v2.4H17zm-1.2 0h1.1v2.4h-1.1zm-1.1 0h1.1v2.4h-1.1zm-1.2 0h1.1v2.4h-1.1zm-1.1 0h1.1v2.4h-1.1zm-1.1 0h1.1v2.4h-1.1zm-1.1 0h1.1v2.4h-1.1z"/><path class="st0" d="M9.1 83.8h1.1v2.4H9.1z"/><path d="M37.3 81.4h1.1v2.4h-1.1z"/><path d="M36.2 81.4h1.1v2.4h-1.1zm-1.1 0h1.1v2.4h-1.1zm-1.2 0H35v2.4h-1.1zm-1.1 0h1.1v2.4h-1.1zm-1.1 0h1.1v2.4h-1.1zm-1.2 0h1.1v2.4h-1.1zm-1.1 0h1.1v2.4h-1.1z"/><path d="M28.3 81.4h1.1v2.4h-1.1zm-1.1 0h1.1v2.4h-1.1zm-1.2 0h1.1v2.4H26zm-1.1 0H26v2.4h-1.1zm-1.2 0h1.1v2.4h-1.1z"/><path d="M22.6 81.4h1.1v2.4h-1.1zm-1.1 0h1.1v2.4h-1.1zm-1.1 0h1.1v2.4h-1.1zm-1.2 0h1.1v2.4h-1.1z"/><path d="M18.1 81.4h1.1v2.4h-1.1zm-1.1 0h1.1v2.4H17zm-1.2 0h1.1v2.4h-1.1zm-1.1 0h1.1v2.4h-1.1zm-1.2 0h1.1v2.4h-1.1zm-1.1 0h1.1v2.4h-1.1zm-1.1 0h1.1v2.4h-1.1zm-1.1 0h1.1v2.4h-1.1zm-1.1 0h1.1v2.4H9.1zm-1.2 0H9v2.4H7.9zm-1.1 0h1.1v2.4H6.8zM39.6 79h1.1v2.4h-1.1zm-1.2 0h1.1v2.4h-1.1zm-1.1 0h1.1v2.4h-1.1z"/><path d="M36.2 79h1.1v2.4h-1.1zm-1.1 0h1.1v2.4h-1.1zm-1.2 0H35v2.4h-1.1zm-1.1 0h1.1v2.4h-1.1zm-1.1 0h1.1v2.4h-1.1zm-1.2 0h1.1v2.4h-1.1zm-1.1 0h1.1v2.4h-1.1z"/><path d="M28.3 79h1.1v2.4h-1.1zm-1.1 0h1.1v2.4h-1.1zM26 79h1.1v2.4H26zm-1.1 0H26v2.4h-1.1zm-1.2 0h1.1v2.4h-1.1z"/><path d="M22.6 79h1.1v2.4h-1.1zm-1.1 0h1.1v2.4h-1.1zm-1.1 0h1.1v2.4h-1.1zm-1.2 0h1.1v2.4h-1.1z"/><path d="M18.1 79h1.1v2.4h-1.1zM17 79h1.1v2.4H17zm-1.2 0h1.1v2.4h-1.1zm-1.1 0h1.1v2.4h-1.1zm-1.2 0h1.1v2.4h-1.1zm-1.1 0h1.1v2.4h-1.1zm-1.1 0h1.1v2.4h-1.1zm-1.1 0h1.1v2.4h-1.1zm-1.1 0h1.1v2.4H9.1zm-1.2 0H9v2.4H7.9zm-1.1 0h1.1v2.4H6.8zm-1.2 0h1.1v2.4H5.6zm-1.1 0h1.1v2.4H4.5zm37.3-2.4h1.1V79h-1.1z"/><path d="M40.7 76.6h1.1V79h-1.1zm-1.1 0h1.1V79h-1.1zm-1.2 0h1.1V79h-1.1zm-1.1 0h1.1V79h-1.1z"/><path d="M36.2 76.6h1.1V79h-1.1zm-1.1 0h1.1V79h-1.1zm-1.2 0H35V79h-1.1zm-1.1 0h1.1V79h-1.1zm-1.1 0h1.1V79h-1.1zm-1.2 0h1.1V79h-1.1zm-1.1 0h1.1V79h-1.1z"/><path d="M28.3 76.6h1.1V79h-1.1zm-1.1 0h1.1V79h-1.1zm-1.2 0h1.1V79H26zm-1.1 0H26V79h-1.1zm-1.2 0h1.1V79h-1.1z"/><path class="st1" d="M22.6 76.6h1.1V79h-1.1z"/><path d="M21.5 76.6h1.1V79h-1.1zm-1.1 0h1.1V79h-1.1zm-1.2 0h1.1V79h-1.1z"/><path d="M18.1 76.6h1.1V79h-1.1zm-1.1 0h1.1V79H17zm-1.2 0h1.1V79h-1.1zm-1.1 0h1.1V79h-1.1zm-1.2 0h1.1V79h-1.1zm-1.1 0h1.1V79h-1.1zm-1.1 0h1.1V79h-1.1zm-1.1 0h1.1V79h-1.1zm-1.1 0h1.1V79H9.1zm-1.2 0H9V79H7.9zm-1.1 0h1.1V79H6.8zm-1.2 0h1.1V79H5.6zm-1.1 0h1.1V79H4.5zm-1.1 0h1.1V79H3.4zm-1.1 0h1.1V79H2.3zM43 74.2h1.1v2.4H43zm-1.2 0h1.1v2.4h-1.1z"/><path d="M40.7 74.2h1.1v2.4h-1.1zm-1.1 0h1.1v2.4h-1.1zm-1.2 0h1.1v2.4h-1.1zm-1.1 0h1.1v2.4h-1.1z"/><path d="M36.2 74.2h1.1v2.4h-1.1zm-1.1 0h1.1v2.4h-1.1zm-1.2 0H35v2.4h-1.1zm-1.1 0h1.1v2.4h-1.1zm-1.1 0h1.1v2.4h-1.1zm-1.2 0h1.1v2.4h-1.1zm-1.1 0h1.1v2.4h-1.1z"/><path d="M28.3 74.2h1.1v2.4h-1.1zm-1.1 0h1.1v2.4h-1.1zm-1.2 0h1.1v2.4H26zm-7.9 0h1.1v2.4h-1.1zm-1.1 0h1.1v2.4H17zm-1.2 0h1.1v2.4h-1.1zm-1.1 0h1.1v2.4h-1.1zm-1.2 0h1.1v2.4h-1.1zm-1.1 0h1.1v2.4h-1.1zm-1.1 0h1.1v2.4h-1.1zm-1.1 0h1.1v2.4h-1.1zm-1.1 0h1.1v2.4H9.1zm-1.2 0H9v2.4H7.9zm-1.1 0h1.1v2.4H6.8zm-1.2 0h1.1v2.4H5.6zm-1.1 0h1.1v2.4H4.5zm-1.1 0h1.1v2.4H3.4zm-1.1 0h1.1v2.4H2.3zm-1.2 0h1.1v2.4H1.1zm43-2.4h1.1v2.4h-1.1zm-1.1 0h1.1v2.4H43zm-1.2 0h1.1v2.4h-1.1z"/><path d="M40.7 71.8h1.1v2.4h-1.1zm-1.1 0h1.1v2.4h-1.1zm-1.2 0h1.1v2.4h-1.1zm-1.1 0h1.1v2.4h-1.1z"/><path d="M36.2 71.8h1.1v2.4h-1.1zm-1.1 0h1.1v2.4h-1.1zm-1.2 0H35v2.4h-1.1zm-1.1 0h1.1v2.4h-1.1zm-1.1 0h1.1v2.4h-1.1zm-1.2 0h1.1v2.4h-1.1zm-1.1 0h1.1v2.4h-1.1z"/><path d="M28.3 71.8h1.1v2.4h-1.1zm-12.5 0h1.1v2.4h-1.1zm-1.1 0h1.1v2.4h-1.1zm-1.2 0h1.1v2.4h-1.1zm-1.1 0h1.1v2.4h-1.1zm-1.1 0h1.1v2.4h-1.1zm-1.1 0h1.1v2.4h-1.1zm-1.1 0h1.1v2.4H9.1zm-1.2 0H9v2.4H7.9zm-1.1 0h1.1v2.4H6.8zm-1.2 0h1.1v2.4H5.6zm-1.1 0h1.1v2.4H4.5zm-1.1 0h1.1v2.4H3.4zm-1.1 0h1.1v2.4H2.3zm-1.2 0h1.1v2.4H1.1zm-1.1 0h1.1v2.4H0zm44.1-2.4h1.1v2.4h-1.1zm-1.1 0h1.1v2.4H43zm-1.2 0h1.1v2.4h-1.1z"/><path d="M40.7 69.4h1.1v2.4h-1.1zm-1.1 0h1.1v2.4h-1.1zm-1.2 0h1.1v2.4h-1.1zm-1.1 0h1.1v2.4h-1.1z"/><path d="M36.2 69.4h1.1v2.4h-1.1zm-1.1 0h1.1v2.4h-1.1zm-1.2 0H35v2.4h-1.1zm-1.1 0h1.1v2.4h-1.1zm-1.1 0h1.1v2.4h-1.1zm-1.2 0h1.1v2.4h-1.1z"/><path class="st2" d="M29.4 69.4h1.1v2.4h-1.1z"/><path d="M14.7 69.4h1.1v2.4h-1.1zm-1.2 0h1.1v2.4h-1.1zm-1.1 0h1.1v2.4h-1.1zm-1.1 0h1.1v2.4h-1.1zm-1.1 0h1.1v2.4h-1.1zm-1.1 0h1.1v2.4H9.1zm-1.2 0H9v2.4H7.9zm-1.1 0h1.1v2.4H6.8zm-1.2 0h1.1v2.4H5.6zm-1.1 0h1.1v2.4H4.5zm-1.1 0h1.1v2.4H3.4zm-1.1 0h1.1v2.4H2.3zm-1.2 0h1.1v2.4H1.1zm-1.1 0h1.1v2.4H0zM44.1 67h1.1v2.4h-1.1zM43 67h1.1v2.4H43zm-1.2 0h1.1v2.4h-1.1z"/><path d="M40.7 67h1.1v2.4h-1.1zm-1.1 0h1.1v2.4h-1.1zm-1.2 0h1.1v2.4h-1.1zm-1.1 0h1.1v2.4h-1.1z"/><path d="M36.2 67h1.1v2.4h-1.1zm-1.1 0h1.1v2.4h-1.1zm-1.2 0H35v2.4h-1.1zm-1.1 0h1.1v2.4h-1.1zm-1.1 0h1.1v2.4h-1.1zm-1.2 0h1.1v2.4h-1.1z"/><path class="st2" d="M29.4 67h1.1v2.4h-1.1z"/><path d="M14.7 67h1.1v2.4h-1.1zm-1.2 0h1.1v2.4h-1.1zm-1.1 0h1.1v2.4h-1.1zm-1.1 0h1.1v2.4h-1.1zm-1.1 0h1.1v2.4h-1.1zm-1.1 0h1.1v2.4H9.1zm-1.2 0H9v2.4H7.9zm-1.1 0h1.1v2.4H6.8zm-1.2 0h1.1v2.4H5.6zm-1.1 0h1.1v2.4H4.5zm-1.1 0h1.1v2.4H3.4zm-1.1 0h1.1v2.4H2.3zm-1.2 0h1.1v2.4H1.1zM0 67h1.1v2.4H0zm44.1-2.4h1.1V67h-1.1zm-1.1 0h1.1V67H43zm-1.2 0h1.1V67h-1.1z"/><path d="M40.7 64.6h1.1V67h-1.1zm-1.1 0h1.1V67h-1.1zm-1.2 0h1.1V67h-1.1zm-1.1 0h1.1V67h-1.1z"/><path d="M36.2 64.6h1.1V67h-1.1zm-1.1 0h1.1V67h-1.1zm-1.2 0H35V67h-1.1zm-1.1 0h1.1V67h-1.1zm-1.1 0h1.1V67h-1.1zm-1.2 0h1.1V67h-1.1z"/><path class="st2" d="M29.4 64.6h1.1V67h-1.1z"/><path d="M14.7 64.6h1.1V67h-1.1zm-1.2 0h1.1V67h-1.1zm-1.1 0h1.1V67h-1.1zm-1.1 0h1.1V67h-1.1zm-1.1 0h1.1V67h-1.1zm-1.1 0h1.1V67H9.1zm-1.2 0H9V67H7.9zm-1.1 0h1.1V67H6.8zm-1.2 0h1.1V67H5.6zm-1.1 0h1.1V67H4.5zm-1.1 0h1.1V67H3.4zm-1.1 0h1.1V67H2.3zm-1.2 0h1.1V67H1.1zm-1.1 0h1.1V67H0zm44.1-2.4h1.1v2.4h-1.1zm-1.1 0h1.1v2.4H43zm-1.2 0h1.1v2.4h-1.1z"/><path d="M40.7 62.2h1.1v2.4h-1.1zm-1.1 0h1.1v2.4h-1.1zm-1.2 0h1.1v2.4h-1.1zm-1.1 0h1.1v2.4h-1.1z"/><path d="M36.2 62.2h1.1v2.4h-1.1zm-1.1 0h1.1v2.4h-1.1zm-1.2 0H35v2.4h-1.1zm-1.1 0h1.1v2.4h-1.1zm-1.1 0h1.1v2.4h-1.1zm-1.2 0h1.1v2.4h-1.1z"/><path class="st2" d="M29.4 62.2h1.1v2.4h-1.1z"/><path d="M14.7 62.2h1.1v2.4h-1.1zm-1.2 0h1.1v2.4h-1.1zm-1.1 0h1.1v2.4h-1.1zm-1.1 0h1.1v2.4h-1.1zm-1.1 0h1.1v2.4h-1.1zm-1.1 0h1.1v2.4H9.1zm-1.2 0H9v2.4H7.9zm-1.1 0h1.1v2.4H6.8zm-1.2 0h1.1v2.4H5.6zm-1.1 0h1.1v2.4H4.5zm-1.1 0h1.1v2.4H3.4zm-1.1 0h1.1v2.4H2.3zm-1.2 0h1.1v2.4H1.1zm-1.1 0h1.1v2.4H0zm44.1-2.3h1.1v2.4h-1.1zm-1.1 0h1.1v2.4H43zm-1.2 0h1.1v2.4h-1.1z"/><path d="M40.7 59.9h1.1v2.4h-1.1zm-1.1 0h1.1v2.4h-1.1zm-1.2 0h1.1v2.4h-1.1zm-1.1 0h1.1v2.4h-1.1z"/><path d="M36.2 59.9h1.1v2.4h-1.1zm-1.1 0h1.1v2.4h-1.1zm-1.2 0H35v2.4h-1.1zm-1.1 0h1.1v2.4h-1.1zm-1.1 0h1.1v2.4h-1.1zm-1.2 0h1.1v2.4h-1.1z"/><path class="st2" d="M29.4 59.9h1.1v2.4h-1.1z"/><path d="M14.7 59.9h1.1v2.4h-1.1zm-1.2 0h1.1v2.4h-1.1zm-1.1 0h1.1v2.4h-1.1zm-1.1 0h1.1v2.4h-1.1zm-1.1 0h1.1v2.4h-1.1zm-1.1 0h1.1v2.4H9.1zm-1.2 0H9v2.4H7.9zm-1.1 0h1.1v2.4H6.8zm-1.2 0h1.1v2.4H5.6zm-1.1 0h1.1v2.4H4.5zm-1.1 0h1.1v2.4H3.4zm-1.1 0h1.1v2.4H2.3zm-1.2 0h1.1v2.4H1.1zm-1.1 0h1.1v2.4H0zm44.1-2.4h1.1v2.4h-1.1zm-1.1 0h1.1v2.4H43zm-1.2 0h1.1v2.4h-1.1z"/><path d="M40.7 57.5h1.1v2.4h-1.1zm-1.1 0h1.1v2.4h-1.1zm-1.2 0h1.1v2.4h-1.1zm-1.1 0h1.1v2.4h-1.1z"/><path d="M36.2 57.5h1.1v2.4h-1.1zm-1.1 0h1.1v2.4h-1.1zm-1.2 0H35v2.4h-1.1zm-1.1 0h1.1v2.4h-1.1zm-1.1 0h1.1v2.4h-1.1zm-1.2 0h1.1v2.4h-1.1z"/><path class="st2" d="M29.4 57.5h1.1v2.4h-1.1z"/><path d="M14.7 57.5h1.1v2.4h-1.1zm-1.2 0h1.1v2.4h-1.1zm-1.1 0h1.1v2.4h-1.1zm-1.1 0h1.1v2.4h-1.1zm-1.1 0h1.1v2.4h-1.1zm-1.1 0h1.1v2.4H9.1zm-1.2 0H9v2.4H7.9zm-1.1 0h1.1v2.4H6.8zm-1.2 0h1.1v2.4H5.6zm-1.1 0h1.1v2.4H4.5zm-1.1 0h1.1v2.4H3.4zm-1.1 0h1.1v2.4H2.3zm-1.2 0h1.1v2.4H1.1zm-1.1 0h1.1v2.4H0zm44.1-2.4h1.1v2.4h-1.1zm-1.1 0h1.1v2.4H43zm-1.2 0h1.1v2.4h-1.1z"/><path d="M40.7 55.1h1.1v2.4h-1.1zm-1.1 0h1.1v2.4h-1.1zm-1.2 0h1.1v2.4h-1.1zm-1.1 0h1.1v2.4h-1.1z"/><path d="M36.2 55.1h1.1v2.4h-1.1zm-1.1 0h1.1v2.4h-1.1zm-1.2 0H35v2.4h-1.1zm-1.1 0h1.1v2.4h-1.1zm-1.1 0h1.1v2.4h-1.1zm-1.2 0h1.1v2.4h-1.1z"/><path class="st2" d="M29.4 55.1h1.1v2.4h-1.1z"/><path d="M14.7 55.1h1.1v2.4h-1.1zm-1.2 0h1.1v2.4h-1.1zm-1.1 0h1.1v2.4h-1.1zm-1.1 0h1.1v2.4h-1.1zm-1.1 0h1.1v2.4h-1.1zm-1.1 0h1.1v2.4H9.1zm-1.2 0H9v2.4H7.9zm-1.1 0h1.1v2.4H6.8zm-1.2 0h1.1v2.4H5.6zm-1.1 0h1.1v2.4H4.5zm-1.1 0h1.1v2.4H3.4zm-1.1 0h1.1v2.4H2.3zm-1.2 0h1.1v2.4H1.1zm-1.1 0h1.1v2.4H0zm44.1-2.4h1.1v2.4h-1.1zm-1.1 0h1.1v2.4H43zm-1.2 0h1.1v2.4h-1.1z"/><path d="M40.7 52.7h1.1v2.4h-1.1zm-1.1 0h1.1v2.4h-1.1zm-1.2 0h1.1v2.4h-1.1zm-1.1 0h1.1v2.4h-1.1z"/><path d="M36.2 52.7h1.1v2.4h-1.1zm-1.1 0h1.1v2.4h-1.1zm-1.2 0H35v2.4h-1.1zm-1.1 0h1.1v2.4h-1.1zm-1.1 0h1.1v2.4h-1.1zm-1.2 0h1.1v2.4h-1.1z"/><path class="st2" d="M29.4 52.7h1.1v2.4h-1.1z"/><path d="M14.7 52.7h1.1v2.4h-1.1zm-1.2 0h1.1v2.4h-1.1zm-1.1 0h1.1v2.4h-1.1zm-1.1 0h1.1v2.4h-1.1zm-1.1 0h1.1v2.4h-1.1zm-1.1 0h1.1v2.4H9.1zm-1.2 0H9v2.4H7.9zm-1.1 0h1.1v2.4H6.8zm-1.2 0h1.1v2.4H5.6zm-1.1 0h1.1v2.4H4.5zm-1.1 0h1.1v2.4H3.4zm-1.1 0h1.1v2.4H2.3zm-1.2 0h1.1v2.4H1.1zm-1.1 0h1.1v2.4H0zm44.1-2.4h1.1v2.4h-1.1zm-1.1 0h1.1v2.4H43zm-1.2 0h1.1v2.4h-1.1z"/><path d="M40.7 50.3h1.1v2.4h-1.1zm-1.1 0h1.1v2.4h-1.1zm-1.2 0h1.1v2.4h-1.1zm-1.1 0h1.1v2.4h-1.1z"/><path d="M36.2 50.3h1.1v2.4h-1.1zm-1.1 0h1.1v2.4h-1.1zm-1.2 0H35v2.4h-1.1zm-1.1 0h1.1v2.4h-1.1zm-1.1 0h1.1v2.4h-1.1zm-1.2 0h1.1v2.4h-1.1z"/><path class="st2" d="M29.4 50.3h1.1v2.4h-1.1z"/><path d="M14.7 50.3h1.1v2.4h-1.1zm-1.2 0h1.1v2.4h-1.1zm-1.1 0h1.1v2.4h-1.1zm-1.1 0h1.1v2.4h-1.1zm-1.1 0h1.1v2.4h-1.1zm-1.1 0h1.1v2.4H9.1zm-1.2 0H9v2.4H7.9zm-1.1 0h1.1v2.4H6.8zm-1.2 0h1.1v2.4H5.6zm-1.1 0h1.1v2.4H4.5zm-1.1 0h1.1v2.4H3.4zm-1.1 0h1.1v2.4H2.3zm-1.2 0h1.1v2.4H1.1zm-1.1 0h1.1v2.4H0zm44.1-2.4h1.1v2.4h-1.1zm-1.1 0h1.1v2.4H43zm-1.2 0h1.1v2.4h-1.1z"/><path d="M40.7 47.9h1.1v2.4h-1.1zm-1.1 0h1.1v2.4h-1.1zm-1.2 0h1.1v2.4h-1.1zm-1.1 0h1.1v2.4h-1.1z"/><path d="M36.2 47.9h1.1v2.4h-1.1zm-1.1 0h1.1v2.4h-1.1zm-1.2 0H35v2.4h-1.1zm-1.1 0h1.1v2.4h-1.1zm-1.1 0h1.1v2.4h-1.1zm-1.2 0h1.1v2.4h-1.1z"/><path class="st3" d="M29.4 47.9h1.1v2.4h-1.1z"/><path d="M14.7 47.9h1.1v2.4h-1.1zm-1.2 0h1.1v2.4h-1.1zm-1.1 0h1.1v2.4h-1.1zm-1.1 0h1.1v2.4h-1.1zm-1.1 0h1.1v2.4h-1.1zm-1.1 0h1.1v2.4H9.1zm-1.2 0H9v2.4H7.9zm-1.1 0h1.1v2.4H6.8zm-1.2 0h1.1v2.4H5.6zm-1.1 0h1.1v2.4H4.5zm-1.1 0h1.1v2.4H3.4zm-1.1 0h1.1v2.4H2.3zm-1.2 0h1.1v2.4H1.1zm-1.1 0h1.1v2.4H0zm44.1-2.4h1.1v2.4h-1.1zm-1.1 0h1.1v2.4H43zm-1.2 0h1.1v2.4h-1.1z"/><path d="M40.7 45.5h1.1v2.4h-1.1zm-1.1 0h1.1v2.4h-1.1zm-1.2 0h1.1v2.4h-1.1zm-1.1 0h1.1v2.4h-1.1z"/><path d="M36.2 45.5h1.1v2.4h-1.1zm-1.1 0h1.1v2.4h-1.1zm-1.2 0H35v2.4h-1.1zm-1.1 0h1.1v2.4h-1.1zm-1.1 0h1.1v2.4h-1.1zm-1.2 0h1.1v2.4h-1.1z"/><path class="st3" d="M29.4 45.5h1.1v2.4h-1.1z"/><path d="M14.7 45.5h1.1v2.4h-1.1zm-1.2 0h1.1v2.4h-1.1zm-1.1 0h1.1v2.4h-1.1zm-1.1 0h1.1v2.4h-1.1zm-1.1 0h1.1v2.4h-1.1zm-1.1 0h1.1v2.4H9.1zm-1.2 0H9v2.4H7.9zm-1.1 0h1.1v2.4H6.8zm-1.2 0h1.1v2.4H5.6zm-1.1 0h1.1v2.4H4.5zm-1.1 0h1.1v2.4H3.4zm-1.1 0h1.1v2.4H2.3zm-1.2 0h1.1v2.4H1.1zm-1.1 0h1.1v2.4H0zm44.1-2.4h1.1v2.4h-1.1zm-1.1 0h1.1v2.4H43zm-1.2 0h1.1v2.4h-1.1z"/><path d="M40.7 43.1h1.1v2.4h-1.1zm-1.1 0h1.1v2.4h-1.1zm-1.2 0h1.1v2.4h-1.1zm-1.1 0h1.1v2.4h-1.1z"/><path d="M36.2 43.1h1.1v2.4h-1.1zm-1.1 0h1.1v2.4h-1.1zm-1.2 0H35v2.4h-1.1zm-1.1 0h1.1v2.4h-1.1zm-1.1 0h1.1v2.4h-1.1zm-1.2 0h1.1v2.4h-1.1z"/><path class="st3" d="M29.4 43.1h1.1v2.4h-1.1z"/><path d="M14.7 43.1h1.1v2.4h-1.1zm-1.2 0h1.1v2.4h-1.1zm-1.1 0h1.1v2.4h-1.1zm-1.1 0h1.1v2.4h-1.1zm-1.1 0h1.1v2.4h-1.1zm-1.1 0h1.1v2.4H9.1zm-1.2 0H9v2.4H7.9zm-1.1 0h1.1v2.4H6.8zm-1.2 0h1.1v2.4H5.6zm-1.1 0h1.1v2.4H4.5zm-1.1 0h1.1v2.4H3.4zm-1.1 0h1.1v2.4H2.3zm-1.2 0h1.1v2.4H1.1zm-1.1 0h1.1v2.4H0zm44.1-2.4h1.1v2.4h-1.1zm-1.1 0h1.1v2.4H43zm-1.2 0h1.1v2.4h-1.1z"/><path d="M40.7 40.7h1.1v2.4h-1.1zm-1.1 0h1.1v2.4h-1.1zm-1.2 0h1.1v2.4h-1.1zm-1.1 0h1.1v2.4h-1.1z"/><path d="M36.2 40.7h1.1v2.4h-1.1zm-1.1 0h1.1v2.4h-1.1zm-1.2 0H35v2.4h-1.1zm-1.1 0h1.1v2.4h-1.1zm-1.1 0h1.1v2.4h-1.1zm-1.2 0h1.1v2.4h-1.1z"/><path class="st3" d="M29.4 40.7h1.1v2.4h-1.1z"/><path d="M14.7 40.7h1.1v2.4h-1.1zm-1.2 0h1.1v2.4h-1.1zm-1.1 0h1.1v2.4h-1.1zm-1.1 0h1.1v2.4h-1.1zm-1.1 0h1.1v2.4h-1.1zm-1.1 0h1.1v2.4H9.1zm-1.2 0H9v2.4H7.9zm-1.1 0h1.1v2.4H6.8zm-1.2 0h1.1v2.4H5.6zm-1.1 0h1.1v2.4H4.5zm-1.1 0h1.1v2.4H3.4zm-1.1 0h1.1v2.4H2.3zm-1.2 0h1.1v2.4H1.1zm-1.1 0h1.1v2.4H0zm44.1-2.4h1.1v2.4h-1.1zm-1.1 0h1.1v2.4H43zm-1.2 0h1.1v2.4h-1.1z"/><path d="M40.7 38.3h1.1v2.4h-1.1zm-1.1 0h1.1v2.4h-1.1zm-1.2 0h1.1v2.4h-1.1zm-1.1 0h1.1v2.4h-1.1z"/><path d="M36.2 38.3h1.1v2.4h-1.1zm-1.1 0h1.1v2.4h-1.1zm-1.2 0H35v2.4h-1.1zm-1.1 0h1.1v2.4h-1.1zm-1.1 0h1.1v2.4h-1.1zm-1.2 0h1.1v2.4h-1.1z"/><path class="st3" d="M29.4 38.3h1.1v2.4h-1.1z"/><path d="M13.5 38.3h1.1v2.4h-1.1zm-1.1 0h1.1v2.4h-1.1zm-1.1 0h1.1v2.4h-1.1zm-1.1 0h1.1v2.4h-1.1zm-1.1 0h1.1v2.4H9.1zm-1.2 0H9v2.4H7.9zm-1.1 0h1.1v2.4H6.8zm-1.2 0h1.1v2.4H5.6zm-1.1 0h1.1v2.4H4.5zm-1.1 0h1.1v2.4H3.4zm-1.1 0h1.1v2.4H2.3zm-1.2 0h1.1v2.4H1.1zm-1.1 0h1.1v2.4H0zm44.1-2.4h1.1v2.4h-1.1zm-1.1 0h1.1v2.4H43zm-1.2 0h1.1v2.4h-1.1z"/><path d="M40.7 35.9h1.1v2.4h-1.1zm-1.1 0h1.1v2.4h-1.1zm-1.2 0h1.1v2.4h-1.1zm-1.1 0h1.1v2.4h-1.1z"/><path d="M36.2 35.9h1.1v2.4h-1.1zm-1.1 0h1.1v2.4h-1.1zm-1.2 0H35v2.4h-1.1zm-1.1 0h1.1v2.4h-1.1zm-1.1 0h1.1v2.4h-1.1zm-1.2 0h1.1v2.4h-1.1z"/><path class="st3" d="M29.4 35.9h1.1v2.4h-1.1z"/><path d="M11.3 35.9h1.1v2.4h-1.1zm-1.1 0h1.1v2.4h-1.1zm-1.1 0h1.1v2.4H9.1zm-1.2 0H9v2.4H7.9zm-1.1 0h1.1v2.4H6.8zm-1.2 0h1.1v2.4H5.6zm-1.1 0h1.1v2.4H4.5zm-1.1 0h1.1v2.4H3.4zm-1.1 0h1.1v2.4H2.3zm-1.2 0h1.1v2.4H1.1zm-1.1 0h1.1v2.4H0zm44.1-2.4h1.1v2.4h-1.1zm-1.1 0h1.1v2.4H43zm-1.2 0h1.1v2.4h-1.1z"/><path d="M40.7 33.5h1.1v2.4h-1.1zm-1.1 0h1.1v2.4h-1.1zm-1.2 0h1.1v2.4h-1.1zm-1.1 0h1.1v2.4h-1.1z"/><path d="M36.2 33.5h1.1v2.4h-1.1zm-1.1 0h1.1v2.4h-1.1zm-1.2 0H35v2.4h-1.1zm-1.1 0h1.1v2.4h-1.1zm-1.1 0h1.1v2.4h-1.1zm-1.2 0h1.1v2.4h-1.1zm-1.1 0h1.1v2.4h-1.1z"/><path d="M28.3 33.5h1.1v2.4h-1.1zm-19.2 0h1.1v2.4H9.1zm-1.2 0H9v2.4H7.9zm-1.1 0h1.1v2.4H6.8zm-1.2 0h1.1v2.4H5.6zm-1.1 0h1.1v2.4H4.5zm-1.1 0h1.1v2.4H3.4zm-1.1 0h1.1v2.4H2.3zm-1.2 0h1.1v2.4H1.1zm-1.1 0h1.1v2.4H0zm44.1-2.4h1.1v2.4h-1.1zm-1.1 0h1.1v2.4H43zm-1.2 0h1.1v2.4h-1.1z"/><path d="M40.7 31.1h1.1v2.4h-1.1zm-1.1 0h1.1v2.4h-1.1zm-1.2 0h1.1v2.4h-1.1zm-1.1 0h1.1v2.4h-1.1z"/><path d="M36.2 31.1h1.1v2.4h-1.1zm-1.1 0h1.1v2.4h-1.1zm-1.2 0H35v2.4h-1.1zm-1.1 0h1.1v2.4h-1.1zm-1.1 0h1.1v2.4h-1.1zm-1.2 0h1.1v2.4h-1.1zm-1.1 0h1.1v2.4h-1.1z"/><path d="M28.3 31.1h1.1v2.4h-1.1zm-1.1 0h1.1v2.4h-1.1zm-1.2 0h1.1v2.4H26zm-19.2 0h1.1v2.4H6.8zm-1.2 0h1.1v2.4H5.6zm-1.1 0h1.1v2.4H4.5zm-1.1 0h1.1v2.4H3.4zm-1.1 0h1.1v2.4H2.3zm-1.2 0h1.1v2.4H1.1zm-1.1 0h1.1v2.4H0zm44.1-2.4h1.1v2.4h-1.1zm-1.1 0h1.1v2.4H43zm-1.2 0h1.1v2.4h-1.1z"/><path d="M40.7 28.7h1.1v2.4h-1.1zm-1.1 0h1.1v2.4h-1.1zm-1.2 0h1.1v2.4h-1.1zm-1.1 0h1.1v2.4h-1.1z"/><path d="M36.2 28.7h1.1v2.4h-1.1zm-1.1 0h1.1v2.4h-1.1zm-1.2 0H35v2.4h-1.1zm-1.1 0h1.1v2.4h-1.1zm-1.1 0h1.1v2.4h-1.1zm-1.2 0h1.1v2.4h-1.1zm-1.1 0h1.1v2.4h-1.1z"/><path d="M28.3 28.7h1.1v2.4h-1.1zm-1.1 0h1.1v2.4h-1.1zm-1.2 0h1.1v2.4H26zm-1.1 0H26v2.4h-1.1zm-1.2 0h1.1v2.4h-1.1zm-19.2 0h1.1v2.4H4.5zm-1.1 0h1.1v2.4H3.4zm-1.1 0h1.1v2.4H2.3zm-1.2 0h1.1v2.4H1.1zm-1.1 0h1.1v2.4H0zm43-2.4h1.1v2.4H43zm-1.2 0h1.1v2.4h-1.1z"/><path d="M40.7 26.3h1.1v2.4h-1.1zm-1.1 0h1.1v2.4h-1.1zm-1.2 0h1.1v2.4h-1.1zm-1.1 0h1.1v2.4h-1.1z"/><path d="M36.2 26.3h1.1v2.4h-1.1zm-1.1 0h1.1v2.4h-1.1zm-1.2 0H35v2.4h-1.1zm-1.1 0h1.1v2.4h-1.1zm-1.1 0h1.1v2.4h-1.1zm-1.2 0h1.1v2.4h-1.1zm-1.1 0h1.1v2.4h-1.1z"/><path d="M28.3 26.3h1.1v2.4h-1.1zm-1.1 0h1.1v2.4h-1.1zm-1.2 0h1.1v2.4H26zm-1.1 0H26v2.4h-1.1zm-1.2 0h1.1v2.4h-1.1z"/><path d="M22.6 26.3h1.1v2.4h-1.1zm-1.1 0h1.1v2.4h-1.1zm19.2-2.4h1.1v2.4h-1.1zm-1.1 0h1.1v2.4h-1.1zm-1.2 0h1.1v2.4h-1.1zm-1.1 0h1.1v2.4h-1.1z"/><path d="M36.2 23.9h1.1v2.4h-1.1zm-1.1 0h1.1v2.4h-1.1zm-1.2 0H35v2.4h-1.1zm-1.1 0h1.1v2.4h-1.1zm-1.1 0h1.1v2.4h-1.1zm-1.2 0h1.1v2.4h-1.1zm-1.1 0h1.1v2.4h-1.1z"/><path d="M28.3 23.9h1.1v2.4h-1.1zm-1.1 0h1.1v2.4h-1.1zm-1.2 0h1.1v2.4H26zm-1.1 0H26v2.4h-1.1zm-1.2 0h1.1v2.4h-1.1z"/><path d="M22.6 23.9h1.1v2.4h-1.1zm-1.1 0h1.1v2.4h-1.1zm-1.1 0h1.1v2.4h-1.1zm-1.2 0h1.1v2.4h-1.1z"/><path class="st4" d="M18.1 23.9h1.1v2.4h-1.1z"/><path d="M37.3 21.5h1.1v2.4h-1.1z"/><path d="M36.2 21.5h1.1v2.4h-1.1zm-1.1 0h1.1v2.4h-1.1zm-1.2 0H35v2.4h-1.1zm-1.1 0h1.1v2.4h-1.1zm-1.1 0h1.1v2.4h-1.1zm-1.2 0h1.1v2.4h-1.1zm-1.1 0h1.1v2.4h-1.1z"/><path d="M28.3 21.5h1.1v2.4h-1.1zm-1.1 0h1.1v2.4h-1.1zm-1.2 0h1.1v2.4H26zm-1.1 0H26v2.4h-1.1zm-1.2 0h1.1v2.4h-1.1z"/><path d="M22.6 21.5h1.1v2.4h-1.1zm-1.1 0h1.1v2.4h-1.1zm-1.1 0h1.1v2.4h-1.1zm-1.2 0h1.1v2.4h-1.1z"/><path d="M18.1 21.5h1.1v2.4h-1.1zm-1.1 0h1.1v2.4H17z"/><path class="st5" d="M15.8 21.5h1.1v2.4h-1.1z"/><path d="M33.9 19.1H35v2.4h-1.1zm-1.1 0h1.1v2.4h-1.1zm-1.1 0h1.1v2.4h-1.1zm-1.2 0h1.1v2.4h-1.1zm-1.1 0h1.1v2.4h-1.1z"/><path d="M28.3 19.1h1.1v2.4h-1.1zm-1.1 0h1.1v2.4h-1.1zm-1.2 0h1.1v2.4H26zm-1.1 0H26v2.4h-1.1zm-1.2 0h1.1v2.4h-1.1z"/><path d="M22.6 19.1h1.1v2.4h-1.1zm-1.1 0h1.1v2.4h-1.1zm-1.1 0h1.1v2.4h-1.1zm-1.2 0h1.1v2.4h-1.1z"/><path d="M18.1 19.1h1.1v2.4h-1.1zm-1.1 0h1.1v2.4H17zm-1.2 0h1.1v2.4h-1.1zm-1.1 0h1.1v2.4h-1.1z"/><path class="st6" d="M13.5 19.1h1.1v2.4h-1.1z"/><path d="M30.5 16.8h1.1v2.4h-1.1zm-1.1 0h1.1v2.4h-1.1z"/><path d="M28.3 16.8h1.1v2.4h-1.1zm-1.1 0h1.1v2.4h-1.1zm-1.2 0h1.1v2.4H26zm-1.1 0H26v2.4h-1.1zm-1.2 0h1.1v2.4h-1.1z"/><path d="M22.6 16.8h1.1v2.4h-1.1zm-1.1 0h1.1v2.4h-1.1zm-1.1 0h1.1v2.4h-1.1zm-1.2 0h1.1v2.4h-1.1z"/><path d="M18.1 16.8h1.1v2.4h-1.1zm-1.1 0h1.1v2.4H17zm-1.2 0h1.1v2.4h-1.1zm-1.1 0h1.1v2.4h-1.1zm-1.2 0h1.1v2.4h-1.1zm-1.1 0h1.1v2.4h-1.1zm-1.1 0h1.1v2.4h-1.1zm15.9-2.4h1.1v2.4h-1.1zm-1.2 0h1.1v2.4H26zm-1.1 0H26v2.4h-1.1zm-1.2 0h1.1v2.4h-1.1zm-1.1 0h1.1v2.4h-1.1zm-1.1 0h1.1v2.4h-1.1zm-1.1 0h1.1v2.4h-1.1zm-1.2 0h1.1v2.4h-1.1z"/><path d="M18.1 14.4h1.1v2.4h-1.1zm-1.1 0h1.1v2.4H17zm-1.2 0h1.1v2.4h-1.1zm-1.1 0h1.1v2.4h-1.1zm-1.2 0h1.1v2.4h-1.1zm-1.1 0h1.1v2.4h-1.1zm-1.1 0h1.1v2.4h-1.1zm-1.1 0h1.1v2.4h-1.1zm-1.1 0h1.1v2.4H9.1zM23.7 12h1.1v2.4h-1.1z"/><path d="M22.6 12h1.1v2.4h-1.1zm-1.1 0h1.1v2.4h-1.1zm-1.1 0h1.1v2.4h-1.1zm-1.2 0h1.1v2.4h-1.1z"/><path d="M18.1 12h1.1v2.4h-1.1zM17 12h1.1v2.4H17zm-1.2 0h1.1v2.4h-1.1zm-1.1 0h1.1v2.4h-1.1zm-1.2 0h1.1v2.4h-1.1zm-1.1 0h1.1v2.4h-1.1zm-1.1 0h1.1v2.4h-1.1zm-1.1 0h1.1v2.4h-1.1zm-1.1 0h1.1v2.4H9.1zm-1.2 0H9v2.4H7.9zm-1.1 0h1.1v2.4H6.8zm13.6-2.4h1.1V12h-1.1zm-1.2 0h1.1V12h-1.1zm-1.1 0h1.1V12h-1.1zm-1.1 0h1.1V12H17zm-1.2 0h1.1V12h-1.1zm-1.1 0h1.1V12h-1.1zm-1.2 0h1.1V12h-1.1zm-1.1 0h1.1V12h-1.1zm-1.1 0h1.1V12h-1.1zm-1.1 0h1.1V12h-1.1zm-1.1 0h1.1V12H9.1zm-1.2 0H9V12H7.9zm-1.1 0h1.1V12H6.8zm-1.2 0h1.1V12H5.6zM17 7.2h1.1v2.4H17zm-1.2 0h1.1v2.4h-1.1zm-1.1 0h1.1v2.4h-1.1zm-1.2 0h1.1v2.4h-1.1zm-1.1 0h1.1v2.4h-1.1zm-1.1 0h1.1v2.4h-1.1zm-1.1 0h1.1v2.4h-1.1zm-1.1 0h1.1v2.4H9.1zm-1.2 0H9v2.4H7.9zm-1.1 0h1.1v2.4H6.8zm-1.2 0h1.1v2.4H5.6zm7.9-2.4h1.1v2.4h-1.1zm-1.1 0h1.1v2.4h-1.1zm-1.1 0h1.1v2.4h-1.1zm-1.1 0h1.1v2.4h-1.1zm-1.1 0h1.1v2.4H9.1zm-1.2 0H9v2.4H7.9zm-1.1 0h1.1v2.4H6.8zm-1.2 0h1.1v2.4H5.6zm-1.1 0h1.1v2.4H4.5zm5.7-2.4h1.1v2.4h-1.1zm-1.1 0h1.1v2.4H9.1zm-1.2 0H9v2.4H7.9zm-1.1 0h1.1v2.4H6.8zm-1.2 0h1.1v2.4H5.6zm-1.1 0h1.1v2.4H4.5zM6.8 0h1.1v2.4H6.8zM5.6 0h1.1v2.4H5.6zM4.5 0h1.1v2.4H4.5z"/></svg>