<!-- Generator: Adobe Illustrator 19.2.1, SVG Export Plug-In  -->
<svg version="1.1"
	 xmlns="http://www.w3.org/2000/svg" xmlns:xlink="http://www.w3.org/1999/xlink" xmlns:a="http://ns.adobe.com/AdobeSVGViewerExtensions/3.0/"
	 x="0px" y="0px" width="196px" height="55.1px" viewBox="0 0 196 55.1" style="enable-background:new 0 0 196 55.1;"
	 xml:space="preserve">
<style type="text/css">
	.st0{opacity:0.38;}
	.st1{fill:#2D3D3E;}
	.st2{fill:#5B2616;}
	.st3{fill:#3F180F;}
</style>
<defs>
</defs>
<g class="st0">
	<polygon class="st1" points="56.8,49.9 56.8,5.7 5.8,5.7 5.8,11.4 0,11.4 0,44.2 5.8,44.2 5.8,49.9 	"/>
	<polygon class="st1" points="190.2,10.8 190.2,5.1 184.5,5.1 138,5.1 138,49.4 184.5,49.4 190.2,49.4 190.2,43.7 196,43.7
		196,10.8 	"/>
	<rect x="11.4" y="10.8" class="st1" width="173.2" height="44.3"/>
</g>
<g>
	<polygon class="st2" points="62.5,49.9 62.5,5.7 11.4,5.7 11.4,11.4 5.7,11.4 5.7,44.2 11.4,44.2 11.4,49.9 	"/>
	<polygon class="st2" points="56.8,44.3 56.8,0 5.8,0 5.8,5.7 0,5.7 0,38.6 5.8,38.6 5.8,44.3 	"/>
	<polygon class="st2" points="184.6,11.4 184.6,5.7 178.8,5.7 132.3,5.7 132.3,49.9 178.8,49.9 184.6,49.9 184.6,44.2 190.3,44.2
		190.3,11.4 	"/>
	<polygon class="st2" points="190.2,5.7 190.2,0 184.5,0 138,0 138,44.3 184.5,44.3 190.2,44.3 190.2,38.6 196,38.6 196,5.7 	"/>
	<rect x="62.5" y="5.7" class="st2" width="69.8" height="44.3"/>
</g>
<g>
	<polygon class="st3" points="62.5,44.3 62.5,0 11.4,0 11.4,5.7 5.7,5.7 5.7,38.6 11.4,38.6 11.4,44.3 	"/>
	<polygon class="st3" points="184.6,5.7 184.6,0 178.8,0 140.3,0 140.3,44.3 178.8,44.3 184.6,44.3 184.6,38.6 190.3,38.6
		190.3,5.7 	"/>
</g>
<rect x="53.9" class="st3" width="96" height="44.3"/>
</svg>
