<?xml version="1.0" encoding="utf-8"?>
<!-- Generator: Adobe Illustrator 22.0.1, SVG Export Plug-In . SVG Version: 6.00 Build 0)  -->
<svg version="1.1" id="Layer_1" xmlns="http://www.w3.org/2000/svg" xmlns:xlink="http://www.w3.org/1999/xlink" x="0px" y="0px"
	 width="397px" height="91.7px" viewBox="0 0 397 91.7" style="enable-background:new 0 0 397 91.7;" xml:space="preserve">
<style type="text/css">
	.st0{fill:#5895B7;}
	.st1{opacity:0.8;}
	.st2{fill:#C17620;}
	.st3{fill:#F4C24A;}
	.st4{fill:#FFFFFF;}
	.st5{fill:#2A6FBA;}
	.st6{fill:#4ABAEF;}
	.st7{fill:#95C9C8;}
	.st8{fill:#DDEFEE;}
	.st9{fill:#1B8E6F;}
	.st10{fill:#3CEA8A;}
	.st11{opacity:0.4;fill:#666666;}
	.st12{fill:#33BC6E;}
	.st13{fill:none;}
	.st14{fill:#7149A4;}
	.st15{fill:#BD86E0;}
	.st16{opacity:0.4;fill:#666666;stroke:#666666;stroke-width:4;stroke-linejoin:bevel;stroke-miterlimit:10;}
	.st17{fill:#F2F2F2;}
	.st18{fill:#E6E6E6;}
	.st19{fill:none;stroke:#000000;stroke-width:4;stroke-linejoin:bevel;stroke-miterlimit:10;}
	.st20{fill:#C6E0DE;}
	.st21{fill:#A7C6C3;}
	.st22{fill:#EE3D53;}
	.st23{fill:none;stroke:#000000;stroke-width:2;stroke-miterlimit:10;}
	.st24{fill:#A17559;}
	.st25{fill:#910E46;}
	.st26{fill:#238D6F;}
	.st27{fill:#704CA2;}
	.st28{fill:#47E88D;}
	.st29{fill:#BC88DE;}
	.st30{fill:#CCCCCC;}
	.st31{fill:#5B2616;}
	.st32{opacity:0.38;fill:#2D3D3E;}
	.st33{opacity:0.38;}
	.st34{fill:#2D3D3E;}
	.st35{fill:#3F180F;}
	.st36{fill:#1A1A1A;}
	.st37{fill:#38140C;}
</style>
<g>
	<rect x="-949.1" y="2206" class="st0" width="484" height="82"/>
	<rect x="-497.1" y="2280" class="st0" width="107" height="30"/>
	<g class="st1">
		<g>
			<polygon class="st0" points="-933.1,2226 -933.1,2308 -1029.1,2308 -1029.1,2297 -1017.1,2297 -1017.1,2285 -1005.1,2285 
				-1005.1,2273 -993.1,2273 -993.1,2261 -1005.1,2261 -1005.1,2249 -1017.1,2249 -1017.1,2237 -1029.1,2237 -1029.1,2226 			"/>
		</g>
		<polygon class="st0" points="-947.1,2284 -933.1,2307 -933.1,2284 		"/>
	</g>
	<g>
		<g>
			<polygon class="st2" points="-486.1,2218 -486.1,2300 -390.1,2300 -390.1,2289 -402.1,2289 -402.1,2277 -414.1,2277 -414.1,2265 
				-426.1,2265 -426.1,2253 -414.1,2253 -414.1,2241 -402.1,2241 -402.1,2229 -390.1,2229 -390.1,2218 			"/>
			<polygon class="st3" points="-486.1,2207 -486.1,2289 -390.1,2289 -390.1,2278 -402.1,2278 -402.1,2266 -414.1,2266 -414.1,2254 
				-426.1,2254 -426.1,2242 -414.1,2242 -414.1,2230 -402.1,2230 -402.1,2218 -390.1,2218 -390.1,2207 			"/>
		</g>
		<polygon class="st2" points="-472.1,2276 -486.1,2299 -486,2276 		"/>
		<g>
			<g>
				<polygon class="st2" points="-942.1,2218 -942.1,2300 -1038.1,2300 -1038.1,2289 -1026.1,2289 -1026.1,2277 -1014.1,2277 
					-1014.1,2265 -1002.1,2265 -1002.1,2253 -1014.1,2253 -1014.1,2241 -1026.1,2241 -1026.1,2229 -1038.1,2229 -1038.1,2218 				
					"/>
				<polygon class="st3" points="-942.1,2207 -942.1,2289 -1038.1,2289 -1038.1,2278 -1026.1,2278 -1026.1,2266 -1014.1,2266 
					-1014.1,2254 -1002.1,2254 -1002.1,2242 -1014.1,2242 -1014.1,2230 -1026.1,2230 -1026.1,2218 -1038.1,2218 -1038.1,2207 				
					"/>
			</g>
			<polygon class="st2" points="-956.1,2276 -942.1,2299 -942.1,2276 			"/>
		</g>
		<g>
			<rect x="-956.1" y="2194" class="st2" width="484" height="82"/>
			<rect x="-956.1" y="2182" class="st3" width="484" height="82"/>
		</g>
	</g>
	<g>
		<path class="st4" d="M-885.5,2241.8h-8.6v-34.6h8.6v13h8.6v-13h8.6v34.6h-8.6v-13h-8.6V2241.8z"/>
		<path class="st4" d="M-863.9,2211.6h4.3v-4.3h17.3v4.3h4.3v25.9h-4.3v4.3h-17.3v-4.3h-4.3V2211.6z M-855.2,2233.2h8.6v-17.3h-8.6
			V2233.2z"/>
		<path class="st4" d="M-825,2241.8h-8.6v-34.6h8.6v17.3h4.3v-4.3h4.3v4.3h4.3v-17.3h8.6v34.6h-8.6v-4.3h-4.3v-4.3h-4.3v4.3h-4.3
			V2241.8z"/>
		<path class="st4" d="M-768.8,2207.2h25.9v8.6h-8.6v25.9h-8.6v-25.9h-8.6V2207.2z"/>
		<path class="st4" d="M-738.6,2211.6h4.3v-4.3h17.3v4.3h4.3v25.9h-4.3v4.3h-17.3v-4.3h-4.3V2211.6z M-730,2233.2h8.6v-17.3h-8.6
			V2233.2z"/>
		<path class="st4" d="M-669.5,2241.8h-8.6v-34.6h21.6v4.3h4.3v13h-4.3v4.3h-13V2241.8z M-669.5,2220.2h8.6v-4.3h-8.6V2220.2z"/>
		<path class="st4" d="M-643.6,2237.5h-4.3v-30.2h8.6v25.9h17.3v8.6h-21.6V2237.5z"/>
		<path class="st4" d="M-609,2241.8h-8.6v-30.2h4.3v-4.3h17.3v4.3h4.3v30.2h-8.6v-13h-8.6V2241.8z M-600.4,2220.2v-4.3h-8.6v4.3
			H-600.4z"/>
		<path class="st4" d="M-587.4,2207.2h8.6v13h8.6v-13h8.6v17.3h-4.3v4.3h-4.3v13h-8.6v-13h-4.3v-4.3h-4.3V2207.2z"/>
	</g>
</g>
<polygon class="st5" points="-780.1,2475 -792.1,2475 -865.1,2475 -865.1,2487 -877.1,2487 -877.1,2572 -865.1,2572 -865.1,2584 
	-792.1,2584 -780.1,2584 -780.1,2572 -768.1,2572 -768.1,2487 -780.1,2487 "/>
<polygon class="st5" points="-780.1,2475 -792.1,2475 -865.1,2475 -865.1,2487 -877.1,2487 -877.1,2572 -865.1,2572 -865.1,2584 
	-792.1,2584 -780.1,2584 -780.1,2572 -768.1,2572 -768.1,2487 -780.1,2487 "/>
<g>
	<path class="st4" d="M-840.5,2509.2h28.4v5.7h5.7v17.1h-5.7v5.7h-17.1v-11.4h11.4v-5.7h-22.8V2509.2z M-829.1,2543.4h11.4v11.4
		h-11.4V2543.4z"/>
</g>
<polygon class="st5" points="-629.1,2475 -641.1,2475 -714.1,2475 -714.1,2487 -726.1,2487 -726.1,2572 -714.1,2572 -714.1,2584 
	-641.1,2584 -629.1,2584 -629.1,2572 -617.1,2572 -617.1,2487 -629.1,2487 "/>
<polygon class="st6" points="-629.1,2465 -641.1,2465 -714.1,2465 -714.1,2477 -726.1,2477 -726.1,2562 -714.1,2562 -714.1,2574 
	-641.1,2574 -629.1,2574 -629.1,2562 -617.1,2562 -617.1,2477 -629.1,2477 "/>
<g>
	<path class="st4" d="M-689.5,2499.2h28.4v5.7h5.7v17.1h-5.7v5.7h-17.1v-11.4h11.4v-5.7h-22.8V2499.2z M-678.1,2533.4h11.4v11.4
		h-11.4V2533.4z"/>
</g>
<g>
	<polygon class="st0" points="405.9,2319.6 394.3,2319.6 394.3,2307.9 382.8,2307.9 382.8,2295.1 -115.9,2295.1 -115.9,2307.9 
		-127.5,2307.9 -127.5,2319.6 -139.1,2319.6 -139.1,3004.3 -127.5,3004.3 -127.5,3015.9 -115.9,3015.9 -115.9,3028.7 382.8,3028.7 
		382.8,3015.9 394.3,3015.9 394.3,3004.3 405.9,3004.3 	"/>
	<polygon class="st7" points="405.9,2307.5 394.3,2307.5 394.3,2295.9 382.8,2295.9 382.8,2283.1 -115.9,2283.1 -115.9,2295.9 
		-127.5,2295.9 -127.5,2307.5 -139.1,2307.5 -139.1,2992.2 -127.5,2992.2 -127.5,3003.9 -115.9,3003.9 -115.9,3016.7 382.8,3016.7 
		382.8,3003.9 394.3,3003.9 394.3,2992.2 405.9,2992.2 	"/>
	<polygon class="st8" points="405.9,2295.5 394.3,2295.5 394.3,2283.9 382.8,2283.9 382.8,2271 -115.9,2271 -115.9,2283.9 
		-127.5,2283.9 -127.5,2295.5 -139.1,2295.5 -139.1,2980.2 -127.5,2980.2 -127.5,2991.9 -115.9,2991.9 -115.9,3004.7 382.8,3004.7 
		382.8,2991.9 394.3,2991.9 394.3,2980.2 405.9,2980.2 	"/>
</g>
<g>
	<polygon class="st0" points="-1080.1,327 -1084.1,327 -1084.1,322.9 -1088.2,322.9 -1088.2,318.3 -1264.5,318.3 -1264.5,322.9 
		-1268.5,322.9 -1268.5,327 -1272.6,327 -1272.6,568.9 -1268.5,568.9 -1268.5,573 -1264.5,573 -1264.5,577.6 -1088.2,577.6 
		-1088.2,573 -1084.1,573 -1084.1,568.9 -1080.1,568.9 	"/>
	<polygon class="st7" points="-1080.1,322.7 -1084.1,322.7 -1084.1,318.6 -1088.2,318.6 -1088.2,314.1 -1264.5,314.1 -1264.5,318.6 
		-1268.5,318.6 -1268.5,322.7 -1272.6,322.7 -1272.6,564.7 -1268.5,564.7 -1268.5,568.8 -1264.5,568.8 -1264.5,573.3 -1088.2,573.3 
		-1088.2,568.8 -1084.1,568.8 -1084.1,564.7 -1080.1,564.7 	"/>
	<polygon class="st8" points="-1080.1,318.5 -1084.1,318.5 -1084.1,314.4 -1088.2,314.4 -1088.2,309.8 -1264.5,309.8 -1264.5,314.4 
		-1268.5,314.4 -1268.5,318.5 -1272.6,318.5 -1272.6,560.4 -1268.5,560.4 -1268.5,564.5 -1264.5,564.5 -1264.5,569.1 -1088.2,569.1 
		-1088.2,564.5 -1084.1,564.5 -1084.1,560.4 -1080.1,560.4 	"/>
</g>
<g>
	<polygon class="st9" points="-643.1,1955 -653.1,1955 -1028,1955 -1028,1965.1 -1038.1,1965.1 -1038.1,2023 -1028,2023 -1028,2033 
		-653.1,2033 -643.1,2033 -643.1,2023 -633,2023 -633,1965.1 -643.1,1965.1 	"/>
	<polygon class="st10" points="-643.1,1945 -653.1,1945 -1028,1945 -1028,1955.1 -1038.1,1955.1 -1038.1,2013 -1028,2013 
		-1028,2023 -653.1,2023 -643.1,2023 -643.1,2013 -633,2013 -633,1955.1 -643.1,1955.1 	"/>
	<g>
		<path class="st4" d="M-918,1995.9h-6.9v-27.6h17.3v3.5h3.5v10.4h-3.5v3.5H-918V1995.9z M-918,1978.6h6.9v-3.5h-6.9V1978.6z"/>
		<path class="st4" d="M-897.3,1992.5h-3.5v-24.2h6.9v20.7h13.8v6.9h-17.3V1992.5z"/>
		<path class="st4" d="M-869.7,1995.9h-6.9v-24.2h3.5v-3.5h13.8v3.5h3.5v24.2h-6.9v-10.4h-6.9V1995.9z M-862.7,1978.6v-3.5h-6.9v3.5
			H-862.7z"/>
		<path class="st4" d="M-852.4,1968.3h6.9v10.4h6.9v-10.4h6.9v13.8h-3.5v3.5h-3.5v10.4h-6.9v-10.4h-3.5v-3.5h-3.5V1968.3z"/>
		<path class="st4" d="M-824.7,1992.5h-3.5v-20.7h3.5v-3.5h17.3v6.9h-13.8v3.5h6.9v6.9h-6.9v3.5h13.8v6.9h-17.3V1992.5z"/>
		<path class="st4" d="M-793.6,1985.6h-3.5v10.4h-6.9v-27.6h17.3v3.5h3.5v10.4h-3.5v3.5h3.5v10.4h-6.9v-6.9h-3.5V1985.6z
			 M-797.1,1978.6h6.9v-3.5h-6.9V1978.6z"/>
		<path class="st4" d="M-755.6,1968.3h6.9v27.6h-6.9V1968.3z"/>
	</g>
</g>
<g>
	<polygon class="st11" points="-1003.9,1834.4 -1005.9,1828.7 -1009.9,1816.7 -1027.7,1822.7 -1025.8,1828.5 -1031.5,1830.4 
		-1027.5,1842.4 -1021.7,1840.5 -1019.7,1846.2 -1007.7,1842.2 -1009.7,1836.4 	"/>
	<polygon class="st11" points="-965.1,1822.4 -967.1,1816.6 -971.1,1804.6 -988.9,1810.6 -987,1816.4 -992.7,1818.3 -988.7,1830.4 
		-982.9,1828.4 -981,1834.2 -968.9,1830.1 -970.9,1824.3 	"/>
	<rect x="-1024.7" y="1775.4" transform="matrix(0.9472 -0.3207 0.3207 0.9472 -629.5568 -232.6868)" width="7.1" height="38.6"/>
	<polygon points="-1005.5,1829.6 -1007.5,1823.9 -1011.6,1811.8 -1029.4,1817.9 -1027.4,1823.6 -1033.2,1825.6 -1029.1,1837.6 
		-1023.3,1835.7 -1021.4,1841.4 -1009.4,1837.4 -1011.3,1831.6 	"/>
	<rect x="-986.2" y="1762.4" transform="matrix(0.9472 -0.3207 0.3207 0.9472 -623.3468 -221.0371)" width="7.1" height="38.6"/>
	<polygon points="-967.1,1816.6 -969,1810.8 -973.1,1798.8 -990.9,1804.8 -988.9,1810.6 -994.7,1812.6 -990.6,1824.6 -984.9,1822.6 
		-982.9,1828.4 -970.9,1824.3 -972.8,1818.6 	"/>
	<rect x="-1034.7" y="1753.1" transform="matrix(0.9472 -0.3207 0.3207 0.9472 -618.4426 -231.1313)" width="47.7" height="17.3"/>
</g>
<g>
	<polygon class="st11" points="-937.7,1868 -936.8,1863.9 -934.9,1855.2 -947.7,1852.4 -948.6,1856.6 -952.7,1855.7 -954.6,1864.3 
		-950.5,1865.2 -951.4,1869.4 -942.8,1871.3 -941.8,1867.1 	"/>
	<polygon class="st11" points="-910.2,1874.8 -909.3,1870.7 -907.4,1862 -920.2,1859.2 -921.1,1863.3 -925.2,1862.4 -927.1,1871.1 
		-923,1872 -923.9,1876.1 -915.3,1878 -914.3,1873.9 	"/>
	<rect x="-936.1" y="1824.7" transform="matrix(0.9766 0.2149 -0.2149 0.9766 373.176 243.5713)" width="5" height="26.9"/>
	<polygon points="-936.9,1864.6 -936,1860.4 -934.1,1851.8 -946.9,1849 -947.8,1853.1 -952,1852.2 -953.9,1860.8 -949.7,1861.8 
		-950.6,1865.9 -942,1867.8 -941.1,1863.7 	"/>
	<rect x="-908.5" y="1830.7" transform="matrix(0.9766 0.2149 -0.2149 0.9766 375.1301 237.7694)" width="5" height="26.9"/>
	<polygon points="-909.3,1870.7 -908.4,1866.5 -906.5,1857.9 -919.3,1855 -920.2,1859.2 -924.3,1858.3 -926.2,1866.9 -922.1,1867.8 
		-923,1872 -914.3,1873.9 -913.4,1869.7 	"/>
	<rect x="-932.3" y="1816.1" transform="matrix(0.9766 0.2149 -0.2149 0.9766 370.1642 239.3269)" width="33.3" height="12"/>
</g>
<g>
	<polygon class="st11" points="-861.7,1806.2 -862.4,1803.2 -863.8,1796.8 -873.2,1798.9 -872.5,1802 -875.5,1802.7 -874.1,1809 
		-871.1,1808.3 -870.4,1811.4 -864,1810 -864.7,1806.9 	"/>
	<polygon class="st11" points="-841.3,1802.2 -841.9,1799.2 -843.3,1792.8 -852.7,1794.9 -852.1,1798 -855.1,1798.6 -853.7,1805 
		-850.6,1804.3 -850,1807.4 -843.6,1805.9 -844.3,1802.9 	"/>
	<rect x="-870.1" y="1775.2" transform="matrix(0.9761 -0.2173 0.2173 0.9761 -408.6133 -146.0122)" width="3.6" height="19.8"/>
	<polygon points="-862.2,1803.7 -862.9,1800.6 -864.3,1794.3 -873.7,1796.4 -873,1799.4 -876.1,1800.1 -874.7,1806.5 -871.6,1805.8 
		-871,1808.8 -864.6,1807.4 -865.3,1804.4 	"/>
	<rect x="-849.8" y="1770.6" transform="matrix(0.9761 -0.2173 0.2173 0.9761 -407.1458 -141.7075)" width="3.6" height="19.8"/>
	<polygon points="-841.9,1799.2 -842.6,1796.1 -844,1789.8 -853.4,1791.9 -852.7,1794.9 -855.8,1795.6 -854.4,1801.9 -851.3,1801.3 
		-850.6,1804.3 -844.3,1802.9 -845,1799.9 	"/>
	<rect x="-873.4" y="1764.4" transform="matrix(0.9761 -0.2173 0.2173 0.9761 -404.92 -144.8688)" width="24.4" height="8.8"/>
</g>
<g>
	<polygon class="st11" points="-841.1,1852 -838.5,1847.9 -833,1839.3 -845.7,1831.3 -848.3,1835.4 -852.4,1832.8 -857.9,1841.3 
		-853.8,1843.9 -856.4,1848.1 -847.8,1853.5 -845.2,1849.4 	"/>
	<polygon class="st11" points="-814.1,1870.1 -811.5,1866 -806,1857.4 -818.7,1849.4 -821.3,1853.5 -825.4,1850.9 -830.9,1859.4 
		-826.8,1862 -829.4,1866.2 -820.8,1871.6 -818.2,1867.5 	"/>
	<rect x="-827.8" y="1805.9" transform="matrix(0.844 0.5363 -0.5363 0.844 848.1206 726.5164)" width="5.7" height="30.9"/>
	<polygon points="-838.9,1848.6 -836.3,1844.5 -830.8,1835.9 -843.5,1827.8 -846.1,1831.9 -850.2,1829.3 -855.7,1837.9 
		-851.6,1840.5 -854.2,1844.6 -845.6,1850.1 -843,1846 	"/>
	<rect x="-800.4" y="1823.3" transform="matrix(0.844 0.5363 -0.5363 0.844 861.7451 714.5255)" width="5.7" height="30.9"/>
	<polygon points="-811.5,1866 -808.9,1861.9 -803.4,1853.3 -816.1,1845.3 -818.7,1849.4 -822.8,1846.8 -828.3,1855.3 -824.1,1857.9 
		-826.8,1862 -818.2,1867.5 -815.6,1863.4 	"/>
	<rect x="-818.3" y="1804.3" transform="matrix(0.844 0.5363 -0.5363 0.844 846.6891 711.1541)" width="38.2" height="13.8"/>
</g>
<g>
	<polygon class="st9" points="-1119.8,1411.6 -1126.4,1411.6 -1372.8,1411.6 -1372.8,1418.2 -1379.4,1418.2 -1379.4,1456.2 
		-1372.8,1456.2 -1372.8,1462.8 -1126.4,1462.8 -1119.8,1462.8 -1119.8,1456.2 -1113.2,1456.2 -1113.2,1418.2 -1119.8,1418.2 	"/>
	<polygon class="st12" points="-1119.8,1411.6 -1126.4,1411.6 -1372.8,1411.6 -1372.8,1418.2 -1379.4,1418.2 -1379.4,1456.2 
		-1372.8,1456.2 -1372.8,1462.8 -1126.4,1462.8 -1119.8,1462.8 -1119.8,1456.2 -1113.2,1456.2 -1113.2,1418.2 -1119.8,1418.2 	"/>
	<g>
		<path class="st4" d="M-1313,1429.1h2.3v-2.3h11.4v4.5h-9.1v9.1h9.1v4.5h-11.4v-2.3h-2.3V1429.1z"/>
		<path class="st4" d="M-1292.6,1445h-4.5v-15.9h2.3v-2.3h9.1v2.3h2.3v15.9h-4.5v-6.8h-4.5V1445z M-1288,1433.7v-2.3h-4.5v2.3H-1288
			z"/>
		<path class="st4" d="M-1278.9,1442.7h-2.3v-15.9h4.5v13.6h9.1v4.5h-11.4V1442.7z"/>
		<path class="st4" d="M-1265.3,1426.8h4.5v18.2h-4.5V1426.8z"/>
		<path class="st4" d="M-1258.5,1426.8h11.4v2.3h2.3v13.6h-2.3v2.3h-11.4V1426.8z M-1254,1433.7h4.5v-2.3h-4.5V1433.7z
			 M-1254,1440.5h4.5v-2.3h-4.5V1440.5z"/>
		<path class="st4" d="M-1235.8,1438.2h-2.3v6.8h-4.5v-15.9h2.3v-2.3h9.1v2.3h2.3v6.8h-2.3v2.3h2.3v6.8h-4.5v-4.5h-2.3V1438.2z
			 M-1238.1,1433.7h4.5v-2.3h-4.5V1433.7z"/>
		<path class="st4" d="M-1222.2,1445h-4.5v-15.9h2.3v-2.3h9.1v2.3h2.3v15.9h-4.5v-6.8h-4.5V1445z M-1217.6,1433.7v-2.3h-4.5v2.3
			H-1217.6z"/>
		<path class="st4" d="M-1210.8,1426.8h13.6v4.5h-4.5v13.6h-4.5v-13.6h-4.5V1426.8z"/>
		<path class="st4" d="M-1192.6,1442.7h-2.3v-13.6h2.3v-2.3h11.4v4.5h-9.1v2.3h4.5v4.5h-4.5v2.3h9.1v4.5h-11.4V1442.7z"/>
	</g>
</g>
<g>
	<polygon class="st9" points="-799.8,1479.6 -806.4,1479.6 -1052.8,1479.6 -1052.8,1486.2 -1059.4,1486.2 -1059.4,1524.2 
		-1052.8,1524.2 -1052.8,1530.8 -806.4,1530.8 -799.8,1530.8 -799.8,1524.2 -793.2,1524.2 -793.2,1486.2 -799.8,1486.2 	"/>
	<polygon class="st10" points="-799.8,1473 -806.4,1473 -1052.8,1473 -1052.8,1479.6 -1059.4,1479.6 -1059.4,1517.7 -1052.8,1517.7 
		-1052.8,1524.3 -806.4,1524.3 -799.8,1524.3 -799.8,1517.7 -793.2,1517.7 -793.2,1479.6 -799.8,1479.6 	"/>
	<g>
		<path class="st4" d="M-993,1490.5h2.3v-2.3h11.4v4.5h-9.1v9.1h9.1v4.5h-11.4v-2.3h-2.3V1490.5z"/>
		<path class="st4" d="M-972.6,1506.4h-4.5v-15.9h2.3v-2.3h9.1v2.3h2.3v15.9h-4.5v-6.8h-4.5V1506.4z M-968,1495.1v-2.3h-4.5v2.3
			H-968z"/>
		<path class="st4" d="M-958.9,1504.2h-2.3v-15.9h4.5v13.6h9.1v4.5h-11.4V1504.2z"/>
		<path class="st4" d="M-945.3,1488.3h4.5v18.2h-4.5V1488.3z"/>
		<path class="st4" d="M-938.5,1488.3h11.4v2.3h2.3v13.6h-2.3v2.3h-11.4V1488.3z M-934,1495.1h4.5v-2.3h-4.5V1495.1z M-934,1501.9
			h4.5v-2.3h-4.5V1501.9z"/>
		<path class="st4" d="M-915.8,1499.6h-2.3v6.8h-4.5v-15.9h2.3v-2.3h9.1v2.3h2.3v6.8h-2.3v2.3h2.3v6.8h-4.5v-4.5h-2.3V1499.6z
			 M-918.1,1495.1h4.5v-2.3h-4.5V1495.1z"/>
		<path class="st4" d="M-902.2,1506.4h-4.5v-15.9h2.3v-2.3h9.1v2.3h2.3v15.9h-4.5v-6.8h-4.5V1506.4z M-897.6,1495.1v-2.3h-4.5v2.3
			H-897.6z"/>
		<path class="st4" d="M-890.8,1488.3h13.6v4.5h-4.5v13.6h-4.5v-13.6h-4.5V1488.3z"/>
		<path class="st4" d="M-872.6,1504.2h-2.3v-13.6h2.3v-2.3h11.4v4.5h-9.1v2.3h4.5v4.5h-4.5v2.3h9.1v4.5h-11.4V1504.2z"/>
	</g>
</g>
<g>
	<rect x="-1057.8" y="1561.9" class="st9" width="219.8" height="28.8"/>
	<rect x="-1062.6" y="1555.4" class="st9" width="229.4" height="30.6"/>
	<polygon class="st10" points="-1062.6,1551 -1062.6,1580.3 -1057.8,1580.3 -1057.8,1586 -838.1,1586 -838.1,1580.3 -833.3,1580.3 
		-833.3,1551 	"/>
</g>
<polygon class="st9" points="-842.9,1565.9 -842.9,1560.8 -847.9,1560.8 -847.9,1560.7 -904.6,1560.7 -935.2,1560.7 -960.8,1560.7 
	-984.6,1560.7 -1048,1560.7 -1048,1560.7 -1053.1,1560.7 -1053.1,1565.8 -1058.2,1565.8 -1058.2,1573.5 -1053.1,1573.5 
	-1053.1,1578.6 -1048,1578.6 -1048,1578.7 -984.6,1578.7 -960.8,1578.7 -935.2,1578.7 -904.6,1578.7 -847.9,1578.7 -847.9,1578.6 
	-842.9,1578.6 -842.9,1573.5 -837.8,1573.5 -837.8,1565.9 "/>
<g>
	<rect x="-1066.8" y="1659.9" class="st13" width="4.7" height="0.1"/>
	<rect x="-1066.8" y="1677.8" class="st13" width="4.7" height="0.1"/>
	<polygon class="st4" points="-1045.8,1677.9 -1045.8,1672.8 -1040.7,1672.8 -1040.7,1665.1 -1045.8,1665.1 -1045.8,1660 
		-1050.8,1660 -1050.8,1659.9 -1062,1659.9 -1062,1660 -1066.8,1660 -1066.8,1677.8 -1062,1677.8 -1062,1677.9 -1050.8,1677.9 
		-1050.8,1677.9 	"/>
</g>
<g>
	<polygon class="st4" points="-1092.6,1624.4 -1092.6,1619.3 -1097.7,1619.3 -1097.7,1619.2 -1113.6,1619.2 -1113.6,1637.2 
		-1097.7,1637.2 -1097.7,1637.1 -1092.6,1637.1 -1092.6,1632 -1087.5,1632 -1087.5,1624.4 	"/>
	<polygon class="st4" points="-1106.1,1663.3 -1106.1,1658.2 -1106.1,1658.2 -1106.1,1658.1 -1110.6,1658.1 -1111.2,1658.1 
		-1115.7,1658.1 -1115.7,1658.1 -1115.7,1658.1 -1115.7,1663.2 -1120.8,1663.2 -1120.8,1670.9 -1115.7,1670.9 -1115.7,1676 
		-1115.7,1676 -1115.7,1676.1 -1111.2,1676.1 -1110.6,1676.1 -1106.1,1676.1 -1106.1,1676 -1106.1,1676 -1106.1,1670.9 
		-1101,1670.9 -1101,1663.3 	"/>
</g>
<polygon class="st4" points="-1155.9,1565.9 -1155.9,1560.8 -1155.9,1560.8 -1155.9,1560.7 -1160.4,1560.7 -1161,1560.7 
	-1165.5,1560.7 -1165.5,1560.7 -1165.5,1560.7 -1165.5,1565.8 -1170.6,1565.8 -1170.6,1573.5 -1165.5,1573.5 -1165.5,1578.6 
	-1165.5,1578.6 -1165.5,1578.7 -1161,1578.7 -1160.4,1578.7 -1155.9,1578.7 -1155.9,1578.6 -1155.9,1578.6 -1155.9,1573.5 
	-1150.8,1573.5 -1150.8,1565.9 "/>
<polygon class="st14" points="-190.1,1955 -200.1,1955 -575,1955 -575,1965.1 -585.1,1965.1 -585.1,2023 -575,2023 -575,2033 
	-200.1,2033 -190.1,2033 -190.1,2023 -180,2023 -180,1965.1 -190.1,1965.1 "/>
<polygon class="st15" points="-190.1,1945 -200.1,1945 -575,1945 -575,1955.1 -585.1,1955.1 -585.1,2013 -575,2013 -575,2023 
	-200.1,2023 -190.1,2023 -190.1,2013 -180,2013 -180,1955.1 -190.1,1955.1 "/>
<g>
	<path class="st4" d="M-472.4,1995.9h-6.9v-27.6h17.3v3.5h3.5v10.4h-3.5v3.5h-10.4V1995.9z M-472.4,1978.6h6.9v-3.5h-6.9V1978.6z"/>
	<path class="st4" d="M-451.7,1992.5h-3.5v-24.2h6.9v20.7h13.8v6.9h-17.3V1992.5z"/>
	<path class="st4" d="M-424.1,1995.9h-6.9v-24.2h3.5v-3.5h13.8v3.5h3.5v24.2h-6.9v-10.4h-6.9V1995.9z M-417.2,1978.6v-3.5h-6.9v3.5
		H-417.2z"/>
	<path class="st4" d="M-406.8,1968.3h6.9v10.4h6.9v-10.4h6.9v13.8h-3.5v3.5h-3.5v10.4h-6.9v-10.4h-3.5v-3.5h-3.5V1968.3z"/>
	<path class="st4" d="M-379.1,1992.5h-3.5v-20.7h3.5v-3.5h17.3v6.9h-13.8v3.5h6.9v6.9h-6.9v3.5h13.8v6.9h-17.3V1992.5z"/>
	<path class="st4" d="M-348,1985.6h-3.5v10.4h-6.9v-27.6h17.3v3.5h3.5v10.4h-3.5v3.5h3.5v10.4h-6.9v-6.9h-3.5V1985.6z
		 M-351.5,1978.6h6.9v-3.5h-6.9V1978.6z"/>
	<path class="st4" d="M-310,1968.3h17.3v3.5h3.5v10.4h-3.5v3.5h-10.4v3.5h13.8v6.9H-310v-13.8h3.5v-3.5h10.4v-3.5H-310V1968.3z"/>
</g>
<g>
	<rect x="-564.1" y="1949" class="st4" width="45.1" height="5.7"/>
	<rect x="-512.8" y="1949" class="st4" width="5.7" height="5.7"/>
</g>
<g>
	<rect x="-1018.6" y="1950" class="st4" width="45.1" height="5.7"/>
	<rect x="-967.3" y="1950" class="st4" width="5.7" height="5.7"/>
</g>
<polygon class="st16" points="-629.5,1790 -623.1,1795.6 -628.7,1802 -608.2,1819.4 -608.2,1857.3 -587.5,1831.2 -555.7,1860.6 
	-549.9,1854.3 -544.9,1858.9 -473.3,1740.2 "/>
<polygon class="st17" points="-631.9,1782.9 -625.5,1788.5 -631.1,1794.9 -610.7,1812.3 -610.7,1850.2 -590,1824.1 -558.2,1853.5 
	-552.4,1847.2 -547.4,1851.8 -475.8,1733.1 "/>
<polygon class="st18" points="-589.9,1823.9 -475.5,1733.1 -610.6,1812.1 -610.6,1850 "/>
<polygon class="st19" points="-633,1783.1 -626.6,1788.7 -632.2,1795.1 -611.8,1812.4 -611.8,1850.3 -591,1824.2 -559.3,1853.6 
	-553.4,1847.3 -548.5,1852 -476.8,1733.3 "/>
<g>
	<polygon class="st20" points="-697.1,1476.4 -697.1,1640 -686.8,1640 -686.8,1649.5 -676.4,1649.5 -676.4,1659.9 -228.9,1659.9 
		-228.9,1649.5 -218.5,1649.5 -218.5,1640 -208.1,1640 -208.1,1476.4 	"/>
	<polygon class="st20" points="-208.1,1476.4 -208.1,1382.2 -218.5,1382.2 -218.5,1372.7 -228.9,1372.7 -228.9,1362.2 
		-676.4,1362.2 -676.4,1372.7 -686.8,1372.7 -686.8,1382.2 -697.1,1382.2 -697.1,1476.4 	"/>
</g>
<g>
	<polygon class="st21" points="-686.8,1378.8 -676.4,1378.8 -676.4,1370.8 -686.8,1370.8 -686.8,1378.7 -697.1,1378.7 
		-697.1,1386.7 -686.8,1386.7 	"/>
	<rect x="-676.4" y="1362.1" class="st21" width="447.5" height="8"/>
	<polygon class="st21" points="-218.5,1378.7 -218.5,1370.8 -228.9,1370.8 -228.9,1378.8 -218.5,1378.8 -218.5,1386.7 
		-208.1,1386.7 -208.1,1378.7 	"/>
</g>
<g>
	<g>
		<g>
			<rect x="-1090.3" y="1297.8" width="10.2" height="10.2"/>
		</g>
	</g>
	<g>
		<g>
			<path d="M-1028.8,1287.6v5.1h-5.1v5.1h5.1v20.5h5.1v5.1h-5.1v5.1h5.1h5.1v-10.2h15.4v5.1h5.1v-5.1v-30.7H-1028.8z
				 M-1003.2,1313.2h-20.5v-20.5h20.5V1313.2z"/>
		</g>
	</g>
	<g>
		<g>
			<rect x="-1018.6" y="1297.8" width="10.2" height="10.2"/>
		</g>
	</g>
	<g>
		<g>
			<rect x="-1090.3" y="1369.5" width="10.2" height="10.2"/>
		</g>
	</g>
	<g>
		<g>
			<rect x="-1028.8" y="1359.3" width="5.1" height="5.1"/>
		</g>
	</g>
	<g>
		<g>
			<rect x="-1054.5" y="1384.9" width="5.1" height="5.1"/>
		</g>
	</g>
	<g>
		<g>
			<rect x="-1049.3" y="1364.4" width="5.1" height="5.1"/>
		</g>
	</g>
	<g>
		<g>
			<rect x="-1049.3" y="1374.7" width="5.1" height="5.1"/>
		</g>
	</g>
	<g>
		<g>
			<rect x="-1003.2" y="1349.1" width="5.1" height="5.1"/>
		</g>
	</g>
	<g>
		<g>
			<rect x="-1100.5" y="1349.1" width="5.1" height="5.1"/>
		</g>
	</g>
	<g>
		<g>
			<rect x="-1100.5" y="1323.5" width="5.1" height="5.1"/>
		</g>
	</g>
	<g>
		<g>
			<polygon points="-1044.2,1292.7 -1044.2,1297.8 -1054.5,1297.8 -1054.5,1303 -1039.1,1303 -1039.1,1297.8 -1039.1,1292.7 			"/>
		</g>
	</g>
	<g>
		<g>
			<path d="M-1003.2,1328.6v5.1h-10.2v5.1h-15.4v-5.1h-5.1v5.1h-10.2v5.1h15.4v5.1h-10.2h-5.1v-5.1h-5.1v5.1h-5.1v-5.1h-5.1v5.1
				h-5.1v5.1h10.2v5.1h5.1v-5.1h10.2v5.1h-5.1v5.1h5.1v10.2h5.1v5.1h5.1v-5.1h15.4v-10.2h5.1v-5.1h-5.1v-10.2h-10.2v-5.1h10.2v5.1
				h5.1v-5.1h5.1v-5.1h5.1v-5.1v-5.1H-1003.2L-1003.2,1328.6z M-1018.6,1354.2v15.4h-15.4v-15.4H-1018.6z"/>
		</g>
	</g>
	<g>
		<g>
			<polygon points="-1034,1318.3 -1039.1,1318.3 -1039.1,1323.5 -1044.2,1323.5 -1044.2,1328.6 -1044.2,1333.7 -1039.1,1333.7 
				-1039.1,1328.6 -1034,1328.6 -1034,1323.5 -1028.8,1323.5 -1028.8,1318.3 			"/>
		</g>
	</g>
	<g>
		<g>
			<rect x="-1044.2" y="1384.9" width="10.2" height="5.1"/>
		</g>
	</g>
	<g>
		<g>
			<rect x="-1059.6" y="1292.7" width="5.1" height="5.1"/>
		</g>
	</g>
	<g>
		<g>
			<rect x="-1018.6" y="1328.6" width="5.1" height="5.1"/>
		</g>
	</g>
	<g>
		<g>
			<rect x="-1013.5" y="1323.5" width="5.1" height="5.1"/>
		</g>
	</g>
	<g>
		<g>
			<rect x="-1080.1" y="1349.1" width="5.1" height="5.1"/>
		</g>
	</g>
	<g>
		<g>
			<path d="M-1069.8,1384.9v-20.5h5.1v-5.1v-5.1h-5.1v5.1h-15.4v-5.1h-5.1h-5.1v5.1h-5.1v30.7h30.7h10.2v-5.1H-1069.8z
				 M-1074.9,1384.9h-20.5v-20.5h20.5V1384.9z"/>
		</g>
	</g>
	<g>
		<g>
			<rect x="-1069.8" y="1318.3" width="5.1" height="5.1"/>
		</g>
	</g>
	<g>
		<g>
			<path d="M-1064.7,1287.6h-5.1h-30.7v30.7h5.1v5.1h5.1v-5.1h5.1v5.1h5.1v-5.1h10.2v-10.2h5.1v-5.1h-5.1v-10.2h5.1h5.1v-5.1
				H-1064.7z M-1074.9,1313.2h-20.5v-20.5h20.5V1313.2z"/>
		</g>
	</g>
	<g>
		<g>
			<rect x="-1039.1" y="1303" width="5.1" height="5.1"/>
		</g>
	</g>
	<g>
		<g>
			<rect x="-1049.3" y="1287.6" width="5.1" height="5.1"/>
		</g>
	</g>
	<g>
		<g>
			<path d="M-1039.1,1318.3v-5.1h-5.1v-5.1h-5.1v5.1h-10.2v-5.1h-5.1v5.1v5.1h5.1v10.2h-15.4v-5.1h-5.1v5.1h-15.4v5.1h10.2v5.1
				h-15.4v5.1h15.4v5.1h5.1v-5.1h5.1v5.1h5.1v-5.1h10.2v-5.1h-5.1v-5.1h5.1h5.1v5.1h5.1h5.1v-5.1h-5.1v-5.1h-5.1v-10.2H-1039.1
				L-1039.1,1318.3z M-1069.8,1338.8h-10.2v-5.1h10.2V1338.8z"/>
		</g>
	</g>
	<g>
		<g>
			<polygon points="-1054.5,1369.5 -1054.5,1364.4 -1054.5,1359.3 -1059.6,1359.3 -1059.6,1364.4 -1064.7,1364.4 -1064.7,1369.5 
				-1059.6,1369.5 -1059.6,1374.7 -1064.7,1374.7 -1064.7,1379.8 -1054.5,1379.8 -1054.5,1374.7 -1049.3,1374.7 -1049.3,1369.5 			
				"/>
		</g>
	</g>
	<g>
		<g>
			<polygon points="-1008.4,1379.8 -1008.4,1374.7 -1013.5,1374.7 -1013.5,1379.8 -1028.8,1379.8 -1028.8,1384.9 -1018.6,1384.9 
				-1018.6,1390 -1013.5,1390 -1013.5,1384.9 -1003.2,1384.9 -1003.2,1390 -998.1,1390 -998.1,1384.9 -998.1,1379.8 			"/>
		</g>
	</g>
	<g>
		<g>
			<polygon points="-1003.2,1359.3 -1003.2,1364.4 -1008.4,1364.4 -1008.4,1369.5 -998.1,1369.5 -998.1,1364.4 -998.1,1359.3 			"/>
		</g>
	</g>
</g>
<g>
	<g>
		<polygon class="st9" points="-1328.6,1703.7 -1332.3,1703.7 -1469.5,1703.7 -1469.5,1707.4 -1473.2,1707.4 -1473.2,1728.6 
			-1469.5,1728.6 -1469.5,1732.3 -1332.3,1732.3 -1328.6,1732.3 -1328.6,1728.6 -1325,1728.6 -1325,1707.4 -1328.6,1707.4 		"/>
		<polygon class="st12" points="-1328.6,1703.7 -1332.3,1703.7 -1469.5,1703.7 -1469.5,1707.4 -1473.2,1707.4 -1473.2,1728.6 
			-1469.5,1728.6 -1469.5,1732.3 -1332.3,1732.3 -1328.6,1732.3 -1328.6,1728.6 -1325,1728.6 -1325,1707.4 -1328.6,1707.4 		"/>
		<g>
			<path class="st4" d="M-1441.3,1718.6h-1.3v3.8h-2.5v-10.1h6.3v1.3h1.3v3.8h-1.3v1.3h1.3v3.8h-2.5v-2.5h-1.3V1718.6z
				 M-1442.5,1716h2.5v-1.3h-2.5V1716z"/>
			<path class="st4" d="M-1435,1721.1h-1.3v-7.6h1.3v-1.3h6.3v2.5h-5.1v1.3h2.5v2.5h-2.5v1.3h5.1v2.5h-6.3V1721.1z"/>
			<path class="st4" d="M-1426.1,1721.1h-1.3v-7.6h1.3v-1.3h5.1v1.3h1.3v2.5h-2.5v-1.3h-2.5v5.1h2.5v-1.3h2.5v2.5h-1.3v1.3h-5.1
				V1721.1z"/>
			<path class="st4" d="M-1416,1722.4h-2.5v-8.9h1.3v-1.3h5.1v1.3h1.3v8.9h-2.5v-3.8h-2.5V1722.4z M-1413.5,1716v-1.3h-2.5v1.3
				H-1413.5z"/>
			<path class="st4" d="M-1408.4,1721.1h-1.3v-8.9h2.5v7.6h5.1v2.5h-6.3V1721.1z"/>
			<path class="st4" d="M-1400.8,1712.2h2.5v10.1h-2.5V1712.2z"/>
			<path class="st4" d="M-1397,1712.2h6.3v1.3h1.3v7.6h-1.3v1.3h-6.3V1712.2z M-1394.5,1716h2.5v-1.3h-2.5V1716z M-1394.5,1719.8
				h2.5v-1.3h-2.5V1719.8z"/>
			<path class="st4" d="M-1384.4,1718.6h-1.3v3.8h-2.5v-8.9h1.3v-1.3h5.1v1.3h1.3v3.8h-1.3v1.3h1.3v3.8h-2.5v-2.5h-1.3V1718.6z
				 M-1385.6,1716h2.5v-1.3h-2.5V1716z"/>
			<path class="st4" d="M-1376.8,1722.4h-2.5v-8.9h1.3v-1.3h5.1v1.3h1.3v8.9h-2.5v-3.8h-2.5V1722.4z M-1374.3,1716v-1.3h-2.5v1.3
				H-1374.3z"/>
			<path class="st4" d="M-1370.5,1712.2h7.6v2.5h-2.5v7.6h-2.5v-7.6h-2.5V1712.2z"/>
			<path class="st4" d="M-1360.3,1721.1h-1.3v-7.6h1.3v-1.3h6.3v2.5h-5.1v1.3h2.5v2.5h-2.5v1.3h5.1v2.5h-6.3V1721.1z"/>
		</g>
	</g>
	<g>
		<rect x="-1467.1" y="1705.9" class="st4" width="13.1" height="1.7"/>
		<rect x="-1452.2" y="1705.9" class="st4" width="1.7" height="1.7"/>
	</g>
</g>
<g>
	<g>
		<polygon class="st9" points="-1328.6,1745.7 -1332.3,1745.7 -1469.5,1745.7 -1469.5,1749.4 -1473.2,1749.4 -1473.2,1770.6 
			-1469.5,1770.6 -1469.5,1774.3 -1332.3,1774.3 -1328.6,1774.3 -1328.6,1770.6 -1325,1770.6 -1325,1749.4 -1328.6,1749.4 		"/>
		<polygon class="st10" points="-1328.6,1742.1 -1332.3,1742.1 -1469.5,1742.1 -1469.5,1745.8 -1473.2,1745.8 -1473.2,1766.9 
			-1469.5,1766.9 -1469.5,1770.6 -1332.3,1770.6 -1328.6,1770.6 -1328.6,1766.9 -1325,1766.9 -1325,1745.8 -1328.6,1745.8 		"/>
		<g>
			<path class="st4" d="M-1441.3,1756.9h-1.3v3.8h-2.5v-10.1h6.3v1.3h1.3v3.8h-1.3v1.3h1.3v3.8h-2.5v-2.5h-1.3V1756.9z
				 M-1442.5,1754.4h2.5v-1.3h-2.5V1754.4z"/>
			<path class="st4" d="M-1435,1759.4h-1.3v-7.6h1.3v-1.3h6.3v2.5h-5.1v1.3h2.5v2.5h-2.5v1.3h5.1v2.5h-6.3V1759.4z"/>
			<path class="st4" d="M-1426.1,1759.4h-1.3v-7.6h1.3v-1.3h5.1v1.3h1.3v2.5h-2.5v-1.3h-2.5v5.1h2.5v-1.3h2.5v2.5h-1.3v1.3h-5.1
				V1759.4z"/>
			<path class="st4" d="M-1416,1760.7h-2.5v-8.9h1.3v-1.3h5.1v1.3h1.3v8.9h-2.5v-3.8h-2.5V1760.7z M-1413.5,1754.4v-1.3h-2.5v1.3
				H-1413.5z"/>
			<path class="st4" d="M-1408.4,1759.4h-1.3v-8.9h2.5v7.6h5.1v2.5h-6.3V1759.4z"/>
			<path class="st4" d="M-1400.8,1750.6h2.5v10.1h-2.5V1750.6z"/>
			<path class="st4" d="M-1397,1750.6h6.3v1.3h1.3v7.6h-1.3v1.3h-6.3V1750.6z M-1394.5,1754.4h2.5v-1.3h-2.5V1754.4z
				 M-1394.5,1758.2h2.5v-1.3h-2.5V1758.2z"/>
			<path class="st4" d="M-1384.4,1756.9h-1.3v3.8h-2.5v-8.9h1.3v-1.3h5.1v1.3h1.3v3.8h-1.3v1.3h1.3v3.8h-2.5v-2.5h-1.3V1756.9z
				 M-1385.6,1754.4h2.5v-1.3h-2.5V1754.4z"/>
			<path class="st4" d="M-1376.8,1760.7h-2.5v-8.9h1.3v-1.3h5.1v1.3h1.3v8.9h-2.5v-3.8h-2.5V1760.7z M-1374.3,1754.4v-1.3h-2.5v1.3
				H-1374.3z"/>
			<path class="st4" d="M-1370.5,1750.6h7.6v2.5h-2.5v7.6h-2.5v-7.6h-2.5V1750.6z"/>
			<path class="st4" d="M-1360.3,1759.4h-1.3v-7.6h1.3v-1.3h6.3v2.5h-5.1v1.3h2.5v2.5h-2.5v1.3h5.1v2.5h-6.3V1759.4z"/>
		</g>
	</g>
	<g>
		<rect x="-1467.1" y="1744.9" class="st4" width="13.1" height="1.7"/>
		<rect x="-1452.2" y="1744.9" class="st4" width="1.7" height="1.7"/>
	</g>
</g>
<g>
	<rect x="-1047.3" y="1476.6" class="st4" width="23.6" height="3"/>
	<rect x="-1020.5" y="1476.6" class="st4" width="3" height="3"/>
</g>
<g>
	<rect x="-1367.7" y="1415.1" class="st4" width="23.6" height="3"/>
	<rect x="-1340.9" y="1415.1" class="st4" width="3" height="3"/>
</g>
<g>
	<polygon class="st22" points="-1397.8,1538.6 -1397.8,1531.2 -1416.4,1531.2 -1416.4,1538.6 -1423.9,1538.6 -1423.9,1546.1 
		-1423.9,1557.3 -1416.4,1557.3 -1416.4,1564.7 -1405.2,1564.7 -1397.8,1564.7 -1397.8,1557.3 -1390.3,1557.3 -1390.3,1546.1 
		-1390.3,1538.6 	"/>
	<line class="st23" x1="-1415.8" y1="1564.7" x2="-1415.8" y2="1574.7"/>
	<line class="st23" x1="-1398.4" y1="1564.7" x2="-1398.4" y2="1574.7"/>
	<polygon class="st24" points="-1399.3,1572.8 -1401.5,1572.8 -1414.9,1572.8 -1414.9,1575 -1417,1575 -1417,1590.5 -1414.9,1590.5 
		-1414.9,1592.7 -1401.5,1592.7 -1399.3,1592.7 -1399.3,1590.5 -1397.2,1590.5 -1397.2,1575 -1399.3,1575 	"/>
</g>
<polygon class="st25" points="-1330.7,1977.9 -1330.7,1970 -1338.6,1970 -1403.6,1970 -1472.4,1970 -1472.4,1977.9 -1480.3,1977.9 
	-1480.3,2023.4 -1472.4,2023.4 -1472.4,2031.4 -1403.6,2031.4 -1338.6,2031.4 -1330.7,2031.4 -1330.7,2023.4 -1322.8,2023.4 
	-1322.8,1977.9 "/>
<polygon class="st25" points="-1330.7,1978 -1330.7,1970.1 -1338.6,1970.1 -1403.6,1970.1 -1472.4,1970.1 -1472.4,1978 
	-1480.3,1978 -1480.3,2023.6 -1472.4,2023.6 -1472.4,2031.5 -1403.6,2031.5 -1338.6,2031.5 -1330.7,2031.5 -1330.7,2023.6 
	-1322.8,2023.6 -1322.8,1978 "/>
<g>
	<path class="st4" d="M-1434.2,2011.4h-5.4v-21.8h13.6v2.7h2.7v8.2h-2.7v2.7h-8.2V2011.4z M-1434.2,1997.8h5.4v-2.7h-5.4V1997.8z"/>
	<path class="st4" d="M-1417.9,2008.7h-2.7v-19h5.4v16.3h10.9v5.4h-13.6V2008.7z"/>
	<path class="st4" d="M-1396.1,2011.4h-5.4v-19h2.7v-2.7h10.9v2.7h2.7v19h-5.4v-8.2h-5.4V2011.4z M-1390.6,1997.8v-2.7h-5.4v2.7
		H-1390.6z"/>
	<path class="st4" d="M-1382.5,1989.6h5.4v8.2h5.4v-8.2h5.4v10.9h-2.7v2.7h-2.7v8.2h-5.4v-8.2h-2.7v-2.7h-2.7V1989.6z"/>
</g>
<polygon class="st25" points="-1160.7,1977.9 -1160.7,1970 -1168.6,1970 -1233.6,1970 -1302.4,1970 -1302.4,1977.9 -1310.3,1977.9 
	-1310.3,2023.4 -1302.4,2023.4 -1302.4,2031.4 -1233.6,2031.4 -1168.6,2031.4 -1160.7,2031.4 -1160.7,2023.4 -1152.8,2023.4 
	-1152.8,1977.9 "/>
<polygon class="st22" points="-1160.7,1970 -1160.7,1962.1 -1168.6,1962.1 -1233.6,1962.1 -1302.4,1962.1 -1302.4,1970 
	-1310.3,1970 -1310.3,2015.6 -1302.4,2015.6 -1302.4,2023.5 -1233.6,2023.5 -1168.6,2023.5 -1160.7,2023.5 -1160.7,2015.6 
	-1152.8,2015.6 -1152.8,1970 "/>
<g>
	<path class="st4" d="M-1264.2,2003.4h-5.4v-21.8h13.6v2.7h2.7v8.2h-2.7v2.7h-8.2V2003.4z M-1264.2,1989.8h5.4v-2.7h-5.4V1989.8z"/>
	<path class="st4" d="M-1247.9,2000.7h-2.7v-19h5.4v16.3h10.9v5.4h-13.6V2000.7z"/>
	<path class="st4" d="M-1226.1,2003.4h-5.4v-19h2.7v-2.7h10.9v2.7h2.7v19h-5.4v-8.2h-5.4V2003.4z M-1220.6,1989.8v-2.7h-5.4v2.7
		H-1220.6z"/>
	<path class="st4" d="M-1212.5,1981.6h5.4v8.2h5.4v-8.2h5.4v10.9h-2.7v2.7h-2.7v8.2h-5.4v-8.2h-2.7v-2.7h-2.7V1981.6z"/>
</g>
<g>
	<path class="st26" d="M-2154.3,1732.3h43.2v108h43.2v-108h43.2v129.6h-21.6v21.6h-21.6v21.6h-43.2v-21.6h-21.6v-21.6h-21.6V1732.3z
		"/>
	<path class="st27" d="M-2003.1,1755.9h21.6v-21.6h108v43.2h-86.4v21.6h64.8v21.6h21.6v64.8h-21.6v21.6h-108v-43.2h86.4v-21.6h-64.8
		v-21.6h-21.6V1755.9z"/>
</g>
<g>
	<path class="st28" d="M-2154.3,1711.2h43.2v108h43.2v-108h43.2v129.6h-21.6v21.6h-21.6v21.6h-43.2v-21.6h-21.6v-21.6h-21.6V1711.2z
		"/>
	<path class="st29" d="M-2003.1,1732.8h21.6v-21.6h108v43.2h-86.4v21.6h64.8v21.6h21.6v64.8h-21.6v21.6h-108v-43.2h86.4v-21.6h-64.8
		v-21.6h-21.6V1732.8z"/>
</g>
<g>
	<g>
		<path class="st0" d="M-2104.9,2089.8h27.5v68.7h27.5v-68.7h27.5v82.4h-13.7v13.7h-13.7v13.7h-27.5V2186h-13.7v-13.7h-13.7V2089.8z
			"/>
		<path class="st0" d="M-2008.8,2104.9h13.7v-13.7h68.7v27.5h-54.9v13.7h41.2v13.7h13.7v41.2h-13.7v13.7h-68.7v-27.5h54.9v-13.7
			h-41.2v-13.7h-13.7V2104.9z"/>
	</g>
	<g>
		<path class="st7" d="M-2104.9,2075.3h27.5v68.7h27.5v-68.7h27.5v82.4h-13.7v13.7h-13.7v13.7h-27.5v-13.7h-13.7v-13.7h-13.7V2075.3
			z"/>
		<path class="st7" d="M-2008.8,2090.4h13.7v-13.7h68.7v27.5h-54.9v13.7h41.2v13.7h13.7v41.2h-13.7v13.7h-68.7v-27.5h54.9v-13.7
			h-41.2v-13.7h-13.7V2090.4z"/>
	</g>
	<g>
		<path class="st4" d="M-2104.9,2061.9h27.5v68.7h27.5v-68.7h27.5v82.4h-13.7v13.7h-13.7v13.7h-27.5v-13.7h-13.7v-13.7h-13.7V2061.9
			z"/>
		<path class="st4" d="M-2008.8,2075.7h13.7v-13.7h68.7v27.5h-54.9v13.7h41.2v13.7h13.7v41.2h-13.7v13.7h-68.7v-27.5h54.9v-13.7
			h-41.2v-13.7h-13.7V2075.7z"/>
	</g>
</g>
<g>
	<g>
		<path class="st0" d="M-1530.4,1230.2h-21.6v-86.4h54v10.8h10.8v32.4h-10.8v10.8h-32.4V1230.2z M-1530.4,1176.2h21.6v-10.8h-21.6
			V1176.2z"/>
		<path class="st0" d="M-1476.4,1154.6h10.8v-10.8h43.2v10.8h10.8v64.8h-10.8v10.8h-43.2v-10.8h-10.8V1154.6z M-1454.8,1208.6h21.6
			v-43.2h-21.6V1208.6z"/>
		<path class="st0" d="M-1390,1219.4h-10.8v-75.6h21.6v64.8h43.2v21.6h-54V1219.4z"/>
		<path class="st0" d="M-1346.8,1143.8h21.6v32.4h21.6v-32.4h21.6v43.2h-10.8v10.8h-10.8v32.4h-21.6v-32.4h-10.8V1187h-10.8V1143.8z
			"/>
	</g>
	<g>
		<path class="st30" d="M-1530.4,1221.7h-21.6v-86.4h54v10.8h10.8v32.4h-10.8v10.8h-32.4V1221.7z M-1530.4,1167.7h21.6v-10.8h-21.6
			V1167.7z"/>
		<path class="st30" d="M-1476.4,1146.1h10.8v-10.8h43.2v10.8h10.8v64.8h-10.8v10.8h-43.2v-10.8h-10.8V1146.1z M-1454.8,1200.1h21.6
			v-43.2h-21.6V1200.1z"/>
		<path class="st30" d="M-1390,1210.9h-10.8v-75.6h21.6v64.8h43.2v21.6h-54V1210.9z"/>
		<path class="st30" d="M-1346.8,1135.3h21.6v32.4h21.6v-32.4h21.6v43.2h-10.8v10.8h-10.8v32.4h-21.6v-32.4h-10.8v-10.8h-10.8
			V1135.3z"/>
	</g>
	<g>
		<path class="st4" d="M-1530.4,1213.5h-21.6v-86.4h54v10.8h10.8v32.4h-10.8v10.8h-32.4V1213.5z M-1530.4,1159.5h21.6v-10.8h-21.6
			V1159.5z"/>
		<path class="st4" d="M-1476.4,1137.9h10.8v-10.8h43.2v10.8h10.8v64.8h-10.8v10.8h-43.2v-10.8h-10.8V1137.9z M-1454.8,1191.9h21.6
			v-43.2h-21.6V1191.9z"/>
		<path class="st4" d="M-1390,1202.7h-10.8v-75.6h21.6v64.8h43.2v21.6h-54V1202.7z"/>
		<path class="st4" d="M-1346.8,1127.1h21.6v32.4h21.6v-32.4h21.6v43.2h-10.8v10.8h-10.8v32.4h-21.6v-32.4h-10.8v-10.8h-10.8V1127.1
			z"/>
	</g>
</g>
<image style="overflow:visible;" width="843" height="1118" xlink:href="DD937B8D58D9656B.jpg"  transform="matrix(0.24 0 0 0.24 -1761.5702 1277.3285)">
</image>
<g>
	<g class="st1">
		<g>
			<polygon class="st0" points="-1203.6,913.7 -1203.6,1000.1 -1102.4,1000.1 -1102.4,988.5 -1115.1,988.5 -1115.1,975.9 
				-1127.7,975.9 -1127.7,963.2 -1140.4,963.2 -1140.4,950.6 -1127.7,950.6 -1127.7,937.9 -1115.1,937.9 -1115.1,925.3 
				-1102.4,925.3 -1102.4,913.7 			"/>
		</g>
		<polygon class="st0" points="-1188.9,974.8 -1203.6,999.1 -1203.6,974.8 		"/>
	</g>
	<rect x="-1691.8" y="890.7" class="st0" width="510.3" height="86.5"/>
	<rect x="-1215.2" y="968.8" class="st0" width="112.8" height="31.6"/>
	<g class="st1">
		<g>
			<polygon class="st0" points="-1684,913.8 -1684,1000.3 -1785.2,1000.3 -1785.2,988.7 -1772.5,988.7 -1772.5,976 -1759.9,976 
				-1759.9,963.4 -1747.2,963.4 -1747.2,950.7 -1759.9,950.7 -1759.9,938.1 -1772.5,938.1 -1772.5,925.4 -1785.2,925.4 
				-1785.2,913.8 			"/>
		</g>
		<polygon class="st0" points="-1698.7,975 -1684,999.2 -1684,975 		"/>
	</g>
	<g>
		<g>
			<polygon class="st2" points="-1203.6,903.4 -1203.6,989.9 -1102.4,989.9 -1102.4,978.3 -1115.1,978.3 -1115.1,965.6 
				-1127.7,965.6 -1127.7,952.9 -1140.4,952.9 -1140.4,940.3 -1127.7,940.3 -1127.7,927.6 -1115.1,927.6 -1115.1,915 -1102.4,915 
				-1102.4,903.4 			"/>
			<polygon class="st3" points="-1203.6,891.8 -1203.6,978.3 -1102.4,978.3 -1102.4,966.7 -1115.1,966.7 -1115.1,954 -1127.7,954 
				-1127.7,941.3 -1140.4,941.3 -1140.4,928.7 -1127.7,928.7 -1127.7,916 -1115.1,916 -1115.1,903.4 -1102.4,903.4 -1102.4,891.8 
							"/>
		</g>
		<polygon class="st2" points="-1188.9,964.5 -1203.6,988.8 -1203.6,964.5 		"/>
		<g>
			<g>
				<polygon class="st2" points="-1684.4,903.4 -1684.4,989.9 -1785.7,989.9 -1785.7,978.3 -1773,978.3 -1773,965.6 -1760.4,965.6 
					-1760.4,952.9 -1747.7,952.9 -1747.7,940.3 -1760.4,940.3 -1760.4,927.6 -1773,927.6 -1773,915 -1785.7,915 -1785.7,903.4 				
					"/>
				<polygon class="st3" points="-1684.4,891.8 -1684.4,978.3 -1785.7,978.3 -1785.7,966.7 -1773,966.7 -1773,954 -1760.4,954 
					-1760.4,941.3 -1747.7,941.3 -1747.7,928.7 -1760.4,928.7 -1760.4,916 -1773,916 -1773,903.4 -1785.7,903.4 -1785.7,891.8 				
					"/>
			</g>
			<polygon class="st2" points="-1699.2,964.5 -1684.4,988.8 -1684.5,964.5 			"/>
		</g>
		<g>
			<rect x="-1699.2" y="878.1" class="st2" width="510.3" height="86.5"/>
			<rect x="-1699.2" y="865.4" class="st3" width="510.3" height="86.5"/>
		</g>
	</g>
</g>
<g>
	<g>
		<path class="st25" d="M-1585.1,940.4h-37.4v-59.9h37.4v7.5h7.5v15h-7.5v15h7.5v15h-7.5V940.4z M-1607.5,902.9h15v-7.5h-15V902.9z
			 M-1607.5,925.4h15v-7.5h-15V925.4z"/>
		<path class="st25" d="M-1555.1,940.4h-15V888h7.5v-7.5h30v7.5h7.5v52.4h-15v-22.5h-15V940.4z M-1540.1,902.9v-7.5h-15v7.5H-1540.1
			z"/>
		<path class="st25" d="M-1510.2,932.9h-7.5v-52.4h15v44.9h30v15h-37.4V932.9z"/>
		<path class="st25" d="M-1457.8,932.9h-7.5v-52.4h15v44.9h30v15h-37.4V932.9z"/>
		<path class="st25" d="M-1412.8,888h7.5v-7.5h30v7.5h7.5v44.9h-7.5v7.5h-30v-7.5h-7.5V888z M-1397.8,925.4h15v-30h-15V925.4z"/>
		<path class="st25" d="M-1360.4,888h7.5v-7.5h30v7.5h7.5v44.9h-7.5v7.5h-30v-7.5h-7.5V888z M-1345.4,925.4h15v-30h-15V925.4z"/>
		<path class="st25" d="M-1285.5,910.4h-7.5v30h-15v-59.9h15v7.5h7.5v7.5h7.5v-15h15v59.9h-15v-22.5h-7.5V910.4z"/>
	</g>
	<g>
		<path class="st22" d="M-1585.1,934.6h-37.4v-59.9h37.4v7.5h7.5v15h-7.5v15h7.5v15h-7.5V934.6z M-1607.5,897.1h15v-7.5h-15V897.1z
			 M-1607.5,919.6h15v-7.5h-15V919.6z"/>
		<path class="st22" d="M-1555.1,934.6h-15v-52.4h7.5v-7.5h30v7.5h7.5v52.4h-15v-22.5h-15V934.6z M-1540.1,897.1v-7.5h-15v7.5
			H-1540.1z"/>
		<path class="st22" d="M-1510.2,927.1h-7.5v-52.4h15v44.9h30v15h-37.4V927.1z"/>
		<path class="st22" d="M-1457.8,927.1h-7.5v-52.4h15v44.9h30v15h-37.4V927.1z"/>
		<path class="st22" d="M-1412.8,882.1h7.5v-7.5h30v7.5h7.5v44.9h-7.5v7.5h-30v-7.5h-7.5V882.1z M-1397.8,919.6h15v-30h-15V919.6z"
			/>
		<path class="st22" d="M-1360.4,882.1h7.5v-7.5h30v7.5h7.5v44.9h-7.5v7.5h-30v-7.5h-7.5V882.1z M-1345.4,919.6h15v-30h-15V919.6z"
			/>
		<path class="st22" d="M-1285.5,904.6h-7.5v30h-15v-59.9h15v7.5h7.5v7.5h7.5v-15h15v59.9h-15v-22.5h-7.5V904.6z"/>
	</g>
</g>
<g>
	<path class="st0" d="M-1093.4,1087.1h20.7v6.9h-20.7V1087.1z"/>
	<path class="st0" d="M-1038.1,1104.4h-6.9v-27.6h17.3v3.5h3.5v10.4h-3.5v3.5h-10.4V1104.4z M-1038.1,1087.1h6.9v-3.5h-6.9V1087.1z"
		/>
	<path class="st0" d="M-1010.5,1094h-3.5v10.4h-6.9v-27.6h17.3v3.5h3.5v10.4h-3.5v3.5h3.5v10.4h-6.9v-6.9h-3.5V1094z M-1014,1087.1
		h6.9v-3.5h-6.9V1087.1z"/>
	<path class="st0" d="M-993.2,1100.9h-3.5v-20.7h3.5v-3.5h17.3v6.9h-13.8v3.5h6.9v6.9h-6.9v3.5h13.8v6.9h-17.3V1100.9z"/>
	<path class="st0" d="M-972.5,1080.2h3.5v-3.5h17.3v6.9h-13.8v3.5h10.4v3.5h3.5v10.4h-3.5v3.5h-17.3v-6.9h13.8v-3.5H-969v-3.5h-3.5
		V1080.2z"/>
	<path class="st0" d="M-948.3,1080.2h3.5v-3.5h17.3v6.9h-13.8v3.5h10.4v3.5h3.5v10.4h-3.5v3.5h-17.3v-6.9h13.8v-3.5h-10.4v-3.5h-3.5
		V1080.2z"/>
	<path class="st0" d="M-893,1104.4h-6.9v-24.2h3.5v-3.5h13.8v3.5h3.5v24.2h-6.9V1094h-6.9V1104.4z M-886.1,1087.1v-3.5h-6.9v3.5
		H-886.1z"/>
	<path class="st0" d="M-865.3,1090.6h-3.5v13.8h-6.9v-27.6h6.9v3.5h3.5v3.5h3.5v-6.9h6.9v27.6h-6.9V1094h-3.5V1090.6z"/>
	<path class="st0" d="M-851.5,1076.8h6.9v10.4h6.9v-10.4h6.9v13.8h-3.5v3.5h-3.5v10.4h-6.9V1094h-3.5v-3.5h-3.5V1076.8z"/>
	<path class="st0" d="M-796.2,1104.4h-6.9v-27.6h6.9v6.9h3.5v-3.5h3.5v-3.5h6.9v6.9h-3.5v3.5h-3.5v6.9h3.5v3.5h3.5v6.9h-6.9v-3.5
		h-3.5v-3.5h-3.5V1104.4z"/>
	<path class="st0" d="M-775.5,1100.9h-3.5v-20.7h3.5v-3.5h17.3v6.9H-772v3.5h6.9v6.9h-6.9v3.5h13.8v6.9h-17.3V1100.9z"/>
	<path class="st0" d="M-754.8,1076.8h6.9v10.4h6.9v-10.4h6.9v13.8h-3.5v3.5h-3.5v10.4h-6.9V1094h-3.5v-3.5h-3.5V1076.8z"/>
	<path class="st0" d="M-706.4,1076.8h20.7v6.9h-6.9v20.7h-6.9v-20.7h-6.9V1076.8z"/>
	<path class="st0" d="M-682.2,1080.2h3.5v-3.5h13.8v3.5h3.5v20.7h-3.5v3.5h-13.8v-3.5h-3.5V1080.2z M-675.3,1097.5h6.9v-13.8h-6.9
		V1097.5z"/>
	<path class="st0" d="M-626.9,1104.4h-6.9v-27.6h17.3v3.5h3.5v10.4h-3.5v3.5h-10.4V1104.4z M-626.9,1087.1h6.9v-3.5h-6.9V1087.1z"/>
	<path class="st0" d="M-606.2,1100.9h-3.5v-24.2h6.9v20.7h13.8v6.9h-17.3V1100.9z"/>
	<path class="st0" d="M-578.5,1104.4h-6.9v-24.2h3.5v-3.5h13.8v3.5h3.5v24.2h-6.9V1094h-6.9V1104.4z M-571.6,1087.1v-3.5h-6.9v3.5
		H-571.6z"/>
	<path class="st0" d="M-561.2,1076.8h6.9v10.4h6.9v-10.4h6.9v13.8h-3.5v3.5h-3.5v10.4h-6.9V1094h-3.5v-3.5h-3.5V1076.8z"/>
	<path class="st0" d="M-512.8,1087.1h20.7v6.9h-20.7V1087.1z"/>
</g>
<g>
	<path class="st30" d="M-1094.3,1081.2h20.7v6.9h-20.7V1081.2z"/>
	<path class="st30" d="M-1039,1098.5h-6.9v-27.6h17.3v3.5h3.5v10.4h-3.5v3.5h-10.4V1098.5z M-1039,1081.2h6.9v-3.5h-6.9V1081.2z"/>
	<path class="st30" d="M-1011.4,1088.1h-3.5v10.4h-6.9v-27.6h17.3v3.5h3.5v10.4h-3.5v3.5h3.5v10.4h-6.9v-6.9h-3.5V1088.1z
		 M-1014.8,1081.2h6.9v-3.5h-6.9V1081.2z"/>
	<path class="st30" d="M-994.1,1095h-3.5v-20.7h3.5v-3.5h17.3v6.9h-13.8v3.5h6.9v6.9h-6.9v3.5h13.8v6.9h-17.3V1095z"/>
	<path class="st30" d="M-973.3,1074.3h3.5v-3.5h17.3v6.9h-13.8v3.5h10.4v3.5h3.5v10.4h-3.5v3.5h-17.3v-6.9h13.8v-3.5h-10.4v-3.5
		h-3.5V1074.3z"/>
	<path class="st30" d="M-949.2,1074.3h3.5v-3.5h17.3v6.9h-13.8v3.5h10.4v3.5h3.5v10.4h-3.5v3.5h-17.3v-6.9h13.8v-3.5h-10.4v-3.5
		h-3.5V1074.3z"/>
	<path class="st30" d="M-893.9,1098.5h-6.9v-24.2h3.5v-3.5h13.8v3.5h3.5v24.2h-6.9v-10.4h-6.9V1098.5z M-886.9,1081.2v-3.5h-6.9v3.5
		H-886.9z"/>
	<path class="st30" d="M-866.2,1084.7h-3.5v13.8h-6.9v-27.6h6.9v3.5h3.5v3.5h3.5v-6.9h6.9v27.6h-6.9v-10.4h-3.5V1084.7z"/>
	<path class="st30" d="M-852.4,1070.9h6.9v10.4h6.9v-10.4h6.9v13.8h-3.5v3.5h-3.5v10.4h-6.9v-10.4h-3.5v-3.5h-3.5V1070.9z"/>
	<path class="st30" d="M-797.1,1098.5h-6.9v-27.6h6.9v6.9h3.5v-3.5h3.5v-3.5h6.9v6.9h-3.5v3.5h-3.5v6.9h3.5v3.5h3.5v6.9h-6.9v-3.5
		h-3.5v-3.5h-3.5V1098.5z"/>
	<path class="st30" d="M-776.4,1095h-3.5v-20.7h3.5v-3.5h17.3v6.9h-13.8v3.5h6.9v6.9h-6.9v3.5h13.8v6.9h-17.3V1095z"/>
	<path class="st30" d="M-755.6,1070.9h6.9v10.4h6.9v-10.4h6.9v13.8h-3.5v3.5h-3.5v10.4h-6.9v-10.4h-3.5v-3.5h-3.5V1070.9z"/>
	<path class="st30" d="M-707.2,1070.9h20.7v6.9h-6.9v20.7h-6.9v-20.7h-6.9V1070.9z"/>
	<path class="st30" d="M-683.1,1074.3h3.5v-3.5h13.8v3.5h3.5v20.7h-3.5v3.5h-13.8v-3.5h-3.5V1074.3z M-676.1,1091.6h6.9v-13.8h-6.9
		V1091.6z"/>
	<path class="st30" d="M-627.8,1098.5h-6.9v-27.6h17.3v3.5h3.5v10.4h-3.5v3.5h-10.4V1098.5z M-627.8,1081.2h6.9v-3.5h-6.9V1081.2z"
		/>
	<path class="st30" d="M-607,1095h-3.5v-24.2h6.9v20.7h13.8v6.9H-607V1095z"/>
	<path class="st30" d="M-579.4,1098.5h-6.9v-24.2h3.5v-3.5h13.8v3.5h3.5v24.2h-6.9v-10.4h-6.9V1098.5z M-572.5,1081.2v-3.5h-6.9v3.5
		H-572.5z"/>
	<path class="st30" d="M-562.1,1070.9h6.9v10.4h6.9v-10.4h6.9v13.8h-3.5v3.5h-3.5v10.4h-6.9v-10.4h-3.5v-3.5h-3.5V1070.9z"/>
	<path class="st30" d="M-513.7,1081.2h20.7v6.9h-20.7V1081.2z"/>
</g>
<g>
	<path class="st4" d="M-1094.3,1076.8h20.7v6.9h-20.7V1076.8z"/>
	<path class="st4" d="M-1039,1094.1h-6.9v-27.6h17.3v3.5h3.5v10.4h-3.5v3.5h-10.4V1094.1z M-1039,1076.8h6.9v-3.5h-6.9V1076.8z"/>
	<path class="st4" d="M-1011.4,1083.7h-3.5v10.4h-6.9v-27.6h17.3v3.5h3.5v10.4h-3.5v3.5h3.5v10.4h-6.9v-6.9h-3.5V1083.7z
		 M-1014.8,1076.8h6.9v-3.5h-6.9V1076.8z"/>
	<path class="st4" d="M-994.1,1090.6h-3.5v-20.7h3.5v-3.5h17.3v6.9h-13.8v3.5h6.9v6.9h-6.9v3.5h13.8v6.9h-17.3V1090.6z"/>
	<path class="st4" d="M-973.3,1069.9h3.5v-3.5h17.3v6.9h-13.8v3.5h10.4v3.5h3.5v10.4h-3.5v3.5h-17.3v-6.9h13.8v-3.5h-10.4v-3.5h-3.5
		V1069.9z"/>
	<path class="st4" d="M-949.2,1069.9h3.5v-3.5h17.3v6.9h-13.8v3.5h10.4v3.5h3.5v10.4h-3.5v3.5h-17.3v-6.9h13.8v-3.5h-10.4v-3.5h-3.5
		V1069.9z"/>
	<path class="st4" d="M-893.9,1094.1h-6.9v-24.2h3.5v-3.5h13.8v3.5h3.5v24.2h-6.9v-10.4h-6.9V1094.1z M-886.9,1076.8v-3.5h-6.9v3.5
		H-886.9z"/>
	<path class="st4" d="M-866.2,1080.3h-3.5v13.8h-6.9v-27.6h6.9v3.5h3.5v3.5h3.5v-6.9h6.9v27.6h-6.9v-10.4h-3.5V1080.3z"/>
	<path class="st4" d="M-852.4,1066.4h6.9v10.4h6.9v-10.4h6.9v13.8h-3.5v3.5h-3.5v10.4h-6.9v-10.4h-3.5v-3.5h-3.5V1066.4z"/>
	<path class="st4" d="M-797.1,1094.1h-6.9v-27.6h6.9v6.9h3.5v-3.5h3.5v-3.5h6.9v6.9h-3.5v3.5h-3.5v6.9h3.5v3.5h3.5v6.9h-6.9v-3.5
		h-3.5v-3.5h-3.5V1094.1z"/>
	<path class="st4" d="M-776.4,1090.6h-3.5v-20.7h3.5v-3.5h17.3v6.9h-13.8v3.5h6.9v6.9h-6.9v3.5h13.8v6.9h-17.3V1090.6z"/>
	<path class="st4" d="M-755.6,1066.4h6.9v10.4h6.9v-10.4h6.9v13.8h-3.5v3.5h-3.5v10.4h-6.9v-10.4h-3.5v-3.5h-3.5V1066.4z"/>
	<path class="st4" d="M-707.2,1066.4h20.7v6.9h-6.9v20.7h-6.9v-20.7h-6.9V1066.4z"/>
	<path class="st4" d="M-683.1,1069.9h3.5v-3.5h13.8v3.5h3.5v20.7h-3.5v3.5h-13.8v-3.5h-3.5V1069.9z M-676.1,1087.2h6.9v-13.8h-6.9
		V1087.2z"/>
	<path class="st4" d="M-627.8,1094.1h-6.9v-27.6h17.3v3.5h3.5v10.4h-3.5v3.5h-10.4V1094.1z M-627.8,1076.8h6.9v-3.5h-6.9V1076.8z"/>
	<path class="st4" d="M-607,1090.6h-3.5v-24.2h6.9v20.7h13.8v6.9H-607V1090.6z"/>
	<path class="st4" d="M-579.4,1094.1h-6.9v-24.2h3.5v-3.5h13.8v3.5h3.5v24.2h-6.9v-10.4h-6.9V1094.1z M-572.5,1076.8v-3.5h-6.9v3.5
		H-572.5z"/>
	<path class="st4" d="M-562.1,1066.4h6.9v10.4h6.9v-10.4h6.9v13.8h-3.5v3.5h-3.5v10.4h-6.9v-10.4h-3.5v-3.5h-3.5V1066.4z"/>
	<path class="st4" d="M-513.7,1076.8h20.7v6.9h-20.7V1076.8z"/>
</g>
<path class="st31" d="M1667.5,374.7h-2.2h-10.8h-38.7H1603H76.4H63.5H24.8H11.9H-1v22.6v840.8v11.3v33.9v11.3v11.3h25.8H1603h12.9
	h38.7h10.8h2.2h12.9V374.7H1667.5z M1654.6,431.2v818.2v11.3h-12.9v11.3h-12.9v11.3h-12.9H63.5H50.6V1272H37.7v-11.3H24.8v-11.3
	V431.2v-11.3h12.9v-11.3h12.9v-11.3h12.9h204.3h135.5h1212.7h12.9v11.3h12.9v11.3h12.9V431.2z"/>
<polygon class="st32" points="387.5,17.4 387.5,8.7 377.7,8.7 20.9,8.7 20.9,92.1 377,92.1 377,83.4 377.7,83.4 387.5,83.4 
	387.5,76.5 387.5,74.7 397.4,74.7 397.4,67.7 397.4,17.4 "/>
<polygon class="st31" points="387,8.7 387,0 377.2,0 9.9,0 9.9,7 9.9,8.7 0,8.7 0,59 9.8,59 9.8,66 9.9,66 9.9,74.7 20.4,74.7 
	20.4,83.4 376.5,83.4 376.5,74.7 377.2,74.7 387,74.7 387,67.8 387,66 396.9,66 396.9,59 396.9,8.7 "/>
<rect x="-61.9" y="224.8" class="st13" width="92.2" height="32.8"/>
<text transform="matrix(1 0 0 1 -40.7967 242.9596)" class="st4" style="font-family:'EditUndoBRK'; font-size:31.5429px;">DMG</text>
<g>
	<g>
		<polygon class="st22" points="137.9,259.2 392.6,259.2 392.6,241.2 137.9,241.2 137.9,241.3 137.9,246.4 130.9,246.4 130.9,254 
			137.9,254 137.9,259.1 		"/>
	</g>
	<polygon class="st22" points="401.2,246.3 401.2,241.2 401.2,241.2 345.5,241.2 345.5,259.2 401.2,259.2 401.2,259.1 401.2,254 
		408.1,254 408.1,246.3 	"/>
</g>
<g class="st33">
	<polygon class="st34" points="781.5,472.3 781.5,394.3 691.5,394.3 691.5,404.4 681.5,404.4 681.5,462.2 691.5,462.2 691.5,472.3 	
		"/>
	<polygon class="st34" points="1016.5,403.4 1016.5,393.3 1006.4,393.3 924.5,393.3 924.5,471.3 1006.4,471.3 1016.5,471.3 
		1016.5,461.2 1026.5,461.2 1026.5,403.4 	"/>
	<rect x="701.5" y="403.3" class="st34" width="305" height="78"/>
</g>
<g>
	<polygon class="st31" points="791.5,472.3 791.5,394.3 701.5,394.3 701.5,404.4 691.5,404.4 691.5,462.2 701.5,462.2 701.5,472.3 	
		"/>
	<polygon class="st31" points="781.5,462.3 781.5,384.3 691.5,384.3 691.5,394.4 681.5,394.4 681.5,452.2 691.5,452.2 691.5,462.3 	
		"/>
	<polygon class="st31" points="1006.5,404.4 1006.5,394.3 996.4,394.3 914.5,394.3 914.5,472.3 996.4,472.3 1006.5,472.3 
		1006.5,462.2 1016.5,462.2 1016.5,404.4 	"/>
	<polygon class="st31" points="1016.5,394.4 1016.5,384.3 1006.4,384.3 924.5,384.3 924.5,462.3 1006.4,462.3 1016.5,462.3 
		1016.5,452.2 1026.5,452.2 1026.5,394.4 	"/>
	<rect x="791.5" y="394.3" class="st31" width="123" height="78"/>
</g>
<g>
	<polygon class="st35" points="791.5,462.3 791.5,384.3 701.5,384.3 701.5,394.4 691.5,394.4 691.5,452.2 701.5,452.2 701.5,462.3 	
		"/>
	<polygon class="st35" points="1006.5,394.4 1006.5,384.3 996.4,384.3 928.5,384.3 928.5,462.3 996.4,462.3 1006.5,462.3 
		1006.5,452.2 1016.5,452.2 1016.5,394.4 	"/>
</g>
<g class="st33">
	<polygon class="st34" points="781.5,208.7 781.5,130.7 691.5,130.7 691.5,140.8 681.5,140.8 681.5,198.7 691.5,198.7 691.5,208.7 	
		"/>
	<polygon class="st34" points="1016.5,139.8 1016.5,129.7 1006.4,129.7 924.5,129.7 924.5,207.7 1006.4,207.7 1016.5,207.7 
		1016.5,197.7 1026.5,197.7 1026.5,139.8 	"/>
	<rect x="701.5" y="139.7" class="st34" width="305" height="78"/>
</g>
<g>
	<polygon class="st31" points="791.5,208.7 791.5,130.7 701.5,130.7 701.5,140.8 691.5,140.8 691.5,198.7 701.5,198.7 701.5,208.7 	
		"/>
	<polygon class="st31" points="781.5,198.7 781.5,120.7 691.5,120.7 691.5,130.8 681.5,130.8 681.5,188.7 691.5,188.7 691.5,198.7 	
		"/>
	<polygon class="st31" points="1006.5,140.8 1006.5,130.7 996.4,130.7 914.5,130.7 914.5,208.7 996.4,208.7 1006.5,208.7 
		1006.5,198.7 1016.5,198.7 1016.5,140.8 	"/>
	<polygon class="st31" points="1016.5,130.8 1016.5,120.7 1006.4,120.7 924.5,120.7 924.5,198.7 1006.4,198.7 1016.5,198.7 
		1016.5,188.7 1026.5,188.7 1026.5,130.8 	"/>
	<rect x="791.5" y="130.7" class="st31" width="123" height="78"/>
</g>
<g>
	<polygon class="st35" points="791.5,198.7 791.5,120.7 701.5,120.7 701.5,130.8 691.5,130.8 691.5,188.7 701.5,188.7 701.5,198.7 	
		"/>
	<polygon class="st35" points="1006.5,130.8 1006.5,120.7 996.4,120.7 928.5,120.7 928.5,198.7 996.4,198.7 1006.5,198.7 
		1006.5,188.7 1016.5,188.7 1016.5,130.8 	"/>
</g>
<rect x="776.5" y="384.3" class="st35" width="169" height="78"/>
<rect x="776.5" y="120.7" class="st35" width="169" height="78"/>
<g>
	<rect x="771.5" y="416.5" class="st13" width="179" height="81.8"/>
	<text transform="matrix(1 0 0 1 793.56 444.1826)" class="st4" style="font-family:'EditUndoBRK'; font-size:48px;">124 KM</text>
</g>
<g>
	<rect x="1657.1" y="394.3" class="st32" width="8" height="2"/>
	<polygon class="st32" points="1576,394.3 1576,404.4 1566.1,404.4 1566.1,462.2 1576,462.2 1576,472.2 1576,472.2 1576,472.3 
		1585.9,472.3 1585.9,482.3 1641.1,482.3 1641.1,394.3 	"/>
</g>
<polygon class="st31" points="1666.1,394.3 1666.1,384.3 1576.1,384.3 1576.1,394.4 1566.1,394.4 1566.1,452.2 1576.1,452.2 
	1576.1,462.2 1576.1,462.2 1576.1,462.3 1586.1,462.3 1586.1,472.3 1676.1,472.3 1676.1,394.3 "/>
<g>
	<g>
		<g>
			<polygon class="st2" points="1636.1,405.8 1630.8,405.8 1598.3,405.8 1598.3,411.2 1593,411.2 1593,449 1598.3,449 1598.3,454.3 
				1630.8,454.3 1636.1,454.3 1636.1,449 1641.5,449 1641.5,411.2 1636.1,411.2 			"/>
			<polygon class="st3" points="1636.4,400.1 1631,400.1 1598.3,400.1 1598.3,405.5 1593,405.5 1593,443.5 1598.3,443.5 
				1598.3,448.9 1631,448.9 1636.4,448.9 1636.4,443.5 1641.8,443.5 1641.8,405.5 1636.4,405.5 			"/>
		</g>
		<g>
			<rect x="1605.9" y="429.2" class="st4" width="24.2" height="4.8"/>
			<rect x="1605.9" y="418" class="st4" width="24.2" height="4.8"/>
		</g>
	</g>
	<g class="st33">
		<polygon class="st36" points="1598.3,454.5 1598.3,459.5 1603.7,459.5 1636.4,459.5 1636.4,454.5 1603.7,454.5 		"/>
		<rect x="1593" y="449.1" class="st36" width="5.4" height="5"/>
		<rect x="1636.4" y="449.1" class="st36" width="5.4" height="5"/>
	</g>
</g>
<g>
	<rect x="1657.1" y="170.6" class="st32" width="8" height="2"/>
	<polygon class="st32" points="1576,170.6 1576,180.7 1566.1,180.7 1566.1,238.6 1576,238.6 1576,248.6 1576,248.6 1576,248.6 
		1585.9,248.6 1585.9,258.6 1641.1,258.6 1641.1,170.6 	"/>
</g>
<polygon class="st31" points="1666.1,170.6 1666.1,160.6 1576.1,160.6 1576.1,170.7 1566.1,170.7 1566.1,228.6 1576.1,228.6 
	1576.1,238.6 1576.1,238.6 1576.1,238.6 1586.1,238.6 1586.1,248.6 1676.1,248.6 1676.1,170.6 "/>
<g>
	<g>
		<g>
			<polygon class="st2" points="1636.1,62.6 1630.8,62.6 1598.3,62.6 1598.3,67.9 1593,67.9 1593,105.7 1598.3,105.7 1598.3,111.1 
				1630.8,111.1 1636.1,111.1 1636.1,105.7 1641.5,105.7 1641.5,67.9 1636.1,67.9 			"/>
			<polygon class="st3" points="1636.4,56.8 1631,56.8 1598.3,56.8 1598.3,62.2 1593,62.2 1593,100.3 1598.3,100.3 1598.3,105.6 
				1631,105.6 1636.4,105.6 1636.4,100.3 1641.8,100.3 1641.8,62.2 1636.4,62.2 			"/>
		</g>
		<g>
			<rect x="1605.9" y="85.9" class="st4" width="24.2" height="4.8"/>
			<rect x="1605.9" y="74.8" class="st4" width="24.2" height="4.8"/>
		</g>
	</g>
	<g class="st33">
		<polygon class="st36" points="1598.3,111.2 1598.3,116.2 1603.7,116.2 1636.4,116.2 1636.4,111.2 1603.7,111.2 		"/>
		<rect x="1593" y="105.8" class="st36" width="5.4" height="5"/>
		<rect x="1636.4" y="105.8" class="st36" width="5.4" height="5"/>
	</g>
</g>
<polygon class="st22" points="164.5,141.6 164.5,137.8 154.9,137.8 154.5,137.8 145.2,137.8 144.9,137.8 135.6,137.8 135.2,137.8 
	125.6,137.8 125.6,141.6 120.8,141.6 120.8,147 125.6,147 125.6,150.7 125.8,150.7 130.1,150.7 130.9,150.7 135.1,150.7 
	135.2,150.7 135.5,150.7 135.6,150.7 139.7,150.7 140.5,150.7 144.7,150.7 144.9,150.7 145.1,150.7 145.2,150.7 149.3,150.7 
	150.1,150.7 154.3,150.7 154.5,150.7 154.7,150.7 154.9,150.7 158.9,150.7 159.8,150.7 164,150.7 164.5,150.7 164.5,147.1 
	169,147.1 169,141.6 "/>
<polygon class="st22" points="171.2,-95.3 171.2,-99 161.6,-99 161.2,-99 152,-99 151.6,-99 142.3,-99 142,-99 132.3,-99 
	132.3,-95.3 127.6,-95.3 127.6,-89.9 132.3,-89.9 132.3,-86.1 132.6,-86.1 136.8,-86.1 137.6,-86.1 141.8,-86.1 142,-86.1 
	142.2,-86.1 142.3,-86.1 146.4,-86.1 147.2,-86.1 151.4,-86.1 151.6,-86.1 151.8,-86.1 152,-86.1 156,-86.1 156.9,-86.1 
	161.1,-86.1 161.2,-86.1 161.5,-86.1 161.6,-86.1 165.7,-86.1 166.5,-86.1 170.7,-86.1 171.2,-86.1 171.2,-89.8 175.7,-89.8 
	175.7,-95.3 "/>
<polygon class="st37" points="325.1,-95.3 325.1,-99 315.5,-99 315.1,-99 305.8,-99 305.5,-99 296.2,-99 295.8,-99 286.8,-99 
	286.2,-99 277.2,-99 276.8,-99 267.5,-99 267.2,-99 257.9,-99 257.5,-99 248.3,-99 247.9,-99 238.6,-99 238.3,-99 229,-99 
	228.6,-99 219.4,-99 219,-99 209.7,-99 209.4,-99 200.1,-99 199.7,-99 190.5,-99 190.1,-99 180.9,-99 180.5,-99 171.2,-99 
	170.8,-99 161.6,-99 161.2,-99 152,-99 151.6,-99 142.3,-99 142,-99 132.3,-99 132.3,-95.3 127.6,-95.3 127.6,-89.9 132.3,-89.9 
	132.3,-86.1 132.6,-86.1 136.8,-86.1 137.6,-86.1 141.8,-86.1 142,-86.1 142.2,-86.1 142.3,-86.1 146.4,-86.1 147.2,-86.1 
	151.4,-86.1 151.6,-86.1 151.8,-86.1 152,-86.1 156,-86.1 156.9,-86.1 161.1,-86.1 161.2,-86.1 161.5,-86.1 161.6,-86.1 
	165.7,-86.1 166.5,-86.1 170.7,-86.1 170.8,-86.1 171.1,-86.1 171.2,-86.1 175.3,-86.1 176.1,-86.1 180.3,-86.1 180.5,-86.1 
	180.7,-86.1 180.9,-86.1 184.9,-86.1 185.8,-86.1 190,-86.1 190.1,-86.1 190.4,-86.1 190.5,-86.1 194.6,-86.1 195.4,-86.1 
	199.6,-86.1 199.7,-86.1 200,-86.1 200.1,-86.1 204.2,-86.1 205,-86.1 209.2,-86.1 209.4,-86.1 209.6,-86.1 209.7,-86.1 
	213.8,-86.1 214.6,-86.1 218.8,-86.1 219,-86.1 219.2,-86.1 219.4,-86.1 223.5,-86.1 224.3,-86.1 228.5,-86.1 228.6,-86.1 
	228.9,-86.1 229,-86.1 233.1,-86.1 233.9,-86.1 238.1,-86.1 238.3,-86.1 238.5,-86.1 238.6,-86.1 242.7,-86.1 243.5,-86.1 
	247.7,-86.1 247.9,-86.1 248.1,-86.1 248.3,-86.1 252.3,-86.1 253.2,-86.1 257.4,-86.1 257.5,-86.1 257.8,-86.1 257.9,-86.1 
	262,-86.1 262.8,-86.1 267,-86.1 267.2,-86.1 267.4,-86.1 267.5,-86.1 271.6,-86.1 272.4,-86.1 276.6,-86.1 276.8,-86.1 277,-86.1 
	277.2,-86.1 281.2,-86.1 282.1,-86.1 286.2,-86.1 286.3,-86.1 286.4,-86.1 286.8,-86.1 290.6,-86.1 291.5,-86.1 295.7,-86.1 
	295.8,-86.1 296.1,-86.1 296.2,-86.1 300.3,-86.1 301.1,-86.1 305.3,-86.1 305.5,-86.1 305.7,-86.1 305.8,-86.1 309.9,-86.1 
	310.7,-86.1 314.9,-86.1 315.1,-86.1 315.3,-86.1 315.5,-86.1 319.5,-86.1 320.4,-86.1 324.6,-86.1 325.1,-86.1 325.1,-89.8 
	329.6,-89.8 329.6,-95.3 "/>
<g>
	<polygon class="st31" points="1876.1,1283.3 1881.4,1283.3 1894.3,1283.3 1894.3,1272 1907.2,1272 1907.2,1260.7 1920.1,1260.7 
		1920.1,1249.4 1920.1,1236 1945.9,1236 1945.9,1238.1 1945.9,1249.4 1945.9,1283.3 1945.9,1294.6 1945.9,1305.9 1920.1,1305.9 
		1876.1,1305.9 	"/>
</g>
<g>
	<polygon class="st31" points="1942.3,1236.1 1942.3,1241.4 1942.3,1254.3 1953.6,1254.3 1953.6,1267.2 1964.9,1267.2 
		1964.9,1280.1 1976.2,1280.1 1989.5,1280.1 1989.5,1305.9 1987.5,1305.9 1976.2,1305.9 1942.3,1305.9 1931,1305.9 1919.7,1305.9 
		1919.7,1280.1 1919.7,1236.1 	"/>
</g>
<g>
	<polygon class="st31" points="1890.1,1283.3 1890.1,1288.6 1890.1,1301.5 1901.4,1301.5 1901.4,1314.4 1912.7,1314.4 
		1912.7,1327.3 1924,1327.3 1937.4,1327.3 1937.4,1353.1 1935.3,1353.1 1924,1353.1 1890.1,1353.1 1878.8,1353.1 1867.5,1353.1 
		1867.5,1327.3 1867.5,1283.3 	"/>
</g>
<g>
	<polygon class="st31" points="1808.9,1283.3 1803.6,1283.3 1790.7,1283.3 1790.7,1272 1777.8,1272 1777.8,1260.7 1764.9,1260.7 
		1764.9,1249.4 1764.9,1236 1739.1,1236 1739.1,1238.1 1739.1,1249.4 1739.1,1283.3 1739.1,1294.6 1739.1,1305.9 1764.9,1305.9 
		1808.9,1305.9 	"/>
</g>
<g>
	<polygon class="st31" points="1864.3,1330.5 1859,1330.5 1846.1,1330.5 1846.1,1319.2 1833.2,1319.2 1833.2,1307.9 1820.3,1307.9 
		1820.3,1296.6 1820.3,1283.2 1794.5,1283.2 1794.5,1285.3 1794.5,1296.6 1794.5,1330.5 1794.5,1341.8 1794.5,1353.1 1820.3,1353.1 
		1864.3,1353.1 	"/>
</g>
<g>
	<polygon class="st31" points="1741.9,1246.9 1741.9,1252.2 1741.9,1265.1 1730.6,1265.1 1730.6,1278 1719.3,1278 1719.3,1290.9 
		1708,1290.9 1694.6,1290.9 1694.6,1316.7 1696.7,1316.7 1708,1316.7 1741.9,1316.7 1753.2,1316.7 1764.5,1316.7 1764.5,1290.9 
		1764.5,1246.9 	"/>
</g>
</svg>
