<!-- Generator: Adobe Illustrator 19.2.1, SVG Export Plug-In  -->
<svg version="1.1"
	 xmlns="http://www.w3.org/2000/svg" xmlns:xlink="http://www.w3.org/1999/xlink" xmlns:a="http://ns.adobe.com/AdobeSVGViewerExtensions/3.0/"
	 x="0px" y="0px" width="397.4px" height="92.1px" viewBox="0 0 397.4 92.1" style="enable-background:new 0 0 397.4 92.1;"
	 xml:space="preserve">
<style type="text/css">
	.st0{opacity:0.38;fill:#2D3D3E;enable-background:new    ;}
	.st1{fill:#5B2616;}
</style>
<defs>
</defs>
<polygon class="st0" points="387.6,17.5 387.6,8.7 377.7,8.7 20.9,8.7 20.9,92.1 377,92.1 377,83.5 377.7,83.5 387.6,83.5
	387.6,76.5 387.6,74.7 397.4,74.7 397.4,67.8 397.4,17.5 "/>
<polygon class="st1" points="387.1,8.8 387.1,0 377.2,0 9.9,0 9.9,7 9.9,8.8 0,8.8 0,59.1 9.8,59.1 9.8,66 9.9,66 9.9,74.8
	20.4,74.8 20.4,83.5 376.5,83.5 376.5,74.8 377.2,74.8 387.1,74.8 387.1,67.8 387.1,66 397,66 397,59.1 397,8.8 "/>
</svg>
