<svg id="Layer_1" xmlns="http://www.w3.org/2000/svg" xmlns:xlink="http://www.w3.org/1999/xlink" width="202.1" height="13.1" viewBox="0 0 202.1 13.1"><style>.st0{fill:#5895b7}.st1{opacity:.8}.st2{fill:#c17620}.st3{fill:#f4c24a}.st4{fill:#fff}.st5{fill:#2a6fba}.st6{fill:#4abaef}.st7{fill:#95c9c8}.st8{fill:#ddefee}.st9{fill:#1b8e6f}.st10{fill:#3cea8a}.st11{opacity:.4;fill:#666}.st12{fill:#33bc6e}.st13{fill:none}.st14{fill:#7149a4}.st15{fill:#bd86e0}.st16{opacity:.4;fill:#666;stroke:#666;stroke-width:4;stroke-linejoin:bevel;stroke-miterlimit:10}.st17{fill:#f2f2f2}.st18{fill:#e6e6e6}.st19{fill:none;stroke:#000;stroke-width:4;stroke-linejoin:bevel;stroke-miterlimit:10}.st20{fill:#c6e0de}.st21{fill:#a7c6c3}.st22{fill:#ee3d53}.st23{fill:none;stroke:#000;stroke-width:2;stroke-miterlimit:10}.st24{fill:#a17559}.st25{fill:#910e46}.st26{fill:#238d6f}.st27{fill:#704ca2}.st28{fill:#47e88d}.st29{fill:#bc88de}.st30{fill:#ccc}.st31{fill:#5b2616}.st32{fill:#2d3d3e}.st32,.st33{opacity:.38}.st34{fill:#2d3d3e}.st35{fill:#3f180f}.st36{fill:#1a1a1a}.st37{fill:#38140c}</style><path class="st0" d="M-1076.6 2305.1h484v82h-484z"/><path class="st0" d="M-624.6 2379.1h107v30h-107z"/><g class="st1"><path class="st0" d="M-1060.6 2325.1v82h-96v-11h12v-12h12v-12h12v-12h-12v-12h-12v-12h-12v-11z"/><path class="st0" d="M-1074.6 2383.1l14 23-.1-23z"/></g><path class="st2" d="M-613.6 2317.1v82h96v-11h-12v-12h-12v-12h-12v-12h12v-12h12v-12h12v-11z"/><path class="st3" d="M-613.6 2306.1v82h96v-11h-12v-12h-12v-12h-12v-12h12v-12h12v-12h12v-11z"/><path class="st2" d="M-599.6 2375.1l-14 23v-23zm-470-58v82h-96v-11h12v-12h12v-12h12v-12h-12v-12h-12v-12h-12v-11z"/><path class="st3" d="M-1069.6 2306.1v82h-96v-11h12v-12h12v-12h12v-12h-12v-12h-12v-12h-12v-11z"/><path class="st2" d="M-1083.6 2375.1l14 23-.1-23zm0-82h484v82h-484z"/><path class="st3" d="M-1083.6 2281.1h484v82h-484z"/><path class="st4" d="M-1013 2340.8h-8.6v-34.6h8.6v13h8.6v-13h8.6v34.6h-8.6v-13h-8.6v13zm21.6-30.2h4.3v-4.3h17.3v4.3h4.3v25.9h-4.3v4.3h-17.3v-4.3h-4.3v-25.9zm8.6 21.6h8.6v-17.3h-8.6v17.3zm30.3 8.6h-8.6v-34.6h8.6v17.3h4.3v-4.3h4.3v4.3h4.3v-17.3h8.6v34.6h-8.6v-4.3h-4.3v-4.3h-4.3v4.3h-4.3v4.3zm56.1-34.5h25.9v8.6h-8.6v25.9h-8.6v-25.9h-8.6v-8.6zm30.3 4.3h4.3v-4.3h17.3v4.3h4.3v25.9h-4.3v4.3h-17.3v-4.3h-4.3v-25.9zm8.6 21.6h8.6v-17.3h-8.6v17.3zm60.5 8.6h-8.6v-34.6h21.6v4.3h4.3v13h-4.3v4.3h-13v13zm0-21.6h8.6v-4.3h-8.6v4.3zm25.9 17.3h-4.3v-30.2h8.6v25.9h17.3v8.6h-21.6v-4.3zm34.6 4.3h-8.6v-30.2h4.3v-4.3h17.3v4.3h4.3v30.2h-8.6v-13h-8.6v13zm8.6-21.6v-4.3h-8.6v4.3h8.6zm13-12.9h8.6v13h8.6v-13h8.6v17.3h-4.3v4.3h-4.3v13h-8.6v-13h-4.3v-4.3h-4.3v-17.3z"/><path class="st5" d="M-907.6 2574.1h-85v12h-12v85h12v12h85v-12h12v-85h-12z"/><path class="st5" d="M-907.6 2574.1h-85v12h-12v85h12v12h85v-12h12v-85h-12z"/><path class="st4" d="M-968 2608.3h28.4v5.7h5.7v17.1h-5.7v5.7h-17.1v-11.4h11.4v-5.7H-968v-11.4zm11.3 34.1h11.4v11.4h-11.4v-11.4z"/><path class="st5" d="M-756.6 2574.1h-85v12h-12v85h12v12h85v-12h12v-85h-12z"/><path class="st6" d="M-756.6 2564.1h-85v12h-12v85h12v12h85v-12h12v-85h-12z"/><path class="st4" d="M-817 2598.3h28.4v5.7h5.7v17.1h-5.7v5.7h-17.1v-11.4h11.4v-5.7H-817v-11.4zm11.3 34.1h11.4v11.4h-11.4v-11.4z"/><path class="st0" d="M278.4 2418.6h-11.6v-11.7h-11.6v-12.8h-498.7v12.8h-11.6v11.7h-11.5v684.7h11.5v11.7h11.6v12.8h498.7V3115h11.6v-11.7h11.6z"/><path class="st7" d="M278.4 2406.6h-11.6v-11.7h-11.6v-12.8h-498.7v12.8h-11.6v11.7h-11.5v684.7h11.5v11.6h11.6v12.8h498.7v-12.8h11.6v-11.6h11.6z"/><path class="st8" d="M278.4 2394.5h-11.6v-11.6h-11.6v-12.8h-498.7v12.8h-11.6v11.6h-11.5v684.8h11.5v11.6h11.6v12.8h498.7v-12.8h11.6v-11.6h11.6z"/><path class="st0" d="M-1207.6 426h-4.1v-4.1h-4.1v-4.5H-1392v4.5h-4.1v4.1h-4.1v242h4.1v4.1h4.1v4.5h176.2v-4.5h4.1V668h4.1z"/><path class="st7" d="M-1207.6 421.8h-4.1v-4.1h-4.1v-4.6H-1392v4.6h-4.1v4.1h-4.1v241.9h4.1v4.1h4.1v4.6h176.2v-4.6h4.1v-4.1h4.1z"/><path class="st8" d="M-1207.6 417.5h-4.1v-4.1h-4.1v-4.5H-1392v4.5h-4.1v4.1h-4.1v242h4.1v4.1h4.1v4.5h176.2v-4.5h4.1v-4.1h4.1z"/><path class="st9" d="M-770.6 2054.1h-385v10h-10v57.9h10v10.1h385V2122h10.1v-57.9h-10.1z"/><path class="st10" d="M-770.6 2044.1h-385v10h-10v57.9h10v10.1h385V2112h10.1v-57.9h-10.1z"/><path class="st4" d="M-1045.6 2095h-6.9v-27.6h17.3v3.5h3.5v10.4h-3.5v3.5h-10.4v10.2zm0-17.3h6.9v-3.5h-6.9v3.5zm20.8 13.8h-3.5v-24.2h6.9v20.7h13.8v6.9h-17.3v-3.4zm27.6 3.5h-6.9v-24.2h3.5v-3.5h13.8v3.5h3.5v24.2h-6.9v-10.4h-6.9v10.4zm6.9-17.3v-3.5h-6.9v3.5h6.9zm10.4-10.4h6.9v10.4h6.9v-10.4h6.9v13.8h-3.5v3.5h-3.5v10.4h-6.9v-10.4h-3.5v-3.5h-3.5v-13.8zm27.6 24.2h-3.5v-20.7h3.5v-3.5h17.3v6.9h-13.8v3.5h6.9v6.9h-6.9v3.5h13.8v6.9h-17.3v-3.5zm31.1-6.9h-3.5v10.4h-6.9v-27.6h17.3v3.5h3.5v10.4h-3.5v3.5h3.5v10.4h-6.9v-6.9h-3.5v-3.7zm-3.4-6.9h6.9v-3.5h-6.9v3.5zm41.4-10.4h6.9v27.6h-6.9v-27.6z"/><path class="st11" d="M-1131.5 1933.5l-1.9-5.8-4.1-12-17.8 6 2 5.8-5.8 1.9 4.1 12.1 5.8-2 1.9 5.8 12-4.1-1.9-5.8zm38.8-12.1l-1.9-5.7-4.1-12.1-17.8 6.1 2 5.7-5.8 2 4.1 12 5.7-1.9 2 5.7 12-4-1.9-5.8z"/><path transform="rotate(-18.702 -1148.637 1894.021)" d="M-1152.2 1874.5h7.1v38.6h-7.1z"/><path d="M-1133.1 1928.7l-1.9-5.8-4.1-12-17.8 6 2 5.8-5.8 1.9 4.1 12.1 5.7-2 2 5.8 12-4.1-2-5.8z"/><path transform="rotate(-18.702 -1110.165 1880.991)" d="M-1113.7 1861.4h7.1v38.6h-7.1z"/><path d="M-1094.6 1915.7l-2-5.8-4-12-17.8 6 1.9 5.8-5.8 1.9 4.1 12 5.8-1.9 1.9 5.8 12.1-4.1-2-5.8z"/><path transform="rotate(-18.702 -1138.359 1861.058)" d="M-1162.2 1852.2h47.7v17.3h-47.7z"/><path class="st11" d="M-1065.2 1967.1l.9-4.2 1.9-8.6-12.8-2.8-.9 4.1-4.2-.9-1.9 8.6 4.2 1-1 4.1 8.7 1.9.9-4.1zm27.5 6.7l.9-4.1 1.9-8.6-12.8-2.9-.9 4.2-4.2-.9-1.9 8.6 4.2.9-.9 4.2 8.6 1.9.9-4.2z"/><path transform="rotate(12.41 -1061.123 1937.05)" d="M-1063.7 1923.7h5v26.9h-5z"/><path d="M-1064.5 1963.6l.9-4.1 1.9-8.7-12.8-2.8-.9 4.2-4.1-1-1.9 8.7 4.1.9-.9 4.1 8.7 1.9.9-4.1z"/><path transform="rotate(12.41 -1033.463 1943.137)" d="M-1036 1929.8h5v26.9h-5z"/><path d="M-1036.8 1969.7l.9-4.1 1.9-8.7-12.8-2.8-.9 4.1-4.2-.9-1.9 8.7 4.2.9-.9 4.1 8.6 1.9.9-4.1z"/><path transform="rotate(12.41 -1043.11 1921.077)" d="M-1059.8 1915.2h33.3v12h-33.3z"/><path class="st11" d="M-989.2 1905.3l-.7-3.1-1.4-6.3-9.4 2.1.7 3-3.1.7 1.4 6.3 3.1-.6.7 3 6.3-1.4-.7-3zm20.4-4l-.7-3.1-1.4-6.3-9.4 2.1.7 3-3.1.7 1.5 6.3 3-.6.7 3 6.3-1.4-.7-3.1z"/><path transform="rotate(-12.552 -995.8 1883.948)" d="M-997.6 1874.2h3.6v19.8h-3.6z"/><path d="M-989.8 1902.7l-.7-3-1.4-6.4-9.4 2.1.7 3.1-3 .7 1.4 6.3 3-.7.7 3.1 6.3-1.4-.6-3.1z"/><path transform="rotate(-12.552 -975.493 1879.428)" d="M-977.3 1869.7h3.6v19.8h-3.6z"/><path d="M-969.5 1898.2l-.7-3-1.4-6.4-9.4 2.1.7 3.1-3 .6 1.4 6.4 3-.7.7 3.1 6.3-1.5-.6-3z"/><path transform="rotate(-12.552 -988.754 1867.727)" d="M-1001 1863.4h24.4v8.8h-24.4z"/><path class="st11" d="M-968.6 1951l2.6-4.1 5.4-8.5-12.6-8.1-2.7 4.1-4.1-2.6-5.4 8.6 4.1 2.6-2.6 4.1 8.6 5.4 2.6-4.1zm27 18.2l2.6-4.2 5.4-8.5-12.7-8.1-2.6 4.1-4.1-2.6-5.4 8.6 4.1 2.6-2.6 4.1 8.5 5.5 2.7-4.2z"/><path transform="rotate(32.435 -952.425 1920.42)" d="M-955.3 1904.9h5.7v30.9h-5.7z"/><path d="M-966.4 1947.6l2.6-4.1 5.4-8.6-12.7-8-2.6 4.1-4.1-2.6-5.4 8.5 4.1 2.7-2.6 4.1 8.5 5.4 2.6-4.1z"/><path transform="rotate(32.435 -924.998 1937.846)" d="M-927.9 1922.4h5.7v30.9h-5.7z"/><path d="M-939 1965l2.6-4.1 5.4-8.5-12.6-8.1-2.7 4.1-4.1-2.6-5.4 8.6 4.1 2.6-2.6 4.1 8.6 5.4 2.6-4.1z"/><path transform="rotate(32.435 -926.731 1910.277)" d="M-945.9 1903.3h38.2v13.8h-38.2z"/><path class="st9" d="M-1247.4 1510.6h-253v6.6h-6.6v38.1h6.6v6.6h253v-6.6h6.6v-38.1h-6.6z"/><path class="st12" d="M-1247.4 1510.6h-253v6.6h-6.6v38.1h6.6v6.6h253v-6.6h6.6v-38.1h-6.6z"/><path class="st4" d="M-1440.6 1528.2h2.3v-2.3h11.4v4.5h-9.1v9.1h9.1v4.5h-11.4v-2.3h-2.3v-13.5zm20.5 15.9h-4.5v-15.9h2.3v-2.3h9.1v2.3h2.3v15.9h-4.5v-6.8h-4.5v6.8zm4.5-11.4v-2.3h-4.5v2.3h4.5zm9.1 9.1h-2.3v-15.9h4.5v13.6h9.1v4.5h-11.4v-2.2zm13.6-15.9h4.5v18.2h-4.5v-18.2zm6.8 0h11.4v2.3h2.3v13.6h-2.3v2.3h-11.4v-18.2zm4.6 6.8h4.5v-2.3h-4.5v2.3zm0 6.8h4.5v-2.3h-4.5v2.3zm18.2-2.3h-2.3v6.8h-4.5v-15.9h2.3v-2.3h9.1v2.3h2.3v6.8h-2.3v2.3h2.3v6.8h-4.5v-4.5h-2.3v-2.3zm-2.3-4.5h4.5v-2.3h-4.5v2.3zm15.9 11.4h-4.5v-15.9h2.3v-2.3h9.1v2.3h2.3v15.9h-4.5v-6.8h-4.5v6.8zm4.5-11.4v-2.3h-4.5v2.3h4.5zm6.8-6.8h13.6v4.5h-4.5v13.6h-4.5v-13.6h-4.5v-4.5zm18.2 15.9h-2.3v-13.6h2.3v-2.3h11.4v4.5h-9.1v2.3h4.5v4.5h-4.5v2.3h9.1v4.5h-11.4v-2.2z"/><path class="st9" d="M-927.4 1578.6h-253v6.6h-6.6v38.1h6.6v6.6h253v-6.6h6.6v-38.1h-6.6z"/><path class="st10" d="M-927.4 1572.1h-253v6.6h-6.6v38h6.6v6.6h253v-6.6h6.6v-38h-6.6z"/><path class="st4" d="M-1120.6 1589.6h2.3v-2.3h11.4v4.5h-9.1v9.1h9.1v4.5h-11.4v-2.3h-2.3v-13.5zm20.5 15.9h-4.5v-15.9h2.3v-2.3h9.1v2.3h2.3v15.9h-4.5v-6.8h-4.5v6.8zm4.5-11.4v-2.3h-4.5v2.3h4.5zm9.1 9.1h-2.3v-15.9h4.5v13.6h9.1v4.5h-11.4v-2.2zm13.6-15.9h4.5v18.2h-4.5v-18.2zm6.8 0h11.4v2.3h2.3v13.6h-2.3v2.3h-11.4v-18.2zm4.6 6.8h4.5v-2.3h-4.5v2.3zm0 6.8h4.5v-2.3h-4.5v2.3zm18.2-2.2h-2.3v6.8h-4.5v-15.9h2.3v-2.3h9.1v2.3h2.3v6.8h-2.3v2.3h2.3v6.8h-4.5v-4.5h-2.3v-2.3zm-2.3-4.6h4.5v-2.3h-4.5v2.3zm15.9 11.4h-4.5v-15.9h2.3v-2.3h9.1v2.3h2.3v15.9h-4.5v-6.8h-4.5v6.8zm4.5-11.4v-2.3h-4.5v2.3h4.5zm6.8-6.8h13.6v4.5h-4.5v13.6h-4.5v-13.6h-4.5v-4.5zm18.2 15.9h-2.3v-13.6h2.3v-2.3h11.4v4.5h-9.1v2.3h4.5v4.5h-4.5v2.3h9.1v4.5h-11.4v-2.2z"/><path class="st9" d="M-1185.4 1661h219.8v28.8h-219.8z"/><path class="st9" d="M-1190.2 1654.4h229.4v30.6h-229.4z"/><path class="st10" d="M-1190.2 1650.1v29.2h4.8v5.7h219.8v-5.7h4.8v-29.2z"/><path class="st9" d="M-970.4 1664.9v-5.1h-5.1v-.1h-200v.1h-5.1v5.1h-5.1v7.6h5.1v5.1h5.1v.1h205.1v-5.1h5.1v-7.7z"/><path class="st13" d="M-1194.3 1759h4.7v.1h-4.7zm0 17.9h4.7v.1h-4.7z"/><path class="st4" d="M-1173.3 1776.9v-5.1h5.1v-7.6h-5.1v-5.1h-5.1v-.1h-15.9v17.9h4.7v.1h11.2v-.1zm-46.8-53.5v-5.1h-5.1v-.1h-15.9v18h21v-5.1h5.1v-7.7zm-13.5 38.9v-5.2h-9.6v.1h-.1v5.1h-5v7.6h5v5.1h.1v.1h9.6v-5.2h5.1v-7.6zm-49.8-97.4v-5.2h-9.6v5.2h-5.1v7.6h5.1v5.2h9.6v-5.1h5.1v-7.7z"/><path class="st14" d="M-317.6 2054.1h-385v10h-10v57.9h10v10.1h385V2122h10.1v-57.9h-10.1z"/><path class="st15" d="M-317.6 2044.1h-385v10h-10v57.9h10v10.1h385V2112h10.1v-57.9h-10.1z"/><path class="st4" d="M-600 2095h-6.9v-27.6h17.3v3.5h3.5v10.4h-3.5v3.5H-600v10.2zm0-17.3h6.9v-3.5h-6.9v3.5zm20.7 13.8h-3.5v-24.2h6.9v20.7h13.8v6.9h-17.3v-3.4zm27.7 3.5h-6.9v-24.2h3.5v-3.5h13.8v3.5h3.5v24.2h-6.9v-10.4h-6.9v10.4zm6.9-17.3v-3.5h-6.9v3.5h6.9zm10.4-10.4h6.9v10.4h6.9v-10.4h6.9v13.8h-3.5v3.5h-3.5v10.4h-6.9v-10.4h-3.5v-3.5h-3.5v-13.8zm27.6 24.2h-3.5v-20.7h3.5v-3.5h17.3v6.9h-13.8v3.5h6.9v6.9h-6.9v3.5h13.8v6.9h-17.3v-3.5zm31.1-6.9h-3.5v10.4h-6.9v-27.6h17.3v3.5h3.5v10.4h-3.5v3.5h3.5v10.4h-6.9v-6.9h-3.5v-3.7zm-3.4-6.9h6.9v-3.5h-6.9v3.5zm41.4-10.4h17.3v3.5h3.5v10.4h-3.5v3.5h-10.4v3.5h13.8v6.9h-20.7v-13.8h3.5v-3.5h10.4v-3.5h-13.8v-7zm-254-19.2h45.1v5.7h-45.1zm51.2 0h5.7v5.7h-5.7zm-505.7 1h45.1v5.7h-45.1zm51.2 0h5.7v5.7h-5.7z"/><path class="st16" d="M-757 1889.1l6.4 5.6-5.6 6.4 20.4 17.4v37.8l20.7-26.1 31.8 29.4 5.9-6.2 4.9 4.6 71.6-118.7z"/><path class="st17" d="M-759.5 1882l6.4 5.6-5.6 6.4 20.4 17.3v37.9l20.8-26.1 31.7 29.4 5.9-6.3 4.9 4.7 71.7-118.7z"/><path class="st18" d="M-717.5 1922.9l114.4-90.8-135.1 79v37.9z"/><path class="st19" d="M-760.5 1882.1l6.3 5.6-5.6 6.4 20.5 17.4v37.9l20.7-26.1 31.8 29.4 5.8-6.3 5 4.6 71.6-118.7z"/><path class="st20" d="M-824.7 1575.4V1739h10.4v9.5h10.4v10.5h447.4v-10.5h10.4v-9.5h10.4v-163.6zm489 0v-94.1h-10.4v-9.6h-10.4v-10.4h-447.4v10.4h-10.4v9.6h-10.4v94.1z"/><path class="st21" d="M-814.3 1477.9h10.4v-8h-10.4v7.9h-10.4v8h10.4zm10.4-16.7h447.5v8h-447.5zm457.8 16.6v-7.9h-10.4v8h10.4v7.9h10.4v-8z"/><path d="M-1217.8 1396.9h10.2v10.2h-10.2zm61.4-10.2v5.1h-5.1v5.1h5.1v20.5h5.1v5.1h-5.1v5.1h10.2v-10.2h15.4v5.1h5.1v-35.8h-30.7zm25.6 25.6h-20.5v-20.5h20.5v20.5z"/><path d="M-1146.2 1396.9h10.2v10.2h-10.2zm-71.6 71.7h10.2v10.2h-10.2zm61.4-10.3h5.1v5.1h-5.1zm-25.6 25.6h5.1v5.1h-5.1zm5.1-20.4h5.1v5.1h-5.1zm0 10.2h5.1v5.1h-5.1zm46.1-25.6h5.1v5.1h-5.1zm-97.3 0h5.1v5.1h-5.1zm0-25.6h5.1v5.1h-5.1zm56.3-30.7v5.1h-10.2v5.1h15.4v-10.2z"/><path d="M-1130.8 1427.6v5.1h-10.2v5.1h-15.4v-5.1h-5.1v5.1h-10.2v5.1h15.4v5.1h-15.3v-5.1h-5.1v5.1h-5.1v-5.1h-5.1v5.1h-5.1v5.1h10.2v5.1h5.1v-5.1h10.2v5.1h-5.1v5.1h5.1v10.2h5.1v5.1h5.1v-5.1h15.4v-10.2h5.1v-5.1h-5.1V1448h-10.2v-5.1h10.2v5.1h5.1v-5.1h5.1v-5.1h5.1v-10.2h-5.2zm-15.4 25.6v15.4h-15.4v-15.4h15.4zm-15.3-35.8h-5.1v5.1h-5.2v10.2h5.2v-5.1h5.1v-5.1h5.1v-5.1zm-10.3 66.5h10.2v5.1h-10.2zm-15.3-92.1h5.1v5.1h-5.1z"/><path d="M-1146.2 1427.6h5.1v5.1h-5.1zm5.2-5.1h5.1v5.1h-5.1zm-66.6 25.6h5.1v5.1h-5.1zm10.2 35.8v-20.5h5.1v-10.2h-5.1v5.1h-15.4v-5.1h-10.2v5.1h-5.1v30.7h40.9v-5.1h-10.2zm-5.1 0h-20.5v-20.5h20.5v20.5zm5.1-66.5h5.1v5.1h-5.1zm5.2-30.7h-35.8v30.7h5.1v5.1h5.1v-5.1h5.1v5.1h5.1v-5.1h10.2v-10.2h5.1v-5.1h-5.1v-10.2h10.2v-5.1h-5zm-10.3 25.6h-20.5v-20.5h20.5v20.5zm35.9-10.3h5.1v5.1h-5.1zm-10.3-15.3h5.1v5.1h-5.1z"/><path d="M-1166.6 1417.4v-5.1h-5.1v-5.1h-5.1v5.1h-10.2v-5.1h-5.1v10.2h5.1v10.2h-15.4v-5.1h-5.1v5.1h-15.4v5.1h10.2v5.1h-15.4v5.1h15.4v5.1h5.1v-5.1h5.1v5.1h5.1v-5.1h10.2v-5.1h-5.1v-5.1h10.2v5.1h10.2v-5.1h-5.1v-5.1h-5.1v-10.2h15.5zm-30.8 20.5h-10.2v-5.1h10.2v5.1zm15.4 30.7v-10.3h-5.1v5.2h-5.1v5.1h5.1v5.1h-5.1v5.1h10.2v-5.1h5.1v-5.1zm46.1 10.2v-5.1h-5.1v5.1h-15.4v5.1h10.2v5.2h5.2v-5.2h10.2v5.2h5.1v-10.3zm5.1-20.5v5.2h-5.1v5.1h10.2v-10.3z"/><path class="st9" d="M-1456.2 1802.8h-140.9v3.7h-3.6v21.1h3.6v3.7h140.9v-3.7h3.7v-21.1h-3.7z"/><path class="st12" d="M-1456.2 1802.8h-140.9v3.7h-3.6v21.1h3.6v3.7h140.9v-3.7h3.7v-21.1h-3.7z"/><path class="st4" d="M-1568.8 1817.6h-1.3v3.8h-2.5v-10.1h6.3v1.3h1.3v3.8h-1.3v1.3h1.3v3.8h-2.5v-2.5h-1.3v-1.4zm-1.3-2.5h2.5v-1.3h-2.5v1.3zm7.6 5h-1.3v-7.6h1.3v-1.3h6.3v2.5h-5.1v1.3h2.5v2.5h-2.5v1.3h5.1v2.5h-6.3v-1.2zm8.8 0h-1.3v-7.6h1.3v-1.3h5.1v1.3h1.3v2.5h-2.5v-1.3h-2.5v5.1h2.5v-1.3h2.5v2.5h-1.3v1.3h-5.1v-1.2zm10.2 1.3h-2.5v-8.9h1.3v-1.3h5.1v1.3h1.3v8.9h-2.5v-3.8h-2.5v3.8zm2.5-6.3v-1.3h-2.5v1.3h2.5zm5 5h-1.3v-8.9h2.5v7.6h5.1v2.5h-6.3v-1.2zm7.6-8.8h2.5v10.1h-2.5v-10.1zm3.8 0h6.3v1.3h1.3v7.6h-1.3v1.3h-6.3v-10.2zm2.6 3.8h2.5v-1.3h-2.5v1.3zm0 3.8h2.5v-1.3h-2.5v1.3zm10.1-1.3h-1.3v3.8h-2.5v-8.9h1.3v-1.3h5.1v1.3h1.3v3.8h-1.3v1.3h1.3v3.8h-2.5v-2.5h-1.3v-1.3zm-1.3-2.5h2.5v-1.3h-2.5v1.3zm8.9 6.3h-2.5v-8.9h1.3v-1.3h5.1v1.3h1.3v8.9h-2.5v-3.8h-2.5v3.8zm2.5-6.3v-1.3h-2.5v1.3h2.5zm3.8-3.8h7.6v2.5h-2.5v7.6h-2.5v-7.6h-2.5v-2.5zm10.1 8.8h-1.3v-7.6h1.3v-1.3h6.3v2.5h-5.1v1.3h2.5v2.5h-2.5v1.3h5.1v2.5h-6.3v-1.2zm-106.7-15.2h13.1v1.7h-13.1zm14.9 0h1.7v1.7h-1.7z"/><path class="st9" d="M-1456.2 1844.8h-140.9v3.7h-3.6v21.1h3.6v3.7h140.9v-3.7h3.7v-21.1h-3.7z"/><path class="st10" d="M-1456.2 1841.1h-140.9v3.7h-3.6v21.2h3.6v3.7h140.9v-3.7h3.7v-21.2h-3.7z"/><path class="st4" d="M-1568.8 1855.9h-1.3v3.8h-2.5v-10.1h6.3v1.3h1.3v3.8h-1.3v1.3h1.3v3.8h-2.5v-2.5h-1.3v-1.4zm-1.3-2.5h2.5v-1.3h-2.5v1.3zm7.6 5.1h-1.3v-7.6h1.3v-1.3h6.3v2.5h-5.1v1.3h2.5v2.5h-2.5v1.3h5.1v2.5h-6.3v-1.2zm8.8 0h-1.3v-7.6h1.3v-1.3h5.1v1.3h1.3v2.5h-2.5v-1.3h-2.5v5.1h2.5v-1.3h2.5v2.5h-1.3v1.3h-5.1v-1.2zm10.2 1.2h-2.5v-8.9h1.3v-1.3h5.1v1.3h1.3v8.9h-2.5v-3.8h-2.5v3.8zm2.5-6.3v-1.3h-2.5v1.3h2.5zm5 5.1h-1.3v-8.9h2.5v7.6h5.1v2.5h-6.3v-1.2zm7.6-8.9h2.5v10.1h-2.5v-10.1zm3.8 0h6.3v1.3h1.3v7.6h-1.3v1.3h-6.3v-10.2zm2.6 3.8h2.5v-1.3h-2.5v1.3zm0 3.8h2.5v-1.3h-2.5v1.3zm10.1-1.3h-1.3v3.8h-2.5v-8.9h1.3v-1.3h5.1v1.3h1.3v3.8h-1.3v1.3h1.3v3.8h-2.5v-2.5h-1.3v-1.3zm-1.3-2.5h2.5v-1.3h-2.5v1.3zm8.9 6.3h-2.5v-8.9h1.3v-1.3h5.1v1.3h1.3v8.9h-2.5v-3.8h-2.5v3.8zm2.5-6.3v-1.3h-2.5v1.3h2.5zm3.8-3.8h7.6v2.5h-2.5v7.6h-2.5v-7.6h-2.5v-2.5zm10.1 8.9h-1.3v-7.6h1.3v-1.3h6.3v2.5h-5.1v1.3h2.5v2.5h-2.5v1.3h5.1v2.5h-6.3v-1.2zm-106.7-14.6h13.1v1.7h-13.1zm14.9 0h1.7v1.7h-1.7zm404.9-268.3h23.6v3h-23.6zm26.7 0h3v3h-3zm-347.1-61.4h23.6v3h-23.6zm26.7 0h3v3h-3z"/><path class="st22" d="M-1525.3 1637.7v-7.5h-18.7v7.5h-7.4v18.6h7.4v7.5h18.7v-7.5h7.4v-18.6z"/><path class="st23" d="M-1543.4 1663.8v9.9m17.5-9.9v9.9"/><path class="st24" d="M-1526.9 1671.9h-15.5v2.1h-2.2v15.6h2.2v2.1h15.5v-2.1h2.2V1674h-2.2z"/><path class="st25" d="M-1458.2 2076.9v-7.9h-141.7v7.9h-8v45.6h8v7.9h141.7v-7.9h7.9v-45.6z"/><path class="st25" d="M-1458.2 2077v-7.9h-141.7v7.9h-8v45.6h8v7.9h141.7v-7.9h7.9V2077z"/><path class="st4" d="M-1561.7 2110.5h-5.4v-21.8h13.6v2.7h2.7v8.2h-2.7v2.7h-8.2v8.2zm0-13.7h5.4v-2.7h-5.4v2.7zm16.3 10.9h-2.7v-19h5.4v16.3h10.9v5.4h-13.6v-2.7zm21.8 2.8h-5.4v-19h2.7v-2.7h10.9v2.7h2.7v19h-5.4v-8.2h-5.4v8.2zm5.4-13.7v-2.7h-5.4v2.7h5.4zm8.2-8.1h5.4v8.2h5.4v-8.2h5.4v10.9h-2.7v2.7h-2.7v8.2h-5.4v-8.2h-2.7v-2.7h-2.7v-10.9z"/><path class="st25" d="M-1288.2 2076.9v-7.9h-141.7v7.9h-8v45.6h8v7.9h141.7v-7.9h7.9v-45.6z"/><path class="st22" d="M-1288.2 2069v-7.9h-141.7v7.9h-8v45.6h8v7.9h141.7v-7.9h7.9V2069z"/><path class="st4" d="M-1391.7 2102.5h-5.4v-21.8h13.6v2.7h2.7v8.2h-2.7v2.7h-8.2v8.2zm0-13.7h5.4v-2.7h-5.4v2.7zm16.3 10.9h-2.7v-19h5.4v16.3h10.9v5.4h-13.6v-2.7zm21.8 2.8h-5.4v-19h2.7v-2.7h10.9v2.7h2.7v19h-5.4v-8.2h-5.4v8.2zm5.4-13.7v-2.7h-5.4v2.7h5.4zm8.2-8.1h5.4v8.2h5.4v-8.2h5.4v10.9h-2.7v2.7h-2.7v8.2h-5.4v-8.2h-2.7v-2.7h-2.7v-10.9z"/><path class="st26" d="M-2281.8 1831.3h43.2v108h43.2v-108h43.2v129.6h-21.6v21.6h-21.6v21.6h-43.2v-21.6h-21.6v-21.6h-21.6v-129.6z"/><path class="st27" d="M-2130.6 1855h21.6v-21.6h108v43.2h-86.4v21.6h64.8v21.6h21.6v64.8h-21.6v21.6h-108V1963h86.4v-21.6h-64.8v-21.6h-21.6V1855z"/><path class="st28" d="M-2281.8 1810.2h43.2v108h43.2v-108h43.2v129.6h-21.6v21.6h-21.6v21.6h-43.2v-21.6h-21.6v-21.6h-21.6v-129.6z"/><path class="st29" d="M-2130.6 1831.8h21.6v-21.6h108v43.2h-86.4v21.6h64.8v21.6h21.6v64.8h-21.6v21.6h-108v-43.2h86.4v-21.6h-64.8v-21.6h-21.6v-64.8z"/><path class="st0" d="M-2232.4 2188.9h27.5v68.7h27.5v-68.7h27.5v82.4h-13.7v13.7h-13.7v13.7h-27.5V2285h-13.7v-13.7h-13.7v-82.4zm96.1 15h13.7v-13.7h68.7v27.5h-54.9v13.7h41.2v13.7h13.7v41.2h-13.7v13.7h-68.7v-27.5h54.9v-13.7h-41.2v-13.7h-13.7v-41.2z"/><path class="st7" d="M-2232.4 2174.4h27.5v68.7h27.5v-68.7h27.5v82.4h-13.7v13.7h-13.7v13.7h-27.5v-13.7h-13.7v-13.7h-13.7v-82.4zm96.1 15h13.7v-13.7h68.7v27.5h-54.9v13.7h41.2v13.7h13.7v41.2h-13.7v13.7h-68.7V2258h54.9v-13.7h-41.2v-13.7h-13.7v-41.2z"/><path class="st4" d="M-2232.4 2161h27.5v68.7h27.5V2161h27.5v82.4h-13.7v13.7h-13.7v13.7h-27.5v-13.7h-13.7v-13.7h-13.7V2161zm96.1 13.7h13.7V2161h68.7v27.5h-54.9v13.7h41.2v13.7h13.7v41.2h-13.7v13.7h-68.7v-27.5h54.9v-13.7h-41.2v-13.7h-13.7v-41.2z"/><path class="st0" d="M-1658 1329.2h-21.6v-86.4h54v10.8h10.8v32.4h-10.8v10.8h-32.4v32.4zm0-54h21.6v-10.8h-21.6v10.8zm54-21.6h10.8v-10.8h43.2v10.8h10.8v64.8h-10.8v10.8h-43.2v-10.8h-10.8v-64.8zm21.6 54h21.6v-43.2h-21.6v43.2zm64.8 10.8h-10.8v-75.6h21.6v64.8h43.2v21.6h-54v-10.8zm43.2-75.6h21.6v32.4h21.6v-32.4h21.6v43.2h-10.8v10.8h-10.8v32.4h-21.6v-32.4h-10.8V1286h-10.8v-43.2z"/><path class="st30" d="M-1658 1320.8h-21.6v-86.4h54v10.8h10.8v32.4h-10.8v10.8h-32.4v32.4zm0-54h21.6V1256h-21.6v10.8zm54-21.6h10.8v-10.8h43.2v10.8h10.8v64.8h-10.8v10.8h-43.2V1310h-10.8v-64.8zm21.6 54h21.6V1256h-21.6v43.2zm64.8 10.8h-10.8v-75.6h21.6v64.8h43.2v21.6h-54V1310z"/><path class="st30" d="M-1474.4 1234.4h21.6v32.4h21.6v-32.4h21.6v43.2h-10.8v10.8h-10.8v32.4h-21.6v-32.4h-10.8v-10.8h-10.8v-43.2z"/><path class="st4" d="M-1658 1312.6h-21.6v-86.4h54v10.8h10.8v32.4h-10.8v10.8h-32.4v32.4zm0-54h21.6v-10.8h-21.6v10.8zm54-21.6h10.8v-10.8h43.2v10.8h10.8v64.8h-10.8v10.8h-43.2v-10.8h-10.8V1237zm21.6 54h21.6v-43.2h-21.6v43.2zm64.8 10.8h-10.8v-75.6h21.6v64.8h43.2v21.6h-54v-10.8z"/><path class="st4" d="M-1474.4 1226.2h21.6v32.4h21.6v-32.4h21.6v43.2h-10.8v10.8h-10.8v32.4h-21.6v-32.4h-10.8v-10.8h-10.8v-43.2z"/><image width="843" height="1118" xlink:href="ED5D355621AE7008.jpg" transform="matrix(.24 0 0 .24 -1889.12 1376.371)" overflow="visible"/><g class="st1"><path class="st0" d="M-1331.2 1012.7v86.5h101.2v-11.6h-12.6v-12.7h-12.7v-12.6h-12.6v-12.7h12.6V1037h12.7v-12.7h12.6v-11.6z"/><path class="st0" d="M-1316.4 1073.9l-14.8 24.2.1-24.2z"/></g><path class="st0" d="M-1819.4 989.8h510.3v86.5h-510.3z"/><path class="st0" d="M-1342.8 1067.8h112.8v31.6h-112.8z"/><g class="st1"><path class="st0" d="M-1811.5 1012.9v86.4h-101.2v-11.6h12.6v-12.6h12.7v-12.7h12.6v-12.6h-12.6v-12.7h-12.7v-12.6h-12.6v-11.6z"/><path class="st0" d="M-1826.3 1074l14.8 24.3-.1-24.3z"/></g><path class="st2" d="M-1331.2 1002.4v86.5h101.2v-11.6h-12.6v-12.7h-12.7V1052h-12.6v-12.7h12.6v-12.6h12.7V1014h12.6v-11.6z"/><path class="st3" d="M-1331.2 990.8v86.5h101.2v-11.6h-12.6V1053h-12.7v-12.6h-12.6v-12.7h12.6v-12.6h12.7v-12.7h12.6v-11.6z"/><path class="st2" d="M-1316.4 1063.6l-14.8 24.2.1-24.2zm-495.6-61.2v86.5h-101.2v-11.6h12.6v-12.7h12.7V1052h12.6v-12.7h-12.6v-12.6h-12.7V1014h-12.6v-11.6z"/><path class="st3" d="M-1812 990.8v86.5h-101.2v-11.6h12.6V1053h12.7v-12.6h12.6v-12.7h-12.6v-12.6h-12.7v-12.7h-12.6v-11.6z"/><path class="st2" d="M-1826.8 1063.6l14.8 24.2-.1-24.2zm0-86.5h510.3v86.5h-510.3z"/><path class="st3" d="M-1826.8 964.5h510.3v86.5h-510.3z"/><path class="st25" d="M-1712.6 1039.4h-37.4v-59.9h37.4v7.5h7.5v15h-7.5v15h7.5v15h-7.5v7.4zm-22.5-37.4h15v-7.5h-15v7.5zm0 22.5h15v-7.5h-15v7.5zm52.4 14.9h-15V987h7.5v-7.5h30v7.5h7.5v52.4h-15V1017h-15v22.4zm15-37.4v-7.5h-15v7.5h15zm30 29.9h-7.5v-52.4h15v44.9h30v15h-37.4v-7.5zm52.4 0h-7.5v-52.4h15v44.9h30v15h-37.4v-7.5zm44.9-44.9h7.5v-7.5h30v7.5h7.5v44.9h-7.5v7.5h-30v-7.5h-7.5V987zm15 37.5h15v-30h-15v30zm37.5-37.5h7.5v-7.5h30v7.5h7.5v44.9h-7.5v7.5h-30v-7.5h-7.5V987zm14.9 37.5h15v-30h-15v30zm60-15h-7.5v30h-15v-59.9h15v7.5h7.5v7.5h7.5v-15h15v59.9h-15V1017h-7.5v-7.5z"/><path class="st22" d="M-1712.6 1033.6h-37.4v-59.9h37.4v7.5h7.5v15h-7.5v15h7.5v15h-7.5v7.4zm-22.5-37.4h15v-7.5h-15v7.5zm0 22.4h15v-7.5h-15v7.5zm52.4 15h-15v-52.4h7.5v-7.5h30v7.5h7.5v52.4h-15v-22.5h-15v22.5zm15-37.4v-7.5h-15v7.5h15zm30 29.9h-7.5v-52.4h15v44.9h30v15h-37.4v-7.5zm52.4 0h-7.5v-52.4h15v44.9h30v15h-37.4v-7.5zm44.9-44.9h7.5v-7.5h30v7.5h7.5v44.9h-7.5v7.5h-30v-7.5h-7.5v-44.9zm15 37.4h15v-30h-15v30zm37.5-37.4h7.5v-7.5h30v7.5h7.5v44.9h-7.5v7.5h-30v-7.5h-7.5v-44.9zm14.9 37.4h15v-30h-15v30zm60-14.9h-7.5v30h-15v-59.9h15v7.5h7.5v7.5h7.5v-15h15v59.9h-15v-22.5h-7.5v-7.5z"/><path class="st0" d="M-1221 1186.2h20.7v6.9h-20.7v-6.9zm55.3 17.2h-6.9v-27.6h17.3v3.5h3.5v10.4h-3.5v3.5h-10.4v10.2zm0-17.2h6.9v-3.5h-6.9v3.5zm27.7 6.9h-3.5v10.4h-6.9v-27.6h17.3v3.5h3.5v10.4h-3.5v3.5h3.5v10.4h-6.9v-6.9h-3.5v-3.7zm-3.5-6.9h6.9v-3.5h-6.9v3.5zm20.7 13.8h-3.5v-20.7h3.5v-3.5h17.3v6.9h-13.8v3.5h6.9v6.9h-6.9v3.5h13.8v6.9h-17.3v-3.5zm20.8-20.7h3.5v-3.5h17.3v6.9h-13.8v3.5h10.4v3.5h3.5v10.4h-3.5v3.5h-17.3v-6.9h13.8v-3.5h-10.4v-3.5h-3.5v-10.4zm24.2 0h3.5v-3.5h17.3v6.9h-13.8v3.5h10.4v3.5h3.5v10.4h-3.5v3.5h-17.3v-6.9h13.8v-3.5h-10.4v-3.5h-3.5v-10.4zm55.3 24.1h-6.9v-24.2h3.5v-3.5h13.8v3.5h3.5v24.2h-6.9V1193h-6.9v10.4zm6.9-17.2v-3.5h-6.9v3.5h6.9zm20.7 3.4h-3.5v13.8h-6.9v-27.6h6.9v3.5h3.5v3.5h3.5v-6.9h6.9v27.6h-6.9v-10.4h-3.5v-3.5zm13.8-13.8h6.9v10.4h6.9v-10.4h6.9v13.8h-3.5v3.5h-3.5v10.4h-6.9v-10.4h-3.5v-3.5h-3.5v-13.8zm55.3 27.6h-6.9v-27.6h6.9v6.9h3.5v-3.5h3.5v-3.5h6.9v6.9h-3.5v3.5h-3.5v6.9h3.5v3.5h3.5v6.9h-6.9v-3.5h-3.5v-3.5h-3.5v7zm20.8-3.4h-3.5v-20.7h3.5v-3.5h17.3v6.9h-13.8v3.5h6.9v6.9h-6.9v3.5h13.8v6.9H-903v-3.5zm20.7-24.2h6.9v10.4h6.9v-10.4h6.9v13.8h-3.5v3.5h-3.5v10.4h-6.9v-10.4h-3.5v-3.5h-3.5v-13.8zm48.4 0h20.7v6.9h-6.9v20.7h-6.9v-20.7h-6.9v-6.9zm24.2 3.5h3.5v-3.5h13.8v3.5h3.5v20.7h-3.5v3.5h-13.8v-3.5h-3.5v-20.7zm6.9 17.2h6.9v-13.8h-6.9v13.8zm48.4 6.9h-6.9v-27.6h17.3v3.5h3.5v10.4h-3.5v3.5h-10.4v10.2zm0-17.2h6.9v-3.5h-6.9v3.5zm20.7 13.8h-3.5v-24.2h6.9v20.7h13.8v6.9h-17.3v-3.4zm27.6 3.4h-6.9v-24.2h3.5v-3.5h13.8v3.5h3.5v24.2h-6.9V1193h-6.9v10.4zm7-17.2v-3.5h-6.9v3.5h6.9zm10.3-10.4h6.9v10.4h6.9v-10.4h6.9v13.8h-3.5v3.5h-3.5v10.4h-6.9v-10.4h-3.5v-3.5h-3.5v-13.8zm48.4 10.4h20.7v6.9h-20.7v-6.9z"/><path class="st30" d="M-1221.9 1180.3h20.7v6.9h-20.7v-6.9zm55.3 17.2h-6.9v-27.6h17.3v3.5h3.5v10.4h-3.5v3.5h-10.4v10.2zm0-17.2h6.9v-3.5h-6.9v3.5zm27.7 6.9h-3.5v10.4h-6.9V1170h17.3v3.5h3.5v10.4h-3.5v3.5h3.5v10.4h-6.9v-6.9h-3.5v-3.7zm-3.5-6.9h6.9v-3.5h-6.9v3.5zm20.8 13.8h-3.5v-20.7h3.5v-3.5h17.3v6.9h-13.8v3.5h6.9v6.9h-6.9v3.5h13.8v6.9h-17.3v-3.5zm20.7-20.7h3.5v-3.5h17.3v6.9h-13.8v3.5h10.4v3.5h3.5v10.4h-3.5v3.5h-17.3v-6.9h13.8v-3.5h-10.4v-3.5h-3.5v-10.4zm24.2 0h3.5v-3.5h17.3v6.9h-13.8v3.5h10.4v3.5h3.5v10.4h-3.5v3.5h-17.3v-6.9h13.8v-3.5h-10.4v-3.5h-3.5v-10.4zm55.3 24.1h-6.9v-24.2h3.5v-3.5h13.8v3.5h3.5v24.2h-6.9v-10.4h-6.9v10.4zm6.9-17.2v-3.5h-6.9v3.5h6.9zm20.7 3.4h-3.5v13.8h-6.9v-27.6h6.9v3.5h3.5v3.5h3.5v-6.9h6.9v27.6h-6.9v-10.4h-3.5v-3.5zm13.9-13.8h6.9v10.4h6.9v-10.4h6.9v13.8h-3.5v3.5h-3.5v10.4h-6.9v-10.4h-3.5v-3.5h-3.5v-13.8zm55.3 27.6h-6.9v-27.6h6.9v6.9h3.5v-3.5h3.5v-3.5h6.9v6.9h-3.5v3.5h-3.5v6.9h3.5v3.5h3.5v6.9h-6.9v-3.5h-3.5v-3.5h-3.5v7zm20.7-3.4h-3.5v-20.7h3.5v-3.5h17.3v6.9h-13.8v3.5h6.9v6.9h-6.9v3.5h13.8v6.9h-17.3v-3.5zm20.7-24.2h6.9v10.4h6.9v-10.4h6.9v13.8h-3.5v3.5h-3.5v10.4h-6.9v-10.4h-3.5v-3.5h-3.5v-13.8zm48.4 0h20.7v6.9h-6.9v20.7h-6.9v-20.7h-6.9v-6.9zm24.2 3.5h3.5v-3.5h13.8v3.5h3.5v20.7h-3.5v3.5h-13.8v-3.5h-3.5v-20.7zm6.9 17.2h6.9v-13.8h-6.9v13.8zm48.4 6.9h-6.9v-27.6h17.3v3.5h3.5v10.4h-3.5v3.5h-10.4v10.2zm0-17.2h6.9v-3.5h-6.9v3.5zm20.7 13.8h-3.5v-24.2h6.9v20.7h13.8v6.9h-17.3v-3.4zm27.7 3.4h-6.9v-24.2h3.5v-3.5h13.8v3.5h3.5v24.2h-6.9v-10.4h-6.9v10.4zm6.9-17.2v-3.5h-6.9v3.5h6.9zm10.4-10.4h6.9v10.4h6.9v-10.4h6.9v13.8h-3.5v3.5h-3.5v10.4h-6.9v-10.4h-3.5v-3.5h-3.5v-13.8zm48.3 10.4h20.7v6.9h-20.7v-6.9z"/><path class="st4" d="M-1221.9 1175.9h20.7v6.9h-20.7v-6.9zm55.3 17.2h-6.9v-27.6h17.3v3.5h3.5v10.4h-3.5v3.5h-10.4v10.2zm0-17.2h6.9v-3.5h-6.9v3.5zm27.7 6.9h-3.5v10.4h-6.9v-27.6h17.3v3.5h3.5v10.4h-3.5v3.5h3.5v10.4h-6.9v-6.9h-3.5v-3.7zm-3.5-6.9h6.9v-3.5h-6.9v3.5zm20.8 13.8h-3.5V1169h3.5v-3.5h17.3v6.9h-13.8v3.5h6.9v6.9h-6.9v3.5h13.8v6.9h-17.3v-3.5zm20.7-20.8h3.5v-3.5h17.3v6.9h-13.8v3.5h10.4v3.5h3.5v10.4h-3.5v3.5h-17.3v-6.9h13.8v-3.5h-10.4v-3.5h-3.5v-10.4zm24.2 0h3.5v-3.5h17.3v6.9h-13.8v3.5h10.4v3.5h3.5v10.4h-3.5v3.5h-17.3v-6.9h13.8v-3.5h-10.4v-3.5h-3.5v-10.4zm55.3 24.2h-6.9v-24.2h3.5v-3.5h13.8v3.5h3.5v24.2h-6.9v-10.4h-6.9v10.4zm6.9-17.2v-3.5h-6.9v3.5h6.9zm20.7 3.4h-3.5v13.8h-6.9v-27.6h6.9v3.5h3.5v3.5h3.5v-6.9h6.9v27.6h-6.9v-10.4h-3.5v-3.5zm13.9-13.8h6.9v10.4h6.9v-10.4h6.9v13.8h-3.5v3.5h-3.5v10.4h-6.9v-10.4h-3.5v-3.5h-3.5v-13.8zm55.3 27.6h-6.9v-27.6h6.9v6.9h3.5v-3.5h3.5v-3.5h6.9v6.9h-3.5v3.5h-3.5v6.9h3.5v3.5h3.5v6.9h-6.9v-3.5h-3.5v-3.5h-3.5v7zm20.7-3.4h-3.5V1169h3.5v-3.5h17.3v6.9h-13.8v3.5h6.9v6.9h-6.9v3.5h13.8v6.9h-17.3v-3.5zm20.7-24.2h6.9v10.4h6.9v-10.4h6.9v13.8h-3.5v3.5h-3.5v10.4h-6.9v-10.4h-3.5v-3.5h-3.5v-13.8zm48.4 0h20.7v6.9h-6.9v20.7h-6.9v-20.7h-6.9v-6.9zm24.2 3.4h3.5v-3.5h13.8v3.5h3.5v20.7h-3.5v3.5h-13.8v-3.5h-3.5v-20.7zm6.9 17.3h6.9v-13.8h-6.9v13.8zm48.4 6.9h-6.9v-27.6h17.3v3.5h3.5v10.4h-3.5v3.5h-10.4v10.2zm0-17.2h6.9v-3.5h-6.9v3.5zm20.7 13.8h-3.5v-24.2h6.9v20.7h13.8v6.9h-17.3v-3.4zm27.7 3.4h-6.9v-24.2h3.5v-3.5h13.8v3.5h3.5v24.2h-6.9v-10.4h-6.9v10.4zm6.9-17.2v-3.5h-6.9v3.5h6.9zm10.4-10.4h6.9v10.4h6.9v-10.4h6.9v13.8h-3.5v3.5h-3.5v10.4h-6.9v-10.4h-3.5v-3.5h-3.5v-13.8zm48.3 10.4h20.7v6.9h-20.7v-6.9z"/><path class="st31" d="M1540 473.7H-128.5v931.2H1553V473.7h-13zm-12.9 56.5v829.5h-12.9v11.3h-12.9v11.3H-76.9V1371h-12.9v-11.3h-12.9V518.9h12.9v-11.3h12.9v-11.3h1578.3v11.3h12.9v11.3h12.9v11.3z"/><path class="st32" d="M260 116.5v-8.8h-366.7v83.4h356.1v-8.6H260v-8.8h9.8v-57.2z"/><path class="st31" d="M259.5 107.8V99h-377.2v8.8h-9.9v50.3h9.8v6.9h.1v8.8h10.5v8.7h356.1v-8.7h10.6V165h9.9v-57.2z"/><path class="st13" d="M-189.5 323.8h92.2v32.8h-92.2z"/><text transform="translate(-168.347 342.002)" class="st4" font-family="EditUndoBRK" font-size="31.543">DMG</text><path class="st22" d="M10.3 358.2H265v-18H10.3v5.2H3.4v7.7h6.9v5.1z"/><path class="st22" d="M273.7 345.4v-5.2H218v18h55.7V353h6.9v-7.6z"/><g class="st33"><path class="st34" d="M653.9 571.3v-78H564v10.1h-10.1v57.9H564v10zm235-68.9v-10.1h-92v78h92v-10H899v-57.9z"/><path class="st34" d="M573.9 502.3h305v78h-305z"/></g><path class="st31" d="M663.9 571.3v-78H574v10.1h-10.1v57.9H574v10z"/><path class="st31" d="M653.9 561.3v-78H564v10.1h-10.1v57.9H564v10zm225-57.9v-10.1h-92v78h92v-10H889v-57.9z"/><path class="st31" d="M888.9 493.4v-10.1h-92v78h92v-10H899v-57.9zm-225-.1h123v78h-123z"/><path class="st35" d="M663.9 561.3v-78H574v10.1h-10.1v57.9H574v10zm215-67.9v-10.1h-78v78h78v-10H889v-57.9z"/><g class="st33"><path class="st34" d="M653.9 307.8v-78H564v10h-10.1v57.9H564v10.1zm235-69v-10h-92v78h92v-10.1H899v-57.9z"/><path class="st34" d="M573.9 238.8h305v78h-305z"/></g><path class="st31" d="M663.9 307.8v-78H574v10h-10.1v57.9H574v10.1z"/><path class="st31" d="M653.9 297.8v-78H564v10h-10.1v57.9H564v10.1zm225-58v-10h-92v78h92v-10.1H889v-57.9z"/><path class="st31" d="M888.9 229.8v-10h-92v78h92v-10.1H899v-57.9zm-225 0h123v78h-123z"/><path class="st35" d="M663.9 297.8v-78H574v10h-10.1v57.9H574v10.1zm215-68v-10h-78v78h78v-10.1H889v-57.9z"/><path class="st35" d="M648.9 483.3h169v78h-169zm0-263.5h169v78h-169z"/><path class="st13" d="M643.9 515.6h179v81.8h-179z"/><text transform="translate(666.01 543.225)" class="st4" font-family="EditUndoBRK" font-size="48">124 KM</text><path class="st32" d="M1529.5 493.3h8v2h-8zm-81 0v10.1h-10v57.9h9.9v10h10v10h55.1v-88z"/><path class="st31" d="M1538.5 493.3v-10h-89.9v10.1h-10.1v57.9h10v10h10.1v10h89.9v-78z"/><path class="st2" d="M1508.6 504.9h-37.8v5.3h-5.4V548h5.4v5.3h37.8V548h5.3v-37.8h-5.3z"/><path class="st3" d="M1508.8 499.1h-38v5.4h-5.4v38.1h5.4v5.3h38v-5.3h5.4v-38.1h-5.4z"/><path class="st4" d="M1478.3 528.2h24.2v4.8h-24.2zm0-11.2h24.2v4.8h-24.2z"/><g class="st33"><path class="st36" d="M1470.8 553.5v5h38v-5h-32.6zm-5.4-5.4h5.4v5h-5.4zm43.4 0h5.4v5h-5.4z"/></g><path class="st32" d="M1529.5 269.7h8v2h-8zm-81 0v10.1h-10v57.8h9.9v10h.1v.1h9.9v10h55.1v-88z"/><path class="st31" d="M1538.5 269.7v-10h-89.9v10.1h-10.1v57.8h10v10h.1v.1h10v10h89.9v-78z"/><path class="st2" d="M1508.6 161.6h-37.8v5.4h-5.4v37.8h5.4v5.3h37.8v-5.3h5.3V167h-5.3z"/><path class="st3" d="M1508.8 155.9h-38v5.4h-5.4v38h5.4v5.4h38v-5.4h5.4v-38h-5.4z"/><path class="st4" d="M1478.3 185h24.2v4.8h-24.2zm0-11.2h24.2v4.8h-24.2z"/><g class="st33"><path class="st36" d="M1470.8 210.3v5h38v-5h-32.6zm-5.4-5.4h5.4v5h-5.4zm43.4 0h5.4v5h-5.4z"/></g><path class="st22" d="M37 240.6v-3.7H-1.9v3.7h-4.8v5.5h4.8v3.7H37v-3.7h4.4v-5.5zM43.7 3.8V0H4.8v3.7H0v5.5h4.8v3.7h38.9V9.2h4.5V3.8z"/><path class="st37" d="M197.5 3.8V0H4.8v3.7H0v5.5h4.8v3.7h192.7V9.2h4.5V3.8z"/><path class="st31" d="M1748.5 1382.3h18.3V1371h12.9v-11.3h12.9v-24.6h25.8v69.8h-69.9z"/><path class="st31" d="M1814.7 1335.1v18.3h11.3v12.9h11.3v12.9h24.7v25.8h-69.9v-69.9zm-52.1 47.2v18.2h11.3v12.9h11.3v12.9h24.7v25.8H1740v-69.8zm-81.2 0h-18.3V1371h-12.9v-11.3h-12.9v-24.6h-25.8v69.8h69.9z"/><path class="st31" d="M1736.8 1429.6h-18.2v-11.3h-12.9V1407h-12.9v-24.7H1667v69.8h69.8zm-122.5-83.7v18.3H1603v12.9h-11.3v12.9h-24.6v25.8h69.8v-69.9z"/></svg>