<svg id="Layer_1" xmlns="http://www.w3.org/2000/svg" xmlns:xlink="http://www.w3.org/1999/xlink" width="397" height="91.7" viewBox="0 0 397 91.7"><style>.st0{fill:#5895b7}.st1{opacity:.8}.st2{fill:#c17620}.st3{fill:#f4c24a}.st4{fill:#fff}.st5{fill:#2a6fba}.st6{fill:#4abaef}.st7{fill:#95c9c8}.st8{fill:#ddefee}.st9{fill:#1b8e6f}.st10{fill:#3cea8a}.st11{opacity:.4;fill:#666}.st12{fill:#33bc6e}.st13{fill:none}.st14{fill:#7149a4}.st15{fill:#bd86e0}.st16{opacity:.4;fill:#666;stroke:#666;stroke-width:4;stroke-linejoin:bevel;stroke-miterlimit:10}.st17{fill:#f2f2f2}.st18{fill:#e6e6e6}.st19{fill:none;stroke:#000;stroke-width:4;stroke-linejoin:bevel;stroke-miterlimit:10}.st20{fill:#c6e0de}.st21{fill:#a7c6c3}.st22{fill:#ee3d53}.st23{fill:none;stroke:#000;stroke-width:2;stroke-miterlimit:10}.st24{fill:#a17559}.st25{fill:#910e46}.st26{fill:#238d6f}.st27{fill:#704ca2}.st28{fill:#47e88d}.st29{fill:#bc88de}.st30{fill:#ccc}.st31{fill:#5b2616}.st32{fill:#2d3d3e}.st32,.st33{opacity:.38}.st34{fill:#2d3d3e}.st35{fill:#3f180f}.st36{fill:#1a1a1a}.st37{fill:#38140c}</style><path class="st0" d="M-949.1 2206h484v82h-484z"/><path class="st0" d="M-497.1 2280h107v30h-107z"/><g class="st1"><path class="st0" d="M-933.1 2226v82h-96v-11h12v-12h12v-12h12v-12h-12v-12h-12v-12h-12v-11z"/><path class="st0" d="M-947.1 2284l14 23v-23z"/></g><path class="st2" d="M-486.1 2218v82h96v-11h-12v-12h-12v-12h-12v-12h12v-12h12v-12h12v-11z"/><path class="st3" d="M-486.1 2207v82h96v-11h-12v-12h-12v-12h-12v-12h12v-12h12v-12h12v-11z"/><path class="st2" d="M-472.1 2276l-14 23 .1-23zm-470-58v82h-96v-11h12v-12h12v-12h12v-12h-12v-12h-12v-12h-12v-11z"/><path class="st3" d="M-942.1 2207v82h-96v-11h12v-12h12v-12h12v-12h-12v-12h-12v-12h-12v-11z"/><path class="st2" d="M-956.1 2276l14 23v-23zm0-82h484v82h-484z"/><path class="st3" d="M-956.1 2182h484v82h-484z"/><path class="st4" d="M-885.5 2241.8h-8.6v-34.6h8.6v13h8.6v-13h8.6v34.6h-8.6v-13h-8.6v13zm21.6-30.2h4.3v-4.3h17.3v4.3h4.3v25.9h-4.3v4.3h-17.3v-4.3h-4.3v-25.9zm8.7 21.6h8.6v-17.3h-8.6v17.3zm30.2 8.6h-8.6v-34.6h8.6v17.3h4.3v-4.3h4.3v4.3h4.3v-17.3h8.6v34.6h-8.6v-4.3h-4.3v-4.3h-4.3v4.3h-4.3v4.3zm56.2-34.6h25.9v8.6h-8.6v25.9h-8.6v-25.9h-8.6v-8.6zm30.2 4.4h4.3v-4.3h17.3v4.3h4.3v25.9h-4.3v4.3h-17.3v-4.3h-4.3v-25.9zm8.6 21.6h8.6v-17.3h-8.6v17.3zm60.5 8.6h-8.6v-34.6h21.6v4.3h4.3v13h-4.3v4.3h-13v13zm0-21.6h8.6v-4.3h-8.6v4.3zm25.9 17.3h-4.3v-30.2h8.6v25.9h17.3v8.6h-21.6v-4.3zm34.6 4.3h-8.6v-30.2h4.3v-4.3h17.3v4.3h4.3v30.2h-8.6v-13h-8.6v13zm8.6-21.6v-4.3h-8.6v4.3h8.6zm13-13h8.6v13h8.6v-13h8.6v17.3h-4.3v4.3h-4.3v13h-8.6v-13h-4.3v-4.3h-4.3v-17.3z"/><path class="st5" d="M-780.1 2475h-85v12h-12v85h12v12h85v-12h12v-85h-12z"/><path class="st5" d="M-780.1 2475h-85v12h-12v85h12v12h85v-12h12v-85h-12z"/><path class="st4" d="M-840.5 2509.2h28.4v5.7h5.7v17.1h-5.7v5.7h-17.1v-11.4h11.4v-5.7h-22.8v-11.4zm11.4 34.2h11.4v11.4h-11.4v-11.4z"/><path class="st5" d="M-629.1 2475h-85v12h-12v85h12v12h85v-12h12v-85h-12z"/><path class="st6" d="M-629.1 2465h-85v12h-12v85h12v12h85v-12h12v-85h-12z"/><path class="st4" d="M-689.5 2499.2h28.4v5.7h5.7v17.1h-5.7v5.7h-17.1v-11.4h11.4v-5.7h-22.8v-11.4zm11.4 34.2h11.4v11.4h-11.4v-11.4z"/><path class="st0" d="M405.9 2319.6h-11.6v-11.7h-11.5v-12.8h-498.7v12.8h-11.6v11.7h-11.6v684.7h11.6v11.6h11.6v12.8h498.7v-12.8h11.5v-11.6h11.6z"/><path class="st7" d="M405.9 2307.5h-11.6v-11.6h-11.5v-12.8h-498.7v12.8h-11.6v11.6h-11.6v684.7h11.6v11.7h11.6v12.8h498.7v-12.8h11.5v-11.7h11.6z"/><path class="st8" d="M405.9 2295.5h-11.6v-11.6h-11.5V2271h-498.7v12.9h-11.6v11.6h-11.6v684.7h11.6v11.7h11.6v12.8h498.7v-12.8h11.5v-11.7h11.6z"/><path class="st0" d="M-1080.1 327h-4v-4.1h-4.1v-4.6h-176.3v4.6h-4v4.1h-4.1v241.9h4.1v4.1h4v4.6h176.3V573h4.1v-4.1h4z"/><path class="st7" d="M-1080.1 322.7h-4v-4.1h-4.1v-4.5h-176.3v4.5h-4v4.1h-4.1v242h4.1v4.1h4v4.5h176.3v-4.5h4.1v-4.1h4z"/><path class="st8" d="M-1080.1 318.5h-4v-4.1h-4.1v-4.6h-176.3v4.6h-4v4.1h-4.1v241.9h4.1v4.1h4v4.6h176.3v-4.6h4.1v-4.1h4z"/><path class="st9" d="M-643.1 1955H-1028v10.1h-10.1v57.9h10.1v10h384.9v-10h10.1v-57.9h-10.1z"/><path class="st10" d="M-643.1 1945H-1028v10.1h-10.1v57.9h10.1v10h384.9v-10h10.1v-57.9h-10.1z"/><path class="st4" d="M-918 1995.9h-6.9v-27.6h17.3v3.5h3.5v10.4h-3.5v3.5H-918v10.2zm0-17.3h6.9v-3.5h-6.9v3.5zm20.7 13.9h-3.5v-24.2h6.9v20.7h13.8v6.9h-17.3v-3.4zm27.6 3.4h-6.9v-24.2h3.5v-3.5h13.8v3.5h3.5v24.2h-6.9v-10.4h-6.9v10.4zm7-17.3v-3.5h-6.9v3.5h6.9zm10.3-10.3h6.9v10.4h6.9v-10.4h6.9v13.8h-3.5v3.5h-3.5v10.4h-6.9v-10.4h-3.5v-3.5h-3.5v-13.8zm27.7 24.2h-3.5v-20.7h3.5v-3.5h17.3v6.9h-13.8v3.5h6.9v6.9h-6.9v3.5h13.8v6.9h-17.3v-3.5zm31.1-6.9h-3.5v10.4h-6.9v-27.6h17.3v3.5h3.5v10.4h-3.5v3.5h3.5v10.4h-6.9v-6.9h-3.5v-3.7zm-3.5-7h6.9v-3.5h-6.9v3.5zm41.5-10.3h6.9v27.6h-6.9v-27.6z"/><path class="st11" d="M-1003.9 1834.4l-2-5.7-4-12-17.8 6 1.9 5.8-5.7 1.9 4 12 5.8-1.9 2 5.7 12-4-2-5.8zm38.8-12l-2-5.8-4-12-17.8 6 1.9 5.8-5.7 1.9 4 12.1 5.8-2 1.9 5.8 12.1-4.1-2-5.8z"/><path transform="rotate(-18.702 -1021.081 1794.96)" d="M-1024.7 1775.4h7.1v38.6h-7.1z"/><path d="M-1005.5 1829.6l-2-5.7-4.1-12.1-17.8 6.1 2 5.7-5.8 2 4.1 12 5.8-1.9 1.9 5.7 12-4-1.9-5.8z"/><path transform="rotate(-18.702 -982.61 1781.93)" d="M-986.2 1762.4h7.1v38.6h-7.1z"/><path d="M-967.1 1816.6l-1.9-5.8-4.1-12-17.8 6 2 5.8-5.8 2 4.1 12 5.7-2 2 5.8 12-4.1-1.9-5.7z"/><path transform="rotate(-18.702 -1010.804 1761.996)" d="M-1034.7 1753.1h47.7v17.3h-47.7z"/><path class="st11" d="M-937.7 1868l.9-4.1 1.9-8.7-12.8-2.8-.9 4.2-4.1-.9-1.9 8.6 4.1.9-.9 4.2 8.6 1.9 1-4.2zm27.5 6.8l.9-4.1 1.9-8.7-12.8-2.8-.9 4.1-4.1-.9-1.9 8.7 4.1.9-.9 4.1 8.6 1.9 1-4.1z"/><path transform="rotate(12.41 -933.58 1838.013)" d="M-936.1 1824.7h5v26.9h-5z"/><path d="M-936.9 1864.6l.9-4.2 1.9-8.6-12.8-2.8-.9 4.1-4.2-.9-1.9 8.6 4.2 1-.9 4.1 8.6 1.9.9-4.1z"/><path transform="rotate(12.41 -905.921 1844.098)" d="M-908.5 1830.7h5v26.9h-5z"/><path d="M-909.3 1870.7l.9-4.2 1.9-8.6-12.8-2.9-.9 4.2-4.1-.9-1.9 8.6 4.1.9-.9 4.2 8.7 1.9.9-4.2z"/><path transform="rotate(12.41 -915.567 1822.04)" d="M-932.3 1816.1h33.3v12h-33.3z"/><path class="st11" d="M-861.7 1806.2l-.7-3-1.4-6.4-9.4 2.1.7 3.1-3 .7 1.4 6.3 3-.7.7 3.1 6.4-1.4-.7-3.1zm20.4-4l-.6-3-1.4-6.4-9.4 2.1.6 3.1-3 .6 1.4 6.4 3.1-.7.6 3.1 6.4-1.5-.7-3z"/><path transform="rotate(-12.552 -868.254 1784.915)" d="M-870.1 1775.2h3.6v19.8h-3.6z"/><path d="M-862.2 1803.7l-.7-3.1-1.4-6.3-9.4 2.1.7 3-3.1.7 1.4 6.4 3.1-.7.6 3 6.4-1.4-.7-3z"/><path transform="rotate(-12.552 -847.947 1780.395)" d="M-849.8 1770.6h3.6v19.8h-3.6z"/><path d="M-841.9 1799.2l-.7-3.1-1.4-6.3-9.4 2.1.7 3-3.1.7 1.4 6.3 3.1-.6.7 3 6.3-1.4-.7-3z"/><path transform="rotate(-12.552 -861.208 1768.694)" d="M-873.4 1764.4h24.4v8.8h-24.4z"/><path class="st11" d="M-841.1 1852l2.6-4.1 5.5-8.6-12.7-8-2.6 4.1-4.1-2.6-5.5 8.5 4.1 2.6-2.6 4.2 8.6 5.4 2.6-4.1zm27 18.1l2.6-4.1 5.5-8.6-12.7-8-2.6 4.1-4.1-2.6-5.5 8.5 4.1 2.6-2.6 4.2 8.6 5.4 2.6-4.1z"/><path transform="rotate(32.435 -824.879 1821.372)" d="M-827.8 1805.9h5.7v30.9h-5.7z"/><path d="M-838.9 1848.6l2.6-4.1 5.5-8.6-12.7-8.1-2.6 4.1-4.1-2.6-5.5 8.6 4.1 2.6-2.6 4.1 8.6 5.5 2.6-4.1z"/><path transform="rotate(32.435 -797.451 1838.798)" d="M-800.4 1823.3h5.7v30.9h-5.7z"/><path d="M-811.5 1866l2.6-4.1 5.5-8.6-12.7-8-2.6 4.1-4.1-2.6-5.5 8.5 4.2 2.6-2.7 4.1 8.6 5.5 2.6-4.1z"/><path transform="rotate(32.435 -799.184 1811.228)" d="M-818.3 1804.3h38.2v13.8h-38.2z"/><path class="st9" d="M-1119.8 1411.6h-253v6.6h-6.6v38h6.6v6.6h253v-6.6h6.6v-38h-6.6z"/><path class="st12" d="M-1119.8 1411.6h-253v6.6h-6.6v38h6.6v6.6h253v-6.6h6.6v-38h-6.6z"/><path class="st4" d="M-1313 1429.1h2.3v-2.3h11.4v4.5h-9.1v9.1h9.1v4.5h-11.4v-2.3h-2.3v-13.5zm20.4 15.9h-4.5v-15.9h2.3v-2.3h9.1v2.3h2.3v15.9h-4.5v-6.8h-4.5v6.8zm4.6-11.3v-2.3h-4.5v2.3h4.5zm9.1 9h-2.3v-15.9h4.5v13.6h9.1v4.5h-11.4v-2.2zm13.6-15.9h4.5v18.2h-4.5v-18.2zm6.8 0h11.4v2.3h2.3v13.6h-2.3v2.3h-11.4v-18.2zm4.5 6.9h4.5v-2.3h-4.5v2.3zm0 6.8h4.5v-2.3h-4.5v2.3zm18.2-2.3h-2.3v6.8h-4.5v-15.9h2.3v-2.3h9.1v2.3h2.3v6.8h-2.3v2.3h2.3v6.8h-4.5v-4.5h-2.3v-2.3zm-2.3-4.5h4.5v-2.3h-4.5v2.3zm15.9 11.3h-4.5v-15.9h2.3v-2.3h9.1v2.3h2.3v15.9h-4.5v-6.8h-4.5v6.8zm4.6-11.3v-2.3h-4.5v2.3h4.5zm6.8-6.9h13.6v4.5h-4.5v13.6h-4.5v-13.6h-4.5v-4.5zm18.2 15.9h-2.3v-13.6h2.3v-2.3h11.4v4.5h-9.1v2.3h4.5v4.5h-4.5v2.3h9.1v4.5h-11.4v-2.2z"/><path class="st9" d="M-799.8 1479.6h-253v6.6h-6.6v38h6.6v6.6h253v-6.6h6.6v-38h-6.6z"/><path class="st10" d="M-799.8 1473h-253v6.6h-6.6v38.1h6.6v6.6h253v-6.6h6.6v-38.1h-6.6z"/><path class="st4" d="M-993 1490.5h2.3v-2.3h11.4v4.5h-9.1v9.1h9.1v4.5h-11.4v-2.3h-2.3v-13.5zm20.4 15.9h-4.5v-15.9h2.3v-2.3h9.1v2.3h2.3v15.9h-4.5v-6.8h-4.5v6.8zm4.6-11.3v-2.3h-4.5v2.3h4.5zm9.1 9.1h-2.3v-15.9h4.5v13.6h9.1v4.5H-959v-2.2zm13.6-15.9h4.5v18.2h-4.5v-18.2zm6.8 0h11.4v2.3h2.3v13.6h-2.3v2.3h-11.4v-18.2zm4.5 6.8h4.5v-2.3h-4.5v2.3zm0 6.8h4.5v-2.3h-4.5v2.3zm18.2-2.3h-2.3v6.8h-4.5v-15.9h2.3v-2.3h9.1v2.3h2.3v6.8h-2.3v2.3h2.3v6.8h-4.5v-4.5h-2.3v-2.3zm-2.3-4.5h4.5v-2.3h-4.5v2.3zm15.9 11.3h-4.5v-15.9h2.3v-2.3h9.1v2.3h2.3v15.9h-4.5v-6.8h-4.5v6.8zm4.6-11.3v-2.3h-4.5v2.3h4.5zm6.8-6.8h13.6v4.5h-4.5v13.6h-4.5v-13.6h-4.5v-4.5zm18.2 15.9h-2.3v-13.6h2.3v-2.3h11.4v4.5h-9.1v2.3h4.5v4.5h-4.5v2.3h9.1v4.5h-11.4v-2.2z"/><path class="st9" d="M-1057.8 1561.9H-838v28.8h-219.8z"/><path class="st9" d="M-1062.6 1555.4h229.4v30.6h-229.4z"/><path class="st10" d="M-1062.6 1551v29.3h4.8v5.7h219.7v-5.7h4.8V1551z"/><path class="st9" d="M-842.9 1565.9v-5.1h-5v-.1h-205.2v5.1h-5.1v7.7h5.1v5.1h5.1v.1h200.1v-.1h5v-5.1h5.1v-7.6z"/><path class="st13" d="M-1066.8 1659.9h4.7v.1h-4.7zm0 17.9h4.7v.1h-4.7z"/><path class="st4" d="M-1045.8 1677.9v-5.1h5.1v-7.7h-5.1v-5.1h-5v-.1h-11.2v.1h-4.8v17.8h4.8v.1h11.2zm-46.8-53.5v-5.1h-5.1v-.1h-15.9v18h15.9v-.1h5.1v-5.1h5.1v-7.6zm-13.5 38.9v-5.2h-9.6v5.1h-5.1v7.7h5.1v5.2h9.6v-5.2h5.1v-7.6zm-49.8-97.4v-5.2h-9.6v5.1h-5.1v7.7h5.1v5.2h9.6v-5.2h5.1v-7.6z"/><path class="st14" d="M-190.1 1955H-575v10.1h-10.1v57.9h10.1v10h384.9v-10h10.1v-57.9h-10.1z"/><path class="st15" d="M-190.1 1945H-575v10.1h-10.1v57.9h10.1v10h384.9v-10h10.1v-57.9h-10.1z"/><path class="st4" d="M-472.4 1995.9h-6.9v-27.6h17.3v3.5h3.5v10.4h-3.5v3.5h-10.4v10.2zm0-17.3h6.9v-3.5h-6.9v3.5zm20.7 13.9h-3.5v-24.2h6.9v20.7h13.8v6.9h-17.3v-3.4zm27.6 3.4h-6.9v-24.2h3.5v-3.5h13.8v3.5h3.5v24.2h-6.9v-10.4h-6.9v10.4zm6.9-17.3v-3.5h-6.9v3.5h6.9zm10.4-10.3h6.9v10.4h6.9v-10.4h6.9v13.8h-3.5v3.5h-3.5v10.4h-6.9v-10.4h-3.5v-3.5h-3.5v-13.8zm27.7 24.2h-3.5v-20.7h3.5v-3.5h17.3v6.9h-13.8v3.5h6.9v6.9h-6.9v3.5h13.8v6.9h-17.3v-3.5zm31.1-6.9h-3.5v10.4h-6.9v-27.6h17.3v3.5h3.5v10.4h-3.5v3.5h3.5v10.4h-6.9v-6.9h-3.5v-3.7zm-3.5-7h6.9v-3.5h-6.9v3.5zm41.5-10.3h17.3v3.5h3.5v10.4h-3.5v3.5h-10.4v3.5h13.8v6.9H-310v-13.8h3.5v-3.5h10.4v-3.5H-310v-7zm-254.1-19.3h45.1v5.7h-45.1zm51.3 0h5.7v5.7h-5.7zm-505.8 1h45.1v5.7h-45.1zm51.3 0h5.7v5.7h-5.7z"/><path class="st16" d="M-629.5 1790l6.4 5.6-5.6 6.4 20.5 17.4v37.9l20.7-26.1 31.8 29.4 5.8-6.3 5 4.6 71.6-118.7z"/><path class="st17" d="M-631.9 1782.9l6.4 5.6-5.6 6.4 20.4 17.4v37.9l20.7-26.1 31.8 29.4 5.8-6.3 5 4.6 71.6-118.7z"/><path class="st18" d="M-589.9 1823.9l114.4-90.8-135.1 79v37.9z"/><path class="st19" d="M-633 1783.1l6.4 5.6-5.6 6.4 20.4 17.3v37.9l20.8-26.1 31.7 29.4 5.9-6.3 4.9 4.7 71.7-118.7z"/><path class="st20" d="M-697.1 1476.4V1640h10.3v9.5h10.4v10.4h447.5v-10.4h10.4v-9.5h10.4v-163.6zm489 0v-94.2h-10.4v-9.5h-10.4v-10.5h-447.5v10.5h-10.4v9.5h-10.3v94.2z"/><path class="st21" d="M-686.8 1378.8h10.4v-8h-10.4v7.9h-10.3v8h10.3zm10.4-16.7h447.5v8h-447.5zm457.9 16.6v-7.9h-10.4v8h10.4v7.9h10.4v-8z"/><path d="M-1090.3 1297.8h10.2v10.2h-10.2zm61.5-10.2v5.1h-5.1v5.1h5.1v20.5h5.1v5.1h-5.1v5.1h10.2v-10.2h15.4v5.1h5.1v-35.8h-30.7zm25.6 25.6h-20.5v-20.5h20.5v20.5z"/><path d="M-1018.6 1297.8h10.2v10.2h-10.2zm-71.7 71.7h10.2v10.2h-10.2zm61.5-10.2h5.1v5.1h-5.1zm-25.7 25.6h5.1v5.1h-5.1zm5.2-20.5h5.1v5.1h-5.1zm0 10.3h5.1v5.1h-5.1zm46.1-25.6h5.1v5.1h-5.1zm-97.3 0h5.1v5.1h-5.1zm0-25.6h5.1v5.1h-5.1zm56.3-30.8v5.1h-10.3v5.2h15.4v-10.3z"/><path d="M-1003.2 1328.6v5.1h-10.2v5.1h-15.4v-5.1h-5.1v5.1h-10.2v5.1h15.4v5.1h-15.3v-5.1h-5.1v5.1h-5.1v-5.1h-5.1v5.1h-5.1v5.1h10.2v5.1h5.1v-5.1h10.2v5.1h-5.1v5.1h5.1v10.2h5.1v5.1h5.1v-5.1h15.4v-10.2h5.1v-5.1h-5.1V1349h-10.2v-5.1h10.2v5.1h5.1v-5.1h5.1v-5.1h5.1v-10.2h-5.2zm-15.4 25.6v15.4h-15.4v-15.4h15.4zm-15.4-35.9h-5.1v5.2h-5.1v10.2h5.1v-5.1h5.1v-5.1h5.2v-5.2zm-10.2 66.6h10.2v5.1h-10.2zm-15.4-92.2h5.1v5.1h-5.1z"/><path d="M-1018.6 1328.6h5.1v5.1h-5.1zm5.1-5.1h5.1v5.1h-5.1zm-66.6 25.6h5.1v5.1h-5.1zm10.3 35.8v-20.5h5.1v-10.2h-5.1v5.1h-15.4v-5.1h-10.2v5.1h-5.1v30.7h40.9v-5.1h-10.2zm-5.1 0h-20.5v-20.5h20.5v20.5zm5.1-66.6h5.1v5.1h-5.1zm5.1-30.7h-35.8v30.7h5.1v5.1h5.1v-5.1h5.1v5.1h5.1v-5.1h10.2v-10.2h5.1v-5.1h-5.1v-10.2h10.2v-5.1h-5zm-10.2 25.6h-20.5v-20.5h20.5v20.5zm35.8-10.2h5.1v5.1h-5.1zm-10.2-15.4h5.1v5.1h-5.1z"/><path d="M-1039.1 1318.3v-5.1h-5.1v-5.1h-5.1v5.1h-10.2v-5.1h-5.1v10.2h5.1v10.2h-15.4v-5.1h-5.1v5.1h-15.4v5.1h10.2v5.1h-15.4v5.1h15.4v5.1h5.1v-5.1h5.1v5.1h5.1v-5.1h10.2v-5.1h-5.1v-5.1h10.2v5.1h10.2v-5.1h-5.1v-5.1h-5.1v-10.2h15.5zm-30.7 20.5h-10.2v-5.1h10.2v5.1zm15.3 30.7v-10.2h-5.1v5.1h-5.1v5.1h5.1v5.2h-5.1v5.1h10.2v-5.1h5.2v-5.2zm46.1 10.3v-5.1h-5.1v5.1h-15.3v5.1h10.2v5.1h5.1v-5.1h10.3v5.1h5.1v-10.2zm5.2-20.5v5.1h-5.2v5.1h10.3v-10.2z"/><path class="st9" d="M-1328.6 1703.7h-140.9v3.7h-3.7v21.2h3.7v3.7h140.9v-3.7h3.6v-21.2h-3.6z"/><path class="st12" d="M-1328.6 1703.7h-140.9v3.7h-3.7v21.2h3.7v3.7h140.9v-3.7h3.6v-21.2h-3.6z"/><path class="st4" d="M-1441.3 1718.6h-1.3v3.8h-2.5v-10.1h6.3v1.3h1.3v3.8h-1.3v1.3h1.3v3.8h-2.5v-2.5h-1.3v-1.4zm-1.2-2.6h2.5v-1.3h-2.5v1.3zm7.5 5.1h-1.3v-7.6h1.3v-1.3h6.3v2.5h-5.1v1.3h2.5v2.5h-2.5v1.3h5.1v2.5h-6.3v-1.2zm8.9 0h-1.3v-7.6h1.3v-1.3h5.1v1.3h1.3v2.5h-2.5v-1.3h-2.5v5.1h2.5v-1.3h2.5v2.5h-1.3v1.3h-5.1v-1.2zm10.1 1.3h-2.5v-8.9h1.3v-1.3h5.1v1.3h1.3v8.9h-2.5v-3.8h-2.5v3.8zm2.5-6.4v-1.3h-2.5v1.3h2.5zm5.1 5.1h-1.3v-8.9h2.5v7.6h5.1v2.5h-6.3v-1.2zm7.6-8.9h2.5v10.1h-2.5v-10.1zm3.8 0h6.3v1.3h1.3v7.6h-1.3v1.3h-6.3v-10.2zm2.5 3.8h2.5v-1.3h-2.5v1.3zm0 3.8h2.5v-1.3h-2.5v1.3zm10.1-1.2h-1.3v3.8h-2.5v-8.9h1.3v-1.3h5.1v1.3h1.3v3.8h-1.3v1.3h1.3v3.8h-2.5v-2.5h-1.3v-1.3zm-1.2-2.6h2.5v-1.3h-2.5v1.3zm8.8 6.4h-2.5v-8.9h1.3v-1.3h5.1v1.3h1.3v8.9h-2.5v-3.8h-2.5v3.8zm2.5-6.4v-1.3h-2.5v1.3h2.5zm3.8-3.8h7.6v2.5h-2.5v7.6h-2.5v-7.6h-2.5v-2.5zm10.2 8.9h-1.3v-7.6h1.3v-1.3h6.3v2.5h-5.1v1.3h2.5v2.5h-2.5v1.3h5.1v2.5h-6.3v-1.2zm-106.8-15.2h13.1v1.7h-13.1zm14.9 0h1.7v1.7h-1.7z"/><path class="st9" d="M-1328.6 1745.7h-140.9v3.7h-3.7v21.2h3.7v3.7h140.9v-3.7h3.6v-21.2h-3.6z"/><path class="st10" d="M-1328.6 1742.1h-140.9v3.7h-3.7v21.1h3.7v3.7h140.9v-3.7h3.6v-21.1h-3.6z"/><path class="st4" d="M-1441.3 1756.9h-1.3v3.8h-2.5v-10.1h6.3v1.3h1.3v3.8h-1.3v1.3h1.3v3.8h-2.5v-2.5h-1.3v-1.4zm-1.2-2.5h2.5v-1.3h-2.5v1.3zm7.5 5h-1.3v-7.6h1.3v-1.3h6.3v2.5h-5.1v1.3h2.5v2.5h-2.5v1.3h5.1v2.5h-6.3v-1.2zm8.9 0h-1.3v-7.6h1.3v-1.3h5.1v1.3h1.3v2.5h-2.5v-1.3h-2.5v5.1h2.5v-1.3h2.5v2.5h-1.3v1.3h-5.1v-1.2zm10.1 1.3h-2.5v-8.9h1.3v-1.3h5.1v1.3h1.3v8.9h-2.5v-3.8h-2.5v3.8zm2.5-6.3v-1.3h-2.5v1.3h2.5zm5.1 5h-1.3v-8.9h2.5v7.6h5.1v2.5h-6.3v-1.2zm7.6-8.8h2.5v10.1h-2.5v-10.1zm3.8 0h6.3v1.3h1.3v7.6h-1.3v1.3h-6.3v-10.2zm2.5 3.8h2.5v-1.3h-2.5v1.3zm0 3.8h2.5v-1.3h-2.5v1.3zm10.1-1.3h-1.3v3.8h-2.5v-8.9h1.3v-1.3h5.1v1.3h1.3v3.8h-1.3v1.3h1.3v3.8h-2.5v-2.5h-1.3v-1.3zm-1.2-2.5h2.5v-1.3h-2.5v1.3zm8.8 6.3h-2.5v-8.9h1.3v-1.3h5.1v1.3h1.3v8.9h-2.5v-3.8h-2.5v3.8zm2.5-6.3v-1.3h-2.5v1.3h2.5zm3.8-3.8h7.6v2.5h-2.5v7.6h-2.5v-7.6h-2.5v-2.5zm10.2 8.8h-1.3v-7.6h1.3v-1.3h6.3v2.5h-5.1v1.3h2.5v2.5h-2.5v1.3h5.1v2.5h-6.3v-1.2zm-106.8-14.5h13.1v1.7h-13.1zm14.9 0h1.7v1.7h-1.7zm404.9-268.3h23.6v3h-23.6zm26.8 0h3v3h-3zm-347.2-61.5h23.6v3h-23.6zm26.8 0h3v3h-3z"/><path class="st22" d="M-1397.8 1538.6v-7.4h-18.6v7.4h-7.5v18.7h7.5v7.4h18.6v-7.4h7.5v-18.7z"/><path class="st23" d="M-1415.8 1564.7v10m17.4-10v10"/><path class="st24" d="M-1399.3 1572.8h-15.6v2.2h-2.1v15.5h2.1v2.2h15.6v-2.2h2.1V1575h-2.1z"/><path class="st25" d="M-1330.7 1977.9v-7.9h-141.7v7.9h-7.9v45.5h7.9v8h141.7v-8h7.9v-45.5z"/><path class="st25" d="M-1330.7 1978v-7.9h-141.7v7.9h-7.9v45.6h7.9v7.9h141.7v-7.9h7.9V1978z"/><path class="st4" d="M-1434.2 2011.4h-5.4v-21.8h13.6v2.7h2.7v8.2h-2.7v2.7h-8.2v8.2zm0-13.6h5.4v-2.7h-5.4v2.7zm16.3 10.9h-2.7v-19h5.4v16.3h10.9v5.4h-13.6v-2.7zm21.8 2.7h-5.4v-19h2.7v-2.7h10.9v2.7h2.7v19h-5.4v-8.2h-5.4v8.2zm5.5-13.6v-2.7h-5.4v2.7h5.4zm8.1-8.2h5.4v8.2h5.4v-8.2h5.4v10.9h-2.7v2.7h-2.7v8.2h-5.4v-8.2h-2.7v-2.7h-2.7v-10.9z"/><path class="st25" d="M-1160.7 1977.9v-7.9h-141.7v7.9h-7.9v45.5h7.9v8h141.7v-8h7.9v-45.5z"/><path class="st22" d="M-1160.7 1970v-7.9h-141.7v7.9h-7.9v45.6h7.9v7.9h141.7v-7.9h7.9V1970z"/><path class="st4" d="M-1264.2 2003.4h-5.4v-21.8h13.6v2.7h2.7v8.2h-2.7v2.7h-8.2v8.2zm0-13.6h5.4v-2.7h-5.4v2.7zm16.3 10.9h-2.7v-19h5.4v16.3h10.9v5.4h-13.6v-2.7zm21.8 2.7h-5.4v-19h2.7v-2.7h10.9v2.7h2.7v19h-5.4v-8.2h-5.4v8.2zm5.5-13.6v-2.7h-5.4v2.7h5.4zm8.1-8.2h5.4v8.2h5.4v-8.2h5.4v10.9h-2.7v2.7h-2.7v8.2h-5.4v-8.2h-2.7v-2.7h-2.7v-10.9z"/><path class="st26" d="M-2154.3 1732.3h43.2v108h43.2v-108h43.2v129.6h-21.6v21.6h-21.6v21.6h-43.2v-21.6h-21.6v-21.6h-21.6v-129.6z"/><path class="st27" d="M-2003.1 1755.9h21.6v-21.6h108v43.2h-86.4v21.6h64.8v21.6h21.6v64.8h-21.6v21.6h-108v-43.2h86.4v-21.6h-64.8v-21.6h-21.6v-64.8z"/><path class="st28" d="M-2154.3 1711.2h43.2v108h43.2v-108h43.2v129.6h-21.6v21.6h-21.6v21.6h-43.2v-21.6h-21.6v-21.6h-21.6v-129.6z"/><path class="st29" d="M-2003.1 1732.8h21.6v-21.6h108v43.2h-86.4v21.6h64.8v21.6h21.6v64.8h-21.6v21.6h-108v-43.2h86.4v-21.6h-64.8v-21.6h-21.6v-64.8z"/><path class="st0" d="M-2104.9 2089.8h27.5v68.7h27.5v-68.7h27.5v82.4h-13.7v13.7h-13.7v13.7h-27.5V2186h-13.7v-13.7h-13.7v-82.5zm96.1 15.1h13.7v-13.7h68.7v27.5h-54.9v13.7h41.2v13.7h13.7v41.2h-13.7v13.7h-68.7v-27.5h54.9v-13.7h-41.2v-13.7h-13.7v-41.2z"/><path class="st7" d="M-2104.9 2075.3h27.5v68.7h27.5v-68.7h27.5v82.4h-13.7v13.7h-13.7v13.7h-27.5v-13.7h-13.7v-13.7h-13.7v-82.4zm96.1 15.1h13.7v-13.7h68.7v27.5h-54.9v13.7h41.2v13.7h13.7v41.2h-13.7v13.7h-68.7V2159h54.9v-13.7h-41.2v-13.7h-13.7v-41.2z"/><path class="st4" d="M-2104.9 2061.9h27.5v68.7h27.5v-68.7h27.5v82.4h-13.7v13.7h-13.7v13.7h-27.5V2158h-13.7v-13.7h-13.7v-82.4zm96.1 13.8h13.7V2062h68.7v27.5h-54.9v13.7h41.2v13.7h13.7v41.2h-13.7v13.7h-68.7v-27.5h54.9v-13.7h-41.2v-13.7h-13.7v-41.2z"/><path class="st0" d="M-1530.4 1230.2h-21.6v-86.4h54v10.8h10.8v32.4h-10.8v10.8h-32.4v32.4zm0-54h21.6v-10.8h-21.6v10.8zm54-21.6h10.8v-10.8h43.2v10.8h10.8v64.8h-10.8v10.8h-43.2v-10.8h-10.8v-64.8zm21.6 54h21.6v-43.2h-21.6v43.2zm64.8 10.8h-10.8v-75.6h21.6v64.8h43.2v21.6h-54v-10.8zm43.2-75.6h21.6v32.4h21.6v-32.4h21.6v43.2h-10.8v10.8h-10.8v32.4h-21.6v-32.4h-10.8V1187h-10.8v-43.2z"/><path class="st30" d="M-1530.4 1221.7h-21.6v-86.4h54v10.8h10.8v32.4h-10.8v10.8h-32.4v32.4zm0-54h21.6v-10.8h-21.6v10.8zm54-21.6h10.8v-10.8h43.2v10.8h10.8v64.8h-10.8v10.8h-43.2v-10.8h-10.8v-64.8zm21.6 54h21.6v-43.2h-21.6v43.2zm64.8 10.8h-10.8v-75.6h21.6v64.8h43.2v21.6h-54v-10.8zm43.2-75.6h21.6v32.4h21.6v-32.4h21.6v43.2h-10.8v10.8h-10.8v32.4h-21.6v-32.4h-10.8v-10.8h-10.8v-43.2z"/><path class="st4" d="M-1530.4 1213.5h-21.6v-86.4h54v10.8h10.8v32.4h-10.8v10.8h-32.4v32.4zm0-54h21.6v-10.8h-21.6v10.8zm54-21.6h10.8v-10.8h43.2v10.8h10.8v64.8h-10.8v10.8h-43.2v-10.8h-10.8v-64.8zm21.6 54h21.6v-43.2h-21.6v43.2zm64.8 10.8h-10.8v-75.6h21.6v64.8h43.2v21.6h-54v-10.8zm43.2-75.6h21.6v32.4h21.6v-32.4h21.6v43.2h-10.8v10.8h-10.8v32.4h-21.6v-32.4h-10.8v-10.8h-10.8v-43.2z"/><image width="843" height="1118" xlink:href="DD937B8D58D9656B.jpg" transform="matrix(.24 0 0 .24 -1761.57 1277.329)" overflow="visible"/><g class="st1"><path class="st0" d="M-1203.6 913.7v86.4h101.2v-11.6h-12.7v-12.6h-12.6v-12.7h-12.7v-12.6h12.7v-12.7h12.6v-12.6h12.7v-11.6z"/><path class="st0" d="M-1188.9 974.8l-14.7 24.3v-24.3z"/></g><path class="st0" d="M-1691.8 890.7h510.3v86.5h-510.3z"/><path class="st0" d="M-1215.2 968.8h112.8v31.6h-112.8z"/><g class="st1"><path class="st0" d="M-1684 913.8v86.5h-101.2v-11.6h12.7V976h12.6v-12.6h12.7v-12.7h-12.7v-12.6h-12.6v-12.7h-12.7v-11.6z"/><path class="st0" d="M-1698.7 975l14.7 24.2V975z"/></g><path class="st2" d="M-1203.6 903.4v86.5h101.2v-11.6h-12.7v-12.7h-12.6v-12.7h-12.7v-12.6h12.7v-12.7h12.6V915h12.7v-11.6z"/><path class="st3" d="M-1203.6 891.8v86.5h101.2v-11.6h-12.7V954h-12.6v-12.7h-12.7v-12.6h12.7V916h12.6v-12.6h12.7v-11.6z"/><path class="st2" d="M-1188.9 964.5l-14.7 24.3v-24.3zm-495.5-61.1v86.5h-101.3v-11.6h12.7v-12.7h12.6v-12.7h12.7v-12.6h-12.7v-12.7h-12.6V915h-12.7v-11.6z"/><path class="st3" d="M-1684.4 891.8v86.5h-101.3v-11.6h12.7V954h12.6v-12.7h12.7v-12.6h-12.7V916h-12.6v-12.6h-12.7v-11.6z"/><path class="st2" d="M-1699.2 964.5l14.8 24.3-.1-24.3z"/><path class="st2" d="M-1699.2 878.1h510.3v86.5h-510.3z"/><path class="st3" d="M-1699.2 865.4h510.3v86.5h-510.3z"/><path class="st25" d="M-1585.1 940.4h-37.4v-59.9h37.4v7.5h7.5v15h-7.5v15h7.5v15h-7.5v7.4zm-22.4-37.5h15v-7.5h-15v7.5zm0 22.5h15v-7.5h-15v7.5zm52.4 15h-15V888h7.5v-7.5h30v7.5h7.5v52.4h-15v-22.5h-15v22.5zm15-37.5v-7.5h-15v7.5h15zm29.9 30h-7.5v-52.4h15v44.9h30v15h-37.4v-7.5zm52.4 0h-7.5v-52.4h15v44.9h30v15h-37.4v-7.5zm45-44.9h7.5v-7.5h30v7.5h7.5v44.9h-7.5v7.5h-30v-7.5h-7.5V888zm15 37.4h15v-30h-15v30zm37.4-37.4h7.5v-7.5h30v7.5h7.5v44.9h-7.5v7.5h-30v-7.5h-7.5V888zm15 37.4h15v-30h-15v30zm59.9-15h-7.5v30h-15v-59.9h15v7.5h7.5v7.5h7.5v-15h15v59.9h-15v-22.5h-7.5v-7.5z"/><path class="st22" d="M-1585.1 934.6h-37.4v-59.9h37.4v7.5h7.5v15h-7.5v15h7.5v15h-7.5v7.4zm-22.4-37.5h15v-7.5h-15v7.5zm0 22.5h15v-7.5h-15v7.5zm52.4 15h-15v-52.4h7.5v-7.5h30v7.5h7.5v52.4h-15v-22.5h-15v22.5zm15-37.5v-7.5h-15v7.5h15zm29.9 30h-7.5v-52.4h15v44.9h30v15h-37.4v-7.5zm52.4 0h-7.5v-52.4h15v44.9h30v15h-37.4v-7.5zm45-45h7.5v-7.5h30v7.5h7.5V927h-7.5v7.5h-30V927h-7.5v-44.9zm15 37.5h15v-30h-15v30zm37.4-37.5h7.5v-7.5h30v7.5h7.5V927h-7.5v7.5h-30V927h-7.5v-44.9zm15 37.5h15v-30h-15v30zm59.9-15h-7.5v30h-15v-59.9h15v7.5h7.5v7.5h7.5v-15h15v59.9h-15v-22.5h-7.5v-7.5z"/><path class="st0" d="M-1093.4 1087.1h20.7v6.9h-20.7v-6.9zm55.3 17.3h-6.9v-27.6h17.3v3.5h3.5v10.4h-3.5v3.5h-10.4v10.2zm0-17.3h6.9v-3.5h-6.9v3.5zm27.6 6.9h-3.5v10.4h-6.9v-27.6h17.3v3.5h3.5v10.4h-3.5v3.5h3.5v10.4h-6.9v-6.9h-3.5v-3.7zm-3.5-6.9h6.9v-3.5h-6.9v3.5zm20.8 13.8h-3.5v-20.7h3.5v-3.5h17.3v6.9h-13.8v3.5h6.9v6.9h-6.9v3.5h13.8v6.9h-17.3v-3.5zm20.7-20.7h3.5v-3.5h17.3v6.9h-13.8v3.5h10.4v3.5h3.5v10.4h-3.5v3.5h-17.3v-6.9h13.8v-3.5H-969v-3.5h-3.5v-10.4zm24.2 0h3.5v-3.5h17.3v6.9h-13.8v3.5h10.4v3.5h3.5v10.4h-3.5v3.5h-17.3v-6.9h13.8v-3.5h-10.4v-3.5h-3.5v-10.4zm55.3 24.2h-6.9v-24.2h3.5v-3.5h13.8v3.5h3.5v24.2h-6.9V1094h-6.9v10.4zm6.9-17.3v-3.5h-6.9v3.5h6.9zm20.8 3.5h-3.5v13.8h-6.9v-27.6h6.9v3.5h3.5v3.5h3.5v-6.9h6.9v27.6h-6.9V1094h-3.5v-3.4zm13.8-13.8h6.9v10.4h6.9v-10.4h6.9v13.8h-3.5v3.5h-3.5v10.4h-6.9V1094h-3.5v-3.5h-3.5v-13.7zm55.3 27.6h-6.9v-27.6h6.9v6.9h3.5v-3.5h3.5v-3.5h6.9v6.9h-3.5v3.5h-3.5v6.9h3.5v3.5h3.5v6.9h-6.9v-3.5h-3.5v-3.5h-3.5v7zm20.7-3.5h-3.5v-20.7h3.5v-3.5h17.3v6.9H-772v3.5h6.9v6.9h-6.9v3.5h13.8v6.9h-17.3v-3.5zm20.7-24.1h6.9v10.4h6.9v-10.4h6.9v13.8h-3.5v3.5h-3.5v10.4h-6.9V1094h-3.5v-3.5h-3.5v-13.7zm48.4 0h20.7v6.9h-6.9v20.7h-6.9v-20.7h-6.9v-6.9zm24.2 3.4h3.5v-3.5h13.8v3.5h3.5v20.7h-3.5v3.5h-13.8v-3.5h-3.5v-20.7zm6.9 17.3h6.9v-13.8h-6.9v13.8zm48.4 6.9h-6.9v-27.6h17.3v3.5h3.5v10.4h-3.5v3.5h-10.4v10.2zm0-17.3h6.9v-3.5h-6.9v3.5zm20.7 13.8h-3.5v-24.2h6.9v20.7h13.8v6.9h-17.3v-3.4zm27.7 3.5h-6.9v-24.2h3.5v-3.5h13.8v3.5h3.5v24.2h-6.9V1094h-6.9v10.4zm6.9-17.3v-3.5h-6.9v3.5h6.9zm10.4-10.3h6.9v10.4h6.9v-10.4h6.9v13.8h-3.5v3.5h-3.5v10.4h-6.9V1094h-3.5v-3.5h-3.5v-13.7zm48.4 10.3h20.7v6.9h-20.7v-6.9z"/><path class="st30" d="M-1094.3 1081.2h20.7v6.9h-20.7v-6.9zm55.3 17.3h-6.9v-27.6h17.3v3.5h3.5v10.4h-3.5v3.5h-10.4v10.2zm0-17.3h6.9v-3.5h-6.9v3.5zm27.6 6.9h-3.5v10.4h-6.9v-27.6h17.3v3.5h3.5v10.4h-3.5v3.5h3.5v10.4h-6.9v-6.9h-3.5v-3.7zm-3.4-6.9h6.9v-3.5h-6.9v3.5zm20.7 13.8h-3.5v-20.7h3.5v-3.5h17.3v6.9h-13.8v3.5h6.9v6.9h-6.9v3.5h13.8v6.9h-17.3v-3.5zm20.8-20.7h3.5v-3.5h17.3v6.9h-13.8v3.5h10.4v3.5h3.5v10.4h-3.5v3.5h-17.3v-6.9h13.8v-3.5h-10.4v-3.5h-3.5v-10.4zm24.1 0h3.5v-3.5h17.3v6.9h-13.8v3.5h10.4v3.5h3.5v10.4h-3.5v3.5h-17.3v-6.9h13.8v-3.5h-10.4v-3.5h-3.5v-10.4zm55.3 24.2h-6.9v-24.2h3.5v-3.5h13.8v3.5h3.5v24.2h-6.9v-10.4h-6.9v10.4zm7-17.3v-3.5h-6.9v3.5h6.9zm20.7 3.5h-3.5v13.8h-6.9v-27.6h6.9v3.5h3.5v3.5h3.5v-6.9h6.9v27.6h-6.9v-10.4h-3.5v-3.5zm13.8-13.8h6.9v10.4h6.9v-10.4h6.9v13.8h-3.5v3.5h-3.5v10.4h-6.9v-10.4h-3.5v-3.5h-3.5v-13.8zm55.3 27.6h-6.9v-27.6h6.9v6.9h3.5v-3.5h3.5v-3.5h6.9v6.9h-3.5v3.5h-3.5v6.9h3.5v3.5h3.5v6.9h-6.9v-3.5h-3.5v-3.5h-3.5v7zm20.7-3.5h-3.5v-20.7h3.5v-3.5h17.3v6.9h-13.8v3.5h6.9v6.9h-6.9v3.5h13.8v6.9h-17.3v-3.5zm20.8-24.1h6.9v10.4h6.9v-10.4h6.9v13.8h-3.5v3.5h-3.5v10.4h-6.9v-10.4h-3.5v-3.5h-3.5v-13.8zm48.4 0h20.7v6.9h-6.9v20.7h-6.9v-20.7h-6.9v-6.9zm24.1 3.4h3.5v-3.5h13.8v3.5h3.5v20.7h-3.5v3.5h-13.8v-3.5h-3.5v-20.7zm7 17.3h6.9v-13.8h-6.9v13.8zm48.3 6.9h-6.9v-27.6h17.3v3.5h3.5v10.4h-3.5v3.5h-10.4v10.2zm0-17.3h6.9v-3.5h-6.9v3.5zm20.8 13.8h-3.5v-24.2h6.9v20.7h13.8v6.9H-607v-3.4zm27.6 3.5h-6.9v-24.2h3.5v-3.5h13.8v3.5h3.5v24.2h-6.9v-10.4h-6.9v10.4zm6.9-17.3v-3.5h-6.9v3.5h6.9zm10.4-10.3h6.9v10.4h6.9v-10.4h6.9v13.8h-3.5v3.5h-3.5v10.4h-6.9v-10.4h-3.5v-3.5h-3.5v-13.8zm48.4 10.3h20.7v6.9h-20.7v-6.9z"/><path class="st4" d="M-1094.3 1076.8h20.7v6.9h-20.7v-6.9zm55.3 17.3h-6.9v-27.6h17.3v3.5h3.5v10.4h-3.5v3.5h-10.4v10.2zm0-17.3h6.9v-3.5h-6.9v3.5zm27.6 6.9h-3.5v10.4h-6.9v-27.6h17.3v3.5h3.5v10.4h-3.5v3.5h3.5v10.4h-6.9v-6.9h-3.5v-3.7zm-3.4-6.9h6.9v-3.5h-6.9v3.5zm20.7 13.8h-3.5v-20.7h3.5v-3.5h17.3v6.9h-13.8v3.5h6.9v6.9h-6.9v3.5h13.8v6.9h-17.3v-3.5zm20.8-20.7h3.5v-3.5h17.3v6.9h-13.8v3.5h10.4v3.5h3.5v10.4h-3.5v3.5h-17.3v-6.9h13.8v-3.5h-10.4v-3.5h-3.5v-10.4zm24.1 0h3.5v-3.5h17.3v6.9h-13.8v3.5h10.4v3.5h3.5v10.4h-3.5v3.5h-17.3v-6.9h13.8v-3.5h-10.4v-3.5h-3.5v-10.4zm55.3 24.2h-6.9v-24.2h3.5v-3.5h13.8v3.5h3.5v24.2h-6.9v-10.4h-6.9v10.4zm7-17.3v-3.5h-6.9v3.5h6.9zm20.7 3.5h-3.5v13.8h-6.9v-27.6h6.9v3.5h3.5v3.5h3.5v-6.9h6.9v27.6h-6.9v-10.4h-3.5v-3.5zm13.8-13.9h6.9v10.4h6.9v-10.4h6.9v13.8h-3.5v3.5h-3.5v10.4h-6.9v-10.4h-3.5v-3.5h-3.5v-13.8zm55.3 27.7h-6.9v-27.6h6.9v6.9h3.5v-3.5h3.5v-3.5h6.9v6.9h-3.5v3.5h-3.5v6.9h3.5v3.5h3.5v6.9h-6.9v-3.5h-3.5v-3.5h-3.5v7zm20.7-3.5h-3.5v-20.7h3.5v-3.5h17.3v6.9h-13.8v3.5h6.9v6.9h-6.9v3.5h13.8v6.9h-17.3v-3.5zm20.8-24.2h6.9v10.4h6.9v-10.4h6.9v13.8h-3.5v3.5h-3.5v10.4h-6.9v-10.4h-3.5v-3.5h-3.5v-13.8zm48.4 0h20.7v6.9h-6.9v20.7h-6.9v-20.7h-6.9v-6.9zm24.1 3.5h3.5v-3.5h13.8v3.5h3.5v20.7h-3.5v3.5h-13.8v-3.5h-3.5v-20.7zm7 17.3h6.9v-13.8h-6.9v13.8zm48.3 6.9h-6.9v-27.6h17.3v3.5h3.5v10.4h-3.5v3.5h-10.4v10.2zm0-17.3h6.9v-3.5h-6.9v3.5zm20.8 13.8h-3.5v-24.2h6.9v20.7h13.8v6.9H-607v-3.4zm27.6 3.5h-6.9v-24.2h3.5v-3.5h13.8v3.5h3.5v24.2h-6.9v-10.4h-6.9v10.4zm6.9-17.3v-3.5h-6.9v3.5h6.9zm10.4-10.4h6.9v10.4h6.9v-10.4h6.9v13.8h-3.5v3.5h-3.5v10.4h-6.9v-10.4h-3.5v-3.5h-3.5v-13.8zm48.4 10.4h20.7v6.9h-20.7v-6.9z"/><path class="st31" d="M1667.5 374.7H-1v931.2h1681.5V374.7h-13zm-12.9 56.5v829.5h-12.9v11.3h-12.9v11.3H50.6V1272H37.7v-11.3H24.8V419.9h12.9v-11.3h12.9v-11.3h1578.3v11.3h12.9v11.3h12.9v11.3z"/><path class="st32" d="M387.5 17.4V8.7H20.9v83.4H377v-8.7h10.5v-8.7h9.9V17.4z"/><path class="st31" d="M387 8.7V0H9.9v8.7H0V59h9.8v7h.1v8.7h10.5v8.7h356.1v-8.7H387V66h9.9V8.7z"/><path class="st13" d="M-61.9 224.8h92.2v32.8h-92.2z"/><text transform="translate(-40.797 242.96)" class="st4" font-family="EditUndoBRK" font-size="31.543">DMG</text><path class="st22" d="M137.9 259.2h254.7v-18H137.9v5.2h-7v7.6h7v5.1z"/><path class="st22" d="M401.2 246.3v-5.1h-55.7v18h55.7V254h6.9v-7.7z"/><g class="st33"><path class="st34" d="M781.5 472.3v-78h-90v10.1h-10v57.8h10v10.1zm235-68.9v-10.1h-92v78h92v-10.1h10v-57.8z"/><path class="st34" d="M701.5 403.3h305v78h-305z"/></g><path class="st31" d="M791.5 472.3v-78h-90v10.1h-10v57.8h10v10.1z"/><path class="st31" d="M781.5 462.3v-78h-90v10.1h-10v57.8h10v10.1zm225-57.9v-10.1h-92v78h92v-10.1h10v-57.8z"/><path class="st31" d="M1016.5 394.4v-10.1h-92v78h92v-10.1h10v-57.8zm-225-.1h123v78h-123z"/><path class="st35" d="M791.5 462.3v-78h-90v10.1h-10v57.8h10v10.1zm215-67.9v-10.1h-78v78h78v-10.1h10v-57.8z"/><g class="st33"><path class="st34" d="M781.5 208.7v-78h-90v10.1h-10v57.9h10v10zm235-68.9v-10.1h-92v78h92v-10h10v-57.9z"/><path class="st34" d="M701.5 139.7h305v78h-305z"/></g><path class="st31" d="M791.5 208.7v-78h-90v10.1h-10v57.9h10v10z"/><path class="st31" d="M781.5 198.7v-78h-90v10.1h-10v57.9h10v10zm225-57.9v-10.1h-92v78h92v-10h10v-57.9z"/><path class="st31" d="M1016.5 130.8v-10.1h-92v78h92v-10h10v-57.9zm-225-.1h123v78h-123z"/><path class="st35" d="M791.5 198.7v-78h-90v10.1h-10v57.9h10v10zm215-67.9v-10.1h-78v78h78v-10h10v-57.9z"/><path class="st35" d="M776.5 384.3h169v78h-169zm0-263.6h169v78h-169z"/><path class="st13" d="M771.5 416.5h179v81.8h-179z"/><text transform="translate(793.56 444.183)" class="st4" font-family="EditUndoBRK" font-size="48">124 KM</text><path class="st32" d="M1657.1 394.3h8v2h-8zm-81.1 0v10.1h-9.9v57.8h9.9v10.1h9.9v10h55.2v-88z"/><path class="st31" d="M1666.1 394.3v-10h-90v10.1h-10v57.8h10v10.1h10v10h90v-78z"/><path class="st2" d="M1636.1 405.8h-37.8v5.4h-5.3V449h5.3v5.3h37.8V449h5.4v-37.8h-5.4z"/><path class="st3" d="M1636.4 400.1h-38.1v5.4h-5.3v38h5.3v5.4h38.1v-5.4h5.4v-38h-5.4z"/><path class="st4" d="M1605.9 429.2h24.2v4.8h-24.2zm0-11.2h24.2v4.8h-24.2z"/><g class="st33"><path class="st36" d="M1598.3 454.5v5h38.1v-5h-32.7zm-5.3-5.4h5.4v5h-5.4zm43.4 0h5.4v5h-5.4z"/></g><path class="st32" d="M1657.1 170.6h8v2h-8zm-81.1 0v10.1h-9.9v57.9h9.9v10h9.9v10h55.2v-88z"/><path class="st31" d="M1666.1 170.6v-10h-90v10.1h-10v57.9h10v10h10v10h90v-78z"/><path class="st2" d="M1636.1 62.6h-37.8v5.3h-5.3v37.8h5.3v5.4h37.8v-5.4h5.4V67.9h-5.4z"/><path class="st3" d="M1636.4 56.8h-38.1v5.4h-5.3v38.1h5.3v5.3h38.1v-5.3h5.4V62.2h-5.4z"/><path class="st4" d="M1605.9 85.9h24.2v4.8h-24.2zm0-11.1h24.2v4.8h-24.2z"/><g class="st33"><path class="st36" d="M1598.3 111.2v5h38.1v-5h-32.7zm-5.3-5.4h5.4v5h-5.4zm43.4 0h5.4v5h-5.4z"/></g><path class="st22" d="M164.5 141.6v-3.8h-38.9v3.8h-4.8v5.4h4.8v3.7h38.9v-3.6h4.5v-5.5zm6.7-236.9V-99h-38.9v3.7h-4.7v5.4h4.7v3.8h38.9v-3.7h4.5v-5.5z"/><path class="st37" d="M325.1-95.3V-99H132.3v3.7h-4.7v5.4h4.7v3.8h192.8v-3.7h4.5v-5.5z"/><path class="st31" d="M1876.1 1283.3h18.2V1272h12.9v-11.3h12.9V1236h25.8v69.9h-69.8z"/><path class="st31" d="M1942.3 1236.1v18.2h11.3v12.9h11.3v12.9h24.6v25.8h-69.8v-69.8zm-52.2 47.2v18.2h11.3v12.9h11.3v12.9h24.7v25.8h-69.9v-69.8zm-81.2 0h-18.2V1272h-12.9v-11.3h-12.9V1236h-25.8v69.9h69.8z"/><path class="st31" d="M1864.3 1330.5h-18.2v-11.3h-12.9v-11.3h-12.9v-24.7h-25.8v69.9h69.8zm-122.4-83.6v18.2h-11.3v12.9h-11.3v12.9h-24.7v25.8h69.9v-69.8z"/></svg>