<svg id="Layer_1" xmlns="http://www.w3.org/2000/svg" xmlns:xlink="http://www.w3.org/1999/xlink" width="48.1" height="13" viewBox="0 0 48.1 13"><style>.st0{fill:#5895b7}.st1{opacity:.8}.st2{fill:#c17620}.st3{fill:#f4c24a}.st4{fill:#fff}.st5{fill:#2a6fba}.st6{fill:#4abaef}.st7{fill:#95c9c8}.st8{fill:#ddefee}.st9{fill:#1b8e6f}.st10{fill:#3cea8a}.st11{opacity:.4;fill:#666}.st12{fill:#33bc6e}.st13{fill:none}.st14{fill:#7149a4}.st15{fill:#bd86e0}.st16{opacity:.4;fill:#666;stroke:#666;stroke-width:4;stroke-linejoin:bevel;stroke-miterlimit:10}.st17{fill:#f2f2f2}.st18{fill:#e6e6e6}.st19{fill:none;stroke:#000;stroke-width:4;stroke-linejoin:bevel;stroke-miterlimit:10}.st20{fill:#c6e0de}.st21{fill:#a7c6c3}.st22{fill:#ee3d53}.st23{fill:none;stroke:#000;stroke-width:2;stroke-miterlimit:10}.st24{fill:#a17559}.st25{fill:#910e46}.st26{fill:#238d6f}.st27{fill:#704ca2}.st28{fill:#47e88d}.st29{fill:#bc88de}.st30{fill:#ccc}.st31{fill:#5b2616}.st32{fill:#2d3d3e}.st32,.st33{opacity:.38}.st34{fill:#2d3d3e}.st35{fill:#3f180f}.st36{fill:#1a1a1a}.st37{fill:#38140c}</style><path class="st0" d="M-1069.9 2068.2h484v82h-484z"/><path class="st0" d="M-617.9 2142.2h107v30h-107z"/><g class="st1"><path class="st0" d="M-1053.9 2088.2v82h-96v-11h12v-12h12v-12h12v-12h-12v-12h-12v-12h-12v-11z"/><path class="st0" d="M-1067.9 2146.2l14 23-.1-23z"/></g><path class="st2" d="M-606.9 2080.2v82h96v-11h-12v-12h-12v-12h-12v-12h12v-12h12v-12h12v-11z"/><path class="st3" d="M-606.9 2069.2v82h96v-11h-12v-12h-12v-12h-12v-12h12v-12h12v-12h12v-11z"/><path class="st2" d="M-592.9 2138.2l-14 23v-23zm-470-58v82h-96v-11h12v-12h12v-12h12v-12h-12v-12h-12v-12h-12v-11z"/><path class="st3" d="M-1062.9 2069.2v82h-96v-11h12v-12h12v-12h12v-12h-12v-12h-12v-12h-12v-11z"/><path class="st2" d="M-1076.9 2138.2l14 23-.1-23zm0-82h484v82h-484z"/><path class="st3" d="M-1076.9 2044.2h484v82h-484z"/><path class="st4" d="M-1006.3 2104h-8.6v-34.6h8.6v13h8.6v-13h8.6v34.6h-8.6v-13h-8.6v13zm21.6-30.3h4.3v-4.3h17.3v4.3h4.3v25.9h-4.3v4.3h-17.3v-4.3h-4.3v-25.9zm8.6 21.6h8.6V2078h-8.6v17.3zm30.3 8.7h-8.6v-34.6h8.6v17.3h4.3v-4.3h4.3v4.3h4.3v-17.3h8.6v34.6h-8.6v-4.3h-4.3v-4.3h-4.3v4.3h-4.3v4.3zm56.1-34.6h25.9v8.6h-8.6v25.9h-8.6V2078h-8.6v-8.6zm30.3 4.3h4.3v-4.3h17.3v4.3h4.3v25.9h-4.3v4.3h-17.3v-4.3h-4.3v-25.9zm8.6 21.6h8.6V2078h-8.6v17.3zm60.5 8.7h-8.6v-34.6h21.6v4.3h4.3v13h-4.3v4.3h-13v13zm0-21.6h8.6v-4.3h-8.6v4.3zm25.9 17.2h-4.3v-30.2h8.6v25.9h17.3v8.6h-21.6v-4.3zm34.6 4.4h-8.6v-30.2h4.3v-4.3h17.3v4.3h4.3v30.2h-8.6v-13h-8.6v13zm8.6-21.6v-4.3h-8.6v4.3h8.6zm13-13h8.6v13h8.6v-13h8.6v17.3h-4.3v4.3h-4.3v13h-8.6v-13h-4.3v-4.3h-4.3v-17.3z"/><path class="st5" d="M-900.9 2337.2h-85v12h-12v85h12v12h85v-12h12v-85h-12z"/><path class="st5" d="M-900.9 2337.2h-85v12h-12v85h12v12h85v-12h12v-85h-12z"/><path class="st4" d="M-961.3 2371.4h28.4v5.7h5.7v17.1h-5.7v5.7H-950v-11.4h11.4v-5.7h-22.8v-11.4zm11.3 34.1h11.4v11.4H-950v-11.4z"/><path class="st5" d="M-749.9 2337.2h-85v12h-12v85h12v12h85v-12h12v-85h-12z"/><path class="st6" d="M-749.9 2327.2h-85v12h-12v85h12v12h85v-12h12v-85h-12z"/><path class="st4" d="M-810.3 2361.4h28.4v5.7h5.7v17.1h-5.7v5.7H-799v-11.4h11.4v-5.7h-22.8v-11.4zm11.3 34.1h11.4v11.4H-799v-11.4z"/><path class="st0" d="M285.1 2181.7h-11.6v-11.6h-11.6v-12.8h-498.7v12.8h-11.6v11.6h-11.5v684.7h11.5v11.7h11.6v12.8h498.7v-12.8h11.6v-11.7h11.6z"/><path class="st7" d="M285.1 2169.7h-11.6V2158h-11.6v-12.8h-498.7v12.8h-11.6v11.7h-11.5v684.7h11.5v11.7h11.6v12.8h498.7v-12.8h11.6v-11.7h11.6z"/><path class="st8" d="M285.1 2157.7h-11.6V2146h-11.6v-12.8h-498.7v12.8h-11.6v11.7h-11.5v684.7h11.5v11.6h11.6v12.8h498.7V2854h11.6v-11.6h11.6z"/><path class="st0" d="M-1200.9 189.1h-4.1V185h-4.1v-4.5h-176.2v4.5h-4.1v4.1h-4.1v242h4.1v4.1h4.1v4.5h176.2v-4.5h4.1v-4.1h4.1z"/><path class="st7" d="M-1200.9 184.9h-4.1v-4.1h-4.1v-4.5h-176.2v4.5h-4.1v4.1h-4.1v241.9h4.1v4.2h4.1v4.5h176.2V431h4.1v-4.2h4.1z"/><path class="st8" d="M-1200.9 180.6h-4.1v-4.1h-4.1V172h-176.2v4.5h-4.1v4.1h-4.1v242h4.1v4.1h4.1v4.5h176.2v-4.5h4.1v-4.1h4.1z"/><path class="st9" d="M-763.9 1817.2h-385v10.1h-10v57.8h10v10.1h385v-10.1h10.1v-57.8h-10.1z"/><path class="st10" d="M-763.9 1807.2h-385v10.1h-10v57.8h10v10.1h385v-10.1h10.1v-57.8h-10.1z"/><path class="st4" d="M-1038.9 1858.1h-6.9v-27.6h17.3v3.5h3.5v10.4h-3.5v3.5h-10.4v10.2zm0-17.3h6.9v-3.5h-6.9v3.5zm20.8 13.8h-3.5v-24.2h6.9v20.7h13.8v6.9h-17.3v-3.4zm27.6 3.5h-6.9v-24.2h3.5v-3.5h13.8v3.5h3.5v24.2h-6.9v-10.4h-6.9v10.4zm6.9-17.3v-3.5h-6.9v3.5h6.9zm10.4-10.4h6.9v10.4h6.9v-10.4h6.9v13.8h-3.5v3.5h-3.5v10.4h-6.9v-10.4h-3.5v-3.5h-3.5v-13.8zm27.6 24.2h-3.5v-20.7h3.5v-3.5h17.3v6.9h-13.8v3.5h6.9v6.9h-6.9v3.5h13.8v6.9h-17.3v-3.5zm31.1-6.9h-3.5v10.4h-6.9v-27.6h17.3v3.5h3.5v10.4h-3.5v3.5h3.5v10.4h-6.9v-6.9h-3.5v-3.7zm-3.4-6.9h6.9v-3.5h-6.9v3.5zm41.5-10.4h6.9v27.6h-6.9v-27.6z"/><path class="st11" d="M-1124.7 1696.6l-2-5.8-4.1-12-17.8 6 2 5.8-5.8 2 4.1 12 5.8-2 1.9 5.8 12-4.1-1.9-5.7zm38.8-12l-2-5.8-4.1-12-17.8 6 2 5.8-5.8 1.9 4.1 12 5.8-1.9 1.9 5.7 12-4-1.9-5.8z"/><path transform="rotate(-18.702 -1141.936 1657.123)" d="M-1145.5 1637.6h7.1v38.6h-7.1z"/><path d="M-1126.4 1691.8l-1.9-5.8-4.1-12-17.8 6 2 5.8-5.8 2 4.1 12 5.7-2 2 5.8 12-4.1-1.9-5.7z"/><path transform="rotate(-18.702 -1103.465 1644.093)" d="M-1107 1624.6h7.1v38.6h-7.1z"/><path d="M-1087.9 1678.8l-2-5.8-4-12-17.8 6 1.9 5.8-5.7 1.9 4 12.1 5.8-2 2 5.8 12-4.1-2-5.8z"/><path transform="rotate(-18.702 -1131.659 1624.16)" d="M-1155.5 1615.3h47.7v17.3h-47.7z"/><path class="st11" d="M-1058.5 1730.2l.9-4.2 1.9-8.6-12.8-2.8-.9 4.1-4.2-.9-1.9 8.7 4.2.9-.9 4.1 8.6 1.9.9-4.1zm27.5 6.8l.9-4.2 1.9-8.6-12.8-2.8-.9 4.1-4.2-.9-1.9 8.6 4.2 1-.9 4.1 8.6 1.9.9-4.1z"/><path transform="rotate(12.41 -1054.41 1700.19)" d="M-1057 1686.8h5v26.9h-5z"/><path d="M-1057.8 1726.7l.9-4.1 1.9-8.7-12.7-2.8-1 4.2-4.1-.9-1.9 8.6 4.1.9-.9 4.2 8.7 1.9.9-4.2z"/><path transform="rotate(12.41 -1026.749 1706.275)" d="M-1029.3 1692.9h5v26.9h-5z"/><path d="M-1030.1 1732.8l.9-4.1 1.9-8.7-12.8-2.8-.9 4.2-4.1-.9-2 8.6 4.2.9-.9 4.2 8.6 1.9.9-4.2z"/><path transform="rotate(12.41 -1036.395 1684.216)" d="M-1053.1 1678.3h33.3v12h-33.3z"/><path class="st11" d="M-982.5 1668.4l-.7-3-1.4-6.4-9.4 2.1.7 3-3.1.7 1.5 6.4 3-.7.7 3 6.3-1.4-.7-3zm20.4-4l-.7-3.1-1.4-6.3-9.4 2.1.7 3-3 .7 1.4 6.4 3-.7.7 3 6.3-1.4-.6-3z"/><path transform="rotate(-12.552 -989.077 1647.088)" d="M-990.9 1637.3h3.6v19.8h-3.6z"/><path d="M-983.1 1665.9l-.7-3.1-1.4-6.3-9.4 2.1.7 3-3 .7 1.4 6.3 3-.6.7 3 6.4-1.4-.7-3.1z"/><path transform="rotate(-12.552 -968.77 1642.568)" d="M-970.6 1632.8h3.6v19.8h-3.6z"/><path d="M-962.8 1661.3l-.6-3-1.5-6.4-9.4 2.1.7 3.1-3 .7 1.4 6.3 3-.7.7 3.1 6.4-1.4-.7-3.1z"/><path transform="rotate(-12.552 -982.03 1630.866)" d="M-994.3 1626.6h24.4v8.8h-24.4z"/><path class="st11" d="M-961.9 1714.2l2.6-4.2 5.5-8.5-12.7-8.1-2.6 4.1-4.2-2.6-5.4 8.6 4.1 2.6-2.6 4.1 8.6 5.5 2.6-4.2zm27 18.1l2.6-4.1 5.4-8.6-12.6-8.1-2.7 4.1-4.1-2.6-5.4 8.6 4.1 2.6-2.6 4.1 8.6 5.5 2.6-4.1z"/><path transform="rotate(32.435 -945.719 1683.544)" d="M-948.6 1668.1h5.7v30.9h-5.7z"/><path d="M-959.7 1710.7l2.6-4.1 5.4-8.5-12.6-8.1-2.7 4.1-4.1-2.6-5.4 8.6 4.1 2.6-2.6 4.1 8.5 5.4 2.7-4.1z"/><path transform="rotate(32.435 -918.291 1700.97)" d="M-921.2 1685.5h5.7v30.9h-5.7z"/><path d="M-932.3 1728.2l2.6-4.2 5.5-8.5-12.7-8.1-2.6 4.1-4.2-2.6-5.4 8.6 4.1 2.6-2.6 4.1 8.6 5.5 2.6-4.2z"/><path transform="rotate(32.435 -920.024 1673.4)" d="M-939.2 1666.5h38.2v13.8h-38.2z"/><path class="st9" d="M-1240.7 1273.7h-252.9v6.7h-6.6v38h6.6v6.6h252.9v-6.6h6.7v-38h-6.7z"/><path class="st12" d="M-1240.7 1273.7h-252.9v6.7h-6.6v38h6.6v6.6h252.9v-6.6h6.7v-38h-6.7z"/><path class="st4" d="M-1433.8 1291.3h2.3v-2.3h11.4v4.5h-9.1v9.1h9.1v4.5h-11.4v-2.3h-2.3v-13.5zm20.4 15.9h-4.5v-15.9h2.3v-2.3h9.1v2.3h2.3v15.9h-4.5v-6.8h-4.5v6.8zm4.5-11.4v-2.3h-4.5v2.3h4.5zm9.1 9.1h-2.3V1289h4.5v13.6h9.1v4.5h-11.4v-2.2zm13.6-15.9h4.5v18.2h-4.5V1289zm6.9 0h11.4v2.3h2.3v13.6h-2.3v2.3h-11.4V1289zm4.5 6.8h4.5v-2.3h-4.5v2.3zm0 6.8h4.5v-2.3h-4.5v2.3zm18.2-2.2h-2.3v6.8h-4.5v-15.9h2.3v-2.3h9.1v2.3h2.3v6.8h-2.3v2.3h2.3v6.8h-4.5v-4.5h-2.3v-2.3zm-2.3-4.6h4.5v-2.3h-4.5v2.3zm15.9 11.4h-4.5v-15.9h2.3v-2.3h9.1v2.3h2.3v15.9h-4.5v-6.8h-4.5v6.8zm4.5-11.4v-2.3h-4.5v2.3h4.5zm6.9-6.8h13.6v4.5h-4.5v13.6h-4.5v-13.6h-4.5v-4.5zm18.1 15.9h-2.3v-13.6h2.3v-2.3h11.4v4.5h-9.1v2.3h4.5v4.5h-4.5v2.3h9.1v4.5h-11.4v-2.2z"/><path class="st9" d="M-920.7 1341.7h-252.9v6.7h-6.6v38h6.6v6.6h252.9v-6.6h6.7v-38h-6.7z"/><path class="st10" d="M-920.7 1335.2h-252.9v6.6h-6.6v38h6.6v6.6h252.9v-6.6h6.7v-38h-6.7z"/><path class="st4" d="M-1113.8 1352.7h2.3v-2.3h11.4v4.5h-9.1v9.1h9.1v4.5h-11.4v-2.3h-2.3v-13.5zm20.4 15.9h-4.5v-15.9h2.3v-2.3h9.1v2.3h2.3v15.9h-4.5v-6.8h-4.5v6.8zm4.5-11.3v-2.3h-4.5v2.3h4.5zm9.1 9h-2.3v-15.9h4.5v13.6h9.1v4.5h-11.4v-2.2zm13.6-15.9h4.5v18.2h-4.5v-18.2zm6.9 0h11.4v2.3h2.3v13.6h-2.3v2.3h-11.4v-18.2zm4.5 6.9h4.5v-2.3h-4.5v2.3zm0 6.8h4.5v-2.3h-4.5v2.3zm18.2-2.3h-2.3v6.8h-4.5v-15.9h2.3v-2.3h9.1v2.3h2.3v6.8h-2.3v2.3h2.3v6.8h-4.5v-4.5h-2.3v-2.3zm-2.3-4.5h4.5v-2.3h-4.5v2.3zm15.9 11.3h-4.5v-15.9h2.3v-2.3h9.1v2.3h2.3v15.9h-4.5v-6.8h-4.5v6.8zm4.5-11.3v-2.3h-4.5v2.3h4.5zm6.9-6.9h13.6v4.5h-4.5v13.6h-4.5V1355h-4.5v-4.6zm18.1 15.9h-2.3v-13.6h2.3v-2.3h11.4v4.5h-9.1v2.3h4.5v4.5h-4.5v2.3h9.1v4.5h-11.4v-2.2z"/><path class="st9" d="M-1178.7 1424.1h219.8v28.8h-219.8z"/><path class="st9" d="M-1183.5 1417.5h229.4v30.6h-229.4z"/><path class="st10" d="M-1183.5 1413.2v29.2h4.8v5.7h219.8v-5.7h4.8v-29.2z"/><path class="st9" d="M-963.7 1428v-5.1h-5.1v-.1h-200v.1h-5.1v5.1h-5.1v7.6h5.1v5.1h5.1v.1h205.1v-5.1h5.1v-7.7z"/><path class="st13" d="M-1187.6 1522.1h4.7v.1h-4.7zm0 17.9h4.7v.1h-4.7z"/><path class="st4" d="M-1166.6 1540v-5h5.1v-7.7h-5.1v-5.1h-5.1v-.1h-11.2v.1h-4.7v17.8h4.7v.1h11.2v-.1zm-46.8-53.4v-5.1h-5.1v-.1h-15.9v18h15.9v-.1h5.1v-5.1h5.1v-7.6zm-13.5 38.8v-5.2h-9.6v5.2h-5.1v7.6h5.1v5.2h9.6v-5.1h5.1v-7.7zm-49.8-97.4v-5.2h-9.6v5.2h-5.1v7.6h5.1v5.2h9.6v-5.1h5.1v-7.7z"/><path class="st14" d="M-310.9 1817.2h-385v10.1h-10v57.8h10v10.1h385v-10.1h10.1v-57.8h-10.1z"/><path class="st15" d="M-310.9 1807.2h-385v10.1h-10v57.8h10v10.1h385v-10.1h10.1v-57.8h-10.1z"/><path class="st4" d="M-593.3 1858.1h-6.9v-27.6h17.3v3.5h3.5v10.4h-3.5v3.5h-10.4v10.2zm0-17.3h6.9v-3.5h-6.9v3.5zm20.8 13.8h-3.5v-24.2h6.9v20.7h13.8v6.9h-17.3v-3.4zm27.6 3.5h-6.9v-24.2h3.5v-3.5h13.8v3.5h3.5v24.2h-6.9v-10.4h-6.9v10.4zm6.9-17.3v-3.5h-6.9v3.5h6.9zm10.4-10.4h6.9v10.4h6.9v-10.4h6.9v13.8h-3.5v3.5h-3.5v10.4h-6.9v-10.4h-3.5v-3.5h-3.5v-13.8zm27.6 24.2h-3.5v-20.7h3.5v-3.5h17.3v6.9h-13.8v3.5h6.9v6.9h-6.9v3.5h13.8v6.9H-500v-3.5zm31.1-6.9h-3.5v10.4h-6.9v-27.6h17.3v3.5h3.5v10.4h-3.5v3.5h3.5v10.4h-6.9v-6.9h-3.5v-3.7zm-3.4-6.9h6.9v-3.5h-6.9v3.5zm41.4-10.4h17.3v3.5h3.5v10.4h-3.5v3.5H-424v3.5h13.8v6.9h-20.7v-13.8h3.5v-3.5h10.4v-3.5h-13.8v-7zm-254-19.2h45.1v5.7h-45.1zm51.2 0h5.7v5.7h-5.7zm-505.7 1h45.1v5.7h-45.1zm51.2 0h5.7v5.7h-5.7z"/><path class="st16" d="M-750.3 1652.2l6.4 5.6-5.6 6.4 20.4 17.4v37.9l20.8-26.1 31.7 29.4 5.9-6.3 4.9 4.6 71.7-118.7z"/><path class="st17" d="M-752.8 1645.1l6.4 5.6-5.6 6.4 20.5 17.4v37.8l20.7-26.1 31.8 29.4 5.8-6.2 5 4.6 71.6-118.7z"/><path class="st18" d="M-710.7 1686l114.3-90.7-135.1 79v37.8z"/><path class="st19" d="M-753.8 1645.2l6.4 5.6-5.6 6.4 20.4 17.4v37.9l20.7-26.1 31.8 29.4 5.8-6.3 5 4.6 71.6-118.7z"/><path class="st20" d="M-818 1338.5v163.6h10.4v9.5h10.4v10.5h447.5v-10.5h10.3v-9.5h10.4v-163.6zm489 0v-94.1h-10.4v-9.5h-10.3v-10.5h-447.5v10.5h-10.4v9.5H-818v94.1z"/><path class="st21" d="M-807.6 1241h10.4v-8h-10.4v7.9H-818v8h10.4zm10.4-16.7h447.5v8h-447.5zm457.8 16.6v-7.9h-10.3v8h10.3v7.9h10.4v-8z"/><path d="M-1211.1 1160h10.2v10.2h-10.2zm61.4-10.2v5.1h-5.1v5.1h5.1v20.5h5.1v5.1h-5.1v5.1h10.2v-10.2h15.4v5.1h5.1v-35.8h-30.7zm25.6 25.6h-20.5v-20.5h20.5v20.5z"/><path d="M-1139.4 1160h10.2v10.2h-10.2zm-71.7 71.7h10.2v10.2h-10.2zm61.4-10.2h5.1v5.1h-5.1zm-25.6 25.6h5.1v5.1h-5.1zm5.1-20.5h5.1v5.1h-5.1zm0 10.2h5.1v5.1h-5.1zm46.1-25.6h5.1v5.1h-5.1zm-97.3 0h5.1v5.1h-5.1zm0-25.6h5.1v5.1h-5.1zm56.4-30.7v5.1h-10.3v5.1h15.4v-10.2z"/><path d="M-1124.1 1190.7v5.1h-10.2v5.1h-15.4v-5.1h-5.1v5.1h-10.2v5.1h15.4v5.1h-15.3v-5.1h-5.1v5.1h-5.1v-5.1h-5.1v5.1h-5.1v5.1h10.2v5.1h5.1v-5.1h10.2v5.1h-5.1v5.1h5.1v10.2h5.1v5.1h5.1v-5.1h15.4v-10.2h5.1v-5.1h-5.1v-10.2h-10.2v-5.1h10.2v5.1h5.1v-5.1h5.1v-5.1h5.1v-10.2h-5.2zm-15.3 25.6v15.4h-15.4v-15.4h15.4zm-15.4-35.8h-5.1v5.1h-5.1v10.3h5.1v-5.2h5.1v-5.1h5.1v-5.1zm-10.2 66.6h10.2v5.1h-10.2zm-15.4-92.2h5.1v5.1h-5.1z"/><path d="M-1139.4 1190.7h5.1v5.1h-5.1zm5.1-5.1h5.1v5.1h-5.1zm-66.6 25.6h5.1v5.1h-5.1zm10.3 35.9v-20.5h5.1v-10.2h-5.1v5.1h-15.4v-5.1h-10.2v5.1h-5.1v30.7h40.9v-5.1h-10.2zm-5.2 0h-20.5v-20.5h20.5v20.5zm5.2-66.6h5.1v5.1h-5.1zm5.1-30.7h-35.8v30.7h5.1v5.1h5.1v-5.1h5.1v5.1h5.1v-5.1h10.2v-10.2h5.1v-5.1h-5.1V1155h10.2v-5.1h-5zm-10.3 25.6h-20.5v-20.5h20.5v20.5zm35.9-10.3h5.1v5.1h-5.1zm-10.3-15.3h5.1v5.1h-5.1z"/><path d="M-1159.9 1180.5v-5.1h-5.1v-5.1h-5.1v5.1h-10.2v-5.1h-5.1v10.2h5.1v10.2h-15.4v-5.1h-5.1v5.1h-15.4v5.1h10.2v5.1h-15.4v5.1h15.4v5.1h5.1v-5.1h5.1v5.1h5.1v-5.1h10.2v-5.1h-5.1v-5.1h10.2v5.1h10.2v-5.1h-5.1v-5.1h-5.1v-10.2h15.5zm-30.7 20.5h-10.2v-5.1h10.2v5.1zm15.3 30.7v-10.2h-5.1v5.1h-5.1v5.1h5.1v5.1h-5.1v5.1h10.2v-5.1h5.1v-5.1zm46.1 10.2v-5.1h-5.1v5.1h-15.4v5.2h10.3v5.1h5.1v-5.1h10.2v5.1h5.1v-10.3zm5.1-20.4v5.1h-5.1v5.1h10.2v-10.2z"/><path class="st9" d="M-1449.5 1565.9h-140.8v3.7h-3.7v21.2h3.7v3.7h140.8v-3.7h3.7v-21.2h-3.7z"/><path class="st12" d="M-1449.5 1565.9h-140.8v3.7h-3.7v21.2h3.7v3.7h140.8v-3.7h3.7v-21.2h-3.7z"/><path class="st4" d="M-1562.1 1580.7h-1.3v3.8h-2.5v-10.1h6.3v1.3h1.3v3.8h-1.3v1.3h1.3v3.8h-2.5v-2.5h-1.3v-1.4zm-1.3-2.5h2.5v-1.3h-2.5v1.3zm7.6 5.1h-1.3v-7.6h1.3v-1.3h6.3v2.5h-5.1v1.3h2.5v2.5h-2.5v1.3h5.1v2.5h-6.3v-1.2zm8.9 0h-1.3v-7.6h1.3v-1.3h5.1v1.3h1.3v2.5h-2.5v-1.3h-2.5v5.1h2.5v-1.3h2.5v2.5h-1.3v1.3h-5.1v-1.2zm10.1 1.2h-2.5v-8.9h1.3v-1.3h5.1v1.3h1.3v8.9h-2.5v-3.8h-2.5v3.8zm2.5-6.3v-1.3h-2.5v1.3h2.5zm5.1 5.1h-1.3v-8.9h2.5v7.6h5.1v2.5h-6.3v-1.2zm7.6-8.9h2.5v10.1h-2.5v-10.1zm3.7 0h6.3v1.3h1.3v7.6h-1.3v1.3h-6.3v-10.2zm2.6 3.8h2.5v-1.3h-2.5v1.3zm0 3.8h2.5v-1.3h-2.5v1.3zm10.1-1.3h-1.3v3.8h-2.5v-8.9h1.3v-1.3h5.1v1.3h1.3v3.8h-1.3v1.3h1.3v3.8h-2.5v-2.5h-1.3v-1.3zm-1.3-2.5h2.5v-1.3h-2.5v1.3zm8.9 6.3h-2.5v-8.9h1.3v-1.3h5.1v1.3h1.3v8.9h-2.5v-3.8h-2.5v3.8zm2.5-6.3v-1.3h-2.5v1.3h2.5zm3.8-3.8h7.6v2.5h-2.5v7.6h-2.5v-7.6h-2.5v-2.5zm10.1 8.9h-1.3v-7.6h1.3v-1.3h6.3v2.5h-5.1v1.3h2.5v2.5h-2.5v1.3h5.1v2.5h-6.3v-1.2zm-106.7-15.3h13.1v1.7h-13.1zm14.9 0h1.7v1.7h-1.7z"/><path class="st9" d="M-1449.5 1607.9h-140.8v3.7h-3.7v21.2h3.7v3.7h140.8v-3.7h3.7v-21.2h-3.7z"/><path class="st10" d="M-1449.5 1604.3h-140.8v3.6h-3.7v21.2h3.7v3.7h140.8v-3.7h3.7v-21.2h-3.7z"/><path class="st4" d="M-1562.1 1619.1h-1.3v3.8h-2.5v-10.1h6.3v1.3h1.3v3.8h-1.3v1.3h1.3v3.8h-2.5v-2.5h-1.3v-1.4zm-1.3-2.6h2.5v-1.3h-2.5v1.3zm7.6 5.1h-1.3v-7.6h1.3v-1.3h6.3v2.5h-5.1v1.3h2.5v2.5h-2.5v1.3h5.1v2.5h-6.3v-1.2zm8.9 0h-1.3v-7.6h1.3v-1.3h5.1v1.3h1.3v2.5h-2.5v-1.3h-2.5v5.1h2.5v-1.3h2.5v2.5h-1.3v1.3h-5.1v-1.2zm10.1 1.3h-2.5v-8.9h1.3v-1.3h5.1v1.3h1.3v8.9h-2.5v-3.8h-2.5v3.8zm2.5-6.4v-1.3h-2.5v1.3h2.5zm5.1 5.1h-1.3v-8.9h2.5v7.6h5.1v2.5h-6.3v-1.2zm7.6-8.8h2.5v10.1h-2.5v-10.1zm3.7 0h6.3v1.3h1.3v7.6h-1.3v1.3h-6.3v-10.2zm2.6 3.7h2.5v-1.3h-2.5v1.3zm0 3.8h2.5v-1.3h-2.5v1.3zm10.1-1.2h-1.3v3.8h-2.5v-8.9h1.3v-1.3h5.1v1.3h1.3v3.8h-1.3v1.3h1.3v3.8h-2.5v-2.5h-1.3v-1.3zm-1.3-2.6h2.5v-1.3h-2.5v1.3zm8.9 6.4h-2.5v-8.9h1.3v-1.3h5.1v1.3h1.3v8.9h-2.5v-3.8h-2.5v3.8zm2.5-6.4v-1.3h-2.5v1.3h2.5zm3.8-3.7h7.6v2.5h-2.5v7.6h-2.5v-7.6h-2.5v-2.5zm10.1 8.8h-1.3v-7.6h1.3v-1.3h6.3v2.5h-5.1v1.3h2.5v2.5h-2.5v1.3h5.1v2.5h-6.3v-1.2zm-106.7-14.6h13.1v1.7h-13.1zm14.9 0h1.7v1.7h-1.7zm404.9-268.3h23.6v3h-23.6zm26.7 0h3v3h-3zm-347.1-61.4h23.6v3h-23.6zm26.7 0h3v3h-3z"/><path class="st22" d="M-1518.6 1400.8v-7.5h-18.7v7.5h-7.4v18.6h7.4v7.5h18.7v-7.5h7.5v-18.6z"/><path class="st23" d="M-1536.6 1426.9v9.9m17.4-9.9v9.9"/><path class="st24" d="M-1520.2 1435h-15.5v2.2h-2.2v15.5h2.2v2.2h15.5v-2.2h2.2v-15.5h-2.2z"/><path class="st25" d="M-1451.5 1840v-7.9h-141.7v7.9h-7.9v45.6h7.9v7.9h141.7v-7.9h7.9V1840z"/><path class="st25" d="M-1451.5 1840.2v-8h-141.7v8h-7.9v45.5h7.9v7.9h141.7v-7.9h7.9v-45.5z"/><path class="st4" d="M-1555 1873.6h-5.4v-21.8h13.6v2.7h2.7v8.2h-2.7v2.7h-8.2v8.2zm0-13.6h5.4v-2.7h-5.4v2.7zm16.3 10.9h-2.7v-19h5.4v16.3h10.9v5.4h-13.6v-2.7zm21.8 2.7h-5.4v-19h2.7v-2.7h10.9v2.7h2.7v19h-5.4v-8.2h-5.4v8.2zm5.4-13.6v-2.7h-5.4v2.7h5.4zm8.2-8.2h5.4v8.2h5.4v-8.2h5.4v10.9h-2.7v2.7h-2.7v8.2h-5.4v-8.2h-2.7v-2.7h-2.7v-10.9z"/><path class="st25" d="M-1281.5 1840v-7.9h-141.7v7.9h-7.9v45.6h7.9v7.9h141.7v-7.9h7.9V1840z"/><path class="st22" d="M-1281.5 1832.2v-8h-141.7v8h-7.9v45.5h7.9v7.9h141.7v-7.9h7.9v-45.5z"/><path class="st4" d="M-1385 1865.6h-5.4v-21.8h13.6v2.7h2.7v8.2h-2.7v2.7h-8.2v8.2zm0-13.6h5.4v-2.7h-5.4v2.7zm16.3 10.9h-2.7v-19h5.4v16.3h10.9v5.4h-13.6v-2.7zm21.8 2.7h-5.4v-19h2.7v-2.7h10.9v2.7h2.7v19h-5.4v-8.2h-5.4v8.2zm5.4-13.6v-2.7h-5.4v2.7h5.4zm8.2-8.2h5.4v8.2h5.4v-8.2h5.4v10.9h-2.7v2.7h-2.7v8.2h-5.4v-8.2h-2.7v-2.7h-2.7v-10.9z"/><path class="st26" d="M-2275.1 1594.5h43.2v108h43.2v-108h43.2V1724h-21.6v21.6h-21.6v21.6h-43.2v-21.6h-21.6V1724h-21.6v-129.5z"/><path class="st27" d="M-2123.9 1618.1h21.6v-21.6h108v43.2h-86.4v21.6h64.8v21.6h21.6v64.8h-21.6v21.6h-108v-43.2h86.4v-21.6h-64.8v-21.6h-21.6v-64.8z"/><path class="st28" d="M-2275.1 1573.4h43.2v108h43.2v-108h43.2V1703h-21.6v21.6h-21.6v21.6h-43.2v-21.6h-21.6V1703h-21.6v-129.6z"/><path class="st29" d="M-2123.9 1595h21.6v-21.6h108v43.2h-86.4v21.6h64.8v21.6h21.6v64.8h-21.6v21.6h-108V1703h86.4v-21.6h-64.8v-21.6h-21.6V1595z"/><path class="st0" d="M-2225.7 1952h27.5v68.7h27.5V1952h27.5v82.4h-13.7v13.7h-13.7v13.7h-27.5v-13.7h-13.7v-13.7h-13.7V1952zm96.1 15h13.7v-13.7h68.7v27.5h-54.9v13.7h41.2v13.7h13.7v41.2h-13.7v13.7h-68.7v-27.5h54.9V2022h-41.2v-13.7h-13.7V1967z"/><path class="st7" d="M-2225.7 1937.5h27.5v68.7h27.5v-68.7h27.5v82.4h-13.7v13.7h-13.7v13.7h-27.5v-13.7h-13.7v-13.7h-13.7v-82.4zm96.1 15.1h13.7v-13.7h68.7v27.5h-54.9v13.7h41.2v13.7h13.7v41.2h-13.7v13.7h-68.7v-27.5h54.9v-13.7h-41.2v-13.7h-13.7v-41.2z"/><path class="st4" d="M-2225.7 1924.1h27.5v68.7h27.5v-68.7h27.5v82.4h-13.7v13.7h-13.7v13.7h-27.5v-13.7h-13.7v-13.7h-13.7v-82.4zm96.1 13.7h13.7v-13.7h68.7v27.5h-54.9v13.7h41.2v13.7h13.7v41.2h-13.7v13.7h-68.7v-27.5h54.9v-13.7h-41.2V1979h-13.7v-41.2z"/><path class="st0" d="M-1651.3 1092.3h-21.6v-86.4h54v10.8h10.8v32.4h-10.8v10.8h-32.4v32.4zm0-54h21.6v-10.8h-21.6v10.8zm54-21.6h10.8v-10.8h43.2v10.8h10.8v64.8h-10.8v10.8h-43.2v-10.8h-10.8v-64.8zm21.6 54h21.6v-43.2h-21.6v43.2zm64.8 10.8h-10.8v-75.6h21.6v64.8h43.2v21.6h-54v-10.8zm43.2-75.6h21.6v32.4h21.6v-32.4h21.6v43.2h-10.8v10.8h-10.8v32.4h-21.6v-32.4h-10.8v-10.8h-10.8v-43.2z"/><path class="st30" d="M-1651.3 1083.9h-21.6v-86.4h54v10.8h10.8v32.4h-10.8v10.8h-32.4v32.4zm0-54h21.6v-10.8h-21.6v10.8zm54-21.6h10.8v-10.8h43.2v10.8h10.8v64.8h-10.8v10.8h-43.2v-10.8h-10.8v-64.8zm21.6 54h21.6v-43.2h-21.6v43.2zm64.8 10.8h-10.8v-75.6h21.6v64.8h43.2v21.6h-54v-10.8zm43.2-75.6h21.6v32.4h21.6v-32.4h21.6v43.2h-10.8v10.8h-10.8v32.4h-21.6v-32.4h-10.8v-10.8h-10.8v-43.2z"/><path class="st4" d="M-1651.3 1075.7h-21.6v-86.4h54v10.8h10.8v32.4h-10.8v10.8h-32.4v32.4zm0-54h21.6v-10.8h-21.6v10.8zm54-21.6h10.8v-10.8h43.2v10.8h10.8v64.8h-10.8v10.8h-43.2v-10.8h-10.8v-64.8zm21.6 54h21.6v-43.2h-21.6v43.2zm64.8 10.8h-10.8v-75.6h21.6v64.8h43.2v21.6h-54v-10.8zm43.2-75.6h21.6v32.4h21.6v-32.4h21.6v43.2h-10.8v10.8h-10.8v32.4h-21.6v-32.4h-10.8v-10.8h-10.8v-43.2z"/><image width="843" height="1118" xlink:href="A195264A69F39950.jpg" transform="matrix(.24 0 0 .24 -1882.404 1139.496)" overflow="visible"/><g class="st1"><path class="st0" d="M-1324.5 775.8v86.5h101.3v-11.6h-12.7V838h-12.7v-12.6h-12.6v-12.7h12.6v-12.6h12.7v-12.7h12.7v-11.6z"/><path class="st0" d="M-1309.7 837l-14.8 24.2.1-24.2z"/></g><path class="st0" d="M-1812.7 752.9h510.3v86.5h-510.3z"/><path class="st0" d="M-1336.1 830.9h112.8v31.6h-112.8z"/><g class="st1"><path class="st0" d="M-1804.8 776v86.5H-1906v-11.6h12.6v-12.7h12.7v-12.6h12.6v-12.7h-12.6v-12.7h-12.7v-12.6h-12.6V776z"/><path class="st0" d="M-1819.6 837.1l14.8 24.3v-24.3z"/></g><path class="st2" d="M-1324.5 765.6V852h101.3v-11.6h-12.7v-12.6h-12.7v-12.7h-12.6v-12.6h12.6v-12.7h12.7v-12.6h12.7v-11.6z"/><path class="st3" d="M-1324.5 754v86.4h101.3v-11.6h-12.7v-12.6h-12.7v-12.7h-12.6v-12.6h12.6v-12.7h12.7v-12.6h12.7V754z"/><path class="st2" d="M-1309.7 826.7l-14.8 24.3.1-24.3zm-495.6-61.1V852h-101.2v-11.6h12.6v-12.6h12.7v-12.7h12.7v-12.6h-12.7v-12.7h-12.7v-12.6h-12.6v-11.6z"/><path class="st3" d="M-1805.3 754v86.4h-101.2v-11.6h12.6v-12.6h12.7v-12.7h12.7v-12.6h-12.7v-12.7h-12.7v-12.6h-12.6V754z"/><path class="st2" d="M-1820 826.7l14.7 24.3v-24.3z"/><path class="st2" d="M-1820 740.3h510.3v86.5H-1820z"/><path class="st3" d="M-1820 727.6h510.3v86.5H-1820z"/><path class="st25" d="M-1705.9 802.6h-37.4v-59.9h37.4v7.5h7.5v15h-7.5v15h7.5v15h-7.5v7.4zm-22.5-37.5h15v-7.5h-15v7.5zm0 22.5h15v-7.5h-15v7.5zm52.5 15h-15v-52.4h7.5v-7.5h30v7.5h7.5v52.4h-15v-22.5h-15v22.5zm14.9-37.5v-7.5h-15v7.5h15zm30 30h-7.5v-52.4h15v44.9h30v15h-37.4v-7.5zm52.4 0h-7.5v-52.4h15v44.9h30v15h-37.4v-7.5zm45-45h7.5v-7.5h30v7.5h7.5V795h-7.5v7.5h-30V795h-7.5v-44.9zm14.9 37.5h15v-30h-15v30zm37.5-37.5h7.5v-7.5h30v7.5h7.5V795h-7.5v7.5h-30V795h-7.5v-44.9zm15 37.5h15v-30h-15v30zm59.9-15h-7.5v30h-15v-59.9h15v7.5h7.5v7.5h7.5v-15h15v59.9h-15v-22.5h-7.5v-7.5z"/><path class="st22" d="M-1705.9 796.7h-37.4v-59.9h37.4v7.5h7.5v15h-7.5v15h7.5v15h-7.5v7.4zm-22.5-37.4h15v-7.5h-15v7.5zm0 22.5h15v-7.5h-15v7.5zm52.5 14.9h-15v-52.4h7.5v-7.5h30v7.5h7.5v52.4h-15v-22.5h-15v22.5zm14.9-37.4v-7.5h-15v7.5h15zm30 29.9h-7.5v-52.4h15v44.9h30v15h-37.4v-7.5zm52.4 0h-7.5v-52.4h15v44.9h30v15h-37.4v-7.5zm45-44.9h7.5v-7.5h30v7.5h7.5v44.9h-7.5v7.5h-30v-7.5h-7.5v-44.9zm14.9 37.5h15v-30h-15v30zm37.5-37.5h7.5v-7.5h30v7.5h7.5v44.9h-7.5v7.5h-30v-7.5h-7.5v-44.9zm15 37.5h15v-30h-15v30zm59.9-15h-7.5v30h-15v-59.9h15v7.5h7.5v7.5h7.5v-15h15v59.9h-15v-22.5h-7.5v-7.5z"/><path class="st0" d="M-1214.3 949.3h20.7v6.9h-20.7v-6.9zm55.3 17.3h-6.9V939h17.3v3.5h3.5v10.4h-3.5v3.5h-10.4v10.2zm0-17.3h6.9v-3.5h-6.9v3.5zm27.7 6.9h-3.5v10.4h-6.9V939h17.3v3.5h3.5v10.4h-3.5v3.5h3.5v10.4h-6.9v-6.9h-3.5v-3.7zm-3.5-6.9h6.9v-3.5h-6.9v3.5zm20.7 13.8h-3.5v-20.7h3.5v-3.5h17.3v6.9h-13.8v3.5h6.9v6.9h-6.9v3.5h13.8v6.9h-17.3v-3.5zm20.8-20.7h3.5v-3.5h17.3v6.9h-13.8v3.5h10.4v3.5h3.5v10.4h-3.5v3.5h-17.3v-6.9h13.8v-3.5h-10.4v-3.5h-3.5v-10.4zm24.2 0h3.5v-3.5h17.3v6.9h-13.8v3.5h10.4v3.5h3.5v10.4h-3.5v3.5h-17.3v-6.9h13.8v-3.5h-10.4v-3.5h-3.5v-10.4zm55.3 24.2h-6.9v-24.2h3.5v-3.5h13.8v3.5h3.5v24.2h-6.9v-10.4h-6.9v10.4zm6.9-17.3v-3.5h-6.9v3.5h6.9zm20.7 3.4h-3.5v13.8h-6.9v-27.6h6.9v3.5h3.5v3.5h3.5V939h6.9v27.6h-6.9v-10.4h-3.5v-3.5zm13.8-13.8h6.9v10.4h6.9v-10.4h6.9v13.8h-3.5v3.5h-3.5v10.4h-6.9v-10.4h-3.5v-3.5h-3.5v-13.8zm55.3 27.7h-6.9V939h6.9v6.9h3.5v-3.5h3.5v-3.5h6.9v6.9h-3.5v3.5h-3.5v6.9h3.5v3.5h3.5v6.9h-6.9v-3.5h-3.5v-3.5h-3.5v7zm20.8-3.5h-3.5v-20.7h3.5v-3.5h17.3v6.9h-13.8v3.5h6.9v6.9h-6.9v3.5h13.8v6.9h-17.3v-3.5zm20.7-24.2h6.9v10.4h6.9v-10.4h6.9v13.8h-3.5v3.5h-3.5v10.4h-6.9v-10.4h-3.5v-3.5h-3.5v-13.8zm48.4 0h20.7v6.9h-6.9v20.7h-6.9v-20.7h-6.9v-6.9zm24.2 3.5h3.5v-3.5h13.8v3.5h3.5v20.7h-3.5v3.5h-13.8v-3.5h-3.5v-20.7zm6.9 17.3h6.9v-13.8h-6.9v13.8zm48.4 6.9h-6.9V939h17.3v3.5h3.5v10.4h-3.5v3.5h-10.4v10.2zm0-17.3h6.9v-3.5h-6.9v3.5zm20.7 13.8h-3.5v-24.2h6.9v20.7h13.8v6.9H-727v-3.4zm27.7 3.5h-6.9v-24.2h3.5v-3.5h13.8v3.5h3.5v24.2h-6.9v-10.4h-6.9v10.4zm6.9-17.3v-3.5h-6.9v3.5h6.9zm10.3-10.4h6.9v10.4h6.9v-10.4h6.9v13.8h-3.5v3.5h-3.5v10.4h-6.9v-10.4h-3.5v-3.5h-3.5v-13.8zm48.4 10.4h20.7v6.9h-20.7v-6.9z"/><path class="st30" d="M-1215.1 943.4h20.7v6.9h-20.7v-6.9zm55.3 17.3h-6.9V933h17.3v3.5h3.5v10.4h-3.5v3.5h-10.4v10.3zm0-17.3h6.9v-3.5h-6.9v3.5zm27.6 6.9h-3.5v10.4h-6.9V933h17.3v3.5h3.5v10.4h-3.5v3.5h3.5v10.4h-6.9v-6.9h-3.5v-3.6zm-3.5-6.9h6.9v-3.5h-6.9v3.5zm20.8 13.8h-3.5v-20.7h3.5V933h17.3v6.9h-13.8v3.5h6.9v6.9h-6.9v3.5h13.8v6.9h-17.3v-3.5zm20.7-20.7h3.5V933h17.3v6.9h-13.8v3.5h10.4v3.5h3.5v10.4h-3.5v3.5h-17.3v-6.9h13.8v-3.5h-10.4v-3.5h-3.5v-10.4zm24.2 0h3.5V933h17.3v6.9h-13.8v3.5h10.4v3.5h3.5v10.4h-3.5v3.5h-17.3v-6.9h13.8v-3.5h-10.4v-3.5h-3.5v-10.4zm55.3 24.2h-6.9v-24.2h3.5V933h13.8v3.5h3.5v24.2h-6.9v-10.4h-6.9v10.4zm6.9-17.3v-3.5h-6.9v3.5h6.9zm20.8 3.4h-3.5v13.8h-6.9V933h6.9v3.5h3.5v3.5h3.5v-7h6.9v27.6h-6.9v-10.4h-3.5v-3.4zm13.8-13.8h6.9v10.4h6.9V933h6.9v13.8h-3.5v3.5h-3.5v10.4h-6.9v-10.4h-3.5v-3.5h-3.5V933zm55.3 27.7h-6.9V933h6.9v6.9h3.5v-3.5h3.5V933h6.9v6.9h-3.5v3.5h-3.5v6.9h3.5v3.5h3.5v6.9h-6.9v-3.5h-3.5v-3.5h-3.5v7zm20.7-3.5h-3.5v-20.7h3.5V933h17.3v6.9h-13.8v3.5h6.9v6.9h-6.9v3.5h13.8v6.9h-17.3v-3.5zm20.7-24.2h6.9v10.4h6.9V933h6.9v13.8h-3.5v3.5h-3.5v10.4h-6.9v-10.4h-3.5v-3.5h-3.5V933zm48.4 0h20.7v6.9h-6.9v20.7h-6.9v-20.7h-6.9V933zm24.2 3.5h3.5V933h13.8v3.5h3.5v20.7h-3.5v3.5h-13.8v-3.5h-3.5v-20.7zm6.9 17.3h6.9V940h-6.9v13.8zm48.4 6.9h-6.9V933h17.3v3.5h3.5v10.4h-3.5v3.5h-10.4v10.3zm0-17.3h6.9v-3.5h-6.9v3.5zm20.7 13.8h-3.5V933h6.9v20.7h13.8v6.9H-728v-3.4zm27.7 3.5h-6.9v-24.2h3.5V933h13.8v3.5h3.5v24.2h-6.9v-10.4h-6.9v10.4zm6.9-17.3v-3.5h-6.9v3.5h6.9zm10.4-10.4h6.9v10.4h6.9V933h6.9v13.8h-3.5v3.5h-3.5v10.4h-6.9v-10.4h-3.5v-3.5h-3.5V933zm48.4 10.4h20.7v6.9h-20.7v-6.9z"/><path class="st4" d="M-1215.1 939h20.7v6.9h-20.7V939zm55.3 17.3h-6.9v-27.6h17.3v3.5h3.5v10.4h-3.5v3.5h-10.4v10.2zm0-17.3h6.9v-3.5h-6.9v3.5zm27.6 6.9h-3.5v10.4h-6.9v-27.6h17.3v3.5h3.5v10.4h-3.5v3.5h3.5v10.4h-6.9v-6.9h-3.5v-3.7zm-3.5-6.9h6.9v-3.5h-6.9v3.5zm20.8 13.8h-3.5v-20.7h3.5v-3.5h17.3v6.9h-13.8v3.5h6.9v6.9h-6.9v3.5h13.8v6.9h-17.3v-3.5zm20.7-20.7h3.5v-3.5h17.3v6.9h-13.8v3.5h10.4v3.5h3.5v10.4h-3.5v3.5h-17.3v-6.9h13.8V946h-10.4v-3.5h-3.5v-10.4zm24.2 0h3.5v-3.5h17.3v6.9h-13.8v3.5h10.4v3.5h3.5v10.4h-3.5v3.5h-17.3v-6.9h13.8V946h-10.4v-3.5h-3.5v-10.4zm55.3 24.2h-6.9v-24.2h3.5v-3.5h13.8v3.5h3.5v24.2h-6.9v-10.4h-6.9v10.4zm6.9-17.3v-3.5h-6.9v3.5h6.9zm20.8 3.4h-3.5v13.8h-6.9v-27.6h6.9v3.5h3.5v3.5h3.5v-6.9h6.9v27.6h-6.9v-10.4h-3.5v-3.5zm13.8-13.8h6.9V939h6.9v-10.4h6.9v13.8h-3.5v3.5h-3.5v10.4h-6.9v-10.4h-3.5v-3.5h-3.5v-13.8zm55.3 27.7h-6.9v-27.6h6.9v6.9h3.5v-3.5h3.5v-3.5h6.9v6.9h-3.5v3.5h-3.5v6.9h3.5v3.5h3.5v6.9h-6.9v-3.5h-3.5v-3.5h-3.5v7zm20.7-3.5h-3.5v-20.7h3.5v-3.5h17.3v6.9h-13.8v3.5h6.9v6.9h-6.9v3.5h13.8v6.9h-17.3v-3.5zm20.7-24.2h6.9V939h6.9v-10.4h6.9v13.8h-3.5v3.5h-3.5v10.4h-6.9v-10.4h-3.5v-3.5h-3.5v-13.8zm48.4 0h20.7v6.9h-6.9v20.7h-6.9v-20.7h-6.9v-6.9zm24.2 3.5h3.5v-3.5h13.8v3.5h3.5v20.7h-3.5v3.5h-13.8v-3.5h-3.5v-20.7zm6.9 17.2h6.9v-13.8h-6.9v13.8zm48.4 7h-6.9v-27.6h17.3v3.5h3.5v10.4h-3.5v3.5h-10.4v10.2zm0-17.3h6.9v-3.5h-6.9v3.5zm20.7 13.8h-3.5v-24.2h6.9v20.7h13.8v6.9H-728v-3.4zm27.7 3.5h-6.9v-24.2h3.5v-3.5h13.8v3.5h3.5v24.2h-6.9v-10.4h-6.9v10.4zm6.9-17.3v-3.5h-6.9v3.5h6.9zm10.4-10.4h6.9V939h6.9v-10.4h6.9v13.8h-3.5v3.5h-3.5v10.4h-6.9v-10.4h-3.5v-3.5h-3.5v-13.8zm48.4 10.4h20.7v6.9h-20.7V939z"/><path class="st31" d="M1546.7 236.9H-121.8v931.2h1681.5V236.9h-13zm-12.9 56.5v829.5h-12.9v11.3H1508v11.3H-70.2v-11.3h-12.9v-11.3H-96V282.1h12.9v-11.3h12.9v-11.3h1578.3v11.3h12.9v11.3h12.9v11.3z"/><path class="st32" d="M266.7-120.4v-8.7H-100v83.4h356.1v-8.7h10.6v-8.8h9.8v-57.2z"/><path class="st31" d="M266.2-129.1v-8.7H-111v8.7h-9.8v50.3h9.8v15.7h10.5v8.7h356.1v-8.7h10.6v-8.8h9.9v-57.2z"/><path class="st13" d="M-182.8 87h92.2v32.8h-92.2z"/><text transform="translate(-161.63 105.127)" class="st4" font-family="EditUndoBRK" font-size="31.543">DMG</text><path class="st22" d="M17 121.3h254.7v-18H17v5.2h-6.9v7.7H17v5.1z"/><path class="st22" d="M280.4 108.5v-5.2h-55.7v18h55.7v-5.1h6.9v-7.7z"/><g class="st33"><path class="st34" d="M660.6 334.5v-78h-89.9v10h-10.1v57.9h10.1v10.1zm235.1-69v-10h-92.1v78h92.1v-10.1h10v-57.9z"/><path class="st34" d="M580.6 265.5h305v78h-305z"/></g><path class="st31" d="M670.6 334.5v-78h-89.9v10h-10.1v57.9h10.1v10.1z"/><path class="st31" d="M660.6 324.5v-78h-89.9v10h-10.1v57.9h10.1v10.1zm225.1-58v-10h-92.1v78h92.1v-10.1h10v-57.9z"/><path class="st31" d="M895.7 256.5v-10h-92.1v78h92.1v-10.1h10v-57.9zm-225.1 0h123v78h-123z"/><path class="st35" d="M670.6 324.5v-78h-89.9v10h-10.1v57.9h10.1v10.1zm215.1-68v-10h-78.1v78h78.1v-10.1h10v-57.9z"/><g class="st33"><path class="st34" d="M660.6 70.9v-78h-89.9V3h-10.1v57.8h10.1v10.1zM895.7 2V-8.1h-92.1v78h92.1V59.8h10V2z"/><path class="st34" d="M580.6 1.9h305v78h-305z"/></g><path class="st31" d="M670.6 70.9v-78h-89.9V3h-10.1v57.8h10.1v10.1z"/><path class="st31" d="M660.6 60.9v-78h-89.9V-7h-10.1v57.8h10.1v10.1zM885.7 3V-7.1h-92.1v78h92.1V60.8h10V3z"/><path class="st31" d="M895.7-7v-10.1h-92.1v78h92.1V50.8h10V-7zm-225.1-.1h123v78h-123z"/><path class="st35" d="M670.6 60.9v-78h-89.9V-7h-10.1v57.8h10.1v10.1zM885.7-7v-10.1h-78.1v78h78.1V50.8h10V-7z"/><path class="st35" d="M655.6 246.5h169v78h-169zm0-263.6h169v78h-169z"/><path class="st13" d="M650.6 278.7h179v81.8h-179z"/><text transform="translate(672.726 306.35)" class="st4" font-family="EditUndoBRK" font-size="48">124 KM</text><path class="st32" d="M1536.2 256.5h8v2h-8zm-81 0v10h-10v57.9h9.9v10h.1v.1h9.9v10h55.1v-88z"/><path class="st31" d="M1545.2 256.5v-10h-89.9v10h-10.1v57.9h10v10h.1v.1h10v10h89.9v-78z"/><path class="st2" d="M1515.3 268h-37.8v5.3h-5.4v37.8h5.4v5.4h37.8v-5.4h5.3v-37.8h-5.3z"/><path class="st3" d="M1515.6 262.2h-38.1v5.4h-5.4v38.1h5.4v5.3h38.1v-5.3h5.3v-38.1h-5.3z"/><path class="st4" d="M1485 291.3h24.2v4.8H1485zm0-11.1h24.2v4.8H1485z"/><g class="st33"><path class="st36" d="M1477.5 316.6v5h38.1v-5h-32.7zm-5.4-5.4h5.4v5h-5.4zm43.5 0h5.4v5h-5.4z"/></g><path class="st32" d="M1536.2 32.8h8v2h-8zm-81 0v10.1h-10v57.8h9.9v10h.1v.1h9.9v10h55.1v-88z"/><path class="st31" d="M1545.2 32.8v-10h-89.9v10.1h-10.1v57.8h10v10h.1v.1h10v10h89.9v-78z"/><path class="st2" d="M1515.3-75.3h-37.8v5.4h-5.4v37.8h5.4v5.3h37.8v-5.3h5.3v-37.8h-5.3z"/><path class="st3" d="M1515.6-81h-38.1v5.4h-5.4v38h5.4v5.4h38.1v-5.4h5.3v-38h-5.3z"/><path class="st4" d="M1485-51.9h24.2v4.8H1485zm0-11.2h24.2v4.8H1485z"/><g class="st33"><path class="st36" d="M1477.5-26.6v5h38.1v-5h-32.7zm-5.4-5.4h5.4v5h-5.4zm43.5 0h5.4v5h-5.4z"/></g><path class="st22" d="M43.7 3.8V0H4.8v3.7H0v5.5h4.8v3.7h38.9V9.2h4.5V3.8zm6.7-236.9v-3.8H11.5v3.7H6.7v5.5h4.8v3.7h38.9v-3.7h4.5v-5.4z"/><path class="st37" d="M204.3-233.1v-3.8H11.5v3.7H6.7v5.5h4.8v3.7h192.8v-3.7h4.4v-5.4z"/><path class="st31" d="M1755.3 1145.4h18.2v-11.3h12.9v-11.3h12.9v-24.6h25.8v69.8h-69.8z"/><path class="st31" d="M1821.4 1098.3v18.2h11.3v12.9h11.3v12.9h24.7v25.8h-69.8v-69.8zm-52.1 47.1v18.3h11.3v12.9h11.3v12.9h24.7v25.8h-69.9v-69.9zm-81.2 0h-18.2v-11.3H1657v-11.3h-12.9v-24.6h-25.8v69.8h69.8z"/><path class="st31" d="M1743.5 1192.7h-18.2v-11.3h-12.9v-11.3h-12.9v-24.7h-25.8v69.9h69.8zm-122.5-83.6v18.2h-11.3v12.9h-11.3v12.9h-24.6v25.8h69.8v-69.8z"/></svg>