<svg xmlns="http://www.w3.org/2000/svg" width="245.7" height="148.6" viewBox="0 0 245.7 148.6"><style>.st0{fill:#c6e0de}.st1{fill:#a7c6c3}</style><path class="st0" d="M0 57v81.7h5.2v4.7h5.3v5.2h224.8v-5.2h5.2v-4.7h5.2V57zm245.7 0V10h-5.2V5.2h-5.2V0H10.5v5.2H5.2V10H0v47z"/><path class="st1" d="M5.2 10h5.3V5.2H5.2V10H0v4.8h5.2zm5.3-10h224.8v4.8H10.5zm230 10V5.2h-5.2V10h5.2v4.8h5.2V10z"/><path d="M21.7 21.9h7.5v1.5h1.5v8.9h-1.5v1.5h-7.5V21.9zm3 8.9h3v-6h-3v6zm11.9-1.5h-1.5v4.5h-3V23.4h1.5v-1.5h6v1.5h1.5v4.5h-1.5v1.5h1.5v4.5h-3v-3h-1.5v-1.6zm-1.5-3h3v-1.5h-3v1.5zm10.5 7.5h-3V23.4h1.5v-1.5h6v1.5h1.5v10.5h-3v-4.5h-3v4.4zm2.9-7.5v-1.5h-3v1.5h3zm4.5-2.9h1.5v-1.5H62v3h-6v6h3v-1.5h-1.5v-3H62v6h-1.5v1.5h-6v-1.5H53v-9zm20.9-1.5h3v8.9h3v-8.9h3v10.5h-1.5v1.5h-6v-1.5h-1.5V21.9zm10.4 1.5h1.5v-1.5h6v1.5h1.5v4.5h-1.5v1.5h-4.5v4.5h-3V23.4zm3 2.9h3v-1.5h-3v1.5zm20.9 7.5h-3V23.4h1.5v-1.5h6v1.5h1.5v10.5h-3v-4.5h-3v4.4zm3-7.5v-1.5h-3v1.5h3zm10.4-1.4h-3v8.9h-3V23.4h1.5v-1.5h6v1.5h1.5v10.5h-3v-9zm4.5-3h7.5v1.5h1.5v8.9h-1.5v1.5h-7.5V21.9zm3 8.9h3v-6h-3v6zm17.9-8.9h7.5v1.5h1.5v8.9h-1.5v1.5H147V21.9zm3 8.9h3v-6h-3v6zm7.5-7.4h1.5v-1.5h5.9v1.5h1.5v8.9h-1.5v1.5h-6v-1.5h-1.5l.1-8.9zm3 7.4h3v-6h-3v6zm7.4-8.9h3v8.9h1.5v-8.9h3v8.9h1.5v-8.9h3v10.5h-1.5v1.5h-8.9v-1.5H168V21.9zm19.4 3h-3v8.9h-3V23.4h1.5v-1.5h6v1.5h1.5v10.5h-3v-9zm14.9-3h8.9v3h-3v8.9h-3v-8.9h-3l.1-3zm10.5 1.5h1.5v-1.5h6v1.5h1.5v8.9h-1.5v1.5h-6v-1.5h-1.5v-8.9zm3 7.4h3v-6h-3v6zM46.3 57.2h-1.5v-8.9h1.5v-1.5h6v1.5h1.5v3h-3v-1.5h-3v6h3v-1.5h3v3h-1.5v1.5h-6v-1.6zm12 1.5h-3V46.8h3v4.5h3v-4.5h3v11.9h-3v-4.5h-2.9v4.5zm10.4 0h-3V48.2h1.5v-1.5h6v1.5h1.5v10.5h-3v-4.5h-3v4.5zm3-7.5v-1.5h-3v1.5h3zm10.4-1.5h-3v8.9h-3V48.2h1.5v-1.5h6v1.5h1.5v10.5h-3v-9zm4.5-1.5h1.5v-1.5h7.5v3h-6v6h3v-1.5h-1.5v-3h4.5v6H94v1.5h-6v-1.5h-1.5v-9zm11.9 9H97v-8.9h1.5v-1.5h7.5v3h-6v1.5h3v3h-3v1.5h6v3h-7.5v-1.6zm19.4-10.4h7.5v1.5h1.5v8.9h-1.5v1.5h-7.5V46.8zm3 8.9h3v-6h-3v6zm7.5-8.9h3v11.9h-3V46.8zm8.9 7.4h-1.5v4.5h-3V48.2h1.5v-1.5h6v1.5h1.5v4.5h-1.5v1.5h1.5v4.5h-3v-3h-1.5v-1.5zm-1.4-3h3v-1.5h-3v1.5zm8.9 6h-1.5v-8.9h1.5v-1.5h7.5v3h-6v1.5h3v3h-3v1.5h6v3h-7.5v-1.6zm10.4 0h-1.5v-8.9h1.5v-1.5h6v1.5h1.5v3h-3v-1.5h-3v6h3v-1.5h3v3h-1.5v1.5h-6v-1.6zm9-10.4h8.9v3h-3v8.9h-3v-8.9h-3v-3h.1zm10.4 0h3v11.9h-3V46.8zm4.5 1.4h1.5v-1.5h6v1.5h1.5v8.9h-1.5v1.5h-6v-1.5h-1.5v-8.9zm3 7.5h3v-6h-3v6zm13.4-6h-3v8.9h-3V48.2h1.5v-1.5h6v1.5h1.5v10.5h-3v-9zM100.2 77h3.5v3.5h-3.5zm3.5 3.4h3.5v3.5h-3.5zm3.4 3.5h3.5v3.5h-3.5z"/><path d="M103.7 83.9h3.5v3.5h-3.5zm-3.5 0h3.5v3.5h-3.5z"/><path d="M96.8 83.9h3.5v3.5h-3.5zm-3.5 0h3.5v3.5h-3.5zm13.8 3.4h3.5v3.5h-3.5zm3.5 0h3.5v3.5h-3.5z"/><path d="M103.7 87.3h3.5v3.5h-3.5zm-3.5 0h3.5v3.5h-3.5z"/><path d="M96.8 87.3h3.5v3.5h-3.5zm-3.5 0h3.5v3.5h-3.5zm-3.5 0h3.5v3.5h-3.5zm17.3 3.5h3.5v3.5h-3.5zm3.5 0h3.5v3.5h-3.5z"/><path d="M114 90.8h3.5v3.5H114zm-10.3 0h3.5v3.5h-3.5zm-3.5 0h3.5v3.5h-3.5z"/><path d="M100.2 94.2h3.5v3.5h-3.5zm0 3.5h3.5v3.5h-3.5zm0 3.5h3.5v3.5h-3.5z"/><path d="M100.2 104.6h3.5v3.5h-3.5zm0 3.5h3.5v3.5h-3.5z"/><path d="M100.2 111.5h3.5v3.5h-3.5zm3.5-17.3h3.5v3.5h-3.5zm0 3.5h3.5v3.5h-3.5zm0 3.5h3.5v3.5h-3.5z"/><path d="M103.7 104.6h3.5v3.5h-3.5zm0 3.5h3.5v3.5h-3.5z"/><path d="M103.7 111.5h3.5v3.5h-3.5zm-3.5 3.5h3.5v3.5h-3.5zm-3.4-20.8h3.5v3.5h-3.5zm0 3.5h3.5v3.5h-3.5zm0 3.5h3.5v3.5h-3.5z"/><path d="M96.8 104.6h3.5v3.5h-3.5zm0 3.5h3.5v3.5h-3.5z"/><path d="M96.8 111.5h3.5v3.5h-3.5zm0 3.5h3.5v3.5h-3.5zm6.9 0h3.5v3.5h-3.5zm-6.9-24.2h3.5v3.5h-3.5zm-3.5 0h3.5v3.5h-3.5zm-3.5 0h3.5v3.5h-3.5z"/><path d="M86.4 90.8h3.5v3.5h-3.5zm13.8-10.4h3.5v3.5h-3.5z"/><path d="M96.8 80.4h3.5v3.5h-3.5zm40.9 48.4h3.5v3.5h-3.5zm-3.4-3.5h3.5v3.5h-3.5zm-3.5-3.4h3.5v3.5h-3.5z"/><path d="M134.3 121.9h3.5v3.5h-3.5z"/><path d="M137.7 121.9h3.5v3.5h-3.5zm3.5 0h3.5v3.5h-3.5z"/><path d="M144.6 121.9h3.5v3.5h-3.5zm-13.8-3.5h3.5v3.5h-3.5z"/><path d="M127.4 118.4h3.5v3.5h-3.5zm6.9 0h3.5v3.5h-3.5z"/><path d="M137.7 118.4h3.5v3.5h-3.5zm3.5 0h3.5v3.5h-3.5z"/><path d="M144.6 118.4h3.5v3.5h-3.5zm3.5 0h3.5v3.5h-3.5zm-17.3-3.4h3.5v3.5h-3.5z"/><path d="M127.4 115h3.5v3.5h-3.5zm-3.5 0h3.5v3.5h-3.5zm10.4 0h3.5v3.5h-3.5z"/><path d="M137.7 115h3.5v3.5h-3.5zm0-3.5h3.5v3.5h-3.5z"/><path d="M137.7 108.1h3.5v3.5h-3.5zm0-3.5h3.5v3.5h-3.5z"/><path d="M137.7 101.2h3.5v3.5h-3.5zm0-3.5h3.5v3.5h-3.5zm0-3.5h3.5v3.5h-3.5zm-3.4 17.3h3.5v3.5h-3.5z"/><path d="M134.3 108.1h3.5v3.5h-3.5zm0-3.5h3.5v3.5h-3.5z"/><path d="M134.3 101.2h3.5v3.5h-3.5zm0-3.5h3.5v3.5h-3.5zm0-3.5h3.5v3.5h-3.5z"/><path d="M137.7 90.8h3.5v3.5h-3.5zm3.5 20.7h3.5v3.5h-3.5z"/><path d="M141.2 108.1h3.5v3.5h-3.5zm0-3.5h3.5v3.5h-3.5z"/><path d="M141.2 101.2h3.5v3.5h-3.5zm0-3.5h3.5v3.5h-3.5zm0-3.5h3.5v3.5h-3.5z"/><path d="M141.2 90.8h3.5v3.5h-3.5zm-6.9 0h3.5v3.5h-3.5zm6.9 24.2h3.5v3.5h-3.5z"/><path d="M144.6 115h3.5v3.5h-3.5zm3.5 0h3.5v3.5h-3.5z"/><path d="M151.5 115h3.5v3.5h-3.5zm-13.8 10.3h3.5v3.5h-3.5zm3.5 0h3.5v3.5h-3.5z"/></svg>