<svg id="Layer_1" xmlns="http://www.w3.org/2000/svg" xmlns:xlink="http://www.w3.org/1999/xlink" width="70" height="70" viewBox="0 0 70 70"><style>.st0{fill:#5895b7}.st1{opacity:.8}.st2{fill:#c17620}.st3{fill:#f4c24a}.st4{fill:#fff}.st5{fill:#2a6fba}.st6{fill:#4abaef}.st7{fill:#95c9c8}.st8{fill:#ddefee}.st9{fill:#1b8e6f}.st10{fill:#3cea8a}.st11{opacity:.4;fill:#666}.st12{fill:#33bc6e}.st13{fill:none}.st14{fill:#7149a4}.st15{fill:#bd86e0}.st16{opacity:.4;fill:#666;stroke:#666;stroke-width:4;stroke-linejoin:bevel;stroke-miterlimit:10}.st17{fill:#f2f2f2}.st18{fill:#e6e6e6}.st19{fill:none;stroke:#000;stroke-width:4;stroke-linejoin:bevel;stroke-miterlimit:10}.st20{fill:#c6e0de}.st21{fill:#a7c6c3}.st22{fill:#ee3d53}.st23{fill:none;stroke:#000;stroke-width:2;stroke-miterlimit:10}.st24{fill:#a17559}.st25{fill:#910e46}.st26{fill:#238d6f}.st27{fill:#704ca2}.st28{fill:#47e88d}.st29{fill:#bc88de}.st30{fill:#ccc}.st31{fill:#5b2616}.st32{fill:#2d3d3e}.st32,.st33{opacity:.38}.st34{fill:#2d3d3e}.st35{fill:#3f180f}.st36{fill:#1a1a1a}.st37{fill:#38140c}</style><path class="st0" d="M-2821 970h484v82h-484z"/><path class="st0" d="M-2369 1044h107v30h-107z"/><g class="st1"><path class="st0" d="M-2805 990v82h-96v-11h12v-12h12v-12h12v-12h-12v-12h-12v-12h-12v-11z"/><path class="st0" d="M-2819 1048l14 23v-23z"/></g><path class="st2" d="M-2358 982v82h96v-11h-12v-12h-12v-12h-12v-12h12v-12h12v-12h12v-11z"/><path class="st3" d="M-2358 971v82h96v-11h-12v-12h-12v-12h-12v-12h12v-12h12v-12h12v-11z"/><path class="st2" d="M-2344 1040l-14 23v-23zm-470-58v82h-96v-11h12v-12h12v-12h12v-12h-12v-12h-12v-12h-12v-11z"/><path class="st3" d="M-2814 971v82h-96v-11h12v-12h12v-12h12v-12h-12v-12h-12v-12h-12v-11z"/><path class="st2" d="M-2828 1040l14 23v-23zm0-82h484v82h-484z"/><path class="st3" d="M-2828 946h484v82h-484z"/><path class="st4" d="M-2757.4 1005.8h-8.6v-34.6h8.6v13h8.6v-13h8.6v34.6h-8.6v-13h-8.6v13zm21.6-30.2h4.3v-4.3h17.3v4.3h4.3v25.9h-4.3v4.3h-17.3v-4.3h-4.3v-25.9zm8.7 21.6h8.6v-17.3h-8.6v17.3zm30.2 8.6h-8.6v-34.6h8.6v17.3h4.3v-4.3h4.3v4.3h4.3v-17.3h8.6v34.6h-8.6v-4.3h-4.3v-4.3h-4.3v4.3h-4.3v4.3zm56.2-34.6h25.9v8.6h-8.6v25.9h-8.6v-25.9h-8.6v-8.6zm30.2 4.4h4.3v-4.3h17.3v4.3h4.3v25.9h-4.3v4.3h-17.3v-4.3h-4.3v-25.9zm8.6 21.6h8.6v-17.3h-8.6v17.3zm60.5 8.6h-8.6v-34.6h21.6v4.3h4.3v13h-4.3v4.3h-13v13zm0-21.6h8.6v-4.3h-8.6v4.3zm25.9 17.3h-4.3v-30.2h8.6v25.9h17.3v8.6h-21.6v-4.3zm34.6 4.3h-8.6v-30.2h4.3v-4.3h17.3v4.3h4.3v30.2h-8.6v-13h-8.6v13zm8.6-21.6v-4.3h-8.6v4.3h8.6zm13-13h8.6v13h8.6v-13h8.6v17.3h-4.3v4.3h-4.3v13h-8.6v-13h-4.3v-4.3h-4.3v-17.3z"/><path class="st5" d="M-2652 1239h-85v12h-12v85h12v12h85v-12h12v-85h-12z"/><path class="st5" d="M-2652 1239h-85v12h-12v85h12v12h85v-12h12v-85h-12z"/><path class="st4" d="M-2712.4 1273.2h28.4v5.7h5.7v17.1h-5.7v5.7h-17.1v-11.4h11.4v-5.7h-22.8v-11.4zm11.4 34.2h11.4v11.4h-11.4v-11.4z"/><path class="st5" d="M-2501 1239h-85v12h-12v85h12v12h85v-12h12v-85h-12z"/><path class="st6" d="M-2501 1229h-85v12h-12v85h12v12h85v-12h12v-85h-12z"/><path class="st4" d="M-2561.4 1263.2h28.4v5.7h5.7v17.1h-5.7v5.7h-17.1v-11.4h11.4v-5.7h-22.8v-11.4zm11.4 34.2h11.4v11.4h-11.4v-11.4z"/><path class="st0" d="M-1466 1083.5h-11.6v-11.6h-11.5v-12.8h-498.8v12.8h-11.5v11.6h-11.6v684.8h11.6v11.6h11.5v12.8h498.8v-12.8h11.5v-11.6h11.6z"/><path class="st7" d="M-1466 1071.5h-11.6v-11.6h-11.5v-12.8h-498.8v12.8h-11.5v11.6h-11.6v684.7h11.6v11.7h11.5v12.8h498.8v-12.8h11.5v-11.7h11.6z"/><path class="st8" d="M-1466 1059.5h-11.6v-11.7h-11.5V1035h-498.8v12.8h-11.5v11.7h-11.6v684.7h11.6v11.6h11.5v12.9h498.8v-12.9h11.5v-11.6h11.6z"/><path class="st0" d="M-2952-909h-4.1v-4.1h-4v-4.6h-176.3v4.6h-4v4.1h-4.1v241.9h4.1v4.1h4v4.6h176.3v-4.6h4v-4.1h4.1z"/><path class="st7" d="M-2952-913.3h-4.1v-4.1h-4v-4.5h-176.3v4.5h-4v4.1h-4.1v242h4.1v4.1h4v4.5h176.3v-4.5h4v-4.1h4.1z"/><path class="st8" d="M-2952-917.5h-4.1v-4.1h-4v-4.6h-176.3v4.6h-4v4.1h-4.1v241.9h4.1v4.1h4v4.6h176.3v-4.6h4v-4.1h4.1z"/><path class="st9" d="M-2515 719h-384.9v10.1h-10.1V787h10.1v10h384.9v-10h10.1v-57.9h-10.1z"/><path class="st10" d="M-2515 709h-384.9v10.1h-10.1V777h10.1v10h384.9v-10h10.1v-57.9h-10.1z"/><path class="st4" d="M-2789.9 759.9h-6.9v-27.6h17.3v3.5h3.5v10.4h-3.5v3.5h-10.4v10.2zm0-17.3h6.9v-3.5h-6.9v3.5zm20.7 13.9h-3.5v-24.2h6.9V753h13.8v6.9h-17.3v-3.4zm27.6 3.4h-6.9v-24.2h3.5v-3.5h13.8v3.5h3.5v24.2h-6.9v-10.4h-6.9v10.4zm7-17.3v-3.5h-6.9v3.5h6.9zm10.3-10.3h6.9v10.4h6.9v-10.4h6.9v13.8h-3.5v3.5h-3.5V760h-6.9v-10.4h-3.5v-3.5h-3.5v-13.8zm27.7 24.2h-3.5v-20.7h3.5v-3.5h17.3v6.9h-13.8v3.5h6.9v6.9h-6.9v3.5h13.8v6.9h-17.3v-3.5zm31.1-7h-3.5v10.4h-6.9v-27.6h17.3v3.5h3.5v10.4h-3.5v3.5h3.5v10.4h-6.9V753h-3.5v-3.5zm-3.5-6.9h6.9v-3.5h-6.9v3.5zm41.5-10.3h6.9v27.6h-6.9v-27.6z"/><path class="st11" d="M-2875.8 598.4l-2-5.7-4-12.1-17.8 6.1 1.9 5.7-5.8 2 4.1 12 5.8-1.9 1.9 5.7 12.1-4-2-5.8zm38.8-12l-2-5.8-4-12-17.8 6 1.9 5.8-5.8 1.9 4.1 12.1 5.8-2 1.9 5.8 12.1-4.1-2-5.8z"/><path transform="rotate(-18.702 -2893.258 558.97)" d="M-2896.6 539.4h7.1V578h-7.1z"/><path d="M-2877.4 593.6l-2-5.7-4.1-12.1-17.8 6.1 2 5.7-5.8 2 4.1 12 5.8-1.9 1.9 5.7 12-4-1.9-5.8z"/><path transform="rotate(-18.702 -2854.787 545.94)" d="M-2858.1 526.4h7.1V565h-7.1z"/><path d="M-2839 580.6l-1.9-5.8-4.1-12-17.8 6 2 5.8-5.8 2 4.1 12 5.7-2 2 5.8 12-4.1-1.9-5.7z"/><path transform="rotate(-18.702 -2882.98 526.006)" d="M-2906.6 517.1h47.7v17.3h-47.7z"/><path class="st11" d="M-2809.6 632l.9-4.1 1.9-8.7-12.8-2.8-.9 4.2-4.1-1-2 8.7 4.2.9-.9 4.2 8.6 1.9.9-4.2zm27.5 6.8l.9-4.2 1.9-8.6-12.8-2.8-.9 4.1-4.1-.9-1.9 8.7 4.1.9-.9 4.1 8.6 1.9 1-4.1z"/><path transform="rotate(12.41 -2805.399 602.091)" d="M-2808 588.6h5v26.9h-5z"/><path d="M-2808.8 628.6l.9-4.2 1.9-8.6-12.8-2.8-.9 4.1-4.2-.9-1.9 8.6 4.2.9-1 4.2 8.7 1.9.9-4.2z"/><path transform="rotate(12.41 -2777.739 608.177)" d="M-2780.4 594.7h5v26.9h-5z"/><path d="M-2781.2 634.6l.9-4.1 1.9-8.6-12.8-2.9-.9 4.2-4.1-.9-1.9 8.6 4.1.9-.9 4.2 8.7 1.9.9-4.2z"/><path transform="rotate(12.41 -2787.385 586.118)" d="M-2804.2 580.1h33.3v12h-33.3z"/><path class="st11" d="M-2733.6 570.2l-.7-3-1.4-6.4-9.4 2.1.7 3.1-3 .6 1.4 6.4 3-.7.7 3.1 6.3-1.5-.6-3zm20.4-4l-.6-3-1.5-6.4-9.3 2.1.6 3.1-3 .6 1.4 6.4 3-.7.7 3 6.4-1.4-.7-3z"/><path transform="rotate(-12.552 -2740.013 548.93)" d="M-2742 539.2h3.6V559h-3.6z"/><path d="M-2734.2 567.7l-.6-3.1-1.4-6.3-9.4 2.1.6 3-3 .7 1.4 6.4 3.1-.7.6 3 6.4-1.4-.7-3z"/><path transform="rotate(-12.552 -2719.706 544.41)" d="M-2721.7 534.6h3.6v19.8h-3.6z"/><path d="M-2713.8 563.2l-.7-3.1-1.4-6.3-9.4 2.1.7 3-3.1.7 1.4 6.3 3.1-.6.6 3 6.4-1.4-.7-3.1z"/><path transform="rotate(-12.552 -2732.967 532.708)" d="M-2745.3 528.4h24.4v8.8h-24.4z"/><path class="st11" d="M-2713 616l2.6-4.1 5.5-8.6-12.7-8.1-2.6 4.2-4.1-2.7-5.5 8.6 4.1 2.6-2.6 4.1 8.6 5.5 2.6-4.1zm27 18.1l2.6-4.1 5.5-8.6-12.7-8-2.6 4.1-4.1-2.6-5.5 8.5 4.1 2.6-2.6 4.2 8.6 5.4 2.6-4.1z"/><path transform="rotate(32.435 -2696.847 585.438)" d="M-2699.7 569.9h5.7v30.9h-5.7z"/><path d="M-2710.8 612.6l2.6-4.2 5.5-8.5-12.7-8.1-2.6 4.1-4.2-2.6-5.4 8.6 4.1 2.6-2.6 4.1 8.6 5.5 2.6-4.2z"/><path transform="rotate(32.435 -2669.42 602.864)" d="M-2672.3 587.3h5.7v30.9h-5.7z"/><path d="M-2683.4 630l2.6-4.1 5.5-8.6-12.7-8.1-2.6 4.2-4.1-2.7-5.5 8.6 4.1 2.6-2.6 4.1 8.6 5.5 2.6-4.1z"/><path transform="rotate(32.435 -2671.153 575.295)" d="M-2690.3 568.3h38.2v13.8h-38.2z"/><path class="st9" d="M-2991.7 175.6h-253v6.6h-6.6v38h6.6v6.6h253v-6.6h6.6v-38h-6.6z"/><path class="st12" d="M-2991.7 175.6h-253v6.6h-6.6v38h6.6v6.6h253v-6.6h6.6v-38h-6.6z"/><path class="st4" d="M-3184.9 193.1h2.3v-2.3h11.4v4.5h-9.1v9.1h9.1v4.5h-11.4v-2.3h-2.3v-13.5zm20.4 15.9h-4.5v-15.9h2.3v-2.3h9.1v2.3h2.3V209h-4.5v-6.8h-4.5v6.8zm4.6-11.3v-2.3h-4.5v2.3h4.5zm9 9h-2.3v-15.9h4.5v13.6h9.1v4.5h-11.4v-2.2zm13.7-15.9h4.5V209h-4.5v-18.2zm6.8 0h11.4v2.3h2.3v13.6h-2.3v2.3h-11.4v-18.2zm4.5 6.9h4.5v-2.3h-4.5v2.3zm0 6.8h4.5v-2.3h-4.5v2.3zm18.2-2.3h-2.3v6.8h-4.5v-15.9h2.3v-2.3h9.1v2.3h2.3v6.8h-2.3v2.3h2.3v6.8h-4.5v-4.5h-2.3v-2.3zm-2.3-4.5h4.5v-2.3h-4.5v2.3zm15.9 11.3h-4.5v-15.9h2.3v-2.3h9.1v2.3h2.3V209h-4.5v-6.8h-4.5v6.8zm4.6-11.3v-2.3h-4.5v2.3h4.5zm6.8-6.9h13.6v4.5h-4.5V209h-4.5v-13.6h-4.5v-4.6zm18.1 15.9h-2.3v-13.6h2.3v-2.3h11.4v4.5h-9.1v2.3h4.5v4.5h-4.5v2.3h9.1v4.5h-11.4v-2.2z"/><path class="st9" d="M-2671.7 243.6h-253v6.6h-6.6v38h6.6v6.6h253v-6.6h6.6v-38h-6.6z"/><path class="st10" d="M-2671.7 237h-253v6.6h-6.6v38h6.6v6.7h253v-6.7h6.6v-38h-6.6z"/><path class="st4" d="M-2864.9 254.5h2.3v-2.3h11.4v4.5h-9.1v9.1h9.1v4.5h-11.4V268h-2.3v-13.5zm20.4 15.9h-4.5v-15.9h2.3v-2.3h9.1v2.3h2.3v15.9h-4.5v-6.8h-4.5v6.8zm4.6-11.3v-2.3h-4.5v2.3h4.5zm9 9.1h-2.3v-15.9h4.5v13.6h9.1v4.5h-11.4v-2.2zm13.7-15.9h4.5v18.2h-4.5v-18.2zm6.8 0h11.4v2.3h2.3v13.6h-2.3v2.3h-11.4v-18.2zm4.5 6.8h4.5v-2.3h-4.5v2.3zm0 6.8h4.5v-2.3h-4.5v2.3zm18.2-2.3h-2.3v6.8h-4.5v-15.9h2.3v-2.3h9.1v2.3h2.3v6.8h-2.3v2.3h2.3v6.8h-4.5v-4.5h-2.3v-2.3zm-2.3-4.5h4.5v-2.3h-4.5v2.3zm15.9 11.3h-4.5v-15.9h2.3v-2.3h9.1v2.3h2.3v15.9h-4.5v-6.8h-4.5v6.8zm4.6-11.3v-2.3h-4.5v2.3h4.5zm6.8-6.8h13.6v4.5h-4.5v13.6h-4.5v-13.6h-4.5v-4.5zm18.1 15.9h-2.3v-13.6h2.3v-2.3h11.4v4.5h-9.1v2.3h4.5v4.5h-4.5v2.3h9.1v4.5h-11.4v-2.2z"/><path class="st9" d="M-2929.7 325.9h219.8v28.8h-219.8z"/><path class="st9" d="M-2934.6 319.4h229.4V350h-229.4z"/><path class="st10" d="M-2934.6 315v29.3h4.9v5.7h219.7v-5.7h4.8V315z"/><path class="st9" d="M-2714.8 329.9v-5.1h-5.1v-.1H-2925v5.1h-5.1v7.7h5.1v5.1h5.1v.1h200v-.1h5.1v-5.1h5.1v-7.6z"/><path class="st13" d="M-2938.7 423.9h4.7v.1h-4.7zm0 17.9h4.7v.1h-4.7z"/><path class="st4" d="M-2917.7 441.9v-5.1h5.1v-7.7h-5.1V424h-5.1v-.1h-11.2v.1h-4.7v17.8h4.7v.1h11.2zm-46.8-53.5v-5.1h-5.1v-.1h-15.9v18h15.9v-.1h5.1V396h5.1v-7.6zm-13.5 38.8V422h-9.6v5.2h-5.1v7.6h5.1v5.2h9.6v-5.1h5.1v-7.7zm-49.8-97.3v-5.2h-9.6v5.1h-5.1v7.7h5.1v5.2h9.6v-5.2h5.1v-7.6z"/><path class="st14" d="M-2062 719h-384.9v10.1h-10.1V787h10.1v10h384.9v-10h10.1v-57.9h-10.1z"/><path class="st15" d="M-2062 709h-384.9v10.1h-10.1V777h10.1v10h384.9v-10h10.1v-57.9h-10.1z"/><path class="st4" d="M-2344.4 759.9h-6.9v-27.6h17.3v3.5h3.5v10.4h-3.5v3.5h-10.4v10.2zm0-17.3h6.9v-3.5h-6.9v3.5zm20.8 13.9h-3.5v-24.2h6.9V753h13.8v6.9h-17.3v-3.4zm27.6 3.4h-6.9v-24.2h3.5v-3.5h13.8v3.5h3.5v24.2h-6.9v-10.4h-6.9v10.4zm6.9-17.3v-3.5h-6.9v3.5h6.9zm10.4-10.3h6.9v10.4h6.9v-10.4h6.9v13.8h-3.5v3.5h-3.5V760h-6.9v-10.4h-3.5v-3.5h-3.5v-13.8zm27.7 24.2h-3.5v-20.7h3.5v-3.5h17.3v6.9h-13.8v3.5h6.9v6.9h-6.9v3.5h13.8v6.9h-17.3v-3.5zm31.1-7h-3.5v10.4h-6.9v-27.6h17.3v3.5h3.5v10.4h-3.5v3.5h3.5v10.4h-6.9V753h-3.5v-3.5zm-3.5-6.9h6.9v-3.5h-6.9v3.5zm41.5-10.3h17.3v3.5h3.5v10.4h-3.5v3.5h-10.4v3.5h13.8v6.9h-20.7v-13.8h3.5v-3.5h10.4v-3.5h-13.8v-7zM-2436 713h45.1v5.7h-45.1zm51.3 0h5.7v5.7h-5.7zm-505.8 1h45.1v5.7h-45.1zm51.3 0h5.7v5.7h-5.7z"/><path class="st16" d="M-2501.4 554l6.4 5.6-5.6 6.4 20.4 17.4v37.9l20.8-26.1 31.7 29.4 5.9-6.3 5 4.6 71.6-118.7z"/><path class="st17" d="M-2503.8 546.9l6.3 5.6-5.6 6.4 20.5 17.4v37.9l20.7-26.1 31.8 29.4 5.8-6.3 5 4.6 71.6-118.7z"/><path class="st18" d="M-2461.8 587.9l114.4-90.8-135.1 79V614z"/><path class="st19" d="M-2504.9 547.1l6.4 5.6-5.6 6.4 20.4 17.3v37.9l20.8-26.1 31.7 29.4 5.9-6.3 4.9 4.6 71.7-118.6z"/><path class="st20" d="M-2569.1 240.3V404h10.4v9.5h10.4v10.4h447.5v-10.4h10.4V404h10.3V240.3zm489 0v-94.1h-10.3v-9.5h-10.4v-10.5h-447.5v10.5h-10.4v9.5h-10.4v94.1z"/><path class="st21" d="M-2558.7 142.8h10.4v-8h-10.4v7.9h-10.4v8h10.4zm10.4-16.7h447.5v8h-447.5zm457.9 16.6v-7.9h-10.4v8h10.4v7.9h10.3v-8z"/><path d="M-2962.2 61.8h10.2V72h-10.2zm61.4-10.2v5.1h-5.1v5.1h5.1v20.5h5.1v5.1h-5.1v5.1h10.2V82.3h15.4v5.1h5.1V51.6h-30.7zm25.6 25.6h-20.5V56.7h20.5v20.5z"/><path d="M-2890.5 61.8h10.2V72h-10.2zm-71.7 71.7h10.2v10.2h-10.2zm61.4-10.2h5.1v5.1h-5.1zm-25.6 25.6h5.1v5.1h-5.1zm5.2-20.5h5.1v5.1h-5.1zm0 10.3h5.1v5.1h-5.1zm46-25.7h5.1v5.1h-5.1zm-97.2 0h5.1v5.1h-5.1zm0-25.6h5.1v5.1h-5.1zm56.3-30.7v5.1h-10.3V67h15.4V56.7z"/><path d="M-2875.2 92.6v5.1h-10.2v5.1h-15.4v-5.1h-5.1v5.1h-10.2v5.1h15.4v5.1h-15.3v-5.1h-5.1v5.1h-5.1v-5.1h-5.1v5.1h-5.1v5.1h10.2v5.1h5.1v-5.1h10.2v5.1h-5.1v5.1h5.1v10.2h5.1v5.1h5.1v-5.1h15.4v-10.2h5.1v-5.1h-5.1V113h-10.2v-5.1h10.2v5.1h5.1v-5.1h5.1v-5.1h5.1V92.6h-5.2zm-15.3 25.6v15.4h-15.4v-15.4h15.4zm-15.4-35.9h-5.1v5.1h-5.1v10.3h5.1v-5.1h5.1v-5.2h5.1v-5.1zm-10.2 66.6h10.2v5.1h-10.2zm-15.4-92.2h5.1v5.1h-5.1z"/><path d="M-2890.5 92.6h5.1v5.1h-5.1zm5.1-5.2h5.1v5.1h-5.1zM-2952 113h5.1v5.1h-5.1zm10.3 35.9v-20.5h5.1v-10.2h-5.1v5.1h-15.4v-5.1h-10.2v5.1h-5.1V154h40.9v-5.1h-10.2zm-5.1 0h-20.5v-20.5h20.5v20.5zm5.1-66.6h5.1v5.1h-5.1zm5.1-30.7h-35.8v30.7h5.1v5.1h5.1v-5.1h5.1v5.1h5.1v-5.1h10.2V72.1h5.1V67h-5.1V56.7h10.2v-5.1h-5zm-10.2 25.6h-20.5V56.7h20.5v20.5zM-2911 67h5.1v5.1h-5.1zm-10.2-15.4h5.1v5.1h-5.1z"/><path d="M-2911 82.3v-5.1h-5.1v-5.1h-5.1v5.1h-10.2v-5.1h-5.1v10.2h5.1v10.2h-15.4v-5.1h-5.1v5.1h-15.4v5.1h10.2v5.1h-15.4v5.1h15.4v5.1h5.1v-5.1h5.1v5.1h5.1v-5.1h10.2v-5.1h-5.1v-5.1h10.2v5.1h10.2v-5.1h-5.1v-5.1h-5.1V82.3h15.5zm-30.7 20.5h-10.2v-5.1h10.2v5.1zm15.3 30.7v-10.2h-5.1v5.1h-5.1v5.1h5.1v5.2h-5.1v5.1h10.2v-5.1h5.2v-5.2zm46.1 10.3v-5.1h-5.1v5.1h-15.4v5.1h10.3v5.1h5.1v-5.1h10.2v5.1h5.2v-10.2zm5.1-20.5v5.1h-5.1v5.1h10.3v-10.2z"/><path class="st9" d="M-3200.6 467.7h-140.8v3.7h-3.7v21.2h3.7v3.7h140.8v-3.7h3.7v-21.2h-3.7z"/><path class="st12" d="M-3200.6 467.7h-140.8v3.7h-3.7v21.2h3.7v3.7h140.8v-3.7h3.7v-21.2h-3.7z"/><path class="st4" d="M-3313.2 482.6h-1.3v3.8h-2.5v-10.1h6.3v1.3h1.3v3.8h-1.3v1.3h1.3v3.8h-2.5V484h-1.3v-1.4zm-1.3-2.6h2.5v-1.3h-2.5v1.3zm7.6 5.1h-1.3v-7.6h1.3v-1.3h6.3v2.5h-5.1v1.3h2.5v2.5h-2.5v1.3h5.1v2.5h-6.3v-1.2zm8.9 0h-1.3v-7.6h1.3v-1.3h5.1v1.3h1.3v2.5h-2.5v-1.3h-2.5v5.1h2.5v-1.3h2.5v2.5h-1.3v1.3h-5.1v-1.2zm10.1 1.3h-2.5v-8.9h1.3v-1.3h5.1v1.3h1.3v8.9h-2.5v-3.8h-2.5v3.8zm2.5-6.4v-1.3h-2.5v1.3h2.5zm5.1 5.1h-1.3v-8.9h2.5v7.6h5.1v2.5h-6.3v-1.2zm7.6-8.9h2.5v10.1h-2.5v-10.1zm3.8 0h6.3v1.3h1.3v7.6h-1.3v1.3h-6.3v-10.2zm2.5 3.8h2.5v-1.3h-2.5v1.3zm0 3.8h2.5v-1.3h-2.5v1.3zm10.1-1.2h-1.3v3.8h-2.5v-8.9h1.3v-1.3h5.1v1.3h1.3v3.8h-1.3v1.3h1.3v3.8h-2.5v-2.5h-1.3v-1.3zm-1.2-2.6h2.5v-1.3h-2.5v1.3zm8.8 6.4h-2.5v-8.9h1.3v-1.3h5.1v1.3h1.3v8.9h-2.5v-3.8h-2.5v3.8zm2.5-6.4v-1.3h-2.5v1.3h2.5zm3.8-3.8h7.6v2.5h-2.5v7.6h-2.5v-7.6h-2.5v-2.5zm10.1 8.9h-1.3v-7.6h1.3v-1.3h6.3v2.5h-5.1v1.3h2.5v2.5h-2.5v1.3h5.1v2.5h-6.3v-1.2zm-106.7-15.2h13.1v1.7h-13.1zm14.9 0h1.7v1.7h-1.7z"/><path class="st9" d="M-3200.6 509.7h-140.8v3.7h-3.7v21.2h3.7v3.7h140.8v-3.7h3.7v-21.2h-3.7z"/><path class="st10" d="M-3200.6 506.1h-140.8v3.7h-3.7v21.1h3.7v3.7h140.8v-3.7h3.7v-21.1h-3.7z"/><path class="st4" d="M-3313.2 520.9h-1.3v3.8h-2.5v-10.1h6.3v1.3h1.3v3.8h-1.3v1.3h1.3v3.8h-2.5v-2.5h-1.3v-1.4zm-1.3-2.5h2.5v-1.3h-2.5v1.3zm7.6 5h-1.3v-7.6h1.3v-1.3h6.3v2.5h-5.1v1.3h2.5v2.5h-2.5v1.3h5.1v2.5h-6.3v-1.2zm8.9 0h-1.3v-7.6h1.3v-1.3h5.1v1.3h1.3v2.5h-2.5V517h-2.5v5.1h2.5v-1.3h2.5v2.5h-1.3v1.3h-5.1v-1.2zm10.1 1.3h-2.5v-8.9h1.3v-1.3h5.1v1.3h1.3v8.9h-2.5v-3.8h-2.5v3.8zm2.5-6.3v-1.3h-2.5v1.3h2.5zm5.1 5h-1.3v-8.9h2.5v7.6h5.1v2.5h-6.3v-1.2zm7.6-8.8h2.5v10.1h-2.5v-10.1zm3.8 0h6.3v1.3h1.3v7.6h-1.3v1.3h-6.3v-10.2zm2.5 3.8h2.5v-1.3h-2.5v1.3zm0 3.8h2.5v-1.3h-2.5v1.3zm10.1-1.3h-1.3v3.8h-2.5v-8.9h1.3v-1.3h5.1v1.3h1.3v3.8h-1.3v1.3h1.3v3.8h-2.5v-2.5h-1.3v-1.3zm-1.2-2.5h2.5v-1.3h-2.5v1.3zm8.8 6.3h-2.5v-8.9h1.3v-1.3h5.1v1.3h1.3v8.9h-2.5v-3.8h-2.5v3.8zm2.5-6.3v-1.3h-2.5v1.3h2.5zm3.8-3.8h7.6v2.5h-2.5v7.6h-2.5v-7.6h-2.5v-2.5zm10.1 8.8h-1.3v-7.6h1.3v-1.3h6.3v2.5h-5.1v1.3h2.5v2.5h-2.5v1.3h5.1v2.5h-6.3v-1.2zm-106.7-14.5h13.1v1.7h-13.1zm14.9 0h1.7v1.7h-1.7zm404.9-268.3h23.6v3h-23.6zm26.8 0h3v3h-3zm-347.2-61.5h23.6v3h-23.6zm26.8 0h3v3h-3z"/><path class="st22" d="M-3269.7 302.6v-7.5h-18.6v7.5h-7.5v18.7h7.5v7.4h18.6v-7.4h7.5v-18.7z"/><path class="st23" d="M-3287.7 328.7v10m17.4-10v10"/><path class="st24" d="M-3271.3 336.8h-15.5v2.2h-2.2v15.5h2.2v2.2h15.5v-2.2h2.2V339h-2.2z"/><path class="st25" d="M-3202.6 741.9v-8h-141.7v8h-7.9v45.5h7.9v8h141.7v-8h7.9v-45.5z"/><path class="st25" d="M-3202.6 742v-7.9h-141.7v7.9h-7.9v45.5h7.9v8h141.7v-8h7.9V742z"/><path class="st4" d="M-3306.1 775.4h-5.4v-21.8h13.6v2.7h2.7v8.2h-2.7v2.7h-8.2v8.2zm0-13.6h5.4v-2.7h-5.4v2.7zm16.3 10.9h-2.7v-19h5.4V770h10.9v5.4h-13.6v-2.7zm21.8 2.7h-5.4v-19h2.7v-2.7h10.9v2.7h2.7v19h-5.4v-8.2h-5.4v8.2zm5.4-13.6v-2.7h-5.4v2.7h5.4zm8.2-8.2h5.4v8.2h5.4v-8.2h5.4v10.9h-2.7v2.7h-2.7v8.2h-5.4v-8.2h-2.7v-2.7h-2.7v-10.9z"/><path class="st25" d="M-3032.6 741.9v-8h-141.7v8h-7.9v45.5h7.9v8h141.7v-8h7.9v-45.5z"/><path class="st22" d="M-3032.6 734v-7.9h-141.7v7.9h-7.9v45.5h7.9v8h141.7v-8h7.9V734z"/><path class="st4" d="M-3136.1 767.4h-5.4v-21.8h13.6v2.7h2.7v8.2h-2.7v2.7h-8.2v8.2zm0-13.6h5.4v-2.7h-5.4v2.7zm16.3 10.9h-2.7v-19h5.4V762h10.9v5.4h-13.6v-2.7zm21.8 2.7h-5.4v-19h2.7v-2.7h10.9v2.7h2.7v19h-5.4v-8.2h-5.4v8.2zm5.4-13.6v-2.7h-5.4v2.7h5.4zm8.2-8.2h5.4v8.2h5.4v-8.2h5.4v10.9h-2.7v2.7h-2.7v8.2h-5.4v-8.2h-2.7v-2.7h-2.7v-10.9z"/><path class="st26" d="M-4026.2 496.3h43.2v108h43.2v-108h43.2v129.6h-21.6v21.6h-21.6v21.6h-43.2v-21.6h-21.6v-21.6h-21.6V496.3z"/><path class="st27" d="M-3875 519.9h21.6v-21.6h108v43.2h-86.4v21.6h64.8v21.6h21.6v64.8h-21.6v21.6h-108v-43.2h86.4v-21.6h-64.8v-21.6h-21.6v-64.8z"/><path class="st28" d="M-4026.2 475.2h43.2v108h43.2v-108h43.2v129.6h-21.6v21.6h-21.6V648h-43.2v-21.6h-21.6v-21.6h-21.6V475.2z"/><path class="st29" d="M-3875 496.8h21.6v-21.6h108v43.2h-86.4V540h64.8v21.6h21.6v64.8h-21.6V648h-108v-43.2h86.4v-21.6h-64.8v-21.6h-21.6v-64.8z"/><path class="st0" d="M-3976.8 853.8h27.5v68.7h27.5v-68.7h27.5v82.4h-13.7V950h-13.7v13.7h-27.5V950h-13.7v-13.7h-13.7v-82.5zm96.1 15.1h13.7v-13.7h68.7v27.5h-54.9v13.7h41.2v13.7h13.7v41.2h-13.7V965h-68.7v-27.5h54.9v-13.7h-41.2v-13.7h-13.7v-41.2z"/><path class="st7" d="M-3976.8 839.3h27.5V908h27.5v-68.7h27.5v82.4h-13.7v13.7h-13.7v13.7h-27.5v-13.7h-13.7v-13.7h-13.7v-82.4zm96.1 15.1h13.7v-13.7h68.7v27.5h-54.9v13.7h41.2v13.7h13.7v41.2h-13.7v13.7h-68.7V923h54.9v-13.7h-41.2v-13.7h-13.7v-41.2z"/><path class="st4" d="M-3976.8 825.9h27.5v68.7h27.5v-68.7h27.5v82.4h-13.7V922h-13.7v13.7h-27.5V922h-13.7v-13.7h-13.7v-82.4zm96.1 13.8h13.7V826h68.7v27.5h-54.9v13.7h41.2v13.7h13.7v41.2h-13.7v13.7h-68.7v-27.5h54.9v-13.7h-41.2v-13.7h-13.7v-41.2z"/><path class="st0" d="M-3402.4-5.9h-21.6v-86.4h54v10.8h10.8v32.4h-10.8v10.8h-32.4v32.4zm0-54h21.6v-10.8h-21.6v10.8zm54-21.6h10.8v-10.8h43.2v10.8h10.8v64.8h-10.8v10.8h-43.2v-10.8h-10.8v-64.8zm21.6 54h21.6v-43.2h-21.6v43.2zm64.8 10.8h-10.8v-75.6h21.6v64.8h43.2v21.6h-54v-10.8z"/><path class="st0" d="M-3218.8-92.3h21.6v32.4h21.6v-32.4h21.6v43.2h-10.8v10.8h-10.8v32.4h-21.6v-32.4h-10.8v-10.8h-10.8v-43.2z"/><path class="st30" d="M-3402.4-14.3h-21.6v-86.4h54v10.8h10.8v32.4h-10.8v10.8h-32.4v32.4zm0-54h21.6v-10.8h-21.6v10.8zm54-21.6h10.8v-10.8h43.2v10.8h10.8v64.8h-10.8v10.8h-43.2v-10.8h-10.8v-64.8zm21.6 54h21.6v-43.2h-21.6v43.2zm64.8 10.8h-10.8v-75.6h21.6v64.8h43.2v21.6h-54v-10.8z"/><path class="st30" d="M-3218.8-100.7h21.6v32.4h21.6v-32.4h21.6v43.2h-10.8v10.8h-10.8v32.4h-21.6v-32.4h-10.8v-10.8h-10.8v-43.2z"/><path class="st4" d="M-3402.4-22.5h-21.6v-86.4h54v10.8h10.8v32.4h-10.8v10.8h-32.4v32.4zm0-54h21.6v-10.8h-21.6v10.8zm54-21.6h10.8v-10.8h43.2v10.8h10.8v64.8h-10.8v10.8h-43.2v-10.8h-10.8v-64.8zm21.6 54h21.6v-43.2h-21.6v43.2zm64.8 10.8h-10.8v-75.6h21.6v64.8h43.2v21.6h-54v-10.8z"/><path class="st4" d="M-3218.8-108.9h21.6v32.4h21.6v-32.4h21.6v43.2h-10.8v10.8h-10.8v32.4h-21.6v-32.4h-10.8v-10.8h-10.8v-43.2z"/><image width="843" height="1118" xlink:href="C763D7D2648168E1.jpg" transform="matrix(.24 0 0 .24 -3633.48 41.32)" overflow="visible"/><g class="st1"><path class="st0" d="M-3075.5-322.3v86.4h101.2v-11.6h-12.7v-12.6h-12.6v-12.7h-12.7v-12.6h12.7v-12.7h12.6v-12.6h12.7v-11.6z"/><path class="st0" d="M-3060.8-261.2l-14.7 24.3v-24.3z"/></g><path class="st0" d="M-3563.7-345.3h510.3v86.5h-510.3z"/><path class="st0" d="M-3087.1-267.2h112.8v31.6h-112.8z"/><g class="st1"><path class="st0" d="M-3555.9-322.2v86.5h-101.2v-11.6h12.7V-260h12.6v-12.6h12.7v-12.7h-12.7v-12.6h-12.6v-12.7h-12.7v-11.6z"/><path class="st0" d="M-3570.6-261l14.7 24.2V-261z"/></g><path class="st2" d="M-3075.5-332.6v86.4h101.2v-11.6h-12.7v-12.6h-12.6v-12.7h-12.7v-12.6h12.7v-12.7h12.6V-321h12.7v-11.6z"/><path class="st3" d="M-3075.5-344.2v86.4h101.2v-11.6h-12.7V-282h-12.6v-12.7h-12.7v-12.6h12.7V-320h12.6v-12.6h12.7v-11.6z"/><path class="st2" d="M-3060.8-271.5l-14.7 24.3v-24.3zm-495.6-61.1v86.4h-101.2v-11.6h12.7v-12.6h12.6v-12.7h12.7v-12.6h-12.7v-12.7h-12.6V-321h-12.7v-11.6z"/><path class="st3" d="M-3556.4-344.2v86.4h-101.2v-11.6h12.7V-282h12.6v-12.7h12.7v-12.6h-12.7V-320h-12.6v-12.6h-12.7v-11.6z"/><path class="st2" d="M-3571.1-271.5l14.7 24.3v-24.3z"/><path class="st2" d="M-3571.1-357.9h510.3v86.5h-510.3z"/><path class="st3" d="M-3571.1-370.6h510.3v86.5h-510.3z"/><path class="st25" d="M-3457-295.6h-37.4v-59.9h37.4v7.5h7.5v15h-7.5v15h7.5v15h-7.5v7.4zm-22.4-37.5h15v-7.5h-15v7.5zm0 22.5h15v-7.5h-15v7.5zm52.4 15h-15V-348h7.5v-7.5h30v7.5h7.5v52.4h-15v-22.5h-15v22.5zm15-37.5v-7.5h-15v7.5h15zm29.9 30h-7.5v-52.4h15v44.9h30v15h-37.4v-7.5zm52.4 0h-7.5v-52.4h15v44.9h30v15h-37.4v-7.5zm45-44.9h7.5v-7.5h30v7.5h7.5v44.9h-7.5v7.5h-30v-7.5h-7.5V-348zm15 37.4h15v-30h-15v30zm37.4-37.4h7.5v-7.5h30v7.5h7.5v44.9h-7.5v7.5h-30v-7.5h-7.5V-348zm15 37.4h15v-30h-15v30zm59.9-15h-7.5v30h-15v-59.9h15v7.5h7.5v7.5h7.5v-15h15v59.9h-15v-22.5h-7.5v-7.5z"/><path class="st22" d="M-3457-301.4h-37.4v-59.9h37.4v7.5h7.5v15h-7.5v15h7.5v15h-7.5v7.4zm-22.4-37.5h15v-7.5h-15v7.5zm0 22.5h15v-7.5h-15v7.5zm52.4 15h-15v-52.4h7.5v-7.5h30v7.5h7.5v52.4h-15v-22.5h-15v22.5zm15-37.5v-7.5h-15v7.5h15zm29.9 30h-7.5v-52.4h15v44.9h30v15h-37.4v-7.5zm52.4 0h-7.5v-52.4h15v44.9h30v15h-37.4v-7.5zm45-45h7.5v-7.5h30v7.5h7.5v44.9h-7.5v7.5h-30v-7.5h-7.5v-44.9zm15 37.5h15v-30h-15v30zm37.4-37.5h7.5v-7.5h30v7.5h7.5v44.9h-7.5v7.5h-30v-7.5h-7.5v-44.9zm15 37.5h15v-30h-15v30zm59.9-15h-7.5v30h-15v-59.9h15v7.5h7.5v7.5h7.5v-15h15v59.9h-15v-22.5h-7.5v-7.5z"/><path class="st0" d="M-2965.3-148.9h20.7v6.9h-20.7v-6.9zm55.2 17.3h-6.9v-27.6h17.3v3.5h3.5v10.4h-3.5v3.5h-10.4v10.2zm0-17.3h6.9v-3.5h-6.9v3.5zm27.7 6.9h-3.5v10.4h-6.9v-27.6h17.3v3.5h3.5v10.4h-3.5v3.5h3.5v10.4h-6.9v-6.9h-3.5v-3.7zm-3.5-6.9h6.9v-3.5h-6.9v3.5zm20.8 13.8h-3.5v-20.7h3.5v-3.5h17.3v6.9h-13.8v3.5h6.9v6.9h-6.9v3.5h13.8v6.9h-17.3v-3.5zm20.7-20.7h3.5v-3.5h17.3v6.9h-13.8v3.5h10.4v3.5h3.5v10.4h-3.5v3.5h-17.3v-6.9h13.8v-3.5h-10.4v-3.5h-3.5v-10.4zm24.2 0h3.5v-3.5h17.3v6.9h-13.8v3.5h10.4v3.5h3.5v10.4h-3.5v3.5h-17.3v-6.9h13.8v-3.5h-10.4v-3.5h-3.5v-10.4zm55.3 24.2h-6.9v-24.2h3.5v-3.5h13.8v3.5h3.5v24.2h-6.9V-142h-6.9v10.4zm6.9-17.3v-3.5h-6.9v3.5h6.9zm20.7 3.5h-3.5v13.8h-6.9v-27.6h6.9v3.5h3.5v3.5h3.5v-6.9h6.9v27.6h-6.9V-142h-3.5v-3.4zm13.9-13.9h6.9v10.4h6.9v-10.4h6.9v13.8h-3.5v3.5h-3.5v10.4h-6.9V-142h-3.5v-3.5h-3.5v-13.8zm55.3 27.7h-6.9v-27.6h6.9v6.9h3.5v-3.5h3.5v-3.5h6.9v6.9h-3.5v3.5h-3.5v6.9h3.5v3.5h3.5v6.9h-6.9v-3.5h-3.5v-3.5h-3.5v7zm20.7-3.5h-3.5v-20.7h3.5v-3.5h17.3v6.9h-13.8v3.5h6.9v6.9h-6.9v3.5h13.8v6.9h-17.3v-3.5zm20.7-24.2h6.9v10.4h6.9v-10.4h6.9v13.8h-3.5v3.5h-3.5v10.4h-6.9V-142h-3.5v-3.5h-3.5v-13.8zm48.4 0h20.7v6.9h-6.9v20.7h-6.9v-20.7h-6.9v-6.9zm24.2 3.5h3.5v-3.5h13.8v3.5h3.5v20.7h-3.5v3.5h-13.8v-3.5h-3.5v-20.7zm6.9 17.3h6.9v-13.8h-6.9v13.8zm48.4 6.9h-6.9v-27.6h17.3v3.5h3.5v10.4h-3.5v3.5h-10.4v10.2zm0-17.3h6.9v-3.5h-6.9v3.5zm20.7 13.8h-3.5v-24.2h6.9v20.7h13.8v6.9h-17.3v-3.4zm27.7 3.5h-6.9v-24.2h3.5v-3.5h13.8v3.5h3.5v24.2h-6.9V-142h-6.9v10.4zm6.9-17.3v-3.5h-6.9v3.5h6.9zm10.4-10.4h6.9v10.4h6.9v-10.4h6.9v13.8h-3.5v3.5h-3.5v10.4h-6.9V-142h-3.5v-3.5h-3.5v-13.8zm48.3 10.4h20.7v6.9h-20.7v-6.9z"/><path class="st30" d="M-2966.2-154.8h20.7v6.9h-20.7v-6.9zm55.3 17.3h-6.9v-27.6h17.3v3.5h3.5v10.4h-3.5v3.5h-10.4v10.2zm0-17.3h6.9v-3.5h-6.9v3.5zm27.6 6.9h-3.5v10.4h-6.9v-27.6h17.3v3.5h3.5v10.4h-3.5v3.5h3.5v10.4h-6.9v-6.9h-3.5v-3.7zm-3.4-6.9h6.9v-3.5h-6.9v3.5zm20.7 13.8h-3.5v-20.7h3.5v-3.5h17.3v6.9h-13.8v3.5h6.9v6.9h-6.9v3.5h13.8v6.9h-17.3v-3.5zm20.7-20.7h3.5v-3.5h17.3v6.9h-13.8v3.5h10.4v3.5h3.5v10.4h-3.5v3.5h-17.3v-6.9h13.8v-3.5h-10.4v-3.5h-3.5v-10.4zm24.2 0h3.5v-3.5h17.3v6.9h-13.8v3.5h10.4v3.5h3.5v10.4h-3.5v3.5h-17.3v-6.9h13.8v-3.5h-10.4v-3.5h-3.5v-10.4zm55.3 24.2h-6.9v-24.2h3.5v-3.5h13.8v3.5h3.5v24.2h-6.9v-10.4h-6.9v10.4zm6.9-17.3v-3.5h-6.9v3.5h6.9zm20.8 3.5h-3.5v13.8h-6.9v-27.6h6.9v3.5h3.5v3.5h3.5v-6.9h6.9v27.6h-6.9v-10.4h-3.5v-3.5zm13.8-13.9h6.9v10.4h6.9v-10.4h6.9v13.8h-3.5v3.5h-3.5v10.4h-6.9v-10.4h-3.5v-3.5h-3.5v-13.8zm55.3 27.7h-6.9v-27.6h6.9v6.9h3.5v-3.5h3.5v-3.5h6.9v6.9h-3.5v3.5h-3.5v6.9h3.5v3.5h3.5v6.9h-6.9v-3.5h-3.5v-3.5h-3.5v7zm20.7-3.5h-3.5v-20.7h3.5v-3.5h17.3v6.9h-13.8v3.5h6.9v6.9h-6.9v3.5h13.8v6.9h-17.3v-3.5zm20.8-24.2h6.9v10.4h6.9v-10.4h6.9v13.8h-3.5v3.5h-3.5v10.4h-6.9v-10.4h-3.5v-3.5h-3.5v-13.8zm48.3 0h20.7v6.9h-6.9v20.7h-6.9v-20.7h-6.9v-6.9zm24.2 3.5h3.5v-3.5h13.8v3.5h3.5v20.7h-3.5v3.5h-13.8v-3.5h-3.5v-20.7zm7 17.3h6.9v-13.8h-6.9v13.8zm48.3 6.9h-6.9v-27.6h17.3v3.5h3.5v10.4h-3.5v3.5h-10.4v10.2zm0-17.3h6.9v-3.5h-6.9v3.5zm20.8 13.8h-3.5v-24.2h6.9v20.7h13.8v6.9h-17.3v-3.4zm27.6 3.5h-6.9v-24.2h3.5v-3.5h13.8v3.5h3.5v24.2h-6.9v-10.4h-6.9v10.4zm6.9-17.3v-3.5h-6.9v3.5h6.9zm10.4-10.4h6.9v10.4h6.9v-10.4h6.9v13.8h-3.5v3.5h-3.5v10.4h-6.9v-10.4h-3.5v-3.5h-3.5v-13.8zm48.4 10.4h20.7v6.9h-20.7v-6.9z"/><path class="st4" d="M-2966.2-159.2h20.7v6.9h-20.7v-6.9zm55.3 17.3h-6.9v-27.6h17.3v3.5h3.5v10.4h-3.5v3.5h-10.4v10.2zm0-17.3h6.9v-3.5h-6.9v3.5zm27.6 6.9h-3.5v10.4h-6.9v-27.6h17.3v3.5h3.5v10.4h-3.5v3.5h3.5v10.4h-6.9v-6.9h-3.5v-3.7zm-3.4-6.9h6.9v-3.5h-6.9v3.5zm20.7 13.8h-3.5v-20.7h3.5v-3.5h17.3v6.9h-13.8v3.5h6.9v6.9h-6.9v3.5h13.8v6.9h-17.3v-3.5zm20.7-20.7h3.5v-3.5h17.3v6.9h-13.8v3.5h10.4v3.5h3.5v10.4h-3.5v3.5h-17.3v-6.9h13.8v-3.5h-10.4v-3.5h-3.5v-10.4zm24.2 0h3.5v-3.5h17.3v6.9h-13.8v3.5h10.4v3.5h3.5v10.4h-3.5v3.5h-17.3v-6.9h13.8v-3.5h-10.4v-3.5h-3.5v-10.4zm55.3 24.2h-6.9v-24.2h3.5v-3.5h13.8v3.5h3.5v24.2h-6.9v-10.4h-6.9v10.4zm6.9-17.3v-3.5h-6.9v3.5h6.9zm20.8 3.5h-3.5v13.8h-6.9v-27.6h6.9v3.5h3.5v3.5h3.5v-6.9h6.9v27.6h-6.9v-10.4h-3.5v-3.5zm13.8-13.9h6.9v10.4h6.9v-10.4h6.9v13.8h-3.5v3.5h-3.5v10.4h-6.9v-10.4h-3.5v-3.5h-3.5v-13.8zm55.3 27.7h-6.9v-27.6h6.9v6.9h3.5v-3.5h3.5v-3.5h6.9v6.9h-3.5v3.5h-3.5v6.9h3.5v3.5h3.5v6.9h-6.9v-3.5h-3.5v-3.5h-3.5v7zm20.7-3.5h-3.5v-20.7h3.5v-3.5h17.3v6.9h-13.8v3.5h6.9v6.9h-6.9v3.5h13.8v6.9h-17.3v-3.5zm20.8-24.2h6.9v10.4h6.9v-10.4h6.9v13.8h-3.5v3.5h-3.5v10.4h-6.9v-10.4h-3.5v-3.5h-3.5v-13.8zm48.3 0h20.7v6.9h-6.9v20.7h-6.9v-20.7h-6.9v-6.9zm24.2 3.5h3.5v-3.5h13.8v3.5h3.5v20.7h-3.5v3.5h-13.8v-3.5h-3.5v-20.7zm7 17.3h6.9v-13.8h-6.9v13.8zm48.3 6.9h-6.9v-27.6h17.3v3.5h3.5v10.4h-3.5v3.5h-10.4v10.2zm0-17.3h6.9v-3.5h-6.9v3.5zm20.8 13.8h-3.5v-24.2h6.9v20.7h13.8v6.9h-17.3v-3.4zm27.6 3.5h-6.9v-24.2h3.5v-3.5h13.8v3.5h3.5v24.2h-6.9v-10.4h-6.9v10.4zm6.9-17.3v-3.5h-6.9v3.5h6.9zm10.4-10.4h6.9v10.4h6.9v-10.4h6.9v13.8h-3.5v3.5h-3.5v10.4h-6.9v-10.4h-3.5v-3.5h-3.5v-13.8zm48.4 10.4h20.7v6.9h-20.7v-6.9z"/><path class="st31" d="M-204.4-861.3h-1668.5V69.9h1681.5v-931.2h-13zm-12.9 56.5V24.7h-12.9V36h-12.9v11.3h-1578.2V36h-12.9V24.7h-12.9v-840.8h12.9v-11.3h12.9v-11.3h1578.2v11.3h12.9v11.3h12.9v11.3z"/><path class="st32" d="M-1425.9-1215.9v-10.1h-422v96h409.8v-10h12.2v-10.1h11.3v-65.8z"/><path class="st31" d="M-1426.5-1225.9v-10.1h-434.1v10.1h-11.3v57.8h11.3v18.1h12.1v10h409.9v-10h12.1v-10.1h11.4v-65.8z"/><path class="st13" d="M-1933.8-1011.2h92.2v32.8h-92.2z"/><text transform="translate(-1912.707 -993.049)" class="st4" font-family="EditUndoBRK" font-size="31.543">DMG</text><path class="st22" d="M-1734-976.8h254.7v-18H-1734v5.2h-7v7.6h7v5.1z"/><path class="st22" d="M-1470.7-989.7v-5.1h-55.7v18h55.7v-5.2h6.9v-7.7z"/><g class="st33"><path class="st34" d="M-1090.5-763.7v-78h-89.9v10.1h-10.1v57.8h10.1v10.1zm235.1-68.9v-10.1h-92.1v78h92.1v-10.1h10v-57.8z"/><path class="st34" d="M-1170.5-832.7h305v78h-305z"/></g><path class="st31" d="M-1080.5-763.7v-78h-89.9v10.1h-10.1v57.8h10.1v10.1z"/><path class="st31" d="M-1090.5-773.7v-78h-89.9v10.1h-10.1v57.8h10.1v10.1zm225.1-57.9v-10.1h-92.1v78h92.1v-10.1h10v-57.8z"/><path class="st31" d="M-855.4-841.6v-10.1h-92.1v78h92.1v-10.1h10v-57.8zm-225.1-.1h123v78h-123z"/><path class="st35" d="M-1080.5-773.7v-78h-89.9v10.1h-10.1v57.8h10.1v10.1zm215.1-67.9v-10.1h-78.1v78h78.1v-10.1h10v-57.8z"/><g class="st33"><path class="st34" d="M-1090.5-1027.3v-78h-89.9v10.1h-10.1v57.9h10.1v10zm235.1-68.9v-10.1h-92.1v78h92.1v-10h10v-57.9z"/><path class="st34" d="M-1170.5-1096.3h305v78h-305z"/></g><path class="st31" d="M-1080.5-1027.3v-78h-89.9v10.1h-10.1v57.9h10.1v10z"/><path class="st31" d="M-1090.5-1037.3v-78h-89.9v10.1h-10.1v57.9h10.1v10zm225.1-57.9v-10.1h-92.1v78h92.1v-10h10v-57.9z"/><path class="st31" d="M-855.4-1105.2v-10.1h-92.1v78h92.1v-10h10v-57.9zm-225.1-.1h123v78h-123z"/><path class="st35" d="M-1080.5-1037.3v-78h-89.9v10.1h-10.1v57.8h10.1v10.1zm215.1-67.9v-10.1h-78.1v78h78.1v-10.1h10v-57.8z"/><path class="st35" d="M-1095.5-851.7h169v78h-169zm0-263.6h169v78h-169z"/><path class="st13" d="M-1100.5-819.5h179v81.8h-179z"/><text transform="translate(-1078.35 -791.826)" class="st4" font-family="EditUndoBRK" font-size="48">124 KM</text><path class="st32" d="M-214.8-841.7h8v2h-8zm-81.1 0v10.1h-9.9v57.8h9.9v10.1h9.9v10h55.2v-88z"/><path class="st31" d="M-205.8-841.7v-10h-90v10.1h-10v57.8h10v10.1h10v10h90v-78z"/><path class="st2" d="M-235.8-830.2h-37.8v5.3h-5.3v37.9h5.3v5.3h37.8v-5.3h5.3v-37.9h-5.3z"/><path class="st3" d="M-235.5-835.9h-38.1v5.3h-5.3v38.1h5.3v5.4h38.1v-5.4h5.4v-38.1h-5.4z"/><path class="st4" d="M-266-806.8h24.2v4.8H-266zm0-11.2h24.2v4.8H-266z"/><g class="st33"><path class="st36" d="M-273.6-781.6v5h38.1v-5h-32.7zm-5.3-5.3h5.4v5h-5.4zm43.4 0h5.4v5h-5.4z"/></g><path class="st32" d="M-214.8-1065.4h8v2h-8zm-81.1 0v10.1h-9.9v57.9h9.9v10h9.9v10h55.2v-88z"/><path class="st31" d="M-205.8-1065.4v-10h-90v10.1h-10v57.9h10v10h10v10h90v-78z"/><path class="st2" d="M-235.8-1173.4h-37.8v5.3h-5.3v37.8h5.3v5.4h37.8v-5.4h5.3v-37.8h-5.3z"/><path class="st3" d="M-235.5-1179.2h-38.1v5.4h-5.3v38.1h5.3v5.3h38.1v-5.3h5.4v-38.1h-5.4z"/><path class="st4" d="M-266-1150.1h24.2v4.8H-266zm0-11.1h24.2v4.8H-266z"/><g class="st33"><path class="st36" d="M-273.6-1124.8v5h38.1v-5h-32.7zm-5.3-5.4h5.4v5h-5.4zm43.4 0h5.4v5h-5.4z"/></g><path class="st22" d="M-1690-1092.9v-5.3h-54.4v5.2h-6.7v7.7h6.7v5.2h54.4v-5.2h6.3v-7.6z"/><path class="st37" d="M-1467.9-1329.8v-5.3h-269.8v5.3h-6.7v7.6h6.7v5.2h269.8v-5.1h6.3v-7.7z"/><path class="st31" d="M4.2 47.3h18.2V36h12.9V24.7h12.9V0H74v69.9H4.2z"/><path class="st31" d="M70.4.1v18.2h11.3v12.9H93v12.9h24.6v25.8H47.8V.1zM18.2 47.3v18.2h11.3v12.9h11.3v12.9h24.7v25.8H-4.4V47.3zm-81.2 0h-18.2V36h-12.9V24.7H-107V0h-25.8v69.9H-63z"/><path class="st31" d="M-7.6 94.5h-18.2V83.2h-12.9V71.9h-12.9V47.2h-25.8v69.9h69.8zM-130 10.9v18.2h-11.3V42h-11.3v12.9h-24.7v25.8h69.9V10.9z"/></svg>