<svg xmlns="http://www.w3.org/2000/svg" width="648" height="128" viewBox="0 0 648 128"><style>.st0{fill:#5895b7}.st1{opacity:.8}.st2{fill:#c17620}.st3{fill:#f4c24a}.st4{fill:#fff}</style><path class="st0" d="M89 24h484v82H89z"/><path class="st0" d="M541 98h107v30H541z"/><g class="st1"><path class="st0" d="M105 44v82H9v-11h12v-12h12V91h12V79H33V67H21V55H9V44z"/><path class="st0" d="M91 102l14 23-.1-23z"/></g><path class="st2" d="M552 36v82h96v-11h-12V95h-12V83h-12V71h12V59h12V47h12V36z"/><path class="st3" d="M552 25v82h96V96h-12V84h-12V72h-12V60h12V48h12V36h12V25z"/><path class="st2" d="M566 94l-14 23V94zM96 36v82H0v-11h12V95h12V83h12V71H24V59H12V47H0V36z"/><path class="st3" d="M96 25v82H0V96h12V84h12V72h12V60H24V48H12V36H0V25z"/><path class="st2" d="M82 94l14 23-.1-23zm0-82h484v82H82z"/><path class="st3" d="M82 0h484v82H82z"/><path class="st4" d="M152.6 59.7H144V25.1h8.6v13h8.6v-13h8.6v34.6h-8.6v-13h-8.6v13zm21.6-30.2h4.3v-4.3h17.3v4.3h4.3v25.9h-4.3v4.3h-17.3v-4.3h-4.3V29.5zm8.6 21.6h8.6V33.8h-8.6v17.3zm30.3 8.6h-8.6V25.1h8.6v17.3h4.3v-4.3h4.3v4.3h4.3V25.1h8.6v34.6H226v-4.3h-4.3v-4.3h-4.3v4.3h-4.3v4.3zm56.1-34.5h25.9v8.6h-8.6v25.9h-8.6V33.8h-8.6v-8.6h-.1zm30.3 4.3h4.3v-4.3h17.3v4.3h4.3v25.9h-4.3v4.3h-17.3v-4.3h-4.3V29.5zm8.6 21.6h8.6V33.8h-8.6v17.3zm60.5 8.6H360V25.1h21.6v4.3h4.3v13h-4.3v4.3h-13v13zm0-21.6h8.6v-4.3h-8.6v4.3zm25.9 17.3h-4.3V25.2h8.6v25.9h17.3v8.6h-21.6v-4.3zm34.6 4.3h-8.6V29.5h4.3v-4.3h17.3v4.3h4.3v30.2h-8.6v-13h-8.6v13h-.1zm8.6-21.6v-4.3h-8.6v4.3h8.6zm13-12.9h8.6v13h8.6v-13h8.6v17.3h-4.3v4.3h-4.3v13h-8.6v-13H455v-4.3h-4.3V25.2z"/></svg>