<?xml version="1.0" encoding="utf-8"?>
<!-- Generator: Adobe Illustrator 22.0.1, SVG Export Plug-In . SVG Version: 6.00 Build 0)  -->
<svg version="1.1" id="Layer_1" xmlns="http://www.w3.org/2000/svg" xmlns:xlink="http://www.w3.org/1999/xlink" x="0px" y="0px"
	 width="638px" height="98px" viewBox="0 0 648 128" style="enable-background:new 0 0 648 128;" xml:space="preserve">
<style type="text/css">
	.st0{fill:#5895B7;}
	.st1{opacity:0.8;}
	.st2{fill:#C17620;}
	.st3{fill:#F4C24A;}
	.st4{fill:#FFFFFF;}
	.st5{fill:#2A6FBA;}
	.st6{fill:#4ABAEF;}
	.st7{fill:#95C9C8;}
	.st8{fill:#DDEFEE;}
	.st9{fill:#1B8E6F;}
	.st10{fill:#3CEA8A;}
	.st11{opacity:0.4;fill:#666666;}
	.st12{fill:#33BC6E;}
	.st13{fill:none;}
	.st14{fill:#7149A4;}
	.st15{fill:#BD86E0;}
	.st16{opacity:0.4;fill:#666666;stroke:#666666;stroke-width:4;stroke-linejoin:bevel;stroke-miterlimit:10;}
	.st17{fill:#F2F2F2;}
	.st18{fill:#E6E6E6;}
	.st19{fill:none;stroke:#000000;stroke-width:4;stroke-linejoin:bevel;stroke-miterlimit:10;}
	.st20{fill:#C6E0DE;}
	.st21{fill:#A7C6C3;}
	.st22{fill:#EE3D53;}
	.st23{fill:none;stroke:#000000;stroke-width:2;stroke-miterlimit:10;}
	.st24{fill:#A17559;}
	.st25{fill:#910E46;}
	.st26{fill:#238D6F;}
	.st27{fill:#704CA2;}
	.st28{fill:#47E88D;}
	.st29{fill:#BC88DE;}
</style>
<g>
	<rect x="89" y="24" class="st0" width="484" height="82"/>
	<rect x="541" y="98" class="st0" width="107" height="30"/>
	<g class="st1">
		<g>
			<polygon class="st0" points="105,44 105,126 9,126 9,115 21,115 21,103 33,103 33,91 45,91 45,79 33,79 33,67 21,67 21,55 9,55
				9,44 			"/>
		</g>
		<polygon class="st0" points="91,102 105,125 105,102 		"/>
	</g>
	<g>
		<g>
			<polygon class="st2" points="552,36 552,118 648,118 648,107 636,107 636,95 624,95 624,83 612,83 612,71 624,71 624,59 636,59
				636,47 648,47 648,36 			"/>
			<polygon class="st3" points="552,25 552,107 648,107 648,96 636,96 636,84 624,84 624,72 612,72 612,60 624,60 624,48 636,48
				636,36 648,36 648,25 			"/>
		</g>
		<polygon class="st2" points="566,94 552,117 552,94 		"/>
		<g>
			<g>
				<polygon class="st2" points="96,36 96,118 0,118 0,107 12,107 12,95 24,95 24,83 36,83 36,71 24,71 24,59 12,59 12,47 0,47
					0,36 				"/>
				<polygon class="st3" points="96,25 96,107 0,107 0,96 12,96 12,84 24,84 24,72 36,72 36,60 24,60 24,48 12,48 12,36 0,36 0,25
									"/>
			</g>
			<polygon class="st2" points="82,94 96,117 96,94 			"/>
		</g>
		<g>
			<rect x="82" y="12" class="st2" width="484" height="82"/>
			<rect x="82" class="st3" width="484" height="82"/>
		</g>
	</g>
	<g>
		<path class="st4" d="M152.6,59.8H144V25.2h8.6v13h8.6v-13h8.6v34.6h-8.6v-13h-8.6V59.8z"/>
		<path class="st4" d="M174.2,29.6h4.3v-4.3h17.3v4.3h4.3v25.9h-4.3v4.3h-17.3v-4.3h-4.3V29.6z M182.9,51.2h8.6V33.9h-8.6V51.2z"/>
		<path class="st4" d="M213.1,59.8h-8.6V25.2h8.6v17.3h4.3v-4.3h4.3v4.3h4.3V25.2h8.6v34.6h-8.6v-4.3h-4.3v-4.3h-4.3v4.3h-4.3V59.8z
			"/>
		<path class="st4" d="M269.3,25.2h25.9v8.6h-8.6v25.9h-8.6V33.9h-8.6V25.2z"/>
		<path class="st4" d="M299.5,29.6h4.3v-4.3h17.3v4.3h4.3v25.9h-4.3v4.3h-17.3v-4.3h-4.3V29.6z M308.1,51.2h8.6V33.9h-8.6V51.2z"/>
		<path class="st4" d="M368.6,59.8H360V25.2h21.6v4.3h4.3v13h-4.3v4.3h-13V59.8z M368.6,38.2h8.6v-4.3h-8.6V38.2z"/>
		<path class="st4" d="M394.5,55.5h-4.3V25.2h8.6v25.9h17.3v8.6h-21.6V55.5z"/>
		<path class="st4" d="M429.1,59.8h-8.6V29.6h4.3v-4.3h17.3v4.3h4.3v30.2h-8.6v-13h-8.6V59.8z M437.7,38.2v-4.3h-8.6v4.3H437.7z"/>
		<path class="st4" d="M450.7,25.2h8.6v13h8.6v-13h8.6v17.3h-4.3v4.3H468v13h-8.6v-13H455v-4.3h-4.3V25.2z"/>
	</g>
</g>
<polygon class="st5" points="258,293 246,293 173,293 173,305 161,305 161,390 173,390 173,402 246,402 258,402 258,390 270,390
	270,305 258,305 "/>
<polygon class="st5" points="258,293 246,293 173,293 173,305 161,305 161,390 173,390 173,402 246,402 258,402 258,390 270,390
	270,305 258,305 "/>
<g>
	<path class="st4" d="M197.6,327.2H226v5.7h5.7V350H226v5.7H209v-11.4h11.4v-5.7h-22.8V327.2z M209,361.4h11.4v11.4H209V361.4z"/>
</g>
<polygon class="st5" points="409,293 397,293 324,293 324,305 312,305 312,390 324,390 324,402 397,402 409,402 409,390 421,390
	421,305 409,305 "/>
<polygon class="st6" points="409,283 397,283 324,283 324,295 312,295 312,380 324,380 324,392 397,392 409,392 409,380 421,380
	421,295 409,295 "/>
<g>
	<path class="st4" d="M348.6,317.2H377v5.7h5.7V340H377v5.7H360v-11.4h11.4v-5.7h-22.8V317.2z M360,351.4h11.4v11.4H360V351.4z"/>
</g>
<g>
	<polygon class="st0" points="1444,137.5 1432.4,137.5 1432.4,125.9 1420.9,125.9 1420.9,113.1 922.1,113.1 922.1,125.9
		910.6,125.9 910.6,137.5 899,137.5 899,822.3 910.6,822.3 910.6,833.9 922.1,833.9 922.1,846.7 1420.9,846.7 1420.9,833.9
		1432.4,833.9 1432.4,822.3 1444,822.3 	"/>
	<polygon class="st7" points="1444,125.5 1432.4,125.5 1432.4,113.9 1420.9,113.9 1420.9,101.1 922.1,101.1 922.1,113.9
		910.6,113.9 910.6,125.5 899,125.5 899,810.2 910.6,810.2 910.6,821.9 922.1,821.9 922.1,834.7 1420.9,834.7 1420.9,821.9
		1432.4,821.9 1432.4,810.2 1444,810.2 	"/>
	<polygon class="st8" points="1444,113.5 1432.4,113.5 1432.4,101.8 1420.9,101.8 1420.9,89 922.1,89 922.1,101.8 910.6,101.8
		910.6,113.5 899,113.5 899,798.2 910.6,798.2 910.6,809.8 922.1,809.8 922.1,822.7 1420.9,822.7 1420.9,809.8 1432.4,809.8
		1432.4,798.2 1444,798.2 	"/>
</g>
<g>
	<polygon class="st9" points="395,-227 385,-227 10.1,-227 10.1,-216.9 0,-216.9 0,-159 10.1,-159 10.1,-149 385,-149 395,-149
		395,-159 405.1,-159 405.1,-216.9 395,-216.9 	"/>
	<polygon class="st10" points="395,-237 385,-237 10.1,-237 10.1,-226.9 0,-226.9 0,-169 10.1,-169 10.1,-159 385,-159 395,-159
		395,-169 405.1,-169 405.1,-226.9 395,-226.9 	"/>
	<g>
		<path class="st4" d="M120.1-186.1h-6.9v-27.6h17.3v3.5h3.5v10.4h-3.5v3.5h-10.4V-186.1z M120.1-203.4h6.9v-3.5h-6.9V-203.4z"/>
		<path class="st4" d="M140.8-189.5h-3.5v-24.2h6.9v20.7h13.8v6.9h-17.3V-189.5z"/>
		<path class="st4" d="M168.4-186.1h-6.9v-24.2h3.5v-3.5h13.8v3.5h3.5v24.2h-6.9v-10.4h-6.9V-186.1z M175.4-203.4v-3.5h-6.9v3.5
			H175.4z"/>
		<path class="st4" d="M185.7-213.7h6.9v10.4h6.9v-10.4h6.9v13.8H203v3.5h-3.5v10.4h-6.9v-10.4h-3.5v-3.5h-3.5V-213.7z"/>
		<path class="st4" d="M213.4-189.5h-3.5v-20.7h3.5v-3.5h17.3v6.9h-13.8v3.5h6.9v6.9h-6.9v3.5h13.8v6.9h-17.3V-189.5z"/>
		<path class="st4" d="M244.5-196.5H241v10.4h-6.9v-27.6h17.3v3.5h3.5v10.4h-3.5v3.5h3.5v10.4h-6.9v-6.9h-3.5V-196.5z M241-203.4
			h6.9v-3.5H241V-203.4z"/>
		<path class="st4" d="M282.5-213.7h6.9v27.6h-6.9V-213.7z"/>
	</g>
</g>
<g>
	<polygon class="st11" points="34.2,-347.6 32.2,-353.3 28.2,-365.4 10.4,-359.3 12.3,-353.6 6.5,-351.6 10.6,-339.6 16.4,-341.5
		18.3,-335.8 30.4,-339.8 28.4,-345.6 	"/>
	<polygon class="st11" points="73,-359.6 71,-365.4 67,-377.4 49.2,-371.4 51.1,-365.6 45.3,-363.7 49.4,-351.6 55.2,-353.6
		57.1,-347.8 69.2,-351.9 67.2,-357.7 	"/>
	<rect x="13.4" y="-406.6" transform="matrix(0.9472 -0.3207 0.3207 0.9472 125.1118 -15.0152)" width="7.1" height="38.6"/>
	<polygon points="32.6,-352.4 30.6,-358.1 26.5,-370.2 8.7,-364.1 10.7,-358.4 4.9,-356.4 9,-344.4 14.8,-346.3 16.7,-340.6
		28.7,-344.6 26.8,-350.4 	"/>
	<rect x="51.9" y="-419.6" transform="matrix(0.9472 -0.3207 0.3207 0.9472 131.3218 -3.3655)" width="7.1" height="38.6"/>
	<polygon points="71,-365.4 69.1,-371.2 65,-383.2 47.2,-377.2 49.2,-371.4 43.4,-369.4 47.5,-357.4 53.2,-359.4 55.2,-353.6
		67.2,-357.7 65.3,-363.4 	"/>
	<rect x="3.4" y="-428.9" transform="matrix(0.9472 -0.3207 0.3207 0.9472 136.226 -13.4597)" width="47.7" height="17.3"/>
</g>
<g>
	<polygon class="st11" points="100.4,-314 101.3,-318.1 103.2,-326.8 90.4,-329.6 89.5,-325.4 85.4,-326.4 83.4,-317.7 87.6,-316.8
		86.7,-312.6 95.3,-310.7 96.2,-314.9 	"/>
	<polygon class="st11" points="127.9,-307.2 128.8,-311.4 130.7,-320 117.9,-322.8 117,-318.7 112.9,-319.6 111,-310.9 115.1,-310
		114.2,-305.9 122.8,-304 123.8,-308.1 	"/>
	<rect x="102" y="-357.4" transform="matrix(0.9766 0.2149 -0.2149 0.9766 -71.4608 -30.4767)" width="5" height="26.9"/>
	<polygon points="101.2,-317.4 102.1,-321.6 104,-330.2 91.2,-333 90.3,-328.9 86.1,-329.8 84.2,-321.2 88.4,-320.3 87.4,-316.1
		96.1,-314.2 97,-318.4 	"/>
	<rect x="129.6" y="-351.3" transform="matrix(0.9766 0.2149 -0.2149 0.9766 -69.5067 -36.2787)" width="5" height="26.9"/>
	<polygon points="128.8,-311.4 129.7,-315.5 131.6,-324.1 118.8,-327 117.9,-322.8 113.8,-323.7 111.9,-315.1 116,-314.2
		115.1,-310 123.8,-308.1 124.7,-312.3 	"/>
	<rect x="105.8" y="-365.9" transform="matrix(0.9766 0.2149 -0.2149 0.9766 -74.4726 -34.7212)" width="33.3" height="12"/>
</g>
<g>
	<polygon class="st11" points="176.4,-375.8 175.7,-378.8 174.3,-385.2 164.9,-383.1 165.6,-380 162.6,-379.4 164,-373 167,-373.7
		167.7,-370.6 174,-372.1 173.4,-375.1 	"/>
	<polygon class="st11" points="196.8,-379.8 196.2,-382.8 194.7,-389.2 185.4,-387.1 186,-384 183,-383.4 184.4,-377 187.4,-377.7
		188.1,-374.7 194.5,-376.1 193.8,-379.1 	"/>
	<rect x="168" y="-406.8" transform="matrix(0.9761 -0.2173 0.2173 0.9761 90.3116 27.4183)" width="3.6" height="19.8"/>
	<polygon points="175.8,-378.3 175.2,-381.4 173.8,-387.7 164.4,-385.6 165,-382.6 162,-381.9 163.4,-375.5 166.5,-376.2
		167.1,-373.2 173.5,-374.6 172.8,-377.6 	"/>
	<rect x="188.3" y="-411.4" transform="matrix(0.9761 -0.2173 0.2173 0.9761 91.7791 31.7231)" width="3.6" height="19.8"/>
	<polygon points="196.2,-382.8 195.5,-385.9 194.1,-392.2 184.7,-390.1 185.4,-387.1 182.3,-386.4 183.7,-380.1 186.8,-380.7
		187.4,-377.7 193.8,-379.1 193.1,-382.2 	"/>
	<rect x="164.7" y="-417.6" transform="matrix(0.9761 -0.2173 0.2173 0.9761 94.0049 28.5618)" width="24.4" height="8.8"/>
</g>
<g>
	<polygon class="st11" points="197,-330 199.6,-334.1 205.1,-342.7 192.4,-350.8 189.8,-346.6 185.7,-349.3 180.2,-340.7
		184.3,-338.1 181.7,-334 190.3,-328.5 192.9,-332.6 	"/>
	<polygon class="st11" points="224,-311.9 226.6,-316 232.1,-324.6 219.4,-332.6 216.8,-328.5 212.7,-331.1 207.2,-322.6
		211.3,-320 208.7,-315.8 217.3,-310.4 219.9,-314.5 	"/>
	<rect x="210.3" y="-376.1" transform="matrix(0.844 0.5363 -0.5363 0.844 -160.1898 -170.5654)" width="5.7" height="30.9"/>
	<polygon points="199.2,-333.4 201.8,-337.6 207.3,-346.1 194.6,-354.2 192,-350.1 187.8,-352.7 182.4,-344.1 186.5,-341.5
		183.9,-337.4 192.5,-331.9 195.1,-336.1 	"/>
	<rect x="237.7" y="-358.7" transform="matrix(0.844 0.5363 -0.5363 0.844 -146.5654 -182.5562)" width="5.7" height="30.9"/>
	<polygon points="226.6,-316 229.2,-320.1 234.7,-328.7 222,-336.8 219.4,-332.6 215.3,-335.3 209.8,-326.7 213.9,-324.1
		211.3,-320 219.9,-314.5 222.5,-318.6 	"/>
	<rect x="219.7" y="-377.7" transform="matrix(0.844 0.5363 -0.5363 0.844 -161.6213 -185.9276)" width="38.2" height="13.8"/>
</g>
<g>
	<polygon class="st9" points="-81.7,-770.4 -88.3,-770.4 -334.7,-770.4 -334.7,-763.8 -341.3,-763.8 -341.3,-725.8 -334.7,-725.8
		-334.7,-719.2 -88.3,-719.2 -81.7,-719.2 -81.7,-725.8 -75.1,-725.8 -75.1,-763.8 -81.7,-763.8 	"/>
	<polygon class="st12" points="-81.7,-770.4 -88.3,-770.4 -334.7,-770.4 -334.7,-763.8 -341.3,-763.8 -341.3,-725.8 -334.7,-725.8
		-334.7,-719.2 -88.3,-719.2 -81.7,-719.2 -81.7,-725.8 -75.1,-725.8 -75.1,-763.8 -81.7,-763.8 	"/>
	<g>
		<path class="st4" d="M-274.9-752.9h2.3v-2.3h11.4v4.5h-9.1v9.1h9.1v4.5h-11.4v-2.3h-2.3V-752.9z"/>
		<path class="st4" d="M-254.5-737h-4.5v-15.9h2.3v-2.3h9.1v2.3h2.3v15.9h-4.5v-6.8h-4.5V-737z M-249.9-748.3v-2.3h-4.5v2.3H-249.9z
			"/>
		<path class="st4" d="M-240.9-739.3h-2.3v-15.9h4.5v13.6h9.1v4.5h-11.4V-739.3z"/>
		<path class="st4" d="M-227.2-755.2h4.5v18.2h-4.5V-755.2z"/>
		<path class="st4" d="M-220.4-755.2h11.4v2.3h2.3v13.6h-2.3v2.3h-11.4V-755.2z M-215.9-748.3h4.5v-2.3h-4.5V-748.3z M-215.9-741.5
			h4.5v-2.3h-4.5V-741.5z"/>
		<path class="st4" d="M-197.7-743.8h-2.3v6.8h-4.5v-15.9h2.3v-2.3h9.1v2.3h2.3v6.8h-2.3v2.3h2.3v6.8h-4.5v-4.5h-2.3V-743.8z
			 M-200-748.3h4.5v-2.3h-4.5V-748.3z"/>
		<path class="st4" d="M-184.1-737h-4.5v-15.9h2.3v-2.3h9.1v2.3h2.3v15.9h-4.5v-6.8h-4.5V-737z M-179.5-748.3v-2.3h-4.5v2.3H-179.5z
			"/>
		<path class="st4" d="M-172.7-755.2h13.6v4.5h-4.5v13.6h-4.5v-13.6h-4.5V-755.2z"/>
		<path class="st4" d="M-154.6-739.3h-2.3v-13.6h2.3v-2.3h11.4v4.5h-9.1v2.3h4.5v4.5h-4.5v2.3h9.1v4.5h-11.4V-739.3z"/>
	</g>
</g>
<g>
	<polygon class="st9" points="238.3,-702.4 231.7,-702.4 -14.7,-702.4 -14.7,-695.8 -21.3,-695.8 -21.3,-657.8 -14.7,-657.8
		-14.7,-651.2 231.7,-651.2 238.3,-651.2 238.3,-657.8 244.9,-657.8 244.9,-695.8 238.3,-695.8 	"/>
	<polygon class="st10" points="238.3,-709 231.7,-709 -14.7,-709 -14.7,-702.4 -21.3,-702.4 -21.3,-664.4 -14.7,-664.4
		-14.7,-657.7 231.7,-657.7 238.3,-657.7 238.3,-664.4 244.9,-664.4 244.9,-702.4 238.3,-702.4 	"/>
	<g>
		<path class="st4" d="M45.1-691.5h2.3v-2.3h11.4v4.5h-9.1v9.1h9.1v4.5H47.4v-2.3h-2.3V-691.5z"/>
		<path class="st4" d="M65.5-675.6H61v-15.9h2.3v-2.3h9.1v2.3h2.3v15.9h-4.5v-6.8h-4.5V-675.6z M70.1-686.9v-2.3h-4.5v2.3H70.1z"/>
		<path class="st4" d="M79.1-677.8h-2.3v-15.9h4.5v13.6h9.1v4.5H79.1V-677.8z"/>
		<path class="st4" d="M92.8-693.7h4.5v18.2h-4.5V-693.7z"/>
		<path class="st4" d="M99.6-693.7h11.4v2.3h2.3v13.6h-2.3v2.3H99.6V-693.7z M104.1-686.9h4.5v-2.3h-4.5V-686.9z M104.1-680.1h4.5
			v-2.3h-4.5V-680.1z"/>
		<path class="st4" d="M122.3-682.4H120v6.8h-4.5v-15.9h2.3v-2.3h9.1v2.3h2.3v6.8h-2.3v2.3h2.3v6.8h-4.5v-4.5h-2.3V-682.4z
			 M120-686.9h4.5v-2.3H120V-686.9z"/>
		<path class="st4" d="M135.9-675.6h-4.5v-15.9h2.3v-2.3h9.1v2.3h2.3v15.9h-4.5v-6.8h-4.5V-675.6z M140.5-686.9v-2.3h-4.5v2.3H140.5
			z"/>
		<path class="st4" d="M147.3-693.7h13.6v4.5h-4.5v13.6h-4.5v-13.6h-4.5V-693.7z"/>
		<path class="st4" d="M165.4-677.8h-2.3v-13.6h2.3v-2.3h11.4v4.5h-9.1v2.3h4.5v4.5h-4.5v2.3h9.1v4.5h-11.4V-677.8z"/>
	</g>
</g>
<g>
	<rect x="-19.7" y="-620.1" class="st9" width="219.8" height="28.8"/>
	<rect x="-24.6" y="-626.6" class="st9" width="229.4" height="30.6"/>
	<polygon class="st10" points="-24.6,-631 -24.6,-601.7 -19.7,-601.7 -19.7,-596 200,-596 200,-601.7 204.8,-601.7 204.8,-631 	"/>
</g>
<polygon class="st9" points="195.2,-616.1 195.2,-621.2 190.1,-621.2 190.1,-621.3 133.5,-621.3 102.9,-621.3 77.3,-621.3
	53.5,-621.3 -9.9,-621.3 -9.9,-621.3 -15,-621.3 -15,-616.2 -20.1,-616.2 -20.1,-608.5 -15,-608.5 -15,-603.4 -9.9,-603.4
	-9.9,-603.3 53.5,-603.3 77.3,-603.3 102.9,-603.3 133.5,-603.3 190.1,-603.3 190.1,-603.4 195.2,-603.4 195.2,-608.5 200.3,-608.5
	200.3,-616.1 "/>
<g>
	<rect x="-28.7" y="-522.1" class="st13" width="4.7" height="0.1"/>
	<rect x="-28.7" y="-504.2" class="st13" width="4.7" height="0.1"/>
	<polygon class="st4" points="-7.7,-504.1 -7.7,-509.2 -2.6,-509.2 -2.6,-516.9 -7.7,-516.9 -7.7,-522 -12.8,-522 -12.8,-522.1
		-24,-522.1 -24,-522 -28.7,-522 -28.7,-504.2 -24,-504.2 -24,-504.1 -12.8,-504.1 -12.8,-504.1 	"/>
</g>
<g>
	<polygon class="st4" points="-54.5,-557.6 -54.5,-562.7 -59.6,-562.7 -59.6,-562.8 -75.5,-562.8 -75.5,-544.8 -59.6,-544.8
		-59.6,-544.9 -54.5,-544.9 -54.5,-550 -49.4,-550 -49.4,-557.6 	"/>
	<polygon class="st4" points="-68,-518.8 -68,-523.9 -68,-523.9 -68,-524 -72.5,-524 -73.1,-524 -77.6,-524 -77.6,-523.9
		-77.6,-523.9 -77.6,-518.8 -82.7,-518.8 -82.7,-511.2 -77.6,-511.2 -77.6,-506.1 -77.6,-506.1 -77.6,-506 -73.1,-506 -72.5,-506
		-68,-506 -68,-506 -68,-506 -68,-511.1 -62.9,-511.1 -62.9,-518.8 	"/>
</g>
<polygon class="st4" points="-117.8,-616.1 -117.8,-621.2 -117.8,-621.2 -117.8,-621.3 -122.3,-621.3 -122.9,-621.3 -127.4,-621.3
	-127.4,-621.3 -127.4,-621.3 -127.4,-616.2 -132.5,-616.2 -132.5,-608.5 -127.4,-608.5 -127.4,-603.4 -127.4,-603.4 -127.4,-603.3
	-122.9,-603.3 -122.3,-603.3 -117.8,-603.3 -117.8,-603.4 -117.8,-603.4 -117.8,-608.5 -112.7,-608.5 -112.7,-616.1 "/>
<polygon class="st14" points="848,-227 838,-227 463.1,-227 463.1,-216.9 453,-216.9 453,-159 463.1,-159 463.1,-149 838,-149
	848,-149 848,-159 858.1,-159 858.1,-216.9 848,-216.9 "/>
<polygon class="st15" points="848,-237 838,-237 463.1,-237 463.1,-226.9 453,-226.9 453,-169 463.1,-169 463.1,-159 838,-159
	848,-159 848,-169 858.1,-169 858.1,-226.9 848,-226.9 "/>
<g>
	<path class="st4" d="M565.6-186.1h-6.9v-27.6H576v3.5h3.5v10.4H576v3.5h-10.4V-186.1z M565.6-203.4h6.9v-3.5h-6.9V-203.4z"/>
	<path class="st4" d="M586.4-189.5h-3.5v-24.2h6.9v20.7h13.8v6.9h-17.3V-189.5z"/>
	<path class="st4" d="M614-186.1h-6.9v-24.2h3.5v-3.5h13.8v3.5h3.5v24.2h-6.9v-10.4H614V-186.1z M620.9-203.4v-3.5H614v3.5H620.9z"
		/>
	<path class="st4" d="M631.3-213.7h6.9v10.4h6.9v-10.4h6.9v13.8h-3.5v3.5h-3.5v10.4h-6.9v-10.4h-3.5v-3.5h-3.5V-213.7z"/>
	<path class="st4" d="M659-189.5h-3.5v-20.7h3.5v-3.5h17.3v6.9h-13.8v3.5h6.9v6.9h-6.9v3.5h13.8v6.9H659V-189.5z"/>
	<path class="st4" d="M690.1-196.5h-3.5v10.4h-6.9v-27.6H697v3.5h3.5v10.4H697v3.5h3.5v10.4h-6.9v-6.9h-3.5V-196.5z M686.6-203.4
		h6.9v-3.5h-6.9V-203.4z"/>
	<path class="st4" d="M728.1-213.7h17.3v3.5h3.5v10.4h-3.5v3.5H735v3.5h13.8v6.9h-20.7v-13.8h3.5v-3.5h10.4v-3.5h-13.8V-213.7z"/>
</g>
<g>
	<rect x="474" y="-233" class="st4" width="45.1" height="5.7"/>
	<rect x="525.3" y="-233" class="st4" width="5.7" height="5.7"/>
</g>
<g>
	<rect x="19.5" y="-232" class="st4" width="45.1" height="5.7"/>
	<rect x="70.8" y="-232" class="st4" width="5.7" height="5.7"/>
</g>
<polygon class="st16" points="408.6,-392 415,-386.4 409.4,-380 429.8,-362.6 429.8,-324.7 450.6,-350.8 482.3,-321.4 488.2,-327.7
	493.2,-323.1 564.8,-441.8 "/>
<polygon class="st17" points="406.2,-399.1 412.5,-393.5 406.9,-387.1 427.4,-369.7 427.4,-331.8 448.1,-357.9 479.9,-328.5
	485.7,-334.8 490.7,-330.2 562.3,-448.9 "/>
<polygon class="st18" points="448.2,-358.1 562.6,-448.9 427.5,-369.9 427.5,-332 "/>
<polygon class="st19" points="405.1,-398.9 411.5,-393.3 405.9,-386.9 426.3,-369.6 426.3,-331.7 447.1,-357.8 478.8,-328.4
	484.7,-334.7 489.6,-330.1 561.3,-448.7 "/>
<g>
	<polygon class="st20" points="340.9,-705.7 340.9,-542 351.3,-542 351.3,-532.5 361.7,-532.5 361.7,-522.1 809.2,-522.1
		809.2,-532.5 819.6,-532.5 819.6,-542 829.9,-542 829.9,-705.7 	"/>
	<polygon class="st20" points="829.9,-705.7 829.9,-799.8 819.6,-799.8 819.6,-809.3 809.2,-809.3 809.2,-819.8 361.7,-819.8
		361.7,-809.3 351.3,-809.3 351.3,-799.8 340.9,-799.8 340.9,-705.7 	"/>
</g>
<g>
	<polygon class="st21" points="351.3,-803.2 361.7,-803.2 361.7,-811.2 351.3,-811.2 351.3,-803.3 340.9,-803.3 340.9,-795.3
		351.3,-795.3 	"/>
	<rect x="361.7" y="-819.9" class="st21" width="447.5" height="8"/>
	<polygon class="st21" points="819.6,-803.3 819.6,-811.2 809.2,-811.2 809.2,-803.2 819.6,-803.2 819.6,-795.3 829.9,-795.3
		829.9,-803.3 	"/>
</g>
<g>
	<g>
		<g>
			<rect x="-52.2" y="-884.2" width="10.2" height="10.2"/>
		</g>
	</g>
	<g>
		<g>
			<path d="M9.2-894.4v5.1H4.1v5.1h5.1v20.5h5.1v5.1H9.2v5.1h5.1h5.1v-10.2h15.4v5.1H40v-5.1v-30.7H9.2z M34.8-868.8H14.4v-20.5
				h20.5V-868.8z"/>
		</g>
	</g>
	<g>
		<g>
			<rect x="19.5" y="-884.2" width="10.2" height="10.2"/>
		</g>
	</g>
	<g>
		<g>
			<rect x="-52.2" y="-812.5" width="10.2" height="10.2"/>
		</g>
	</g>
	<g>
		<g>
			<rect x="9.2" y="-822.7" width="5.1" height="5.1"/>
		</g>
	</g>
	<g>
		<g>
			<rect x="-16.4" y="-797.1" width="5.1" height="5.1"/>
		</g>
	</g>
	<g>
		<g>
			<rect x="-11.2" y="-817.6" width="5.1" height="5.1"/>
		</g>
	</g>
	<g>
		<g>
			<rect x="-11.2" y="-807.3" width="5.1" height="5.1"/>
		</g>
	</g>
	<g>
		<g>
			<rect x="34.8" y="-833" width="5.1" height="5.1"/>
		</g>
	</g>
	<g>
		<g>
			<rect x="-62.4" y="-833" width="5.1" height="5.1"/>
		</g>
	</g>
	<g>
		<g>
			<rect x="-62.4" y="-858.6" width="5.1" height="5.1"/>
		</g>
	</g>
	<g>
		<g>
			<polygon points="-6.1,-889.3 -6.1,-884.2 -16.4,-884.2 -16.4,-879 -1,-879 -1,-884.2 -1,-889.3 			"/>
		</g>
	</g>
	<g>
		<g>
			<path d="M34.8-853.4v5.1H24.6v5.1H9.2v-5.1H4.1v5.1H-6.1v5.1H9.2v5.1H-1h-5.1v-5.1h-5.1v5.1h-5.1v-5.1h-5.1v5.1h-5.1v5.1h10.2
				v5.1h5.1v-5.1H-1v5.1h-5.1v5.1H-1v10.2h5.1v5.1h5.1v-5.1h15.4v-10.2h5.1v-5.1h-5.1V-833H14.4v-5.1h10.2v5.1h5.1v-5.1h5.1v-5.1H40
				v-5.1v-5.1H34.8L34.8-853.4z M19.5-827.8v15.4H4.1v-15.4H19.5z"/>
		</g>
	</g>
	<g>
		<g>
			<polygon points="4.1,-863.7 -1,-863.7 -1,-858.6 -6.1,-858.6 -6.1,-853.4 -6.1,-848.3 -1,-848.3 -1,-853.4 4.1,-853.4
				4.1,-858.6 9.2,-858.6 9.2,-863.7 			"/>
		</g>
	</g>
	<g>
		<g>
			<rect x="-6.1" y="-797.1" width="10.2" height="5.1"/>
		</g>
	</g>
	<g>
		<g>
			<rect x="-21.5" y="-889.3" width="5.1" height="5.1"/>
		</g>
	</g>
	<g>
		<g>
			<rect x="19.5" y="-853.4" width="5.1" height="5.1"/>
		</g>
	</g>
	<g>
		<g>
			<rect x="24.6" y="-858.6" width="5.1" height="5.1"/>
		</g>
	</g>
	<g>
		<g>
			<rect x="-42" y="-833" width="5.1" height="5.1"/>
		</g>
	</g>
	<g>
		<g>
			<path d="M-31.7-797.1v-20.5h5.1v-5.1v-5.1h-5.1v5.1h-15.4v-5.1h-5.1h-5.1v5.1h-5.1v30.7h30.7h10.2v-5.1H-31.7z M-36.8-797.1
				h-20.5v-20.5h20.5V-797.1z"/>
		</g>
	</g>
	<g>
		<g>
			<rect x="-31.7" y="-863.7" width="5.1" height="5.1"/>
		</g>
	</g>
	<g>
		<g>
			<path d="M-26.6-894.4h-5.1h-30.7v30.7h5.1v5.1h5.1v-5.1h5.1v5.1h5.1v-5.1h10.2v-10.2h5.1v-5.1h-5.1v-10.2h5.1h5.1v-5.1H-26.6z
				 M-36.8-868.8h-20.5v-20.5h20.5V-868.8z"/>
		</g>
	</g>
	<g>
		<g>
			<rect x="-1" y="-879" width="5.1" height="5.1"/>
		</g>
	</g>
	<g>
		<g>
			<rect x="-11.2" y="-894.4" width="5.1" height="5.1"/>
		</g>
	</g>
	<g>
		<g>
			<path d="M-1-863.7v-5.1h-5.1v-5.1h-5.1v5.1h-10.2v-5.1h-5.1v5.1v5.1h5.1v10.2h-15.4v-5.1H-42v5.1h-15.4v5.1h10.2v5.1h-15.4v5.1
				h15.4v5.1h5.1v-5.1h5.1v5.1h5.1v-5.1h10.2v-5.1h-5.1v-5.1h5.1h5.1v5.1h5.1h5.1v-5.1h-5.1v-5.1h-5.1v-10.2H-1L-1-863.7z
				 M-31.7-843.2H-42v-5.1h10.2V-843.2z"/>
		</g>
	</g>
	<g>
		<g>
			<polygon points="-16.4,-812.5 -16.4,-817.6 -16.4,-822.7 -21.5,-822.7 -21.5,-817.6 -26.6,-817.6 -26.6,-812.5 -21.5,-812.5
				-21.5,-807.3 -26.6,-807.3 -26.6,-802.2 -16.4,-802.2 -16.4,-807.3 -11.2,-807.3 -11.2,-812.5 			"/>
		</g>
	</g>
	<g>
		<g>
			<polygon points="29.7,-802.2 29.7,-807.3 24.6,-807.3 24.6,-802.2 9.2,-802.2 9.2,-797.1 19.5,-797.1 19.5,-792 24.6,-792
				24.6,-797.1 34.8,-797.1 34.8,-792 40,-792 40,-797.1 40,-802.2 			"/>
		</g>
	</g>
	<g>
		<g>
			<polygon points="34.8,-822.7 34.8,-817.6 29.7,-817.6 29.7,-812.5 40,-812.5 40,-817.6 40,-822.7 			"/>
		</g>
	</g>
</g>
<g>
	<g>
		<polygon class="st9" points="-290.6,-478.3 -294.2,-478.3 -431.4,-478.3 -431.4,-474.6 -435.1,-474.6 -435.1,-453.4
			-431.4,-453.4 -431.4,-449.7 -294.2,-449.7 -290.6,-449.7 -290.6,-453.4 -286.9,-453.4 -286.9,-474.6 -290.6,-474.6 		"/>
		<polygon class="st12" points="-290.6,-478.3 -294.2,-478.3 -431.4,-478.3 -431.4,-474.6 -435.1,-474.6 -435.1,-453.4
			-431.4,-453.4 -431.4,-449.7 -294.2,-449.7 -290.6,-449.7 -290.6,-453.4 -286.9,-453.4 -286.9,-474.6 -290.6,-474.6 		"/>
		<g>
			<path class="st4" d="M-403.2-463.4h-1.3v3.8h-2.5v-10.1h6.3v1.3h1.3v3.8h-1.3v1.3h1.3v3.8h-2.5v-2.5h-1.3V-463.4z M-404.5-466
				h2.5v-1.3h-2.5V-466z"/>
			<path class="st4" d="M-396.9-460.9h-1.3v-7.6h1.3v-1.3h6.3v2.5h-5.1v1.3h2.5v2.5h-2.5v1.3h5.1v2.5h-6.3V-460.9z"/>
			<path class="st4" d="M-388-460.9h-1.3v-7.6h1.3v-1.3h5.1v1.3h1.3v2.5h-2.5v-1.3h-2.5v5.1h2.5v-1.3h2.5v2.5h-1.3v1.3h-5.1V-460.9z
				"/>
			<path class="st4" d="M-377.9-459.6h-2.5v-8.9h1.3v-1.3h5.1v1.3h1.3v8.9h-2.5v-3.8h-2.5V-459.6z M-375.4-466v-1.3h-2.5v1.3H-375.4
				z"/>
			<path class="st4" d="M-370.3-460.9h-1.3v-8.9h2.5v7.6h5.1v2.5h-6.3V-460.9z"/>
			<path class="st4" d="M-362.7-469.8h2.5v10.1h-2.5V-469.8z"/>
			<path class="st4" d="M-358.9-469.8h6.3v1.3h1.3v7.6h-1.3v1.3h-6.3V-469.8z M-356.4-466h2.5v-1.3h-2.5V-466z M-356.4-462.2h2.5
				v-1.3h-2.5V-462.2z"/>
			<path class="st4" d="M-346.3-463.4h-1.3v3.8h-2.5v-8.9h1.3v-1.3h5.1v1.3h1.3v3.8h-1.3v1.3h1.3v3.8h-2.5v-2.5h-1.3V-463.4z
				 M-347.5-466h2.5v-1.3h-2.5V-466z"/>
			<path class="st4" d="M-338.7-459.6h-2.5v-8.9h1.3v-1.3h5.1v1.3h1.3v8.9h-2.5v-3.8h-2.5V-459.6z M-336.2-466v-1.3h-2.5v1.3H-336.2
				z"/>
			<path class="st4" d="M-332.4-469.8h7.6v2.5h-2.5v7.6h-2.5v-7.6h-2.5V-469.8z"/>
			<path class="st4" d="M-322.3-460.9h-1.3v-7.6h1.3v-1.3h6.3v2.5h-5.1v1.3h2.5v2.5h-2.5v1.3h5.1v2.5h-6.3V-460.9z"/>
		</g>
	</g>
	<g>
		<rect x="-429" y="-476.1" class="st4" width="13.1" height="1.7"/>
		<rect x="-414.1" y="-476.1" class="st4" width="1.7" height="1.7"/>
	</g>
</g>
<g>
	<g>
		<polygon class="st9" points="-290.6,-436.3 -294.2,-436.3 -431.4,-436.3 -431.4,-432.6 -435.1,-432.6 -435.1,-411.4
			-431.4,-411.4 -431.4,-407.7 -294.2,-407.7 -290.6,-407.7 -290.6,-411.4 -286.9,-411.4 -286.9,-432.6 -290.6,-432.6 		"/>
		<polygon class="st10" points="-290.6,-439.9 -294.2,-439.9 -431.4,-439.9 -431.4,-436.2 -435.1,-436.2 -435.1,-415.1
			-431.4,-415.1 -431.4,-411.4 -294.2,-411.4 -290.6,-411.4 -290.6,-415.1 -286.9,-415.1 -286.9,-436.2 -290.6,-436.2 		"/>
		<g>
			<path class="st4" d="M-403.2-425.1h-1.3v3.8h-2.5v-10.1h6.3v1.3h1.3v3.8h-1.3v1.3h1.3v3.8h-2.5v-2.5h-1.3V-425.1z M-404.5-427.6
				h2.5v-1.3h-2.5V-427.6z"/>
			<path class="st4" d="M-396.9-422.6h-1.3v-7.6h1.3v-1.3h6.3v2.5h-5.1v1.3h2.5v2.5h-2.5v1.3h5.1v2.5h-6.3V-422.6z"/>
			<path class="st4" d="M-388-422.6h-1.3v-7.6h1.3v-1.3h5.1v1.3h1.3v2.5h-2.5v-1.3h-2.5v5.1h2.5v-1.3h2.5v2.5h-1.3v1.3h-5.1V-422.6z
				"/>
			<path class="st4" d="M-377.9-421.3h-2.5v-8.9h1.3v-1.3h5.1v1.3h1.3v8.9h-2.5v-3.8h-2.5V-421.3z M-375.4-427.6v-1.3h-2.5v1.3
				H-375.4z"/>
			<path class="st4" d="M-370.3-422.6h-1.3v-8.9h2.5v7.6h5.1v2.5h-6.3V-422.6z"/>
			<path class="st4" d="M-362.7-431.4h2.5v10.1h-2.5V-431.4z"/>
			<path class="st4" d="M-358.9-431.4h6.3v1.3h1.3v7.6h-1.3v1.3h-6.3V-431.4z M-356.4-427.6h2.5v-1.3h-2.5V-427.6z M-356.4-423.8
				h2.5v-1.3h-2.5V-423.8z"/>
			<path class="st4" d="M-346.3-425.1h-1.3v3.8h-2.5v-8.9h1.3v-1.3h5.1v1.3h1.3v3.8h-1.3v1.3h1.3v3.8h-2.5v-2.5h-1.3V-425.1z
				 M-347.5-427.6h2.5v-1.3h-2.5V-427.6z"/>
			<path class="st4" d="M-338.7-421.3h-2.5v-8.9h1.3v-1.3h5.1v1.3h1.3v8.9h-2.5v-3.8h-2.5V-421.3z M-336.2-427.6v-1.3h-2.5v1.3
				H-336.2z"/>
			<path class="st4" d="M-332.4-431.4h7.6v2.5h-2.5v7.6h-2.5v-7.6h-2.5V-431.4z"/>
			<path class="st4" d="M-322.3-422.6h-1.3v-7.6h1.3v-1.3h6.3v2.5h-5.1v1.3h2.5v2.5h-2.5v1.3h5.1v2.5h-6.3V-422.6z"/>
		</g>
	</g>
	<g>
		<rect x="-429" y="-437.1" class="st4" width="13.1" height="1.7"/>
		<rect x="-414.1" y="-437.1" class="st4" width="1.7" height="1.7"/>
	</g>
</g>
<g>
	<rect x="-9.2" y="-705.4" class="st4" width="23.6" height="3"/>
	<rect x="17.6" y="-705.4" class="st4" width="3" height="3"/>
</g>
<g>
	<rect x="-329.6" y="-766.9" class="st4" width="23.6" height="3"/>
	<rect x="-302.8" y="-766.9" class="st4" width="3" height="3"/>
</g>
<g>
	<polygon class="st22" points="-359.7,-643.4 -359.7,-650.9 -378.3,-650.9 -378.3,-643.4 -385.8,-643.4 -385.8,-635.9
		-385.8,-624.7 -378.3,-624.7 -378.3,-617.3 -367.1,-617.3 -359.7,-617.3 -359.7,-624.7 -352.2,-624.7 -352.2,-635.9 -352.2,-643.4
			"/>
	<line class="st23" x1="-377.7" y1="-617.3" x2="-377.7" y2="-607.3"/>
	<line class="st23" x1="-360.3" y1="-617.3" x2="-360.3" y2="-607.3"/>
	<polygon class="st24" points="-361.3,-609.2 -363.4,-609.2 -376.8,-609.2 -376.8,-607 -379,-607 -379,-591.5 -376.8,-591.5
		-376.8,-589.3 -363.4,-589.3 -361.3,-589.3 -361.3,-591.5 -359.1,-591.5 -359.1,-607 -361.3,-607 	"/>
</g>
<polygon class="st25" points="-292.6,-204.1 -292.6,-212.1 -300.5,-212.1 -365.5,-212.1 -434.3,-212.1 -434.3,-204.1 -442.2,-204.1
	-442.2,-158.6 -434.3,-158.6 -434.3,-150.6 -365.5,-150.6 -300.5,-150.6 -292.6,-150.6 -292.6,-158.6 -284.7,-158.6 -284.7,-204.1
	"/>
<polygon class="st25" points="-292.6,-204 -292.6,-211.9 -300.5,-211.9 -365.5,-211.9 -434.3,-211.9 -434.3,-204 -442.2,-204
	-442.2,-158.5 -434.3,-158.5 -434.3,-150.5 -365.5,-150.5 -300.5,-150.5 -292.6,-150.5 -292.6,-158.5 -284.7,-158.5 -284.7,-204 "/>
<g>
	<path class="st4" d="M-396.1-170.6h-5.4v-21.8h13.6v2.7h2.7v8.2h-2.7v2.7h-8.2V-170.6z M-396.1-184.2h5.4v-2.7h-5.4V-184.2z"/>
	<path class="st4" d="M-379.8-173.3h-2.7v-19h5.4v16.3h10.9v5.4h-13.6V-173.3z"/>
	<path class="st4" d="M-358-170.6h-5.4v-19h2.7v-2.7h10.9v2.7h2.7v19h-5.4v-8.2h-5.4V-170.6z M-352.6-184.2v-2.7h-5.4v2.7H-352.6z"
		/>
	<path class="st4" d="M-344.4-192.4h5.4v8.2h5.4v-8.2h5.4v10.9h-2.7v2.7h-2.7v8.2h-5.4v-8.2h-2.7v-2.7h-2.7V-192.4z"/>
</g>
<polygon class="st25" points="-122.6,-204.1 -122.6,-212.1 -130.5,-212.1 -195.5,-212.1 -264.3,-212.1 -264.3,-204.1 -272.2,-204.1
	-272.2,-158.6 -264.3,-158.6 -264.3,-150.6 -195.5,-150.6 -130.5,-150.6 -122.6,-150.6 -122.6,-158.6 -114.7,-158.6 -114.7,-204.1
	"/>
<polygon class="st22" points="-122.6,-212 -122.6,-219.9 -130.5,-219.9 -195.5,-219.9 -264.3,-219.9 -264.3,-212 -272.2,-212
	-272.2,-166.5 -264.3,-166.5 -264.3,-158.5 -195.5,-158.5 -130.5,-158.5 -122.6,-158.5 -122.6,-166.5 -114.7,-166.5 -114.7,-212 "/>
<g>
	<path class="st4" d="M-226.1-178.6h-5.4v-21.8h13.6v2.7h2.7v8.2h-2.7v2.7h-8.2V-178.6z M-226.1-192.2h5.4v-2.7h-5.4V-192.2z"/>
	<path class="st4" d="M-209.8-181.3h-2.7v-19h5.4v16.3h10.9v5.4h-13.6V-181.3z"/>
	<path class="st4" d="M-188-178.6h-5.4v-19h2.7v-2.7h10.9v2.7h2.7v19h-5.4v-8.2h-5.4V-178.6z M-182.6-192.2v-2.7h-5.4v2.7H-182.6z"
		/>
	<path class="st4" d="M-174.4-200.4h5.4v8.2h5.4v-8.2h5.4v10.9h-2.7v2.7h-2.7v8.2h-5.4v-8.2h-2.7v-2.7h-2.7V-200.4z"/>
</g>
<g>
	<path class="st26" d="M-1116.2-449.7h43.2v108h43.2v-108h43.2v129.6h-21.6v21.6h-21.6v21.6h-43.2v-21.6h-21.6v-21.6h-21.6V-449.7z"
		/>
	<path class="st27" d="M-965-426.1h21.6v-21.6h108v43.2h-86.4v21.6h64.8v21.6h21.6v64.8H-857v21.6h-108v-43.2h86.4v-21.6h-64.8
		v-21.6H-965V-426.1z"/>
</g>
<g>
	<path class="st28" d="M-1116.2-470.8h43.2v108h43.2v-108h43.2v129.6h-21.6v21.6h-21.6v21.6h-43.2v-21.6h-21.6v-21.6h-21.6V-470.8z"
		/>
	<path class="st29" d="M-965-449.2h21.6v-21.6h108v43.2h-86.4v21.6h64.8v21.6h21.6v64.8H-857v21.6h-108v-43.2h86.4v-21.6h-64.8
		v-21.6H-965V-449.2z"/>
</g>
<g>
	<g>
		<path class="st0" d="M-1066.8-92.2h27.5v68.7h27.5v-68.7h27.5v82.4h-13.7V4h-13.7v13.7h-27.5V4h-13.7V-9.8h-13.7V-92.2z"/>
		<path class="st0" d="M-970.7-77.1h13.7v-13.7h68.7v27.5h-54.9v13.7h41.2v13.7h13.7V5.3H-902V19h-68.7V-8.5h54.9v-13.7h-41.2v-13.7
			h-13.7V-77.1z"/>
	</g>
	<g>
		<path class="st7" d="M-1066.8-106.7h27.5V-38h27.5v-68.7h27.5v82.4h-13.7v13.7h-13.7V3.2h-27.5v-13.7h-13.7v-13.7h-13.7V-106.7z"
			/>
		<path class="st7" d="M-970.7-91.6h13.7v-13.7h68.7v27.5h-54.9v13.7h41.2v13.7h13.7v41.2H-902V4.5h-68.7V-23h54.9v-13.7h-41.2
			v-13.7h-13.7V-91.6z"/>
	</g>
	<g>
		<path class="st4" d="M-1066.8-120.1h27.5v68.7h27.5v-68.7h27.5v82.4h-13.7v13.7h-13.7v13.7h-27.5v-13.7h-13.7v-13.7h-13.7V-120.1z
			"/>
		<path class="st4" d="M-970.7-106.3h13.7v-13.7h68.7v27.5h-54.9v13.7h41.2v13.7h13.7v41.2H-902v13.7h-68.7v-27.5h54.9v-13.7h-41.2
			v-13.7h-13.7V-106.3z"/>
	</g>
</g>
</svg>
