<!-- Generator: Adobe Illustrator 19.2.1, SVG Export Plug-In  -->
<svg version="1.1"
	 xmlns="http://www.w3.org/2000/svg" xmlns:xlink="http://www.w3.org/1999/xlink" xmlns:a="http://ns.adobe.com/AdobeSVGViewerExtensions/3.0/"
	 x="0px" y="0px" width="123.9px" height="12px" viewBox="0 0 123.9 12" style="enable-background:new 0 0 123.9 12;"
	 xml:space="preserve">
<style type="text/css">
	.st0{fill:#A9C4C2;}
</style>
<defs>
</defs>
<g>
	<path class="st0" d="M0,0h8.9v3H6v6h3v3H0V9h3V3H0V0z"/>
	<path class="st0" d="M14.9,6h-1.5v6h-3V0h3v1.5h1.5v1.5h1.5v-3h3V12h-3V7.5h-1.5V6z"/>
	<path class="st0" d="M20.9,1.5h1.5V0h7.5v3h-6v1.5h4.5V6h1.5v4.5h-1.5V12h-7.5V9h6V7.5h-4.5V6h-1.5V1.5z"/>
	<path class="st0" d="M31.4,0h8.9v3h-3V12h-3V3h-3V0z"/>
	<path class="st0" d="M46.2,7.5h-1.5V12h-3V0h7.5v1.5h1.5V6h-1.5v1.5h1.5V12h-3v-3h-1.5V7.5z M44.8,4.5h3V3h-3V4.5z"/>
	<path class="st0" d="M52.2,0h3V9h3V0h3v10.5h-1.5V12h-6v-1.5h-1.5L52.2,0L52.2,0z"/>
	<path class="st0" d="M62.7,1.5h1.5V0h7.5v3h-6v6h6v3h-7.5v-1.5h-1.5L62.7,1.5L62.7,1.5z"/>
	<path class="st0" d="M73.1,0H82v3h-3V12h-3V3h-3L73.1,0L73.1,0z"/>
	<path class="st0" d="M83.6,0h8.9v3h-3v6h3v3h-8.9V9h3V3h-3V0z"/>
	<path class="st0" d="M94,1.5h1.5V0h6v1.5h1.5v8.9h-1.5V12h-6v-1.5H94V1.5z M97,9h3V3h-3V9z"/>
	<path class="st0" d="M108.9,6h-1.5v6h-3V0h3v1.5h1.5v1.5h1.5v-3h3V12h-3V7.5h-1.5V6z"/>
	<path class="st0" d="M114.9,1.5h1.5V0h7.5v3h-6v1.5h4.5V6h1.5v4.5h-1.5V12H115V9h6V7.5h-4.5V6h-1.5V1.5z"/>
</g>
</svg>
