<svg id="Layer_1" xmlns="http://www.w3.org/2000/svg" viewBox="0 0 229.4 39.8"><style>.st0{fill:#5895b7}.st1{opacity:.8}.st2{fill:#c17620}.st3{fill:#f4c24a}.st4{fill:none}.st5{enable-background:new}.st6{fill:#fff}.st7{fill:#2a6fba}.st8{fill:#4abaef}.st9{fill:#95c9c8}.st10{fill:#ddefee}.st11{fill:#1b8e6f}.st12{fill:#3cea8a}.st13{opacity:.4;fill:#666;enable-background:new}.st14{fill:#7149a4}.st15{fill:#bd86e0}.st16{opacity:.4;fill:#666;stroke:#666;stroke-width:4;stroke-linejoin:bevel;stroke-miterlimit:10;enable-background:new}.st17{fill:#f2f2f2}.st18{fill:#e6e6e6}.st19{fill:none;stroke:#000;stroke-width:4;stroke-linejoin:bevel;stroke-miterlimit:10}.st20{fill:#c6e0de}.st21{fill:#a7c6c3}</style><path class="st11" d="M223.7 1.3V0H5.7v1.3H0V34h5.7v5.8h218V34h5.7V1.3h-5.7zm1.2 20.2h-5.1v5.1h-5.1v.1h-200v-.1H9.6v-5.1H4.5v-7.7h5.1V8.7h205.1v.1h5.1v5.1h5.1v7.6z"/><path class="st12" d="M5.7-.3H0V28h5.7v5.8h218V28h5.7V-.3h-5.7m1.2 21.8h-5.1v5.1h-5.1v.1h-200v-.1H9.6v-5.1H4.5v-7.7h5.1V8.7h205.1v.1h5.1v5.1h5.1v7.6z"/></svg>