<svg xmlns="http://www.w3.org/2000/svg" width="256.7" height="132.1" viewBox="0 0 256.7 132.1"><style>.st0{opacity:.4;fill:#666;enable-background:new}</style><path class="st0" d="M32.3 88.5l-2-5.8-4-12-17.8 6 1.9 5.8-5.8 1.9 4.1 12.1 5.8-2 1.9 5.8 12.1-4.1-2-5.8zm38.8-12.1l-2-5.7L65 58.6l-17.7 6.1 1.9 5.7-5.8 2 4.1 12 5.8-1.9 1.9 5.7 12.1-4-2-5.8z"/><path d="M5.5 31.662l6.724-2.277 12.38 36.562-6.726 2.277z"/><path d="M30.6 83.7l-1.9-5.8-4.1-12-17.8 6 2 5.8L3 79.6l4.1 12.1 5.8-2 1.9 5.8 12-4.1-1.9-5.8zM44 18.553l6.725-2.276 12.38 36.561-6.726 2.277zM69.1 70.7l-1.9-5.8-4.1-12-17.8 6 2 5.8-5.8 1.9 4.1 12 5.7-1.9 2 5.8 12-4.1-2-5.8z"/><path d="M-.01 15.31L45.17.012 50.72 16.4 5.537 31.696z"/><path class="st0" d="M98.5 122.1l.9-4.2 1.9-8.6-12.8-2.8-.9 4.1-4.2-.9-1.9 8.6 4.2 1-.9 4.1 8.6 1.9.9-4.1zm27.5 6.7l.9-4.1 1.9-8.6-12.8-2.9-.9 4.2-4.1-.9-1.9 8.6 4.1.9-.9 4.2 8.6 1.9.9-4.2z"/><path d="M97.193 104.747l5.781-26.27 4.883 1.074-5.78 26.271z"/><path d="M99.2 118.6l1-4.1 1.9-8.7-12.8-2.8-.9 4.2-4.2-1-1.9 8.7 4.2.9-1 4.1 8.7 2 .9-4.2zm25.604-7.765l5.78-26.27 4.884 1.074-5.781 26.27z"/><path d="M126.9 124.7l.9-4.1 1.9-8.7-12.8-2.8-.9 4.1-4.1-.9-1.9 8.7 4.1.9-.9 4.1 8.6 1.9 1-4.1zm-23.964-46.233l2.579-11.72 32.52 7.157-2.578 11.719z"/><path class="st0" d="M174.5 60.3l-.7-3.1-1.4-6.3L163 53l.7 3-3 .7 1.4 6.3 3-.6.7 3 6.3-1.4-.6-3zm20.4-4l-.7-3.1-1.4-6.3-9.4 2.1.7 3-3 .7 1.4 6.3 3-.6.7 3 6.4-1.4-.7-3.1z"/><path d="M163.996 29.826l3.514-.782 4.303 19.326-3.514.783z"/><path d="M173.9 57.7l-.6-3-1.4-6.4-9.4 2.1.6 3.1-3 .7 1.4 6.3 3-.7.7 3.1 6.4-1.4-.7-3.1zm10.396-32.373l3.514-.782 4.303 19.326-3.514.783z"/><path d="M194.2 53.2l-.6-3-1.4-6.4-9.4 2.1.6 3.1-3 .6 1.4 6.4 3.1-.7.6 3.1 6.4-1.5-.7-3zm-32.163-32.049l23.817-5.302 1.912 8.59-23.817 5.302z"/><path class="st0" d="M195.1 106l2.6-4.1 5.5-8.5-12.7-8.1-2.6 4.1-4.1-2.6-5.5 8.6 4.1 2.6-2.6 4.1 8.6 5.4 2.6-4.1zm27 18.2l2.6-4.2 5.5-8.5-12.7-8.1-2.6 4.1-4.1-2.6-5.5 8.6 4.1 2.6-2.6 4.1 8.6 5.5 2.6-4.2z"/><path d="M200.567 86.848l16.572-26.08 4.81 3.058-16.571 26.08z"/><path d="M197.3 102.6l2.6-4.1 5.5-8.6-12.7-8-2.6 4.1-4.2-2.6-5.4 8.5 4.1 2.7-2.6 4.1 8.6 5.4 2.6-4.1zm30.672 1.707l16.572-26.08 4.81 3.057-16.57 26.08zM224.7 120l2.6-4.1 5.5-8.5-12.7-8.1-2.6 4.1-4.1-2.6-5.5 8.6 4.1 2.6-2.6 4.1 8.6 5.4 2.6-4.1zm-7.588-59.234l7.4-11.647 32.241 20.487-7.4 11.647z"/></svg>