<?xml version="1.0" encoding="utf-8"?>
<!-- Generator: Adobe Illustrator 22.0.1, SVG Export Plug-In . SVG Version: 6.00 Build 0)  -->
<svg version="1.1" id="Layer_1" xmlns="http://www.w3.org/2000/svg" xmlns:xlink="http://www.w3.org/1999/xlink" x="0px" y="0px"
	 width="289.3px" height="152px" viewBox="0 0 289.3 152" style="enable-background:new 0 0 289.3 152;" xml:space="preserve">
<style type="text/css">
	.st0{fill:#5895B7;}
	.st1{opacity:0.8;}
	.st2{fill:#C17620;}
	.st3{fill:#F4C24A;}
	.st4{fill:#2A6FBA;}
	.st5{fill:#4ABAEF;}
	.st6{fill:#FFFFFF;}
	.st7{fill:#95C9C8;}
	.st8{fill:#DDEFEE;}
	.st9{fill:#1B8E6F;}
	.st10{fill:#3CEA8A;}
	.st11{opacity:0.4;fill:#666666;}
	.st12{fill:none;}
</style>
<g>
	<rect x="103.3" y="470" class="st0" width="484" height="82"/>
	<rect x="555.3" y="544" class="st0" width="107" height="30"/>
	<g class="st1">
		<g>
			<polygon class="st0" points="119.3,490 119.3,572 23.3,572 23.3,561 35.3,561 35.3,549 47.3,549 47.3,537 59.3,537 59.3,525 
				47.3,525 47.3,513 35.3,513 35.3,501 23.3,501 23.3,490 			"/>
		</g>
		<polygon class="st0" points="105.3,548 119.3,571 119.3,548 		"/>
	</g>
	<g>
		<g>
			<polygon class="st2" points="566.3,482 566.3,564 662.3,564 662.3,553 650.3,553 650.3,541 638.3,541 638.3,529 626.3,529 
				626.3,517 638.3,517 638.3,505 650.3,505 650.3,493 662.3,493 662.3,482 			"/>
			<polygon class="st3" points="566.3,471 566.3,553 662.3,553 662.3,542 650.3,542 650.3,530 638.3,530 638.3,518 626.3,518 
				626.3,506 638.3,506 638.3,494 650.3,494 650.3,482 662.3,482 662.3,471 			"/>
		</g>
		<polygon class="st2" points="580.3,540 566.3,563 566.4,540 		"/>
		<g>
			<g>
				<polygon class="st2" points="110.3,482 110.3,564 14.3,564 14.3,553 26.3,553 26.3,541 38.3,541 38.3,529 50.3,529 50.3,517 
					38.3,517 38.3,505 26.3,505 26.3,493 14.3,493 14.3,482 				"/>
				<polygon class="st3" points="110.3,471 110.3,553 14.3,553 14.3,542 26.3,542 26.3,530 38.3,530 38.3,518 50.3,518 50.3,506 
					38.3,506 38.3,494 26.3,494 26.3,482 14.3,482 14.3,471 				"/>
			</g>
			<polygon class="st2" points="96.3,540 110.3,563 110.3,540 			"/>
		</g>
		<g>
			<rect x="96.3" y="458" class="st2" width="484" height="82"/>
			<rect x="96.3" y="446" class="st3" width="484" height="82"/>
		</g>
	</g>
	<rect x="119.2" y="471.2" class="st12" width="415.2" height="81.8"/>
	<text transform="matrix(1 0 0 1 158.3008 505.791)" class="st6" style="font-family:'EditUndoBRK'; font-size:60px;">HOW TO PLAY</text>
</g>
<polygon class="st4" points="423.3,739 411.3,739 338.3,739 338.3,751 326.3,751 326.3,836 338.3,836 338.3,848 411.3,848 
	423.3,848 423.3,836 435.3,836 435.3,751 423.3,751 "/>
<polygon class="st5" points="423.3,729 411.3,729 338.3,729 338.3,741 326.3,741 326.3,826 338.3,826 338.3,838 411.3,838 
	423.3,838 423.3,826 435.3,826 435.3,741 423.3,741 "/>
<rect x="338.3" y="763.2" class="st12" width="89" height="81.8"/>
<text transform="matrix(1 0 0 1 362.915 808.7344)" class="st6" style="font-family:'EditUndoBRK'; font-size:79px;">?</text>
<g>
	<polygon class="st0" points="1458.3,577.7 1446.8,577.7 1446.8,567.5 1435.2,567.5 1435.2,556.2 936.5,556.2 936.5,567.5 
		924.9,567.5 924.9,577.7 913.3,577.7 913.3,1180.5 924.9,1180.5 924.9,1190.7 936.5,1190.7 936.5,1202 1435.2,1202 1435.2,1190.7 
		1446.8,1190.7 1446.8,1180.5 1458.3,1180.5 	"/>
	<polygon class="st7" points="1458.3,567.1 1446.8,567.1 1446.8,556.9 1435.2,556.9 1435.2,545.6 936.5,545.6 936.5,556.9 
		924.9,556.9 924.9,567.1 913.3,567.1 913.3,1169.9 924.9,1169.9 924.9,1180.1 936.5,1180.1 936.5,1191.4 1435.2,1191.4 
		1435.2,1180.1 1446.8,1180.1 1446.8,1169.9 1458.3,1169.9 	"/>
	<polygon class="st8" points="1458.3,556.6 1446.8,556.6 1446.8,546.3 1435.2,546.3 1435.2,535 936.5,535 936.5,546.3 924.9,546.3 
		924.9,556.6 913.3,556.6 913.3,1159.3 924.9,1159.3 924.9,1169.6 936.5,1169.6 936.5,1180.8 1435.2,1180.8 1435.2,1169.6 
		1446.8,1169.6 1446.8,1159.3 1458.3,1159.3 	"/>
</g>
<g>
	<polygon class="st9" points="409.4,219 399.3,219 24.4,219 24.4,229.1 14.3,229.1 14.3,287 24.4,287 24.4,297 399.3,297 409.4,297 
		409.4,287 419.4,287 419.4,229.1 409.4,229.1 	"/>
	<polygon class="st10" points="409.4,209 399.3,209 24.4,209 24.4,219.1 14.3,219.1 14.3,277 24.4,277 24.4,287 399.3,287 
		409.4,287 409.4,277 419.4,277 419.4,219.1 409.4,219.1 	"/>
	<rect x="15.3" y="232.3" class="st12" width="404" height="81.8"/>
	<text transform="matrix(1 0 0 1 127.4678 259.9135)" class="st6" style="font-family:'EditUndoBRK'; font-size:48px;">PLAYER 1</text>
</g>
<g>
	<polygon class="st11" points="48.5,98.4 46.6,92.7 42.5,80.6 24.7,86.7 26.6,92.4 20.9,94.4 24.9,106.4 30.7,104.5 32.7,110.2 
		44.7,106.2 42.7,100.4 	"/>
	<polygon class="st11" points="87.3,86.4 85.3,80.6 81.3,68.6 63.5,74.6 65.4,80.4 59.7,82.3 63.7,94.4 69.5,92.4 71.5,98.2 
		83.5,94.1 81.5,88.3 	"/>
	<rect x="27.7" y="39.4" transform="matrix(0.9472 -0.3207 0.3207 0.9472 -17.1756 13.14)" width="7.1" height="38.6"/>
	<polygon points="46.9,93.6 44.9,87.9 40.9,75.8 23.1,81.9 25,87.6 19.2,89.6 23.3,101.6 29.1,99.7 31,105.4 43.1,101.4 41.1,95.6 	
		"/>
	<rect x="66.2" y="26.4" transform="matrix(0.9472 -0.3207 0.3207 0.9472 -10.9656 24.7897)" width="7.1" height="38.6"/>
	<polygon points="85.3,80.6 83.4,74.8 79.3,62.8 61.5,68.8 63.5,74.6 57.7,76.6 61.8,88.6 67.6,86.6 69.5,92.4 81.5,88.3 79.6,82.6 
			"/>
	<rect x="17.7" y="17.1" transform="matrix(0.9472 -0.3207 0.3207 0.9472 -6.0615 14.6955)" width="47.7" height="17.3"/>
</g>
<g>
	<polygon class="st11" points="114.7,132 115.6,127.9 117.5,119.2 104.7,116.4 103.8,120.6 99.7,119.6 97.8,128.3 101.9,129.2 
		101,133.4 109.7,135.3 110.6,131.1 	"/>
	<polygon class="st11" points="142.2,138.8 143.1,134.6 145,126 132.2,123.2 131.3,127.3 127.2,126.4 125.3,135.1 129.4,136 
		128.5,140.1 137.2,142 138.1,137.9 	"/>
	<rect x="116.3" y="88.6" transform="matrix(0.9766 0.2149 -0.2149 0.9766 24.714 -23.1355)" width="5" height="26.9"/>
	<polygon points="115.5,128.6 116.4,124.4 118.3,115.8 105.5,113 104.6,117.1 100.4,116.2 98.5,124.8 102.7,125.7 101.8,129.9 
		110.4,131.8 111.3,127.6 	"/>
	<rect x="143.9" y="94.7" transform="matrix(0.9766 0.2149 -0.2149 0.9766 26.6681 -28.9375)" width="5" height="26.9"/>
	<polygon points="143.1,134.6 144.1,130.5 146,121.9 133.2,119 132.2,123.2 128.1,122.3 126.2,130.9 130.3,131.8 129.4,136 
		138.1,137.9 139,133.7 	"/>
	<rect x="120.1" y="80.1" transform="matrix(0.9766 0.2149 -0.2149 0.9766 21.7021 -27.3799)" width="33.3" height="12"/>
</g>
<g>
	<polygon class="st11" points="190.7,70.2 190.1,67.2 188.6,60.8 179.3,62.9 179.9,66 176.9,66.6 178.3,73 181.3,72.3 182,75.4 
		188.4,73.9 187.7,70.9 	"/>
	<polygon class="st11" points="211.2,66.2 210.5,63.2 209.1,56.8 199.7,58.9 200.4,62 197.3,62.6 198.7,69 201.8,68.3 202.4,71.3 
		208.8,69.9 208.1,66.9 	"/>
	<rect x="182.3" y="39.2" transform="matrix(0.9761 -0.2173 0.2173 0.9761 -6.2563 41.1866)" width="3.6" height="19.8"/>
	<polygon points="190.2,67.7 189.5,64.6 188.1,58.3 178.7,60.4 179.4,63.4 176.3,64.1 177.7,70.5 180.8,69.8 181.5,72.8 187.8,71.4 
		187.1,68.4 	"/>
	<rect x="202.6" y="34.6" transform="matrix(0.9761 -0.2173 0.2173 0.9761 -4.7888 45.4913)" width="3.6" height="19.8"/>
	<polygon points="210.5,63.2 209.8,60.1 208.4,53.8 199,55.9 199.7,58.9 196.6,59.6 198,65.9 201.1,65.3 201.8,68.3 208.1,66.9 
		207.4,63.8 	"/>
	<rect x="179" y="28.4" transform="matrix(0.9761 -0.2173 0.2173 0.9761 -2.563 42.33)" width="24.4" height="8.8"/>
</g>
<g>
	<polygon class="st11" points="211.3,116 214,111.9 219.4,103.3 206.7,95.2 204.1,99.4 200,96.7 194.5,105.3 198.7,107.9 196,112 
		204.6,117.5 207.2,113.4 	"/>
	<polygon class="st11" points="238.3,134.1 240.9,130 246.4,121.4 233.7,113.4 231.1,117.5 227,114.9 221.5,123.4 225.7,126 
		223,130.2 231.6,135.6 234.2,131.5 	"/>
	<rect x="224.6" y="69.9" transform="matrix(0.844 0.5363 -0.5363 0.844 81.2379 -108.6809)" width="5.7" height="30.9"/>
	<polygon points="213.5,112.6 216.1,108.4 221.6,99.9 208.9,91.8 206.3,95.9 202.2,93.3 196.7,101.9 200.8,104.5 198.2,108.6 
		206.8,114.1 209.4,109.9 	"/>
	<rect x="252" y="87.3" transform="matrix(0.844 0.5363 -0.5363 0.844 94.8623 -120.6717)" width="5.7" height="30.9"/>
	<polygon points="240.9,130 243.6,125.9 249,117.3 236.3,109.2 233.7,113.4 229.6,110.7 224.2,119.3 228.3,121.9 225.7,126 
		234.2,131.5 236.8,127.4 	"/>
	<rect x="234.1" y="68.3" transform="matrix(0.844 0.5363 -0.5363 0.844 79.8064 -124.0431)" width="38.2" height="13.8"/>
</g>
<g>
	<polygon class="st9" points="252.6,-256.4 246,-256.4 -0.4,-256.4 -0.4,-249.8 -7,-249.8 -7,-211.8 -0.4,-211.8 -0.4,-205.2 
		246,-205.2 252.6,-205.2 252.6,-211.8 259.2,-211.8 259.2,-249.8 252.6,-249.8 	"/>
	<polygon class="st10" points="252.6,-263 246,-263 -0.4,-263 -0.4,-256.4 -7,-256.4 -7,-218.4 -0.4,-218.4 -0.4,-211.7 246,-211.7 
		252.6,-211.7 252.6,-218.4 259.2,-218.4 259.2,-256.4 252.6,-256.4 	"/>
	<rect x="-6.3" y="-247.7" class="st12" width="265.5" height="32.8"/>
	<text transform="matrix(1 0 0 1 59.4033 -229.5654)" class="st6" style="font-family:'EditUndoBRK'; font-size:31.5429px;">Calibrate</text>
</g>
<g>
	<rect x="-5.4" y="-174.1" class="st9" width="219.8" height="28.8"/>
	<rect x="-10.2" y="-180.6" class="st9" width="229.4" height="30.6"/>
	<polygon class="st10" points="-10.2,-185 -10.2,-155.7 -5.4,-155.7 -5.4,-150 214.3,-150 214.3,-155.7 219.1,-155.7 219.1,-185 	
		"/>
</g>
<polygon class="st9" points="209.6,-170.1 209.6,-175.2 204.5,-175.2 204.5,-175.3 147.8,-175.3 117.3,-175.3 91.7,-175.3 
	67.8,-175.3 4.4,-175.3 4.4,-175.3 -0.7,-175.3 -0.7,-170.2 -5.7,-170.2 -5.7,-162.5 -0.7,-162.5 -0.7,-157.4 4.4,-157.4 
	4.4,-157.3 67.8,-157.3 91.7,-157.3 117.3,-157.3 147.8,-157.3 204.5,-157.3 204.5,-157.4 209.6,-157.4 209.6,-162.5 214.7,-162.5 
	214.7,-170.1 "/>
<g>
	<rect x="-14.4" y="-76.1" class="st12" width="4.7" height="0.1"/>
	<rect x="-14.4" y="-58.2" class="st12" width="4.7" height="0.1"/>
	<polygon class="st6" points="6.7,-58.1 6.7,-63.2 11.8,-63.2 11.8,-70.9 6.7,-70.9 6.7,-76 1.6,-76 1.6,-76.1 -9.6,-76.1 -9.6,-76 
		-14.4,-76 -14.4,-58.2 -9.6,-58.2 -9.6,-58.1 1.6,-58.1 1.6,-58.1 	"/>
</g>
<g>
	<polygon class="st6" points="-40.2,-111.6 -40.2,-116.7 -45.3,-116.7 -45.3,-116.8 -61.2,-116.8 -61.2,-98.8 -45.3,-98.8 
		-45.3,-98.9 -40.2,-98.9 -40.2,-104 -35.1,-104 -35.1,-111.6 	"/>
	<polygon class="st6" points="-53.7,-72.8 -53.7,-77.9 -53.7,-77.9 -53.7,-78 -58.2,-78 -58.8,-78 -63.3,-78 -63.3,-77.9 
		-63.3,-77.9 -63.3,-72.8 -68.4,-72.8 -68.4,-65.2 -63.3,-65.2 -63.3,-60.1 -63.3,-60.1 -63.3,-60 -58.8,-60 -58.2,-60 -53.7,-60 
		-53.7,-60 -53.7,-60 -53.7,-65.1 -48.6,-65.1 -48.6,-72.8 	"/>
</g>
<polygon class="st6" points="8.3,-170.1 8.3,-175.2 8.3,-175.2 8.3,-175.3 3.8,-175.3 3.2,-175.3 -1.3,-175.3 -1.3,-175.3 
	-1.3,-175.3 -1.3,-170.2 -6.4,-170.2 -6.4,-162.5 -1.3,-162.5 -1.3,-157.4 -1.3,-157.4 -1.3,-157.3 3.2,-157.3 3.8,-157.3 
	8.3,-157.3 8.3,-157.4 8.3,-157.4 8.3,-162.5 13.4,-162.5 13.4,-170.1 "/>
</svg>
