<svg id="Layer_1" xmlns="http://www.w3.org/2000/svg" width="289.3" height="152" viewBox="0 0 289.3 152"><style>.st0{fill:#5895b7}.st1{opacity:.8}.st2{fill:#c17620}.st3{fill:#f4c24a}.st4{fill:#2a6fba}.st5{fill:#4abaef}.st6{fill:#fff}.st7{fill:#95c9c8}.st8{fill:#ddefee}.st9{fill:#1b8e6f}.st10{fill:#3cea8a}.st11{opacity:.4;fill:#666}.st12{fill:none}</style><path class="st0" d="M103.3 470h484v82h-484z"/><path class="st0" d="M555.3 544h107v30h-107z"/><g class="st1"><path class="st0" d="M119.3 490v82h-96v-11h12v-12h12v-12h12v-12h-12v-12h-12v-12h-12v-11z"/><path class="st0" d="M105.3 548l14 23v-23z"/></g><path class="st2" d="M566.3 482v82h96v-11h-12v-12h-12v-12h-12v-12h12v-12h12v-12h12v-11z"/><path class="st3" d="M566.3 471v82h96v-11h-12v-12h-12v-12h-12v-12h12v-12h12v-12h12v-11z"/><path class="st2" d="M580.3 540l-14 23 .1-23zm-470-58v82h-96v-11h12v-12h12v-12h12v-12h-12v-12h-12v-12h-12v-11z"/><path class="st3" d="M110.3 471v82h-96v-11h12v-12h12v-12h12v-12h-12v-12h-12v-12h-12v-11z"/><path class="st2" d="M96.3 540l14 23v-23zm0-82h484v82h-484z"/><path class="st3" d="M96.3 446h484v82h-484z"/><path class="st12" d="M119.2 471.2h415.2V553H119.2z"/><text transform="translate(158.3 505.791)" class="st6" font-family="EditUndoBRK" font-size="60">HOW TO PLAY</text><path class="st4" d="M423.3 739h-85v12h-12v85h12v12h85v-12h12v-85h-12z"/><path class="st5" d="M423.3 729h-85v12h-12v85h12v12h85v-12h12v-85h-12z"/><path class="st12" d="M338.3 763.2h89V845h-89z"/><text transform="translate(362.915 808.734)" class="st6" font-family="EditUndoBRK" font-size="79">?</text><path class="st0" d="M1458.3 577.7h-11.5v-10.2h-11.6v-11.3H936.5v11.3h-11.6v10.2h-11.6v602.8h11.6v10.2h11.6v11.3h498.7v-11.3h11.6v-10.2h11.5z"/><path class="st7" d="M1458.3 567.1h-11.5v-10.2h-11.6v-11.3H936.5v11.3h-11.6v10.2h-11.6v602.8h11.6v10.2h11.6v11.3h498.7v-11.3h11.6v-10.2h11.5z"/><path class="st8" d="M1458.3 556.6h-11.5v-10.3h-11.6V535H936.5v11.3h-11.6v10.3h-11.6v602.7h11.6v10.3h11.6v11.2h498.7v-11.2h11.6v-10.3h11.5z"/><path class="st9" d="M409.4 219h-385v10.1H14.3V287h10.1v10h385v-10h10v-57.9h-10z"/><path class="st10" d="M409.4 209h-385v10.1H14.3V277h10.1v10h385v-10h10v-57.9h-10z"/><path class="st12" d="M15.3 232.3h404v81.8h-404z"/><text transform="translate(127.468 259.913)" class="st6" font-family="EditUndoBRK" font-size="48">PLAYER 1</text><path class="st11" d="M48.5 98.4l-1.9-5.7-4.1-12.1-17.8 6.1 1.9 5.7-5.7 2 4 12 5.8-1.9 2 5.7 12-4-2-5.8zm38.8-12l-2-5.8-4-12-17.8 6 1.9 5.8-5.7 1.9 4 12.1 5.8-2 2 5.8 12-4.1-2-5.8z"/><path transform="rotate(-18.702 31.307 58.71)" d="M27.7 39.4h7.1V78h-7.1z"/><path d="M46.9 93.6l-2-5.7-4-12.1-17.8 6.1 1.9 5.7-5.8 2 4.1 12 5.8-1.9 1.9 5.7 12.1-4-2-5.8z"/><path transform="rotate(-18.702 69.778 45.68)" d="M66.2 26.4h7.1V65h-7.1z"/><path d="M85.3 80.6l-1.9-5.8-4.1-12-17.8 6 2 5.8-5.8 2 4.1 12 5.8-2 1.9 5.8 12-4.1-1.9-5.7z"/><path transform="rotate(-18.702 41.584 25.747)" d="M17.7 17.1h47.7v17.3H17.7z"/><path class="st11" d="M114.7 132l.9-4.1 1.9-8.7-12.8-2.8-.9 4.2-4.1-1-1.9 8.7 4.1.9-.9 4.2 8.7 1.9.9-4.2zm27.5 6.8l.9-4.2 1.9-8.6-12.8-2.8-.9 4.1-4.1-.9-1.9 8.7 4.1.9-.9 4.1 8.7 1.9.9-4.1z"/><path transform="rotate(12.41 118.757 102.09)" d="M116.3 88.6h5v26.9h-5z"/><path d="M115.5 128.6l.9-4.2 1.9-8.6-12.8-2.8-.9 4.1-4.2-.9-1.9 8.6 4.2.9-.9 4.2 8.6 1.9.9-4.2z"/><path transform="rotate(12.41 146.417 108.176)" d="M143.9 94.7h5v26.9h-5z"/><path d="M143.1 134.6l1-4.1 1.9-8.6-12.8-2.9-1 4.2-4.1-.9-1.9 8.6 4.1.9-.9 4.2 8.7 1.9.9-4.2z"/><path transform="rotate(12.41 136.77 86.117)" d="M120.1 80.1h33.3v12h-33.3z"/><path class="st11" d="M190.7 70.2l-.6-3-1.5-6.4-9.3 2.1.6 3.1-3 .6 1.4 6.4 3-.7.7 3.1 6.4-1.5-.7-3zm20.5-4l-.7-3-1.4-6.4-9.4 2.1.7 3.1-3.1.6 1.4 6.4 3.1-.7.6 3 6.4-1.4-.7-3z"/><path transform="rotate(-12.552 184.144 49.044)" d="M182.3 39.2h3.6V59h-3.6z"/><path d="M190.2 67.7l-.7-3.1-1.4-6.3-9.4 2.1.7 3-3.1.7 1.4 6.4 3.1-.7.7 3 6.3-1.4-.7-3z"/><path transform="rotate(-12.552 204.45 44.525)" d="M202.6 34.6h3.6v19.8h-3.6z"/><path d="M210.5 63.2l-.7-3.1-1.4-6.3-9.4 2.1.7 3-3.1.7 1.4 6.3 3.1-.6.7 3 6.3-1.4-.7-3.1z"/><path transform="rotate(-12.552 191.19 32.823)" d="M179 28.4h24.4v8.8H179z"/><path class="st11" d="M211.3 116l2.7-4.1 5.4-8.6-12.7-8.1-2.6 4.2-4.1-2.7-5.5 8.6 4.2 2.6-2.7 4.1 8.6 5.5 2.6-4.1zm27 18.1l2.6-4.1 5.5-8.6-12.7-8-2.6 4.1-4.1-2.6-5.5 8.5 4.2 2.6-2.7 4.2 8.6 5.4 2.6-4.1z"/><path transform="rotate(32.435 227.465 85.313)" d="M224.6 69.9h5.7v30.9h-5.7z"/><path d="M213.5 112.6l2.6-4.2 5.5-8.5-12.7-8.1-2.6 4.1-4.1-2.6-5.5 8.6 4.1 2.6-2.6 4.1 8.6 5.5 2.6-4.2z"/><path transform="rotate(32.435 254.893 102.74)" d="M252 87.3h5.7v30.9H252z"/><path d="M240.9 130l2.7-4.1 5.4-8.6-12.7-8.1-2.6 4.2-4.1-2.7-5.4 8.6 4.1 2.6-2.6 4.1 8.5 5.5 2.6-4.1z"/><path transform="rotate(32.435 253.16 75.17)" d="M234.1 68.3h38.2v13.8h-38.2z"/><path class="st9" d="M252.6-256.4H-.4v6.6H-7v38h6.6v6.6h253v-6.6h6.6v-38h-6.6z"/><path class="st10" d="M252.6-263H-.4v6.6H-7v38h6.6v6.7h253v-6.7h6.6v-38h-6.6z"/><path class="st12" d="M-6.3-247.7h265.5v32.8H-6.3z"/><text transform="translate(59.403 -229.565)" class="st6" font-family="EditUndoBRK" font-size="31.543">Calibrate</text><path class="st9" d="M-5.4-174.1h219.8v28.8H-5.4z"/><path class="st9" d="M-10.2-180.6h229.4v30.6H-10.2z"/><path class="st10" d="M-10.2-185v29.3h4.8v5.7h219.7v-5.7h4.8V-185z"/><path class="st9" d="M209.6-170.1v-5.1h-5.1v-.1H-.7v5.1h-5v7.7h5v5.1h5.1v.1h200.1v-.1h5.1v-5.1h5.1v-7.6z"/><path class="st12" d="M-14.4-76.1h4.7v.1h-4.7zm0 17.9h4.7v.1h-4.7z"/><path class="st6" d="M6.7-58.1v-5.1h5.1v-7.7H6.7V-76H1.6v-.1H-9.6v.1h-4.8v17.8h4.8v.1H1.6zm-46.9-53.5v-5.1h-5.1v-.1h-15.9v18h15.9v-.1h5.1v-5.1h5.1v-7.6zm-13.5 38.8V-78h-9.6v5.2h-5.1v7.6h5.1v5.2h9.6v-5.1h5.1v-7.7zm62-97.3v-5.2h-9.6v5.1h-5.1v7.7h5.1v5.2h9.6v-5.2h5.1v-7.6z"/></svg>