<!-- Generator: Adobe Illustrator 19.2.1, SVG Export Plug-In  -->
<svg version="1.1"
	 xmlns="http://www.w3.org/2000/svg" xmlns:xlink="http://www.w3.org/1999/xlink" xmlns:a="http://ns.adobe.com/AdobeSVGViewerExtensions/3.0/"
	 x="0px" y="0px" width="161.6px" height="130.7px" viewBox="0 0 161.6 130.7" style="enable-background:new 0 0 161.6 130.7;"
	 xml:space="preserve">
<style type="text/css">

		.st0{opacity:0.4;fill:#666666;stroke:#666666;stroke-width:4;stroke-linejoin:bevel;stroke-miterlimit:10;enable-background:new    ;}
	.st1{fill:#F2F2F2;}
	.st2{fill:#E6E6E6;}
	.st3{fill:none;stroke:#000000;stroke-width:4;stroke-linejoin:bevel;stroke-miterlimit:10;}
</style>
<defs>
</defs>
<polygon class="st0" points="4.8,58.7 11.2,64.3 5.6,70.7 26,88.1 26,125.9 46.8,99.8 78.5,129.2 84.4,123 89.3,127.6 161,8.9 "/>
<polygon class="st1" points="2.3,51.6 8.7,57.2 3.1,63.6 23.6,80.9 23.6,118.8 44.3,92.7 76.1,122.1 81.9,115.8 86.9,120.5
	158.5,1.8 "/>
<polygon class="st2" points="44.4,92.5 158.8,1.7 23.6,80.7 23.6,118.6 "/>
<polygon class="st3" points="1.3,51.7 7.7,57.3 2.1,63.7 22.5,81.1 22.5,119 43.3,92.9 75,122.3 80.9,116 85.8,120.6 157.4,1.9 "/>
</svg>
