<svg id="Layer_1" xmlns="http://www.w3.org/2000/svg" width="166.8" height="152" viewBox="0 0 166.8 135"><style>.st0{fill:#5895b7}.st1{opacity:.8}.st2{fill:#c17620}.st3{fill:#f4c24a}.st4{fill:#2a6fba}.st5{fill:#4abaef}.st6{fill:#fff}.st7{fill:#95c9c8}.st8{fill:#ddefee}.st9{fill:#1b8e6f}.st10{fill:#3cea8a}.st11{opacity:.4;fill:#666}.st12{fill:none}.st13{fill:#7149a4}.st14{fill:#bd86e0}.st15{opacity:.4;fill:#666;stroke:#666;stroke-width:4;stroke-linejoin:bevel;stroke-miterlimit:10}.st16{fill:#f2f2f2}.st17{fill:#e6e6e6}.st18{fill:none;stroke:#000;stroke-width:4;stroke-linejoin:bevel;stroke-miterlimit:10}</style><path class="st0" d="M-312.3 477.2h484v82h-484z"/><path class="st0" d="M139.7 551.2h107v30h-107z"/><g class="st1"><path class="st0" d="M-296.3 497.2v82h-96v-11h12v-12h12v-12h12v-12h-12v-12h-12v-12h-12v-11z"/><path class="st0" d="M-310.3 555.2l14 23-.1-23z"/></g><path class="st2" d="M150.7 489.2v82h96v-11h-12v-12h-12v-12h-12v-12h12v-12h12v-12h12v-11z"/><path class="st3" d="M150.7 478.2v82h96v-11h-12v-12h-12v-12h-12v-12h12v-12h12v-12h12v-11z"/><path class="st2" d="M164.7 547.2l-14 23v-23zm-470-58v82h-96v-11h12v-12h12v-12h12v-12h-12v-12h-12v-12h-12v-11z"/><path class="st3" d="M-305.3 478.2v82h-96v-11h12v-12h12v-12h12v-12h-12v-12h-12v-12h-12v-11z"/><path class="st2" d="M-319.3 547.2l14 23-.1-23zm0-82h484v82h-484z"/><path class="st3" d="M-319.3 453.2h484v82h-484z"/><path class="st12" d="M-296.5 478.5h415.2v81.8h-415.2z"/><text transform="translate(-257.349 513.022)" class="st6" font-family="EditUndoBRK" font-size="60">HOW TO PLAY</text><path class="st4" d="M7.7 746.2h-85v12h-12v85h12v12h85v-12h12v-85h-12z"/><path class="st5" d="M7.7 736.2h-85v12h-12v85h12v12h85v-12h12v-85h-12z"/><path class="st12" d="M-77.3 770.5h89v81.8h-89z"/><text transform="translate(-52.734 815.965)" class="st6" font-family="EditUndoBRK" font-size="79">?</text><path class="st0" d="M1042.7 585h-11.6v-10.3h-11.6v-11.3H520.8v11.3h-11.6V585h-11.5v602.7h11.5v10.3h11.6v11.2h498.7V1198h11.6v-10.3h11.6z"/><path class="st7" d="M1042.7 574.4h-11.6v-10.3h-11.6v-11.2H520.8v11.2h-11.6v10.3h-11.5v602.7h11.5v10.3h11.6v11.2h498.7v-11.2h11.6v-10.3h11.6z"/><path class="st8" d="M1042.7 563.8h-11.6v-10.3h-11.6v-11.2H520.8v11.2h-11.6v10.3h-11.5v602.7h11.5v10.3h11.6v11.3h498.7v-11.3h11.6v-10.3h11.6z"/><path class="st9" d="M-6.3 226.3h-385v10h-10v57.9h10v10.1h385v-10.1H3.8v-57.9H-6.3z"/><path class="st10" d="M-6.3 216.3h-385v10h-10v57.9h10v10.1h385v-10.1H3.8v-57.9H-6.3z"/><path class="st12" d="M-400.3 239.5h404v81.8h-404z"/><text transform="translate(-288.182 267.144)" class="st6" font-family="EditUndoBRK" font-size="48">PLAYER 1</text><path class="st11" d="M-367.1 105.7l-2-5.8-4.1-12-17.8 6 2 5.8-5.8 1.9 4.1 12.1 5.8-2 1.9 5.8 12-4.1-1.9-5.8zm38.8-12.1l-2-5.8-4.1-12-17.8 6 2 5.8-5.8 2 4.1 12 5.8-2 1.9 5.8 12-4.1-1.9-5.7z"/><path transform="rotate(-18.702 -384.382 65.973)" d="M-387.9 46.6h7.1v38.6h-7.1z"/><path d="M-368.8 100.9l-1.9-5.8-4.1-12-17.8 6 2 5.8-5.8 1.9 4.1 12 5.7-1.9 2 5.8 12-4.1-1.9-5.8z"/><path transform="rotate(-18.702 -345.91 52.943)" d="M-349.4 33.6h7.1v38.6h-7.1z"/><path d="M-330.3 87.8l-2-5.7-4-12.1-17.8 6.1 1.9 5.7-5.7 2 4 12 5.8-1.9 2 5.7 12-4-2-5.8z"/><path transform="rotate(-18.702 -374.104 33.009)" d="M-397.9 24.3h47.7v17.3h-47.7z"/><path class="st11" d="M-300.9 139.3l.9-4.2 1.9-8.6-12.8-2.9-.9 4.2-4.2-.9-1.9 8.6 4.2.9-.9 4.2 8.6 1.9.9-4.2zm27.5 6.7l.9-4.1 1.9-8.7-12.8-2.8-.9 4.2-4.2-.9-1.9 8.6 4.2.9-.9 4.2 8.6 1.9.9-4.2z"/><path transform="rotate(12.41 -296.87 109.325)" d="M-299.4 95.9h5v26.9h-5z"/><path d="M-300.2 135.8l.9-4.2 1.9-8.6-12.8-2.8-.9 4.1-4.1-.9-1.9 8.7 4.1.9-.9 4.1 8.7 1.9.9-4.1z"/><path transform="rotate(12.41 -269.21 115.411)" d="M-271.7 102h5v26.9h-5z"/><path d="M-272.5 141.9l.9-4.2 1.9-8.6-12.8-2.8-.9 4.1-4.2-.9-1.9 8.7 4.2.9-.9 4.1 8.6 1.9.9-4.1z"/><path transform="rotate(12.41 -278.856 93.352)" d="M-295.5 87.3h33.3v12h-33.3z"/><path class="st11" d="M-224.9 77.5l-.7-3.1-1.4-6.3-9.4 2.1.7 3-3.1.7 1.4 6.3 3.1-.7.7 3.1 6.3-1.4-.7-3.1zm20.4-4.1l-.7-3-1.4-6.4-9.4 2.1.7 3.1-3 .7 1.4 6.3 3-.7.7 3.1 6.3-1.4-.6-3.1z"/><path transform="rotate(-12.552 -231.48 56.263)" d="M-233.3 46.4h3.6v19.8h-3.6z"/><path d="M-225.5 74.9l-.7-3-1.4-6.4-9.4 2.1.7 3.1-3 .6 1.4 6.4 3-.7.7 3.1 6.4-1.5-.7-3z"/><path transform="rotate(-12.552 -211.173 51.743)" d="M-213 41.9h3.6v19.8h-3.6z"/><path d="M-205.2 70.4l-.6-3.1-1.5-6.3-9.4 2.1.7 3-3 .7 1.4 6.4 3-.7.7 3 6.4-1.4-.7-3z"/><path transform="rotate(-12.552 -224.434 40.042)" d="M-236.7 35.6h24.4v8.8h-24.4z"/><path class="st11" d="M-204.3 123.2l2.6-4.1 5.5-8.6-12.7-8-2.6 4.1-4.2-2.6-5.4 8.5 4.1 2.7-2.6 4.1 8.6 5.4 2.6-4.1zm27 18.1l2.6-4.1 5.4-8.6-12.6-8-2.7 4.1-4.1-2.6-5.4 8.6 4.1 2.6-2.6 4.1 8.6 5.4 2.6-4.1z"/><path transform="rotate(32.435 -188.185 92.561)" d="M-191 77.1h5.7V108h-5.7z"/><path d="M-202.1 119.8l2.6-4.1 5.4-8.6-12.7-8.1-2.6 4.2-4.1-2.7-5.4 8.6 4.1 2.6-2.6 4.1 8.5 5.5 2.7-4.1z"/><path transform="rotate(32.435 -160.758 109.988)" d="M-163.6 94.5h5.7v30.9h-5.7z"/><path d="M-174.7 137.2l2.6-4.1 5.5-8.6-12.7-8-2.6 4.1-4.2-2.6-5.4 8.5 4.1 2.7-2.6 4.1 8.6 5.4 2.6-4.1z"/><path transform="rotate(32.435 -162.49 82.418)" d="M-181.6 75.5h38.2v13.8h-38.2z"/><path class="st9" d="M-163.1-249.2H-416v6.6h-6.6v38h6.6v6.7h252.9v-6.7h6.7v-38h-6.7z"/><path class="st10" d="M-163.1-255.8H-416v6.6h-6.6v38.1h6.6v6.6h252.9v-6.6h6.7v-38.1h-6.7z"/><path class="st12" d="M-422-240.5h265.5v32.8H-422z"/><text transform="translate(-356.246 -222.334)" class="st6" font-family="EditUndoBRK" font-size="31.543">Calibrate</text><path class="st9" d="M-421.1-166.8h219.8v28.8h-219.8z"/><path class="st9" d="M-425.9-173.4h229.4v30.6h-229.4z"/><path class="st10" d="M-425.9-177.8v29.3h4.8v5.7h219.8v-5.7h4.8v-29.3z"/><path class="st9" d="M-206.1-162.9v-5.1h-5.1v-.1h-200v.1h-5.1v5h-5.1v7.7h5.1v5.1h5.1v.1h200v-.1h5.1v-5.1h5.1v-7.6z"/><path class="st12" d="M-430-68.8h4.7v.1h-4.7zm0 17.9h4.7v.1h-4.7z"/><path class="st6" d="M-409-50.9V-56h5.1v-7.6h-5.1v-5.1h-5.1v-.1H-430v17.9h4.7v.1h11.2v-.1zm-46.8-53.5v-5.1h-5.1v-.1h-15.9v18h21v-5.1h5.1v-7.7zm-13.5 38.9v-5.2h-9.6v5.1h-5.1v7.7h5.1v5.2h9.6v-5.2h5.1v-7.6zm-49.8-97.4v-5.2h-9.6v5.1h-5.1v7.7h5.1v5.2h9.6v-5.2h5.1v-7.6z"/><path class="st13" d="M446.7 226.3h-385v10h-10v57.9h10v10.1h385v-10.1h10.1v-57.9h-10.1z"/><path class="st14" d="M446.7 216.3h-385v10h-10v57.9h10v10.1h385v-10.1h10.1v-57.9h-10.1z"/><path class="st12" d="M51.7 239.5h405v81.8h-405z"/><text transform="translate(157.406 267.144)" class="st6" font-family="EditUndoBRK" font-size="48">PLAYER 2</text><path class="st6" d="M72.7 220.3h45.1v5.7H72.7zm51.2 0h5.7v5.7h-5.7zm-505.7 1h45.1v5.7h-45.1zm51.2 0h5.7v5.7h-5.7z"/><path class="st15" d="M7.3 61.3l6.4 5.6-5.6 6.4 20.4 17.3v37.9l20.8-26.1L81 131.8l5.9-6.3 4.9 4.7 71.6-118.7z"/><path class="st16" d="M4.8 54.1l6.4 5.6-5.6 6.4 20.5 17.4v37.9l20.7-26.1 31.8 29.4 5.8-6.3 5 4.6L161 4.3z"/><path class="st17" d="M46.9 95.1L161.2 4.3l-135.1 79v37.9z"/><path class="st18" d="M3.8 54.3l6.4 5.6-5.6 6.4L25 83.7v37.8l20.7-26.1 31.8 29.4 5.8-6.2 5 4.6L159.9 4.5z"/></svg>