<?xml version="1.0" encoding="utf-8"?>
<!-- Generator: Adobe Illustrator 22.0.1, SVG Export Plug-In . SVG Version: 6.00 Build 0)  -->
<svg version="1.1" id="Layer_1" xmlns="http://www.w3.org/2000/svg" xmlns:xlink="http://www.w3.org/1999/xlink" x="0px" y="0px"
	 width="166.8px" height="152px" viewBox="0 0 166.8 135" style="enable-background:new 0 0 166.8 135;" xml:space="preserve">
<style type="text/css">
	.st0{fill:#5895B7;}
	.st1{opacity:0.8;}
	.st2{fill:#C17620;}
	.st3{fill:#F4C24A;}
	.st4{fill:#2A6FBA;}
	.st5{fill:#4ABAEF;}
	.st6{fill:#FFFFFF;}
	.st7{fill:#95C9C8;}
	.st8{fill:#DDEFEE;}
	.st9{fill:#1B8E6F;}
	.st10{fill:#3CEA8A;}
	.st11{opacity:0.4;fill:#666666;}
	.st12{fill:none;}
	.st13{fill:#7149A4;}
	.st14{fill:#BD86E0;}
	.st15{opacity:0.4;fill:#666666;stroke:#666666;stroke-width:4;stroke-linejoin:bevel;stroke-miterlimit:10;}
	.st16{fill:#F2F2F2;}
	.st17{fill:#E6E6E6;}
	.st18{fill:none;stroke:#000000;stroke-width:4;stroke-linejoin:bevel;stroke-miterlimit:10;}
</style>
<g>
	<rect x="-312.3" y="477.2" class="st0" width="484" height="82"/>
	<rect x="139.7" y="551.2" class="st0" width="107" height="30"/>
	<g class="st1">
		<g>
			<polygon class="st0" points="-296.3,497.2 -296.3,579.2 -392.3,579.2 -392.3,568.2 -380.3,568.2 -380.3,556.2 -368.3,556.2
				-368.3,544.2 -356.3,544.2 -356.3,532.2 -368.3,532.2 -368.3,520.2 -380.3,520.2 -380.3,508.2 -392.3,508.2 -392.3,497.2 			"/>
		</g>
		<polygon class="st0" points="-310.3,555.2 -296.3,578.2 -296.4,555.2 		"/>
	</g>
	<g>
		<g>
			<polygon class="st2" points="150.7,489.2 150.7,571.2 246.7,571.2 246.7,560.2 234.7,560.2 234.7,548.2 222.7,548.2 222.7,536.2
				210.7,536.2 210.7,524.2 222.7,524.2 222.7,512.2 234.7,512.2 234.7,500.2 246.7,500.2 246.7,489.2 			"/>
			<polygon class="st3" points="150.7,478.2 150.7,560.2 246.7,560.2 246.7,549.2 234.7,549.2 234.7,537.2 222.7,537.2 222.7,525.2
				210.7,525.2 210.7,513.2 222.7,513.2 222.7,501.2 234.7,501.2 234.7,489.2 246.7,489.2 246.7,478.2 			"/>
		</g>
		<polygon class="st2" points="164.7,547.2 150.7,570.2 150.7,547.2 		"/>
		<g>
			<g>
				<polygon class="st2" points="-305.3,489.2 -305.3,571.2 -401.3,571.2 -401.3,560.2 -389.3,560.2 -389.3,548.2 -377.3,548.2
					-377.3,536.2 -365.3,536.2 -365.3,524.2 -377.3,524.2 -377.3,512.2 -389.3,512.2 -389.3,500.2 -401.3,500.2 -401.3,489.2
					"/>
				<polygon class="st3" points="-305.3,478.2 -305.3,560.2 -401.3,560.2 -401.3,549.2 -389.3,549.2 -389.3,537.2 -377.3,537.2
					-377.3,525.2 -365.3,525.2 -365.3,513.2 -377.3,513.2 -377.3,501.2 -389.3,501.2 -389.3,489.2 -401.3,489.2 -401.3,478.2
					"/>
			</g>
			<polygon class="st2" points="-319.3,547.2 -305.3,570.2 -305.4,547.2 			"/>
		</g>
		<g>
			<rect x="-319.3" y="465.2" class="st2" width="484" height="82"/>
			<rect x="-319.3" y="453.2" class="st3" width="484" height="82"/>
		</g>
	</g>
	<rect x="-296.5" y="478.5" class="st12" width="415.2" height="81.8"/>
	<text transform="matrix(1 0 0 1 -257.3487 513.022)" class="st6" style="font-family:'EditUndoBRK'; font-size:60px;">HOW TO PLAY</text>
</g>
<polygon class="st4" points="7.7,746.2 -4.3,746.2 -77.3,746.2 -77.3,758.2 -89.3,758.2 -89.3,843.2 -77.3,843.2 -77.3,855.2
	-4.3,855.2 7.7,855.2 7.7,843.2 19.7,843.2 19.7,758.2 7.7,758.2 "/>
<polygon class="st5" points="7.7,736.2 -4.3,736.2 -77.3,736.2 -77.3,748.2 -89.3,748.2 -89.3,833.2 -77.3,833.2 -77.3,845.2
	-4.3,845.2 7.7,845.2 7.7,833.2 19.7,833.2 19.7,748.2 7.7,748.2 "/>
<rect x="-77.3" y="770.5" class="st12" width="89" height="81.8"/>
<text transform="matrix(1 0 0 1 -52.7345 815.9653)" class="st6" style="font-family:'EditUndoBRK'; font-size:79px;">?</text>
<g>
	<polygon class="st0" points="1042.7,585 1031.1,585 1031.1,574.7 1019.5,574.7 1019.5,563.4 520.8,563.4 520.8,574.7 509.2,574.7
		509.2,585 497.7,585 497.7,1187.7 509.2,1187.7 509.2,1198 520.8,1198 520.8,1209.2 1019.5,1209.2 1019.5,1198 1031.1,1198
		1031.1,1187.7 1042.7,1187.7 	"/>
	<polygon class="st7" points="1042.7,574.4 1031.1,574.4 1031.1,564.1 1019.5,564.1 1019.5,552.9 520.8,552.9 520.8,564.1
		509.2,564.1 509.2,574.4 497.7,574.4 497.7,1177.1 509.2,1177.1 509.2,1187.4 520.8,1187.4 520.8,1198.6 1019.5,1198.6
		1019.5,1187.4 1031.1,1187.4 1031.1,1177.1 1042.7,1177.1 	"/>
	<polygon class="st8" points="1042.7,563.8 1031.1,563.8 1031.1,553.5 1019.5,553.5 1019.5,542.3 520.8,542.3 520.8,553.5
		509.2,553.5 509.2,563.8 497.7,563.8 497.7,1166.5 509.2,1166.5 509.2,1176.8 520.8,1176.8 520.8,1188.1 1019.5,1188.1
		1019.5,1176.8 1031.1,1176.8 1031.1,1166.5 1042.7,1166.5 	"/>
</g>
<g>
	<polygon class="st9" points="-6.3,226.3 -16.4,226.3 -391.3,226.3 -391.3,236.3 -401.3,236.3 -401.3,294.2 -391.3,294.2
		-391.3,304.3 -16.4,304.3 -6.3,304.3 -6.3,294.2 3.8,294.2 3.8,236.3 -6.3,236.3 	"/>
	<polygon class="st10" points="-6.3,216.3 -16.4,216.3 -391.3,216.3 -391.3,226.3 -401.3,226.3 -401.3,284.2 -391.3,284.2
		-391.3,294.3 -16.4,294.3 -6.3,294.3 -6.3,284.2 3.8,284.2 3.8,226.3 -6.3,226.3 	"/>
	<rect x="-400.3" y="239.5" class="st12" width="404" height="81.8"/>
	<text transform="matrix(1 0 0 1 -288.1817 267.1444)" class="st6" style="font-family:'EditUndoBRK'; font-size:48px;">PLAYER 1</text>
</g>
<g>
	<polygon class="st11" points="-367.1,105.7 -369.1,99.9 -373.2,87.9 -391,93.9 -389,99.7 -394.8,101.6 -390.7,113.7 -384.9,111.7
		-383,117.5 -371,113.4 -372.9,107.6 	"/>
	<polygon class="st11" points="-328.3,93.6 -330.3,87.8 -334.4,75.8 -352.2,81.8 -350.2,87.6 -356,89.6 -351.9,101.6 -346.1,99.6
		-344.2,105.4 -332.2,101.3 -334.1,95.6 	"/>
	<rect x="-387.9" y="46.6" transform="matrix(0.9472 -0.3207 0.3207 0.9472 -41.4528 -119.7879)" width="7.1" height="38.6"/>
	<polygon points="-368.8,100.9 -370.7,95.1 -374.8,83.1 -392.6,89.1 -390.6,94.9 -396.4,96.8 -392.3,108.8 -386.6,106.9
		-384.6,112.7 -372.6,108.6 -374.5,102.8 	"/>
	<rect x="-349.4" y="33.6" transform="matrix(0.9472 -0.3207 0.3207 0.9472 -35.2428 -108.1381)" width="7.1" height="38.6"/>
	<polygon points="-330.3,87.8 -332.3,82.1 -336.3,70 -354.1,76.1 -352.2,81.8 -357.9,83.8 -353.9,95.8 -348.1,93.9 -346.1,99.6
		-334.1,95.6 -336.1,89.8 	"/>
	<rect x="-397.9" y="24.3" transform="matrix(0.9472 -0.3207 0.3207 0.9472 -30.3386 -118.2324)" width="47.7" height="17.3"/>
</g>
<g>
	<polygon class="st11" points="-300.9,139.3 -300,135.1 -298.1,126.5 -310.9,123.6 -311.8,127.8 -316,126.9 -317.9,135.5
		-313.7,136.4 -314.6,140.6 -306,142.5 -305.1,138.3 	"/>
	<polygon class="st11" points="-273.4,146 -272.5,141.9 -270.6,133.2 -283.4,130.4 -284.3,134.6 -288.5,133.7 -290.4,142.3
		-286.2,143.2 -287.1,147.4 -278.5,149.3 -277.6,145.1 	"/>
	<rect x="-299.4" y="95.9" transform="matrix(0.9766 0.2149 -0.2149 0.9766 16.5577 66.3517)" width="5" height="26.9"/>
	<polygon points="-300.2,135.8 -299.3,131.6 -297.4,123 -310.2,120.2 -311.1,124.3 -315.2,123.4 -317.1,132.1 -313,133
		-313.9,137.1 -305.2,139 -304.3,134.9 	"/>
	<rect x="-271.7" y="102" transform="matrix(0.9766 0.2149 -0.2149 0.9766 18.5118 60.5497)" width="5" height="26.9"/>
	<polygon points="-272.5,141.9 -271.6,137.7 -269.7,129.1 -282.5,126.3 -283.4,130.4 -287.6,129.5 -289.5,138.2 -285.3,139.1
		-286.2,143.2 -277.6,145.1 -276.7,141 	"/>
	<rect x="-295.5" y="87.3" transform="matrix(0.9766 0.2149 -0.2149 0.9766 13.5459 62.1072)" width="33.3" height="12"/>
</g>
<g>
	<polygon class="st11" points="-224.9,77.5 -225.6,74.4 -227,68.1 -236.4,70.2 -235.7,73.2 -238.8,73.9 -237.4,80.2 -234.3,79.5
		-233.6,82.6 -227.3,81.2 -228,78.1 	"/>
	<polygon class="st11" points="-204.5,73.4 -205.2,70.4 -206.6,64 -216,66.1 -215.3,69.2 -218.3,69.9 -216.9,76.2 -213.9,75.5
		-213.2,78.6 -206.9,77.2 -207.5,74.1 	"/>
	<rect x="-233.3" y="46.4" transform="matrix(0.9761 -0.2173 0.2173 0.9761 -17.7583 -48.956)" width="3.6" height="19.8"/>
	<polygon points="-225.5,74.9 -226.2,71.9 -227.6,65.5 -237,67.6 -236.3,70.7 -239.3,71.3 -237.9,77.7 -234.9,77 -234.2,80.1
		-227.8,78.6 -228.5,75.6 	"/>
	<rect x="-213" y="41.9" transform="matrix(0.9761 -0.2173 0.2173 0.9761 -16.2908 -44.6513)" width="3.6" height="19.8"/>
	<polygon points="-205.2,70.4 -205.8,67.3 -207.3,61 -216.7,63.1 -216,66.1 -219,66.8 -217.6,73.2 -214.6,72.5 -213.9,75.5
		-207.5,74.1 -208.2,71.1 	"/>
	<rect x="-236.7" y="35.6" transform="matrix(0.9761 -0.2173 0.2173 0.9761 -14.065 -47.8126)" width="24.4" height="8.8"/>
</g>
<g>
	<polygon class="st11" points="-204.3,123.2 -201.7,119.1 -196.2,110.5 -208.9,102.5 -211.5,106.6 -215.7,104 -221.1,112.5
		-217,115.2 -219.6,119.3 -211,124.7 -208.4,120.6 	"/>
	<polygon class="st11" points="-177.3,141.3 -174.7,137.2 -169.3,128.6 -181.9,120.6 -184.6,124.7 -188.7,122.1 -194.1,130.7
		-190,133.3 -192.6,137.4 -184,142.8 -181.4,138.7 	"/>
	<rect x="-191" y="77.1" transform="matrix(0.844 0.5363 -0.5363 0.844 20.2837 115.3633)" width="5.7" height="30.9"/>
	<polygon points="-202.1,119.8 -199.5,115.7 -194.1,107.1 -206.8,99 -209.4,103.2 -213.5,100.5 -218.9,109.1 -214.8,111.7
		-217.4,115.8 -208.9,121.3 -206.2,117.2 	"/>
	<rect x="-163.6" y="94.5" transform="matrix(0.844 0.5363 -0.5363 0.844 33.9082 103.3725)" width="5.7" height="30.9"/>
	<polygon points="-174.7,137.2 -172.1,133.1 -166.6,124.5 -179.3,116.5 -181.9,120.6 -186.1,118 -191.5,126.5 -187.4,129.2
		-190,133.3 -181.4,138.7 -178.8,134.6 	"/>
	<rect x="-181.6" y="75.5" transform="matrix(0.844 0.5363 -0.5363 0.844 18.8523 100.0011)" width="38.2" height="13.8"/>
</g>
<g>
	<polygon class="st9" points="-163.1,-249.2 -169.7,-249.2 -416,-249.2 -416,-242.6 -422.6,-242.6 -422.6,-204.6 -416,-204.6
		-416,-197.9 -169.7,-197.9 -163.1,-197.9 -163.1,-204.6 -156.4,-204.6 -156.4,-242.6 -163.1,-242.6 	"/>
	<polygon class="st10" points="-163.1,-255.8 -169.7,-255.8 -416,-255.8 -416,-249.2 -422.6,-249.2 -422.6,-211.1 -416,-211.1
		-416,-204.5 -169.7,-204.5 -163.1,-204.5 -163.1,-211.1 -156.4,-211.1 -156.4,-249.2 -163.1,-249.2 	"/>
	<rect x="-422" y="-240.5" class="st12" width="265.5" height="32.8"/>
	<text transform="matrix(1 0 0 1 -356.2462 -222.3345)" class="st6" style="font-family:'EditUndoBRK'; font-size:31.5429px;">Calibrate</text>
</g>
<g>
	<rect x="-421.1" y="-166.8" class="st9" width="219.8" height="28.8"/>
	<rect x="-425.9" y="-173.4" class="st9" width="229.4" height="30.6"/>
	<polygon class="st10" points="-425.9,-177.8 -425.9,-148.5 -421.1,-148.5 -421.1,-142.8 -201.3,-142.8 -201.3,-148.5
		-196.5,-148.5 -196.5,-177.8 	"/>
</g>
<polygon class="st9" points="-206.1,-162.9 -206.1,-168 -211.2,-168 -211.2,-168.1 -267.9,-168.1 -298.4,-168.1 -324,-168.1
	-347.9,-168.1 -411.2,-168.1 -411.2,-168 -416.3,-168 -416.3,-163 -421.4,-163 -421.4,-155.3 -416.3,-155.3 -416.3,-150.2
	-411.2,-150.2 -411.2,-150.1 -347.9,-150.1 -324,-150.1 -298.4,-150.1 -267.9,-150.1 -211.2,-150.1 -211.2,-150.2 -206.1,-150.2
	-206.1,-155.3 -201,-155.3 -201,-162.9 "/>
<g>
	<rect x="-430" y="-68.8" class="st12" width="4.7" height="0.1"/>
	<rect x="-430" y="-50.9" class="st12" width="4.7" height="0.1"/>
	<polygon class="st6" points="-409,-50.9 -409,-56 -403.9,-56 -403.9,-63.6 -409,-63.6 -409,-68.7 -414.1,-68.7 -414.1,-68.8
		-425.3,-68.8 -425.3,-68.8 -430,-68.8 -430,-50.9 -425.3,-50.9 -425.3,-50.8 -414.1,-50.8 -414.1,-50.9 	"/>
</g>
<g>
	<polygon class="st6" points="-455.8,-104.4 -455.8,-109.5 -460.9,-109.5 -460.9,-109.6 -476.8,-109.6 -476.8,-91.6 -460.9,-91.6
		-460.9,-91.6 -455.8,-91.6 -455.8,-96.7 -450.7,-96.7 -450.7,-104.4 	"/>
	<polygon class="st6" points="-469.3,-65.5 -469.3,-70.6 -469.3,-70.6 -469.3,-70.7 -473.8,-70.7 -474.4,-70.7 -478.9,-70.7
		-478.9,-70.7 -478.9,-70.7 -478.9,-65.6 -484,-65.6 -484,-57.9 -478.9,-57.9 -478.9,-52.8 -478.9,-52.8 -478.9,-52.7 -474.4,-52.7
		-473.8,-52.7 -469.3,-52.7 -469.3,-52.8 -469.3,-52.8 -469.3,-57.9 -464.2,-57.9 -464.2,-65.5 	"/>
</g>
<polygon class="st6" points="-519.1,-162.9 -519.1,-168 -519.1,-168 -519.1,-168.1 -523.6,-168.1 -524.2,-168.1 -528.7,-168.1
	-528.7,-168 -528.7,-168 -528.7,-163 -533.8,-163 -533.8,-155.3 -528.7,-155.3 -528.7,-150.2 -528.7,-150.2 -528.7,-150.1
	-524.2,-150.1 -523.6,-150.1 -519.1,-150.1 -519.1,-150.2 -519.1,-150.2 -519.1,-155.3 -514,-155.3 -514,-162.9 "/>
<polygon class="st13" points="446.7,226.3 436.6,226.3 61.7,226.3 61.7,236.3 51.7,236.3 51.7,294.2 61.7,294.2 61.7,304.3
	436.6,304.3 446.7,304.3 446.7,294.2 456.8,294.2 456.8,236.3 446.7,236.3 "/>
<polygon class="st14" points="446.7,216.3 436.6,216.3 61.7,216.3 61.7,226.3 51.7,226.3 51.7,284.2 61.7,284.2 61.7,294.3
	436.6,294.3 446.7,294.3 446.7,284.2 456.8,284.2 456.8,226.3 446.7,226.3 "/>
<rect x="51.7" y="239.5" class="st12" width="405" height="81.8"/>
<text transform="matrix(1 0 0 1 157.4062 267.1444)" class="st6" style="font-family:'EditUndoBRK'; font-size:48px;">PLAYER 2</text>
<g>
	<rect x="72.7" y="220.3" class="st6" width="45.1" height="5.7"/>
	<rect x="123.9" y="220.3" class="st6" width="5.7" height="5.7"/>
</g>
<g>
	<rect x="-381.8" y="221.3" class="st6" width="45.1" height="5.7"/>
	<rect x="-330.6" y="221.3" class="st6" width="5.7" height="5.7"/>
</g>
<polygon class="st15" points="7.3,61.3 13.7,66.9 8.1,73.3 28.5,90.6 28.5,128.5 49.3,102.4 81,131.8 86.9,125.5 91.8,130.2
	163.4,11.5 "/>
<polygon class="st16" points="4.8,54.1 11.2,59.7 5.6,66.1 26.1,83.5 26.1,121.4 46.8,95.3 78.6,124.7 84.4,118.4 89.4,123 161,4.3
	"/>
<polygon class="st17" points="46.9,95.1 161.2,4.3 26.1,83.3 26.1,121.2 "/>
<polygon class="st18" points="3.8,54.3 10.2,59.9 4.6,66.3 25,83.7 25,121.5 45.7,95.4 77.5,124.8 83.3,118.6 88.3,123.2 159.9,4.5
	"/>
</svg>
