<svg id="Layer_1" xmlns="http://www.w3.org/2000/svg" xmlns:xlink="http://www.w3.org/1999/xlink" width="89.9" height="87.8" viewBox="0 0 89.9 87.8"><style>.st0{fill:#5895b7}.st1{opacity:.8}.st2{fill:#c17620}.st3{fill:#f4c24a}.st4{fill:#fff}.st5{fill:#2a6fba}.st6{fill:#4abaef}.st7{fill:#95c9c8}.st8{fill:#ddefee}.st9{fill:#1b8e6f}.st10{fill:#3cea8a}.st11{opacity:.4;fill:#666}.st12{fill:#33bc6e}.st13{fill:none}.st14{fill:#7149a4}.st15{fill:#bd86e0}.st16{opacity:.4;fill:#666;stroke:#666;stroke-width:4;stroke-linejoin:bevel;stroke-miterlimit:10}.st17{fill:#f2f2f2}.st18{fill:#e6e6e6}.st19{fill:none;stroke:#000;stroke-width:4;stroke-linejoin:bevel;stroke-miterlimit:10}.st20{fill:#c6e0de}.st21{fill:#a7c6c3}.st22{fill:#ee3d53}.st23{fill:none;stroke:#000;stroke-width:2;stroke-miterlimit:10}.st24{fill:#a17559}.st25{fill:#910e46}.st26{fill:#238d6f}.st27{fill:#704ca2}.st28{fill:#47e88d}.st29{fill:#bc88de}.st30{fill:#ccc}.st31{fill:#5b2616}.st32{fill:#2d3d3e}.st32,.st33{opacity:.38}.st34{fill:#2d3d3e}.st35{fill:#3f180f}.st36{fill:#1a1a1a}.st37{fill:#38140c}</style><path class="st0" d="M-1739.2 2208.4h484v82h-484z"/><path class="st0" d="M-1287.2 2282.4h107v30h-107z"/><g class="st1"><path class="st0" d="M-1723.2 2228.4v82h-96v-11h12v-12h12v-12h12v-12h-12v-12h-12v-12h-12v-11z"/><path class="st0" d="M-1737.2 2286.4l14 23v-23z"/></g><path class="st2" d="M-1276.2 2220.4v82h96v-11h-12v-12h-12v-12h-12v-12h12v-12h12v-12h12v-11z"/><path class="st3" d="M-1276.2 2209.4v82h96v-11h-12v-12h-12v-12h-12v-12h12v-12h12v-12h12v-11z"/><path class="st2" d="M-1262.2 2278.4l-14 23 .1-23zm-470-58v82h-96v-11h12v-12h12v-12h12v-12h-12v-12h-12v-12h-12v-11z"/><path class="st3" d="M-1732.2 2209.4v82h-96v-11h12v-12h12v-12h12v-12h-12v-12h-12v-12h-12v-11z"/><path class="st2" d="M-1746.2 2278.4l14 23v-23zm0-82h484v82h-484z"/><path class="st3" d="M-1746.2 2184.4h484v82h-484z"/><path class="st4" d="M-1675.5 2244.2h-8.6v-34.6h8.6v13h8.6v-13h8.6v34.6h-8.6v-13h-8.6v13zm21.6-30.3h4.3v-4.3h17.3v4.3h4.3v25.9h-4.3v4.3h-17.3v-4.3h-4.3v-25.9zm8.6 21.6h8.6v-17.3h-8.6v17.3zm30.2 8.7h-8.6v-34.6h8.6v17.3h4.3v-4.3h4.3v4.3h4.3v-17.3h8.6v34.6h-8.6v-4.3h-4.3v-4.3h-4.3v4.3h-4.3v4.3zm56.2-34.6h25.9v8.6h-8.6v25.9h-8.6v-25.9h-8.6v-8.6zm30.2 4.3h4.3v-4.3h17.3v4.3h4.3v25.9h-4.3v4.3h-17.3v-4.3h-4.3v-25.9zm8.7 21.6h8.6v-17.3h-8.6v17.3zm60.5 8.7h-8.6v-34.6h21.6v4.3h4.3v13h-4.3v4.3h-13v13zm0-21.6h8.6v-4.3h-8.6v4.3zm25.9 17.2h-4.3v-30.2h8.6v25.9h17.3v8.6h-21.6v-4.3zm34.5 4.4h-8.6V2214h4.3v-4.3h17.3v4.3h4.3v30.2h-8.6v-13h-8.6v13zm8.7-21.6v-4.3h-8.6v4.3h8.6zm12.9-13h8.6v13h8.6v-13h8.6v17.3h-4.3v4.3h-4.3v13h-8.6v-13h-4.3v-4.3h-4.3v-17.3z"/><path class="st5" d="M-1570.2 2477.4h-85v12h-12v85h12v12h85v-12h12v-85h-12z"/><path class="st5" d="M-1570.2 2477.4h-85v12h-12v85h12v12h85v-12h12v-85h-12z"/><path class="st4" d="M-1630.6 2511.6h28.4v5.7h5.7v17.1h-5.7v5.7h-17.1v-11.4h11.4v-5.7h-22.8v-11.4zm11.4 34.1h11.4v11.4h-11.4v-11.4z"/><path class="st5" d="M-1419.2 2477.4h-85v12h-12v85h12v12h85v-12h12v-85h-12z"/><path class="st6" d="M-1419.2 2467.4h-85v12h-12v85h12v12h85v-12h12v-85h-12z"/><path class="st4" d="M-1479.6 2501.6h28.4v5.7h5.7v17.1h-5.7v5.7h-17.1v-11.4h11.4v-5.7h-22.8v-11.4zm11.4 34.1h11.4v11.4h-11.4v-11.4z"/><path class="st0" d="M-384.2 2321.9h-11.5v-11.6h-11.6v-12.8H-906v12.8h-11.6v11.6h-11.6v684.7h11.6v11.7h11.6v12.8h498.7v-12.8h11.6v-11.7h11.5z"/><path class="st7" d="M-384.2 2309.9h-11.5v-11.7h-11.6v-12.8H-906v12.8h-11.6v11.7h-11.6v684.7h11.6v11.6h11.6v12.8h498.7v-12.8h11.6v-11.6h11.5z"/><path class="st8" d="M-384.2 2297.9h-11.5v-11.7h-11.6v-12.8H-906v12.8h-11.6v11.7h-11.6v684.7h11.6v11.6h11.6v12.8h498.7v-12.8h11.6v-11.6h11.5z"/><path class="st0" d="M-1870.1 329.3h-4.1v-4.1h-4.1v-4.5h-176.2v4.5h-4.1v4.1h-4.1v242h4.1v4.1h4.1v4.5h176.2v-4.5h4.1v-4.1h4.1z"/><path class="st7" d="M-1870.1 325.1h-4.1V321h-4.1v-4.6h-176.2v4.6h-4.1v4.1h-4.1V567h4.1v4.1h4.1v4.6h176.2v-4.6h4.1V567h4.1z"/><path class="st8" d="M-1870.1 320.8h-4.1v-4.1h-4.1v-4.5h-176.2v4.5h-4.1v4.1h-4.1v242h4.1v4.1h4.1v4.5h176.2v-4.5h4.1v-4.1h4.1z"/><path class="st9" d="M-1433.1 1957.4h-385v10.1h-10.1v57.8h10.1v10.1h385v-10.1h10v-57.8h-10z"/><path class="st10" d="M-1433.1 1947.4h-385v10.1h-10.1v57.8h10.1v10.1h385v-10.1h10v-57.8h-10z"/><path class="st4" d="M-1708.1 1998.3h-6.9v-27.6h17.3v3.5h3.5v10.4h-3.5v3.5h-10.4v10.2zm0-17.3h6.9v-3.5h-6.9v3.5zm20.7 13.8h-3.5v-24.2h6.9v20.7h13.8v6.9h-17.3v-3.4zm27.7 3.5h-6.9v-24.2h3.5v-3.5h13.8v3.5h3.5v24.2h-6.9v-10.4h-6.9v10.4zm6.9-17.3v-3.5h-6.9v3.5h6.9zm10.4-10.4h6.9v10.4h6.9v-10.4h6.9v13.8h-3.5v3.5h-3.5v10.4h-6.9v-10.4h-3.5v-3.5h-3.5v-13.8zm27.6 24.2h-3.5v-20.7h3.5v-3.5h17.3v6.9h-13.8v3.5h6.9v6.9h-6.9v3.5h13.8v6.9h-17.3v-3.5zm31.1-6.9h-3.5v10.4h-6.9v-27.6h17.3v3.5h3.5v10.4h-3.5v3.5h3.5v10.4h-6.9v-6.9h-3.5v-3.7zm-3.4-6.9h6.9v-3.5h-6.9v3.5zm41.4-10.4h6.9v27.6h-6.9v-27.6z"/><path class="st11" d="M-1794 1836.8l-1.9-5.8-4.1-12-17.8 6 2 5.8-5.8 2 4.1 12 5.7-2 2 5.8 12-4.1-1.9-5.7zm38.8-12.1l-1.9-5.7-4.1-12.1-17.8 6.1 2 5.7-5.8 2 4.1 12 5.7-1.9 2 5.7 12-4-1.9-5.8z"/><path transform="rotate(-18.702 -1811.22 1797.372)" d="M-1814.7 1777.8h7.1v38.6h-7.1z"/><path d="M-1795.6 1832l-2-5.8-4-12-17.8 6 1.9 5.8-5.7 2 4 12 5.8-2 2 5.8 12-4.1-2-5.8z"/><path transform="rotate(-18.702 -1772.749 1784.342)" d="M-1776.3 1764.8h7.1v38.6h-7.1z"/><path d="M-1757.1 1819l-2-5.8-4.1-12-17.7 6 1.9 5.8-5.8 1.9 4.1 12 5.8-1.9 1.9 5.8 12.1-4.1-2-5.8z"/><path transform="rotate(-18.702 -1800.942 1764.408)" d="M-1824.8 1755.5h47.7v17.3h-47.7z"/><path class="st11" d="M-1727.8 1870.4l1-4.2 1.9-8.6-12.8-2.8-1 4.1-4.1-.9-1.9 8.7 4.1.9-.9 4.1 8.7 1.9.9-4.1zm27.5 6.8l1-4.2 1.9-8.6-12.8-2.8-.9 4.1-4.2-.9-1.9 8.6 4.2.9-1 4.2 8.7 1.9.9-4.2z"/><path transform="rotate(12.41 -1723.601 1840.374)" d="M-1726.2 1827h5v26.9h-5z"/><path d="M-1727 1866.9l.9-4.1 1.9-8.7-12.8-2.8-.9 4.2-4.1-.9-1.9 8.6 4.1.9-.9 4.2 8.6 1.9.9-4.2z"/><path transform="rotate(12.41 -1695.941 1846.46)" d="M-1698.5 1833.1h5v26.9h-5z"/><path d="M-1699.3 1873l.9-4.1 1.9-8.7-12.8-2.8-.9 4.2-4.2-1-1.9 8.7 4.2.9-.9 4.1 8.6 1.9.9-4.1z"/><path transform="rotate(12.41 -1705.587 1824.401)" d="M-1722.3 1818.5h33.3v12h-33.3z"/><path class="st11" d="M-1651.7 1808.6l-.7-3.1-1.4-6.3-9.4 2.1.7 3-3.1.7 1.4 6.4 3.1-.7.6 3 6.4-1.4-.7-3zm20.4-4l-.7-3.1-1.4-6.3-9.4 2.1.7 3-3.1.7 1.4 6.3 3.1-.6.7 3 6.3-1.4-.7-3z"/><path transform="rotate(-12.552 -1658.27 1787.246)" d="M-1660.1 1777.5h3.6v19.8h-3.6z"/><path d="M-1652.3 1806l-.7-3-1.4-6.3-9.4 2 .7 3.1-3.1.7 1.5 6.3 3-.7.7 3.1 6.3-1.4-.7-3.1z"/><path transform="rotate(-12.552 -1637.963 1782.726)" d="M-1639.8 1773h3.6v19.8h-3.6z"/><path d="M-1632 1801.5l-.7-3-1.4-6.4-9.4 2.1.7 3.1-3 .6 1.4 6.4 3-.7.7 3.1 6.3-1.4-.6-3.1z"/><path transform="rotate(-12.552 -1651.223 1771.025)" d="M-1663.5 1766.8h24.4v8.8h-24.4z"/><path class="st11" d="M-1631.1 1854.4l2.6-4.2 5.4-8.5-12.7-8.1-2.6 4.1-4.1-2.6-5.4 8.6 4.1 2.6-2.6 4.1 8.5 5.5 2.7-4.2zm27 18.1l2.6-4.2 5.4-8.5-12.7-8.1-2.6 4.1-4.1-2.6-5.4 8.6 4.1 2.6-2.6 4.1 8.5 5.5 2.6-4.2z"/><path transform="rotate(32.435 -1614.945 1823.76)" d="M-1617.9 1808.2h5.7v30.9h-5.7z"/><path d="M-1629 1850.9l2.7-4.1 5.4-8.6-12.7-8-2.6 4.1-4.1-2.6-5.5 8.5 4.2 2.7-2.7 4.1 8.6 5.4 2.6-4.1z"/><path transform="rotate(32.435 -1587.518 1841.185)" d="M-1590.4 1825.7h5.7v30.9h-5.7z"/><path d="M-1601.5 1868.3l2.6-4.1 5.4-8.5-12.7-8.1-2.6 4.1-4.1-2.6-5.4 8.6 4.1 2.6-2.6 4.1 8.5 5.4 2.7-4.1z"/><path transform="rotate(32.435 -1589.251 1813.616)" d="M-1608.4 1806.6h38.2v13.8h-38.2z"/><path class="st9" d="M-1909.9 1413.9h-253v6.6h-6.6v38.1h6.6v6.6h253v-6.6h6.6v-38.1h-6.6z"/><path class="st12" d="M-1909.9 1413.9h-253v6.6h-6.6v38.1h6.6v6.6h253v-6.6h6.6v-38.1h-6.6z"/><path class="st4" d="M-2103.1 1431.5h2.3v-2.3h11.4v4.5h-9.1v9.1h9.1v4.5h-11.4v-2.3h-2.3v-13.5zm20.5 15.9h-4.5v-15.9h2.3v-2.3h9.1v2.3h2.3v15.9h-4.5v-6.8h-4.5v6.8zm4.5-11.4v-2.3h-4.5v2.3h4.5zm9.1 9.1h-2.3v-15.9h4.5v13.6h9.1v4.5h-11.4v-2.2zm13.6-15.9h4.5v18.2h-4.5v-18.2zm6.8 0h11.4v2.3h2.3v13.6h-2.3v2.3h-11.4v-18.2zm4.6 6.8h4.5v-2.3h-4.5v2.3zm0 6.8h4.5v-2.3h-4.5v2.3zm18.1-2.2h-2.3v6.8h-4.5v-15.9h2.3v-2.3h9.1v2.3h2.3v6.8h-2.3v2.3h2.3v6.8h-4.5v-4.5h-2.3v-2.3zm-2.2-4.6h4.5v-2.3h-4.5v2.3zm15.9 11.4h-4.5v-15.9h2.3v-2.3h9.1v2.3h2.3v15.9h-4.5v-6.8h-4.5v6.8zm4.5-11.4v-2.3h-4.5v2.3h4.5zm6.8-6.8h13.6v4.5h-4.5v13.6h-4.5v-13.6h-4.5v-4.5zm18.2 15.9h-2.3v-13.6h2.3v-2.3h11.4v4.5h-9.1v2.3h4.5v4.5h-4.5v2.3h9.1v4.5h-11.4v-2.2z"/><path class="st9" d="M-1589.9 1481.9h-253v6.6h-6.6v38.1h6.6v6.6h253v-6.6h6.6v-38.1h-6.6z"/><path class="st10" d="M-1589.9 1475.4h-253v6.6h-6.6v38h6.6v6.6h253v-6.6h6.6v-38h-6.6z"/><path class="st4" d="M-1783.1 1492.9h2.3v-2.3h11.4v4.5h-9.1v9.1h9.1v4.5h-11.4v-2.3h-2.3v-13.5zm20.5 15.9h-4.5v-15.9h2.3v-2.3h9.1v2.3h2.3v15.9h-4.5v-6.8h-4.5v6.8zm4.5-11.4v-2.3h-4.5v2.3h4.5zm9.1 9.1h-2.3v-15.9h4.5v13.6h9.1v4.5h-11.4v-2.2zm13.6-15.9h4.5v18.2h-4.5v-18.2zm6.8 0h11.4v2.3h2.3v13.6h-2.3v2.3h-11.4v-18.2zm4.6 6.8h4.5v-2.3h-4.5v2.3zm0 6.9h4.5v-2.3h-4.5v2.3zm18.1-2.3h-2.3v6.8h-4.5v-15.9h2.3v-2.3h9.1v2.3h2.3v6.8h-2.3v2.3h2.3v6.8h-4.5v-4.5h-2.3v-2.3zm-2.2-4.6h4.5v-2.3h-4.5v2.3zm15.9 11.4h-4.5v-15.9h2.3v-2.3h9.1v2.3h2.3v15.9h-4.5v-6.8h-4.5v6.8zm4.5-11.4v-2.3h-4.5v2.3h4.5zm6.8-6.8h13.6v4.5h-4.5v13.6h-4.5v-13.6h-4.5v-4.5zm18.2 15.9h-2.3v-13.6h2.3v-2.3h11.4v4.5h-9.1v2.3h4.5v4.5h-4.5v2.3h9.1v4.5h-11.4v-2.2z"/><path class="st9" d="M-1847.9 1564.3h219.8v28.8h-219.8z"/><path class="st9" d="M-1852.7 1557.7h229.4v30.6h-229.4z"/><path class="st10" d="M-1852.7 1553.4v29.2h4.8v5.7h219.8v-5.7h4.8v-29.2z"/><path class="st9" d="M-1632.9 1568.2v-5.1h-5.1v-.1h-200v.1h-5.1v5.1h-5.1v7.6h5.1v5.1h5.1v.1h205.1v-5.1h5.1v-7.7z"/><path class="st13" d="M-1856.8 1662.3h4.7v.1h-4.7zm0 17.9h4.7v.1h-4.7z"/><path class="st4" d="M-1835.8 1680.2v-5.1h5.1v-7.6h-5.1v-5.1h-5.1v-.1h-11.2v.1h-4.7v17.8h4.7v.1h11.2v-.1zm-46.8-53.5v-5h-5.1v-.1h-16v18h16v-.1h5.1v-5.1h5.1v-7.7zm-13.5 38.9v-5.1h-.1v-.1h-9.6v5.2h-5.1v7.6h5.1v5.2h9.6v-.1h.1v-5h5.1v-7.7zm-49.8-97.4v-5.2h-9.6v.1h-.1v5.1h-5.1v7.6h5.1v5.1h.1v.1h9.6v-5.1h5.1v-7.7z"/><path class="st14" d="M-980.1 1957.4h-385v10.1h-10.1v57.8h10.1v10.1h385v-10.1h10v-57.8h-10z"/><path class="st15" d="M-980.1 1947.4h-385v10.1h-10.1v57.8h10.1v10.1h385v-10.1h10v-57.8h-10z"/><path class="st4" d="M-1262.5 1998.3h-6.9v-27.6h17.3v3.5h3.5v10.4h-3.5v3.5h-10.4v10.2zm0-17.3h6.9v-3.5h-6.9v3.5zm20.7 13.8h-3.5v-24.2h6.9v20.7h13.8v6.9h-17.3v-3.4zm27.7 3.5h-6.9v-24.2h3.5v-3.5h13.8v3.5h3.5v24.2h-6.9v-10.4h-6.9v10.4zm6.9-17.3v-3.5h-6.9v3.5h6.9zm10.4-10.4h6.9v10.4h6.9v-10.4h6.9v13.8h-3.5v3.5h-3.5v10.4h-6.9v-10.4h-3.5v-3.5h-3.5v-13.8zm27.6 24.2h-3.5v-20.7h3.5v-3.5h17.3v6.9h-13.8v3.5h6.9v6.9h-6.9v3.5h13.8v6.9h-17.3v-3.5zm31.1-6.9h-3.5v10.4h-6.9v-27.6h17.3v3.5h3.5v10.4h-3.5v3.5h3.5v10.4h-6.9v-6.9h-3.5v-3.7zm-3.5-6.9h6.9v-3.5h-6.9v3.5zm41.5-10.4h17.3v3.5h3.5v10.4h-3.5v3.5h-10.4v3.5h13.8v6.9h-20.7v-13.8h3.5v-3.5h10.4v-3.5h-13.8v-7zm-254.1-19.2h45.1v5.7h-45.1zm51.3 0h5.7v5.7h-5.7zm-505.8 1h45.1v5.7h-45.1zm51.3 0h5.7v5.7h-5.7z"/><path class="st16" d="M-1419.5 1792.4l6.4 5.6-5.6 6.4 20.4 17.4v37.8l20.7-26 31.8 29.3 5.8-6.2 5 4.6 71.6-118.7z"/><path class="st17" d="M-1422 1785.3l6.4 5.6-5.6 6.4 20.4 17.3v37.9l20.8-26.1 31.7 29.4 5.9-6.3 4.9 4.7 71.7-118.7z"/><path class="st18" d="M-1380 1826.2l114.4-90.8-135.1 79v37.9z"/><path class="st19" d="M-1423.1 1785.4l6.4 5.6-5.6 6.4 20.5 17.4v37.9l20.7-26.1 31.8 29.4 5.8-6.3 5 4.6 71.6-118.7z"/><path class="st20" d="M-1487.2 1478.7v163.6h10.4v9.5h10.4v10.5h447.4v-10.5h10.4v-9.5h10.4v-163.6zm489 0v-94.1h-10.4v-9.5h-10.4v-10.5h-447.4v10.5h-10.4v9.5h-10.4v94.1z"/><path class="st21" d="M-1476.8 1381.2h10.4v-8h-10.4v7.9h-10.4v8h10.4zm10.4-16.7h447.5v8h-447.5zm457.8 16.6v-7.9h-10.4v8h10.4v7.9h10.4v-8z"/><path d="M-1880.4 1300.2h10.2v10.2h-10.2zm61.5-10.2v5.1h-5.1v5.1h5.1v20.5h5.1v5.1h-5.1v5.1h10.2v-10.2h15.4v5.1h5.1V1290h-30.7zm25.6 25.6h-20.5v-20.5h20.5v20.5z"/><path d="M-1808.7 1300.2h10.2v10.2h-10.2zm-71.7 71.7h10.2v10.2h-10.2zm61.5-10.2h5.1v5.1h-5.1zm-25.6 25.6h5.1v5.1h-5.1zm5.1-20.5h5.1v5.1h-5.1zm0 10.2h5.1v5.1h-5.1zm46.1-25.6h5.1v5.1h-5.1zm-97.3 0h5.1v5.1h-5.1zm0-25.6h5.1v5.1h-5.1zm56.3-30.7v5.1h-10.2v5.1h15.3v-10.2z"/><path d="M-1793.3 1330.9v5.1h-10.2v5.1h-15.4v-5.1h-5.1v5.1h-10.2v5.1h15.4v5.1h-15.3v-5.1h-5.1v5.1h-5.1v-5.1h-5.1v5.1h-5.1v5.1h10.2v5.1h5.1v-5.1h10.2v5.1h-5.1v5.1h5.1v10.2h5.1v5.1h5.1v-5.1h15.4v-10.2h5.1v-5.1h-5.1v-10.2h-10.2v-5.1h10.2v5.1h5.1v-5.1h5.1v-5.1h5.1v-10.2h-5.2zm-15.4 25.6v15.4h-15.4v-15.4h15.4zm-15.3-35.8h-5.2v5.1h-5.1v10.2h5.1v-5.1h5.2v-5.1h5.1v-5.1zm-10.3 66.6h10.2v5.1h-10.2zm-15.3-92.2h5.1v5.1h-5.1z"/><path d="M-1808.7 1330.9h5.1v5.1h-5.1zm5.1-5.1h5.1v5.1h-5.1zm-66.5 25.6h5.1v5.1h-5.1zm10.2 35.9v-20.5h5.1v-10.2h-5.1v5.1h-15.4v-5.1h-10.2v5.1h-5.1v30.7h40.9v-5.1h-10.2zm-5.1 0h-20.5v-20.5h20.5v20.5zm5.1-66.6h5.1v5.1h-5.1zm5.1-30.7h-35.8v30.7h5.1v5.1h5.1v-5.1h5.1v5.1h5.1v-5.1h10.2v-10.2h5.1v-5.1h-5.1v-10.2h10.2v-5.1h-5zm-10.2 25.6h-20.5v-20.5h20.5v20.5zm35.8-10.3h5.1v5.1h-5.1zm-10.2-15.3h5.1v5.1h-5.1z"/><path d="M-1829.2 1320.7v-5.1h-5.1v-5.1h-5.1v5.1h-10.2v-5.1h-5.1v10.2h5.1v10.2h-15.4v-5.1h-5.1v5.1h-15.4v5.1h10.2v5.1h-15.4v5.1h15.4v5.1h5.1v-5.1h5.1v5.1h5.1v-5.1h10.2v-5.1h-5.1v-5.1h10.2v5.1h10.2v-5.1h-5.1v-5.1h-5.1v-10.2h15.5zm-30.7 20.5h-10.2v-5.1h10.2v5.1zm15.4 30.7v-10.2h-5.1v5.1h-5.2v5.1h5.2v5.1h-5.2v5.1h10.3v-5.1h5.1v-5.1zm46.1 10.2v-5.1h-5.2v5.1h-15.3v5.2h10.2v5.1h5.1v-5.1h10.3v5.1h5.1v-10.3zm5.1-20.4v5.1h-5.1v5.1h10.2v-10.2z"/><path class="st9" d="M-2118.7 1706.1h-140.9v3.7h-3.7v21.2h3.7v3.6h140.9v-3.6h3.7v-21.2h-3.7z"/><path class="st12" d="M-2118.7 1706.1h-140.9v3.7h-3.7v21.2h3.7v3.6h140.9v-3.6h3.7v-21.2h-3.7z"/><path class="st4" d="M-2231.3 1720.9h-1.3v3.8h-2.5v-10.1h6.3v1.3h1.3v3.8h-1.3v1.3h1.3v3.8h-2.5v-2.5h-1.3v-1.4zm-1.3-2.5h2.5v-1.3h-2.5v1.3zm7.6 5h-1.3v-7.6h1.3v-1.3h6.3v2.5h-5.1v1.3h2.5v2.5h-2.5v1.3h5.1v2.5h-6.3v-1.2zm8.8 0h-1.3v-7.6h1.3v-1.3h5.1v1.3h1.3v2.5h-2.5v-1.3h-2.5v5.1h2.5v-1.3h2.5v2.5h-1.3v1.3h-5.1v-1.2zm10.1 1.3h-2.5v-8.9h1.3v-1.3h5.1v1.3h1.3v8.9h-2.5v-3.8h-2.5v3.8zm2.6-6.3v-1.3h-2.5v1.3h2.5zm5 5h-1.3v-8.9h2.5v7.6h5.1v2.5h-6.3v-1.2zm7.6-8.8h2.5v10.1h-2.5v-10.1zm3.8 0h6.3v1.3h1.3v7.6h-1.3v1.3h-6.3v-10.2zm2.5 3.8h2.5v-1.3h-2.5v1.3zm0 3.8h2.5v-1.3h-2.5v1.3zm10.2-1.3h-1.3v3.8h-2.5v-8.9h1.3v-1.3h5.1v1.3h1.3v3.8h-1.3v1.3h1.3v3.8h-2.5v-2.5h-1.3v-1.3zm-1.3-2.5h2.5v-1.3h-2.5v1.3zm8.8 6.3h-2.5v-8.9h1.3v-1.3h5.1v1.3h1.3v8.9h-2.5v-3.8h-2.5v3.8zm2.6-6.3v-1.3h-2.5v1.3h2.5zm3.8-3.8h7.6v2.5h-2.5v7.6h-2.5v-7.6h-2.5v-2.5zm10.1 8.8h-1.3v-7.6h1.3v-1.3h6.3v2.5h-5.1v1.3h2.5v2.5h-2.5v1.3h5.1v2.5h-6.3v-1.2zm-106.7-15.2h13.1v1.7h-13.1zm14.9 0h1.7v1.7h-1.7z"/><path class="st9" d="M-2118.7 1748.1h-140.9v3.7h-3.7v21.2h3.7v3.6h140.9v-3.6h3.7v-21.2h-3.7z"/><path class="st10" d="M-2118.7 1744.4h-140.9v3.7h-3.7v21.2h3.7v3.7h140.9v-3.7h3.7v-21.2h-3.7z"/><path class="st4" d="M-2231.3 1759.3h-1.3v3.8h-2.5V1753h6.3v1.3h1.3v3.8h-1.3v1.3h1.3v3.8h-2.5v-2.5h-1.3v-1.4zm-1.3-2.6h2.5v-1.3h-2.5v1.3zm7.6 5.1h-1.3v-7.6h1.3v-1.3h6.3v2.5h-5.1v1.3h2.5v2.5h-2.5v1.3h5.1v2.5h-6.3v-1.2zm8.8 0h-1.3v-7.6h1.3v-1.3h5.1v1.3h1.3v2.5h-2.5v-1.3h-2.5v5.1h2.5v-1.3h2.5v2.5h-1.3v1.3h-5.1v-1.2zm10.1 1.3h-2.5v-8.9h1.3v-1.3h5.1v1.3h1.3v8.9h-2.5v-3.8h-2.5v3.8zm2.6-6.4v-1.3h-2.5v1.3h2.5zm5 5.1h-1.3v-8.9h2.5v7.6h5.1v2.5h-6.3v-1.2zm7.6-8.9h2.5v10.1h-2.5v-10.1zm3.8 0h6.3v1.3h1.3v7.6h-1.3v1.3h-6.3v-10.2zm2.5 3.8h2.5v-1.3h-2.5v1.3zm0 3.8h2.5v-1.3h-2.5v1.3zm10.2-1.2h-1.3v3.8h-2.5v-8.9h1.3v-1.3h5.1v1.3h1.3v3.8h-1.3v1.3h1.3v3.8h-2.5v-2.5h-1.3v-1.3zm-1.3-2.6h2.5v-1.3h-2.5v1.3zm8.8 6.4h-2.5v-8.9h1.3v-1.3h5.1v1.3h1.3v8.9h-2.5v-3.8h-2.5v3.8zm2.6-6.4v-1.3h-2.5v1.3h2.5zm3.8-3.8h7.6v2.5h-2.5v7.6h-2.5v-7.6h-2.5v-2.5zm10.1 8.9h-1.3v-7.6h1.3v-1.3h6.3v2.5h-5.1v1.3h2.5v2.5h-2.5v1.3h5.1v2.5h-6.3v-1.2zm-106.7-14.6h13.1v1.7h-13.1zm14.9 0h1.7v1.7h-1.7zm404.9-268.3h23.6v3h-23.6zm26.7 0h3v3h-3zm-347.2-61.4h23.6v3h-23.6zm26.8 0h3v3h-3z"/><path class="st22" d="M-2187.8 1541v-7.5h-18.7v7.5h-7.4v18.6h7.4v7.5h18.7v-7.5h7.4V1541z"/><path class="st23" d="M-2205.9 1567.1v9.9m17.4-9.9v9.9"/><path class="st24" d="M-2189.4 1575.2h-15.5v2.2h-2.2v15.5h2.2v2.2h15.5v-2.2h2.2v-15.5h-2.2z"/><path class="st25" d="M-2120.7 1980.2v-7.9h-141.7v7.9h-8v45.6h8v7.9h141.7v-7.9h7.9v-45.6z"/><path class="st25" d="M-2120.7 1980.3v-7.9h-141.7v7.9h-8v45.6h8v7.9h141.7v-7.9h7.9v-45.6z"/><path class="st4" d="M-2224.2 2013.8h-5.4V1992h13.6v2.7h2.7v8.2h-2.7v2.7h-8.2v8.2zm0-13.6h5.4v-2.7h-5.4v2.7zm16.3 10.8h-2.7v-19h5.4v16.3h10.9v5.4h-13.6v-2.7zm21.7 2.8h-5.4v-19h2.7v-2.7h10.9v2.7h2.7v19h-5.4v-8.2h-5.4v8.2zm5.5-13.6v-2.7h-5.4v2.7h5.4zm8.2-8.2h5.4v8.2h5.4v-8.2h5.4v10.9h-2.7v2.7h-2.7v8.2h-5.4v-8.2h-2.7v-2.7h-2.7V1992z"/><path class="st25" d="M-1950.7 1980.2v-7.9h-141.7v7.9h-8v45.6h8v7.9h141.7v-7.9h7.9v-45.6z"/><path class="st22" d="M-1950.7 1972.3v-7.9h-141.7v7.9h-8v45.6h8v7.9h141.7v-7.9h7.9v-45.6z"/><path class="st4" d="M-2054.2 2005.8h-5.4V1984h13.6v2.7h2.7v8.2h-2.7v2.7h-8.2v8.2zm0-13.6h5.4v-2.7h-5.4v2.7zm16.3 10.8h-2.7v-19h5.4v16.3h10.9v5.4h-13.6v-2.7zm21.7 2.8h-5.4v-19h2.7v-2.7h10.9v2.7h2.7v19h-5.4v-8.2h-5.4v8.2zm5.5-13.6v-2.7h-5.4v2.7h5.4zm8.2-8.2h5.4v8.2h5.4v-8.2h5.4v10.9h-2.7v2.7h-2.7v8.2h-5.4v-8.2h-2.7v-2.7h-2.7V1984z"/><path class="st26" d="M-2944.3 1734.6h43.2v108h43.2v-108h43.2v129.6h-21.6v21.6h-21.6v21.6h-43.2v-21.6h-21.6v-21.6h-21.6v-129.6z"/><path class="st27" d="M-2793.1 1758.3h21.6v-21.6h108v43.2h-86.4v21.6h64.8v21.6h21.6v64.8h-21.6v21.6h-108v-43.2h86.4v-21.6h-64.8v-21.6h-21.6v-64.8z"/><path class="st28" d="M-2944.3 1713.6h43.2v108h43.2v-108h43.2v129.6h-21.6v21.6h-21.6v21.6h-43.2v-21.6h-21.6v-21.6h-21.6v-129.6z"/><path class="st29" d="M-2793.1 1735.2h21.6v-21.6h108v43.2h-86.4v21.6h64.8v21.6h21.6v64.8h-21.6v21.6h-108v-43.2h86.4v-21.6h-64.8V1800h-21.6v-64.8z"/><path class="st0" d="M-2895 2092.2h27.5v68.7h27.5v-68.7h27.5v82.4h-13.7v13.7h-13.7v13.7h-27.5v-13.7h-13.7v-13.7h-13.7v-82.4zm96.2 15h13.7v-13.7h68.7v27.5h-54.9v13.7h41.2v13.7h13.7v41.2h-13.7v13.7h-68.7v-27.5h54.9v-13.7h-41.2v-13.7h-13.7v-41.2z"/><path class="st7" d="M-2895 2077.7h27.5v68.7h27.5v-68.7h27.5v82.4h-13.7v13.7h-13.7v13.7h-27.5v-13.7h-13.7v-13.7h-13.7v-82.4zm96.2 15h13.7V2079h68.7v27.5h-54.9v13.7h41.2v13.7h13.7v41.2h-13.7v13.7h-68.7v-27.5h54.9v-13.7h-41.2v-13.7h-13.7v-41.2z"/><path class="st4" d="M-2895 2064.3h27.5v68.7h27.5v-68.7h27.5v82.4h-13.7v13.7h-13.7v13.7h-27.5v-13.7h-13.7v-13.7h-13.7v-82.4zm96.2 13.7h13.7v-13.7h68.7v27.5h-54.9v13.7h41.2v13.7h13.7v41.2h-13.7v13.7h-68.7v-27.5h54.9V2133h-41.2v-13.7h-13.7V2078z"/><path class="st0" d="M-2320.5 1232.5h-21.6v-86.4h54v10.8h10.8v32.4h-10.8v10.8h-32.4v32.4zm0-54h21.6v-10.8h-21.6v10.8zm54-21.6h10.8v-10.8h43.2v10.8h10.8v64.8h-10.8v10.8h-43.2v-10.8h-10.8v-64.8zm21.6 54h21.6v-43.2h-21.6v43.2zm64.8 10.8h-10.8v-75.6h21.6v64.8h43.2v21.6h-54v-10.8z"/><path class="st0" d="M-2136.9 1146.1h21.6v32.4h21.6v-32.4h21.6v43.2h-10.8v10.8h-10.8v32.4h-21.6v-32.4h-10.8v-10.8h-10.8v-43.2z"/><path class="st30" d="M-2320.5 1224.1h-21.6v-86.4h54v10.8h10.8v32.4h-10.8v10.8h-32.4v32.4zm0-54h21.6v-10.8h-21.6v10.8zm54-21.6h10.8v-10.8h43.2v10.8h10.8v64.8h-10.8v10.8h-43.2v-10.8h-10.8v-64.8zm21.6 54h21.6v-43.2h-21.6v43.2zm64.8 10.8h-10.8v-75.6h21.6v64.8h43.2v21.6h-54v-10.8z"/><path class="st30" d="M-2136.9 1137.7h21.6v32.4h21.6v-32.4h21.6v43.2h-10.8v10.8h-10.8v32.4h-21.6v-32.4h-10.8v-10.8h-10.8v-43.2z"/><path class="st4" d="M-2320.5 1215.9h-21.6v-86.4h54v10.8h10.8v32.4h-10.8v10.8h-32.4v32.4zm0-54h21.6v-10.8h-21.6v10.8zm54-21.6h10.8v-10.8h43.2v10.8h10.8v64.8h-10.8v10.8h-43.2v-10.8h-10.8v-64.8zm21.6 54h21.6v-43.2h-21.6v43.2zm64.8 10.8h-10.8v-75.6h21.6v64.8h43.2v21.6h-54v-10.8z"/><path class="st4" d="M-2136.9 1129.5h21.6v32.4h21.6v-32.4h21.6v43.2h-10.8v10.8h-10.8v32.4h-21.6v-32.4h-10.8v-10.8h-10.8v-43.2z"/><image width="843" height="1118" xlink:href="92BDA6DF2342CFF3.jpg" transform="matrix(.24 0 0 .24 -2551.634 1279.682)" overflow="visible"/><g class="st1"><path class="st0" d="M-1993.7 916v86.5h101.2v-11.6h-12.6v-12.7h-12.7v-12.6h-12.6v-12.7h12.6v-12.6h12.7v-12.7h12.6V916z"/><path class="st0" d="M-1978.9 977.2l-14.8 24.2v-24.2z"/></g><path class="st0" d="M-2481.9 893.1h510.3v86.5h-510.3z"/><path class="st0" d="M-2005.3 971.1h112.8v31.6h-112.8z"/><g class="st1"><path class="st0" d="M-2474 916.2v86.4h-101.2V991h12.6v-12.6h12.7v-12.7h12.6v-12.6h-12.6v-12.7h-12.7v-12.6h-12.6v-11.6z"/><path class="st0" d="M-2488.8 977.3l14.8 24.3-.1-24.3z"/></g><path class="st2" d="M-1993.7 905.7v86.5h101.2v-11.6h-12.6V968h-12.7v-12.7h-12.6v-12.7h12.6V930h12.7v-12.7h12.6v-11.6z"/><path class="st3" d="M-1993.7 894.1v86.5h101.2V969h-12.6v-12.6h-12.7v-12.7h-12.6v-12.6h12.6v-12.7h12.7v-12.7h12.6v-11.6z"/><path class="st2" d="M-1978.9 966.9l-14.8 24.3v-24.3zm-495.6-61.2v86.5h-101.2v-11.6h12.6V968h12.7v-12.7h12.6v-12.7h-12.6V930h-12.7v-12.7h-12.6v-11.6z"/><path class="st3" d="M-2474.5 894.1v86.5h-101.2V969h12.6v-12.6h12.7v-12.7h12.6v-12.6h-12.6v-12.7h-12.7v-12.7h-12.6v-11.6z"/><path class="st2" d="M-2489.3 966.9l14.8 24.3-.1-24.3zm0-86.5h510.3v86.5h-510.3z"/><path class="st3" d="M-2489.3 867.8h510.3v86.5h-510.3z"/><path class="st25" d="M-2375.1 942.7h-37.4v-59.9h37.4v7.5h7.5v15h-7.5v15h7.5v15h-7.5v7.4zm-22.5-37.4h15v-7.5h-15v7.5zm0 22.5h15v-7.5h-15v7.5zm52.4 14.9h-15v-52.4h7.5v-7.5h30v7.5h7.5v52.4h-15v-22.5h-15v22.5zm15-37.4v-7.5h-15v7.5h15zm30 30h-7.5v-52.4h15v44.9h30v15h-37.4v-7.5zm52.4 0h-7.5v-52.4h15v44.9h30v15h-37.4v-7.5zm44.9-45h7.5v-7.5h30v7.5h7.5v44.9h-7.5v7.5h-30v-7.5h-7.5v-44.9zm15 37.5h15v-30h-15v30zm37.4-37.5h7.5v-7.5h30v7.5h7.5v44.9h-7.5v7.5h-30v-7.5h-7.5v-44.9zm15 37.5h15v-30h-15v30zm59.9-15h-7.5v30h-15v-59.9h15v7.5h7.5v7.5h7.5v-15h15v59.9h-15v-22.5h-7.5v-7.5z"/><path class="st22" d="M-2375.1 936.9h-37.4V877h37.4v7.5h7.5v15h-7.5v15h7.5v15h-7.5v7.4zm-22.5-37.4h15V892h-15v7.5zm0 22.4h15v-7.5h-15v7.5zm52.4 15h-15v-52.4h7.5V877h30v7.5h7.5v52.4h-15v-22.5h-15v22.5zm15-37.4V892h-15v7.5h15zm30 29.9h-7.5V877h15v44.9h30v15h-37.4v-7.5zm52.4 0h-7.5V877h15v44.9h30v15h-37.4v-7.5zm44.9-44.9h7.5V877h30v7.5h7.5v44.9h-7.5v7.5h-30v-7.5h-7.5v-44.9zm15 37.4h15v-30h-15v30zm37.4-37.4h7.5V877h30v7.5h7.5v44.9h-7.5v7.5h-30v-7.5h-7.5v-44.9zm15 37.4h15v-30h-15v30zm59.9-14.9h-7.5v30h-15v-60h15v7.5h7.5v7.5h7.5v-15h15v59.9h-15v-22.5h-7.5V907z"/><path class="st0" d="M-1883.5 1089.5h20.7v6.9h-20.7v-6.9zm55.3 17.3h-6.9v-27.6h17.3v3.5h3.5v10.4h-3.5v3.5h-10.4v10.2zm0-17.3h6.9v-3.5h-6.9v3.5zm27.6 6.9h-3.5v10.4h-6.9v-27.6h17.3v3.5h3.5v10.4h-3.5v3.5h3.5v10.4h-6.9v-6.9h-3.5v-3.7zm-3.4-6.9h6.9v-3.5h-6.9v3.5zm20.7 13.8h-3.5v-20.7h3.5v-3.5h17.3v6.9h-13.8v3.5h6.9v6.9h-6.9v3.5h13.8v6.9h-17.3v-3.5zm20.8-20.7h3.5v-3.5h17.3v6.9h-13.8v3.5h10.4v3.5h3.5v10.4h-3.5v3.5h-17.3v-6.9h13.8v-3.5h-10.4v-3.5h-3.5v-10.4zm24.1 0h3.5v-3.5h17.3v6.9h-13.8v3.5h10.4v3.5h3.5v10.4h-3.5v3.5h-17.3v-6.9h13.8v-3.5h-10.4v-3.5h-3.5v-10.4zm55.3 24.2h-6.9v-24.2h3.5v-3.5h13.8v3.5h3.5v24.2h-6.9v-10.4h-6.9v10.4zm7-17.3v-3.5h-6.9v3.5h6.9zm20.7 3.4h-3.5v13.8h-6.9v-27.6h6.9v3.5h3.5v3.5h3.5v-6.9h6.9v27.6h-6.9v-10.4h-3.5v-3.5zm13.8-13.8h6.9v10.4h6.9v-10.4h6.9v13.8h-3.5v3.5h-3.5v10.4h-6.9v-10.4h-3.5v-3.5h-3.5v-13.8zm55.3 27.7h-6.9v-27.6h6.9v6.9h3.5v-3.5h3.5v-3.5h6.9v6.9h-3.5v3.5h-3.5v6.9h3.5v3.5h3.5v6.9h-6.9v-3.5h-3.5v-3.5h-3.5v7zm20.7-3.5h-3.5v-20.7h3.5v-3.5h17.3v6.9h-13.8v3.5h6.9v6.9h-6.9v3.5h13.8v6.9h-17.3v-3.5zm20.8-24.2h6.9v10.4h6.9v-10.4h6.9v13.8h-3.5v3.5h-3.5v10.4h-6.9v-10.4h-3.5v-3.5h-3.5v-13.8zm48.4 0h20.7v6.9h-6.9v20.7h-6.9V1086h-6.9v-6.9zm24.2 3.5h3.5v-3.5h13.8v3.5h3.5v20.7h-3.5v3.5h-13.8v-3.5h-3.5v-20.7zm6.9 17.2h6.9V1086h-6.9v13.8zm48.3 7h-6.9v-27.6h17.3v3.5h3.5v10.4h-3.5v3.5h-10.4v10.2zm0-17.3h6.9v-3.5h-6.9v3.5zm20.8 13.8h-3.5v-24.2h6.9v20.7h13.8v6.9h-17.3v-3.4zm27.6 3.5h-6.9v-24.2h3.5v-3.5h13.8v3.5h3.5v24.2h-6.9v-10.4h-6.9v10.4zm6.9-17.3v-3.5h-6.9v3.5h6.9zm10.4-10.4h6.9v10.4h6.9v-10.4h6.9v13.8h-3.5v3.5h-3.5v10.4h-6.9v-10.4h-3.5v-3.5h-3.5v-13.8zm48.4 10.4h20.7v6.9h-20.7v-6.9z"/><path class="st30" d="M-1884.4 1083.6h20.7v6.9h-20.7v-6.9zm55.3 17.3h-6.9v-27.6h17.3v3.5h3.5v10.4h-3.5v3.5h-10.4v10.2zm0-17.3h6.9v-3.5h-6.9v3.5zm27.7 6.9h-3.5v10.4h-6.9v-27.6h17.3v3.5h3.5v10.4h-3.5v3.5h3.5v10.4h-6.9v-6.9h-3.5v-3.7zm-3.5-6.9h6.9v-3.5h-6.9v3.5zm20.8 13.8h-3.5v-20.7h3.5v-3.5h17.3v6.9h-13.8v3.5h6.9v6.9h-6.9v3.5h13.8v6.9h-17.3v-3.5zm20.7-20.7h3.5v-3.5h17.3v6.9h-13.8v3.5h10.4v3.5h3.5v10.4h-3.5v3.5h-17.3v-6.9h13.8v-3.5h-10.4v-3.5h-3.5v-10.4zm24.2 0h3.5v-3.5h17.3v6.9h-13.8v3.5h10.4v3.5h3.5v10.4h-3.5v3.5h-17.3v-6.9h13.8v-3.5h-10.4v-3.5h-3.5v-10.4zm55.3 24.2h-6.9v-24.2h3.5v-3.5h13.8v3.5h3.5v24.2h-6.9v-10.4h-6.9v10.4zm6.9-17.3v-3.5h-6.9v3.5h6.9zm20.7 3.4h-3.5v13.8h-6.9v-27.6h6.9v3.5h3.5v3.5h3.5v-6.9h6.9v27.6h-6.9v-10.4h-3.5v-3.5zm13.8-13.8h6.9v10.4h6.9v-10.4h6.9v13.8h-3.5v3.5h-3.5v10.4h-6.9v-10.4h-3.5v-3.5h-3.5v-13.8zm55.3 27.7h-6.9v-27.6h6.9v6.9h3.5v-3.5h3.5v-3.5h6.9v6.9h-3.5v3.5h-3.5v6.9h3.5v3.5h3.5v6.9h-6.9v-3.5h-3.5v-3.5h-3.5v7zm20.8-3.5h-3.5v-20.7h3.5v-3.5h17.3v6.9h-13.8v3.5h6.9v6.9h-6.9v3.5h13.8v6.9h-17.3v-3.5zm20.7-24.2h6.9v10.4h6.9v-10.4h6.9v13.8h-3.5v3.5h-3.5v10.4h-6.9v-10.4h-3.5v-3.5h-3.5v-13.8zm48.4 0h20.7v6.9h-6.9v20.7h-6.9v-20.7h-6.9v-6.9zm24.2 3.5h3.5v-3.5h13.8v3.5h3.5v20.7h-3.5v3.5h-13.8v-3.5h-3.5v-20.7zm6.9 17.2h6.9v-13.8h-6.9v13.8zm48.4 7h-6.9v-27.6h17.3v3.5h3.5v10.4h-3.5v3.5h-10.4v10.2zm0-17.3h6.9v-3.5h-6.9v3.5zm20.7 13.8h-3.5v-24.2h6.9v20.7h13.8v6.9h-17.3v-3.4zm27.7 3.5h-6.9v-24.2h3.5v-3.5h13.8v3.5h3.5v24.2h-6.9v-10.4h-6.9v10.4zm6.9-17.3v-3.5h-6.9v3.5h6.9zm10.3-10.4h6.9v10.4h6.9v-10.4h6.9v13.8h-3.5v3.5h-3.5v10.4h-6.9v-10.4h-3.5v-3.5h-3.5v-13.8zm48.4 10.4h20.7v6.9h-20.7v-6.9z"/><path class="st4" d="M-1884.4 1079.2h20.7v6.9h-20.7v-6.9zm55.3 17.2h-6.9v-27.6h17.3v3.5h3.5v10.4h-3.5v3.5h-10.4v10.2zm0-17.2h6.9v-3.5h-6.9v3.5zm27.7 6.9h-3.5v10.4h-6.9v-27.6h17.3v3.5h3.5v10.4h-3.5v3.5h3.5v10.4h-6.9v-6.9h-3.5v-3.7zm-3.5-6.9h6.9v-3.5h-6.9v3.5zm20.8 13.8h-3.5v-20.7h3.5v-3.5h17.3v6.9h-13.8v3.5h6.9v6.9h-6.9v3.5h13.8v6.9h-17.3v-3.5zm20.7-20.7h3.5v-3.5h17.3v6.9h-13.8v3.5h10.4v3.5h3.5v10.4h-3.5v3.5h-17.3v-6.9h13.8v-3.5h-10.4v-3.5h-3.5v-10.4zm24.2 0h3.5v-3.5h17.3v6.9h-13.8v3.5h10.4v3.5h3.5v10.4h-3.5v3.5h-17.3v-6.9h13.8v-3.5h-10.4v-3.5h-3.5v-10.4zm55.3 24.1h-6.9v-24.2h3.5v-3.5h13.8v3.5h3.5v24.2h-6.9V1086h-6.9v10.4zm6.9-17.2v-3.5h-6.9v3.5h6.9zm20.7 3.4h-3.5v13.8h-6.9v-27.6h6.9v3.5h3.5v3.5h3.5v-6.9h6.9v27.6h-6.9v-10.4h-3.5v-3.5zm13.8-13.8h6.9v10.4h6.9v-10.4h6.9v13.8h-3.5v3.5h-3.5v10.4h-6.9v-10.4h-3.5v-3.5h-3.5v-13.8zm55.3 27.6h-6.9v-27.6h6.9v6.9h3.5v-3.5h3.5v-3.5h6.9v6.9h-3.5v3.5h-3.5v6.9h3.5v3.5h3.5v6.9h-6.9v-3.5h-3.5v-3.5h-3.5v7zm20.8-3.4h-3.5v-20.7h3.5v-3.5h17.3v6.9h-13.8v3.5h6.9v6.9h-6.9v3.5h13.8v6.9h-17.3v-3.5zm20.7-24.2h6.9v10.4h6.9v-10.4h6.9v13.8h-3.5v3.5h-3.5v10.4h-6.9v-10.4h-3.5v-3.5h-3.5v-13.8zm48.4 0h20.7v6.9h-6.9v20.7h-6.9v-20.7h-6.9v-6.9zm24.2 3.5h3.5v-3.5h13.8v3.5h3.5v20.7h-3.5v3.5h-13.8v-3.5h-3.5v-20.7zm6.9 17.2h6.9v-13.8h-6.9v13.8zm48.4 6.9h-6.9v-27.6h17.3v3.5h3.5v10.4h-3.5v3.5h-10.4v10.2zm0-17.2h6.9v-3.5h-6.9v3.5zm20.7 13.8h-3.5v-24.2h6.9v20.7h13.8v6.9h-17.3v-3.4zm27.7 3.4h-6.9v-24.2h3.5v-3.5h13.8v3.5h3.5v24.2h-6.9V1086h-6.9v10.4zm6.9-17.2v-3.5h-6.9v3.5h6.9zm10.3-10.4h6.9v10.4h6.9v-10.4h6.9v13.8h-3.5v3.5h-3.5v10.4h-6.9v-10.4h-3.5v-3.5h-3.5v-13.8zm48.4 10.4h20.7v6.9h-20.7v-6.9z"/><path class="st31" d="M877.4 377.1H-791v931.2H890.4V377.1h-13zm-12.9 56.5v829.5h-12.9v11.3h-12.9v11.3H-739.4v-11.3h-12.9V1263h-12.9V422.3h12.9V411h12.9v-11.3H838.7V411h12.9v11.3h12.9v11.3z"/><path class="st32" d="M-402.5 19.8V11h-366.7v83.5h356.1v-8.7h10.6V77h9.8V19.8z"/><path class="st31" d="M-403 11.1V2.4h-377.2v8.7h-9.9v50.3h9.8v6.9h.1v8.8h10.5v8.7h356.1v-8.7h10.6v-8.8h9.8V11.1z"/><path class="st13" d="M-852 227.1h92.2v32.8H-852z"/><text transform="translate(-830.86 245.314)" class="st4" font-family="EditUndoBRK" font-size="31.543">DMG</text><path class="st22" d="M-652.2 261.5h254.7v-18h-254.7v5.2h-6.9v7.7h6.9v5.1z"/><path class="st22" d="M-388.9 248.7v-5.2h-55.6v18h55.6v-5.2h7v-7.6z"/><g class="st33"><path class="st34" d="M-8.6 474.7v-78h-89.9v10h-10.1v57.9h10.1v10.1zm235-69v-10h-92v78h92v-10.1h10.1v-57.9z"/><path class="st34" d="M-88.6 405.7h305v78h-305z"/></g><path class="st31" d="M1.4 474.7v-78h-89.9v10h-10.1v57.9h10.1v10.1z"/><path class="st31" d="M-8.6 464.7v-78h-89.9v10h-10.1v57.9h10.1v10.1zm225-58v-10h-92v78h92v-10.1h10.1v-57.9z"/><path class="st31" d="M226.4 396.7v-10h-92v78h92v-10.1h10.1v-57.9zm-225 0h123v78H1.4z"/><path class="st35" d="M1.4 464.7v-78h-89.9v10h-10.1v57.9h10.1v10.1zm215-68v-10h-78v78h78v-10.1h10.1v-57.9z"/><g class="st33"><path class="st34" d="M-274.9 79V9h-80.7v9.1h-9V70h9v9zm210.8-61.8V8.1h-82.6v70h82.6v-9h9V17.2z"/><path class="st34" d="M-346.7 17.1h273.6v70h-273.6z"/></g><path class="st31" d="M-266 79V9h-80.6v9.1h-9V70h9v9z"/><path class="st31" d="M-274.9 70V.1h-80.7v9h-9V61h9v9zm201.8-51.9V9h-82.5v70h82.5v-9h9V18.1z"/><path class="st31" d="M-64.1 9.1v-9h-82.6V70h82.6v-9h9V9.1zM-266 9h110.3v70H-266z"/><path class="st35" d="M-266 70V.1h-80.6v9h-9V61h9v9zM-73.1 9.1v-9h-70V70h70v-9h9V9.1z"/><path class="st35" d="M-13.6 386.7h169v78h-169zM-279.4.1h151.6v70h-151.6z"/><path class="st13" d="M-18.6 418.9h179v81.8h-179z"/><text transform="translate(3.496 446.537)" class="st4" font-family="EditUndoBRK" font-size="48">124 KM</text><path class="st32" d="M867 396.7h8v2h-8zm-81 0v10h-10v57.9h9.9v10h.1v.1h9.9v10H851v-88z"/><path class="st31" d="M876 396.7v-10h-89.9v10H776v57.9h10v10h.1v.1h10v10H886v-78z"/><path class="st2" d="M846.1 408.2h-37.9v5.3h-5.3v37.8h5.3v5.4h37.9v-5.4h5.3v-37.8h-5.3z"/><path class="st3" d="M846.3 402.4h-38v5.4h-5.4v38.1h5.4v5.3h38v-5.3h5.4v-38.1h-5.4z"/><path class="st4" d="M815.8 431.5H840v4.8h-24.2zm0-11.1H840v4.8h-24.2z"/><g class="st33"><path class="st36" d="M808.3 456.8v5h38v-5h-32.7zm-5.4-5.4h5.4v5h-5.4zm43.4 0h5.4v5h-5.4z"/></g><path class="st2" d="M199.6 18.7h-29.5v4.1h-4.2v29.5h4.2v4.2h29.5v-4.2h4.1V22.8h-4.1z"/><path class="st3" d="M199.8 14.2h-29.7v4.2h-4.2v29.7h4.2v4.1h29.7v-4.1h4.2V18.4h-4.2z"/><path class="st4" d="M176 36.9h18.9v3.8H176zm0-8.7h18.9V32H176z"/><g class="st33"><path class="st36" d="M170.1 56.6v3.9h29.7v-3.9h-25.5zm-4.2-4.2h4.2v3.9h-4.2zm33.9 0h4.2v3.9h-4.2z"/></g><path class="st22" d="M-625.6 143.9v-3.7h-38.9v3.7h-4.7v5.5h4.7v3.7h38.9v-3.7h4.5v-5.5zm6.8-236.8v-3.8h-38.9v3.7h-4.8v5.5h4.8v3.7h38.9v-3.7h4.4v-5.4z"/><path class="st37" d="M-465-92.9v-3.8h-192.7v3.7h-4.8v5.5h4.8v3.7H-465v-3.7h4.5v-5.4z"/><path class="st31" d="M1086 1285.6h18.2v-11.3h12.9V1263h12.9v-24.6h25.8v69.8H1086z"/><path class="st31" d="M1152.2 1238.5v18.2h11.3v12.9h11.3v12.9h24.7v25.8h-69.9v-69.8zm-52.1 47.1v18.2h11.3v12.9h11.3v12.9h24.6v25.8h-69.8v-69.8zm-81.3 0h-18.2v-11.3h-12.9V1263h-12.9v-24.6H949v69.8h69.8z"/><path class="st31" d="M1074.3 1332.9h-18.2v-11.3h-12.9v-11.3h-12.9v-24.7h-25.8v69.9h69.8zm-122.5-83.7v18.3h-11.3v12.9h-11.3v12.9h-24.7v25.8h69.9v-69.9z"/><path class="st32" d="M125.7 27v-9.1h-8.9V9H8.9v9H0v51.9h8.9V79h8.9v8.9h50.4V79h21.6v8.9h35.9v-9h8.9V27z"/><path class="st31" d="M89.7 9V0H9v9H0v52h9v9h9v9h80.7V9z"/></svg>