<!-- Generator: Adobe Illustrator 19.2.1, SVG Export Plug-In  -->
<svg version="1.1"
	 xmlns="http://www.w3.org/2000/svg" xmlns:xlink="http://www.w3.org/1999/xlink" xmlns:a="http://ns.adobe.com/AdobeSVGViewerExtensions/3.0/"
	 x="0px" y="0px" width="24.1px" height="24.1px" viewBox="0 0 24.1 24.1" style="enable-background:new 0 0 24.1 24.1;"
	 xml:space="preserve">
<style type="text/css">
	.st0{fill:#C17620;}
	.st1{fill:#F4C24A;}
	.st2{fill:#FFFFFF;}
</style>
<defs>
</defs>
<g>
	<g>
		<g>
			<polygon class="st0" points="21.3,0.1 18.6,0.1 2.6,0.1 2.6,2.7 0,2.7 0,21.4 2.6,21.4 2.6,24 18.6,24 21.3,24 21.3,21.4
				23.9,21.4 23.9,2.7 21.3,2.7 			"/>
			<polygon class="st1" points="21.4,0 18.7,0 2.6,0 2.6,2.7 0,2.7 0,21.4 2.6,21.4 2.6,24.1 18.7,24.1 21.4,24.1 21.4,21.4
				24.1,21.4 24.1,2.7 21.4,2.7 			"/>
		</g>
		<g>
			<rect x="7.7" y="6" class="st2" width="2.4" height="12"/>
			<rect x="14.5" y="6" class="st2" width="2.4" height="12"/>
		</g>
	</g>
</g>
</svg>
