<svg id="Layer_1" xmlns="http://www.w3.org/2000/svg" xmlns:xlink="http://www.w3.org/1999/xlink" width="37.6" height="46.3" viewBox="0 0 37.6 46.3"><style>.st0{fill:#5895b7}.st1{opacity:.8}.st2{fill:#c17620}.st3{fill:#f4c24a}.st4{fill:#fff}.st5{fill:#2a6fba}.st6{fill:#4abaef}.st7{fill:#95c9c8}.st8{fill:#ddefee}.st9{fill:#1b8e6f}.st10{fill:#3cea8a}.st11{opacity:.4;fill:#666}.st12{fill:#33bc6e}.st13{fill:none}.st14{fill:#7149a4}.st15{fill:#bd86e0}.st16{opacity:.4;fill:#666;stroke:#666;stroke-width:4;stroke-linejoin:bevel;stroke-miterlimit:10}.st17{fill:#f2f2f2}.st18{fill:#e6e6e6}.st19{fill:none;stroke:#000;stroke-width:4;stroke-linejoin:bevel;stroke-miterlimit:10}.st20{fill:#c6e0de}.st21{fill:#a7c6c3}.st22{fill:#ee3d53}.st23{fill:none;stroke:#000;stroke-width:2;stroke-miterlimit:10}.st24{fill:#a17559}.st25{fill:#910e46}.st26{fill:#238d6f}.st27{fill:#704ca2}.st28{fill:#47e88d}.st29{fill:#bc88de}.st30{fill:#ccc}.st31{fill:#5b2616}.st32{fill:#2d3d3e}.st32,.st33{opacity:.38}.st34{fill:#2d3d3e}.st35{fill:#3f180f}.st36{fill:#1a1a1a}.st37{fill:#38140c}</style><path class="st0" d="M-1905.1 2194.2h484v82h-484z"/><path class="st0" d="M-1453.1 2268.2h107v30h-107z"/><g class="st1"><path class="st0" d="M-1889.1 2214.2v82h-96v-11h12v-12h12v-12h12v-12h-12v-12h-12v-12h-12v-11z"/><path class="st0" d="M-1903.1 2272.2l14 23v-23z"/></g><path class="st2" d="M-1442.1 2206.2v82h96v-11h-12v-12h-12v-12h-12v-12h12v-12h12v-12h12v-11z"/><path class="st3" d="M-1442.1 2195.2v82h96v-11h-12v-12h-12v-12h-12v-12h12v-12h12v-12h12v-11z"/><path class="st2" d="M-1428.1 2264.2l-14 23 .1-23zm-470-58v82h-96v-11h12v-12h12v-12h12v-12h-12v-12h-12v-12h-12v-11z"/><path class="st3" d="M-1898.1 2195.2v82h-96v-11h12v-12h12v-12h12v-12h-12v-12h-12v-12h-12v-11z"/><path class="st2" d="M-1912.1 2264.2l14 23v-23zm0-82h484v82h-484z"/><path class="st3" d="M-1912.1 2170.2h484v82h-484z"/><path class="st4" d="M-1841.4 2230h-8.6v-34.6h8.6v13h8.6v-13h8.6v34.6h-8.6v-13h-8.6v13zm21.6-30.3h4.3v-4.3h17.3v4.3h4.3v25.9h-4.3v4.3h-17.3v-4.3h-4.3v-25.9zm8.6 21.6h8.6V2204h-8.6v17.3zm30.2 8.7h-8.6v-34.6h8.6v17.3h4.3v-4.3h4.3v4.3h4.3v-17.3h8.6v34.6h-8.6v-4.3h-4.3v-4.3h-4.3v4.3h-4.3v4.3zm56.2-34.6h25.9v8.6h-8.6v25.9h-8.6V2204h-8.6v-8.6zm30.2 4.3h4.3v-4.3h17.3v4.3h4.3v25.9h-4.3v4.3h-17.3v-4.3h-4.3v-25.9zm8.7 21.6h8.6V2204h-8.6v17.3zm60.5 8.7h-8.6v-34.6h21.6v4.3h4.3v13h-4.3v4.3h-13v13zm0-21.6h8.6v-4.3h-8.6v4.3zm25.9 17.2h-4.3v-30.2h8.6v25.9h17.3v8.6h-21.6v-4.3zm34.5 4.4h-8.6v-30.2h4.3v-4.3h17.3v4.3h4.3v30.2h-8.6v-13h-8.6v13zm8.7-21.6v-4.3h-8.6v4.3h8.6zm12.9-13h8.6v13h8.6v-13h8.6v17.3h-4.3v4.3h-4.3v13h-8.6v-13h-4.3v-4.3h-4.3v-17.3z"/><path class="st5" d="M-1736.1 2463.2h-85v12h-12v85h12v12h85v-12h12v-85h-12z"/><path class="st5" d="M-1736.1 2463.2h-85v12h-12v85h12v12h85v-12h12v-85h-12z"/><path class="st4" d="M-1796.5 2497.4h28.4v5.7h5.7v17.1h-5.7v5.7h-17.1v-11.4h11.4v-5.7h-22.8v-11.4zm11.4 34.1h11.4v11.4h-11.4v-11.4z"/><path class="st5" d="M-1585.1 2463.2h-85v12h-12v85h12v12h85v-12h12v-85h-12z"/><path class="st6" d="M-1585.1 2453.2h-85v12h-12v85h12v12h85v-12h12v-85h-12z"/><path class="st4" d="M-1645.5 2487.4h28.4v5.7h5.7v17.1h-5.7v5.7h-17.1v-11.4h11.4v-5.7h-22.8v-11.4zm11.4 34.1h11.4v11.4h-11.4v-11.4z"/><path class="st0" d="M-550.1 2307.7h-11.5v-11.6h-11.6v-12.8h-498.7v12.8h-11.6v11.6h-11.6v684.7h11.6v11.7h11.6v12.8h498.7v-12.8h11.6v-11.7h11.5z"/><path class="st7" d="M-550.1 2295.7h-11.5V2284h-11.6v-12.8h-498.7v12.8h-11.6v11.7h-11.6v684.7h11.6v11.6h11.6v12.9h498.7V2992h11.6v-11.6h11.5z"/><path class="st8" d="M-550.1 2283.7h-11.5V2272h-11.6v-12.8h-498.7v12.8h-11.6v11.7h-11.6v684.7h11.6v11.6h11.6v12.8h498.7V2980h11.6v-11.6h11.5z"/><path class="st0" d="M-2036 315.1h-4.1V311h-4.1v-4.5h-176.2v4.5h-4.1v4.1h-4.1v242h4.1v4.1h4.1v4.5h176.2v-4.5h4.1v-4.1h4.1z"/><path class="st7" d="M-2036 310.9h-4.1v-4.1h-4.1v-4.5h-176.2v4.5h-4.1v4.1h-4.1v241.9h4.1v4.1h4.1v4.6h176.2v-4.6h4.1v-4.1h4.1z"/><path class="st8" d="M-2036 306.6h-4.1v-4.1h-4.1V298h-176.2v4.5h-4.1v4.1h-4.1v242h4.1v4.1h4.1v4.5h176.2v-4.5h4.1v-4.1h4.1z"/><path class="st9" d="M-1599 1943.2h-385v10.1h-10.1v57.8h10.1v10.1h385v-10.1h10v-57.8h-10z"/><path class="st10" d="M-1599 1933.2h-385v10.1h-10.1v57.8h10.1v10.1h385v-10.1h10v-57.8h-10z"/><path class="st4" d="M-1874 1984.1h-6.9v-27.6h17.3v3.5h3.5v10.4h-3.5v3.5h-10.4v10.2zm0-17.3h6.9v-3.5h-6.9v3.5zm20.7 13.8h-3.5v-24.2h6.9v20.7h13.8v6.9h-17.3v-3.4zm27.7 3.5h-6.9v-24.2h3.5v-3.5h13.8v3.5h3.5v24.2h-6.9v-10.4h-6.9v10.4zm6.9-17.3v-3.5h-6.9v3.5h6.9zm10.4-10.4h6.9v10.4h6.9v-10.4h6.9v13.8h-3.5v3.5h-3.5v10.4h-6.9v-10.4h-3.5v-3.5h-3.5v-13.8zm27.6 24.2h-3.5v-20.7h3.5v-3.5h17.3v6.9h-13.8v3.5h6.9v6.9h-6.9v3.5h13.8v6.9h-17.3v-3.5zm31.1-6.9h-3.5v10.4h-6.9v-27.6h17.3v3.5h3.5v10.4h-3.5v3.5h3.5v10.4h-6.9v-6.9h-3.5v-3.7zm-3.4-6.9h6.9v-3.5h-6.9v3.5zm41.4-10.4h6.9v27.6h-6.9v-27.6z"/><path class="st11" d="M-1959.9 1822.6l-1.9-5.8-4.1-12-17.8 6 2 5.8-5.8 2 4.1 12 5.7-2 2 5.8 12-4.1-1.9-5.7zm38.8-12.1l-1.9-5.7-4.1-12-17.8 6 2 5.7-5.8 2 4.1 12 5.7-1.9 2 5.7 12-4-1.9-5.8z"/><path transform="rotate(-18.702 -1977.136 1783.188)" d="M-1980.6 1763.6h7.1v38.6h-7.1z"/><path d="M-1961.5 1817.8l-2-5.8-4-12-17.8 6 1.9 5.8-5.7 2 4 12 5.8-2 2 5.8 12-4.1-2-5.7z"/><path transform="rotate(-18.702 -1938.665 1770.158)" d="M-1942.2 1750.6h7.1v38.6h-7.1z"/><path d="M-1923 1804.8l-2-5.8-4.1-12-17.7 6 1.9 5.8-5.8 1.9 4.1 12.1 5.8-2 1.9 5.8 12.1-4.1-2-5.8z"/><path transform="rotate(-18.702 -1966.86 1750.224)" d="M-1990.7 1741.3h47.7v17.3h-47.7z"/><path class="st11" d="M-1893.7 1856.2l1-4.2 1.9-8.6-12.8-2.8-1 4.1-4.1-.9-1.9 8.7 4.1.9-.9 4.1 8.7 1.9.9-4.1zm27.5 6.8l1-4.2 1.9-8.6-12.8-2.8-.9 4.1-4.2-.9-1.9 8.6 4.2 1-1 4.1 8.7 1.9.9-4.1z"/><path transform="rotate(12.41 -1889.492 1826.183)" d="M-1892.1 1812.8h5v26.9h-5z"/><path d="M-1892.9 1852.7l.9-4.1 1.9-8.7-12.8-2.8-.9 4.2-4.1-.9-1.9 8.6 4.1.9-.9 4.2 8.6 1.9 1-4.2z"/><path transform="rotate(12.41 -1861.832 1832.268)" d="M-1864.4 1818.9h5v26.9h-5z"/><path d="M-1865.2 1858.8l.9-4.1 1.9-8.7-12.8-2.8-.9 4.2-4.2-1-1.9 8.7 4.2.9-.9 4.2 8.6 1.9.9-4.2z"/><path transform="rotate(12.41 -1871.478 1810.21)" d="M-1888.2 1804.3h33.3v12h-33.3z"/><path class="st11" d="M-1817.6 1794.4l-.7-3.1-1.4-6.3-9.4 2.1.7 3-3.1.7 1.4 6.4 3.1-.7.6 3 6.4-1.4-.7-3zm20.4-4l-.7-3.1-1.4-6.3-9.4 2.1.7 3-3.1.7 1.4 6.3 3.1-.6.7 3 6.3-1.4-.7-3z"/><path transform="rotate(-12.552 -1824.159 1773.048)" d="M-1826 1763.3h3.6v19.8h-3.6z"/><path d="M-1818.2 1791.9l-.7-3.1-1.4-6.3-9.4 2.1.7 3-3.1.7 1.5 6.3 3-.7.7 3.1 6.3-1.4-.7-3.1z"/><path transform="rotate(-12.552 -1803.852 1768.529)" d="M-1805.7 1758.8h3.6v19.8h-3.6z"/><path d="M-1797.9 1787.3l-.7-3-1.4-6.4-9.4 2.1.7 3.1-3 .7 1.4 6.3 3-.7.7 3.1 6.3-1.4-.6-3.1z"/><path transform="rotate(-12.552 -1817.113 1756.827)" d="M-1829.4 1752.6h24.4v8.8h-24.4z"/><path class="st11" d="M-1797 1840.2l2.6-4.2 5.4-8.5-12.7-8.1-2.6 4.1-4.1-2.6-5.4 8.6 4.1 2.6-2.6 4.1 8.5 5.5 2.7-4.2zm27 18.1l2.6-4.1 5.4-8.6-12.7-8.1-2.6 4.1-4.1-2.6-5.4 8.6 4.1 2.6-2.6 4.1 8.5 5.5 2.6-4.1z"/><path transform="rotate(32.435 -1780.846 1809.572)" d="M-1783.8 1794.1h5.7v30.9h-5.7z"/><path d="M-1794.9 1836.7l2.7-4.1 5.4-8.6-12.7-8-2.6 4.1-4.1-2.6-5.5 8.6 4.2 2.6-2.7 4.1 8.6 5.4 2.6-4.1z"/><path transform="rotate(32.435 -1753.419 1826.998)" d="M-1756.3 1811.5h5.7v30.9h-5.7z"/><path d="M-1767.4 1854.2l2.6-4.2 5.4-8.5-12.7-8.1-2.6 4.1-4.1-2.6-5.4 8.6 4.1 2.6-2.6 4.1 8.5 5.5 2.7-4.2z"/><path transform="rotate(32.435 -1755.152 1799.429)" d="M-1774.3 1792.4h38.2v13.8h-38.2z"/><path class="st9" d="M-2075.8 1399.7h-253v6.7h-6.6v38h6.6v6.6h253v-6.6h6.6v-38h-6.6z"/><path class="st12" d="M-2075.8 1399.7h-253v6.7h-6.6v38h6.6v6.6h253v-6.6h6.6v-38h-6.6z"/><path class="st4" d="M-2269 1417.3h2.3v-2.3h11.4v4.5h-9.1v9.1h9.1v4.5h-11.4v-2.3h-2.3v-13.5zm20.5 15.9h-4.5v-15.9h2.3v-2.3h9.1v2.3h2.3v15.9h-4.5v-6.8h-4.5v6.8zm4.5-11.4v-2.3h-4.5v2.3h4.5zm9.1 9.1h-2.3V1415h4.5v13.6h9.1v4.5h-11.4v-2.2zm13.6-15.9h4.5v18.2h-4.5V1415zm6.8 0h11.4v2.3h2.3v13.6h-2.3v2.3h-11.4V1415zm4.6 6.8h4.5v-2.3h-4.5v2.3zm0 6.8h4.5v-2.3h-4.5v2.3zm18.1-2.2h-2.3v6.8h-4.5v-15.9h2.3v-2.3h9.1v2.3h2.3v6.8h-2.3v2.3h2.3v6.8h-4.5v-4.5h-2.3v-2.3zm-2.2-4.6h4.5v-2.3h-4.5v2.3zm15.9 11.4h-4.5v-15.9h2.3v-2.3h9.1v2.3h2.3v15.9h-4.5v-6.8h-4.5v6.8zm4.5-11.4v-2.3h-4.5v2.3h4.5zm6.8-6.8h13.6v4.5h-4.5v13.6h-4.5v-13.6h-4.5v-4.5zm18.2 15.9h-2.3v-13.6h2.3v-2.3h11.4v4.5h-9.1v2.3h4.5v4.5h-4.5v2.3h9.1v4.5h-11.4v-2.2z"/><path class="st9" d="M-1755.8 1467.7h-253v6.7h-6.6v38h6.6v6.6h253v-6.6h6.6v-38h-6.6z"/><path class="st10" d="M-1755.8 1461.2h-253v6.6h-6.6v38h6.6v6.6h253v-6.6h6.6v-38h-6.6z"/><path class="st4" d="M-1949 1478.7h2.3v-2.3h11.4v4.5h-9.1v9.1h9.1v4.5h-11.4v-2.3h-2.3v-13.5zm20.5 15.9h-4.5v-15.9h2.3v-2.3h9.1v2.3h2.3v15.9h-4.5v-6.8h-4.5v6.8zm4.5-11.4v-2.3h-4.5v2.3h4.5zm9.1 9.1h-2.3v-15.9h4.5v13.6h9.1v4.5h-11.4v-2.2zm13.6-15.9h4.5v18.2h-4.5v-18.2zm6.8 0h11.4v2.3h2.3v13.6h-2.3v2.3h-11.4v-18.2zm4.6 6.8h4.5v-2.3h-4.5v2.3zm0 6.9h4.5v-2.3h-4.5v2.3zm18.1-2.3h-2.3v6.8h-4.5v-15.9h2.3v-2.3h9.1v2.3h2.3v6.8h-2.3v2.3h2.3v6.8h-4.5v-4.5h-2.3v-2.3zm-2.2-4.6h4.5v-2.3h-4.5v2.3zm15.9 11.4h-4.5v-15.9h2.3v-2.3h9.1v2.3h2.3v15.9h-4.5v-6.8h-4.5v6.8zm4.5-11.4v-2.3h-4.5v2.3h4.5zm6.8-6.8h13.6v4.5h-4.5v13.6h-4.5V1481h-4.5v-4.6zm18.2 15.9h-2.3v-13.6h2.3v-2.3h11.4v4.5h-9.1v2.3h4.5v4.5h-4.5v2.3h9.1v4.5h-11.4v-2.2z"/><path class="st9" d="M-2013.8 1550.1h219.8v28.8h-219.8z"/><path class="st9" d="M-2018.6 1543.5h229.4v30.6h-229.4z"/><path class="st10" d="M-2018.6 1539.2v29.2h4.8v5.7h219.8v-5.7h4.8v-29.2z"/><path class="st9" d="M-1798.8 1554v-5.1h-5.1v-.1h-200v.1h-5.1v5.1h-5.1v7.6h5.1v5.1h5.1v.1h205.1v-5.1h5.1v-7.7z"/><path class="st13" d="M-2022.7 1648.1h4.7v.1h-4.7zm0 17.9h4.7v.1h-4.7z"/><path class="st4" d="M-2001.7 1666v-5.1h5.1v-7.6h-5.1v-5.1h-5.1v-.1h-11.2v.1h-4.7v17.8h4.7v.1h11.2v-.1zm-46.8-53.4v-5.1h-5.1v-.1h-16v18h16v-.1h5.1v-5.1h5.1v-7.6zm-13.5 38.8v-5.1h-.1v-.1h-9.6v5.2h-5.1v7.6h5.1v5.2h9.7v-5.1h5.1v-7.7zm-49.8-97.4v-5.2h-9.6v.1h-.1v5.1h-5.1v7.6h5.1v5.1h.1v.1h9.6v-5.1h5.1v-7.7z"/><path class="st14" d="M-1146 1943.2h-385v10.1h-10.1v57.8h10.1v10.1h385v-10.1h10v-57.8h-10z"/><path class="st15" d="M-1146 1933.2h-385v10.1h-10.1v57.8h10.1v10.1h385v-10.1h10v-57.8h-10z"/><path class="st4" d="M-1428.4 1984.1h-6.9v-27.6h17.3v3.5h3.5v10.4h-3.5v3.5h-10.4v10.2zm0-17.3h6.9v-3.5h-6.9v3.5zm20.7 13.8h-3.5v-24.2h6.9v20.7h13.8v6.9h-17.3v-3.4zm27.7 3.5h-6.9v-24.2h3.5v-3.5h13.8v3.5h3.5v24.2h-6.9v-10.4h-6.9v10.4zm6.9-17.3v-3.5h-6.9v3.5h6.9zm10.4-10.4h6.9v10.4h6.9v-10.4h6.9v13.8h-3.5v3.5h-3.5v10.4h-6.9v-10.4h-3.5v-3.5h-3.5v-13.8zm27.6 24.2h-3.5v-20.7h3.5v-3.5h17.3v6.9h-13.8v3.5h6.9v6.9h-6.9v3.5h13.8v6.9h-17.3v-3.5zm31.1-6.9h-3.5v10.4h-6.9v-27.6h17.3v3.5h3.5v10.4h-3.5v3.5h3.5v10.4h-6.9v-6.9h-3.5v-3.7zm-3.5-6.9h6.9v-3.5h-6.9v3.5zm41.5-10.4h17.3v3.5h3.5v10.4h-3.5v3.5h-10.4v3.5h13.8v6.9h-20.7v-13.8h3.5v-3.5h10.4v-3.5h-13.8v-7zm-254.1-19.2h45.1v5.7h-45.1zm51.3 0h5.7v5.7h-5.7zm-505.8 1h45.1v5.7h-45.1zm51.3 0h5.7v5.7h-5.7z"/><path class="st16" d="M-1585.4 1778.2l6.4 5.6-5.6 6.4 20.4 17.4v37.9l20.7-26.1 31.8 29.3 5.8-6.2 5 4.6 71.6-118.7z"/><path class="st17" d="M-1587.9 1771.1l6.4 5.6-5.6 6.4 20.4 17.3v37.9l20.8-26.1 31.7 29.4 5.9-6.2 4.9 4.6 71.7-118.7z"/><path class="st18" d="M-1545.9 1812l114.4-90.7-135.1 78.9v37.9z"/><path class="st19" d="M-1589 1771.2l6.4 5.6-5.6 6.4 20.5 17.4v37.9l20.7-26.1 31.8 29.4 5.8-6.3 5 4.6 71.6-118.7z"/><path class="st20" d="M-1653.1 1464.5v163.6h10.4v9.5h10.4v10.5h447.4v-10.5h10.4v-9.5h10.4v-163.6zm489 0v-94.1h-10.4v-9.5h-10.4v-10.5h-447.4v10.5h-10.4v9.5h-10.4v94.1z"/><path class="st21" d="M-1642.7 1367h10.4v-8h-10.4v7.9h-10.4v8h10.4zm10.4-16.7h447.5v8h-447.5zm457.8 16.6v-7.9h-10.4v8h10.4v7.9h10.4v-8z"/><path d="M-2046.3 1286h10.2v10.2h-10.2zm61.5-10.2v5.1h-5.1v5.1h5.1v20.5h5.1v5.1h-5.1v5.1h10.2v-10.2h15.4v5.1h5.1v-35.8h-30.7zm25.6 25.6h-20.5v-20.5h20.5v20.5z"/><path d="M-1974.6 1286h10.2v10.2h-10.2zm-71.7 71.7h10.2v10.2h-10.2zm61.5-10.2h5.1v5.1h-5.1zm-25.6 25.6h5.1v5.1h-5.1zm5.1-20.5h5.1v5.1h-5.1zm0 10.2h5.1v5.1h-5.1zm46.1-25.6h5.1v5.1h-5.1zm-97.3 0h5.1v5.1h-5.1zm0-25.6h5.1v5.1h-5.1zm56.3-30.7v5.1h-10.2v5.1h15.3v-10.2z"/><path d="M-1959.2 1316.7v5.1h-10.2v5.1h-15.4v-5.1h-5.1v5.1h-10.2v5.1h15.4v5.1h-15.3v-5.1h-5.1v5.1h-5.1v-5.1h-5.1v5.1h-5.1v5.1h10.2v5.1h5.1v-5.1h10.2v5.1h-5.1v5.1h5.1v10.2h5.1v5.1h5.1v-5.1h15.4v-10.2h5.1v-5.1h-5.1v-10.2h-10.2v-5.1h10.2v5.1h5.1v-5.1h5.1v-5.1h5.1v-10.2h-5.2zm-15.4 25.6v15.4h-15.4v-15.4h15.4zm-15.3-35.8h-5.2v5.1h-5.1v10.3h5.1v-5.2h5.2v-5.1h5.1v-5.1zm-10.3 66.6h10.2v5.1h-10.2zm-15.3-92.2h5.1v5.1h-5.1z"/><path d="M-1974.6 1316.7h5.1v5.1h-5.1zm5.1-5.1h5.1v5.1h-5.1zm-66.5 25.6h5.1v5.1h-5.1zm10.2 35.9v-20.5h5.1v-10.2h-5.1v5.1h-15.4v-5.1h-10.2v5.1h-5.1v30.7h40.9v-5.1h-10.2zm-5.1 0h-20.5v-20.5h20.5v20.5zm5.1-66.6h5.1v5.1h-5.1zm5.1-30.7h-35.8v30.7h5.1v5.1h5.1v-5.1h5.1v5.1h5.1v-5.1h10.2v-10.2h5.1v-5.1h-5.1V1281h10.2v-5.1h-5zm-10.2 25.6h-20.5v-20.5h20.5v20.5zm35.8-10.3h5.1v5.1h-5.1zm-10.2-15.3h5.1v5.1h-5.1z"/><path d="M-1995.1 1306.5v-5.1h-5.1v-5.1h-5.1v5.1h-10.2v-5.1h-5.1v10.2h5.1v10.2h-15.4v-5.1h-5.1v5.1h-15.4v5.1h10.2v5.1h-15.4v5.1h15.4v5.1h5.1v-5.1h5.1v5.1h5.1v-5.1h10.2v-5.1h-5.1v-5.1h10.2v5.1h10.2v-5.1h-5.1v-5.1h-5.1v-10.2h15.5zm-30.7 20.5h-10.2v-5.1h10.2v5.1zm15.4 30.7v-10.2h-5.1v5.1h-5.2v5.1h5.2v5.1h-5.2v5.1h10.3v-5.1h5.1v-5.1zm46.1 10.2v-5.1h-5.2v5.1h-15.3v5.2h10.2v5.1h5.1v-5.1h10.3v5.1h5.1v-10.3zm5.1-20.4v5.1h-5.1v5.1h10.2v-10.2z"/><path class="st9" d="M-2284.6 1691.9h-140.9v3.7h-3.7v21.2h3.7v3.6h140.9v-3.6h3.7v-21.2h-3.7z"/><path class="st12" d="M-2284.6 1691.9h-140.9v3.7h-3.7v21.2h3.7v3.6h140.9v-3.6h3.7v-21.2h-3.7z"/><path class="st4" d="M-2397.2 1706.7h-1.3v3.8h-2.5v-10.1h6.3v1.3h1.3v3.8h-1.3v1.3h1.3v3.8h-2.5v-2.5h-1.3v-1.4zm-1.3-2.5h2.5v-1.3h-2.5v1.3zm7.6 5.1h-1.3v-7.6h1.3v-1.3h6.3v2.5h-5.1v1.3h2.5v2.5h-2.5v1.3h5.1v2.5h-6.3v-1.2zm8.8 0h-1.3v-7.6h1.3v-1.3h5.1v1.3h1.3v2.5h-2.5v-1.3h-2.5v5.1h2.5v-1.3h2.5v2.5h-1.3v1.3h-5.1v-1.2zm10.1 1.2h-2.5v-8.9h1.3v-1.3h5.1v1.3h1.3v8.9h-2.5v-3.8h-2.5v3.8zm2.6-6.3v-1.3h-2.5v1.3h2.5zm5 5.1h-1.3v-8.9h2.5v7.6h5.1v2.5h-6.3v-1.2zm7.6-8.9h2.5v10.1h-2.5v-10.1zm3.8 0h6.3v1.3h1.3v7.6h-1.3v1.3h-6.3v-10.2zm2.5 3.8h2.5v-1.3h-2.5v1.3zm0 3.8h2.5v-1.3h-2.5v1.3zm10.2-1.3h-1.3v3.8h-2.5v-8.9h1.3v-1.3h5.1v1.3h1.3v3.8h-1.3v1.3h1.3v3.8h-2.5v-2.5h-1.3v-1.3zm-1.3-2.5h2.5v-1.3h-2.5v1.3zm8.8 6.3h-2.5v-8.9h1.3v-1.3h5.1v1.3h1.3v8.9h-2.5v-3.8h-2.5v3.8zm2.6-6.3v-1.3h-2.5v1.3h2.5zm3.8-3.8h7.6v2.5h-2.5v7.6h-2.5v-7.6h-2.5v-2.5zm10.1 8.9h-1.3v-7.6h1.3v-1.3h6.3v2.5h-5.1v1.3h2.5v2.5h-2.5v1.3h5.1v2.5h-6.3v-1.2zM-2423 1694h13.1v1.7h-13.1zm14.9 0h1.7v1.7h-1.7z"/><path class="st9" d="M-2284.6 1733.9h-140.9v3.7h-3.7v21.2h3.7v3.6h140.9v-3.6h3.7v-21.2h-3.7z"/><path class="st10" d="M-2284.6 1730.2h-140.9v3.7h-3.7v21.2h3.7v3.7h140.9v-3.7h3.7v-21.2h-3.7z"/><path class="st4" d="M-2397.2 1745.1h-1.3v3.8h-2.5v-10.1h6.3v1.3h1.3v3.8h-1.3v1.3h1.3v3.8h-2.5v-2.5h-1.3v-1.4zm-1.3-2.6h2.5v-1.3h-2.5v1.3zm7.6 5.1h-1.3v-7.6h1.3v-1.3h6.3v2.5h-5.1v1.3h2.5v2.5h-2.5v1.3h5.1v2.5h-6.3v-1.2zm8.8 0h-1.3v-7.6h1.3v-1.3h5.1v1.3h1.3v2.5h-2.5v-1.3h-2.5v5.1h2.5v-1.3h2.5v2.5h-1.3v1.3h-5.1v-1.2zm10.1 1.3h-2.5v-8.9h1.3v-1.3h5.1v1.3h1.3v8.9h-2.5v-3.8h-2.5v3.8zm2.6-6.4v-1.3h-2.5v1.3h2.5zm5 5.1h-1.3v-8.9h2.5v7.6h5.1v2.5h-6.3v-1.2zm7.6-8.9h2.5v10.1h-2.5v-10.1zm3.8 0h6.3v1.3h1.3v7.6h-1.3v1.3h-6.3v-10.2zm2.5 3.8h2.5v-1.3h-2.5v1.3zm0 3.8h2.5v-1.3h-2.5v1.3zm10.2-1.2h-1.3v3.8h-2.5v-8.9h1.3v-1.3h5.1v1.3h1.3v3.8h-1.3v1.3h1.3v3.8h-2.5v-2.5h-1.3v-1.3zm-1.3-2.6h2.5v-1.3h-2.5v1.3zm8.8 6.4h-2.5v-8.9h1.3v-1.3h5.1v1.3h1.3v8.9h-2.5v-3.8h-2.5v3.8zm2.6-6.4v-1.3h-2.5v1.3h2.5zm3.8-3.8h7.6v2.5h-2.5v7.6h-2.5v-7.6h-2.5v-2.5zm10.1 8.9h-1.3v-7.6h1.3v-1.3h6.3v2.5h-5.1v1.3h2.5v2.5h-2.5v1.3h5.1v2.5h-6.3v-1.2zM-2423 1733h13.1v1.7h-13.1zm14.9 0h1.7v1.7h-1.7zm404.9-268.3h23.6v3h-23.6zm26.7 0h3v3h-3zm-347.2-61.4h23.6v3h-23.6zm26.8 0h3v3h-3z"/><path class="st22" d="M-2353.7 1526.8v-7.5h-18.7v7.5h-7.4v18.6h7.4v7.5h18.7v-7.5h7.4v-18.6z"/><path class="st23" d="M-2371.8 1552.9v9.9m17.4-9.9v9.9"/><path class="st24" d="M-2355.3 1561h-15.5v2.2h-2.2v15.5h2.2v2.2h15.5v-2.2h2.2v-15.5h-2.2z"/><path class="st25" d="M-2286.6 1966v-7.9h-141.7v7.9h-8v45.6h8v7.9h141.7v-7.9h7.9V1966z"/><path class="st25" d="M-2286.6 1966.1v-7.9h-141.7v7.9h-8v45.6h8v7.9h141.7v-7.9h7.9v-45.6z"/><path class="st4" d="M-2390.1 1999.6h-5.4v-21.8h13.6v2.7h2.7v8.2h-2.7v2.7h-8.2v8.2zm0-13.6h5.4v-2.7h-5.4v2.7zm16.3 10.9h-2.7v-19h5.4v16.3h10.9v5.4h-13.6v-2.7zm21.7 2.7h-5.4v-19h2.7v-2.7h10.9v2.7h2.7v19h-5.4v-8.2h-5.4v8.2zm5.5-13.6v-2.7h-5.4v2.7h5.4zm8.2-8.2h5.4v8.2h5.4v-8.2h5.4v10.9h-2.7v2.7h-2.7v8.2h-5.4v-8.2h-2.7v-2.7h-2.7v-10.9z"/><path class="st25" d="M-2116.6 1966v-7.9h-141.7v7.9h-8v45.6h8v7.9h141.7v-7.9h7.9V1966z"/><path class="st22" d="M-2116.6 1958.1v-7.9h-141.7v7.9h-8v45.6h8v7.9h141.7v-7.9h7.9v-45.6z"/><path class="st4" d="M-2220.1 1991.6h-5.4v-21.8h13.6v2.7h2.7v8.2h-2.7v2.7h-8.2v8.2zm0-13.6h5.4v-2.7h-5.4v2.7zm16.3 10.9h-2.7v-19h5.4v16.3h10.9v5.4h-13.6v-2.7zm21.7 2.7h-5.4v-19h2.7v-2.7h10.9v2.7h2.7v19h-5.4v-8.2h-5.4v8.2zm5.5-13.6v-2.7h-5.4v2.7h5.4zm8.2-8.2h5.4v8.2h5.4v-8.2h5.4v10.9h-2.7v2.7h-2.7v8.2h-5.4v-8.2h-2.7v-2.7h-2.7v-10.9z"/><path class="st26" d="M-3110.2 1720.4h43.2v108h43.2v-108h43.2V1850h-21.6v21.6h-21.6v21.6h-43.2v-21.6h-21.6V1850h-21.6v-129.6z"/><path class="st27" d="M-2959 1744.1h21.6v-21.6h108v43.2h-86.4v21.6h64.8v21.6h21.6v64.8h-21.6v21.6h-108v-43.2h86.4v-21.6h-64.8v-21.6h-21.6v-64.8z"/><path class="st28" d="M-3110.2 1699.4h43.2v108h43.2v-108h43.2V1829h-21.6v21.6h-21.6v21.6h-43.2v-21.6h-21.6V1829h-21.6v-129.6z"/><path class="st29" d="M-2959 1721h21.6v-21.6h108v43.2h-86.4v21.6h64.8v21.6h21.6v64.8h-21.6v21.6h-108V1829h86.4v-21.6h-64.8v-21.6h-21.6V1721z"/><path class="st0" d="M-3060.9 2078h27.5v68.7h27.5V2078h27.5v82.4h-13.7v13.7h-13.7v13.7h-27.5v-13.7h-13.7v-13.7h-13.7V2078zm96.2 15h13.7v-13.7h68.7v27.5h-54.9v13.7h41.2v13.7h13.7v41.2h-13.7v13.7h-68.7v-27.5h54.9V2148h-41.2v-13.7h-13.7V2093z"/><path class="st7" d="M-3060.9 2063.5h27.5v68.7h27.5v-68.7h27.5v82.4h-13.7v13.7h-13.7v13.7h-27.5v-13.7h-13.7v-13.7h-13.7v-82.4zm96.2 15h13.7v-13.7h68.7v27.5h-54.9v13.7h41.2v13.7h13.7v41.2h-13.7v13.7h-68.7v-27.5h54.9v-13.7h-41.2v-13.7h-13.7v-41.2z"/><path class="st4" d="M-3060.9 2050.1h27.5v68.7h27.5v-68.7h27.5v82.4h-13.7v13.7h-13.7v13.7h-27.5v-13.7h-13.7v-13.7h-13.7v-82.4zm96.2 13.7h13.7v-13.7h68.7v27.5h-54.9v13.7h41.2v13.7h13.7v41.2h-13.7v13.7h-68.7v-27.5h54.9v-13.7h-41.2V2105h-13.7v-41.2z"/><path class="st0" d="M-2486.4 1218.3h-21.6v-86.4h54v10.8h10.8v32.4h-10.8v10.8h-32.4v32.4zm0-54h21.6v-10.8h-21.6v10.8zm54-21.6h10.8v-10.8h43.2v10.8h10.8v64.8h-10.8v10.8h-43.2v-10.8h-10.8v-64.8zm21.6 54h21.6v-43.2h-21.6v43.2zm64.8 10.8h-10.8v-75.6h21.6v64.8h43.2v21.6h-54v-10.8z"/><path class="st0" d="M-2302.8 1131.9h21.6v32.4h21.6v-32.4h21.6v43.2h-10.8v10.8h-10.8v32.4h-21.6v-32.4h-10.8v-10.8h-10.8v-43.2z"/><path class="st30" d="M-2486.4 1209.9h-21.6v-86.4h54v10.8h10.8v32.4h-10.8v10.8h-32.4v32.4zm0-54h21.6v-10.8h-21.6v10.8zm54-21.6h10.8v-10.8h43.2v10.8h10.8v64.8h-10.8v10.8h-43.2v-10.8h-10.8v-64.8zm21.6 54h21.6v-43.2h-21.6v43.2zm64.8 10.8h-10.8v-75.6h21.6v64.8h43.2v21.6h-54v-10.8z"/><path class="st30" d="M-2302.8 1123.5h21.6v32.4h21.6v-32.4h21.6v43.2h-10.8v10.8h-10.8v32.4h-21.6v-32.4h-10.8v-10.8h-10.8v-43.2z"/><path class="st4" d="M-2486.4 1201.7h-21.6v-86.4h54v10.8h10.8v32.4h-10.8v10.8h-32.4v32.4zm0-54h21.6v-10.8h-21.6v10.8zm54-21.6h10.8v-10.8h43.2v10.8h10.8v64.8h-10.8v10.8h-43.2v-10.8h-10.8v-64.8zm21.6 54h21.6v-43.2h-21.6v43.2zm64.8 10.8h-10.8v-75.6h21.6v64.8h43.2v21.6h-54v-10.8z"/><path class="st4" d="M-2302.8 1115.3h21.6v32.4h21.6v-32.4h21.6v43.2h-10.8v10.8h-10.8v32.4h-21.6v-32.4h-10.8v-10.8h-10.8v-43.2z"/><image width="843" height="1118" xlink:href="4007500903D9FF2B.jpg" transform="matrix(.24 0 0 .24 -2717.534 1265.488)" overflow="visible"/><g class="st1"><path class="st0" d="M-2159.6 901.8v86.5h101.2v-11.6h-12.6V964h-12.7v-12.6h-12.6v-12.7h12.6v-12.6h12.7v-12.7h12.6v-11.6z"/><path class="st0" d="M-2144.8 963l-14.8 24.2V963z"/></g><path class="st0" d="M-2647.8 878.9h510.3v86.5h-510.3z"/><path class="st0" d="M-2171.2 956.9h112.8v31.6h-112.8z"/><g class="st1"><path class="st0" d="M-2639.9 902v86.4h-101.2v-11.6h12.6v-12.6h12.7v-12.7h12.6v-12.6h-12.6v-12.7h-12.7v-12.6h-12.6V902z"/><path class="st0" d="M-2654.7 963.1l14.8 24.3-.1-24.3z"/></g><path class="st2" d="M-2159.6 891.6V978h101.2v-11.6h-12.6v-12.6h-12.7v-12.7h-12.6v-12.6h12.6v-12.7h12.7v-12.7h12.6v-11.5z"/><path class="st3" d="M-2159.6 880v86.4h101.2v-11.6h-12.6v-12.6h-12.7v-12.7h-12.6v-12.6h12.6v-12.7h12.7v-12.6h12.6V880z"/><path class="st2" d="M-2144.8 952.7l-14.8 24.3v-24.3zm-495.6-61.1V978h-101.2v-11.6h12.6v-12.6h12.7v-12.7h12.6v-12.6h-12.6v-12.7h-12.7v-12.7h-12.6v-11.5z"/><path class="st3" d="M-2640.4 880v86.4h-101.2v-11.6h12.6v-12.6h12.7v-12.7h12.6v-12.6h-12.6v-12.7h-12.7v-12.6h-12.6V880z"/><path class="st2" d="M-2655.2 952.7l14.8 24.3-.1-24.3zm0-86.5h510.3v86.5h-510.3z"/><path class="st3" d="M-2655.2 853.6h510.3v86.5h-510.3z"/><path class="st25" d="M-2541 928.6h-37.4v-59.9h37.4v7.5h7.5v15h-7.5v15h7.5v15h-7.5v7.4zm-22.5-37.5h15v-7.5h-15v7.5zm0 22.5h15v-7.5h-15v7.5zm52.4 15h-15v-52.4h7.5v-7.5h30v7.5h7.5v52.4h-15v-22.5h-15v22.5zm15-37.5v-7.5h-15v7.5h15zm30 30h-7.5v-52.4h15v44.9h30v15h-37.4v-7.5zm52.4 0h-7.5v-52.4h15v44.9h30v15h-37.4v-7.5zm44.9-45h7.5v-7.5h30v7.5h7.5V921h-7.5v7.5h-30V921h-7.5v-44.9zm15 37.5h15v-30h-15v30zm37.4-37.5h7.5v-7.5h30v7.5h7.5V921h-7.5v7.5h-30V921h-7.5v-44.9zm15 37.5h15v-30h-15v30zm59.9-15h-7.5v30h-15v-59.9h15v7.5h7.5v7.5h7.5v-15h15v59.9h-15v-22.5h-7.5v-7.5z"/><path class="st22" d="M-2541 922.7h-37.4v-59.9h37.4v7.5h7.5v15h-7.5v15h7.5v15h-7.5v7.4zm-22.5-37.4h15v-7.5h-15v7.5zm0 22.5h15v-7.5h-15v7.5zm52.4 14.9h-15v-52.4h7.5v-7.5h30v7.5h7.5v52.4h-15v-22.5h-15v22.5zm15-37.4v-7.5h-15v7.5h15zm30 29.9h-7.5v-52.4h15v44.9h30v15h-37.4v-7.5zm52.4 0h-7.5v-52.4h15v44.9h30v15h-37.4v-7.5zm44.9-44.9h7.5v-7.5h30v7.5h7.5v44.9h-7.5v7.5h-30v-7.5h-7.5v-44.9zm15 37.5h15v-30h-15v30zm37.4-37.5h7.5v-7.5h30v7.5h7.5v44.9h-7.5v7.5h-30v-7.5h-7.5v-44.9zm15 37.5h15v-30h-15v30zm59.9-15h-7.5v30h-15v-59.9h15v7.5h7.5v7.5h7.5v-15h15v59.9h-15v-22.5h-7.5v-7.5z"/><path class="st0" d="M-2049.4 1075.3h20.7v6.9h-20.7v-6.9zm55.3 17.3h-6.9V1065h17.3v3.5h3.5v10.4h-3.5v3.5h-10.4v10.2zm0-17.3h6.9v-3.5h-6.9v3.5zm27.6 6.9h-3.5v10.4h-6.9V1065h17.3v3.5h3.5v10.4h-3.5v3.5h3.5v10.4h-6.9v-6.9h-3.5v-3.7zm-3.4-6.9h6.9v-3.5h-6.9v3.5zm20.7 13.8h-3.5v-20.7h3.5v-3.5h17.3v6.9h-13.8v3.5h6.9v6.9h-6.9v3.5h13.8v6.9h-17.3v-3.5zm20.8-20.7h3.5v-3.5h17.3v6.9h-13.8v3.5h10.4v3.5h3.5v10.4h-3.5v3.5h-17.3v-6.9h13.8v-3.5h-10.4v-3.5h-3.5v-10.4zm24.1 0h3.5v-3.5h17.3v6.9h-13.8v3.5h10.4v3.5h3.5v10.4h-3.5v3.5h-17.3v-6.9h13.8v-3.5h-10.4v-3.5h-3.5v-10.4zm55.3 24.2h-6.9v-24.2h3.5v-3.5h13.8v3.5h3.5v24.2h-6.9v-10.4h-6.9v10.4zm7-17.3v-3.5h-6.9v3.5h6.9zm20.7 3.4h-3.5v13.8h-6.9v-27.6h6.9v3.5h3.5v3.5h3.5v-6.9h6.9v27.6h-6.9v-10.4h-3.5v-3.5zm13.8-13.8h6.9v10.4h6.9v-10.4h6.9v13.8h-3.5v3.5h-3.5v10.4h-6.9v-10.4h-3.5v-3.5h-3.5v-13.8zm55.3 27.7h-6.9V1065h6.9v6.9h3.5v-3.5h3.5v-3.5h6.9v6.9h-3.5v3.5h-3.5v6.9h3.5v3.5h3.5v6.9h-6.9v-3.5h-3.5v-3.5h-3.5v7zm20.7-3.5h-3.5v-20.7h3.5v-3.5h17.3v6.9h-13.8v3.5h6.9v6.9h-6.9v3.5h13.8v6.9h-17.3v-3.5zm20.8-24.2h6.9v10.4h6.9v-10.4h6.9v13.8h-3.5v3.5h-3.5v10.4h-6.9v-10.4h-3.5v-3.5h-3.5v-13.8zm48.4 0h20.7v6.9h-6.9v20.7h-6.9v-20.7h-6.9v-6.9zm24.2 3.5h3.5v-3.5h13.8v3.5h3.5v20.7h-3.5v3.5h-13.8v-3.5h-3.5v-20.7zm6.9 17.2h6.9v-13.8h-6.9v13.8zm48.3 7h-6.9V1065h17.3v3.5h3.5v10.4h-3.5v3.5h-10.4v10.2zm0-17.3h6.9v-3.5h-6.9v3.5zm20.8 13.8h-3.5v-24.2h6.9v20.7h13.8v6.9h-17.3v-3.4zm27.6 3.5h-6.9v-24.2h3.5v-3.5h13.8v3.5h3.5v24.2h-6.9v-10.4h-6.9v10.4zm6.9-17.3v-3.5h-6.9v3.5h6.9zm10.4-10.4h6.9v10.4h6.9v-10.4h6.9v13.8h-3.5v3.5h-3.5v10.4h-6.9v-10.4h-3.5v-3.5h-3.5v-13.8zm48.4 10.4h20.7v6.9h-20.7v-6.9z"/><path class="st30" d="M-2050.3 1069.4h20.7v6.9h-20.7v-6.9zm55.3 17.3h-6.9V1059h17.3v3.5h3.5v10.4h-3.5v3.5h-10.4v10.3zm0-17.3h6.9v-3.5h-6.9v3.5zm27.7 6.9h-3.5v10.4h-6.9V1059h17.3v3.5h3.5v10.4h-3.5v3.5h3.5v10.4h-6.9v-6.9h-3.5v-3.6zm-3.5-6.9h6.9v-3.5h-6.9v3.5zm20.8 13.8h-3.5v-20.7h3.5v-3.5h17.3v6.9h-13.8v3.5h6.9v6.9h-6.9v3.5h13.8v6.9h-17.3v-3.5zm20.7-20.7h3.5v-3.5h17.3v6.9h-13.8v3.5h10.4v3.5h3.5v10.4h-3.5v3.5h-17.3v-6.9h13.8v-3.5h-10.4v-3.5h-3.5v-10.4zm24.2 0h3.5v-3.5h17.3v6.9h-13.8v3.5h10.4v3.5h3.5v10.4h-3.5v3.5h-17.3v-6.9h13.8v-3.5h-10.4v-3.5h-3.5v-10.4zm55.3 24.2h-6.9v-24.2h3.5v-3.5h13.8v3.5h3.5v24.2h-6.9v-10.4h-6.9v10.4zm6.9-17.3v-3.5h-6.9v3.5h6.9zm20.7 3.4h-3.5v13.8h-6.9V1059h6.9v3.5h3.5v3.5h3.5v-6.9h6.9v27.6h-6.9v-10.4h-3.5v-3.5zm13.8-13.8h6.9v10.4h6.9V1059h6.9v13.8h-3.5v3.5h-3.5v10.4h-6.9v-10.4h-3.5v-3.5h-3.5V1059zm55.3 27.7h-6.9V1059h6.9v6.9h3.5v-3.5h3.5v-3.5h6.9v6.9h-3.5v3.5h-3.5v6.9h3.5v3.5h3.5v6.9h-6.9v-3.5h-3.5v-3.5h-3.5v7.1zm20.8-3.5h-3.5v-20.7h3.5v-3.5h17.3v6.9h-13.8v3.5h6.9v6.9h-6.9v3.5h13.8v6.9h-17.3v-3.5zm20.7-24.2h6.9v10.4h6.9V1059h6.9v13.8h-3.5v3.5h-3.5v10.4h-6.9v-10.4h-3.5v-3.5h-3.5V1059zm48.4 0h20.7v6.9h-6.9v20.7h-6.9v-20.7h-6.9v-6.9zm24.2 3.5h3.5v-3.5h13.8v3.5h3.5v20.7h-3.5v3.5h-13.8v-3.5h-3.5v-20.7zm6.9 17.3h6.9V1066h-6.9v13.8zm48.4 6.9h-6.9V1059h17.3v3.5h3.5v10.4h-3.5v3.5h-10.4v10.3zm0-17.3h6.9v-3.5h-6.9v3.5zm20.7 13.8h-3.5V1059h6.9v20.7h13.8v6.9h-17.3v-3.4zm27.7 3.5h-6.9v-24.2h3.5v-3.5h13.8v3.5h3.5v24.2h-6.9v-10.4h-6.9v10.4zm6.9-17.3v-3.5h-6.9v3.5h6.9zm10.3-10.4h6.9v10.4h6.9V1059h6.9v13.8h-3.5v3.5h-3.5v10.4h-6.9v-10.4h-3.5v-3.5h-3.5V1059zm48.4 10.4h20.7v6.9h-20.7v-6.9z"/><path class="st4" d="M-2050.3 1065h20.7v6.9h-20.7v-6.9zm55.3 17.2h-6.9v-27.6h17.3v3.5h3.5v10.4h-3.5v3.5h-10.4v10.2zm0-17.2h6.9v-3.5h-6.9v3.5zm27.7 6.9h-3.5v10.4h-6.9v-27.6h17.3v3.5h3.5v10.4h-3.5v3.5h3.5v10.4h-6.9v-6.9h-3.5v-3.7zm-3.5-6.9h6.9v-3.5h-6.9v3.5zm20.8 13.8h-3.5v-20.7h3.5v-3.5h17.3v6.9h-13.8v3.5h6.9v6.9h-6.9v3.5h13.8v6.9h-17.3v-3.5zm20.7-20.7h3.5v-3.5h17.3v6.9h-13.8v3.5h10.4v3.5h3.5v10.4h-3.5v3.5h-17.3v-6.9h13.8v-3.5h-10.4v-3.5h-3.5v-10.4zm24.2 0h3.5v-3.5h17.3v6.9h-13.8v3.5h10.4v3.5h3.5v10.4h-3.5v3.5h-17.3v-6.9h13.8v-3.5h-10.4v-3.5h-3.5v-10.4zm55.3 24.1h-6.9V1058h3.5v-3.5h13.8v3.5h3.5v24.2h-6.9v-10.4h-6.9v10.4zm6.9-17.2v-3.5h-6.9v3.5h6.9zm20.7 3.4h-3.5v13.8h-6.9v-27.6h6.9v3.5h3.5v3.5h3.5v-6.9h6.9v27.6h-6.9v-10.4h-3.5v-3.5zm13.8-13.8h6.9v10.4h6.9v-10.4h6.9v13.8h-3.5v3.5h-3.5v10.4h-6.9v-10.4h-3.5v-3.5h-3.5v-13.8zm55.3 27.6h-6.9v-27.6h6.9v6.9h3.5v-3.5h3.5v-3.5h6.9v6.9h-3.5v3.5h-3.5v6.9h3.5v3.5h3.5v6.9h-6.9v-3.5h-3.5v-3.5h-3.5v7zm20.8-3.4h-3.5v-20.7h3.5v-3.5h17.3v6.9h-13.8v3.5h6.9v6.9h-6.9v3.5h13.8v6.9h-17.3v-3.5zm20.7-24.2h6.9v10.4h6.9v-10.4h6.9v13.8h-3.5v3.5h-3.5v10.4h-6.9v-10.4h-3.5v-3.5h-3.5v-13.8zm48.4 0h20.7v6.9h-6.9v20.7h-6.9v-20.7h-6.9v-6.9zm24.2 3.5h3.5v-3.5h13.8v3.5h3.5v20.7h-3.5v3.5h-13.8v-3.5h-3.5v-20.7zm6.9 17.2h6.9v-13.8h-6.9v13.8zm48.4 6.9h-6.9v-27.6h17.3v3.5h3.5v10.4h-3.5v3.5h-10.4v10.2zm0-17.2h6.9v-3.5h-6.9v3.5zm20.7 13.8h-3.5v-24.2h6.9v20.7h13.8v6.9h-17.3v-3.4zm27.7 3.4h-6.9V1058h3.5v-3.5h13.8v3.5h3.5v24.2h-6.9v-10.4h-6.9v10.4zm6.9-17.2v-3.5h-6.9v3.5h6.9zm10.3-10.4h6.9v10.4h6.9v-10.4h6.9v13.8h-3.5v3.5h-3.5v10.4h-6.9v-10.4h-3.5v-3.5h-3.5v-13.8zm48.4 10.4h20.7v6.9h-20.7v-6.9z"/><path class="st31" d="M711.5 362.9H-956.9v931.2H724.5V362.9h-13zm-12.9 56.5v829.5h-12.9v11.3h-12.9v11.3H-905.3v-11.3h-12.9v-11.3h-12.9V408.1h12.9v-11.3h12.9v-11.3H672.8v11.3h12.9v11.3h12.9v11.3z"/><path class="st32" d="M-568.4 5.6v-8.8h-366.7v83.5H-579v-8.7h10.6v-8.8h9.8V5.6z"/><path class="st31" d="M-568.9-3.1v-8.7h-377.2v8.7h-9.9v50.3h9.8v6.9h.1v8.8h10.5v8.7h356.1v-8.7h10.6v-8.8h9.8V-3.1z"/><path class="st13" d="M-1017.9 213h92.2v32.8h-92.2z"/><text transform="translate(-996.76 231.12)" class="st4" font-family="EditUndoBRK" font-size="31.543">DMG</text><path class="st22" d="M-818.1 247.3h254.7v-18h-254.7v5.2h-6.9v7.7h6.9v5.1z"/><path class="st22" d="M-554.8 234.5v-5.2h-55.6v18h55.6v-5.2h7v-7.6z"/><g class="st33"><path class="st34" d="M-174.5 460.5v-78h-89.9v10h-10.1v57.9h10.1v10.1zm235-69v-10h-92v78h92v-10.1h10.1v-57.9z"/><path class="st34" d="M-254.5 391.5h305v78h-305z"/></g><path class="st31" d="M-164.5 460.5v-78h-89.9v10h-10.1v57.9h10.1v10.1z"/><path class="st31" d="M-174.5 450.5v-78h-89.9v10h-10.1v57.9h10.1v10.1zm225-58v-10h-92v78h92v-10.1h10.1v-57.9z"/><path class="st31" d="M60.5 382.5v-10h-92v78h92v-10.1h10.1v-57.9zm-225 0h123v78h-123z"/><path class="st35" d="M-164.5 450.5v-78h-89.9v10h-10.1v57.9h10.1v10.1zm215-68v-10h-78v78h78v-10.1h10.1v-57.9z"/><g class="st33"><path class="st34" d="M-440.8 64.8V-5.1h-80.7v9h-9v51.9h9v9zM-230 3v-9h-82.6v69.9h82.6v-9h9V3z"/><path class="st34" d="M-512.6 2.9H-239v70h-273.6z"/></g><path class="st31" d="M-431.9 64.8V-5.1h-80.6v9h-9v51.9h9v9z"/><path class="st31" d="M-440.8 55.8v-69.9h-80.7v9h-9v51.9h9v9zM-239 3.9v-9h-82.5v69.9h82.5v-9h9V3.9z"/><path class="st31" d="M-230-5.1v-9h-82.6v69.9h82.6v-9h9V-5.1zm-201.9 0h110.3v70h-110.3z"/><path class="st35" d="M-431.9 55.8v-69.9h-80.6v9h-9v51.9h9v9zM-239-5.1v-9h-70v69.9h70v-9h9V-5.1z"/><path class="st35" d="M-179.5 372.5h169v78h-169zM-445.3-14.1h151.6v70h-151.6z"/><path class="st13" d="M-184.5 404.7h179v81.8h-179z"/><text transform="translate(-162.404 432.343)" class="st4" font-family="EditUndoBRK" font-size="48">124 KM</text><path class="st32" d="M701.1 382.5h8v2h-8zm-81 0v10h-10v57.9h9.9v10h.1v.1h9.9v10h55.1v-88z"/><path class="st31" d="M710.1 382.5v-10h-89.9v10h-10.1v57.9h10v10h.1v.1h10v10h89.9v-78z"/><path class="st2" d="M680.2 394h-37.9v5.3H637v37.8h5.3v5.4h37.9v-5.4h5.3v-37.8h-5.3z"/><path class="st3" d="M680.4 388.2h-38v5.4H637v38.1h5.4v5.3h38v-5.3h5.4v-38.1h-5.4z"/><path class="st4" d="M649.9 417.3h24.2v4.8h-24.2zm0-11.1h24.2v4.8h-24.2z"/><g class="st33"><path class="st36" d="M642.4 442.6v5h38v-5h-32.7zm-5.4-5.4h5.4v5H637zm43.4 0h5.4v5h-5.4z"/></g><path class="st32" d="M-40.2 12.8v-9h-8.9v-9H-157v9h-8.9v51.9h8.9v9.1h8.9v8.9h107.9v-9h8.9V12.8z"/><path class="st31" d="M-76.2-5.2v-9h-80.7v9h-9v52h9v9h9v9h80.7v-70z"/><path class="st2" d="M33.7 4.5H4.2v4.1H0v29.5h4.2v4.2h29.5v-4.2h4.1V8.6h-4.1z"/><path class="st3" d="M33.9 0H4.2v4.2H0v29.7h4.2v4.2h29.7v-4.2h4.2V4.2h-4.2z"/><path class="st4" d="M10.1 22.7H29v3.8H10.1zm0-8.7H29v3.8H10.1z"/><g class="st33"><path class="st36" d="M4.2 42.4v3.9h29.7v-3.9H8.4zM0 38.2h4.2v3.9H0zm33.9 0h4.2v3.9h-4.2z"/></g><path class="st22" d="M-791.5 129.7V126h-38.9v3.7h-4.7v5.5h4.7v3.7h38.9v-3.7h4.5v-5.5zm6.8-236.8v-3.8h-38.9v3.7h-4.8v5.5h4.8v3.7h38.9v-3.7h4.4v-5.4z"/><path class="st37" d="M-630.9-107.1v-3.8h-192.7v3.7h-4.8v5.5h4.8v3.7h192.7v-3.7h4.5v-5.4z"/><path class="st31" d="M920.1 1271.4h18.2v-11.3h12.9v-11.3h12.9v-24.6h25.8v69.8h-69.8z"/><path class="st31" d="M986.3 1224.3v18.2h11.3v12.9h11.3v12.9h24.7v25.8h-69.9v-69.8zm-52.1 47.1v18.2h11.3v12.9h11.3v12.9h24.6v25.8h-69.8v-69.8zm-81.3 0h-18.2v-11.3h-12.9v-11.3h-12.9v-24.6h-25.8v69.8h69.8z"/><path class="st31" d="M908.4 1318.7h-18.2v-11.3h-12.9v-11.3h-12.9v-24.7h-25.8v69.9h69.8zm-122.5-83.6v18.2h-11.3v12.9h-11.3v12.9h-24.7v25.8h69.9v-69.8z"/></svg>