<?xml version="1.0" encoding="utf-8"?>
<!-- Generator: Adobe Illustrator 22.0.1, SVG Export Plug-In . SVG Version: 6.00 Build 0)  -->
<svg version="1.1" id="Layer_1" xmlns="http://www.w3.org/2000/svg" xmlns:xlink="http://www.w3.org/1999/xlink" x="0px" y="0px"
	 width="157.5px" height="69.5px" viewBox="0 0 157.5 69.5" style="enable-background:new 0 0 157.5 69.5;" xml:space="preserve">
<style type="text/css">
	.st0{fill:#5895B7;}
	.st1{opacity:0.8;}
	.st2{fill:#C17620;}
	.st3{fill:#F4C24A;}
	.st4{fill:#FFFFFF;}
	.st5{fill:#2A6FBA;}
	.st6{fill:#4ABAEF;}
	.st7{fill:#95C9C8;}
	.st8{fill:#DDEFEE;}
	.st9{fill:#1B8E6F;}
	.st10{fill:#3CEA8A;}
	.st11{opacity:0.4;fill:#666666;}
	.st12{fill:#33BC6E;}
	.st13{fill:none;}
	.st14{fill:#7149A4;}
	.st15{fill:#BD86E0;}
	.st16{opacity:0.4;fill:#666666;stroke:#666666;stroke-width:4;stroke-linejoin:bevel;stroke-miterlimit:10;}
	.st17{fill:#F2F2F2;}
	.st18{fill:#E6E6E6;}
	.st19{fill:none;stroke:#000000;stroke-width:4;stroke-linejoin:bevel;stroke-miterlimit:10;}
	.st20{fill:#C6E0DE;}
	.st21{fill:#A7C6C3;}
	.st22{fill:#EE3D53;}
	.st23{fill:none;stroke:#000000;stroke-width:2;stroke-miterlimit:10;}
	.st24{fill:#A17559;}
	.st25{fill:#910E46;}
	.st26{fill:#238D6F;}
	.st27{fill:#704CA2;}
	.st28{fill:#47E88D;}
	.st29{fill:#BC88DE;}
</style>
<g>
	<rect x="531.2" y="243.9" class="st0" width="484" height="82"/>
	<rect x="983.2" y="317.9" class="st0" width="107" height="30"/>
	<g class="st1">
		<g>
			<polygon class="st0" points="547.2,263.9 547.2,345.9 451.2,345.9 451.2,334.9 463.2,334.9 463.2,322.9 475.2,322.9 475.2,310.9 
				487.2,310.9 487.2,298.9 475.2,298.9 475.2,286.9 463.2,286.9 463.2,274.9 451.2,274.9 451.2,263.9 			"/>
		</g>
		<polygon class="st0" points="533.2,321.9 547.2,344.9 547.2,321.9 		"/>
	</g>
	<g>
		<g>
			<polygon class="st2" points="994.2,255.9 994.2,337.9 1090.2,337.9 1090.2,326.9 1078.2,326.9 1078.2,314.9 1066.2,314.9 
				1066.2,302.9 1054.2,302.9 1054.2,290.9 1066.2,290.9 1066.2,278.9 1078.2,278.9 1078.2,266.9 1090.2,266.9 1090.2,255.9 			"/>
			<polygon class="st3" points="994.2,244.9 994.2,326.9 1090.2,326.9 1090.2,315.9 1078.2,315.9 1078.2,303.9 1066.2,303.9 
				1066.2,291.9 1054.2,291.9 1054.2,279.9 1066.2,279.9 1066.2,267.9 1078.2,267.9 1078.2,255.9 1090.2,255.9 1090.2,244.9 			"/>
		</g>
		<polygon class="st2" points="1008.2,313.9 994.2,336.9 994.3,313.9 		"/>
		<g>
			<g>
				<polygon class="st2" points="538.2,255.9 538.2,337.9 442.2,337.9 442.2,326.9 454.2,326.9 454.2,314.9 466.2,314.9 
					466.2,302.9 478.2,302.9 478.2,290.9 466.2,290.9 466.2,278.9 454.2,278.9 454.2,266.9 442.2,266.9 442.2,255.9 				"/>
				<polygon class="st3" points="538.2,244.9 538.2,326.9 442.2,326.9 442.2,315.9 454.2,315.9 454.2,303.9 466.2,303.9 
					466.2,291.9 478.2,291.9 478.2,279.9 466.2,279.9 466.2,267.9 454.2,267.9 454.2,255.9 442.2,255.9 442.2,244.9 				"/>
			</g>
			<polygon class="st2" points="524.2,313.9 538.2,336.9 538.2,313.9 			"/>
		</g>
		<g>
			<rect x="524.2" y="231.9" class="st2" width="484" height="82"/>
			<rect x="524.2" y="219.9" class="st3" width="484" height="82"/>
		</g>
	</g>
	<g>
		<path class="st4" d="M594.8,279.7h-8.6v-34.6h8.6v13h8.6v-13h8.6v34.6h-8.6v-13h-8.6V279.7z"/>
		<path class="st4" d="M616.4,249.5h4.3v-4.3H638v4.3h4.3v25.9H638v4.3h-17.3v-4.3h-4.3V249.5z M625.1,271.1h8.6v-17.3h-8.6V271.1z"
			/>
		<path class="st4" d="M655.3,279.7h-8.6v-34.6h8.6v17.3h4.3v-4.3h4.3v4.3h4.3v-17.3h8.6v34.6h-8.6v-4.3H664v-4.3h-4.3v4.3h-4.3
			V279.7z"/>
		<path class="st4" d="M711.5,245.2h25.9v8.6h-8.6v25.9h-8.6v-25.9h-8.6V245.2z"/>
		<path class="st4" d="M741.7,249.5h4.3v-4.3h17.3v4.3h4.3v25.9h-4.3v4.3H746v-4.3h-4.3V249.5z M750.4,271.1h8.6v-17.3h-8.6V271.1z"
			/>
		<path class="st4" d="M810.8,279.7h-8.6v-34.6h21.6v4.3h4.3v13h-4.3v4.3h-13V279.7z M810.8,258.1h8.6v-4.3h-8.6V258.1z"/>
		<path class="st4" d="M836.8,275.4h-4.3v-30.2h8.6v25.9h17.3v8.6h-21.6V275.4z"/>
		<path class="st4" d="M871.3,279.7h-8.6v-30.2h4.3v-4.3h17.3v4.3h4.3v30.2H880v-13h-8.6V279.7z M880,258.1v-4.3h-8.6v4.3H880z"/>
		<path class="st4" d="M892.9,245.2h8.6v13h8.6v-13h8.6v17.3h-4.3v4.3h-4.3v13h-8.6v-13h-4.3v-4.3h-4.3V245.2z"/>
	</g>
</g>
<polygon class="st5" points="700.2,512.9 688.2,512.9 615.2,512.9 615.2,524.9 603.2,524.9 603.2,609.9 615.2,609.9 615.2,621.9 
	688.2,621.9 700.2,621.9 700.2,609.9 712.2,609.9 712.2,524.9 700.2,524.9 "/>
<polygon class="st5" points="700.2,512.9 688.2,512.9 615.2,512.9 615.2,524.9 603.2,524.9 603.2,609.9 615.2,609.9 615.2,621.9 
	688.2,621.9 700.2,621.9 700.2,609.9 712.2,609.9 712.2,524.9 700.2,524.9 "/>
<g>
	<path class="st4" d="M639.8,547.2h28.4v5.7h5.7v17.1h-5.7v5.7h-17.1v-11.4h11.4v-5.7h-22.8V547.2z M651.2,581.3h11.4v11.4h-11.4
		V581.3z"/>
</g>
<polygon class="st5" points="851.2,512.9 839.2,512.9 766.2,512.9 766.2,524.9 754.2,524.9 754.2,609.9 766.2,609.9 766.2,621.9 
	839.2,621.9 851.2,621.9 851.2,609.9 863.2,609.9 863.2,524.9 851.2,524.9 "/>
<polygon class="st6" points="851.2,502.9 839.2,502.9 766.2,502.9 766.2,514.9 754.2,514.9 754.2,599.9 766.2,599.9 766.2,611.9 
	839.2,611.9 851.2,611.9 851.2,599.9 863.2,599.9 863.2,514.9 851.2,514.9 "/>
<g>
	<path class="st4" d="M790.8,537.2h28.4v5.7h5.7v17.1h-5.7v5.7h-17.1v-11.4h11.4v-5.7h-22.8V537.2z M802.2,571.3h11.4v11.4h-11.4
		V571.3z"/>
</g>
<g>
	<polygon class="st0" points="1886.2,357.5 1874.6,357.5 1874.6,345.8 1863.1,345.8 1863.1,333 1364.4,333 1364.4,345.8 
		1352.8,345.8 1352.8,357.5 1341.2,357.5 1341.2,1042.2 1352.8,1042.2 1352.8,1053.9 1364.4,1053.9 1364.4,1066.7 1863.1,1066.7 
		1863.1,1053.9 1874.6,1053.9 1874.6,1042.2 1886.2,1042.2 	"/>
	<polygon class="st7" points="1886.2,345.5 1874.6,345.5 1874.6,333.8 1863.1,333.8 1863.1,321 1364.4,321 1364.4,333.8 
		1352.8,333.8 1352.8,345.5 1341.2,345.5 1341.2,1030.2 1352.8,1030.2 1352.8,1041.8 1364.4,1041.8 1364.4,1054.6 1863.1,1054.6 
		1863.1,1041.8 1874.6,1041.8 1874.6,1030.2 1886.2,1030.2 	"/>
	<polygon class="st8" points="1886.2,333.4 1874.6,333.4 1874.6,321.8 1863.1,321.8 1863.1,309 1364.4,309 1364.4,321.8 
		1352.8,321.8 1352.8,333.4 1341.2,333.4 1341.2,1018.2 1352.8,1018.2 1352.8,1029.8 1364.4,1029.8 1364.4,1042.6 1863.1,1042.6 
		1863.1,1029.8 1874.6,1029.8 1874.6,1018.2 1886.2,1018.2 	"/>
</g>
<g>
	<polygon class="st9" points="837.2,-7 827.2,-7 452.3,-7 452.3,3 442.2,3 442.2,60.9 452.3,60.9 452.3,71 827.2,71 837.2,71 
		837.2,60.9 847.3,60.9 847.3,3 837.2,3 	"/>
	<polygon class="st10" points="837.2,-17 827.2,-17 452.3,-17 452.3,-7 442.2,-7 442.2,50.9 452.3,50.9 452.3,61 827.2,61 837.2,61 
		837.2,50.9 847.3,50.9 847.3,-7 837.2,-7 	"/>
	<g>
		<path class="st4" d="M562.3,33.9h-6.9V6.2h17.3v3.5h3.5V20h-3.5v3.5h-10.4V33.9z M562.3,16.6h6.9v-3.5h-6.9V16.6z"/>
		<path class="st4" d="M583,30.4h-3.5V6.2h6.9v20.7h13.8v6.9H583V30.4z"/>
		<path class="st4" d="M610.7,33.9h-6.9V9.7h3.5V6.2H621v3.5h3.5v24.2h-6.9V23.5h-6.9V33.9z M617.6,16.6v-3.5h-6.9v3.5H617.6z"/>
		<path class="st4" d="M627.9,6.2h6.9v10.4h6.9V6.2h6.9V20h-3.5v3.5h-3.5v10.4h-6.9V23.5h-3.5V20h-3.5V6.2z"/>
		<path class="st4" d="M655.6,30.4h-3.5V9.7h3.5V6.2h17.3v6.9H659v3.5h6.9v6.9H659v3.5h13.8v6.9h-17.3V30.4z"/>
		<path class="st4" d="M686.7,23.5h-3.5v10.4h-6.9V6.2h17.3v3.5h3.5V20h-3.5v3.5h3.5v10.4h-6.9v-6.9h-3.5V23.5z M683.2,16.6h6.9
			v-3.5h-6.9V16.6z"/>
		<path class="st4" d="M724.7,6.2h6.9v27.6h-6.9V6.2z"/>
	</g>
</g>
<g>
	<polygon class="st11" points="476.4,-127.6 474.4,-133.4 470.4,-145.4 452.6,-139.4 454.5,-133.6 448.8,-131.7 452.8,-119.6 
		458.6,-121.6 460.6,-115.8 472.6,-119.9 470.6,-125.7 	"/>
	<polygon class="st11" points="515.2,-139.7 513.2,-145.4 509.2,-157.5 491.4,-151.4 493.3,-145.7 487.6,-143.7 491.6,-131.7 
		497.4,-133.7 499.4,-127.9 511.4,-132 509.4,-137.7 	"/>
	<rect x="455.6" y="-186.6" transform="matrix(0.9472 -0.3207 0.3207 0.9472 77.9302 138.4341)" width="7.1" height="38.6"/>
	<polygon points="474.8,-132.4 472.8,-138.2 468.7,-150.2 451,-144.2 452.9,-138.4 447.1,-136.5 451.2,-124.4 457,-126.4 
		458.9,-120.6 471,-124.7 469,-130.5 	"/>
	<rect x="494.1" y="-199.7" transform="matrix(0.9472 -0.3207 0.3207 0.9472 84.1402 150.0838)" width="7.1" height="38.6"/>
	<polygon points="513.2,-145.4 511.3,-151.2 507.2,-163.2 489.4,-157.2 491.4,-151.4 485.6,-149.5 489.7,-137.5 495.4,-139.4 
		497.4,-133.7 509.4,-137.7 507.5,-143.5 	"/>
	<rect x="445.6" y="-208.9" transform="matrix(0.9472 -0.3207 0.3207 0.9472 89.0444 139.9896)" width="47.7" height="17.3"/>
</g>
<g>
	<polygon class="st11" points="542.6,-94 543.5,-98.2 545.4,-106.8 532.6,-109.6 531.7,-105.5 527.6,-106.4 525.7,-97.8 
		529.8,-96.8 528.9,-92.7 537.5,-90.8 538.5,-94.9 	"/>
	<polygon class="st11" points="570.1,-87.3 571,-91.4 572.9,-100 560.1,-102.9 559.2,-98.7 555.1,-99.6 553.2,-91 557.3,-90.1 
		556.4,-85.9 565.1,-84 566,-88.2 	"/>
	<rect x="544.2" y="-137.4" transform="matrix(0.9766 0.2149 -0.2149 0.9766 -13.866 -120.3652)" width="5" height="26.9"/>
	<polygon points="543.4,-97.5 544.3,-101.6 546.2,-110.3 533.4,-113.1 532.5,-108.9 528.3,-109.9 526.4,-101.2 530.6,-100.3 
		529.7,-96.2 538.3,-94.3 539.2,-98.4 	"/>
	<rect x="571.8" y="-131.3" transform="matrix(0.9766 0.2149 -0.2149 0.9766 -11.9119 -126.1671)" width="5" height="26.9"/>
	<polygon points="571,-91.4 571.9,-95.6 573.8,-104.2 561.1,-107 560.1,-102.9 556,-103.8 554.1,-95.1 558.2,-94.2 557.3,-90.1 
		566,-88.2 566.9,-92.3 	"/>
	<rect x="548" y="-145.9" transform="matrix(0.9766 0.2149 -0.2149 0.9766 -16.8778 -124.6096)" width="33.3" height="12"/>
</g>
<g>
	<polygon class="st11" points="618.6,-155.8 617.9,-158.9 616.5,-165.2 607.1,-163.1 607.8,-160.1 604.8,-159.4 606.2,-153.1 
		609.2,-153.7 609.9,-150.7 616.3,-152.1 615.6,-155.2 	"/>
	<polygon class="st11" points="639,-159.8 638.4,-162.9 637,-169.2 627.6,-167.1 628.2,-164.1 625.2,-163.4 626.6,-157.1 
		629.7,-157.8 630.3,-154.7 636.7,-156.1 636,-159.2 	"/>
	<rect x="610.2" y="-186.9" transform="matrix(0.9761 -0.2173 0.2173 0.9761 53.0854 128.7609)" width="3.6" height="19.8"/>
	<polygon points="618.1,-158.4 617.4,-161.4 616,-167.8 606.6,-165.7 607.3,-162.6 604.2,-161.9 605.6,-155.6 608.7,-156.3 
		609.3,-153.2 615.7,-154.6 615,-157.7 	"/>
	<rect x="630.5" y="-191.4" transform="matrix(0.9761 -0.2173 0.2173 0.9761 54.5529 133.0657)" width="3.6" height="19.8"/>
	<polygon points="638.4,-162.9 637.7,-165.9 636.3,-172.3 626.9,-170.2 627.6,-167.1 624.5,-166.5 625.9,-160.1 629,-160.8 
		629.7,-157.8 636,-159.2 635.3,-162.2 	"/>
	<rect x="606.9" y="-197.7" transform="matrix(0.9761 -0.2173 0.2173 0.9761 56.7786 129.9044)" width="24.4" height="8.8"/>
</g>
<g>
	<polygon class="st11" points="639.2,-110.1 641.8,-114.2 647.3,-122.7 634.6,-130.8 632,-126.7 627.9,-129.3 622.4,-120.7 
		626.6,-118.1 623.9,-114 632.5,-108.6 635.1,-112.7 	"/>
	<polygon class="st11" points="666.2,-92 668.8,-96.1 674.3,-104.6 661.6,-112.7 659,-108.6 654.9,-111.2 649.4,-102.6 653.5,-100 
		650.9,-95.9 659.5,-90.5 662.1,-94.6 	"/>
	<rect x="652.5" y="-156.2" transform="matrix(0.844 0.5363 -0.5363 0.844 26.7455 -373.4218)" width="5.7" height="30.9"/>
	<polygon points="641.4,-113.5 644,-117.6 649.5,-126.2 636.8,-134.2 634.2,-130.1 630.1,-132.7 624.6,-124.2 628.7,-121.6 
		626.1,-117.4 634.7,-112 637.3,-116.1 	"/>
	<rect x="679.9" y="-138.7" transform="matrix(0.844 0.5363 -0.5363 0.844 40.3699 -385.4126)" width="5.7" height="30.9"/>
	<polygon points="668.8,-96.1 671.5,-100.2 676.9,-108.8 664.2,-116.8 661.6,-112.7 657.5,-115.3 652,-106.7 656.2,-104.1 
		653.5,-100 662.1,-94.6 664.7,-98.7 	"/>
	<rect x="662" y="-157.8" transform="matrix(0.844 0.5363 -0.5363 0.844 25.314 -388.784)" width="38.2" height="13.8"/>
</g>
<g>
	<polygon class="st9" points="360.5,-550.5 353.9,-550.5 107.5,-550.5 107.5,-543.9 100.9,-543.9 100.9,-505.8 107.5,-505.8 
		107.5,-499.2 353.9,-499.2 360.5,-499.2 360.5,-505.8 367.1,-505.8 367.1,-543.9 360.5,-543.9 	"/>
	<polygon class="st12" points="360.5,-550.5 353.9,-550.5 107.5,-550.5 107.5,-543.9 100.9,-543.9 100.9,-505.8 107.5,-505.8 
		107.5,-499.2 353.9,-499.2 360.5,-499.2 360.5,-505.8 367.1,-505.8 367.1,-543.9 360.5,-543.9 	"/>
	<g>
		<path class="st4" d="M167.3-532.9h2.3v-2.3h11.4v4.5h-9.1v9.1h9.1v4.5h-11.4v-2.3h-2.3V-532.9z"/>
		<path class="st4" d="M187.7-517h-4.5v-15.9h2.3v-2.3h9.1v2.3h2.3v15.9h-4.5v-6.8h-4.5V-517z M192.3-528.4v-2.3h-4.5v2.3H192.3z"/>
		<path class="st4" d="M201.4-519.3h-2.3v-15.9h4.5v13.6h9.1v4.5h-11.4V-519.3z"/>
		<path class="st4" d="M215-535.2h4.5v18.2H215V-535.2z"/>
		<path class="st4" d="M221.8-535.2h11.4v2.3h2.3v13.6h-2.3v2.3h-11.4V-535.2z M226.3-528.4h4.5v-2.3h-4.5V-528.4z M226.3-521.6h4.5
			v-2.3h-4.5V-521.6z"/>
		<path class="st4" d="M244.5-523.9h-2.3v6.8h-4.5v-15.9h2.3v-2.3h9.1v2.3h2.3v6.8h-2.3v2.3h2.3v6.8h-4.5v-4.5h-2.3V-523.9z
			 M242.2-528.4h4.5v-2.3h-4.5V-528.4z"/>
		<path class="st4" d="M258.1-517h-4.5v-15.9h2.3v-2.3h9.1v2.3h2.3v15.9h-4.5v-6.8h-4.5V-517z M262.7-528.4v-2.3h-4.5v2.3H262.7z"/>
		<path class="st4" d="M269.5-535.2h13.6v4.5h-4.5v13.6H274v-13.6h-4.5V-535.2z"/>
		<path class="st4" d="M287.7-519.3h-2.3v-13.6h2.3v-2.3H299v4.5h-9.1v2.3h4.5v4.5h-4.5v2.3h9.1v4.5h-11.4V-519.3z"/>
	</g>
</g>
<g>
	<polygon class="st9" points="680.5,-482.5 673.9,-482.5 427.5,-482.5 427.5,-475.9 420.9,-475.9 420.9,-437.8 427.5,-437.8 
		427.5,-431.2 673.9,-431.2 680.5,-431.2 680.5,-437.8 687.1,-437.8 687.1,-475.9 680.5,-475.9 	"/>
	<polygon class="st10" points="680.5,-489.1 673.9,-489.1 427.5,-489.1 427.5,-482.4 420.9,-482.4 420.9,-444.4 427.5,-444.4 
		427.5,-437.8 673.9,-437.8 680.5,-437.8 680.5,-444.4 687.1,-444.4 687.1,-482.4 680.5,-482.4 	"/>
	<g>
		<path class="st4" d="M487.3-471.5h2.3v-2.3h11.4v4.5h-9.1v9.1h9.1v4.5h-11.4v-2.3h-2.3V-471.5z"/>
		<path class="st4" d="M507.7-455.6h-4.5v-15.9h2.3v-2.3h9.1v2.3h2.3v15.9h-4.5v-6.8h-4.5V-455.6z M512.3-467v-2.3h-4.5v2.3H512.3z"
			/>
		<path class="st4" d="M521.4-457.9h-2.3v-15.9h4.5v13.6h9.1v4.5h-11.4V-457.9z"/>
		<path class="st4" d="M535-473.8h4.5v18.2H535V-473.8z"/>
		<path class="st4" d="M541.8-473.8h11.4v2.3h2.3v13.6h-2.3v2.3h-11.4V-473.8z M546.3-467h4.5v-2.3h-4.5V-467z M546.3-460.2h4.5
			v-2.3h-4.5V-460.2z"/>
		<path class="st4" d="M564.5-462.4h-2.3v6.8h-4.5v-15.9h2.3v-2.3h9.1v2.3h2.3v6.8h-2.3v2.3h2.3v6.8h-4.5v-4.5h-2.3V-462.4z
			 M562.2-467h4.5v-2.3h-4.5V-467z"/>
		<path class="st4" d="M578.1-455.6h-4.5v-15.9h2.3v-2.3h9.1v2.3h2.3v15.9h-4.5v-6.8h-4.5V-455.6z M582.7-467v-2.3h-4.5v2.3H582.7z"
			/>
		<path class="st4" d="M589.5-473.8h13.6v4.5h-4.5v13.6H594v-13.6h-4.5V-473.8z"/>
		<path class="st4" d="M607.7-457.9h-2.3v-13.6h2.3v-2.3H619v4.5h-9.1v2.3h4.5v4.5h-4.5v2.3h9.1v4.5h-11.4V-457.9z"/>
	</g>
</g>
<g>
	<rect x="422.5" y="-400.1" class="st9" width="219.8" height="28.8"/>
	<rect x="417.7" y="-406.7" class="st9" width="229.4" height="30.6"/>
	<polygon class="st10" points="417.7,-411.1 417.7,-381.8 422.5,-381.8 422.5,-376.1 642.2,-376.1 642.2,-381.8 647,-381.8 
		647,-411.1 	"/>
</g>
<polygon class="st9" points="637.5,-396.2 637.5,-401.3 632.4,-401.3 632.4,-401.4 575.7,-401.4 545.1,-401.4 519.5,-401.4 
	495.7,-401.4 432.3,-401.4 432.3,-401.3 427.2,-401.3 427.2,-396.2 422.1,-396.2 422.1,-388.6 427.2,-388.6 427.2,-383.5 
	432.3,-383.5 432.3,-383.4 495.7,-383.4 519.5,-383.4 545.1,-383.4 575.7,-383.4 632.4,-383.4 632.4,-383.5 637.5,-383.5 
	637.5,-388.5 642.5,-388.5 642.5,-396.2 "/>
<g>
	<rect x="413.5" y="-302.1" class="st13" width="4.7" height="0.1"/>
	<rect x="413.5" y="-284.2" class="st13" width="4.7" height="0.1"/>
	<polygon class="st4" points="434.6,-284.2 434.6,-289.3 439.6,-289.3 439.6,-296.9 434.6,-296.9 434.6,-302 429.5,-302 
		429.5,-302.1 418.3,-302.1 418.3,-302.1 413.5,-302.1 413.5,-284.2 418.3,-284.2 418.3,-284.1 429.5,-284.1 429.5,-284.2 	"/>
</g>
<g>
	<polygon class="st4" points="387.7,-337.7 387.7,-342.8 382.6,-342.8 382.6,-342.9 366.7,-342.9 366.7,-324.9 382.6,-324.9 
		382.6,-324.9 387.7,-324.9 387.7,-330 392.8,-330 392.8,-337.7 	"/>
	<polygon class="st4" points="374.2,-298.8 374.2,-303.9 374.2,-303.9 374.2,-304 369.7,-304 369.1,-304 364.6,-304 364.6,-303.9 
		364.6,-303.9 364.6,-298.9 359.5,-298.9 359.5,-291.2 364.6,-291.2 364.6,-286.1 364.6,-286.1 364.6,-286 369.1,-286 369.7,-286 
		374.2,-286 374.2,-286.1 374.2,-286.1 374.2,-291.2 379.3,-291.2 379.3,-298.8 	"/>
</g>
<polygon class="st4" points="324.4,-396.2 324.4,-401.3 324.4,-401.3 324.4,-401.4 319.9,-401.4 319.3,-401.4 314.8,-401.4 
	314.8,-401.3 314.8,-401.3 314.8,-396.2 309.7,-396.2 309.7,-388.6 314.8,-388.6 314.8,-383.5 314.8,-383.5 314.8,-383.4 
	319.3,-383.4 319.9,-383.4 324.4,-383.4 324.4,-383.5 324.4,-383.5 324.4,-388.5 329.5,-388.5 329.5,-396.2 "/>
<polygon class="st14" points="1290.2,-7 1280.2,-7 905.3,-7 905.3,3 895.2,3 895.2,60.9 905.3,60.9 905.3,71 1280.2,71 1290.2,71 
	1290.2,60.9 1300.3,60.9 1300.3,3 1290.2,3 "/>
<polygon class="st15" points="1290.2,-17 1280.2,-17 905.3,-17 905.3,-7 895.2,-7 895.2,50.9 905.3,50.9 905.3,61 1280.2,61 
	1290.2,61 1290.2,50.9 1300.3,50.9 1300.3,-7 1290.2,-7 "/>
<g>
	<path class="st4" d="M1007.9,33.9h-6.9V6.2h17.3v3.5h3.5V20h-3.5v3.5h-10.4V33.9z M1007.9,16.6h6.9v-3.5h-6.9V16.6z"/>
	<path class="st4" d="M1028.6,30.4h-3.5V6.2h6.9v20.7h13.8v6.9h-17.3V30.4z"/>
	<path class="st4" d="M1056.2,33.9h-6.9V9.7h3.5V6.2h13.8v3.5h3.5v24.2h-6.9V23.5h-6.9V33.9z M1063.2,16.6v-3.5h-6.9v3.5H1063.2z"/>
	<path class="st4" d="M1073.5,6.2h6.9v10.4h6.9V6.2h6.9V20h-3.5v3.5h-3.5v10.4h-6.9V23.5h-3.5V20h-3.5V6.2z"/>
	<path class="st4" d="M1101.2,30.4h-3.5V9.7h3.5V6.2h17.3v6.9h-13.8v3.5h6.9v6.9h-6.9v3.5h13.8v6.9h-17.3V30.4z"/>
	<path class="st4" d="M1132.3,23.5h-3.5v10.4h-6.9V6.2h17.3v3.5h3.5V20h-3.5v3.5h3.5v10.4h-6.9v-6.9h-3.5V23.5z M1128.8,16.6h6.9
		v-3.5h-6.9V16.6z"/>
	<path class="st4" d="M1170.3,6.2h17.3v3.5h3.5V20h-3.5v3.5h-10.4v3.5h13.8v6.9h-20.7V20h3.5v-3.5h10.4v-3.5h-13.8V6.2z"/>
</g>
<g>
	<rect x="916.2" y="-13" class="st4" width="45.1" height="5.7"/>
	<rect x="967.5" y="-13" class="st4" width="5.7" height="5.7"/>
</g>
<g>
	<rect x="461.7" y="-12" class="st4" width="45.1" height="5.7"/>
	<rect x="513" y="-12" class="st4" width="5.7" height="5.7"/>
</g>
<polygon class="st16" points="850.8,-172 857.2,-166.4 851.6,-160 872.1,-142.7 872.1,-104.8 892.8,-130.9 924.6,-101.5 
	930.4,-107.7 935.4,-103.1 1007,-221.8 "/>
<polygon class="st17" points="848.4,-179.1 854.8,-173.5 849.2,-167.1 869.6,-149.8 869.6,-111.9 890.3,-138 922.1,-108.6 
	927.9,-114.9 932.9,-110.2 1004.5,-228.9 "/>
<polygon class="st18" points="890.4,-138.2 1004.8,-229 869.7,-150 869.7,-112.1 "/>
<polygon class="st19" points="847.3,-179 853.7,-173.4 848.1,-167 868.5,-149.6 868.5,-111.7 889.3,-137.8 921,-108.5 926.9,-114.7 
	931.8,-110.1 1003.5,-228.8 "/>
<g>
	<polygon class="st20" points="783.2,-485.7 783.2,-322.1 793.5,-322.1 793.5,-312.6 803.9,-312.6 803.9,-302.1 1251.4,-302.1 
		1251.4,-312.6 1261.8,-312.6 1261.8,-322.1 1272.2,-322.1 1272.2,-485.7 	"/>
	<polygon class="st20" points="1272.2,-485.7 1272.2,-579.8 1261.8,-579.8 1261.8,-589.4 1251.4,-589.4 1251.4,-599.8 803.9,-599.8 
		803.9,-589.4 793.5,-589.4 793.5,-579.8 783.2,-579.8 783.2,-485.7 	"/>
</g>
<g>
	<polygon class="st21" points="793.5,-583.2 803.9,-583.2 803.9,-591.2 793.5,-591.2 793.5,-583.3 783.2,-583.3 783.2,-575.3 
		793.5,-575.3 	"/>
	<rect x="803.9" y="-599.9" class="st21" width="447.5" height="8"/>
	<polygon class="st21" points="1261.8,-583.3 1261.8,-591.2 1251.4,-591.2 1251.4,-583.2 1261.8,-583.2 1261.8,-575.3 
		1272.2,-575.3 1272.2,-583.3 	"/>
</g>
<g>
	<g>
		<g>
			<rect x="390" y="-664.2" width="10.2" height="10.2"/>
		</g>
	</g>
	<g>
		<g>
			<path d="M451.5-674.5v5.1h-5.1v5.1h5.1v20.5h5.1v5.1h-5.1v5.1h5.1h5.1v-10.2h15.4v5.1h5.1v-5.1v-30.7H451.5z M477.1-648.9h-20.5
				v-20.5h20.5V-648.9z"/>
		</g>
	</g>
	<g>
		<g>
			<rect x="461.7" y="-664.2" width="10.2" height="10.2"/>
		</g>
	</g>
	<g>
		<g>
			<rect x="390" y="-592.5" width="10.2" height="10.2"/>
		</g>
	</g>
	<g>
		<g>
			<rect x="451.5" y="-602.8" width="5.1" height="5.1"/>
		</g>
	</g>
	<g>
		<g>
			<rect x="425.9" y="-577.2" width="5.1" height="5.1"/>
		</g>
	</g>
	<g>
		<g>
			<rect x="431" y="-597.6" width="5.1" height="5.1"/>
		</g>
	</g>
	<g>
		<g>
			<rect x="431" y="-587.4" width="5.1" height="5.1"/>
		</g>
	</g>
	<g>
		<g>
			<rect x="477.1" y="-613" width="5.1" height="5.1"/>
		</g>
	</g>
	<g>
		<g>
			<rect x="379.8" y="-613" width="5.1" height="5.1"/>
		</g>
	</g>
	<g>
		<g>
			<rect x="379.8" y="-638.6" width="5.1" height="5.1"/>
		</g>
	</g>
	<g>
		<g>
			<polygon points="436.1,-669.3 436.1,-664.2 425.9,-664.2 425.9,-659.1 441.2,-659.1 441.2,-664.2 441.2,-669.3 			"/>
		</g>
	</g>
	<g>
		<g>
			<path d="M477.1-633.5v5.1h-10.2v5.1h-15.4v-5.1h-5.1v5.1h-10.2v5.1h15.4v5.1h-10.2h-5.1v-5.1H431v5.1h-5.1v-5.1h-5.1v5.1h-5.1
				v5.1h10.2v5.1h5.1v-5.1h10.2v5.1h-5.1v5.1h5.1v10.2h5.1v5.1h5.1v-5.1h15.4v-10.2h5.1v-5.1h-5.1V-613h-10.2v-5.1h10.2v5.1h5.1
				v-5.1h5.1v-5.1h5.1v-5.1v-5.1H477.1L477.1-633.5z M461.7-607.9v15.4h-15.4v-15.4H461.7z"/>
		</g>
	</g>
	<g>
		<g>
			<polygon points="446.3,-643.7 441.2,-643.7 441.2,-638.6 436.1,-638.6 436.1,-633.5 436.1,-628.4 441.2,-628.4 441.2,-633.5 
				446.3,-633.5 446.3,-638.6 451.5,-638.6 451.5,-643.7 			"/>
		</g>
	</g>
	<g>
		<g>
			<rect x="436.1" y="-577.2" width="10.2" height="5.1"/>
		</g>
	</g>
	<g>
		<g>
			<rect x="420.7" y="-669.3" width="5.1" height="5.1"/>
		</g>
	</g>
	<g>
		<g>
			<rect x="461.7" y="-633.5" width="5.1" height="5.1"/>
		</g>
	</g>
	<g>
		<g>
			<rect x="466.8" y="-638.6" width="5.1" height="5.1"/>
		</g>
	</g>
	<g>
		<g>
			<rect x="400.2" y="-613" width="5.1" height="5.1"/>
		</g>
	</g>
	<g>
		<g>
			<path d="M410.5-577.2v-20.5h5.1v-5.1v-5.1h-5.1v5.1h-15.4v-5.1H390h-5.1v5.1h-5.1v30.7h30.7h10.2v-5.1H410.5z M405.4-577.2h-20.5
				v-20.5h20.5V-577.2z"/>
		</g>
	</g>
	<g>
		<g>
			<rect x="410.5" y="-643.7" width="5.1" height="5.1"/>
		</g>
	</g>
	<g>
		<g>
			<path d="M415.6-674.5h-5.1h-30.7v30.7h5.1v5.1h5.1v-5.1h5.1v5.1h5.1v-5.1h10.2V-654h5.1v-5.1h-5.1v-10.2h5.1h5.1v-5.1H415.6z
				 M405.4-648.9h-20.5v-20.5h20.5V-648.9z"/>
		</g>
	</g>
	<g>
		<g>
			<rect x="441.2" y="-659.1" width="5.1" height="5.1"/>
		</g>
	</g>
	<g>
		<g>
			<rect x="431" y="-674.5" width="5.1" height="5.1"/>
		</g>
	</g>
	<g>
		<g>
			<path d="M441.2-643.7v-5.1h-5.1v-5.1H431v5.1h-10.2v-5.1h-5.1v5.1v5.1h5.1v10.2h-15.4v-5.1h-5.1v5.1h-15.4v5.1h10.2v5.1h-15.4
				v5.1h15.4v5.1h5.1v-5.1h5.1v5.1h5.1v-5.1h10.2v-5.1h-5.1v-5.1h5.1h5.1v5.1h5.1h5.1v-5.1H431v-5.1h-5.1v-10.2H441.2L441.2-643.7z
				 M410.5-623.2h-10.2v-5.1h10.2V-623.2z"/>
		</g>
	</g>
	<g>
		<g>
			<polygon points="425.9,-592.5 425.9,-597.6 425.9,-602.8 420.7,-602.8 420.7,-597.6 415.6,-597.6 415.6,-592.5 420.7,-592.5 
				420.7,-587.4 415.6,-587.4 415.6,-582.3 425.9,-582.3 425.9,-587.4 431,-587.4 431,-592.5 			"/>
		</g>
	</g>
	<g>
		<g>
			<polygon points="471.9,-582.3 471.9,-587.4 466.8,-587.4 466.8,-582.3 451.5,-582.3 451.5,-577.2 461.7,-577.2 461.7,-572 
				466.8,-572 466.8,-577.2 477.1,-577.2 477.1,-572 482.2,-572 482.2,-577.2 482.2,-582.3 			"/>
		</g>
	</g>
	<g>
		<g>
			<polygon points="477.1,-602.8 477.1,-597.6 471.9,-597.6 471.9,-592.5 482.2,-592.5 482.2,-597.6 482.2,-602.8 			"/>
		</g>
	</g>
</g>
<g>
	<g>
		<polygon class="st9" points="151.7,-258.3 148,-258.3 10.8,-258.3 10.8,-254.6 7.1,-254.6 7.1,-233.5 10.8,-233.5 10.8,-229.8 
			148,-229.8 151.7,-229.8 151.7,-233.5 155.3,-233.5 155.3,-254.6 151.7,-254.6 		"/>
		<polygon class="st12" points="151.7,-258.3 148,-258.3 10.8,-258.3 10.8,-254.6 7.1,-254.6 7.1,-233.5 10.8,-233.5 10.8,-229.8 
			148,-229.8 151.7,-229.8 151.7,-233.5 155.3,-233.5 155.3,-254.6 151.7,-254.6 		"/>
		<g>
			<path class="st4" d="M39-243.5h-1.3v3.8h-2.5v-10.1h6.3v1.3h1.3v3.8h-1.3v1.3h1.3v3.8h-2.5v-2.5H39V-243.5z M37.8-246h2.5v-1.3
				h-2.5V-246z"/>
			<path class="st4" d="M45.3-241h-1.3v-7.6h1.3v-1.3h6.3v2.5h-5.1v1.3h2.5v2.5h-2.5v1.3h5.1v2.5h-6.3V-241z"/>
			<path class="st4" d="M54.2-241h-1.3v-7.6h1.3v-1.3h5.1v1.3h1.3v2.5H58v-1.3h-2.5v5.1H58v-1.3h2.5v2.5h-1.3v1.3h-5.1V-241z"/>
			<path class="st4" d="M64.3-239.7h-2.5v-8.9h1.3v-1.3h5.1v1.3h1.3v8.9h-2.5v-3.8h-2.5V-239.7z M66.8-246v-1.3h-2.5v1.3H66.8z"/>
			<path class="st4" d="M71.9-241h-1.3v-8.9h2.5v7.6h5.1v2.5h-6.3V-241z"/>
			<path class="st4" d="M79.5-249.8H82v10.1h-2.5V-249.8z"/>
			<path class="st4" d="M83.3-249.8h6.3v1.3h1.3v7.6h-1.3v1.3h-6.3V-249.8z M85.8-246h2.5v-1.3h-2.5V-246z M85.8-242.2h2.5v-1.3
				h-2.5V-242.2z"/>
			<path class="st4" d="M95.9-243.5h-1.3v3.8h-2.5v-8.9h1.3v-1.3h5.1v1.3h1.3v3.8h-1.3v1.3h1.3v3.8h-2.5v-2.5h-1.3V-243.5z
				 M94.7-246h2.5v-1.3h-2.5V-246z"/>
			<path class="st4" d="M103.5-239.7H101v-8.9h1.3v-1.3h5.1v1.3h1.3v8.9H106v-3.8h-2.5V-239.7z M106-246v-1.3h-2.5v1.3H106z"/>
			<path class="st4" d="M109.8-249.8h7.6v2.5h-2.5v7.6h-2.5v-7.6h-2.5V-249.8z"/>
			<path class="st4" d="M120-241h-1.3v-7.6h1.3v-1.3h6.3v2.5h-5.1v1.3h2.5v2.5h-2.5v1.3h5.1v2.5H120V-241z"/>
		</g>
	</g>
	<g>
		<rect x="13.2" y="-256.2" class="st4" width="13.1" height="1.7"/>
		<rect x="28.1" y="-256.2" class="st4" width="1.7" height="1.7"/>
	</g>
</g>
<g>
	<g>
		<polygon class="st9" points="151.7,-216.3 148,-216.3 10.8,-216.3 10.8,-212.6 7.1,-212.6 7.1,-191.5 10.8,-191.5 10.8,-187.8 
			148,-187.8 151.7,-187.8 151.7,-191.5 155.3,-191.5 155.3,-212.6 151.7,-212.6 		"/>
		<polygon class="st10" points="151.7,-220 148,-220 10.8,-220 10.8,-216.3 7.1,-216.3 7.1,-195.1 10.8,-195.1 10.8,-191.4 
			148,-191.4 151.7,-191.4 151.7,-195.1 155.3,-195.1 155.3,-216.3 151.7,-216.3 		"/>
		<g>
			<path class="st4" d="M39-205.2h-1.3v3.8h-2.5v-10.1h6.3v1.3h1.3v3.8h-1.3v1.3h1.3v3.8h-2.5v-2.5H39V-205.2z M37.8-207.7h2.5v-1.3
				h-2.5V-207.7z"/>
			<path class="st4" d="M45.3-202.6h-1.3v-7.6h1.3v-1.3h6.3v2.5h-5.1v1.3h2.5v2.5h-2.5v1.3h5.1v2.5h-6.3V-202.6z"/>
			<path class="st4" d="M54.2-202.6h-1.3v-7.6h1.3v-1.3h5.1v1.3h1.3v2.5H58v-1.3h-2.5v5.1H58v-1.3h2.5v2.5h-1.3v1.3h-5.1V-202.6z"/>
			<path class="st4" d="M64.3-201.4h-2.5v-8.9h1.3v-1.3h5.1v1.3h1.3v8.9h-2.5v-3.8h-2.5V-201.4z M66.8-207.7v-1.3h-2.5v1.3H66.8z"/>
			<path class="st4" d="M71.9-202.6h-1.3v-8.9h2.5v7.6h5.1v2.5h-6.3V-202.6z"/>
			<path class="st4" d="M79.5-211.5H82v10.1h-2.5V-211.5z"/>
			<path class="st4" d="M83.3-211.5h6.3v1.3h1.3v7.6h-1.3v1.3h-6.3V-211.5z M85.8-207.7h2.5v-1.3h-2.5V-207.7z M85.8-203.9h2.5v-1.3
				h-2.5V-203.9z"/>
			<path class="st4" d="M95.9-205.2h-1.3v3.8h-2.5v-8.9h1.3v-1.3h5.1v1.3h1.3v3.8h-1.3v1.3h1.3v3.8h-2.5v-2.5h-1.3V-205.2z
				 M94.7-207.7h2.5v-1.3h-2.5V-207.7z"/>
			<path class="st4" d="M103.5-201.4H101v-8.9h1.3v-1.3h5.1v1.3h1.3v8.9H106v-3.8h-2.5V-201.4z M106-207.7v-1.3h-2.5v1.3H106z"/>
			<path class="st4" d="M109.8-211.5h7.6v2.5h-2.5v7.6h-2.5v-7.6h-2.5V-211.5z"/>
			<path class="st4" d="M120-202.6h-1.3v-7.6h1.3v-1.3h6.3v2.5h-5.1v1.3h2.5v2.5h-2.5v1.3h5.1v2.5H120V-202.6z"/>
		</g>
	</g>
	<g>
		<rect x="13.2" y="-217.2" class="st4" width="13.1" height="1.7"/>
		<rect x="28.1" y="-217.2" class="st4" width="1.7" height="1.7"/>
	</g>
</g>
<g>
	<rect x="433" y="-485.5" class="st4" width="23.6" height="3"/>
	<rect x="459.8" y="-485.5" class="st4" width="3" height="3"/>
</g>
<g>
	<rect x="112.6" y="-546.9" class="st4" width="23.6" height="3"/>
	<rect x="139.4" y="-546.9" class="st4" width="3" height="3"/>
</g>
<g>
	<polygon class="st22" points="82.5,-423.4 82.5,-430.9 63.9,-430.9 63.9,-423.4 56.4,-423.4 56.4,-416 56.4,-404.8 63.9,-404.8 
		63.9,-397.3 75.1,-397.3 82.5,-397.3 82.5,-404.8 90,-404.8 90,-416 90,-423.4 	"/>
	<line class="st23" x1="64.5" y1="-397.3" x2="64.5" y2="-387.4"/>
	<line class="st23" x1="81.9" y1="-397.3" x2="81.9" y2="-387.4"/>
	<polygon class="st24" points="81,-389.3 78.8,-389.3 65.5,-389.3 65.5,-387.1 63.3,-387.1 63.3,-371.5 65.5,-371.5 65.5,-369.4 
		78.8,-369.4 81,-369.4 81,-371.5 83.2,-371.5 83.2,-387.1 81,-387.1 	"/>
</g>
<polygon class="st25" points="149.6,15.8 149.6,7.9 141.7,7.9 76.7,7.9 7.9,7.9 7.9,15.8 0,15.8 0,61.4 7.9,61.4 7.9,69.3 
	76.7,69.3 141.7,69.3 149.6,69.3 149.6,61.4 157.5,61.4 157.5,15.8 "/>
<polygon class="st25" points="149.6,15.9 149.6,8 141.7,8 76.7,8 7.9,8 7.9,15.9 0,15.9 0,61.5 7.9,61.5 7.9,69.4 76.7,69.4 
	141.7,69.4 149.6,69.4 149.6,61.5 157.5,61.5 157.5,15.9 "/>
<g>
	<path class="st4" d="M46.1,49.4h-5.4V27.6h13.6v2.7H57v8.2h-2.7v2.7h-8.2V49.4z M46.1,35.7h5.4V33h-5.4V35.7z"/>
	<path class="st4" d="M62.4,46.6h-2.7v-19h5.4v16.3h10.9v5.4H62.4V46.6z"/>
	<path class="st4" d="M84.2,49.4h-5.4v-19h2.7v-2.7h10.9v2.7h2.7v19h-5.4v-8.2h-5.4V49.4z M89.7,35.7V33h-5.4v2.7H89.7z"/>
	<path class="st4" d="M97.8,27.6h5.4v8.2h5.4v-8.2h5.4v10.9h-2.7v2.7h-2.7v8.2h-5.4v-8.2h-2.7v-2.7h-2.7V27.6z"/>
</g>
<polygon class="st25" points="319.6,15.8 319.6,7.9 311.7,7.9 246.7,7.9 177.9,7.9 177.9,15.8 170,15.8 170,61.4 177.9,61.4 
	177.9,69.3 246.7,69.3 311.7,69.3 319.6,69.3 319.6,61.4 327.5,61.4 327.5,15.8 "/>
<polygon class="st22" points="319.6,7.9 319.6,0 311.7,0 246.7,0 177.9,0 177.9,7.9 170,7.9 170,53.5 177.9,53.5 177.9,61.4 
	246.7,61.4 311.7,61.4 319.6,61.4 319.6,53.5 327.5,53.5 327.5,7.9 "/>
<g>
	<path class="st4" d="M216.1,41.4h-5.4V19.6h13.6v2.7h2.7v8.2h-2.7v2.7h-8.2V41.4z M216.1,27.7h5.4V25h-5.4V27.7z"/>
	<path class="st4" d="M232.4,38.6h-2.7v-19h5.4v16.3h10.9v5.4h-13.6V38.6z"/>
	<path class="st4" d="M254.2,41.4h-5.4v-19h2.7v-2.7h10.9v2.7h2.7v19h-5.4v-8.2h-5.4V41.4z M259.7,27.7V25h-5.4v2.7H259.7z"/>
	<path class="st4" d="M267.8,19.6h5.4v8.2h5.4v-8.2h5.4v10.9h-2.7v2.7h-2.7v8.2h-5.4v-8.2h-2.7v-2.7h-2.7V19.6z"/>
</g>
<g>
	<path class="st26" d="M-673.9-229.8h43.2v108h43.2v-108h43.2v129.6h-21.6v21.6h-21.6V-57h-43.2v-21.6h-21.6v-21.6h-21.6V-229.8z"/>
	<path class="st27" d="M-522.8-206.1h21.6v-21.6h108v43.2h-86.4v21.6h64.8v21.6h21.6v64.8h-21.6v21.6h-108v-43.2h86.4v-21.6h-64.8
		v-21.6h-21.6V-206.1z"/>
</g>
<g>
	<path class="st28" d="M-673.9-250.9h43.2v108h43.2v-108h43.2v129.6h-21.6v21.6h-21.6v21.6h-43.2v-21.6h-21.6v-21.6h-21.6V-250.9z"
		/>
	<path class="st29" d="M-522.8-229.3h21.6v-21.6h108v43.2h-86.4v21.6h64.8v21.6h21.6v64.8h-21.6v21.6h-108v-43.2h86.4v-21.6h-64.8
		v-21.6h-21.6V-229.3z"/>
</g>
<g>
	<g>
		<path class="st0" d="M-624.6,127.8h27.5v68.7h27.5v-68.7h27.5v82.4h-13.7v13.7h-13.7v13.7h-27.5v-13.7h-13.7v-13.7h-13.7V127.8z"
			/>
		<path class="st0" d="M-528.5,142.8h13.7v-13.7h68.7v27.5H-501v13.7h41.2V184h13.7v41.2h-13.7v13.7h-68.7v-27.5h54.9v-13.7h-41.2
			V184h-13.7V142.8z"/>
	</g>
	<g>
		<path class="st7" d="M-624.6,113.3h27.5v68.7h27.5v-68.7h27.5v82.4h-13.7v13.7h-13.7v13.7h-27.5v-13.7h-13.7v-13.7h-13.7V113.3z"
			/>
		<path class="st7" d="M-528.5,128.3h13.7v-13.7h68.7v27.5H-501v13.7h41.2v13.7h13.7v41.2h-13.7v13.7h-68.7V197h54.9v-13.7h-41.2
			v-13.7h-13.7V128.3z"/>
	</g>
	<g>
		<path class="st4" d="M-624.6,99.9h27.5v68.7h27.5V99.9h27.5v82.4h-13.7V196h-13.7v13.7h-27.5V196h-13.7v-13.7h-13.7V99.9z"/>
		<path class="st4" d="M-528.5,113.6h13.7V99.9h68.7v27.5H-501v13.7h41.2v13.7h13.7V196h-13.7v13.7h-68.7v-27.5h54.9v-13.7h-41.2
			v-13.7h-13.7V113.6z"/>
	</g>
</g>
</svg>
