<svg id="Layer_1" xmlns="http://www.w3.org/2000/svg" width="385.1" height="68.2" viewBox="0 0 405.1 88.2"><style>.st0{fill:#5895b7}.st1{opacity:.8}.st2{fill:#c17620}.st3{fill:#f4c24a}.st4{fill:#fff}.st5{fill:#2a6fba}.st6{fill:#4abaef}.st7{fill:#95c9c8}.st8{fill:#ddefee}.st9{fill:#1b8e6f}.st10{fill:#3cea8a}.st11{opacity:.4;fill:#666}.st12{fill:#33bc6e}.st13{fill:none}.st14{fill:#7149a4}.st15{fill:#bd86e0}.st16{opacity:.4;fill:#666;stroke:#666;stroke-width:4;stroke-linejoin:bevel;stroke-miterlimit:10}.st17{fill:#f2f2f2}.st18{fill:#e6e6e6}.st19{fill:none;stroke:#000;stroke-width:4;stroke-linejoin:bevel;stroke-miterlimit:10}.st20{fill:#c6e0de}.st21{fill:#a7c6c3}.st22{fill:#ee3d53}.st23{fill:none;stroke:#000;stroke-width:2;stroke-miterlimit:10}.st24{fill:#a17559}.st25{fill:#910e46}.st26{fill:#238d6f}.st27{fill:#704ca2}.st28{fill:#47e88d}.st29{fill:#bc88de}</style><path class="st0" d="M-364 261h484v82h-484z"/><path class="st0" d="M88 335h107v30H88z"/><g class="st1"><path class="st0" d="M-348 281v82h-96v-11h12v-12h12v-12h12v-12h-12v-12h-12v-12h-12v-11z"/><path class="st0" d="M-362 339l14 23v-23z"/></g><path class="st2" d="M99 273v82h96v-11h-12v-12h-12v-12h-12v-12h12v-12h12v-12h12v-11z"/><path class="st3" d="M99 262v82h96v-11h-12v-12h-12v-12h-12v-12h12v-12h12v-12h12v-11z"/><path class="st2" d="M113 331l-14 23v-23zm-470-58v82h-96v-11h12v-12h12v-12h12v-12h-12v-12h-12v-12h-12v-11z"/><path class="st3" d="M-357 262v82h-96v-11h12v-12h12v-12h12v-12h-12v-12h-12v-12h-12v-11z"/><path class="st2" d="M-371 331l14 23v-23zm0-82h484v82h-484z"/><path class="st3" d="M-371 237h484v82h-484z"/><path class="st4" d="M-300.4 296.8h-8.6v-34.6h8.6v13h8.6v-13h8.6v34.6h-8.6v-13h-8.6v13zm21.6-30.3h4.3v-4.3h17.3v4.3h4.3v25.9h-4.3v4.3h-17.3v-4.3h-4.3v-25.9zm8.7 21.6h8.6v-17.3h-8.6v17.3zm30.2 8.7h-8.6v-34.6h8.6v17.3h4.3v-4.3h4.3v4.3h4.3v-17.3h8.6v34.6h-8.6v-4.3h-4.3v-4.3h-4.3v4.3h-4.3v4.3zm56.2-34.6h25.9v8.6h-8.6v25.9h-8.6v-25.9h-8.6v-8.6zm30.2 4.3h4.3v-4.3h17.3v4.3h4.3v25.9h-4.3v4.3h-17.3v-4.3h-4.3v-25.9zm8.6 21.6h8.6v-17.3h-8.6v17.3zm60.5 8.7H-93v-34.6h21.6v4.3h4.3v13h-4.3v4.3h-13v13zm0-21.6h8.6v-4.3h-8.6v4.3zm25.9 17.2h-4.3v-30.2h8.6v25.9h17.3v8.6h-21.6v-4.3zm34.6 4.4h-8.6v-30.2h4.3v-4.3h17.3v4.3h4.3v30.2h-8.6v-13h-8.6v13zm8.6-21.6v-4.3h-8.6v4.3h8.6zm13-13h8.6v13H15v-13h8.6v17.3h-4.3v4.3H15v13H6.3v-13H2v-4.3h-4.3v-17.3z"/><path class="st5" d="M-195 530h-85v12h-12v85h12v12h85v-12h12v-85h-12z"/><path class="st5" d="M-195 530h-85v12h-12v85h12v12h85v-12h12v-85h-12z"/><path class="st4" d="M-255.4 564.2h28.4v5.7h5.7V587h-5.7v5.7h-17v-11.4h11.4v-5.7h-22.8v-11.4zm11.4 34.1h11.4v11.4H-244v-11.4z"/><path class="st5" d="M-44 530h-85v12h-12v85h12v12h85v-12h12v-85h-12z"/><path class="st6" d="M-44 520h-85v12h-12v85h12v12h85v-12h12v-85h-12z"/><path class="st4" d="M-104.4 554.2H-76v5.7h5.7V577H-76v5.7h-17v-11.4h11.4v-5.7h-22.8v-11.4zm11.4 34.1h11.4v11.4H-93v-11.4z"/><path class="st0" d="M991 374.5h-11.6v-11.6h-11.5v-12.8H469.1v12.8h-11.5v11.6H446v684.7h11.6v11.7h11.5v12.8h498.8v-12.8h11.5v-11.7H991z"/><path class="st7" d="M991 362.5h-11.6v-11.7h-11.5V338H469.1v12.8h-11.5v11.7H446v684.7h11.6v11.6h11.5v12.9h498.8v-12.9h11.5v-11.6H991z"/><path class="st8" d="M991 350.5h-11.6v-11.7h-11.5V326H469.1v12.8h-11.5v11.7H446v684.7h11.6v11.6h11.5v12.8h498.8v-12.8h11.5v-11.6H991z"/><path class="st9" d="M-58 10h-384.9v10.1H-453v57.8h10.1V88H-58V77.9h10.1V20.1H-58z"/><path class="st10" d="M-58 0h-384.9v10.1H-453v57.8h10.1V78H-58V67.9h10.1V10.1H-58z"/><path class="st4" d="M-332.9 50.9h-6.9V23.2h17.3v3.5h3.5v10.4h-3.5v3.5h-10.4v10.3zm0-17.3h6.9v-3.5h-6.9v3.5zm20.7 13.8h-3.5V23.2h6.9V44h13.8v6.9h-17.3v-3.5zm27.6 3.5h-6.9V26.7h3.5v-3.5h13.8v3.5h3.5v24.2h-6.9V40.5h-6.9v10.4zm7-17.3v-3.5h-6.9v3.5h6.9zm10.3-10.4h6.9v10.4h6.9V23.2h6.9V37h-3.5v3.5h-3.5v10.4h-6.9V40.5h-3.5V37h-3.5V23.2zm27.7 24.2h-3.5V26.7h3.5v-3.5h17.3v6.9h-13.8v3.5h6.9v6.9h-6.9V44h13.8v6.9h-17.3v-3.5zm31.1-6.9h-3.5v10.4h-6.9V23.2h17.3v3.5h3.5v10.4h-3.5v3.5h3.5V51h-6.9v-7h-3.5v-3.5zm-3.5-6.9h6.9v-3.5h-6.9v3.5zm41.5-10.4h6.9v27.6h-6.9V23.2z"/><path class="st11" d="M-418.8-110.6l-2-5.8-4-12-17.8 6 1.9 5.8-5.8 2 4.1 12 5.8-2 1.9 5.8 12.1-4.1-2-5.7zm38.8-12.1l-2-5.7-4-12-17.8 6 1.9 5.7-5.8 2 4.1 12 5.8-1.9 1.9 5.7 12.1-4-2-5.8z"/><path transform="rotate(-18.702 -436.076 -150.31)" d="M-439.6-169.6h7.1v38.6h-7.1z"/><path d="M-420.4-115.4l-2-5.8-4.1-12-17.8 6 2 5.8-5.8 2 4.1 12 5.8-2 1.9 5.8 12-4.1-1.9-5.7z"/><path transform="rotate(-18.702 -397.605 -163.34)" d="M-401.1-182.6h7.1v38.6h-7.1z"/><path d="M-382-128.4l-1.9-5.8-4.1-12-17.8 6 2 5.8-5.8 1.9 4.1 12 5.7-1.9 2 5.8 12-4.1-1.9-5.8z"/><path transform="rotate(-18.702 -425.798 -183.274)" d="M-449.6-191.9h47.7v17.3h-47.7z"/><path class="st11" d="M-352.6-77l.9-4.2 1.9-8.6-12.8-2.8-.9 4.1-4.1-.9-2 8.7 4.2.9-.9 4.1 8.6 1.9.9-4.1zm27.5 6.8l.9-4.2 1.9-8.6-12.8-2.8-.9 4.1-4.1-.9-1.9 8.6 4.1.9-.9 4.2 8.6 1.9 1-4.1z"/><path transform="rotate(12.41 -348.543 -106.928)" d="M-351-120.4h5v26.9h-5z"/><path d="M-351.8-80.5l.9-4.1 1.9-8.7-12.8-2.8-.9 4.2-4.2-.9-1.9 8.6 4.2.9-1 4.2 8.7 1.9.9-4.2z"/><path transform="rotate(12.41 -320.883 -100.842)" d="M-323.4-114.3h5v26.9h-5z"/><path d="M-324.2-74.4l.9-4.1 1.9-8.7-12.8-2.8-.9 4.2-4.1-1-1.9 8.7 4.1.9-.9 4.1 8.7 2 .9-4.2z"/><path transform="rotate(12.41 -330.528 -122.901)" d="M-347.2-128.9h33.3v12h-33.3z"/><path class="st11" d="M-276.6-138.8l-.7-3.1-1.4-6.3-9.4 2.1.7 3-3 .7 1.4 6.4 3-.7.7 3 6.3-1.4-.6-3zm20.4-4l-.6-3.1-1.5-6.3-9.3 2.1.6 3-3 .7 1.4 6.3 3-.6.7 3 6.4-1.4-.7-3z"/><path transform="rotate(-12.552 -283.145 -159.99)" d="M-285-169.9h3.6v19.8h-3.6z"/><path d="M-277.2-141.3l-.6-3.1-1.4-6.3-9.4 2 .6 3.1-3 .7 1.4 6.3 3.1-.7.6 3.1 6.4-1.4-.7-3.1z"/><path transform="rotate(-12.552 -262.838 -164.51)" d="M-264.7-174.4h3.6v19.8h-3.6z"/><path d="M-256.8-145.9l-.7-3-1.4-6.4-9.4 2.1.7 3.1-3.1.7 1.4 6.3 3.1-.7.6 3.1 6.4-1.4-.7-3.1z"/><path transform="rotate(-12.552 -276.099 -176.212)" d="M-288.3-180.6h24.4v8.8h-24.4z"/><path class="st11" d="M-256-93l2.6-4.2 5.5-8.5-12.7-8.1-2.6 4.1-4.1-2.6-5.5 8.6 4.1 2.6-2.6 4.1 8.6 5.5 2.6-4.2zm27 18.1l2.6-4.1 5.5-8.6-12.7-8.1-2.6 4.1-4.1-2.6-5.5 8.6 4.1 2.6-2.6 4.1 8.6 5.5 2.6-4.1z"/><path transform="rotate(32.435 -239.868 -123.703)" d="M-242.7-139.1h5.7v30.9h-5.7z"/><path d="M-253.8-96.5l2.6-4.1 5.5-8.6-12.7-8-2.6 4.1-4.2-2.6-5.4 8.6 4.1 2.6-2.6 4.1 8.6 5.4 2.6-4.1z"/><path transform="rotate(32.435 -212.44 -106.276)" d="M-215.3-121.7h5.7v30.9h-5.7z"/><path d="M-226.4-79l2.6-4.2 5.5-8.5-12.7-8.1-2.6 4.1-4.1-2.6-5.5 8.6 4.1 2.6-2.6 4.1 8.6 5.5 2.6-4.2z"/><path transform="rotate(32.435 -214.174 -133.846)" d="M-233.3-140.8h38.2v13.8h-38.2z"/><path class="st9" d="M-534.7-533.5h-253v6.7h-6.6v38h6.6v6.6h253v-6.6h6.6v-38h-6.6z"/><path class="st12" d="M-534.7-533.5h-253v6.7h-6.6v38h6.6v6.6h253v-6.6h6.6v-38h-6.6z"/><path class="st4" d="M-727.9-515.9h2.3v-2.3h11.4v4.5h-9.1v9.1h9.1v4.5h-11.4v-2.3h-2.3v-13.5zm20.4 15.9h-4.5v-15.9h2.3v-2.3h9.1v2.3h2.3v15.9h-4.5v-6.8h-4.5v6.8zm4.6-11.4v-2.3h-4.5v2.3h4.5zm9 9.1h-2.3v-15.9h4.5v13.6h9.1v4.5H-694v-2.2zm13.7-15.9h4.5v18.2h-4.5v-18.2zm6.8 0h11.4v2.3h2.3v13.6h-2.3v2.3h-11.4v-18.2zm4.5 6.8h4.5v-2.3h-4.5v2.3zm0 6.8h4.5v-2.3h-4.5v2.3zm18.2-2.2h-2.3v6.8h-4.5v-15.9h2.3v-2.3h9.1v2.3h2.3v6.8h-2.3v2.3h2.3v6.8h-4.5v-4.5h-2.3v-2.3zm-2.3-4.6h4.5v-2.3h-4.5v2.3zm15.9 11.4h-4.5v-15.9h2.3v-2.3h9.1v2.3h2.3v15.9h-4.5v-6.8h-4.5v6.8zm4.6-11.4v-2.3h-4.5v2.3h4.5zm6.8-6.8h13.6v4.5h-4.5v13.6h-4.5v-13.6h-4.5v-4.5zm18.1 15.9h-2.3v-13.6h2.3v-2.3h11.4v4.5h-9.1v2.3h4.5v4.5h-4.5v2.3h9.1v4.5h-11.4v-2.2z"/><path class="st9" d="M-214.7-465.5h-253v6.7h-6.6v38h6.6v6.6h253v-6.6h6.6v-38h-6.6z"/><path class="st10" d="M-214.7-472h-253v6.6h-6.6v38h6.6v6.6h253v-6.6h6.6v-38h-6.6z"/><path class="st4" d="M-407.9-454.5h2.3v-2.3h11.4v4.5h-9.1v9.1h9.1v4.5h-11.4v-2.3h-2.3v-13.5zm20.4 15.9h-4.5v-15.9h2.3v-2.3h9.1v2.3h2.3v15.9h-4.5v-6.8h-4.5v6.8zm4.6-11.4v-2.3h-4.5v2.3h4.5zm9 9.1h-2.3v-15.9h4.5v13.6h9.1v4.5H-374v-2.2zm13.7-15.9h4.5v18.2h-4.5v-18.2zm6.8 0h11.4v2.3h2.3v13.6h-2.3v2.3h-11.4v-18.2zm4.5 6.8h4.5v-2.3h-4.5v2.3zm0 6.9h4.5v-2.3h-4.5v2.3zm18.2-2.3h-2.3v6.8h-4.5v-15.9h2.3v-2.3h9.1v2.3h2.3v6.8h-2.3v2.3h2.3v6.8h-4.5v-4.5h-2.3v-2.3zm-2.3-4.6h4.5v-2.3h-4.5v2.3zm15.9 11.4h-4.5v-15.9h2.3v-2.3h9.1v2.3h2.3v15.9h-4.5v-6.8h-4.5v6.8zm4.6-11.4v-2.3h-4.5v2.3h4.5zm6.8-6.8h13.6v4.5h-4.5v13.6h-4.5v-13.6h-4.5v-4.5zm18.1 15.9h-2.3v-13.6h2.3v-2.3h11.4v4.5h-9.1v2.3h4.5v4.5h-4.5v2.3h9.1v4.5h-11.4v-2.2z"/><path class="st9" d="M-472.7-383.1h219.8v28.8h-219.8z"/><path class="st9" d="M-477.6-389.7h229.4v30.6h-229.4z"/><path class="st10" d="M-477.6-394v29.2h4.9v5.7H-253v-5.7h4.8V-394z"/><path class="st9" d="M-257.8-379.2v-5.1h-5.1v-.1h-200v.1h-5.1v5.1h-5.1v7.6h5.1v5.1h5.1v.1h205.1v-5.1h5.1v-7.7z"/><path class="st13" d="M-481.7-285.1h4.7v.1h-4.7zm0 17.9h4.7v.1h-4.7z"/><path class="st4" d="M-460.7-267.2v-5.1h5.1v-7.6h-5.1v-5.1h-5.1v-.1H-477v.1h-4.7v17.8h4.7v.1h11.2v-.1zm-46.8-53.4v-5.1h-5.1v-.1h-15.9v18h15.9v-.1h5.1v-5.1h5.1v-7.6zm-13.5 38.8v-5.2h-9.6v5.2h-5.1v7.6h5.1v5.2h9.6v-5.1h5.1v-7.7zm-49.8-97.4v-5.2h-9.6v5.2h-5.1v7.6h5.1v5.2h9.6v-5.1h5.1v-7.7z"/><path class="st14" d="M395 10H10.1v10.1H0v57.8h10.1V88H395V77.9h10.1V20.1H395z"/><path class="st15" d="M395 0H10.1v10.1H0v57.8h10.1V78H395V67.9h10.1V10.1H395z"/><path class="st4" d="M112.6 50.9h-6.9V23.2H123v3.5h3.5v10.4H123v3.5h-10.4v10.3zm0-17.3h6.9v-3.5h-6.9v3.5zm20.8 13.8h-3.5V23.2h6.9V44h13.8v6.9h-17.3v-3.5zm27.6 3.5h-6.9V26.7h3.5v-3.5h13.8v3.5h3.5v24.2H168V40.5h-7v10.4zm6.9-17.3v-3.5H161v3.5h6.9zm10.4-10.4h6.9v10.4h6.9V23.2h6.9V37h-3.5v3.5H192v10.4h-6.9V40.5h-3.5V37h-3.5V23.2zM206 47.4h-3.5V26.7h3.5v-3.5h17.3v6.9h-13.8v3.5h6.9v6.9h-6.9V44h13.8v6.9H206v-3.5zm31.1-6.9h-3.5v10.4h-6.9V23.2H244v3.5h3.5v10.4H244v3.5h3.5V51h-6.9v-7h-3.5v-3.5zm-3.5-6.9h6.9v-3.5h-6.9v3.5zm41.5-10.4h17.3v3.5h3.5v10.4h-3.5v3.5H282V44h13.8v6.9h-20.7V37.1h3.5v-3.5H289v-3.5h-13.8v-6.9zM21 4h45.1v5.7H21zm51.3 0H78v5.7h-5.7zm-505.8 1h45.1v5.7h-45.1zm51.3 0h5.7v5.7h-5.7z"/><path class="st16" d="M-44.4-155l6.4 5.6-5.6 6.4 20.4 17.4v37.9l20.8-26.1 31.7 29.3 5.9-6.2 5 4.6 71.6-118.7z"/><path class="st17" d="M-46.8-162.1l6.3 5.6-5.6 6.4 20.5 17.3v37.9L-4.9-121l31.8 29.4 5.8-6.3 5 4.7 71.6-118.7z"/><path class="st18" d="M-4.8-121.2l114.4-90.7L-25.5-133v37.9z"/><path class="st19" d="M-47.9-162l6.4 5.6-5.6 6.4 20.4 17.4v37.9l20.8-26.1 31.7 29.4 5.9-6.3 4.9 4.6 71.7-118.7z"/><path class="st20" d="M-112.1-468.7v163.6h10.4v9.5h10.4v10.5h447.5v-10.5h10.4v-9.5h10.3v-163.6z"/><path class="st20" d="M376.9-468.7v-94.1h-10.3v-9.5h-10.4v-10.5H-91.3v10.5h-10.4v9.5h-10.4v94.1z"/><path class="st21" d="M-101.7-566.2h10.4v-8h-10.4v7.9h-10.4v8h10.4zm10.4-16.7h447.5v8H-91.3zm457.9 16.6v-7.9h-10.4v8h10.4v7.9h10.3v-8z"/><path d="M-505.2-647.2h10.2v10.2h-10.2zm61.4-10.2v5.1h-5.1v5.1h5.1v20.5h5.1v5.1h-5.1v5.1h10.2v-10.2h15.4v5.1h5.1v-35.8h-30.7zm25.6 25.6h-20.5v-20.5h20.5v20.5z"/><path d="M-433.5-647.2h10.2v10.2h-10.2zm-71.7 71.7h10.2v10.2h-10.2zm61.4-10.2h5.1v5.1h-5.1zm-25.6 25.6h5.1v5.1h-5.1zm5.2-20.5h5.1v5.1h-5.1zm0 10.2h5.1v5.1h-5.1zm46-25.6h5.1v5.1h-5.1zm-97.2 0h5.1v5.1h-5.1zm0-25.6h5.1v5.1h-5.1zm56.3-30.7v5.1h-10.3v5.1h15.4v-10.2z"/><path d="M-418.2-616.5v5.1h-10.2v5.1h-15.4v-5.1h-5.1v5.1h-10.2v5.1h15.4v5.1h-15.4v-5.1h-5.1v5.1h-5.1v-5.1h-5.1v5.1h-5.1v5.1h10.2v5.1h5.1v-5.1h10.2v5.1h-5.1v5.1h5.1v10.2h5.1v5.1h5.1v-5.1h15.4v-10.2h5.1v-5.1h-5.1V-596h-10.2v-5.1h10.2v5.1h5.1v-5.1h5.1v-5.1h5.1v-10.2h-5.1v-.1zm-15.3 25.6v15.4h-15.4v-15.4h15.4zm-15.4-35.8h-5.1v5.1h-5.1v10.3h5.1v-5.2h5.1v-5.1h5.1v-5.1zm-10.2 66.6h10.2v5.1h-10.2zm-15.4-92.2h5.1v5.1h-5.1z"/><path d="M-433.5-616.5h5.1v5.1h-5.1zm5.1-5.1h5.1v5.1h-5.1zM-495-596h5.1v5.1h-5.1zm10.3 35.9v-20.5h5.1v-10.2h-5.1v5.1h-15.4v-5.1h-10.2v5.1h-5.1v30.7h40.9v-5.1h-10.2zm-5.1 0h-20.5v-20.5h20.5v20.5zm5.1-66.6h5.1v5.1h-5.1zm5.1-30.7h-35.8v30.7h5.1v5.1h5.1v-5.1h5.1v5.1h5.1v-5.1h10.2V-637h5.1v-5.1h-5.1v-10.2h10.2v-5.1h-5zm-10.2 25.6h-20.5v-20.5h20.5v20.5zm35.8-10.3h5.1v5.1h-5.1zm-10.2-15.3h5.1v5.1h-5.1z"/><path d="M-454-626.7v-5.1h-5.1v-5.1h-5.1v5.1h-10.2v-5.1h-5.1v10.2h5.1v10.2h-15.4v-5.1h-5.1v5.1h-15.4v5.1h10.2v5.1h-15.4v5.1h15.4v5.1h5.1v-5.1h5.1v5.1h5.1v-5.1h10.2v-5.1h-5.1v-5.1h10.2v5.1h10.2v-5.1h-5.1v-5.1h-5.1v-10.2h15.5zm-30.7 20.5H-495v-5.1h10.2v5.1zm15.3 30.7v-10.2h-5.1v5.1h-5.1v5.1h5.1v5.1h-5.1v5.1h10.2v-5.1h5.2v-5.1zm46.1 10.2v-5.1h-5.1v5.1h-15.4v5.2h10.3v5.1h5.1v-5.1h10.2v5.1h5.2v-10.3zm5.1-20.4v5.1h-5.1v5.1h10.3v-10.2z"/><path class="st9" d="M-743.6-241.3h-140.8v3.7h-3.7v21.2h3.7v3.6h140.8v-3.6h3.7v-21.2h-3.7z"/><path class="st12" d="M-743.6-241.3h-140.8v3.7h-3.7v21.2h3.7v3.6h140.8v-3.6h3.7v-21.2h-3.7z"/><path class="st4" d="M-856.2-226.5h-1.3v3.8h-2.5v-10.1h6.3v1.3h1.3v3.8h-1.3v1.3h1.3v3.8h-2.5v-2.5h-1.3v-1.4zm-1.3-2.5h2.5v-1.3h-2.5v1.3zm7.6 5.1h-1.3v-7.6h1.3v-1.3h6.3v2.5h-5.1v1.3h2.5v2.5h-2.5v1.3h5.1v2.5h-6.3v-1.2zm8.9 0h-1.3v-7.6h1.3v-1.3h5.1v1.3h1.3v2.5h-2.5v-1.3h-2.5v5.1h2.5v-1.3h2.5v2.5h-1.3v1.3h-5.1v-1.2zm10.1 1.2h-2.5v-8.9h1.3v-1.3h5.1v1.3h1.3v8.9h-2.5v-3.8h-2.5v3.8zm2.5-6.3v-1.3h-2.5v1.3h2.5zm5.1 5.1h-1.3v-8.9h2.5v7.6h5.1v2.5h-6.3v-1.2zm7.6-8.9h2.5v10.1h-2.5v-10.1zm3.8 0h6.3v1.3h1.3v7.6h-1.3v1.3h-6.3v-10.2zm2.5 3.8h2.5v-1.3h-2.5v1.3zm0 3.8h2.5v-1.3h-2.5v1.3zm10.1-1.3h-1.3v3.8h-2.5v-8.9h1.3v-1.3h5.1v1.3h1.3v3.8h-1.3v1.3h1.3v3.8h-2.5v-2.5h-1.3v-1.3zm-1.2-2.5h2.5v-1.3h-2.5v1.3zm8.8 6.3h-2.5v-8.9h1.3v-1.3h5.1v1.3h1.3v8.9h-2.5v-3.8h-2.5v3.8zm2.5-6.3v-1.3h-2.5v1.3h2.5zm3.8-3.8h7.6v2.5h-2.5v7.6h-2.5v-7.6h-2.5v-2.5zm10.1 8.9h-1.3v-7.6h1.3v-1.3h6.3v2.5h-5.1v1.3h2.5v2.5h-2.5v1.3h5.1v2.5h-6.3v-1.2zM-882-239.2h13.1v1.7H-882zm14.9 0h1.7v1.7h-1.7z"/><path class="st9" d="M-743.6-199.3h-140.8v3.7h-3.7v21.2h3.7v3.6h140.8v-3.6h3.7v-21.2h-3.7z"/><path class="st10" d="M-743.6-203h-140.8v3.7h-3.7v21.2h3.7v3.7h140.8v-3.7h3.7v-21.2h-3.7z"/><path class="st4" d="M-856.2-188.1h-1.3v3.8h-2.5v-10.1h6.3v1.3h1.3v3.8h-1.3v1.3h1.3v3.8h-2.5v-2.5h-1.3v-1.4zm-1.3-2.6h2.5v-1.3h-2.5v1.3zm7.6 5.1h-1.3v-7.6h1.3v-1.3h6.3v2.5h-5.1v1.3h2.5v2.5h-2.5v1.3h5.1v2.5h-6.3v-1.2zm8.9 0h-1.3v-7.6h1.3v-1.3h5.1v1.3h1.3v2.5h-2.5v-1.3h-2.5v5.1h2.5v-1.3h2.5v2.5h-1.3v1.3h-5.1v-1.2zm10.1 1.3h-2.5v-8.9h1.3v-1.3h5.1v1.3h1.3v8.9h-2.5v-3.8h-2.5v3.8zm2.5-6.4v-1.3h-2.5v1.3h2.5zm5.1 5.1h-1.3v-8.9h2.5v7.6h5.1v2.5h-6.3v-1.2zm7.6-8.9h2.5v10.1h-2.5v-10.1zm3.8 0h6.3v1.3h1.3v7.6h-1.3v1.3h-6.3v-10.2zm2.5 3.8h2.5v-1.3h-2.5v1.3zm0 3.8h2.5v-1.3h-2.5v1.3zm10.1-1.2h-1.3v3.8h-2.5v-8.9h1.3v-1.3h5.1v1.3h1.3v3.8h-1.3v1.3h1.3v3.8h-2.5v-2.5h-1.3v-1.3zm-1.2-2.6h2.5v-1.3h-2.5v1.3zm8.8 6.4h-2.5v-8.9h1.3v-1.3h5.1v1.3h1.3v8.9h-2.5v-3.8h-2.5v3.8zm2.5-6.4v-1.3h-2.5v1.3h2.5zm3.8-3.8h7.6v2.5h-2.5v7.6h-2.5v-7.6h-2.5v-2.5zm10.1 8.9h-1.3v-7.6h1.3v-1.3h6.3v2.5h-5.1v1.3h2.5v2.5h-2.5v1.3h5.1v2.5h-6.3v-1.2zM-882-200.2h13.1v1.7H-882zm14.9 0h1.7v1.7h-1.7zm404.9-268.3h23.6v3h-23.6zm26.8 0h3v3h-3zm-347.2-61.4h23.6v3h-23.6zm26.8 0h3v3h-3z"/><path class="st22" d="M-812.7-406.4v-7.5h-18.6v7.5h-7.5v18.6h7.5v7.5h18.6v-7.5h7.5v-18.6z"/><path class="st23" d="M-830.7-380.3v9.9m17.4-9.9v9.9"/><path class="st24" d="M-814.3-372.2h-15.5v2.2h-2.2v15.5h2.2v2.2h15.5v-2.2h2.2V-370h-2.2z"/><path class="st25" d="M-745.6 32.8v-7.9h-141.7v7.9h-7.9v45.6h7.9v7.9h141.7v-7.9h7.9V32.8z"/><path class="st25" d="M-745.6 32.9V25h-141.7v7.9h-7.9v45.6h7.9v7.9h141.7v-7.9h7.9V32.9z"/><path class="st4" d="M-849.1 66.4h-5.4V44.6h13.6v2.7h2.7v8.2h-2.7v2.7h-8.2v8.2zm0-13.6h5.4V50h-5.4v2.8zm16.3 10.8h-2.7v-19h5.4v16.3h10.9v5.4h-13.6v-2.7zm21.8 2.8h-5.4v-19h2.7v-2.7h10.9v2.7h2.7v19h-5.4v-8.2h-5.4v8.2zm5.4-13.6V50h-5.4v2.7h5.4zm8.2-8.2h5.4v8.2h5.4v-8.2h5.4v10.9h-2.7v2.7h-2.7v8.2h-5.4v-8.2h-2.7v-2.7h-2.7V44.6z"/><path class="st25" d="M-575.6 32.8v-7.9h-141.7v7.9h-7.9v45.6h7.9v7.9h141.7v-7.9h7.9V32.8z"/><path class="st22" d="M-575.6 24.9V17h-141.7v7.9h-7.9v45.6h7.9v7.9h141.7v-7.9h7.9V24.9z"/><path class="st4" d="M-679.1 58.4h-5.4V36.6h13.6v2.7h2.7v8.2h-2.7v2.7h-8.2v8.2zm0-13.6h5.4V42h-5.4v2.8zm16.3 10.8h-2.7v-19h5.4v16.3h10.9v5.4h-13.6v-2.7zm21.8 2.8h-5.4v-19h2.7v-2.7h10.9v2.7h2.7v19h-5.4v-8.2h-5.4v8.2zm5.4-13.6V42h-5.4v2.7h5.4zm8.2-8.2h5.4v8.2h5.4v-8.2h5.4v10.9h-2.7v2.7h-2.7v8.2h-5.4v-8.2h-2.7v-2.7h-2.7V36.6z"/><path class="st26" d="M-1569.2-212.8h43.2v108h43.2v-108h43.2v129.6h-21.6v21.6h-21.6V-40h-43.2v-21.6h-21.6v-21.6h-21.6v-129.6z"/><path class="st27" d="M-1418-189.1h21.6v-21.6h108v43.2h-86.4v21.6h64.8v21.6h21.6v64.8h-21.6v21.6h-108v-43.2h86.4v-21.6h-64.8v-21.6h-21.6v-64.8z"/><path class="st28" d="M-1569.2-233.8h43.2v108h43.2v-108h43.2v129.6h-21.6v21.6h-21.6V-61h-43.2v-21.6h-21.6v-21.6h-21.6v-129.6z"/><path class="st29" d="M-1418-212.2h21.6v-21.6h108v43.2h-86.4v21.6h64.8v21.6h21.6v64.8h-21.6V-61h-108v-43.2h86.4v-21.6h-64.8v-21.6h-21.6v-64.8z"/><path class="st0" d="M-1519.8 144.8h27.5v68.7h27.5v-68.7h27.5v82.4h-13.7v13.7h-13.7v13.7h-27.5v-13.7h-13.7v-13.7h-13.7v-82.4zm96.1 15h13.7v-13.7h68.7v27.5h-54.9v13.7h41.2V201h13.7v41.2h-13.7V256h-68.7v-27.5h54.9v-13.7h-41.2V201h-13.7v-41.2z"/><path class="st7" d="M-1519.8 130.3h27.5V199h27.5v-68.7h27.5v82.4h-13.7v13.7h-13.7v13.7h-27.5v-13.7h-13.7v-13.7h-13.7v-82.4zm96.1 15h13.7v-13.7h68.7v27.5h-54.9v13.7h41.2v13.7h13.7v41.2h-13.7v13.7h-68.7V214h54.9v-13.7h-41.2v-13.7h-13.7v-41.3z"/><path class="st4" d="M-1519.8 116.9h27.5v68.7h27.5v-68.7h27.5v82.4h-13.7V213h-13.7v13.7h-27.5V213h-13.7v-13.7h-13.7v-82.4zm96.1 13.7h13.7v-13.7h68.7v27.5h-54.9v13.7h41.2v13.7h13.7V213h-13.7v13.7h-68.7v-27.5h54.9v-13.7h-41.2v-13.7h-13.7v-41.2z"/></svg>