<?xml version="1.0" encoding="utf-8"?>
<!-- Generator: Adobe Illustrator 19.2.1, SVG Export Plug-In . SVG Version: 6.00 Build 0)  -->
<svg version="1.1" id="Layer_1" xmlns="http://www.w3.org/2000/svg" xmlns:xlink="http://www.w3.org/1999/xlink" x="0px" y="0px"
	 viewBox="0 0 256.4 55.7" style="enable-background:new 0 0 256.4 55.7;" xml:space="preserve">
<style type="text/css">
	.st0{fill:#7149A4;}
	.st1{fill:#BD86E0;}
	.st2{fill:#FFFFFF;}
</style>
<polygon class="st0" points="250,6.3 243.7,6.3 6.4,6.3 6.4,12.7 0,12.7 0,49.4 6.4,49.4 6.4,55.7 243.7,55.7 250,55.7 250,49.4 
	256.4,49.4 256.4,12.7 250,12.7 "/>
<polygon class="st1" points="250,0 243.7,0 6.4,0 6.4,6.4 0,6.4 0,43 6.4,43 6.4,49.4 243.7,49.4 250,49.4 250,43 256.4,43 
	256.4,6.4 250,6.4 "/>
<g>
	<path class="st2" d="M71.3,32.2h-4.4V14.7h11V17h2.2v6.6h-2.2v2.2h-6.6V32.2z M71.3,21.3h4.4v-2.2h-4.4V21.3z"/>
	<path class="st2" d="M84.4,30.1h-2.2V14.7h4.4v13.1h8.7v4.4h-11L84.4,30.1L84.4,30.1z"/>
	<path class="st2" d="M101.9,32.2h-4.4V16.9h2.2v-2.2h8.7v2.2h2.2v15.3h-4.4v-6.6h-4.4v6.6H101.9z M106.3,21.3v-2.2h-4.4v2.2H106.3z
		"/>
	<path class="st2" d="M112.9,14.7h4.4v6.6h4.4v-6.6h4.4v8.7h-2.2v2.2h-2.2v6.6h-4.4v-6.6H115v-2.2h-2.2L112.9,14.7
		C112.8,14.7,112.9,14.7,112.9,14.7z"/>
	<path class="st2" d="M130.4,30.1h-2.2V17h2.2v-2.2h11v4.4h-8.7v2.2h4.4v4.4h-4.4V28h8.7v4.4h-11V30.1z"/>
	<path class="st2" d="M150.1,25.6h-2.2v6.6h-4.4V14.7h11V17h2.2v6.6h-2.2v2.2h2.2v6.6h-4.4V28h-2.2L150.1,25.6L150.1,25.6z
		 M147.9,21.3h4.4v-2.2h-4.4V21.3z"/>
	<path class="st2" d="M174.1,14.7h11V17h2.2v6.6h-2.2v2.2h-6.6V28h8.7v4.4h-13.1v-8.7h2.2v-2.2h6.6v-2.2h-8.7L174.1,14.7L174.1,14.7
		z"/>
</g>
<g>
	<rect x="13.3" y="2.5" class="st2" width="28.5" height="3.6"/>
	<rect x="45.8" y="2.5" class="st2" width="3.6" height="3.6"/>
</g>
</svg>
