<?xml version="1.0" encoding="utf-8"?>
<!-- Generator: Adobe Illustrator 22.0.1, SVG Export Plug-In . SVG Version: 6.00 Build 0)  -->
<svg version="1.1" id="Layer_1" xmlns="http://www.w3.org/2000/svg" xmlns:xlink="http://www.w3.org/1999/xlink" x="0px" y="0px"
	 width="385.1px" height="68.2px" viewBox="0 0 405.1 88.2" style="enable-background:new 0 0 405.1 88.2;" xml:space="preserve">
<style type="text/css">
	.st0{fill:#5895B7;}
	.st1{opacity:0.8;}
	.st2{fill:#C17620;}
	.st3{fill:#F4C24A;}
	.st4{fill:#FFFFFF;}
	.st5{fill:#2A6FBA;}
	.st6{fill:#4ABAEF;}
	.st7{fill:#95C9C8;}
	.st8{fill:#DDEFEE;}
	.st9{fill:#1B8E6F;}
	.st10{fill:#3CEA8A;}
	.st11{opacity:0.4;fill:#666666;}
	.st12{fill:#33BC6E;}
	.st13{fill:none;}
	.st14{fill:#7149A4;}
	.st15{fill:#BD86E0;}
	.st16{opacity:0.4;fill:#666666;stroke:#666666;stroke-width:4;stroke-linejoin:bevel;stroke-miterlimit:10;}
	.st17{fill:#F2F2F2;}
	.st18{fill:#E6E6E6;}
	.st19{fill:none;stroke:#000000;stroke-width:4;stroke-linejoin:bevel;stroke-miterlimit:10;}
	.st20{fill:#C6E0DE;}
	.st21{fill:#A7C6C3;}
	.st22{fill:#EE3D53;}
	.st23{fill:none;stroke:#000000;stroke-width:2;stroke-miterlimit:10;}
	.st24{fill:#A17559;}
	.st25{fill:#910E46;}
	.st26{fill:#238D6F;}
	.st27{fill:#704CA2;}
	.st28{fill:#47E88D;}
	.st29{fill:#BC88DE;}
</style>
<g>
	<rect x="-364" y="261" class="st0" width="484" height="82"/>
	<rect x="88" y="335" class="st0" width="107" height="30"/>
	<g class="st1">
		<g>
			<polygon class="st0" points="-348,281 -348,363 -444,363 -444,352 -432,352 -432,340 -420,340 -420,328 -408,328 -408,316
				-420,316 -420,304 -432,304 -432,292 -444,292 -444,281 			"/>
		</g>
		<polygon class="st0" points="-362,339 -348,362 -348,339 		"/>
	</g>
	<g>
		<g>
			<polygon class="st2" points="99,273 99,355 195,355 195,344 183,344 183,332 171,332 171,320 159,320 159,308 171,308 171,296
				183,296 183,284 195,284 195,273 			"/>
			<polygon class="st3" points="99,262 99,344 195,344 195,333 183,333 183,321 171,321 171,309 159,309 159,297 171,297 171,285
				183,285 183,273 195,273 195,262 			"/>
		</g>
		<polygon class="st2" points="113,331 99,354 99,331 		"/>
		<g>
			<g>
				<polygon class="st2" points="-357,273 -357,355 -453,355 -453,344 -441,344 -441,332 -429,332 -429,320 -417,320 -417,308
					-429,308 -429,296 -441,296 -441,284 -453,284 -453,273 				"/>
				<polygon class="st3" points="-357,262 -357,344 -453,344 -453,333 -441,333 -441,321 -429,321 -429,309 -417,309 -417,297
					-429,297 -429,285 -441,285 -441,273 -453,273 -453,262 				"/>
			</g>
			<polygon class="st2" points="-371,331 -357,354 -357,331 			"/>
		</g>
		<g>
			<rect x="-371" y="249" class="st2" width="484" height="82"/>
			<rect x="-371" y="237" class="st3" width="484" height="82"/>
		</g>
	</g>
	<g>
		<path class="st4" d="M-300.4,296.8h-8.6v-34.6h8.6v13h8.6v-13h8.6v34.6h-8.6v-13h-8.6V296.8z"/>
		<path class="st4" d="M-278.8,266.5h4.3v-4.3h17.3v4.3h4.3v25.9h-4.3v4.3h-17.3v-4.3h-4.3V266.5z M-270.1,288.1h8.6v-17.3h-8.6
			V288.1z"/>
		<path class="st4" d="M-239.9,296.8h-8.6v-34.6h8.6v17.3h4.3v-4.3h4.3v4.3h4.3v-17.3h8.6v34.6h-8.6v-4.3h-4.3v-4.3h-4.3v4.3h-4.3
			V296.8z"/>
		<path class="st4" d="M-183.7,262.2h25.9v8.6h-8.6v25.9h-8.6v-25.9h-8.6V262.2z"/>
		<path class="st4" d="M-153.5,266.5h4.3v-4.3h17.3v4.3h4.3v25.9h-4.3v4.3h-17.3v-4.3h-4.3V266.5z M-144.9,288.1h8.6v-17.3h-8.6
			V288.1z"/>
		<path class="st4" d="M-84.4,296.8H-93v-34.6h21.6v4.3h4.3v13h-4.3v4.3h-13V296.8z M-84.4,275.2h8.6v-4.3h-8.6V275.2z"/>
		<path class="st4" d="M-58.5,292.4h-4.3v-30.2h8.6v25.9h17.3v8.6h-21.6V292.4z"/>
		<path class="st4" d="M-23.9,296.8h-8.6v-30.2h4.3v-4.3h17.3v4.3h4.3v30.2h-8.6v-13h-8.6V296.8z M-15.3,275.2v-4.3h-8.6v4.3H-15.3z
			"/>
		<path class="st4" d="M-2.3,262.2h8.6v13H15v-13h8.6v17.3h-4.3v4.3H15v13H6.3v-13H2v-4.3h-4.3V262.2z"/>
	</g>
</g>
<polygon class="st5" points="-195,530 -207,530 -280,530 -280,542 -292,542 -292,627 -280,627 -280,639 -207,639 -195,639 -195,627
	-183,627 -183,542 -195,542 "/>
<polygon class="st5" points="-195,530 -207,530 -280,530 -280,542 -292,542 -292,627 -280,627 -280,639 -207,639 -195,639 -195,627
	-183,627 -183,542 -195,542 "/>
<g>
	<path class="st4" d="M-255.4,564.2h28.4v5.7h5.7v17.1h-5.7v5.7H-244v-11.4h11.4v-5.7h-22.8V564.2z M-244,598.3h11.4v11.4H-244
		V598.3z"/>
</g>
<polygon class="st5" points="-44,530 -56,530 -129,530 -129,542 -141,542 -141,627 -129,627 -129,639 -56,639 -44,639 -44,627
	-32,627 -32,542 -44,542 "/>
<polygon class="st6" points="-44,520 -56,520 -129,520 -129,532 -141,532 -141,617 -129,617 -129,629 -56,629 -44,629 -44,617
	-32,617 -32,532 -44,532 "/>
<g>
	<path class="st4" d="M-104.4,554.2H-76v5.7h5.7v17.1H-76v5.7H-93v-11.4h11.4v-5.7h-22.8V554.2z M-93,588.3h11.4v11.4H-93V588.3z"/>
</g>
<g>
	<polygon class="st0" points="991,374.5 979.4,374.5 979.4,362.9 967.9,362.9 967.9,350.1 469.1,350.1 469.1,362.9 457.6,362.9
		457.6,374.5 446,374.5 446,1059.2 457.6,1059.2 457.6,1070.9 469.1,1070.9 469.1,1083.7 967.9,1083.7 967.9,1070.9 979.4,1070.9
		979.4,1059.2 991,1059.2 	"/>
	<polygon class="st7" points="991,362.5 979.4,362.5 979.4,350.8 967.9,350.8 967.9,338 469.1,338 469.1,350.8 457.6,350.8
		457.6,362.5 446,362.5 446,1047.2 457.6,1047.2 457.6,1058.8 469.1,1058.8 469.1,1071.7 967.9,1071.7 967.9,1058.8 979.4,1058.8
		979.4,1047.2 991,1047.2 	"/>
	<polygon class="st8" points="991,350.5 979.4,350.5 979.4,338.8 967.9,338.8 967.9,326 469.1,326 469.1,338.8 457.6,338.8
		457.6,350.5 446,350.5 446,1035.2 457.6,1035.2 457.6,1046.8 469.1,1046.8 469.1,1059.6 967.9,1059.6 967.9,1046.8 979.4,1046.8
		979.4,1035.2 991,1035.2 	"/>
</g>
<g>
	<polygon class="st9" points="-58,10 -68,10 -442.9,10 -442.9,20.1 -453,20.1 -453,77.9 -442.9,77.9 -442.9,88 -68,88 -58,88
		-58,77.9 -47.9,77.9 -47.9,20.1 -58,20.1 	"/>
	<polygon class="st10" points="-58,0 -68,0 -442.9,0 -442.9,10.1 -453,10.1 -453,67.9 -442.9,67.9 -442.9,78 -68,78 -58,78
		-58,67.9 -47.9,67.9 -47.9,10.1 -58,10.1 	"/>
	<g>
		<path class="st4" d="M-332.9,50.9h-6.9V23.2h17.3v3.5h3.5v10.4h-3.5v3.5h-10.4V50.9z M-332.9,33.6h6.9v-3.5h-6.9V33.6z"/>
		<path class="st4" d="M-312.2,47.4h-3.5V23.2h6.9V44h13.8v6.9h-17.3V47.4z"/>
		<path class="st4" d="M-284.6,50.9h-6.9V26.7h3.5v-3.5h13.8v3.5h3.5v24.2h-6.9V40.5h-6.9V50.9z M-277.6,33.6v-3.5h-6.9v3.5H-277.6z
			"/>
		<path class="st4" d="M-267.3,23.2h6.9v10.4h6.9V23.2h6.9v13.8h-3.5v3.5h-3.5v10.4h-6.9V40.5h-3.5v-3.5h-3.5V23.2z"/>
		<path class="st4" d="M-239.6,47.4h-3.5V26.7h3.5v-3.5h17.3v6.9h-13.8v3.5h6.9v6.9h-6.9V44h13.8v6.9h-17.3V47.4z"/>
		<path class="st4" d="M-208.5,40.5h-3.5v10.4h-6.9V23.2h17.3v3.5h3.5v10.4h-3.5v3.5h3.5v10.4h-6.9V44h-3.5V40.5z M-212,33.6h6.9
			v-3.5h-6.9V33.6z"/>
		<path class="st4" d="M-170.5,23.2h6.9v27.6h-6.9V23.2z"/>
	</g>
</g>
<g>
	<polygon class="st11" points="-418.8,-110.6 -420.8,-116.4 -424.8,-128.4 -442.6,-122.4 -440.7,-116.6 -446.5,-114.6
		-442.4,-102.6 -436.6,-104.6 -434.7,-98.8 -422.6,-102.9 -424.6,-108.6 	"/>
	<polygon class="st11" points="-380,-122.7 -382,-128.4 -386,-140.4 -403.8,-134.4 -401.9,-128.7 -407.7,-126.7 -403.6,-114.7
		-397.8,-116.6 -395.9,-110.9 -383.8,-114.9 -385.8,-120.7 	"/>
	<rect x="-439.6" y="-169.6" transform="matrix(0.9472 -0.3207 0.3207 0.9472 25.1795 -147.7859)" width="7.1" height="38.6"/>
	<polygon points="-420.4,-115.4 -422.4,-121.2 -426.5,-133.2 -444.3,-127.2 -442.3,-121.4 -448.1,-119.4 -444,-107.4 -438.2,-109.4
		-436.3,-103.6 -424.3,-107.7 -426.2,-113.4 	"/>
	<rect x="-401.1" y="-182.6" transform="matrix(0.9472 -0.3207 0.3207 0.9472 31.3895 -136.1362)" width="7.1" height="38.6"/>
	<polygon points="-382,-128.4 -383.9,-134.2 -388,-146.2 -405.8,-140.2 -403.8,-134.4 -409.6,-132.5 -405.5,-120.5 -399.8,-122.4
		-397.8,-116.6 -385.8,-120.7 -387.7,-126.5 	"/>
	<rect x="-449.6" y="-191.9" transform="matrix(0.9472 -0.3207 0.3207 0.9472 36.2937 -146.2304)" width="47.7" height="17.3"/>
</g>
<g>
	<polygon class="st11" points="-352.6,-77 -351.7,-81.2 -349.8,-89.8 -362.6,-92.6 -363.5,-88.5 -367.6,-89.4 -369.6,-80.7
		-365.4,-79.8 -366.3,-75.7 -357.7,-73.8 -356.8,-77.9 	"/>
	<polygon class="st11" points="-325.1,-70.2 -324.2,-74.4 -322.3,-83 -335.1,-85.8 -336,-81.7 -340.1,-82.6 -342,-74 -337.9,-73.1
		-338.8,-68.9 -330.2,-67 -329.2,-71.1 	"/>
	<rect x="-351" y="-120.4" transform="matrix(0.9766 0.2149 -0.2149 0.9766 -31.1224 72.4035)" width="5" height="26.9"/>
	<polygon points="-351.8,-80.5 -350.9,-84.6 -349,-93.3 -361.8,-96.1 -362.7,-91.9 -366.9,-92.8 -368.8,-84.2 -364.6,-83.3
		-365.6,-79.1 -356.9,-77.2 -356,-81.4 	"/>
	<rect x="-323.4" y="-114.3" transform="matrix(0.9766 0.2149 -0.2149 0.9766 -29.1683 66.6015)" width="5" height="26.9"/>
	<polygon points="-324.2,-74.4 -323.3,-78.5 -321.4,-87.2 -334.2,-90 -335.1,-85.8 -339.2,-86.8 -341.1,-78.1 -337,-77.2
		-337.9,-73.1 -329.2,-71.1 -328.3,-75.3 	"/>
	<rect x="-347.2" y="-128.9" transform="matrix(0.9766 0.2149 -0.2149 0.9766 -34.1342 68.159)" width="33.3" height="12"/>
</g>
<g>
	<polygon class="st11" points="-276.6,-138.8 -277.3,-141.9 -278.7,-148.2 -288.1,-146.1 -287.4,-143.1 -290.4,-142.4 -289,-136
		-286,-136.7 -285.3,-133.7 -279,-135.1 -279.6,-138.1 	"/>
	<polygon class="st11" points="-256.2,-142.8 -256.8,-145.9 -258.3,-152.2 -267.6,-150.1 -267,-147.1 -270,-146.4 -268.6,-140.1
		-265.6,-140.7 -264.9,-137.7 -258.5,-139.1 -259.2,-142.1 	"/>
	<rect x="-285" y="-169.9" transform="matrix(0.9761 -0.2173 0.2173 0.9761 27.9988 -65.3511)" width="3.6" height="19.8"/>
	<polygon points="-277.2,-141.3 -277.8,-144.4 -279.2,-150.7 -288.6,-148.7 -288,-145.6 -291,-144.9 -289.6,-138.6 -286.5,-139.3
		-285.9,-136.2 -279.5,-137.6 -280.2,-140.7 	"/>
	<rect x="-264.7" y="-174.4" transform="matrix(0.9761 -0.2173 0.2173 0.9761 29.4663 -61.0464)" width="3.6" height="19.8"/>
	<polygon points="-256.8,-145.9 -257.5,-148.9 -258.9,-155.3 -268.3,-153.2 -267.6,-150.1 -270.7,-149.4 -269.3,-143.1
		-266.2,-143.8 -265.6,-140.7 -259.2,-142.1 -259.9,-145.2 	"/>
	<rect x="-288.3" y="-180.6" transform="matrix(0.9761 -0.2173 0.2173 0.9761 31.6921 -64.2077)" width="24.4" height="8.8"/>
</g>
<g>
	<polygon class="st11" points="-256,-93 -253.4,-97.2 -247.9,-105.7 -260.6,-113.8 -263.2,-109.7 -267.3,-112.3 -272.8,-103.7
		-268.7,-101.1 -271.3,-97 -262.7,-91.5 -260.1,-95.7 	"/>
	<polygon class="st11" points="-229,-74.9 -226.4,-79 -220.9,-87.6 -233.6,-95.7 -236.2,-91.6 -240.3,-94.2 -245.8,-85.6
		-241.7,-83 -244.3,-78.9 -235.7,-73.4 -233.1,-77.5 	"/>
	<rect x="-242.7" y="-139.1" transform="matrix(0.844 0.5363 -0.5363 0.844 -103.7612 109.3438)" width="5.7" height="30.9"/>
	<polygon points="-253.8,-96.5 -251.2,-100.6 -245.7,-109.2 -258.4,-117.2 -261,-113.1 -265.2,-115.7 -270.6,-107.1 -266.5,-104.5
		-269.1,-100.4 -260.5,-95 -257.9,-99.1 	"/>
	<rect x="-215.3" y="-121.7" transform="matrix(0.844 0.5363 -0.5363 0.844 -90.1368 97.3529)" width="5.7" height="30.9"/>
	<polygon points="-226.4,-79 -223.8,-83.2 -218.3,-91.7 -231,-99.8 -233.6,-95.7 -237.7,-98.3 -243.2,-89.7 -239.1,-87.1
		-241.7,-83 -233.1,-77.5 -230.5,-81.7 	"/>
	<rect x="-233.3" y="-140.8" transform="matrix(0.844 0.5363 -0.5363 0.844 -105.1927 93.9815)" width="38.2" height="13.8"/>
</g>
<g>
	<polygon class="st9" points="-534.7,-533.5 -541.3,-533.5 -787.7,-533.5 -787.7,-526.8 -794.3,-526.8 -794.3,-488.8 -787.7,-488.8
		-787.7,-482.2 -541.3,-482.2 -534.7,-482.2 -534.7,-488.8 -528.1,-488.8 -528.1,-526.8 -534.7,-526.8 	"/>
	<polygon class="st12" points="-534.7,-533.5 -541.3,-533.5 -787.7,-533.5 -787.7,-526.8 -794.3,-526.8 -794.3,-488.8
		-787.7,-488.8 -787.7,-482.2 -541.3,-482.2 -534.7,-482.2 -534.7,-488.8 -528.1,-488.8 -528.1,-526.8 -534.7,-526.8 	"/>
	<g>
		<path class="st4" d="M-727.9-515.9h2.3v-2.3h11.4v4.5h-9.1v9.1h9.1v4.5h-11.4v-2.3h-2.3V-515.9z"/>
		<path class="st4" d="M-707.5-500h-4.5v-15.9h2.3v-2.3h9.1v2.3h2.3v15.9h-4.5v-6.8h-4.5V-500z M-702.9-511.4v-2.3h-4.5v2.3H-702.9z
			"/>
		<path class="st4" d="M-693.9-502.3h-2.3v-15.9h4.5v13.6h9.1v4.5h-11.4V-502.3z"/>
		<path class="st4" d="M-680.2-518.2h4.5v18.2h-4.5V-518.2z"/>
		<path class="st4" d="M-673.4-518.2h11.4v2.3h2.3v13.6h-2.3v2.3h-11.4V-518.2z M-668.9-511.4h4.5v-2.3h-4.5V-511.4z M-668.9-504.6
			h4.5v-2.3h-4.5V-504.6z"/>
		<path class="st4" d="M-650.7-506.8h-2.3v6.8h-4.5v-15.9h2.3v-2.3h9.1v2.3h2.3v6.8h-2.3v2.3h2.3v6.8h-4.5v-4.5h-2.3V-506.8z
			 M-653-511.4h4.5v-2.3h-4.5V-511.4z"/>
		<path class="st4" d="M-637.1-500h-4.5v-15.9h2.3v-2.3h9.1v2.3h2.3v15.9h-4.5v-6.8h-4.5V-500z M-632.5-511.4v-2.3h-4.5v2.3H-632.5z
			"/>
		<path class="st4" d="M-625.7-518.2h13.6v4.5h-4.5v13.6h-4.5v-13.6h-4.5V-518.2z"/>
		<path class="st4" d="M-607.6-502.3h-2.3v-13.6h2.3v-2.3h11.4v4.5h-9.1v2.3h4.5v4.5h-4.5v2.3h9.1v4.5h-11.4V-502.3z"/>
	</g>
</g>
<g>
	<polygon class="st9" points="-214.7,-465.5 -221.3,-465.5 -467.7,-465.5 -467.7,-458.8 -474.3,-458.8 -474.3,-420.8 -467.7,-420.8
		-467.7,-414.2 -221.3,-414.2 -214.7,-414.2 -214.7,-420.8 -208.1,-420.8 -208.1,-458.8 -214.7,-458.8 	"/>
	<polygon class="st10" points="-214.7,-472 -221.3,-472 -467.7,-472 -467.7,-465.4 -474.3,-465.4 -474.3,-427.4 -467.7,-427.4
		-467.7,-420.8 -221.3,-420.8 -214.7,-420.8 -214.7,-427.4 -208.1,-427.4 -208.1,-465.4 -214.7,-465.4 	"/>
	<g>
		<path class="st4" d="M-407.9-454.5h2.3v-2.3h11.4v4.5h-9.1v9.1h9.1v4.5h-11.4v-2.3h-2.3V-454.5z"/>
		<path class="st4" d="M-387.5-438.6h-4.5v-15.9h2.3v-2.3h9.1v2.3h2.3v15.9h-4.5v-6.8h-4.5V-438.6z M-382.9-450v-2.3h-4.5v2.3
			H-382.9z"/>
		<path class="st4" d="M-373.9-440.9h-2.3v-15.9h4.5v13.6h9.1v4.5h-11.4V-440.9z"/>
		<path class="st4" d="M-360.2-456.8h4.5v18.2h-4.5V-456.8z"/>
		<path class="st4" d="M-353.4-456.8h11.4v2.3h2.3v13.6h-2.3v2.3h-11.4V-456.8z M-348.9-450h4.5v-2.3h-4.5V-450z M-348.9-443.1h4.5
			v-2.3h-4.5V-443.1z"/>
		<path class="st4" d="M-330.7-445.4h-2.3v6.8h-4.5v-15.9h2.3v-2.3h9.1v2.3h2.3v6.8h-2.3v2.3h2.3v6.8h-4.5v-4.5h-2.3V-445.4z
			 M-333-450h4.5v-2.3h-4.5V-450z"/>
		<path class="st4" d="M-317.1-438.6h-4.5v-15.9h2.3v-2.3h9.1v2.3h2.3v15.9h-4.5v-6.8h-4.5V-438.6z M-312.5-450v-2.3h-4.5v2.3
			H-312.5z"/>
		<path class="st4" d="M-305.7-456.8h13.6v4.5h-4.5v13.6h-4.5v-13.6h-4.5V-456.8z"/>
		<path class="st4" d="M-287.6-440.9h-2.3v-13.6h2.3v-2.3h11.4v4.5h-9.1v2.3h4.5v4.5h-4.5v2.3h9.1v4.5h-11.4V-440.9z"/>
	</g>
</g>
<g>
	<rect x="-472.7" y="-383.1" class="st9" width="219.8" height="28.8"/>
	<rect x="-477.6" y="-389.7" class="st9" width="229.4" height="30.6"/>
	<polygon class="st10" points="-477.6,-394 -477.6,-364.8 -472.7,-364.8 -472.7,-359.1 -253,-359.1 -253,-364.8 -248.2,-364.8
		-248.2,-394 	"/>
</g>
<polygon class="st9" points="-257.8,-379.2 -257.8,-384.3 -262.9,-384.3 -262.9,-384.4 -319.5,-384.4 -350.1,-384.4 -375.7,-384.4
	-399.5,-384.4 -462.9,-384.4 -462.9,-384.3 -468,-384.3 -468,-379.2 -473.1,-379.2 -473.1,-371.6 -468,-371.6 -468,-366.5
	-462.9,-366.5 -462.9,-366.4 -399.5,-366.4 -375.7,-366.4 -350.1,-366.4 -319.5,-366.4 -262.9,-366.4 -262.9,-366.4 -257.8,-366.4
	-257.8,-371.5 -252.7,-371.5 -252.7,-379.2 "/>
<g>
	<rect x="-481.7" y="-285.1" class="st13" width="4.7" height="0.1"/>
	<rect x="-481.7" y="-267.2" class="st13" width="4.7" height="0.1"/>
	<polygon class="st4" points="-460.7,-267.2 -460.7,-272.3 -455.6,-272.3 -455.6,-279.9 -460.7,-279.9 -460.7,-285 -465.8,-285
		-465.8,-285.1 -477,-285.1 -477,-285 -481.7,-285 -481.7,-267.2 -477,-267.2 -477,-267.1 -465.8,-267.1 -465.8,-267.2 	"/>
</g>
<g>
	<polygon class="st4" points="-507.5,-320.6 -507.5,-325.7 -512.6,-325.7 -512.6,-325.8 -528.5,-325.8 -528.5,-307.8 -512.6,-307.8
		-512.6,-307.9 -507.5,-307.9 -507.5,-313 -502.4,-313 -502.4,-320.6 	"/>
	<polygon class="st4" points="-521,-281.8 -521,-286.9 -521,-286.9 -521,-287 -525.5,-287 -526.1,-287 -530.6,-287 -530.6,-286.9
		-530.6,-286.9 -530.6,-281.8 -535.7,-281.8 -535.7,-274.2 -530.6,-274.2 -530.6,-269.1 -530.6,-269.1 -530.6,-269 -526.1,-269
		-525.5,-269 -521,-269 -521,-269.1 -521,-269.1 -521,-274.1 -515.9,-274.1 -515.9,-281.8 	"/>
</g>
<polygon class="st4" points="-570.8,-379.2 -570.8,-384.3 -570.8,-384.3 -570.8,-384.4 -575.3,-384.4 -575.9,-384.4 -580.4,-384.4
	-580.4,-384.3 -580.4,-384.3 -580.4,-379.2 -585.5,-379.2 -585.5,-371.6 -580.4,-371.6 -580.4,-366.5 -580.4,-366.5 -580.4,-366.4
	-575.9,-366.4 -575.3,-366.4 -570.8,-366.4 -570.8,-366.4 -570.8,-366.4 -570.8,-371.5 -565.7,-371.5 -565.7,-379.2 "/>
<polygon class="st14" points="395,10 385,10 10.1,10 10.1,20.1 0,20.1 0,77.9 10.1,77.9 10.1,88 385,88 395,88 395,77.9 405.1,77.9
	405.1,20.1 395,20.1 "/>
<polygon class="st15" points="395,0 385,0 10.1,0 10.1,10.1 0,10.1 0,67.9 10.1,67.9 10.1,78 385,78 395,78 395,67.9 405.1,67.9
	405.1,10.1 395,10.1 "/>
<g>
	<path class="st4" d="M112.6,50.9h-6.9V23.2H123v3.5h3.5v10.4H123v3.5h-10.4V50.9z M112.6,33.6h6.9v-3.5h-6.9V33.6z"/>
	<path class="st4" d="M133.4,47.4h-3.5V23.2h6.9V44h13.8v6.9h-17.3V47.4z"/>
	<path class="st4" d="M161,50.9h-6.9V26.7h3.5v-3.5h13.8v3.5h3.5v24.2h-6.9V40.5H161V50.9z M167.9,33.6v-3.5H161v3.5H167.9z"/>
	<path class="st4" d="M178.3,23.2h6.9v10.4h6.9V23.2h6.9v13.8h-3.5v3.5h-3.5v10.4h-6.9V40.5h-3.5v-3.5h-3.5V23.2z"/>
	<path class="st4" d="M206,47.4h-3.5V26.7h3.5v-3.5h17.3v6.9h-13.8v3.5h6.9v6.9h-6.9V44h13.8v6.9H206V47.4z"/>
	<path class="st4" d="M237.1,40.5h-3.5v10.4h-6.9V23.2H244v3.5h3.5v10.4H244v3.5h3.5v10.4h-6.9V44h-3.5V40.5z M233.6,33.6h6.9v-3.5
		h-6.9V33.6z"/>
	<path class="st4" d="M275.1,23.2h17.3v3.5h3.5v10.4h-3.5v3.5H282V44h13.8v6.9h-20.7V37.1h3.5v-3.5h10.4v-3.5h-13.8V23.2z"/>
</g>
<g>
	<rect x="21" y="4" class="st4" width="45.1" height="5.7"/>
	<rect x="72.3" y="4" class="st4" width="5.7" height="5.7"/>
</g>
<g>
	<rect x="-433.5" y="5" class="st4" width="45.1" height="5.7"/>
	<rect x="-382.2" y="5" class="st4" width="5.7" height="5.7"/>
</g>
<polygon class="st16" points="-44.4,-155 -38,-149.4 -43.6,-143 -23.2,-125.6 -23.2,-87.7 -2.4,-113.8 29.3,-84.5 35.2,-90.7
	40.2,-86.1 111.8,-204.8 "/>
<polygon class="st17" points="-46.8,-162.1 -40.5,-156.5 -46.1,-150.1 -25.6,-132.8 -25.6,-94.9 -4.9,-121 26.9,-91.6 32.7,-97.9
	37.7,-93.2 109.3,-211.9 "/>
<polygon class="st18" points="-4.8,-121.2 109.6,-211.9 -25.5,-133 -25.5,-95.1 "/>
<polygon class="st19" points="-47.9,-162 -41.5,-156.4 -47.1,-150 -26.7,-132.6 -26.7,-94.7 -5.9,-120.8 25.8,-91.4 31.7,-97.7
	36.6,-93.1 108.3,-211.8 "/>
<g>
	<polygon class="st20" points="-112.1,-468.7 -112.1,-305.1 -101.7,-305.1 -101.7,-295.6 -91.3,-295.6 -91.3,-285.1 356.2,-285.1
		356.2,-295.6 366.6,-295.6 366.6,-305.1 376.9,-305.1 376.9,-468.7 	"/>
	<polygon class="st20" points="376.9,-468.7 376.9,-562.8 366.6,-562.8 366.6,-572.3 356.2,-572.3 356.2,-582.8 -91.3,-582.8
		-91.3,-572.3 -101.7,-572.3 -101.7,-562.8 -112.1,-562.8 -112.1,-468.7 	"/>
</g>
<g>
	<polygon class="st21" points="-101.7,-566.2 -91.3,-566.2 -91.3,-574.2 -101.7,-574.2 -101.7,-566.3 -112.1,-566.3 -112.1,-558.3
		-101.7,-558.3 	"/>
	<rect x="-91.3" y="-582.9" class="st21" width="447.5" height="8"/>
	<polygon class="st21" points="366.6,-566.3 366.6,-574.2 356.2,-574.2 356.2,-566.2 366.6,-566.2 366.6,-558.3 376.9,-558.3
		376.9,-566.3 	"/>
</g>
<g>
	<g>
		<g>
			<rect x="-505.2" y="-647.2" width="10.2" height="10.2"/>
		</g>
	</g>
	<g>
		<g>
			<path d="M-443.8-657.4v5.1h-5.1v5.1h5.1v20.5h5.1v5.1h-5.1v5.1h5.1h5.1v-10.2h15.4v5.1h5.1v-5.1v-30.7H-443.8z M-418.2-631.8
				h-20.5v-20.5h20.5V-631.8z"/>
		</g>
	</g>
	<g>
		<g>
			<rect x="-433.5" y="-647.2" width="10.2" height="10.2"/>
		</g>
	</g>
	<g>
		<g>
			<rect x="-505.2" y="-575.5" width="10.2" height="10.2"/>
		</g>
	</g>
	<g>
		<g>
			<rect x="-443.8" y="-585.7" width="5.1" height="5.1"/>
		</g>
	</g>
	<g>
		<g>
			<rect x="-469.4" y="-560.1" width="5.1" height="5.1"/>
		</g>
	</g>
	<g>
		<g>
			<rect x="-464.2" y="-580.6" width="5.1" height="5.1"/>
		</g>
	</g>
	<g>
		<g>
			<rect x="-464.2" y="-570.4" width="5.1" height="5.1"/>
		</g>
	</g>
	<g>
		<g>
			<rect x="-418.2" y="-596" width="5.1" height="5.1"/>
		</g>
	</g>
	<g>
		<g>
			<rect x="-515.4" y="-596" width="5.1" height="5.1"/>
		</g>
	</g>
	<g>
		<g>
			<rect x="-515.4" y="-621.6" width="5.1" height="5.1"/>
		</g>
	</g>
	<g>
		<g>
			<polygon points="-459.1,-652.3 -459.1,-647.2 -469.4,-647.2 -469.4,-642.1 -454,-642.1 -454,-647.2 -454,-652.3 			"/>
		</g>
	</g>
	<g>
		<g>
			<path d="M-418.2-616.5v5.1h-10.2v5.1h-15.4v-5.1h-5.1v5.1h-10.2v5.1h15.4v5.1H-454h-5.1v-5.1h-5.1v5.1h-5.1v-5.1h-5.1v5.1h-5.1
				v5.1h10.2v5.1h5.1v-5.1h10.2v5.1h-5.1v5.1h5.1v10.2h5.1v5.1h5.1v-5.1h15.4v-10.2h5.1v-5.1h-5.1V-596h-10.2v-5.1h10.2v5.1h5.1
				v-5.1h5.1v-5.1h5.1v-5.1v-5.1H-418.2L-418.2-616.5z M-433.5-590.9v15.4h-15.4v-15.4H-433.5z"/>
		</g>
	</g>
	<g>
		<g>
			<polygon points="-448.9,-626.7 -454,-626.7 -454,-621.6 -459.1,-621.6 -459.1,-616.5 -459.1,-611.3 -454,-611.3 -454,-616.5
				-448.9,-616.5 -448.9,-621.6 -443.8,-621.6 -443.8,-626.7 			"/>
		</g>
	</g>
	<g>
		<g>
			<rect x="-459.1" y="-560.1" width="10.2" height="5.1"/>
		</g>
	</g>
	<g>
		<g>
			<rect x="-474.5" y="-652.3" width="5.1" height="5.1"/>
		</g>
	</g>
	<g>
		<g>
			<rect x="-433.5" y="-616.5" width="5.1" height="5.1"/>
		</g>
	</g>
	<g>
		<g>
			<rect x="-428.4" y="-621.6" width="5.1" height="5.1"/>
		</g>
	</g>
	<g>
		<g>
			<rect x="-495" y="-596" width="5.1" height="5.1"/>
		</g>
	</g>
	<g>
		<g>
			<path d="M-484.7-560.1v-20.5h5.1v-5.1v-5.1h-5.1v5.1h-15.4v-5.1h-5.1h-5.1v5.1h-5.1v30.7h30.7h10.2v-5.1H-484.7z M-489.8-560.1
				h-20.5v-20.5h20.5V-560.1z"/>
		</g>
	</g>
	<g>
		<g>
			<rect x="-484.7" y="-626.7" width="5.1" height="5.1"/>
		</g>
	</g>
	<g>
		<g>
			<path d="M-479.6-657.4h-5.1h-30.7v30.7h5.1v5.1h5.1v-5.1h5.1v5.1h5.1v-5.1h10.2V-637h5.1v-5.1h-5.1v-10.2h5.1h5.1v-5.1H-479.6z
				 M-489.8-631.8h-20.5v-20.5h20.5V-631.8z"/>
		</g>
	</g>
	<g>
		<g>
			<rect x="-454" y="-642.1" width="5.1" height="5.1"/>
		</g>
	</g>
	<g>
		<g>
			<rect x="-464.2" y="-657.4" width="5.1" height="5.1"/>
		</g>
	</g>
	<g>
		<g>
			<path d="M-454-626.7v-5.1h-5.1v-5.1h-5.1v5.1h-10.2v-5.1h-5.1v5.1v5.1h5.1v10.2h-15.4v-5.1h-5.1v5.1h-15.4v5.1h10.2v5.1h-15.4
				v5.1h15.4v5.1h5.1v-5.1h5.1v5.1h5.1v-5.1h10.2v-5.1h-5.1v-5.1h5.1h5.1v5.1h5.1h5.1v-5.1h-5.1v-5.1h-5.1v-10.2H-454L-454-626.7z
				 M-484.7-606.2H-495v-5.1h10.2V-606.2z"/>
		</g>
	</g>
	<g>
		<g>
			<polygon points="-469.4,-575.5 -469.4,-580.6 -469.4,-585.7 -474.5,-585.7 -474.5,-580.6 -479.6,-580.6 -479.6,-575.5
				-474.5,-575.5 -474.5,-570.4 -479.6,-570.4 -479.6,-565.3 -469.4,-565.3 -469.4,-570.4 -464.2,-570.4 -464.2,-575.5 			"/>
		</g>
	</g>
	<g>
		<g>
			<polygon points="-423.3,-565.3 -423.3,-570.4 -428.4,-570.4 -428.4,-565.3 -443.8,-565.3 -443.8,-560.1 -433.5,-560.1
				-433.5,-555 -428.4,-555 -428.4,-560.1 -418.2,-560.1 -418.2,-555 -413,-555 -413,-560.1 -413,-565.3 			"/>
		</g>
	</g>
	<g>
		<g>
			<polygon points="-418.2,-585.7 -418.2,-580.6 -423.3,-580.6 -423.3,-575.5 -413,-575.5 -413,-580.6 -413,-585.7 			"/>
		</g>
	</g>
</g>
<g>
	<g>
		<polygon class="st9" points="-743.6,-241.3 -747.2,-241.3 -884.4,-241.3 -884.4,-237.6 -888.1,-237.6 -888.1,-216.4
			-884.4,-216.4 -884.4,-212.8 -747.2,-212.8 -743.6,-212.8 -743.6,-216.4 -739.9,-216.4 -739.9,-237.6 -743.6,-237.6 		"/>
		<polygon class="st12" points="-743.6,-241.3 -747.2,-241.3 -884.4,-241.3 -884.4,-237.6 -888.1,-237.6 -888.1,-216.4
			-884.4,-216.4 -884.4,-212.8 -747.2,-212.8 -743.6,-212.8 -743.6,-216.4 -739.9,-216.4 -739.9,-237.6 -743.6,-237.6 		"/>
		<g>
			<path class="st4" d="M-856.2-226.5h-1.3v3.8h-2.5v-10.1h6.3v1.3h1.3v3.8h-1.3v1.3h1.3v3.8h-2.5v-2.5h-1.3V-226.5z M-857.5-229
				h2.5v-1.3h-2.5V-229z"/>
			<path class="st4" d="M-849.9-223.9h-1.3v-7.6h1.3v-1.3h6.3v2.5h-5.1v1.3h2.5v2.5h-2.5v1.3h5.1v2.5h-6.3V-223.9z"/>
			<path class="st4" d="M-841-223.9h-1.3v-7.6h1.3v-1.3h5.1v1.3h1.3v2.5h-2.5v-1.3h-2.5v5.1h2.5v-1.3h2.5v2.5h-1.3v1.3h-5.1V-223.9z
				"/>
			<path class="st4" d="M-830.9-222.7h-2.5v-8.9h1.3v-1.3h5.1v1.3h1.3v8.9h-2.5v-3.8h-2.5V-222.7z M-828.4-229v-1.3h-2.5v1.3H-828.4
				z"/>
			<path class="st4" d="M-823.3-223.9h-1.3v-8.9h2.5v7.6h5.1v2.5h-6.3V-223.9z"/>
			<path class="st4" d="M-815.7-232.8h2.5v10.1h-2.5V-232.8z"/>
			<path class="st4" d="M-811.9-232.8h6.3v1.3h1.3v7.6h-1.3v1.3h-6.3V-232.8z M-809.4-229h2.5v-1.3h-2.5V-229z M-809.4-225.2h2.5
				v-1.3h-2.5V-225.2z"/>
			<path class="st4" d="M-799.3-226.5h-1.3v3.8h-2.5v-8.9h1.3v-1.3h5.1v1.3h1.3v3.8h-1.3v1.3h1.3v3.8h-2.5v-2.5h-1.3V-226.5z
				 M-800.5-229h2.5v-1.3h-2.5V-229z"/>
			<path class="st4" d="M-791.7-222.7h-2.5v-8.9h1.3v-1.3h5.1v1.3h1.3v8.9h-2.5v-3.8h-2.5V-222.7z M-789.2-229v-1.3h-2.5v1.3H-789.2
				z"/>
			<path class="st4" d="M-785.4-232.8h7.6v2.5h-2.5v7.6h-2.5v-7.6h-2.5V-232.8z"/>
			<path class="st4" d="M-775.3-223.9h-1.3v-7.6h1.3v-1.3h6.3v2.5h-5.1v1.3h2.5v2.5h-2.5v1.3h5.1v2.5h-6.3V-223.9z"/>
		</g>
	</g>
	<g>
		<rect x="-882" y="-239.2" class="st4" width="13.1" height="1.7"/>
		<rect x="-867.1" y="-239.2" class="st4" width="1.7" height="1.7"/>
	</g>
</g>
<g>
	<g>
		<polygon class="st9" points="-743.6,-199.3 -747.2,-199.3 -884.4,-199.3 -884.4,-195.6 -888.1,-195.6 -888.1,-174.4
			-884.4,-174.4 -884.4,-170.8 -747.2,-170.8 -743.6,-170.8 -743.6,-174.4 -739.9,-174.4 -739.9,-195.6 -743.6,-195.6 		"/>
		<polygon class="st10" points="-743.6,-203 -747.2,-203 -884.4,-203 -884.4,-199.3 -888.1,-199.3 -888.1,-178.1 -884.4,-178.1
			-884.4,-174.4 -747.2,-174.4 -743.6,-174.4 -743.6,-178.1 -739.9,-178.1 -739.9,-199.3 -743.6,-199.3 		"/>
		<g>
			<path class="st4" d="M-856.2-188.1h-1.3v3.8h-2.5v-10.1h6.3v1.3h1.3v3.8h-1.3v1.3h1.3v3.8h-2.5v-2.5h-1.3V-188.1z M-857.5-190.7
				h2.5v-1.3h-2.5V-190.7z"/>
			<path class="st4" d="M-849.9-185.6h-1.3v-7.6h1.3v-1.3h6.3v2.5h-5.1v1.3h2.5v2.5h-2.5v1.3h5.1v2.5h-6.3V-185.6z"/>
			<path class="st4" d="M-841-185.6h-1.3v-7.6h1.3v-1.3h5.1v1.3h1.3v2.5h-2.5v-1.3h-2.5v5.1h2.5v-1.3h2.5v2.5h-1.3v1.3h-5.1V-185.6z
				"/>
			<path class="st4" d="M-830.9-184.3h-2.5v-8.9h1.3v-1.3h5.1v1.3h1.3v8.9h-2.5v-3.8h-2.5V-184.3z M-828.4-190.7v-1.3h-2.5v1.3
				H-828.4z"/>
			<path class="st4" d="M-823.3-185.6h-1.3v-8.9h2.5v7.6h5.1v2.5h-6.3V-185.6z"/>
			<path class="st4" d="M-815.7-194.5h2.5v10.1h-2.5V-194.5z"/>
			<path class="st4" d="M-811.9-194.5h6.3v1.3h1.3v7.6h-1.3v1.3h-6.3V-194.5z M-809.4-190.7h2.5v-1.3h-2.5V-190.7z M-809.4-186.9
				h2.5v-1.3h-2.5V-186.9z"/>
			<path class="st4" d="M-799.3-188.1h-1.3v3.8h-2.5v-8.9h1.3v-1.3h5.1v1.3h1.3v3.8h-1.3v1.3h1.3v3.8h-2.5v-2.5h-1.3V-188.1z
				 M-800.5-190.7h2.5v-1.3h-2.5V-190.7z"/>
			<path class="st4" d="M-791.7-184.3h-2.5v-8.9h1.3v-1.3h5.1v1.3h1.3v8.9h-2.5v-3.8h-2.5V-184.3z M-789.2-190.7v-1.3h-2.5v1.3
				H-789.2z"/>
			<path class="st4" d="M-785.4-194.5h7.6v2.5h-2.5v7.6h-2.5v-7.6h-2.5V-194.5z"/>
			<path class="st4" d="M-775.3-185.6h-1.3v-7.6h1.3v-1.3h6.3v2.5h-5.1v1.3h2.5v2.5h-2.5v1.3h5.1v2.5h-6.3V-185.6z"/>
		</g>
	</g>
	<g>
		<rect x="-882" y="-200.2" class="st4" width="13.1" height="1.7"/>
		<rect x="-867.1" y="-200.2" class="st4" width="1.7" height="1.7"/>
	</g>
</g>
<g>
	<rect x="-462.2" y="-468.5" class="st4" width="23.6" height="3"/>
	<rect x="-435.4" y="-468.5" class="st4" width="3" height="3"/>
</g>
<g>
	<rect x="-782.6" y="-529.9" class="st4" width="23.6" height="3"/>
	<rect x="-755.8" y="-529.9" class="st4" width="3" height="3"/>
</g>
<g>
	<polygon class="st22" points="-812.7,-406.4 -812.7,-413.9 -831.3,-413.9 -831.3,-406.4 -838.8,-406.4 -838.8,-399 -838.8,-387.8
		-831.3,-387.8 -831.3,-380.3 -820.1,-380.3 -812.7,-380.3 -812.7,-387.8 -805.2,-387.8 -805.2,-399 -805.2,-406.4 	"/>
	<line class="st23" x1="-830.7" y1="-380.3" x2="-830.7" y2="-370.4"/>
	<line class="st23" x1="-813.3" y1="-380.3" x2="-813.3" y2="-370.4"/>
	<polygon class="st24" points="-814.3,-372.2 -816.4,-372.2 -829.8,-372.2 -829.8,-370 -832,-370 -832,-354.5 -829.8,-354.5
		-829.8,-352.3 -816.4,-352.3 -814.3,-352.3 -814.3,-354.5 -812.1,-354.5 -812.1,-370 -814.3,-370 	"/>
</g>
<polygon class="st25" points="-745.6,32.8 -745.6,24.9 -753.5,24.9 -818.5,24.9 -887.3,24.9 -887.3,32.8 -895.2,32.8 -895.2,78.4
	-887.3,78.4 -887.3,86.3 -818.5,86.3 -753.5,86.3 -745.6,86.3 -745.6,78.4 -737.7,78.4 -737.7,32.8 "/>
<polygon class="st25" points="-745.6,32.9 -745.6,25 -753.5,25 -818.5,25 -887.3,25 -887.3,32.9 -895.2,32.9 -895.2,78.5
	-887.3,78.5 -887.3,86.4 -818.5,86.4 -753.5,86.4 -745.6,86.4 -745.6,78.5 -737.7,78.5 -737.7,32.9 "/>
<g>
	<path class="st4" d="M-849.1,66.4h-5.4V44.6h13.6v2.7h2.7v8.2h-2.7v2.7h-8.2V66.4z M-849.1,52.8h5.4V50h-5.4V52.8z"/>
	<path class="st4" d="M-832.8,63.6h-2.7v-19h5.4v16.3h10.9v5.4h-13.6V63.6z"/>
	<path class="st4" d="M-811,66.4h-5.4v-19h2.7v-2.7h10.9v2.7h2.7v19h-5.4v-8.2h-5.4V66.4z M-805.6,52.8V50h-5.4v2.7H-805.6z"/>
	<path class="st4" d="M-797.4,44.6h5.4v8.2h5.4v-8.2h5.4v10.9h-2.7v2.7h-2.7v8.2h-5.4v-8.2h-2.7v-2.7h-2.7V44.6z"/>
</g>
<polygon class="st25" points="-575.6,32.8 -575.6,24.9 -583.5,24.9 -648.5,24.9 -717.3,24.9 -717.3,32.8 -725.2,32.8 -725.2,78.4
	-717.3,78.4 -717.3,86.3 -648.5,86.3 -583.5,86.3 -575.6,86.3 -575.6,78.4 -567.7,78.4 -567.7,32.8 "/>
<polygon class="st22" points="-575.6,24.9 -575.6,17 -583.5,17 -648.5,17 -717.3,17 -717.3,24.9 -725.2,24.9 -725.2,70.5
	-717.3,70.5 -717.3,78.4 -648.5,78.4 -583.5,78.4 -575.6,78.4 -575.6,70.5 -567.7,70.5 -567.7,24.9 "/>
<g>
	<path class="st4" d="M-679.1,58.4h-5.4V36.6h13.6v2.7h2.7v8.2h-2.7v2.7h-8.2V58.4z M-679.1,44.8h5.4V42h-5.4V44.8z"/>
	<path class="st4" d="M-662.8,55.6h-2.7v-19h5.4v16.3h10.9v5.4h-13.6V55.6z"/>
	<path class="st4" d="M-641,58.4h-5.4v-19h2.7v-2.7h10.9v2.7h2.7v19h-5.4v-8.2h-5.4V58.4z M-635.6,44.8V42h-5.4v2.7H-635.6z"/>
	<path class="st4" d="M-627.4,36.6h5.4v8.2h5.4v-8.2h5.4v10.9h-2.7v2.7h-2.7v8.2h-5.4v-8.2h-2.7v-2.7h-2.7V36.6z"/>
</g>
<g>
	<path class="st26" d="M-1569.2-212.8h43.2v108h43.2v-108h43.2v129.6h-21.6v21.6h-21.6V-40h-43.2v-21.6h-21.6v-21.6h-21.6V-212.8z"
		/>
	<path class="st27" d="M-1418-189.1h21.6v-21.6h108v43.2h-86.4v21.6h64.8v21.6h21.6v64.8h-21.6v21.6h-108v-43.2h86.4v-21.6h-64.8
		v-21.6h-21.6V-189.1z"/>
</g>
<g>
	<path class="st28" d="M-1569.2-233.8h43.2v108h43.2v-108h43.2v129.6h-21.6v21.6h-21.6V-61h-43.2v-21.6h-21.6v-21.6h-21.6V-233.8z"
		/>
	<path class="st29" d="M-1418-212.2h21.6v-21.6h108v43.2h-86.4v21.6h64.8v21.6h21.6v64.8h-21.6V-61h-108v-43.2h86.4v-21.6h-64.8
		v-21.6h-21.6V-212.2z"/>
</g>
<g>
	<g>
		<path class="st0" d="M-1519.8,144.8h27.5v68.7h27.5v-68.7h27.5v82.4h-13.7v13.7h-13.7v13.7h-27.5v-13.7h-13.7v-13.7h-13.7V144.8z"
			/>
		<path class="st0" d="M-1423.7,159.8h13.7v-13.7h68.7v27.5h-54.9v13.7h41.2V201h13.7v41.2h-13.7V256h-68.7v-27.5h54.9v-13.7h-41.2
			V201h-13.7V159.8z"/>
	</g>
	<g>
		<path class="st7" d="M-1519.8,130.3h27.5V199h27.5v-68.7h27.5v82.4h-13.7v13.7h-13.7v13.7h-27.5v-13.7h-13.7v-13.7h-13.7V130.3z"
			/>
		<path class="st7" d="M-1423.7,145.3h13.7v-13.7h68.7v27.5h-54.9v13.7h41.2v13.7h13.7v41.2h-13.7v13.7h-68.7V214h54.9v-13.7h-41.2
			v-13.7h-13.7V145.3z"/>
	</g>
	<g>
		<path class="st4" d="M-1519.8,116.9h27.5v68.7h27.5v-68.7h27.5v82.4h-13.7V213h-13.7v13.7h-27.5V213h-13.7v-13.7h-13.7V116.9z"/>
		<path class="st4" d="M-1423.7,130.6h13.7v-13.7h68.7v27.5h-54.9v13.7h41.2v13.7h13.7V213h-13.7v13.7h-68.7v-27.5h54.9v-13.7h-41.2
			v-13.7h-13.7V130.6z"/>
	</g>
</g>
</svg>
