<!-- Generator: Adobe Illustrator 19.2.1, SVG Export Plug-In  -->
<svg version="1.1"
	 xmlns="http://www.w3.org/2000/svg" xmlns:xlink="http://www.w3.org/1999/xlink" xmlns:a="http://ns.adobe.com/AdobeSVGViewerExtensions/3.0/"
	 x="0px" y="0px" width="99.7px" height="39px" viewBox="0 0 99.7 39" style="enable-background:new 0 0 99.7 39;"
	 xml:space="preserve">
<style type="text/css">
	.st0{fill:#910E46;}
	.st1{fill:#FFFFFF;}
</style>
<defs>
</defs>
<polygon class="st0" points="94.7,5.1 94.7,0 89.7,0 48.6,0 5,0 5,5.1 0,5.1 0,33.9 5,33.9 5,38.9 48.6,38.9 89.7,38.9 94.7,38.9
	94.7,33.9 99.7,33.9 99.7,5.1 "/>
<polygon class="st0" points="94.7,5.1 94.7,0.1 89.7,0.1 48.6,0.1 5,0.1 5,5.1 0,5.1 0,33.9 5,33.9 5,39 48.6,39 89.7,39 94.7,39
	94.7,33.9 99.7,33.9 99.7,5.1 "/>
<g>
	<path class="st1" d="M29.2,26.3h-3.4V12.5h8.6v1.7h1.7v5.2h-1.7v1.7h-5.2L29.2,26.3L29.2,26.3z M29.2,17.7h3.4V16h-3.4V17.7z"/>
	<path class="st1" d="M39.5,24.6h-1.7v-12h3.4v10.3h6.9v3.4h-8.6L39.5,24.6L39.5,24.6z"/>
	<path class="st1" d="M53.3,26.3h-3.4v-12h1.7v-1.7h6.9v1.7h1.7v12h-3.4v-5.2h-3.4L53.3,26.3L53.3,26.3z M56.7,17.7V16h-3.4v1.7
		H56.7z"/>
	<path class="st1" d="M61.9,12.5h3.4v5.2h3.4v-5.2h3.4v6.9h-1.7v1.7h-1.7v5.2h-3.4v-5.2h-1.7v-1.7h-1.7V12.5z"/>
</g>
</svg>
