<?xml version="1.0" encoding="utf-8"?>
<!-- Generator: Adobe Illustrator 22.0.1, SVG Export Plug-In . SVG Version: 6.00 Build 0)  -->
<svg version="1.1" id="Layer_1" xmlns="http://www.w3.org/2000/svg" xmlns:xlink="http://www.w3.org/1999/xlink" x="0px" y="0px"
	 width="270px" height="103px" viewBox="0 0 270 103" style="enable-background:new 0 0 270 103;" xml:space="preserve">
<style type="text/css">
	.st0{fill:#5895B7;}
	.st1{opacity:0.8;}
	.st2{fill:#C17620;}
	.st3{fill:#F4C24A;}
	.st4{fill:#FFFFFF;}
	.st5{fill:#2A6FBA;}
	.st6{fill:#4ABAEF;}
	.st7{fill:#95C9C8;}
	.st8{fill:#DDEFEE;}
	.st9{fill:#1B8E6F;}
	.st10{fill:#3CEA8A;}
	.st11{opacity:0.4;fill:#666666;}
	.st12{fill:#33BC6E;}
	.st13{fill:none;}
	.st14{fill:#7149A4;}
	.st15{fill:#BD86E0;}
	.st16{opacity:0.4;fill:#666666;stroke:#666666;stroke-width:4;stroke-linejoin:bevel;stroke-miterlimit:10;}
	.st17{fill:#F2F2F2;}
	.st18{fill:#E6E6E6;}
	.st19{fill:none;stroke:#000000;stroke-width:4;stroke-linejoin:bevel;stroke-miterlimit:10;}
	.st20{fill:#C6E0DE;}
	.st21{fill:#A7C6C3;}
	.st22{fill:#EE3D53;}
	.st23{fill:none;stroke:#000000;stroke-width:2;stroke-miterlimit:10;}
	.st24{fill:#A17559;}
	.st25{fill:#910E46;}
	.st26{fill:#238D6F;}
	.st27{fill:#704CA2;}
	.st28{fill:#47E88D;}
	.st29{fill:#BC88DE;}
	.st30{fill:#CCCCCC;}
	.st31{opacity:0.4;}
</style>
<g>
	<rect x="603" y="1078.9" class="st0" width="484" height="82"/>
	<rect x="1055" y="1152.9" class="st0" width="107" height="30"/>
	<g class="st1">
		<g>
			<polygon class="st0" points="619,1098.9 619,1180.9 523,1180.9 523,1169.9 535,1169.9 535,1157.9 547,1157.9 547,1145.9 
				559,1145.9 559,1133.9 547,1133.9 547,1121.9 535,1121.9 535,1109.9 523,1109.9 523,1098.9 			"/>
		</g>
		<polygon class="st0" points="605,1156.9 619,1179.9 618.9,1156.9 		"/>
	</g>
	<g>
		<g>
			<polygon class="st2" points="1066,1090.9 1066,1172.9 1162,1172.9 1162,1161.9 1150,1161.9 1150,1149.9 1138,1149.9 1138,1137.9 
				1126,1137.9 1126,1125.9 1138,1125.9 1138,1113.9 1150,1113.9 1150,1101.9 1162,1101.9 1162,1090.9 			"/>
			<polygon class="st3" points="1066,1079.9 1066,1161.9 1162,1161.9 1162,1150.9 1150,1150.9 1150,1138.9 1138,1138.9 1138,1126.9 
				1126,1126.9 1126,1114.9 1138,1114.9 1138,1102.9 1150,1102.9 1150,1090.9 1162,1090.9 1162,1079.9 			"/>
		</g>
		<polygon class="st2" points="1080,1148.9 1066,1171.9 1066,1148.9 		"/>
		<g>
			<g>
				<polygon class="st2" points="610,1090.9 610,1172.9 514,1172.9 514,1161.9 526,1161.9 526,1149.9 538,1149.9 538,1137.9 
					550,1137.9 550,1125.9 538,1125.9 538,1113.9 526,1113.9 526,1101.9 514,1101.9 514,1090.9 				"/>
				<polygon class="st3" points="610,1079.9 610,1161.9 514,1161.9 514,1150.9 526,1150.9 526,1138.9 538,1138.9 538,1126.9 
					550,1126.9 550,1114.9 538,1114.9 538,1102.9 526,1102.9 526,1090.9 514,1090.9 514,1079.9 				"/>
			</g>
			<polygon class="st2" points="596,1148.9 610,1171.9 609.9,1148.9 			"/>
		</g>
		<g>
			<rect x="596" y="1066.9" class="st2" width="484" height="82"/>
			<rect x="596" y="1054.9" class="st3" width="484" height="82"/>
		</g>
	</g>
	<g>
		<path class="st4" d="M666.6,1114.7h-8.6v-34.6h8.6v13h8.6v-13h8.6v34.6h-8.6v-13h-8.6V1114.7z"/>
		<path class="st4" d="M688.2,1084.4h4.3v-4.3h17.3v4.3h4.3v25.9h-4.3v4.3h-17.3v-4.3h-4.3V1084.4z M696.8,1106h8.6v-17.3h-8.6V1106
			z"/>
		<path class="st4" d="M727.1,1114.7h-8.6v-34.6h8.6v17.3h4.3v-4.3h4.3v4.3h4.3v-17.3h8.6v34.6H740v-4.3h-4.3v-4.3h-4.3v4.3h-4.3
			V1114.7z"/>
		<path class="st4" d="M783.2,1080.1h25.9v8.6h-8.6v25.9h-8.6v-25.9h-8.6V1080.1z"/>
		<path class="st4" d="M813.5,1084.4h4.3v-4.3h17.3v4.3h4.3v25.9h-4.3v4.3h-17.3v-4.3h-4.3V1084.4z M822.1,1106h8.6v-17.3h-8.6V1106
			z"/>
		<path class="st4" d="M882.6,1114.7h-8.6v-34.6h21.6v4.3h4.3v13h-4.3v4.3h-13V1114.7z M882.6,1093.1h8.6v-4.3h-8.6V1093.1z"/>
		<path class="st4" d="M908.5,1110.3h-4.3v-30.2h8.6v25.9h17.3v8.6h-21.6V1110.3z"/>
		<path class="st4" d="M943.1,1114.7h-8.6v-30.2h4.3v-4.3H956v4.3h4.3v30.2h-8.6v-13h-8.6V1114.7z M951.7,1093.1v-4.3h-8.6v4.3
			H951.7z"/>
		<path class="st4" d="M964.7,1080.1h8.6v13h8.6v-13h8.6v17.3h-4.3v4.3h-4.3v13h-8.6v-13H969v-4.3h-4.3V1080.1z"/>
	</g>
</g>
<polygon class="st5" points="772,1347.9 760,1347.9 687,1347.9 687,1359.9 675,1359.9 675,1444.9 687,1444.9 687,1456.9 760,1456.9 
	772,1456.9 772,1444.9 784,1444.9 784,1359.9 772,1359.9 "/>
<polygon class="st5" points="772,1347.9 760,1347.9 687,1347.9 687,1359.9 675,1359.9 675,1444.9 687,1444.9 687,1456.9 760,1456.9 
	772,1456.9 772,1444.9 784,1444.9 784,1359.9 772,1359.9 "/>
<g>
	<path class="st4" d="M711.5,1382.1H740v5.7h5.7v17.1H740v5.7h-17.1v-11.4h11.4v-5.7h-22.8V1382.1z M722.9,1416.2h11.4v11.4h-11.4
		V1416.2z"/>
</g>
<polygon class="st5" points="923,1347.9 911,1347.9 838,1347.9 838,1359.9 826,1359.9 826,1444.9 838,1444.9 838,1456.9 911,1456.9 
	923,1456.9 923,1444.9 935,1444.9 935,1359.9 923,1359.9 "/>
<polygon class="st6" points="923,1337.9 911,1337.9 838,1337.9 838,1349.9 826,1349.9 826,1434.9 838,1434.9 838,1446.9 911,1446.9 
	923,1446.9 923,1434.9 935,1434.9 935,1349.9 923,1349.9 "/>
<g>
	<path class="st4" d="M862.5,1372.1H891v5.7h5.7v17.1H891v5.7h-17.1v-11.4h11.4v-5.7h-22.8V1372.1z M873.9,1406.2h11.4v11.4h-11.4
		V1406.2z"/>
</g>
<g>
	<polygon class="st0" points="1958,1192.4 1946.4,1192.4 1946.4,1180.8 1934.8,1180.8 1934.8,1168 1436.1,1168 1436.1,1180.8 
		1424.5,1180.8 1424.5,1192.4 1413,1192.4 1413,1877.1 1424.5,1877.1 1424.5,1888.8 1436.1,1888.8 1436.1,1901.6 1934.8,1901.6 
		1934.8,1888.8 1946.4,1888.8 1946.4,1877.1 1958,1877.1 	"/>
	<polygon class="st7" points="1958,1180.4 1946.4,1180.4 1946.4,1168.7 1934.8,1168.7 1934.8,1155.9 1436.1,1155.9 1436.1,1168.7 
		1424.5,1168.7 1424.5,1180.4 1413,1180.4 1413,1865.1 1424.5,1865.1 1424.5,1876.7 1436.1,1876.7 1436.1,1889.5 1934.8,1889.5 
		1934.8,1876.7 1946.4,1876.7 1946.4,1865.1 1958,1865.1 	"/>
	<polygon class="st8" points="1958,1168.4 1946.4,1168.4 1946.4,1156.7 1934.8,1156.7 1934.8,1143.9 1436.1,1143.9 1436.1,1156.7 
		1424.5,1156.7 1424.5,1168.4 1413,1168.4 1413,1853.1 1424.5,1853.1 1424.5,1864.7 1436.1,1864.7 1436.1,1877.5 1934.8,1877.5 
		1934.8,1864.7 1946.4,1864.7 1946.4,1853.1 1958,1853.1 	"/>
</g>
<g>
	<polygon class="st9" points="909,827.9 898.9,827.9 524,827.9 524,838 514,838 514,895.8 524,895.8 524,905.9 898.9,905.9 
		909,905.9 909,895.8 919.1,895.8 919.1,838 909,838 	"/>
	<polygon class="st10" points="909,817.9 898.9,817.9 524,817.9 524,828 514,828 514,885.8 524,885.8 524,895.9 898.9,895.9 
		909,895.9 909,885.8 919.1,885.8 919.1,828 909,828 	"/>
	<g>
		<path class="st4" d="M634,868.8h-6.9v-27.6h17.3v3.5h3.5V855h-3.5v3.5H634V868.8z M634,851.5h6.9V848H634V851.5z"/>
		<path class="st4" d="M654.7,865.3h-3.5v-24.2h6.9v20.7H672v6.9h-17.3V865.3z"/>
		<path class="st4" d="M682.4,868.8h-6.9v-24.2h3.5v-3.5h13.8v3.5h3.5v24.2h-6.9v-10.4h-6.9V868.8z M689.3,851.5V848h-6.9v3.5H689.3
			z"/>
		<path class="st4" d="M699.7,841.1h6.9v10.4h6.9v-10.4h6.9V855H717v3.5h-3.5v10.4h-6.9v-10.4h-3.5V855h-3.5V841.1z"/>
		<path class="st4" d="M727.3,865.3h-3.5v-20.7h3.5v-3.5h17.3v6.9h-13.8v3.5h6.9v6.9h-6.9v3.5h13.8v6.9h-17.3V865.3z"/>
		<path class="st4" d="M758.4,858.4H755v10.4h-6.9v-27.6h17.3v3.5h3.5V855h-3.5v3.5h3.5v10.4h-6.9v-6.9h-3.5V858.4z M755,851.5h6.9
			V848H755V851.5z"/>
		<path class="st4" d="M796.4,841.1h6.9v27.6h-6.9V841.1z"/>
	</g>
</g>
<g>
	<polygon class="st11" points="548.1,707.3 546.2,701.5 542.1,689.5 524.3,695.5 526.3,701.3 520.5,703.3 524.6,715.3 530.3,713.3 
		532.3,719.1 544.3,715 542.4,709.3 	"/>
	<polygon class="st11" points="586.9,695.2 585,689.5 580.9,677.4 563.1,683.5 565.1,689.2 559.3,691.2 563.4,703.2 569.1,701.3 
		571.1,707 583.1,703 581.2,697.2 	"/>
	<rect x="527.4" y="648.3" transform="matrix(0.9472 -0.3207 0.3207 0.9472 -186.0594 205.5499)" width="7.1" height="38.6"/>
	<polygon points="546.5,702.5 544.6,696.7 540.5,684.7 522.7,690.7 524.6,696.5 518.9,698.5 522.9,710.5 528.7,708.5 530.7,714.3 
		542.7,710.2 540.7,704.4 	"/>
	<rect x="565.8" y="635.3" transform="matrix(0.9472 -0.3207 0.3207 0.9472 -179.8494 217.1996)" width="7.1" height="38.6"/>
	<polygon points="585,689.5 583,683.7 579,671.7 561.2,677.7 563.1,683.5 557.3,685.4 561.4,697.4 567.2,695.5 569.1,701.3 
		581.2,697.2 579.2,691.4 	"/>
	<rect x="517.3" y="626" transform="matrix(0.9472 -0.3207 0.3207 0.9472 -174.9452 207.1054)" width="47.7" height="17.3"/>
</g>
<g>
	<polygon class="st11" points="614.3,740.9 615.3,736.7 617.2,728.1 604.4,725.3 603.5,729.4 599.3,728.5 597.4,737.2 601.6,738.1 
		600.6,742.2 609.3,744.1 610.2,740 	"/>
	<polygon class="st11" points="641.9,747.7 642.8,743.5 644.7,734.9 631.9,732.1 631,736.2 626.8,735.3 624.9,743.9 629.1,744.8 
		628.1,749 636.8,750.9 637.7,746.7 	"/>
	<rect x="615.9" y="697.5" transform="matrix(0.9766 0.2149 -0.2149 0.9766 167.2234 -116.2764)" width="5" height="26.9"/>
	<polygon points="615.1,737.4 616,733.3 617.9,724.6 605.1,721.8 604.2,726 600.1,725.1 598.2,733.7 602.3,734.6 601.4,738.8 
		610,740.7 611,736.5 	"/>
	<rect x="643.6" y="703.6" transform="matrix(0.9766 0.2149 -0.2149 0.9766 169.1775 -122.0783)" width="5" height="26.9"/>
	<polygon points="642.8,743.5 643.7,739.4 645.6,730.7 632.8,727.9 631.9,732.1 627.7,731.1 625.8,739.8 630,740.7 629.1,744.8 
		637.7,746.7 638.6,742.6 	"/>
	<rect x="619.8" y="689" transform="matrix(0.9766 0.2149 -0.2149 0.9766 164.2116 -120.5208)" width="33.3" height="12"/>
</g>
<g>
	<polygon class="st11" points="690.4,679.1 689.7,676 688.3,669.7 678.9,671.8 679.6,674.8 676.5,675.5 677.9,681.9 681,681.2 
		681.7,684.2 688,682.8 687.3,679.8 	"/>
	<polygon class="st11" points="710.8,675.1 710.1,672 708.7,665.7 699.3,667.8 700,670.8 696.9,671.5 698.3,677.8 701.4,677.2 
		702.1,680.2 708.4,678.8 707.7,675.8 	"/>
	<rect x="682" y="648" transform="matrix(0.9761 -0.2173 0.2173 0.9761 -126.617 164.297)" width="3.6" height="19.8"/>
	<polygon points="689.8,676.5 689.1,673.5 687.7,667.2 678.3,669.2 679,672.3 676,673 677.4,679.3 680.4,678.6 681.1,681.7 
		687.4,680.3 686.8,677.2 	"/>
	<rect x="702.3" y="643.5" transform="matrix(0.9761 -0.2173 0.2173 0.9761 -125.1495 168.6017)" width="3.6" height="19.8"/>
	<polygon points="710.1,672 709.4,669 708,662.6 698.6,664.7 699.3,667.8 696.3,668.4 697.7,674.8 700.7,674.1 701.4,677.2 
		707.7,675.8 707.1,672.7 	"/>
	<rect x="678.6" y="637.3" transform="matrix(0.9761 -0.2173 0.2173 0.9761 -122.9237 165.4405)" width="24.4" height="8.8"/>
</g>
<g>
	<polygon class="st11" points="711,724.9 713.6,720.7 719,712.2 706.4,704.1 703.7,708.2 699.6,705.6 694.2,714.2 698.3,716.8 
		695.7,720.9 704.2,726.4 706.9,722.2 	"/>
	<polygon class="st11" points="738,743 740.6,738.8 746,730.3 733.3,722.2 730.7,726.3 726.6,723.7 721.2,732.3 725.3,734.9 
		722.7,739 731.2,744.5 733.9,740.3 	"/>
	<rect x="724.2" y="678.7" transform="matrix(0.844 0.5363 -0.5363 0.844 485.7072 -281.6679)" width="5.7" height="30.9"/>
	<polygon points="713.2,721.4 715.8,717.3 721.2,708.7 708.5,700.7 705.9,704.8 701.8,702.2 696.4,710.7 700.5,713.4 697.9,717.5 
		706.4,722.9 709,718.8 	"/>
	<rect x="751.7" y="696.2" transform="matrix(0.844 0.5363 -0.5363 0.844 499.3317 -293.6587)" width="5.7" height="30.9"/>
	<polygon points="740.6,738.8 743.2,734.7 748.6,726.2 736,718.1 733.3,722.2 729.2,719.6 723.8,728.2 727.9,730.8 725.3,734.9 
		733.9,740.3 736.5,736.2 	"/>
	<rect x="733.7" y="677.1" transform="matrix(0.844 0.5363 -0.5363 0.844 484.2758 -297.0301)" width="38.2" height="13.8"/>
</g>
<g>
	<polygon class="st9" points="432.2,284.4 425.6,284.4 179.2,284.4 179.2,291 172.6,291 172.6,329.1 179.2,329.1 179.2,335.7 
		425.6,335.7 432.2,335.7 432.2,329.1 438.8,329.1 438.8,291 432.2,291 	"/>
	<polygon class="st12" points="432.2,284.4 425.6,284.4 179.2,284.4 179.2,291 172.6,291 172.6,329.1 179.2,329.1 179.2,335.7 
		425.6,335.7 432.2,335.7 432.2,329.1 438.8,329.1 438.8,291 432.2,291 	"/>
	<g>
		<path class="st4" d="M239,302h2.3v-2.3h11.4v4.5h-9.1v9.1h9.1v4.5h-11.4v-2.3H239V302z"/>
		<path class="st4" d="M259.5,317.9h-4.5V302h2.3v-2.3h9.1v2.3h2.3v15.9H264v-6.8h-4.5V317.9z M264,306.5v-2.3h-4.5v2.3H264z"/>
		<path class="st4" d="M273.1,315.6h-2.3v-15.9h4.5v13.6h9.1v4.5h-11.4V315.6z"/>
		<path class="st4" d="M286.7,299.7h4.5v18.2h-4.5V299.7z"/>
		<path class="st4" d="M293.5,299.7h11.4v2.3h2.3v13.6h-2.3v2.3h-11.4V299.7z M298.1,306.5h4.5v-2.3h-4.5V306.5z M298.1,313.3h4.5
			v-2.3h-4.5V313.3z"/>
		<path class="st4" d="M316.2,311.1H314v6.8h-4.5V302h2.3v-2.3h9.1v2.3h2.3v6.8h-2.3v2.3h2.3v6.8h-4.5v-4.5h-2.3V311.1z M314,306.5
			h4.5v-2.3H314V306.5z"/>
		<path class="st4" d="M329.9,317.9h-4.5V302h2.3v-2.3h9.1v2.3h2.3v15.9h-4.5v-6.8h-4.5V317.9z M334.4,306.5v-2.3h-4.5v2.3H334.4z"
			/>
		<path class="st4" d="M341.2,299.7h13.6v4.5h-4.5v13.6h-4.5v-13.6h-4.5V299.7z"/>
		<path class="st4" d="M359.4,315.6h-2.3V302h2.3v-2.3h11.4v4.5h-9.1v2.3h4.5v4.5h-4.5v2.3h9.1v4.5h-11.4V315.6z"/>
	</g>
</g>
<g>
	<polygon class="st9" points="752.2,352.4 745.6,352.4 499.2,352.4 499.2,359 492.6,359 492.6,397.1 499.2,397.1 499.2,403.7 
		745.6,403.7 752.2,403.7 752.2,397.1 758.8,397.1 758.8,359 752.2,359 	"/>
	<polygon class="st10" points="752.2,345.9 745.6,345.9 499.2,345.9 499.2,352.5 492.6,352.5 492.6,390.5 499.2,390.5 499.2,397.1 
		745.6,397.1 752.2,397.1 752.2,390.5 758.8,390.5 758.8,352.5 752.2,352.5 	"/>
	<g>
		<path class="st4" d="M559,363.4h2.3v-2.3h11.4v4.5h-9.1v9.1h9.1v4.5h-11.4V377H559V363.4z"/>
		<path class="st4" d="M579.5,379.3h-4.5v-15.9h2.3v-2.3h9.1v2.3h2.3v15.9H584v-6.8h-4.5V379.3z M584,367.9v-2.3h-4.5v2.3H584z"/>
		<path class="st4" d="M593.1,377h-2.3v-15.9h4.5v13.6h9.1v4.5h-11.4V377z"/>
		<path class="st4" d="M606.7,361.1h4.5v18.2h-4.5V361.1z"/>
		<path class="st4" d="M613.5,361.1h11.4v2.3h2.3V377h-2.3v2.3h-11.4V361.1z M618.1,367.9h4.5v-2.3h-4.5V367.9z M618.1,374.8h4.5
			v-2.3h-4.5V374.8z"/>
		<path class="st4" d="M636.2,372.5H634v6.8h-4.5v-15.9h2.3v-2.3h9.1v2.3h2.3v6.8h-2.3v2.3h2.3v6.8h-4.5v-4.5h-2.3V372.5z
			 M634,367.9h4.5v-2.3H634V367.9z"/>
		<path class="st4" d="M649.9,379.3h-4.5v-15.9h2.3v-2.3h9.1v2.3h2.3v15.9h-4.5v-6.8h-4.5V379.3z M654.4,367.9v-2.3h-4.5v2.3H654.4z
			"/>
		<path class="st4" d="M661.2,361.1h13.6v4.5h-4.5v13.6h-4.5v-13.6h-4.5V361.1z"/>
		<path class="st4" d="M679.4,377h-2.3v-13.6h2.3v-2.3h11.4v4.5h-9.1v2.3h4.5v4.5h-4.5v2.3h9.1v4.5h-11.4V377z"/>
	</g>
</g>
<g>
	<rect x="494.2" y="434.8" class="st9" width="219.8" height="28.8"/>
	<rect x="489.4" y="428.2" class="st9" width="229.4" height="30.6"/>
	<polygon class="st10" points="489.4,423.9 489.4,453.1 494.2,453.1 494.2,458.8 714,458.8 714,453.1 718.8,453.1 718.8,423.9 	"/>
</g>
<polygon class="st9" points="709.2,438.7 709.2,433.6 704.1,433.6 704.1,433.5 647.4,433.5 616.9,433.5 591.3,433.5 567.4,433.5 
	504.1,433.5 504.1,433.6 499,433.6 499,438.7 493.9,438.7 493.9,446.3 499,446.3 499,451.4 504.1,451.4 504.1,451.5 567.4,451.5 
	591.3,451.5 616.9,451.5 647.4,451.5 704.1,451.5 704.1,451.5 709.2,451.5 709.2,446.4 714.3,446.4 714.3,438.7 "/>
<g>
	<rect x="485.3" y="532.8" class="st13" width="4.7" height="0.1"/>
	<rect x="485.3" y="550.7" class="st13" width="4.7" height="0.1"/>
	<polygon class="st4" points="506.3,550.7 506.3,545.6 511.4,545.6 511.4,538 506.3,538 506.3,532.9 501.2,532.9 501.2,532.8 
		490,532.8 490,532.9 485.3,532.9 485.3,550.7 490,550.7 490,550.8 501.2,550.8 501.2,550.7 	"/>
</g>
<g>
	<polygon class="st4" points="459.5,497.2 459.5,492.2 454.4,492.2 454.4,492.1 438.4,492.1 438.4,510.1 454.4,510.1 454.4,510 
		459.5,510 459.5,504.9 464.6,504.9 464.6,497.2 	"/>
	<polygon class="st4" points="446,536.1 446,531 446,531 446,530.9 441.4,530.9 440.9,530.9 436.4,530.9 436.4,531 436.3,531 
		436.3,536.1 431.2,536.1 431.2,543.7 436.3,543.7 436.3,548.8 436.4,548.8 436.4,548.9 440.9,548.9 441.4,548.9 446,548.9 
		446,548.8 446,548.8 446,543.8 451.1,543.8 451.1,536.1 	"/>
</g>
<polygon class="st4" points="396.2,438.7 396.2,433.6 396.2,433.6 396.2,433.5 391.6,433.5 391.1,433.5 386.6,433.5 386.6,433.6 
	386.5,433.6 386.5,438.7 381.5,438.7 381.5,446.3 386.5,446.3 386.5,451.4 386.6,451.4 386.6,451.5 391.1,451.5 391.6,451.5 
	396.2,451.5 396.2,451.5 396.2,451.5 396.2,446.4 401.3,446.4 401.3,438.7 "/>
<polygon class="st14" points="1362,827.9 1351.9,827.9 977,827.9 977,838 967,838 967,895.8 977,895.8 977,905.9 1351.9,905.9 
	1362,905.9 1362,895.8 1372.1,895.8 1372.1,838 1362,838 "/>
<polygon class="st15" points="1362,817.9 1351.9,817.9 977,817.9 977,828 967,828 967,885.8 977,885.8 977,895.9 1351.9,895.9 
	1362,895.9 1362,885.8 1372.1,885.8 1372.1,828 1362,828 "/>
<g>
	<path class="st4" d="M1079.6,868.8h-6.9v-27.6h17.3v3.5h3.5V855h-3.5v3.5h-10.4V868.8z M1079.6,851.5h6.9V848h-6.9V851.5z"/>
	<path class="st4" d="M1100.3,865.3h-3.5v-24.2h6.9v20.7h13.8v6.9h-17.3V865.3z"/>
	<path class="st4" d="M1128,868.8h-6.9v-24.2h3.5v-3.5h13.8v3.5h3.5v24.2h-6.9v-10.4h-6.9V868.8z M1134.9,851.5V848h-6.9v3.5H1134.9
		z"/>
	<path class="st4" d="M1145.3,841.1h6.9v10.4h6.9v-10.4h6.9V855h-3.5v3.5h-3.5v10.4h-6.9v-10.4h-3.5V855h-3.5V841.1z"/>
	<path class="st4" d="M1172.9,865.3h-3.5v-20.7h3.5v-3.5h17.3v6.9h-13.8v3.5h6.9v6.9h-6.9v3.5h13.8v6.9h-17.3V865.3z"/>
	<path class="st4" d="M1204,858.4h-3.5v10.4h-6.9v-27.6h17.3v3.5h3.5V855h-3.5v3.5h3.5v10.4h-6.9v-6.9h-3.5V858.4z M1200.6,851.5
		h6.9V848h-6.9V851.5z"/>
	<path class="st4" d="M1242,841.1h17.3v3.5h3.5V855h-3.5v3.5h-10.4v3.5h13.8v6.9H1242V855h3.5v-3.5h10.4V848H1242V841.1z"/>
</g>
<g>
	<rect x="988" y="821.9" class="st4" width="45.1" height="5.7"/>
	<rect x="1039.2" y="821.9" class="st4" width="5.7" height="5.7"/>
</g>
<g>
	<rect x="533.5" y="822.9" class="st4" width="45.1" height="5.7"/>
	<rect x="584.7" y="822.9" class="st4" width="5.7" height="5.7"/>
</g>
<polygon class="st16" points="922.6,662.9 929,668.5 923.4,674.9 943.8,692.3 943.8,730.1 964.5,704.1 996.3,733.4 1002.1,727.2 
	1007.1,731.8 1078.7,613.1 "/>
<polygon class="st17" points="920.1,655.8 926.5,661.4 920.9,667.8 941.3,685.1 941.3,723 962.1,696.9 993.8,726.3 999.7,720 
	1004.6,724.7 1076.3,606 "/>
<polygon class="st18" points="962.1,696.7 1076.5,605.9 941.4,684.9 941.4,722.8 "/>
<polygon class="st19" points="919.1,655.9 925.4,661.5 919.8,667.9 940.3,685.3 940.3,723.2 961,697.1 992.8,726.5 998.6,720.2 
	1003.6,724.8 1075.2,606.1 "/>
<g>
	<polygon class="st20" points="854.9,349.2 854.9,512.8 865.3,512.8 865.3,522.3 875.7,522.3 875.7,532.8 1323.1,532.8 
		1323.1,522.3 1333.5,522.3 1333.5,512.8 1343.9,512.8 1343.9,349.2 	"/>
	<polygon class="st20" points="1343.9,349.2 1343.9,255.1 1333.5,255.1 1333.5,245.6 1323.1,245.6 1323.1,235.1 875.7,235.1 
		875.7,245.6 865.3,245.6 865.3,255.1 854.9,255.1 854.9,349.2 	"/>
</g>
<g>
	<polygon class="st21" points="865.3,251.7 875.7,251.7 875.7,243.7 865.3,243.7 865.3,251.6 854.9,251.6 854.9,259.6 865.3,259.6 	
		"/>
	<rect x="875.7" y="235" class="st21" width="447.5" height="8"/>
	<polygon class="st21" points="1333.5,251.6 1333.5,243.7 1323.1,243.7 1323.1,251.7 1333.5,251.7 1333.5,259.6 1343.9,259.6 
		1343.9,251.6 	"/>
</g>
<g>
	<g>
		<g>
			<rect x="461.7" y="170.7" width="10.2" height="10.2"/>
		</g>
	</g>
	<g>
		<g>
			<path d="M523.2,160.5v5.1h-5.1v5.1h5.1v20.5h5.1v5.1h-5.1v5.1h5.1h5.1v-10.2h15.4v5.1h5.1v-5.1v-30.7H523.2z M548.8,186.1h-20.5
				v-20.5h20.5V186.1z"/>
		</g>
	</g>
	<g>
		<g>
			<rect x="533.4" y="170.7" width="10.2" height="10.2"/>
		</g>
	</g>
	<g>
		<g>
			<rect x="461.7" y="242.4" width="10.2" height="10.2"/>
		</g>
	</g>
	<g>
		<g>
			<rect x="523.2" y="232.2" width="5.1" height="5.1"/>
		</g>
	</g>
	<g>
		<g>
			<rect x="497.6" y="257.8" width="5.1" height="5.1"/>
		</g>
	</g>
	<g>
		<g>
			<rect x="502.7" y="237.3" width="5.1" height="5.1"/>
		</g>
	</g>
	<g>
		<g>
			<rect x="502.7" y="247.5" width="5.1" height="5.1"/>
		</g>
	</g>
	<g>
		<g>
			<rect x="548.8" y="221.9" width="5.1" height="5.1"/>
		</g>
	</g>
	<g>
		<g>
			<rect x="451.5" y="221.9" width="5.1" height="5.1"/>
		</g>
	</g>
	<g>
		<g>
			<rect x="451.5" y="196.3" width="5.1" height="5.1"/>
		</g>
	</g>
	<g>
		<g>
			<polygon points="507.8,165.6 507.8,170.7 497.6,170.7 497.6,175.8 513,175.8 513,170.7 513,165.6 			"/>
		</g>
	</g>
	<g>
		<g>
			<path d="M548.8,201.4v5.1h-10.2v5.1h-15.4v-5.1h-5.1v5.1h-10.2v5.1h15.4v5.1H513h-5.1v-5.1h-5.1v5.1h-5.1v-5.1h-5.1v5.1h-5.1v5.1
				h10.2v5.1h5.1V227H513v5.1h-5.1v5.1h5.1v10.2h5.1v5.1h5.1v-5.1h15.4v-10.2h5.1v-5.1h-5.1v-10.2h-10.2v-5.1h10.2v5.1h5.1v-5.1h5.1
				v-5.1h5.1v-5.1v-5.1L548.8,201.4L548.8,201.4z M533.4,227v15.4h-15.4V227H533.4z"/>
		</g>
	</g>
	<g>
		<g>
			<polygon points="518.1,191.2 513,191.2 513,196.3 507.8,196.3 507.8,201.4 507.8,206.5 513,206.5 513,201.4 518.1,201.4 
				518.1,196.3 523.2,196.3 523.2,191.2 			"/>
		</g>
	</g>
	<g>
		<g>
			<rect x="507.8" y="257.8" width="10.2" height="5.1"/>
		</g>
	</g>
	<g>
		<g>
			<rect x="492.5" y="165.6" width="5.1" height="5.1"/>
		</g>
	</g>
	<g>
		<g>
			<rect x="533.4" y="201.4" width="5.1" height="5.1"/>
		</g>
	</g>
	<g>
		<g>
			<rect x="538.6" y="196.3" width="5.1" height="5.1"/>
		</g>
	</g>
	<g>
		<g>
			<rect x="472" y="221.9" width="5.1" height="5.1"/>
		</g>
	</g>
	<g>
		<g>
			<path d="M482.2,257.8v-20.5h5.1v-5.1V227h-5.1v5.1h-15.4V227h-5.1h-5.1v5.1h-5.1v30.7h30.7h10.2v-5.1H482.2z M477.1,257.8h-20.5
				v-20.5h20.5V257.8z"/>
		</g>
	</g>
	<g>
		<g>
			<rect x="482.2" y="191.2" width="5.1" height="5.1"/>
		</g>
	</g>
	<g>
		<g>
			<path d="M487.4,160.5h-5.1h-30.7v30.7h5.1v5.1h5.1v-5.1h5.1v5.1h5.1v-5.1h10.2v-10.2h5.1v-5.1h-5.1v-10.2h5.1h5.1v-5.1H487.4z
				 M477.1,186.1h-20.5v-20.5h20.5V186.1z"/>
		</g>
	</g>
	<g>
		<g>
			<rect x="513" y="175.8" width="5.1" height="5.1"/>
		</g>
	</g>
	<g>
		<g>
			<rect x="502.7" y="160.5" width="5.1" height="5.1"/>
		</g>
	</g>
	<g>
		<g>
			<path d="M513,191.2v-5.1h-5.1v-5.1h-5.1v5.1h-10.2v-5.1h-5.1v5.1v5.1h5.1v10.2h-15.4v-5.1H472v5.1h-15.4v5.1h10.2v5.1h-15.4v5.1
				h15.4v5.1h5.1v-5.1h5.1v5.1h5.1v-5.1h10.2v-5.1h-5.1v-5.1h5.1h5.1v5.1h5.1h5.1v-5.1h-5.1v-5.1h-5.1v-10.2L513,191.2L513,191.2z
				 M482.2,211.7H472v-5.1h10.2V211.7z"/>
		</g>
	</g>
	<g>
		<g>
			<polygon points="497.6,242.4 497.6,237.3 497.6,232.2 492.5,232.2 492.5,237.3 487.4,237.3 487.4,242.4 492.5,242.4 492.5,247.5 
				487.4,247.5 487.4,252.6 497.6,252.6 497.6,247.5 502.7,247.5 502.7,242.4 			"/>
		</g>
	</g>
	<g>
		<g>
			<polygon points="543.7,252.6 543.7,247.5 538.6,247.5 538.6,252.6 523.2,252.6 523.2,257.8 533.4,257.8 533.4,262.9 538.6,262.9 
				538.6,257.8 548.8,257.8 548.8,262.9 553.9,262.9 553.9,257.8 553.9,252.6 			"/>
		</g>
	</g>
	<g>
		<g>
			<polygon points="548.8,232.2 548.8,237.3 543.7,237.3 543.7,242.4 553.9,242.4 553.9,237.3 553.9,232.2 			"/>
		</g>
	</g>
</g>
<g>
	<g>
		<polygon class="st9" points="223.4,576.6 219.7,576.6 82.5,576.6 82.5,580.3 78.9,580.3 78.9,601.5 82.5,601.5 82.5,605.1 
			219.7,605.1 223.4,605.1 223.4,601.5 227.1,601.5 227.1,580.3 223.4,580.3 		"/>
		<polygon class="st12" points="223.4,576.6 219.7,576.6 82.5,576.6 82.5,580.3 78.9,580.3 78.9,601.5 82.5,601.5 82.5,605.1 
			219.7,605.1 223.4,605.1 223.4,601.5 227.1,601.5 227.1,580.3 223.4,580.3 		"/>
		<g>
			<path class="st4" d="M110.8,591.4h-1.3v3.8H107v-10.1h6.3v1.3h1.3v3.8h-1.3v1.3h1.3v3.8H112v-2.5h-1.3V591.4z M109.5,588.9h2.5
				v-1.3h-2.5V588.9z"/>
			<path class="st4" d="M117.1,593.9h-1.3v-7.6h1.3v-1.3h6.3v2.5h-5.1v1.3h2.5v2.5h-2.5v1.3h5.1v2.5h-6.3V593.9z"/>
			<path class="st4" d="M125.9,593.9h-1.3v-7.6h1.3v-1.3h5.1v1.3h1.3v2.5h-2.5v-1.3h-2.5v5.1h2.5v-1.3h2.5v2.5H131v1.3h-5.1V593.9z"
				/>
			<path class="st4" d="M136.1,595.2h-2.5v-8.9h1.3v-1.3h5.1v1.3h1.3v8.9h-2.5v-3.8h-2.5V595.2z M138.6,588.9v-1.3h-2.5v1.3H138.6z"
				/>
			<path class="st4" d="M143.6,593.9h-1.3v-8.9h2.5v7.6h5.1v2.5h-6.3V593.9z"/>
			<path class="st4" d="M151.2,585.1h2.5v10.1h-2.5V585.1z"/>
			<path class="st4" d="M155,585.1h6.3v1.3h1.3v7.6h-1.3v1.3H155V585.1z M157.6,588.9h2.5v-1.3h-2.5V588.9z M157.6,592.7h2.5v-1.3
				h-2.5V592.7z"/>
			<path class="st4" d="M167.7,591.4h-1.3v3.8h-2.5v-8.9h1.3v-1.3h5.1v1.3h1.3v3.8h-1.3v1.3h1.3v3.8h-2.5v-2.5h-1.3V591.4z
				 M166.4,588.9h2.5v-1.3h-2.5V588.9z"/>
			<path class="st4" d="M175.3,595.2h-2.5v-8.9h1.3v-1.3h5.1v1.3h1.3v8.9h-2.5v-3.8h-2.5V595.2z M177.8,588.9v-1.3h-2.5v1.3H177.8z"
				/>
			<path class="st4" d="M181.6,585.1h7.6v2.5h-2.5v7.6h-2.5v-7.6h-2.5V585.1z"/>
			<path class="st4" d="M191.7,593.9h-1.3v-7.6h1.3v-1.3h6.3v2.5H193v1.3h2.5v2.5H193v1.3h5.1v2.5h-6.3V593.9z"/>
		</g>
	</g>
	<g>
		<rect x="85" y="578.7" class="st4" width="13.1" height="1.7"/>
		<rect x="99.9" y="578.7" class="st4" width="1.7" height="1.7"/>
	</g>
</g>
<g>
	<g>
		<polygon class="st9" points="223.4,618.6 219.7,618.6 82.5,618.6 82.5,622.3 78.9,622.3 78.9,643.5 82.5,643.5 82.5,647.1 
			219.7,647.1 223.4,647.1 223.4,643.5 227.1,643.5 227.1,622.3 223.4,622.3 		"/>
		<polygon class="st10" points="223.4,614.9 219.7,614.9 82.5,614.9 82.5,618.6 78.9,618.6 78.9,639.8 82.5,639.8 82.5,643.5 
			219.7,643.5 223.4,643.5 223.4,639.8 227.1,639.8 227.1,618.6 223.4,618.6 		"/>
		<g>
			<path class="st4" d="M110.8,629.8h-1.3v3.8H107v-10.1h6.3v1.3h1.3v3.8h-1.3v1.3h1.3v3.8H112V631h-1.3V629.8z M109.5,627.2h2.5
				V626h-2.5V627.2z"/>
			<path class="st4" d="M117.1,632.3h-1.3v-7.6h1.3v-1.3h6.3v2.5h-5.1v1.3h2.5v2.5h-2.5v1.3h5.1v2.5h-6.3V632.3z"/>
			<path class="st4" d="M125.9,632.3h-1.3v-7.6h1.3v-1.3h5.1v1.3h1.3v2.5h-2.5V626h-2.5v5.1h2.5v-1.3h2.5v2.5H131v1.3h-5.1V632.3z"
				/>
			<path class="st4" d="M136.1,633.6h-2.5v-8.9h1.3v-1.3h5.1v1.3h1.3v8.9h-2.5v-3.8h-2.5V633.6z M138.6,627.2V626h-2.5v1.3H138.6z"
				/>
			<path class="st4" d="M143.6,632.3h-1.3v-8.9h2.5v7.6h5.1v2.5h-6.3V632.3z"/>
			<path class="st4" d="M151.2,623.4h2.5v10.1h-2.5V623.4z"/>
			<path class="st4" d="M155,623.4h6.3v1.3h1.3v7.6h-1.3v1.3H155V623.4z M157.6,627.2h2.5V626h-2.5V627.2z M157.6,631h2.5v-1.3h-2.5
				V631z"/>
			<path class="st4" d="M167.7,629.8h-1.3v3.8h-2.5v-8.9h1.3v-1.3h5.1v1.3h1.3v3.8h-1.3v1.3h1.3v3.8h-2.5V631h-1.3V629.8z
				 M166.4,627.2h2.5V626h-2.5V627.2z"/>
			<path class="st4" d="M175.3,633.6h-2.5v-8.9h1.3v-1.3h5.1v1.3h1.3v8.9h-2.5v-3.8h-2.5V633.6z M177.8,627.2V626h-2.5v1.3H177.8z"
				/>
			<path class="st4" d="M181.6,623.4h7.6v2.5h-2.5v7.6h-2.5V626h-2.5V623.4z"/>
			<path class="st4" d="M191.7,632.3h-1.3v-7.6h1.3v-1.3h6.3v2.5H193v1.3h2.5v2.5H193v1.3h5.1v2.5h-6.3V632.3z"/>
		</g>
	</g>
	<g>
		<rect x="85" y="617.7" class="st4" width="13.1" height="1.7"/>
		<rect x="99.9" y="617.7" class="st4" width="1.7" height="1.7"/>
	</g>
</g>
<g>
	<rect x="504.8" y="349.4" class="st4" width="23.6" height="3"/>
	<rect x="531.5" y="349.4" class="st4" width="3" height="3"/>
</g>
<g>
	<rect x="184.3" y="288" class="st4" width="23.6" height="3"/>
	<rect x="211.1" y="288" class="st4" width="3" height="3"/>
</g>
<g>
	<polygon class="st22" points="154.3,411.5 154.3,404 135.6,404 135.6,411.5 128.2,411.5 128.2,418.9 128.2,430.1 135.6,430.1 
		135.6,437.6 146.8,437.6 154.3,437.6 154.3,430.1 161.7,430.1 161.7,418.9 161.7,411.5 	"/>
	<line class="st23" x1="136.2" y1="437.6" x2="136.2" y2="447.5"/>
	<line class="st23" x1="153.7" y1="437.6" x2="153.7" y2="447.5"/>
	<polygon class="st24" points="152.7,445.7 150.5,445.7 137.2,445.7 137.2,447.9 135,447.9 135,463.4 137.2,463.4 137.2,465.6 
		150.5,465.6 152.7,465.6 152.7,463.4 154.9,463.4 154.9,447.9 152.7,447.9 	"/>
</g>
<polygon class="st25" points="221.4,850.7 221.4,842.8 213.4,842.8 148.4,842.8 79.7,842.8 79.7,850.7 71.7,850.7 71.7,896.3 
	79.7,896.3 79.7,904.2 148.4,904.2 213.4,904.2 221.4,904.2 221.4,896.3 229.3,896.3 229.3,850.7 "/>
<polygon class="st25" points="221.4,850.8 221.4,842.9 213.4,842.9 148.4,842.9 79.7,842.9 79.7,850.8 71.7,850.8 71.7,896.4 
	79.7,896.4 79.7,904.3 148.4,904.3 213.4,904.3 221.4,904.3 221.4,896.4 229.3,896.4 229.3,850.8 "/>
<g>
	<path class="st4" d="M117.9,884.3h-5.4v-21.8H126v2.7h2.7v8.2H126v2.7h-8.2V884.3z M117.9,870.7h5.4v-2.7h-5.4V870.7z"/>
	<path class="st4" d="M134.2,881.5h-2.7v-19h5.4v16.3h10.9v5.4h-13.6V881.5z"/>
	<path class="st4" d="M156,884.3h-5.4v-19h2.7v-2.7h10.9v2.7h2.7v19h-5.4v-8.2H156V884.3z M161.4,870.7v-2.7H156v2.7H161.4z"/>
	<path class="st4" d="M169.6,862.5h5.4v8.2h5.4v-8.2h5.4v10.9h-2.7v2.7h-2.7v8.2H175v-8.2h-2.7v-2.7h-2.7V862.5z"/>
</g>
<polygon class="st25" points="391.4,850.7 391.4,842.8 383.4,842.8 318.4,842.8 249.7,842.8 249.7,850.7 241.7,850.7 241.7,896.3 
	249.7,896.3 249.7,904.2 318.4,904.2 383.4,904.2 391.4,904.2 391.4,896.3 399.3,896.3 399.3,850.7 "/>
<polygon class="st22" points="391.4,842.8 391.4,834.9 383.4,834.9 318.4,834.9 249.7,834.9 249.7,842.8 241.7,842.8 241.7,888.4 
	249.7,888.4 249.7,896.3 318.4,896.3 383.4,896.3 391.4,896.3 391.4,888.4 399.3,888.4 399.3,842.8 "/>
<g>
	<path class="st4" d="M287.9,876.3h-5.4v-21.8H296v2.7h2.7v8.2H296v2.7h-8.2V876.3z M287.9,862.7h5.4v-2.7h-5.4V862.7z"/>
	<path class="st4" d="M304.2,873.5h-2.7v-19h5.4v16.3h10.9v5.4h-13.6V873.5z"/>
	<path class="st4" d="M326,876.3h-5.4v-19h2.7v-2.7h10.9v2.7h2.7v19h-5.4v-8.2H326V876.3z M331.4,862.7v-2.7H326v2.7H331.4z"/>
	<path class="st4" d="M339.6,854.5h5.4v8.2h5.4v-8.2h5.4v10.9h-2.7v2.7h-2.7v8.2H345v-8.2h-2.7v-2.7h-2.7V854.5z"/>
</g>
<g>
	<path class="st26" d="M-602.2,605.1h43.2v108h43.2v-108h43.2v129.6h-21.6v21.6h-21.6v21.6H-559v-21.6h-21.6v-21.6h-21.6V605.1z"/>
	<path class="st27" d="M-451,628.8h21.6v-21.6h108v43.2h-86.4V672h64.8v21.6h21.6v64.8H-343V780h-108v-43.2h86.4v-21.6h-64.8v-21.6
		H-451V628.8z"/>
</g>
<g>
	<path class="st28" d="M-602.2,584.1h43.2v108h43.2v-108h43.2v129.6h-21.6v21.6h-21.6v21.6H-559v-21.6h-21.6v-21.6h-21.6V584.1z"/>
	<path class="st29" d="M-451,605.7h21.6v-21.6h108v43.2h-86.4v21.6h64.8v21.6h21.6v64.8H-343v21.6h-108v-43.2h86.4v-21.6h-64.8
		v-21.6H-451V605.7z"/>
</g>
<g>
	<g>
		<path class="st0" d="M-552.8,962.7h27.5v68.7h27.5v-68.7h27.5v82.4h-13.7v13.7h-13.7v13.7h-27.5v-13.7h-13.7v-13.7h-13.7V962.7z"
			/>
		<path class="st0" d="M-456.7,977.7h13.7V964h68.7v27.5h-54.9v13.7h41.2v13.7h13.7v41.2H-388v13.7h-68.7v-27.5h54.9v-13.7H-443
			v-13.7h-13.7V977.7z"/>
	</g>
	<g>
		<path class="st7" d="M-552.8,948.2h27.5v68.7h27.5v-68.7h27.5v82.4h-13.7v13.7h-13.7v13.7h-27.5v-13.7h-13.7v-13.7h-13.7V948.2z"
			/>
		<path class="st7" d="M-456.7,963.2h13.7v-13.7h68.7V977h-54.9v13.7h41.2v13.7h13.7v41.2H-388v13.7h-68.7v-27.5h54.9v-13.7H-443
			v-13.7h-13.7V963.2z"/>
	</g>
	<g>
		<path class="st4" d="M-552.8,934.8h27.5v68.7h27.5v-68.7h27.5v82.4h-13.7v13.7h-13.7v13.7h-27.5v-13.7h-13.7v-13.7h-13.7V934.8z"
			/>
		<path class="st4" d="M-456.7,948.5h13.7v-13.7h68.7v27.5h-54.9V976h41.2v13.7h13.7v41.2H-388v13.7h-68.7v-27.5h54.9v-13.7H-443
			v-13.7h-13.7V948.5z"/>
	</g>
</g>
<g>
	<g>
		<path class="st0" d="M21.6,103H0V16.6h54v10.8h10.8v32.4H54v10.8H21.6V103z M21.6,49h21.6V38.2H21.6V49z"/>
		<path class="st0" d="M75.6,27.4h10.8V16.6h43.2v10.8h10.8v64.8h-10.8V103H86.4V92.2H75.6V27.4z M97.2,81.4h21.6V38.2H97.2V81.4z"
			/>
		<path class="st0" d="M162,92.2h-10.8V16.6h21.6v64.8H216V103h-54V92.2z"/>
		<path class="st0" d="M205.2,16.6h21.6V49h21.6V16.6H270v43.2h-10.8v10.8h-10.8V103h-21.6V70.6H216V59.8h-10.8V16.6z"/>
	</g>
	<g>
		<path class="st30" d="M21.6,94.6H0V8.2h54V19h10.8v32.4H54v10.8H21.6V94.6z M21.6,40.6h21.6V29.8H21.6V40.6z"/>
		<path class="st30" d="M75.6,19h10.8V8.2h43.2V19h10.8v64.8h-10.8v10.8H86.4V83.8H75.6V19z M97.2,73h21.6V29.8H97.2V73z"/>
		<path class="st30" d="M162,83.8h-10.8V8.2h21.6V73H216v21.6h-54V83.8z"/>
		<path class="st30" d="M205.2,8.2h21.6v32.4h21.6V8.2H270v43.2h-10.8v10.8h-10.8v32.4h-21.6V62.2H216V51.4h-10.8V8.2z"/>
	</g>
	<g>
		<path class="st4" d="M21.6,86.4H0V0h54v10.8h10.8v32.4H54V54H21.6V86.4z M21.6,32.4h21.6V21.6H21.6V32.4z"/>
		<path class="st4" d="M75.6,10.8h10.8V0h43.2v10.8h10.8v64.8h-10.8v10.8H86.4V75.6H75.6V10.8z M97.2,64.8h21.6V21.6H97.2V64.8z"/>
		<path class="st4" d="M162,75.6h-10.8V0h21.6v64.8H216v21.6h-54V75.6z"/>
		<path class="st4" d="M205.2,0h21.6v32.4h21.6V0H270v43.2h-10.8V54h-10.8v32.4h-21.6V54H216V43.2h-10.8V0z"/>
	</g>
</g>
<g>
	<g id="u9MLE1.tif_3_" class="st31">
		
			<image style="overflow:visible;" width="163" height="260" id="Layer_1_3_" xlink:href="CE648CAAD7D7E53.png"  transform="matrix(0.8268 0.2296 -0.2296 0.8268 -142.213 166.0877)">
		</image>
	</g>
	<g id="u9MLE1.tif_2_">
		
			<image style="overflow:visible;" width="163" height="260" id="Layer_1_1_" xlink:href="CE648CAAD7D7E51.png"  transform="matrix(0.8455 0.2348 -0.2348 0.8455 -148.2452 150.3846)">
		</image>
	</g>
</g>
<g>
	<g class="st1">
		<g>
			<polygon class="st0" points="348.4,-213.5 348.4,-127 449.6,-127 449.6,-138.6 437,-138.6 437,-151.3 424.3,-151.3 424.3,-163.9 
				411.7,-163.9 411.7,-176.6 424.3,-176.6 424.3,-189.2 437,-189.2 437,-201.9 449.6,-201.9 449.6,-213.5 			"/>
		</g>
		<polygon class="st0" points="363.2,-152.3 348.4,-128.1 348.5,-152.3 		"/>
	</g>
	<rect x="-139.8" y="-236.4" class="st0" width="510.3" height="86.5"/>
	<rect x="336.8" y="-158.4" class="st0" width="112.8" height="31.6"/>
	<g class="st1">
		<g>
			<polygon class="st0" points="-131.9,-213.3 -131.9,-126.9 -233.1,-126.9 -233.1,-138.5 -220.5,-138.5 -220.5,-151.1 
				-207.8,-151.1 -207.8,-163.8 -195.2,-163.8 -195.2,-176.4 -207.8,-176.4 -207.8,-189.1 -220.5,-189.1 -220.5,-201.7 
				-233.1,-201.7 -233.1,-213.3 			"/>
		</g>
		<polygon class="st0" points="-146.7,-152.2 -131.9,-127.9 -132,-152.2 		"/>
	</g>
	<g>
		<g>
			<polygon class="st2" points="348.4,-223.8 348.4,-137.3 449.6,-137.3 449.6,-148.9 437,-148.9 437,-161.5 424.3,-161.5 
				424.3,-174.2 411.7,-174.2 411.7,-186.9 424.3,-186.9 424.3,-199.5 437,-199.5 437,-212.2 449.6,-212.2 449.6,-223.8 			"/>
			<polygon class="st3" points="348.4,-235.4 348.4,-148.9 449.6,-148.9 449.6,-160.5 437,-160.5 437,-173.1 424.3,-173.1 
				424.3,-185.8 411.7,-185.8 411.7,-198.4 424.3,-198.4 424.3,-211.1 437,-211.1 437,-223.8 449.6,-223.8 449.6,-235.4 			"/>
		</g>
		<polygon class="st2" points="363.2,-162.6 348.4,-138.3 348.5,-162.6 		"/>
		<g>
			<g>
				<polygon class="st2" points="-132.4,-223.8 -132.4,-137.3 -233.6,-137.3 -233.6,-148.9 -221,-148.9 -221,-161.5 -208.3,-161.5 
					-208.3,-174.2 -195.7,-174.2 -195.7,-186.9 -208.3,-186.9 -208.3,-199.5 -221,-199.5 -221,-212.2 -233.6,-212.2 -233.6,-223.8 
									"/>
				<polygon class="st3" points="-132.4,-235.4 -132.4,-148.9 -233.6,-148.9 -233.6,-160.5 -221,-160.5 -221,-173.1 -208.3,-173.1 
					-208.3,-185.8 -195.7,-185.8 -195.7,-198.4 -208.3,-198.4 -208.3,-211.1 -221,-211.1 -221,-223.8 -233.6,-223.8 -233.6,-235.4 
									"/>
			</g>
			<polygon class="st2" points="-147.2,-162.6 -132.4,-138.3 -132.5,-162.6 			"/>
		</g>
		<g>
			<rect x="-147.2" y="-249.1" class="st2" width="510.3" height="86.5"/>
			<rect x="-147.2" y="-261.7" class="st3" width="510.3" height="86.5"/>
		</g>
	</g>
</g>
<g>
	<g>
		<path class="st25" d="M-33-186.8h-37.4v-59.9H-33v7.5h7.5v15H-33v15h7.5v15H-33V-186.8z M-55.5-224.2h15v-7.5h-15V-224.2z
			 M-55.5-201.7h15v-7.5h-15V-201.7z"/>
		<path class="st25" d="M-3.1-186.8h-15v-52.4h7.5v-7.5h30v7.5h7.5v52.4h-15v-22.5h-15V-186.8z M11.9-224.2v-7.5h-15v7.5H11.9z"/>
		<path class="st25" d="M41.9-194.2h-7.5v-52.4h15v44.9h30v15H41.9V-194.2z"/>
		<path class="st25" d="M94.3-194.2h-7.5v-52.4h15v44.9h30v15H94.3V-194.2z"/>
		<path class="st25" d="M139.2-239.2h7.5v-7.5h30v7.5h7.5v44.9h-7.5v7.5h-30v-7.5h-7.5V-239.2z M154.2-201.7h15v-30h-15V-201.7z"/>
		<path class="st25" d="M191.7-239.2h7.5v-7.5h30v7.5h7.5v44.9h-7.5v7.5h-30v-7.5h-7.5V-239.2z M206.6-201.7h15v-30h-15V-201.7z"/>
		<path class="st25" d="M266.5-216.7h-7.5v30h-15v-59.9h15v7.5h7.5v7.5h7.5v-15h15v59.9h-15v-22.5h-7.5V-216.7z"/>
	</g>
	<g>
		<path class="st22" d="M-33-192.6h-37.4v-59.9H-33v7.5h7.5v15H-33v15h7.5v15H-33V-192.6z M-55.5-230h15v-7.5h-15V-230z
			 M-55.5-207.6h15v-7.5h-15V-207.6z"/>
		<path class="st22" d="M-3.1-192.6h-15V-245h7.5v-7.5h30v7.5h7.5v52.4h-15V-215h-15V-192.6z M11.9-230v-7.5h-15v7.5H11.9z"/>
		<path class="st22" d="M41.9-200.1h-7.5v-52.4h15v44.9h30v15H41.9V-200.1z"/>
		<path class="st22" d="M94.3-200.1h-7.5v-52.4h15v44.9h30v15H94.3V-200.1z"/>
		<path class="st22" d="M139.2-245h7.5v-7.5h30v7.5h7.5v44.9h-7.5v7.5h-30v-7.5h-7.5V-245z M154.2-207.6h15v-30h-15V-207.6z"/>
		<path class="st22" d="M191.7-245h7.5v-7.5h30v7.5h7.5v44.9h-7.5v7.5h-30v-7.5h-7.5V-245z M206.6-207.6h15v-30h-15V-207.6z"/>
		<path class="st22" d="M266.5-222.5h-7.5v30h-15v-59.9h15v7.5h7.5v7.5h7.5v-15h15v59.9h-15V-215h-7.5V-222.5z"/>
	</g>
</g>
<g>
	<path class="st0" d="M458.6-40h20.7v6.9h-20.7V-40z"/>
	<path class="st0" d="M513.9-22.7H507v-27.6h17.3v3.5h3.5v10.4h-3.5v3.5h-10.4V-22.7z M513.9-40h6.9v-3.5h-6.9V-40z"/>
	<path class="st0" d="M541.5-33.1h-3.5v10.4h-6.9v-27.6h17.3v3.5h3.5v10.4h-3.5v3.5h3.5v10.4H545v-6.9h-3.5V-33.1z M538.1-40h6.9
		v-3.5h-6.9V-40z"/>
	<path class="st0" d="M558.8-26.2h-3.5v-20.7h3.5v-3.5h17.3v6.9h-13.8v3.5h6.9v6.9h-6.9v3.5h13.8v6.9h-17.3V-26.2z"/>
	<path class="st0" d="M579.6-46.9h3.5v-3.5h17.3v6.9h-13.8v3.5h10.4v3.5h3.5v10.4h-3.5v3.5h-17.3v-6.9h13.8v-3.5H583v-3.5h-3.5
		V-46.9z"/>
	<path class="st0" d="M603.8-46.9h3.5v-3.5h17.3v6.9h-13.8v3.5H621v3.5h3.5v10.4H621v3.5h-17.3v-6.9h13.8v-3.5h-10.4v-3.5h-3.5
		V-46.9z"/>
	<path class="st0" d="M659-22.7h-6.9v-24.2h3.5v-3.5h13.8v3.5h3.5v24.2H666v-10.4H659V-22.7z M666-40v-3.5H659v3.5H666z"/>
	<path class="st0" d="M686.7-36.6h-3.5v13.8h-6.9v-27.6h6.9v3.5h3.5v3.5h3.5v-6.9h6.9v27.6h-6.9v-10.4h-3.5V-36.6z"/>
	<path class="st0" d="M700.5-50.4h6.9V-40h6.9v-10.4h6.9v13.8h-3.5v3.5h-3.5v10.4h-6.9v-10.4H704v-3.5h-3.5V-50.4z"/>
	<path class="st0" d="M755.8-22.7h-6.9v-27.6h6.9v6.9h3.5v-3.5h3.5v-3.5h6.9v6.9h-3.5v3.5h-3.5v6.9h3.5v3.5h3.5v6.9h-6.9v-3.5h-3.5
		v-3.5h-3.5V-22.7z"/>
	<path class="st0" d="M776.5-26.2h-3.5v-20.7h3.5v-3.5h17.3v6.9H780v3.5h6.9v6.9H780v3.5h13.8v6.9h-17.3V-26.2z"/>
	<path class="st0" d="M797.3-50.4h6.9V-40h6.9v-10.4h6.9v13.8h-3.5v3.5h-3.5v10.4h-6.9v-10.4h-3.5v-3.5h-3.5V-50.4z"/>
	<path class="st0" d="M845.7-50.4h20.7v6.9h-6.9v20.7h-6.9v-20.7h-6.9V-50.4z"/>
	<path class="st0" d="M869.9-46.9h3.5v-3.5h13.8v3.5h3.5v20.7h-3.5v3.5h-13.8v-3.5h-3.5V-46.9z M876.8-29.7h6.9v-13.8h-6.9V-29.7z"
		/>
	<path class="st0" d="M925.2-22.7h-6.9v-27.6h17.3v3.5h3.5v10.4h-3.5v3.5h-10.4V-22.7z M925.2-40h6.9v-3.5h-6.9V-40z"/>
	<path class="st0" d="M945.9-26.2h-3.5v-24.2h6.9v20.7h13.8v6.9h-17.3V-26.2z"/>
	<path class="st0" d="M973.5-22.7h-6.9v-24.2h3.5v-3.5h13.8v3.5h3.5v24.2h-6.9v-10.4h-6.9V-22.7z M980.4-40v-3.5h-6.9v3.5H980.4z"/>
	<path class="st0" d="M990.8-50.4h6.9V-40h6.9v-10.4h6.9v13.8h-3.5v3.5h-3.5v10.4h-6.9v-10.4h-3.5v-3.5h-3.5V-50.4z"/>
	<path class="st0" d="M1039.2-40h20.7v6.9h-20.7V-40z"/>
</g>
<g>
	<path class="st30" d="M457.7-45.9h20.7v6.9h-20.7V-45.9z"/>
	<path class="st30" d="M513-28.6h-6.9v-27.6h17.3v3.5h3.5v10.4h-3.5v3.5H513V-28.6z M513-45.9h6.9v-3.5H513V-45.9z"/>
	<path class="st30" d="M540.7-39h-3.5v10.4h-6.9v-27.6h17.3v3.5h3.5v10.4h-3.5v3.5h3.5v10.4h-6.9v-6.9h-3.5V-39z M537.2-45.9h6.9
		v-3.5h-6.9V-45.9z"/>
	<path class="st30" d="M558-32.1h-3.5v-20.7h3.5v-3.5h17.3v6.9h-13.8v3.5h6.9v6.9h-6.9v3.5h13.8v6.9H558V-32.1z"/>
	<path class="st30" d="M578.7-52.8h3.5v-3.5h17.3v6.9h-13.8v3.5H596v3.5h3.5v10.4H596v3.5h-17.3v-6.9h13.8V-39h-10.4v-3.5h-3.5
		V-52.8z"/>
	<path class="st30" d="M602.9-52.8h3.5v-3.5h17.3v6.9h-13.8v3.5h10.4v3.5h3.5v10.4h-3.5v3.5h-17.3v-6.9h13.8V-39h-10.4v-3.5h-3.5
		V-52.8z"/>
	<path class="st30" d="M658.2-28.6h-6.9v-24.2h3.5v-3.5h13.8v3.5h3.5v24.2h-6.9V-39h-6.9V-28.6z M665.1-45.9v-3.5h-6.9v3.5H665.1z"
		/>
	<path class="st30" d="M685.8-42.5h-3.5v13.8h-6.9v-27.6h6.9v3.5h3.5v3.5h3.5v-6.9h6.9v27.6h-6.9V-39h-3.5V-42.5z"/>
	<path class="st30" d="M699.7-56.3h6.9v10.4h6.9v-10.4h6.9v13.8h-3.5v3.5h-3.5v10.4h-6.9V-39h-3.5v-3.5h-3.5V-56.3z"/>
	<path class="st30" d="M754.9-28.6H748v-27.6h6.9v6.9h3.5v-3.5h3.5v-3.5h6.9v6.9h-3.5v3.5h-3.5v6.9h3.5v3.5h3.5v6.9h-6.9v-3.5h-3.5
		v-3.5h-3.5V-28.6z"/>
	<path class="st30" d="M775.7-32.1h-3.5v-20.7h3.5v-3.5H793v6.9h-13.8v3.5h6.9v6.9h-6.9v3.5H793v6.9h-17.3V-32.1z"/>
	<path class="st30" d="M796.4-56.3h6.9v10.4h6.9v-10.4h6.9v13.8h-3.5v3.5h-3.5v10.4h-6.9V-39h-3.5v-3.5h-3.5V-56.3z"/>
	<path class="st30" d="M844.8-56.3h20.7v6.9h-6.9v20.7h-6.9v-20.7h-6.9V-56.3z"/>
	<path class="st30" d="M869-52.8h3.5v-3.5h13.8v3.5h3.5v20.7h-3.5v3.5h-13.8v-3.5H869V-52.8z M875.9-35.6h6.9v-13.8h-6.9V-35.6z"/>
	<path class="st30" d="M924.3-28.6h-6.9v-27.6h17.3v3.5h3.5v10.4h-3.5v3.5h-10.4V-28.6z M924.3-45.9h6.9v-3.5h-6.9V-45.9z"/>
	<path class="st30" d="M945-32.1h-3.5v-24.2h6.9v20.7h13.8v6.9H945V-32.1z"/>
	<path class="st30" d="M972.7-28.6h-6.9v-24.2h3.5v-3.5H983v3.5h3.5v24.2h-6.9V-39h-6.9V-28.6z M979.6-45.9v-3.5h-6.9v3.5H979.6z"/>
	<path class="st30" d="M989.9-56.3h6.9v10.4h6.9v-10.4h6.9v13.8h-3.5v3.5h-3.5v10.4h-6.9V-39h-3.5v-3.5h-3.5V-56.3z"/>
	<path class="st30" d="M1038.3-45.9h20.7v6.9h-20.7V-45.9z"/>
</g>
<g>
	<path class="st4" d="M457.7-50.3h20.7v6.9h-20.7V-50.3z"/>
	<path class="st4" d="M513-33.1h-6.9v-27.6h17.3v3.5h3.5v10.4h-3.5v3.5H513V-33.1z M513-50.3h6.9v-3.5H513V-50.3z"/>
	<path class="st4" d="M540.7-43.4h-3.5v10.4h-6.9v-27.6h17.3v3.5h3.5v10.4h-3.5v3.5h3.5v10.4h-6.9V-40h-3.5V-43.4z M537.2-50.3h6.9
		v-3.5h-6.9V-50.3z"/>
	<path class="st4" d="M558-36.5h-3.5v-20.7h3.5v-3.5h17.3v6.9h-13.8v3.5h6.9v6.9h-6.9v3.5h13.8v6.9H558V-36.5z"/>
	<path class="st4" d="M578.7-57.2h3.5v-3.5h17.3v6.9h-13.8v3.5H596v3.5h3.5v10.4H596v3.5h-17.3V-40h13.8v-3.5h-10.4v-3.5h-3.5V-57.2
		z"/>
	<path class="st4" d="M602.9-57.2h3.5v-3.5h17.3v6.9h-13.8v3.5h10.4v3.5h3.5v10.4h-3.5v3.5h-17.3V-40h13.8v-3.5h-10.4v-3.5h-3.5
		V-57.2z"/>
	<path class="st4" d="M658.2-33.1h-6.9v-24.2h3.5v-3.5h13.8v3.5h3.5v24.2h-6.9v-10.4h-6.9V-33.1z M665.1-50.3v-3.5h-6.9v3.5H665.1z"
		/>
	<path class="st4" d="M685.8-46.9h-3.5v13.8h-6.9v-27.6h6.9v3.5h3.5v3.5h3.5v-6.9h6.9v27.6h-6.9v-10.4h-3.5V-46.9z"/>
	<path class="st4" d="M699.7-60.7h6.9v10.4h6.9v-10.4h6.9v13.8h-3.5v3.5h-3.5v10.4h-6.9v-10.4h-3.5v-3.5h-3.5V-60.7z"/>
	<path class="st4" d="M754.9-33.1H748v-27.6h6.9v6.9h3.5v-3.5h3.5v-3.5h6.9v6.9h-3.5v3.5h-3.5v6.9h3.5v3.5h3.5v6.9h-6.9v-3.5h-3.5
		V-40h-3.5V-33.1z"/>
	<path class="st4" d="M775.7-36.5h-3.5v-20.7h3.5v-3.5H793v6.9h-13.8v3.5h6.9v6.9h-6.9v3.5H793v6.9h-17.3V-36.5z"/>
	<path class="st4" d="M796.4-60.7h6.9v10.4h6.9v-10.4h6.9v13.8h-3.5v3.5h-3.5v10.4h-6.9v-10.4h-3.5v-3.5h-3.5V-60.7z"/>
	<path class="st4" d="M844.8-60.7h20.7v6.9h-6.9v20.7h-6.9v-20.7h-6.9V-60.7z"/>
	<path class="st4" d="M869-57.2h3.5v-3.5h13.8v3.5h3.5v20.7h-3.5v3.5h-13.8v-3.5H869V-57.2z M875.9-40h6.9v-13.8h-6.9V-40z"/>
	<path class="st4" d="M924.3-33.1h-6.9v-27.6h17.3v3.5h3.5v10.4h-3.5v3.5h-10.4V-33.1z M924.3-50.3h6.9v-3.5h-6.9V-50.3z"/>
	<path class="st4" d="M945-36.5h-3.5v-24.2h6.9V-40h13.8v6.9H945V-36.5z"/>
	<path class="st4" d="M972.7-33.1h-6.9v-24.2h3.5v-3.5H983v3.5h3.5v24.2h-6.9v-10.4h-6.9V-33.1z M979.6-50.3v-3.5h-6.9v3.5H979.6z"
		/>
	<path class="st4" d="M989.9-60.7h6.9v10.4h6.9v-10.4h6.9v13.8h-3.5v3.5h-3.5v10.4h-6.9v-10.4h-3.5v-3.5h-3.5V-60.7z"/>
	<path class="st4" d="M1038.3-50.3h20.7v6.9h-20.7V-50.3z"/>
</g>
</svg>
