<svg xmlns="http://www.w3.org/2000/svg" width="170.9" height="65.2" viewBox="0 0 170.9 65.2"><style>.st0{fill:#5895b7}.st1{fill:#ccc}.st2{fill:#fff}</style><path class="st0" d="M13.7 65.2H0V10.5h34.2v6.8H41v20.5h-6.8v6.8H13.7v20.6zm0-34.2h13.7v-6.8H13.7V31zm34.2-13.7h6.8v-6.8H82v6.8h6.8v41H82v6.8H54.7v-6.8h-6.8v-41zm13.6 34.2h13.7V24.2H61.5v27.3zm41.1 6.9h-6.8V10.5h13.7v41h27.3v13.7h-34.2v-6.8zm27.3-47.9h13.7V31h13.7V10.5H171v27.3h-6.8v6.8h-6.8v20.5h-13.7V44.7h-6.8v-6.8h-6.8V10.5z"/><path class="st1" d="M13.7 59.9H0V5.2h34.2V12H41v20.5h-6.8v6.8H13.7v20.6zm0-34.2h13.7v-6.8H13.7v6.8zM47.9 12h6.8V5.2H82V12h6.8v41H82v6.8H54.7V53h-6.8V12zm13.6 34.2h13.7V18.9H61.5v27.3zm41.1 6.8h-6.8V5.2h13.7v41h27.3v13.7h-34.2V53zm27.3-47.8h13.7v20.5h13.7V5.2H171v27.3h-6.8v6.8h-6.8v20.5h-13.7V39.4h-6.8v-6.8h-6.8V5.2z"/><path class="st2" d="M13.7 54.7H0V0h34.2v6.8H41v20.5h-6.8v6.8H13.7v20.6zm0-34.2h13.7v-6.8H13.7v6.8zM47.9 6.8h6.8V0H82v6.8h6.8v41H82v6.8H54.7v-6.8h-6.8v-41zM61.5 41h13.7V13.7H61.5V41zm41.1 6.9h-6.8V0h13.7v41h27.3v13.7h-34.2v-6.8zM129.9 0h13.7v20.5h13.7V0H171v27.3h-6.8v6.8h-6.8v20.5h-13.7V34.2h-6.8v-6.8h-6.8V0z"/></svg>