<svg id="Layer_1" xmlns="http://www.w3.org/2000/svg" xmlns:xlink="http://www.w3.org/1999/xlink" width="270" height="103" viewBox="0 0 270 103"><style>.st0{fill:#5895b7}.st1{opacity:.8}.st2{fill:#c17620}.st3{fill:#f4c24a}.st4{fill:#fff}.st5{fill:#2a6fba}.st6{fill:#4abaef}.st7{fill:#95c9c8}.st8{fill:#ddefee}.st9{fill:#1b8e6f}.st10{fill:#3cea8a}.st11{opacity:.4;fill:#666}.st12{fill:#33bc6e}.st13{fill:none}.st14{fill:#7149a4}.st15{fill:#bd86e0}.st16{opacity:.4;fill:#666;stroke:#666;stroke-width:4;stroke-linejoin:bevel;stroke-miterlimit:10}.st17{fill:#f2f2f2}.st18{fill:#e6e6e6}.st19{fill:none;stroke:#000;stroke-width:4;stroke-linejoin:bevel;stroke-miterlimit:10}.st20{fill:#c6e0de}.st21{fill:#a7c6c3}.st22{fill:#ee3d53}.st23{fill:none;stroke:#000;stroke-width:2;stroke-miterlimit:10}.st24{fill:#a17559}.st25{fill:#910e46}.st26{fill:#238d6f}.st27{fill:#704ca2}.st28{fill:#47e88d}.st29{fill:#bc88de}.st30{fill:#ccc}.st31{opacity:.4}</style><path class="st0" d="M603 1078.9h484v82H603z"/><path class="st0" d="M1055 1152.9h107v30h-107z"/><g class="st1"><path class="st0" d="M619 1098.9v82h-96v-11h12v-12h12v-12h12v-12h-12v-12h-12v-12h-12v-11z"/><path class="st0" d="M605 1156.9l14 23-.1-23z"/></g><path class="st2" d="M1066 1090.9v82h96v-11h-12v-12h-12v-12h-12v-12h12v-12h12v-12h12v-11z"/><path class="st3" d="M1066 1079.9v82h96v-11h-12v-12h-12v-12h-12v-12h12v-12h12v-12h12v-11z"/><path class="st2" d="M1080 1148.9l-14 23v-23zm-470-58v82h-96v-11h12v-12h12v-12h12v-12h-12v-12h-12v-12h-12v-11z"/><path class="st3" d="M610 1079.9v82h-96v-11h12v-12h12v-12h12v-12h-12v-12h-12v-12h-12v-11z"/><path class="st2" d="M596 1148.9l14 23-.1-23zm0-82h484v82H596z"/><path class="st3" d="M596 1054.9h484v82H596z"/><path class="st4" d="M666.6 1114.7H658v-34.6h8.6v13h8.6v-13h8.6v34.6h-8.6v-13h-8.6v13zm21.6-30.3h4.3v-4.3h17.3v4.3h4.3v25.9h-4.3v4.3h-17.3v-4.3h-4.3v-25.9zm8.6 21.6h8.6v-17.3h-8.6v17.3zm30.3 8.7h-8.6v-34.6h8.6v17.3h4.3v-4.3h4.3v4.3h4.3v-17.3h8.6v34.6H740v-4.3h-4.3v-4.3h-4.3v4.3h-4.3v4.3zm56.1-34.6h25.9v8.6h-8.6v25.9h-8.6v-25.9h-8.6v-8.6zm30.3 4.3h4.3v-4.3h17.3v4.3h4.3v25.9h-4.3v4.3h-17.3v-4.3h-4.3v-25.9zm8.6 21.6h8.6v-17.3h-8.6v17.3zm60.5 8.7H874v-34.6h21.6v4.3h4.3v13h-4.3v4.3h-13v13zm0-21.6h8.6v-4.3h-8.6v4.3zm25.9 17.2h-4.3v-30.2h8.6v25.9h17.3v8.6h-21.6v-4.3zm34.6 4.4h-8.6v-30.2h4.3v-4.3H956v4.3h4.3v30.2h-8.6v-13h-8.6v13zm8.6-21.6v-4.3h-8.6v4.3h8.6zm13-13h8.6v13h8.6v-13h8.6v17.3h-4.3v4.3h-4.3v13h-8.6v-13H969v-4.3h-4.3v-17.3z"/><path class="st5" d="M772 1347.9h-85v12h-12v85h12v12h85v-12h12v-85h-12z"/><path class="st5" d="M772 1347.9h-85v12h-12v85h12v12h85v-12h12v-85h-12z"/><path class="st4" d="M711.5 1382.1H740v5.7h5.7v17.1H740v5.7h-17.1v-11.4h11.4v-5.7h-22.8v-11.4zm11.4 34.1h11.4v11.4h-11.4v-11.4z"/><path class="st5" d="M923 1347.9h-85v12h-12v85h12v12h85v-12h12v-85h-12z"/><path class="st6" d="M923 1337.9h-85v12h-12v85h12v12h85v-12h12v-85h-12z"/><path class="st4" d="M862.5 1372.1H891v5.7h5.7v17.1H891v5.7h-17.1v-11.4h11.4v-5.7h-22.8v-11.4zm11.4 34.1h11.4v11.4h-11.4v-11.4z"/><path class="st0" d="M1958 1192.4h-11.6v-11.6h-11.6V1168h-498.7v12.8h-11.6v11.6H1413v684.7h11.5v11.7h11.6v12.8h498.7v-12.8h11.6v-11.7h11.6z"/><path class="st7" d="M1958 1180.4h-11.6v-11.7h-11.6v-12.8h-498.7v12.8h-11.6v11.7H1413v684.7h11.5v11.6h11.6v12.8h498.7v-12.8h11.6v-11.6h11.6z"/><path class="st8" d="M1958 1168.4h-11.6v-11.7h-11.6v-12.8h-498.7v12.8h-11.6v11.7H1413v684.7h11.5v11.6h11.6v12.8h498.7v-12.8h11.6v-11.6h11.6z"/><path class="st9" d="M909 827.9H524V838h-10v57.8h10v10.1h385v-10.1h10.1V838H909z"/><path class="st10" d="M909 817.9H524V828h-10v57.8h10v10.1h385v-10.1h10.1V828H909z"/><path class="st4" d="M634 868.8h-6.9v-27.6h17.3v3.5h3.5V855h-3.5v3.5H634v10.3zm0-17.3h6.9V848H634v3.5zm20.7 13.8h-3.5v-24.2h6.9v20.7H672v6.9h-17.3v-3.4zm27.7 3.5h-6.9v-24.2h3.5v-3.5h13.8v3.5h3.5v24.2h-6.9v-10.4h-6.9v10.4zm6.9-17.3V848h-6.9v3.5h6.9zm10.4-10.4h6.9v10.4h6.9v-10.4h6.9V855H717v3.5h-3.5v10.4h-6.9v-10.4h-3.5V855h-3.5v-13.9zm27.6 24.2h-3.5v-20.7h3.5v-3.5h17.3v6.9h-13.8v3.5h6.9v6.9h-6.9v3.5h13.8v6.9h-17.3v-3.5zm31.1-6.9H755v10.4h-6.9v-27.6h17.3v3.5h3.5V855h-3.5v3.5h3.5v10.4H762V862h-3.5v-3.6zm-3.4-6.9h6.9V848H755v3.5zm41.4-10.4h6.9v27.6h-6.9v-27.6z"/><path class="st11" d="M548.1 707.3l-1.9-5.8-4.1-12-17.8 6 2 5.8-5.8 2 4.1 12 5.7-2 2 5.8 12-4.1-1.9-5.7zm38.8-12.1l-1.9-5.7-4.1-12.1-17.8 6.1 2 5.7-5.8 2 4.1 12 5.7-1.9 2 5.7 12-4-1.9-5.8z"/><path transform="rotate(-18.702 531.029 667.595)" d="M527.4 648.3h7.1v38.6h-7.1z"/><path d="M546.5 702.5l-1.9-5.8-4.1-12-17.8 6 1.9 5.8-5.7 2 4 12 5.8-2 2 5.8 12-4.1-2-5.8z"/><path transform="rotate(-18.702 569.5 654.565)" d="M565.8 635.3h7.1v38.6h-7.1z"/><path d="M585 689.5l-2-5.8-4-12-17.8 6 1.9 5.8-5.8 1.9 4.1 12 5.8-1.9 1.9 5.8 12.1-4.1-2-5.8z"/><path transform="rotate(-18.702 541.306 634.631)" d="M517.3 626H565v17.3h-47.7z"/><path class="st11" d="M614.3 740.9l1-4.2 1.9-8.6-12.8-2.8-.9 4.1-4.2-.9-1.9 8.7 4.2.9-1 4.1 8.7 1.9.9-4.1zm27.6 6.8l.9-4.2 1.9-8.6-12.8-2.8-.9 4.1-4.2-.9-1.9 8.6 4.2.9-1 4.2 8.7 1.9.9-4.2z"/><path transform="rotate(12.41 618.366 710.914)" d="M615.9 697.5h5v26.9h-5z"/><path d="M615.1 737.4l.9-4.1 1.9-8.7-12.8-2.8-.9 4.2-4.1-.9-1.9 8.6 4.1.9-.9 4.2 8.6 1.9 1-4.2z"/><path transform="rotate(12.41 646.025 717)" d="M643.6 703.6h5v26.9h-5z"/><path d="M642.8 743.5l.9-4.1 1.9-8.7-12.8-2.8-.9 4.2-4.2-1-1.9 8.7 4.2.9-.9 4.1 8.6 1.9.9-4.1z"/><path transform="rotate(12.41 636.38 694.94)" d="M619.8 689h33.3v12h-33.3z"/><path class="st11" d="M690.4 679.1l-.7-3.1-1.4-6.3-9.4 2.1.7 3-3.1.7 1.4 6.4 3.1-.7.7 3 6.3-1.4-.7-3zm20.4-4l-.7-3.1-1.4-6.3-9.4 2.1.7 3-3.1.7 1.4 6.3 3.1-.6.7 3 6.3-1.4-.7-3z"/><path transform="rotate(-12.552 683.726 657.883)" d="M682 648h3.6v19.8H682z"/><path d="M689.8 676.5l-.7-3-1.4-6.3-9.4 2 .7 3.1-3 .7 1.4 6.3 3-.7.7 3.1 6.3-1.4-.6-3.1z"/><path transform="rotate(-12.552 704.033 653.363)" d="M702.3 643.5h3.6v19.8h-3.6z"/><path d="M710.1 672l-.7-3-1.4-6.4-9.4 2.1.7 3.1-3 .6 1.4 6.4 3-.7.7 3.1 6.3-1.4-.6-3.1z"/><path transform="rotate(-12.552 690.772 641.662)" d="M678.6 637.3H703v8.8h-24.4z"/><path class="st11" d="M711 724.9l2.6-4.2 5.4-8.5-12.6-8.1-2.7 4.1-4.1-2.6-5.4 8.6 4.1 2.6-2.6 4.1 8.5 5.5 2.7-4.2zm27 18.1l2.6-4.2 5.4-8.5-12.7-8.1-2.6 4.1-4.1-2.6-5.4 8.6 4.1 2.6-2.6 4.1 8.5 5.5 2.7-4.2z"/><path transform="rotate(32.435 727.123 694.156)" d="M724.2 678.7h5.7v30.9h-5.7z"/><path d="M713.2 721.4l2.6-4.1 5.4-8.6-12.7-8-2.6 4.1-4.1-2.6-5.4 8.5 4.1 2.7-2.6 4.1 8.5 5.4 2.6-4.1z"/><path transform="rotate(32.435 754.55 711.583)" d="M751.7 696.2h5.7v30.9h-5.7z"/><path d="M740.6 738.8l2.6-4.1 5.4-8.5-12.6-8.1-2.7 4.1-4.1-2.6-5.4 8.6 4.1 2.6-2.6 4.1 8.6 5.4 2.6-4.1z"/><path transform="rotate(32.435 752.818 684.013)" d="M733.7 677.1h38.2v13.8h-38.2z"/><path class="st9" d="M432.2 284.4h-253v6.6h-6.6v38.1h6.6v6.6h253v-6.6h6.6V291h-6.6z"/><path class="st12" d="M432.2 284.4h-253v6.6h-6.6v38.1h6.6v6.6h253v-6.6h6.6V291h-6.6z"/><path class="st4" d="M239 302h2.3v-2.3h11.4v4.5h-9.1v9.1h9.1v4.5h-11.4v-2.3H239V302zm20.5 15.9H255V302h2.3v-2.3h9.1v2.3h2.3v15.9H264v-6.8h-4.5v6.8zm4.5-11.4v-2.3h-4.5v2.3h4.5zm9.1 9.1h-2.3v-15.9h4.5v13.6h9.1v4.5H273v-2.2zm13.6-15.9h4.5v18.2h-4.5v-18.2zm6.8 0h11.4v2.3h2.3v13.6h-2.3v2.3h-11.4v-18.2zm4.6 6.8h4.5v-2.3h-4.5v2.3zm0 6.8h4.5V311h-4.5v2.3zm18.1-2.2H314v6.8h-4.5V302h2.3v-2.3h9.1v2.3h2.3v6.8h-2.3v2.3h2.3v6.8h-4.5v-4.5h-2.3v-2.3zm-2.2-4.6h4.5v-2.3H314v2.3zm15.9 11.4h-4.5V302h2.3v-2.3h9.1v2.3h2.3v15.9h-4.5v-6.8h-4.5v6.8zm4.5-11.4v-2.3h-4.5v2.3h4.5zm6.8-6.8h13.6v4.5h-4.5v13.6h-4.5v-13.6h-4.5v-4.5zm18.2 15.9h-2.3V302h2.3v-2.3h11.4v4.5h-9.1v2.3h4.5v4.5h-4.5v2.3h9.1v4.5h-11.4v-2.2z"/><path class="st9" d="M752.2 352.4h-253v6.6h-6.6v38.1h6.6v6.6h253v-6.6h6.6V359h-6.6z"/><path class="st10" d="M752.2 345.9h-253v6.6h-6.6v38h6.6v6.6h253v-6.6h6.6v-38h-6.6z"/><path class="st4" d="M559 363.4h2.3v-2.3h11.4v4.5h-9.1v9.1h9.1v4.5h-11.4V377H559v-13.6zm20.5 15.9H575v-15.9h2.3v-2.3h9.1v2.3h2.3v15.9H584v-6.8h-4.5v6.8zm4.5-11.4v-2.3h-4.5v2.3h4.5zm9.1 9.1h-2.3v-15.9h4.5v13.6h9.1v4.5H593V377zm13.6-15.9h4.5v18.2h-4.5v-18.2zm6.8 0h11.4v2.3h2.3V377h-2.3v2.3h-11.4v-18.2zm4.6 6.8h4.5v-2.3h-4.5v2.3zm0 6.9h4.5v-2.3h-4.5v2.3zm18.1-2.3H634v6.8h-4.5v-15.9h2.3v-2.3h9.1v2.3h2.3v6.8h-2.3v2.3h2.3v6.8h-4.5v-4.5h-2.3v-2.3zm-2.2-4.6h4.5v-2.3H634v2.3zm15.9 11.4h-4.5v-15.9h2.3v-2.3h9.1v2.3h2.3v15.9h-4.5v-6.8h-4.5v6.8zm4.5-11.4v-2.3h-4.5v2.3h4.5zm6.8-6.8h13.6v4.5h-4.5v13.6h-4.5v-13.6h-4.5v-4.5zm18.2 15.9h-2.3v-13.6h2.3v-2.3h11.4v4.5h-9.1v2.3h4.5v4.5h-4.5v2.3h9.1v4.5h-11.4V377z"/><path class="st9" d="M494.2 434.8H714v28.8H494.2z"/><path class="st9" d="M489.4 428.2h229.4v30.6H489.4z"/><path class="st10" d="M489.4 423.9v29.2h4.8v5.7H714v-5.7h4.8v-29.2z"/><path class="st9" d="M709.2 438.7v-5.1h-5.1v-.1h-200v.1H499v5.1h-5.1v7.6h5.1v5.1h5.1v.1h205.1v-5.1h5.1v-7.7z"/><path class="st13" d="M485.3 532.8h4.7v.1h-4.7zm0 17.9h4.7v.1h-4.7z"/><path class="st4" d="M506.3 550.7v-5.1h5.1V538h-5.1v-5.1h-5.1v-.1H490v.1h-4.7v17.8h4.7v.1h11.2v-.1zm-46.8-53.5v-5h-5.1v-.1h-16v18h16v-.1h5.1v-5.1h5.1v-7.7zM446 536.1v-5.2h-9.6v.1h-.1v5.1h-5.1v7.6h5.1v5.1h.1v.1h9.6v-5.1h5.1v-7.7zm-49.8-97.4v-5.2h-9.6v.1h-.1v5.1h-5v7.6h5v5.1h.1v.1h9.6v-5.1h5.1v-7.7z"/><path class="st14" d="M1362 827.9H977V838h-10v57.8h10v10.1h385v-10.1h10.1V838H1362z"/><path class="st15" d="M1362 817.9H977V828h-10v57.8h10v10.1h385v-10.1h10.1V828H1362z"/><path class="st4" d="M1079.6 868.8h-6.9v-27.6h17.3v3.5h3.5V855h-3.5v3.5h-10.4v10.3zm0-17.3h6.9V848h-6.9v3.5zm20.7 13.8h-3.5v-24.2h6.9v20.7h13.8v6.9h-17.3v-3.4zm27.7 3.5h-6.9v-24.2h3.5v-3.5h13.8v3.5h3.5v24.2h-6.9v-10.4h-6.9v10.4zm6.9-17.3V848h-6.9v3.5h6.9zm10.4-10.4h6.9v10.4h6.9v-10.4h6.9V855h-3.5v3.5h-3.5v10.4h-6.9v-10.4h-3.5V855h-3.5v-13.9zm27.6 24.2h-3.5v-20.7h3.5v-3.5h17.3v6.9h-13.8v3.5h6.9v6.9h-6.9v3.5h13.8v6.9h-17.3v-3.5zm31.1-6.9h-3.5v10.4h-6.9v-27.6h17.3v3.5h3.5V855h-3.5v3.5h3.5v10.4h-6.9V862h-3.5v-3.6zm-3.4-6.9h6.9V848h-6.9v3.5zm41.4-10.4h17.3v3.5h3.5V855h-3.5v3.5h-10.4v3.5h13.8v6.9H1242V855h3.5v-3.5h10.4V848H1242v-6.9zm-254-19.2h45.1v5.7H988zm51.2 0h5.7v5.7h-5.7zm-505.7 1h45.1v5.7h-45.1zm51.2 0h5.7v5.7h-5.7z"/><path class="st16" d="M922.6 662.9l6.4 5.6-5.6 6.4 20.4 17.4v37.8l20.7-26 31.8 29.3 5.8-6.2 5 4.6 71.6-118.7z"/><path class="st17" d="M920.1 655.8l6.4 5.6-5.6 6.4 20.4 17.3V723l20.8-26.1 31.7 29.4 5.9-6.3 4.9 4.7 71.7-118.7z"/><path class="st18" d="M962.1 696.7l114.4-90.8-135.1 79v37.9z"/><path class="st19" d="M919.1 655.9l6.3 5.6-5.6 6.4 20.5 17.4v37.9l20.7-26.1 31.8 29.4 5.8-6.3 5 4.6 71.6-118.7z"/><path class="st20" d="M854.9 349.2v163.6h10.4v9.5h10.4v10.5h447.4v-10.5h10.4v-9.5h10.4V349.2zm489 0v-94.1h-10.4v-9.5h-10.4v-10.5H875.7v10.5h-10.4v9.5h-10.4v94.1z"/><path class="st21" d="M865.3 251.7h10.4v-8h-10.4v7.9h-10.4v8h10.4zm10.4-16.7h447.5v8H875.7zm457.8 16.6v-7.9h-10.4v8h10.4v7.9h10.4v-8z"/><path d="M461.7 170.7h10.2v10.2h-10.2zm61.5-10.2v5.1h-5.1v5.1h5.1v20.5h5.1v5.1h-5.1v5.1h10.2v-10.2h15.4v5.1h5.1v-35.8h-30.7zm25.6 25.6h-20.5v-20.5h20.5v20.5z"/><path d="M533.4 170.7h10.2v10.2h-10.2zm-71.7 71.7h10.2v10.2h-10.2zm61.5-10.2h5.1v5.1h-5.1zm-25.6 25.6h5.1v5.1h-5.1zm5.1-20.5h5.1v5.1h-5.1zm0 10.2h5.1v5.1h-5.1zm46.1-25.6h5.1v5.1h-5.1zm-97.3 0h5.1v5.1h-5.1zm0-25.6h5.1v5.1h-5.1zm56.3-30.7v5.1h-10.2v5.1H513v-10.2z"/><path d="M548.8 201.4v5.1h-10.2v5.1h-15.4v-5.1h-5.1v5.1h-10.2v5.1h15.4v5.1h-15.4v-5.1h-5.1v5.1h-5.1v-5.1h-5.1v5.1h-5.1v5.1h10.2v5.1h5.1v-5H513v5.1h-5.1v5.1h5.1v10.2h5.1v5.1h5.1v-5.1h15.4v-10.2h5.1v-5.1h-5.1v-10.2h-10.2v-5.1h10.2v5.1h5.1v-5.1h5.1v-5.1h5.1v-10.2l-5.1-.1zM533.4 227v15.4H518V227h15.4zm-15.3-35.8H513v5.1h-5.2v10.2h5.2v-5.1h5.1v-5.1h5.1v-5.1zm-10.3 66.6H518v5.1h-10.2zm-15.3-92.2h5.1v5.1h-5.1z"/><path d="M533.4 201.4h5.1v5.1h-5.1zm5.2-5.1h5.1v5.1h-5.1zM472 221.9h5.1v5.1H472zm10.2 35.9v-20.5h5.1V227h-5.1v5.1h-15.4V227h-10.2v5.1h-5.1v30.7h40.9v-5.1h-10.2zm-5.1 0h-20.5v-20.5h20.5v20.5zm5.1-66.6h5.1v5.1h-5.1z"/><path d="M487.4 160.5h-35.8v30.7h5.1v5.1h5.1v-5.1h5.1v5.1h5.1v-5.1h10.2V181h5.1v-5.1h-5.1v-10.2h10.2v-5.1h-5zm-10.3 25.6h-20.5v-20.5h20.5v20.5zm35.9-10.3h5.1v5.1H513zm-10.3-15.3h5.1v5.1h-5.1z"/><path d="M513 191.2v-5.1h-5.1V181h-5.1v5.1h-10.2V181h-5.1v10.2h5.1v10.2h-15.4v-5.1H472v5.1h-15.4v5.1h10.2v5.1h-15.4v5.1h15.4v5.1h5.1v-5.1h5.1v5.1h5.1v-5.1h10.2v-5.1h-5.1v-5.1h10.2v5.1h10.2v-5.1h-5.1v-5.1h-5.1v-10.2H513zm-30.8 20.5H472v-5.1h10.2v5.1zm15.4 30.7v-10.2h-5.1v5.1h-5.1v5.1h5.1v5.1h-5.1v5.1h10.2v-5.1h5.1v-5.1zm46.1 10.2v-5.1h-5.1v5.1h-15.4v5.2h10.2v5.1h5.2v-5.1h10.2v5.1h5.1v-10.3zm5.1-20.4v5.1h-5.1v5.1h10.2v-10.2z"/><path class="st9" d="M223.4 576.6H82.5v3.7h-3.6v21.2h3.6v3.6h140.9v-3.6h3.7v-21.2h-3.7z"/><path class="st12" d="M223.4 576.6H82.5v3.7h-3.6v21.2h3.6v3.6h140.9v-3.6h3.7v-21.2h-3.7z"/><path class="st4" d="M110.8 591.4h-1.3v3.8H107v-10.1h6.3v1.3h1.3v3.8h-1.3v1.3h1.3v3.8H112v-2.5h-1.3v-1.4zm-1.3-2.5h2.5v-1.3h-2.5v1.3zm7.6 5h-1.3v-7.6h1.3V585h6.3v2.5h-5.1v1.3h2.5v2.5h-2.5v1.3h5.1v2.5h-6.3v-1.2zm8.8 0h-1.3v-7.6h1.3V585h5.1v1.3h1.3v2.5h-2.5v-1.3h-2.5v5.1h2.5v-1.3h2.5v2.5H131v1.3h-5.1v-1.2zm10.2 1.3h-2.5v-8.9h1.3V585h5.1v1.3h1.3v8.9h-2.5v-3.8h-2.5v3.8zm2.5-6.3v-1.3h-2.5v1.3h2.5zm5 5h-1.3V585h2.5v7.6h5.1v2.5h-6.3v-1.2zm7.6-8.8h2.5v10.1h-2.5v-10.1zm3.8 0h6.3v1.3h1.3v7.6h-1.3v1.3H155v-10.2zm2.6 3.8h2.5v-1.3h-2.5v1.3zm0 3.8h2.5v-1.3h-2.5v1.3zm10.1-1.3h-1.3v3.8h-2.5v-8.9h1.3V585h5.1v1.3h1.3v3.8h-1.3v1.3h1.3v3.8h-2.5v-2.5h-1.3v-1.3zm-1.3-2.5h2.5v-1.3h-2.5v1.3zm8.9 6.3h-2.5v-8.9h1.3V585h5.1v1.3h1.3v8.9H178v-3.8h-2.5v3.8zm2.5-6.3v-1.3h-2.5v1.3h2.5zm3.8-3.8h7.6v2.5h-2.5v7.6h-2.5v-7.6h-2.5v-2.5zm10.1 8.8h-1.3v-7.6h1.3V585h6.3v2.5h-5v1.3h2.5v2.5H193v1.3h5.1v2.5h-6.3v-1.2zM85 578.7h13.1v1.7H85zm14.9 0h1.7v1.7h-1.7z"/><path class="st9" d="M223.4 618.6H82.5v3.7h-3.6v21.2h3.6v3.6h140.9v-3.6h3.7v-21.2h-3.7z"/><path class="st10" d="M223.4 614.9H82.5v3.7h-3.6v21.2h3.6v3.7h140.9v-3.7h3.7v-21.2h-3.7z"/><path class="st4" d="M110.8 629.8h-1.3v3.8H107v-10.1h6.3v1.3h1.3v3.8h-1.3v1.3h1.3v3.8H112V631h-1.3v-1.2zm-1.3-2.6h2.5V626h-2.5v1.2zm7.6 5.1h-1.3v-7.6h1.3v-1.3h6.3v2.5h-5.1v1.3h2.5v2.5h-2.5v1.3h5.1v2.5h-6.3v-1.2zm8.8 0h-1.3v-7.6h1.3v-1.3h5.1v1.3h1.3v2.5h-2.5V626h-2.5v5.1h2.5v-1.3h2.5v2.5H131v1.3h-5.1v-1.3zm10.2 1.3h-2.5v-8.9h1.3v-1.3h5.1v1.3h1.3v8.9h-2.5v-3.8h-2.5v3.8zm2.5-6.4V626h-2.5v1.3h2.5zm5 5.1h-1.3v-8.9h2.5v7.6h5.1v2.5h-6.3v-1.2zm7.6-8.9h2.5v10.1h-2.5v-10.1zm3.8 0h6.3v1.3h1.3v7.6h-1.3v1.3H155v-10.2zm2.6 3.8h2.5V626h-2.5v1.2zm0 3.8h2.5v-1.3h-2.5v1.3zm10.1-1.2h-1.3v3.8h-2.5v-8.9h1.3v-1.3h5.1v1.3h1.3v3.8h-1.3v1.3h1.3v3.8h-2.5V631h-1.3v-1.2zm-1.3-2.6h2.5V626h-2.5v1.2zm8.9 6.4h-2.5v-8.9h1.3v-1.3h5.1v1.3h1.3v8.9H178v-3.8h-2.5v3.8zm2.5-6.4V626h-2.5v1.3h2.5zm3.8-3.8h7.6v2.5h-2.5v7.6h-2.5V626h-2.5v-2.6zm10.1 8.9h-1.3v-7.6h1.3v-1.3h6.3v2.5h-5v1.3h2.5v2.5H193v1.3h5.1v2.5h-6.3v-1.2zM85 617.7h13.1v1.7H85zm14.9 0h1.7v1.7h-1.7zm404.9-268.3h23.6v3h-23.6zm26.7 0h3v3h-3zM184.3 288h23.6v3h-23.6zm26.8 0h3v3h-3z"/><path class="st22" d="M154.3 411.5V404h-18.7v7.5h-7.4v18.6h7.4v7.5h18.7v-7.5h7.4v-18.6z"/><path class="st23" d="M136.2 437.6v9.9m17.5-9.9v9.9"/><path class="st24" d="M152.7 445.7h-15.5v2.2H135v15.5h2.2v2.2h15.5v-2.2h2.2v-15.5h-2.2z"/><path class="st25" d="M221.4 850.7v-7.9H79.7v7.9h-8v45.6h8v7.9h141.7v-7.9h7.9v-45.6z"/><path class="st25" d="M221.4 850.8v-7.9H79.7v7.9h-8v45.6h8v7.9h141.7v-7.9h7.9v-45.6z"/><path class="st4" d="M117.9 884.3h-5.4v-21.8H126v2.7h2.7v8.2H126v2.7h-8.2v8.2zm0-13.6h5.4V868h-5.4v2.7zm16.3 10.8h-2.7v-19h5.4v16.3h10.9v5.4h-13.6v-2.7zm21.8 2.8h-5.4v-19h2.7v-2.7h10.9v2.7h2.7v19h-5.4v-8.2H156v8.2zm5.4-13.6V868H156v2.7h5.4zm8.2-8.2h5.4v8.2h5.4v-8.2h5.4v10.9h-2.7v2.7h-2.7v8.2H175v-8.2h-2.7v-2.7h-2.7v-10.9z"/><path class="st25" d="M391.4 850.7v-7.9H249.7v7.9h-8v45.6h8v7.9h141.7v-7.9h7.9v-45.6z"/><path class="st22" d="M391.4 842.8v-7.9H249.7v7.9h-8v45.6h8v7.9h141.7v-7.9h7.9v-45.6z"/><path class="st4" d="M287.9 876.3h-5.4v-21.8H296v2.7h2.7v8.2H296v2.7h-8.2v8.2zm0-13.6h5.4V860h-5.4v2.7zm16.3 10.8h-2.7v-19h5.4v16.3h10.9v5.4h-13.6v-2.7zm21.8 2.8h-5.4v-19h2.7v-2.7h10.9v2.7h2.7v19h-5.4v-8.2H326v8.2zm5.4-13.6V860H326v2.7h5.4zm8.2-8.2h5.4v8.2h5.4v-8.2h5.4v10.9h-2.7v2.7h-2.7v8.2H345v-8.2h-2.7v-2.7h-2.7v-10.9z"/><path class="st26" d="M-602.2 605.1h43.2v108h43.2v-108h43.2v129.6h-21.6v21.6h-21.6v21.6H-559v-21.6h-21.6v-21.6h-21.6V605.1z"/><path class="st27" d="M-451 628.8h21.6v-21.6h108v43.2h-86.4V672h64.8v21.6h21.6v64.8H-343V780h-108v-43.2h86.4v-21.6h-64.8v-21.6H-451v-64.8z"/><path class="st28" d="M-602.2 584.1h43.2v108h43.2v-108h43.2v129.6h-21.6v21.6h-21.6v21.6H-559v-21.6h-21.6v-21.6h-21.6V584.1z"/><path class="st29" d="M-451 605.7h21.6v-21.6h108v43.2h-86.4v21.6h64.8v21.6h21.6v64.8H-343v21.6h-108v-43.2h86.4v-21.6h-64.8v-21.6H-451v-64.8z"/><path class="st0" d="M-552.8 962.7h27.5v68.7h27.5v-68.7h27.5v82.4H-484v13.7h-13.7v13.7h-27.5v-13.7h-13.7v-13.7h-13.7v-82.4zm96.1 15h13.7V964h68.7v27.5h-54.9v13.7h41.2v13.7h13.7v41.2H-388v13.7h-68.7v-27.5h54.9v-13.7H-443v-13.7h-13.7v-41.2z"/><path class="st7" d="M-552.8 948.2h27.5v68.7h27.5v-68.7h27.5v82.4H-484v13.7h-13.7v13.7h-27.5v-13.7h-13.7v-13.7h-13.7v-82.4zm96.1 15h13.7v-13.7h68.7V977h-54.9v13.7h41.2v13.7h13.7v41.2H-388v13.7h-68.7v-27.5h54.9v-13.7H-443v-13.7h-13.7v-41.2z"/><path class="st4" d="M-552.8 934.8h27.5v68.7h27.5v-68.7h27.5v82.4H-484v13.7h-13.7v13.7h-27.5v-13.7h-13.7v-13.7h-13.7v-82.4zm96.1 13.7h13.7v-13.7h68.7v27.5h-54.9V976h41.2v13.7h13.7v41.2H-388v13.7h-68.7v-27.5h54.9v-13.7H-443v-13.7h-13.7v-41.2z"/><path class="st0" d="M21.6 103H0V16.6h54v10.8h10.8v32.4H54v10.8H21.6V103zm0-54h21.6V38.2H21.6V49zm54-21.6h10.8V16.6h43.2v10.8h10.8v64.8h-10.8V103H86.4V92.2H75.6V27.4zm21.6 54h21.6V38.2H97.2v43.2zM162 92.2h-10.8V16.6h21.6v64.8H216V103h-54V92.2z"/><path class="st0" d="M205.2 16.6h21.6V49h21.6V16.6H270v43.2h-10.8v10.8h-10.8V103h-21.6V70.6H216V59.8h-10.8V16.6z"/><path class="st30" d="M21.6 94.6H0V8.2h54V19h10.8v32.4H54v10.8H21.6v32.4zm0-54h21.6V29.8H21.6v10.8zm54-21.6h10.8V8.2h43.2V19h10.8v64.8h-10.8v10.8H86.4V83.8H75.6V19zm21.6 54h21.6V29.8H97.2V73zM162 83.8h-10.8V8.2h21.6V73H216v21.6h-54V83.8z"/><path class="st30" d="M205.2 8.2h21.6v32.4h21.6V8.2H270v43.2h-10.8v10.8h-10.8v32.4h-21.6V62.2H216V51.4h-10.8V8.2z"/><path class="st4" d="M21.6 86.4H0V0h54v10.8h10.8v32.4H54V54H21.6v32.4zm0-54h21.6V21.6H21.6v10.8zm54-21.6h10.8V0h43.2v10.8h10.8v64.8h-10.8v10.8H86.4V75.6H75.6V10.8zm21.6 54h21.6V21.6H97.2v43.2zM162 75.6h-10.8V0h21.6v64.8H216v21.6h-54V75.6z"/><path class="st4" d="M205.2 0h21.6v32.4h21.6V0H270v43.2h-10.8V54h-10.8v32.4h-21.6V54H216V43.2h-10.8V0z"/><g id="u9MLE1.tif_3_" class="st31"><image width="163" height="260" id="Layer_1_3_" xlink:href="CE648CAAD7D7E53.png" transform="rotate(15.523 -680.54 -438.728) scale(.8581)" overflow="visible"/></g><g id="u9MLE1.tif_2_"><image width="163" height="260" id="Layer_1_1_" xlink:href="CE648CAAD7D7E51.png" transform="rotate(15.521 -625.901 -468.724) scale(.8775)" overflow="visible"/></g><g class="st1"><path class="st0" d="M348.4-213.5v86.5h101.2v-11.6H437v-12.7h-12.7v-12.6h-12.6v-12.7h12.6v-12.6H437v-12.7h12.6v-11.6z"/><path class="st0" d="M363.2-152.3l-14.8 24.2.1-24.2z"/></g><path class="st0" d="M-139.8-236.4h510.3v86.5h-510.3z"/><path class="st0" d="M336.8-158.4h112.8v31.6H336.8z"/><g class="st1"><path class="st0" d="M-131.9-213.3v86.4h-101.2v-11.6h12.6v-12.6h12.7v-12.7h12.6v-12.6h-12.6v-12.7h-12.7v-12.6h-12.6v-11.6z"/><path class="st0" d="M-146.7-152.2l14.8 24.3-.1-24.3z"/></g><path class="st2" d="M348.4-223.8v86.5h101.2v-11.6H437v-12.6h-12.7v-12.7h-12.6v-12.7h12.6v-12.6H437v-12.7h12.6v-11.6z"/><path class="st3" d="M348.4-235.4v86.5h101.2v-11.6H437v-12.6h-12.7v-12.7h-12.6v-12.6h12.6v-12.7H437v-12.7h12.6v-11.6z"/><path class="st2" d="M363.2-162.6l-14.8 24.3.1-24.3zm-495.6-61.2v86.5h-101.2v-11.6h12.6v-12.6h12.7v-12.7h12.6v-12.7h-12.6v-12.6H-221v-12.7h-12.6v-11.6z"/><path class="st3" d="M-132.4-235.4v86.5h-101.2v-11.6h12.6v-12.6h12.7v-12.7h12.6v-12.6h-12.6v-12.7H-221v-12.7h-12.6v-11.6z"/><path class="st2" d="M-147.2-162.6l14.8 24.3-.1-24.3zm0-86.5h510.3v86.5h-510.3z"/><path class="st3" d="M-147.2-261.7h510.3v86.5h-510.3z"/><path class="st25" d="M-33-186.8h-37.4v-59.9H-33v7.5h7.5v15H-33v15h7.5v15H-33v7.4zm-22.5-37.4h15v-7.5h-15v7.5zm0 22.5h15v-7.5h-15v7.5zm52.4 14.9h-15v-52.4h7.5v-7.5h30v7.5h7.5v52.4h-15v-22.5h-15v22.5zm15-37.4v-7.5h-15v7.5h15zm30 30h-7.5v-52.4h15v44.9h30v15H41.9v-7.5zm52.4 0h-7.5v-52.4h15v44.9h30v15H94.3v-7.5zm44.9-45h7.5v-7.5h30v7.5h7.5v44.9h-7.5v7.5h-30v-7.5h-7.5v-44.9zm15 37.5h15v-30h-15v30zm37.5-37.5h7.5v-7.5h30v7.5h7.5v44.9h-7.5v7.5h-30v-7.5h-7.5v-44.9zm14.9 37.5h15v-30h-15v30zm59.9-15H259v30h-15v-59.9h15v7.5h7.5v7.5h7.5v-15h15v59.9h-15v-22.5h-7.5v-7.5z"/><path class="st22" d="M-33-192.6h-37.4v-59.9H-33v7.5h7.5v15H-33v15h7.5v15H-33v7.4zM-55.5-230h15v-7.5h-15v7.5zm0 22.4h15v-7.5h-15v7.5zm52.4 15h-15V-245h7.5v-7.5h30v7.5h7.5v52.4h-15V-215h-15v22.4zm15-37.4v-7.5h-15v7.5h15zm30 29.9h-7.5v-52.4h15v44.9h30v15H41.9v-7.5zm52.4 0h-7.5v-52.4h15v44.9h30v15H94.3v-7.5zm44.9-44.9h7.5v-7.5h30v7.5h7.5v44.9h-7.5v7.5h-30v-7.5h-7.5V-245zm15 37.4h15v-30h-15v30zm37.5-37.4h7.5v-7.5h30v7.5h7.5v44.9h-7.5v7.5h-30v-7.5h-7.5V-245zm14.9 37.4h15v-30h-15v30zm59.9-14.9H259v30h-15v-59.9h15v7.5h7.5v7.5h7.5v-15h15v59.9h-15V-215h-7.5v-7.5z"/><path class="st0" d="M458.6-40h20.7v6.9h-20.7V-40zm55.3 17.3H507v-27.6h17.3v3.5h3.5v10.4h-3.5v3.5h-10.4v10.2zm0-17.3h6.9v-3.5h-6.9v3.5zm27.6 6.9H538v10.4h-6.9v-27.6h17.3v3.5h3.5v10.4h-3.5v3.5h3.5v10.4H545v-6.9h-3.5v-3.7zm-3.4-6.9h6.9v-3.5h-6.9v3.5zm20.7 13.8h-3.5v-20.7h3.5v-3.5h17.3v6.9h-13.8v3.5h6.9v6.9h-6.9v3.5h13.8v6.9h-17.3v-3.5zm20.8-20.7h3.5v-3.5h17.3v6.9h-13.8v3.5H597v3.5h3.5v10.4H597v3.5h-17.3v-6.9h13.8V-33H583v-3.5h-3.5v-10.4zm24.2 0h3.5v-3.5h17.3v6.9h-13.8v3.5H621v3.5h3.5v10.4H621v3.5h-17.3v-6.9h13.8V-33h-10.4v-3.5h-3.5v-10.4zM659-22.7h-6.9v-24.2h3.5v-3.5h13.8v3.5h3.5v24.2H666v-10.4h-7v10.4zm7-17.3v-3.5h-7v3.5h7zm20.7 3.4h-3.5v13.8h-6.9v-27.6h6.9v3.5h3.5v3.5h3.5v-6.9h6.9v27.6h-6.9v-10.4h-3.5v-3.5zm13.8-13.8h6.9V-40h6.9v-10.4h6.9v13.8h-3.5v3.5h-3.5v10.4h-6.9v-10.4H704v-3.5h-3.5v-13.8zm55.3 27.7h-6.9v-27.6h6.9v6.9h3.5v-3.5h3.5v-3.5h6.9v6.9h-3.5v3.5h-3.5v6.9h3.5v3.5h3.5v6.9h-6.9v-3.5h-3.5v-3.5h-3.5v7zm20.7-3.5H773v-20.7h3.5v-3.5h17.3v6.9H780v3.5h6.9v6.9H780v3.5h13.8v6.9h-17.3v-3.5zm20.8-24.2h6.9V-40h6.9v-10.4h6.9v13.8h-3.5v3.5H811v10.4h-6.9v-10.4h-3.5v-3.5h-3.5v-13.8zm48.4 0h20.7v6.9h-6.9v20.7h-6.9v-20.7h-6.9v-6.9zm24.2 3.5h3.5v-3.5h13.8v3.5h3.5v20.7h-3.5v3.5h-13.8v-3.5h-3.5v-20.7zm6.9 17.2h6.9v-13.8h-6.9v13.8zm48.4 7h-6.9v-27.6h17.3v3.5h3.5v10.4h-3.5v3.5h-10.4v10.2zm0-17.3h6.9v-3.5h-6.9v3.5zm20.7 13.8h-3.5v-24.2h6.9v20.7h13.8v6.9h-17.3v-3.4zm27.6 3.5h-6.9v-24.2h3.5v-3.5h13.8v3.5h3.5v24.2h-6.9v-10.4h-6.9v10.4zm6.9-17.3v-3.5h-6.9v3.5h6.9zm10.4-10.4h6.9V-40h6.9v-10.4h6.9v13.8h-3.5v3.5h-3.5v10.4h-6.9v-10.4h-3.5v-3.5h-3.5v-13.8zm48.4 10.4h20.7v6.9h-20.7V-40z"/><path class="st30" d="M457.7-45.9h20.7v6.9h-20.7v-6.9zM513-28.6h-6.9v-27.6h17.3v3.5h3.5v10.4h-3.5v3.5H513v10.2zm0-17.3h6.9v-3.5H513v3.5zm27.7 6.9h-3.5v10.4h-6.9v-27.6h17.3v3.5h3.5v10.4h-3.5v3.5h3.5v10.4h-6.9v-6.9h-3.5V-39zm-3.5-6.9h6.9v-3.5h-6.9v3.5zM558-32.1h-3.5v-20.7h3.5v-3.5h17.3v6.9h-13.8v3.5h6.9v6.9h-6.9v3.5h13.8v6.9H558v-3.5zm20.7-20.7h3.5v-3.5h17.3v6.9h-13.8v3.5H596v3.5h3.5V-32H596v3.5h-17.3v-6.9h13.8V-39h-10.4v-3.5h-3.5v-10.3zm24.2 0h3.5v-3.5h17.3v6.9h-13.8v3.5h10.4v3.5h3.5V-32h-3.5v3.5H603v-6.9h13.8V-39h-10.4v-3.5h-3.5v-10.3zm55.3 24.2h-6.9v-24.2h3.5v-3.5h13.8v3.5h3.5v24.2h-6.9V-39h-6.9v10.4zm6.9-17.3v-3.5h-6.9v3.5h6.9zm20.7 3.4h-3.5v13.8h-6.9v-27.6h6.9v3.5h3.5v3.5h3.5v-6.9h6.9v27.6h-6.9V-39h-3.5v-3.5zm13.9-13.8h6.9v10.4h6.9v-10.4h6.9v13.8h-3.5v3.5h-3.5v10.4h-6.9V-39H703v-3.5h-3.5v-13.8zm55.2 27.7H748v-27.6h6.9v6.9h3.5v-3.5h3.5v-3.5h6.9v6.9h-3.5v3.5h-3.5v6.9h3.5v3.5h3.5v6.9h-6.9v-3.5h-3.5v-3.5h-3.5v7zm20.8-3.5h-3.5v-20.7h3.5v-3.5H793v6.9h-13.8v3.5h6.9v6.9h-6.9v3.5H793v6.9h-17.3v-3.5zm20.7-24.2h6.9v10.4h6.9v-10.4h6.9v13.8h-3.5v3.5h-3.5v10.4h-6.9V-39h-3.5v-3.5h-3.5v-13.8zm48.4 0h20.7v6.9h-6.9v20.7h-6.9v-20.7h-6.9v-6.9zm24.2 3.5h3.5v-3.5h13.8v3.5h3.5v20.7h-3.5v3.5h-13.8v-3.5H869v-20.7zm6.9 17.2h6.9v-13.8h-6.9v13.8zm48.4 7h-6.9v-27.6h17.3v3.5h3.5v10.4h-3.5v3.5h-10.4v10.2zm0-17.3h6.9v-3.5h-6.9v3.5zM945-32.1h-3.5v-24.2h6.9v20.7h13.8v6.9H945v-3.4zm27.7 3.5h-6.9v-24.2h3.5v-3.5H983v3.5h3.5v24.2h-6.9V-39h-6.9v10.4zm6.9-17.3v-3.5h-6.9v3.5h6.9zm10.3-10.4h6.9v10.4h6.9v-10.4h6.9v13.8h-3.5v3.5h-3.5v10.4h-6.9V-39h-3.5v-3.5h-3.5v-13.8zm48.4 10.4h20.7v6.9h-20.7v-6.9z"/><path class="st4" d="M457.7-50.3h20.7v6.9h-20.7v-6.9zM513-33.1h-6.9v-27.6h17.3v3.5h3.5v10.4h-3.5v3.5H513v10.2zm0-17.2h6.9v-3.5H513v3.5zm27.7 6.9h-3.5V-33h-6.9v-27.6h17.3v3.5h3.5v10.4h-3.5v3.5h3.5v10.4h-6.9V-40h-3.5v-3.4zm-3.5-6.9h6.9v-3.5h-6.9v3.5zM558-36.5h-3.5v-20.7h3.5v-3.5h17.3v6.9h-13.8v3.5h6.9v6.9h-6.9v3.5h13.8v6.9H558v-3.5zm20.7-20.7h3.5v-3.5h17.3v6.9h-13.8v3.5H596v3.5h3.5v10.4H596v3.5h-17.3V-40h13.8v-3.5h-10.4V-47h-3.5v-10.2zm24.2 0h3.5v-3.5h17.3v6.9h-13.8v3.5h10.4v3.5h3.5v10.4h-3.5v3.5H603V-40h13.8v-3.5h-10.4V-47h-3.5v-10.2zm55.3 24.1h-6.9v-24.2h3.5v-3.5h13.8v3.5h3.5v24.2h-6.9v-10.4h-6.9v10.4zm6.9-17.2v-3.5h-6.9v3.5h6.9zm20.7 3.4h-3.5v13.8h-6.9v-27.6h6.9v3.5h3.5v3.5h3.5v-6.9h6.9V-33h-6.9v-10.4h-3.5v-3.5zm13.9-13.8h6.9v10.4h6.9v-10.4h6.9v13.8h-3.5v3.5h-3.5V-33h-6.9v-10.4H703v-3.5h-3.5v-13.8zm55.2 27.6H748v-27.6h6.9v6.9h3.5v-3.5h3.5v-3.5h6.9v6.9h-3.5v3.5h-3.5v6.9h3.5v3.5h3.5v6.9h-6.9v-3.5h-3.5V-40h-3.5v6.9zm20.8-3.4h-3.5v-20.7h3.5v-3.5H793v6.9h-13.8v3.5h6.9v6.9h-6.9v3.5H793v6.9h-17.3v-3.5zm20.7-24.2h6.9v10.4h6.9v-10.4h6.9v13.8h-3.5v3.5h-3.5V-33h-6.9v-10.4h-3.5v-3.5h-3.5v-13.8zm48.4 0h20.7v6.9h-6.9v20.7h-6.9v-20.7h-6.9v-6.9zm24.2 3.5h3.5v-3.5h13.8v3.5h3.5v20.7h-3.5v3.5h-13.8v-3.5H869v-20.7zm6.9 17.2h6.9v-13.8h-6.9V-40zm48.4 6.9h-6.9v-27.6h17.3v3.5h3.5v10.4h-3.5v3.5h-10.4v10.2zm0-17.2h6.9v-3.5h-6.9v3.5zM945-36.5h-3.5v-24.2h6.9V-40h13.8v6.9H945v-3.4zm27.7 3.4h-6.9v-24.2h3.5v-3.5H983v3.5h3.5v24.2h-6.9v-10.4h-6.9v10.4zm6.9-17.2v-3.5h-6.9v3.5h6.9zm10.3-10.4h6.9v10.4h6.9v-10.4h6.9v13.8h-3.5v3.5h-3.5V-33h-6.9v-10.4h-3.5v-3.5h-3.5v-13.8zm48.4 10.4h20.7v6.9h-20.7v-6.9z"/></svg>