<?xml version="1.0" encoding="utf-8"?>
<!-- Generator: Adobe Illustrator 22.0.1, SVG Export Plug-In . SVG Version: 6.00 Build 0)  -->
<svg version="1.1" id="Layer_1" xmlns="http://www.w3.org/2000/svg" xmlns:xlink="http://www.w3.org/1999/xlink" x="0px" y="0px"
	 width="602.6px" height="39.8px" viewBox="0 0 602.6 39.8" style="enable-background:new 0 0 602.6 39.8;" xml:space="preserve">
<style type="text/css">
	.st0{fill:#5895B7;}
	.st1{opacity:0.8;}
	.st2{fill:#C17620;}
	.st3{fill:#F4C24A;}
	.st4{fill:#FFFFFF;}
	.st5{fill:#2A6FBA;}
	.st6{fill:#4ABAEF;}
	.st7{fill:#95C9C8;}
	.st8{fill:#DDEFEE;}
	.st9{fill:#1B8E6F;}
	.st10{fill:#3CEA8A;}
	.st11{opacity:0.4;fill:#666666;}
	.st12{fill:#33BC6E;}
	.st13{fill:none;}
	.st14{fill:#7149A4;}
	.st15{fill:#BD86E0;}
	.st16{opacity:0.4;fill:#666666;stroke:#666666;stroke-width:4;stroke-linejoin:bevel;stroke-miterlimit:10;}
	.st17{fill:#F2F2F2;}
	.st18{fill:#E6E6E6;}
	.st19{fill:none;stroke:#000000;stroke-width:4;stroke-linejoin:bevel;stroke-miterlimit:10;}
	.st20{fill:#C6E0DE;}
	.st21{fill:#A7C6C3;}
	.st22{fill:#EE3D53;}
	.st23{fill:none;stroke:#000000;stroke-width:2;stroke-miterlimit:10;}
	.st24{fill:#A17559;}
	.st25{fill:#910E46;}
	.st26{fill:#238D6F;}
	.st27{fill:#704CA2;}
	.st28{fill:#47E88D;}
	.st29{fill:#BC88DE;}
	.st30{fill:#CCCCCC;}
	.st31{opacity:0.4;}
</style>
<g>
	<rect x="145.2" y="1139.6" class="st0" width="484" height="82"/>
	<rect x="597.2" y="1213.6" class="st0" width="107" height="30"/>
	<g class="st1">
		<g>
			<polygon class="st0" points="161.2,1159.6 161.2,1241.6 65.2,1241.6 65.2,1230.6 77.2,1230.6 77.2,1218.6 89.2,1218.6 
				89.2,1206.6 101.2,1206.6 101.2,1194.6 89.2,1194.6 89.2,1182.6 77.2,1182.6 77.2,1170.6 65.2,1170.6 65.2,1159.6 			"/>
		</g>
		<polygon class="st0" points="147.2,1217.6 161.2,1240.6 161.2,1217.6 		"/>
	</g>
	<g>
		<g>
			<polygon class="st2" points="608.2,1151.6 608.2,1233.6 704.2,1233.6 704.2,1222.6 692.2,1222.6 692.2,1210.6 680.2,1210.6 
				680.2,1198.6 668.2,1198.6 668.2,1186.6 680.2,1186.6 680.2,1174.6 692.2,1174.6 692.2,1162.6 704.2,1162.6 704.2,1151.6 			"/>
			<polygon class="st3" points="608.2,1140.6 608.2,1222.6 704.2,1222.6 704.2,1211.6 692.2,1211.6 692.2,1199.6 680.2,1199.6 
				680.2,1187.6 668.2,1187.6 668.2,1175.6 680.2,1175.6 680.2,1163.6 692.2,1163.6 692.2,1151.6 704.2,1151.6 704.2,1140.6 			"/>
		</g>
		<polygon class="st2" points="622.2,1209.6 608.2,1232.6 608.3,1209.6 		"/>
		<g>
			<g>
				<polygon class="st2" points="152.2,1151.6 152.2,1233.6 56.2,1233.6 56.2,1222.6 68.2,1222.6 68.2,1210.6 80.2,1210.6 
					80.2,1198.6 92.2,1198.6 92.2,1186.6 80.2,1186.6 80.2,1174.6 68.2,1174.6 68.2,1162.6 56.2,1162.6 56.2,1151.6 				"/>
				<polygon class="st3" points="152.2,1140.6 152.2,1222.6 56.2,1222.6 56.2,1211.6 68.2,1211.6 68.2,1199.6 80.2,1199.6 
					80.2,1187.6 92.2,1187.6 92.2,1175.6 80.2,1175.6 80.2,1163.6 68.2,1163.6 68.2,1151.6 56.2,1151.6 56.2,1140.6 				"/>
			</g>
			<polygon class="st2" points="138.2,1209.6 152.2,1232.6 152.2,1209.6 			"/>
		</g>
		<g>
			<rect x="138.2" y="1127.6" class="st2" width="484" height="82"/>
			<rect x="138.2" y="1115.6" class="st3" width="484" height="82"/>
		</g>
	</g>
	<g>
		<path class="st4" d="M208.8,1175.4h-8.6v-34.6h8.6v13h8.6v-13h8.6v34.6h-8.6v-13h-8.6V1175.4z"/>
		<path class="st4" d="M230.4,1145.1h4.3v-4.3H252v4.3h4.3v25.9H252v4.3h-17.3v-4.3h-4.3V1145.1z M239.1,1166.7h8.6v-17.3h-8.6
			V1166.7z"/>
		<path class="st4" d="M269.3,1175.4h-8.6v-34.6h8.6v17.3h4.3v-4.3h4.3v4.3h4.3v-17.3h8.6v34.6h-8.6v-4.3H278v-4.3h-4.3v4.3h-4.3
			V1175.4z"/>
		<path class="st4" d="M325.5,1140.8h25.9v8.6h-8.6v25.9h-8.6v-25.9h-8.6V1140.8z"/>
		<path class="st4" d="M355.7,1145.1h4.3v-4.3h17.3v4.3h4.3v25.9h-4.3v4.3H360v-4.3h-4.3V1145.1z M364.4,1166.7h8.6v-17.3h-8.6
			V1166.7z"/>
		<path class="st4" d="M424.8,1175.4h-8.6v-34.6h21.6v4.3h4.3v13h-4.3v4.3h-13V1175.4z M424.8,1153.8h8.6v-4.3h-8.6V1153.8z"/>
		<path class="st4" d="M450.8,1171h-4.3v-30.2h8.6v25.9h17.3v8.6h-21.6V1171z"/>
		<path class="st4" d="M485.3,1175.4h-8.6v-30.2h4.3v-4.3h17.3v4.3h4.3v30.2H494v-13h-8.6V1175.4z M494,1153.8v-4.3h-8.6v4.3H494z"
			/>
		<path class="st4" d="M506.9,1140.8h8.6v13h8.6v-13h8.6v17.3h-4.3v4.3h-4.3v13h-8.6v-13h-4.3v-4.3h-4.3V1140.8z"/>
	</g>
</g>
<polygon class="st5" points="314.2,1408.6 302.2,1408.6 229.2,1408.6 229.2,1420.6 217.2,1420.6 217.2,1505.6 229.2,1505.6 
	229.2,1517.6 302.2,1517.6 314.2,1517.6 314.2,1505.6 326.2,1505.6 326.2,1420.6 314.2,1420.6 "/>
<polygon class="st5" points="314.2,1408.6 302.2,1408.6 229.2,1408.6 229.2,1420.6 217.2,1420.6 217.2,1505.6 229.2,1505.6 
	229.2,1517.6 302.2,1517.6 314.2,1517.6 314.2,1505.6 326.2,1505.6 326.2,1420.6 314.2,1420.6 "/>
<g>
	<path class="st4" d="M253.8,1442.8h28.4v5.7h5.7v17.1h-5.7v5.7h-17.1v-11.4h11.4v-5.7h-22.8V1442.8z M265.2,1476.9h11.4v11.4h-11.4
		V1476.9z"/>
</g>
<polygon class="st5" points="465.2,1408.6 453.2,1408.6 380.2,1408.6 380.2,1420.6 368.2,1420.6 368.2,1505.6 380.2,1505.6 
	380.2,1517.6 453.2,1517.6 465.2,1517.6 465.2,1505.6 477.2,1505.6 477.2,1420.6 465.2,1420.6 "/>
<polygon class="st6" points="465.2,1398.6 453.2,1398.6 380.2,1398.6 380.2,1410.6 368.2,1410.6 368.2,1495.6 380.2,1495.6 
	380.2,1507.6 453.2,1507.6 465.2,1507.6 465.2,1495.6 477.2,1495.6 477.2,1410.6 465.2,1410.6 "/>
<g>
	<path class="st4" d="M404.8,1432.8h28.4v5.7h5.7v17.1h-5.7v5.7h-17.1v-11.4h11.4v-5.7h-22.8V1432.8z M416.2,1466.9h11.4v11.4h-11.4
		V1466.9z"/>
</g>
<g>
	<polygon class="st0" points="1500.2,1253.1 1488.6,1253.1 1488.6,1241.5 1477.1,1241.5 1477.1,1228.7 978.4,1228.7 978.4,1241.5 
		966.8,1241.5 966.8,1253.1 955.2,1253.1 955.2,1937.8 966.8,1937.8 966.8,1949.5 978.4,1949.5 978.4,1962.3 1477.1,1962.3 
		1477.1,1949.5 1488.6,1949.5 1488.6,1937.8 1500.2,1937.8 	"/>
	<polygon class="st7" points="1500.2,1241.1 1488.6,1241.1 1488.6,1229.4 1477.1,1229.4 1477.1,1216.6 978.4,1216.6 978.4,1229.4 
		966.8,1229.4 966.8,1241.1 955.2,1241.1 955.2,1925.8 966.8,1925.8 966.8,1937.4 978.4,1937.4 978.4,1950.3 1477.1,1950.3 
		1477.1,1937.4 1488.6,1937.4 1488.6,1925.8 1500.2,1925.8 	"/>
	<polygon class="st8" points="1500.2,1229.1 1488.6,1229.1 1488.6,1217.4 1477.1,1217.4 1477.1,1204.6 978.4,1204.6 978.4,1217.4 
		966.8,1217.4 966.8,1229.1 955.2,1229.1 955.2,1913.8 966.8,1913.8 966.8,1925.4 978.4,1925.4 978.4,1938.2 1477.1,1938.2 
		1477.1,1925.4 1488.6,1925.4 1488.6,1913.8 1500.2,1913.8 	"/>
</g>
<g>
	<polygon class="st9" points="451.2,888.6 441.2,888.6 66.3,888.6 66.3,898.7 56.2,898.7 56.2,956.5 66.3,956.5 66.3,966.6 
		441.2,966.6 451.2,966.6 451.2,956.5 461.3,956.5 461.3,898.7 451.2,898.7 	"/>
	<polygon class="st10" points="451.2,878.6 441.2,878.6 66.3,878.6 66.3,888.7 56.2,888.7 56.2,946.5 66.3,946.5 66.3,956.6 
		441.2,956.6 451.2,956.6 451.2,946.5 461.3,946.5 461.3,888.7 451.2,888.7 	"/>
	<g>
		<path class="st4" d="M176.3,929.5h-6.9v-27.6h17.3v3.5h3.5v10.4h-3.5v3.5h-10.4V929.5z M176.3,912.2h6.9v-3.5h-6.9V912.2z"/>
		<path class="st4" d="M197,926h-3.5v-24.2h6.9v20.7h13.8v6.9H197V926z"/>
		<path class="st4" d="M224.7,929.5h-6.9v-24.2h3.5v-3.5H235v3.5h3.5v24.2h-6.9v-10.4h-6.9V929.5z M231.6,912.2v-3.5h-6.9v3.5H231.6
			z"/>
		<path class="st4" d="M241.9,901.8h6.9v10.4h6.9v-10.4h6.9v13.8h-3.5v3.5h-3.5v10.4h-6.9v-10.4h-3.5v-3.5h-3.5V901.8z"/>
		<path class="st4" d="M269.6,926h-3.5v-20.7h3.5v-3.5h17.3v6.9H273v3.5h6.9v6.9H273v3.5h13.8v6.9h-17.3V926z"/>
		<path class="st4" d="M300.7,919.1h-3.5v10.4h-6.9v-27.6h17.3v3.5h3.5v10.4h-3.5v3.5h3.5v10.4h-6.9v-6.9h-3.5V919.1z M297.2,912.2
			h6.9v-3.5h-6.9V912.2z"/>
		<path class="st4" d="M338.7,901.8h6.9v27.6h-6.9V901.8z"/>
	</g>
</g>
<g>
	<polygon class="st11" points="90.4,768 88.4,762.2 84.4,750.2 66.6,756.2 68.5,762 62.8,764 66.8,776 72.6,774 74.6,779.8 
		86.6,775.7 84.6,770 	"/>
	<polygon class="st11" points="129.2,755.9 127.2,750.2 123.2,738.2 105.4,744.2 107.3,749.9 101.6,751.9 105.6,763.9 111.4,762 
		113.4,767.7 125.4,763.7 123.4,757.9 	"/>
	<rect x="69.6" y="709" transform="matrix(0.9472 -0.3207 0.3207 0.9472 -229.7102 61.9478)" width="7.1" height="38.6"/>
	<polygon points="88.8,763.2 86.8,757.4 82.7,745.4 65,751.4 66.9,757.2 61.1,759.2 65.2,771.2 71,769.2 72.9,775 85,770.9 
		83,765.2 	"/>
	<rect x="108.1" y="696" transform="matrix(0.9472 -0.3207 0.3207 0.9472 -223.5002 73.5975)" width="7.1" height="38.6"/>
	<polygon points="127.2,750.2 125.3,744.4 121.2,732.4 103.4,738.4 105.4,744.2 99.6,746.1 103.7,758.2 109.4,756.2 111.4,762 
		123.4,757.9 121.5,752.1 	"/>
	<rect x="59.6" y="686.7" transform="matrix(0.9472 -0.3207 0.3207 0.9472 -218.5961 63.5032)" width="47.7" height="17.3"/>
</g>
<g>
	<polygon class="st11" points="156.6,801.6 157.5,797.4 159.4,788.8 146.6,786 145.7,790.1 141.6,789.2 139.7,797.9 143.8,798.8 
		142.9,802.9 151.5,804.8 152.5,800.7 	"/>
	<polygon class="st11" points="184.1,808.4 185,804.2 186.9,795.6 174.1,792.8 173.2,796.9 169.1,796 167.2,804.6 171.3,805.5 
		170.4,809.7 179.1,811.6 180,807.5 	"/>
	<rect x="158.2" y="758.2" transform="matrix(0.9766 0.2149 -0.2149 0.9766 169.5745 -16.4955)" width="5" height="26.9"/>
	<polygon points="157.4,798.1 158.3,794 160.2,785.3 147.4,782.5 146.5,786.7 142.3,785.8 140.4,794.4 144.6,795.3 143.7,799.5 
		152.3,801.4 153.2,797.2 	"/>
	<rect x="185.8" y="764.3" transform="matrix(0.9766 0.2149 -0.2149 0.9766 171.5286 -22.2975)" width="5" height="26.9"/>
	<polygon points="185,804.2 185.9,800.1 187.8,791.4 175.1,788.6 174.1,792.8 170,791.8 168.1,800.5 172.2,801.4 171.3,805.5 
		180,807.5 180.9,803.3 	"/>
	<rect x="162" y="749.7" transform="matrix(0.9766 0.2149 -0.2149 0.9766 166.5627 -20.74)" width="33.3" height="12"/>
</g>
<g>
	<polygon class="st11" points="232.6,739.8 232,736.7 230.5,730.4 221.1,732.5 221.8,735.5 218.8,736.2 220.2,742.6 223.2,741.9 
		223.9,744.9 230.3,743.5 229.6,740.5 	"/>
	<polygon class="st11" points="253,735.8 252.4,732.7 251,726.4 241.6,728.5 242.2,731.5 239.2,732.2 240.6,738.5 243.7,737.9 
		244.3,740.9 250.7,739.5 250,736.5 	"/>
	<rect x="224.2" y="708.7" transform="matrix(0.9761 -0.2173 0.2173 0.9761 -150.7436 66.2866)" width="3.6" height="19.8"/>
	<polygon points="232.1,737.3 231.4,734.2 230,727.9 220.6,729.9 221.3,733 218.2,733.7 219.6,740 222.7,739.3 223.3,742.4 
		229.7,741 229,737.9 	"/>
	<rect x="244.5" y="704.2" transform="matrix(0.9761 -0.2173 0.2173 0.9761 -149.276 70.5913)" width="3.6" height="19.8"/>
	<polygon points="252.4,732.7 251.7,729.7 250.3,723.3 240.9,725.4 241.6,728.5 238.5,729.2 239.9,735.5 243,734.8 243.7,737.9 
		250,736.5 249.3,733.4 	"/>
	<rect x="220.9" y="698" transform="matrix(0.9761 -0.2173 0.2173 0.9761 -147.0503 67.43)" width="24.4" height="8.8"/>
</g>
<g>
	<polygon class="st11" points="253.2,785.6 255.8,781.4 261.3,772.9 248.6,764.8 246,768.9 241.9,766.3 236.4,774.9 240.6,777.5 
		237.9,781.6 246.5,787.1 249.1,782.9 	"/>
	<polygon class="st11" points="280.2,803.7 282.8,799.6 288.3,791 275.6,782.9 273,787 268.9,784.4 263.4,793 267.5,795.6 
		264.9,799.7 273.5,805.2 276.1,801.1 	"/>
	<rect x="266.5" y="739.5" transform="matrix(0.844 0.5363 -0.5363 0.844 446.866 -26.7102)" width="5.7" height="30.9"/>
	<polygon points="255.4,782.1 258,778 263.5,769.4 250.8,761.4 248.2,765.5 244.1,762.9 238.6,771.5 242.7,774.1 240.1,778.2 
		248.7,783.6 251.3,779.5 	"/>
	<rect x="293.9" y="756.9" transform="matrix(0.844 0.5363 -0.5363 0.844 460.4904 -38.701)" width="5.7" height="30.9"/>
	<polygon points="282.8,799.6 285.5,795.4 290.9,786.9 278.2,778.8 275.6,782.9 271.5,780.3 266,788.9 270.2,791.5 267.5,795.6 
		276.1,801.1 278.7,796.9 	"/>
	<rect x="276" y="737.8" transform="matrix(0.844 0.5363 -0.5363 0.844 445.4345 -42.0724)" width="38.2" height="13.8"/>
</g>
<g>
	<polygon class="st9" points="-25.5,345.1 -32.1,345.1 -278.5,345.1 -278.5,351.8 -285.1,351.8 -285.1,389.8 -278.5,389.8 
		-278.5,396.4 -32.1,396.4 -25.5,396.4 -25.5,389.8 -18.9,389.8 -18.9,351.8 -25.5,351.8 	"/>
	<polygon class="st12" points="-25.5,345.1 -32.1,345.1 -278.5,345.1 -278.5,351.8 -285.1,351.8 -285.1,389.8 -278.5,389.8 
		-278.5,396.4 -32.1,396.4 -25.5,396.4 -25.5,389.8 -18.9,389.8 -18.9,351.8 -25.5,351.8 	"/>
	<g>
		<path class="st4" d="M-218.7,362.7h2.3v-2.3h11.4v4.5h-9.1v9.1h9.1v4.5h-11.4v-2.3h-2.3V362.7z"/>
		<path class="st4" d="M-198.3,378.6h-4.5v-15.9h2.3v-2.3h9.1v2.3h2.3v15.9h-4.5v-6.8h-4.5V378.6z M-193.7,367.2v-2.3h-4.5v2.3
			H-193.7z"/>
		<path class="st4" d="M-184.6,376.3h-2.3v-15.9h4.5V374h9.1v4.5h-11.4V376.3z"/>
		<path class="st4" d="M-171,360.4h4.5v18.2h-4.5V360.4z"/>
		<path class="st4" d="M-164.2,360.4h11.4v2.3h2.3v13.6h-2.3v2.3h-11.4V360.4z M-159.7,367.2h4.5v-2.3h-4.5V367.2z M-159.7,374h4.5
			v-2.3h-4.5V374z"/>
		<path class="st4" d="M-141.5,371.8h-2.3v6.8h-4.5v-15.9h2.3v-2.3h9.1v2.3h2.3v6.8h-2.3v2.3h2.3v6.8h-4.5V374h-2.3V371.8z
			 M-143.8,367.2h4.5v-2.3h-4.5V367.2z"/>
		<path class="st4" d="M-127.9,378.6h-4.5v-15.9h2.3v-2.3h9.1v2.3h2.3v15.9h-4.5v-6.8h-4.5V378.6z M-123.3,367.2v-2.3h-4.5v2.3
			H-123.3z"/>
		<path class="st4" d="M-116.5,360.4h13.6v4.5h-4.5v13.6h-4.5v-13.6h-4.5V360.4z"/>
		<path class="st4" d="M-98.3,376.3h-2.3v-13.6h2.3v-2.3H-87v4.5h-9.1v2.3h4.5v4.5h-4.5v2.3h9.1v4.5h-11.4V376.3z"/>
	</g>
</g>
<g>
	<polygon class="st9" points="294.5,413.1 287.9,413.1 41.5,413.1 41.5,419.8 34.9,419.8 34.9,457.8 41.5,457.8 41.5,464.4 
		287.9,464.4 294.5,464.4 294.5,457.8 301.1,457.8 301.1,419.8 294.5,419.8 	"/>
	<polygon class="st10" points="294.5,406.6 287.9,406.6 41.5,406.6 41.5,413.2 34.9,413.2 34.9,451.2 41.5,451.2 41.5,457.8 
		287.9,457.8 294.5,457.8 294.5,451.2 301.1,451.2 301.1,413.2 294.5,413.2 	"/>
	<g>
		<path class="st4" d="M101.3,424.1h2.3v-2.3h11.4v4.5h-9.1v9.1h9.1v4.5h-11.4v-2.3h-2.3V424.1z"/>
		<path class="st4" d="M121.7,440h-4.5v-15.9h2.3v-2.3h9.1v2.3h2.3V440h-4.5v-6.8h-4.5V440z M126.3,428.6v-2.3h-4.5v2.3H126.3z"/>
		<path class="st4" d="M135.4,437.7h-2.3v-15.9h4.5v13.6h9.1v4.5h-11.4V437.7z"/>
		<path class="st4" d="M149,421.8h4.5V440H149V421.8z"/>
		<path class="st4" d="M155.8,421.8h11.4v2.3h2.3v13.6h-2.3v2.3h-11.4V421.8z M160.3,428.6h4.5v-2.3h-4.5V428.6z M160.3,435.5h4.5
			v-2.3h-4.5V435.5z"/>
		<path class="st4" d="M178.5,433.2h-2.3v6.8h-4.5v-15.9h2.3v-2.3h9.1v2.3h2.3v6.8h-2.3v2.3h2.3v6.8h-4.5v-4.5h-2.3V433.2z
			 M176.2,428.6h4.5v-2.3h-4.5V428.6z"/>
		<path class="st4" d="M192.1,440h-4.5v-15.9h2.3v-2.3h9.1v2.3h2.3V440h-4.5v-6.8h-4.5V440z M196.7,428.6v-2.3h-4.5v2.3H196.7z"/>
		<path class="st4" d="M203.5,421.8h13.6v4.5h-4.5V440H208v-13.6h-4.5V421.8z"/>
		<path class="st4" d="M221.7,437.7h-2.3v-13.6h2.3v-2.3H233v4.5h-9.1v2.3h4.5v4.5h-4.5v2.3h9.1v4.5h-11.4V437.7z"/>
	</g>
</g>
<g>
	<rect x="36.5" y="495.5" class="st9" width="219.8" height="28.8"/>
	<rect x="31.7" y="488.9" class="st9" width="229.4" height="30.6"/>
	<polygon class="st10" points="31.7,484.6 31.7,513.8 36.5,513.8 36.5,519.5 256.2,519.5 256.2,513.8 261,513.8 261,484.6 	"/>
</g>
<polygon class="st9" points="251.5,499.4 251.5,494.3 246.4,494.3 246.4,494.2 189.7,494.2 159.1,494.2 133.5,494.2 109.7,494.2 
	46.3,494.2 46.3,494.3 41.2,494.3 41.2,499.4 36.1,499.4 36.1,507 41.2,507 41.2,512.1 46.3,512.1 46.3,512.2 109.7,512.2 
	133.5,512.2 159.1,512.2 189.7,512.2 246.4,512.2 246.4,512.2 251.5,512.2 251.5,507.1 256.5,507.1 256.5,499.4 "/>
<g>
	<rect x="27.5" y="593.5" class="st13" width="4.7" height="0.1"/>
	<rect x="27.5" y="611.4" class="st13" width="4.7" height="0.1"/>
	<polygon class="st4" points="48.6,611.4 48.6,606.3 53.6,606.3 53.6,598.7 48.6,598.7 48.6,593.6 43.5,593.6 43.5,593.5 
		32.3,593.5 32.3,593.6 27.5,593.6 27.5,611.4 32.3,611.4 32.3,611.5 43.5,611.5 43.5,611.4 	"/>
</g>
<g>
	<polygon class="st4" points="1.7,558 1.7,552.9 -3.4,552.9 -3.4,552.8 -19.3,552.8 -19.3,570.8 -3.4,570.8 -3.4,570.7 1.7,570.7 
		1.7,565.6 6.8,565.6 6.8,558 	"/>
	<polygon class="st4" points="-11.8,596.8 -11.8,591.7 -11.8,591.7 -11.8,591.6 -16.3,591.6 -16.9,591.6 -21.4,591.6 -21.4,591.7 
		-21.4,591.7 -21.4,596.8 -26.5,596.8 -26.5,604.4 -21.4,604.4 -21.4,609.5 -21.4,609.5 -21.4,609.6 -16.9,609.6 -16.3,609.6 
		-11.8,609.6 -11.8,609.6 -11.8,609.6 -11.8,604.5 -6.7,604.5 -6.7,596.8 	"/>
</g>
<polygon class="st4" points="-61.6,499.4 -61.6,494.3 -61.6,494.3 -61.6,494.2 -66.1,494.2 -66.7,494.2 -71.2,494.2 -71.2,494.3 
	-71.2,494.3 -71.2,499.4 -76.3,499.4 -76.3,507 -71.2,507 -71.2,512.1 -71.2,512.1 -71.2,512.2 -66.7,512.2 -66.1,512.2 
	-61.6,512.2 -61.6,512.2 -61.6,512.2 -61.6,507.1 -56.5,507.1 -56.5,499.4 "/>
<polygon class="st14" points="904.2,888.6 894.2,888.6 519.3,888.6 519.3,898.7 509.2,898.7 509.2,956.5 519.3,956.5 519.3,966.6 
	894.2,966.6 904.2,966.6 904.2,956.5 914.3,956.5 914.3,898.7 904.2,898.7 "/>
<polygon class="st15" points="904.2,878.6 894.2,878.6 519.3,878.6 519.3,888.7 509.2,888.7 509.2,946.5 519.3,946.5 519.3,956.6 
	894.2,956.6 904.2,956.6 904.2,946.5 914.3,946.5 914.3,888.7 904.2,888.7 "/>
<g>
	<path class="st4" d="M621.9,929.5h-6.9v-27.6h17.3v3.5h3.5v10.4h-3.5v3.5h-10.4V929.5z M621.9,912.2h6.9v-3.5h-6.9V912.2z"/>
	<path class="st4" d="M642.6,926h-3.5v-24.2h6.9v20.7h13.8v6.9h-17.3V926z"/>
	<path class="st4" d="M670.2,929.5h-6.9v-24.2h3.5v-3.5h13.8v3.5h3.5v24.2h-6.9v-10.4h-6.9V929.5z M677.2,912.2v-3.5h-6.9v3.5H677.2
		z"/>
	<path class="st4" d="M687.5,901.8h6.9v10.4h6.9v-10.4h6.9v13.8h-3.5v3.5h-3.5v10.4h-6.9v-10.4H691v-3.5h-3.5V901.8z"/>
	<path class="st4" d="M715.2,926h-3.5v-20.7h3.5v-3.5h17.3v6.9h-13.8v3.5h6.9v6.9h-6.9v3.5h13.8v6.9h-17.3V926z"/>
	<path class="st4" d="M746.3,919.1h-3.5v10.4h-6.9v-27.6h17.3v3.5h3.5v10.4h-3.5v3.5h3.5v10.4h-6.9v-6.9h-3.5V919.1z M742.8,912.2
		h6.9v-3.5h-6.9V912.2z"/>
	<path class="st4" d="M784.3,901.8h17.3v3.5h3.5v10.4h-3.5v3.5h-10.4v3.5H805v6.9h-20.7v-13.8h3.5v-3.5h10.4v-3.5h-13.8V901.8z"/>
</g>
<g>
	<rect x="530.2" y="882.6" class="st4" width="45.1" height="5.7"/>
	<rect x="581.5" y="882.6" class="st4" width="5.7" height="5.7"/>
</g>
<g>
	<rect x="75.7" y="883.6" class="st4" width="45.1" height="5.7"/>
	<rect x="127" y="883.6" class="st4" width="5.7" height="5.7"/>
</g>
<polygon class="st16" points="464.8,723.6 471.2,729.2 465.6,735.6 486.1,753 486.1,790.9 506.8,764.8 538.6,794.1 544.4,787.9 
	549.4,792.5 621,673.8 "/>
<polygon class="st17" points="462.4,716.5 468.8,722.1 463.2,728.5 483.6,745.8 483.6,783.7 504.3,757.6 536.1,787 541.9,780.8 
	546.9,785.4 618.5,666.7 "/>
<polygon class="st18" points="504.4,757.4 618.8,666.7 483.7,745.6 483.7,783.5 "/>
<polygon class="st19" points="461.3,716.6 467.7,722.2 462.1,728.6 482.5,746 482.5,783.9 503.3,757.8 535,787.2 540.9,780.9 
	545.8,785.5 617.5,666.8 "/>
<g>
	<polygon class="st20" points="397.2,409.9 397.2,573.5 407.5,573.5 407.5,583 417.9,583 417.9,593.5 865.4,593.5 865.4,583 
		875.8,583 875.8,573.5 886.2,573.5 886.2,409.9 	"/>
	<polygon class="st20" points="886.2,409.9 886.2,315.8 875.8,315.8 875.8,306.3 865.4,306.3 865.4,295.8 417.9,295.8 417.9,306.3 
		407.5,306.3 407.5,315.8 397.2,315.8 397.2,409.9 	"/>
</g>
<g>
	<polygon class="st21" points="407.5,312.4 417.9,312.4 417.9,304.4 407.5,304.4 407.5,312.3 397.2,312.3 397.2,320.3 407.5,320.3 	
		"/>
	<rect x="417.9" y="295.7" class="st21" width="447.5" height="8"/>
	<polygon class="st21" points="875.8,312.3 875.8,304.4 865.4,304.4 865.4,312.4 875.8,312.4 875.8,320.3 886.2,320.3 886.2,312.3 	
		"/>
</g>
<g>
	<g>
		<g>
			<rect x="4" y="231.4" width="10.2" height="10.2"/>
		</g>
	</g>
	<g>
		<g>
			<path d="M65.5,221.2v5.1h-5.1v5.1h5.1v20.5h5.1v5.1h-5.1v5.1h5.1h5.1v-10.2h15.4v5.1h5.1v-5.1v-30.7H65.5z M91.1,246.8H70.6
				v-20.5h20.5V246.8z"/>
		</g>
	</g>
	<g>
		<g>
			<rect x="75.7" y="231.4" width="10.2" height="10.2"/>
		</g>
	</g>
	<g>
		<g>
			<rect x="4" y="303.1" width="10.2" height="10.2"/>
		</g>
	</g>
	<g>
		<g>
			<rect x="65.5" y="292.9" width="5.1" height="5.1"/>
		</g>
	</g>
	<g>
		<g>
			<rect x="39.9" y="318.5" width="5.1" height="5.1"/>
		</g>
	</g>
	<g>
		<g>
			<rect x="45" y="298" width="5.1" height="5.1"/>
		</g>
	</g>
	<g>
		<g>
			<rect x="45" y="308.2" width="5.1" height="5.1"/>
		</g>
	</g>
	<g>
		<g>
			<rect x="91.1" y="282.6" width="5.1" height="5.1"/>
		</g>
	</g>
	<g>
		<g>
			<rect x="-6.2" y="282.6" width="5.1" height="5.1"/>
		</g>
	</g>
	<g>
		<g>
			<rect x="-6.2" y="257" width="5.1" height="5.1"/>
		</g>
	</g>
	<g>
		<g>
			<polygon points="50.1,226.3 50.1,231.4 39.9,231.4 39.9,236.5 55.2,236.5 55.2,231.4 55.2,226.3 			"/>
		</g>
	</g>
	<g>
		<g>
			<path d="M91.1,262.1v5.1H80.8v5.1H65.5v-5.1h-5.1v5.1H50.1v5.1h15.4v5.1H55.2h-5.1v-5.1H45v5.1h-5.1v-5.1h-5.1v5.1h-5.1v5.1h10.2
				v5.1H45v-5.1h10.2v5.1h-5.1v5.1h5.1v10.2h5.1v5.1h5.1v-5.1h15.4V298h5.1v-5.1h-5.1v-10.2H70.6v-5.1h10.2v5.1h5.1v-5.1h5.1v-5.1
				h5.1v-5.1v-5.1H91.1L91.1,262.1z M75.7,287.7v15.4H60.3v-15.4H75.7z"/>
		</g>
	</g>
	<g>
		<g>
			<polygon points="60.3,251.9 55.2,251.9 55.2,257 50.1,257 50.1,262.1 50.1,267.3 55.2,267.3 55.2,262.1 60.3,262.1 60.3,257 
				65.5,257 65.5,251.9 			"/>
		</g>
	</g>
	<g>
		<g>
			<rect x="50.1" y="318.5" width="10.2" height="5.1"/>
		</g>
	</g>
	<g>
		<g>
			<rect x="34.7" y="226.3" width="5.1" height="5.1"/>
		</g>
	</g>
	<g>
		<g>
			<rect x="75.7" y="262.1" width="5.1" height="5.1"/>
		</g>
	</g>
	<g>
		<g>
			<rect x="80.8" y="257" width="5.1" height="5.1"/>
		</g>
	</g>
	<g>
		<g>
			<rect x="14.2" y="282.6" width="5.1" height="5.1"/>
		</g>
	</g>
	<g>
		<g>
			<path d="M24.5,318.5V298h5.1v-5.1v-5.1h-5.1v5.1H9.1v-5.1H4h-5.1v5.1h-5.1v30.7h30.7h10.2v-5.1H24.5z M19.4,318.5H-1.1V298h20.5
				V318.5z"/>
		</g>
	</g>
	<g>
		<g>
			<rect x="24.5" y="251.9" width="5.1" height="5.1"/>
		</g>
	</g>
	<g>
		<g>
			<path d="M29.6,221.2h-5.1H-6.2v30.7h5.1v5.1H4v-5.1h5.1v5.1h5.1v-5.1h10.2v-10.2h5.1v-5.1h-5.1v-10.2h5.1h5.1v-5.1H29.6z
				 M19.4,246.8H-1.1v-20.5h20.5V246.8z"/>
		</g>
	</g>
	<g>
		<g>
			<rect x="55.2" y="236.5" width="5.1" height="5.1"/>
		</g>
	</g>
	<g>
		<g>
			<rect x="45" y="221.2" width="5.1" height="5.1"/>
		</g>
	</g>
	<g>
		<g>
			<path d="M55.2,251.9v-5.1h-5.1v-5.1H45v5.1H34.7v-5.1h-5.1v5.1v5.1h5.1v10.2H19.4V257h-5.1v5.1H-1.1v5.1H9.1v5.1H-6.2v5.1H9.1
				v5.1h5.1v-5.1h5.1v5.1h5.1v-5.1h10.2v-5.1h-5.1v-5.1h5.1h5.1v5.1H45h5.1v-5.1H45v-5.1h-5.1v-10.2L55.2,251.9L55.2,251.9z
				 M24.5,272.4H14.2v-5.1h10.2V272.4z"/>
		</g>
	</g>
	<g>
		<g>
			<polygon points="39.9,303.1 39.9,298 39.9,292.9 34.7,292.9 34.7,298 29.6,298 29.6,303.1 34.7,303.1 34.7,308.2 29.6,308.2 
				29.6,313.3 39.9,313.3 39.9,308.2 45,308.2 45,303.1 			"/>
		</g>
	</g>
	<g>
		<g>
			<polygon points="85.9,313.3 85.9,308.2 80.8,308.2 80.8,313.3 65.5,313.3 65.5,318.5 75.7,318.5 75.7,323.6 80.8,323.6 
				80.8,318.5 91.1,318.5 91.1,323.6 96.2,323.6 96.2,318.5 96.2,313.3 			"/>
		</g>
	</g>
	<g>
		<g>
			<polygon points="91.1,292.9 91.1,298 85.9,298 85.9,303.1 96.2,303.1 96.2,298 96.2,292.9 			"/>
		</g>
	</g>
</g>
<g>
	<g>
		<polygon class="st9" points="-234.3,637.3 -238,637.3 -375.2,637.3 -375.2,641 -378.9,641 -378.9,662.2 -375.2,662.2 
			-375.2,665.8 -238,665.8 -234.3,665.8 -234.3,662.2 -230.7,662.2 -230.7,641 -234.3,641 		"/>
		<polygon class="st12" points="-234.3,637.3 -238,637.3 -375.2,637.3 -375.2,641 -378.9,641 -378.9,662.2 -375.2,662.2 
			-375.2,665.8 -238,665.8 -234.3,665.8 -234.3,662.2 -230.7,662.2 -230.7,641 -234.3,641 		"/>
		<g>
			<path class="st4" d="M-347,652.1h-1.3v3.8h-2.5v-10.1h6.3v1.3h1.3v3.8h-1.3v1.3h1.3v3.8h-2.5v-2.5h-1.3V652.1z M-348.2,649.6h2.5
				v-1.3h-2.5V649.6z"/>
			<path class="st4" d="M-340.6,654.7h-1.3v-7.6h1.3v-1.3h6.3v2.5h-5.1v1.3h2.5v2.5h-2.5v1.3h5.1v2.5h-6.3V654.7z"/>
			<path class="st4" d="M-331.8,654.7h-1.3v-7.6h1.3v-1.3h5.1v1.3h1.3v2.5h-2.5v-1.3h-2.5v5.1h2.5v-1.3h2.5v2.5h-1.3v1.3h-5.1V654.7
				z"/>
			<path class="st4" d="M-321.7,655.9h-2.5v-8.9h1.3v-1.3h5.1v1.3h1.3v8.9h-2.5v-3.8h-2.5V655.9z M-319.2,649.6v-1.3h-2.5v1.3
				H-319.2z"/>
			<path class="st4" d="M-314.1,654.7h-1.3v-8.9h2.5v7.6h5.1v2.5h-6.3V654.7z"/>
			<path class="st4" d="M-306.5,645.8h2.5v10.1h-2.5V645.8z"/>
			<path class="st4" d="M-302.7,645.8h6.3v1.3h1.3v7.6h-1.3v1.3h-6.3V645.8z M-300.2,649.6h2.5v-1.3h-2.5V649.6z M-300.2,653.4h2.5
				v-1.3h-2.5V653.4z"/>
			<path class="st4" d="M-290.1,652.1h-1.3v3.8h-2.5v-8.9h1.3v-1.3h5.1v1.3h1.3v3.8h-1.3v1.3h1.3v3.8h-2.5v-2.5h-1.3V652.1z
				 M-291.3,649.6h2.5v-1.3h-2.5V649.6z"/>
			<path class="st4" d="M-282.5,655.9h-2.5v-8.9h1.3v-1.3h5.1v1.3h1.3v8.9h-2.5v-3.8h-2.5V655.9z M-280,649.6v-1.3h-2.5v1.3H-280z"
				/>
			<path class="st4" d="M-276.2,645.8h7.6v2.5h-2.5v7.6h-2.5v-7.6h-2.5V645.8z"/>
			<path class="st4" d="M-266,654.7h-1.3v-7.6h1.3v-1.3h6.3v2.5h-5.1v1.3h2.5v2.5h-2.5v1.3h5.1v2.5h-6.3V654.7z"/>
		</g>
	</g>
	<g>
		<rect x="-372.8" y="639.4" class="st4" width="13.1" height="1.7"/>
		<rect x="-357.9" y="639.4" class="st4" width="1.7" height="1.7"/>
	</g>
</g>
<g>
	<g>
		<polygon class="st9" points="-234.3,679.3 -238,679.3 -375.2,679.3 -375.2,683 -378.9,683 -378.9,704.2 -375.2,704.2 
			-375.2,707.8 -238,707.8 -234.3,707.8 -234.3,704.2 -230.7,704.2 -230.7,683 -234.3,683 		"/>
		<polygon class="st10" points="-234.3,675.6 -238,675.6 -375.2,675.6 -375.2,679.3 -378.9,679.3 -378.9,700.5 -375.2,700.5 
			-375.2,704.2 -238,704.2 -234.3,704.2 -234.3,700.5 -230.7,700.5 -230.7,679.3 -234.3,679.3 		"/>
		<g>
			<path class="st4" d="M-347,690.5h-1.3v3.8h-2.5v-10.1h6.3v1.3h1.3v3.8h-1.3v1.3h1.3v3.8h-2.5v-2.5h-1.3V690.5z M-348.2,687.9h2.5
				v-1.3h-2.5V687.9z"/>
			<path class="st4" d="M-340.6,693h-1.3v-7.6h1.3v-1.3h6.3v2.5h-5.1v1.3h2.5v2.5h-2.5v1.3h5.1v2.5h-6.3V693z"/>
			<path class="st4" d="M-331.8,693h-1.3v-7.6h1.3v-1.3h5.1v1.3h1.3v2.5h-2.5v-1.3h-2.5v5.1h2.5v-1.3h2.5v2.5h-1.3v1.3h-5.1V693z"/>
			<path class="st4" d="M-321.7,694.3h-2.5v-8.9h1.3v-1.3h5.1v1.3h1.3v8.9h-2.5v-3.8h-2.5V694.3z M-319.2,687.9v-1.3h-2.5v1.3
				H-319.2z"/>
			<path class="st4" d="M-314.1,693h-1.3v-8.9h2.5v7.6h5.1v2.5h-6.3V693z"/>
			<path class="st4" d="M-306.5,684.1h2.5v10.1h-2.5V684.1z"/>
			<path class="st4" d="M-302.7,684.1h6.3v1.3h1.3v7.6h-1.3v1.3h-6.3V684.1z M-300.2,687.9h2.5v-1.3h-2.5V687.9z M-300.2,691.7h2.5
				v-1.3h-2.5V691.7z"/>
			<path class="st4" d="M-290.1,690.5h-1.3v3.8h-2.5v-8.9h1.3v-1.3h5.1v1.3h1.3v3.8h-1.3v1.3h1.3v3.8h-2.5v-2.5h-1.3V690.5z
				 M-291.3,687.9h2.5v-1.3h-2.5V687.9z"/>
			<path class="st4" d="M-282.5,694.3h-2.5v-8.9h1.3v-1.3h5.1v1.3h1.3v8.9h-2.5v-3.8h-2.5V694.3z M-280,687.9v-1.3h-2.5v1.3H-280z"
				/>
			<path class="st4" d="M-276.2,684.1h7.6v2.5h-2.5v7.6h-2.5v-7.6h-2.5V684.1z"/>
			<path class="st4" d="M-266,693h-1.3v-7.6h1.3v-1.3h6.3v2.5h-5.1v1.3h2.5v2.5h-2.5v1.3h5.1v2.5h-6.3V693z"/>
		</g>
	</g>
	<g>
		<rect x="-372.8" y="678.4" class="st4" width="13.1" height="1.7"/>
		<rect x="-357.9" y="678.4" class="st4" width="1.7" height="1.7"/>
	</g>
</g>
<g>
	<rect x="47" y="410.1" class="st4" width="23.6" height="3"/>
	<rect x="73.8" y="410.1" class="st4" width="3" height="3"/>
</g>
<g>
	<rect x="-273.4" y="348.7" class="st4" width="23.6" height="3"/>
	<rect x="-246.6" y="348.7" class="st4" width="3" height="3"/>
</g>
<g>
	<polygon class="st22" points="-303.5,472.2 -303.5,464.7 -322.1,464.7 -322.1,472.2 -329.6,472.2 -329.6,479.6 -329.6,490.8 
		-322.1,490.8 -322.1,498.3 -310.9,498.3 -303.5,498.3 -303.5,490.8 -296,490.8 -296,479.6 -296,472.2 	"/>
	<line class="st23" x1="-321.5" y1="498.3" x2="-321.5" y2="508.2"/>
	<line class="st23" x1="-304.1" y1="498.3" x2="-304.1" y2="508.2"/>
	<polygon class="st24" points="-305,506.4 -307.2,506.4 -320.5,506.4 -320.5,508.6 -322.7,508.6 -322.7,524.1 -320.5,524.1 
		-320.5,526.3 -307.2,526.3 -305,526.3 -305,524.1 -302.8,524.1 -302.8,508.6 -305,508.6 	"/>
</g>
<polygon class="st25" points="-236.4,911.4 -236.4,903.5 -244.3,903.5 -309.3,903.5 -378.1,903.5 -378.1,911.4 -386,911.4 -386,957 
	-378.1,957 -378.1,964.9 -309.3,964.9 -244.3,964.9 -236.4,964.9 -236.4,957 -228.5,957 -228.5,911.4 "/>
<polygon class="st25" points="-236.4,911.5 -236.4,903.6 -244.3,903.6 -309.3,903.6 -378.1,903.6 -378.1,911.5 -386,911.5 
	-386,957.1 -378.1,957.1 -378.1,965 -309.3,965 -244.3,965 -236.4,965 -236.4,957.1 -228.5,957.1 -228.5,911.5 "/>
<g>
	<path class="st4" d="M-339.9,945h-5.4v-21.8h13.6v2.7h2.7v8.2h-2.7v2.7h-8.2V945z M-339.9,931.4h5.4v-2.7h-5.4V931.4z"/>
	<path class="st4" d="M-323.6,942.2h-2.7v-19h5.4v16.3h10.9v5.4h-13.6V942.2z"/>
	<path class="st4" d="M-301.8,945h-5.4v-19h2.7v-2.7h10.9v2.7h2.7v19h-5.4v-8.2h-5.4V945z M-296.3,931.4v-2.7h-5.4v2.7H-296.3z"/>
	<path class="st4" d="M-288.2,923.2h5.4v8.2h5.4v-8.2h5.4v10.9h-2.7v2.7h-2.7v8.2h-5.4v-8.2h-2.7v-2.7h-2.7V923.2z"/>
</g>
<polygon class="st25" points="-66.4,911.4 -66.4,903.5 -74.3,903.5 -139.3,903.5 -208.1,903.5 -208.1,911.4 -216,911.4 -216,957 
	-208.1,957 -208.1,964.9 -139.3,964.9 -74.3,964.9 -66.4,964.9 -66.4,957 -58.5,957 -58.5,911.4 "/>
<polygon class="st22" points="-66.4,903.5 -66.4,895.6 -74.3,895.6 -139.3,895.6 -208.1,895.6 -208.1,903.5 -216,903.5 -216,949.1 
	-208.1,949.1 -208.1,957 -139.3,957 -74.3,957 -66.4,957 -66.4,949.1 -58.5,949.1 -58.5,903.5 "/>
<g>
	<path class="st4" d="M-169.9,937h-5.4v-21.8h13.6v2.7h2.7v8.2h-2.7v2.7h-8.2V937z M-169.9,923.4h5.4v-2.7h-5.4V923.4z"/>
	<path class="st4" d="M-153.6,934.2h-2.7v-19h5.4v16.3h10.9v5.4h-13.6V934.2z"/>
	<path class="st4" d="M-131.8,937h-5.4v-19h2.7v-2.7h10.9v2.7h2.7v19h-5.4v-8.2h-5.4V937z M-126.3,923.4v-2.7h-5.4v2.7H-126.3z"/>
	<path class="st4" d="M-118.2,915.2h5.4v8.2h5.4v-8.2h5.4v10.9h-2.7v2.7h-2.7v8.2h-5.4v-8.2h-2.7v-2.7h-2.7V915.2z"/>
</g>
<g>
	<path class="st26" d="M-1059.9,665.8h43.2v108h43.2v-108h43.2v129.6h-21.6V817h-21.6v21.6h-43.2V817h-21.6v-21.6h-21.6V665.8z"/>
	<path class="st27" d="M-908.7,689.5h21.6v-21.6h108v43.2h-86.4v21.6h64.8v21.6h21.6v64.8h-21.6v21.6h-108v-43.2h86.4v-21.6h-64.8
		v-21.6h-21.6V689.5z"/>
</g>
<g>
	<path class="st28" d="M-1059.9,644.8h43.2v108h43.2v-108h43.2v129.6h-21.6V796h-21.6v21.6h-43.2V796h-21.6v-21.6h-21.6V644.8z"/>
	<path class="st29" d="M-908.7,666.4h21.6v-21.6h108V688h-86.4v21.6h64.8v21.6h21.6V796h-21.6v21.6h-108v-43.2h86.4v-21.6h-64.8
		v-21.6h-21.6V666.4z"/>
</g>
<g>
	<g>
		<path class="st0" d="M-1010.6,1023.4h27.5v68.7h27.5v-68.7h27.5v82.4h-13.7v13.7h-13.7v13.7h-27.5v-13.7h-13.7v-13.7h-13.7V1023.4
			z"/>
		<path class="st0" d="M-914.5,1038.4h13.7v-13.7h68.7v27.5H-887v13.7h41.2v13.7h13.7v41.2h-13.7v13.7h-68.7v-27.5h54.9v-13.7h-41.2
			v-13.7h-13.7V1038.4z"/>
	</g>
	<g>
		<path class="st7" d="M-1010.6,1008.9h27.5v68.7h27.5v-68.7h27.5v82.4h-13.7v13.7h-13.7v13.7h-27.5V1105h-13.7v-13.7h-13.7V1008.9z
			"/>
		<path class="st7" d="M-914.5,1023.9h13.7v-13.7h68.7v27.5H-887v13.7h41.2v13.7h13.7v41.2h-13.7v13.7h-68.7v-27.5h54.9v-13.7h-41.2
			v-13.7h-13.7V1023.9z"/>
	</g>
	<g>
		<path class="st4" d="M-1010.6,995.5h27.5v68.7h27.5v-68.7h27.5v82.4h-13.7v13.7h-13.7v13.7h-27.5v-13.7h-13.7v-13.7h-13.7V995.5z"
			/>
		<path class="st4" d="M-914.5,1009.2h13.7v-13.7h68.7v27.5H-887v13.7h41.2v13.7h13.7v41.2h-13.7v13.7h-68.7v-27.5h54.9v-13.7h-41.2
			v-13.7h-13.7V1009.2z"/>
	</g>
</g>
<g>
	<g>
		<path class="st0" d="M-436.1,163.7h-21.6V77.3h54v10.8h10.8v32.4h-10.8v10.8h-32.4V163.7z M-436.1,109.7h21.6V98.9h-21.6V109.7z"
			/>
		<path class="st0" d="M-382.1,88.1h10.8V77.3h43.2v10.8h10.8v64.8h-10.8v10.8h-43.2v-10.8h-10.8V88.1z M-360.5,142.1h21.6V98.9
			h-21.6V142.1z"/>
		<path class="st0" d="M-295.7,152.9h-10.8V77.3h21.6v64.8h43.2v21.6h-54V152.9z"/>
		<path class="st0" d="M-252.5,77.3h21.6v32.4h21.6V77.3h21.6v43.2h-10.8v10.8h-10.8v32.4h-21.6v-32.4h-10.8v-10.8h-10.8V77.3z"/>
	</g>
	<g>
		<path class="st30" d="M-436.1,155.3h-21.6V68.9h54v10.8h10.8v32.4h-10.8v10.8h-32.4V155.3z M-436.1,101.3h21.6V90.5h-21.6V101.3z"
			/>
		<path class="st30" d="M-382.1,79.7h10.8V68.9h43.2v10.8h10.8v64.8h-10.8v10.8h-43.2v-10.8h-10.8V79.7z M-360.5,133.7h21.6V90.5
			h-21.6V133.7z"/>
		<path class="st30" d="M-295.7,144.5h-10.8V68.9h21.6v64.8h43.2v21.6h-54V144.5z"/>
		<path class="st30" d="M-252.5,68.9h21.6v32.4h21.6V68.9h21.6v43.2h-10.8v10.8h-10.8v32.4h-21.6v-32.4h-10.8v-10.8h-10.8V68.9z"/>
	</g>
	<g>
		<path class="st4" d="M-436.1,147.1h-21.6V60.7h54v10.8h10.8v32.4h-10.8v10.8h-32.4V147.1z M-436.1,93.1h21.6V82.3h-21.6V93.1z"/>
		<path class="st4" d="M-382.1,71.5h10.8V60.7h43.2v10.8h10.8v64.8h-10.8v10.8h-43.2v-10.8h-10.8V71.5z M-360.5,125.5h21.6V82.3
			h-21.6V125.5z"/>
		<path class="st4" d="M-295.7,136.3h-10.8V60.7h21.6v64.8h43.2v21.6h-54V136.3z"/>
		<path class="st4" d="M-252.5,60.7h21.6v32.4h21.6V60.7h21.6v43.2h-10.8v10.8h-10.8v32.4h-21.6v-32.4h-10.8v-10.8h-10.8V60.7z"/>
	</g>
</g>
<g>
	<g id="u9MLE1.tif_3_" class="st31">
		
			<image style="overflow:visible;" width="163" height="260" id="Layer_1_3_" xlink:href="729C095E7F9BE99E.png"  transform="matrix(0.8268 0.2296 -0.2296 0.8268 -599.9519 226.7915)">
		</image>
	</g>
	<g id="u9MLE1.tif_2_">
		
			<image style="overflow:visible;" width="163" height="260" id="Layer_1_1_" xlink:href="729C095E7F9BE9A2.png"  transform="matrix(0.8455 0.2348 -0.2348 0.8455 -605.9841 211.0884)">
		</image>
	</g>
</g>
<g>
	<g class="st1">
		<g>
			<polygon class="st0" points="-109.3,-152.8 -109.3,-66.3 -8.1,-66.3 -8.1,-77.9 -20.8,-77.9 -20.8,-90.6 -33.4,-90.6 
				-33.4,-103.2 -46.1,-103.2 -46.1,-115.9 -33.4,-115.9 -33.4,-128.5 -20.8,-128.5 -20.8,-141.2 -8.1,-141.2 -8.1,-152.8 			"/>
		</g>
		<polygon class="st0" points="-94.6,-91.6 -109.3,-67.4 -109.3,-91.6 		"/>
	</g>
	<rect x="-597.5" y="-175.7" class="st0" width="510.3" height="86.5"/>
	<rect x="-120.9" y="-97.7" class="st0" width="112.8" height="31.6"/>
	<g class="st1">
		<g>
			<polygon class="st0" points="-589.7,-152.6 -589.7,-66.2 -690.9,-66.2 -690.9,-77.8 -678.2,-77.8 -678.2,-90.4 -665.6,-90.4 
				-665.6,-103.1 -652.9,-103.1 -652.9,-115.7 -665.6,-115.7 -665.6,-128.4 -678.2,-128.4 -678.2,-141 -690.9,-141 -690.9,-152.6 
							"/>
		</g>
		<polygon class="st0" points="-604.4,-91.5 -589.7,-67.2 -589.7,-91.5 		"/>
	</g>
	<g>
		<g>
			<polygon class="st2" points="-109.3,-163.1 -109.3,-76.6 -8.1,-76.6 -8.1,-88.2 -20.8,-88.2 -20.8,-100.8 -33.4,-100.8 
				-33.4,-113.5 -46.1,-113.5 -46.1,-126.1 -33.4,-126.1 -33.4,-138.8 -20.8,-138.8 -20.8,-151.5 -8.1,-151.5 -8.1,-163.1 			"/>
			<polygon class="st3" points="-109.3,-174.7 -109.3,-88.2 -8.1,-88.2 -8.1,-99.8 -20.8,-99.8 -20.8,-112.4 -33.4,-112.4 
				-33.4,-125.1 -46.1,-125.1 -46.1,-137.7 -33.4,-137.7 -33.4,-150.4 -20.8,-150.4 -20.8,-163.1 -8.1,-163.1 -8.1,-174.7 			"/>
		</g>
		<polygon class="st2" points="-94.6,-101.9 -109.3,-77.6 -109.3,-101.9 		"/>
		<g>
			<g>
				<polygon class="st2" points="-590.1,-163.1 -590.1,-76.6 -691.4,-76.6 -691.4,-88.2 -678.7,-88.2 -678.7,-100.8 -666.1,-100.8 
					-666.1,-113.5 -653.4,-113.5 -653.4,-126.1 -666.1,-126.1 -666.1,-138.8 -678.7,-138.8 -678.7,-151.5 -691.4,-151.5 
					-691.4,-163.1 				"/>
				<polygon class="st3" points="-590.1,-174.7 -590.1,-88.2 -691.4,-88.2 -691.4,-99.8 -678.7,-99.8 -678.7,-112.4 -666.1,-112.4 
					-666.1,-125.1 -653.4,-125.1 -653.4,-137.7 -666.1,-137.7 -666.1,-150.4 -678.7,-150.4 -678.7,-163.1 -691.4,-163.1 
					-691.4,-174.7 				"/>
			</g>
			<polygon class="st2" points="-604.9,-101.9 -590.1,-77.6 -590.2,-101.9 			"/>
		</g>
		<g>
			<rect x="-604.9" y="-188.4" class="st2" width="510.3" height="86.5"/>
			<rect x="-604.9" y="-201" class="st3" width="510.3" height="86.5"/>
		</g>
	</g>
</g>
<g>
	<g>
		<path class="st25" d="M-490.8-126h-37.4V-186h37.4v7.5h7.5v15h-7.5v15h7.5v15h-7.5V-126z M-513.2-163.5h15v-7.5h-15V-163.5z
			 M-513.2-141h15v-7.5h-15V-141z"/>
		<path class="st25" d="M-460.8-126h-15v-52.4h7.5v-7.5h30v7.5h7.5v52.4h-15v-22.5h-15V-126z M-445.8-163.5v-7.5h-15v7.5H-445.8z"/>
		<path class="st25" d="M-415.9-133.5h-7.5V-186h15v44.9h30v15h-37.4V-133.5z"/>
		<path class="st25" d="M-363.4-133.5h-7.5V-186h15v44.9h30v15h-37.4V-133.5z"/>
		<path class="st25" d="M-318.5-178.5h7.5v-7.5h30v7.5h7.5v44.9h-7.5v7.5h-30v-7.5h-7.5V-178.5z M-303.5-141h15v-30h-15V-141z"/>
		<path class="st25" d="M-266.1-178.5h7.5v-7.5h30v7.5h7.5v44.9h-7.5v7.5h-30v-7.5h-7.5V-178.5z M-251.1-141h15v-30h-15V-141z"/>
		<path class="st25" d="M-191.2-156h-7.5v30h-15V-186h15v7.5h7.5v7.5h7.5v-15h15v59.9h-15v-22.5h-7.5V-156z"/>
	</g>
	<g>
		<path class="st22" d="M-490.8-131.9h-37.4v-59.9h37.4v7.5h7.5v15h-7.5v15h7.5v15h-7.5V-131.9z M-513.2-169.3h15v-7.5h-15V-169.3z
			 M-513.2-146.9h15v-7.5h-15V-146.9z"/>
		<path class="st22" d="M-460.8-131.9h-15v-52.4h7.5v-7.5h30v7.5h7.5v52.4h-15v-22.5h-15V-131.9z M-445.8-169.3v-7.5h-15v7.5H-445.8
			z"/>
		<path class="st22" d="M-415.9-139.4h-7.5v-52.4h15v44.9h30v15h-37.4V-139.4z"/>
		<path class="st22" d="M-363.4-139.4h-7.5v-52.4h15v44.9h30v15h-37.4V-139.4z"/>
		<path class="st22" d="M-318.5-184.3h7.5v-7.5h30v7.5h7.5v44.9h-7.5v7.5h-30v-7.5h-7.5V-184.3z M-303.5-146.9h15v-30h-15V-146.9z"
			/>
		<path class="st22" d="M-266.1-184.3h7.5v-7.5h30v7.5h7.5v44.9h-7.5v7.5h-30v-7.5h-7.5V-184.3z M-251.1-146.9h15v-30h-15V-146.9z"
			/>
		<path class="st22" d="M-191.2-161.8h-7.5v30h-15v-59.9h15v7.5h7.5v7.5h7.5v-15h15v59.9h-15v-22.5h-7.5V-161.8z"/>
	</g>
</g>
<g>
	<path class="st0" d="M0.9,20.7h20.7v6.9H0.9V20.7z"/>
	<path class="st0" d="M56.2,38h-6.9V10.3h17.3v3.5H70v10.4h-3.5v3.5H56.2V38z M56.2,20.7h6.9v-3.5h-6.9V20.7z"/>
	<path class="st0" d="M83.8,27.6h-3.5V38h-6.9V10.3h17.3v3.5h3.5v10.4h-3.5v3.5h3.5V38h-6.9V31h-3.5V27.6z M80.4,20.7h6.9v-3.5h-6.9
		V20.7z"/>
	<path class="st0" d="M101.1,34.5h-3.5V13.8h3.5v-3.5h17.3v6.9h-13.8v3.5h6.9v6.9h-6.9V31h13.8V38h-17.3V34.5z"/>
	<path class="st0" d="M121.8,13.8h3.5v-3.5h17.3v6.9h-13.8v3.5h10.4v3.5h3.5v10.4h-3.5V38h-17.3V31h13.8v-3.5h-10.4v-3.5h-3.5V13.8z
		"/>
	<path class="st0" d="M146,13.8h3.5v-3.5h17.3v6.9h-13.8v3.5h10.4v3.5h3.5v10.4h-3.5V38H146V31h13.8v-3.5h-10.4v-3.5H146V13.8z"/>
	<path class="st0" d="M201.3,38h-6.9V13.8h3.5v-3.5h13.8v3.5h3.5V38h-6.9V27.6h-6.9V38z M208.2,20.7v-3.5h-6.9v3.5H208.2z"/>
	<path class="st0" d="M229,24.1h-3.5V38h-6.9V10.3h6.9v3.5h3.5v3.5h3.5v-6.9h6.9V38h-6.9V27.6H229V24.1z"/>
	<path class="st0" d="M242.8,10.3h6.9v10.4h6.9V10.3h6.9v13.8h-3.5v3.5h-3.5V38h-6.9V27.6h-3.5v-3.5h-3.5V10.3z"/>
	<path class="st0" d="M298.1,38h-6.9V10.3h6.9v6.9h3.5v-3.5h3.5v-3.5h6.9v6.9h-3.5v3.5H305v6.9h3.5V31h3.5V38H305v-3.5h-3.5V31h-3.5
		V38z"/>
	<path class="st0" d="M318.8,34.5h-3.5V13.8h3.5v-3.5h17.3v6.9h-13.8v3.5h6.9v6.9h-6.9V31h13.8V38h-17.3V34.5z"/>
	<path class="st0" d="M339.5,10.3h6.9v10.4h6.9V10.3h6.9v13.8h-3.5v3.5h-3.5V38h-6.9V27.6H343v-3.5h-3.5V10.3z"/>
	<path class="st0" d="M387.9,10.3h20.7v6.9h-6.9V38h-6.9V17.2h-6.9V10.3z"/>
	<path class="st0" d="M412.1,13.8h3.5v-3.5h13.8v3.5h3.5v20.7h-3.5V38h-13.8v-3.5h-3.5V13.8z M419,31h6.9V17.2H419V31z"/>
	<path class="st0" d="M467.4,38h-6.9V10.3h17.3v3.5h3.5v10.4h-3.5v3.5h-10.4V38z M467.4,20.7h6.9v-3.5h-6.9V20.7z"/>
	<path class="st0" d="M488.2,34.5h-3.5V10.3h6.9V31h13.8V38h-17.3V34.5z"/>
	<path class="st0" d="M515.8,38h-6.9V13.8h3.5v-3.5h13.8v3.5h3.5V38h-6.9V27.6h-6.9V38z M522.7,20.7v-3.5h-6.9v3.5H522.7z"/>
	<path class="st0" d="M533.1,10.3h6.9v10.4h6.9V10.3h6.9v13.8h-3.5v3.5h-3.5V38H540V27.6h-3.5v-3.5h-3.5V10.3z"/>
	<path class="st0" d="M581.5,20.7h20.7v6.9h-20.7V20.7z"/>
</g>
<g>
	<path class="st30" d="M0,14.8h20.7v6.9H0V14.8z"/>
	<path class="st30" d="M55.3,32.1h-6.9V4.4h17.3v3.5h3.5v10.4h-3.5v3.5H55.3V32.1z M55.3,14.8h6.9v-3.5h-6.9V14.8z"/>
	<path class="st30" d="M82.9,21.7h-3.5v10.4h-6.9V4.4h17.3v3.5h3.5v10.4h-3.5v3.5h3.5v10.4h-6.9v-6.9h-3.5V21.7z M79.5,14.8h6.9
		v-3.5h-6.9V14.8z"/>
	<path class="st30" d="M100.2,28.6h-3.5V7.9h3.5V4.4h17.3v6.9h-13.8v3.5h6.9v6.9h-6.9v3.5h13.8v6.9h-17.3V28.6z"/>
	<path class="st30" d="M121,7.9h3.5V4.4h17.3v6.9h-13.8v3.5h10.4v3.5h3.5v10.4h-3.5v3.5H121v-6.9h13.8v-3.5h-10.4v-3.5H121V7.9z"/>
	<path class="st30" d="M145.1,7.9h3.5V4.4h17.3v6.9h-13.8v3.5h10.4v3.5h3.5v10.4h-3.5v3.5h-17.3v-6.9H159v-3.5h-10.4v-3.5h-3.5V7.9z
		"/>
	<path class="st30" d="M200.4,32.1h-6.9V7.9h3.5V4.4h13.8v3.5h3.5v24.2h-6.9V21.7h-6.9V32.1z M207.4,14.8v-3.5h-6.9v3.5H207.4z"/>
	<path class="st30" d="M228.1,18.2h-3.5v13.8h-6.9V4.4h6.9v3.5h3.5v3.5h3.5V4.4h6.9v27.6h-6.9V21.7h-3.5V18.2z"/>
	<path class="st30" d="M241.9,4.4h6.9v10.4h6.9V4.4h6.9v13.8h-3.5v3.5h-3.5v10.4h-6.9V21.7h-3.5v-3.5h-3.5V4.4z"/>
	<path class="st30" d="M297.2,32.1h-6.9V4.4h6.9v6.9h3.5V7.9h3.5V4.4h6.9v6.9h-3.5v3.5h-3.5v6.9h3.5v3.5h3.5v6.9h-6.9v-3.5h-3.5
		v-3.5h-3.5V32.1z"/>
	<path class="st30" d="M317.9,28.6h-3.5V7.9h3.5V4.4h17.3v6.9h-13.8v3.5h6.9v6.9h-6.9v3.5h13.8v6.9h-17.3V28.6z"/>
	<path class="st30" d="M338.7,4.4h6.9v10.4h6.9V4.4h6.9v13.8H356v3.5h-3.5v10.4h-6.9V21.7h-3.5v-3.5h-3.5V4.4z"/>
	<path class="st30" d="M387.1,4.4h20.7v6.9h-6.9v20.7H394V11.3h-6.9V4.4z"/>
	<path class="st30" d="M411.3,7.9h3.5V4.4h13.8v3.5h3.5v20.7h-3.5v3.5h-13.8v-3.5h-3.5V7.9z M418.2,25.1h6.9V11.3h-6.9V25.1z"/>
	<path class="st30" d="M466.5,32.1h-6.9V4.4h17.3v3.5h3.5v10.4h-3.5v3.5h-10.4V32.1z M466.5,14.8h6.9v-3.5h-6.9V14.8z"/>
	<path class="st30" d="M487.3,28.6h-3.5V4.4h6.9v20.7h13.8v6.9h-17.3V28.6z"/>
	<path class="st30" d="M514.9,32.1H508V7.9h3.5V4.4h13.8v3.5h3.5v24.2h-6.9V21.7h-6.9V32.1z M521.8,14.8v-3.5h-6.9v3.5H521.8z"/>
	<path class="st30" d="M532.2,4.4h6.9v10.4h6.9V4.4h6.9v13.8h-3.5v3.5H546v10.4h-6.9V21.7h-3.5v-3.5h-3.5V4.4z"/>
	<path class="st30" d="M580.6,14.8h20.7v6.9h-20.7V14.8z"/>
</g>
<g>
	<path class="st4" d="M0,10.4h20.7v6.9H0V10.4z"/>
	<path class="st4" d="M55.3,27.6h-6.9V0h17.3v3.5h3.5v10.4h-3.5v3.5H55.3V27.6z M55.3,10.4h6.9V6.9h-6.9V10.4z"/>
	<path class="st4" d="M82.9,17.3h-3.5v10.4h-6.9V0h17.3v3.5h3.5v10.4h-3.5v3.5h3.5v10.4h-6.9v-6.9h-3.5V17.3z M79.5,10.4h6.9V6.9
		h-6.9V10.4z"/>
	<path class="st4" d="M100.2,24.2h-3.5V3.5h3.5V0h17.3v6.9h-13.8v3.5h6.9v6.9h-6.9v3.5h13.8v6.9h-17.3V24.2z"/>
	<path class="st4" d="M121,3.5h3.5V0h17.3v6.9h-13.8v3.5h10.4v3.5h3.5v10.4h-3.5v3.5H121v-6.9h13.8v-3.5h-10.4v-3.5H121V3.5z"/>
	<path class="st4" d="M145.1,3.5h3.5V0h17.3v6.9h-13.8v3.5h10.4v3.5h3.5v10.4h-3.5v3.5h-17.3v-6.9H159v-3.5h-10.4v-3.5h-3.5V3.5z"/>
	<path class="st4" d="M200.4,27.6h-6.9V3.5h3.5V0h13.8v3.5h3.5v24.2h-6.9V17.3h-6.9V27.6z M207.4,10.4V6.9h-6.9v3.5H207.4z"/>
	<path class="st4" d="M228.1,13.8h-3.5v13.8h-6.9V0h6.9v3.5h3.5v3.5h3.5V0h6.9v27.6h-6.9V17.3h-3.5V13.8z"/>
	<path class="st4" d="M241.9,0h6.9v10.4h6.9V0h6.9v13.8h-3.5v3.5h-3.5v10.4h-6.9V17.3h-3.5v-3.5h-3.5V0z"/>
	<path class="st4" d="M297.2,27.6h-6.9V0h6.9v6.9h3.5V3.5h3.5V0h6.9v6.9h-3.5v3.5h-3.5v6.9h3.5v3.5h3.5v6.9h-6.9v-3.5h-3.5v-3.5
		h-3.5V27.6z"/>
	<path class="st4" d="M317.9,24.2h-3.5V3.5h3.5V0h17.3v6.9h-13.8v3.5h6.9v6.9h-6.9v3.5h13.8v6.9h-17.3V24.2z"/>
	<path class="st4" d="M338.7,0h6.9v10.4h6.9V0h6.9v13.8H356v3.5h-3.5v10.4h-6.9V17.3h-3.5v-3.5h-3.5V0z"/>
	<path class="st4" d="M387.1,0h20.7v6.9h-6.9v20.7H394V6.9h-6.9V0z"/>
	<path class="st4" d="M411.3,3.5h3.5V0h13.8v3.5h3.5v20.7h-3.5v3.5h-13.8v-3.5h-3.5V3.5z M418.2,20.7h6.9V6.9h-6.9V20.7z"/>
	<path class="st4" d="M466.5,27.6h-6.9V0h17.3v3.5h3.5v10.4h-3.5v3.5h-10.4V27.6z M466.5,10.4h6.9V6.9h-6.9V10.4z"/>
	<path class="st4" d="M487.3,24.2h-3.5V0h6.9v20.7h13.8v6.9h-17.3V24.2z"/>
	<path class="st4" d="M514.9,27.6H508V3.5h3.5V0h13.8v3.5h3.5v24.2h-6.9V17.3h-6.9V27.6z M521.8,10.4V6.9h-6.9v3.5H521.8z"/>
	<path class="st4" d="M532.2,0h6.9v10.4h6.9V0h6.9v13.8h-3.5v3.5H546v10.4h-6.9V17.3h-3.5v-3.5h-3.5V0z"/>
	<path class="st4" d="M580.6,10.4h20.7v6.9h-20.7V10.4z"/>
</g>
</svg>
