<svg id="Layer_1" xmlns="http://www.w3.org/2000/svg" xmlns:xlink="http://www.w3.org/1999/xlink" width="602.6" height="39.8" viewBox="0 0 602.6 39.8"><style>.st0{fill:#5895b7}.st1{opacity:.8}.st2{fill:#c17620}.st3{fill:#f4c24a}.st4{fill:#fff}.st5{fill:#2a6fba}.st6{fill:#4abaef}.st7{fill:#95c9c8}.st8{fill:#ddefee}.st9{fill:#1b8e6f}.st10{fill:#3cea8a}.st11{opacity:.4;fill:#666}.st12{fill:#33bc6e}.st13{fill:none}.st14{fill:#7149a4}.st15{fill:#bd86e0}.st16{opacity:.4;fill:#666;stroke:#666;stroke-width:4;stroke-linejoin:bevel;stroke-miterlimit:10}.st17{fill:#f2f2f2}.st18{fill:#e6e6e6}.st19{fill:none;stroke:#000;stroke-width:4;stroke-linejoin:bevel;stroke-miterlimit:10}.st20{fill:#c6e0de}.st21{fill:#a7c6c3}.st22{fill:#ee3d53}.st23{fill:none;stroke:#000;stroke-width:2;stroke-miterlimit:10}.st24{fill:#a17559}.st25{fill:#910e46}.st26{fill:#238d6f}.st27{fill:#704ca2}.st28{fill:#47e88d}.st29{fill:#bc88de}.st30{fill:#ccc}.st31{opacity:.4}</style><path class="st0" d="M145.2 1139.6h484v82h-484z"/><path class="st0" d="M597.2 1213.6h107v30h-107z"/><g class="st1"><path class="st0" d="M161.2 1159.6v82h-96v-11h12v-12h12v-12h12v-12h-12v-12h-12v-12h-12v-11z"/><path class="st0" d="M147.2 1217.6l14 23v-23z"/></g><path class="st2" d="M608.2 1151.6v82h96v-11h-12v-12h-12v-12h-12v-12h12v-12h12v-12h12v-11z"/><path class="st3" d="M608.2 1140.6v82h96v-11h-12v-12h-12v-12h-12v-12h12v-12h12v-12h12v-11z"/><path class="st2" d="M622.2 1209.6l-14 23 .1-23zm-470-58v82h-96v-11h12v-12h12v-12h12v-12h-12v-12h-12v-12h-12v-11z"/><path class="st3" d="M152.2 1140.6v82h-96v-11h12v-12h12v-12h12v-12h-12v-12h-12v-12h-12v-11z"/><path class="st2" d="M138.2 1209.6l14 23v-23zm0-82h484v82h-484z"/><path class="st3" d="M138.2 1115.6h484v82h-484z"/><path class="st4" d="M208.8 1175.4h-8.6v-34.6h8.6v13h8.6v-13h8.6v34.6h-8.6v-13h-8.6v13zm21.6-30.3h4.3v-4.3H252v4.3h4.3v25.9H252v4.3h-17.3v-4.3h-4.3v-25.9zm8.7 21.6h8.6v-17.3h-8.6v17.3zm30.2 8.7h-8.6v-34.6h8.6v17.3h4.3v-4.3h4.3v4.3h4.3v-17.3h8.6v34.6h-8.6v-4.3H278v-4.3h-4.3v4.3h-4.3v4.3zm56.2-34.6h25.9v8.6h-8.6v25.9h-8.6v-25.9h-8.6v-8.6zm30.2 4.3h4.3v-4.3h17.3v4.3h4.3v25.9h-4.3v4.3H360v-4.3h-4.3v-25.9zm8.7 21.6h8.6v-17.3h-8.6v17.3zm60.4 8.7h-8.6v-34.6h21.6v4.3h4.3v13h-4.3v4.3h-13v13zm0-21.6h8.6v-4.3h-8.6v4.3zm26 17.2h-4.3v-30.2h8.6v25.9h17.3v8.6h-21.6v-4.3zm34.5 4.4h-8.6v-30.2h4.3v-4.3h17.3v4.3h4.3v30.2H494v-13h-8.6v13zm8.7-21.6v-4.3h-8.6v4.3h8.6zm12.9-13h8.6v13h8.6v-13h8.6v17.3h-4.3v4.3h-4.3v13h-8.6v-13h-4.3v-4.3h-4.3v-17.3z"/><path class="st5" d="M314.2 1408.6h-85v12h-12v85h12v12h85v-12h12v-85h-12z"/><path class="st5" d="M314.2 1408.6h-85v12h-12v85h12v12h85v-12h12v-85h-12z"/><path class="st4" d="M253.8 1442.8h28.4v5.7h5.7v17.1h-5.7v5.7h-17.1v-11.4h11.4v-5.7h-22.8v-11.4zm11.4 34.1h11.4v11.4h-11.4v-11.4z"/><path class="st5" d="M465.2 1408.6h-85v12h-12v85h12v12h85v-12h12v-85h-12z"/><path class="st6" d="M465.2 1398.6h-85v12h-12v85h12v12h85v-12h12v-85h-12z"/><path class="st4" d="M404.8 1432.8h28.4v5.7h5.7v17.1h-5.7v5.7h-17.1v-11.4h11.4v-5.7h-22.8v-11.4zm11.4 34.1h11.4v11.4h-11.4v-11.4z"/><path class="st0" d="M1500.2 1253.1h-11.6v-11.6h-11.5v-12.8H978.4v12.8h-11.6v11.6h-11.6v684.7h11.6v11.7h11.6v12.8h498.7v-12.8h11.5v-11.7h11.6z"/><path class="st7" d="M1500.2 1241.1h-11.6v-11.7h-11.5v-12.8H978.4v12.8h-11.6v11.7h-11.6v684.7h11.6v11.6h11.6v12.9h498.7v-12.9h11.5v-11.6h11.6z"/><path class="st8" d="M1500.2 1229.1h-11.6v-11.7h-11.5v-12.8H978.4v12.8h-11.6v11.7h-11.6v684.7h11.6v11.6h11.6v12.8h498.7v-12.8h11.5v-11.6h11.6z"/><path class="st9" d="M451.2 888.6H66.3v10.1H56.2v57.8h10.1v10.1h384.9v-10.1h10.1v-57.8h-10.1z"/><path class="st10" d="M451.2 878.6H66.3v10.1H56.2v57.8h10.1v10.1h384.9v-10.1h10.1v-57.8h-10.1z"/><path class="st4" d="M176.3 929.5h-6.9v-27.6h17.3v3.5h3.5v10.4h-3.5v3.5h-10.4v10.2zm0-17.3h6.9v-3.5h-6.9v3.5zM197 926h-3.5v-24.2h6.9v20.7h13.8v6.9H197V926zm27.7 3.5h-6.9v-24.2h3.5v-3.5H235v3.5h3.5v24.2h-6.9v-10.4h-6.9v10.4zm6.9-17.3v-3.5h-6.9v3.5h6.9zm10.3-10.4h6.9v10.4h6.9v-10.4h6.9v13.8h-3.5v3.5h-3.5v10.4h-6.9v-10.4h-3.5v-3.5h-3.5v-13.8zm27.7 24.2h-3.5v-20.7h3.5v-3.5h17.3v6.9H273v3.5h6.9v6.9H273v3.5h13.8v6.9h-17.3V926zm31.1-6.9h-3.5v10.4h-6.9v-27.6h17.3v3.5h3.5v10.4h-3.5v3.5h3.5v10.4h-6.9v-6.9h-3.5v-3.7zm-3.5-6.9h6.9v-3.5h-6.9v3.5zm41.5-10.4h6.9v27.6h-6.9v-27.6z"/><path class="st11" d="M90.4 768l-2-5.8-4-12-17.8 6 1.9 5.8-5.7 2 4 12 5.8-2 2 5.8 12-4.1-2-5.7zm38.8-12.1l-2-5.7-4-12-17.8 6 1.9 5.7-5.7 2 4 12 5.8-1.9 2 5.7 12-4-2-5.8z"/><path transform="rotate(-18.702 73.25 728.338)" d="M69.6 709h7.1v38.6h-7.1z"/><path d="M88.8 763.2l-2-5.8-4.1-12-17.7 6 1.9 5.8-5.8 2 4.1 12 5.8-2 1.9 5.8 12.1-4.1-2-5.7z"/><path transform="rotate(-18.702 111.722 715.308)" d="M108.1 696h7.1v38.6h-7.1z"/><path d="M127.2 750.2l-1.9-5.8-4.1-12-17.8 6 2 5.8-5.8 1.9 4.1 12.1 5.7-2 2 5.8 12-4.1-1.9-5.8z"/><path transform="rotate(-18.702 83.528 695.374)" d="M59.6 686.7h47.7V704H59.6z"/><path class="st11" d="M156.6 801.6l.9-4.2 1.9-8.6-12.8-2.8-.9 4.1-4.1-.9-1.9 8.7 4.1.9-.9 4.1 8.6 1.9 1-4.1zm27.5 6.8l.9-4.2 1.9-8.6-12.8-2.8-.9 4.1-4.1-.9-1.9 8.6 4.1.9-.9 4.2 8.7 1.9.9-4.1z"/><path transform="rotate(12.41 160.652 771.619)" d="M158.2 758.2h5v26.9h-5z"/><path d="M157.4 798.1l.9-4.1 1.9-8.7-12.8-2.8-.9 4.2-4.2-.9-1.9 8.6 4.2.9-.9 4.2 8.6 1.9.9-4.2z"/><path transform="rotate(12.41 188.313 777.705)" d="M185.8 764.3h5v26.9h-5z"/><path d="M185 804.2l.9-4.1 1.9-8.7-12.7-2.8-1 4.2-4.1-1-1.9 8.7 4.1.9-.9 4.1 8.7 2 .9-4.2z"/><path transform="rotate(12.41 178.667 755.645)" d="M162 749.7h33.3v12H162z"/><path class="st11" d="M232.6 739.8l-.6-3.1-1.5-6.3-9.4 2.1.7 3-3 .7 1.4 6.4 3-.7.7 3 6.4-1.4-.7-3zm20.4-4l-.6-3.1-1.4-6.3-9.4 2.1.6 3-3 .7 1.4 6.3 3.1-.6.6 3 6.4-1.4-.7-3z"/><path transform="rotate(-12.552 226.014 718.57)" d="M224.2 708.7h3.6v19.8h-3.6z"/><path d="M232.1 737.3l-.7-3.1-1.4-6.3-9.4 2 .7 3.1-3.1.7 1.4 6.3 3.1-.7.6 3.1 6.4-1.4-.7-3.1z"/><path transform="rotate(-12.552 246.32 714.05)" d="M244.5 704.2h3.6V724h-3.6z"/><path d="M252.4 732.7l-.7-3-1.4-6.4-9.4 2.1.7 3.1-3.1.7 1.4 6.3 3.1-.7.7 3.1 6.3-1.4-.7-3.1z"/><path transform="rotate(-12.552 233.06 702.349)" d="M220.9 698h24.4v8.8h-24.4z"/><path class="st11" d="M253.2 785.6l2.6-4.2 5.5-8.5-12.7-8.1-2.6 4.1-4.1-2.6-5.5 8.6 4.2 2.6-2.7 4.1 8.6 5.5 2.6-4.2zm27 18.1l2.6-4.1 5.5-8.6-12.7-8.1-2.6 4.1-4.1-2.6-5.5 8.6 4.1 2.6-2.6 4.1 8.6 5.5 2.6-4.1z"/><path transform="rotate(32.435 269.385 754.88)" d="M266.5 739.5h5.7v30.9h-5.7z"/><path d="M255.4 782.1l2.6-4.1 5.5-8.6-12.7-8-2.6 4.1-4.1-2.6-5.5 8.6 4.1 2.6-2.6 4.1 8.6 5.4 2.6-4.1z"/><path transform="rotate(32.435 296.813 772.306)" d="M293.9 756.9h5.7v30.9h-5.7z"/><path d="M282.8 799.6l2.7-4.2 5.4-8.5-12.7-8.1-2.6 4.1-4.1-2.6-5.5 8.6 4.2 2.6-2.7 4.1 8.6 5.5 2.6-4.2z"/><path transform="rotate(32.435 295.08 744.736)" d="M276 737.8h38.2v13.8H276z"/><path class="st9" d="M-25.5 345.1h-253v6.7h-6.6v38h6.6v6.6h253v-6.6h6.6v-38h-6.6z"/><path class="st12" d="M-25.5 345.1h-253v6.7h-6.6v38h6.6v6.6h253v-6.6h6.6v-38h-6.6z"/><path class="st4" d="M-218.7 362.7h2.3v-2.3h11.4v4.5h-9.1v9.1h9.1v4.5h-11.4v-2.3h-2.3v-13.5zm20.4 15.9h-4.5v-15.9h2.3v-2.3h9.1v2.3h2.3v15.9h-4.5v-6.8h-4.5v6.8zm4.6-11.4v-2.3h-4.5v2.3h4.5zm9.1 9.1h-2.3v-15.9h4.5V374h9.1v4.5h-11.4v-2.2zm13.6-15.9h4.5v18.2h-4.5v-18.2zm6.8 0h11.4v2.3h2.3v13.6h-2.3v2.3h-11.4v-18.2zm4.5 6.8h4.5v-2.3h-4.5v2.3zm0 6.8h4.5v-2.3h-4.5v2.3zm18.2-2.2h-2.3v6.8h-4.5v-15.9h2.3v-2.3h9.1v2.3h2.3v6.8h-2.3v2.3h2.3v6.8h-4.5V374h-2.3v-2.2zm-2.3-4.6h4.5v-2.3h-4.5v2.3zm15.9 11.4h-4.5v-15.9h2.3v-2.3h9.1v2.3h2.3v15.9h-4.5v-6.8h-4.5v6.8zm4.6-11.4v-2.3h-4.5v2.3h4.5zm6.8-6.8h13.6v4.5h-4.5v13.6h-4.5v-13.6h-4.5v-4.5zm18.2 15.9h-2.3v-13.6h2.3v-2.3H-87v4.5h-9.1v2.3h4.5v4.5h-4.5v2.3h9.1v4.5h-11.4v-2.2z"/><path class="st9" d="M294.5 413.1h-253v6.7h-6.6v38h6.6v6.6h253v-6.6h6.6v-38h-6.6z"/><path class="st10" d="M294.5 406.6h-253v6.6h-6.6v38h6.6v6.6h253v-6.6h6.6v-38h-6.6z"/><path class="st4" d="M101.3 424.1h2.3v-2.3H115v4.5h-9.1v9.1h9.1v4.5h-11.4v-2.3h-2.3v-13.5zm20.4 15.9h-4.5v-15.9h2.3v-2.3h9.1v2.3h2.3V440h-4.5v-6.8h-4.5v6.8zm4.6-11.4v-2.3h-4.5v2.3h4.5zm9.1 9.1h-2.3v-15.9h4.5v13.6h9.1v4.5h-11.4v-2.2zm13.6-15.9h4.5V440H149v-18.2zm6.8 0h11.4v2.3h2.3v13.6h-2.3v2.3h-11.4v-18.2zm4.5 6.8h4.5v-2.3h-4.5v2.3zm0 6.9h4.5v-2.3h-4.5v2.3zm18.2-2.3h-2.3v6.8h-4.5v-15.9h2.3v-2.3h9.1v2.3h2.3v6.8h-2.3v2.3h2.3v6.8h-4.5v-4.5h-2.3v-2.3zm-2.3-4.6h4.5v-2.3h-4.5v2.3zm15.9 11.4h-4.5v-15.9h2.3v-2.3h9.1v2.3h2.3V440h-4.5v-6.8h-4.5v6.8zm4.6-11.4v-2.3h-4.5v2.3h4.5zm6.8-6.8h13.6v4.5h-4.5V440H208v-13.6h-4.5v-4.6zm18.2 15.9h-2.3v-13.6h2.3v-2.3H233v4.5h-9.1v2.3h4.5v4.5h-4.5v2.3h9.1v4.5h-11.4v-2.2z"/><path class="st9" d="M36.5 495.5h219.8v28.8H36.5z"/><path class="st9" d="M31.7 488.9h229.4v30.6H31.7z"/><path class="st10" d="M31.7 484.6v29.2h4.8v5.7h219.7v-5.7h4.8v-29.2z"/><path class="st9" d="M251.5 499.4v-5.1h-5.1v-.1H46.3v.1h-5.1v5.1h-5.1v7.6h5.1v5.1h5.1v.1h205.2v-5.1h5v-7.7z"/><path class="st13" d="M27.5 593.5h4.7v.1h-4.7zm0 17.9h4.7v.1h-4.7z"/><path class="st4" d="M48.6 611.4v-5.1h5v-7.6h-5v-5.1h-5.1v-.1H32.3v.1h-4.8v17.8h4.8v.1h11.2v-.1zM1.7 558v-5.1h-5.1v-.1h-15.9v18h15.9v-.1h5.1v-5.1h5.1V558zm-13.5 38.8v-5.2h-9.6v5.2h-5.1v7.6h5.1v5.2h9.6v-5.1h5.1v-7.7zm-49.8-97.4v-5.2h-9.6v5.2h-5.1v7.6h5.1v5.2h9.6v-5.1h5.1v-7.7z"/><path class="st14" d="M904.2 888.6H519.3v10.1h-10.1v57.8h10.1v10.1h384.9v-10.1h10.1v-57.8h-10.1z"/><path class="st15" d="M904.2 878.6H519.3v10.1h-10.1v57.8h10.1v10.1h384.9v-10.1h10.1v-57.8h-10.1z"/><path class="st4" d="M621.9 929.5H615v-27.6h17.3v3.5h3.5v10.4h-3.5v3.5h-10.4v10.2zm0-17.3h6.9v-3.5h-6.9v3.5zm20.7 13.8h-3.5v-24.2h6.9v20.7h13.8v6.9h-17.3V926zm27.6 3.5h-6.9v-24.2h3.5v-3.5h13.8v3.5h3.5v24.2h-6.9v-10.4h-6.9v10.4zm7-17.3v-3.5h-6.9v3.5h6.9zm10.3-10.4h6.9v10.4h6.9v-10.4h6.9v13.8h-3.5v3.5h-3.5v10.4h-6.9v-10.4H691v-3.5h-3.5v-13.8zm27.7 24.2h-3.5v-20.7h3.5v-3.5h17.3v6.9h-13.8v3.5h6.9v6.9h-6.9v3.5h13.8v6.9h-17.3V926zm31.1-6.9h-3.5v10.4h-6.9v-27.6h17.3v3.5h3.5v10.4h-3.5v3.5h3.5v10.4h-6.9v-6.9h-3.5v-3.7zm-3.5-6.9h6.9v-3.5h-6.9v3.5zm41.5-10.4h17.3v3.5h3.5v10.4h-3.5v3.5h-10.4v3.5H805v6.9h-20.7v-13.8h3.5v-3.5h10.4v-3.5h-13.8v-7zm-254.1-19.2h45.1v5.7h-45.1zm51.3 0h5.7v5.7h-5.7zm-505.8 1h45.1v5.7H75.7zm51.3 0h5.7v5.7H127z"/><path class="st16" d="M464.8 723.6l6.4 5.6-5.6 6.4 20.5 17.4v37.9l20.7-26.1 31.8 29.3 5.8-6.2 5 4.6L621 673.8z"/><path class="st17" d="M462.4 716.5l6.4 5.6-5.6 6.4 20.4 17.3v37.9l20.7-26.1 31.8 29.4 5.8-6.2 5 4.6 71.6-118.7z"/><path class="st18" d="M504.4 757.4l114.4-90.7-135.1 78.9v37.9z"/><path class="st19" d="M461.3 716.6l6.4 5.6-5.6 6.4 20.4 17.4v37.9l20.8-26.1 31.7 29.4 5.9-6.3 4.9 4.6 71.7-118.7z"/><path class="st20" d="M397.2 409.9v163.6h10.3v9.5h10.4v10.5h447.5V583h10.4v-9.5h10.4V409.9zm489 0v-94.1h-10.4v-9.5h-10.4v-10.5H417.9v10.5h-10.4v9.5h-10.3v94.1z"/><path class="st21" d="M407.5 312.4h10.4v-8h-10.4v7.9h-10.3v8h10.3zm10.4-16.7h447.5v8H417.9zm457.9 16.6v-7.9h-10.4v8h10.4v7.9h10.4v-8z"/><path d="M4 231.4h10.2v10.2H4zm61.5-10.2v5.1h-5.1v5.1h5.1v20.5h5.1v5.1h-5.1v5.1h10.2v-10.2h15.4v5.1h5.1v-35.8H65.5zm25.6 25.6H70.6v-20.5h20.5v20.5z"/><path d="M75.7 231.4h10.2v10.2H75.7zM4 303.1h10.2v10.2H4zm61.5-10.2h5.1v5.1h-5.1zm-25.6 25.6H45v5.1h-5.1zM45 298h5.1v5.1H45zm0 10.2h5.1v5.1H45zm46.1-25.6h5.1v5.1h-5.1zm-97.3 0h5.1v5.1h-5.1zm0-25.6h5.1v5.1h-5.1zm56.3-30.7v5.1H39.9v5.1h15.3v-10.2z"/><path d="M91.1 262.1v5.1H80.8v5.1H65.5v-5.1h-5.1v5.1H50.1v5.1h15.4v5.1H50.1v-5.1H45v5.1h-5.1v-5.1h-5.1v5.1h-5.1v5.1h10.2v5.1H45v-5.1h10.2v5.1h-5.1v5.1h5.1V308h5.1v5.1h5.1V308h15.4v-10h5.1v-5.1h-5.1v-10.2H70.6v-5.1h10.2v5.1h5.1v-5.1H91v-5.1h5.1v-10.2h-5v-.2zm-15.4 25.6v15.4H60.3v-15.4h15.4zm-15.4-35.8h-5.1v5.1h-5.1v10.3h5.1v-5.2h5.1V257h5.2v-5.1zm-10.2 66.6h10.2v5.1H50.1zm-15.4-92.2h5.1v5.1h-5.1z"/><path d="M75.7 262.1h5.1v5.1h-5.1zm5.1-5.1h5.1v5.1h-5.1zm-66.6 25.6h5.1v5.1h-5.1zm10.3 35.9V298h5.1v-10.2h-5.1v5.1H9.1v-5.1H-1.1v5.1h-5.1v30.7h40.9v-5.1H24.5zm-5.1 0H-1.1V298h20.5v20.5zm5.1-66.6h5.1v5.1h-5.1zm5.1-30.7H-6.2v30.7h5.1v5.1H4v-5.1h5.1v5.1h5.1v-5.1h10.2v-10.2h5.1v-5.1h-5.1v-10.2h10.2v-5.1h-5zm-10.2 25.6H-1.1v-20.5h20.5v20.5zm35.8-10.3h5.1v5.1h-5.1zM45 221.2h5.1v5.1H45z"/><path d="M55.2 251.9v-5.1h-5.1v-5.1H45v5.1H34.7v-5.1h-5.1v10.2h5.1v10.2H19.4V257h-5.1v5.1H-1.1v5.1H9.1v5.1H-6.2v5.1H9.1v5.1h5.1v-5.1h5.1v5.1h5.1v-5.1h10.2v-5.1h-5.1v-5.1h10.2v5.1h10.4v-5.1H45v-5.1h-5.1v-10.2h15.3zm-30.7 20.5H14.2v-5.1h10.2v5.1zm15.4 30.7v-10.2h-5.2v5.1h-5.1v5.1h5.1v5.1h-5.1v5.1h10.3v-5.1H45v-5.1zm46 10.2v-5.1h-5.1v5.1H65.5v5.2h10.2v5.1h5.1v-5.1h10.3v5.1h5.1v-10.3zm5.2-20.4v5.1h-5.2v5.1h10.3v-10.2z"/><path class="st9" d="M-234.3 637.3h-140.9v3.7h-3.7v21.2h3.7v3.6h140.9v-3.6h3.6V641h-3.6z"/><path class="st12" d="M-234.3 637.3h-140.9v3.7h-3.7v21.2h3.7v3.6h140.9v-3.6h3.6V641h-3.6z"/><path class="st4" d="M-347 652.1h-1.3v3.8h-2.5v-10.1h6.3v1.3h1.3v3.8h-1.3v1.3h1.3v3.8h-2.5v-2.5h-1.3v-1.4zm-1.2-2.5h2.5v-1.3h-2.5v1.3zm7.6 5.1h-1.3v-7.6h1.3v-1.3h6.3v2.5h-5.1v1.3h2.5v2.5h-2.5v1.3h5.1v2.5h-6.3v-1.2zm8.8 0h-1.3v-7.6h1.3v-1.3h5.1v1.3h1.3v2.5h-2.5v-1.3h-2.5v5.1h2.5v-1.3h2.5v2.5h-1.3v1.3h-5.1v-1.2zm10.1 1.2h-2.5V647h1.3v-1.3h5.1v1.3h1.3v8.9h-2.5v-3.8h-2.5v3.8zm2.5-6.3v-1.3h-2.5v1.3h2.5zm5.1 5.1h-1.3v-8.9h2.5v7.6h5.1v2.5h-6.3v-1.2zm7.6-8.9h2.5v10.1h-2.5v-10.1zm3.8 0h6.3v1.3h1.3v7.6h-1.3v1.3h-6.3v-10.2zm2.5 3.8h2.5v-1.3h-2.5v1.3zm0 3.8h2.5v-1.3h-2.5v1.3zm10.1-1.3h-1.3v3.8h-2.5V647h1.3v-1.3h5.1v1.3h1.3v3.8h-1.3v1.3h1.3v3.8h-2.5v-2.5h-1.3v-1.3zm-1.2-2.5h2.5v-1.3h-2.5v1.3zm8.8 6.3h-2.5V647h1.3v-1.3h5.1v1.3h1.3v8.9h-2.5v-3.8h-2.5v3.8zm2.5-6.3v-1.3h-2.5v1.3h2.5zm3.8-3.8h7.6v2.5h-2.5v7.6h-2.5v-7.6h-2.5v-2.5zm10.2 8.9h-1.3v-7.6h1.3v-1.3h6.3v2.5h-5.1v1.3h2.5v2.5h-2.5v1.3h5.1v2.5h-6.3v-1.2zm-106.8-15.3h13.1v1.7h-13.1zm14.9 0h1.7v1.7h-1.7z"/><path class="st9" d="M-234.3 679.3h-140.9v3.7h-3.7v21.2h3.7v3.6h140.9v-3.6h3.6V683h-3.6z"/><path class="st10" d="M-234.3 675.6h-140.9v3.7h-3.7v21.2h3.7v3.7h140.9v-3.7h3.6v-21.2h-3.6z"/><path class="st4" d="M-347 690.5h-1.3v3.8h-2.5v-10.1h6.3v1.3h1.3v3.8h-1.3v1.3h1.3v3.8h-2.5v-2.5h-1.3v-1.4zm-1.2-2.6h2.5v-1.3h-2.5v1.3zm7.6 5.1h-1.3v-7.6h1.3v-1.3h6.3v2.5h-5.1v1.3h2.5v2.5h-2.5v1.3h5.1v2.5h-6.3V693zm8.8 0h-1.3v-7.6h1.3v-1.3h5.1v1.3h1.3v2.5h-2.5v-1.3h-2.5v5.1h2.5v-1.3h2.5v2.5h-1.3v1.3h-5.1V693zm10.1 1.3h-2.5v-8.9h1.3v-1.3h5.1v1.3h1.3v8.9h-2.5v-3.8h-2.5v3.8zm2.5-6.4v-1.3h-2.5v1.3h2.5zm5.1 5.1h-1.3v-8.9h2.5v7.6h5.1v2.5h-6.3V693zm7.6-8.9h2.5v10.1h-2.5v-10.1zm3.8 0h6.3v1.3h1.3v7.6h-1.3v1.3h-6.3v-10.2zm2.5 3.8h2.5v-1.3h-2.5v1.3zm0 3.8h2.5v-1.3h-2.5v1.3zm10.1-1.2h-1.3v3.8h-2.5v-8.9h1.3v-1.3h5.1v1.3h1.3v3.8h-1.3v1.3h1.3v3.8h-2.5v-2.5h-1.3v-1.3zm-1.2-2.6h2.5v-1.3h-2.5v1.3zm8.8 6.4h-2.5v-8.9h1.3v-1.3h5.1v1.3h1.3v8.9h-2.5v-3.8h-2.5v3.8zm2.5-6.4v-1.3h-2.5v1.3h2.5zm3.8-3.8h7.6v2.5h-2.5v7.6h-2.5v-7.6h-2.5v-2.5zm10.2 8.9h-1.3v-7.6h1.3v-1.3h6.3v2.5h-5.1v1.3h2.5v2.5h-2.5v1.3h5.1v2.5h-6.3V693zm-106.8-14.6h13.1v1.7h-13.1zm14.9 0h1.7v1.7h-1.7zM47 410.1h23.6v3H47zm26.8 0h3v3h-3zm-347.2-61.4h23.6v3h-23.6zm26.8 0h3v3h-3z"/><path class="st22" d="M-303.5 472.2v-7.5h-18.6v7.5h-7.5v18.6h7.5v7.5h18.6v-7.5h7.5v-18.6z"/><path class="st23" d="M-321.5 498.3v9.9m17.4-9.9v9.9"/><path class="st24" d="M-305 506.4h-15.5v2.2h-2.2v15.5h2.2v2.2h15.5v-2.2h2.2v-15.5h-2.2z"/><path class="st25" d="M-236.4 911.4v-7.9h-141.7v7.9h-7.9V957h7.9v7.9h141.7V957h7.9v-45.6z"/><path class="st25" d="M-236.4 911.5v-7.9h-141.7v7.9h-7.9v45.6h7.9v7.9h141.7v-7.9h7.9v-45.6z"/><path class="st4" d="M-339.9 945h-5.4v-21.8h13.6v2.7h2.7v8.2h-2.7v2.7h-8.2v8.2zm0-13.6h5.4v-2.7h-5.4v2.7zm16.3 10.8h-2.7v-19h5.4v16.3h10.9v5.4h-13.6v-2.7zm21.8 2.8h-5.4v-19h2.7v-2.7h10.9v2.7h2.7v19h-5.4v-8.2h-5.4v8.2zm5.5-13.6v-2.7h-5.4v2.7h5.4zm8.1-8.2h5.4v8.2h5.4v-8.2h5.4v10.9h-2.7v2.7h-2.7v8.2h-5.4v-8.2h-2.7v-2.7h-2.7v-10.9z"/><path class="st25" d="M-66.4 911.4v-7.9h-141.7v7.9h-7.9V957h7.9v7.9h141.7V957h7.9v-45.6z"/><path class="st22" d="M-66.4 903.5v-7.9h-141.7v7.9h-7.9v45.6h7.9v7.9h141.7v-7.9h7.9v-45.6z"/><path class="st4" d="M-169.9 937h-5.4v-21.8h13.6v2.7h2.7v8.2h-2.7v2.7h-8.2v8.2zm0-13.6h5.4v-2.7h-5.4v2.7zm16.3 10.8h-2.7v-19h5.4v16.3h10.9v5.4h-13.6v-2.7zm21.8 2.8h-5.4v-19h2.7v-2.7h10.9v2.7h2.7v19h-5.4v-8.2h-5.4v8.2zm5.5-13.6v-2.7h-5.4v2.7h5.4zm8.1-8.2h5.4v8.2h5.4v-8.2h5.4v10.9h-2.7v2.7h-2.7v8.2h-5.4v-8.2h-2.7v-2.7h-2.7v-10.9z"/><path class="st26" d="M-1059.9 665.8h43.2v108h43.2v-108h43.2v129.6h-21.6V817h-21.6v21.6h-43.2V817h-21.6v-21.6h-21.6V665.8z"/><path class="st27" d="M-908.7 689.5h21.6v-21.6h108v43.2h-86.4v21.6h64.8v21.6h21.6v64.8h-21.6v21.6h-108v-43.2h86.4v-21.6h-64.8v-21.6h-21.6v-64.8z"/><path class="st28" d="M-1059.9 644.8h43.2v108h43.2v-108h43.2v129.6h-21.6V796h-21.6v21.6h-43.2V796h-21.6v-21.6h-21.6V644.8z"/><path class="st29" d="M-908.7 666.4h21.6v-21.6h108V688h-86.4v21.6h64.8v21.6h21.6V796h-21.6v21.6h-108v-43.2h86.4v-21.6h-64.8v-21.6h-21.6v-64.8z"/><path class="st0" d="M-1010.6 1023.4h27.5v68.7h27.5v-68.7h27.5v82.4h-13.7v13.7h-13.7v13.7H-983v-13.7h-13.7v-13.7h-13.7v-82.4zm96.1 15h13.7v-13.7h68.7v27.5H-887v13.7h41.2v13.7h13.7v41.2h-13.7v13.7h-68.7V1107h54.9v-13.7h-41.2v-13.7h-13.7v-41.2z"/><path class="st7" d="M-1010.6 1008.9h27.5v68.7h27.5v-68.7h27.5v82.4h-13.7v13.7h-13.7v13.7H-983V1105h-13.7v-13.7h-13.7v-82.4zm96.1 15h13.7v-13.7h68.7v27.5H-887v13.7h41.2v13.7h13.7v41.2h-13.7v13.7h-68.7v-27.5h54.9v-13.7h-41.2v-13.7h-13.7v-41.2z"/><path class="st4" d="M-1010.6 995.5h27.5v68.7h27.5v-68.7h27.5v82.4h-13.7v13.7h-13.7v13.7H-983v-13.7h-13.7v-13.7h-13.7v-82.4zm96.1 13.7h13.7v-13.7h68.7v27.5H-887v13.7h41.2v13.7h13.7v41.2h-13.7v13.7h-68.7v-27.5h54.9v-13.7h-41.2v-13.7h-13.7v-41.2z"/><path class="st0" d="M-436.1 163.7h-21.6V77.3h54v10.8h10.8v32.4h-10.8v10.8h-32.4v32.4zm0-54h21.6V98.9h-21.6v10.8zm54-21.6h10.8V77.3h43.2v10.8h10.8v64.8h-10.8v10.8h-43.2v-10.8h-10.8V88.1zm21.6 54h21.6V98.9h-21.6v43.2zm64.8 10.8h-10.8V77.3h21.6v64.8h43.2v21.6h-54v-10.8z"/><path class="st0" d="M-252.5 77.3h21.6v32.4h21.6V77.3h21.6v43.2h-10.8v10.8h-10.8v32.4h-21.6v-32.4h-10.8v-10.8h-10.8V77.3z"/><path class="st30" d="M-436.1 155.3h-21.6V68.9h54v10.8h10.8v32.4h-10.8v10.8h-32.4v32.4zm0-54h21.6V90.5h-21.6v10.8zm54-21.6h10.8V68.9h43.2v10.8h10.8v64.8h-10.8v10.8h-43.2v-10.8h-10.8V79.7zm21.6 54h21.6V90.5h-21.6v43.2zm64.8 10.8h-10.8V68.9h21.6v64.8h43.2v21.6h-54v-10.8z"/><path class="st30" d="M-252.5 68.9h21.6v32.4h21.6V68.9h21.6v43.2h-10.8v10.8h-10.8v32.4h-21.6v-32.4h-10.8v-10.8h-10.8V68.9z"/><path class="st4" d="M-436.1 147.1h-21.6V60.7h54v10.8h10.8v32.4h-10.8v10.8h-32.4v32.4zm0-54h21.6V82.3h-21.6v10.8zm54-21.6h10.8V60.7h43.2v10.8h10.8v64.8h-10.8v10.8h-43.2v-10.8h-10.8V71.5zm21.6 54h21.6V82.3h-21.6v43.2zm64.8 10.8h-10.8V60.7h21.6v64.8h43.2v21.6h-54v-10.8z"/><path class="st4" d="M-252.5 60.7h21.6v32.4h21.6V60.7h21.6v43.2h-10.8v10.8h-10.8v32.4h-21.6v-32.4h-10.8v-10.8h-10.8V60.7z"/><g id="u9MLE1.tif_3_" class="st31"><image width="163" height="260" id="Layer_1_3_" xlink:href="729C095E7F9BE99E.png" transform="rotate(15.523 -1132.233 -2087.891) scale(.8581)" overflow="visible"/></g><g id="u9MLE1.tif_2_"><image width="163" height="260" id="Layer_1_1_" xlink:href="729C095E7F9BE9A2.png" transform="rotate(15.521 -1077.518 -2117.847) scale(.8775)" overflow="visible"/></g><g class="st1"><path class="st0" d="M-109.3-152.8v86.5H-8.1v-11.6h-12.7v-12.7h-12.6v-12.6h-12.7v-12.7h12.7v-12.6h12.6v-12.7h12.7v-11.6z"/><path class="st0" d="M-94.6-91.6l-14.7 24.2v-24.2z"/></g><path class="st0" d="M-597.5-175.7h510.3v86.5h-510.3z"/><path class="st0" d="M-120.9-97.7H-8.1v31.6h-112.8z"/><g class="st1"><path class="st0" d="M-589.7-152.6v86.4h-101.2v-11.6h12.7v-12.6h12.6v-12.7h12.7v-12.6h-12.7v-12.7h-12.6V-141h-12.7v-11.6z"/><path class="st0" d="M-604.4-91.5l14.7 24.3v-24.3z"/></g><path class="st2" d="M-109.3-163.1v86.5H-8.1v-11.6h-12.7v-12.6h-12.6v-12.7h-12.7v-12.6h12.7v-12.7h12.6v-12.7h12.7v-11.6z"/><path class="st3" d="M-109.3-174.7v86.5H-8.1v-11.6h-12.7v-12.6h-12.6v-12.7h-12.7v-12.6h12.7v-12.7h12.6v-12.7h12.7v-11.6z"/><path class="st2" d="M-94.6-101.9l-14.7 24.3v-24.3zm-495.5-61.2v86.5h-101.3v-11.6h12.7v-12.6h12.6v-12.7h12.7v-12.6h-12.7v-12.7h-12.6v-12.7h-12.7v-11.6z"/><path class="st3" d="M-590.1-174.7v86.5h-101.3v-11.6h12.7v-12.6h12.6v-12.7h12.7v-12.6h-12.7v-12.7h-12.6v-12.7h-12.7v-11.6z"/><path class="st2" d="M-604.9-101.9l14.8 24.3-.1-24.3zm0-86.5h510.3v86.5h-510.3z"/><path class="st3" d="M-604.9-201h510.3v86.5h-510.3z"/><path class="st25" d="M-490.8-126h-37.4v-60h37.4v7.5h7.5v15h-7.5v15h7.5v15h-7.5v7.5zm-22.4-37.5h15v-7.5h-15v7.5zm0 22.5h15v-7.5h-15v7.5zm52.4 15h-15v-52.4h7.5v-7.5h30v7.5h7.5v52.4h-15v-22.5h-15v22.5zm15-37.5v-7.5h-15v7.5h15zm29.9 30h-7.5V-186h15v44.9h30v15h-37.4v-7.4zm52.5 0h-7.5V-186h15v44.9h30v15h-37.4v-7.4zm44.9-45h7.5v-7.5h30v7.5h7.5v44.9h-7.5v7.5h-30v-7.5h-7.5v-44.9zm15 37.5h15v-30h-15v30zm37.4-37.5h7.5v-7.5h30v7.5h7.5v44.9h-7.5v7.5h-30v-7.5h-7.5v-44.9zm15 37.5h15v-30h-15v30zm59.9-15h-7.5v30h-15v-60h15v7.5h7.5v7.5h7.5v-15h15v59.9h-15v-22.5h-7.5v-7.4z"/><path class="st22" d="M-490.8-131.9h-37.4v-59.9h37.4v7.5h7.5v15h-7.5v15h7.5v15h-7.5v7.4zm-22.4-37.4h15v-7.5h-15v7.5zm0 22.4h15v-7.5h-15v7.5zm52.4 15h-15v-52.4h7.5v-7.5h30v7.5h7.5v52.4h-15v-22.5h-15v22.5zm15-37.4v-7.5h-15v7.5h15zm29.9 29.9h-7.5v-52.4h15v44.9h30v15h-37.4v-7.5zm52.5 0h-7.5v-52.4h15v44.9h30v15h-37.4v-7.5zm44.9-44.9h7.5v-7.5h30v7.5h7.5v44.9h-7.5v7.5h-30v-7.5h-7.5v-44.9zm15 37.4h15v-30h-15v30zm37.4-37.4h7.5v-7.5h30v7.5h7.5v44.9h-7.5v7.5h-30v-7.5h-7.5v-44.9zm15 37.4h15v-30h-15v30zm59.9-14.9h-7.5v30h-15v-59.9h15v7.5h7.5v7.5h7.5v-15h15v59.9h-15v-22.5h-7.5v-7.5z"/><path class="st0" d="M.9 20.7h20.7v6.9H.9v-6.9zM56.2 38h-6.9V10.3h17.3v3.5H70v10.4h-3.5v3.5H56.2V38zm0-17.3h6.9v-3.5h-6.9v3.5zm27.6 6.9h-3.5V38h-6.9V10.3h17.3v3.5h3.5v10.4h-3.5v3.5h3.5V38h-6.9v-7h-3.5v-3.4zm-3.4-6.9h6.9v-3.5h-6.9v3.5zm20.7 13.8h-3.5V13.8h3.5v-3.5h17.3v6.9h-13.8v3.5h6.9v6.9h-6.9V31h13.8v7h-17.3v-3.5zm20.7-20.7h3.5v-3.5h17.3v6.9h-13.8v3.5h10.4v3.5h3.5v10.4h-3.5V38h-17.3v-7h13.8v-3.5h-10.4V24h-3.5V13.8zm24.2 0h3.5v-3.5h17.3v6.9H153v3.5h10.4v3.5h3.5v10.4h-3.5V38H146v-7h13.8v-3.5h-10.4V24H146V13.8zM201.3 38h-6.9V13.8h3.5v-3.5h13.8v3.5h3.5V38h-6.9V27.6h-6.9V38zm6.9-17.3v-3.5h-6.9v3.5h6.9zm20.8 3.4h-3.5V38h-6.9V10.3h6.9v3.5h3.5v3.5h3.5v-6.9h6.9V38h-6.9V27.6H229v-3.5zm13.8-13.8h6.9v10.4h6.9V10.3h6.9v13.8H260v3.5h-3.5V38h-6.9V27.6h-3.5v-3.5h-3.5V10.3zM298.1 38h-6.9V10.3h6.9v6.9h3.5v-3.5h3.5v-3.5h6.9v6.9h-3.5v3.5H305v6.9h3.5V31h3.5v7h-7v-3.5h-3.5V31H298v7zm20.7-3.5h-3.5V13.8h3.5v-3.5h17.3v6.9h-13.8v3.5h6.9v6.9h-6.9V31h13.8v7h-17.3v-3.5zm20.7-24.2h6.9v10.4h6.9V10.3h6.9v13.8h-3.5v3.5h-3.5V38h-6.9V27.6H343v-3.5h-3.5V10.3zm48.4 0h20.7v6.9h-6.9V38h-6.9V17.2h-6.9v-6.9zm24.2 3.5h3.5v-3.5h13.8v3.5h3.5v20.7h-3.5V38h-13.8v-3.5h-3.5V13.8zM419 31h6.9V17.2H419V31zm48.4 7h-6.9V10.3h17.3v3.5h3.5v10.4h-3.5v3.5h-10.4V38zm0-17.3h6.9v-3.5h-6.9v3.5zm20.8 13.8h-3.5V10.3h6.9V31h13.8v7h-17.3v-3.5zm27.6 3.5h-6.9V13.8h3.5v-3.5h13.8v3.5h3.5V38h-6.9V27.6h-6.9V38zm6.9-17.3v-3.5h-6.9v3.5h6.9zm10.4-10.4h6.9v10.4h6.9V10.3h6.9v13.8h-3.5v3.5h-3.5V38H540V27.6h-3.5v-3.5H533V10.3zm48.4 10.4h20.7v6.9h-20.7v-6.9z"/><path class="st30" d="M0 14.8h20.7v6.9H0v-6.9zm55.3 17.3h-6.9V4.4h17.3v3.5h3.5v10.4h-3.5v3.5H55.3v10.3zm0-17.3h6.9v-3.5h-6.9v3.5zm27.6 6.9h-3.5v10.4h-6.9V4.4h17.3v3.5h3.5v10.4h-3.5v3.5h3.5v10.4h-6.9v-6.9h-3.5v-3.6zm-3.4-6.9h6.9v-3.5h-6.9v3.5zm20.7 13.8h-3.5V7.9h3.5V4.4h17.3v6.9h-13.8v3.5h6.9v6.9h-6.9v3.5h13.8v6.9h-17.3v-3.5zM121 7.9h3.5V4.4h17.3v6.9H128v3.5h10.4v3.5h3.5v10.4h-3.5v3.5H121v-6.9h13.8v-3.5h-10.4v-3.5H121V7.9zm24.1 0h3.5V4.4h17.3v6.9h-13.8v3.5h10.4v3.5h3.5v10.4h-3.5v3.5h-17.3v-6.9H159v-3.5h-10.4v-3.5h-3.5V7.9zm55.3 24.2h-6.9V7.9h3.5V4.4h13.8v3.5h3.5v24.2h-6.9V21.7h-6.9v10.4zm7-17.3v-3.5h-6.9v3.5h6.9zm20.7 3.4h-3.5V32h-6.9V4.4h6.9v3.5h3.5v3.5h3.5v-7h6.9V32h-6.9V21.7h-3.5v-3.5zm13.8-13.8h6.9v10.4h6.9V4.4h6.9v13.8h-3.5v3.5h-3.5v10.4h-6.9V21.7h-3.5v-3.5h-3.5V4.4zm55.3 27.7h-6.9V4.4h6.9v6.9h3.5V7.9h3.5V4.4h6.9v6.9h-3.5v3.5h-3.5v6.9h3.5v3.5h3.5v6.9h-6.9v-3.5h-3.5v-3.5h-3.5v7zm20.7-3.5h-3.5V7.9h3.5V4.4h17.3v6.9h-13.8v3.5h6.9v6.9h-6.9v3.5h13.8v6.9h-17.3v-3.5zm20.8-24.2h6.9v10.4h6.9V4.4h6.9v13.8H356v3.5h-3.5v10.4h-6.9V21.7h-3.5v-3.5h-3.5V4.4zm48.4 0h20.7v6.9h-6.9V32H394V11.3h-6.9V4.4zm24.2 3.5h3.5V4.4h13.8v3.5h3.5v20.7h-3.5v3.5h-13.8v-3.5h-3.5V7.9zm6.9 17.2h6.9V11.3h-6.9v13.8zm48.3 7h-6.9V4.4h17.3v3.5h3.5v10.4h-3.5v3.5h-10.4v10.3zm0-17.3h6.9v-3.5h-6.9v3.5zm20.8 13.8h-3.5V4.4h6.9v20.7h13.8V32h-17.3v-3.4zm27.6 3.5H508V7.9h3.5V4.4h13.8v3.5h3.5v24.2h-6.9V21.7H515v10.4zm6.9-17.3v-3.5h-6.9v3.5h6.9zm10.4-10.4h6.9v10.4h6.9V4.4h6.9v13.8h-3.5v3.5H546v10.4h-6.9V21.7h-3.5v-3.5h-3.5V4.4zm48.4 10.4h20.7v6.9h-20.7v-6.9z"/><path class="st4" d="M0 10.4h20.7v6.9H0v-6.9zm55.3 17.2h-6.9V0h17.3v3.5h3.5v10.4h-3.5v3.5H55.3v10.2zm0-17.2h6.9V6.9h-6.9v3.5zm27.6 6.9h-3.5v10.4h-6.9V0h17.3v3.5h3.5v10.4h-3.5v3.5h3.5v10.4h-6.9v-6.9h-3.5v-3.6zm-3.4-6.9h6.9V6.9h-6.9v3.5zm20.7 13.8h-3.5V3.5h3.5V0h17.3v6.9h-13.8v3.5h6.9v6.9h-6.9v3.5h13.8v6.9h-17.3v-3.5zM121 3.5h3.5V0h17.3v6.9H128v3.5h10.4v3.5h3.5v10.4h-3.5v3.5H121v-6.9h13.8v-3.5h-10.4v-3.5H121V3.5zm24.1 0h3.5V0h17.3v6.9h-13.8v3.5h10.4v3.5h3.5v10.4h-3.5v3.5h-17.3v-6.9H159v-3.5h-10.4v-3.5h-3.5V3.5zm55.3 24.1h-6.9V3.5h3.5V0h13.8v3.5h3.5v24.2h-6.9V17.3h-6.9v10.3zm7-17.2V6.9h-6.9v3.5h6.9zm20.7 3.4h-3.5v13.8h-6.9V0h6.9v3.5h3.5V7h3.5V0h6.9v27.6h-6.9V17.3h-3.5v-3.5zM241.9 0h6.9v10.4h6.9V0h6.9v13.8h-3.5v3.5h-3.5v10.4h-6.9V17.3h-3.5v-3.5h-3.5V0zm55.3 27.6h-6.9V0h6.9v6.9h3.5V3.5h3.5V0h6.9v6.9h-3.5v3.5h-3.5v6.9h3.5v3.5h3.5v6.9h-6.9v-3.5h-3.5v-3.5h-3.5v6.9zm20.7-3.4h-3.5V3.5h3.5V0h17.3v6.9h-13.8v3.5h6.9v6.9h-6.9v3.5h13.8v6.9h-17.3v-3.5zM338.7 0h6.9v10.4h6.9V0h6.9v13.8H356v3.5h-3.5v10.4h-6.9V17.3h-3.5v-3.5h-3.5V0zm48.4 0h20.7v6.9h-6.9v20.7H394V6.9h-6.9V0zm24.2 3.5h3.5V0h13.8v3.5h3.5v20.7h-3.5v3.5h-13.8v-3.5h-3.5V3.5zm6.9 17.2h6.9V6.9h-6.9v13.8zm48.3 6.9h-6.9V0h17.3v3.5h3.5v10.4h-3.5v3.5h-10.4v10.2zm0-17.2h6.9V6.9h-6.9v3.5zm20.8 13.8h-3.5V0h6.9v20.7h13.8v6.9h-17.3v-3.4zm27.6 3.4H508V3.5h3.5V0h13.8v3.5h3.5v24.2h-6.9V17.3H515v10.3zm6.9-17.2V6.9h-6.9v3.5h6.9zM532.2 0h6.9v10.4h6.9V0h6.9v13.8h-3.5v3.5H546v10.4h-6.9V17.3h-3.5v-3.5h-3.5V0zm48.4 10.4h20.7v6.9h-20.7v-6.9z"/></svg>