<svg xmlns="http://www.w3.org/2000/svg" width="381.2" height="24.2" viewBox="0 0 381.2 24.2"><style>.st0{fill:#5895b7}.st1{fill:#ccc}.st2{fill:#fff}</style><path class="st0" d="M.6 13.1h13.1v4.4H.6v-4.4zm34.9 11h-4.4V6.6h11v2.2h2.2v6.6h-2.2v2.2h-6.6v6.5zm0-11h4.4v-2.2h-4.4v2.2zM53 17.5h-2.2v6.6h-4.4V6.6h11v2.2h2.2v6.6h-2.2v2.2h2.2v6.6h-4.4v-4.4H53v-2.3zm-2.2-4.4h4.4v-2.2h-4.4v2.2zM64 21.8h-2.2V8.7H64V6.5h11v4.4h-8.7v2.2h4.4v4.4h-4.4v2.2H75v4.4H64v-2.3zM77.1 8.7h2.2V6.5h11v4.4h-8.7v2.2h6.6v2.2h2.2v6.6h-2.2v2.2h-11v-4.4h8.7v-2.2h-6.6v-2.2h-2.2V8.7zm15.3 0h2.2V6.5h11v4.4h-8.7v2.2h6.6v2.2h2.2v6.6h-2.2v2.2h-11v-4.4h8.7v-2.2h-6.6v-2.2h-2.2V8.7zm35 15.4H123V8.7h2.2V6.5h8.7v2.2h2.2V24h-4.4v-6.6h-4.4l.1 6.7zm4.4-11v-2.2h-4.4v2.2h4.4zm13.1 2.2h-2.2V24h-4.4V6.6h4.4v2.2h2.2V11h2.2V6.6h4.4v17.5h-4.4v-6.6h-2.2v-2.2zm8.8-8.8h4.4v6.6h4.4V6.5h4.4v8.7h-2.2v2.2h-2.2V24H158v-6.6h-2.2v-2.2h-2.2V6.5h.1zm35 17.6h-4.4V6.6h4.4V11h2.2V8.7h2.2V6.5h4.4v4.4h-2.2v2.2h-2.2v4.4h2.2v2.2h2.2v4.4h-4.4v-2.2h-2.2v-2.2h-2.2v4.4zm13.1-2.3h-2.2V8.7h2.2V6.5h11v4.4H204v2.2h4.4v4.4H204v2.2h8.7v4.4h-11v-2.3zm13.1-15.3h4.4v6.6h4.4V6.5h4.4v8.7h-2.2v2.2h-2.2V24h-4.4v-6.6H217v-2.2h-2.2V6.5h.1zm30.7 0h13.1v4.4h-4.4V24h-4.4V10.9h-4.4V6.5zm15.3 2.2h2.2V6.5h8.7v2.2h2.2v13.1h-2.2V24h-8.7v-2.2h-2.2V8.7zm4.3 11h4.4V11h-4.4v8.7zm30.7 4.4h-4.4V6.6h11v2.2h2.2v6.6h-2.2v2.2h-6.6v6.5zm0-11h4.4v-2.2h-4.4v2.2zm13.1 8.7h-2.2V6.5h4.4v13.1h8.7V24h-11l.1-2.2zm17.5 2.3h-4.4V8.7h2.2V6.5h8.7v2.2h2.2V24h-4.4v-6.6h-4.4l.1 6.7zm4.4-11v-2.2h-4.4v2.2h4.4zm6.6-6.6h4.4v6.6h4.4V6.5h4.4v8.7h-2.2v2.2h-2.2V24h-4.4v-6.6h-2.2v-2.2h-2.2V6.5zm30.5 6.6h13.2v4.4h-13.1l-.1-4.4z"/><path class="st1" d="M0 9.4h13.1v4.4H0V9.4zm35 10.9h-4.4V2.8h11V5h2.2v6.6h-2.2v2.2H35v6.5zm0-10.9h4.4V7.2H35v2.2zm17.5 4.3h-2.2v6.6h-4.4V2.8h11V5h2.2v6.6h-2.2v2.2h2.2v6.6h-4.4V16h-2.2v-2.3zm-2.2-4.3h4.4V7.2h-4.4v2.2zm13.1 8.7h-2.2V5h2.2V2.8h11v4.4h-8.7v2.2H70v4.4h-4.4V16h8.7v4.4h-11v-2.3zM76.5 5h2.2V2.8h11v4.4H81v2.2h6.6v2.2h2.2v6.6h-2.2v2.2h-11V16h8.7v-2.2h-6.6v-2.2h-2.2V5zm15.4 0h2.2V2.8h11v4.4h-8.7v2.2h6.6v2.2h2.2v6.6H103v2.2H92V16h8.7v-2.2h-6.6v-2.2h-2.2V5zm35 15.3h-4.4V5h2.2V2.8h8.7V5h2.2v15.3h-4.4v-6.6h-4.4l.1 6.6zm4.3-10.9V7.2h-4.4v2.2h4.4zm13.2 2.2h-2.2v8.7h-4.4V2.8h4.4V5h2.2v2.2h2.2V2.9h4.4v17.5h-4.4v-6.6h-2.2v-2.2zm8.7-8.8h4.4v6.6h4.4V2.8h4.4v8.7H164v2.2h-2.2v6.6h-4.4v-6.6h-2.2v-2.2H153V2.8h.1zm35 17.5h-4.4V2.8h4.4v4.4h2.2V5h2.2V2.8h4.4v4.4h-2.2v2.2h-2.2v4.4h2.2V16h2.2v4.4h-4.4v-2.2h-2.2V16h-2.2v4.3zm13.1-2.2H199V5h2.2V2.8h11v4.4h-8.7v2.2h4.4v4.4h-4.4V16h8.7v4.4h-11v-2.3zm13.2-15.3h4.4v6.6h4.4V2.8h4.4v8.7h-2.2v2.2h-2.2v6.6h-4.4v-6.6h-2.2v-2.2h-2.2V2.8zm30.6 0h13.1v4.4h-4.4v13.1h-4.4V7.2H245V2.8zM260.3 5h2.2V2.8h8.7V5h2.2v13.1h-2.2v2.2h-8.7v-2.2h-2.2V5zm4.4 11h4.4V7.2h-4.4V16zm30.6 4.3h-4.4V2.8h11V5h2.2v6.6h-2.2v2.2h-6.6v6.5zm0-10.9h4.4V7.2h-4.4v2.2zm13.2 8.7h-2.2V2.8h4.4v13.1h8.7v4.4h-11l.1-2.2zm17.4 2.2h-4.4V5h2.2V2.8h8.7V5h2.2v15.3h-4.4v-6.6H326l-.1 6.6zm4.4-10.9V7.2h-4.4v2.2h4.4zm6.6-6.6h4.4v6.6h4.4V2.8h4.4v8.7h-2.2v2.2h-2.2v6.6h-4.4v-6.6H339v-2.2h-2.1V2.8zm30.6 6.6h13.1v4.4h-13.1V9.4z"/><path class="st2" d="M0 6.6h13.1V11H0V6.6zm35 10.9h-4.4V.1h11v2.2h2.2v6.6h-2.2v2.2H35v6.4zm0-10.9h4.4V4.4H35v2.2zM52.5 11h-2.2v6.6h-4.4V.1h11v2.2h2.2v6.6h-2.2v2.2h2.2v6.6h-4.4v-4.4h-2.2V11zm-2.2-4.4h4.4V4.4h-4.4v2.2zm13.1 8.7h-2.2V2.2h2.2V0h11v4.4h-8.7v2.2H70V11h-4.4v2.2h8.7v4.4h-11v-2.3zM76.5 2.2h2.2V0h11v4.4H81v2.2h6.6v2.2h2.2v6.6h-2.2v2.2h-11v-4.4h8.7V11h-6.6V8.8h-2.2V2.2zm15.4 0h2.2V0h11v4.4h-8.7v2.2h6.6v2.2h2.2v6.6H103v2.2H92v-4.4h8.7V11h-6.6V8.8h-2.2V2.2zm35 15.3h-4.4V2.2h2.2V0h8.7v2.2h2.2v15.3h-4.4V11h-4.4l.1 6.5zm4.3-10.9V4.4h-4.4v2.2h4.4zm13.2 2.2h-2.2v8.7h-4.4V.1h4.4v2.2h2.2v2.2h2.2V.1h4.4v17.5h-4.4V11h-2.2V8.8zm8.7-8.8h4.4v6.6h4.4V0h4.4v8.7H164V11h-2.2v6.6h-4.4V11h-2.2V8.7H153V0h.1zm35 17.5h-4.4V.1h4.4v4.4h2.2V2.2h2.2V0h4.4v4.4h-2.2v2.2h-2.2V11h2.2v2.2h2.2v4.4h-4.4v-2.2h-2.2v-2.2h-2.2v4.3zm13.1-2.2H199V2.2h2.2V0h11v4.4h-8.7v2.2h4.4V11h-4.4v2.2h8.7v4.4h-11v-2.3zM214.4 0h4.4v6.6h4.4V0h4.4v8.7h-2.2V11h-2.2v6.6h-4.4V11h-2.2V8.7h-2.2V0zM245 0h13.1v4.4h-4.4v13.1h-4.4V4.4H245V0zm15.3 2.2h2.2V0h8.7v2.2h2.2v13.1h-2.2v2.2h-8.7v-2.2h-2.2V2.2zm4.4 11h4.4V4.4h-4.4v8.8zm30.6 4.3h-4.4V.1h11v2.2h2.2v6.6h-2.2v2.2h-6.6v6.4zm0-10.9h4.4V4.4h-4.4v2.2zm13.2 8.7h-2.2V0h4.4v13.1h8.7v4.4h-11l.1-2.2zm17.4 2.2h-4.4V2.2h2.2V0h8.7v2.2h2.2v15.3h-4.4V11H326l-.1 6.5zm4.4-10.9V4.4h-4.4v2.2h4.4zm6.6-6.6h4.4v6.6h4.4V0h4.4v8.7h-2.2V11h-2.2v6.6h-4.4V11H339V8.7h-2.1V0zm30.6 6.6h13.1V11h-13.1V6.6z"/></svg>