<?xml version="1.0" encoding="utf-8"?>
<!-- Generator: Adobe Illustrator 22.0.1, SVG Export Plug-In . SVG Version: 6.00 Build 0)  -->
<svg version="1.1" id="Layer_1" xmlns="http://www.w3.org/2000/svg" xmlns:xlink="http://www.w3.org/1999/xlink" x="0px" y="0px"
	 width="102.4px" height="102.4px" viewBox="0 0 102.4 102.4" style="enable-background:new 0 0 102.4 102.4;" xml:space="preserve"
	>
<style type="text/css">
	.st0{fill:#5895B7;}
	.st1{opacity:0.8;}
	.st2{fill:#C17620;}
	.st3{fill:#F4C24A;}
	.st4{fill:#2A6FBA;}
	.st5{fill:#4ABAEF;}
	.st6{fill:#FFFFFF;}
	.st7{fill:#95C9C8;}
	.st8{fill:#DDEFEE;}
	.st9{fill:#1B8E6F;}
	.st10{fill:#3CEA8A;}
	.st11{opacity:0.4;fill:#666666;}
	.st12{fill:none;}
	.st13{fill:#7149A4;}
	.st14{fill:#BD86E0;}
	.st15{opacity:0.4;fill:#666666;stroke:#666666;stroke-width:4;stroke-linejoin:bevel;stroke-miterlimit:10;}
	.st16{fill:#F2F2F2;}
	.st17{fill:#E6E6E6;}
	.st18{fill:none;stroke:#000000;stroke-width:4;stroke-linejoin:bevel;stroke-miterlimit:10;}
	.st19{fill:#C6E0DE;}
	.st20{fill:#A7C6C3;}
</style>
<g>
	<rect x="151.4" y="918.4" class="st0" width="484" height="82"/>
	<rect x="603.4" y="992.4" class="st0" width="107" height="30"/>
	<g class="st1">
		<g>
			<polygon class="st0" points="167.4,938.4 167.4,1020.4 71.4,1020.4 71.4,1009.4 83.4,1009.4 83.4,997.4 95.4,997.4 95.4,985.4 
				107.4,985.4 107.4,973.4 95.4,973.4 95.4,961.4 83.4,961.4 83.4,949.4 71.4,949.4 71.4,938.4 			"/>
		</g>
		<polygon class="st0" points="153.4,996.4 167.4,1019.4 167.4,996.4 		"/>
	</g>
	<g>
		<g>
			<polygon class="st2" points="614.4,930.4 614.4,1012.4 710.4,1012.4 710.4,1001.4 698.4,1001.4 698.4,989.4 686.4,989.4 
				686.4,977.4 674.4,977.4 674.4,965.4 686.4,965.4 686.4,953.4 698.4,953.4 698.4,941.4 710.4,941.4 710.4,930.4 			"/>
			<polygon class="st3" points="614.4,919.4 614.4,1001.4 710.4,1001.4 710.4,990.4 698.4,990.4 698.4,978.4 686.4,978.4 
				686.4,966.4 674.4,966.4 674.4,954.4 686.4,954.4 686.4,942.4 698.4,942.4 698.4,930.4 710.4,930.4 710.4,919.4 			"/>
		</g>
		<polygon class="st2" points="628.4,988.4 614.4,1011.4 614.5,988.4 		"/>
		<g>
			<g>
				<polygon class="st2" points="158.4,930.4 158.4,1012.4 62.4,1012.4 62.4,1001.4 74.4,1001.4 74.4,989.4 86.4,989.4 86.4,977.4 
					98.4,977.4 98.4,965.4 86.4,965.4 86.4,953.4 74.4,953.4 74.4,941.4 62.4,941.4 62.4,930.4 				"/>
				<polygon class="st3" points="158.4,919.4 158.4,1001.4 62.4,1001.4 62.4,990.4 74.4,990.4 74.4,978.4 86.4,978.4 86.4,966.4 
					98.4,966.4 98.4,954.4 86.4,954.4 86.4,942.4 74.4,942.4 74.4,930.4 62.4,930.4 62.4,919.4 				"/>
			</g>
			<polygon class="st2" points="144.4,988.4 158.4,1011.4 158.4,988.4 			"/>
		</g>
		<g>
			<rect x="144.4" y="906.4" class="st2" width="484" height="82"/>
			<rect x="144.4" y="894.4" class="st3" width="484" height="82"/>
		</g>
	</g>
	<rect x="167.3" y="919.6" class="st12" width="415.2" height="81.8"/>
	<text transform="matrix(1 0 0 1 206.4258 954.1918)" class="st6" style="font-family:'EditUndoBRK'; font-size:60px;">HOW TO PLAY</text>
</g>
<polygon class="st4" points="471.4,1187.4 459.4,1187.4 386.4,1187.4 386.4,1199.4 374.4,1199.4 374.4,1284.4 386.4,1284.4 
	386.4,1296.4 459.4,1296.4 471.4,1296.4 471.4,1284.4 483.4,1284.4 483.4,1199.4 471.4,1199.4 "/>
<polygon class="st5" points="471.4,1177.4 459.4,1177.4 386.4,1177.4 386.4,1189.4 374.4,1189.4 374.4,1274.4 386.4,1274.4 
	386.4,1286.4 459.4,1286.4 471.4,1286.4 471.4,1274.4 483.4,1274.4 483.4,1189.4 471.4,1189.4 "/>
<rect x="386.4" y="1211.6" class="st12" width="89" height="81.8"/>
<text transform="matrix(1 0 0 1 411.0401 1257.1351)" class="st6" style="font-family:'EditUndoBRK'; font-size:79px;">?</text>
<g>
	<polygon class="st0" points="1506.4,1031.9 1494.9,1031.9 1494.9,1020.3 1483.3,1020.3 1483.3,1007.5 984.6,1007.5 984.6,1020.3 
		973,1020.3 973,1031.9 961.4,1031.9 961.4,1716.7 973,1716.7 973,1728.3 984.6,1728.3 984.6,1741.1 1483.3,1741.1 1483.3,1728.3 
		1494.9,1728.3 1494.9,1716.7 1506.4,1716.7 	"/>
	<polygon class="st7" points="1506.4,1019.9 1494.9,1019.9 1494.9,1008.3 1483.3,1008.3 1483.3,995.5 984.6,995.5 984.6,1008.3 
		973,1008.3 973,1019.9 961.4,1019.9 961.4,1704.6 973,1704.6 973,1716.3 984.6,1716.3 984.6,1729.1 1483.3,1729.1 1483.3,1716.3 
		1494.9,1716.3 1494.9,1704.6 1506.4,1704.6 	"/>
	<polygon class="st8" points="1506.4,1007.9 1494.9,1007.9 1494.9,996.2 1483.3,996.2 1483.3,983.4 984.6,983.4 984.6,996.2 
		973,996.2 973,1007.9 961.4,1007.9 961.4,1692.6 973,1692.6 973,1704.3 984.6,1704.3 984.6,1717.1 1483.3,1717.1 1483.3,1704.3 
		1494.9,1704.3 1494.9,1692.6 1506.4,1692.6 	"/>
</g>
<g>
	<polygon class="st9" points="457.5,667.4 447.4,667.4 72.5,667.4 72.5,677.5 62.4,677.5 62.4,735.4 72.5,735.4 72.5,745.4 
		447.4,745.4 457.5,745.4 457.5,735.4 467.5,735.4 467.5,677.5 457.5,677.5 	"/>
	<polygon class="st10" points="457.5,657.4 447.4,657.4 72.5,657.4 72.5,667.5 62.4,667.5 62.4,725.4 72.5,725.4 72.5,735.4 
		447.4,735.4 457.5,735.4 457.5,725.4 467.5,725.4 467.5,667.5 457.5,667.5 	"/>
	<rect x="63.4" y="680.7" class="st12" width="404" height="81.8"/>
	<text transform="matrix(1 0 0 1 175.5928 708.3142)" class="st6" style="font-family:'EditUndoBRK'; font-size:48px;">PLAYER 1</text>
</g>
<g>
	<polygon class="st11" points="96.6,546.8 94.7,541.1 90.6,529 72.8,535.1 74.8,540.8 69,542.8 73.1,554.8 78.8,552.9 80.8,558.6 
		92.8,554.6 90.9,548.8 	"/>
	<polygon class="st11" points="135.4,534.8 133.5,529 129.4,517 111.6,523 113.6,528.8 107.8,530.7 111.9,542.8 117.6,540.8 
		119.6,546.6 131.6,542.5 129.7,536.7 	"/>
	<rect x="75.9" y="487.8" transform="matrix(0.9472 -0.3207 0.3207 0.9472 -158.4473 52.2632)" width="7.1" height="38.6"/>
	<polygon points="95,542 93,536.3 89,524.2 71.2,530.3 73.1,536 67.4,538 71.4,550 77.2,548.1 79.2,553.8 91.2,549.8 89.2,544 	"/>
	<rect x="114.3" y="474.8" transform="matrix(0.9472 -0.3207 0.3207 0.9472 -152.2373 63.9129)" width="7.1" height="38.6"/>
	<polygon points="133.5,529 131.5,523.2 127.4,511.2 109.7,517.2 111.6,523 105.8,525 109.9,537 115.7,535 117.6,540.8 129.7,536.7 
		127.7,531 	"/>
	<rect x="65.8" y="465.5" transform="matrix(0.9472 -0.3207 0.3207 0.9472 -147.3332 53.8187)" width="47.7" height="17.3"/>
</g>
<g>
	<polygon class="st11" points="162.8,580.4 163.8,576.3 165.7,567.6 152.9,564.8 151.9,569 147.8,568 145.9,576.7 150,577.6 
		149.1,581.8 157.8,583.7 158.7,579.5 	"/>
	<polygon class="st11" points="190.4,587.2 191.3,583 193.2,574.4 180.4,571.6 179.5,575.7 175.3,574.8 173.4,583.5 177.6,584.4 
		176.6,588.5 185.3,590.4 186.2,586.3 	"/>
	<rect x="164.4" y="537" transform="matrix(0.9766 0.2149 -0.2149 0.9766 122.1943 -23.0017)" width="5" height="26.9"/>
	<polygon points="163.6,577 164.5,572.8 166.4,564.2 153.6,561.4 152.7,565.5 148.6,564.6 146.7,573.2 150.8,574.1 149.9,578.3 
		158.5,580.2 159.5,576.1 	"/>
	<rect x="192.1" y="543.1" transform="matrix(0.9766 0.2149 -0.2149 0.9766 124.1484 -28.8037)" width="5" height="26.9"/>
	<polygon points="191.3,583 192.2,578.9 194.1,570.3 181.3,567.4 180.4,571.6 176.2,570.7 174.3,579.3 178.5,580.2 177.6,584.4 
		186.2,586.3 187.1,582.1 	"/>
	<rect x="168.3" y="528.5" transform="matrix(0.9766 0.2149 -0.2149 0.9766 119.1825 -27.2462)" width="33.3" height="12"/>
</g>
<g>
	<polygon class="st11" points="238.9,518.6 238.2,515.6 236.8,509.2 227.4,511.3 228.1,514.4 225,515 226.4,521.4 229.5,520.7 
		230.1,523.8 236.5,522.3 235.8,519.3 	"/>
	<polygon class="st11" points="259.3,514.6 258.6,511.6 257.2,505.2 247.8,507.3 248.5,510.4 245.4,511 246.8,517.4 249.9,516.7 
		250.6,519.7 256.9,518.3 256.2,515.3 	"/>
	<rect x="230.5" y="487.6" transform="matrix(0.9761 -0.2173 0.2173 0.9761 -102.5382 62.3568)" width="3.6" height="19.8"/>
	<polygon points="238.3,516.1 237.6,513 236.2,506.7 226.8,508.8 227.5,511.8 224.4,512.5 225.9,518.9 228.9,518.2 229.6,521.2 
		235.9,519.8 235.3,516.8 	"/>
	<rect x="250.8" y="483" transform="matrix(0.9761 -0.2173 0.2173 0.9761 -101.0707 66.6616)" width="3.6" height="19.8"/>
	<polygon points="258.6,511.6 257.9,508.5 256.5,502.2 247.1,504.3 247.8,507.3 244.8,508 246.2,514.3 249.2,513.7 249.9,516.7 
		256.2,515.3 255.6,512.2 	"/>
	<rect x="227.1" y="476.8" transform="matrix(0.9761 -0.2173 0.2173 0.9761 -98.845 63.5003)" width="24.4" height="8.8"/>
</g>
<g>
	<polygon class="st11" points="259.5,564.4 262.1,560.3 267.5,551.7 254.8,543.6 252.2,547.8 248.1,545.1 242.7,553.7 246.8,556.3 
		244.2,560.4 252.7,565.9 255.4,561.8 	"/>
	<polygon class="st11" points="286.5,582.5 289.1,578.4 294.5,569.8 281.8,561.8 279.2,565.9 275.1,563.3 269.7,571.8 273.8,574.4 
		271.2,578.6 279.7,584 282.3,579.9 	"/>
	<rect x="272.7" y="518.3" transform="matrix(0.844 0.5363 -0.5363 0.844 329.2254 -64.5501)" width="5.7" height="30.9"/>
	<polygon points="261.6,561 264.3,556.8 269.7,548.3 257,540.2 254.4,544.3 250.3,541.7 244.8,550.3 249,552.9 246.3,557 
		254.9,562.5 257.5,558.3 	"/>
	<rect x="300.2" y="535.7" transform="matrix(0.844 0.5363 -0.5363 0.844 342.8499 -76.5409)" width="5.7" height="30.9"/>
	<polygon points="289.1,578.4 291.7,574.3 297.1,565.7 284.4,557.6 281.8,561.8 277.7,559.1 272.3,567.7 276.4,570.3 273.8,574.4 
		282.3,579.9 285,575.8 	"/>
	<rect x="282.2" y="516.7" transform="matrix(0.844 0.5363 -0.5363 0.844 327.7939 -79.9123)" width="38.2" height="13.8"/>
</g>
<g>
	<polygon class="st9" points="300.7,192 294.1,192 47.7,192 47.7,198.6 41.1,198.6 41.1,236.6 47.7,236.6 47.7,243.2 294.1,243.2 
		300.7,243.2 300.7,236.6 307.3,236.6 307.3,198.6 300.7,198.6 	"/>
	<polygon class="st10" points="300.7,185.4 294.1,185.4 47.7,185.4 47.7,192 41.1,192 41.1,230 47.7,230 47.7,236.7 294.1,236.7 
		300.7,236.7 300.7,230 307.3,230 307.3,192 300.7,192 	"/>
	<rect x="41.8" y="200.7" class="st12" width="265.5" height="32.8"/>
	<text transform="matrix(1 0 0 1 107.5283 218.8353)" class="st6" style="font-family:'EditUndoBRK'; font-size:31.5429px;">Calibrate</text>
</g>
<g>
	<rect x="42.7" y="274.3" class="st9" width="219.8" height="28.8"/>
	<rect x="37.9" y="267.8" class="st9" width="229.4" height="30.6"/>
	<polygon class="st10" points="37.9,263.4 37.9,292.7 42.7,292.7 42.7,298.4 262.5,298.4 262.5,292.7 267.3,292.7 267.3,263.4 	"/>
</g>
<polygon class="st9" points="257.7,278.3 257.7,273.2 252.6,273.2 252.6,273.1 195.9,273.1 165.4,273.1 139.8,273.1 115.9,273.1 
	52.6,273.1 52.6,273.1 47.5,273.1 47.5,278.2 42.4,278.2 42.4,285.9 47.5,285.9 47.5,291 52.6,291 52.6,291.1 115.9,291.1 
	139.8,291.1 165.4,291.1 195.9,291.1 252.6,291.1 252.6,291 257.7,291 257.7,285.9 262.8,285.9 262.8,278.3 "/>
<g>
	<rect x="33.8" y="372.3" class="st12" width="4.7" height="0.1"/>
	<rect x="33.8" y="390.2" class="st12" width="4.7" height="0.1"/>
	<polygon class="st6" points="54.8,390.3 54.8,385.2 59.9,385.2 59.9,377.5 54.8,377.5 54.8,372.4 49.7,372.4 49.7,372.3 
		38.5,372.3 38.5,372.4 33.8,372.4 33.8,390.2 38.5,390.2 38.5,390.3 49.7,390.3 49.7,390.3 	"/>
</g>
<g>
	<polygon class="st6" points="8,336.8 8,331.7 2.9,331.7 2.9,331.6 -13.1,331.6 -13.1,349.6 2.9,349.6 2.9,349.5 8,349.5 8,344.4 
		13.1,344.4 13.1,336.8 	"/>
	<polygon class="st6" points="-5.5,375.6 -5.5,370.5 -5.6,370.5 -5.6,370.4 -10.1,370.4 -10.6,370.4 -15.2,370.4 -15.2,370.5 
		-15.2,370.5 -15.2,375.6 -20.3,375.6 -20.3,383.2 -15.2,383.2 -15.2,388.3 -15.2,388.3 -15.2,388.4 -10.6,388.4 -10.1,388.4 
		-5.6,388.4 -5.6,388.4 -5.5,388.4 -5.5,383.3 -0.4,383.3 -0.4,375.6 	"/>
</g>
<polygon class="st6" points="-55.3,278.3 -55.3,273.2 -55.3,273.2 -55.3,273.1 -59.9,273.1 -60.4,273.1 -64.9,273.1 -64.9,273.1 
	-65,273.1 -65,278.2 -70.1,278.2 -70.1,285.9 -65,285.9 -65,291 -64.9,291 -64.9,291.1 -60.4,291.1 -59.9,291.1 -55.3,291.1 
	-55.3,291 -55.3,291 -55.3,285.9 -50.2,285.9 -50.2,278.3 "/>
<polygon class="st13" points="910.5,667.4 900.4,667.4 525.5,667.4 525.5,677.5 515.4,677.5 515.4,735.4 525.5,735.4 525.5,745.4 
	900.4,745.4 910.5,745.4 910.5,735.4 920.5,735.4 920.5,677.5 910.5,677.5 "/>
<polygon class="st14" points="910.5,657.4 900.4,657.4 525.5,657.4 525.5,667.5 515.4,667.5 515.4,725.4 525.5,725.4 525.5,735.4 
	900.4,735.4 910.5,735.4 910.5,725.4 920.5,725.4 920.5,667.5 910.5,667.5 "/>
<rect x="515.4" y="680.7" class="st12" width="405" height="81.8"/>
<text transform="matrix(1 0 0 1 621.1807 708.3143)" class="st6" style="font-family:'EditUndoBRK'; font-size:48px;">PLAYER 2</text>
<g>
	<rect x="536.4" y="661.4" class="st6" width="45.1" height="5.7"/>
	<rect x="587.7" y="661.4" class="st6" width="5.7" height="5.7"/>
</g>
<g>
	<rect x="81.9" y="662.4" class="st6" width="45.1" height="5.7"/>
	<rect x="133.2" y="662.4" class="st6" width="5.7" height="5.7"/>
</g>
<polygon class="st15" points="471.1,502.4 477.5,508 471.9,514.4 492.3,531.8 492.3,569.7 513,543.6 544.8,573 550.6,566.7 
	555.6,571.3 627.2,452.6 "/>
<polygon class="st16" points="468.6,495.3 475,500.9 469.4,507.3 489.8,524.7 489.8,562.6 510.6,536.5 542.3,565.9 548.2,559.6 
	553.1,564.2 624.8,445.5 "/>
<polygon class="st17" points="510.6,536.3 625,445.5 489.9,524.5 489.9,562.4 "/>
<polygon class="st18" points="467.5,495.5 473.9,501.1 468.3,507.5 488.8,524.8 488.8,562.7 509.5,536.6 541.3,566 547.1,559.7 
	552.1,564.3 623.7,445.7 "/>
<g>
	<polygon class="st19" points="403.4,188.7 403.4,352.4 413.8,352.4 413.8,361.9 424.2,361.9 424.2,372.3 871.6,372.3 871.6,361.9 
		882,361.9 882,352.4 892.4,352.4 892.4,188.7 	"/>
	<polygon class="st19" points="892.4,188.7 892.4,94.6 882,94.6 882,85.1 871.6,85.1 871.6,74.6 424.2,74.6 424.2,85.1 413.8,85.1 
		413.8,94.6 403.4,94.6 403.4,188.7 	"/>
</g>
<g>
	<polygon class="st20" points="413.8,91.2 424.2,91.2 424.2,83.2 413.8,83.2 413.8,91.1 403.4,91.1 403.4,99.1 413.8,99.1 	"/>
	<rect x="424.2" y="74.5" class="st20" width="447.5" height="8"/>
	<polygon class="st20" points="882,91.1 882,83.2 871.6,83.2 871.6,91.2 882,91.2 882,99.1 892.4,99.1 892.4,91.1 	"/>
</g>
<g>
	<g>
		<g>
			<rect x="10.2" y="10.2" width="10.2" height="10.2"/>
		</g>
	</g>
	<g>
		<g>
			<path d="M71.7,0v5.1h-5.1v5.1h5.1v20.5h5.1v5.1h-5.1V41h5.1h5.1V30.7h15.4v5.1h5.1v-5.1V0H71.7z M97.3,25.6H76.8V5.1h20.5V25.6z"
				/>
		</g>
	</g>
	<g>
		<g>
			<rect x="81.9" y="10.2" width="10.2" height="10.2"/>
		</g>
	</g>
	<g>
		<g>
			<rect x="10.2" y="81.9" width="10.2" height="10.2"/>
		</g>
	</g>
	<g>
		<g>
			<rect x="71.7" y="71.7" width="5.1" height="5.1"/>
		</g>
	</g>
	<g>
		<g>
			<rect x="46.1" y="97.3" width="5.1" height="5.1"/>
		</g>
	</g>
	<g>
		<g>
			<rect x="51.2" y="76.8" width="5.1" height="5.1"/>
		</g>
	</g>
	<g>
		<g>
			<rect x="51.2" y="87.1" width="5.1" height="5.1"/>
		</g>
	</g>
	<g>
		<g>
			<rect x="97.3" y="61.4" width="5.1" height="5.1"/>
		</g>
	</g>
	<g>
		<g>
			<rect y="61.4" width="5.1" height="5.1"/>
		</g>
	</g>
	<g>
		<g>
			<rect y="35.8" width="5.1" height="5.1"/>
		</g>
	</g>
	<g>
		<g>
			<polygon points="56.3,5.1 56.3,10.2 46.1,10.2 46.1,15.4 61.4,15.4 61.4,10.2 61.4,5.1 			"/>
		</g>
	</g>
	<g>
		<g>
			<path d="M97.3,41v5.1H87.1v5.1H71.7v-5.1h-5.1v5.1H56.3v5.1h15.4v5.1H61.4h-5.1v-5.1h-5.1v5.1h-5.1v-5.1H41v5.1h-5.1v5.1h10.2
				v5.1h5.1v-5.1h10.2v5.1h-5.1v5.1h5.1v10.2h5.1v5.1h5.1v-5.1h15.4V76.8h5.1v-5.1h-5.1V61.4H76.8v-5.1h10.2v5.1h5.1v-5.1h5.1v-5.1
				h5.1v-5.1V41L97.3,41L97.3,41z M81.9,66.6v15.4H66.6V66.6H81.9z"/>
		</g>
	</g>
	<g>
		<g>
			<polygon points="66.6,30.7 61.4,30.7 61.4,35.8 56.3,35.8 56.3,41 56.3,46.1 61.4,46.1 61.4,41 66.6,41 66.6,35.8 71.7,35.8 
				71.7,30.7 			"/>
		</g>
	</g>
	<g>
		<g>
			<rect x="56.3" y="97.3" width="10.2" height="5.1"/>
		</g>
	</g>
	<g>
		<g>
			<rect x="41" y="5.1" width="5.1" height="5.1"/>
		</g>
	</g>
	<g>
		<g>
			<rect x="81.9" y="41" width="5.1" height="5.1"/>
		</g>
	</g>
	<g>
		<g>
			<rect x="87.1" y="35.8" width="5.1" height="5.1"/>
		</g>
	</g>
	<g>
		<g>
			<rect x="20.5" y="61.4" width="5.1" height="5.1"/>
		</g>
	</g>
	<g>
		<g>
			<path d="M30.7,97.3V76.8h5.1v-5.1v-5.1h-5.1v5.1H15.4v-5.1h-5.1H5.1v5.1H0v30.7h30.7H41v-5.1H30.7z M25.6,97.3H5.1V76.8h20.5
				V97.3z"/>
		</g>
	</g>
	<g>
		<g>
			<rect x="30.7" y="30.7" width="5.1" height="5.1"/>
		</g>
	</g>
	<g>
		<g>
			<path d="M35.8,0h-5.1H0v30.7h5.1v5.1h5.1v-5.1h5.1v5.1h5.1v-5.1h10.2V20.5h5.1v-5.1h-5.1V5.1h5.1H41V0H35.8z M25.6,25.6H5.1V5.1
				h20.5V25.6z"/>
		</g>
	</g>
	<g>
		<g>
			<rect x="61.4" y="15.4" width="5.1" height="5.1"/>
		</g>
	</g>
	<g>
		<g>
			<rect x="51.2" width="5.1" height="5.1"/>
		</g>
	</g>
	<g>
		<g>
			<path d="M61.4,30.7v-5.1h-5.1v-5.1h-5.1v5.1H41v-5.1h-5.1v5.1v5.1H41V41H25.6v-5.1h-5.1V41H5.1v5.1h10.2v5.1H0v5.1h15.4v5.1h5.1
				v-5.1h5.1v5.1h5.1v-5.1H41v-5.1h-5.1v-5.1H41h5.1v5.1h5.1h5.1v-5.1h-5.1V41h-5.1V30.7L61.4,30.7L61.4,30.7z M30.7,51.2H20.5v-5.1
				h10.2V51.2z"/>
		</g>
	</g>
	<g>
		<g>
			<polygon points="46.1,81.9 46.1,76.8 46.1,71.7 41,71.7 41,76.8 35.8,76.8 35.8,81.9 41,81.9 41,87.1 35.8,87.1 35.8,92.2 
				46.1,92.2 46.1,87.1 51.2,87.1 51.2,81.9 			"/>
		</g>
	</g>
	<g>
		<g>
			<polygon points="92.2,92.2 92.2,87.1 87.1,87.1 87.1,92.2 71.7,92.2 71.7,97.3 81.9,97.3 81.9,102.4 87.1,102.4 87.1,97.3 
				97.3,97.3 97.3,102.4 102.4,102.4 102.4,97.3 102.4,92.2 			"/>
		</g>
	</g>
	<g>
		<g>
			<polygon points="97.3,71.7 97.3,76.8 92.2,76.8 92.2,81.9 102.4,81.9 102.4,76.8 102.4,71.7 			"/>
		</g>
	</g>
</g>
</svg>
