<!-- Generator: Adobe Illustrator 19.2.1, SVG Export Plug-In  -->
<svg version="1.1"
	 xmlns="http://www.w3.org/2000/svg" xmlns:xlink="http://www.w3.org/1999/xlink" xmlns:a="http://ns.adobe.com/AdobeSVGViewerExtensions/3.0/"
	 x="0px" y="0px" width="69px" height="69px" viewBox="0 0 69 69" style="enable-background:new 0 0 69 69;" xml:space="preserve">
<style type="text/css">
	.st0{fill:#2A6FBA;}
	.st1{fill:#FFFFFF;}
</style>
<defs>
</defs>
<polygon class="st0" points="61.4,0 53.8,0 7.6,0 7.6,7.6 0,7.6 0,61.4 7.6,61.4 7.6,69 53.8,69 61.4,69 61.4,61.4 69,61.4 69,7.6
	61.4,7.6 "/>
<polygon class="st0" points="61.4,0 53.8,0 7.6,0 7.6,7.6 0,7.6 0,61.4 7.6,61.4 7.6,69 53.8,69 61.4,69 61.4,61.4 69,61.4 69,7.6
	61.4,7.6 "/>
<g>
	<path class="st1" d="M23.2,21.6h18v3.6h3.6v10.8h-3.6v3.6H30.4v-7.2h7.2v-3.6H23.2C23.2,28.9,23.2,21.6,23.2,21.6z M30.4,43.3h7.2
		v7.2h-7.2V43.3z"/>
</g>
</svg>
