<?xml version="1.0" encoding="utf-8"?>
<!-- Generator: Adobe Illustrator 22.0.1, SVG Export Plug-In . SVG Version: 6.00 Build 0)  -->
<svg version="1.1" id="Layer_1" xmlns="http://www.w3.org/2000/svg" xmlns:xlink="http://www.w3.org/1999/xlink" x="0px" y="0px"
	 width="69px" height="78.6px" viewBox="0 0 109 118.6" style="enable-background:new 0 0 109 118.6;" xml:space="preserve">
<style type="text/css">
	.st0{fill:#5895B7;}
	.st1{opacity:0.8;}
	.st2{fill:#C17620;}
	.st3{fill:#F4C24A;}
	.st4{fill:#FFFFFF;}
	.st5{fill:#2A6FBA;}
	.st6{fill:#4ABAEF;}
	.st7{fill:#95C9C8;}
	.st8{fill:#DDEFEE;}
	.st9{fill:#1B8E6F;}
	.st10{fill:#3CEA8A;}
	.st11{opacity:0.4;fill:#666666;}
	.st12{fill:#33BC6E;}
	.st13{fill:none;}
	.st14{fill:#7149A4;}
	.st15{fill:#BD86E0;}
	.st16{opacity:0.4;fill:#666666;stroke:#666666;stroke-width:4;stroke-linejoin:bevel;stroke-miterlimit:10;}
	.st17{fill:#F2F2F2;}
	.st18{fill:#E6E6E6;}
	.st19{fill:none;stroke:#000000;stroke-width:4;stroke-linejoin:bevel;stroke-miterlimit:10;}
	.st20{fill:#C6E0DE;}
	.st21{fill:#A7C6C3;}
	.st22{fill:#EE3D53;}
	.st23{fill:none;stroke:#000000;stroke-width:2;stroke-miterlimit:10;}
	.st24{fill:#A17559;}
	.st25{fill:#910E46;}
	.st26{fill:#238D6F;}
	.st27{fill:#704CA2;}
	.st28{fill:#47E88D;}
	.st29{fill:#BC88DE;}
</style>
<g>
	<rect x="-72" y="-259" class="st0" width="484" height="82"/>
	<rect x="380" y="-185" class="st0" width="107" height="30"/>
	<g class="st1">
		<g>
			<polygon class="st0" points="-56,-239 -56,-157 -152,-157 -152,-168 -140,-168 -140,-180 -128,-180 -128,-192 -116,-192
				-116,-204 -128,-204 -128,-216 -140,-216 -140,-228 -152,-228 -152,-239 			"/>
		</g>
		<polygon class="st0" points="-70,-181 -56,-158 -56,-181 		"/>
	</g>
	<g>
		<g>
			<polygon class="st2" points="391,-247 391,-165 487,-165 487,-176 475,-176 475,-188 463,-188 463,-200 451,-200 451,-212
				463,-212 463,-224 475,-224 475,-236 487,-236 487,-247 			"/>
			<polygon class="st3" points="391,-258 391,-176 487,-176 487,-187 475,-187 475,-199 463,-199 463,-211 451,-211 451,-223
				463,-223 463,-235 475,-235 475,-247 487,-247 487,-258 			"/>
		</g>
		<polygon class="st2" points="405,-189 391,-166 391,-189 		"/>
		<g>
			<g>
				<polygon class="st2" points="-65,-247 -65,-165 -161,-165 -161,-176 -149,-176 -149,-188 -137,-188 -137,-200 -125,-200
					-125,-212 -137,-212 -137,-224 -149,-224 -149,-236 -161,-236 -161,-247 				"/>
				<polygon class="st3" points="-65,-258 -65,-176 -161,-176 -161,-187 -149,-187 -149,-199 -137,-199 -137,-211 -125,-211
					-125,-223 -137,-223 -137,-235 -149,-235 -149,-247 -161,-247 -161,-258 				"/>
			</g>
			<polygon class="st2" points="-79,-189 -65,-166 -65,-189 			"/>
		</g>
		<g>
			<rect x="-79" y="-271" class="st2" width="484" height="82"/>
			<rect x="-79" y="-283" class="st3" width="484" height="82"/>
		</g>
	</g>
	<g>
		<path class="st4" d="M-8.4-223.2H-17v-34.6h8.6v13h8.6v-13h8.6v34.6H0.3v-13h-8.6V-223.2z"/>
		<path class="st4" d="M13.2-253.4h4.3v-4.3h17.3v4.3h4.3v25.9h-4.3v4.3H17.5v-4.3h-4.3V-253.4z M21.9-231.8h8.6v-17.3h-8.6V-231.8z
			"/>
		<path class="st4" d="M52.1-223.2h-8.6v-34.6h8.6v17.3h4.3v-4.3h4.3v4.3h4.3v-17.3h8.6v34.6h-8.6v-4.3h-4.3v-4.3h-4.3v4.3h-4.3
			V-223.2z"/>
		<path class="st4" d="M108.3-257.8h25.9v8.6h-8.6v25.9h-8.6v-25.9h-8.6V-257.8z"/>
		<path class="st4" d="M138.5-253.4h4.3v-4.3h17.3v4.3h4.3v25.9h-4.3v4.3h-17.3v-4.3h-4.3V-253.4z M147.1-231.8h8.6v-17.3h-8.6
			V-231.8z"/>
		<path class="st4" d="M207.6-223.2H199v-34.6h21.6v4.3h4.3v13h-4.3v4.3h-13V-223.2z M207.6-244.8h8.6v-4.3h-8.6V-244.8z"/>
		<path class="st4" d="M233.5-227.5h-4.3v-30.2h8.6v25.9h17.3v8.6h-21.6V-227.5z"/>
		<path class="st4" d="M268.1-223.2h-8.6v-30.2h4.3v-4.3h17.3v4.3h4.3v30.2h-8.6v-13h-8.6V-223.2z M276.7-244.8v-4.3h-8.6v4.3H276.7
			z"/>
		<path class="st4" d="M289.7-257.8h8.6v13h8.6v-13h8.6v17.3h-4.3v4.3H307v13h-8.6v-13H294v-4.3h-4.3V-257.8z"/>
	</g>
</g>
<polygon class="st5" points="97,10 85,10 12,10 12,22 0,22 0,107 12,107 12,119 85,119 97,119 97,107 109,107 109,22 97,22 "/>
<polygon class="st5" points="97,10 85,10 12,10 12,22 0,22 0,107 12,107 12,119 85,119 97,119 97,107 109,107 109,22 97,22 "/>
<g>
	<path class="st4" d="M36.6,44.2H65v5.7h5.7V67H65v5.7H48V61.3h11.4v-5.7H36.6V44.2z M48,78.4h11.4v11.4H48V78.4z"/>
</g>
<polygon class="st5" points="248,10 236,10 163,10 163,22 151,22 151,107 163,107 163,119 236,119 248,119 248,107 260,107 260,22
	248,22 "/>
<polygon class="st6" points="248,0 236,0 163,0 163,12 151,12 151,97 163,97 163,109 236,109 248,109 248,97 260,97 260,12 248,12
	"/>
<g>
	<path class="st4" d="M187.6,34.2H216v5.7h5.7V57H216v5.7H199V51.3h11.4v-5.7h-22.8V34.2z M199,68.4h11.4v11.4H199V68.4z"/>
</g>
<g>
	<polygon class="st0" points="1283,-145.5 1271.4,-145.5 1271.4,-157.1 1259.9,-157.1 1259.9,-169.9 761.1,-169.9 761.1,-157.1
		749.6,-157.1 749.6,-145.5 738,-145.5 738,539.3 749.6,539.3 749.6,550.9 761.1,550.9 761.1,563.7 1259.9,563.7 1259.9,550.9
		1271.4,550.9 1271.4,539.3 1283,539.3 	"/>
	<polygon class="st7" points="1283,-157.5 1271.4,-157.5 1271.4,-169.1 1259.9,-169.1 1259.9,-181.9 761.1,-181.9 761.1,-169.1
		749.6,-169.1 749.6,-157.5 738,-157.5 738,527.2 749.6,527.2 749.6,538.9 761.1,538.9 761.1,551.7 1259.9,551.7 1259.9,538.9
		1271.4,538.9 1271.4,527.2 1283,527.2 	"/>
	<polygon class="st8" points="1283,-169.5 1271.4,-169.5 1271.4,-181.2 1259.9,-181.2 1259.9,-194 761.1,-194 761.1,-181.2
		749.6,-181.2 749.6,-169.5 738,-169.5 738,515.2 749.6,515.2 749.6,526.8 761.1,526.8 761.1,539.7 1259.9,539.7 1259.9,526.8
		1271.4,526.8 1271.4,515.2 1283,515.2 	"/>
</g>
<g>
	<polygon class="st9" points="234,-510 224,-510 -150.9,-510 -150.9,-499.9 -161,-499.9 -161,-442 -150.9,-442 -150.9,-432
		224,-432 234,-432 234,-442 244.1,-442 244.1,-499.9 234,-499.9 	"/>
	<polygon class="st10" points="234,-520 224,-520 -150.9,-520 -150.9,-509.9 -161,-509.9 -161,-452 -150.9,-452 -150.9,-442
		224,-442 234,-442 234,-452 244.1,-452 244.1,-509.9 234,-509.9 	"/>
	<g>
		<path class="st4" d="M-40.9-469.1h-6.9v-27.6h17.3v3.5h3.5v10.4h-3.5v3.5h-10.4V-469.1z M-40.9-486.4h6.9v-3.5h-6.9V-486.4z"/>
		<path class="st4" d="M-20.2-472.5h-3.5v-24.2h6.9v20.7h13.8v6.9h-17.3V-472.5z"/>
		<path class="st4" d="M7.4-469.1H0.5v-24.2H4v-3.5h13.8v3.5h3.5v24.2h-6.9v-10.4H7.4V-469.1z M14.4-486.4v-3.5H7.4v3.5H14.4z"/>
		<path class="st4" d="M24.7-496.7h6.9v10.4h6.9v-10.4h6.9v13.8H42v3.5h-3.5v10.4h-6.9v-10.4h-3.5v-3.5h-3.5V-496.7z"/>
		<path class="st4" d="M52.4-472.5h-3.5v-20.7h3.5v-3.5h17.3v6.9H55.8v3.5h6.9v6.9h-6.9v3.5h13.8v6.9H52.4V-472.5z"/>
		<path class="st4" d="M83.5-479.5H80v10.4h-6.9v-27.6h17.3v3.5h3.5v10.4h-3.5v3.5h3.5v10.4h-6.9v-6.9h-3.5V-479.5z M80-486.4h6.9
			v-3.5H80V-486.4z"/>
		<path class="st4" d="M121.5-496.7h6.9v27.6h-6.9V-496.7z"/>
	</g>
</g>
<g>
	<polygon class="st11" points="-126.8,-630.6 -128.8,-636.3 -132.8,-648.4 -150.6,-642.3 -148.7,-636.6 -154.5,-634.6
		-150.4,-622.6 -144.6,-624.5 -142.7,-618.8 -130.6,-622.8 -132.6,-628.6 	"/>
	<polygon class="st11" points="-88,-642.6 -90,-648.4 -94,-660.4 -111.8,-654.4 -109.9,-648.6 -115.7,-646.7 -111.6,-634.6
		-105.8,-636.6 -103.9,-630.8 -91.8,-634.9 -93.8,-640.7 	"/>
	<rect x="-147.6" y="-689.6" transform="matrix(0.9472 -0.3207 0.3207 0.9472 207.3721 -81.6026)" width="7.1" height="38.6"/>
	<polygon points="-128.4,-635.4 -130.4,-641.1 -134.5,-653.2 -152.3,-647.1 -150.3,-641.4 -156.1,-639.4 -152,-627.4 -146.2,-629.3
		-144.3,-623.6 -132.3,-627.6 -134.2,-633.4 	"/>
	<rect x="-109.1" y="-702.6" transform="matrix(0.9472 -0.3207 0.3207 0.9472 213.5821 -69.9529)" width="7.1" height="38.6"/>
	<polygon points="-90,-648.4 -91.9,-654.2 -96,-666.2 -113.8,-660.2 -111.8,-654.4 -117.6,-652.4 -113.5,-640.4 -107.8,-642.4
		-105.8,-636.6 -93.8,-640.7 -95.7,-646.4 	"/>
	<rect x="-157.6" y="-711.9" transform="matrix(0.9472 -0.3207 0.3207 0.9472 218.4862 -80.0471)" width="47.7" height="17.3"/>
</g>
<g>
	<polygon class="st11" points="-60.6,-597 -59.7,-601.1 -57.8,-609.8 -70.6,-612.6 -71.5,-608.4 -75.6,-609.4 -77.6,-600.7
		-73.4,-599.8 -74.3,-595.6 -65.7,-593.7 -64.8,-597.9 	"/>
	<polygon class="st11" points="-33.1,-590.2 -32.2,-594.4 -30.3,-603 -43.1,-605.8 -44,-601.7 -48.1,-602.6 -50,-593.9 -45.9,-593
		-46.8,-588.9 -38.2,-587 -37.2,-591.1 	"/>
	<rect x="-59" y="-640.4" transform="matrix(0.9766 0.2149 -0.2149 0.9766 -136.0354 -2.491)" width="5" height="26.9"/>
	<polygon points="-59.8,-600.4 -58.9,-604.6 -57,-613.2 -69.8,-616 -70.7,-611.9 -74.9,-612.8 -76.8,-604.2 -72.6,-603.3
		-73.6,-599.1 -64.9,-597.2 -64,-601.4 	"/>
	<rect x="-31.4" y="-634.3" transform="matrix(0.9766 0.2149 -0.2149 0.9766 -134.0813 -8.293)" width="5" height="26.9"/>
	<polygon points="-32.2,-594.4 -31.3,-598.5 -29.4,-607.1 -42.2,-610 -43.1,-605.8 -47.2,-606.7 -49.1,-598.1 -45,-597.2
		-45.9,-593 -37.2,-591.1 -36.3,-595.3 	"/>
	<rect x="-55.2" y="-648.9" transform="matrix(0.9766 0.2149 -0.2149 0.9766 -139.0472 -6.7354)" width="33.3" height="12"/>
</g>
<g>
	<polygon class="st11" points="15.4,-658.8 14.7,-661.8 13.3,-668.2 3.9,-666.1 4.6,-663 1.6,-662.4 3,-656 6,-656.7 6.7,-653.6
		13,-655.1 12.4,-658.1 	"/>
	<polygon class="st11" points="35.8,-662.8 35.2,-665.8 33.7,-672.2 24.4,-670.1 25,-667 22,-666.4 23.4,-660 26.4,-660.7
		27.1,-657.7 33.5,-659.1 32.8,-662.1 	"/>
	<rect x="7" y="-689.8" transform="matrix(0.9761 -0.2173 0.2173 0.9761 147.9572 -14.3264)" width="3.6" height="19.8"/>
	<polygon points="14.8,-661.3 14.2,-664.4 12.8,-670.7 3.4,-668.6 4,-665.6 1,-664.9 2.4,-658.5 5.5,-659.2 6.1,-656.2 12.5,-657.6
		11.8,-660.6 	"/>
	<rect x="27.3" y="-694.4" transform="matrix(0.9761 -0.2173 0.2173 0.9761 149.4247 -10.0217)" width="3.6" height="19.8"/>
	<polygon points="35.2,-665.8 34.5,-668.9 33.1,-675.2 23.7,-673.1 24.4,-670.1 21.3,-669.4 22.7,-663.1 25.8,-663.7 26.4,-660.7
		32.8,-662.1 32.1,-665.2 	"/>
	<rect x="3.7" y="-700.6" transform="matrix(0.9761 -0.2173 0.2173 0.9761 151.6505 -13.183)" width="24.4" height="8.8"/>
</g>
<g>
	<polygon class="st11" points="36,-613 38.6,-617.1 44.1,-625.7 31.4,-633.8 28.8,-629.6 24.7,-632.3 19.2,-623.7 23.3,-621.1
		20.7,-617 29.3,-611.5 31.9,-615.6 	"/>
	<polygon class="st11" points="63,-594.9 65.6,-599 71.1,-607.6 58.4,-615.6 55.8,-611.5 51.7,-614.1 46.2,-605.6 50.3,-603
		47.7,-598.8 56.3,-593.4 58.9,-597.5 	"/>
	<rect x="49.3" y="-659.1" transform="matrix(0.844 0.5363 -0.5363 0.844 -337.0775 -128.3615)" width="5.7" height="30.9"/>
	<polygon points="38.2,-616.4 40.8,-620.6 46.3,-629.1 33.6,-637.2 31,-633.1 26.8,-635.7 21.4,-627.1 25.5,-624.5 22.9,-620.4
		31.5,-614.9 34.1,-619.1 	"/>
	<rect x="76.7" y="-641.7" transform="matrix(0.844 0.5363 -0.5363 0.844 -323.4531 -140.3523)" width="5.7" height="30.9"/>
	<polygon points="65.6,-599 68.2,-603.1 73.7,-611.7 61,-619.8 58.4,-615.6 54.3,-618.3 48.8,-609.7 52.9,-607.1 50.3,-603
		58.9,-597.5 61.5,-601.6 	"/>
	<rect x="58.7" y="-660.7" transform="matrix(0.844 0.5363 -0.5363 0.844 -338.509 -143.7237)" width="38.2" height="13.8"/>
</g>
<g>
	<polygon class="st9" points="-242.7,-1053.4 -249.3,-1053.4 -495.7,-1053.4 -495.7,-1046.8 -502.3,-1046.8 -502.3,-1008.8
		-495.7,-1008.8 -495.7,-1002.2 -249.3,-1002.2 -242.7,-1002.2 -242.7,-1008.8 -236.1,-1008.8 -236.1,-1046.8 -242.7,-1046.8 	"/>
	<polygon class="st12" points="-242.7,-1053.4 -249.3,-1053.4 -495.7,-1053.4 -495.7,-1046.8 -502.3,-1046.8 -502.3,-1008.8
		-495.7,-1008.8 -495.7,-1002.2 -249.3,-1002.2 -242.7,-1002.2 -242.7,-1008.8 -236.1,-1008.8 -236.1,-1046.8 -242.7,-1046.8 	"/>
	<g>
		<path class="st4" d="M-435.9-1035.9h2.3v-2.3h11.4v4.5h-9.1v9.1h9.1v4.5h-11.4v-2.3h-2.3V-1035.9z"/>
		<path class="st4" d="M-415.5-1020h-4.5v-15.9h2.3v-2.3h9.1v2.3h2.3v15.9h-4.5v-6.8h-4.5V-1020z M-410.9-1031.3v-2.3h-4.5v2.3
			H-410.9z"/>
		<path class="st4" d="M-401.9-1022.3h-2.3v-15.9h4.5v13.6h9.1v4.5h-11.4V-1022.3z"/>
		<path class="st4" d="M-388.2-1038.2h4.5v18.2h-4.5V-1038.2z"/>
		<path class="st4" d="M-381.4-1038.2h11.4v2.3h2.3v13.6h-2.3v2.3h-11.4V-1038.2z M-376.9-1031.3h4.5v-2.3h-4.5V-1031.3z
			 M-376.9-1024.5h4.5v-2.3h-4.5V-1024.5z"/>
		<path class="st4" d="M-358.7-1026.8h-2.3v6.8h-4.5v-15.9h2.3v-2.3h9.1v2.3h2.3v6.8h-2.3v2.3h2.3v6.8h-4.5v-4.5h-2.3V-1026.8z
			 M-361-1031.3h4.5v-2.3h-4.5V-1031.3z"/>
		<path class="st4" d="M-345.1-1020h-4.5v-15.9h2.3v-2.3h9.1v2.3h2.3v15.9h-4.5v-6.8h-4.5V-1020z M-340.5-1031.3v-2.3h-4.5v2.3
			H-340.5z"/>
		<path class="st4" d="M-333.7-1038.2h13.6v4.5h-4.5v13.6h-4.5v-13.6h-4.5V-1038.2z"/>
		<path class="st4" d="M-315.6-1022.3h-2.3v-13.6h2.3v-2.3h11.4v4.5h-9.1v2.3h4.5v4.5h-4.5v2.3h9.1v4.5h-11.4V-1022.3z"/>
	</g>
</g>
<g>
	<polygon class="st9" points="77.3,-985.4 70.7,-985.4 -175.7,-985.4 -175.7,-978.8 -182.3,-978.8 -182.3,-940.8 -175.7,-940.8
		-175.7,-934.2 70.7,-934.2 77.3,-934.2 77.3,-940.8 83.9,-940.8 83.9,-978.8 77.3,-978.8 	"/>
	<polygon class="st10" points="77.3,-992 70.7,-992 -175.7,-992 -175.7,-985.4 -182.3,-985.4 -182.3,-947.4 -175.7,-947.4
		-175.7,-940.7 70.7,-940.7 77.3,-940.7 77.3,-947.4 83.9,-947.4 83.9,-985.4 77.3,-985.4 	"/>
	<g>
		<path class="st4" d="M-115.9-974.5h2.3v-2.3h11.4v4.5h-9.1v9.1h9.1v4.5h-11.4v-2.3h-2.3V-974.5z"/>
		<path class="st4" d="M-95.5-958.6h-4.5v-15.9h2.3v-2.3h9.1v2.3h2.3v15.9h-4.5v-6.8h-4.5V-958.6z M-90.9-969.9v-2.3h-4.5v2.3H-90.9
			z"/>
		<path class="st4" d="M-81.9-960.8h-2.3v-15.9h4.5v13.6h9.1v4.5h-11.4V-960.8z"/>
		<path class="st4" d="M-68.2-976.7h4.5v18.2h-4.5V-976.7z"/>
		<path class="st4" d="M-61.4-976.7h11.4v2.3h2.3v13.6h-2.3v2.3h-11.4V-976.7z M-56.9-969.9h4.5v-2.3h-4.5V-969.9z M-56.9-963.1h4.5
			v-2.3h-4.5V-963.1z"/>
		<path class="st4" d="M-38.7-965.4H-41v6.8h-4.5v-15.9h2.3v-2.3h9.1v2.3h2.3v6.8h-2.3v2.3h2.3v6.8h-4.5v-4.5h-2.3V-965.4z
			 M-41-969.9h4.5v-2.3H-41V-969.9z"/>
		<path class="st4" d="M-25.1-958.6h-4.5v-15.9h2.3v-2.3h9.1v2.3h2.3v15.9h-4.5v-6.8h-4.5V-958.6z M-20.5-969.9v-2.3h-4.5v2.3H-20.5
			z"/>
		<path class="st4" d="M-13.7-976.7h13.6v4.5h-4.5v13.6h-4.5v-13.6h-4.5V-976.7z"/>
		<path class="st4" d="M4.4-960.8H2.2v-13.6h2.3v-2.3h11.4v4.5H6.7v2.3h4.5v4.5H6.7v2.3h9.1v4.5H4.4V-960.8z"/>
	</g>
</g>
<g>
	<rect x="-180.7" y="-903.1" class="st9" width="219.8" height="28.8"/>
	<rect x="-185.6" y="-909.6" class="st9" width="229.4" height="30.6"/>
	<polygon class="st10" points="-185.6,-914 -185.6,-884.7 -180.7,-884.7 -180.7,-879 39,-879 39,-884.7 43.8,-884.7 43.8,-914 	"/>
</g>
<polygon class="st9" points="34.2,-899.1 34.2,-904.2 29.1,-904.2 29.1,-904.3 -27.5,-904.3 -58.1,-904.3 -83.7,-904.3
	-107.5,-904.3 -170.9,-904.3 -170.9,-904.3 -176,-904.3 -176,-899.2 -181.1,-899.2 -181.1,-891.5 -176,-891.5 -176,-886.4
	-170.9,-886.4 -170.9,-886.3 -107.5,-886.3 -83.7,-886.3 -58.1,-886.3 -27.5,-886.3 29.1,-886.3 29.1,-886.4 34.2,-886.4
	34.2,-891.5 39.3,-891.5 39.3,-899.1 "/>
<g>
	<rect x="-189.7" y="-805.1" class="st13" width="4.7" height="0.1"/>
	<rect x="-189.7" y="-787.2" class="st13" width="4.7" height="0.1"/>
	<polygon class="st4" points="-168.7,-787.1 -168.7,-792.2 -163.6,-792.2 -163.6,-799.9 -168.7,-799.9 -168.7,-805 -173.8,-805
		-173.8,-805.1 -185,-805.1 -185,-805 -189.7,-805 -189.7,-787.2 -185,-787.2 -185,-787.1 -173.8,-787.1 -173.8,-787.1 	"/>
</g>
<g>
	<polygon class="st4" points="-215.5,-840.6 -215.5,-845.7 -220.6,-845.7 -220.6,-845.8 -236.5,-845.8 -236.5,-827.8 -220.6,-827.8
		-220.6,-827.9 -215.5,-827.9 -215.5,-833 -210.4,-833 -210.4,-840.6 	"/>
	<polygon class="st4" points="-229,-801.8 -229,-806.9 -229,-806.9 -229,-807 -233.5,-807 -234.1,-807 -238.6,-807 -238.6,-806.9
		-238.6,-806.9 -238.6,-801.8 -243.7,-801.8 -243.7,-794.2 -238.6,-794.2 -238.6,-789.1 -238.6,-789.1 -238.6,-789 -234.1,-789
		-233.5,-789 -229,-789 -229,-789 -229,-789 -229,-794.1 -223.9,-794.1 -223.9,-801.8 	"/>
</g>
<polygon class="st4" points="-278.8,-899.1 -278.8,-904.2 -278.8,-904.2 -278.8,-904.3 -283.3,-904.3 -283.9,-904.3 -288.4,-904.3
	-288.4,-904.3 -288.4,-904.3 -288.4,-899.2 -293.5,-899.2 -293.5,-891.5 -288.4,-891.5 -288.4,-886.4 -288.4,-886.4 -288.4,-886.3
	-283.9,-886.3 -283.3,-886.3 -278.8,-886.3 -278.8,-886.4 -278.8,-886.4 -278.8,-891.5 -273.7,-891.5 -273.7,-899.1 "/>
<polygon class="st14" points="687,-510 677,-510 302.1,-510 302.1,-499.9 292,-499.9 292,-442 302.1,-442 302.1,-432 677,-432
	687,-432 687,-442 697.1,-442 697.1,-499.9 687,-499.9 "/>
<polygon class="st15" points="687,-520 677,-520 302.1,-520 302.1,-509.9 292,-509.9 292,-452 302.1,-452 302.1,-442 677,-442
	687,-442 687,-452 697.1,-452 697.1,-509.9 687,-509.9 "/>
<g>
	<path class="st4" d="M404.6-469.1h-6.9v-27.6H415v3.5h3.5v10.4H415v3.5h-10.4V-469.1z M404.6-486.4h6.9v-3.5h-6.9V-486.4z"/>
	<path class="st4" d="M425.4-472.5h-3.5v-24.2h6.9v20.7h13.8v6.9h-17.3V-472.5z"/>
	<path class="st4" d="M453-469.1h-6.9v-24.2h3.5v-3.5h13.8v3.5h3.5v24.2h-6.9v-10.4H453V-469.1z M459.9-486.4v-3.5H453v3.5H459.9z"
		/>
	<path class="st4" d="M470.3-496.7h6.9v10.4h6.9v-10.4h6.9v13.8h-3.5v3.5h-3.5v10.4h-6.9v-10.4h-3.5v-3.5h-3.5V-496.7z"/>
	<path class="st4" d="M498-472.5h-3.5v-20.7h3.5v-3.5h17.3v6.9h-13.8v3.5h6.9v6.9h-6.9v3.5h13.8v6.9H498V-472.5z"/>
	<path class="st4" d="M529.1-479.5h-3.5v10.4h-6.9v-27.6H536v3.5h3.5v10.4H536v3.5h3.5v10.4h-6.9v-6.9h-3.5V-479.5z M525.6-486.4
		h6.9v-3.5h-6.9V-486.4z"/>
	<path class="st4" d="M567.1-496.7h17.3v3.5h3.5v10.4h-3.5v3.5H574v3.5h13.8v6.9h-20.7v-13.8h3.5v-3.5h10.4v-3.5h-13.8V-496.7z"/>
</g>
<g>
	<rect x="313" y="-516" class="st4" width="45.1" height="5.7"/>
	<rect x="364.3" y="-516" class="st4" width="5.7" height="5.7"/>
</g>
<g>
	<rect x="-141.5" y="-515" class="st4" width="45.1" height="5.7"/>
	<rect x="-90.2" y="-515" class="st4" width="5.7" height="5.7"/>
</g>
<polygon class="st16" points="247.6,-675 254,-669.4 248.4,-663 268.8,-645.6 268.8,-607.7 289.6,-633.8 321.3,-604.4 327.2,-610.7
	332.2,-606.1 403.8,-724.8 "/>
<polygon class="st17" points="245.2,-682.1 251.5,-676.5 245.9,-670.1 266.4,-652.7 266.4,-614.8 287.1,-640.9 318.9,-611.5
	324.7,-617.8 329.7,-613.2 401.3,-731.9 "/>
<polygon class="st18" points="287.2,-641.1 401.6,-731.9 266.5,-652.9 266.5,-615 "/>
<polygon class="st19" points="244.1,-681.9 250.5,-676.3 244.9,-669.9 265.3,-652.6 265.3,-614.7 286.1,-640.8 317.8,-611.4
	323.7,-617.7 328.6,-613.1 400.3,-731.7 "/>
<g>
	<polygon class="st20" points="179.9,-988.7 179.9,-825 190.3,-825 190.3,-815.5 200.7,-815.5 200.7,-805.1 648.2,-805.1
		648.2,-815.5 658.6,-815.5 658.6,-825 668.9,-825 668.9,-988.7 	"/>
	<polygon class="st20" points="668.9,-988.7 668.9,-1082.8 658.6,-1082.8 658.6,-1092.3 648.2,-1092.3 648.2,-1102.8 200.7,-1102.8
		200.7,-1092.3 190.3,-1092.3 190.3,-1082.8 179.9,-1082.8 179.9,-988.7 	"/>
</g>
<g>
	<polygon class="st21" points="190.3,-1086.2 200.7,-1086.2 200.7,-1094.2 190.3,-1094.2 190.3,-1086.3 179.9,-1086.3
		179.9,-1078.3 190.3,-1078.3 	"/>
	<rect x="200.7" y="-1102.9" class="st21" width="447.5" height="8"/>
	<polygon class="st21" points="658.6,-1086.3 658.6,-1094.2 648.2,-1094.2 648.2,-1086.2 658.6,-1086.2 658.6,-1078.3
		668.9,-1078.3 668.9,-1086.3 	"/>
</g>
<g>
	<g>
		<g>
			<rect x="-213.2" y="-1167.2" width="10.2" height="10.2"/>
		</g>
	</g>
	<g>
		<g>
			<path d="M-151.8-1177.4v5.1h-5.1v5.1h5.1v20.5h5.1v5.1h-5.1v5.1h5.1h5.1v-10.2h15.4v5.1h5.1v-5.1v-30.7H-151.8z M-126.2-1151.8
				h-20.5v-20.5h20.5V-1151.8z"/>
		</g>
	</g>
	<g>
		<g>
			<rect x="-141.5" y="-1167.2" width="10.2" height="10.2"/>
		</g>
	</g>
	<g>
		<g>
			<rect x="-213.2" y="-1095.5" width="10.2" height="10.2"/>
		</g>
	</g>
	<g>
		<g>
			<rect x="-151.8" y="-1105.7" width="5.1" height="5.1"/>
		</g>
	</g>
	<g>
		<g>
			<rect x="-177.4" y="-1080.1" width="5.1" height="5.1"/>
		</g>
	</g>
	<g>
		<g>
			<rect x="-172.2" y="-1100.6" width="5.1" height="5.1"/>
		</g>
	</g>
	<g>
		<g>
			<rect x="-172.2" y="-1090.3" width="5.1" height="5.1"/>
		</g>
	</g>
	<g>
		<g>
			<rect x="-126.2" y="-1116" width="5.1" height="5.1"/>
		</g>
	</g>
	<g>
		<g>
			<rect x="-223.4" y="-1116" width="5.1" height="5.1"/>
		</g>
	</g>
	<g>
		<g>
			<rect x="-223.4" y="-1141.6" width="5.1" height="5.1"/>
		</g>
	</g>
	<g>
		<g>
			<polygon points="-167.1,-1172.3 -167.1,-1167.2 -177.4,-1167.2 -177.4,-1162 -162,-1162 -162,-1167.2 -162,-1172.3 			"/>
		</g>
	</g>
	<g>
		<g>
			<path d="M-126.2-1136.4v5.1h-10.2v5.1h-15.4v-5.1h-5.1v5.1h-10.2v5.1h15.4v5.1H-162h-5.1v-5.1h-5.1v5.1h-5.1v-5.1h-5.1v5.1h-5.1
				v5.1h10.2v5.1h5.1v-5.1h10.2v5.1h-5.1v5.1h5.1v10.2h5.1v5.1h5.1v-5.1h15.4v-10.2h5.1v-5.1h-5.1v-10.2h-10.2v-5.1h10.2v5.1h5.1
				v-5.1h5.1v-5.1h5.1v-5.1v-5.1H-126.2L-126.2-1136.4z M-141.5-1110.8v15.4h-15.4v-15.4H-141.5z"/>
		</g>
	</g>
	<g>
		<g>
			<polygon points="-156.9,-1146.7 -162,-1146.7 -162,-1141.6 -167.1,-1141.6 -167.1,-1136.4 -167.1,-1131.3 -162,-1131.3
				-162,-1136.4 -156.9,-1136.4 -156.9,-1141.6 -151.8,-1141.6 -151.8,-1146.7 			"/>
		</g>
	</g>
	<g>
		<g>
			<rect x="-167.1" y="-1080.1" width="10.2" height="5.1"/>
		</g>
	</g>
	<g>
		<g>
			<rect x="-182.5" y="-1172.3" width="5.1" height="5.1"/>
		</g>
	</g>
	<g>
		<g>
			<rect x="-141.5" y="-1136.4" width="5.1" height="5.1"/>
		</g>
	</g>
	<g>
		<g>
			<rect x="-136.4" y="-1141.6" width="5.1" height="5.1"/>
		</g>
	</g>
	<g>
		<g>
			<rect x="-203" y="-1116" width="5.1" height="5.1"/>
		</g>
	</g>
	<g>
		<g>
			<path d="M-192.7-1080.1v-20.5h5.1v-5.1v-5.1h-5.1v5.1h-15.4v-5.1h-5.1h-5.1v5.1h-5.1v30.7h30.7h10.2v-5.1H-192.7z M-197.8-1080.1
				h-20.5v-20.5h20.5V-1080.1z"/>
		</g>
	</g>
	<g>
		<g>
			<rect x="-192.7" y="-1146.7" width="5.1" height="5.1"/>
		</g>
	</g>
	<g>
		<g>
			<path d="M-187.6-1177.4h-5.1h-30.7v30.7h5.1v5.1h5.1v-5.1h5.1v5.1h5.1v-5.1h10.2v-10.2h5.1v-5.1h-5.1v-10.2h5.1h5.1v-5.1H-187.6z
				 M-197.8-1151.8h-20.5v-20.5h20.5V-1151.8z"/>
		</g>
	</g>
	<g>
		<g>
			<rect x="-162" y="-1162" width="5.1" height="5.1"/>
		</g>
	</g>
	<g>
		<g>
			<rect x="-172.2" y="-1177.4" width="5.1" height="5.1"/>
		</g>
	</g>
	<g>
		<g>
			<path d="M-162-1146.7v-5.1h-5.1v-5.1h-5.1v5.1h-10.2v-5.1h-5.1v5.1v5.1h5.1v10.2h-15.4v-5.1h-5.1v5.1h-15.4v5.1h10.2v5.1h-15.4
				v5.1h15.4v5.1h5.1v-5.1h5.1v5.1h5.1v-5.1h10.2v-5.1h-5.1v-5.1h5.1h5.1v5.1h5.1h5.1v-5.1h-5.1v-5.1h-5.1v-10.2H-162L-162-1146.7z
				 M-192.7-1126.2H-203v-5.1h10.2V-1126.2z"/>
		</g>
	</g>
	<g>
		<g>
			<polygon points="-177.4,-1095.5 -177.4,-1100.6 -177.4,-1105.7 -182.5,-1105.7 -182.5,-1100.6 -187.6,-1100.6 -187.6,-1095.5
				-182.5,-1095.5 -182.5,-1090.3 -187.6,-1090.3 -187.6,-1085.2 -177.4,-1085.2 -177.4,-1090.3 -172.2,-1090.3 -172.2,-1095.5
				"/>
		</g>
	</g>
	<g>
		<g>
			<polygon points="-131.3,-1085.2 -131.3,-1090.3 -136.4,-1090.3 -136.4,-1085.2 -151.8,-1085.2 -151.8,-1080.1 -141.5,-1080.1
				-141.5,-1075 -136.4,-1075 -136.4,-1080.1 -126.2,-1080.1 -126.2,-1075 -121,-1075 -121,-1080.1 -121,-1085.2 			"/>
		</g>
	</g>
	<g>
		<g>
			<polygon points="-126.2,-1105.7 -126.2,-1100.6 -131.3,-1100.6 -131.3,-1095.5 -121,-1095.5 -121,-1100.6 -121,-1105.7 			"/>
		</g>
	</g>
</g>
<g>
	<g>
		<polygon class="st9" points="-451.6,-761.3 -455.2,-761.3 -592.4,-761.3 -592.4,-757.6 -596.1,-757.6 -596.1,-736.4
			-592.4,-736.4 -592.4,-732.7 -455.2,-732.7 -451.6,-732.7 -451.6,-736.4 -447.9,-736.4 -447.9,-757.6 -451.6,-757.6 		"/>
		<polygon class="st12" points="-451.6,-761.3 -455.2,-761.3 -592.4,-761.3 -592.4,-757.6 -596.1,-757.6 -596.1,-736.4
			-592.4,-736.4 -592.4,-732.7 -455.2,-732.7 -451.6,-732.7 -451.6,-736.4 -447.9,-736.4 -447.9,-757.6 -451.6,-757.6 		"/>
		<g>
			<path class="st4" d="M-564.2-746.4h-1.3v3.8h-2.5v-10.1h6.3v1.3h1.3v3.8h-1.3v1.3h1.3v3.8h-2.5v-2.5h-1.3V-746.4z M-565.5-749
				h2.5v-1.3h-2.5V-749z"/>
			<path class="st4" d="M-557.9-743.9h-1.3v-7.6h1.3v-1.3h6.3v2.5h-5.1v1.3h2.5v2.5h-2.5v1.3h5.1v2.5h-6.3V-743.9z"/>
			<path class="st4" d="M-549-743.9h-1.3v-7.6h1.3v-1.3h5.1v1.3h1.3v2.5h-2.5v-1.3h-2.5v5.1h2.5v-1.3h2.5v2.5h-1.3v1.3h-5.1V-743.9z
				"/>
			<path class="st4" d="M-538.9-742.6h-2.5v-8.9h1.3v-1.3h5.1v1.3h1.3v8.9h-2.5v-3.8h-2.5V-742.6z M-536.4-749v-1.3h-2.5v1.3H-536.4
				z"/>
			<path class="st4" d="M-531.3-743.9h-1.3v-8.9h2.5v7.6h5.1v2.5h-6.3V-743.9z"/>
			<path class="st4" d="M-523.7-752.8h2.5v10.1h-2.5V-752.8z"/>
			<path class="st4" d="M-519.9-752.8h6.3v1.3h1.3v7.6h-1.3v1.3h-6.3V-752.8z M-517.4-749h2.5v-1.3h-2.5V-749z M-517.4-745.2h2.5
				v-1.3h-2.5V-745.2z"/>
			<path class="st4" d="M-507.3-746.4h-1.3v3.8h-2.5v-8.9h1.3v-1.3h5.1v1.3h1.3v3.8h-1.3v1.3h1.3v3.8h-2.5v-2.5h-1.3V-746.4z
				 M-508.5-749h2.5v-1.3h-2.5V-749z"/>
			<path class="st4" d="M-499.7-742.6h-2.5v-8.9h1.3v-1.3h5.1v1.3h1.3v8.9h-2.5v-3.8h-2.5V-742.6z M-497.2-749v-1.3h-2.5v1.3H-497.2
				z"/>
			<path class="st4" d="M-493.4-752.8h7.6v2.5h-2.5v7.6h-2.5v-7.6h-2.5V-752.8z"/>
			<path class="st4" d="M-483.3-743.9h-1.3v-7.6h1.3v-1.3h6.3v2.5h-5.1v1.3h2.5v2.5h-2.5v1.3h5.1v2.5h-6.3V-743.9z"/>
		</g>
	</g>
	<g>
		<rect x="-590" y="-759.1" class="st4" width="13.1" height="1.7"/>
		<rect x="-575.1" y="-759.1" class="st4" width="1.7" height="1.7"/>
	</g>
</g>
<g>
	<g>
		<polygon class="st9" points="-451.6,-719.3 -455.2,-719.3 -592.4,-719.3 -592.4,-715.6 -596.1,-715.6 -596.1,-694.4
			-592.4,-694.4 -592.4,-690.7 -455.2,-690.7 -451.6,-690.7 -451.6,-694.4 -447.9,-694.4 -447.9,-715.6 -451.6,-715.6 		"/>
		<polygon class="st10" points="-451.6,-722.9 -455.2,-722.9 -592.4,-722.9 -592.4,-719.2 -596.1,-719.2 -596.1,-698.1
			-592.4,-698.1 -592.4,-694.4 -455.2,-694.4 -451.6,-694.4 -451.6,-698.1 -447.9,-698.1 -447.9,-719.2 -451.6,-719.2 		"/>
		<g>
			<path class="st4" d="M-564.2-708.1h-1.3v3.8h-2.5v-10.1h6.3v1.3h1.3v3.8h-1.3v1.3h1.3v3.8h-2.5v-2.5h-1.3V-708.1z M-565.5-710.6
				h2.5v-1.3h-2.5V-710.6z"/>
			<path class="st4" d="M-557.9-705.6h-1.3v-7.6h1.3v-1.3h6.3v2.5h-5.1v1.3h2.5v2.5h-2.5v1.3h5.1v2.5h-6.3V-705.6z"/>
			<path class="st4" d="M-549-705.6h-1.3v-7.6h1.3v-1.3h5.1v1.3h1.3v2.5h-2.5v-1.3h-2.5v5.1h2.5v-1.3h2.5v2.5h-1.3v1.3h-5.1V-705.6z
				"/>
			<path class="st4" d="M-538.9-704.3h-2.5v-8.9h1.3v-1.3h5.1v1.3h1.3v8.9h-2.5v-3.8h-2.5V-704.3z M-536.4-710.6v-1.3h-2.5v1.3
				H-536.4z"/>
			<path class="st4" d="M-531.3-705.6h-1.3v-8.9h2.5v7.6h5.1v2.5h-6.3V-705.6z"/>
			<path class="st4" d="M-523.7-714.4h2.5v10.1h-2.5V-714.4z"/>
			<path class="st4" d="M-519.9-714.4h6.3v1.3h1.3v7.6h-1.3v1.3h-6.3V-714.4z M-517.4-710.6h2.5v-1.3h-2.5V-710.6z M-517.4-706.8
				h2.5v-1.3h-2.5V-706.8z"/>
			<path class="st4" d="M-507.3-708.1h-1.3v3.8h-2.5v-8.9h1.3v-1.3h5.1v1.3h1.3v3.8h-1.3v1.3h1.3v3.8h-2.5v-2.5h-1.3V-708.1z
				 M-508.5-710.6h2.5v-1.3h-2.5V-710.6z"/>
			<path class="st4" d="M-499.7-704.3h-2.5v-8.9h1.3v-1.3h5.1v1.3h1.3v8.9h-2.5v-3.8h-2.5V-704.3z M-497.2-710.6v-1.3h-2.5v1.3
				H-497.2z"/>
			<path class="st4" d="M-493.4-714.4h7.6v2.5h-2.5v7.6h-2.5v-7.6h-2.5V-714.4z"/>
			<path class="st4" d="M-483.3-705.6h-1.3v-7.6h1.3v-1.3h6.3v2.5h-5.1v1.3h2.5v2.5h-2.5v1.3h5.1v2.5h-6.3V-705.6z"/>
		</g>
	</g>
	<g>
		<rect x="-590" y="-720.1" class="st4" width="13.1" height="1.7"/>
		<rect x="-575.1" y="-720.1" class="st4" width="1.7" height="1.7"/>
	</g>
</g>
<g>
	<rect x="-170.2" y="-988.4" class="st4" width="23.6" height="3"/>
	<rect x="-143.4" y="-988.4" class="st4" width="3" height="3"/>
</g>
<g>
	<rect x="-490.6" y="-1049.9" class="st4" width="23.6" height="3"/>
	<rect x="-463.8" y="-1049.9" class="st4" width="3" height="3"/>
</g>
<g>
	<polygon class="st22" points="-520.7,-926.4 -520.7,-933.9 -539.3,-933.9 -539.3,-926.4 -546.8,-926.4 -546.8,-918.9
		-546.8,-907.7 -539.3,-907.7 -539.3,-900.3 -528.1,-900.3 -520.7,-900.3 -520.7,-907.7 -513.2,-907.7 -513.2,-918.9 -513.2,-926.4
			"/>
	<line class="st23" x1="-538.7" y1="-900.3" x2="-538.7" y2="-890.3"/>
	<line class="st23" x1="-521.3" y1="-900.3" x2="-521.3" y2="-890.3"/>
	<polygon class="st24" points="-522.3,-892.2 -524.4,-892.2 -537.8,-892.2 -537.8,-890 -540,-890 -540,-874.5 -537.8,-874.5
		-537.8,-872.3 -524.4,-872.3 -522.3,-872.3 -522.3,-874.5 -520.1,-874.5 -520.1,-890 -522.3,-890 	"/>
</g>
<polygon class="st25" points="-453.6,-487.1 -453.6,-495.1 -461.5,-495.1 -526.5,-495.1 -595.3,-495.1 -595.3,-487.1 -603.2,-487.1
	-603.2,-441.6 -595.3,-441.6 -595.3,-433.6 -526.5,-433.6 -461.5,-433.6 -453.6,-433.6 -453.6,-441.6 -445.7,-441.6 -445.7,-487.1
	"/>
<polygon class="st25" points="-453.6,-487 -453.6,-494.9 -461.5,-494.9 -526.5,-494.9 -595.3,-494.9 -595.3,-487 -603.2,-487
	-603.2,-441.5 -595.3,-441.5 -595.3,-433.5 -526.5,-433.5 -461.5,-433.5 -453.6,-433.5 -453.6,-441.5 -445.7,-441.5 -445.7,-487 "/>
<g>
	<path class="st4" d="M-557.1-453.6h-5.4v-21.8h13.6v2.7h2.7v8.2h-2.7v2.7h-8.2V-453.6z M-557.1-467.2h5.4v-2.7h-5.4V-467.2z"/>
	<path class="st4" d="M-540.8-456.3h-2.7v-19h5.4v16.3h10.9v5.4h-13.6V-456.3z"/>
	<path class="st4" d="M-519-453.6h-5.4v-19h2.7v-2.7h10.9v2.7h2.7v19h-5.4v-8.2h-5.4V-453.6z M-513.6-467.2v-2.7h-5.4v2.7H-513.6z"
		/>
	<path class="st4" d="M-505.4-475.4h5.4v8.2h5.4v-8.2h5.4v10.9h-2.7v2.7h-2.7v8.2h-5.4v-8.2h-2.7v-2.7h-2.7V-475.4z"/>
</g>
<polygon class="st25" points="-283.6,-487.1 -283.6,-495.1 -291.5,-495.1 -356.5,-495.1 -425.3,-495.1 -425.3,-487.1 -433.2,-487.1
	-433.2,-441.6 -425.3,-441.6 -425.3,-433.6 -356.5,-433.6 -291.5,-433.6 -283.6,-433.6 -283.6,-441.6 -275.7,-441.6 -275.7,-487.1
	"/>
<polygon class="st22" points="-283.6,-495 -283.6,-502.9 -291.5,-502.9 -356.5,-502.9 -425.3,-502.9 -425.3,-495 -433.2,-495
	-433.2,-449.5 -425.3,-449.5 -425.3,-441.5 -356.5,-441.5 -291.5,-441.5 -283.6,-441.5 -283.6,-449.5 -275.7,-449.5 -275.7,-495 "/>
<g>
	<path class="st4" d="M-387.1-461.6h-5.4v-21.8h13.6v2.7h2.7v8.2h-2.7v2.7h-8.2V-461.6z M-387.1-475.2h5.4v-2.7h-5.4V-475.2z"/>
	<path class="st4" d="M-370.8-464.3h-2.7v-19h5.4v16.3h10.9v5.4h-13.6V-464.3z"/>
	<path class="st4" d="M-349-461.6h-5.4v-19h2.7v-2.7h10.9v2.7h2.7v19h-5.4v-8.2h-5.4V-461.6z M-343.6-475.2v-2.7h-5.4v2.7H-343.6z"
		/>
	<path class="st4" d="M-335.4-483.4h5.4v8.2h5.4v-8.2h5.4v10.9h-2.7v2.7h-2.7v8.2h-5.4v-8.2h-2.7v-2.7h-2.7V-483.4z"/>
</g>
<g>
	<path class="st26" d="M-1277.2-732.7h43.2v108h43.2v-108h43.2v129.6h-21.6v21.6h-21.6v21.6h-43.2v-21.6h-21.6v-21.6h-21.6V-732.7z"
		/>
	<path class="st27" d="M-1126-709.1h21.6v-21.6h108v43.2h-86.4v21.6h64.8v21.6h21.6v64.8h-21.6v21.6h-108v-43.2h86.4v-21.6h-64.8
		v-21.6h-21.6V-709.1z"/>
</g>
<g>
	<path class="st28" d="M-1277.2-753.8h43.2v108h43.2v-108h43.2v129.6h-21.6v21.6h-21.6v21.6h-43.2v-21.6h-21.6v-21.6h-21.6V-753.8z"
		/>
	<path class="st29" d="M-1126-732.2h21.6v-21.6h108v43.2h-86.4v21.6h64.8v21.6h21.6v64.8h-21.6v21.6h-108v-43.2h86.4v-21.6h-64.8
		v-21.6h-21.6V-732.2z"/>
</g>
<g>
	<g>
		<path class="st0" d="M-1227.8-375.2h27.5v68.7h27.5v-68.7h27.5v82.4h-13.7v13.7h-13.7v13.7h-27.5V-279h-13.7v-13.7h-13.7V-375.2z"
			/>
		<path class="st0" d="M-1131.7-360.1h13.7v-13.7h68.7v27.5h-54.9v13.7h41.2v13.7h13.7v41.2h-13.7v13.7h-68.7v-27.5h54.9v-13.7
			h-41.2v-13.7h-13.7V-360.1z"/>
	</g>
	<g>
		<path class="st7" d="M-1227.8-389.7h27.5v68.7h27.5v-68.7h27.5v82.4h-13.7v13.7h-13.7v13.7h-27.5v-13.7h-13.7v-13.7h-13.7V-389.7z
			"/>
		<path class="st7" d="M-1131.7-374.6h13.7v-13.7h68.7v27.5h-54.9v13.7h41.2v13.7h13.7v41.2h-13.7v13.7h-68.7V-306h54.9v-13.7h-41.2
			v-13.7h-13.7V-374.6z"/>
	</g>
	<g>
		<path class="st4" d="M-1227.8-403.1h27.5v68.7h27.5v-68.7h27.5v82.4h-13.7v13.7h-13.7v13.7h-27.5v-13.7h-13.7v-13.7h-13.7V-403.1z
			"/>
		<path class="st4" d="M-1131.7-389.3h13.7v-13.7h68.7v27.5h-54.9v13.7h41.2v13.7h13.7v41.2h-13.7v13.7h-68.7v-27.5h54.9v-13.7
			h-41.2v-13.7h-13.7V-389.3z"/>
	</g>
</g>
</svg>
