<svg id="Layer_1" xmlns="http://www.w3.org/2000/svg" width="69" height="78.6" viewBox="0 0 109 118.6"><style>.st0{fill:#5895b7}.st1{opacity:.8}.st2{fill:#c17620}.st3{fill:#f4c24a}.st4{fill:#fff}.st5{fill:#2a6fba}.st6{fill:#4abaef}.st7{fill:#95c9c8}.st8{fill:#ddefee}.st9{fill:#1b8e6f}.st10{fill:#3cea8a}.st11{opacity:.4;fill:#666}.st12{fill:#33bc6e}.st13{fill:none}.st14{fill:#7149a4}.st15{fill:#bd86e0}.st16{opacity:.4;fill:#666;stroke:#666;stroke-width:4;stroke-linejoin:bevel;stroke-miterlimit:10}.st17{fill:#f2f2f2}.st18{fill:#e6e6e6}.st19{fill:none;stroke:#000;stroke-width:4;stroke-linejoin:bevel;stroke-miterlimit:10}.st20{fill:#c6e0de}.st21{fill:#a7c6c3}.st22{fill:#ee3d53}.st23{fill:none;stroke:#000;stroke-width:2;stroke-miterlimit:10}.st24{fill:#a17559}.st25{fill:#910e46}.st26{fill:#238d6f}.st27{fill:#704ca2}.st28{fill:#47e88d}.st29{fill:#bc88de}</style><path class="st0" d="M-223-259h484v82h-484z"/><path class="st0" d="M229-185h107v30H229z"/><g class="st1"><path class="st0" d="M-207-239v82h-96v-11h12v-12h12v-12h12v-12h-12v-12h-12v-12h-12v-11z"/><path class="st0" d="M-221-181l14 23v-23z"/></g><path class="st2" d="M240-247v82h96v-11h-12v-12h-12v-12h-12v-12h12v-12h12v-12h12v-11z"/><path class="st3" d="M240-258v82h96v-11h-12v-12h-12v-12h-12v-12h12v-12h12v-12h12v-11z"/><path class="st2" d="M254-189l-14 23v-23zm-470-58v82h-96v-11h12v-12h12v-12h12v-12h-12v-12h-12v-12h-12v-11z"/><path class="st3" d="M-216-258v82h-96v-11h12v-12h12v-12h12v-12h-12v-12h-12v-12h-12v-11z"/><path class="st2" d="M-230-189l14 23v-23zm0-82h484v82h-484z"/><path class="st3" d="M-230-283h484v82h-484z"/><path class="st4" d="M-159.4-223.2h-8.6v-34.6h8.6v13h8.6v-13h8.6v34.6h-8.6v-13h-8.6v13zm21.6-30.2h4.3v-4.3h17.3v4.3h4.3v25.9h-4.3v4.3h-17.3v-4.3h-4.3v-25.9zm8.7 21.6h8.6v-17.3h-8.6v17.3zm30.2 8.6h-8.6v-34.6h8.6v17.3h4.3v-4.3h4.3v4.3h4.3v-17.3h8.6v34.6H-86v-4.3h-4.3v-4.3h-4.3v4.3h-4.3v4.3zm56.2-34.6h25.9v8.6h-8.6v25.9H-34v-25.9h-8.6v-8.6zm30.2 4.4h4.3v-4.3H9.1v4.3h4.3v25.9H9.1v4.3H-8.2v-4.3h-4.3v-25.9zm8.6 21.6h8.6v-17.3h-8.6v17.3zm60.5 8.6H48v-34.6h21.6v4.3h4.3v13h-4.3v4.3h-13v13zm0-21.6h8.6v-4.3h-8.6v4.3zm25.9 17.3h-4.3v-30.2h8.6v25.9h17.3v8.6H82.5v-4.3zm34.6 4.3h-8.6v-30.2h4.3v-4.3h17.3v4.3h4.3v30.2h-8.6v-13h-8.6v13zm8.6-21.6v-4.3h-8.6v4.3h8.6zm13-13h8.6v13h8.6v-13h8.6v17.3h-4.3v4.3H156v13h-8.6v-13H143v-4.3h-4.3v-17.3z"/><path class="st5" d="M-54 10h-85v12h-12v85h12v12h85v-12h12V22h-12z"/><path class="st5" d="M-54 10h-85v12h-12v85h12v12h85v-12h12V22h-12z"/><path class="st4" d="M-114.4 44.2H-86v5.7h5.7V67H-86v5.7h-17V61.3h11.4v-5.7h-22.8V44.2zm11.4 34.2h11.4v11.4H-103V78.4z"/><path class="st5" d="M97 10H12v12H0v85h12v12h85v-12h12V22H97z"/><path class="st6" d="M97 0H12v12H0v85h12v12h85V97h12V12H97z"/><path class="st4" d="M36.6 34.2H65v5.7h5.7V57H65v5.7H48V51.3h11.4v-5.7H36.6V34.2zM48 68.4h11.4v11.4H48V68.4z"/><path class="st0" d="M1132-145.5h-11.6v-11.6h-11.5v-12.8H610.1v12.8h-11.5v11.6H587v684.8h11.6v11.6h11.5v12.8h498.8v-12.8h11.5v-11.6h11.6z"/><path class="st7" d="M1132-157.5h-11.6v-11.6h-11.5v-12.8H610.1v12.8h-11.5v11.6H587v684.7h11.6v11.7h11.5v12.8h498.8v-12.8h11.5v-11.7h11.6z"/><path class="st8" d="M1132-169.5h-11.6v-11.7h-11.5V-194H610.1v12.8h-11.5v11.7H587v684.7h11.6v11.6h11.5v12.9h498.8v-12.9h11.5v-11.6h11.6z"/><path class="st9" d="M83-510h-384.9v10.1H-312v57.9h10.1v10H83v-10h10.1v-57.9H83z"/><path class="st10" d="M83-520h-384.9v10.1H-312v57.9h10.1v10H83v-10h10.1v-57.9H83z"/><path class="st4" d="M-191.9-469.1h-6.9v-27.6h17.3v3.5h3.5v10.4h-3.5v3.5h-10.4v10.2zm0-17.3h6.9v-3.5h-6.9v3.5zm20.7 13.9h-3.5v-24.2h6.9v20.7h13.8v6.9h-17.3v-3.4zm27.6 3.4h-6.9v-24.2h3.5v-3.5h13.8v3.5h3.5v24.2h-6.9v-10.4h-6.9v10.4zm7-17.3v-3.5h-6.9v3.5h6.9zm10.3-10.3h6.9v10.4h6.9v-10.4h6.9v13.8h-3.5v3.5h-3.5v10.4h-6.9v-10.4h-3.5v-3.5h-3.5v-13.8zm27.7 24.2h-3.5v-20.7h3.5v-3.5h17.3v6.9h-13.8v3.5h6.9v6.9h-6.9v3.5h13.8v6.9h-17.3v-3.5zm31.1-7H-71v10.4h-6.9v-27.6h17.3v3.5h3.5v10.4h-3.5v3.5h3.5v10.4H-64v-6.9h-3.5v-3.7zm-3.5-6.9h6.9v-3.5H-71v3.5zm41.5-10.3h6.9v27.6h-6.9v-27.6z"/><path class="st11" d="M-277.8-630.6l-2-5.7-4-12.1-17.8 6.1 1.9 5.7-5.8 2 4.1 12 5.8-1.9 1.9 5.7 12.1-4-2-5.8zm38.8-12l-2-5.8-4-12-17.8 6 1.9 5.8-5.8 1.9 4.1 12.1 5.8-2 1.9 5.8 12.1-4.1-2-5.8z"/><path transform="rotate(-18.702 -295.1 -670.335)" d="M-298.6-689.6h7.1v38.6h-7.1z"/><path d="M-279.4-635.4l-2-5.7-4.1-12.1-17.8 6.1 2 5.7-5.8 2 4.1 12 5.8-1.9 1.9 5.7 12-4-1.9-5.8z"/><path transform="rotate(-18.702 -256.63 -683.365)" d="M-260.1-702.6h7.1v38.6h-7.1z"/><path d="M-241-648.4l-1.9-5.8-4.1-12-17.8 6 2 5.8-5.8 2 4.1 12 5.7-2 2 5.8 12-4.1-1.9-5.7z"/><path transform="rotate(-18.702 -284.823 -703.299)" d="M-308.6-711.9h47.7v17.3h-47.7z"/><path class="st11" d="M-211.6-597l.9-4.1 1.9-8.7-12.8-2.8-.9 4.2-4.1-1-2 8.7 4.2.9-.9 4.2 8.6 1.9.9-4.2zm27.5 6.8l.9-4.2 1.9-8.6-12.8-2.8-.9 4.1-4.1-.9-1.9 8.7 4.1.9-.9 4.1 8.6 1.9 1-4.1z"/><path transform="rotate(12.41 -207.556 -626.866)" d="M-210-640.4h5v26.9h-5z"/><path d="M-210.8-600.4l.9-4.2 1.9-8.6-12.8-2.8-.9 4.1-4.2-.9-1.9 8.6 4.2.9-1 4.2 8.7 1.9.9-4.2z"/><path transform="rotate(12.41 -179.896 -620.78)" d="M-182.4-634.3h5v26.9h-5z"/><path d="M-183.2-594.4l.9-4.1 1.9-8.6-12.8-2.9-.9 4.2-4.1-.9-1.9 8.6 4.1.9-.9 4.2 8.7 1.9.9-4.2z"/><path transform="rotate(12.41 -189.542 -642.84)" d="M-206.2-648.9h33.3v12h-33.3z"/><path class="st11" d="M-135.6-658.8l-.7-3-1.4-6.4-9.4 2.1.7 3.1-3 .6 1.4 6.4 3-.7.7 3.1 6.3-1.5-.6-3zm20.4-4l-.6-3-1.5-6.4-9.3 2.1.6 3.1-3 .6 1.4 6.4 3-.7.7 3 6.4-1.4-.7-3z"/><path transform="rotate(-12.552 -142.139 -679.92)" d="M-144-689.8h3.6v19.8h-3.6z"/><path d="M-136.2-661.3l-.6-3.1-1.4-6.3-9.4 2.1.6 3-3 .7 1.4 6.4 3.1-.7.6 3 6.4-1.4-.7-3z"/><path transform="rotate(-12.552 -121.832 -684.44)" d="M-123.7-694.4h3.6v19.8h-3.6z"/><path d="M-115.8-665.8l-.7-3.1-1.4-6.3-9.4 2.1.7 3-3.1.7 1.4 6.3 3.1-.6.6 3 6.4-1.4-.7-3.1z"/><path transform="rotate(-12.552 -135.093 -696.141)" d="M-147.3-700.6h24.4v8.8h-24.4z"/><path class="st11" d="M-115-613l2.6-4.1 5.5-8.6-12.7-8.1-2.6 4.2-4.1-2.7-5.5 8.6 4.1 2.6-2.6 4.1 8.6 5.5 2.6-4.1zm27 18.1l2.6-4.1 5.5-8.6-12.7-8-2.6 4.1-4.1-2.6-5.5 8.5 4.1 2.6-2.6 4.2 8.6 5.4 2.6-4.1z"/><path transform="rotate(32.435 -98.89 -643.676)" d="M-101.7-659.1h5.7v30.9h-5.7z"/><path d="M-112.8-616.4l2.6-4.2 5.5-8.5-12.7-8.1-2.6 4.1-4.2-2.6-5.4 8.6 4.1 2.6-2.6 4.1 8.6 5.5 2.6-4.2z"/><path transform="rotate(32.435 -71.462 -626.25)" d="M-74.3-641.7h5.7v30.9h-5.7z"/><path d="M-85.4-599l2.6-4.1 5.5-8.6-12.7-8.1-2.6 4.2-4.1-2.7-5.5 8.6 4.1 2.6-2.6 4.1 8.6 5.5 2.6-4.1z"/><path transform="rotate(32.435 -73.195 -653.82)" d="M-92.3-660.7h38.2v13.8h-38.2z"/><path class="st9" d="M-393.7-1053.4h-253v6.6h-6.6v38h6.6v6.6h253v-6.6h6.6v-38h-6.6z"/><path class="st12" d="M-393.7-1053.4h-253v6.6h-6.6v38h6.6v6.6h253v-6.6h6.6v-38h-6.6z"/><path class="st4" d="M-586.9-1035.9h2.3v-2.3h11.4v4.5h-9.1v9.1h9.1v4.5h-11.4v-2.3h-2.3v-13.5zm20.4 15.9h-4.5v-15.9h2.3v-2.3h9.1v2.3h2.3v15.9h-4.5v-6.8h-4.5v6.8zm4.6-11.3v-2.3h-4.5v2.3h4.5zm9 9h-2.3v-15.9h4.5v13.6h9.1v4.5H-553v-2.2zm13.7-15.9h4.5v18.2h-4.5v-18.2zm6.8 0h11.4v2.3h2.3v13.6h-2.3v2.3h-11.4v-18.2zm4.5 6.9h4.5v-2.3h-4.5v2.3zm0 6.8h4.5v-2.3h-4.5v2.3zm18.2-2.3h-2.3v6.8h-4.5v-15.9h2.3v-2.3h9.1v2.3h2.3v6.8h-2.3v2.3h2.3v6.8h-4.5v-4.5h-2.3v-2.3zm-2.3-4.5h4.5v-2.3h-4.5v2.3zm15.9 11.3h-4.5v-15.9h2.3v-2.3h9.1v2.3h2.3v15.9h-4.5v-6.8h-4.5v6.8zm4.6-11.3v-2.3h-4.5v2.3h4.5zm6.8-6.9h13.6v4.5h-4.5v13.6h-4.5v-13.6h-4.5v-4.5zm18.1 15.9h-2.3v-13.6h2.3v-2.3h11.4v4.5h-9.1v2.3h4.5v4.5h-4.5v2.3h9.1v4.5h-11.4v-2.2z"/><path class="st9" d="M-73.7-985.4h-253v6.6h-6.6v38h6.6v6.6h253v-6.6h6.6v-38h-6.6z"/><path class="st10" d="M-73.7-992h-253v6.6h-6.6v38h6.6v6.7h253v-6.7h6.6v-38h-6.6z"/><path class="st4" d="M-266.9-974.5h2.3v-2.3h11.4v4.5h-9.1v9.1h9.1v4.5h-11.4v-2.3h-2.3v-13.5zm20.4 15.9h-4.5v-15.9h2.3v-2.3h9.1v2.3h2.3v15.9h-4.5v-6.8h-4.5v6.8zm4.6-11.3v-2.3h-4.5v2.3h4.5zm9 9.1h-2.3v-15.9h4.5v13.6h9.1v4.5H-233v-2.2zm13.7-15.9h4.5v18.2h-4.5v-18.2zm6.8 0h11.4v2.3h2.3v13.6h-2.3v2.3h-11.4v-18.2zm4.5 6.8h4.5v-2.3h-4.5v2.3zm0 6.8h4.5v-2.3h-4.5v2.3zm18.2-2.3h-2.3v6.8h-4.5v-15.9h2.3v-2.3h9.1v2.3h2.3v6.8h-2.3v2.3h2.3v6.8h-4.5v-4.5h-2.3v-2.3zm-2.3-4.5h4.5v-2.3h-4.5v2.3zm15.9 11.3h-4.5v-15.9h2.3v-2.3h9.1v2.3h2.3v15.9h-4.5v-6.8h-4.5v6.8zm4.6-11.3v-2.3h-4.5v2.3h4.5zm6.8-6.8h13.6v4.5h-4.5v13.6h-4.5v-13.6h-4.5v-4.5zm18.1 15.9h-2.3v-13.6h2.3v-2.3h11.4v4.5h-9.1v2.3h4.5v4.5h-4.5v2.3h9.1v4.5h-11.4v-2.2z"/><path class="st9" d="M-331.7-903.1h219.8v28.8h-219.8z"/><path class="st9" d="M-336.6-909.6h229.4v30.6h-229.4z"/><path class="st10" d="M-336.6-914v29.3h4.9v5.7H-112v-5.7h4.8V-914z"/><path class="st9" d="M-116.8-899.1v-5.1h-5.1v-.1H-327v5.1h-5.1v7.7h5.1v5.1h5.1v.1h200v-.1h5.1v-5.1h5.1v-7.6z"/><path class="st13" d="M-340.7-805.1h4.7v.1h-4.7zm0 17.9h4.7v.1h-4.7z"/><path class="st4" d="M-319.7-787.1v-5.1h5.1v-7.7h-5.1v-5.1h-5.1v-.1H-336v.1h-4.7v17.8h4.7v.1h11.2zm-46.8-53.5v-5.1h-5.1v-.1h-15.9v18h15.9v-.1h5.1v-5.1h5.1v-7.6zm-13.5 38.8v-5.2h-9.6v5.2h-5.1v7.6h5.1v5.2h9.6v-5.1h5.1v-7.7zm-49.8-97.3v-5.2h-9.6v5.1h-5.1v7.7h5.1v5.2h9.6v-5.2h5.1v-7.6z"/><path class="st14" d="M536-510H151.1v10.1H141v57.9h10.1v10H536v-10h10.1v-57.9H536z"/><path class="st15" d="M536-520H151.1v10.1H141v57.9h10.1v10H536v-10h10.1v-57.9H536z"/><path class="st4" d="M253.6-469.1h-6.9v-27.6H264v3.5h3.5v10.4H264v3.5h-10.4v10.2zm0-17.3h6.9v-3.5h-6.9v3.5zm20.8 13.9h-3.5v-24.2h6.9v20.7h13.8v6.9h-17.3v-3.4zm27.6 3.4h-6.9v-24.2h3.5v-3.5h13.8v3.5h3.5v24.2H309v-10.4h-7v10.4zm6.9-17.3v-3.5H302v3.5h6.9zm10.4-10.3h6.9v10.4h6.9v-10.4h6.9v13.8h-3.5v3.5H333v10.4h-6.9v-10.4h-3.5v-3.5h-3.5v-13.8zm27.7 24.2h-3.5v-20.7h3.5v-3.5h17.3v6.9h-13.8v3.5h6.9v6.9h-6.9v3.5h13.8v6.9H347v-3.5zm31.1-7h-3.5v10.4h-6.9v-27.6H385v3.5h3.5v10.4H385v3.5h3.5v10.4h-6.9v-6.9h-3.5v-3.7zm-3.5-6.9h6.9v-3.5h-6.9v3.5zm41.5-10.3h17.3v3.5h3.5v10.4h-3.5v3.5H423v3.5h13.8v6.9h-20.7v-13.8h3.5v-3.5H430v-3.5h-13.8v-7zM162-516h45.1v5.7H162zm51.3 0h5.7v5.7h-5.7zm-505.8 1h45.1v5.7h-45.1zm51.3 0h5.7v5.7h-5.7z"/><path class="st16" d="M96.6-675l6.4 5.6-5.6 6.4 20.4 17.4v37.9l20.8-26.1 31.7 29.4 5.9-6.3 5 4.6 71.6-118.7z"/><path class="st17" d="M94.2-682.1l6.3 5.6-5.6 6.4 20.5 17.4v37.9l20.7-26.1 31.8 29.4 5.8-6.3 5 4.6 71.6-118.7z"/><path class="st18" d="M136.2-641.1l114.4-90.8-135.1 79v37.9z"/><path class="st19" d="M93.1-681.9l6.4 5.6-5.6 6.4 20.4 17.3v37.9l20.8-26.1 31.7 29.4 5.9-6.3 4.9 4.6 71.7-118.6z"/><path class="st20" d="M28.9-988.7V-825h10.4v9.5h10.4v10.4h447.5v-10.4h10.4v-9.5h10.3v-163.7z"/><path class="st20" d="M517.9-988.7v-94.1h-10.3v-9.5h-10.4v-10.5H49.7v10.5H39.3v9.5H28.9v94.1z"/><path class="st21" d="M39.3-1086.2h10.4v-8H39.3v7.9H28.9v8h10.4zm10.4-16.7h447.5v8H49.7zm457.9 16.6v-7.9h-10.4v8h10.4v7.9h10.3v-8z"/><path d="M-364.2-1167.2h10.2v10.2h-10.2zm61.4-10.2v5.1h-5.1v5.1h5.1v20.5h5.1v5.1h-5.1v5.1h10.2v-10.2h15.4v5.1h5.1v-35.8h-30.7zm25.6 25.6h-20.5v-20.5h20.5v20.5z"/><path d="M-292.5-1167.2h10.2v10.2h-10.2zm-71.7 71.7h10.2v10.2h-10.2zm61.4-10.2h5.1v5.1h-5.1zm-25.6 25.6h5.1v5.1h-5.1zm5.2-20.5h5.1v5.1h-5.1zm0 10.3h5.1v5.1h-5.1zm46-25.7h5.1v5.1h-5.1zm-97.2 0h5.1v5.1h-5.1zm0-25.6h5.1v5.1h-5.1zm56.3-30.7v5.1h-10.3v5.2h15.4v-10.3z"/><path d="M-277.2-1136.4v5.1h-10.2v5.1h-15.4v-5.1h-5.1v5.1h-10.2v5.1h15.4v5.1h-15.4v-5.1h-5.1v5.1h-5.1v-5.1h-5.1v5.1h-5.1v5.1h10.2v5.1h5.1v-5.1h10.2v5.1h-5.1v5.1h5.1v10.2h5.1v5.1h5.1v-5.1h15.4v-10.2h5.1v-5.1h-5.1v-10.2h-10.2v-5.1h10.2v5.1h5.1v-5.1h5.1v-5.1h5.1v-10.2h-5.1zm-15.3 25.6v15.4h-15.4v-15.4h15.4zm-15.4-35.9h-5.1v5.1h-5.1v10.3h5.1v-5.1h5.1v-5.2h5.1v-5.1zm-10.2 66.6h10.2v5.1h-10.2zm-15.4-92.2h5.1v5.1h-5.1z"/><path d="M-292.5-1136.4h5.1v5.1h-5.1zm5.1-5.2h5.1v5.1h-5.1zM-354-1116h5.1v5.1h-5.1zm10.3 35.9v-20.5h5.1v-10.2h-5.1v5.1h-15.4v-5.1h-10.2v5.1h-5.1v30.7h40.9v-5.1h-10.2zm-5.1 0h-20.5v-20.5h20.5v20.5zm5.1-66.6h5.1v5.1h-5.1zm5.1-30.7h-35.8v30.7h5.1v5.1h5.1v-5.1h5.1v5.1h5.1v-5.1h10.2v-10.2h5.1v-5.1h-5.1v-10.2h10.2v-5.1h-5zm-10.2 25.6h-20.5v-20.5h20.5v20.5zm35.8-10.2h5.1v5.1h-5.1zm-10.2-15.4h5.1v5.1h-5.1z"/><path d="M-313-1146.7v-5.1h-5.1v-5.1h-5.1v5.1h-10.2v-5.1h-5.1v10.2h5.1v10.2h-15.4v-5.1h-5.1v5.1h-15.4v5.1h10.2v5.1h-15.4v5.1h15.4v5.1h5.1v-5.1h5.1v5.1h5.1v-5.1h10.2v-5.1h-5.1v-5.1h10.2v5.1h10.2v-5.1h-5.1v-5.1h-5.1v-10.2h15.5zm-30.7 20.5H-354v-5.1h10.2v5.1zm15.3 30.7v-10.2h-5.1v5.1h-5.1v5.1h5.1v5.2h-5.1v5.1h10.2v-5.1h5.2v-5.2zm46.1 10.3v-5.1h-5.1v5.1h-15.4v5.1h10.3v5.1h5.1v-5.1h10.2v5.1h5.2v-10.2zm5.1-20.5v5.1h-5.1v5.1h10.3v-10.2z"/><path class="st9" d="M-602.6-761.3h-140.8v3.7h-3.7v21.2h3.7v3.7h140.8v-3.7h3.7v-21.2h-3.7z"/><path class="st12" d="M-602.6-761.3h-140.8v3.7h-3.7v21.2h3.7v3.7h140.8v-3.7h3.7v-21.2h-3.7z"/><path class="st4" d="M-715.2-746.4h-1.3v3.8h-2.5v-10.1h6.3v1.3h1.3v3.8h-1.3v1.3h1.3v3.8h-2.5v-2.5h-1.3v-1.4zm-1.3-2.6h2.5v-1.3h-2.5v1.3zm7.6 5.1h-1.3v-7.6h1.3v-1.3h6.3v2.5h-5.1v1.3h2.5v2.5h-2.5v1.3h5.1v2.5h-6.3v-1.2zm8.9 0h-1.3v-7.6h1.3v-1.3h5.1v1.3h1.3v2.5h-2.5v-1.3h-2.5v5.1h2.5v-1.3h2.5v2.5h-1.3v1.3h-5.1v-1.2zm10.1 1.3h-2.5v-8.9h1.3v-1.3h5.1v1.3h1.3v8.9h-2.5v-3.8h-2.5v3.8zm2.5-6.4v-1.3h-2.5v1.3h2.5zm5.1 5.1h-1.3v-8.9h2.5v7.6h5.1v2.5h-6.3v-1.2zm7.6-8.9h2.5v10.1h-2.5v-10.1zm3.8 0h6.3v1.3h1.3v7.6h-1.3v1.3h-6.3v-10.2zm2.5 3.8h2.5v-1.3h-2.5v1.3zm0 3.8h2.5v-1.3h-2.5v1.3zm10.1-1.2h-1.3v3.8h-2.5v-8.9h1.3v-1.3h5.1v1.3h1.3v3.8h-1.3v1.3h1.3v3.8h-2.5v-2.5h-1.3v-1.3zm-1.2-2.6h2.5v-1.3h-2.5v1.3zm8.8 6.4h-2.5v-8.9h1.3v-1.3h5.1v1.3h1.3v8.9h-2.5v-3.8h-2.5v3.8zm2.5-6.4v-1.3h-2.5v1.3h2.5zm3.8-3.8h7.6v2.5h-2.5v7.6h-2.5v-7.6h-2.5v-2.5zm10.1 8.9h-1.3v-7.6h1.3v-1.3h6.3v2.5h-5.1v1.3h2.5v2.5h-2.5v1.3h5.1v2.5h-6.3v-1.2zM-741-759.1h13.1v1.7H-741zm14.9 0h1.7v1.7h-1.7z"/><path class="st9" d="M-602.6-719.3h-140.8v3.7h-3.7v21.2h3.7v3.7h140.8v-3.7h3.7v-21.2h-3.7z"/><path class="st10" d="M-602.6-722.9h-140.8v3.7h-3.7v21.1h3.7v3.7h140.8v-3.7h3.7v-21.1h-3.7z"/><path class="st4" d="M-715.2-708.1h-1.3v3.8h-2.5v-10.1h6.3v1.3h1.3v3.8h-1.3v1.3h1.3v3.8h-2.5v-2.5h-1.3v-1.4zm-1.3-2.5h2.5v-1.3h-2.5v1.3zm7.6 5h-1.3v-7.6h1.3v-1.3h6.3v2.5h-5.1v1.3h2.5v2.5h-2.5v1.3h5.1v2.5h-6.3v-1.2zm8.9 0h-1.3v-7.6h1.3v-1.3h5.1v1.3h1.3v2.5h-2.5v-1.3h-2.5v5.1h2.5v-1.3h2.5v2.5h-1.3v1.3h-5.1v-1.2zm10.1 1.3h-2.5v-8.9h1.3v-1.3h5.1v1.3h1.3v8.9h-2.5v-3.8h-2.5v3.8zm2.5-6.3v-1.3h-2.5v1.3h2.5zm5.1 5h-1.3v-8.9h2.5v7.6h5.1v2.5h-6.3v-1.2zm7.6-8.8h2.5v10.1h-2.5v-10.1zm3.8 0h6.3v1.3h1.3v7.6h-1.3v1.3h-6.3v-10.2zm2.5 3.8h2.5v-1.3h-2.5v1.3zm0 3.8h2.5v-1.3h-2.5v1.3zm10.1-1.3h-1.3v3.8h-2.5v-8.9h1.3v-1.3h5.1v1.3h1.3v3.8h-1.3v1.3h1.3v3.8h-2.5v-2.5h-1.3v-1.3zm-1.2-2.5h2.5v-1.3h-2.5v1.3zm8.8 6.3h-2.5v-8.9h1.3v-1.3h5.1v1.3h1.3v8.9h-2.5v-3.8h-2.5v3.8zm2.5-6.3v-1.3h-2.5v1.3h2.5zm3.8-3.8h7.6v2.5h-2.5v7.6h-2.5v-7.6h-2.5v-2.5zm10.1 8.8h-1.3v-7.6h1.3v-1.3h6.3v2.5h-5.1v1.3h2.5v2.5h-2.5v1.3h5.1v2.5h-6.3v-1.2zM-741-720.1h13.1v1.7H-741zm14.9 0h1.7v1.7h-1.7zm404.9-268.3h23.6v3h-23.6zm26.8 0h3v3h-3zm-347.2-61.5h23.6v3h-23.6zm26.8 0h3v3h-3z"/><path class="st22" d="M-671.7-926.4v-7.5h-18.6v7.5h-7.5v18.7h7.5v7.4h18.6v-7.4h7.5v-18.7z"/><path class="st23" d="M-689.7-900.3v10m17.4-10v10"/><path class="st24" d="M-673.3-892.2h-15.5v2.2h-2.2v15.5h2.2v2.2h15.5v-2.2h2.2V-890h-2.2z"/><path class="st25" d="M-604.6-487.1v-8h-141.7v8h-7.9v45.5h7.9v8h141.7v-8h7.9v-45.5z"/><path class="st25" d="M-604.6-487v-7.9h-141.7v7.9h-7.9v45.5h7.9v8h141.7v-8h7.9V-487z"/><path class="st4" d="M-708.1-453.6h-5.4v-21.8h13.6v2.7h2.7v8.2h-2.7v2.7h-8.2v8.2zm0-13.6h5.4v-2.7h-5.4v2.7zm16.3 10.9h-2.7v-19h5.4v16.3h10.9v5.4h-13.6v-2.7zm21.8 2.7h-5.4v-19h2.7v-2.7h10.9v2.7h2.7v19h-5.4v-8.2h-5.4v8.2zm5.4-13.6v-2.7h-5.4v2.7h5.4zm8.2-8.2h5.4v8.2h5.4v-8.2h5.4v10.9h-2.7v2.7h-2.7v8.2h-5.4v-8.2h-2.7v-2.7h-2.7v-10.9z"/><path class="st25" d="M-434.6-487.1v-8h-141.7v8h-7.9v45.5h7.9v8h141.7v-8h7.9v-45.5z"/><path class="st22" d="M-434.6-495v-7.9h-141.7v7.9h-7.9v45.5h7.9v8h141.7v-8h7.9V-495z"/><path class="st4" d="M-538.1-461.6h-5.4v-21.8h13.6v2.7h2.7v8.2h-2.7v2.7h-8.2v8.2zm0-13.6h5.4v-2.7h-5.4v2.7zm16.3 10.9h-2.7v-19h5.4v16.3h10.9v5.4h-13.6v-2.7zm21.8 2.7h-5.4v-19h2.7v-2.7h10.9v2.7h2.7v19h-5.4v-8.2h-5.4v8.2zm5.4-13.6v-2.7h-5.4v2.7h5.4zm8.2-8.2h5.4v8.2h5.4v-8.2h5.4v10.9h-2.7v2.7h-2.7v8.2h-5.4v-8.2h-2.7v-2.7h-2.7v-10.9z"/><path class="st26" d="M-1428.2-732.7h43.2v108h43.2v-108h43.2v129.6h-21.6v21.6h-21.6v21.6h-43.2v-21.6h-21.6v-21.6h-21.6v-129.6z"/><path class="st27" d="M-1277-709.1h21.6v-21.6h108v43.2h-86.4v21.6h64.8v21.6h21.6v64.8h-21.6v21.6h-108v-43.2h86.4v-21.6h-64.8v-21.6h-21.6v-64.8z"/><path class="st28" d="M-1428.2-753.8h43.2v108h43.2v-108h43.2v129.6h-21.6v21.6h-21.6v21.6h-43.2v-21.6h-21.6v-21.6h-21.6v-129.6z"/><path class="st29" d="M-1277-732.2h21.6v-21.6h108v43.2h-86.4v21.6h64.8v21.6h21.6v64.8h-21.6v21.6h-108v-43.2h86.4v-21.6h-64.8v-21.6h-21.6v-64.8z"/><path class="st0" d="M-1378.8-375.2h27.5v68.7h27.5v-68.7h27.5v82.4h-13.7v13.7h-13.7v13.7h-27.5V-279h-13.7v-13.7h-13.7v-82.5zm96.1 15.1h13.7v-13.7h68.7v27.5h-54.9v13.7h41.2v13.7h13.7v41.2h-13.7v13.7h-68.7v-27.5h54.9v-13.7h-41.2v-13.7h-13.7v-41.2z"/><path class="st7" d="M-1378.8-389.7h27.5v68.7h27.5v-68.7h27.5v82.4h-13.7v13.7h-13.7v13.7h-27.5v-13.7h-13.7v-13.7h-13.7v-82.4zm96.1 15.1h13.7v-13.7h68.7v27.5h-54.9v13.7h41.2v13.7h13.7v41.2h-13.7v13.7h-68.7V-306h54.9v-13.7h-41.2v-13.7h-13.7v-41.2z"/><path class="st4" d="M-1378.8-403.1h27.5v68.7h27.5v-68.7h27.5v82.4h-13.7v13.7h-13.7v13.7h-27.5V-307h-13.7v-13.7h-13.7v-82.4zm96.1 13.8h13.7V-403h68.7v27.5h-54.9v13.7h41.2v13.7h13.7v41.2h-13.7v13.7h-68.7v-27.5h54.9v-13.7h-41.2v-13.7h-13.7v-41.2z"/></svg>