<svg id="Layer_1" xmlns="http://www.w3.org/2000/svg" width="69" height="78.6" viewBox="0 0 109 118.6"><style>.st0{fill:#5895b7}.st1{opacity:.8}.st2{fill:#c17620}.st3{fill:#f4c24a}.st4{fill:#fff}.st5{fill:#2a6fba}.st6{fill:#4abaef}.st7{fill:#95c9c8}.st8{fill:#ddefee}.st9{fill:#1b8e6f}.st10{fill:#3cea8a}.st11{opacity:.4;fill:#666}.st12{fill:#33bc6e}.st13{fill:none}.st14{fill:#7149a4}.st15{fill:#bd86e0}.st16{opacity:.4;fill:#666;stroke:#666;stroke-width:4;stroke-linejoin:bevel;stroke-miterlimit:10}.st17{fill:#f2f2f2}.st18{fill:#e6e6e6}.st19{fill:none;stroke:#000;stroke-width:4;stroke-linejoin:bevel;stroke-miterlimit:10}.st20{fill:#c6e0de}.st21{fill:#a7c6c3}.st22{fill:#ee3d53}.st23{fill:none;stroke:#000;stroke-width:2;stroke-miterlimit:10}.st24{fill:#a17559}.st25{fill:#910e46}.st26{fill:#238d6f}.st27{fill:#704ca2}.st28{fill:#47e88d}.st29{fill:#bc88de}</style><path class="st0" d="M-72-259h484v82H-72z"/><path class="st0" d="M380-185h107v30H380z"/><g class="st1"><path class="st0" d="M-56-239v82h-96v-11h12v-12h12v-12h12v-12h-12v-12h-12v-12h-12v-11z"/><path class="st0" d="M-70-181l14 23v-23z"/></g><path class="st2" d="M391-247v82h96v-11h-12v-12h-12v-12h-12v-12h12v-12h12v-12h12v-11z"/><path class="st3" d="M391-258v82h96v-11h-12v-12h-12v-12h-12v-12h12v-12h12v-12h12v-11z"/><path class="st2" d="M405-189l-14 23v-23zm-470-58v82h-96v-11h12v-12h12v-12h12v-12h-12v-12h-12v-12h-12v-11z"/><path class="st3" d="M-65-258v82h-96v-11h12v-12h12v-12h12v-12h-12v-12h-12v-12h-12v-11z"/><path class="st2" d="M-79-189l14 23v-23zm0-82h484v82H-79z"/><path class="st3" d="M-79-283h484v82H-79z"/><path class="st4" d="M-8.4-223.2H-17v-34.6h8.6v13H.2v-13h8.6v34.6H.3v-13h-8.6v13zm21.6-30.2h4.3v-4.3h17.3v4.3h4.3v25.9h-4.3v4.3H17.5v-4.3h-4.3v-25.9zm8.7 21.6h8.6v-17.3h-8.6v17.3zm30.2 8.6h-8.6v-34.6h8.6v17.3h4.3v-4.3h4.3v4.3H65v-17.3h8.6v34.6H65v-4.3h-4.3v-4.3h-4.3v4.3h-4.3v4.3zm56.2-34.6h25.9v8.6h-8.6v25.9H117v-25.9h-8.6v-8.6zm30.2 4.4h4.3v-4.3h17.3v4.3h4.3v25.9h-4.3v4.3h-17.3v-4.3h-4.3v-25.9zm8.6 21.6h8.6v-17.3h-8.6v17.3zm60.5 8.6H199v-34.6h21.6v4.3h4.3v13h-4.3v4.3h-13v13zm0-21.6h8.6v-4.3h-8.6v4.3zm25.9 17.3h-4.3v-30.2h8.6v25.9h17.3v8.6h-21.6v-4.3zm34.6 4.3h-8.6v-30.2h4.3v-4.3h17.3v4.3h4.3v30.2h-8.6v-13h-8.6v13zm8.6-21.6v-4.3h-8.6v4.3h8.6zm13-13h8.6v13h8.6v-13h8.6v17.3h-4.3v4.3H307v13h-8.6v-13H294v-4.3h-4.3v-17.3z"/><path class="st5" d="M97 10H12v12H0v85h12v12h85v-12h12V22H97z"/><path class="st5" d="M97 10H12v12H0v85h12v12h85v-12h12V22H97z"/><path class="st4" d="M36.6 44.2H65v5.7h5.7V67H65v5.7H48V61.3h11.4v-5.7H36.6V44.2zM48 78.4h11.4v11.4H48V78.4z"/><path class="st5" d="M248 10h-85v12h-12v85h12v12h85v-12h12V22h-12z"/><path class="st6" d="M248 0h-85v12h-12v85h12v12h85V97h12V12h-12z"/><path class="st4" d="M187.6 34.2H216v5.7h5.7V57H216v5.7h-17V51.3h11.4v-5.7h-22.8V34.2zM199 68.4h11.4v11.4H199V68.4z"/><path class="st0" d="M1283-145.5h-11.6v-11.6h-11.5v-12.8H761.1v12.8h-11.5v11.6H738v684.8h11.6v11.6h11.5v12.8h498.8v-12.8h11.5v-11.6h11.6z"/><path class="st7" d="M1283-157.5h-11.6v-11.6h-11.5v-12.8H761.1v12.8h-11.5v11.6H738v684.7h11.6v11.7h11.5v12.8h498.8v-12.8h11.5v-11.7h11.6z"/><path class="st8" d="M1283-169.5h-11.6v-11.7h-11.5V-194H761.1v12.8h-11.5v11.7H738v684.7h11.6v11.6h11.5v12.9h498.8v-12.9h11.5v-11.6h11.6z"/><path class="st9" d="M234-510h-384.9v10.1H-161v57.9h10.1v10H234v-10h10.1v-57.9H234z"/><path class="st10" d="M234-520h-384.9v10.1H-161v57.9h10.1v10H234v-10h10.1v-57.9H234z"/><path class="st4" d="M-40.9-469.1h-6.9v-27.6h17.3v3.5h3.5v10.4h-3.5v3.5h-10.4v10.2zm0-17.3h6.9v-3.5h-6.9v3.5zm20.7 13.9h-3.5v-24.2h6.9v20.7H-3v6.9h-17.3v-3.4zm27.6 3.4H.5v-24.2H4v-3.5h13.8v3.5h3.5v24.2h-6.9v-10.4h-7v10.4zm7-17.3v-3.5h-7v3.5h7zm10.3-10.3h6.9v10.4h6.9v-10.4h6.9v13.8H42v3.5h-3.5v10.4h-6.9v-10.4h-3.5v-3.5h-3.5v-13.8zm27.7 24.2h-3.5v-20.7h3.5v-3.5h17.3v6.9H55.8v3.5h6.9v6.9h-6.9v3.5h13.8v6.9H52.4v-3.5zm31.1-7H80v10.4h-6.9v-27.6h17.3v3.5h3.5v10.4h-3.5v3.5h3.5v10.4H87v-6.9h-3.5v-3.7zm-3.5-6.9h6.9v-3.5H80v3.5zm41.5-10.3h6.9v27.6h-6.9v-27.6z"/><path class="st11" d="M-126.8-630.6l-2-5.7-4-12.1-17.8 6.1 1.9 5.7-5.8 2 4.1 12 5.8-1.9 1.9 5.7 12.1-4-2-5.8zm38.8-12l-2-5.8-4-12-17.8 6 1.9 5.8-5.8 1.9 4.1 12.1 5.8-2 1.9 5.8 12.1-4.1-2-5.8z"/><path transform="rotate(-18.702 -144.086 -670.346)" d="M-147.6-689.6h7.1v38.6h-7.1z"/><path d="M-128.4-635.4l-2-5.7-4.1-12.1-17.8 6.1 2 5.7-5.8 2 4.1 12 5.8-1.9 1.9 5.7 12-4-1.9-5.8z"/><path transform="rotate(-18.702 -105.615 -683.376)" d="M-109.1-702.6h7.1v38.6h-7.1z"/><path d="M-90-648.4l-1.9-5.8-4.1-12-17.8 6 2 5.8-5.8 2 4.1 12 5.7-2 2 5.8 12-4.1-1.9-5.7z"/><path transform="rotate(-18.702 -133.808 -703.31)" d="M-157.6-711.9h47.7v17.3h-47.7z"/><path class="st11" d="M-60.6-597l.9-4.1 1.9-8.7-12.8-2.8-.9 4.2-4.1-1-2 8.7 4.2.9-.9 4.2 8.6 1.9.9-4.2zm27.5 6.8l.9-4.2 1.9-8.6-12.8-2.8-.9 4.1-4.1-.9-1.9 8.7 4.1.9-.9 4.1 8.6 1.9 1-4.1z"/><path transform="rotate(12.41 -56.564 -626.867)" d="M-59-640.4h5v26.9h-5z"/><path d="M-59.8-600.4l.9-4.2 1.9-8.6-12.8-2.8-.9 4.1-4.2-.9-1.9 8.6 4.2.9-1 4.2 8.7 1.9.9-4.2z"/><path transform="rotate(12.41 -28.904 -620.782)" d="M-31.4-634.3h5v26.9h-5z"/><path d="M-32.2-594.4l.9-4.1 1.9-8.6-12.8-2.9-.9 4.2-4.1-.9-1.9 8.6 4.1.9-.9 4.2 8.7 1.9.9-4.2z"/><path transform="rotate(12.41 -38.55 -642.84)" d="M-55.2-648.9h33.3v12h-33.3z"/><path class="st11" d="M15.4-658.8l-.7-3-1.4-6.4-9.4 2.1.7 3.1-3 .6L3-656l3-.7.7 3.1 6.3-1.5-.6-3zm20.4-4l-.6-3-1.5-6.4-9.3 2.1.6 3.1-3 .6 1.4 6.4 3-.7.7 3 6.4-1.4-.7-3z"/><path transform="rotate(-12.552 8.852 -679.915)" d="M7-689.8h3.6v19.8H7z"/><path d="M14.8-661.3l-.6-3.1-1.4-6.3-9.4 2.1.6 3-3 .7 1.4 6.4 3.1-.7.6 3 6.4-1.4-.7-3z"/><path transform="rotate(-12.552 29.16 -684.435)" d="M27.3-694.4h3.6v19.8h-3.6z"/><path d="M35.2-665.8l-.7-3.1-1.4-6.3-9.4 2.1.7 3-3.1.7 1.4 6.3 3.1-.6.6 3 6.4-1.4-.7-3.1z"/><path transform="rotate(-12.552 15.898 -696.137)" d="M3.7-700.6h24.4v8.8H3.7z"/><path class="st11" d="M36-613l2.6-4.1 5.5-8.6-12.7-8.1-2.6 4.2-4.1-2.7-5.5 8.6 4.1 2.6-2.6 4.1 8.6 5.5 2.6-4.1zm27 18.1l2.6-4.1 5.5-8.6-12.7-8-2.6 4.1-4.1-2.6-5.5 8.5 4.1 2.6-2.6 4.2 8.6 5.4 2.6-4.1z"/><path transform="rotate(32.435 52.11 -643.682)" d="M49.3-659.1H55v30.9h-5.7z"/><path d="M38.2-616.4l2.6-4.2 5.5-8.5-12.7-8.1-2.6 4.1-4.2-2.6-5.4 8.6 4.1 2.6-2.6 4.1 8.6 5.5 2.6-4.2z"/><path transform="rotate(32.435 79.538 -626.256)" d="M76.7-641.7h5.7v30.9h-5.7z"/><path d="M65.6-599l2.6-4.1 5.5-8.6-12.7-8.1-2.6 4.2-4.1-2.7-5.5 8.6 4.1 2.6-2.6 4.1 8.6 5.5 2.6-4.1z"/><path transform="rotate(32.435 77.805 -653.825)" d="M58.7-660.7h38.2v13.8H58.7z"/><path class="st9" d="M-242.7-1053.4h-253v6.6h-6.6v38h6.6v6.6h253v-6.6h6.6v-38h-6.6z"/><path class="st12" d="M-242.7-1053.4h-253v6.6h-6.6v38h6.6v6.6h253v-6.6h6.6v-38h-6.6z"/><path class="st4" d="M-435.9-1035.9h2.3v-2.3h11.4v4.5h-9.1v9.1h9.1v4.5h-11.4v-2.3h-2.3v-13.5zm20.4 15.9h-4.5v-15.9h2.3v-2.3h9.1v2.3h2.3v15.9h-4.5v-6.8h-4.5v6.8zm4.6-11.3v-2.3h-4.5v2.3h4.5zm9 9h-2.3v-15.9h4.5v13.6h9.1v4.5H-402v-2.2zm13.7-15.9h4.5v18.2h-4.5v-18.2zm6.8 0h11.4v2.3h2.3v13.6h-2.3v2.3h-11.4v-18.2zm4.5 6.9h4.5v-2.3h-4.5v2.3zm0 6.8h4.5v-2.3h-4.5v2.3zm18.2-2.3h-2.3v6.8h-4.5v-15.9h2.3v-2.3h9.1v2.3h2.3v6.8h-2.3v2.3h2.3v6.8h-4.5v-4.5h-2.3v-2.3zm-2.3-4.5h4.5v-2.3h-4.5v2.3zm15.9 11.3h-4.5v-15.9h2.3v-2.3h9.1v2.3h2.3v15.9h-4.5v-6.8h-4.5v6.8zm4.6-11.3v-2.3h-4.5v2.3h4.5zm6.8-6.9h13.6v4.5h-4.5v13.6h-4.5v-13.6h-4.5v-4.5zm18.1 15.9h-2.3v-13.6h2.3v-2.3h11.4v4.5h-9.1v2.3h4.5v4.5h-4.5v2.3h9.1v4.5h-11.4v-2.2z"/><path class="st9" d="M77.3-985.4h-253v6.6h-6.6v38h6.6v6.6h253v-6.6h6.6v-38h-6.6z"/><path class="st10" d="M77.3-992h-253v6.6h-6.6v38h6.6v6.7h253v-6.7h6.6v-38h-6.6z"/><path class="st4" d="M-115.9-974.5h2.3v-2.3h11.4v4.5h-9.1v9.1h9.1v4.5h-11.4v-2.3h-2.3v-13.5zm20.4 15.9h-4.5v-15.9h2.3v-2.3h9.1v2.3h2.3v15.9h-4.5v-6.8h-4.5v6.8zm4.6-11.3v-2.3h-4.5v2.3h4.5zm9 9.1h-2.3v-15.9h4.5v13.6h9.1v4.5H-82v-2.2zm13.7-15.9h4.5v18.2h-4.5v-18.2zm6.8 0H-50v2.3h2.3v13.6H-50v2.3h-11.4v-18.2zm4.5 6.8h4.5v-2.3h-4.5v2.3zm0 6.8h4.5v-2.3h-4.5v2.3zm18.2-2.3H-41v6.8h-4.5v-15.9h2.3v-2.3h9.1v2.3h2.3v6.8h-2.3v2.3h2.3v6.8h-4.5v-4.5h-2.3v-2.3zm-2.3-4.5h4.5v-2.3H-41v2.3zm15.9 11.3h-4.5v-15.9h2.3v-2.3h9.1v2.3h2.3v15.9h-4.5v-6.8h-4.5v6.8zm4.6-11.3v-2.3H-25v2.3h4.5zm6.8-6.8H-.1v4.5h-4.5v13.6h-4.5v-13.6h-4.5v-4.5zm18.1 15.9H2.2v-13.6h2.3v-2.3h11.4v4.5H6.7v2.3h4.5v4.5H6.7v2.3h9.1v4.5H4.4v-2.2z"/><path class="st9" d="M-180.7-903.1H39.1v28.8h-219.8z"/><path class="st9" d="M-185.6-909.6H43.8v30.6h-229.4z"/><path class="st10" d="M-185.6-914v29.3h4.9v5.7H39v-5.7h4.8V-914z"/><path class="st9" d="M34.2-899.1v-5.1h-5.1v-.1H-176v5.1h-5.1v7.7h5.1v5.1h5.1v.1h200v-.1h5.1v-5.1h5.1v-7.6z"/><path class="st13" d="M-189.7-805.1h4.7v.1h-4.7zm0 17.9h4.7v.1h-4.7z"/><path class="st4" d="M-168.7-787.1v-5.1h5.1v-7.7h-5.1v-5.1h-5.1v-.1H-185v.1h-4.7v17.8h4.7v.1h11.2zm-46.8-53.5v-5.1h-5.1v-.1h-15.9v18h15.9v-.1h5.1v-5.1h5.1v-7.6zm-13.5 38.8v-5.2h-9.6v5.2h-5.1v7.6h5.1v5.2h9.6v-5.1h5.1v-7.7zm-49.8-97.3v-5.2h-9.6v5.1h-5.1v7.7h5.1v5.2h9.6v-5.2h5.1v-7.6z"/><path class="st14" d="M687-510H302.1v10.1H292v57.9h10.1v10H687v-10h10.1v-57.9H687z"/><path class="st15" d="M687-520H302.1v10.1H292v57.9h10.1v10H687v-10h10.1v-57.9H687z"/><path class="st4" d="M404.6-469.1h-6.9v-27.6H415v3.5h3.5v10.4H415v3.5h-10.4v10.2zm0-17.3h6.9v-3.5h-6.9v3.5zm20.8 13.9h-3.5v-24.2h6.9v20.7h13.8v6.9h-17.3v-3.4zm27.6 3.4h-6.9v-24.2h3.5v-3.5h13.8v3.5h3.5v24.2H460v-10.4h-7v10.4zm6.9-17.3v-3.5H453v3.5h6.9zm10.4-10.3h6.9v10.4h6.9v-10.4h6.9v13.8h-3.5v3.5H484v10.4h-6.9v-10.4h-3.5v-3.5h-3.5v-13.8zm27.7 24.2h-3.5v-20.7h3.5v-3.5h17.3v6.9h-13.8v3.5h6.9v6.9h-6.9v3.5h13.8v6.9H498v-3.5zm31.1-7h-3.5v10.4h-6.9v-27.6H536v3.5h3.5v10.4H536v3.5h3.5v10.4h-6.9v-6.9h-3.5v-3.7zm-3.5-6.9h6.9v-3.5h-6.9v3.5zm41.5-10.3h17.3v3.5h3.5v10.4h-3.5v3.5H574v3.5h13.8v6.9h-20.7v-13.8h3.5v-3.5H581v-3.5h-13.8v-7zM313-516h45.1v5.7H313zm51.3 0h5.7v5.7h-5.7zm-505.8 1h45.1v5.7h-45.1zm51.3 0h5.7v5.7h-5.7z"/><path class="st16" d="M247.6-675l6.4 5.6-5.6 6.4 20.4 17.4v37.9l20.8-26.1 31.7 29.4 5.9-6.3 5 4.6 71.6-118.7z"/><path class="st17" d="M245.2-682.1l6.3 5.6-5.6 6.4 20.5 17.4v37.9l20.7-26.1 31.8 29.4 5.8-6.3 5 4.6 71.6-118.7z"/><path class="st18" d="M287.2-641.1l114.4-90.8-135.1 79v37.9z"/><path class="st19" d="M244.1-681.9l6.4 5.6-5.6 6.4 20.4 17.3v37.9l20.8-26.1 31.7 29.4 5.9-6.3 4.9 4.6 71.7-118.6z"/><path class="st20" d="M179.9-988.7V-825h10.4v9.5h10.4v10.4h447.5v-10.4h10.4v-9.5h10.3v-163.7z"/><path class="st20" d="M668.9-988.7v-94.1h-10.3v-9.5h-10.4v-10.5H200.7v10.5h-10.4v9.5h-10.4v94.1z"/><path class="st21" d="M190.3-1086.2h10.4v-8h-10.4v7.9h-10.4v8h10.4zm10.4-16.7h447.5v8H200.7zm457.9 16.6v-7.9h-10.4v8h10.4v7.9h10.3v-8z"/><path d="M-213.2-1167.2h10.2v10.2h-10.2zm61.4-10.2v5.1h-5.1v5.1h5.1v20.5h5.1v5.1h-5.1v5.1h10.2v-10.2h15.4v5.1h5.1v-35.8h-30.7zm25.6 25.6h-20.5v-20.5h20.5v20.5z"/><path d="M-141.5-1167.2h10.2v10.2h-10.2zm-71.7 71.7h10.2v10.2h-10.2zm61.4-10.2h5.1v5.1h-5.1zm-25.6 25.6h5.1v5.1h-5.1zm5.2-20.5h5.1v5.1h-5.1zm0 10.3h5.1v5.1h-5.1zm46-25.7h5.1v5.1h-5.1zm-97.2 0h5.1v5.1h-5.1zm0-25.6h5.1v5.1h-5.1zm56.3-30.7v5.1h-10.3v5.2h15.4v-10.3z"/><path d="M-126.2-1136.4v5.1h-10.2v5.1h-15.4v-5.1h-5.1v5.1h-10.2v5.1h15.4v5.1h-15.4v-5.1h-5.1v5.1h-5.1v-5.1h-5.1v5.1h-5.1v5.1h10.2v5.1h5.1v-5.1h10.2v5.1h-5.1v5.1h5.1v10.2h5.1v5.1h5.1v-5.1h15.4v-10.2h5.1v-5.1h-5.1v-10.2h-10.2v-5.1h10.2v5.1h5.1v-5.1h5.1v-5.1h5.1v-10.2h-5.1zm-15.3 25.6v15.4h-15.4v-15.4h15.4zm-15.4-35.9h-5.1v5.1h-5.1v10.3h5.1v-5.1h5.1v-5.2h5.1v-5.1zm-10.2 66.6h10.2v5.1h-10.2zm-15.4-92.2h5.1v5.1h-5.1z"/><path d="M-141.5-1136.4h5.1v5.1h-5.1zm5.1-5.2h5.1v5.1h-5.1zM-203-1116h5.1v5.1h-5.1zm10.3 35.9v-20.5h5.1v-10.2h-5.1v5.1h-15.4v-5.1h-10.2v5.1h-5.1v30.7h40.9v-5.1h-10.2zm-5.1 0h-20.5v-20.5h20.5v20.5zm5.1-66.6h5.1v5.1h-5.1zm5.1-30.7h-35.8v30.7h5.1v5.1h5.1v-5.1h5.1v5.1h5.1v-5.1h10.2v-10.2h5.1v-5.1h-5.1v-10.2h10.2v-5.1h-5zm-10.2 25.6h-20.5v-20.5h20.5v20.5zm35.8-10.2h5.1v5.1h-5.1zm-10.2-15.4h5.1v5.1h-5.1z"/><path d="M-162-1146.7v-5.1h-5.1v-5.1h-5.1v5.1h-10.2v-5.1h-5.1v10.2h5.1v10.2h-15.4v-5.1h-5.1v5.1h-15.4v5.1h10.2v5.1h-15.4v5.1h15.4v5.1h5.1v-5.1h5.1v5.1h5.1v-5.1h10.2v-5.1h-5.1v-5.1h10.2v5.1h10.2v-5.1h-5.1v-5.1h-5.1v-10.2h15.5zm-30.7 20.5H-203v-5.1h10.2v5.1zm15.3 30.7v-10.2h-5.1v5.1h-5.1v5.1h5.1v5.2h-5.1v5.1h10.2v-5.1h5.2v-5.2zm46.1 10.3v-5.1h-5.1v5.1h-15.4v5.1h10.3v5.1h5.1v-5.1h10.2v5.1h5.2v-10.2zm5.1-20.5v5.1h-5.1v5.1h10.3v-10.2z"/><path class="st9" d="M-451.6-761.3h-140.8v3.7h-3.7v21.2h3.7v3.7h140.8v-3.7h3.7v-21.2h-3.7z"/><path class="st12" d="M-451.6-761.3h-140.8v3.7h-3.7v21.2h3.7v3.7h140.8v-3.7h3.7v-21.2h-3.7z"/><path class="st4" d="M-564.2-746.4h-1.3v3.8h-2.5v-10.1h6.3v1.3h1.3v3.8h-1.3v1.3h1.3v3.8h-2.5v-2.5h-1.3v-1.4zm-1.3-2.6h2.5v-1.3h-2.5v1.3zm7.6 5.1h-1.3v-7.6h1.3v-1.3h6.3v2.5h-5.1v1.3h2.5v2.5h-2.5v1.3h5.1v2.5h-6.3v-1.2zm8.9 0h-1.3v-7.6h1.3v-1.3h5.1v1.3h1.3v2.5h-2.5v-1.3h-2.5v5.1h2.5v-1.3h2.5v2.5h-1.3v1.3h-5.1v-1.2zm10.1 1.3h-2.5v-8.9h1.3v-1.3h5.1v1.3h1.3v8.9h-2.5v-3.8h-2.5v3.8zm2.5-6.4v-1.3h-2.5v1.3h2.5zm5.1 5.1h-1.3v-8.9h2.5v7.6h5.1v2.5h-6.3v-1.2zm7.6-8.9h2.5v10.1h-2.5v-10.1zm3.8 0h6.3v1.3h1.3v7.6h-1.3v1.3h-6.3v-10.2zm2.5 3.8h2.5v-1.3h-2.5v1.3zm0 3.8h2.5v-1.3h-2.5v1.3zm10.1-1.2h-1.3v3.8h-2.5v-8.9h1.3v-1.3h5.1v1.3h1.3v3.8h-1.3v1.3h1.3v3.8h-2.5v-2.5h-1.3v-1.3zm-1.2-2.6h2.5v-1.3h-2.5v1.3zm8.8 6.4h-2.5v-8.9h1.3v-1.3h5.1v1.3h1.3v8.9h-2.5v-3.8h-2.5v3.8zm2.5-6.4v-1.3h-2.5v1.3h2.5zm3.8-3.8h7.6v2.5h-2.5v7.6h-2.5v-7.6h-2.5v-2.5zm10.1 8.9h-1.3v-7.6h1.3v-1.3h6.3v2.5h-5.1v1.3h2.5v2.5h-2.5v1.3h5.1v2.5h-6.3v-1.2zM-590-759.1h13.1v1.7H-590zm14.9 0h1.7v1.7h-1.7z"/><path class="st9" d="M-451.6-719.3h-140.8v3.7h-3.7v21.2h3.7v3.7h140.8v-3.7h3.7v-21.2h-3.7z"/><path class="st10" d="M-451.6-722.9h-140.8v3.7h-3.7v21.1h3.7v3.7h140.8v-3.7h3.7v-21.1h-3.7z"/><path class="st4" d="M-564.2-708.1h-1.3v3.8h-2.5v-10.1h6.3v1.3h1.3v3.8h-1.3v1.3h1.3v3.8h-2.5v-2.5h-1.3v-1.4zm-1.3-2.5h2.5v-1.3h-2.5v1.3zm7.6 5h-1.3v-7.6h1.3v-1.3h6.3v2.5h-5.1v1.3h2.5v2.5h-2.5v1.3h5.1v2.5h-6.3v-1.2zm8.9 0h-1.3v-7.6h1.3v-1.3h5.1v1.3h1.3v2.5h-2.5v-1.3h-2.5v5.1h2.5v-1.3h2.5v2.5h-1.3v1.3h-5.1v-1.2zm10.1 1.3h-2.5v-8.9h1.3v-1.3h5.1v1.3h1.3v8.9h-2.5v-3.8h-2.5v3.8zm2.5-6.3v-1.3h-2.5v1.3h2.5zm5.1 5h-1.3v-8.9h2.5v7.6h5.1v2.5h-6.3v-1.2zm7.6-8.8h2.5v10.1h-2.5v-10.1zm3.8 0h6.3v1.3h1.3v7.6h-1.3v1.3h-6.3v-10.2zm2.5 3.8h2.5v-1.3h-2.5v1.3zm0 3.8h2.5v-1.3h-2.5v1.3zm10.1-1.3h-1.3v3.8h-2.5v-8.9h1.3v-1.3h5.1v1.3h1.3v3.8h-1.3v1.3h1.3v3.8h-2.5v-2.5h-1.3v-1.3zm-1.2-2.5h2.5v-1.3h-2.5v1.3zm8.8 6.3h-2.5v-8.9h1.3v-1.3h5.1v1.3h1.3v8.9h-2.5v-3.8h-2.5v3.8zm2.5-6.3v-1.3h-2.5v1.3h2.5zm3.8-3.8h7.6v2.5h-2.5v7.6h-2.5v-7.6h-2.5v-2.5zm10.1 8.8h-1.3v-7.6h1.3v-1.3h6.3v2.5h-5.1v1.3h2.5v2.5h-2.5v1.3h5.1v2.5h-6.3v-1.2zM-590-720.1h13.1v1.7H-590zm14.9 0h1.7v1.7h-1.7zm404.9-268.3h23.6v3h-23.6zm26.8 0h3v3h-3zm-347.2-61.5h23.6v3h-23.6zm26.8 0h3v3h-3z"/><path class="st22" d="M-520.7-926.4v-7.5h-18.6v7.5h-7.5v18.7h7.5v7.4h18.6v-7.4h7.5v-18.7z"/><path class="st23" d="M-538.7-900.3v10m17.4-10v10"/><path class="st24" d="M-522.3-892.2h-15.5v2.2h-2.2v15.5h2.2v2.2h15.5v-2.2h2.2V-890h-2.2z"/><path class="st25" d="M-453.6-487.1v-8h-141.7v8h-7.9v45.5h7.9v8h141.7v-8h7.9v-45.5z"/><path class="st25" d="M-453.6-487v-7.9h-141.7v7.9h-7.9v45.5h7.9v8h141.7v-8h7.9V-487z"/><path class="st4" d="M-557.1-453.6h-5.4v-21.8h13.6v2.7h2.7v8.2h-2.7v2.7h-8.2v8.2zm0-13.6h5.4v-2.7h-5.4v2.7zm16.3 10.9h-2.7v-19h5.4v16.3h10.9v5.4h-13.6v-2.7zm21.8 2.7h-5.4v-19h2.7v-2.7h10.9v2.7h2.7v19h-5.4v-8.2h-5.4v8.2zm5.4-13.6v-2.7h-5.4v2.7h5.4zm8.2-8.2h5.4v8.2h5.4v-8.2h5.4v10.9h-2.7v2.7h-2.7v8.2h-5.4v-8.2h-2.7v-2.7h-2.7v-10.9z"/><path class="st25" d="M-283.6-487.1v-8h-141.7v8h-7.9v45.5h7.9v8h141.7v-8h7.9v-45.5z"/><path class="st22" d="M-283.6-495v-7.9h-141.7v7.9h-7.9v45.5h7.9v8h141.7v-8h7.9V-495z"/><path class="st4" d="M-387.1-461.6h-5.4v-21.8h13.6v2.7h2.7v8.2h-2.7v2.7h-8.2v8.2zm0-13.6h5.4v-2.7h-5.4v2.7zm16.3 10.9h-2.7v-19h5.4v16.3h10.9v5.4h-13.6v-2.7zm21.8 2.7h-5.4v-19h2.7v-2.7h10.9v2.7h2.7v19h-5.4v-8.2h-5.4v8.2zm5.4-13.6v-2.7h-5.4v2.7h5.4zm8.2-8.2h5.4v8.2h5.4v-8.2h5.4v10.9h-2.7v2.7h-2.7v8.2h-5.4v-8.2h-2.7v-2.7h-2.7v-10.9z"/><path class="st26" d="M-1277.2-732.7h43.2v108h43.2v-108h43.2v129.6h-21.6v21.6h-21.6v21.6h-43.2v-21.6h-21.6v-21.6h-21.6v-129.6z"/><path class="st27" d="M-1126-709.1h21.6v-21.6h108v43.2h-86.4v21.6h64.8v21.6h21.6v64.8h-21.6v21.6h-108v-43.2h86.4v-21.6h-64.8v-21.6h-21.6v-64.8z"/><path class="st28" d="M-1277.2-753.8h43.2v108h43.2v-108h43.2v129.6h-21.6v21.6h-21.6v21.6h-43.2v-21.6h-21.6v-21.6h-21.6v-129.6z"/><path class="st29" d="M-1126-732.2h21.6v-21.6h108v43.2h-86.4v21.6h64.8v21.6h21.6v64.8h-21.6v21.6h-108v-43.2h86.4v-21.6h-64.8v-21.6h-21.6v-64.8z"/><path class="st0" d="M-1227.8-375.2h27.5v68.7h27.5v-68.7h27.5v82.4h-13.7v13.7h-13.7v13.7h-27.5V-279h-13.7v-13.7h-13.7v-82.5zm96.1 15.1h13.7v-13.7h68.7v27.5h-54.9v13.7h41.2v13.7h13.7v41.2h-13.7v13.7h-68.7v-27.5h54.9v-13.7h-41.2v-13.7h-13.7v-41.2z"/><path class="st7" d="M-1227.8-389.7h27.5v68.7h27.5v-68.7h27.5v82.4h-13.7v13.7h-13.7v13.7h-27.5v-13.7h-13.7v-13.7h-13.7v-82.4zm96.1 15.1h13.7v-13.7h68.7v27.5h-54.9v13.7h41.2v13.7h13.7v41.2h-13.7v13.7h-68.7V-306h54.9v-13.7h-41.2v-13.7h-13.7v-41.2z"/><path class="st4" d="M-1227.8-403.1h27.5v68.7h27.5v-68.7h27.5v82.4h-13.7v13.7h-13.7v13.7h-27.5V-307h-13.7v-13.7h-13.7v-82.4zm96.1 13.8h13.7V-403h68.7v27.5h-54.9v13.7h41.2v13.7h13.7v41.2h-13.7v13.7h-68.7v-27.5h54.9v-13.7h-41.2v-13.7h-13.7v-41.2z"/></svg>