<svg xmlns="http://www.w3.org/2000/svg" width="93.8" height="18.1" viewBox="0 0 93.8 18.1"><style>.st0{fill:#910e46}.st1{fill:#fff}</style><path class="st0" d="M91.5 0H2.3v2.3H0v13.5h2.3v2.3h89.2v-2.3h2.3V2.3h-2.3z"/><path class="st0" d="M91.5 0H2.3v2.3H0v13.5h2.3v2.3h89.2v-2.3h2.3V2.3h-2.3z"/><path class="st1" d="M3.9 1.4h8.3v1.1H3.9zm9.4 0h1.1v1.1h-1.1zm4.2 8.1h-.8V12h-1.6V5.4h4.1v.8h.8v2.5h-.8v.8h.8V12h-1.6v-1.6h-.8l-.1-.9zm-.8-1.7h1.6V7h-1.6v.8zm4.9 3.3h-.8V6.2h.8v-.8h4.1V7h-3.3v.8H24v1.6h-1.6v.8h3.3V12h-4.1v-.9zm6.6.9h-1.6V6.2h.8v-.8h3.3v.8h.8V12h-1.6V9.5h-1.6l-.1 2.5zm1.7-4.2V7h-1.6v.8h1.6zm5.7 4.2h-3.3V5.4h3.3v.8h.8V7h.8v3.3h-.8v.8h-.8v.9zm-.8-5H34v3.3h.8v-.8h.8V7.8h-.8V7zM38 5.4h1.6v2.5h1.6V5.4H43v3.3h-.8v.8h-.8V12h-1.6V9.5H39v-.8h-1V5.4zm11.6 0h4.9V7h-1.6v5h-1.6V7h-1.6l-.1-1.6zm5.7.8h.8v-.8h3.3v.8h.8v4.9h-.8v.9h-3.3v-.8h-.8v-5zm1.6 4.1h1.6V7h-1.6v3.3zm10.7.8h-.8V6.2h.8v-.8h4.1V7h-3.3v3.3H70v-.8h-.8V7.8h2.5V12h-4.1v-.9zm4.9-4.9h.8v-.8h3.3v.8h.8v4.9h-.8v.9h-3.3v-.8h-.8v-5zm1.6 4.1h1.6V7h-1.6v3.3zm4.1-4.9h1.6v4.1h-1.6V5.4zm0 4.9h1.6V12h-1.6v-1.7z"/></svg>