<svg xmlns="http://www.w3.org/2000/svg" width="93.8" height="20.4" viewBox="0 0 93.8 20.4"><style>.st0{fill:#910e46}.st1{fill:#ee3d53}.st2{fill:#fff}</style><path class="st0" d="M91.5 2.3H2.3v2.3H0V18h2.3v2.4h89.2V18h2.3V4.6h-2.3z"/><path class="st1" d="M91.5 0H2.3v2.3H0v13.4h2.3V18h89.2v-2.3h2.3V2.3h-2.3z"/><path class="st2" d="M3.9 1.8h8.3v1.1H3.9zm9.4 0h1.1v1.1h-1.1zm4.2 8.7h-.8V13h-1.6V6.4h4.1v.8h.8v2.5h-.8v.8h.8V13h-1.6v-1.6h-.8l-.1-.9zm-.8-1.6h1.6V8h-1.6v.9zm4.9 3.3h-.8v-5h.8v-.8h4.1V8h-3.3v.8H24v1.6h-1.6v.8h3.3V13h-4.1v-.8zm6.6.8h-1.6V7.2h.8v-.8h3.3v.8h.8V13h-1.6v-2.5h-1.6l-.1 2.5zm1.7-4.1V8h-1.6v.8h1.6zm5.7 4.1h-3.3V6.4h3.3v.8h.8V8h.8v3.3h-.8v.8h-.8v.9zm-.8-5H34v3.3h.8v-.8h.8V8.9h-.8V8zM38 6.4h1.6v2.5h1.6V6.4H43v3.3h-.8v.8h-.8V13h-1.6v-2.5H39v-.8h-1V6.4zm11.6 0h4.9V8h-1.6v5h-1.6V8h-1.6l-.1-1.6zm5.7.8h.8v-.8h3.3v.8h.8v4.9h-.8v.9h-3.3v-.8h-.8v-5zm1.6 4.1h1.6V8h-1.6v3.3zm10.7.9h-.8v-5h.8v-.8h4.1V8h-3.3v3.3H70v-.8h-.8V8.9h2.5V13h-4.1v-.8zm4.9-5h.8v-.8h3.3v.8h.8v4.9h-.8v.9h-3.3v-.8h-.8v-5zm1.6 4.1h1.6V8h-1.6v3.3zm4.1-4.9h1.6v4.1h-1.6V6.4zm0 4.9h1.6V13h-1.6v-1.7z"/></svg>