<svg xmlns="http://www.w3.org/2000/svg" width="93.8" height="18.1" viewBox="0 0 93.8 18.1"><style>.st0{fill:#1b8e6f}.st1{fill:#33bc6e}.st2{fill:#fff}</style><path class="st0" d="M91.5 0H2.3v2.3H0v13.5h2.3v2.3h89.2v-2.3h2.3V2.3h-2.3z"/><path class="st1" d="M91.5 0H2.3v2.3H0v13.5h2.3v2.3h89.2v-2.3h2.3V2.3h-2.3z"/><path class="st2" d="M20.2 9.4h-.8v2.4h-1.6V5.4h4v.8h.8v2.4h-.8v.8h.8v2.4H21v-1.6h-.8v-.8zm-.8-1.6H21V7h-1.6v.8zm4.8 3.2h-.8V6.2h.8v-.8h4V7H25v.8h1.6v1.6H25v.8h3.2v1.6h-4V11zm5.6 0H29V6.2h.8v-.8H33v.8h.8v1.6h-1.6V7h-1.6v3.2h1.6v-.8h1.6V11H33v.8h-3.2V11zm6.4.8h-1.6V6.2h.8v-.8h3.2v.8h.8v5.6h-1.6V9.4h-1.6v2.4zm1.6-4V7h-1.6v.8h1.6zM41 11h-.8V5.4h1.6v4.8H45v1.6h-4V11zm4.8-5.6h1.6v6.4h-1.6V5.4zm2.4 0h4v.8h.8V11h-.8v.8h-4V5.4zm1.6 2.4h1.6V7h-1.6v.8zm0 2.4h1.6v-.8h-1.6v.8zm6.4-.8h-.8v2.4h-1.6V6.2h.8v-.8h3.2v.8h.8v2.4h-.8v.8h.8v2.4H57v-1.6h-.8v-.8zm-.7-1.6H57V7h-1.6v.8zm5.5 4h-1.6V6.2h.8v-.8h3.2v.8h.8v5.6h-1.6V9.4H61v2.4zm1.6-4V7H61v.8h1.6zM65 5.4h4.8V7h-1.6v4.8h-1.6V7H65V5.4zm6.4 5.6h-.8V6.2h.8v-.8h4V7h-3.2v.8h1.6v1.6h-1.6v.8h3.2v1.6h-4V11zM3.9 1.4h8.3v1.1H3.9zm9.4 0h1.1v1.1h-1.1z"/></svg>