<svg id="Layer_1" xmlns="http://www.w3.org/2000/svg" width="148.2" height="32.2" viewBox="0 0 148.2 32.2"><style>.st0{fill:#5895b7}.st1{opacity:.8}.st2{fill:#c17620}.st3{fill:#f4c24a}.st4{fill:#fff}.st5{fill:#2a6fba}.st6{fill:#4abaef}.st7{fill:#95c9c8}.st8{fill:#ddefee}.st9{fill:#1b8e6f}.st10{fill:#3cea8a}.st11{opacity:.4;fill:#666}.st12{fill:#33bc6e}.st13{fill:none}.st14{fill:#7149a4}.st15{fill:#bd86e0}.st16{opacity:.4;fill:#666;stroke:#666;stroke-width:4;stroke-linejoin:bevel;stroke-miterlimit:10}.st17{fill:#f2f2f2}.st18{fill:#e6e6e6}.st19{fill:none;stroke:#000;stroke-width:4;stroke-linejoin:bevel;stroke-miterlimit:10}.st20{fill:#c6e0de}.st21{fill:#a7c6c3}.st22{fill:#ee3d53}.st23{fill:none;stroke:#000;stroke-width:2;stroke-miterlimit:10}.st24{fill:#a17559}.st25{fill:#910e46}.st26{fill:#238d6f}.st27{fill:#704ca2}.st28{fill:#47e88d}.st29{fill:#bc88de}</style><path class="st0" d="M524.1 505.9h484v82h-484z"/><path class="st0" d="M976.1 579.9h107v30h-107z"/><g class="st1"><path class="st0" d="M540.1 525.9v82h-96v-11h12v-12h12v-12h12v-12h-12v-12h-12v-12h-12v-11z"/><path class="st0" d="M526.1 583.9l14 23v-23z"/></g><path class="st2" d="M987.1 517.9v82h96v-11h-12v-12h-12v-12h-12v-12h12v-12h12v-12h12v-11z"/><path class="st3" d="M987.1 506.9v82h96v-11h-12v-12h-12v-12h-12v-12h12v-12h12v-12h12v-11z"/><path class="st2" d="M1001.1 575.9l-14 23 .1-23zm-470-58v82h-96v-11h12v-12h12v-12h12v-12h-12v-12h-12v-12h-12v-11z"/><path class="st3" d="M531.1 506.9v82h-96v-11h12v-12h12v-12h12v-12h-12v-12h-12v-12h-12v-11z"/><path class="st2" d="M517.1 575.9l14 23v-23zm0-82h484v82h-484z"/><path class="st3" d="M517.1 481.9h484v82h-484z"/><path class="st4" d="M587.7 541.7h-8.6v-34.6h8.6v13h8.6v-13h8.6v34.6h-8.6v-13h-8.6v13zm21.6-30.2h4.3v-4.3h17.3v4.3h4.3v25.9h-4.3v4.3h-17.3v-4.3h-4.3v-25.9zm8.7 21.6h8.6v-17.3H618v17.3zm30.2 8.6h-8.6v-34.6h8.6v17.3h4.3v-4.3h4.3v4.3h4.3v-17.3h8.6v34.6h-8.6v-4.3h-4.3v-4.3h-4.3v4.3h-4.3v4.3zm56.2-34.5h25.9v8.6h-8.6v25.9H713v-25.9h-8.6v-8.6zm30.2 4.3h4.3v-4.3h17.3v4.3h4.3v25.9h-4.3v4.3h-17.3v-4.3h-4.3v-25.9zm8.6 21.6h8.6v-17.3h-8.6v17.3zm60.5 8.6h-8.6v-34.6h21.6v4.3h4.3v13h-4.3v4.3h-13v13zm0-21.6h8.6v-4.3h-8.6v4.3zm25.9 17.3h-4.3v-30.2h8.6v25.9h17.3v8.6h-21.6v-4.3zm34.6 4.3h-8.6v-30.2h4.3v-4.3h17.3v4.3h4.3v30.2h-8.6v-13h-8.6v13zm8.6-21.6v-4.3h-8.6v4.3h8.6zm13-12.9h8.6v13h8.6v-13h8.6v17.3h-4.3v4.3H903v13h-8.6v-13h-4.3v-4.3h-4.3v-17.3z"/><path class="st5" d="M693.1 774.9h-85v12h-12v85h12v12h85v-12h12v-85h-12z"/><path class="st5" d="M693.1 774.9h-85v12h-12v85h12v12h85v-12h12v-85h-12z"/><path class="st4" d="M632.7 809.2h28.4v5.7h5.7V832h-5.7v5.7H644v-11.4h11.4v-5.7h-22.8v-11.4zm11.4 34.1h11.4v11.4h-11.4v-11.4z"/><path class="st5" d="M844.1 774.9h-85v12h-12v85h12v12h85v-12h12v-85h-12z"/><path class="st6" d="M844.1 764.9h-85v12h-12v85h12v12h85v-12h12v-85h-12z"/><path class="st4" d="M783.7 799.2h28.4v5.7h5.7V822h-5.7v5.7H795v-11.4h11.4v-5.7h-22.8v-11.4zm11.4 34.1h11.4v11.4h-11.4v-11.4z"/><path class="st0" d="M1879.1 619.5h-11.6v-11.7H1856V595h-498.8v12.8h-11.5v11.7h-11.6v684.7h11.6v11.6h11.5v12.8H1856v-12.8h11.5v-11.6h11.6z"/><path class="st7" d="M1879.1 607.4h-11.6v-11.6H1856V583h-498.8v12.8h-11.5v11.6h-11.6v684.8h11.6v11.6h11.5v12.8H1856v-12.8h11.5v-11.6h11.6z"/><path class="st8" d="M1879.1 595.4h-11.6v-11.6H1856V571h-498.8v12.8h-11.5v11.6h-11.6v684.7h11.6v11.7h11.5v12.8H1856v-12.8h11.5v-11.7h11.6z"/><path class="st9" d="M830.1 255H445.2v10h-10.1v57.9h10.1V333h384.9v-10.1h10.1V265h-10.1z"/><path class="st10" d="M830.1 245H445.2v10h-10.1v57.9h10.1V323h384.9v-10.1h10.1V255h-10.1z"/><path class="st4" d="M555.2 295.8h-6.9v-27.6h17.3v3.5h3.5V282h-3.5v3.5h-10.4v10.3zm0-17.2h6.9v-3.5h-6.9v3.5zm20.7 13.8h-3.5v-24.2h6.9v20.7h13.8v6.9h-17.3v-3.4zm27.6 3.4h-6.9v-24.2h3.5v-3.5h13.8v3.5h3.5v24.2h-6.9v-10.4h-6.9v10.4zm7-17.2v-3.5h-6.9v3.5h6.9zm10.3-10.4h6.9v10.4h6.9v-10.4h6.9V282H638v3.5h-3.5v10.4h-6.9v-10.4h-3.5V282h-3.5v-13.8zm27.7 24.2H645v-20.7h3.5v-3.5h17.3v6.9H652v3.5h6.9v6.9H652v3.5h13.8v6.9h-17.3v-3.5zm31.1-6.9h-3.5v10.4h-6.9v-27.6h17.3v3.5h3.5V282h-3.5v3.5h3.5v10.4h-7V289h-3.5v-3.5zm-3.5-6.9h6.9v-3.5h-6.9v3.5zm41.5-10.4h6.9v27.6h-6.9v-27.6z"/><path class="st11" d="M469.3 134.4l-2-5.8-4-12-17.8 6 1.9 5.8-5.7 1.9 4 12 5.8-1.9 1.9 5.8 12.1-4.1-2-5.8zm38.8-12.1l-2-5.8-4-12-17.8 6 1.9 5.8-5.8 2 4.1 12 5.8-2 1.9 5.8 12.1-4.1-2-5.7z"/><path transform="rotate(-18.702 452.13 94.61)" d="M448.5 75.3h7.1v38.6h-7.1z"/><path d="M467.7 129.6l-2-5.8-4.1-12-17.8 6 2 5.8-5.8 1.9 4.1 12 5.8-1.9 1.9 5.8 12-4.1-1.9-5.8z"/><path transform="rotate(-18.702 490.6 81.58)" d="M487 62.3h7.1v38.6H487z"/><path d="M506.1 116.5l-1.9-5.7-4.1-12.1-17.8 6.1 2 5.7-5.8 2 4.1 12 5.7-1.9 2 5.7 12-4-1.9-5.8z"/><path transform="rotate(-18.702 462.407 61.646)" d="M438.5 53h47.7v17.3h-47.7z"/><path class="st11" d="M535.5 167.9l.9-4.1 1.9-8.6-12.8-2.9-.9 4.2-4.1-.9-1.9 8.6 4.1.9-.9 4.2 8.6 1.9.9-4.2zm27.5 6.8l.9-4.1 1.9-8.7-12.8-2.8-.9 4.2-4.1-.9-1.9 8.6 4.1.9-.9 4.2 8.6 1.9 1-4.2z"/><path transform="rotate(12.41 539.514 138.01)" d="M537.1 124.6h5v26.9h-5z"/><path d="M536.3 164.5l.9-4.2 1.9-8.6-12.8-2.8-.9 4.1-4.2-.9-1.9 8.7 4.2.9-.9 4.1 8.6 1.9.9-4.1z"/><path transform="rotate(12.41 567.174 144.096)" d="M564.7 130.7h5v26.9h-5z"/><path d="M563.9 170.6l.9-4.2 1.9-8.6-12.8-2.8-.9 4.1-4.1-.9-1.9 8.6 4.1 1-.9 4.1 8.7 1.9.9-4.1z"/><path transform="rotate(12.41 557.528 122.037)" d="M540.9 116h33.3v12h-33.3z"/><path class="st11" d="M611.5 106.1l-.7-3-1.4-6.3-9.4 2 .7 3.1-3 .7 1.4 6.3 3-.7.7 3.1 6.3-1.4-.6-3.1zm20.4-4l-.6-3-1.5-6.4-9.3 2.1.6 3.1-3 .7 1.4 6.3 3-.7.7 3.1 6.4-1.4-.7-3.1z"/><path transform="rotate(-12.552 604.896 84.98)" d="M603.1 75.1h3.6v19.8h-3.6z"/><path d="M611 103.6l-.7-3-1.4-6.4-9.4 2.1.6 3.1-3 .6 1.4 6.4 3.1-.7.6 3 6.4-1.4-.7-3z"/><path transform="rotate(-12.552 625.204 80.46)" d="M623.4 70.6h3.6v19.8h-3.6z"/><path d="M631.3 99.1l-.7-3.1-1.4-6.3-9.4 2.1.7 3-3.1.7 1.4 6.4 3.1-.7.6 3 6.4-1.4-.7-3z"/><path transform="rotate(-12.552 611.943 68.759)" d="M599.8 64.3h24.4v8.8h-24.4z"/><path class="st11" d="M632.1 151.9l2.6-4.1 5.5-8.6-12.7-8-2.6 4.1-4.1-2.6-5.5 8.5 4.1 2.7-2.6 4.1 8.6 5.4 2.6-4.1zm27 18.1l2.6-4.1 5.5-8.6-12.7-8-2.6 4.1-4.1-2.6-5.5 8.6 4.1 2.6-2.6 4.1 8.6 5.4 2.6-4.1z"/><path transform="rotate(32.435 648.248 121.221)" d="M645.4 105.8h5.7v30.9h-5.7z"/><path d="M634.3 148.5l2.6-4.1 5.5-8.6-12.7-8.1-2.6 4.2-4.2-2.7-5.4 8.6 4.1 2.6-2.6 4.1 8.6 5.5 2.6-4.1z"/><path transform="rotate(32.435 675.676 138.647)" d="M672.8 123.2h5.7v30.9h-5.7z"/><path d="M661.7 165.9l2.6-4.1 5.5-8.6-12.7-8-2.6 4.1-4.1-2.6-5.5 8.5 4.1 2.7-2.6 4.1 8.6 5.4 2.6-4.1z"/><path transform="rotate(32.435 673.943 111.078)" d="M654.8 104.2H693V118h-38.2z"/><path class="st9" d="M353.4-288.5h-253v6.6h-6.6v38h6.6v6.7h253v-6.7h6.6v-38h-6.6z"/><path class="st12" d="M353.4-288.5h-253v6.6h-6.6v38h6.6v6.7h253v-6.7h6.6v-38h-6.6z"/><path class="st4" d="M160.2-271h2.3v-2.3h11.4v4.5h-9.1v9.1h9.1v4.5h-11.4v-2.3h-2.3V-271zm20.4 15.9h-4.5V-271h2.3v-2.3h9.1v2.3h2.3v15.9h-4.5v-6.8h-4.5v6.8zm4.6-11.3v-2.3h-4.5v2.3h4.5zm9 9.1H192v-15.9h4.5v13.6h9.1v4.5h-11.4v-2.2zm13.7-15.9h4.5v18.2h-4.5v-18.2zm6.8 0H226v2.3h2.3v13.6H226v2.3h-11.4v-18.2zm4.5 6.8h4.5v-2.3h-4.5v2.3zm0 6.8h4.5v-2.3h-4.5v2.3zm18.2-2.3h-2.3v6.8h-4.5V-271h2.3v-2.3h9.1v2.3h2.3v6.8H242v2.3h2.3v6.8h-4.5v-4.5h-2.3v-2.3zm-2.3-4.5h4.5v-2.3h-4.5v2.3zm15.9 11.3h-4.5V-271h2.3v-2.3h9.1v2.3h2.3v15.9h-4.5v-6.8H251v6.8zm4.6-11.3v-2.3H251v2.3h4.6zm6.8-6.8H276v4.5h-4.5v13.6H267v-13.6h-4.5v-4.5zm18.1 15.9h-2.3V-271h2.3v-2.3h11.4v4.5h-9.1v2.3h4.5v4.5h-4.5v2.3h9.1v4.5h-11.4v-2.1z"/><path class="st9" d="M673.4-220.5h-253v6.6h-6.6v38h6.6v6.7h253v-6.7h6.6v-38h-6.6z"/><path class="st10" d="M673.4-227.1h-253v6.6h-6.6v38.1h6.6v6.6h253v-6.6h6.6v-38.1h-6.6z"/><path class="st4" d="M480.2-209.5h2.3v-2.3h11.4v4.5h-9.1v9.1h9.1v4.5h-11.4v-2.3h-2.3v-13.5zm20.4 15.9h-4.5v-15.9h2.3v-2.3h9.1v2.3h2.3v15.9h-4.5v-6.8h-4.5v6.8zm4.6-11.4v-2.3h-4.5v2.3h4.5zm9 9.1H512v-15.9h4.5v13.6h9.1v4.5h-11.4v-2.2zm13.7-15.9h4.5v18.2h-4.5v-18.2zm6.8 0H546v2.3h2.3v13.6H546v2.3h-11.4v-18.2zm4.5 6.8h4.5v-2.3h-4.5v2.3zm0 6.8h4.5v-2.3h-4.5v2.3zm18.2-2.3h-2.3v6.8h-4.5v-15.9h2.3v-2.3h9.1v2.3h2.3v6.8H562v2.3h2.3v6.8h-4.5v-4.5h-2.3v-2.3zm-2.3-4.5h4.5v-2.3h-4.5v2.3zm15.9 11.4h-4.5v-15.9h2.3v-2.3h9.1v2.3h2.3v15.9h-4.5v-6.8H571v6.8zm4.6-11.4v-2.3H571v2.3h4.6zm6.8-6.8H596v4.5h-4.5v13.6H587v-13.6h-4.5v-4.5zm18.1 15.9h-2.3v-13.6h2.3v-2.3h11.4v4.5h-9.1v2.3h4.5v4.5h-4.5v2.3h9.1v4.5h-11.4v-2.2z"/><path class="st9" d="M415.4-138.2h219.8v28.8H415.4z"/><path class="st9" d="M410.5-144.7h229.4v30.6H410.5z"/><path class="st10" d="M410.5-149.1v29.3h4.9v5.7h219.7v-5.7h4.8v-29.3z"/><path class="st9" d="M630.3-134.2v-5.1h-5.1v-.1H420.1v5.1H415v7.7h5.1v5.1h5.1v.1h200v-.1h5.1v-5.1h5.1v-7.6z"/><path class="st13" d="M406.4-40.1h4.7v.1h-4.7zm0 17.9h4.7v.1h-4.7z"/><path class="st4" d="M427.4-22.2v-5.1h5.1v-7.6h-5.1V-40h-5v-.1h-16v17.9h4.8v.1h11.2v-.1zm-46.8-53.5v-5.1h-5.1v-.1h-15.9v18h21V-68h5.1v-7.7zm-13.5 38.9V-42h-9.6v5.1h-5.1v7.7h5.1v5.2h9.6v-5.2h5.1v-7.6zm-49.8-97.4v-5.2h-9.6v5.1h-5.1v7.7h5.1v5.2h9.6v-5.2h5.1v-7.6z"/><path class="st14" d="M1283.1 255H898.2v10h-10.1v57.9h10.1V333h384.9v-10.1h10.1V265h-10.1z"/><path class="st15" d="M1283.1 245H898.2v10h-10.1v57.9h10.1V323h384.9v-10.1h10.1V255h-10.1z"/><path class="st4" d="M1000.7 295.8h-6.9v-27.6h17.3v3.5h3.5V282h-3.5v3.5h-10.4v10.3zm0-17.2h6.9v-3.5h-6.9v3.5zm20.8 13.8h-3.5v-24.2h6.9v20.7h13.8v6.9h-17.3v-3.4zm27.6 3.4h-6.9v-24.2h3.5v-3.5h13.8v3.5h3.5v24.2h-6.9v-10.4h-6.9v10.4zm6.9-17.2v-3.5h-6.9v3.5h6.9zm10.4-10.4h6.9v10.4h6.9v-10.4h6.9V282h-3.5v3.5h-3.5v10.4h-6.9v-10.4h-3.5V282h-3.5v-13.8zm27.7 24.2h-3.5v-20.7h3.5v-3.5h17.3v6.9h-13.8v3.5h6.9v6.9h-6.9v3.5h13.8v6.9h-17.3v-3.5zm31.1-6.9h-3.5v10.4h-6.9v-27.6h17.3v3.5h3.5V282h-3.5v3.5h3.5v10.4h-6.9V289h-3.5v-3.5zm-3.5-6.9h6.9v-3.5h-6.9v3.5zm41.5-10.4h17.3v3.5h3.5V282h-3.5v3.5h-10.4v3.5h13.8v6.9h-20.7V282h3.5v-3.5h10.4V275h-13.8v-6.8zM909.1 249h45.1v5.7h-45.1zm51.3 0h5.7v5.7h-5.7zm-505.8 1h45.1v5.7h-45.1zm51.3 0h5.7v5.7h-5.7z"/><path class="st16" d="M843.7 90l6.4 5.6-5.6 6.4 20.5 17.3v37.9l20.7-26.1 31.8 29.4 5.8-6.3 5 4.7 71.6-118.7z"/><path class="st17" d="M841.3 82.8l6.3 5.6-5.6 6.4 20.5 17.4v37.9l20.7-26.1 31.8 29.4 5.8-6.3 5 4.6L997.4 33z"/><path class="st18" d="M883.3 123.8L997.7 33l-135.1 79v37.9z"/><path class="st19" d="M840.2 83l6.4 5.6L841 95l20.4 17.3v37.9l20.8-26.1 31.7 29.4 5.9-6.2 4.9 4.6 71.7-118.7z"/><path class="st20" d="M776-223.7v163.6h10.4v9.5h10.4v10.5h447.5v-10.5h10.4v-9.5h10.3v-163.6zm489 0v-94.2h-10.3v-9.5h-10.4v-10.4H796.8v10.4h-10.4v9.5H776v94.2z"/><path class="st21" d="M786.4-321.3h10.4v-8h-10.4v8H776v8h10.4zm10.4-16.7h447.5v8H796.8zm457.9 16.7v-8h-10.4v8h10.4v8h10.3v-8z"/><path d="M382.9-402.2h10.2v10.2h-10.2zm61.4-10.3v5.1h-5.1v5.1h5.1v20.5h5.1v5.1h-5.1v5.1h10.2v-10.2h15.4v5.1h5.1v-35.8h-30.7zm25.6 25.6h-20.5v-20.5h20.5v20.5z"/><path d="M454.6-402.2h10.2v10.2h-10.2zm-71.7 71.7h10.2v10.2h-10.2zm61.4-10.3h5.1v5.1h-5.1zm-25.6 25.6h5.1v5.1h-5.1zm5.2-20.5h5.1v5.1h-5.1zm0 10.3h5.1v5.1h-5.1zm46-25.6h5.1v5.1h-5.1zm-97.2 0h5.1v5.1h-5.1zm0-25.6h5.1v5.1h-5.1zm56.3-30.8v5.2h-10.3v5.1h15.4v-10.3z"/><path d="M469.9-371.5v5.1h-10.2v5.1h-15.4v-5.1h-5.1v5.1H429v5.1h15.4v5.1H429v-5.1h-5.1v5.1h-5.1v-5.1h-5.1v5.1h-5.1v5.1h10.2v5.1h5.1v-5.1h10.2v5.1H429v5.1h5.1v10.2h5.1v5.1h5.1v-5.1h15.4v-10.2h5.1v-5.1h-5.1V-351h-10.2v-5.1h10.2v5.1h5.1v-5.1h5.1v-5.1h5.1v-10.2h-5.1v-.1zm-15.3 25.6v15.4h-15.4v-15.4h15.4zm-15.4-35.9h-5.1v5.2H429v10.2h5.1v-5.1h5.1v-5.1h5.1v-5.2zM429-315.2h10.2v5.1H429zm-15.4-92.2h5.1v5.1h-5.1z"/><path d="M454.6-371.5h5.1v5.1h-5.1zm5.1-5.1h5.1v5.1h-5.1zM393.1-351h5.1v5.1h-5.1zm10.3 35.8v-20.5h5.1v-10.2h-5.1v5.1H388v-5.1h-10.2v5.1h-5.1v30.7h40.9v-5.1h-10.2zm-5.1 0h-20.5v-20.5h20.5v20.5zm5.1-66.6h5.1v5.1h-5.1zm5.1-30.7h-35.8v30.7h5.1v5.1h5.1v-5.1h5.1v5.1h5.1v-5.1h10.2V-392h5.1v-5.1h-5.1v-10.2h10.2v-5.1h-5zm-10.2 25.6h-20.5v-20.5h20.5v20.5zm35.8-10.2h5.1v5.1h-5.1zm-10.2-15.4h5.1v5.1h-5.1z"/><path d="M434.1-381.8v-5.1H429v-5.1h-5.1v5.1h-10.2v-5.1h-5.1v10.2h5.1v10.2h-15.4v-5.1h-5.1v5.1h-15.4v5.1H388v5.1h-15.4v5.1H388v5.1h5.1v-5.1h5.1v5.1h5.1v-5.1h10.2v-5.1h-5.1v-5.1h10.2v5.1h10.2v-5.1h-5.1v-5.1h-5.1v-10.2h15.5zm-30.7 20.5h-10.2v-5.1h10.2v5.1zm15.3 30.8v-10.3h-5.1v5.1h-5.1v5.2h5.1v5.1h-5.1v5.1h10.2v-5.1h5.2v-5.1zm46.1 10.2v-5.1h-5.1v5.1h-15.4v5.1h10.3v5.1h5.1v-5.1h10.2v5.1h5.2v-10.2zm5.1-20.5v5.1h-5.1v5.2h10.3v-10.3z"/><path class="st9" d="M144.5 3.7H3.7v3.6H0v21.2h3.7v3.7h140.8v-3.7h3.7V7.3h-3.7z"/><path class="st12" d="M144.5 3.7H3.7v3.6H0v21.2h3.7v3.7h140.8v-3.7h3.7V7.3h-3.7z"/><path class="st4" d="M31.9 18.5h-1.3v3.8h-2.5V12.2h6.3v1.3h1.3v3.8h-1.3v1.3h1.3v3.8h-2.5v-2.5h-1.3v-1.4zM30.7 16h2.5v-1.3h-2.5V16zm7.5 5H37v-7.6h1.3v-1.3h6.3v2.5h-5.1V16H42v2.5h-2.5v1.3h5.1v2.5h-6.3V21zm8.9 0h-1.3v-7.6h1.3v-1.3h5.1v1.3h1.3V16H51v-1.3h-2.5v5.1H51v-1.3h2.5V21h-1.3v1.3h-5.1V21zm10.1 1.3h-2.5v-8.9H56v-1.3h5v1.3h1.3v8.9h-2.5v-3.8h-2.5v3.8zm2.5-6.3v-1.3h-2.5V16h2.5zm5.1 5h-1.3v-8.9H66v7.6h5.1v2.5h-6.3V21zm7.6-8.8h2.5v10.1h-2.5V12.2zm3.8 0h6.3v1.3h1.3V21h-1.3v1.3h-6.3V12.2zm2.5 3.8h2.5v-1.3h-2.5V16zm0 3.7h2.5v-1.3h-2.5v1.3zm10.1-1.2h-1.3v3.8H85v-8.9h1.3v-1.3h5.1v1.3h1.3v3.8h-1.3v1.3h1.3v3.8h-2.5v-2.5h-1.3v-1.3zM87.6 16h2.5v-1.3h-2.5V16zm8.8 6.3h-2.5v-8.9h1.3v-1.3h5.1v1.3h1.3v8.9h-2.5v-3.8h-2.5v3.8zm2.5-6.3v-1.3h-2.5V16h2.5zm3.8-3.8h7.6v2.5h-2.5v7.6h-2.5v-7.6h-2.5v-2.5zm10.1 8.8h-1.3v-7.6h1.3v-1.3h6.3v2.5H114V16h2.5v2.5H114v1.3h5.1v2.5h-6.3V21zM6.1 5.8h13.1v1.7H6.1zm14.9 0h1.7v1.7H21z"/><path class="st9" d="M144.5 45.7H3.7v3.6H0v21.2h3.7v3.7h140.8v-3.7h3.7V49.3h-3.7z"/><path class="st10" d="M144.5 42H3.7v3.7H0v21.2h3.7v3.6h140.8v-3.6h3.7V45.7h-3.7z"/><path class="st4" d="M31.9 56.8h-1.3v3.8h-2.5V50.5h6.3v1.3h1.3v3.8h-1.3v1.3h1.3v3.8h-2.5v-2.5h-1.3v-1.4zm-1.2-2.5h2.5V53h-2.5v1.3zm7.5 5.1H37v-7.6h1.3v-1.3h6.3V53h-5.1v1.3H42v2.5h-2.5v1.3h5.1v2.5h-6.3v-1.2zm8.9 0h-1.3v-7.6h1.3v-1.3h5.1v1.3h1.3v2.5H51V53h-2.5v5.1H51v-1.3h2.5v2.5h-1.3v1.3h-5.1v-1.2zm10.1 1.2h-2.5v-8.9H56v-1.3h5v1.3h1.3v8.9h-2.5v-3.8h-2.5v3.8zm2.5-6.3V53h-2.5v1.3h2.5zm5.1 5.1h-1.3v-8.9H66v7.6h5.1v2.5h-6.3v-1.2zm7.6-8.9h2.5v10.1h-2.5V50.5zm3.8 0h6.3v1.3h1.3v7.6h-1.3v1.3h-6.3V50.5zm2.5 3.8h2.5V53h-2.5v1.3zm0 3.8h2.5v-1.3h-2.5v1.3zm10.1-1.3h-1.3v3.8H85v-8.9h1.3v-1.3h5.1v1.3h1.3v3.8h-1.3v1.3h1.3v3.8h-2.5v-2.5h-1.3v-1.3zm-1.2-2.5h2.5V53h-2.5v1.3zm8.8 6.3h-2.5v-8.9h1.3v-1.3h5.1v1.3h1.3v8.9h-2.5v-3.8h-2.5v3.8zm2.5-6.3V53h-2.5v1.3h2.5zm3.8-3.8h7.6V53h-2.5v7.6h-2.5V53h-2.5v-2.5zm10.1 8.9h-1.3v-7.6h1.3v-1.3h6.3V53H114v1.3h2.5v2.5H114v1.3h5.1v2.5h-6.3v-1.2zM6.1 44.8h13.1v1.7H6.1zm14.9 0h1.7v1.7H21zm404.9-268.3h23.6v3h-23.6zm26.8 0h3v3h-3zM105.5-285h23.6v3h-23.6zm26.8 0h3v3h-3z"/><path class="st22" d="M75.4-161.5v-7.4H56.8v7.4h-7.5v18.7h7.5v7.4h18.6v-7.4h7.5v-18.7z"/><path class="st23" d="M57.4-135.4v10m17.4-10v10"/><path class="st24" d="M73.9-127.3H58.3v2.2h-2.2v15.5h2.2v2.2h15.6v-2.2H76v-15.5h-2.1z"/><path class="st25" d="M142.5 277.8v-7.9H.8v7.9h-7.9v45.6H.8v7.9h141.7v-7.9h7.9v-45.6z"/><path class="st25" d="M142.5 277.9V270H.8v7.9h-7.9v45.6H.8v7.9h141.7v-7.9h7.9v-45.6z"/><path class="st4" d="M39 311.3h-5.4v-21.8h13.6v2.7h2.7v8.2h-2.7v2.7H39v8.2zm0-13.6h5.4V295H39v2.7zm16.3 10.9h-2.7v-19H58v16.3h10.9v5.4H55.3v-2.7zm21.8 2.7h-5.4v-19h2.7v-2.7h10.9v2.7H88v19h-5.4v-8.2h-5.4v8.2zm5.4-13.6V295h-5.4v2.7h5.4zm8.2-8.1h5.4v8.2h5.4v-8.2h5.4v10.9h-2.7v2.7h-2.7v8.2h-5.4v-8.2h-2.7v-2.7h-2.7v-10.9z"/><path class="st25" d="M312.5 277.8v-7.9H170.8v7.9h-7.9v45.6h7.9v7.9h141.7v-7.9h7.9v-45.6z"/><path class="st22" d="M312.5 269.9V262H170.8v7.9h-7.9v45.6h7.9v7.9h141.7v-7.9h7.9v-45.6z"/><path class="st4" d="M209 303.3h-5.4v-21.8h13.6v2.7h2.7v8.2h-2.7v2.7H209v8.2zm0-13.6h5.4V287H209v2.7zm16.3 10.9h-2.7v-19h5.4v16.3h10.9v5.4h-13.6v-2.7zm21.8 2.7h-5.4v-19h2.7v-2.7h10.9v2.7h2.7v19h-5.4v-8.2h-5.4v8.2zm5.4-13.6V287h-5.4v2.7h5.4zm8.2-8.1h5.4v8.2h5.4v-8.2h5.4v10.9h-2.7v2.7h-2.7v8.2h-5.4v-8.2h-2.7v-2.7h-2.7v-10.9z"/><path class="st26" d="M-681.1 32.2h43.2v108h43.2v-108h43.2v129.6h-21.6v21.6h-21.6V205h-43.2v-21.6h-21.6v-21.6h-21.6V32.2z"/><path class="st27" d="M-529.9 55.9h21.6V34.3h108v43.2h-86.4v21.6h64.8v21.6h21.6v64.8h-21.6v21.6h-108v-43.2h86.4v-21.6h-64.8v-21.6h-21.6V55.9z"/><path class="st28" d="M-681.1 11.1h43.2v108h43.2v-108h43.2v129.6h-21.6v21.6h-21.6v21.6h-43.2v-21.6h-21.6v-21.6h-21.6V11.1z"/><path class="st29" d="M-529.9 32.7h21.6V11.1h108v43.2h-86.4v21.6h64.8v21.6h21.6v64.8h-21.6v21.6h-108v-43.2h86.4v-21.6h-64.8V97.5h-21.6V32.7z"/><path class="st0" d="M-631.7 389.8h27.5v68.7h27.5v-68.7h27.5v82.4H-563v13.7h-13.7v13.7h-27.5v-13.7H-618v-13.7h-13.7v-82.4zm96.1 15h13.7v-13.7h68.7v27.5h-54.9v13.7h41.2V446h13.7v41.2h-13.7v13.7h-68.7v-27.5h54.9v-13.7h-41.2V446h-13.7v-41.2z"/><path class="st7" d="M-631.7 375.3h27.5V444h27.5v-68.7h27.5v82.4H-563v13.7h-13.7v13.7h-27.5v-13.7H-618v-13.7h-13.7v-82.4zm96.1 15h13.7v-13.7h68.7V404h-54.9v13.7h41.2v13.7h13.7v41.2h-13.7v13.7h-68.7V459h54.9v-13.7h-41.2v-13.7h-13.7v-41.3z"/><path class="st4" d="M-631.7 361.9h27.5v68.7h27.5v-68.7h27.5v82.4H-563V458h-13.7v13.7h-27.5V458H-618v-13.7h-13.7v-82.4zm96.1 13.7h13.7v-13.7h68.7v27.5h-54.9v13.7h41.2v13.7h13.7V458h-13.7v13.7h-68.7v-27.5h54.9v-13.7h-41.2v-13.7h-13.7v-41.2z"/></svg>