<?xml version="1.0" encoding="utf-8"?>
<!-- Generator: Adobe Illustrator 22.0.1, SVG Export Plug-In . SVG Version: 6.00 Build 0)  -->
<svg version="1.1" id="Layer_1" xmlns="http://www.w3.org/2000/svg" xmlns:xlink="http://www.w3.org/1999/xlink" x="0px" y="0px"
	 width="148.2px" height="32.2px" viewBox="0 0 148.2 32.2" style="enable-background:new 0 0 148.2 32.2;" xml:space="preserve">
<style type="text/css">
	.st0{fill:#5895B7;}
	.st1{opacity:0.8;}
	.st2{fill:#C17620;}
	.st3{fill:#F4C24A;}
	.st4{fill:#FFFFFF;}
	.st5{fill:#2A6FBA;}
	.st6{fill:#4ABAEF;}
	.st7{fill:#95C9C8;}
	.st8{fill:#DDEFEE;}
	.st9{fill:#1B8E6F;}
	.st10{fill:#3CEA8A;}
	.st11{opacity:0.4;fill:#666666;}
	.st12{fill:#33BC6E;}
	.st13{fill:none;}
	.st14{fill:#7149A4;}
	.st15{fill:#BD86E0;}
	.st16{opacity:0.4;fill:#666666;stroke:#666666;stroke-width:4;stroke-linejoin:bevel;stroke-miterlimit:10;}
	.st17{fill:#F2F2F2;}
	.st18{fill:#E6E6E6;}
	.st19{fill:none;stroke:#000000;stroke-width:4;stroke-linejoin:bevel;stroke-miterlimit:10;}
	.st20{fill:#C6E0DE;}
	.st21{fill:#A7C6C3;}
	.st22{fill:#EE3D53;}
	.st23{fill:none;stroke:#000000;stroke-width:2;stroke-miterlimit:10;}
	.st24{fill:#A17559;}
	.st25{fill:#910E46;}
	.st26{fill:#238D6F;}
	.st27{fill:#704CA2;}
	.st28{fill:#47E88D;}
	.st29{fill:#BC88DE;}
</style>
<g>
	<rect x="524.1" y="505.9" class="st0" width="484" height="82"/>
	<rect x="976.1" y="579.9" class="st0" width="107" height="30"/>
	<g class="st1">
		<g>
			<polygon class="st0" points="540.1,525.9 540.1,607.9 444.1,607.9 444.1,596.9 456.1,596.9 456.1,584.9 468.1,584.9 468.1,572.9 
				480.1,572.9 480.1,560.9 468.1,560.9 468.1,548.9 456.1,548.9 456.1,536.9 444.1,536.9 444.1,525.9 			"/>
		</g>
		<polygon class="st0" points="526.1,583.9 540.1,606.9 540.1,583.9 		"/>
	</g>
	<g>
		<g>
			<polygon class="st2" points="987.1,517.9 987.1,599.9 1083.1,599.9 1083.1,588.9 1071.1,588.9 1071.1,576.9 1059.1,576.9 
				1059.1,564.9 1047.1,564.9 1047.1,552.9 1059.1,552.9 1059.1,540.9 1071.1,540.9 1071.1,528.9 1083.1,528.9 1083.1,517.9 			"/>
			<polygon class="st3" points="987.1,506.9 987.1,588.9 1083.1,588.9 1083.1,577.9 1071.1,577.9 1071.1,565.9 1059.1,565.9 
				1059.1,553.9 1047.1,553.9 1047.1,541.9 1059.1,541.9 1059.1,529.9 1071.1,529.9 1071.1,517.9 1083.1,517.9 1083.1,506.9 			"/>
		</g>
		<polygon class="st2" points="1001.1,575.9 987.1,598.9 987.2,575.9 		"/>
		<g>
			<g>
				<polygon class="st2" points="531.1,517.9 531.1,599.9 435.1,599.9 435.1,588.9 447.1,588.9 447.1,576.9 459.1,576.9 
					459.1,564.9 471.1,564.9 471.1,552.9 459.1,552.9 459.1,540.9 447.1,540.9 447.1,528.9 435.1,528.9 435.1,517.9 				"/>
				<polygon class="st3" points="531.1,506.9 531.1,588.9 435.1,588.9 435.1,577.9 447.1,577.9 447.1,565.9 459.1,565.9 
					459.1,553.9 471.1,553.9 471.1,541.9 459.1,541.9 459.1,529.9 447.1,529.9 447.1,517.9 435.1,517.9 435.1,506.9 				"/>
			</g>
			<polygon class="st2" points="517.1,575.9 531.1,598.9 531.1,575.9 			"/>
		</g>
		<g>
			<rect x="517.1" y="493.9" class="st2" width="484" height="82"/>
			<rect x="517.1" y="481.9" class="st3" width="484" height="82"/>
		</g>
	</g>
	<g>
		<path class="st4" d="M587.7,541.7h-8.6v-34.6h8.6v13h8.6v-13h8.6v34.6h-8.6v-13h-8.6V541.7z"/>
		<path class="st4" d="M609.3,511.5h4.3v-4.3h17.3v4.3h4.3v25.9h-4.3v4.3h-17.3v-4.3h-4.3V511.5z M618,533.1h8.6v-17.3H618V533.1z"
			/>
		<path class="st4" d="M648.2,541.7h-8.6v-34.6h8.6v17.3h4.3v-4.3h4.3v4.3h4.3v-17.3h8.6v34.6h-8.6v-4.3h-4.3v-4.3h-4.3v4.3h-4.3
			V541.7z"/>
		<path class="st4" d="M704.4,507.2h25.9v8.6h-8.6v25.9H713v-25.9h-8.6V507.2z"/>
		<path class="st4" d="M734.6,511.5h4.3v-4.3h17.3v4.3h4.3v25.9h-4.3v4.3h-17.3v-4.3h-4.3V511.5z M743.2,533.1h8.6v-17.3h-8.6V533.1
			z"/>
		<path class="st4" d="M803.7,541.7h-8.6v-34.6h21.6v4.3h4.3v13h-4.3v4.3h-13V541.7z M803.7,520.1h8.6v-4.3h-8.6V520.1z"/>
		<path class="st4" d="M829.6,537.4h-4.3v-30.2h8.6v25.9h17.3v8.6h-21.6V537.4z"/>
		<path class="st4" d="M864.2,541.7h-8.6v-30.2h4.3v-4.3h17.3v4.3h4.3v30.2h-8.6v-13h-8.6V541.7z M872.8,520.1v-4.3h-8.6v4.3H872.8z
			"/>
		<path class="st4" d="M885.8,507.2h8.6v13h8.6v-13h8.6v17.3h-4.3v4.3h-4.3v13h-8.6v-13h-4.3v-4.3h-4.3V507.2z"/>
	</g>
</g>
<polygon class="st5" points="693.1,774.9 681.1,774.9 608.1,774.9 608.1,786.9 596.1,786.9 596.1,871.9 608.1,871.9 608.1,883.9 
	681.1,883.9 693.1,883.9 693.1,871.9 705.1,871.9 705.1,786.9 693.1,786.9 "/>
<polygon class="st5" points="693.1,774.9 681.1,774.9 608.1,774.9 608.1,786.9 596.1,786.9 596.1,871.9 608.1,871.9 608.1,883.9 
	681.1,883.9 693.1,883.9 693.1,871.9 705.1,871.9 705.1,786.9 693.1,786.9 "/>
<g>
	<path class="st4" d="M632.7,809.2h28.4v5.7h5.7v17.1h-5.7v5.7h-17.1v-11.4h11.4v-5.7h-22.8V809.2z M644.1,843.3h11.4v11.4h-11.4
		V843.3z"/>
</g>
<polygon class="st5" points="844.1,774.9 832.1,774.9 759.1,774.9 759.1,786.9 747.1,786.9 747.1,871.9 759.1,871.9 759.1,883.9 
	832.1,883.9 844.1,883.9 844.1,871.9 856.1,871.9 856.1,786.9 844.1,786.9 "/>
<polygon class="st6" points="844.1,764.9 832.1,764.9 759.1,764.9 759.1,776.9 747.1,776.9 747.1,861.9 759.1,861.9 759.1,873.9 
	832.1,873.9 844.1,873.9 844.1,861.9 856.1,861.9 856.1,776.9 844.1,776.9 "/>
<g>
	<path class="st4" d="M783.7,799.2h28.4v5.7h5.7v17.1h-5.7v5.7h-17.1v-11.4h11.4v-5.7h-22.8V799.2z M795.1,833.3h11.4v11.4h-11.4
		V833.3z"/>
</g>
<g>
	<polygon class="st0" points="1879.1,619.5 1867.5,619.5 1867.5,607.8 1856,607.8 1856,595 1357.2,595 1357.2,607.8 1345.7,607.8 
		1345.7,619.5 1334.1,619.5 1334.1,1304.2 1345.7,1304.2 1345.7,1315.8 1357.2,1315.8 1357.2,1328.6 1856,1328.6 1856,1315.8 
		1867.5,1315.8 1867.5,1304.2 1879.1,1304.2 	"/>
	<polygon class="st7" points="1879.1,607.4 1867.5,607.4 1867.5,595.8 1856,595.8 1856,583 1357.2,583 1357.2,595.8 1345.7,595.8 
		1345.7,607.4 1334.1,607.4 1334.1,1292.2 1345.7,1292.2 1345.7,1303.8 1357.2,1303.8 1357.2,1316.6 1856,1316.6 1856,1303.8 
		1867.5,1303.8 1867.5,1292.2 1879.1,1292.2 	"/>
	<polygon class="st8" points="1879.1,595.4 1867.5,595.4 1867.5,583.8 1856,583.8 1856,571 1357.2,571 1357.2,583.8 1345.7,583.8 
		1345.7,595.4 1334.1,595.4 1334.1,1280.1 1345.7,1280.1 1345.7,1291.8 1357.2,1291.8 1357.2,1304.6 1856,1304.6 1856,1291.8 
		1867.5,1291.8 1867.5,1280.1 1879.1,1280.1 	"/>
</g>
<g>
	<polygon class="st9" points="830.1,255 820.1,255 445.2,255 445.2,265 435.1,265 435.1,322.9 445.2,322.9 445.2,333 820.1,333 
		830.1,333 830.1,322.9 840.2,322.9 840.2,265 830.1,265 	"/>
	<polygon class="st10" points="830.1,245 820.1,245 445.2,245 445.2,255 435.1,255 435.1,312.9 445.2,312.9 445.2,323 820.1,323 
		830.1,323 830.1,312.9 840.2,312.9 840.2,255 830.1,255 	"/>
	<g>
		<path class="st4" d="M555.2,295.8h-6.9v-27.6h17.3v3.5h3.5V282h-3.5v3.5h-10.4V295.8z M555.2,278.6h6.9v-3.5h-6.9V278.6z"/>
		<path class="st4" d="M575.9,292.4h-3.5v-24.2h6.9v20.7h13.8v6.9h-17.3V292.4z"/>
		<path class="st4" d="M603.5,295.8h-6.9v-24.2h3.5v-3.5h13.8v3.5h3.5v24.2h-6.9v-10.4h-6.9V295.8z M610.5,278.6v-3.5h-6.9v3.5
			H610.5z"/>
		<path class="st4" d="M620.8,268.2h6.9v10.4h6.9v-10.4h6.9V282h-3.5v3.5h-3.5v10.4h-6.9v-10.4h-3.5V282h-3.5V268.2z"/>
		<path class="st4" d="M648.5,292.4H645v-20.7h3.5v-3.5h17.3v6.9h-13.8v3.5h6.9v6.9h-6.9v3.5h13.8v6.9h-17.3V292.4z"/>
		<path class="st4" d="M679.6,285.5h-3.5v10.4h-6.9v-27.6h17.3v3.5h3.5V282h-3.5v3.5h3.5v10.4H683v-6.9h-3.5V285.5z M676.1,278.6
			h6.9v-3.5h-6.9V278.6z"/>
		<path class="st4" d="M717.6,268.2h6.9v27.6h-6.9V268.2z"/>
	</g>
</g>
<g>
	<polygon class="st11" points="469.3,134.4 467.3,128.6 463.3,116.6 445.5,122.6 447.4,128.4 441.7,130.3 445.7,142.3 451.5,140.4 
		453.4,146.2 465.5,142.1 463.5,136.3 	"/>
	<polygon class="st11" points="508.1,122.3 506.1,116.5 502.1,104.5 484.3,110.5 486.2,116.3 480.4,118.3 484.5,130.3 490.3,128.3 
		492.2,134.1 504.3,130 502.3,124.3 	"/>
	<rect x="448.5" y="75.3" transform="matrix(0.9472 -0.3207 0.3207 0.9472 -6.469 149.9933)" width="7.1" height="38.6"/>
	<polygon points="467.7,129.6 465.7,123.8 461.6,111.8 443.8,117.8 445.8,123.6 440,125.5 444.1,137.5 449.9,135.6 451.8,141.4 
		463.8,137.3 461.9,131.5 	"/>
	<rect x="487" y="62.3" transform="matrix(0.9472 -0.3207 0.3207 0.9472 -0.259 161.643)" width="7.1" height="38.6"/>
	<polygon points="506.1,116.5 504.2,110.8 500.1,98.7 482.3,104.8 484.3,110.5 478.5,112.5 482.6,124.5 488.3,122.6 490.3,128.3 
		502.3,124.3 500.4,118.5 	"/>
	<rect x="438.5" y="53" transform="matrix(0.9472 -0.3207 0.3207 0.9472 4.6452 151.5487)" width="47.7" height="17.3"/>
</g>
<g>
	<polygon class="st11" points="535.5,167.9 536.4,163.8 538.3,155.2 525.5,152.3 524.6,156.5 520.5,155.6 518.6,164.2 522.7,165.1 
		521.8,169.3 530.4,171.2 531.3,167 	"/>
	<polygon class="st11" points="563,174.7 563.9,170.6 565.8,161.9 553,159.1 552.1,163.3 548,162.4 546.1,171 550.2,171.9 
		549.3,176.1 557.9,178 558.9,173.8 	"/>
	<rect x="537.1" y="124.6" transform="matrix(0.9766 0.2149 -0.2149 0.9766 42.264 -112.7169)" width="5" height="26.9"/>
	<polygon points="536.3,164.5 537.2,160.3 539.1,151.7 526.3,148.9 525.4,153 521.2,152.1 519.3,160.8 523.5,161.7 522.6,165.8 
		531.2,167.7 532.1,163.6 	"/>
	<rect x="564.7" y="130.7" transform="matrix(0.9766 0.2149 -0.2149 0.9766 44.2181 -118.5189)" width="5" height="26.9"/>
	<polygon points="563.9,170.6 564.8,166.4 566.7,157.8 553.9,155 553,159.1 548.9,158.2 547,166.8 551.1,167.8 550.2,171.9 
		558.9,173.8 559.8,169.7 	"/>
	<rect x="540.9" y="116" transform="matrix(0.9766 0.2149 -0.2149 0.9766 39.2522 -116.9613)" width="33.3" height="12"/>
</g>
<g>
	<polygon class="st11" points="611.5,106.1 610.8,103.1 609.4,96.8 600,98.8 600.7,101.9 597.7,102.6 599.1,108.9 602.1,108.2 
		602.8,111.3 609.1,109.9 608.5,106.8 	"/>
	<polygon class="st11" points="631.9,102.1 631.3,99.1 629.8,92.7 620.5,94.8 621.1,97.9 618.1,98.6 619.5,104.9 622.5,104.2 
		623.2,107.3 629.6,105.9 628.9,102.8 	"/>
	<rect x="603.1" y="75.1" transform="matrix(0.9761 -0.2173 0.2173 0.9761 -4.0091 133.475)" width="3.6" height="19.8"/>
	<polygon points="611,103.6 610.3,100.6 608.9,94.2 599.5,96.3 600.1,99.4 597.1,100 598.5,106.4 601.6,105.7 602.2,108.7 
		608.6,107.3 607.9,104.3 	"/>
	<rect x="623.4" y="70.6" transform="matrix(0.9761 -0.2173 0.2173 0.9761 -2.5416 137.7798)" width="3.6" height="19.8"/>
	<polygon points="631.3,99.1 630.6,96 629.2,89.7 619.8,91.8 620.5,94.8 617.4,95.5 618.8,101.9 621.9,101.2 622.5,104.2 
		628.9,102.8 628.2,99.8 	"/>
	<rect x="599.8" y="64.3" transform="matrix(0.9761 -0.2173 0.2173 0.9761 -0.3158 134.6185)" width="24.4" height="8.8"/>
</g>
<g>
	<polygon class="st11" points="632.1,151.9 634.7,147.8 640.2,139.2 627.5,131.2 624.9,135.3 620.8,132.7 615.3,141.2 619.4,143.9 
		616.8,148 625.4,153.4 628,149.3 	"/>
	<polygon class="st11" points="659.1,170 661.7,165.9 667.2,157.3 654.5,149.3 651.9,153.4 647.8,150.8 642.3,159.4 646.4,162 
		643.8,166.1 652.4,171.5 655,167.4 	"/>
	<rect x="645.4" y="105.8" transform="matrix(0.844 0.5363 -0.5363 0.844 166.1376 -328.7451)" width="5.7" height="30.9"/>
	<polygon points="634.3,148.5 636.9,144.4 642.4,135.8 629.7,127.7 627.1,131.9 622.9,129.2 617.5,137.8 621.6,140.4 619,144.5 
		627.6,150 630.2,145.9 	"/>
	<rect x="672.8" y="123.2" transform="matrix(0.844 0.5363 -0.5363 0.844 179.762 -340.736)" width="5.7" height="30.9"/>
	<polygon points="661.7,165.9 664.3,161.8 669.8,153.2 657.1,145.2 654.5,149.3 650.4,146.7 644.9,155.2 649,157.9 646.4,162 
		655,167.4 657.6,163.3 	"/>
	<rect x="654.8" y="104.2" transform="matrix(0.844 0.5363 -0.5363 0.844 164.7061 -344.1073)" width="38.2" height="13.8"/>
</g>
<g>
	<polygon class="st9" points="353.4,-288.5 346.8,-288.5 100.4,-288.5 100.4,-281.9 93.8,-281.9 93.8,-243.9 100.4,-243.9 
		100.4,-237.2 346.8,-237.2 353.4,-237.2 353.4,-243.9 360,-243.9 360,-281.9 353.4,-281.9 	"/>
	<polygon class="st12" points="353.4,-288.5 346.8,-288.5 100.4,-288.5 100.4,-281.9 93.8,-281.9 93.8,-243.9 100.4,-243.9 
		100.4,-237.2 346.8,-237.2 353.4,-237.2 353.4,-243.9 360,-243.9 360,-281.9 353.4,-281.9 	"/>
	<g>
		<path class="st4" d="M160.2-271h2.3v-2.3h11.4v4.5h-9.1v9.1h9.1v4.5h-11.4v-2.3h-2.3V-271z"/>
		<path class="st4" d="M180.6-255.1h-4.5V-271h2.3v-2.3h9.1v2.3h2.3v15.9h-4.5v-6.8h-4.5V-255.1z M185.2-266.4v-2.3h-4.5v2.3H185.2z
			"/>
		<path class="st4" d="M194.2-257.3H192v-15.9h4.5v13.6h9.1v4.5h-11.4V-257.3z"/>
		<path class="st4" d="M207.9-273.2h4.5v18.2h-4.5V-273.2z"/>
		<path class="st4" d="M214.7-273.2H226v2.3h2.3v13.6H226v2.3h-11.4V-273.2z M219.2-266.4h4.5v-2.3h-4.5V-266.4z M219.2-259.6h4.5
			v-2.3h-4.5V-259.6z"/>
		<path class="st4" d="M237.4-261.9h-2.3v6.8h-4.5V-271h2.3v-2.3h9.1v2.3h2.3v6.8h-2.3v2.3h2.3v6.8h-4.5v-4.5h-2.3V-261.9z
			 M235.1-266.4h4.5v-2.3h-4.5V-266.4z"/>
		<path class="st4" d="M251-255.1h-4.5V-271h2.3v-2.3h9.1v2.3h2.3v15.9h-4.5v-6.8H251V-255.1z M255.6-266.4v-2.3H251v2.3H255.6z"/>
		<path class="st4" d="M262.4-273.2H276v4.5h-4.5v13.6h-4.5v-13.6h-4.5V-273.2z"/>
		<path class="st4" d="M280.5-257.3h-2.3V-271h2.3v-2.3h11.4v4.5h-9.1v2.3h4.5v4.5h-4.5v2.3h9.1v4.5h-11.4V-257.3z"/>
	</g>
</g>
<g>
	<polygon class="st9" points="673.4,-220.5 666.8,-220.5 420.4,-220.5 420.4,-213.9 413.8,-213.9 413.8,-175.9 420.4,-175.9 
		420.4,-169.2 666.8,-169.2 673.4,-169.2 673.4,-175.9 680,-175.9 680,-213.9 673.4,-213.9 	"/>
	<polygon class="st10" points="673.4,-227.1 666.8,-227.1 420.4,-227.1 420.4,-220.5 413.8,-220.5 413.8,-182.4 420.4,-182.4 
		420.4,-175.8 666.8,-175.8 673.4,-175.8 673.4,-182.4 680,-182.4 680,-220.5 673.4,-220.5 	"/>
	<g>
		<path class="st4" d="M480.2-209.5h2.3v-2.3h11.4v4.5h-9.1v9.1h9.1v4.5h-11.4v-2.3h-2.3V-209.5z"/>
		<path class="st4" d="M500.6-193.6h-4.5v-15.9h2.3v-2.3h9.1v2.3h2.3v15.9h-4.5v-6.8h-4.5V-193.6z M505.2-205v-2.3h-4.5v2.3H505.2z"
			/>
		<path class="st4" d="M514.2-195.9H512v-15.9h4.5v13.6h9.1v4.5h-11.4V-195.9z"/>
		<path class="st4" d="M527.9-211.8h4.5v18.2h-4.5V-211.8z"/>
		<path class="st4" d="M534.7-211.8H546v2.3h2.3v13.6H546v2.3h-11.4V-211.8z M539.2-205h4.5v-2.3h-4.5V-205z M539.2-198.2h4.5v-2.3
			h-4.5V-198.2z"/>
		<path class="st4" d="M557.4-200.5h-2.3v6.8h-4.5v-15.9h2.3v-2.3h9.1v2.3h2.3v6.8h-2.3v2.3h2.3v6.8h-4.5v-4.5h-2.3V-200.5z
			 M555.1-205h4.5v-2.3h-4.5V-205z"/>
		<path class="st4" d="M571-193.6h-4.5v-15.9h2.3v-2.3h9.1v2.3h2.3v15.9h-4.5v-6.8H571V-193.6z M575.6-205v-2.3H571v2.3H575.6z"/>
		<path class="st4" d="M582.4-211.8H596v4.5h-4.5v13.6h-4.5v-13.6h-4.5V-211.8z"/>
		<path class="st4" d="M600.5-195.9h-2.3v-13.6h2.3v-2.3h11.4v4.5h-9.1v2.3h4.5v4.5h-4.5v2.3h9.1v4.5h-11.4V-195.9z"/>
	</g>
</g>
<g>
	<rect x="415.4" y="-138.2" class="st9" width="219.8" height="28.8"/>
	<rect x="410.5" y="-144.7" class="st9" width="229.4" height="30.6"/>
	<polygon class="st10" points="410.5,-149.1 410.5,-119.8 415.4,-119.8 415.4,-114.1 635.1,-114.1 635.1,-119.8 639.9,-119.8 
		639.9,-149.1 	"/>
</g>
<polygon class="st9" points="630.3,-134.2 630.3,-139.3 625.2,-139.3 625.2,-139.4 568.6,-139.4 538,-139.4 512.4,-139.4 
	488.6,-139.4 425.2,-139.4 425.2,-139.4 420.1,-139.4 420.1,-134.3 415,-134.3 415,-126.6 420.1,-126.6 420.1,-121.5 425.2,-121.5 
	425.2,-121.4 488.6,-121.4 512.4,-121.4 538,-121.4 568.6,-121.4 625.2,-121.4 625.2,-121.5 630.3,-121.5 630.3,-126.6 
	635.4,-126.6 635.4,-134.2 "/>
<g>
	<rect x="406.4" y="-40.1" class="st13" width="4.7" height="0.1"/>
	<rect x="406.4" y="-22.2" class="st13" width="4.7" height="0.1"/>
	<polygon class="st4" points="427.4,-22.2 427.4,-27.3 432.5,-27.3 432.5,-34.9 427.4,-34.9 427.4,-40 422.4,-40 422.4,-40.1 
		411.2,-40.1 411.2,-40.1 406.4,-40.1 406.4,-22.2 411.2,-22.2 411.2,-22.1 422.4,-22.1 422.4,-22.2 	"/>
</g>
<g>
	<polygon class="st4" points="380.6,-75.7 380.6,-80.8 375.5,-80.8 375.5,-80.9 359.6,-80.9 359.6,-62.9 375.5,-62.9 375.5,-62.9 
		380.6,-62.9 380.6,-68 385.7,-68 385.7,-75.7 	"/>
	<polygon class="st4" points="367.1,-36.8 367.1,-41.9 367.1,-41.9 367.1,-42 362.6,-42 362,-42 357.5,-42 357.5,-42 357.5,-42 
		357.5,-36.9 352.4,-36.9 352.4,-29.2 357.5,-29.2 357.5,-24.1 357.5,-24.1 357.5,-24 362,-24 362.6,-24 367.1,-24 367.1,-24.1 
		367.1,-24.1 367.1,-29.2 372.2,-29.2 372.2,-36.8 	"/>
</g>
<polygon class="st4" points="317.3,-134.2 317.3,-139.3 317.3,-139.3 317.3,-139.4 312.8,-139.4 312.2,-139.4 307.7,-139.4 
	307.7,-139.4 307.7,-139.4 307.7,-134.3 302.6,-134.3 302.6,-126.6 307.7,-126.6 307.7,-121.5 307.7,-121.5 307.7,-121.4 
	312.2,-121.4 312.8,-121.4 317.3,-121.4 317.3,-121.5 317.3,-121.5 317.3,-126.6 322.4,-126.6 322.4,-134.2 "/>
<polygon class="st14" points="1283.1,255 1273.1,255 898.2,255 898.2,265 888.1,265 888.1,322.9 898.2,322.9 898.2,333 1273.1,333 
	1283.1,333 1283.1,322.9 1293.2,322.9 1293.2,265 1283.1,265 "/>
<polygon class="st15" points="1283.1,245 1273.1,245 898.2,245 898.2,255 888.1,255 888.1,312.9 898.2,312.9 898.2,323 1273.1,323 
	1283.1,323 1283.1,312.9 1293.2,312.9 1293.2,255 1283.1,255 "/>
<g>
	<path class="st4" d="M1000.7,295.8h-6.9v-27.6h17.3v3.5h3.5V282h-3.5v3.5h-10.4V295.8z M1000.7,278.6h6.9v-3.5h-6.9V278.6z"/>
	<path class="st4" d="M1021.5,292.4h-3.5v-24.2h6.9v20.7h13.8v6.9h-17.3V292.4z"/>
	<path class="st4" d="M1049.1,295.8h-6.9v-24.2h3.5v-3.5h13.8v3.5h3.5v24.2h-6.9v-10.4h-6.9V295.8z M1056,278.6v-3.5h-6.9v3.5H1056z
		"/>
	<path class="st4" d="M1066.4,268.2h6.9v10.4h6.9v-10.4h6.9V282h-3.5v3.5h-3.5v10.4h-6.9v-10.4h-3.5V282h-3.5V268.2z"/>
	<path class="st4" d="M1094.1,292.4h-3.5v-20.7h3.5v-3.5h17.3v6.9h-13.8v3.5h6.9v6.9h-6.9v3.5h13.8v6.9h-17.3V292.4z"/>
	<path class="st4" d="M1125.2,285.5h-3.5v10.4h-6.9v-27.6h17.3v3.5h3.5V282h-3.5v3.5h3.5v10.4h-6.9v-6.9h-3.5V285.5z M1121.7,278.6
		h6.9v-3.5h-6.9V278.6z"/>
	<path class="st4" d="M1163.2,268.2h17.3v3.5h3.5V282h-3.5v3.5h-10.4v3.5h13.8v6.9h-20.7V282h3.5v-3.5h10.4v-3.5h-13.8V268.2z"/>
</g>
<g>
	<rect x="909.1" y="249" class="st4" width="45.1" height="5.7"/>
	<rect x="960.4" y="249" class="st4" width="5.7" height="5.7"/>
</g>
<g>
	<rect x="454.6" y="250" class="st4" width="45.1" height="5.7"/>
	<rect x="505.9" y="250" class="st4" width="5.7" height="5.7"/>
</g>
<polygon class="st16" points="843.7,90 850.1,95.6 844.5,102 865,119.3 865,157.2 885.7,131.1 917.5,160.5 923.3,154.2 928.3,158.9 
	999.9,40.2 "/>
<polygon class="st17" points="841.3,82.8 847.6,88.4 842,94.8 862.5,112.2 862.5,150.1 883.2,124 915,153.4 920.8,147.1 
	925.8,151.7 997.4,33 "/>
<polygon class="st18" points="883.3,123.8 997.7,33 862.6,112 862.6,149.9 "/>
<polygon class="st19" points="840.2,83 846.6,88.6 841,95 861.4,112.3 861.4,150.2 882.2,124.1 913.9,153.5 919.8,147.3 
	924.7,151.9 996.4,33.2 "/>
<g>
	<polygon class="st20" points="776,-223.7 776,-60.1 786.4,-60.1 786.4,-50.6 796.8,-50.6 796.8,-40.1 1244.3,-40.1 1244.3,-50.6 
		1254.7,-50.6 1254.7,-60.1 1265,-60.1 1265,-223.7 	"/>
	<polygon class="st20" points="1265,-223.7 1265,-317.9 1254.7,-317.9 1254.7,-327.4 1244.3,-327.4 1244.3,-337.8 796.8,-337.8 
		796.8,-327.4 786.4,-327.4 786.4,-317.9 776,-317.9 776,-223.7 	"/>
</g>
<g>
	<polygon class="st21" points="786.4,-321.3 796.8,-321.3 796.8,-329.3 786.4,-329.3 786.4,-321.3 776,-321.3 776,-313.3 
		786.4,-313.3 	"/>
	<rect x="796.8" y="-338" class="st21" width="447.5" height="8"/>
	<polygon class="st21" points="1254.7,-321.3 1254.7,-329.3 1244.3,-329.3 1244.3,-321.3 1254.7,-321.3 1254.7,-313.3 1265,-313.3 
		1265,-321.3 	"/>
</g>
<g>
	<g>
		<g>
			<rect x="382.9" y="-402.2" width="10.2" height="10.2"/>
		</g>
	</g>
	<g>
		<g>
			<path d="M444.3-412.5v5.1h-5.1v5.1h5.1v20.5h5.1v5.1h-5.1v5.1h5.1h5.1v-10.2h15.4v5.1h5.1v-5.1v-30.7H444.3z M469.9-386.9h-20.5
				v-20.5h20.5V-386.9z"/>
		</g>
	</g>
	<g>
		<g>
			<rect x="454.6" y="-402.2" width="10.2" height="10.2"/>
		</g>
	</g>
	<g>
		<g>
			<rect x="382.9" y="-330.5" width="10.2" height="10.2"/>
		</g>
	</g>
	<g>
		<g>
			<rect x="444.3" y="-340.8" width="5.1" height="5.1"/>
		</g>
	</g>
	<g>
		<g>
			<rect x="418.7" y="-315.2" width="5.1" height="5.1"/>
		</g>
	</g>
	<g>
		<g>
			<rect x="423.9" y="-335.7" width="5.1" height="5.1"/>
		</g>
	</g>
	<g>
		<g>
			<rect x="423.9" y="-325.4" width="5.1" height="5.1"/>
		</g>
	</g>
	<g>
		<g>
			<rect x="469.9" y="-351" width="5.1" height="5.1"/>
		</g>
	</g>
	<g>
		<g>
			<rect x="372.7" y="-351" width="5.1" height="5.1"/>
		</g>
	</g>
	<g>
		<g>
			<rect x="372.7" y="-376.6" width="5.1" height="5.1"/>
		</g>
	</g>
	<g>
		<g>
			<polygon points="429,-407.4 429,-402.2 418.7,-402.2 418.7,-397.1 434.1,-397.1 434.1,-402.2 434.1,-407.4 			"/>
		</g>
	</g>
	<g>
		<g>
			<path d="M469.9-371.5v5.1h-10.2v5.1h-15.4v-5.1h-5.1v5.1H429v5.1h15.4v5.1h-10.2H429v-5.1h-5.1v5.1h-5.1v-5.1h-5.1v5.1h-5.1v5.1
				h10.2v5.1h5.1v-5.1h10.2v5.1H429v5.1h5.1v10.2h5.1v5.1h5.1v-5.1h15.4v-10.2h5.1v-5.1h-5.1V-351h-10.2v-5.1h10.2v5.1h5.1v-5.1h5.1
				v-5.1h5.1v-5.1v-5.1H469.9L469.9-371.5z M454.6-345.9v15.4h-15.4v-15.4H454.6z"/>
		</g>
	</g>
	<g>
		<g>
			<polygon points="439.2,-381.8 434.1,-381.8 434.1,-376.6 429,-376.6 429,-371.5 429,-366.4 434.1,-366.4 434.1,-371.5 
				439.2,-371.5 439.2,-376.6 444.3,-376.6 444.3,-381.8 			"/>
		</g>
	</g>
	<g>
		<g>
			<rect x="429" y="-315.2" width="10.2" height="5.1"/>
		</g>
	</g>
	<g>
		<g>
			<rect x="413.6" y="-407.4" width="5.1" height="5.1"/>
		</g>
	</g>
	<g>
		<g>
			<rect x="454.6" y="-371.5" width="5.1" height="5.1"/>
		</g>
	</g>
	<g>
		<g>
			<rect x="459.7" y="-376.6" width="5.1" height="5.1"/>
		</g>
	</g>
	<g>
		<g>
			<rect x="393.1" y="-351" width="5.1" height="5.1"/>
		</g>
	</g>
	<g>
		<g>
			<path d="M403.4-315.2v-20.5h5.1v-5.1v-5.1h-5.1v5.1H388v-5.1h-5.1h-5.1v5.1h-5.1v30.7h30.7h10.2v-5.1H403.4z M398.3-315.2h-20.5
				v-20.5h20.5V-315.2z"/>
		</g>
	</g>
	<g>
		<g>
			<rect x="403.4" y="-381.8" width="5.1" height="5.1"/>
		</g>
	</g>
	<g>
		<g>
			<path d="M408.5-412.5h-5.1h-30.7v30.7h5.1v5.1h5.1v-5.1h5.1v5.1h5.1v-5.1h10.2V-392h5.1v-5.1h-5.1v-10.2h5.1h5.1v-5.1H408.5z
				 M398.3-386.9h-20.5v-20.5h20.5V-386.9z"/>
		</g>
	</g>
	<g>
		<g>
			<rect x="434.1" y="-397.1" width="5.1" height="5.1"/>
		</g>
	</g>
	<g>
		<g>
			<rect x="423.9" y="-412.5" width="5.1" height="5.1"/>
		</g>
	</g>
	<g>
		<g>
			<path d="M434.1-381.8v-5.1H429v-5.1h-5.1v5.1h-10.2v-5.1h-5.1v5.1v5.1h5.1v10.2h-15.4v-5.1h-5.1v5.1h-15.4v5.1H388v5.1h-15.4v5.1
				H388v5.1h5.1v-5.1h5.1v5.1h5.1v-5.1h10.2v-5.1h-5.1v-5.1h5.1h5.1v5.1h5.1h5.1v-5.1h-5.1v-5.1h-5.1v-10.2H434.1L434.1-381.8z
				 M403.4-361.3h-10.2v-5.1h10.2V-361.3z"/>
		</g>
	</g>
	<g>
		<g>
			<polygon points="418.7,-330.5 418.7,-335.7 418.7,-340.8 413.6,-340.8 413.6,-335.7 408.5,-335.7 408.5,-330.5 413.6,-330.5 
				413.6,-325.4 408.5,-325.4 408.5,-320.3 418.7,-320.3 418.7,-325.4 423.9,-325.4 423.9,-330.5 			"/>
		</g>
	</g>
	<g>
		<g>
			<polygon points="464.8,-320.3 464.8,-325.4 459.7,-325.4 459.7,-320.3 444.3,-320.3 444.3,-315.2 454.6,-315.2 454.6,-310.1 
				459.7,-310.1 459.7,-315.2 469.9,-315.2 469.9,-310.1 475.1,-310.1 475.1,-315.2 475.1,-320.3 			"/>
		</g>
	</g>
	<g>
		<g>
			<polygon points="469.9,-340.8 469.9,-335.7 464.8,-335.7 464.8,-330.5 475.1,-330.5 475.1,-335.7 475.1,-340.8 			"/>
		</g>
	</g>
</g>
<g>
	<g>
		<polygon class="st9" points="144.5,3.7 140.9,3.7 3.7,3.7 3.7,7.3 0,7.3 0,28.5 3.7,28.5 3.7,32.2 140.9,32.2 144.5,32.2 
			144.5,28.5 148.2,28.5 148.2,7.3 144.5,7.3 		"/>
		<polygon class="st12" points="144.5,3.7 140.9,3.7 3.7,3.7 3.7,7.3 0,7.3 0,28.5 3.7,28.5 3.7,32.2 140.9,32.2 144.5,32.2 
			144.5,28.5 148.2,28.5 148.2,7.3 144.5,7.3 		"/>
		<g>
			<path class="st4" d="M31.9,18.5h-1.3v3.8h-2.5V12.2h6.3v1.3h1.3v3.8h-1.3v1.3h1.3v3.8h-2.5v-2.5h-1.3V18.5z M30.7,16h2.5v-1.3
				h-2.5V16z"/>
			<path class="st4" d="M38.2,21H37v-7.6h1.3v-1.3h6.3v2.5h-5.1V16H42v2.5h-2.5v1.3h5.1v2.5h-6.3V21z"/>
			<path class="st4" d="M47.1,21h-1.3v-7.6h1.3v-1.3h5.1v1.3h1.3V16h-2.5v-1.3h-2.5v5.1h2.5v-1.3h2.5V21h-1.3v1.3h-5.1V21z"/>
			<path class="st4" d="M57.2,22.3h-2.5v-8.9h1.3v-1.3H61v1.3h1.3v8.9h-2.5v-3.8h-2.5V22.3z M59.7,16v-1.3h-2.5V16H59.7z"/>
			<path class="st4" d="M64.8,21h-1.3v-8.9h2.5v7.6h5.1v2.5h-6.3V21z"/>
			<path class="st4" d="M72.4,12.2h2.5v10.1h-2.5V12.2z"/>
			<path class="st4" d="M76.2,12.2h6.3v1.3h1.3V21h-1.3v1.3h-6.3V12.2z M78.7,16h2.5v-1.3h-2.5V16z M78.7,19.7h2.5v-1.3h-2.5V19.7z"
				/>
			<path class="st4" d="M88.8,18.5h-1.3v3.8H85v-8.9h1.3v-1.3h5.1v1.3h1.3v3.8h-1.3v1.3h1.3v3.8h-2.5v-2.5h-1.3V18.5z M87.6,16h2.5
				v-1.3h-2.5V16z"/>
			<path class="st4" d="M96.4,22.3h-2.5v-8.9h1.3v-1.3h5.1v1.3h1.3v8.9h-2.5v-3.8h-2.5V22.3z M98.9,16v-1.3h-2.5V16H98.9z"/>
			<path class="st4" d="M102.7,12.2h7.6v2.5h-2.5v7.6h-2.5v-7.6h-2.5V12.2z"/>
			<path class="st4" d="M112.8,21h-1.3v-7.6h1.3v-1.3h6.3v2.5h-5.1V16h2.5v2.5h-2.5v1.3h5.1v2.5h-6.3V21z"/>
		</g>
	</g>
	<g>
		<rect x="6.1" y="5.8" class="st4" width="13.1" height="1.7"/>
		<rect x="21" y="5.8" class="st4" width="1.7" height="1.7"/>
	</g>
</g>
<g>
	<g>
		<polygon class="st9" points="144.5,45.7 140.9,45.7 3.7,45.7 3.7,49.3 0,49.3 0,70.5 3.7,70.5 3.7,74.2 140.9,74.2 144.5,74.2 
			144.5,70.5 148.2,70.5 148.2,49.3 144.5,49.3 		"/>
		<polygon class="st10" points="144.5,42 140.9,42 3.7,42 3.7,45.7 0,45.7 0,66.9 3.7,66.9 3.7,70.5 140.9,70.5 144.5,70.5 
			144.5,66.9 148.2,66.9 148.2,45.7 144.5,45.7 		"/>
		<g>
			<path class="st4" d="M31.9,56.8h-1.3v3.8h-2.5V50.5h6.3v1.3h1.3v3.8h-1.3v1.3h1.3v3.8h-2.5v-2.5h-1.3V56.8z M30.7,54.3h2.5V53
				h-2.5V54.3z"/>
			<path class="st4" d="M38.2,59.4H37v-7.6h1.3v-1.3h6.3V53h-5.1v1.3H42v2.5h-2.5v1.3h5.1v2.5h-6.3V59.4z"/>
			<path class="st4" d="M47.1,59.4h-1.3v-7.6h1.3v-1.3h5.1v1.3h1.3v2.5h-2.5V53h-2.5v5.1h2.5v-1.3h2.5v2.5h-1.3v1.3h-5.1V59.4z"/>
			<path class="st4" d="M57.2,60.6h-2.5v-8.9h1.3v-1.3H61v1.3h1.3v8.9h-2.5v-3.8h-2.5V60.6z M59.7,54.3V53h-2.5v1.3H59.7z"/>
			<path class="st4" d="M64.8,59.4h-1.3v-8.9h2.5v7.6h5.1v2.5h-6.3V59.4z"/>
			<path class="st4" d="M72.4,50.5h2.5v10.1h-2.5V50.5z"/>
			<path class="st4" d="M76.2,50.5h6.3v1.3h1.3v7.6h-1.3v1.3h-6.3V50.5z M78.7,54.3h2.5V53h-2.5V54.3z M78.7,58.1h2.5v-1.3h-2.5
				V58.1z"/>
			<path class="st4" d="M88.8,56.8h-1.3v3.8H85v-8.9h1.3v-1.3h5.1v1.3h1.3v3.8h-1.3v1.3h1.3v3.8h-2.5v-2.5h-1.3V56.8z M87.6,54.3
				h2.5V53h-2.5V54.3z"/>
			<path class="st4" d="M96.4,60.6h-2.5v-8.9h1.3v-1.3h5.1v1.3h1.3v8.9h-2.5v-3.8h-2.5V60.6z M98.9,54.3V53h-2.5v1.3H98.9z"/>
			<path class="st4" d="M102.7,50.5h7.6V53h-2.5v7.6h-2.5V53h-2.5V50.5z"/>
			<path class="st4" d="M112.8,59.4h-1.3v-7.6h1.3v-1.3h6.3V53h-5.1v1.3h2.5v2.5h-2.5v1.3h5.1v2.5h-6.3V59.4z"/>
		</g>
	</g>
	<g>
		<rect x="6.1" y="44.8" class="st4" width="13.1" height="1.7"/>
		<rect x="21" y="44.8" class="st4" width="1.7" height="1.7"/>
	</g>
</g>
<g>
	<rect x="425.9" y="-223.5" class="st4" width="23.6" height="3"/>
	<rect x="452.7" y="-223.5" class="st4" width="3" height="3"/>
</g>
<g>
	<rect x="105.5" y="-285" class="st4" width="23.6" height="3"/>
	<rect x="132.3" y="-285" class="st4" width="3" height="3"/>
</g>
<g>
	<polygon class="st22" points="75.4,-161.5 75.4,-168.9 56.8,-168.9 56.8,-161.5 49.3,-161.5 49.3,-154 49.3,-142.8 56.8,-142.8 
		56.8,-135.4 68,-135.4 75.4,-135.4 75.4,-142.8 82.9,-142.8 82.9,-154 82.9,-161.5 	"/>
	<line class="st23" x1="57.4" y1="-135.4" x2="57.4" y2="-125.4"/>
	<line class="st23" x1="74.8" y1="-135.4" x2="74.8" y2="-125.4"/>
	<polygon class="st24" points="73.9,-127.3 71.7,-127.3 58.3,-127.3 58.3,-125.1 56.1,-125.1 56.1,-109.6 58.3,-109.6 58.3,-107.4 
		71.7,-107.4 73.9,-107.4 73.9,-109.6 76,-109.6 76,-125.1 73.9,-125.1 	"/>
</g>
<polygon class="st25" points="142.5,277.8 142.5,269.9 134.6,269.9 69.6,269.9 0.8,269.9 0.8,277.8 -7.1,277.8 -7.1,323.4 
	0.8,323.4 0.8,331.3 69.6,331.3 134.6,331.3 142.5,331.3 142.5,323.4 150.4,323.4 150.4,277.8 "/>
<polygon class="st25" points="142.5,277.9 142.5,270 134.6,270 69.6,270 0.8,270 0.8,277.9 -7.1,277.9 -7.1,323.5 0.8,323.5 
	0.8,331.4 69.6,331.4 134.6,331.4 142.5,331.4 142.5,323.5 150.4,323.5 150.4,277.9 "/>
<g>
	<path class="st4" d="M39,311.3h-5.4v-21.8h13.6v2.7h2.7v8.2h-2.7v2.7H39V311.3z M39,297.7h5.4V295H39V297.7z"/>
	<path class="st4" d="M55.3,308.6h-2.7v-19h5.4v16.3h10.9v5.4H55.3V308.6z"/>
	<path class="st4" d="M77.1,311.3h-5.4v-19h2.7v-2.7h10.9v2.7H88v19h-5.4v-8.2h-5.4V311.3z M82.5,297.7V295h-5.4v2.7H82.5z"/>
	<path class="st4" d="M90.7,289.6h5.4v8.2h5.4v-8.2h5.4v10.9h-2.7v2.7h-2.7v8.2h-5.4v-8.2h-2.7v-2.7h-2.7V289.6z"/>
</g>
<polygon class="st25" points="312.5,277.8 312.5,269.9 304.6,269.9 239.6,269.9 170.8,269.9 170.8,277.8 162.9,277.8 162.9,323.4 
	170.8,323.4 170.8,331.3 239.6,331.3 304.6,331.3 312.5,331.3 312.5,323.4 320.4,323.4 320.4,277.8 "/>
<polygon class="st22" points="312.5,269.9 312.5,262 304.6,262 239.6,262 170.8,262 170.8,269.9 162.9,269.9 162.9,315.5 
	170.8,315.5 170.8,323.4 239.6,323.4 304.6,323.4 312.5,323.4 312.5,315.5 320.4,315.5 320.4,269.9 "/>
<g>
	<path class="st4" d="M209,303.3h-5.4v-21.8h13.6v2.7h2.7v8.2h-2.7v2.7H209V303.3z M209,289.7h5.4V287H209V289.7z"/>
	<path class="st4" d="M225.3,300.6h-2.7v-19h5.4v16.3h10.9v5.4h-13.6V300.6z"/>
	<path class="st4" d="M247.1,303.3h-5.4v-19h2.7v-2.7h10.9v2.7h2.7v19h-5.4v-8.2h-5.4V303.3z M252.5,289.7V287h-5.4v2.7H252.5z"/>
	<path class="st4" d="M260.7,281.6h5.4v8.2h5.4v-8.2h5.4v10.9h-2.7v2.7h-2.7v8.2h-5.4v-8.2h-2.7v-2.7h-2.7V281.6z"/>
</g>
<g>
	<path class="st26" d="M-681.1,32.2h43.2v108h43.2v-108h43.2v129.6h-21.6v21.6h-21.6V205h-43.2v-21.6h-21.6v-21.6h-21.6V32.2z"/>
	<path class="st27" d="M-529.9,55.9h21.6V34.3h108v43.2h-86.4v21.6h64.8v21.6h21.6v64.8h-21.6v21.6h-108v-43.2h86.4v-21.6h-64.8
		v-21.6h-21.6V55.9z"/>
</g>
<g>
	<path class="st28" d="M-681.1,11.1h43.2v108h43.2v-108h43.2v129.6h-21.6v21.6h-21.6v21.6h-43.2v-21.6h-21.6v-21.6h-21.6V11.1z"/>
	<path class="st29" d="M-529.9,32.7h21.6V11.1h108v43.2h-86.4v21.6h64.8v21.6h21.6v64.8h-21.6v21.6h-108v-43.2h86.4v-21.6h-64.8
		V97.5h-21.6V32.7z"/>
</g>
<g>
	<g>
		<path class="st0" d="M-631.7,389.8h27.5v68.7h27.5v-68.7h27.5v82.4H-563v13.7h-13.7v13.7h-27.5v-13.7H-618v-13.7h-13.7V389.8z"/>
		<path class="st0" d="M-535.6,404.8h13.7v-13.7h68.7v27.5h-54.9v13.7h41.2V446h13.7v41.2h-13.7v13.7h-68.7v-27.5h54.9v-13.7h-41.2
			V446h-13.7V404.8z"/>
	</g>
	<g>
		<path class="st7" d="M-631.7,375.3h27.5v68.7h27.5v-68.7h27.5v82.4H-563v13.7h-13.7v13.7h-27.5v-13.7H-618v-13.7h-13.7V375.3z"/>
		<path class="st7" d="M-535.6,390.3h13.7v-13.7h68.7V404h-54.9v13.7h41.2v13.7h13.7v41.2h-13.7v13.7h-68.7V459h54.9v-13.7h-41.2
			v-13.7h-13.7V390.3z"/>
	</g>
	<g>
		<path class="st4" d="M-631.7,361.9h27.5v68.7h27.5v-68.7h27.5v82.4H-563V458h-13.7v13.7h-27.5V458H-618v-13.7h-13.7V361.9z"/>
		<path class="st4" d="M-535.6,375.6h13.7v-13.7h68.7v27.5h-54.9v13.7h41.2v13.7h13.7V458h-13.7v13.7h-68.7v-27.5h54.9v-13.7h-41.2
			v-13.7h-13.7V375.6z"/>
	</g>
</g>
</svg>
