<svg xmlns="http://www.w3.org/2000/svg" width="245.7" height="148.6" viewBox="0 0 245.7 148.6"><style>.st0{fill:#c6e0de}.st1{fill:#a7c6c3}</style><path class="st0" d="M0 57v81.7h5.2v4.7h5.3v5.2h224.8v-5.2h5.2v-4.7h5.2V57zm245.7 0V10h-5.2V5.2h-5.2V0H10.5v5.2H5.2V10H0v47z"/><path class="st1" d="M5.2 10h5.3V5.2H5.2V10H0v4.8h5.2zm5.3-10h224.8v4.8H10.5zm230 10V5.2h-5.2V10h5.2v4.8h5.2V10z"/><path d="M17.9 23.4h1.5v-1.5h7.5v3h-6v1.5h4.5v1.5h1.5v4.5h-1.5v1.5H18v-3h6v-1.5h-4.5v-1.5H18v-4.5zm12 8.9h-1.5V21.9h3v8.9h6v3h-7.5v-1.5zm8.9-10.4h8.9v3h-3v6h3v3h-8.9v-3h3v-6h-3v-3zm16.4 11.9h-6V21.9h6v1.5h1.5v1.5h1.5v6h-1.5v1.5h-1.5v1.4zm-1.4-8.9h-1.5v6h1.5v-1.5h1.5v-3h-1.5v-1.5zm7.4 7.4h-1.5v-8.9h1.5v-1.5h7.5v3h-6v1.5h3v3h-3v1.5h6v3h-7.5v-1.6zm19.4-10.4h8.9v3h-3v8.9h-3v-8.9h-3l.1-3zm10.5 1.5h1.5v-1.5h6v1.5h1.5v8.9h-1.5v1.5h-6v-1.5h-1.5v-8.9zm2.9 7.4h3v-6h-3v6zm18-8.9h8.9v3h-3v8.9h-3v-8.9h-3l.1-3zm13.4 11.9h-3V21.9h3v4.5h3v-4.5h3v11.9h-3v-4.5h-3v4.5zm8.9-1.5h-1.5v-8.9h1.5v-1.5h7.5v3h-6v1.5h3v3h-3v1.5h6v3h-7.5v-1.6zm20.9 0h-1.5V21.9h3v8.9h6v3h-7.5v-1.5zm10.5 0h-1.5v-8.9h1.5v-1.5h7.5v3h-6v1.5h3v3h-3v1.5h6v3h-7.5v-1.6zm11.9 1.5h-3V23.4h1.5v-1.5h7.5v3h-6v1.5h3v3h-3v4.4zm7.5-11.9h8.9v3h-3v8.9h-3v-8.9h-3l.1-3zm20.9 0h8.9v3h-3v8.9h-3v-8.9h-3v-3zm10.4 1.5h1.5v-1.5h6v1.5h1.5v8.9h-1.5v1.5h-6v-1.5h-1.5v-8.9zm3 7.4h3v-6h-3v6zM20.9 48.2h1.5v-1.5h7.5v3h-6v1.5h4.5v1.5H30v4.5h-1.5v1.5H21v-3h6v-1.5h-4.5v-1.5H21l-.1-4.5zm13.5 10.5h-3V46.8h3v4.5h3v-4.5h3v11.9h-3v-4.5h-3v4.5zm7.4-10.5h1.5v-1.5h6v1.5h1.5v8.9h-1.5v1.5h-6v-1.5h-1.5v-8.9zm3 7.5h3v-6h-3v6zm7.5-7.5h1.5v-1.5h6v1.5h1.5v8.9h-1.5v1.5h-6v-1.5h-1.5v-8.9zm2.9 7.5h3v-6h-3v6zm7.5-8.9h8.9v3h-3v8.9h-3v-8.9h-3c.1-.1.1-3 .1-3zm20.9 0h3v4.5h3v-4.5h3v6h-1.5v1.5h-1.5v4.5h-3v-4.5h-1.5v-1.5h-1.5v-6zM94 48.2h1.5v-1.5h6v1.5h1.5v8.9h-1.5v1.5h-6v-1.5H94v-8.9zm3 7.5h3v-6h-3v6zm7.5-8.9h3v8.9h3v-8.9h3v10.4H112v1.5h-6v-1.5h-1.5V46.8zm14.9 7.4h-1.5v4.5h-3V46.8h7.5v1.5h1.5v4.5h-1.5v1.5h1.5v4.5h-3v-3h-1.5v-1.6zm-1.5-3h3v-1.5h-3v1.5zm20.9 7.5h-3V48.2h1.5v-1.5h6v1.5h1.5v10.4h-3v-4.5h-3v4.6zm3-7.5v-1.5h-3v1.5h3zm4.5-4.4h8.9v3h-3v6h3v3h-8.9v-3h3v-6h-3v-3zm14.9 7.4h-1.5v4.5h-3V46.8h7.5v1.5h1.5v4.5h-1.5v1.5h1.5v4.5h-3v-3h-1.5v-1.6zm-1.5-3h3v-1.5h-3v1.5zm10.4 7.5h-3V46.8h7.5v1.5h1.5v4.5h-1.5v1.5h-4.5v4.4zm0-7.5h3v-1.5h-3v1.5zm9 6h-1.5V46.8h3v8.9h6v3h-7.5v-1.5zm11.9 1.5h-3V48.2h1.5v-1.5h6v1.5h1.5v10.4h-3v-4.5h-3v4.6zm3-7.5v-1.5h-3v1.5h3zm9 1.5h-1.5v6h-3V46.8h3v1.5h1.5v1.5h1.5v-3h3v11.9h-3v-4.5H203v-1.5zm7.5 4.5H209v-8.9h1.5v-1.5h7.5v3h-6v1.5h3v3h-3v1.5h6v3h-7.5v-1.6zm8.9-10.4h3v7.5h-3v-7.5zm0 8.9h3v3h-3v-3zM89 105.4h5.2v5.2H89z"/><path d="M94.1 100.3h5.2v5.2h-5.2zm5.2-5.2h5.2v5.2h-5.2zm0 5.2h5.2v5.2h-5.2z"/><path d="M99.3 105.4h5.2v5.2h-5.2z"/><path d="M99.3 110.6h5.2v5.2h-5.2zm0 5.2h5.2v5.2h-5.2zm5.2-20.7h5.2v5.2h-5.2z"/><path d="M104.5 89.9h5.2v5.2h-5.2zm0 10.4h5.2v5.2h-5.2z"/><path d="M104.5 105.4h5.2v5.2h-5.2z"/><path d="M104.5 110.6h5.2v5.2h-5.2zm0 5.2h5.2v5.2h-5.2zm0 5.2h5.2v5.2h-5.2zm5.2-25.9h5.2v5.2h-5.2z"/><path d="M109.7 89.9h5.2v5.2h-5.2zm0-5.2h5.2v5.2h-5.2zm0 15.6h5.2v5.2h-5.2z"/><path d="M109.7 105.4h5.2v5.2h-5.2zm5.2 0h5.2v5.2h-5.2z"/><path d="M120 105.4h5.2v5.2H120zm5.2 0h5.2v5.2h-5.2zm5.2 0h5.2v5.2h-5.2zm5.2 0h5.2v5.2h-5.2zm5.2 0h5.2v5.2h-5.2z"/><path d="M114.9 100.3h5.2v5.2h-5.2z"/><path d="M120 100.3h5.2v5.2H120zm5.2 0h5.2v5.2h-5.2zm5.2 0h5.2v5.2h-5.2zm5.2 0h5.2v5.2h-5.2zm5.2 0h5.2v5.2h-5.2zm5.2 5.1h5.2v5.2H146zm-31.1 5.2h5.2v5.2h-5.2z"/><path d="M120 110.6h5.2v5.2H120zm5.2 0h5.2v5.2h-5.2zm5.2 0h5.2v5.2h-5.2zm5.2 0h5.2v5.2h-5.2zm5.2 0h5.2v5.2h-5.2zm5.2 0h5.2v5.2H146zm0-10.3h5.2v5.2H146zm-36.3 10.3h5.2v5.2h-5.2zm0 5.2h5.2v5.2h-5.2zm0 5.2h5.2v5.2h-5.2zm0 5.2h5.2v5.2h-5.2zm-15.6-20.8h5.2v5.2h-5.2z"/><path d="M94.1 110.6h5.2v5.2h-5.2z"/></svg>