<!-- Generator: Adobe Illustrator 19.2.1, SVG Export Plug-In  -->
<svg version="1.1"
	 xmlns="http://www.w3.org/2000/svg" xmlns:xlink="http://www.w3.org/1999/xlink" xmlns:a="http://ns.adobe.com/AdobeSVGViewerExtensions/3.0/"
	 x="0px" y="0px" width="176.9px" height="34.1px" viewBox="0 0 176.9 34.1" style="enable-background:new 0 0 176.9 34.1;"
	 xml:space="preserve">
<style type="text/css">
	.st0{fill:#C17620;}
	.st1{fill:#FFFFFF;}
</style>
<defs>
</defs>
<g>
	<polygon class="st0" points="172.6,0 168.1,0 4.4,0 4.4,4.4 0,4.4 0,29.7 4.4,29.7 4.4,34.1 168.1,34.1 172.6,34.1 172.6,29.7
		176.9,29.7 176.9,4.4 172.6,4.4 	"/>
	<polygon class="st0" points="172.6,0.1 168.1,0.1 4.4,0.1 4.4,4.4 0,4.4 0,29.8 4.4,29.8 4.4,34.1 168.1,34.1 172.6,34.1
		172.6,29.8 176.9,29.8 176.9,4.4 172.6,4.4 	"/>
	<g>
		<path class="st1" d="M41.1,10.2h9.1v3h-3v9.1h-3v-9.1h-3L41.1,10.2L41.1,10.2z"/>
		<path class="st1" d="M56.2,17.7h-1.5v4.6h-3V10.2h7.5v1.5h1.5v4.6h-1.5v1.5h1.5v4.6h-3v-3h-1.5L56.2,17.7L56.2,17.7z M54.7,14.7h3
			v-1.5h-3V14.7z"/>
		<path class="st1" d="M62.2,10.2h3v4.6h3v-4.6h3v6h-1.5v1.5h-1.5v4.6h-3v-4.6h-1.5v-1.5h-1.5L62.2,10.2L62.2,10.2z"/>
		<path class="st1" d="M86.4,22.3h-3V11.7h1.5v-1.5h6v1.5h1.5v10.6h-3v-4.6h-3L86.4,22.3L86.4,22.3z M89.4,14.7v-1.5h-3v1.5H89.4z"
			/>
		<path class="st1" d="M95.5,20.8h-1.5v-9.1h1.5v-1.5h7.5v3h-6v6h3v-1.5h-1.5v-3h4.6v7.5h-7.5L95.5,20.8L95.5,20.8z"/>
		<path class="st1" d="M107.6,22.3h-3V11.7h1.5v-1.5h6v1.5h1.5v10.6h-3v-4.6h-3L107.6,22.3L107.6,22.3z M110.5,14.7v-1.5h-3v1.5
			H110.5z"/>
		<path class="st1" d="M115.1,10.2h9.1v3h-3v6h3v3h-9.1v-3h3v-6h-3V10.2z"/>
		<path class="st1" d="M130.2,16.2h-1.5v6h-3V10.1h3v1.5h1.5v1.5h1.5v-3h3v12.1h-3v-4.6h-1.5V16.2z"/>
	</g>
</g>
</svg>
