<?xml version="1.0" encoding="utf-8"?>
<!-- Generator: Adobe Illustrator 22.0.1, SVG Export Plug-In . SVG Version: 6.00 Build 0)  -->
<svg version="1.1" id="Layer_1" xmlns="http://www.w3.org/2000/svg" xmlns:xlink="http://www.w3.org/1999/xlink" x="0px" y="0px"
	 width="178.5px" height="139.1px" viewBox="0 0 178.5 139.1" style="enable-background:new 0 0 178.5 139.1;" xml:space="preserve"
	>
<style type="text/css">
	.st0{fill:#5895B7;}
	.st1{opacity:0.8;}
	.st2{fill:#C17620;}
	.st3{fill:#F4C24A;}
	.st4{fill:#2A6FBA;}
	.st5{fill:#FFFFFF;}
	.st6{fill:#4ABAEF;}
	.st7{fill:#95C9C8;}
	.st8{fill:#DDEFEE;}
	.st9{fill:#1B8E6F;}
	.st10{fill:#3CEA8A;}
	.st11{opacity:0.4;fill:#666666;}
	.st12{fill:#33BC6E;}
	.st13{fill:none;}
	.st14{fill:#7149A4;}
	.st15{fill:#BD86E0;}
	.st16{opacity:0.4;fill:#666666;stroke:#666666;stroke-width:4;stroke-linejoin:bevel;stroke-miterlimit:10;}
	.st17{fill:#F2F2F2;}
	.st18{fill:#E6E6E6;}
	.st19{fill:none;stroke:#000000;stroke-width:4;stroke-linejoin:bevel;stroke-miterlimit:10;}
	.st20{fill:#C6E0DE;}
	.st21{fill:#A7C6C3;}
	.st22{fill:#EE3D53;}
	.st23{fill:none;stroke:#000000;stroke-width:2;stroke-miterlimit:10;}
	.st24{fill:#A17559;}
	.st25{fill:#910E46;}
	.st26{fill:#238D6F;}
	.st27{fill:#704CA2;}
	.st28{fill:#47E88D;}
	.st29{fill:#BC88DE;}
</style>
<g>
	<rect x="1155.8" y="144.1" class="st0" width="484" height="82"/>
	<rect x="1607.8" y="218.1" class="st0" width="107" height="30"/>
	<g class="st1">
		<g>
			<polygon class="st0" points="1171.8,164.1 1171.8,246.1 1075.8,246.1 1075.8,235.1 1087.8,235.1 1087.8,223.1 1099.8,223.1 
				1099.8,211.1 1111.8,211.1 1111.8,199.1 1099.8,199.1 1099.8,187.1 1087.8,187.1 1087.8,175.1 1075.8,175.1 1075.8,164.1 			"/>
		</g>
		<polygon class="st0" points="1157.8,222.1 1171.8,245.1 1171.8,222.1 		"/>
	</g>
	<g>
		<g>
			<polygon class="st2" points="1618.8,156.1 1618.8,238.1 1714.8,238.1 1714.8,227.1 1702.8,227.1 1702.8,215.1 1690.8,215.1 
				1690.8,203.1 1678.8,203.1 1678.8,191.1 1690.8,191.1 1690.8,179.1 1702.8,179.1 1702.8,167.1 1714.8,167.1 1714.8,156.1 			"/>
			<polygon class="st3" points="1618.8,145.1 1618.8,227.1 1714.8,227.1 1714.8,216.1 1702.8,216.1 1702.8,204.1 1690.8,204.1 
				1690.8,192.1 1678.8,192.1 1678.8,180.1 1690.8,180.1 1690.8,168.1 1702.8,168.1 1702.8,156.1 1714.8,156.1 1714.8,145.1 			"/>
		</g>
		<polygon class="st2" points="1632.8,214.1 1618.8,237.1 1618.8,214.1 		"/>
		<g>
			<g>
				<polygon class="st2" points="1162.8,156.1 1162.8,238.1 1066.8,238.1 1066.8,227.1 1078.8,227.1 1078.8,215.1 1090.8,215.1 
					1090.8,203.1 1102.8,203.1 1102.8,191.1 1090.8,191.1 1090.8,179.1 1078.8,179.1 1078.8,167.1 1066.8,167.1 1066.8,156.1 				
					"/>
				<polygon class="st3" points="1162.8,145.1 1162.8,227.1 1066.8,227.1 1066.8,216.1 1078.8,216.1 1078.8,204.1 1090.8,204.1 
					1090.8,192.1 1102.8,192.1 1102.8,180.1 1090.8,180.1 1090.8,168.1 1078.8,168.1 1078.8,156.1 1066.8,156.1 1066.8,145.1 				
					"/>
			</g>
			<polygon class="st2" points="1148.8,214.1 1162.8,237.1 1162.8,214.1 			"/>
		</g>
		<g>
			<rect x="1148.8" y="132.1" class="st2" width="484" height="82"/>
			<rect x="1148.8" y="120.1" class="st3" width="484" height="82"/>
		</g>
	</g>
	<rect x="1171.6" y="145.3" class="st13" width="415.2" height="81.8"/>
	<text transform="matrix(1 0 0 1 1210.7775 179.8606)" class="st5" style="font-family:'EditUndoBRK'; font-size:60px;">HOW TO PLAY</text>
</g>
<polygon class="st4" points="1324.8,413.1 1312.8,413.1 1239.8,413.1 1239.8,425.1 1227.8,425.1 1227.8,510.1 1239.8,510.1 
	1239.8,522.1 1312.8,522.1 1324.8,522.1 1324.8,510.1 1336.8,510.1 1336.8,425.1 1324.8,425.1 "/>
<polygon class="st4" points="1324.8,413.1 1312.8,413.1 1239.8,413.1 1239.8,425.1 1227.8,425.1 1227.8,510.1 1239.8,510.1 
	1239.8,522.1 1312.8,522.1 1324.8,522.1 1324.8,510.1 1336.8,510.1 1336.8,425.1 1324.8,425.1 "/>
<rect x="1239.8" y="447.3" class="st13" width="89" height="81.8"/>
<text transform="matrix(1 0 0 1 1264.3917 492.804)" class="st5" style="font-family:'EditUndoBRK'; font-size:79px;">?</text>
<polygon class="st4" points="1475.8,413.1 1463.8,413.1 1390.8,413.1 1390.8,425.1 1378.8,425.1 1378.8,510.1 1390.8,510.1 
	1390.8,522.1 1463.8,522.1 1475.8,522.1 1475.8,510.1 1487.8,510.1 1487.8,425.1 1475.8,425.1 "/>
<polygon class="st6" points="1475.8,403.1 1463.8,403.1 1390.8,403.1 1390.8,415.1 1378.8,415.1 1378.8,500.1 1390.8,500.1 
	1390.8,512.1 1463.8,512.1 1475.8,512.1 1475.8,500.1 1487.8,500.1 1487.8,415.1 1475.8,415.1 "/>
<rect x="1390.8" y="437.3" class="st13" width="89" height="81.8"/>
<text transform="matrix(1 0 0 1 1415.3917 482.804)" class="st5" style="font-family:'EditUndoBRK'; font-size:79px;">?</text>
<g>
	<polygon class="st0" points="2510.8,257.6 2499.2,257.6 2499.2,246 2487.7,246 2487.7,233.2 1988.9,233.2 1988.9,246 1977.4,246 
		1977.4,257.6 1965.8,257.6 1965.8,942.3 1977.4,942.3 1977.4,954 1988.9,954 1988.9,966.8 2487.7,966.8 2487.7,954 2499.2,954 
		2499.2,942.3 2510.8,942.3 	"/>
	<polygon class="st7" points="2510.8,245.6 2499.2,245.6 2499.2,233.9 2487.7,233.9 2487.7,221.1 1988.9,221.1 1988.9,233.9 
		1977.4,233.9 1977.4,245.6 1965.8,245.6 1965.8,930.3 1977.4,930.3 1977.4,941.9 1988.9,941.9 1988.9,954.8 2487.7,954.8 
		2487.7,941.9 2499.2,941.9 2499.2,930.3 2510.8,930.3 	"/>
	<polygon class="st8" points="2510.8,233.6 2499.2,233.6 2499.2,221.9 2487.7,221.9 2487.7,209.1 1988.9,209.1 1988.9,221.9 
		1977.4,221.9 1977.4,233.6 1965.8,233.6 1965.8,918.3 1977.4,918.3 1977.4,929.9 1988.9,929.9 1988.9,942.7 2487.7,942.7 
		2487.7,929.9 2499.2,929.9 2499.2,918.3 2510.8,918.3 	"/>
</g>
<g>
	<polygon class="st9" points="1461.8,-106.9 1451.8,-106.9 1076.9,-106.9 1076.9,-96.8 1066.8,-96.8 1066.8,-39 1076.9,-39 
		1076.9,-28.9 1451.8,-28.9 1461.8,-28.9 1461.8,-39 1471.9,-39 1471.9,-96.8 1461.8,-96.8 	"/>
	<polygon class="st10" points="1461.8,-116.9 1451.8,-116.9 1076.9,-116.9 1076.9,-106.8 1066.8,-106.8 1066.8,-49 1076.9,-49 
		1076.9,-38.9 1451.8,-38.9 1461.8,-38.9 1461.8,-49 1471.9,-49 1471.9,-106.8 1461.8,-106.8 	"/>
	<rect x="1067.8" y="-93.7" class="st13" width="404" height="81.8"/>
	<text transform="matrix(1 0 0 1 1179.9445 -66.017)" class="st5" style="font-family:'EditUndoBRK'; font-size:48px;">PLAYER 1</text>
</g>
<g>
	<polygon class="st11" points="1101,-227.5 1099,-233.3 1095,-245.3 1077.2,-239.3 1079.1,-233.5 1073.3,-231.5 1077.4,-219.5 
		1083.2,-221.5 1085.1,-215.7 1097.2,-219.8 1095.2,-225.5 	"/>
	<polygon class="st11" points="1139.8,-239.6 1137.8,-245.3 1133.8,-257.3 1116,-251.3 1117.9,-245.6 1112.1,-243.6 1116.2,-231.6 
		1122,-233.5 1123.9,-227.8 1136,-231.8 1134,-237.6 	"/>
	<rect x="1080.2" y="-286.5" transform="matrix(0.9472 -0.3207 0.3207 0.9472 142.9594 333.479)" width="7.1" height="38.6"/>
	<polygon points="1099.4,-232.3 1097.4,-238.1 1093.3,-250.1 1075.5,-244.1 1077.5,-238.3 1071.7,-236.3 1075.8,-224.3 
		1081.6,-226.3 1083.5,-220.5 1095.5,-224.6 1093.6,-230.3 	"/>
	<rect x="1118.7" y="-299.5" transform="matrix(0.9472 -0.3207 0.3207 0.9472 149.1694 345.1287)" width="7.1" height="38.6"/>
	<polygon points="1137.8,-245.3 1135.9,-251.1 1131.8,-263.1 1114,-257.1 1116,-251.3 1110.2,-249.4 1114.3,-237.3 1120,-239.3 
		1122,-233.5 1134,-237.6 1132.1,-243.4 	"/>
	<rect x="1070.2" y="-308.8" transform="matrix(0.9472 -0.3207 0.3207 0.9472 154.0735 335.0345)" width="47.7" height="17.3"/>
</g>
<g>
	<polygon class="st11" points="1167.2,-193.9 1168.1,-198.1 1170,-206.7 1157.2,-209.5 1156.3,-205.4 1152.2,-206.3 1150.2,-197.6 
		1154.4,-196.7 1153.5,-192.6 1162.1,-190.7 1163,-194.8 	"/>
	<polygon class="st11" points="1194.7,-187.1 1195.6,-191.3 1197.5,-199.9 1184.7,-202.7 1183.8,-198.6 1179.7,-199.5 
		1177.8,-190.9 1181.9,-189.9 1181,-185.8 1189.6,-183.9 1190.6,-188 	"/>
	<rect x="1168.8" y="-237.3" transform="matrix(0.9766 0.2149 -0.2149 0.9766 -20.7374 -256.9146)" width="5" height="26.9"/>
	<polygon points="1168,-197.4 1168.9,-201.5 1170.8,-210.2 1158,-213 1157.1,-208.8 1152.9,-209.7 1151,-201.1 1155.2,-200.2 
		1154.2,-196 1162.9,-194.1 1163.8,-198.3 	"/>
	<rect x="1196.4" y="-231.2" transform="matrix(0.9766 0.2149 -0.2149 0.9766 -18.7833 -262.7165)" width="5" height="26.9"/>
	<polygon points="1195.6,-191.3 1196.5,-195.4 1198.4,-204.1 1185.6,-206.9 1184.7,-202.7 1180.6,-203.7 1178.7,-195 1182.8,-194.1 
		1181.9,-189.9 1190.6,-188 1191.5,-192.2 	"/>
	<rect x="1172.6" y="-245.8" transform="matrix(0.9766 0.2149 -0.2149 0.9766 -23.7492 -261.159)" width="33.3" height="12"/>
</g>
<g>
	<polygon class="st11" points="1243.2,-255.7 1242.5,-258.8 1241.1,-265.1 1231.7,-263 1232.4,-260 1229.4,-259.3 1230.8,-252.9 
		1233.8,-253.6 1234.5,-250.6 1240.8,-252 1240.2,-255 	"/>
	<polygon class="st11" points="1263.6,-259.7 1263,-262.8 1261.5,-269.1 1252.2,-267 1252.8,-264 1249.8,-263.3 1251.2,-257 
		1254.2,-257.6 1254.9,-254.6 1261.3,-256 1260.6,-259 	"/>
	<rect x="1234.8" y="-286.8" transform="matrix(0.9761 -0.2173 0.2173 0.9761 89.7103 262.0891)" width="3.6" height="19.8"/>
	<polygon points="1242.6,-258.2 1242,-261.3 1240.6,-267.6 1231.2,-265.5 1231.8,-262.5 1228.8,-261.8 1230.2,-255.5 1233.3,-256.2 
		1233.9,-253.1 1240.3,-254.5 1239.6,-257.6 	"/>
	<rect x="1255.1" y="-291.3" transform="matrix(0.9761 -0.2173 0.2173 0.9761 91.1778 266.3938)" width="3.6" height="19.8"/>
	<polygon points="1263,-262.8 1262.3,-265.8 1260.9,-272.2 1251.5,-270.1 1252.2,-267 1249.1,-266.3 1250.5,-260 1253.6,-260.7 
		1254.2,-257.6 1260.6,-259 1259.9,-262.1 	"/>
	<rect x="1231.5" y="-297.5" transform="matrix(0.9761 -0.2173 0.2173 0.9761 93.4036 263.2325)" width="24.4" height="8.8"/>
</g>
<g>
	<polygon class="st11" points="1263.8,-209.9 1266.4,-214.1 1271.9,-222.6 1259.2,-230.7 1256.6,-226.6 1252.5,-229.2 1247,-220.6 
		1251.1,-218 1248.5,-213.9 1257.1,-208.4 1259.7,-212.6 	"/>
	<polygon class="st11" points="1290.8,-191.8 1293.4,-195.9 1298.9,-204.5 1286.2,-212.6 1283.6,-208.5 1279.5,-211.1 1274,-202.5 
		1278.1,-199.9 1275.5,-195.8 1284.1,-190.3 1286.7,-194.4 	"/>
	<rect x="1277.1" y="-256" transform="matrix(0.844 0.5363 -0.5363 0.844 70.6018 -723.9709)" width="5.7" height="30.9"/>
	<polygon points="1266,-213.4 1268.6,-217.5 1274.1,-226.1 1261.4,-234.1 1258.8,-230 1254.6,-232.6 1249.2,-224 1253.3,-221.4 
		1250.7,-217.3 1259.3,-211.9 1261.9,-216 	"/>
	<rect x="1304.5" y="-238.6" transform="matrix(0.844 0.5363 -0.5363 0.844 84.2262 -735.9618)" width="5.7" height="30.9"/>
	<polygon points="1293.4,-195.9 1296,-200.1 1301.5,-208.6 1288.8,-216.7 1286.2,-212.6 1282.1,-215.2 1276.6,-206.6 1280.7,-204 
		1278.1,-199.9 1286.7,-194.4 1289.3,-198.6 	"/>
	<rect x="1286.5" y="-257.7" transform="matrix(0.844 0.5363 -0.5363 0.844 69.1703 -739.3332)" width="38.2" height="13.8"/>
</g>
<g>
	<polygon class="st9" points="985.1,-650.4 978.5,-650.4 732.1,-650.4 732.1,-643.7 725.5,-643.7 725.5,-605.7 732.1,-605.7 
		732.1,-599.1 978.5,-599.1 985.1,-599.1 985.1,-605.7 991.7,-605.7 991.7,-643.7 985.1,-643.7 	"/>
	<polygon class="st12" points="985.1,-650.4 978.5,-650.4 732.1,-650.4 732.1,-643.7 725.5,-643.7 725.5,-605.7 732.1,-605.7 
		732.1,-599.1 978.5,-599.1 985.1,-599.1 985.1,-605.7 991.7,-605.7 991.7,-643.7 985.1,-643.7 	"/>
	<rect x="726.1" y="-635.1" class="st13" width="265.5" height="32.8"/>
	<text transform="matrix(1 0 0 1 791.88 -616.9244)" class="st5" style="font-family:'EditUndoBRK'; font-size:31.5429px;">Calibrate</text>
</g>
<g>
	<polygon class="st9" points="1305.1,-582.4 1298.5,-582.4 1052.1,-582.4 1052.1,-575.7 1045.5,-575.7 1045.5,-537.7 1052.1,-537.7 
		1052.1,-531.1 1298.5,-531.1 1305.1,-531.1 1305.1,-537.7 1311.7,-537.7 1311.7,-575.7 1305.1,-575.7 	"/>
	<polygon class="st10" points="1305.1,-588.9 1298.5,-588.9 1052.1,-588.9 1052.1,-582.3 1045.5,-582.3 1045.5,-544.3 
		1052.1,-544.3 1052.1,-537.7 1298.5,-537.7 1305.1,-537.7 1305.1,-544.3 1311.7,-544.3 1311.7,-582.3 1305.1,-582.3 	"/>
	<rect x="1046.1" y="-573.7" class="st13" width="265.5" height="32.8"/>
	<text transform="matrix(1 0 0 1 1111.88 -555.4958)" class="st5" style="font-family:'EditUndoBRK'; font-size:31.5429px;">Calibrate</text>
</g>
<g>
	<rect x="1047.1" y="-500" class="st9" width="219.8" height="28.8"/>
	<rect x="1042.2" y="-506.6" class="st9" width="229.4" height="30.6"/>
	<polygon class="st10" points="1042.2,-510.9 1042.2,-481.7 1047.1,-481.7 1047.1,-476 1266.8,-476 1266.8,-481.7 1271.6,-481.7 
		1271.6,-510.9 	"/>
</g>
<polygon class="st9" points="1262,-496.1 1262,-501.2 1256.9,-501.2 1256.9,-501.3 1200.3,-501.3 1169.7,-501.3 1144.1,-501.3 
	1120.3,-501.3 1056.9,-501.3 1056.9,-501.2 1051.8,-501.2 1051.8,-496.1 1046.7,-496.1 1046.7,-488.5 1051.8,-488.5 1051.8,-483.4 
	1056.9,-483.4 1056.9,-483.3 1120.3,-483.3 1144.1,-483.3 1169.7,-483.3 1200.3,-483.3 1256.9,-483.3 1256.9,-483.3 1262,-483.3 
	1262,-488.4 1267.1,-488.4 1267.1,-496.1 "/>
<g>
	<rect x="1038.1" y="-402" class="st13" width="4.7" height="0.1"/>
	<rect x="1038.1" y="-384.1" class="st13" width="4.7" height="0.1"/>
	<polygon class="st5" points="1059.1,-384.1 1059.1,-389.2 1064.2,-389.2 1064.2,-396.8 1059.1,-396.8 1059.1,-401.9 1054,-401.9 
		1054,-402 1042.8,-402 1042.8,-401.9 1038.1,-401.9 1038.1,-384.1 1042.8,-384.1 1042.8,-384 1054,-384 1054,-384.1 	"/>
</g>
<g>
	<polygon class="st5" points="1012.3,-437.5 1012.3,-442.6 1007.2,-442.6 1007.2,-442.7 991.3,-442.7 991.3,-424.7 1007.2,-424.7 
		1007.2,-424.8 1012.3,-424.8 1012.3,-429.9 1017.4,-429.9 1017.4,-437.5 	"/>
	<polygon class="st5" points="998.8,-398.7 998.8,-403.8 998.8,-403.8 998.8,-403.9 994.3,-403.9 993.7,-403.9 989.2,-403.9 
		989.2,-403.8 989.2,-403.8 989.2,-398.7 984.1,-398.7 984.1,-391.1 989.2,-391.1 989.2,-386 989.2,-386 989.2,-385.9 993.7,-385.9 
		994.3,-385.9 998.8,-385.9 998.8,-385.9 998.8,-385.9 998.8,-391 1003.9,-391 1003.9,-398.7 	"/>
</g>
<polygon class="st5" points="949,-496.1 949,-501.2 949,-501.2 949,-501.3 944.5,-501.3 943.9,-501.3 939.4,-501.3 939.4,-501.2 
	939.4,-501.2 939.4,-496.1 934.3,-496.1 934.3,-488.5 939.4,-488.5 939.4,-483.4 939.4,-483.4 939.4,-483.3 943.9,-483.3 
	944.5,-483.3 949,-483.3 949,-483.3 949,-483.3 949,-488.4 954.1,-488.4 954.1,-496.1 "/>
<polygon class="st14" points="1914.8,-106.9 1904.8,-106.9 1529.9,-106.9 1529.9,-96.8 1519.8,-96.8 1519.8,-39 1529.9,-39 
	1529.9,-28.9 1904.8,-28.9 1914.8,-28.9 1914.8,-39 1924.9,-39 1924.9,-96.8 1914.8,-96.8 "/>
<polygon class="st15" points="1914.8,-116.9 1904.8,-116.9 1529.9,-116.9 1529.9,-106.8 1519.8,-106.8 1519.8,-49 1529.9,-49 
	1529.9,-38.9 1904.8,-38.9 1914.8,-38.9 1914.8,-49 1924.9,-49 1924.9,-106.8 1914.8,-106.8 "/>
<rect x="1519.8" y="-93.7" class="st13" width="405" height="81.8"/>
<text transform="matrix(1 0 0 1 1625.5323 -66.0169)" class="st5" style="font-family:'EditUndoBRK'; font-size:48px;">PLAYER 2</text>
<g>
	<rect x="1540.8" y="-112.9" class="st5" width="45.1" height="5.7"/>
	<rect x="1592.1" y="-112.9" class="st5" width="5.7" height="5.7"/>
</g>
<g>
	<rect x="1086.3" y="-111.9" class="st5" width="45.1" height="5.7"/>
	<rect x="1137.6" y="-111.9" class="st5" width="5.7" height="5.7"/>
</g>
<polygon class="st16" points="1475.4,-271.9 1481.8,-266.3 1476.2,-259.9 1496.6,-242.5 1496.6,-204.6 1517.4,-230.7 1549.1,-201.4 
	1555,-207.6 1560,-203 1631.6,-321.7 "/>
<polygon class="st17" points="1473,-279 1479.3,-273.4 1473.7,-267 1494.2,-249.7 1494.2,-211.8 1514.9,-237.9 1546.7,-208.5 
	1552.5,-214.7 1557.5,-210.1 1629.1,-328.8 "/>
<polygon class="st18" points="1515,-238.1 1629.4,-328.8 1494.3,-249.9 1494.3,-212 "/>
<polygon class="st19" points="1471.9,-278.9 1478.3,-273.3 1472.7,-266.9 1493.1,-249.5 1493.1,-211.6 1513.9,-237.7 1545.6,-208.3 
	1551.5,-214.6 1556.4,-210 1628.1,-328.7 "/>
<g>
	<polygon class="st20" points="1407.7,-585.6 1407.7,-422 1418.1,-422 1418.1,-412.5 1428.5,-412.5 1428.5,-402 1876,-402 
		1876,-412.5 1886.4,-412.5 1886.4,-422 1896.7,-422 1896.7,-585.6 	"/>
	<polygon class="st20" points="1896.7,-585.6 1896.7,-679.7 1886.4,-679.7 1886.4,-689.2 1876,-689.2 1876,-699.7 1428.5,-699.7 
		1428.5,-689.2 1418.1,-689.2 1418.1,-679.7 1407.7,-679.7 1407.7,-585.6 	"/>
</g>
<g>
	<polygon class="st21" points="1418.1,-683.1 1428.5,-683.1 1428.5,-691.1 1418.1,-691.1 1418.1,-683.2 1407.7,-683.2 
		1407.7,-675.2 1418.1,-675.2 	"/>
	<rect x="1428.5" y="-699.8" class="st21" width="447.5" height="8"/>
	<polygon class="st21" points="1886.4,-683.2 1886.4,-691.1 1876,-691.1 1876,-683.1 1886.4,-683.1 1886.4,-675.2 1896.7,-675.2 
		1896.7,-683.2 	"/>
</g>
<g>
	<g>
		<g>
			<rect x="1014.6" y="-764.1" width="10.2" height="10.2"/>
		</g>
	</g>
	<g>
		<g>
			<path d="M1076-774.3v5.1h-5.1v5.1h5.1v20.5h5.1v5.1h-5.1v5.1h5.1h5.1v-10.2h15.4v5.1h5.1v-5.1v-30.7H1076z M1101.6-748.7h-20.5
				v-20.5h20.5V-748.7z"/>
		</g>
	</g>
	<g>
		<g>
			<rect x="1086.3" y="-764.1" width="10.2" height="10.2"/>
		</g>
	</g>
	<g>
		<g>
			<rect x="1014.6" y="-692.4" width="10.2" height="10.2"/>
		</g>
	</g>
	<g>
		<g>
			<rect x="1076" y="-702.6" width="5.1" height="5.1"/>
		</g>
	</g>
	<g>
		<g>
			<rect x="1050.4" y="-677" width="5.1" height="5.1"/>
		</g>
	</g>
	<g>
		<g>
			<rect x="1055.6" y="-697.5" width="5.1" height="5.1"/>
		</g>
	</g>
	<g>
		<g>
			<rect x="1055.6" y="-687.3" width="5.1" height="5.1"/>
		</g>
	</g>
	<g>
		<g>
			<rect x="1101.6" y="-712.9" width="5.1" height="5.1"/>
		</g>
	</g>
	<g>
		<g>
			<rect x="1004.4" y="-712.9" width="5.1" height="5.1"/>
		</g>
	</g>
	<g>
		<g>
			<rect x="1004.4" y="-738.5" width="5.1" height="5.1"/>
		</g>
	</g>
	<g>
		<g>
			<polygon points="1060.7,-769.2 1060.7,-764.1 1050.4,-764.1 1050.4,-759 1065.8,-759 1065.8,-764.1 1065.8,-769.2 			"/>
		</g>
	</g>
	<g>
		<g>
			<path d="M1101.6-733.4v5.1h-10.2v5.1H1076v-5.1h-5.1v5.1h-10.2v5.1h15.4v5.1h-10.2h-5.1v-5.1h-5.1v5.1h-5.1v-5.1h-5.1v5.1h-5.1
				v5.1h10.2v5.1h5.1v-5.1h10.2v5.1h-5.1v5.1h5.1v10.2h5.1v5.1h5.1v-5.1h15.4v-10.2h5.1v-5.1h-5.1v-10.2h-10.2v-5.1h10.2v5.1h5.1
				v-5.1h5.1v-5.1h5.1v-5.1v-5.1H1101.6L1101.6-733.4z M1086.3-707.8v15.4h-15.4v-15.4H1086.3z"/>
		</g>
	</g>
	<g>
		<g>
			<polygon points="1070.9,-743.6 1065.8,-743.6 1065.8,-738.5 1060.7,-738.5 1060.7,-733.4 1060.7,-728.2 1065.8,-728.2 
				1065.8,-733.4 1070.9,-733.4 1070.9,-738.5 1076,-738.5 1076,-743.6 			"/>
		</g>
	</g>
	<g>
		<g>
			<rect x="1060.7" y="-677" width="10.2" height="5.1"/>
		</g>
	</g>
	<g>
		<g>
			<rect x="1045.3" y="-769.2" width="5.1" height="5.1"/>
		</g>
	</g>
	<g>
		<g>
			<rect x="1086.3" y="-733.4" width="5.1" height="5.1"/>
		</g>
	</g>
	<g>
		<g>
			<rect x="1091.4" y="-738.5" width="5.1" height="5.1"/>
		</g>
	</g>
	<g>
		<g>
			<rect x="1024.8" y="-712.9" width="5.1" height="5.1"/>
		</g>
	</g>
	<g>
		<g>
			<path d="M1035.1-677v-20.5h5.1v-5.1v-5.1h-5.1v5.1h-15.4v-5.1h-5.1h-5.1v5.1h-5.1v30.7h30.7h10.2v-5.1H1035.1z M1030-677h-20.5
				v-20.5h20.5V-677z"/>
		</g>
	</g>
	<g>
		<g>
			<rect x="1035.1" y="-743.6" width="5.1" height="5.1"/>
		</g>
	</g>
	<g>
		<g>
			<path d="M1040.2-774.3h-5.1h-30.7v30.7h5.1v5.1h5.1v-5.1h5.1v5.1h5.1v-5.1h10.2v-10.2h5.1v-5.1h-5.1v-10.2h5.1h5.1v-5.1H1040.2z
				 M1030-748.7h-20.5v-20.5h20.5V-748.7z"/>
		</g>
	</g>
	<g>
		<g>
			<rect x="1065.8" y="-759" width="5.1" height="5.1"/>
		</g>
	</g>
	<g>
		<g>
			<rect x="1055.6" y="-774.3" width="5.1" height="5.1"/>
		</g>
	</g>
	<g>
		<g>
			<path d="M1065.8-743.6v-5.1h-5.1v-5.1h-5.1v5.1h-10.2v-5.1h-5.1v5.1v5.1h5.1v10.2H1030v-5.1h-5.1v5.1h-15.4v5.1h10.2v5.1h-15.4
				v5.1h15.4v5.1h5.1v-5.1h5.1v5.1h5.1v-5.1h10.2v-5.1h-5.1v-5.1h5.1h5.1v5.1h5.1h5.1v-5.1h-5.1v-5.1h-5.1v-10.2H1065.8
				L1065.8-743.6z M1035.1-723.1h-10.2v-5.1h10.2V-723.1z"/>
		</g>
	</g>
	<g>
		<g>
			<polygon points="1050.4,-692.4 1050.4,-697.5 1050.4,-702.6 1045.3,-702.6 1045.3,-697.5 1040.2,-697.5 1040.2,-692.4 
				1045.3,-692.4 1045.3,-687.3 1040.2,-687.3 1040.2,-682.2 1050.4,-682.2 1050.4,-687.3 1055.6,-687.3 1055.6,-692.4 			"/>
		</g>
	</g>
	<g>
		<g>
			<polygon points="1096.5,-682.2 1096.5,-687.3 1091.4,-687.3 1091.4,-682.2 1076,-682.2 1076,-677 1086.3,-677 1086.3,-671.9 
				1091.4,-671.9 1091.4,-677 1101.6,-677 1101.6,-671.9 1106.8,-671.9 1106.8,-677 1106.8,-682.2 			"/>
		</g>
	</g>
	<g>
		<g>
			<polygon points="1101.6,-702.6 1101.6,-697.5 1096.5,-697.5 1096.5,-692.4 1106.8,-692.4 1106.8,-697.5 1106.8,-702.6 			"/>
		</g>
	</g>
</g>
<g>
	<g>
		<polygon class="st9" points="776.2,-358.2 772.6,-358.2 635.4,-358.2 635.4,-354.5 631.7,-354.5 631.7,-333.3 635.4,-333.3 
			635.4,-329.7 772.6,-329.7 776.2,-329.7 776.2,-333.3 779.9,-333.3 779.9,-354.5 776.2,-354.5 		"/>
		<polygon class="st12" points="776.2,-358.2 772.6,-358.2 635.4,-358.2 635.4,-354.5 631.7,-354.5 631.7,-333.3 635.4,-333.3 
			635.4,-329.7 772.6,-329.7 776.2,-329.7 776.2,-333.3 779.9,-333.3 779.9,-354.5 776.2,-354.5 		"/>
		<rect x="632.1" y="-349.7" class="st13" width="147.8" height="18.3"/>
		<text transform="matrix(1 0 0 1 659.819 -339.5801)" class="st5" style="font-family:'EditUndoBRK'; font-size:17.5636px;">Recalibrate</text>
	</g>
	<g>
		<rect x="637.8" y="-356.1" class="st5" width="13.1" height="1.7"/>
		<rect x="652.7" y="-356.1" class="st5" width="1.7" height="1.7"/>
	</g>
</g>
<g>
	<g>
		<polygon class="st9" points="776.2,-316.2 772.6,-316.2 635.4,-316.2 635.4,-312.5 631.7,-312.5 631.7,-291.3 635.4,-291.3 
			635.4,-287.7 772.6,-287.7 776.2,-287.7 776.2,-291.3 779.9,-291.3 779.9,-312.5 776.2,-312.5 		"/>
		<polygon class="st10" points="776.2,-319.9 772.6,-319.9 635.4,-319.9 635.4,-316.2 631.7,-316.2 631.7,-295 635.4,-295 
			635.4,-291.3 772.6,-291.3 776.2,-291.3 776.2,-295 779.9,-295 779.9,-316.2 776.2,-316.2 		"/>
		<rect x="632.1" y="-311.4" class="st13" width="147.8" height="18.3"/>
		<text transform="matrix(1 0 0 1 659.819 -301.2391)" class="st5" style="font-family:'EditUndoBRK'; font-size:17.5636px;">Recalibrate</text>
	</g>
	<g>
		<rect x="637.8" y="-317.1" class="st5" width="13.1" height="1.7"/>
		<rect x="652.7" y="-317.1" class="st5" width="1.7" height="1.7"/>
	</g>
</g>
<g>
	<rect x="1057.6" y="-585.4" class="st5" width="23.6" height="3"/>
	<rect x="1084.4" y="-585.4" class="st5" width="3" height="3"/>
</g>
<g>
	<rect x="737.2" y="-646.8" class="st5" width="23.6" height="3"/>
	<rect x="764" y="-646.8" class="st5" width="3" height="3"/>
</g>
<g>
	<polygon class="st22" points="707.1,-523.3 707.1,-530.8 688.5,-530.8 688.5,-523.3 681,-523.3 681,-515.9 681,-504.7 
		688.5,-504.7 688.5,-497.2 699.7,-497.2 707.1,-497.2 707.1,-504.7 714.6,-504.7 714.6,-515.9 714.6,-523.3 	"/>
	<line class="st23" x1="689.1" y1="-497.2" x2="689.1" y2="-487.3"/>
	<line class="st23" x1="706.5" y1="-497.2" x2="706.5" y2="-487.3"/>
	<polygon class="st24" points="705.5,-489.1 703.4,-489.1 690,-489.1 690,-486.9 687.8,-486.9 687.8,-471.4 690,-471.4 690,-469.2 
		703.4,-469.2 705.5,-469.2 705.5,-471.4 707.7,-471.4 707.7,-486.9 705.5,-486.9 	"/>
</g>
<polygon class="st25" points="774.2,-84.1 774.2,-92 766.3,-92 701.3,-92 632.5,-92 632.5,-84.1 624.6,-84.1 624.6,-38.5 
	632.5,-38.5 632.5,-30.6 701.3,-30.6 766.3,-30.6 774.2,-30.6 774.2,-38.5 782.1,-38.5 782.1,-84.1 "/>
<polygon class="st25" points="774.2,-84 774.2,-91.9 766.3,-91.9 701.3,-91.9 632.5,-91.9 632.5,-84 624.6,-84 624.6,-38.4 
	632.5,-38.4 632.5,-30.5 701.3,-30.5 766.3,-30.5 774.2,-30.5 774.2,-38.4 782.1,-38.4 782.1,-84 "/>
<rect x="649.8" y="-72.3" class="st13" width="107.1" height="64.4"/>
<text transform="matrix(1 0 0 1 665.2638 -50.5269)" class="st5" style="font-family:'EditUndoBRK'; font-size:37.7933px;">PLAY</text>
<polygon class="st25" points="944.2,-84.1 944.2,-92 936.3,-92 871.3,-92 802.5,-92 802.5,-84.1 794.6,-84.1 794.6,-38.5 
	802.5,-38.5 802.5,-30.6 871.3,-30.6 936.3,-30.6 944.2,-30.6 944.2,-38.5 952.1,-38.5 952.1,-84.1 "/>
<polygon class="st22" points="944.2,-92 944.2,-99.9 936.3,-99.9 871.3,-99.9 802.5,-99.9 802.5,-92 794.6,-92 794.6,-46.4 
	802.5,-46.4 802.5,-38.5 871.3,-38.5 936.3,-38.5 944.2,-38.5 944.2,-46.4 952.1,-46.4 952.1,-92 "/>
<rect x="819.8" y="-80.3" class="st13" width="107.1" height="64.4"/>
<text transform="matrix(1 0 0 1 835.2638 -58.5269)" class="st5" style="font-family:'EditUndoBRK'; font-size:37.7933px;">PLAY</text>
<g>
	<path class="st26" d="M-49.4-329.7h43.2v108H37v-108h43.2v129.6H58.6v21.6H37v21.6H-6.2v-21.6h-21.6v-21.6h-21.6V-329.7z"/>
	<path class="st27" d="M101.8-306h21.6v-21.6h108v43.2H145v21.6h64.8v21.6h21.6v64.8h-21.6v21.6h-108V-198h86.4v-21.6h-64.8v-21.6
		h-21.6V-306z"/>
</g>
<g>
	<path class="st28" d="M-49.4-350.7h43.2v108H37v-108h43.2v129.6H58.6v21.6H37v21.6H-6.2v-21.6h-21.6v-21.6h-21.6V-350.7z"/>
	<path class="st29" d="M101.8-329.1h21.6v-21.6h108v43.2H145v21.6h64.8v21.6h21.6v64.8h-21.6v21.6h-108v-43.2h86.4v-21.6h-64.8
		v-21.6h-21.6V-329.1z"/>
</g>
<g>
	<g>
		<path class="st0" d="M0,27.9h27.5v68.7h27.5V27.9h27.5v82.4H68.7V124H54.9v13.7H27.5V124H13.7v-13.7H0V27.9z"/>
		<path class="st0" d="M96.1,42.9h13.7V29.2h68.7v27.5h-54.9v13.7h41.2v13.7h13.7v41.2h-13.7v13.7H96.1v-27.5h54.9V97.9h-41.2V84.1
			H96.1V42.9z"/>
	</g>
	<g>
		<path class="st7" d="M0,13.4h27.5v68.7h27.5V13.4h27.5v82.4H68.7v13.7H54.9v13.7H27.5v-13.7H13.7V95.8H0V13.4z"/>
		<path class="st7" d="M96.1,28.4h13.7V14.7h68.7v27.5h-54.9v13.7h41.2v13.7h13.7v41.2h-13.7v13.7H96.1V97.1h54.9V83.4h-41.2V69.6
			H96.1V28.4z"/>
	</g>
	<g>
		<path class="st5" d="M0,0h27.5v68.7h27.5V0h27.5v82.4H68.7v13.7H54.9v13.7H27.5V96.1H13.7V82.4H0V0z"/>
		<path class="st5" d="M96.1,13.7h13.7V0h68.7v27.5h-54.9v13.7h41.2v13.7h13.7v41.2h-13.7v13.7H96.1V82.4h54.9V68.7h-41.2V54.9H96.1
			V13.7z"/>
	</g>
</g>
</svg>
