<!-- Generator: Adobe Illustrator 19.2.1, SVG Export Plug-In  -->
<svg version="1.1"
	 xmlns="http://www.w3.org/2000/svg" xmlns:xlink="http://www.w3.org/1999/xlink" xmlns:a="http://ns.adobe.com/AdobeSVGViewerExtensions/3.0/"
	 x="0px" y="0px" width="113px" height="88.1px" viewBox="0 0 113 88.1" style="enable-background:new 0 0 113 88.1;"
	 xml:space="preserve">
<style type="text/css">
	.st0{fill:#5895B7;}
	.st1{fill:#95C9C8;}
	.st2{fill:#FFFFFF;}
</style>
<defs>
</defs>
<g>
	<g>
		<path class="st0" d="M0,17.7h17.4v43.5h17.4V17.7h17.4v52.2h-8.7v8.7h-8.7v8.7H17.5v-8.6H8.8v-8.7H0.1V17.7H0z"/>
		<path class="st0" d="M60.8,27.2h8.7v-8.7H113V36H78.2v8.7h26.1v8.7h8.7v26.1h-8.7v8.7H60.8V70.6h34.8V62H69.5v-8.7h-8.7V27.2z"/>
	</g>
	<g>
		<path class="st1" d="M0,8.5h17.4V52h17.4V8.5h17.4v52.2h-8.7v8.7h-8.7V78H17.5v-8.7H8.8v-8.7H0.1V8.5H0z"/>
		<path class="st1" d="M60.8,18h8.7V9.4H113v17.4H78.2v8.7h26.1v8.7h8.7v26.1h-8.7v8.7H60.8V61.5h34.8v-8.7H69.5v-8.7h-8.7V18z"/>
	</g>
	<g>
		<path class="st2" d="M0,0h17.4v43.5h17.4V0h17.4v52.2h-8.7v8.7h-8.7v8.7H17.5v-8.7H8.8v-8.7H0.1V0H0z"/>
		<path class="st2" d="M60.8,8.7h8.7V0.1H113v17.4H78.2v8.7h26.1v8.7h8.7v26.1h-8.7v8.7H60.8V52.2h34.8v-8.7H69.5v-8.7h-8.7V8.7z"/>
	</g>
</g>
</svg>
