<svg id="Layer_1" xmlns="http://www.w3.org/2000/svg" width="178.5" height="139.1" viewBox="0 0 178.5 139.1"><style>.st0{fill:#5895b7}.st1{opacity:.8}.st2{fill:#c17620}.st3{fill:#f4c24a}.st4{fill:#2a6fba}.st5{fill:#fff}.st6{fill:#4abaef}.st7{fill:#95c9c8}.st8{fill:#ddefee}.st9{fill:#1b8e6f}.st10{fill:#3cea8a}.st11{opacity:.4;fill:#666}.st12{fill:#33bc6e}.st13{fill:none}.st14{fill:#7149a4}.st15{fill:#bd86e0}.st16{opacity:.4;fill:#666;stroke:#666;stroke-width:4;stroke-linejoin:bevel;stroke-miterlimit:10}.st17{fill:#f2f2f2}.st18{fill:#e6e6e6}.st19{fill:none;stroke:#000;stroke-width:4;stroke-linejoin:bevel;stroke-miterlimit:10}.st20{fill:#c6e0de}.st21{fill:#a7c6c3}.st22{fill:#ee3d53}.st23{fill:none;stroke:#000;stroke-width:2;stroke-miterlimit:10}.st24{fill:#a17559}.st25{fill:#910e46}.st26{fill:#238d6f}.st27{fill:#704ca2}.st28{fill:#47e88d}.st29{fill:#bc88de}</style><path class="st0" d="M1155.8 144.1h484v82h-484z"/><path class="st0" d="M1607.8 218.1h107v30h-107z"/><g class="st1"><path class="st0" d="M1171.8 164.1v82h-96v-11h12v-12h12v-12h12v-12h-12v-12h-12v-12h-12v-11z"/><path class="st0" d="M1157.8 222.1l14 23v-23z"/></g><path class="st2" d="M1618.8 156.1v82h96v-11h-12v-12h-12v-12h-12v-12h12v-12h12v-12h12v-11z"/><path class="st3" d="M1618.8 145.1v82h96v-11h-12v-12h-12v-12h-12v-12h12v-12h12v-12h12v-11z"/><path class="st2" d="M1632.8 214.1l-14 23v-23zm-470-58v82h-96v-11h12v-12h12v-12h12v-12h-12v-12h-12v-12h-12v-11z"/><path class="st3" d="M1162.8 145.1v82h-96v-11h12v-12h12v-12h12v-12h-12v-12h-12v-12h-12v-11z"/><path class="st2" d="M1148.8 214.1l14 23v-23zm0-82h484v82h-484z"/><path class="st3" d="M1148.8 120.1h484v82h-484z"/><path class="st13" d="M1171.6 145.3h415.2v81.8h-415.2z"/><text transform="translate(1210.777 179.86)" class="st5" font-family="EditUndoBRK" font-size="60">HOW TO PLAY</text><path class="st4" d="M1324.8 413.1h-85v12h-12v85h12v12h85v-12h12v-85h-12z"/><path class="st4" d="M1324.8 413.1h-85v12h-12v85h12v12h85v-12h12v-85h-12z"/><path class="st13" d="M1239.8 447.3h89v81.8h-89z"/><text transform="translate(1264.392 492.804)" class="st5" font-family="EditUndoBRK" font-size="79">?</text><path class="st4" d="M1475.8 413.1h-85v12h-12v85h12v12h85v-12h12v-85h-12z"/><path class="st6" d="M1475.8 403.1h-85v12h-12v85h12v12h85v-12h12v-85h-12z"/><path class="st13" d="M1390.8 437.3h89v81.8h-89z"/><text transform="translate(1415.392 482.804)" class="st5" font-family="EditUndoBRK" font-size="79">?</text><path class="st0" d="M2510.8 257.6h-11.6V246h-11.5v-12.8h-498.8V246h-11.5v11.6h-11.6v684.7h11.6V954h11.5v12.8h498.8V954h11.5v-11.7h11.6z"/><path class="st7" d="M2510.8 245.6h-11.6v-11.7h-11.5v-12.8h-498.8v12.8h-11.5v11.7h-11.6v684.7h11.6v11.6h11.5v12.9h498.8v-12.9h11.5v-11.6h11.6z"/><path class="st8" d="M2510.8 233.6h-11.6v-11.7h-11.5v-12.8h-498.8v12.8h-11.5v11.7h-11.6v684.7h11.6v11.6h11.5v12.8h498.8v-12.8h11.5v-11.6h11.6z"/><path class="st9" d="M1461.8-106.9h-384.9v10.1h-10.1V-39h10.1v10.1h384.9V-39h10.1v-57.8h-10.1z"/><path class="st10" d="M1461.8-116.9h-384.9v10.1h-10.1V-49h10.1v10.1h384.9V-49h10.1v-57.8h-10.1z"/><path class="st13" d="M1067.8-93.7h404v81.8h-404z"/><text transform="translate(1179.945 -66.017)" class="st5" font-family="EditUndoBRK" font-size="48">PLAYER 1</text><path class="st11" d="M1101-227.5l-2-5.8-4-12-17.8 6 1.9 5.8-5.8 2 4.1 12 5.8-2 1.9 5.8 12.1-4.1-2-5.7zm38.8-12.1l-2-5.7-4-12-17.8 6 1.9 5.7-5.8 2 4.1 12 5.8-1.9 1.9 5.7 12.1-4-2-5.8z"/><path transform="rotate(-18.702 1083.86 -267.326)" d="M1080.2-286.5h7.1v38.6h-7.1z"/><path d="M1099.4-232.3l-2-5.8-4.1-12-17.8 6 2 5.8-5.8 2 4.1 12 5.8-2 1.9 5.8 12-4.1-1.9-5.7z"/><path transform="rotate(-18.702 1122.33 -280.356)" d="M1118.7-299.5h7.1v38.6h-7.1z"/><path d="M1137.8-245.3l-1.9-5.8-4.1-12-17.8 6 2 5.8-5.8 1.9 4.1 12.1 5.7-2 2 5.8 12-4.1-1.9-5.8z"/><path transform="rotate(-18.702 1094.137 -300.29)" d="M1070.2-308.8h47.7v17.3h-47.7z"/><path class="st11" d="M1167.2-193.9l.9-4.2 1.9-8.6-12.8-2.8-.9 4.1-4.1-.9-2 8.7 4.2.9-.9 4.1 8.6 1.9.9-4.1zm27.5 6.8l.9-4.2 1.9-8.6-12.8-2.8-.9 4.1-4.1-.9-1.9 8.6 4.1 1-.9 4.1 8.6 1.9 1-4.1z"/><path transform="rotate(12.41 1171.172 -223.832)" d="M1168.8-237.3h5v26.9h-5z"/><path d="M1168-197.4l.9-4.1 1.9-8.7-12.8-2.8-.9 4.2-4.2-.9-1.9 8.6 4.2.9-1 4.2 8.7 1.9.9-4.2z"/><path transform="rotate(12.41 1198.832 -217.747)" d="M1196.4-231.2h5v26.9h-5z"/><path d="M1195.6-191.3l.9-4.1 1.9-8.7-12.8-2.8-.9 4.2-4.1-1-1.9 8.7 4.1.9-.9 4.2 8.7 1.9.9-4.2z"/><path transform="rotate(12.41 1189.186 -239.806)" d="M1172.6-245.8h33.3v12h-33.3z"/><path class="st11" d="M1243.2-255.7l-.7-3.1-1.4-6.3-9.4 2.1.7 3-3 .7 1.4 6.4 3-.7.7 3 6.3-1.4-.6-3zm20.4-4l-.6-3.1-1.5-6.3-9.3 2.1.6 3-3 .7 1.4 6.3 3-.6.7 3 6.4-1.4-.7-3z"/><path transform="rotate(-12.552 1236.565 -276.836)" d="M1234.8-286.8h3.6v19.8h-3.6z"/><path d="M1242.6-258.2l-.6-3.1-1.4-6.3-9.4 2.1.6 3-3 .7 1.4 6.3 3.1-.7.6 3.1 6.4-1.4-.7-3.1z"/><path transform="rotate(-12.552 1256.872 -281.356)" d="M1255.1-291.3h3.6v19.8h-3.6z"/><path d="M1263-262.8l-.7-3-1.4-6.4-9.4 2.1.7 3.1-3.1.7 1.4 6.3 3.1-.7.6 3.1 6.4-1.4-.7-3.1z"/><path transform="rotate(-12.552 1243.61 -293.057)" d="M1231.5-297.5h24.4v8.8h-24.4z"/><path class="st11" d="M1263.8-209.9l2.6-4.2 5.5-8.5-12.7-8.1-2.6 4.1-4.1-2.6-5.5 8.6 4.1 2.6-2.6 4.1 8.6 5.5 2.6-4.2zm27 18.1l2.6-4.1 5.5-8.6-12.7-8.1-2.6 4.1-4.1-2.6-5.5 8.6 4.1 2.6-2.6 4.1 8.6 5.5 2.6-4.1z"/><path transform="rotate(32.435 1279.932 -240.663)" d="M1277.1-256h5.7v30.9h-5.7z"/><path d="M1266-213.4l2.6-4.1 5.5-8.6-12.7-8-2.6 4.1-4.2-2.6-5.4 8.6 4.1 2.6-2.6 4.1 8.6 5.4 2.6-4.1z"/><path transform="rotate(32.435 1307.36 -223.237)" d="M1304.5-238.6h5.7v30.9h-5.7z"/><path d="M1293.4-195.9l2.6-4.2 5.5-8.5-12.7-8.1-2.6 4.1-4.1-2.6-5.5 8.6 4.1 2.6-2.6 4.1 8.6 5.5 2.6-4.2z"/><path transform="rotate(32.435 1305.626 -250.806)" d="M1286.5-257.7h38.2v13.8h-38.2z"/><path class="st9" d="M985.1-650.4h-253v6.7h-6.6v38h6.6v6.6h253v-6.6h6.6v-38h-6.6z"/><path class="st12" d="M985.1-650.4h-253v6.7h-6.6v38h6.6v6.6h253v-6.6h6.6v-38h-6.6z"/><path class="st13" d="M726.1-635.1h265.5v32.8H726.1z"/><text transform="translate(791.88 -616.924)" class="st5" font-family="EditUndoBRK" font-size="31.543">Calibrate</text><path class="st9" d="M1305.1-582.4h-253v6.7h-6.6v38h6.6v6.6h253v-6.6h6.6v-38h-6.6z"/><path class="st10" d="M1305.1-588.9h-253v6.6h-6.6v38h6.6v6.6h253v-6.6h6.6v-38h-6.6z"/><path class="st13" d="M1046.1-573.7h265.5v32.8h-265.5z"/><text transform="translate(1111.88 -555.496)" class="st5" font-family="EditUndoBRK" font-size="31.543">Calibrate</text><path class="st9" d="M1047.1-500h219.8v28.8h-219.8z"/><path class="st9" d="M1042.2-506.6h229.4v30.6h-229.4z"/><path class="st10" d="M1042.2-510.9v29.2h4.9v5.7h219.7v-5.7h4.8v-29.2z"/><path class="st9" d="M1262-496.1v-5.1h-5.1v-.1h-200v.1h-5.1v5.1h-5.1v7.6h5.1v5.1h5.1v.1H1262v-5.1h5.1v-7.7z"/><path class="st13" d="M1038.1-402h4.7v.1h-4.7zm0 17.9h4.7v.1h-4.7z"/><path class="st5" d="M1059.1-384.1v-5.1h5.1v-7.6h-5.1v-5.1h-5.1v-.1h-11.2v.1h-4.7v17.8h4.7v.1h11.2v-.1zm-46.8-53.4v-5.1h-5.1v-.1h-15.9v18h15.9v-.1h5.1v-5.1h5.1v-7.6zm-13.5 38.8v-5.2h-9.6v5.2h-5.1v7.6h5.1v5.2h9.6v-5.1h5.1v-7.7zM949-496.1v-5.2h-9.6v5.2h-5.1v7.6h5.1v5.2h9.6v-5.1h5.1v-7.7z"/><path class="st14" d="M1914.8-106.9h-384.9v10.1h-10.1V-39h10.1v10.1h384.9V-39h10.1v-57.8h-10.1z"/><path class="st15" d="M1914.8-116.9h-384.9v10.1h-10.1V-49h10.1v10.1h384.9V-49h10.1v-57.8h-10.1z"/><path class="st13" d="M1519.8-93.7h405v81.8h-405z"/><text transform="translate(1625.532 -66.017)" class="st5" font-family="EditUndoBRK" font-size="48">PLAYER 2</text><path class="st5" d="M1540.8-112.9h45.1v5.7h-45.1zm51.3 0h5.7v5.7h-5.7zm-505.8 1h45.1v5.7h-45.1zm51.3 0h5.7v5.7h-5.7z"/><path class="st16" d="M1475.4-271.9l6.4 5.6-5.6 6.4 20.4 17.4v37.9l20.8-26.1 31.7 29.3 5.9-6.2 5 4.6 71.6-118.7z"/><path class="st17" d="M1473-279l6.3 5.6-5.6 6.4 20.5 17.3v37.9l20.7-26.1 31.8 29.4 5.8-6.2 5 4.6 71.6-118.7z"/><path class="st18" d="M1515-238.1l114.4-90.7-135.1 78.9v37.9z"/><path class="st19" d="M1471.9-278.9l6.4 5.6-5.6 6.4 20.4 17.4v37.9l20.8-26.1 31.7 29.4 5.9-6.3 4.9 4.6 71.7-118.7z"/><path class="st20" d="M1407.7-585.6V-422h10.4v9.5h10.4v10.5H1876v-10.5h10.4v-9.5h10.3v-163.6zm489 0v-94.1h-10.3v-9.5H1876v-10.5h-447.5v10.5h-10.4v9.5h-10.4v94.1z"/><path class="st21" d="M1418.1-683.1h10.4v-8h-10.4v7.9h-10.4v8h10.4zm10.4-16.7H1876v8h-447.5zm457.9 16.6v-7.9H1876v8h10.4v7.9h10.3v-8z"/><path d="M1014.6-764.1h10.2v10.2h-10.2zm61.4-10.2v5.1h-5.1v5.1h5.1v20.5h5.1v5.1h-5.1v5.1h10.2v-10.2h15.4v5.1h5.1v-35.8H1076zm25.6 25.6h-20.5v-20.5h20.5v20.5z"/><path d="M1086.3-764.1h10.2v10.2h-10.2zm-71.7 71.7h10.2v10.2h-10.2zm61.4-10.2h5.1v5.1h-5.1zm-25.6 25.6h5.1v5.1h-5.1zm5.2-20.5h5.1v5.1h-5.1zm0 10.2h5.1v5.1h-5.1zm46-25.6h5.1v5.1h-5.1zm-97.2 0h5.1v5.1h-5.1zm0-25.6h5.1v5.1h-5.1zm56.3-30.7v5.1h-10.3v5.1h15.4v-10.2z"/><path d="M1101.6-733.4v5.1h-10.2v5.1H1076v-5.1h-5.1v5.1h-10.2v5.1h15.4v5.1h-15.3v-5.1h-5.1v5.1h-5.1v-5.1h-5.1v5.1h-5.1v5.1h10.2v5.1h5.1v-5.1h10.2v5.1h-5.1v5.1h5.1v10.2h5.1v5.1h5.1v-5.1h15.4v-10.2h5.1v-5.1h-5.1V-713h-10.2v-5.1h10.2v5.1h5.1v-5.1h5.1v-5.1h5.1v-10.2h-5.2zm-15.3 25.6v15.4h-15.4v-15.4h15.4zm-15.4-35.8h-5.1v5.1h-5.1v10.3h5.1v-5.2h5.1v-5.1h5.1v-5.1zm-10.2 66.6h10.2v5.1h-10.2zm-15.4-92.2h5.1v5.1h-5.1z"/><path d="M1086.3-733.4h5.1v5.1h-5.1zm5.1-5.1h5.1v5.1h-5.1zm-66.6 25.6h5.1v5.1h-5.1zm10.3 35.9v-20.5h5.1v-10.2h-5.1v5.1h-15.4v-5.1h-10.2v5.1h-5.1v30.7h40.9v-5.1h-10.2zm-5.1 0h-20.5v-20.5h20.5v20.5zm5.1-66.6h5.1v5.1h-5.1zm5.1-30.7h-35.8v30.7h5.1v5.1h5.1v-5.1h5.1v5.1h5.1v-5.1h10.2v-10.2h5.1v-5.1h-5.1v-10.2h10.2v-5.1h-5zm-10.2 25.6h-20.5v-20.5h20.5v20.5zm35.8-10.3h5.1v5.1h-5.1zm-10.2-15.3h5.1v5.1h-5.1z"/><path d="M1065.8-743.6v-5.1h-5.1v-5.1h-5.1v5.1h-10.2v-5.1h-5.1v10.2h5.1v10.2H1030v-5.1h-5.1v5.1h-15.4v5.1h10.2v5.1h-15.4v5.1h15.4v5.1h5.1v-5.1h5.1v5.1h5.1v-5.1h10.2v-5.1h-5.1v-5.1h10.2v5.1h10.2v-5.1h-5.1v-5.1h-5.1v-10.2h15.5zm-30.7 20.5h-10.2v-5.1h10.2v5.1zm15.3 30.7v-10.2h-5.1v5.1h-5.1v5.1h5.1v5.1h-5.1v5.1h10.2v-5.1h5.2v-5.1zm46.1 10.2v-5.1h-5.1v5.1H1076v5.2h10.3v5.1h5.1v-5.1h10.2v5.1h5.2v-10.3zm5.1-20.4v5.1h-5.1v5.1h10.3v-10.2z"/><path class="st9" d="M776.2-358.2H635.4v3.7h-3.7v21.2h3.7v3.6h140.8v-3.6h3.7v-21.2h-3.7z"/><path class="st12" d="M776.2-358.2H635.4v3.7h-3.7v21.2h3.7v3.6h140.8v-3.6h3.7v-21.2h-3.7z"/><path class="st13" d="M632.1-349.7h147.8v18.3H632.1z"/><text transform="translate(659.819 -339.58)" class="st5" font-family="EditUndoBRK" font-size="17.564">Recalibrate</text><path class="st5" d="M637.8-356.1h13.1v1.7h-13.1zm14.9 0h1.7v1.7h-1.7z"/><path class="st9" d="M776.2-316.2H635.4v3.7h-3.7v21.2h3.7v3.6h140.8v-3.6h3.7v-21.2h-3.7z"/><path class="st10" d="M776.2-319.9H635.4v3.7h-3.7v21.2h3.7v3.7h140.8v-3.7h3.7v-21.2h-3.7z"/><path class="st13" d="M632.1-311.4h147.8v18.3H632.1z"/><text transform="translate(659.819 -301.24)" class="st5" font-family="EditUndoBRK" font-size="17.564">Recalibrate</text><path class="st5" d="M637.8-317.1h13.1v1.7h-13.1zm14.9 0h1.7v1.7h-1.7zm404.9-268.3h23.6v3h-23.6zm26.8 0h3v3h-3zm-347.2-61.4h23.6v3h-23.6zm26.8 0h3v3h-3z"/><path class="st22" d="M707.1-523.3v-7.5h-18.6v7.5H681v18.6h7.5v7.5h18.6v-7.5h7.5v-18.6z"/><path class="st23" d="M689.1-497.2v9.9m17.4-9.9v9.9"/><path class="st24" d="M705.5-489.1H690v2.2h-2.2v15.5h2.2v2.2h15.5v-2.2h2.2v-15.5h-2.2z"/><path class="st25" d="M774.2-84.1V-92H632.5v7.9h-7.9v45.6h7.9v7.9h141.7v-7.9h7.9v-45.6z"/><path class="st25" d="M774.2-84v-7.9H632.5v7.9h-7.9v45.6h7.9v7.9h141.7v-7.9h7.9V-84z"/><path class="st13" d="M649.8-72.3h107.1v64.4H649.8z"/><text transform="translate(665.264 -50.527)" class="st5" font-family="EditUndoBRK" font-size="37.793">PLAY</text><path class="st25" d="M944.2-84.1V-92H802.5v7.9h-7.9v45.6h7.9v7.9h141.7v-7.9h7.9v-45.6z"/><path class="st22" d="M944.2-92v-7.9H802.5v7.9h-7.9v45.6h7.9v7.9h141.7v-7.9h7.9V-92z"/><path class="st13" d="M819.8-80.3h107.1v64.4H819.8z"/><text transform="translate(835.264 -58.527)" class="st5" font-family="EditUndoBRK" font-size="37.793">PLAY</text><path class="st26" d="M-49.4-329.7h43.2v108H37v-108h43.2v129.6H58.6v21.6H37v21.6H-6.2v-21.6h-21.6v-21.6h-21.6v-129.6z"/><path class="st27" d="M101.8-306h21.6v-21.6h108v43.2H145v21.6h64.8v21.6h21.6v64.8h-21.6v21.6h-108V-198h86.4v-21.6h-64.8v-21.6h-21.6V-306z"/><path class="st28" d="M-49.4-350.7h43.2v108H37v-108h43.2v129.6H58.6v21.6H37v21.6H-6.2v-21.6h-21.6v-21.6h-21.6v-129.6z"/><path class="st29" d="M101.8-329.1h21.6v-21.6h108v43.2H145v21.6h64.8v21.6h21.6v64.8h-21.6v21.6h-108v-43.2h86.4v-21.6h-64.8v-21.6h-21.6v-64.8z"/><path class="st0" d="M0 27.9h27.5v68.7H55V27.9h27.5v82.4H68.7V124H54.9v13.7H27.5V124H13.7v-13.7H0V27.9zm96.1 15h13.7V29.2h68.7v27.5h-54.9v13.7h41.2v13.7h13.7v41.2h-13.7V139H96.1v-27.5H151V97.9h-41.2V84.1H96.1V42.9z"/><path class="st7" d="M0 13.4h27.5v68.7H55V13.4h27.5v82.4H68.7v13.7H54.9v13.7H27.5v-13.7H13.7V95.8H0V13.4zm96.1 15h13.7V14.7h68.7v27.5h-54.9v13.7h41.2v13.7h13.7v41.2h-13.7v13.7H96.1V97.1H151V83.4h-41.2V69.6H96.1V28.4z"/><path class="st5" d="M0 0h27.5v68.7H55V0h27.5v82.4H68.7v13.7H54.9v13.7H27.5V96.1H13.7V82.4H0V0zm96.1 13.7h13.7V0h68.7v27.5h-54.9v13.7h41.2v13.7h13.7v41.2h-13.7v13.7H96.1V82.4H151V68.7h-41.2V54.9H96.1V13.7z"/></svg>