<svg xmlns="http://www.w3.org/2000/svg" width="200" height="36.9" viewBox="0 0 200 36.9"><style>.st0{fill:#bd86e0}</style><path class="st0" d="M3 12H0V0h3v6h1.5V4.5H6V6h1.5V0h3v12h-3v-1.5H6V8.9H4.5v1.5H3V12zm11.9 0h-3V1.5h1.5V0h6v1.5h1.5V12h-3V7.5h-3V12zm3-7.5V3h-3v1.5h3zM22.4 0h8.9v3h-3v6h3v3h-8.9V9h3V3h-3V0zm10.4 0h8.9v3h-3v9h-3V3h-3c.1 0 .1-3 .1-3zm10.5 0h8.9v3h-3v6h3v3h-8.9V9h3V3h-3V0zm14.9 6h-1.5v6h-3V0h3v1.5h1.5V3h1.5V0h3v12h-3V7.5h-1.5V6zm7.4 4.5h-1.5V1.6h1.5V0h7.5v3h-6v6h3V7.5h-1.5v-3h4.5V12h-7.5v-1.5zM88 12h-3V1.5h1.5V0H94v3h-6v1.5h3v3h-3V12zm7.5-10.5H97V0h6v1.5h1.5v8.9H103V12h-6v-1.5h-1.5v-9zm3 7.5h3V3h-3v6zm11.9-1.5h-1.5V12h-3V0h7.5v1.5h1.5V6h-1.5v1.5h1.5V12h-3V9h-1.5V7.5zm-1.5-3h3V3h-3v1.5zm19.4 6h-1.5V1.6h1.5V0h7.5v3h-6v6h3V7.5h-1.5v-3h4.5V12h-7.5v-1.5zm12 1.5h-3V1.5h1.5V0h6v1.5h1.5V12h-3V7.5h-3V12zm2.9-7.5V3h-3v1.5h3zm7.5 7.5h-3V0h3v1.5h1.5V3h1.5V1.6h1.5V0h3v12h-3V6h-1.5v1.5h-1.5V6h-1.5v6zm10.5-1.5h-1.5V1.6h1.5V0h7.5v3h-6v1.5h3v3h-3V9h6v3h-7.5v-1.5zM180.5 0h8.9v3h-3v9h-3V3h-3l.1-3zM191 1.5h1.5V0h6v1.5h1.5v8.9h-1.5V12h-6v-1.5H191v-9zm3 7.5h3V3h-3v6zM67.9 26.4h1.5v-1.5h7.5v3h-6v1.5h4.5v1.5h1.5v4.5h-1.5v1.5h-7.5v-3h6v-1.5h-4.5v-1.5h-1.5v-4.5zm10.4-1.5h8.9v3h-3v8.9h-3v-8.9h-3l.1-3zm13.5 11.9h-3V26.4h1.5v-1.5h6v1.5h1.5v10.5h-3v-4.5h-3v4.4zm2.9-7.4v-1.5h-3v1.5h3zm9 2.9h-1.5v4.5h-3V24.9h7.5v1.5h1.5v4.5h-1.5v1.5h1.5v4.5h-3v-3h-1.5v-1.6zm-1.5-2.9h3v-1.5h-3v1.5zm7.5-4.5h8.9v3h-3v8.9h-3v-8.9h-3l.1-3zm10.4 9h3v3h-3v-3zm4.5 0h3v3h-3v-3zm4.5 0h3v3h-3v-3z"/></svg>