<?xml version="1.0" encoding="utf-8"?>
<!-- Generator: Adobe Illustrator 22.0.1, SVG Export Plug-In . SVG Version: 6.00 Build 0)  -->
<svg version="1.1" id="Layer_1" xmlns="http://www.w3.org/2000/svg" xmlns:xlink="http://www.w3.org/1999/xlink" x="0px" y="0px"
	 width="19.8px" height="18px" viewBox="0 0 19.8 18" style="enable-background:new 0 0 19.8 18;" xml:space="preserve">
<style type="text/css">
	.st0{fill:#5895B7;}
	.st1{opacity:0.8;}
	.st2{fill:#C17620;}
	.st3{fill:#F4C24A;}
	.st4{fill:#2A6FBA;}
	.st5{fill:#4ABAEF;}
	.st6{fill:#FFFFFF;}
	.st7{fill:#95C9C8;}
	.st8{fill:#DDEFEE;}
	.st9{fill:#1B8E6F;}
	.st10{fill:#3CEA8A;}
	.st11{opacity:0.4;fill:#666666;}
	.st12{fill:none;}
</style>
<g>
	<rect x="221.5" y="645.3" class="st0" width="484" height="82"/>
	<rect x="673.5" y="719.3" class="st0" width="107" height="30"/>
	<g class="st1">
		<g>
			<polygon class="st0" points="237.5,665.3 237.5,747.3 141.5,747.3 141.5,736.3 153.5,736.3 153.5,724.3 165.5,724.3 165.5,712.3 
				177.5,712.3 177.5,700.3 165.5,700.3 165.5,688.3 153.5,688.3 153.5,676.3 141.5,676.3 141.5,665.3 			"/>
		</g>
		<polygon class="st0" points="223.5,723.3 237.5,746.3 237.5,723.3 		"/>
	</g>
	<g>
		<g>
			<polygon class="st2" points="684.5,657.3 684.5,739.3 780.5,739.3 780.5,728.3 768.5,728.3 768.5,716.3 756.5,716.3 756.5,704.3 
				744.5,704.3 744.5,692.3 756.5,692.3 756.5,680.3 768.5,680.3 768.5,668.3 780.5,668.3 780.5,657.3 			"/>
			<polygon class="st3" points="684.5,646.3 684.5,728.3 780.5,728.3 780.5,717.3 768.5,717.3 768.5,705.3 756.5,705.3 756.5,693.3 
				744.5,693.3 744.5,681.3 756.5,681.3 756.5,669.3 768.5,669.3 768.5,657.3 780.5,657.3 780.5,646.3 			"/>
		</g>
		<polygon class="st2" points="698.5,715.3 684.5,738.3 684.5,715.3 		"/>
		<g>
			<g>
				<polygon class="st2" points="228.5,657.3 228.5,739.3 132.5,739.3 132.5,728.3 144.5,728.3 144.5,716.3 156.5,716.3 
					156.5,704.3 168.5,704.3 168.5,692.3 156.5,692.3 156.5,680.3 144.5,680.3 144.5,668.3 132.5,668.3 132.5,657.3 				"/>
				<polygon class="st3" points="228.5,646.3 228.5,728.3 132.5,728.3 132.5,717.3 144.5,717.3 144.5,705.3 156.5,705.3 
					156.5,693.3 168.5,693.3 168.5,681.3 156.5,681.3 156.5,669.3 144.5,669.3 144.5,657.3 132.5,657.3 132.5,646.3 				"/>
			</g>
			<polygon class="st2" points="214.5,715.3 228.5,738.3 228.5,715.3 			"/>
		</g>
		<g>
			<rect x="214.5" y="633.3" class="st2" width="484" height="82"/>
			<rect x="214.5" y="621.3" class="st3" width="484" height="82"/>
		</g>
	</g>
	<rect x="237.3" y="646.6" class="st12" width="415.2" height="81.8"/>
	<text transform="matrix(1 0 0 1 276.4767 681.1308)" class="st6" style="font-family:'EditUndoBRK'; font-size:60px;">HOW TO PLAY</text>
</g>
<polygon class="st4" points="541.5,914.3 529.5,914.3 456.5,914.3 456.5,926.3 444.5,926.3 444.5,1011.3 456.5,1011.3 456.5,1023.3 
	529.5,1023.3 541.5,1023.3 541.5,1011.3 553.5,1011.3 553.5,926.3 541.5,926.3 "/>
<polygon class="st5" points="541.5,904.3 529.5,904.3 456.5,904.3 456.5,916.3 444.5,916.3 444.5,1001.3 456.5,1001.3 456.5,1013.3 
	529.5,1013.3 541.5,1013.3 541.5,1001.3 553.5,1001.3 553.5,916.3 541.5,916.3 "/>
<rect x="456.5" y="938.6" class="st12" width="89" height="81.8"/>
<text transform="matrix(1 0 0 1 481.091 984.0742)" class="st6" style="font-family:'EditUndoBRK'; font-size:79px;">?</text>
<g>
	<polygon class="st0" points="1576.5,753.1 1564.9,753.1 1564.9,742.8 1553.4,742.8 1553.4,731.5 1054.6,731.5 1054.6,742.8 
		1043.1,742.8 1043.1,753.1 1031.5,753.1 1031.5,1355.8 1043.1,1355.8 1043.1,1366.1 1054.6,1366.1 1054.6,1377.3 1553.4,1377.3 
		1553.4,1366.1 1564.9,1366.1 1564.9,1355.8 1576.5,1355.8 	"/>
	<polygon class="st7" points="1576.5,742.5 1564.9,742.5 1564.9,732.2 1553.4,732.2 1553.4,721 1054.6,721 1054.6,732.2 
		1043.1,732.2 1043.1,742.5 1031.5,742.5 1031.5,1345.2 1043.1,1345.2 1043.1,1355.5 1054.6,1355.5 1054.6,1366.8 1553.4,1366.8 
		1553.4,1355.5 1564.9,1355.5 1564.9,1345.2 1576.5,1345.2 	"/>
	<polygon class="st8" points="1576.5,731.9 1564.9,731.9 1564.9,721.7 1553.4,721.7 1553.4,710.4 1054.6,710.4 1054.6,721.7 
		1043.1,721.7 1043.1,731.9 1031.5,731.9 1031.5,1334.6 1043.1,1334.6 1043.1,1344.9 1054.6,1344.9 1054.6,1356.2 1553.4,1356.2 
		1553.4,1344.9 1564.9,1344.9 1564.9,1334.6 1576.5,1334.6 	"/>
</g>
<g>
	<polygon class="st9" points="527.5,394.4 517.5,394.4 142.6,394.4 142.6,404.4 132.5,404.4 132.5,462.3 142.6,462.3 142.6,472.4 
		517.5,472.4 527.5,472.4 527.5,462.3 537.6,462.3 537.6,404.4 527.5,404.4 	"/>
	<polygon class="st10" points="527.5,384.4 517.5,384.4 142.6,384.4 142.6,394.4 132.5,394.4 132.5,452.3 142.6,452.3 142.6,462.4 
		517.5,462.4 527.5,462.4 527.5,452.3 537.6,452.3 537.6,394.4 527.5,394.4 	"/>
	<rect x="133.5" y="407.6" class="st12" width="404" height="81.8"/>
	<text transform="matrix(1 0 0 1 245.6437 435.2532)" class="st6" style="font-family:'EditUndoBRK'; font-size:48px;">PLAYER 1</text>
</g>
<g>
	<polygon class="st11" points="166.7,273.8 164.7,268 160.7,256 142.9,262 144.8,267.8 139,269.7 143.1,281.8 148.9,279.8 
		150.8,285.6 162.9,281.5 160.9,275.7 	"/>
	<polygon class="st11" points="205.5,261.7 203.5,255.9 199.5,243.9 181.7,249.9 183.6,255.7 177.8,257.7 181.9,269.7 187.7,267.7 
		189.6,273.5 201.7,269.4 199.7,263.7 	"/>
	<rect x="145.9" y="214.8" transform="matrix(0.9472 -0.3207 0.3207 0.9472 -67.1687 60.305)" width="7.1" height="38.6"/>
	<polygon points="165.1,269 163.1,263.2 159,251.2 141.2,257.2 143.2,263 137.4,264.9 141.5,277 147.3,275 149.2,280.8 161.2,276.7 
		159.3,270.9 	"/>
	<rect x="184.4" y="201.7" transform="matrix(0.9472 -0.3207 0.3207 0.9472 -60.9587 71.9548)" width="7.1" height="38.6"/>
	<polygon points="203.5,255.9 201.6,250.2 197.5,238.2 179.7,244.2 181.7,249.9 175.9,251.9 180,263.9 185.7,262 187.7,267.7 
		199.7,263.7 197.8,257.9 	"/>
	<rect x="135.9" y="192.5" transform="matrix(0.9472 -0.3207 0.3207 0.9472 -56.0546 61.8605)" width="47.7" height="17.3"/>
</g>
<g>
	<polygon class="st11" points="232.9,307.4 233.8,303.2 235.7,294.6 222.9,291.8 222,295.9 217.9,295 215.9,303.6 220.1,304.5 
		219.2,308.7 227.8,310.6 228.7,306.4 	"/>
	<polygon class="st11" points="260.4,314.1 261.3,310 263.2,301.3 250.4,298.5 249.5,302.7 245.4,301.8 243.5,310.4 247.6,311.3 
		246.7,315.5 255.3,317.4 256.3,313.2 	"/>
	<rect x="234.5" y="264" transform="matrix(0.9766 0.2149 -0.2149 0.9766 65.1532 -44.4339)" width="5" height="26.9"/>
	<polygon points="233.7,303.9 234.6,299.8 236.5,291.1 223.7,288.3 222.8,292.4 218.6,291.5 216.7,300.2 220.9,301.1 219.9,305.2 
		228.6,307.1 229.5,303 	"/>
	<rect x="262.1" y="270.1" transform="matrix(0.9766 0.2149 -0.2149 0.9766 67.1073 -50.2359)" width="5" height="26.9"/>
	<polygon points="261.3,310 262.2,305.8 264.1,297.2 251.3,294.4 250.4,298.5 246.3,297.6 244.4,306.3 248.5,307.2 247.6,311.3 
		256.3,313.2 257.2,309.1 	"/>
	<rect x="238.3" y="255.4" transform="matrix(0.9766 0.2149 -0.2149 0.9766 62.1414 -48.6783)" width="33.3" height="12"/>
</g>
<g>
	<polygon class="st11" points="308.9,245.6 308.2,242.5 306.8,236.2 297.4,238.3 298.1,241.3 295.1,242 296.5,248.3 299.5,247.7 
		300.2,250.7 306.5,249.3 305.9,246.2 	"/>
	<polygon class="st11" points="329.3,241.6 328.7,238.5 327.2,232.2 317.9,234.2 318.5,237.3 315.5,238 316.9,244.3 319.9,243.6 
		320.6,246.7 327,245.3 326.3,242.2 	"/>
	<rect x="300.5" y="214.5" transform="matrix(0.9761 -0.2173 0.2173 0.9761 -41.5319 71.0539)" width="3.6" height="19.8"/>
	<polygon points="308.3,243 307.7,240 306.3,233.6 296.9,235.7 297.5,238.8 294.5,239.4 295.9,245.8 299,245.1 299.6,248.2 
		306,246.7 305.3,243.7 	"/>
	<rect x="320.8" y="210" transform="matrix(0.9761 -0.2173 0.2173 0.9761 -40.0644 75.3587)" width="3.6" height="19.8"/>
	<polygon points="328.7,238.5 328,235.5 326.6,229.1 317.2,231.2 317.9,234.2 314.8,234.9 316.2,241.3 319.3,240.6 319.9,243.6 
		326.3,242.2 325.6,239.2 	"/>
	<rect x="297.2" y="203.7" transform="matrix(0.9761 -0.2173 0.2173 0.9761 -37.8386 72.1974)" width="24.4" height="8.8"/>
</g>
<g>
	<polygon class="st11" points="329.5,291.3 332.1,287.2 337.6,278.6 324.9,270.6 322.3,274.7 318.2,272.1 312.7,280.7 316.8,283.3 
		314.2,287.4 322.8,292.8 325.4,288.7 	"/>
	<polygon class="st11" points="356.5,309.4 359.1,305.3 364.6,296.8 351.9,288.7 349.3,292.8 345.2,290.2 339.7,298.8 343.8,301.4 
		341.2,305.5 349.8,310.9 352.4,306.8 	"/>
	<rect x="342.8" y="245.2" transform="matrix(0.844 0.5363 -0.5363 0.844 193.7069 -144.7105)" width="5.7" height="30.9"/>
	<polygon points="331.7,287.9 334.3,283.8 339.8,275.2 327.1,267.2 324.5,271.3 320.3,268.7 314.9,277.2 319,279.8 316.4,284 
		325,289.4 327.6,285.3 	"/>
	<rect x="370.2" y="262.7" transform="matrix(0.844 0.5363 -0.5363 0.844 207.3313 -156.7013)" width="5.7" height="30.9"/>
	<polygon points="359.1,305.3 361.7,301.2 367.2,292.6 354.5,284.6 351.9,288.7 347.8,286.1 342.3,294.7 346.4,297.3 343.8,301.4 
		352.4,306.8 355,302.7 	"/>
	<rect x="352.2" y="243.6" transform="matrix(0.844 0.5363 -0.5363 0.844 192.2754 -160.0727)" width="38.2" height="13.8"/>
</g>
<g>
	<polygon class="st9" points="370.8,-81.1 364.2,-81.1 117.8,-81.1 117.8,-74.5 111.2,-74.5 111.2,-36.4 117.8,-36.4 117.8,-29.8 
		364.2,-29.8 370.8,-29.8 370.8,-36.4 377.4,-36.4 377.4,-74.5 370.8,-74.5 	"/>
	<polygon class="st10" points="370.8,-87.7 364.2,-87.7 117.8,-87.7 117.8,-81 111.2,-81 111.2,-43 117.8,-43 117.8,-36.4 
		364.2,-36.4 370.8,-36.4 370.8,-43 377.4,-43 377.4,-81 370.8,-81 	"/>
	<rect x="111.8" y="-72.4" class="st12" width="265.5" height="32.8"/>
	<text transform="matrix(1 0 0 1 177.5792 -54.2256)" class="st6" style="font-family:'EditUndoBRK'; font-size:31.5429px;">Calibrate</text>
</g>
<g>
	<rect x="112.8" y="1.3" class="st9" width="219.8" height="28.8"/>
	<rect x="107.9" y="-5.3" class="st9" width="229.4" height="30.6"/>
	<polygon class="st10" points="107.9,-9.7 107.9,19.6 112.8,19.6 112.8,25.3 332.5,25.3 332.5,19.6 337.3,19.6 337.3,-9.7 	"/>
</g>
<polygon class="st9" points="327.7,5.2 327.7,0.1 322.6,0.1 322.6,0 266,0 235.4,0 209.8,0 186,0 122.6,0 122.6,0.1 117.5,0.1 
	117.5,5.2 112.4,5.2 112.4,12.8 117.5,12.8 117.5,17.9 122.6,17.9 122.6,18 186,18 209.8,18 235.4,18 266,18 322.6,18 322.6,17.9 
	327.7,17.9 327.7,12.8 332.8,12.8 332.8,5.2 "/>
<g>
	<rect x="103.8" y="99.3" class="st12" width="4.7" height="0.1"/>
	<rect x="103.8" y="117.2" class="st12" width="4.7" height="0.1"/>
	<polygon class="st6" points="124.8,117.2 124.8,112.1 129.9,112.1 129.9,104.5 124.8,104.5 124.8,99.4 119.7,99.4 119.7,99.3 
		108.5,99.3 108.5,99.3 103.8,99.3 103.8,117.2 108.5,117.2 108.5,117.3 119.7,117.3 119.7,117.2 	"/>
</g>
<g>
	<polygon class="st6" points="78,63.7 78,58.6 72.9,58.6 72.9,58.5 57,58.5 57,76.5 72.9,76.5 72.9,76.5 78,76.5 78,71.4 83.1,71.4 
		83.1,63.7 	"/>
	<polygon class="st6" points="64.5,102.6 64.5,97.5 64.5,97.5 64.5,97.4 60,97.4 59.4,97.4 54.9,97.4 54.9,97.4 54.9,97.4 
		54.9,102.5 49.8,102.5 49.8,110.2 54.9,110.2 54.9,115.3 54.9,115.3 54.9,115.4 59.4,115.4 60,115.4 64.5,115.4 64.5,115.3 
		64.5,115.3 64.5,110.2 69.6,110.2 69.6,102.6 	"/>
</g>
<polygon class="st6" points="14.7,5.2 14.7,0.1 14.7,0.1 14.7,0 10.2,0 9.6,0 5.1,0 5.1,0.1 5.1,0.1 5.1,5.2 0,5.2 0,12.8 5.1,12.8 
	5.1,17.9 5.1,17.9 5.1,18 9.6,18 10.2,18 14.7,18 14.7,17.9 14.7,17.9 14.7,12.8 19.8,12.8 19.8,5.2 "/>
</svg>
