<?xml version="1.0" encoding="utf-8"?>
<!-- Generator: Adobe Illustrator 22.0.1, SVG Export Plug-In . SVG Version: 6.00 Build 0)  -->
<svg version="1.1" id="Layer_1" xmlns="http://www.w3.org/2000/svg" xmlns:xlink="http://www.w3.org/1999/xlink" x="0px" y="0px"
	 width="430.8px" height="86.4px" viewBox="0 0 535.8 106.4" style="enable-background:new 0 0 535.8 106.4;" xml:space="preserve"
	>
<style type="text/css">
	.st0{fill:#5895B7;}
	.st1{opacity:0.8;}
	.st2{fill:#C17620;}
	.st3{fill:#F4C24A;}
	.st4{fill:#FFFFFF;}
	.st5{fill:#2A6FBA;}
	.st6{fill:#4ABAEF;}
	.st7{fill:#95C9C8;}
	.st8{fill:#DDEFEE;}
	.st9{fill:#1B8E6F;}
	.st10{fill:#3CEA8A;}
	.st11{opacity:0.4;fill:#666666;}
	.st12{fill:#33BC6E;}
	.st13{fill:none;}
	.st14{fill:#7149A4;}
	.st15{fill:#BD86E0;}
	.st16{opacity:0.4;fill:#666666;stroke:#666666;stroke-width:4;stroke-linejoin:bevel;stroke-miterlimit:10;}
	.st17{fill:#F2F2F2;}
	.st18{fill:#E6E6E6;}
	.st19{fill:none;stroke:#000000;stroke-width:4;stroke-linejoin:bevel;stroke-miterlimit:10;}
	.st20{fill:#C6E0DE;}
	.st21{fill:#A7C6C3;}
	.st22{fill:#910E46;}
	.st23{fill:#EE3D53;}
	.st24{fill:none;stroke:#000000;stroke-width:2;stroke-miterlimit:10;}
	.st25{fill:#A17559;}
	.st26{fill:#238D6F;}
	.st27{fill:#704CA2;}
	.st28{fill:#47E88D;}
	.st29{fill:#BC88DE;}
	.st30{fill:#CCCCCC;}
	.st31{fill:#5B2616;}
	.st32{opacity:0.38;fill:#2D3D3E;}
	.st33{opacity:0.38;}
	.st34{fill:#2D3D3E;}
	.st35{fill:#3F180F;}
	.st36{fill:#1A1A1A;}
	.st37{fill:#38140C;}
</style>
<g>
	<rect x="693.1" y="2506.4" class="st0" width="484" height="82"/>
	<rect x="1145.1" y="2580.4" class="st0" width="107" height="30"/>
	<g class="st1">
		<g>
			<polygon class="st0" points="709.1,2526.4 709.1,2608.4 613.1,2608.4 613.1,2597.4 625.1,2597.4 625.1,2585.4 637.1,2585.4
				637.1,2573.4 649.1,2573.4 649.1,2561.4 637.1,2561.4 637.1,2549.4 625.1,2549.4 625.1,2537.4 613.1,2537.4 613.1,2526.4 			"/>
		</g>
		<polygon class="st0" points="695.1,2584.4 709.1,2607.4 709.1,2584.4 		"/>
	</g>
	<g>
		<g>
			<polygon class="st2" points="1156.1,2518.4 1156.1,2600.4 1252.1,2600.4 1252.1,2589.4 1240.1,2589.4 1240.1,2577.4
				1228.1,2577.4 1228.1,2565.4 1216.1,2565.4 1216.1,2553.4 1228.1,2553.4 1228.1,2541.4 1240.1,2541.4 1240.1,2529.4
				1252.1,2529.4 1252.1,2518.4 			"/>
			<polygon class="st3" points="1156.1,2507.4 1156.1,2589.4 1252.1,2589.4 1252.1,2578.4 1240.1,2578.4 1240.1,2566.4
				1228.1,2566.4 1228.1,2554.4 1216.1,2554.4 1216.1,2542.4 1228.1,2542.4 1228.1,2530.4 1240.1,2530.4 1240.1,2518.4
				1252.1,2518.4 1252.1,2507.4 			"/>
		</g>
		<polygon class="st2" points="1170.1,2576.4 1156.1,2599.4 1156.1,2576.4 		"/>
		<g>
			<g>
				<polygon class="st2" points="700.1,2518.4 700.1,2600.4 604.1,2600.4 604.1,2589.4 616.1,2589.4 616.1,2577.4 628.1,2577.4
					628.1,2565.4 640.1,2565.4 640.1,2553.4 628.1,2553.4 628.1,2541.4 616.1,2541.4 616.1,2529.4 604.1,2529.4 604.1,2518.4
					"/>
				<polygon class="st3" points="700.1,2507.4 700.1,2589.4 604.1,2589.4 604.1,2578.4 616.1,2578.4 616.1,2566.4 628.1,2566.4
					628.1,2554.4 640.1,2554.4 640.1,2542.4 628.1,2542.4 628.1,2530.4 616.1,2530.4 616.1,2518.4 604.1,2518.4 604.1,2507.4
					"/>
			</g>
			<polygon class="st2" points="686.1,2576.4 700.1,2599.4 700.1,2576.4 			"/>
		</g>
		<g>
			<rect x="686.1" y="2494.4" class="st2" width="484" height="82"/>
			<rect x="686.1" y="2482.4" class="st3" width="484" height="82"/>
		</g>
	</g>
	<g>
		<path class="st4" d="M756.7,2542.2h-8.6v-34.6h8.6v13h8.6v-13h8.6v34.6h-8.6v-13h-8.6V2542.2z"/>
		<path class="st4" d="M778.3,2512h4.3v-4.3h17.3v4.3h4.3v25.9h-4.3v4.3h-17.3v-4.3h-4.3V2512z M787,2533.6h8.6v-17.3H787V2533.6z"
			/>
		<path class="st4" d="M817.2,2542.2h-8.6v-34.6h8.6v17.3h4.3v-4.3h4.3v4.3h4.3v-17.3h8.6v34.6h-8.6v-4.3h-4.3v-4.3h-4.3v4.3h-4.3
			V2542.2z"/>
		<path class="st4" d="M873.4,2507.6h25.9v8.6h-8.6v25.9H882v-25.9h-8.6V2507.6z"/>
		<path class="st4" d="M903.6,2512h4.3v-4.3h17.3v4.3h4.3v25.9h-4.3v4.3h-17.3v-4.3h-4.3V2512z M912.2,2533.6h8.6v-17.3h-8.6V2533.6
			z"/>
		<path class="st4" d="M972.7,2542.2h-8.6v-34.6h21.6v4.3h4.3v13h-4.3v4.3h-13V2542.2z M972.7,2520.6h8.6v-4.3h-8.6V2520.6z"/>
		<path class="st4" d="M998.6,2537.9h-4.3v-30.2h8.6v25.9h17.3v8.6h-21.6V2537.9z"/>
		<path class="st4" d="M1033.2,2542.2h-8.6V2512h4.3v-4.3h17.3v4.3h4.3v30.2h-8.6v-13h-8.6V2542.2z M1041.8,2520.6v-4.3h-8.6v4.3
			H1041.8z"/>
		<path class="st4" d="M1054.8,2507.6h8.6v13h8.6v-13h8.6v17.3h-4.3v4.3h-4.3v13h-8.6v-13h-4.3v-4.3h-4.3V2507.6z"/>
	</g>
</g>
<polygon class="st5" points="862.1,2775.4 850.1,2775.4 777.1,2775.4 777.1,2787.4 765.1,2787.4 765.1,2872.4 777.1,2872.4
	777.1,2884.4 850.1,2884.4 862.1,2884.4 862.1,2872.4 874.1,2872.4 874.1,2787.4 862.1,2787.4 "/>
<polygon class="st5" points="862.1,2775.4 850.1,2775.4 777.1,2775.4 777.1,2787.4 765.1,2787.4 765.1,2872.4 777.1,2872.4
	777.1,2884.4 850.1,2884.4 862.1,2884.4 862.1,2872.4 874.1,2872.4 874.1,2787.4 862.1,2787.4 "/>
<g>
	<path class="st4" d="M801.7,2809.6h28.4v5.7h5.7v17.1h-5.7v5.7h-17.1v-11.4h11.4v-5.7h-22.8V2809.6z M813.1,2843.8h11.4v11.4h-11.4
		V2843.8z"/>
</g>
<polygon class="st5" points="1013.1,2775.4 1001.1,2775.4 928.1,2775.4 928.1,2787.4 916.1,2787.4 916.1,2872.4 928.1,2872.4
	928.1,2884.4 1001.1,2884.4 1013.1,2884.4 1013.1,2872.4 1025.1,2872.4 1025.1,2787.4 1013.1,2787.4 "/>
<polygon class="st6" points="1013.1,2765.4 1001.1,2765.4 928.1,2765.4 928.1,2777.4 916.1,2777.4 916.1,2862.4 928.1,2862.4
	928.1,2874.4 1001.1,2874.4 1013.1,2874.4 1013.1,2862.4 1025.1,2862.4 1025.1,2777.4 1013.1,2777.4 "/>
<g>
	<path class="st4" d="M952.7,2799.6h28.4v5.7h5.7v17.1h-5.7v5.7h-17.1v-11.4h11.4v-5.7h-22.8V2799.6z M964.1,2833.8h11.4v11.4h-11.4
		V2833.8z"/>
</g>
<g>
	<polygon class="st0" points="2048.1,2619.9 2036.5,2619.9 2036.5,2608.3 2025,2608.3 2025,2595.5 1526.2,2595.5 1526.2,2608.3
		1514.7,2608.3 1514.7,2619.9 1503.1,2619.9 1503.1,3304.7 1514.7,3304.7 1514.7,3316.3 1526.2,3316.3 1526.2,3329.1 2025,3329.1
		2025,3316.3 2036.5,3316.3 2036.5,3304.7 2048.1,3304.7 	"/>
	<polygon class="st7" points="2048.1,2607.9 2036.5,2607.9 2036.5,2596.3 2025,2596.3 2025,2583.5 1526.2,2583.5 1526.2,2596.3
		1514.7,2596.3 1514.7,2607.9 1503.1,2607.9 1503.1,3292.6 1514.7,3292.6 1514.7,3304.3 1526.2,3304.3 1526.2,3317.1 2025,3317.1
		2025,3304.3 2036.5,3304.3 2036.5,3292.6 2048.1,3292.6 	"/>
	<polygon class="st8" points="2048.1,2595.9 2036.5,2595.9 2036.5,2584.3 2025,2584.3 2025,2571.4 1526.2,2571.4 1526.2,2584.3
		1514.7,2584.3 1514.7,2595.9 1503.1,2595.9 1503.1,3280.6 1514.7,3280.6 1514.7,3292.3 1526.2,3292.3 1526.2,3305.1 2025,3305.1
		2025,3292.3 2036.5,3292.3 2036.5,3280.6 2048.1,3280.6 	"/>
</g>
<g>
	<polygon class="st0" points="562.1,627.4 558,627.4 558,623.3 554,623.3 554,618.7 377.7,618.7 377.7,623.3 373.7,623.3
		373.7,627.4 369.6,627.4 369.6,869.3 373.7,869.3 373.7,873.4 377.7,873.4 377.7,878 554,878 554,873.4 558,873.4 558,869.3
		562.1,869.3 	"/>
	<polygon class="st7" points="562.1,623.1 558,623.1 558,619 554,619 554,614.5 377.7,614.5 377.7,619 373.7,619 373.7,623.1
		369.6,623.1 369.6,865.1 373.7,865.1 373.7,869.2 377.7,869.2 377.7,873.7 554,873.7 554,869.2 558,869.2 558,865.1 562.1,865.1
		"/>
	<polygon class="st8" points="562.1,618.9 558,618.9 558,614.8 554,614.8 554,610.2 377.7,610.2 377.7,614.8 373.7,614.8
		373.7,618.9 369.6,618.9 369.6,860.8 373.7,860.8 373.7,864.9 377.7,864.9 377.7,869.5 554,869.5 554,864.9 558,864.9 558,860.8
		562.1,860.8 	"/>
</g>
<g>
	<polygon class="st9" points="999.1,2255.4 989.1,2255.4 614.2,2255.4 614.2,2265.5 604.1,2265.5 604.1,2323.4 614.2,2323.4
		614.2,2333.4 989.1,2333.4 999.1,2333.4 999.1,2323.4 1009.2,2323.4 1009.2,2265.5 999.1,2265.5 	"/>
	<polygon class="st10" points="999.1,2245.4 989.1,2245.4 614.2,2245.4 614.2,2255.5 604.1,2255.5 604.1,2313.4 614.2,2313.4
		614.2,2323.4 989.1,2323.4 999.1,2323.4 999.1,2313.4 1009.2,2313.4 1009.2,2255.5 999.1,2255.5 	"/>
	<g>
		<path class="st4" d="M724.2,2296.3h-6.9v-27.6h17.3v3.5h3.5v10.4h-3.5v3.5h-10.4V2296.3z M724.2,2279h6.9v-3.5h-6.9V2279z"/>
		<path class="st4" d="M744.9,2292.9h-3.5v-24.2h6.9v20.7h13.8v6.9h-17.3V2292.9z"/>
		<path class="st4" d="M772.5,2296.3h-6.9v-24.2h3.5v-3.5h13.8v3.5h3.5v24.2h-6.9V2286h-6.9V2296.3z M779.5,2279v-3.5h-6.9v3.5
			H779.5z"/>
		<path class="st4" d="M789.8,2268.7h6.9v10.4h6.9v-10.4h6.9v13.8h-3.5v3.5h-3.5v10.4h-6.9V2286h-3.5v-3.5h-3.5V2268.7z"/>
		<path class="st4" d="M817.5,2292.9H814v-20.7h3.5v-3.5h17.3v6.9h-13.8v3.5h6.9v6.9h-6.9v3.5h13.8v6.9h-17.3V2292.9z"/>
		<path class="st4" d="M848.6,2286h-3.5v10.4h-6.9v-27.6h17.3v3.5h3.5v10.4h-3.5v3.5h3.5v10.4H852v-6.9h-3.5V2286z M845.1,2279h6.9
			v-3.5h-6.9V2279z"/>
		<path class="st4" d="M886.6,2268.7h6.9v27.6h-6.9V2268.7z"/>
	</g>
</g>
<g>
	<polygon class="st11" points="638.3,2134.8 636.3,2129.1 632.3,2117.1 614.5,2123.1 616.4,2128.9 610.7,2130.8 614.7,2142.8
		620.5,2140.9 622.4,2146.6 634.5,2142.6 632.5,2136.8 	"/>
	<polygon class="st11" points="677.1,2122.8 675.1,2117 671.1,2105 653.3,2111 655.2,2116.8 649.4,2118.7 653.5,2130.8
		659.3,2128.8 661.2,2134.6 673.3,2130.5 671.3,2124.7 	"/>
	<rect x="617.5" y="2075.8" transform="matrix(0.9472 -0.3207 0.3207 0.9472 -639.1487 309.877)" width="7.1" height="38.6"/>
	<polygon points="636.7,2130 634.7,2124.3 630.6,2112.2 612.8,2118.3 614.8,2124 609,2126 613.1,2138 618.9,2136.1 620.8,2141.8
		632.8,2137.8 630.9,2132 	"/>
	<rect x="656" y="2062.8" transform="matrix(0.9472 -0.3207 0.3207 0.9472 -632.9387 321.5267)" width="7.1" height="38.6"/>
	<polygon points="675.1,2117 673.2,2111.2 669.1,2099.2 651.3,2105.2 653.3,2111 647.5,2113 651.6,2125 657.3,2123 659.3,2128.8
		671.3,2124.7 669.4,2119 	"/>
	<rect x="607.5" y="2053.5" transform="matrix(0.9472 -0.3207 0.3207 0.9472 -628.0345 311.4325)" width="47.7" height="17.3"/>
</g>
<g>
	<polygon class="st11" points="704.5,2168.4 705.4,2164.3 707.3,2155.6 694.5,2152.8 693.6,2157 689.5,2156.1 687.6,2164.7
		691.7,2165.6 690.8,2169.8 699.4,2171.7 700.3,2167.5 	"/>
	<polygon class="st11" points="732,2175.2 732.9,2171.1 734.8,2162.4 722,2159.6 721.1,2163.7 717,2162.8 715.1,2171.5
		719.2,2172.4 718.3,2176.5 726.9,2178.4 727.9,2174.3 	"/>
	<rect x="706.1" y="2125.1" transform="matrix(0.9766 0.2149 -0.2149 0.9766 476.092 -102.2985)" width="5" height="26.9"/>
	<polygon points="705.3,2165 706.2,2160.8 708.1,2152.2 695.3,2149.4 694.4,2153.5 690.2,2152.6 688.3,2161.2 692.5,2162.2
		691.5,2166.3 700.2,2168.2 701.1,2164.1 	"/>
	<rect x="733.7" y="2131.1" transform="matrix(0.9766 0.2149 -0.2149 0.9766 478.0461 -108.1004)" width="5" height="26.9"/>
	<polygon points="732.9,2171.1 733.8,2166.9 735.7,2158.3 722.9,2155.4 722,2159.6 717.9,2158.7 716,2167.3 720.1,2168.2
		719.2,2172.4 727.9,2174.3 728.8,2170.1 	"/>
	<rect x="709.9" y="2116.5" transform="matrix(0.9766 0.2149 -0.2149 0.9766 473.0802 -106.5429)" width="33.3" height="12"/>
</g>
<g>
	<polygon class="st11" points="780.5,2106.6 779.8,2103.6 778.4,2097.2 769,2099.3 769.7,2102.4 766.7,2103.1 768.1,2109.4
		771.1,2108.7 771.8,2111.8 778.1,2110.4 777.5,2107.3 	"/>
	<polygon class="st11" points="800.9,2102.6 800.3,2099.6 798.8,2093.2 789.5,2095.3 790.1,2098.4 787.1,2099 788.5,2105.4
		791.5,2104.7 792.2,2107.8 798.6,2106.3 797.9,2103.3 	"/>
	<rect x="772.1" y="2075.6" transform="matrix(0.9761 -0.2173 0.2173 0.9761 -434.6504 217.9921)" width="3.6" height="19.8"/>
	<polygon points="779.9,2104.1 779.3,2101 777.9,2094.7 768.5,2096.8 769.1,2099.8 766.1,2100.5 767.5,2106.9 770.6,2106.2
		771.2,2109.2 777.6,2107.8 776.9,2104.8 	"/>
	<rect x="792.4" y="2071" transform="matrix(0.9761 -0.2173 0.2173 0.9761 -433.1829 222.2968)" width="3.6" height="19.8"/>
	<polygon points="800.3,2099.6 799.6,2096.5 798.2,2090.2 788.8,2092.3 789.5,2095.3 786.4,2096 787.8,2102.3 790.9,2101.7
		791.5,2104.7 797.9,2103.3 797.2,2100.2 	"/>
	<rect x="768.8" y="2064.8" transform="matrix(0.9761 -0.2173 0.2173 0.9761 -430.9572 219.1355)" width="24.4" height="8.8"/>
</g>
<g>
	<polygon class="st11" points="801.1,2152.4 803.7,2148.3 809.2,2139.7 796.5,2131.7 793.9,2135.8 789.8,2133.1 784.3,2141.7
		788.4,2144.3 785.8,2148.4 794.4,2153.9 797,2149.8 	"/>
	<polygon class="st11" points="828.1,2170.5 830.7,2166.4 836.2,2157.8 823.5,2149.8 820.9,2153.9 816.8,2151.3 811.3,2159.8
		815.4,2162.4 812.8,2166.6 821.4,2172 824,2167.9 	"/>
	<rect x="814.4" y="2106.3" transform="matrix(0.844 0.5363 -0.5363 0.844 1265.3726 -107.3488)" width="5.7" height="30.9"/>
	<polygon points="803.3,2149 805.9,2144.9 811.4,2136.3 798.7,2128.2 796.1,2132.3 791.9,2129.7 786.5,2138.3 790.6,2140.9
		788,2145 796.6,2150.5 799.2,2146.4 	"/>
	<rect x="841.8" y="2123.7" transform="matrix(0.844 0.5363 -0.5363 0.844 1278.9969 -119.3397)" width="5.7" height="30.9"/>
	<polygon points="830.7,2166.4 833.3,2162.3 838.8,2153.7 826.1,2145.6 823.5,2149.8 819.4,2147.1 813.9,2155.7 818,2158.3
		815.4,2162.4 824,2167.9 826.6,2163.8 	"/>
	<rect x="823.8" y="2104.7" transform="matrix(0.844 0.5363 -0.5363 0.844 1263.941 -122.711)" width="38.2" height="13.8"/>
</g>
<g>
	<polygon class="st9" points="522.4,1712 515.8,1712 269.4,1712 269.4,1718.6 262.8,1718.6 262.8,1756.6 269.4,1756.6 269.4,1763.2
		515.8,1763.2 522.4,1763.2 522.4,1756.6 529,1756.6 529,1718.6 522.4,1718.6 	"/>
	<polygon class="st12" points="522.4,1712 515.8,1712 269.4,1712 269.4,1718.6 262.8,1718.6 262.8,1756.6 269.4,1756.6
		269.4,1763.2 515.8,1763.2 522.4,1763.2 522.4,1756.6 529,1756.6 529,1718.6 522.4,1718.6 	"/>
	<g>
		<path class="st4" d="M329.2,1729.5h2.3v-2.3h11.4v4.5h-9.1v9.1h9.1v4.5h-11.4v-2.3h-2.3V1729.5z"/>
		<path class="st4" d="M349.6,1745.4h-4.5v-15.9h2.3v-2.3h9.1v2.3h2.3v15.9h-4.5v-6.8h-4.5V1745.4z M354.2,1734.1v-2.3h-4.5v2.3
			H354.2z"/>
		<path class="st4" d="M363.2,1743.1H361v-15.9h4.5v13.6h9.1v4.5h-11.4V1743.1z"/>
		<path class="st4" d="M376.9,1727.2h4.5v18.2h-4.5V1727.2z"/>
		<path class="st4" d="M383.7,1727.2H395v2.3h2.3v13.6H395v2.3h-11.4V1727.2z M388.2,1734.1h4.5v-2.3h-4.5V1734.1z M388.2,1740.9
			h4.5v-2.3h-4.5V1740.9z"/>
		<path class="st4" d="M406.4,1738.6h-2.3v6.8h-4.5v-15.9h2.3v-2.3h9.1v2.3h2.3v6.8h-2.3v2.3h2.3v6.8h-4.5v-4.5h-2.3V1738.6z
			 M404.1,1734.1h4.5v-2.3h-4.5V1734.1z"/>
		<path class="st4" d="M420,1745.4h-4.5v-15.9h2.3v-2.3h9.1v2.3h2.3v15.9h-4.5v-6.8H420V1745.4z M424.6,1734.1v-2.3H420v2.3H424.6z"
			/>
		<path class="st4" d="M431.4,1727.2H445v4.5h-4.5v13.6h-4.5v-13.6h-4.5V1727.2z"/>
		<path class="st4" d="M449.5,1743.1h-2.3v-13.6h2.3v-2.3h11.4v4.5h-9.1v2.3h4.5v4.5h-4.5v2.3h9.1v4.5h-11.4V1743.1z"/>
	</g>
</g>
<g>
	<polygon class="st9" points="842.4,1780 835.8,1780 589.4,1780 589.4,1786.6 582.8,1786.6 582.8,1824.6 589.4,1824.6 589.4,1831.2
		835.8,1831.2 842.4,1831.2 842.4,1824.6 849,1824.6 849,1786.6 842.4,1786.6 	"/>
	<polygon class="st10" points="842.4,1773.4 835.8,1773.4 589.4,1773.4 589.4,1780 582.8,1780 582.8,1818.1 589.4,1818.1
		589.4,1824.7 835.8,1824.7 842.4,1824.7 842.4,1818.1 849,1818.1 849,1780 842.4,1780 	"/>
	<g>
		<path class="st4" d="M649.2,1790.9h2.3v-2.3h11.4v4.5h-9.1v9.1h9.1v4.5h-11.4v-2.3h-2.3V1790.9z"/>
		<path class="st4" d="M669.6,1806.8h-4.5v-15.9h2.3v-2.3h9.1v2.3h2.3v15.9h-4.5v-6.8h-4.5V1806.8z M674.2,1795.5v-2.3h-4.5v2.3
			H674.2z"/>
		<path class="st4" d="M683.2,1804.6H681v-15.9h4.5v13.6h9.1v4.5h-11.4V1804.6z"/>
		<path class="st4" d="M696.9,1788.7h4.5v18.2h-4.5V1788.7z"/>
		<path class="st4" d="M703.7,1788.7H715v2.3h2.3v13.6H715v2.3h-11.4V1788.7z M708.2,1795.5h4.5v-2.3h-4.5V1795.5z M708.2,1802.3
			h4.5v-2.3h-4.5V1802.3z"/>
		<path class="st4" d="M726.4,1800h-2.3v6.8h-4.5v-15.9h2.3v-2.3h9.1v2.3h2.3v6.8h-2.3v2.3h2.3v6.8h-4.5v-4.5h-2.3V1800z
			 M724.1,1795.5h4.5v-2.3h-4.5V1795.5z"/>
		<path class="st4" d="M740,1806.8h-4.5v-15.9h2.3v-2.3h9.1v2.3h2.3v15.9h-4.5v-6.8H740V1806.8z M744.6,1795.5v-2.3H740v2.3H744.6z"
			/>
		<path class="st4" d="M751.4,1788.7H765v4.5h-4.5v13.6h-4.5v-13.6h-4.5V1788.7z"/>
		<path class="st4" d="M769.5,1804.6h-2.3v-13.6h2.3v-2.3h11.4v4.5h-9.1v2.3h4.5v4.5h-4.5v2.3h9.1v4.5h-11.4V1804.6z"/>
	</g>
</g>
<g>
	<rect x="584.4" y="1862.3" class="st9" width="219.8" height="28.8"/>
	<rect x="579.5" y="1855.8" class="st9" width="229.4" height="30.6"/>
	<polygon class="st10" points="579.5,1851.4 579.5,1880.7 584.4,1880.7 584.4,1886.4 804.1,1886.4 804.1,1880.7 808.9,1880.7
		808.9,1851.4 	"/>
</g>
<polygon class="st9" points="799.3,1866.3 799.3,1861.2 794.2,1861.2 794.2,1861.1 737.6,1861.1 707,1861.1 681.4,1861.1
	657.6,1861.1 594.2,1861.1 594.2,1861.1 589.1,1861.1 589.1,1866.2 584,1866.2 584,1873.9 589.1,1873.9 589.1,1879 594.2,1879
	594.2,1879.1 657.6,1879.1 681.4,1879.1 707,1879.1 737.6,1879.1 794.2,1879.1 794.2,1879 799.3,1879 799.3,1873.9 804.4,1873.9
	804.4,1866.3 "/>
<g>
	<rect x="575.4" y="1960.3" class="st13" width="4.7" height="0.1"/>
	<rect x="575.4" y="1978.2" class="st13" width="4.7" height="0.1"/>
	<polygon class="st4" points="596.4,1978.3 596.4,1973.2 601.5,1973.2 601.5,1965.5 596.4,1965.5 596.4,1960.4 591.3,1960.4
		591.3,1960.3 580.2,1960.3 580.2,1960.4 575.4,1960.4 575.4,1978.2 580.2,1978.2 580.2,1978.3 591.3,1978.3 591.3,1978.3 	"/>
</g>
<g>
	<polygon class="st4" points="549.6,1924.8 549.6,1919.7 544.5,1919.7 544.5,1919.6 528.6,1919.6 528.6,1937.6 544.5,1937.6
		544.5,1937.5 549.6,1937.5 549.6,1932.4 554.7,1932.4 554.7,1924.8 	"/>
	<polygon class="st4" points="536.1,1963.6 536.1,1958.6 536.1,1958.6 536.1,1958.5 531.6,1958.5 531,1958.5 526.5,1958.5
		526.5,1958.5 526.5,1958.5 526.5,1963.6 521.4,1963.6 521.4,1971.3 526.5,1971.3 526.5,1976.3 526.5,1976.3 526.5,1976.5
		531,1976.5 531.6,1976.5 536.1,1976.5 536.1,1976.4 536.1,1976.4 536.1,1971.3 541.2,1971.3 541.2,1963.6 	"/>
</g>
<polygon class="st4" points="486.3,1866.3 486.3,1861.2 486.3,1861.2 486.3,1861.1 481.8,1861.1 481.2,1861.1 476.7,1861.1
	476.7,1861.1 476.7,1861.1 476.7,1866.2 471.6,1866.2 471.6,1873.9 476.7,1873.9 476.7,1879 476.7,1879 476.7,1879.1 481.2,1879.1
	481.8,1879.1 486.3,1879.1 486.3,1879 486.3,1879 486.3,1873.9 491.4,1873.9 491.4,1866.3 "/>
<polygon class="st14" points="1452.1,2255.4 1442.1,2255.4 1067.2,2255.4 1067.2,2265.5 1057.1,2265.5 1057.1,2323.4 1067.2,2323.4
	1067.2,2333.4 1442.1,2333.4 1452.1,2333.4 1452.1,2323.4 1462.2,2323.4 1462.2,2265.5 1452.1,2265.5 "/>
<polygon class="st15" points="1452.1,2245.4 1442.1,2245.4 1067.2,2245.4 1067.2,2255.5 1057.1,2255.5 1057.1,2313.4 1067.2,2313.4
	1067.2,2323.4 1442.1,2323.4 1452.1,2323.4 1452.1,2313.4 1462.2,2313.4 1462.2,2255.5 1452.1,2255.5 "/>
<g>
	<path class="st4" d="M1169.7,2296.3h-6.9v-27.6h17.3v3.5h3.5v10.4h-3.5v3.5h-10.4V2296.3z M1169.7,2279h6.9v-3.5h-6.9V2279z"/>
	<path class="st4" d="M1190.5,2292.9h-3.5v-24.2h6.9v20.7h13.8v6.9h-17.3V2292.9z"/>
	<path class="st4" d="M1218.1,2296.3h-6.9v-24.2h3.5v-3.5h13.8v3.5h3.5v24.2h-6.9V2286h-6.9V2296.3z M1225,2279v-3.5h-6.9v3.5H1225z
		"/>
	<path class="st4" d="M1235.4,2268.7h6.9v10.4h6.9v-10.4h6.9v13.8h-3.5v3.5h-3.5v10.4h-6.9V2286h-3.5v-3.5h-3.5V2268.7z"/>
	<path class="st4" d="M1263.1,2292.9h-3.5v-20.7h3.5v-3.5h17.3v6.9h-13.8v3.5h6.9v6.9h-6.9v3.5h13.8v6.9h-17.3V2292.9z"/>
	<path class="st4" d="M1294.2,2286h-3.5v10.4h-6.9v-27.6h17.3v3.5h3.5v10.4h-3.5v3.5h3.5v10.4h-6.9v-6.9h-3.5V2286z M1290.7,2279
		h6.9v-3.5h-6.9V2279z"/>
	<path class="st4" d="M1332.2,2268.7h17.3v3.5h3.5v10.4h-3.5v3.5h-10.4v3.5h13.8v6.9h-20.7v-13.8h3.5v-3.5h10.4v-3.5h-13.8V2268.7z"
		/>
</g>
<g>
	<rect x="1078.1" y="2249.4" class="st4" width="45.1" height="5.7"/>
	<rect x="1129.4" y="2249.4" class="st4" width="5.7" height="5.7"/>
</g>
<g>
	<rect x="623.6" y="2250.4" class="st4" width="45.1" height="5.7"/>
	<rect x="674.9" y="2250.4" class="st4" width="5.7" height="5.7"/>
</g>
<polygon class="st16" points="1012.7,2090.4 1019.1,2096 1013.5,2102.4 1033.9,2119.8 1033.9,2157.7 1054.7,2131.6 1086.4,2161
	1092.3,2154.7 1097.3,2159.3 1168.9,2040.6 "/>
<polygon class="st17" points="1010.3,2083.3 1016.6,2088.9 1011,2095.3 1031.5,2112.7 1031.5,2150.6 1052.2,2124.5 1084,2153.9
	1089.8,2147.6 1094.8,2152.2 1166.4,2033.5 "/>
<polygon class="st18" points="1052.3,2124.3 1166.7,2033.5 1031.6,2112.5 1031.6,2150.4 "/>
<polygon class="st19" points="1009.2,2083.5 1015.6,2089.1 1010,2095.5 1030.4,2112.8 1030.4,2150.7 1051.2,2124.6 1082.9,2154
	1088.8,2147.7 1093.7,2152.4 1165.4,2033.7 "/>
<g>
	<polygon class="st20" points="945,1776.8 945,1940.4 955.4,1940.4 955.4,1949.9 965.8,1949.9 965.8,1960.3 1413.3,1960.3
		1413.3,1949.9 1423.7,1949.9 1423.7,1940.4 1434,1940.4 1434,1776.8 	"/>
	<polygon class="st20" points="1434,1776.8 1434,1682.6 1423.7,1682.6 1423.7,1673.1 1413.3,1673.1 1413.3,1662.6 965.8,1662.6
		965.8,1673.1 955.4,1673.1 955.4,1682.6 945,1682.6 945,1776.8 	"/>
</g>
<g>
	<polygon class="st21" points="955.4,1679.2 965.8,1679.2 965.8,1671.2 955.4,1671.2 955.4,1679.1 945,1679.1 945,1687.1
		955.4,1687.1 	"/>
	<rect x="965.8" y="1662.5" class="st21" width="447.5" height="8"/>
	<polygon class="st21" points="1423.7,1679.1 1423.7,1671.2 1413.3,1671.2 1413.3,1679.2 1423.7,1679.2 1423.7,1687.1 1434,1687.1
		1434,1679.1 	"/>
</g>
<g>
	<g>
		<g>
			<rect x="551.9" y="1598.2" width="10.2" height="10.2"/>
		</g>
	</g>
	<g>
		<g>
			<path d="M613.3,1588v5.1h-5.1v5.1h5.1v20.5h5.1v5.1h-5.1v5.1h5.1h5.1v-10.2h15.4v5.1h5.1v-5.1V1588H613.3z M638.9,1613.6h-20.5
				v-20.5h20.5V1613.6z"/>
		</g>
	</g>
	<g>
		<g>
			<rect x="623.6" y="1598.2" width="10.2" height="10.2"/>
		</g>
	</g>
	<g>
		<g>
			<rect x="551.9" y="1669.9" width="10.2" height="10.2"/>
		</g>
	</g>
	<g>
		<g>
			<rect x="613.3" y="1659.7" width="5.1" height="5.1"/>
		</g>
	</g>
	<g>
		<g>
			<rect x="587.7" y="1685.3" width="5.1" height="5.1"/>
		</g>
	</g>
	<g>
		<g>
			<rect x="592.9" y="1664.8" width="5.1" height="5.1"/>
		</g>
	</g>
	<g>
		<g>
			<rect x="592.9" y="1675.1" width="5.1" height="5.1"/>
		</g>
	</g>
	<g>
		<g>
			<rect x="638.9" y="1649.5" width="5.1" height="5.1"/>
		</g>
	</g>
	<g>
		<g>
			<rect x="541.7" y="1649.5" width="5.1" height="5.1"/>
		</g>
	</g>
	<g>
		<g>
			<rect x="541.7" y="1623.9" width="5.1" height="5.1"/>
		</g>
	</g>
	<g>
		<g>
			<polygon points="598,1593.1 598,1598.2 587.7,1598.2 587.7,1603.4 603.1,1603.4 603.1,1598.2 603.1,1593.1 			"/>
		</g>
	</g>
	<g>
		<g>
			<path d="M638.9,1629v5.1h-10.2v5.1h-15.4v-5.1h-5.1v5.1H598v5.1h15.4v5.1h-10.2H598v-5.1h-5.1v5.1h-5.1v-5.1h-5.1v5.1h-5.1v5.1
				h10.2v5.1h5.1v-5.1h10.2v5.1H598v5.1h5.1v10.2h5.1v5.1h5.1v-5.1h15.4v-10.2h5.1v-5.1h-5.1v-10.2h-10.2v-5.1h10.2v5.1h5.1v-5.1
				h5.1v-5.1h5.1v-5.1v-5.1H638.9L638.9,1629z M623.6,1654.6v15.4h-15.4v-15.4H623.6z"/>
		</g>
	</g>
	<g>
		<g>
			<polygon points="608.2,1618.7 603.1,1618.7 603.1,1623.9 598,1623.9 598,1629 598,1634.1 603.1,1634.1 603.1,1629 608.2,1629
				608.2,1623.9 613.3,1623.9 613.3,1618.7 			"/>
		</g>
	</g>
	<g>
		<g>
			<rect x="598" y="1685.3" width="10.2" height="5.1"/>
		</g>
	</g>
	<g>
		<g>
			<rect x="582.6" y="1593.1" width="5.1" height="5.1"/>
		</g>
	</g>
	<g>
		<g>
			<rect x="623.6" y="1629" width="5.1" height="5.1"/>
		</g>
	</g>
	<g>
		<g>
			<rect x="628.7" y="1623.9" width="5.1" height="5.1"/>
		</g>
	</g>
	<g>
		<g>
			<rect x="562.1" y="1649.5" width="5.1" height="5.1"/>
		</g>
	</g>
	<g>
		<g>
			<path d="M572.4,1685.3v-20.5h5.1v-5.1v-5.1h-5.1v5.1H557v-5.1h-5.1h-5.1v5.1h-5.1v30.7h30.7h10.2v-5.1H572.4z M567.3,1685.3
				h-20.5v-20.5h20.5V1685.3z"/>
		</g>
	</g>
	<g>
		<g>
			<rect x="572.4" y="1618.7" width="5.1" height="5.1"/>
		</g>
	</g>
	<g>
		<g>
			<path d="M577.5,1588h-5.1h-30.7v30.7h5.1v5.1h5.1v-5.1h5.1v5.1h5.1v-5.1h10.2v-10.2h5.1v-5.1h-5.1v-10.2h5.1h5.1v-5.1H577.5z
				 M567.3,1613.6h-20.5v-20.5h20.5V1613.6z"/>
		</g>
	</g>
	<g>
		<g>
			<rect x="603.1" y="1603.4" width="5.1" height="5.1"/>
		</g>
	</g>
	<g>
		<g>
			<rect x="592.9" y="1588" width="5.1" height="5.1"/>
		</g>
	</g>
	<g>
		<g>
			<path d="M603.1,1618.7v-5.1H598v-5.1h-5.1v5.1h-10.2v-5.1h-5.1v5.1v5.1h5.1v10.2h-15.4v-5.1h-5.1v5.1h-15.4v5.1H557v5.1h-15.4
				v5.1H557v5.1h5.1v-5.1h5.1v5.1h5.1v-5.1h10.2v-5.1h-5.1v-5.1h5.1h5.1v5.1h5.1h5.1v-5.1h-5.1v-5.1h-5.1v-10.2H603.1L603.1,1618.7z
				 M572.4,1639.2h-10.2v-5.1h10.2V1639.2z"/>
		</g>
	</g>
	<g>
		<g>
			<polygon points="587.7,1669.9 587.7,1664.8 587.7,1659.7 582.6,1659.7 582.6,1664.8 577.5,1664.8 577.5,1669.9 582.6,1669.9
				582.6,1675.1 577.5,1675.1 577.5,1680.2 587.7,1680.2 587.7,1675.1 592.9,1675.1 592.9,1669.9 			"/>
		</g>
	</g>
	<g>
		<g>
			<polygon points="633.8,1680.2 633.8,1675.1 628.7,1675.1 628.7,1680.2 613.3,1680.2 613.3,1685.3 623.6,1685.3 623.6,1690.4
				628.7,1690.4 628.7,1685.3 638.9,1685.3 638.9,1690.4 644.1,1690.4 644.1,1685.3 644.1,1680.2 			"/>
		</g>
	</g>
	<g>
		<g>
			<polygon points="638.9,1659.7 638.9,1664.8 633.8,1664.8 633.8,1669.9 644.1,1669.9 644.1,1664.8 644.1,1659.7 			"/>
		</g>
	</g>
</g>
<g>
	<g>
		<polygon class="st22" points="485.5,2004.1 481.9,2004.1 344.7,2004.1 344.7,2007.8 341,2007.8 341,2029 344.7,2029 344.7,2032.7
			481.9,2032.7 485.5,2032.7 485.5,2029 489.2,2029 489.2,2007.8 485.5,2007.8 		"/>
		<polygon class="st22" points="485.5,2004.1 481.9,2004.1 344.7,2004.1 344.7,2007.8 341,2007.8 341,2029 344.7,2029 344.7,2032.7
			481.9,2032.7 485.5,2032.7 485.5,2029 489.2,2029 489.2,2007.8 485.5,2007.8 		"/>
	</g>
	<g>
		<rect x="347.1" y="2006.3" class="st4" width="13.1" height="1.7"/>
		<rect x="362" y="2006.3" class="st4" width="1.7" height="1.7"/>
	</g>
</g>
<g>
	<g>
		<polygon class="st9" points="313.5,2004.1 309.9,2004.1 172.7,2004.1 172.7,2007.8 169,2007.8 169,2029 172.7,2029 172.7,2032.7
			309.9,2032.7 313.5,2032.7 313.5,2029 317.2,2029 317.2,2007.8 313.5,2007.8 		"/>
		<polygon class="st12" points="313.5,2004.1 309.9,2004.1 172.7,2004.1 172.7,2007.8 169,2007.8 169,2029 172.7,2029 172.7,2032.7
			309.9,2032.7 313.5,2032.7 313.5,2029 317.2,2029 317.2,2007.8 313.5,2007.8 		"/>
		<g>
			<path class="st4" d="M200.9,2019h-1.3v3.8h-2.5v-10.1h6.3v1.3h1.3v3.8h-1.3v1.3h1.3v3.8h-2.5v-2.5h-1.3V2019z M199.6,2016.4h2.5
				v-1.3h-2.5V2016.4z"/>
			<path class="st4" d="M207.2,2021.5H206v-7.6h1.3v-1.3h6.3v2.5h-5.1v1.3h2.5v2.5h-2.5v1.3h5.1v2.5h-6.3V2021.5z"/>
			<path class="st4" d="M216.1,2021.5h-1.3v-7.6h1.3v-1.3h5.1v1.3h1.3v2.5h-2.5v-1.3h-2.5v5.1h2.5v-1.3h2.5v2.5h-1.3v1.3h-5.1
				V2021.5z"/>
			<path class="st4" d="M226.2,2022.8h-2.5v-8.9h1.3v-1.3h5.1v1.3h1.3v8.9h-2.5v-3.8h-2.5V2022.8z M228.7,2016.4v-1.3h-2.5v1.3
				H228.7z"/>
			<path class="st4" d="M233.8,2021.5h-1.3v-8.9h2.5v7.6h5.1v2.5h-6.3V2021.5z"/>
			<path class="st4" d="M241.4,2012.6h2.5v10.1h-2.5V2012.6z"/>
			<path class="st4" d="M245.2,2012.6h6.3v1.3h1.3v7.6h-1.3v1.3h-6.3V2012.6z M247.7,2016.4h2.5v-1.3h-2.5V2016.4z M247.7,2020.2
				h2.5v-1.3h-2.5V2020.2z"/>
			<path class="st4" d="M257.8,2019h-1.3v3.8H254v-8.9h1.3v-1.3h5.1v1.3h1.3v3.8h-1.3v1.3h1.3v3.8h-2.5v-2.5h-1.3V2019z
				 M256.6,2016.4h2.5v-1.3h-2.5V2016.4z"/>
			<path class="st4" d="M265.4,2022.8h-2.5v-8.9h1.3v-1.3h5.1v1.3h1.3v8.9h-2.5v-3.8h-2.5V2022.8z M267.9,2016.4v-1.3h-2.5v1.3
				H267.9z"/>
			<path class="st4" d="M271.7,2012.6h7.6v2.5h-2.5v7.6h-2.5v-7.6h-2.5V2012.6z"/>
			<path class="st4" d="M281.8,2021.5h-1.3v-7.6h1.3v-1.3h6.3v2.5h-5.1v1.3h2.5v2.5h-2.5v1.3h5.1v2.5h-6.3V2021.5z"/>
		</g>
	</g>
	<g>
		<rect x="175.1" y="2006.3" class="st4" width="13.1" height="1.7"/>
		<rect x="190" y="2006.3" class="st4" width="1.7" height="1.7"/>
	</g>
</g>
<g>
	<g>
		<polygon class="st9" points="313.5,2046.1 309.9,2046.1 172.7,2046.1 172.7,2049.8 169,2049.8 169,2071 172.7,2071 172.7,2074.7
			309.9,2074.7 313.5,2074.7 313.5,2071 317.2,2071 317.2,2049.8 313.5,2049.8 		"/>
		<polygon class="st10" points="313.5,2042.5 309.9,2042.5 172.7,2042.5 172.7,2046.2 169,2046.2 169,2067.3 172.7,2067.3
			172.7,2071 309.9,2071 313.5,2071 313.5,2067.3 317.2,2067.3 317.2,2046.2 313.5,2046.2 		"/>
		<g>
			<path class="st4" d="M200.9,2057.3h-1.3v3.8h-2.5V2051h6.3v1.3h1.3v3.8h-1.3v1.3h1.3v3.8h-2.5v-2.5h-1.3V2057.3z M199.6,2054.8
				h2.5v-1.3h-2.5V2054.8z"/>
			<path class="st4" d="M207.2,2059.8H206v-7.6h1.3v-1.3h6.3v2.5h-5.1v1.3h2.5v2.5h-2.5v1.3h5.1v2.5h-6.3V2059.8z"/>
			<path class="st4" d="M216.1,2059.8h-1.3v-7.6h1.3v-1.3h5.1v1.3h1.3v2.5h-2.5v-1.3h-2.5v5.1h2.5v-1.3h2.5v2.5h-1.3v1.3h-5.1
				V2059.8z"/>
			<path class="st4" d="M226.2,2061.1h-2.5v-8.9h1.3v-1.3h5.1v1.3h1.3v8.9h-2.5v-3.8h-2.5V2061.1z M228.7,2054.8v-1.3h-2.5v1.3
				H228.7z"/>
			<path class="st4" d="M233.8,2059.8h-1.3v-8.9h2.5v7.6h5.1v2.5h-6.3V2059.8z"/>
			<path class="st4" d="M241.4,2051h2.5v10.1h-2.5V2051z"/>
			<path class="st4" d="M245.2,2051h6.3v1.3h1.3v7.6h-1.3v1.3h-6.3V2051z M247.7,2054.8h2.5v-1.3h-2.5V2054.8z M247.7,2058.6h2.5
				v-1.3h-2.5V2058.6z"/>
			<path class="st4" d="M257.8,2057.3h-1.3v3.8H254v-8.9h1.3v-1.3h5.1v1.3h1.3v3.8h-1.3v1.3h1.3v3.8h-2.5v-2.5h-1.3V2057.3z
				 M256.6,2054.8h2.5v-1.3h-2.5V2054.8z"/>
			<path class="st4" d="M265.4,2061.1h-2.5v-8.9h1.3v-1.3h5.1v1.3h1.3v8.9h-2.5v-3.8h-2.5V2061.1z M267.9,2054.8v-1.3h-2.5v1.3
				H267.9z"/>
			<path class="st4" d="M271.7,2051h7.6v2.5h-2.5v7.6h-2.5v-7.6h-2.5V2051z"/>
			<path class="st4" d="M281.8,2059.8h-1.3v-7.6h1.3v-1.3h6.3v2.5h-5.1v1.3h2.5v2.5h-2.5v1.3h5.1v2.5h-6.3V2059.8z"/>
		</g>
	</g>
	<g>
		<rect x="175.1" y="2045.3" class="st4" width="13.1" height="1.7"/>
		<rect x="190" y="2045.3" class="st4" width="1.7" height="1.7"/>
	</g>
</g>
<g>
	<g>
		<polygon class="st22" points="485.5,2046.1 481.9,2046.1 344.7,2046.1 344.7,2049.8 341,2049.8 341,2071 344.7,2071 344.7,2074.7
			481.9,2074.7 485.5,2074.7 485.5,2071 489.2,2071 489.2,2049.8 485.5,2049.8 		"/>
		<polygon class="st23" points="485.5,2042.5 481.9,2042.5 344.7,2042.5 344.7,2046.2 341,2046.2 341,2067.3 344.7,2067.3
			344.7,2071 481.9,2071 485.5,2071 485.5,2067.3 489.2,2067.3 489.2,2046.2 485.5,2046.2 		"/>
	</g>
	<g>
		<rect x="347.1" y="2045.3" class="st4" width="13.1" height="1.7"/>
		<rect x="362" y="2045.3" class="st4" width="1.7" height="1.7"/>
	</g>
</g>
<g>
	<rect x="594.9" y="1777" class="st4" width="23.6" height="3"/>
	<rect x="621.7" y="1777" class="st4" width="3" height="3"/>
</g>
<g>
	<rect x="274.5" y="1715.5" class="st4" width="23.6" height="3"/>
	<rect x="301.3" y="1715.5" class="st4" width="3" height="3"/>
</g>
<g>
	<polygon class="st23" points="244.4,1839 244.4,1831.6 225.8,1831.6 225.8,1839 218.3,1839 218.3,1846.5 218.3,1857.7
		225.8,1857.7 225.8,1865.1 237,1865.1 244.4,1865.1 244.4,1857.7 251.9,1857.7 251.9,1846.5 251.9,1839 	"/>
	<line class="st24" x1="226.4" y1="1865.1" x2="226.4" y2="1875.1"/>
	<line class="st24" x1="243.8" y1="1865.1" x2="243.8" y2="1875.1"/>
	<polygon class="st25" points="242.9,1873.2 240.7,1873.2 227.3,1873.2 227.3,1875.4 225.1,1875.4 225.1,1890.9 227.3,1890.9
		227.3,1893.1 240.7,1893.1 242.9,1893.1 242.9,1890.9 245,1890.9 245,1875.4 242.9,1875.4 	"/>
</g>
<polygon class="st22" points="311.5,2278.3 311.5,2270.4 303.6,2270.4 238.6,2270.4 169.8,2270.4 169.8,2278.3 161.9,2278.3
	161.9,2323.8 169.8,2323.8 169.8,2331.8 238.6,2331.8 303.6,2331.8 311.5,2331.8 311.5,2323.8 319.4,2323.8 319.4,2278.3 "/>
<polygon class="st22" points="311.5,2278.4 311.5,2270.5 303.6,2270.5 238.6,2270.5 169.8,2270.5 169.8,2278.4 161.9,2278.4
	161.9,2323.9 169.8,2323.9 169.8,2331.9 238.6,2331.9 303.6,2331.9 311.5,2331.9 311.5,2323.9 319.4,2323.9 319.4,2278.4 "/>
<g>
	<path class="st4" d="M208,2311.8h-5.4V2290h13.6v2.7h2.7v8.2h-2.7v2.7H208V2311.8z M208,2298.2h5.4v-2.7H208V2298.2z"/>
	<path class="st4" d="M224.3,2309.1h-2.7v-19h5.4v16.3h10.9v5.4h-13.6V2309.1z"/>
	<path class="st4" d="M246.1,2311.8h-5.4v-19h2.7v-2.7h10.9v2.7h2.7v19h-5.4v-8.2h-5.4V2311.8z M251.5,2298.2v-2.7h-5.4v2.7H251.5z"
		/>
	<path class="st4" d="M259.7,2290h5.4v8.2h5.4v-8.2h5.4v10.9h-2.7v2.7h-2.7v8.2h-5.4v-8.2h-2.7v-2.7h-2.7V2290z"/>
</g>
<polygon class="st22" points="481.5,2278.3 481.5,2270.4 473.6,2270.4 408.6,2270.4 339.8,2270.4 339.8,2278.3 331.9,2278.3
	331.9,2323.8 339.8,2323.8 339.8,2331.8 408.6,2331.8 473.6,2331.8 481.5,2331.8 481.5,2323.8 489.4,2323.8 489.4,2278.3 "/>
<polygon class="st23" points="481.5,2270.4 481.5,2262.5 473.6,2262.5 408.6,2262.5 339.8,2262.5 339.8,2270.4 331.9,2270.4
	331.9,2315.9 339.8,2315.9 339.8,2323.9 408.6,2323.9 473.6,2323.9 481.5,2323.9 481.5,2315.9 489.4,2315.9 489.4,2270.4 "/>
<g>
	<path class="st4" d="M378,2303.8h-5.4V2282h13.6v2.7h2.7v8.2h-2.7v2.7H378V2303.8z M378,2290.2h5.4v-2.7H378V2290.2z"/>
	<path class="st4" d="M394.3,2301.1h-2.7v-19h5.4v16.3h10.9v5.4h-13.6V2301.1z"/>
	<path class="st4" d="M416.1,2303.8h-5.4v-19h2.7v-2.7h10.9v2.7h2.7v19h-5.4v-8.2h-5.4V2303.8z M421.5,2290.2v-2.7h-5.4v2.7H421.5z"
		/>
	<path class="st4" d="M429.7,2282h5.4v8.2h5.4v-8.2h5.4v10.9h-2.7v2.7h-2.7v8.2h-5.4v-8.2h-2.7v-2.7h-2.7V2282z"/>
</g>
<g>
	<path class="st26" d="M-512.1,2032.7h43.2v108h43.2v-108h43.2v129.6h-21.6v21.6h-21.6v21.6h-43.2v-21.6h-21.6v-21.6h-21.6V2032.7z"
		/>
	<path class="st27" d="M-360.9,2056.3h21.6v-21.6h108v43.2h-86.4v21.6h64.8v21.6h21.6v64.8h-21.6v21.6h-108v-43.2h86.4v-21.6h-64.8
		v-21.6h-21.6V2056.3z"/>
</g>
<g>
	<path class="st28" d="M-512.1,2011.6h43.2v108h43.2v-108h43.2v129.6h-21.6v21.6h-21.6v21.6h-43.2v-21.6h-21.6v-21.6h-21.6V2011.6z"
		/>
	<path class="st29" d="M-360.9,2033.2h21.6v-21.6h108v43.2h-86.4v21.6h64.8v21.6h21.6v64.8h-21.6v21.6h-108v-43.2h86.4v-21.6h-64.8
		V2098h-21.6V2033.2z"/>
</g>
<g>
	<g>
		<path class="st0" d="M-462.7,2390.2h27.5v68.7h27.5v-68.7h27.5v82.4H-394v13.7h-13.7v13.7h-27.5v-13.7H-449v-13.7h-13.7V2390.2z"
			/>
		<path class="st0" d="M-366.6,2405.3h13.7v-13.7h68.7v27.5h-54.9v13.7h41.2v13.7h13.7v41.2h-13.7v13.7h-68.7v-27.5h54.9v-13.7
			h-41.2v-13.7h-13.7V2405.3z"/>
	</g>
	<g>
		<path class="st7" d="M-462.7,2375.7h27.5v68.7h27.5v-68.7h27.5v82.4H-394v13.7h-13.7v13.7h-27.5v-13.7H-449v-13.7h-13.7V2375.7z"
			/>
		<path class="st7" d="M-366.6,2390.8h13.7v-13.7h68.7v27.5h-54.9v13.7h41.2v13.7h13.7v41.2h-13.7v13.7h-68.7v-27.5h54.9v-13.7
			h-41.2V2432h-13.7V2390.8z"/>
	</g>
	<g>
		<path class="st4" d="M-462.7,2362.3h27.5v68.7h27.5v-68.7h27.5v82.4H-394v13.7h-13.7v13.7h-27.5v-13.7H-449v-13.7h-13.7V2362.3z"
			/>
		<path class="st4" d="M-366.6,2376.1h13.7v-13.7h68.7v27.5h-54.9v13.7h41.2v13.7h13.7v41.2h-13.7v13.7h-68.7v-27.5h54.9V2431h-41.2
			v-13.7h-13.7V2376.1z"/>
	</g>
</g>
<g>
	<g>
		<path class="st0" d="M111.7,1530.6H90.1v-86.4h54v10.8h10.8v32.4h-10.8v10.8h-32.4V1530.6z M111.7,1476.6h21.6v-10.8h-21.6V1476.6
			z"/>
		<path class="st0" d="M165.7,1455h10.8v-10.8h43.2v10.8h10.8v64.8h-10.8v10.8h-43.2v-10.8h-10.8V1455z M187.3,1509h21.6v-43.2
			h-21.6V1509z"/>
		<path class="st0" d="M252.1,1519.8h-10.8v-75.6h21.6v64.8h43.2v21.6h-54V1519.8z"/>
		<path class="st0" d="M295.3,1444.2h21.6v32.4h21.6v-32.4h21.6v43.2h-10.8v10.8h-10.8v32.4h-21.6v-32.4h-10.8v-10.8h-10.8V1444.2z"
			/>
	</g>
	<g>
		<path class="st30" d="M111.7,1522.1H90.1v-86.4h54v10.8h10.8v32.4h-10.8v10.8h-32.4V1522.1z M111.7,1468.1h21.6v-10.8h-21.6
			V1468.1z"/>
		<path class="st30" d="M165.7,1446.5h10.8v-10.8h43.2v10.8h10.8v64.8h-10.8v10.8h-43.2v-10.8h-10.8V1446.5z M187.3,1500.5h21.6
			v-43.2h-21.6V1500.5z"/>
		<path class="st30" d="M252.1,1511.3h-10.8v-75.6h21.6v64.8h43.2v21.6h-54V1511.3z"/>
		<path class="st30" d="M295.3,1435.7h21.6v32.4h21.6v-32.4h21.6v43.2h-10.8v10.8h-10.8v32.4h-21.6v-32.4h-10.8v-10.8h-10.8V1435.7z
			"/>
	</g>
	<g>
		<path class="st4" d="M111.7,1513.9H90.1v-86.4h54v10.8h10.8v32.4h-10.8v10.8h-32.4V1513.9z M111.7,1459.9h21.6v-10.8h-21.6V1459.9
			z"/>
		<path class="st4" d="M165.7,1438.3h10.8v-10.8h43.2v10.8h10.8v64.8h-10.8v10.8h-43.2v-10.8h-10.8V1438.3z M187.3,1492.3h21.6
			v-43.2h-21.6V1492.3z"/>
		<path class="st4" d="M252.1,1503.1h-10.8v-75.6h21.6v64.8h43.2v21.6h-54V1503.1z"/>
		<path class="st4" d="M295.3,1427.5h21.6v32.4h21.6v-32.4h21.6v43.2h-10.8v10.8h-10.8v32.4h-21.6v-32.4h-10.8v-10.8h-10.8V1427.5z"
			/>
	</g>
</g>
<g>
	<g class="st1">
		<g>
			<polygon class="st0" points="438.6,1214.1 438.6,1300.5 539.8,1300.5 539.8,1288.9 527.1,1288.9 527.1,1276.3 514.5,1276.3
				514.5,1263.6 501.8,1263.6 501.8,1251 514.5,1251 514.5,1238.3 527.1,1238.3 527.1,1225.7 539.8,1225.7 539.8,1214.1 			"/>
		</g>
		<polygon class="st0" points="453.3,1275.2 438.6,1299.5 438.6,1275.2 		"/>
	</g>
	<rect x="-49.6" y="1191.1" class="st0" width="510.3" height="86.5"/>
	<rect x="427" y="1269.2" class="st0" width="112.8" height="31.6"/>
	<g class="st1">
		<g>
			<polygon class="st0" points="-41.8,1214.2 -41.8,1300.7 -143,1300.7 -143,1289.1 -130.3,1289.1 -130.3,1276.4 -117.7,1276.4
				-117.7,1263.8 -105,1263.8 -105,1251.1 -117.7,1251.1 -117.7,1238.5 -130.3,1238.5 -130.3,1225.8 -143,1225.8 -143,1214.2 			"/>
		</g>
		<polygon class="st0" points="-56.5,1275.4 -41.8,1299.6 -41.8,1275.4 		"/>
	</g>
	<g>
		<g>
			<polygon class="st2" points="438.6,1203.8 438.6,1290.3 539.8,1290.3 539.8,1278.7 527.1,1278.7 527.1,1266 514.5,1266
				514.5,1253.3 501.8,1253.3 501.8,1240.7 514.5,1240.7 514.5,1228 527.1,1228 527.1,1215.4 539.8,1215.4 539.8,1203.8 			"/>
			<polygon class="st3" points="438.6,1192.2 438.6,1278.7 539.8,1278.7 539.8,1267.1 527.1,1267.1 527.1,1254.4 514.5,1254.4
				514.5,1241.7 501.8,1241.7 501.8,1229.1 514.5,1229.1 514.5,1216.4 527.1,1216.4 527.1,1203.8 539.8,1203.8 539.8,1192.2 			"/>
		</g>
		<polygon class="st2" points="453.3,1264.9 438.6,1289.2 438.6,1264.9 		"/>
		<g>
			<g>
				<polygon class="st2" points="-42.3,1203.8 -42.3,1290.3 -143.5,1290.3 -143.5,1278.7 -130.8,1278.7 -130.8,1266 -118.2,1266
					-118.2,1253.3 -105.5,1253.3 -105.5,1240.7 -118.2,1240.7 -118.2,1228 -130.8,1228 -130.8,1215.4 -143.5,1215.4 -143.5,1203.8
									"/>
				<polygon class="st3" points="-42.3,1192.2 -42.3,1278.7 -143.5,1278.7 -143.5,1267.1 -130.8,1267.1 -130.8,1254.4
					-118.2,1254.4 -118.2,1241.7 -105.5,1241.7 -105.5,1229.1 -118.2,1229.1 -118.2,1216.4 -130.8,1216.4 -130.8,1203.8
					-143.5,1203.8 -143.5,1192.2 				"/>
			</g>
			<polygon class="st2" points="-57,1264.9 -42.3,1289.2 -42.3,1264.9 			"/>
		</g>
		<g>
			<rect x="-57" y="1178.5" class="st2" width="510.3" height="86.5"/>
			<rect x="-57" y="1165.8" class="st3" width="510.3" height="86.5"/>
		</g>
	</g>
</g>
<g>
	<g>
		<path class="st22" d="M57.1,1240.8H19.7v-59.9h37.4v7.5h7.5v15h-7.5v15h7.5v15h-7.5V1240.8z M34.7,1203.3h15v-7.5h-15V1203.3z
			 M34.7,1225.8h15v-7.5h-15V1225.8z"/>
		<path class="st22" d="M87.1,1240.8h-15v-52.4h7.5v-7.5h30v7.5h7.5v52.4h-15v-22.5h-15V1240.8z M102.1,1203.3v-7.5h-15v7.5H102.1z"
			/>
		<path class="st22" d="M132,1233.3h-7.5v-52.4h15v44.9h30v15H132V1233.3z"/>
		<path class="st22" d="M184.4,1233.3h-7.5v-52.4h15v44.9h30v15h-37.4V1233.3z"/>
		<path class="st22" d="M229.4,1188.4h7.5v-7.5h30v7.5h7.5v44.9h-7.5v7.5h-30v-7.5h-7.5V1188.4z M244.4,1225.8h15v-30h-15V1225.8z"
			/>
		<path class="st22" d="M281.8,1188.4h7.5v-7.5h30v7.5h7.5v44.9h-7.5v7.5h-30v-7.5h-7.5V1188.4z M296.8,1225.8h15v-30h-15V1225.8z"
			/>
		<path class="st22" d="M356.7,1210.8h-7.5v30h-15v-59.9h15v7.5h7.5v7.5h7.5v-15h15v59.9h-15v-22.5h-7.5V1210.8z"/>
	</g>
	<g>
		<path class="st23" d="M57.1,1235H19.7v-59.9h37.4v7.5h7.5v15h-7.5v15h7.5v15h-7.5V1235z M34.7,1197.5h15v-7.5h-15V1197.5z
			 M34.7,1220h15v-7.5h-15V1220z"/>
		<path class="st23" d="M87.1,1235h-15v-52.4h7.5v-7.5h30v7.5h7.5v52.4h-15v-22.5h-15V1235z M102.1,1197.5v-7.5h-15v7.5H102.1z"/>
		<path class="st23" d="M132,1227.5h-7.5v-52.4h15v44.9h30v15H132V1227.5z"/>
		<path class="st23" d="M184.4,1227.5h-7.5v-52.4h15v44.9h30v15h-37.4V1227.5z"/>
		<path class="st23" d="M229.4,1182.5h7.5v-7.5h30v7.5h7.5v44.9h-7.5v7.5h-30v-7.5h-7.5V1182.5z M244.4,1220h15v-30h-15V1220z"/>
		<path class="st23" d="M281.8,1182.5h7.5v-7.5h30v7.5h7.5v44.9h-7.5v7.5h-30v-7.5h-7.5V1182.5z M296.8,1220h15v-30h-15V1220z"/>
		<path class="st23" d="M356.7,1205h-7.5v30h-15v-59.9h15v7.5h7.5v7.5h7.5v-15h15v59.9h-15v-22.5h-7.5V1205z"/>
	</g>
</g>
<g>
	<path class="st0" d="M548.8,1387.5h20.7v6.9h-20.7V1387.5z"/>
	<path class="st0" d="M604,1404.8h-6.9v-27.6h17.3v3.5h3.5v10.4h-3.5v3.5H604V1404.8z M604,1387.5h6.9v-3.5H604V1387.5z"/>
	<path class="st0" d="M631.7,1394.4h-3.5v10.4h-6.9v-27.6h17.3v3.5h3.5v10.4h-3.5v3.5h3.5v10.4h-6.9v-6.9h-3.5V1394.4z
		 M628.2,1387.5h6.9v-3.5h-6.9V1387.5z"/>
	<path class="st0" d="M649,1401.3h-3.5v-20.7h3.5v-3.5h17.3v6.9h-13.8v3.5h6.9v6.9h-6.9v3.5h13.8v6.9H649V1401.3z"/>
	<path class="st0" d="M669.7,1380.6h3.5v-3.5h17.3v6.9h-13.8v3.5H687v3.5h3.5v10.4H687v3.5h-17.3v-6.9h13.8v-3.5h-10.4v-3.5h-3.5
		V1380.6z"/>
	<path class="st0" d="M693.9,1380.6h3.5v-3.5h17.3v6.9h-13.8v3.5h10.4v3.5h3.5v10.4h-3.5v3.5h-17.3v-6.9h13.8v-3.5h-10.4v-3.5h-3.5
		V1380.6z"/>
	<path class="st0" d="M749.2,1404.8h-6.9v-24.2h3.5v-3.5h13.8v3.5h3.5v24.2h-6.9v-10.4h-6.9V1404.8z M756.1,1387.5v-3.5h-6.9v3.5
		H756.1z"/>
	<path class="st0" d="M776.8,1391h-3.5v13.8h-6.9v-27.6h6.9v3.5h3.5v3.5h3.5v-6.9h6.9v27.6h-6.9v-10.4h-3.5V1391z"/>
	<path class="st0" d="M790.7,1377.2h6.9v10.4h6.9v-10.4h6.9v13.8h-3.5v3.5h-3.5v10.4h-6.9v-10.4h-3.5v-3.5h-3.5V1377.2z"/>
	<path class="st0" d="M846,1404.8H839v-27.6h6.9v6.9h3.5v-3.5h3.5v-3.5h6.9v6.9h-3.5v3.5h-3.5v6.9h3.5v3.5h3.5v6.9h-6.9v-3.5h-3.5
		v-3.5H846V1404.8z"/>
	<path class="st0" d="M866.7,1401.3h-3.5v-20.7h3.5v-3.5H884v6.9h-13.8v3.5h6.9v6.9h-6.9v3.5H884v6.9h-17.3V1401.3z"/>
	<path class="st0" d="M887.4,1377.2h6.9v10.4h6.9v-10.4h6.9v13.8h-3.5v3.5h-3.5v10.4h-6.9v-10.4h-3.5v-3.5h-3.5V1377.2z"/>
	<path class="st0" d="M935.8,1377.2h20.7v6.9h-6.9v20.7h-6.9v-20.7h-6.9V1377.2z"/>
	<path class="st0" d="M960,1380.6h3.5v-3.5h13.8v3.5h3.5v20.7h-3.5v3.5h-13.8v-3.5H960V1380.6z M966.9,1397.9h6.9v-13.8h-6.9V1397.9
		z"/>
	<path class="st0" d="M1015.3,1404.8h-6.9v-27.6h17.3v3.5h3.5v10.4h-3.5v3.5h-10.4V1404.8z M1015.3,1387.5h6.9v-3.5h-6.9V1387.5z"/>
	<path class="st0" d="M1036,1401.3h-3.5v-24.2h6.9v20.7h13.8v6.9H1036V1401.3z"/>
	<path class="st0" d="M1063.7,1404.8h-6.9v-24.2h3.5v-3.5h13.8v3.5h3.5v24.2h-6.9v-10.4h-6.9V1404.8z M1070.6,1387.5v-3.5h-6.9v3.5
		H1070.6z"/>
	<path class="st0" d="M1081,1377.2h6.9v10.4h6.9v-10.4h6.9v13.8h-3.5v3.5h-3.5v10.4h-6.9v-10.4h-3.5v-3.5h-3.5V1377.2z"/>
	<path class="st0" d="M1129.3,1387.5h20.7v6.9h-20.7V1387.5z"/>
</g>
<g>
	<path class="st30" d="M547.9,1381.6h20.7v6.9h-20.7V1381.6z"/>
	<path class="st30" d="M603.2,1398.9h-6.9v-27.6h17.3v3.5h3.5v10.4h-3.5v3.5h-10.4V1398.9z M603.2,1381.6h6.9v-3.5h-6.9V1381.6z"/>
	<path class="st30" d="M630.8,1388.5h-3.5v10.4h-6.9v-27.6h17.3v3.5h3.5v10.4h-3.5v3.5h3.5v10.4h-6.9v-6.9h-3.5V1388.5z
		 M627.4,1381.6h6.9v-3.5h-6.9V1381.6z"/>
	<path class="st30" d="M648.1,1395.4h-3.5v-20.7h3.5v-3.5h17.3v6.9h-13.8v3.5h6.9v6.9h-6.9v3.5h13.8v6.9h-17.3V1395.4z"/>
	<path class="st30" d="M668.8,1374.7h3.5v-3.5h17.3v6.9h-13.8v3.5h10.4v3.5h3.5v10.4h-3.5v3.5h-17.3v-6.9h13.8v-3.5h-10.4v-3.5h-3.5
		V1374.7z"/>
	<path class="st30" d="M693,1374.7h3.5v-3.5h17.3v6.9h-13.8v3.5h10.4v3.5h3.5v10.4h-3.5v3.5H693v-6.9h13.8v-3.5h-10.4v-3.5H693
		V1374.7z"/>
	<path class="st30" d="M748.3,1398.9h-6.9v-24.2h3.5v-3.5h13.8v3.5h3.5v24.2h-6.9v-10.4h-6.9V1398.9z M755.2,1381.6v-3.5h-6.9v3.5
		H755.2z"/>
	<path class="st30" d="M776,1385.1h-3.5v13.8h-6.9v-27.6h6.9v3.5h3.5v3.5h3.5v-6.9h6.9v27.6h-6.9v-10.4H776V1385.1z"/>
	<path class="st30" d="M789.8,1371.3h6.9v10.4h6.9v-10.4h6.9v13.8h-3.5v3.5h-3.5v10.4h-6.9v-10.4h-3.5v-3.5h-3.5V1371.3z"/>
	<path class="st30" d="M845.1,1398.9h-6.9v-27.6h6.9v6.9h3.5v-3.5h3.5v-3.5h6.9v6.9h-3.5v3.5H852v6.9h3.5v3.5h3.5v6.9H852v-3.5h-3.5
		v-3.5h-3.5V1398.9z"/>
	<path class="st30" d="M865.8,1395.4h-3.5v-20.7h3.5v-3.5h17.3v6.9h-13.8v3.5h6.9v6.9h-6.9v3.5h13.8v6.9h-17.3V1395.4z"/>
	<path class="st30" d="M886.6,1371.3h6.9v10.4h6.9v-10.4h6.9v13.8h-3.5v3.5h-3.5v10.4h-6.9v-10.4H890v-3.5h-3.5V1371.3z"/>
	<path class="st30" d="M934.9,1371.3h20.7v6.9h-6.9v20.7h-6.9v-20.7h-6.9V1371.3z"/>
	<path class="st30" d="M959.1,1374.7h3.5v-3.5h13.8v3.5h3.5v20.7h-3.5v3.5h-13.8v-3.5h-3.5V1374.7z M966.1,1392h6.9v-13.8h-6.9V1392
		z"/>
	<path class="st30" d="M1014.4,1398.9h-6.9v-27.6h17.3v3.5h3.5v10.4h-3.5v3.5h-10.4V1398.9z M1014.4,1381.6h6.9v-3.5h-6.9V1381.6z"
		/>
	<path class="st30" d="M1035.2,1395.4h-3.5v-24.2h6.9v20.7h13.8v6.9h-17.3V1395.4z"/>
	<path class="st30" d="M1062.8,1398.9h-6.9v-24.2h3.5v-3.5h13.8v3.5h3.5v24.2h-6.9v-10.4h-6.9V1398.9z M1069.7,1381.6v-3.5h-6.9v3.5
		H1069.7z"/>
	<path class="st30" d="M1080.1,1371.3h6.9v10.4h6.9v-10.4h6.9v13.8h-3.5v3.5h-3.5v10.4h-6.9v-10.4h-3.5v-3.5h-3.5V1371.3z"/>
	<path class="st30" d="M1128.5,1381.6h20.7v6.9h-20.7V1381.6z"/>
</g>
<g>
	<path class="st4" d="M547.9,1377.2h20.7v6.9h-20.7V1377.2z"/>
	<path class="st4" d="M603.2,1394.5h-6.9v-27.6h17.3v3.5h3.5v10.4h-3.5v3.5h-10.4V1394.5z M603.2,1377.2h6.9v-3.5h-6.9V1377.2z"/>
	<path class="st4" d="M630.8,1384.1h-3.5v10.4h-6.9v-27.6h17.3v3.5h3.5v10.4h-3.5v3.5h3.5v10.4h-6.9v-6.9h-3.5V1384.1z
		 M627.4,1377.2h6.9v-3.5h-6.9V1377.2z"/>
	<path class="st4" d="M648.1,1391h-3.5v-20.7h3.5v-3.5h17.3v6.9h-13.8v3.5h6.9v6.9h-6.9v3.5h13.8v6.9h-17.3V1391z"/>
	<path class="st4" d="M668.8,1370.3h3.5v-3.5h17.3v6.9h-13.8v3.5h10.4v3.5h3.5v10.4h-3.5v3.5h-17.3v-6.9h13.8v-3.5h-10.4v-3.5h-3.5
		V1370.3z"/>
	<path class="st4" d="M693,1370.3h3.5v-3.5h17.3v6.9h-13.8v3.5h10.4v3.5h3.5v10.4h-3.5v3.5H693v-6.9h13.8v-3.5h-10.4v-3.5H693
		V1370.3z"/>
	<path class="st4" d="M748.3,1394.5h-6.9v-24.2h3.5v-3.5h13.8v3.5h3.5v24.2h-6.9v-10.4h-6.9V1394.5z M755.2,1377.2v-3.5h-6.9v3.5
		H755.2z"/>
	<path class="st4" d="M776,1380.7h-3.5v13.8h-6.9v-27.6h6.9v3.5h3.5v3.5h3.5v-6.9h6.9v27.6h-6.9v-10.4H776V1380.7z"/>
	<path class="st4" d="M789.8,1366.8h6.9v10.4h6.9v-10.4h6.9v13.8h-3.5v3.5h-3.5v10.4h-6.9v-10.4h-3.5v-3.5h-3.5V1366.8z"/>
	<path class="st4" d="M845.1,1394.5h-6.9v-27.6h6.9v6.9h3.5v-3.5h3.5v-3.5h6.9v6.9h-3.5v3.5H852v6.9h3.5v3.5h3.5v6.9H852v-3.5h-3.5
		v-3.5h-3.5V1394.5z"/>
	<path class="st4" d="M865.8,1391h-3.5v-20.7h3.5v-3.5h17.3v6.9h-13.8v3.5h6.9v6.9h-6.9v3.5h13.8v6.9h-17.3V1391z"/>
	<path class="st4" d="M886.6,1366.8h6.9v10.4h6.9v-10.4h6.9v13.8h-3.5v3.5h-3.5v10.4h-6.9v-10.4H890v-3.5h-3.5V1366.8z"/>
	<path class="st4" d="M934.9,1366.8h20.7v6.9h-6.9v20.7h-6.9v-20.7h-6.9V1366.8z"/>
	<path class="st4" d="M959.1,1370.3h3.5v-3.5h13.8v3.5h3.5v20.7h-3.5v3.5h-13.8v-3.5h-3.5V1370.3z M966.1,1387.6h6.9v-13.8h-6.9
		V1387.6z"/>
	<path class="st4" d="M1014.4,1394.5h-6.9v-27.6h17.3v3.5h3.5v10.4h-3.5v3.5h-10.4V1394.5z M1014.4,1377.2h6.9v-3.5h-6.9V1377.2z"/>
	<path class="st4" d="M1035.2,1391h-3.5v-24.2h6.9v20.7h13.8v6.9h-17.3V1391z"/>
	<path class="st4" d="M1062.8,1394.5h-6.9v-24.2h3.5v-3.5h13.8v3.5h3.5v24.2h-6.9v-10.4h-6.9V1394.5z M1069.7,1377.2v-3.5h-6.9v3.5
		H1069.7z"/>
	<path class="st4" d="M1080.1,1366.8h6.9v10.4h6.9v-10.4h6.9v13.8h-3.5v3.5h-3.5v10.4h-6.9v-10.4h-3.5v-3.5h-3.5V1366.8z"/>
	<path class="st4" d="M1128.5,1377.2h20.7v6.9h-20.7V1377.2z"/>
</g>
<path class="st31" d="M3309.7,675.1h-2.1h-10.8h-38.7h-12.9H1718.6h-12.9H1667h-12.9h-12.9v22.6v840.8v11.3v33.9v11.3v11.3h25.8
	h1578.2h12.9h38.7h10.8h2.1h12.9V675.1H3309.7z M3296.8,731.6v818.2v11.3h-12.9v11.3H3271v11.3h-12.9H1705.7h-12.9v-11.3h-12.9
	v-11.3H1667v-11.3V731.6v-11.3h12.9V709h12.9v-11.3h12.9H1910h135.5h1212.7h12.9V709h12.9v11.3h12.9V731.6z"/>
<polygon class="st32" points="2029.7,317.8 2029.7,309.1 2019.8,309.1 1663,309.1 1663,392.5 2019.1,392.5 2019.1,383.8
	2019.8,383.8 2029.7,383.8 2029.7,376.9 2029.7,375.1 2039.6,375.1 2039.6,368.1 2039.6,317.8 "/>
<polygon class="st31" points="2029.2,309.1 2029.2,300.4 2019.4,300.4 1652.1,300.4 1652.1,307.4 1652.1,309.1 1642.2,309.1
	1642.2,359.4 1652,359.4 1652,366.4 1652.1,366.4 1652.1,375.1 1662.6,375.1 1662.6,383.8 2018.7,383.8 2018.7,375.1 2019.4,375.1
	2029.2,375.1 2029.2,368.2 2029.2,366.4 2039.1,366.4 2039.1,359.4 2039.1,309.1 "/>
<rect x="1580.3" y="525.2" class="st13" width="92.2" height="32.8"/>
<text transform="matrix(1 0 0 1 1601.394 543.3584)" class="st4" style="font-family:'EditUndoBRK'; font-size:31.5429px;">DMG</text>
<g>
	<g>
		<polygon class="st23" points="1780.1,559.6 2034.8,559.6 2034.8,541.6 1780.1,541.6 1780.1,541.7 1780.1,546.8 1773.1,546.8
			1773.1,554.4 1780.1,554.4 1780.1,559.5 		"/>
	</g>
	<polygon class="st23" points="2043.4,546.7 2043.4,541.6 2043.4,541.6 1987.7,541.6 1987.7,559.6 2043.4,559.6 2043.4,559.5
		2043.4,554.4 2050.3,554.4 2050.3,546.7 	"/>
</g>
<g class="st33">
	<polygon class="st34" points="2423.6,772.7 2423.6,694.7 2333.7,694.7 2333.7,704.8 2323.6,704.8 2323.6,762.6 2333.7,762.6
		2333.7,772.7 	"/>
	<polygon class="st34" points="2658.7,703.8 2658.7,693.7 2648.6,693.7 2566.6,693.7 2566.6,771.7 2648.6,771.7 2658.7,771.7
		2658.7,761.6 2668.7,761.6 2668.7,703.8 	"/>
	<rect x="2343.6" y="703.7" class="st34" width="305" height="78"/>
</g>
<g>
	<polygon class="st31" points="2433.6,772.7 2433.6,694.7 2343.7,694.7 2343.7,704.8 2333.6,704.8 2333.6,762.6 2343.7,762.6
		2343.7,772.7 	"/>
	<polygon class="st31" points="2423.6,762.7 2423.6,684.7 2333.7,684.7 2333.7,694.8 2323.6,694.8 2323.6,752.6 2333.7,752.6
		2333.7,762.7 	"/>
	<polygon class="st31" points="2648.7,704.8 2648.7,694.7 2638.6,694.7 2556.6,694.7 2556.6,772.7 2638.6,772.7 2648.7,772.7
		2648.7,762.6 2658.7,762.6 2658.7,704.8 	"/>
	<polygon class="st31" points="2658.7,694.8 2658.7,684.7 2648.6,684.7 2566.6,684.7 2566.6,762.7 2648.6,762.7 2658.7,762.7
		2658.7,752.6 2668.7,752.6 2668.7,694.8 	"/>
	<rect x="2433.6" y="694.7" class="st31" width="123" height="78"/>
</g>
<g>
	<polygon class="st35" points="2433.6,762.7 2433.6,684.7 2343.7,684.7 2343.7,694.8 2333.6,694.8 2333.6,752.6 2343.7,752.6
		2343.7,762.7 	"/>
	<polygon class="st35" points="2648.7,694.8 2648.7,684.7 2638.6,684.7 2570.6,684.7 2570.6,762.7 2638.6,762.7 2648.7,762.7
		2648.7,752.6 2658.7,752.6 2658.7,694.8 	"/>
</g>
<g class="st33">
	<polygon class="st34" points="2157.3,377 2157.3,307.1 2076.7,307.1 2076.7,316.1 2067.6,316.1 2067.6,368 2076.7,368 2076.7,377
		"/>
	<polygon class="st34" points="2368.1,315.2 2368.1,306.2 2359.1,306.2 2285.6,306.2 2285.6,376.2 2359.1,376.2 2368.1,376.2
		2368.1,367.1 2377.2,367.1 2377.2,315.2 	"/>
	<rect x="2085.6" y="315.2" class="st34" width="273.6" height="70"/>
</g>
<g>
	<polygon class="st31" points="2166.3,377 2166.3,307.1 2085.6,307.1 2085.6,316.1 2076.6,316.1 2076.6,368 2085.6,368 2085.6,377
		"/>
	<polygon class="st31" points="2157.3,368.1 2157.3,298.1 2076.7,298.1 2076.7,307.1 2067.6,307.1 2067.6,359.1 2076.7,359.1
		2076.7,368.1 	"/>
	<polygon class="st31" points="2359.2,316.1 2359.2,307.1 2350.1,307.1 2276.6,307.1 2276.6,377 2350.1,377 2359.2,377 2359.2,368
		2368.2,368 2368.2,316.1 	"/>
	<polygon class="st31" points="2368.1,307.1 2368.1,298.1 2359.1,298.1 2285.6,298.1 2285.6,368.1 2359.1,368.1 2368.1,368.1
		2368.1,359.1 2377.2,359.1 2377.2,307.1 	"/>
	<rect x="2166.3" y="307.1" class="st31" width="110.3" height="70"/>
</g>
<g>
	<polygon class="st35" points="2166.3,368.1 2166.3,298.1 2085.6,298.1 2085.6,307.1 2076.6,307.1 2076.6,359.1 2085.6,359.1
		2085.6,368.1 	"/>
	<polygon class="st35" points="2359.2,307.1 2359.2,298.1 2350.1,298.1 2289.2,298.1 2289.2,368.1 2350.1,368.1 2359.2,368.1
		2359.2,359.1 2368.2,359.1 2368.2,307.1 	"/>
</g>
<rect x="2418.6" y="684.7" class="st35" width="169" height="78"/>
<rect x="2152.8" y="298.1" class="st35" width="151.6" height="70"/>
<g>
	<rect x="2413.6" y="716.9" class="st13" width="179" height="81.8"/>
	<text transform="matrix(1 0 0 1 2435.7507 744.5814)" class="st4" style="font-family:'EditUndoBRK'; font-size:48px;">124 KM</text>
</g>
<g>
	<rect x="3299.3" y="694.7" class="st32" width="8" height="2"/>
	<polygon class="st32" points="3218.2,694.7 3218.2,704.8 3208.3,704.8 3208.3,762.6 3218.2,762.6 3218.2,772.6 3218.2,772.6
		3218.2,772.7 3228.1,772.7 3228.1,782.7 3283.3,782.7 3283.3,694.7 	"/>
</g>
<polygon class="st31" points="3308.3,694.7 3308.3,684.7 3218.3,684.7 3218.3,694.8 3208.3,694.8 3208.3,752.6 3218.3,752.6
	3218.3,762.6 3218.3,762.6 3218.3,762.7 3228.3,762.7 3228.3,772.7 3318.3,772.7 3318.3,694.7 "/>
<g>
	<g>
		<g>
			<polygon class="st2" points="3278.3,706.2 3273,706.2 3240.5,706.2 3240.5,711.6 3235.2,711.6 3235.2,749.4 3240.5,749.4
				3240.5,754.7 3273,754.7 3278.3,754.7 3278.3,749.4 3283.6,749.4 3283.6,711.6 3278.3,711.6 			"/>
			<polygon class="st3" points="3278.6,700.5 3273.2,700.5 3240.5,700.5 3240.5,705.9 3235.2,705.9 3235.2,743.9 3240.5,743.9
				3240.5,749.3 3273.2,749.3 3278.6,749.3 3278.6,743.9 3284,743.9 3284,705.9 3278.6,705.9 			"/>
		</g>
		<g>
			<rect x="3248.1" y="729.6" class="st4" width="24.2" height="4.8"/>
			<rect x="3248.1" y="718.4" class="st4" width="24.2" height="4.8"/>
		</g>
	</g>
	<g class="st33">
		<polygon class="st36" points="3240.5,754.9 3240.5,759.9 3245.9,759.9 3278.6,759.9 3278.6,754.9 3245.9,754.9 		"/>
		<rect x="3235.2" y="749.5" class="st36" width="5.4" height="5"/>
		<rect x="3278.6" y="749.5" class="st36" width="5.4" height="5"/>
	</g>
</g>
<g>
	<g>
		<g>
			<polygon class="st2" points="2631.8,316.7 2627.6,316.7 2602.3,316.7 2602.3,320.9 2598.2,320.9 2598.2,350.4 2602.3,350.4
				2602.3,354.5 2627.6,354.5 2631.8,354.5 2631.8,350.4 2636,350.4 2636,320.9 2631.8,320.9 			"/>
			<polygon class="st3" points="2632,312.2 2627.8,312.2 2602.3,312.2 2602.3,316.4 2598.2,316.4 2598.2,346.1 2602.3,346.1
				2602.3,350.3 2627.8,350.3 2632,350.3 2632,346.1 2636.2,346.1 2636.2,316.4 2632,316.4 			"/>
		</g>
		<g>

				<rect x="2602.9" y="329.6" transform="matrix(-1.836970e-16 1 -1 -1.836970e-16 2943.7566 -2280.8433)" class="st4" width="18.9" height="3.8"/>

				<rect x="2613.6" y="329.6" transform="matrix(-1.836970e-16 1 -1 -1.836970e-16 2954.4592 -2291.5459)" class="st4" width="18.9" height="3.8"/>
		</g>
	</g>
	<g class="st33">
		<polygon class="st36" points="2602.3,354.6 2602.3,358.5 2606.5,358.5 2632,358.5 2632,354.6 2606.5,354.6 		"/>
		<rect x="2598.2" y="350.4" class="st36" width="4.2" height="3.9"/>
		<rect x="2632" y="350.4" class="st36" width="4.2" height="3.9"/>
	</g>
</g>
<polygon class="st23" points="1806.7,442 1806.7,438.2 1797.1,438.2 1796.7,438.2 1787.4,438.2 1787.1,438.2 1777.8,438.2
	1777.4,438.2 1767.8,438.2 1767.8,442 1763,442 1763,447.4 1767.8,447.4 1767.8,451.1 1768,451.1 1772.2,451.1 1773.1,451.1
	1777.3,451.1 1777.4,451.1 1777.7,451.1 1777.8,451.1 1781.9,451.1 1782.7,451.1 1786.9,451.1 1787.1,451.1 1787.3,451.1
	1787.4,451.1 1791.5,451.1 1792.3,451.1 1796.5,451.1 1796.7,451.1 1796.9,451.1 1797.1,451.1 1801.1,451.1 1802,451.1
	1806.2,451.1 1806.7,451.1 1806.7,447.5 1811.2,447.5 1811.2,442 "/>
<polygon class="st23" points="1813.4,205.1 1813.4,201.4 1803.8,201.4 1803.4,201.4 1794.1,201.4 1793.8,201.4 1784.5,201.4
	1784.1,201.4 1774.5,201.4 1774.5,205.1 1769.7,205.1 1769.7,210.5 1774.5,210.5 1774.5,214.3 1774.8,214.3 1779,214.3
	1779.8,214.3 1784,214.3 1784.1,214.3 1784.4,214.3 1784.5,214.3 1788.6,214.3 1789.4,214.3 1793.6,214.3 1793.8,214.3 1794,214.3
	1794.1,214.3 1798.2,214.3 1799,214.3 1803.3,214.3 1803.4,214.3 1803.6,214.3 1803.8,214.3 1807.9,214.3 1808.7,214.3
	1812.9,214.3 1813.4,214.3 1813.4,210.6 1817.9,210.6 1817.9,205.1 "/>
<polygon class="st37" points="1967.3,205.1 1967.3,201.4 1957.7,201.4 1957.3,201.4 1948,201.4 1947.7,201.4 1938.4,201.4
	1938,201.4 1929,201.4 1928.4,201.4 1919.4,201.4 1919,201.4 1909.7,201.4 1909.4,201.4 1900.1,201.4 1899.7,201.4 1890.5,201.4
	1890.1,201.4 1880.8,201.4 1880.5,201.4 1871.2,201.4 1870.8,201.4 1861.6,201.4 1861.2,201.4 1851.9,201.4 1851.6,201.4
	1842.3,201.4 1841.9,201.4 1832.7,201.4 1832.3,201.4 1823,201.4 1822.7,201.4 1813.4,201.4 1813,201.4 1803.8,201.4 1803.4,201.4
	1794.1,201.4 1793.8,201.4 1784.5,201.4 1784.1,201.4 1774.5,201.4 1774.5,205.1 1769.7,205.1 1769.7,210.5 1774.5,210.5
	1774.5,214.3 1774.8,214.3 1779,214.3 1779.8,214.3 1784,214.3 1784.1,214.3 1784.4,214.3 1784.5,214.3 1788.6,214.3 1789.4,214.3
	1793.6,214.3 1793.8,214.3 1794,214.3 1794.1,214.3 1798.2,214.3 1799,214.3 1803.3,214.3 1803.4,214.3 1803.6,214.3 1803.8,214.3
	1807.9,214.3 1808.7,214.3 1812.9,214.3 1813,214.3 1813.3,214.3 1813.4,214.3 1817.5,214.3 1818.3,214.3 1822.5,214.3
	1822.7,214.3 1822.9,214.3 1823,214.3 1827.1,214.3 1827.9,214.3 1832.1,214.3 1832.3,214.3 1832.5,214.3 1832.7,214.3
	1836.7,214.3 1837.6,214.3 1841.8,214.3 1841.9,214.3 1842.2,214.3 1842.3,214.3 1846.4,214.3 1847.2,214.3 1851.4,214.3
	1851.6,214.3 1851.8,214.3 1851.9,214.3 1856,214.3 1856.8,214.3 1861,214.3 1861.2,214.3 1861.4,214.3 1861.6,214.3 1865.6,214.3
	1866.5,214.3 1870.7,214.3 1870.8,214.3 1871.1,214.3 1871.2,214.3 1875.3,214.3 1876.1,214.3 1880.3,214.3 1880.5,214.3
	1880.7,214.3 1880.8,214.3 1884.9,214.3 1885.7,214.3 1889.9,214.3 1890.1,214.3 1890.3,214.3 1890.5,214.3 1894.5,214.3
	1895.4,214.3 1899.6,214.3 1899.7,214.3 1900,214.3 1900.1,214.3 1904.2,214.3 1905,214.3 1909.2,214.3 1909.4,214.3 1909.6,214.3
	1909.7,214.3 1913.8,214.3 1914.6,214.3 1918.8,214.3 1919,214.3 1919.2,214.3 1919.4,214.3 1923.4,214.3 1924.3,214.3
	1928.4,214.3 1928.5,214.3 1928.6,214.3 1929,214.3 1932.8,214.3 1933.7,214.3 1937.9,214.3 1938,214.3 1938.3,214.3 1938.4,214.3
	1942.5,214.3 1943.3,214.3 1947.5,214.3 1947.7,214.3 1947.9,214.3 1948,214.3 1952.1,214.3 1952.9,214.3 1957.1,214.3
	1957.3,214.3 1957.5,214.3 1957.7,214.3 1961.7,214.3 1962.6,214.3 1966.8,214.3 1967.3,214.3 1967.3,210.6 1971.8,210.6
	1971.8,205.1 "/>
<g>
	<polygon class="st31" points="3518.3,1583.7 3523.6,1583.7 3536.5,1583.7 3536.5,1572.4 3549.4,1572.4 3549.4,1561.1
		3562.3,1561.1 3562.3,1549.8 3562.3,1536.4 3588.1,1536.4 3588.1,1538.5 3588.1,1549.8 3588.1,1583.7 3588.1,1595 3588.1,1606.3
		3562.3,1606.3 3518.3,1606.3 	"/>
</g>
<g>
	<polygon class="st31" points="3584.5,1536.5 3584.5,1541.8 3584.5,1554.7 3595.8,1554.7 3595.8,1567.6 3607.1,1567.6
		3607.1,1580.5 3618.4,1580.5 3631.7,1580.5 3631.7,1606.3 3629.7,1606.3 3618.4,1606.3 3584.5,1606.3 3573.2,1606.3 3561.9,1606.3
		3561.9,1580.5 3561.9,1536.5 	"/>
</g>
<g>
	<polygon class="st31" points="3532.3,1583.7 3532.3,1589 3532.3,1601.9 3543.6,1601.9 3543.6,1614.8 3554.9,1614.8 3554.9,1627.7
		3566.2,1627.7 3579.6,1627.7 3579.6,1653.5 3577.5,1653.5 3566.2,1653.5 3532.3,1653.5 3521,1653.5 3509.7,1653.5 3509.7,1627.7
		3509.7,1583.7 	"/>
</g>
<g>
	<polygon class="st31" points="3451.1,1583.7 3445.8,1583.7 3432.9,1583.7 3432.9,1572.4 3420,1572.4 3420,1561.1 3407.1,1561.1
		3407.1,1549.8 3407.1,1536.4 3381.3,1536.4 3381.3,1538.5 3381.3,1549.8 3381.3,1583.7 3381.3,1595 3381.3,1606.3 3407.1,1606.3
		3451.1,1606.3 	"/>
</g>
<g>
	<polygon class="st31" points="3506.5,1630.9 3501.2,1630.9 3488.3,1630.9 3488.3,1619.6 3475.4,1619.6 3475.4,1608.3
		3462.5,1608.3 3462.5,1597 3462.5,1583.6 3436.7,1583.6 3436.7,1585.7 3436.7,1597 3436.7,1630.9 3436.7,1642.2 3436.7,1653.5
		3462.5,1653.5 3506.5,1653.5 	"/>
</g>
<g>
	<polygon class="st31" points="3384.1,1547.3 3384.1,1552.6 3384.1,1565.5 3372.8,1565.5 3372.8,1578.4 3361.5,1578.4
		3361.5,1591.3 3350.2,1591.3 3336.8,1591.3 3336.8,1617.1 3338.9,1617.1 3350.2,1617.1 3384.1,1617.1 3395.4,1617.1 3406.7,1617.1
		3406.7,1591.3 3406.7,1547.3 	"/>
</g>
<polygon class="st32" points="2558,325 2558,316 2557.9,316 2557.9,316 2549,316 2549,307 2521.1,307 2513.9,307 2499.6,307
	2441.2,307 2441.2,316 2432.3,316 2432.3,368 2441.1,368 2441.1,376.9 2441.2,376.9 2441.2,377 2450.1,377 2450.1,386 2499.6,386
	2500.4,386 2500.4,377 2522.1,377 2522.1,386 2557.9,386 2557.9,376.9 2566.9,376.9 2566.9,325 "/>
<polygon class="st31" points="2522,307 2522,298 2441.3,298 2441.3,307.1 2432.3,307.1 2432.3,359 2441.2,359 2441.2,368
	2441.3,368 2441.3,368 2450.3,368 2450.3,377 2531,377 2531,307 "/>
<g>
	<polygon class="st7" points="4644.7,741.7 4628.2,741.7 4628.2,733.7 4611.7,733.7 4611.7,725 3899.6,725 3899.6,733.7
		3883.1,733.7 3883.1,741.7 3866.6,741.7 3866.6,1209.6 3883.1,1209.6 3883.1,1217.6 3899.6,1217.6 3899.6,1226.3 4611.7,1226.3
		4611.7,1217.6 4628.2,1217.6 4628.2,1209.6 4644.7,1209.6 	"/>
	<polygon class="st8" points="4644.7,733.5 4628.2,733.5 4628.2,725.5 4611.7,725.5 4611.7,716.8 3899.6,716.8 3899.6,725.5
		3883.1,725.5 3883.1,733.5 3866.6,733.5 3866.6,1201.4 3883.1,1201.4 3883.1,1209.3 3899.6,1209.3 3899.6,1218.1 4611.7,1218.1
		4611.7,1209.3 4628.2,1209.3 4628.2,1201.4 4644.7,1201.4 	"/>
</g>
<g>
	<g>
		<polygon class="st20" points="4721.3,839.9 4721.3,1016.9 4734.8,1016.9 4734.8,1027.2 4748.3,1027.2 4748.3,1038.5
			5329.9,1038.5 5329.9,1027.2 5343.4,1027.2 5343.4,1016.9 5356.9,1016.9 5356.9,839.9 		"/>
		<polygon class="st20" points="5356.9,839.9 5356.9,738 5343.4,738 5343.4,727.7 5329.9,727.7 5329.9,716.4 4748.3,716.4
			4748.3,727.7 4734.8,727.7 4734.8,738 4721.3,738 4721.3,839.9 		"/>
	</g>
	<g>
		<polygon class="st21" points="4734.8,738.1 4748.3,738.1 4748.3,727.7 4734.8,727.7 4734.8,738 4721.3,738 4721.3,748.4
			4734.8,748.4 		"/>
		<rect x="4748.3" y="716.4" class="st21" width="581.6" height="10.4"/>
		<polygon class="st21" points="5343.4,738 5343.4,727.7 5329.9,727.7 5329.9,738.1 5343.4,738.1 5343.4,748.4 5356.9,748.4
			5356.9,738 		"/>
	</g>
</g>
<g>
	<polygon class="st2" points="4139.1,1274.8 4132.2,1274.8 3873.5,1274.8 3873.5,1281.7 3866.6,1281.7 3866.6,1321.7 3873.5,1321.7
		3873.5,1328.6 4132.2,1328.6 4139.1,1328.6 4139.1,1321.7 4146.1,1321.7 4146.1,1281.7 4139.1,1281.7 	"/>
	<polygon class="st3" points="4139.1,1267.9 4132.2,1267.9 3873.5,1267.9 3873.5,1274.8 3866.6,1274.8 3866.6,1314.8 3873.5,1314.8
		3873.5,1321.7 4132.2,1321.7 4139.1,1321.7 4139.1,1314.8 4146.1,1314.8 4146.1,1274.8 4139.1,1274.8 	"/>
	<g>
		<path class="st4" d="M3917.2,1303h-11.9v-19.1h11.9v2.4h2.4v4.8h-2.4v4.8h2.4v4.8h-2.4V1303z M3910.1,1291.1h4.8v-2.4h-4.8V1291.1
			z M3910.1,1298.2h4.8v-2.4h-4.8V1298.2z"/>
		<path class="st4" d="M3926.8,1303h-4.8v-16.7h2.4v-2.4h9.5v2.4h2.4v16.7h-4.8v-7.2h-4.8V1303z M3931.5,1291.1v-2.4h-4.8v2.4
			H3931.5z"/>
		<path class="st4" d="M3938.7,1286.3h2.4v-2.4h11.9v4.8h-9.5v9.5h9.5v4.8h-11.9v-2.4h-2.4V1286.3z"/>
		<path class="st4" d="M3960.1,1303h-4.8v-19.1h4.8v4.8h2.4v-2.4h2.4v-2.4h4.8v4.8h-2.4v2.4h-2.4v4.8h2.4v2.4h2.4v4.8h-4.8v-2.4
			h-2.4v-2.4h-2.4V1303z"/>
		<path class="st4" d="M3988.8,1283.9h14.3v4.8h-4.8v14.3h-4.8v-14.3h-4.8V1283.9z"/>
		<path class="st4" d="M4005.5,1286.3h2.4v-2.4h9.5v2.4h2.4v14.3h-2.4v2.4h-9.5v-2.4h-2.4V1286.3z M4010.2,1298.2h4.8v-9.5h-4.8
			V1298.2z"/>
		<path class="st4" d="M4043.6,1303h-4.8v-19.1h4.8v2.4h2.4v2.4h2.4v-2.4h2.4v-2.4h4.8v19.1h-4.8v-9.5h-2.4v2.4h-2.4v-2.4h-2.4V1303
			z"/>
		<path class="st4" d="M4060.3,1300.6h-2.4v-14.3h2.4v-2.4h11.9v4.8h-9.5v2.4h4.8v4.8h-4.8v2.4h9.5v4.8h-11.9V1300.6z"/>
		<path class="st4" d="M4081.8,1293.5h-2.4v9.5h-4.8v-19.1h4.8v2.4h2.4v2.4h2.4v-4.8h4.8v19.1h-4.8v-7.2h-2.4V1293.5z"/>
		<path class="st4" d="M4091.3,1283.9h4.8v14.3h4.8v-14.3h4.8v16.7h-2.4v2.4h-9.5v-2.4h-2.4V1283.9z"/>
	</g>
</g>
<g>
	<polygon class="st2" points="4637.8,1355.4 4630.8,1355.4 4372.1,1355.4 4372.1,1362.3 4365.2,1362.3 4365.2,1402.3 4372.1,1402.3
		4372.1,1409.2 4630.8,1409.2 4637.8,1409.2 4637.8,1402.3 4644.7,1402.3 4644.7,1362.3 4637.8,1362.3 	"/>
	<polygon class="st2" points="4637.8,1355.5 4630.8,1355.5 4372.1,1355.5 4372.1,1362.4 4365.2,1362.4 4365.2,1402.4 4372.1,1402.4
		4372.1,1409.3 4630.8,1409.3 4637.8,1409.3 4637.8,1402.4 4644.7,1402.4 4644.7,1362.4 4637.8,1362.4 	"/>
	<g>
		<path class="st4" d="M4430.2,1371.5h14.3v4.8h-4.8v14.3h-4.8v-14.3h-4.8V1371.5z"/>
		<path class="st4" d="M4454,1383.4h-2.4v7.2h-4.8v-19.1h11.9v2.4h2.4v7.2h-2.4v2.4h2.4v7.2h-4.8v-4.8h-2.4V1383.4z M4451.6,1378.7
			h4.8v-2.4h-4.8V1378.7z"/>
		<path class="st4" d="M4463.5,1371.5h4.8v7.2h4.8v-7.2h4.8v9.5h-2.4v2.4h-2.4v7.2h-4.8v-7.2h-2.4v-2.4h-2.4V1371.5z"/>
		<path class="st4" d="M4501.7,1390.6h-4.8v-16.7h2.4v-2.4h9.5v2.4h2.4v16.7h-4.8v-7.2h-4.8V1390.6z M4506.5,1378.7v-2.4h-4.8v2.4
			H4506.5z"/>
		<path class="st4" d="M4516,1388.2h-2.4v-14.3h2.4v-2.4h11.9v4.8h-9.5v9.5h4.8v-2.4h-2.4v-4.8h7.2v11.9H4516V1388.2z"/>
		<path class="st4" d="M4535.1,1390.6h-4.8v-16.7h2.4v-2.4h9.5v2.4h2.4v16.7h-4.8v-7.2h-4.8V1390.6z M4539.8,1378.7v-2.4h-4.8v2.4
			H4539.8z"/>
		<path class="st4" d="M4547,1371.5h14.3v4.8h-4.8v9.5h4.8v4.8H4547v-4.8h4.8v-9.5h-4.8V1371.5z"/>
		<path class="st4" d="M4570.8,1381.1h-2.4v9.5h-4.8v-19.1h4.8v2.4h2.4v2.4h2.4v-4.8h4.8v19.1h-4.8v-7.2h-2.4V1381.1z"/>
	</g>
</g>
<g>
	<polygon class="st2" points="4637.8,1272.4 4630.8,1272.4 4372.1,1272.4 4372.1,1279.3 4365.2,1279.3 4365.2,1319.3 4372.1,1319.3
		4372.1,1326.2 4630.8,1326.2 4637.8,1326.2 4637.8,1319.3 4644.7,1319.3 4644.7,1279.3 4637.8,1279.3 	"/>
	<polygon class="st3" points="4637.8,1265.5 4630.8,1265.5 4372.1,1265.5 4372.1,1272.4 4365.2,1272.4 4365.2,1312.4 4372.1,1312.4
		4372.1,1319.3 4630.8,1319.3 4637.8,1319.3 4637.8,1312.4 4644.7,1312.4 4644.7,1272.4 4637.8,1272.4 	"/>
	<g>
		<path class="st4" d="M4430.2,1281.5h14.3v4.8h-4.8v14.3h-4.8v-14.3h-4.8V1281.5z"/>
		<path class="st4" d="M4454,1293.4h-2.4v7.2h-4.8v-19.1h11.9v2.4h2.4v7.2h-2.4v2.4h2.4v7.2h-4.8v-4.8h-2.4V1293.4z M4451.6,1288.7
			h4.8v-2.4h-4.8V1288.7z"/>
		<path class="st4" d="M4463.5,1281.5h4.8v7.2h4.8v-7.2h4.8v9.5h-2.4v2.4h-2.4v7.2h-4.8v-7.2h-2.4v-2.4h-2.4V1281.5z"/>
		<path class="st4" d="M4501.7,1300.6h-4.8v-16.7h2.4v-2.4h9.5v2.4h2.4v16.7h-4.8v-7.2h-4.8V1300.6z M4506.5,1288.7v-2.4h-4.8v2.4
			H4506.5z"/>
		<path class="st4" d="M4516,1298.2h-2.4v-14.3h2.4v-2.4h11.9v4.8h-9.5v9.5h4.8v-2.4h-2.4v-4.8h7.2v11.9H4516V1298.2z"/>
		<path class="st4" d="M4535.1,1300.6h-4.8v-16.7h2.4v-2.4h9.5v2.4h2.4v16.7h-4.8v-7.2h-4.8V1300.6z M4539.8,1288.7v-2.4h-4.8v2.4
			H4539.8z"/>
		<path class="st4" d="M4547,1281.5h14.3v4.8h-4.8v9.5h4.8v4.8H4547v-4.8h4.8v-9.5h-4.8V1281.5z"/>
		<path class="st4" d="M4570.8,1291.1h-2.4v9.5h-4.8v-19.1h4.8v2.4h2.4v2.4h2.4v-4.8h4.8v19.1h-4.8v-7.2h-2.4V1291.1z"/>
	</g>
</g>
<g>
	<polygon class="st2" points="4139.1,1355.8 4132.2,1355.8 3873.5,1355.8 3873.5,1362.7 3866.6,1362.7 3866.6,1402.7 3873.5,1402.7
		3873.5,1409.6 4132.2,1409.6 4139.1,1409.6 4139.1,1402.7 4146.1,1402.7 4146.1,1362.7 4139.1,1362.7 	"/>
	<polygon class="st2" points="4139.1,1355.9 4132.2,1355.9 3873.5,1355.9 3873.5,1362.8 3866.6,1362.8 3866.6,1402.8 3873.5,1402.8
		3873.5,1409.7 4132.2,1409.7 4139.1,1409.7 4139.1,1402.8 4146.1,1402.8 4146.1,1362.8 4139.1,1362.8 	"/>
	<g>
		<path class="st4" d="M3917.2,1391h-11.9v-19.1h11.9v2.4h2.4v4.8h-2.4v4.8h2.4v4.8h-2.4V1391z M3910.1,1379.1h4.8v-2.4h-4.8V1379.1
			z M3910.1,1386.2h4.8v-2.4h-4.8V1386.2z"/>
		<path class="st4" d="M3926.8,1391h-4.8v-16.7h2.4v-2.4h9.5v2.4h2.4v16.7h-4.8v-7.2h-4.8V1391z M3931.5,1379.1v-2.4h-4.8v2.4
			H3931.5z"/>
		<path class="st4" d="M3938.7,1374.3h2.4v-2.4h11.9v4.8h-9.5v9.5h9.5v4.8h-11.9v-2.4h-2.4V1374.3z"/>
		<path class="st4" d="M3960.1,1391h-4.8v-19.1h4.8v4.8h2.4v-2.4h2.4v-2.4h4.8v4.8h-2.4v2.4h-2.4v4.8h2.4v2.4h2.4v4.8h-4.8v-2.4
			h-2.4v-2.4h-2.4V1391z"/>
		<path class="st4" d="M3988.8,1371.9h14.3v4.8h-4.8v14.3h-4.8v-14.3h-4.8V1371.9z"/>
		<path class="st4" d="M4005.5,1374.3h2.4v-2.4h9.5v2.4h2.4v14.3h-2.4v2.4h-9.5v-2.4h-2.4V1374.3z M4010.2,1386.2h4.8v-9.5h-4.8
			V1386.2z"/>
		<path class="st4" d="M4043.6,1391h-4.8v-19.1h4.8v2.4h2.4v2.4h2.4v-2.4h2.4v-2.4h4.8v19.1h-4.8v-9.5h-2.4v2.4h-2.4v-2.4h-2.4V1391
			z"/>
		<path class="st4" d="M4060.3,1388.6h-2.4v-14.3h2.4v-2.4h11.9v4.8h-9.5v2.4h4.8v4.8h-4.8v2.4h9.5v4.8h-11.9V1388.6z"/>
		<path class="st4" d="M4081.8,1381.5h-2.4v9.5h-4.8v-19.1h4.8v2.4h2.4v2.4h2.4v-4.8h4.8v19.1h-4.8v-7.2h-2.4V1381.5z"/>
		<path class="st4" d="M4091.3,1371.9h4.8v14.3h4.8v-14.3h4.8v16.7h-2.4v2.4h-9.5v-2.4h-2.4V1371.9z"/>
	</g>
</g>
<g>
	<path class="st4" d="M368.7,2059.1h-1.3v3.9h-2.6v-10.4h6.5v1.3h1.3v3.9h-1.3v1.3h1.3v3.9H370v-2.6h-1.3V2059.1z M367.4,2056.5h2.6
		v-1.3h-2.6V2056.5z"/>
	<path class="st4" d="M375.2,2061.7h-1.3v-7.8h1.3v-1.3h6.5v2.6h-5.2v1.3h2.6v2.6h-2.6v1.3h5.2v2.6h-6.5V2061.7z"/>
	<path class="st4" d="M385.6,2063H383v-9.1h1.3v-1.3h5.2v1.3h1.3v9.1h-2.6v-3.9h-2.6V2063z M388.2,2056.5v-1.3h-2.6v1.3H388.2z"/>
	<path class="st4" d="M397.2,2063H392v-10.4h5.2v1.3h1.3v1.3h1.3v5.2h-1.3v1.3h-1.3V2063z M395.9,2055.2h-1.3v5.2h1.3v-1.3h1.3v-2.6
		h-1.3V2055.2z"/>
	<path class="st4" d="M401.1,2052.6h2.6v3.9h2.6v-3.9h2.6v5.2h-1.3v1.3h-1.3v3.9h-2.6v-3.9h-1.3v-1.3h-1.3V2052.6z"/>
	<path class="st4" d="M419.3,2052.6h7.8v2.6h-2.6v7.8h-2.6v-7.8h-2.6V2052.6z"/>
	<path class="st4" d="M428.3,2053.9h1.3v-1.3h5.2v1.3h1.3v7.8h-1.3v1.3h-5.2v-1.3h-1.3V2053.9z M430.9,2060.4h2.6v-5.2h-2.6V2060.4z
		"/>
	<path class="st4" d="M447.8,2061.7h-1.3v-7.8h1.3v-1.3h6.5v2.6h-5.2v5.2h2.6v-1.3h-1.3v-2.6h3.9v6.5h-6.5V2061.7z"/>
	<path class="st4" d="M455.6,2053.9h1.3v-1.3h5.2v1.3h1.3v7.8H462v1.3h-5.2v-1.3h-1.3V2053.9z M458.1,2060.4h2.6v-5.2h-2.6V2060.4z"
		/>
	<path class="st4" d="M464.6,2052.6h2.6v6.5h-2.6V2052.6z M464.6,2060.4h2.6v2.6h-2.6V2060.4z"/>
</g>
<g>
	<path class="st4" d="M368.7,2019.1h-1.3v3.9h-2.6v-10.4h6.5v1.3h1.3v3.9h-1.3v1.3h1.3v3.9H370v-2.6h-1.3V2019.1z M367.4,2016.5h2.6
		v-1.3h-2.6V2016.5z"/>
	<path class="st4" d="M375.2,2021.7h-1.3v-7.8h1.3v-1.3h6.5v2.6h-5.2v1.3h2.6v2.6h-2.6v1.3h5.2v2.6h-6.5V2021.7z"/>
	<path class="st4" d="M385.6,2023H383v-9.1h1.3v-1.3h5.2v1.3h1.3v9.1h-2.6v-3.9h-2.6V2023z M388.2,2016.5v-1.3h-2.6v1.3H388.2z"/>
	<path class="st4" d="M397.2,2023H392v-10.4h5.2v1.3h1.3v1.3h1.3v5.2h-1.3v1.3h-1.3V2023z M395.9,2015.2h-1.3v5.2h1.3v-1.3h1.3v-2.6
		h-1.3V2015.2z"/>
	<path class="st4" d="M401.1,2012.6h2.6v3.9h2.6v-3.9h2.6v5.2h-1.3v1.3h-1.3v3.9h-2.6v-3.9h-1.3v-1.3h-1.3V2012.6z"/>
	<path class="st4" d="M419.3,2012.6h7.8v2.6h-2.6v7.8h-2.6v-7.8h-2.6V2012.6z"/>
	<path class="st4" d="M428.3,2013.9h1.3v-1.3h5.2v1.3h1.3v7.8h-1.3v1.3h-5.2v-1.3h-1.3V2013.9z M430.9,2020.4h2.6v-5.2h-2.6V2020.4z
		"/>
	<path class="st4" d="M447.8,2021.7h-1.3v-7.8h1.3v-1.3h6.5v2.6h-5.2v5.2h2.6v-1.3h-1.3v-2.6h3.9v6.5h-6.5V2021.7z"/>
	<path class="st4" d="M455.6,2013.9h1.3v-1.3h5.2v1.3h1.3v7.8H462v1.3h-5.2v-1.3h-1.3V2013.9z M458.1,2020.4h2.6v-5.2h-2.6V2020.4z"
		/>
	<path class="st4" d="M464.6,2012.6h2.6v6.5h-2.6V2012.6z M464.6,2020.4h2.6v2.6h-2.6V2020.4z"/>
</g>
<g>
	<g>
		<g>
			<path class="st0" d="M21.6,106.5H0V30.9h10.8V20.1H54v10.8h10.8v75.6H43.2V74.1H21.6V106.5z M43.2,52.5V41.7H21.6v10.8H43.2z"/>
			<path class="st0" d="M129.6,106.5h-54V20.1h54v10.8h10.8v21.6h-10.8v21.6h10.8v21.6h-10.8V106.5z M97.2,52.5h21.6V41.7H97.2V52.5
				z M97.2,84.9h21.6V74.1H97.2V84.9z"/>
			<path class="st0" d="M151.2,30.9H162V20.1h43.2v10.8H216v64.8h-10.8v10.8H162V95.7h-10.8V30.9z M172.8,84.9h21.6V41.7h-21.6V84.9
				z"/>
			<path class="st0" d="M226.8,20.1h21.6v64.8H270V20.1h21.6v75.6h-10.8v10.8h-43.2V95.7h-10.8V20.1z"/>
			<path class="st0" d="M302.4,20.1h64.8v21.6h-21.6v64.8H324V41.7h-21.6V20.1z"/>
		</g>
	</g>
	<g>
		<g>
			<path class="st2" d="M21.6,95.5H0V19.9h10.8V9.1H54v10.8h10.8v75.6H43.2V63.1H21.6V95.5z M43.2,41.5V30.7H21.6v10.8H43.2z"/>
			<path class="st2" d="M129.6,95.5h-54V9.1h54v10.8h10.8v21.6h-10.8v21.6h10.8v21.6h-10.8V95.5z M97.2,41.5h21.6V30.7H97.2V41.5z
				 M97.2,73.9h21.6V63.1H97.2V73.9z"/>
			<path class="st2" d="M151.2,19.9H162V9.1h43.2v10.8H216v64.8h-10.8v10.8H162V84.7h-10.8V19.9z M172.8,73.9h21.6V30.7h-21.6V73.9z
				"/>
			<path class="st2" d="M226.8,9.1h21.6v64.8H270V9.1h21.6v75.6h-10.8v10.8h-43.2V84.7h-10.8V9.1z"/>
			<path class="st2" d="M302.4,9.1h64.8v21.6h-21.6v64.8H324V30.7h-21.6V9.1z"/>
		</g>
	</g>
	<g>
		<g>
			<path class="st3" d="M21.6,86.7H0V11.1h10.8V0.3H54v10.8h10.8v75.6H43.2V54.3H21.6V86.7z M43.2,32.7V21.9H21.6v10.8H43.2z"/>
			<path class="st3" d="M129.6,86.7h-54V0.3h54v10.8h10.8v21.6h-10.8v21.6h10.8v21.6h-10.8V86.7z M97.2,32.7h21.6V21.9H97.2V32.7z
				 M97.2,65.1h21.6V54.3H97.2V65.1z"/>
			<path class="st3" d="M151.2,11.1H162V0.3h43.2v10.8H216v64.8h-10.8v10.8H162V75.9h-10.8V11.1z M172.8,65.1h21.6V21.9h-21.6V65.1z
				"/>
			<path class="st3" d="M226.8,0.3h21.6v64.8H270V0.3h21.6v75.6h-10.8v10.8h-43.2V75.9h-10.8V0.3z"/>
			<path class="st3" d="M302.4,0.3h64.8v21.6h-21.6v64.8H324V21.9h-21.6V0.3z"/>
		</g>
	</g>
</g>
<g>
	<g>
		<g>
			<path class="st0" d="M393.5,19.9h21.6v64.8h21.6V19.9h21.6v75.6h-10.8v10.8h-43.2V95.5h-10.8V19.9z"/>
			<path class="st0" d="M469.1,30.7h10.8V19.9h54v21.6h-43.2v10.8h32.4v10.8h10.8v32.4h-10.8v10.8h-54V84.7h43.2V73.9h-32.4V63.1
				h-10.8V30.7z"/>
		</g>
	</g>
	<g>
		<g>
			<path class="st22" d="M393.5,10.2h21.6V75h21.6V10.2h21.6v75.6h-10.8v10.8h-43.2V85.8h-10.8V10.2z"/>
			<path class="st22" d="M469.1,21h10.8V10.2h54v21.6h-43.2v10.8h32.4v10.8h10.8v32.4h-10.8v10.8h-54V75h43.2V64.2h-32.4V53.4h-10.8
				V21z"/>
		</g>
	</g>
	<g>
		<g>
			<path class="st23" d="M393.5,0.4h21.6v64.8h21.6V0.4h21.6V76h-10.8v10.8h-43.2V76h-10.8V0.4z"/>
			<path class="st23" d="M469.1,11.2h10.8V0.4h54V22h-43.2v10.8h32.4v10.8h10.8V76h-10.8v10.8h-54V65.2h43.2V54.4h-32.4V43.6h-10.8
				V11.2z"/>
		</g>
	</g>
</g>
</svg>
