<?xml version="1.0" encoding="utf-8"?>
<!-- Generator: Adobe Illustrator 22.0.1, SVG Export Plug-In . SVG Version: 6.00 Build 0)  -->
<svg version="1.1" id="Layer_1" xmlns="http://www.w3.org/2000/svg" xmlns:xlink="http://www.w3.org/1999/xlink" x="0px" y="0px"
	 width="430.8px" height="86.4px" viewBox="0 0 430.8 86.4" style="enable-background:new 0 0 430.8 86.4;" xml:space="preserve">
<style type="text/css">
	.st0{fill:#5895B7;}
	.st1{fill:#C17620;}
	.st2{fill:#F4C24A;}
	.st3{fill:#910E46;}
	.st4{fill:#EE3D53;}
</style>
<g>
	<g>
		<g>
			<path class="st0" d="M17.4,86.1H0V25.3h8.7v-8.7h34.7v8.7h8.7v60.8H34.7V60H17.4V86.1z M34.7,42.6V34H17.4v8.7H34.7z"/>
			<path class="st0" d="M104.2,86.1H60.8V16.6h43.4v8.7h8.7v17.4h-8.7V60h8.7v17.4h-8.7V86.1z M78.2,42.6h17.4V34H78.2V42.6z
				 M78.2,68.7h17.4V60H78.2V68.7z"/>
			<path class="st0" d="M121.6,25.3h8.7v-8.7H165v8.7h8.7v52.1H165v8.7h-34.7v-8.7h-8.7V25.3z M138.9,68.7h17.4V34h-17.4V68.7z"/>
			<path class="st0" d="M182.4,16.6h17.4v52.1h17.4V16.6h17.4v60.8h-8.7v8.7H191v-8.7h-8.7V16.6L182.4,16.6z"/>
			<path class="st0" d="M243.1,16.6h52.1V34h-17.4v52.1h-17.4V34h-17.4V16.6z"/>
		</g>
	</g>
	<g>
		<g>
			<path class="st1" d="M17.4,77.2H0V16.4h8.7V7.7h34.7v8.7h8.7v60.8H34.7V51.2H17.4V77.2z M34.7,33.8v-8.7H17.4v8.7H34.7z"/>
			<path class="st1" d="M104.2,77.2H60.8V7.7h43.4v8.7h8.7v17.4h-8.7v17.4h8.7v17.4h-8.7V77.2z M78.2,33.8h17.4v-8.7H78.2V33.8z
				 M78.2,59.8h17.4v-8.7H78.2V59.8z"/>
			<path class="st1" d="M121.6,16.4h8.7V7.7H165v8.7h8.7v52.1H165v8.7h-34.7v-8.7h-8.7V16.4z M138.9,59.8h17.4V25.1h-17.4V59.8z"/>
			<path class="st1" d="M182.4,7.7h17.4v52.1h17.4V7.7h17.4v60.8h-8.7v8.7H191v-8.7h-8.7V7.7L182.4,7.7z"/>
			<path class="st1" d="M243.1,7.7h52.1v17.4h-17.4v52.1h-17.4V25.1h-17.4V7.7z"/>
		</g>
	</g>
	<g>
		<g>
			<path class="st2" d="M17.4,70.1H0V9.4h8.7V0.7h34.7v8.7h8.7v60.8H34.7V44.1H17.4V70.1z M34.7,26.7V18H17.4v8.7H34.7z"/>
			<path class="st2" d="M104.2,70.1H60.8V0.7h43.4v8.7h8.7v17.4h-8.7v17.4h8.7v17.4h-8.7V70.1z M78.2,26.7h17.4V18H78.2V26.7z
				 M78.2,52.8h17.4v-8.7H78.2V52.8z"/>
			<path class="st2" d="M121.6,9.4h8.7V0.7H165v8.7h8.7v52.1H165v8.7h-34.7v-8.7h-8.7V9.4z M138.9,52.8h17.4V18h-17.4V52.8z"/>
			<path class="st2" d="M182.4,0.7h17.4v52.1h17.4V0.7h17.4v60.8h-8.7v8.7H191v-8.7h-8.7V0.7L182.4,0.7z"/>
			<path class="st2" d="M243.1,0.7h52.1V18h-17.4v52.1h-17.4V18h-17.4V0.7z"/>
		</g>
	</g>
</g>
<g>
	<g>
		<g>
			<path class="st0" d="M316.4,16.4h17.4v52.1h17.4V16.4h17.4v60.8h-8.7v8.7h-34.7v-8.7h-8.7L316.4,16.4L316.4,16.4z"/>
			<path class="st0" d="M377.2,25.1h8.7v-8.7h43.4v17.4h-34.7v8.7h26.1v8.7h8.7v26.1h-8.7v8.7h-43.4V68.5h34.7v-8.7h-26.1v-8.7h-8.7
				L377.2,25.1L377.2,25.1z"/>
		</g>
	</g>
	<g>
		<g>
			<path class="st3" d="M316.4,8.6h17.4v52.1h17.4V8.6h17.4v60.8h-8.7v8.7h-34.7v-8.7h-8.7L316.4,8.6L316.4,8.6z"/>
			<path class="st3" d="M377.2,17.3h8.7V8.6h43.4V26h-34.7v8.7h26.1v8.7h8.7v26.1h-8.7v8.7h-43.4V60.7h34.7V52h-26.1v-8.7h-8.7
				L377.2,17.3L377.2,17.3z"/>
		</g>
	</g>
	<g>
		<g>
			<path class="st4" d="M316.4,0.7h17.4v52.1h17.4V0.7h17.4v60.8h-8.7v8.7h-34.7v-8.7h-8.7L316.4,0.7L316.4,0.7z"/>
			<path class="st4" d="M377.2,9.4h8.7V0.7h43.4v17.4h-34.7v8.7h26.1v8.7h8.7v26.1h-8.7v8.7h-43.4V52.8h34.7v-8.7h-26.1v-8.7h-8.7
				L377.2,9.4L377.2,9.4z"/>
		</g>
	</g>
</g>
</svg>
