<?xml version="1.0" encoding="utf-8"?>
<!-- Generator: Adobe Illustrator 22.0.1, SVG Export Plug-In . SVG Version: 6.00 Build 0)  -->
<svg version="1.1" id="Layer_1" xmlns="http://www.w3.org/2000/svg" xmlns:xlink="http://www.w3.org/1999/xlink" x="0px" y="0px"
	 width="279.5px" height="60.5px" viewBox="0 0 279.5 60.5" style="enable-background:new 0 0 279.5 60.5;" xml:space="preserve">
<style type="text/css">
	.st0{fill:#C17620;}
	.st1{fill:#F4C24A;}
	.st2{fill:#FFFFFF;}
</style>
<g>
	<polygon class="st0" points="272.5,6.9 265.6,6.9 6.9,6.9 6.9,13.8 0,13.8 0,53.8 6.9,53.8 6.9,60.7 265.6,60.7 272.5,60.7 
		272.5,53.8 279.5,53.8 279.5,13.8 272.5,13.8 	"/>
	<polygon class="st1" points="272.5,0 265.6,0 6.9,0 6.9,6.9 0,6.9 0,46.9 6.9,46.9 6.9,53.8 265.6,53.8 272.5,53.8 272.5,46.9 
		279.5,46.9 279.5,6.9 272.5,6.9 	"/>
	<g>
		<path class="st2" d="M50.6,35.1H38.7V16h11.9v2.4H53v4.8h-2.4V28H53v4.8h-2.4V35.1z M43.5,23.2h4.8v-2.4h-4.8V23.2z M43.5,30.3
			h4.8v-2.4h-4.8V30.3z"/>
		<path class="st2" d="M60.2,35.1h-4.8V18.4h2.4V16h9.5v2.4h2.4v16.7h-4.8v-7.2h-4.8L60.2,35.1L60.2,35.1z M64.9,23.2v-2.4h-4.8v2.4
			H64.9z"/>
		<path class="st2" d="M72.1,18.4h2.4V16h11.9v4.8h-9.5v9.5h9.5v4.8H74.5v-2.4h-2.4V18.4z"/>
		<path class="st2" d="M93.6,35.1h-4.8V16h4.8v4.8H96v-2.4h2.4V16h4.8v4.8h-2.4v2.4h-2.4V28h2.4v2.4h2.4v4.8h-4.8v-2.4H96v-2.4h-2.4
			V35.1z"/>
		<path class="st2" d="M122.2,16h14.3v4.8h-4.8v14.3h-4.8V20.8h-4.8V16H122.2z"/>
		<path class="st2" d="M138.9,18.4h2.4V16h9.5v2.4h2.4v14.3h-2.4v2.4h-9.5v-2.4h-2.4V18.4z M143.6,30.3h4.8v-9.5h-4.8V30.3z"/>
		<path class="st2" d="M177,35.1h-4.8V16h4.8v2.4h2.4v2.4h2.4v-2.4h2.4V16h4.8v19.1h-4.8v-9.5h-2.4V28h-2.4v-2.4H177V35.1z"/>
		<path class="st2" d="M193.7,32.7h-2.4V18.4h2.4V16h11.9v4.8h-9.5v2.4h4.8V28h-4.8v2.4h9.5v4.8h-11.9V32.7z"/>
		<path class="st2" d="M215.2,25.6h-2.4v9.5H208V16h4.8v2.4h2.4v2.4h2.4V16h4.8v19.1h-4.8v-7.2h-2.4V25.6z"/>
		<path class="st2" d="M224.7,16h4.8v14.3h4.8V16h4.8v16.7h-2.4v2.4h-9.5v-2.4h-2.4V16H224.7z"/>
	</g>
</g>
</svg>
