<?xml version="1.0" encoding="utf-8"?>
<!-- Generator: Adobe Illustrator 22.0.1, SVG Export Plug-In . SVG Version: 6.00 Build 0)  -->
<svg version="1.1" id="Layer_1" xmlns="http://www.w3.org/2000/svg" xmlns:xlink="http://www.w3.org/1999/xlink" x="0px" y="0px"
	 width="279.5px" height="60.5px" viewBox="0 0 279.5 60.5" style="enable-background:new 0 0 279.5 60.5;" xml:space="preserve">
<style type="text/css">
	.st0{fill:#C17620;}
	.st1{fill:#FFFFFF;}
</style>
<g>
	<polygon class="st0" points="272.5,6.9 265.6,6.9 6.9,6.9 6.9,13.8 0,13.8 0,53.8 6.9,53.8 6.9,60.7 265.6,60.7 272.5,60.7 
		272.5,53.8 279.5,53.8 279.5,13.8 272.5,13.8 	"/>
	<polygon class="st0" points="272.5,7 265.6,7 6.9,7 6.9,13.9 0,13.9 0,53.9 6.9,53.9 6.9,60.8 265.6,60.8 272.5,60.8 272.5,53.9 
		279.5,53.9 279.5,13.9 272.5,13.9 	"/>
	<g>
		<path class="st1" d="M50.6,42.1H38.7V23h11.9v2.4H53v4.8h-2.4V35H53v4.8h-2.4V42.1z M43.5,30.2h4.8v-2.4h-4.8V30.2z M43.5,37.3
			h4.8v-2.4h-4.8V37.3z"/>
		<path class="st1" d="M60.2,42.1h-4.8V25.4h2.4V23h9.5v2.4h2.4v16.7h-4.8v-7.2h-4.8L60.2,42.1L60.2,42.1z M64.9,30.2v-2.4h-4.8v2.4
			H64.9z"/>
		<path class="st1" d="M72.1,25.4h2.4V23h11.9v4.8h-9.5v9.5h9.5v4.8H74.5v-2.4h-2.4V25.4z"/>
		<path class="st1" d="M93.6,42.1h-4.8V23h4.8v4.8H96v-2.4h2.4V23h4.8v4.8h-2.4v2.4h-2.4V35h2.4v2.4h2.4v4.8h-4.8v-2.4H96v-2.4h-2.4
			V42.1z"/>
		<path class="st1" d="M122.2,23h14.3v4.8h-4.8v14.3h-4.8V27.8h-4.8V23H122.2z"/>
		<path class="st1" d="M138.9,25.4h2.4V23h9.5v2.4h2.4v14.3h-2.4v2.4h-9.5v-2.4h-2.4V25.4z M143.6,37.3h4.8v-9.5h-4.8V37.3z"/>
		<path class="st1" d="M177,42.1h-4.8V23h4.8v2.4h2.4v2.4h2.4v-2.4h2.4V23h4.8v19.1h-4.8v-9.5h-2.4V35h-2.4v-2.4H177V42.1z"/>
		<path class="st1" d="M193.7,39.7h-2.4V25.4h2.4V23h11.9v4.8h-9.5v2.4h4.8V35h-4.8v2.4h9.5v4.8h-11.9V39.7z"/>
		<path class="st1" d="M215.2,32.6h-2.4v9.5H208V23h4.8v2.4h2.4v2.4h2.4V23h4.8v19.1h-4.8v-7.2h-2.4V32.6z"/>
		<path class="st1" d="M224.7,23h4.8v14.3h4.8V23h4.8v16.7h-2.4v2.4h-9.5v-2.4h-2.4V23H224.7z"/>
	</g>
</g>
</svg>
