<?xml version="1.0" encoding="utf-8"?>
<!-- Generator: Adobe Illustrator 22.0.1, SVG Export Plug-In . SVG Version: 6.00 Build 0)  -->
<svg version="1.1" id="Layer_1" xmlns="http://www.w3.org/2000/svg" xmlns:xlink="http://www.w3.org/1999/xlink" x="0px" y="0px"
	 width="279.5px" height="60.5px" viewBox="0 0 279.5 60.5" style="enable-background:new 0 0 279.5 60.5;" xml:space="preserve">
<style type="text/css">
	.st0{fill:#5895B7;}
	.st1{opacity:0.8;}
	.st2{fill:#C17620;}
	.st3{fill:#F4C24A;}
	.st4{fill:#FFFFFF;}
	.st5{fill:#2A6FBA;}
	.st6{fill:#4ABAEF;}
	.st7{fill:#95C9C8;}
	.st8{fill:#DDEFEE;}
	.st9{fill:#1B8E6F;}
	.st10{fill:#3CEA8A;}
	.st11{opacity:0.4;fill:#666666;}
	.st12{fill:#33BC6E;}
	.st13{fill:none;}
	.st14{fill:#7149A4;}
	.st15{fill:#BD86E0;}
	.st16{opacity:0.4;fill:#666666;stroke:#666666;stroke-width:4;stroke-linejoin:bevel;stroke-miterlimit:10;}
	.st17{fill:#F2F2F2;}
	.st18{fill:#E6E6E6;}
	.st19{fill:none;stroke:#000000;stroke-width:4;stroke-linejoin:bevel;stroke-miterlimit:10;}
	.st20{fill:#C6E0DE;}
	.st21{fill:#A7C6C3;}
	.st22{fill:#910E46;}
	.st23{fill:#EE3D53;}
	.st24{fill:none;stroke:#000000;stroke-width:2;stroke-miterlimit:10;}
	.st25{fill:#A17559;}
	.st26{fill:#238D6F;}
	.st27{fill:#704CA2;}
	.st28{fill:#47E88D;}
	.st29{fill:#BC88DE;}
	.st30{fill:#CCCCCC;}
	.st31{fill:#5B2616;}
	.st32{opacity:0.38;fill:#2D3D3E;}
	.st33{opacity:0.38;}
	.st34{fill:#2D3D3E;}
	.st35{fill:#3F180F;}
	.st36{fill:#1A1A1A;}
	.st37{fill:#38140C;}
</style>
<g>
	<rect x="-3173.5" y="1238.5" class="st0" width="484" height="82"/>
	<rect x="-2721.5" y="1312.5" class="st0" width="107" height="30"/>
	<g class="st1">
		<g>
			<polygon class="st0" points="-3157.5,1258.5 -3157.5,1340.5 -3253.5,1340.5 -3253.5,1329.5 -3241.5,1329.5 -3241.5,1317.5 
				-3229.5,1317.5 -3229.5,1305.5 -3217.5,1305.5 -3217.5,1293.5 -3229.5,1293.5 -3229.5,1281.5 -3241.5,1281.5 -3241.5,1269.5 
				-3253.5,1269.5 -3253.5,1258.5 			"/>
		</g>
		<polygon class="st0" points="-3171.5,1316.5 -3157.5,1339.5 -3157.5,1316.5 		"/>
	</g>
	<g>
		<g>
			<polygon class="st2" points="-2710.5,1250.5 -2710.5,1332.5 -2614.5,1332.5 -2614.5,1321.5 -2626.5,1321.5 -2626.5,1309.5 
				-2638.5,1309.5 -2638.5,1297.5 -2650.5,1297.5 -2650.5,1285.5 -2638.5,1285.5 -2638.5,1273.5 -2626.5,1273.5 -2626.5,1261.5 
				-2614.5,1261.5 -2614.5,1250.5 			"/>
			<polygon class="st3" points="-2710.5,1239.5 -2710.5,1321.5 -2614.5,1321.5 -2614.5,1310.5 -2626.5,1310.5 -2626.5,1298.5 
				-2638.5,1298.5 -2638.5,1286.5 -2650.5,1286.5 -2650.5,1274.5 -2638.5,1274.5 -2638.5,1262.5 -2626.5,1262.5 -2626.5,1250.5 
				-2614.5,1250.5 -2614.5,1239.5 			"/>
		</g>
		<polygon class="st2" points="-2696.5,1308.5 -2710.5,1331.5 -2710.4,1308.5 		"/>
		<g>
			<g>
				<polygon class="st2" points="-3166.5,1250.5 -3166.5,1332.5 -3262.5,1332.5 -3262.5,1321.5 -3250.5,1321.5 -3250.5,1309.5 
					-3238.5,1309.5 -3238.5,1297.5 -3226.5,1297.5 -3226.5,1285.5 -3238.5,1285.5 -3238.5,1273.5 -3250.5,1273.5 -3250.5,1261.5 
					-3262.5,1261.5 -3262.5,1250.5 				"/>
				<polygon class="st3" points="-3166.5,1239.5 -3166.5,1321.5 -3262.5,1321.5 -3262.5,1310.5 -3250.5,1310.5 -3250.5,1298.5 
					-3238.5,1298.5 -3238.5,1286.5 -3226.5,1286.5 -3226.5,1274.5 -3238.5,1274.5 -3238.5,1262.5 -3250.5,1262.5 -3250.5,1250.5 
					-3262.5,1250.5 -3262.5,1239.5 				"/>
			</g>
			<polygon class="st2" points="-3180.5,1308.5 -3166.5,1331.5 -3166.5,1308.5 			"/>
		</g>
		<g>
			<rect x="-3180.5" y="1226.5" class="st2" width="484" height="82"/>
			<rect x="-3180.5" y="1214.5" class="st3" width="484" height="82"/>
		</g>
	</g>
	<g>
		<path class="st4" d="M-3109.9,1274.3h-8.6v-34.6h8.6v13h8.6v-13h8.6v34.6h-8.6v-13h-8.6V1274.3z"/>
		<path class="st4" d="M-3088.3,1244.1h4.3v-4.3h17.3v4.3h4.3v25.9h-4.3v4.3h-17.3v-4.3h-4.3V1244.1z M-3079.6,1265.7h8.6v-17.3
			h-8.6V1265.7z"/>
		<path class="st4" d="M-3049.4,1274.3h-8.6v-34.6h8.6v17.3h4.3v-4.3h4.3v4.3h4.3v-17.3h8.6v34.6h-8.6v-4.3h-4.3v-4.3h-4.3v4.3h-4.3
			V1274.3z"/>
		<path class="st4" d="M-2993.2,1239.7h25.9v8.6h-8.6v25.9h-8.6v-25.9h-8.6V1239.7z"/>
		<path class="st4" d="M-2963,1244.1h4.3v-4.3h17.3v4.3h4.3v25.9h-4.3v4.3h-17.3v-4.3h-4.3V1244.1z M-2954.4,1265.7h8.6v-17.3h-8.6
			V1265.7z"/>
		<path class="st4" d="M-2893.9,1274.3h-8.6v-34.6h21.6v4.3h4.3v13h-4.3v4.3h-13V1274.3z M-2893.9,1252.7h8.6v-4.3h-8.6V1252.7z"/>
		<path class="st4" d="M-2867.9,1270h-4.3v-30.2h8.6v25.9h17.3v8.6h-21.6V1270z"/>
		<path class="st4" d="M-2833.4,1274.3h-8.6v-30.2h4.3v-4.3h17.3v4.3h4.3v30.2h-8.6v-13h-8.6V1274.3z M-2824.7,1252.7v-4.3h-8.6v4.3
			H-2824.7z"/>
		<path class="st4" d="M-2811.8,1239.7h8.6v13h8.6v-13h8.6v17.3h-4.3v4.3h-4.3v13h-8.6v-13h-4.3v-4.3h-4.3V1239.7z"/>
	</g>
</g>
<polygon class="st5" points="-3004.5,1507.5 -3016.5,1507.5 -3089.5,1507.5 -3089.5,1519.5 -3101.5,1519.5 -3101.5,1604.5 
	-3089.5,1604.5 -3089.5,1616.5 -3016.5,1616.5 -3004.5,1616.5 -3004.5,1604.5 -2992.5,1604.5 -2992.5,1519.5 -3004.5,1519.5 "/>
<polygon class="st5" points="-3004.5,1507.5 -3016.5,1507.5 -3089.5,1507.5 -3089.5,1519.5 -3101.5,1519.5 -3101.5,1604.5 
	-3089.5,1604.5 -3089.5,1616.5 -3016.5,1616.5 -3004.5,1616.5 -3004.5,1604.5 -2992.5,1604.5 -2992.5,1519.5 -3004.5,1519.5 "/>
<g>
	<path class="st4" d="M-3064.9,1541.7h28.4v5.7h5.7v17.1h-5.7v5.7h-17.1v-11.4h11.4v-5.7h-22.8V1541.7z M-3053.5,1575.9h11.4v11.4
		h-11.4V1575.9z"/>
</g>
<polygon class="st5" points="-2853.5,1507.5 -2865.5,1507.5 -2938.5,1507.5 -2938.5,1519.5 -2950.5,1519.5 -2950.5,1604.5 
	-2938.5,1604.5 -2938.5,1616.5 -2865.5,1616.5 -2853.5,1616.5 -2853.5,1604.5 -2841.5,1604.5 -2841.5,1519.5 -2853.5,1519.5 "/>
<polygon class="st6" points="-2853.5,1497.5 -2865.5,1497.5 -2938.5,1497.5 -2938.5,1509.5 -2950.5,1509.5 -2950.5,1594.5 
	-2938.5,1594.5 -2938.5,1606.5 -2865.5,1606.5 -2853.5,1606.5 -2853.5,1594.5 -2841.5,1594.5 -2841.5,1509.5 -2853.5,1509.5 "/>
<g>
	<path class="st4" d="M-2913.9,1531.7h28.4v5.7h5.7v17.1h-5.7v5.7h-17.1v-11.4h11.4v-5.7h-22.8V1531.7z M-2902.5,1565.9h11.4v11.4
		h-11.4V1565.9z"/>
</g>
<g>
	<polygon class="st0" points="-1818.5,1352 -1830.1,1352 -1830.1,1340.4 -1841.6,1340.4 -1841.6,1327.6 -2340.3,1327.6 
		-2340.3,1340.4 -2351.9,1340.4 -2351.9,1352 -2363.5,1352 -2363.5,2036.8 -2351.9,2036.8 -2351.9,2048.4 -2340.3,2048.4 
		-2340.3,2061.2 -1841.6,2061.2 -1841.6,2048.4 -1830.1,2048.4 -1830.1,2036.8 -1818.5,2036.8 	"/>
	<polygon class="st7" points="-1818.5,1340 -1830.1,1340 -1830.1,1328.4 -1841.6,1328.4 -1841.6,1315.6 -2340.3,1315.6 
		-2340.3,1328.4 -2351.9,1328.4 -2351.9,1340 -2363.5,1340 -2363.5,2024.7 -2351.9,2024.7 -2351.9,2036.4 -2340.3,2036.4 
		-2340.3,2049.2 -1841.6,2049.2 -1841.6,2036.4 -1830.1,2036.4 -1830.1,2024.7 -1818.5,2024.7 	"/>
	<polygon class="st8" points="-1818.5,1328 -1830.1,1328 -1830.1,1316.3 -1841.6,1316.3 -1841.6,1303.5 -2340.3,1303.5 
		-2340.3,1316.3 -2351.9,1316.3 -2351.9,1328 -2363.5,1328 -2363.5,2012.7 -2351.9,2012.7 -2351.9,2024.4 -2340.3,2024.4 
		-2340.3,2037.2 -1841.6,2037.2 -1841.6,2024.4 -1830.1,2024.4 -1830.1,2012.7 -1818.5,2012.7 	"/>
</g>
<g>
	<polygon class="st0" points="-3304.5,-640.5 -3308.5,-640.5 -3308.5,-644.6 -3312.6,-644.6 -3312.6,-649.2 -3488.8,-649.2 
		-3488.8,-644.6 -3492.9,-644.6 -3492.9,-640.5 -3497,-640.5 -3497,-398.6 -3492.9,-398.6 -3492.9,-394.5 -3488.8,-394.5 
		-3488.8,-389.9 -3312.6,-389.9 -3312.6,-394.5 -3308.5,-394.5 -3308.5,-398.6 -3304.5,-398.6 	"/>
	<polygon class="st7" points="-3304.5,-644.8 -3308.5,-644.8 -3308.5,-648.9 -3312.6,-648.9 -3312.6,-653.4 -3488.8,-653.4 
		-3488.8,-648.9 -3492.9,-648.9 -3492.9,-644.8 -3497,-644.8 -3497,-402.8 -3492.9,-402.8 -3492.9,-398.7 -3488.8,-398.7 
		-3488.8,-394.2 -3312.6,-394.2 -3312.6,-398.7 -3308.5,-398.7 -3308.5,-402.8 -3304.5,-402.8 	"/>
	<polygon class="st8" points="-3304.5,-649 -3308.5,-649 -3308.5,-653.1 -3312.6,-653.1 -3312.6,-657.7 -3488.8,-657.7 
		-3488.8,-653.1 -3492.9,-653.1 -3492.9,-649 -3497,-649 -3497,-407.1 -3492.9,-407.1 -3492.9,-403 -3488.8,-403 -3488.8,-398.4 
		-3312.6,-398.4 -3312.6,-403 -3308.5,-403 -3308.5,-407.1 -3304.5,-407.1 	"/>
</g>
<g>
	<polygon class="st9" points="-2867.5,987.5 -2877.5,987.5 -3252.4,987.5 -3252.4,997.6 -3262.5,997.6 -3262.5,1055.5 
		-3252.4,1055.5 -3252.4,1065.5 -2877.5,1065.5 -2867.5,1065.5 -2867.5,1055.5 -2857.4,1055.5 -2857.4,997.6 -2867.5,997.6 	"/>
	<polygon class="st10" points="-2867.5,977.5 -2877.5,977.5 -3252.4,977.5 -3252.4,987.6 -3262.5,987.6 -3262.5,1045.5 
		-3252.4,1045.5 -3252.4,1055.5 -2877.5,1055.5 -2867.5,1055.5 -2867.5,1045.5 -2857.4,1045.5 -2857.4,987.6 -2867.5,987.6 	"/>
	<g>
		<path class="st4" d="M-3142.4,1028.4h-6.9v-27.6h17.3v3.5h3.5v10.4h-3.5v3.5h-10.4V1028.4z M-3142.4,1011.1h6.9v-3.5h-6.9V1011.1z
			"/>
		<path class="st4" d="M-3121.7,1025h-3.5v-24.2h6.9v20.7h13.8v6.9h-17.3V1025z"/>
		<path class="st4" d="M-3094,1028.4h-6.9v-24.2h3.5v-3.5h13.8v3.5h3.5v24.2h-6.9V1018h-6.9V1028.4z M-3087.1,1011.1v-3.5h-6.9v3.5
			H-3087.1z"/>
		<path class="st4" d="M-3076.8,1000.8h6.9v10.4h6.9v-10.4h6.9v13.8h-3.5v3.5h-3.5v10.4h-6.9V1018h-3.5v-3.5h-3.5V1000.8z"/>
		<path class="st4" d="M-3049.1,1025h-3.5v-20.7h3.5v-3.5h17.3v6.9h-13.8v3.5h6.9v6.9h-6.9v3.5h13.8v6.9h-17.3V1025z"/>
		<path class="st4" d="M-3018,1018h-3.5v10.4h-6.9v-27.6h17.3v3.5h3.5v10.4h-3.5v3.5h3.5v10.4h-6.9v-6.9h-3.5V1018z M-3021.5,1011.1
			h6.9v-3.5h-6.9V1011.1z"/>
		<path class="st4" d="M-2980,1000.8h6.9v27.6h-6.9V1000.8z"/>
	</g>
</g>
<g>
	<polygon class="st11" points="-3228.3,866.9 -3230.3,861.2 -3234.3,849.2 -3252.1,855.2 -3250.2,860.9 -3255.9,862.9 
		-3251.9,874.9 -3246.1,873 -3244.1,878.7 -3232.1,874.7 -3234.1,868.9 	"/>
	<polygon class="st11" points="-3189.5,854.9 -3191.5,849.1 -3195.5,837.1 -3213.3,843.1 -3211.4,848.9 -3217.1,850.8 
		-3213.1,862.9 -3207.3,860.9 -3205.3,866.7 -3193.3,862.6 -3195.3,856.8 	"/>
	<rect x="-3249.1" y="807.9" transform="matrix(0.9472 -0.3207 0.3207 0.9472 -436.7628 -997.2219)" width="7.1" height="38.6"/>
	<polygon points="-3229.9,862.1 -3231.9,856.4 -3236,844.3 -3253.7,850.4 -3251.8,856.1 -3257.6,858.1 -3253.5,870.1 -3247.7,868.2 
		-3245.8,873.9 -3233.8,869.9 -3235.7,864.1 	"/>
	<rect x="-3210.6" y="794.9" transform="matrix(0.9472 -0.3207 0.3207 0.9472 -430.5528 -985.5722)" width="7.1" height="38.6"/>
	<polygon points="-3191.5,849.1 -3193.4,843.3 -3197.5,831.3 -3215.3,837.3 -3213.3,843.1 -3219.1,845.1 -3215,857.1 -3209.3,855.1 
		-3207.3,860.9 -3195.3,856.8 -3197.2,851.1 	"/>
	<rect x="-3259.1" y="785.6" transform="matrix(0.9472 -0.3207 0.3207 0.9472 -425.6487 -995.6664)" width="47.7" height="17.3"/>
</g>
<g>
	<polygon class="st11" points="-3162.1,900.5 -3161.2,896.4 -3159.3,887.7 -3172.1,884.9 -3173,889.1 -3177.1,888.2 -3179,896.8 
		-3174.9,897.7 -3175.8,901.9 -3167.2,903.8 -3166.2,899.6 	"/>
	<polygon class="st11" points="-3134.6,907.3 -3133.7,903.2 -3131.8,894.5 -3144.6,891.7 -3145.5,895.8 -3149.6,894.9 
		-3151.5,903.6 -3147.4,904.5 -3148.3,908.6 -3139.6,910.5 -3138.7,906.4 	"/>
	<rect x="-3160.5" y="857.1" transform="matrix(0.9766 0.2149 -0.2149 0.9766 113.3054 698.9661)" width="5" height="26.9"/>
	<polygon points="-3161.3,897.1 -3160.4,892.9 -3158.5,884.3 -3171.3,881.5 -3172.2,885.6 -3176.4,884.7 -3178.3,893.3 
		-3174.1,894.3 -3175,898.4 -3166.4,900.3 -3165.5,896.2 	"/>
	<rect x="-3132.9" y="863.2" transform="matrix(0.9766 0.2149 -0.2149 0.9766 115.2595 693.1641)" width="5" height="26.9"/>
	<polygon points="-3133.7,903.2 -3132.8,899 -3130.9,890.4 -3143.7,887.5 -3144.6,891.7 -3148.7,890.8 -3150.6,899.4 -3146.5,900.3 
		-3147.4,904.5 -3138.7,906.4 -3137.8,902.2 	"/>
	<rect x="-3156.7" y="848.6" transform="matrix(0.9766 0.2149 -0.2149 0.9766 110.2935 694.7216)" width="33.3" height="12"/>
</g>
<g>
	<polygon class="st11" points="-3086.1,838.7 -3086.8,835.7 -3088.2,829.3 -3097.6,831.4 -3096.9,834.5 -3099.9,835.1 
		-3098.5,841.5 -3095.5,840.8 -3094.8,843.9 -3088.4,842.5 -3089.1,839.4 	"/>
	<polygon class="st11" points="-3065.7,834.7 -3066.3,831.7 -3067.7,825.3 -3077.1,827.4 -3076.5,830.5 -3079.5,831.1 
		-3078.1,837.5 -3075,836.8 -3074.4,839.9 -3068,838.4 -3068.7,835.4 	"/>
	<rect x="-3094.5" y="807.7" transform="matrix(0.9761 -0.2173 0.2173 0.9761 -251.5326 -652.4614)" width="3.6" height="19.8"/>
	<polygon points="-3086.6,836.2 -3087.3,833.1 -3088.7,826.8 -3098.1,828.9 -3097.4,831.9 -3100.5,832.6 -3099.1,839 -3096,838.3 
		-3095.4,841.3 -3089,839.9 -3089.7,836.9 	"/>
	<rect x="-3074.2" y="803.1" transform="matrix(0.9761 -0.2173 0.2173 0.9761 -250.0651 -648.1566)" width="3.6" height="19.8"/>
	<polygon points="-3066.3,831.7 -3067,828.6 -3068.4,822.3 -3077.8,824.4 -3077.1,827.4 -3080.2,828.1 -3078.8,834.4 -3075.7,833.8 
		-3075,836.8 -3068.7,835.4 -3069.4,832.3 	"/>
	<rect x="-3097.8" y="796.9" transform="matrix(0.9761 -0.2173 0.2173 0.9761 -247.8393 -651.3179)" width="24.4" height="8.8"/>
</g>
<g>
	<polygon class="st11" points="-3065.5,884.5 -3062.9,880.4 -3057.4,871.8 -3070.1,863.7 -3072.7,867.9 -3076.8,865.2 
		-3082.3,873.8 -3078.2,876.4 -3080.8,880.5 -3072.2,886 -3069.6,881.9 	"/>
	<polygon class="st11" points="-3038.5,902.6 -3035.9,898.5 -3030.4,889.9 -3043.1,881.9 -3045.7,886 -3049.8,883.4 -3055.3,891.9 
		-3051.2,894.5 -3053.8,898.7 -3045.2,904.1 -3042.6,900 	"/>
	<rect x="-3052.2" y="838.4" transform="matrix(0.844 0.5363 -0.5363 0.844 -17.718 1768.5701)" width="5.7" height="30.9"/>
	<polygon points="-3063.3,881.1 -3060.7,876.9 -3055.2,868.4 -3067.9,860.3 -3070.5,864.4 -3074.6,861.8 -3080.1,870.4 -3076,873 
		-3078.6,877.1 -3070,882.6 -3067.4,878.4 	"/>
	<rect x="-3024.8" y="855.8" transform="matrix(0.844 0.5363 -0.5363 0.844 -4.0936 1756.5792)" width="5.7" height="30.9"/>
	<polygon points="-3035.9,898.5 -3033.2,894.4 -3027.8,885.8 -3040.5,877.7 -3043.1,881.9 -3047.2,879.2 -3052.7,887.8 
		-3048.5,890.4 -3051.2,894.5 -3042.6,900 -3040,895.9 	"/>
	<rect x="-3042.7" y="836.8" transform="matrix(0.844 0.5363 -0.5363 0.844 -19.1495 1753.2078)" width="38.2" height="13.8"/>
</g>
<g>
	<polygon class="st9" points="-3344.2,444.1 -3350.8,444.1 -3597.2,444.1 -3597.2,450.7 -3603.8,450.7 -3603.8,488.7 -3597.2,488.7 
		-3597.2,495.3 -3350.8,495.3 -3344.2,495.3 -3344.2,488.7 -3337.6,488.7 -3337.6,450.7 -3344.2,450.7 	"/>
	<polygon class="st12" points="-3344.2,444.1 -3350.8,444.1 -3597.2,444.1 -3597.2,450.7 -3603.8,450.7 -3603.8,488.7 
		-3597.2,488.7 -3597.2,495.3 -3350.8,495.3 -3344.2,495.3 -3344.2,488.7 -3337.6,488.7 -3337.6,450.7 -3344.2,450.7 	"/>
	<g>
		<path class="st4" d="M-3537.4,461.6h2.3v-2.3h11.4v4.5h-9.1v9.1h9.1v4.5h-11.4v-2.3h-2.3V461.6z"/>
		<path class="st4" d="M-3517,477.5h-4.5v-15.9h2.3v-2.3h9.1v2.3h2.3v15.9h-4.5v-6.8h-4.5V477.5z M-3512.4,466.2v-2.3h-4.5v2.3
			H-3512.4z"/>
		<path class="st4" d="M-3503.3,475.2h-2.3v-15.9h4.5V473h9.1v4.5h-11.4V475.2z"/>
		<path class="st4" d="M-3489.7,459.3h4.5v18.2h-4.5V459.3z"/>
		<path class="st4" d="M-3482.9,459.3h11.4v2.3h2.3v13.6h-2.3v2.3h-11.4V459.3z M-3478.4,466.2h4.5v-2.3h-4.5V466.2z M-3478.4,473
			h4.5v-2.3h-4.5V473z"/>
		<path class="st4" d="M-3460.2,470.7h-2.3v6.8h-4.5v-15.9h2.3v-2.3h9.1v2.3h2.3v6.8h-2.3v2.3h2.3v6.8h-4.5V473h-2.3V470.7z
			 M-3462.5,466.2h4.5v-2.3h-4.5V466.2z"/>
		<path class="st4" d="M-3446.6,477.5h-4.5v-15.9h2.3v-2.3h9.1v2.3h2.3v15.9h-4.5v-6.8h-4.5V477.5z M-3442,466.2v-2.3h-4.5v2.3
			H-3442z"/>
		<path class="st4" d="M-3435.2,459.3h13.6v4.5h-4.5v13.6h-4.5v-13.6h-4.5V459.3z"/>
		<path class="st4" d="M-3417,475.2h-2.3v-13.6h2.3v-2.3h11.4v4.5h-9.1v2.3h4.5v4.5h-4.5v2.3h9.1v4.5h-11.4V475.2z"/>
	</g>
</g>
<g>
	<polygon class="st9" points="-3024.2,512.1 -3030.8,512.1 -3277.2,512.1 -3277.2,518.7 -3283.8,518.7 -3283.8,556.7 -3277.2,556.7 
		-3277.2,563.3 -3030.8,563.3 -3024.2,563.3 -3024.2,556.7 -3017.6,556.7 -3017.6,518.7 -3024.2,518.7 	"/>
	<polygon class="st10" points="-3024.2,505.5 -3030.8,505.5 -3277.2,505.5 -3277.2,512.1 -3283.8,512.1 -3283.8,550.1 
		-3277.2,550.1 -3277.2,556.8 -3030.8,556.8 -3024.2,556.8 -3024.2,550.1 -3017.6,550.1 -3017.6,512.1 -3024.2,512.1 	"/>
	<g>
		<path class="st4" d="M-3217.4,523h2.3v-2.3h11.4v4.5h-9.1v9.1h9.1v4.5h-11.4v-2.3h-2.3V523z"/>
		<path class="st4" d="M-3197,538.9h-4.5V523h2.3v-2.3h9.1v2.3h2.3v15.9h-4.5v-6.8h-4.5V538.9z M-3192.4,527.6v-2.3h-4.5v2.3
			H-3192.4z"/>
		<path class="st4" d="M-3183.3,536.7h-2.3v-15.9h4.5v13.6h9.1v4.5h-11.4V536.7z"/>
		<path class="st4" d="M-3169.7,520.8h4.5v18.2h-4.5V520.8z"/>
		<path class="st4" d="M-3162.9,520.8h11.4v2.3h2.3v13.6h-2.3v2.3h-11.4V520.8z M-3158.4,527.6h4.5v-2.3h-4.5V527.6z M-3158.4,534.4
			h4.5v-2.3h-4.5V534.4z"/>
		<path class="st4" d="M-3140.2,532.1h-2.3v6.8h-4.5V523h2.3v-2.3h9.1v2.3h2.3v6.8h-2.3v2.3h2.3v6.8h-4.5v-4.5h-2.3V532.1z
			 M-3142.5,527.6h4.5v-2.3h-4.5V527.6z"/>
		<path class="st4" d="M-3126.6,538.9h-4.5V523h2.3v-2.3h9.1v2.3h2.3v15.9h-4.5v-6.8h-4.5V538.9z M-3122,527.6v-2.3h-4.5v2.3H-3122z
			"/>
		<path class="st4" d="M-3115.2,520.8h13.6v4.5h-4.5v13.6h-4.5v-13.6h-4.5V520.8z"/>
		<path class="st4" d="M-3097,536.7h-2.3V523h2.3v-2.3h11.4v4.5h-9.1v2.3h4.5v4.5h-4.5v2.3h9.1v4.5h-11.4V536.7z"/>
	</g>
</g>
<g>
	<rect x="-3282.2" y="594.4" class="st9" width="219.8" height="28.8"/>
	<rect x="-3287" y="587.9" class="st9" width="229.4" height="30.6"/>
	<polygon class="st10" points="-3287,583.5 -3287,612.8 -3282.2,612.8 -3282.2,618.5 -3062.5,618.5 -3062.5,612.8 -3057.7,612.8 
		-3057.7,583.5 	"/>
</g>
<polygon class="st9" points="-3067.3,598.4 -3067.3,593.3 -3072.3,593.3 -3072.3,593.2 -3129,593.2 -3159.6,593.2 -3185.2,593.2 
	-3209,593.2 -3272.4,593.2 -3272.4,593.2 -3277.5,593.2 -3277.5,598.3 -3282.6,598.3 -3282.6,606 -3277.5,606 -3277.5,611.1 
	-3272.4,611.1 -3272.4,611.2 -3209,611.2 -3185.2,611.2 -3159.6,611.2 -3129,611.2 -3072.3,611.2 -3072.3,611.1 -3067.3,611.1 
	-3067.3,606 -3062.2,606 -3062.2,598.4 "/>
<g>
	<rect x="-3291.2" y="692.4" class="st13" width="4.7" height="0.1"/>
	<rect x="-3291.2" y="710.3" class="st13" width="4.7" height="0.1"/>
	<polygon class="st4" points="-3270.1,710.4 -3270.1,705.3 -3265.1,705.3 -3265.1,697.6 -3270.1,697.6 -3270.1,692.5 -3275.2,692.5 
		-3275.2,692.4 -3286.4,692.4 -3286.4,692.5 -3291.2,692.5 -3291.2,710.3 -3286.4,710.3 -3286.4,710.4 -3275.2,710.4 -3275.2,710.4 
			"/>
</g>
<g>
	<polygon class="st4" points="-3317,656.9 -3317,651.8 -3322.1,651.8 -3322.1,651.7 -3338,651.7 -3338,669.7 -3322.1,669.7 
		-3322.1,669.6 -3317,669.6 -3317,664.5 -3311.9,664.5 -3311.9,656.9 	"/>
	<polygon class="st4" points="-3330.5,695.7 -3330.5,690.7 -3330.5,690.7 -3330.5,690.5 -3335,690.5 -3335.6,690.5 -3340.1,690.5 
		-3340.1,690.6 -3340.1,690.6 -3340.1,695.7 -3345.2,695.7 -3345.2,703.4 -3340.1,703.4 -3340.1,708.4 -3340.1,708.4 -3340.1,708.5 
		-3335.6,708.5 -3335,708.5 -3330.5,708.5 -3330.5,708.5 -3330.5,708.5 -3330.5,703.4 -3325.4,703.4 -3325.4,695.7 	"/>
</g>
<polygon class="st4" points="-3380.3,598.4 -3380.3,593.3 -3380.3,593.3 -3380.3,593.2 -3384.8,593.2 -3385.4,593.2 -3389.9,593.2 
	-3389.9,593.2 -3389.9,593.2 -3389.9,598.3 -3395,598.3 -3395,606 -3389.9,606 -3389.9,611.1 -3389.9,611.1 -3389.9,611.2 
	-3385.4,611.2 -3384.8,611.2 -3380.3,611.2 -3380.3,611.1 -3380.3,611.1 -3380.3,606 -3375.2,606 -3375.2,598.4 "/>
<polygon class="st14" points="-2414.5,987.5 -2424.5,987.5 -2799.4,987.5 -2799.4,997.6 -2809.5,997.6 -2809.5,1055.5 
	-2799.4,1055.5 -2799.4,1065.5 -2424.5,1065.5 -2414.5,1065.5 -2414.5,1055.5 -2404.4,1055.5 -2404.4,997.6 -2414.5,997.6 "/>
<polygon class="st15" points="-2414.5,977.5 -2424.5,977.5 -2799.4,977.5 -2799.4,987.6 -2809.5,987.6 -2809.5,1045.5 
	-2799.4,1045.5 -2799.4,1055.5 -2424.5,1055.5 -2414.5,1055.5 -2414.5,1045.5 -2404.4,1045.5 -2404.4,987.6 -2414.5,987.6 "/>
<g>
	<path class="st4" d="M-2696.8,1028.4h-6.9v-27.6h17.3v3.5h3.5v10.4h-3.5v3.5h-10.4V1028.4z M-2696.8,1011.1h6.9v-3.5h-6.9V1011.1z"
		/>
	<path class="st4" d="M-2676.1,1025h-3.5v-24.2h6.9v20.7h13.8v6.9h-17.3V1025z"/>
	<path class="st4" d="M-2648.5,1028.4h-6.9v-24.2h3.5v-3.5h13.8v3.5h3.5v24.2h-6.9V1018h-6.9V1028.4z M-2641.5,1011.1v-3.5h-6.9v3.5
		H-2641.5z"/>
	<path class="st4" d="M-2631.2,1000.8h6.9v10.4h6.9v-10.4h6.9v13.8h-3.5v3.5h-3.5v10.4h-6.9V1018h-3.5v-3.5h-3.5V1000.8z"/>
	<path class="st4" d="M-2603.5,1025h-3.5v-20.7h3.5v-3.5h17.3v6.9h-13.8v3.5h6.9v6.9h-6.9v3.5h13.8v6.9h-17.3V1025z"/>
	<path class="st4" d="M-2572.4,1018h-3.5v10.4h-6.9v-27.6h17.3v3.5h3.5v10.4h-3.5v3.5h3.5v10.4h-6.9v-6.9h-3.5V1018z
		 M-2575.9,1011.1h6.9v-3.5h-6.9V1011.1z"/>
	<path class="st4" d="M-2534.4,1000.8h17.3v3.5h3.5v10.4h-3.5v3.5h-10.4v3.5h13.8v6.9h-20.7v-13.8h3.5v-3.5h10.4v-3.5h-13.8V1000.8z
		"/>
</g>
<g>
	<rect x="-2788.5" y="981.5" class="st4" width="45.1" height="5.7"/>
	<rect x="-2737.2" y="981.5" class="st4" width="5.7" height="5.7"/>
</g>
<g>
	<rect x="-3243" y="982.5" class="st4" width="45.1" height="5.7"/>
	<rect x="-3191.7" y="982.5" class="st4" width="5.7" height="5.7"/>
</g>
<polygon class="st16" points="-2853.9,822.5 -2847.5,828.1 -2853.1,834.5 -2832.6,851.9 -2832.6,889.8 -2811.9,863.7 -2780.1,893.1 
	-2774.3,886.8 -2769.3,891.4 -2697.7,772.7 "/>
<polygon class="st17" points="-2856.3,815.4 -2849.9,821 -2855.5,827.4 -2835.1,844.8 -2835.1,882.7 -2814.4,856.6 -2782.6,886 
	-2776.8,879.7 -2771.8,884.3 -2700.2,765.6 "/>
<polygon class="st18" points="-2814.3,856.4 -2699.9,765.6 -2835,844.6 -2835,882.5 "/>
<polygon class="st19" points="-2857.4,815.6 -2851,821.2 -2856.6,827.6 -2836.2,844.9 -2836.2,882.8 -2815.4,856.7 -2783.7,886.1 
	-2777.8,879.8 -2772.9,884.5 -2701.2,765.8 "/>
<g>
	<polygon class="st20" points="-2921.5,508.8 -2921.5,672.5 -2911.2,672.5 -2911.2,682 -2900.8,682 -2900.8,692.4 -2453.3,692.4 
		-2453.3,682 -2442.9,682 -2442.9,672.5 -2432.5,672.5 -2432.5,508.8 	"/>
	<polygon class="st20" points="-2432.5,508.8 -2432.5,414.7 -2442.9,414.7 -2442.9,405.2 -2453.3,405.2 -2453.3,394.7 
		-2900.8,394.7 -2900.8,405.2 -2911.2,405.2 -2911.2,414.7 -2921.5,414.7 -2921.5,508.8 	"/>
</g>
<g>
	<polygon class="st21" points="-2911.2,411.3 -2900.8,411.3 -2900.8,403.3 -2911.2,403.3 -2911.2,411.2 -2921.5,411.2 
		-2921.5,419.2 -2911.2,419.2 	"/>
	<rect x="-2900.8" y="394.6" class="st21" width="447.5" height="8"/>
	<polygon class="st21" points="-2442.9,411.2 -2442.9,403.3 -2453.3,403.3 -2453.3,411.3 -2442.9,411.3 -2442.9,419.2 
		-2432.5,419.2 -2432.5,411.2 	"/>
</g>
<g>
	<g>
		<g>
			<rect x="-3314.7" y="330.3" width="10.2" height="10.2"/>
		</g>
	</g>
	<g>
		<g>
			<path d="M-3253.2,320.1v5.1h-5.1v5.1h5.1v20.5h5.1v5.1h-5.1v5.1h5.1h5.1v-10.2h15.4v5.1h5.1v-5.1v-30.7H-3253.2z M-3227.6,345.7
				h-20.5v-20.5h20.5V345.7z"/>
		</g>
	</g>
	<g>
		<g>
			<rect x="-3243" y="330.3" width="10.2" height="10.2"/>
		</g>
	</g>
	<g>
		<g>
			<rect x="-3314.7" y="402" width="10.2" height="10.2"/>
		</g>
	</g>
	<g>
		<g>
			<rect x="-3253.2" y="391.8" width="5.1" height="5.1"/>
		</g>
	</g>
	<g>
		<g>
			<rect x="-3278.8" y="417.4" width="5.1" height="5.1"/>
		</g>
	</g>
	<g>
		<g>
			<rect x="-3273.7" y="396.9" width="5.1" height="5.1"/>
		</g>
	</g>
	<g>
		<g>
			<rect x="-3273.7" y="407.2" width="5.1" height="5.1"/>
		</g>
	</g>
	<g>
		<g>
			<rect x="-3227.6" y="381.5" width="5.1" height="5.1"/>
		</g>
	</g>
	<g>
		<g>
			<rect x="-3324.9" y="381.5" width="5.1" height="5.1"/>
		</g>
	</g>
	<g>
		<g>
			<rect x="-3324.9" y="355.9" width="5.1" height="5.1"/>
		</g>
	</g>
	<g>
		<g>
			<polygon points="-3268.6,325.2 -3268.6,330.3 -3278.8,330.3 -3278.8,335.5 -3263.5,335.5 -3263.5,330.3 -3263.5,325.2 			"/>
		</g>
	</g>
	<g>
		<g>
			<path d="M-3227.6,361.1v5.1h-10.2v5.1h-15.4v-5.1h-5.1v5.1h-10.2v5.1h15.4v5.1h-10.2h-5.1v-5.1h-5.1v5.1h-5.1v-5.1h-5.1v5.1h-5.1
				v5.1h10.2v5.1h5.1v-5.1h10.2v5.1h-5.1v5.1h5.1v10.2h5.1v5.1h5.1v-5.1h15.4v-10.2h5.1v-5.1h-5.1v-10.2h-10.2v-5.1h10.2v5.1h5.1
				v-5.1h5.1v-5.1h5.1v-5.1v-5.1H-3227.6L-3227.6,361.1z M-3243,386.7V402h-15.4v-15.4H-3243z"/>
		</g>
	</g>
	<g>
		<g>
			<polygon points="-3258.4,350.8 -3263.5,350.8 -3263.5,355.9 -3268.6,355.9 -3268.6,361.1 -3268.6,366.2 -3263.5,366.2 
				-3263.5,361.1 -3258.4,361.1 -3258.4,355.9 -3253.2,355.9 -3253.2,350.8 			"/>
		</g>
	</g>
	<g>
		<g>
			<rect x="-3268.6" y="417.4" width="10.2" height="5.1"/>
		</g>
	</g>
	<g>
		<g>
			<rect x="-3284" y="325.2" width="5.1" height="5.1"/>
		</g>
	</g>
	<g>
		<g>
			<rect x="-3243" y="361.1" width="5.1" height="5.1"/>
		</g>
	</g>
	<g>
		<g>
			<rect x="-3237.9" y="355.9" width="5.1" height="5.1"/>
		</g>
	</g>
	<g>
		<g>
			<rect x="-3304.5" y="381.5" width="5.1" height="5.1"/>
		</g>
	</g>
	<g>
		<g>
			<path d="M-3294.2,417.4v-20.5h5.1v-5.1v-5.1h-5.1v5.1h-15.4v-5.1h-5.1h-5.1v5.1h-5.1v30.7h30.7h10.2v-5.1H-3294.2z
				 M-3299.3,417.4h-20.5v-20.5h20.5V417.4z"/>
		</g>
	</g>
	<g>
		<g>
			<rect x="-3294.2" y="350.8" width="5.1" height="5.1"/>
		</g>
	</g>
	<g>
		<g>
			<path d="M-3289.1,320.1h-5.1h-30.7v30.7h5.1v5.1h5.1v-5.1h5.1v5.1h5.1v-5.1h10.2v-10.2h5.1v-5.1h-5.1v-10.2h5.1h5.1v-5.1H-3289.1
				z M-3299.3,345.7h-20.5v-20.5h20.5V345.7z"/>
		</g>
	</g>
	<g>
		<g>
			<rect x="-3263.5" y="335.5" width="5.1" height="5.1"/>
		</g>
	</g>
	<g>
		<g>
			<rect x="-3273.7" y="320.1" width="5.1" height="5.1"/>
		</g>
	</g>
	<g>
		<g>
			<path d="M-3263.5,350.8v-5.1h-5.1v-5.1h-5.1v5.1h-10.2v-5.1h-5.1v5.1v5.1h5.1v10.2h-15.4v-5.1h-5.1v5.1h-15.4v5.1h10.2v5.1h-15.4
				v5.1h15.4v5.1h5.1v-5.1h5.1v5.1h5.1v-5.1h10.2v-5.1h-5.1v-5.1h5.1h5.1v5.1h5.1h5.1v-5.1h-5.1v-5.1h-5.1v-10.2H-3263.5
				L-3263.5,350.8z M-3294.2,371.3h-10.2v-5.1h10.2V371.3z"/>
		</g>
	</g>
	<g>
		<g>
			<polygon points="-3278.8,402 -3278.8,396.9 -3278.8,391.8 -3284,391.8 -3284,396.9 -3289.1,396.9 -3289.1,402 -3284,402 
				-3284,407.2 -3289.1,407.2 -3289.1,412.3 -3278.8,412.3 -3278.8,407.2 -3273.7,407.2 -3273.7,402 			"/>
		</g>
	</g>
	<g>
		<g>
			<polygon points="-3232.8,412.3 -3232.8,407.2 -3237.9,407.2 -3237.9,412.3 -3253.2,412.3 -3253.2,417.4 -3243,417.4 -3243,422.5 
				-3237.9,422.5 -3237.9,417.4 -3227.6,417.4 -3227.6,422.5 -3222.5,422.5 -3222.5,417.4 -3222.5,412.3 			"/>
		</g>
	</g>
	<g>
		<g>
			<polygon points="-3227.6,391.8 -3227.6,396.9 -3232.8,396.9 -3232.8,402 -3222.5,402 -3222.5,396.9 -3222.5,391.8 			"/>
		</g>
	</g>
</g>
<g>
	<g>
		<polygon class="st22" points="-3381,736.2 -3384.7,736.2 -3521.9,736.2 -3521.9,739.9 -3525.6,739.9 -3525.6,761.1 -3521.9,761.1 
			-3521.9,764.8 -3384.7,764.8 -3381,764.8 -3381,761.1 -3377.4,761.1 -3377.4,739.9 -3381,739.9 		"/>
		<polygon class="st22" points="-3381,736.2 -3384.7,736.2 -3521.9,736.2 -3521.9,739.9 -3525.6,739.9 -3525.6,761.1 -3521.9,761.1 
			-3521.9,764.8 -3384.7,764.8 -3381,764.8 -3381,761.1 -3377.4,761.1 -3377.4,739.9 -3381,739.9 		"/>
	</g>
	<g>
		<rect x="-3519.5" y="738.4" class="st22" width="13.1" height="1.7"/>
		<rect x="-3504.6" y="738.4" class="st22" width="1.7" height="1.7"/>
	</g>
</g>
<g>
	<g>
		<polygon class="st9" points="-3553,736.2 -3556.7,736.2 -3693.9,736.2 -3693.9,739.9 -3697.6,739.9 -3697.6,761.1 -3693.9,761.1 
			-3693.9,764.8 -3556.7,764.8 -3553,764.8 -3553,761.1 -3549.4,761.1 -3549.4,739.9 -3553,739.9 		"/>
		<polygon class="st12" points="-3553,736.2 -3556.7,736.2 -3693.9,736.2 -3693.9,739.9 -3697.6,739.9 -3697.6,761.1 -3693.9,761.1 
			-3693.9,764.8 -3556.7,764.8 -3553,764.8 -3553,761.1 -3549.4,761.1 -3549.4,739.9 -3553,739.9 		"/>
		<g>
			<path class="st4" d="M-3665.7,751.1h-1.3v3.8h-2.5v-10.1h6.3v1.3h1.3v3.8h-1.3v1.3h1.3v3.8h-2.5v-2.5h-1.3V751.1z M-3666.9,748.5
				h2.5v-1.3h-2.5V748.5z"/>
			<path class="st4" d="M-3659.4,753.6h-1.3V746h1.3v-1.3h6.3v2.5h-5.1v1.3h2.5v2.5h-2.5v1.3h5.1v2.5h-6.3V753.6z"/>
			<path class="st4" d="M-3650.5,753.6h-1.3V746h1.3v-1.3h5.1v1.3h1.3v2.5h-2.5v-1.3h-2.5v5.1h2.5v-1.3h2.5v2.5h-1.3v1.3h-5.1V753.6
				z"/>
			<path class="st4" d="M-3640.4,754.9h-2.5V746h1.3v-1.3h5.1v1.3h1.3v8.9h-2.5v-3.8h-2.5V754.9z M-3637.9,748.5v-1.3h-2.5v1.3
				H-3637.9z"/>
			<path class="st4" d="M-3632.8,753.6h-1.3v-8.9h2.5v7.6h5.1v2.5h-6.3V753.6z"/>
			<path class="st4" d="M-3625.2,744.7h2.5v10.1h-2.5V744.7z"/>
			<path class="st4" d="M-3621.4,744.7h6.3v1.3h1.3v7.6h-1.3v1.3h-6.3V744.7z M-3618.9,748.5h2.5v-1.3h-2.5V748.5z M-3618.9,752.3
				h2.5v-1.3h-2.5V752.3z"/>
			<path class="st4" d="M-3608.8,751.1h-1.3v3.8h-2.5V746h1.3v-1.3h5.1v1.3h1.3v3.8h-1.3v1.3h1.3v3.8h-2.5v-2.5h-1.3V751.1z
				 M-3610,748.5h2.5v-1.3h-2.5V748.5z"/>
			<path class="st4" d="M-3601.2,754.9h-2.5V746h1.3v-1.3h5.1v1.3h1.3v8.9h-2.5v-3.8h-2.5V754.9z M-3598.7,748.5v-1.3h-2.5v1.3
				H-3598.7z"/>
			<path class="st4" d="M-3594.9,744.7h7.6v2.5h-2.5v7.6h-2.5v-7.6h-2.5V744.7z"/>
			<path class="st4" d="M-3584.7,753.6h-1.3V746h1.3v-1.3h6.3v2.5h-5.1v1.3h2.5v2.5h-2.5v1.3h5.1v2.5h-6.3V753.6z"/>
		</g>
	</g>
	<g>
		<rect x="-3691.5" y="738.4" class="st4" width="13.1" height="1.7"/>
		<rect x="-3676.6" y="738.4" class="st4" width="1.7" height="1.7"/>
	</g>
</g>
<g>
	<g>
		<polygon class="st9" points="-3553,778.2 -3556.7,778.2 -3693.9,778.2 -3693.9,781.9 -3697.6,781.9 -3697.6,803.1 -3693.9,803.1 
			-3693.9,806.8 -3556.7,806.8 -3553,806.8 -3553,803.1 -3549.4,803.1 -3549.4,781.9 -3553,781.9 		"/>
		<polygon class="st10" points="-3553,774.6 -3556.7,774.6 -3693.9,774.6 -3693.9,778.3 -3697.6,778.3 -3697.6,799.4 -3693.9,799.4 
			-3693.9,803.1 -3556.7,803.1 -3553,803.1 -3553,799.4 -3549.4,799.4 -3549.4,778.3 -3553,778.3 		"/>
		<g>
			<path class="st4" d="M-3665.7,789.4h-1.3v3.8h-2.5v-10.1h6.3v1.3h1.3v3.8h-1.3v1.3h1.3v3.8h-2.5v-2.5h-1.3V789.4z M-3666.9,786.9
				h2.5v-1.3h-2.5V786.9z"/>
			<path class="st4" d="M-3659.4,791.9h-1.3v-7.6h1.3v-1.3h6.3v2.5h-5.1v1.3h2.5v2.5h-2.5v1.3h5.1v2.5h-6.3V791.9z"/>
			<path class="st4" d="M-3650.5,791.9h-1.3v-7.6h1.3v-1.3h5.1v1.3h1.3v2.5h-2.5v-1.3h-2.5v5.1h2.5v-1.3h2.5v2.5h-1.3v1.3h-5.1
				V791.9z"/>
			<path class="st4" d="M-3640.4,793.2h-2.5v-8.9h1.3v-1.3h5.1v1.3h1.3v8.9h-2.5v-3.8h-2.5V793.2z M-3637.9,786.9v-1.3h-2.5v1.3
				H-3637.9z"/>
			<path class="st4" d="M-3632.8,791.9h-1.3v-8.9h2.5v7.6h5.1v2.5h-6.3V791.9z"/>
			<path class="st4" d="M-3625.2,783.1h2.5v10.1h-2.5V783.1z"/>
			<path class="st4" d="M-3621.4,783.1h6.3v1.3h1.3v7.6h-1.3v1.3h-6.3V783.1z M-3618.9,786.9h2.5v-1.3h-2.5V786.9z M-3618.9,790.7
				h2.5v-1.3h-2.5V790.7z"/>
			<path class="st4" d="M-3608.8,789.4h-1.3v3.8h-2.5v-8.9h1.3v-1.3h5.1v1.3h1.3v3.8h-1.3v1.3h1.3v3.8h-2.5v-2.5h-1.3V789.4z
				 M-3610,786.9h2.5v-1.3h-2.5V786.9z"/>
			<path class="st4" d="M-3601.2,793.2h-2.5v-8.9h1.3v-1.3h5.1v1.3h1.3v8.9h-2.5v-3.8h-2.5V793.2z M-3598.7,786.9v-1.3h-2.5v1.3
				H-3598.7z"/>
			<path class="st4" d="M-3594.9,783.1h7.6v2.5h-2.5v7.6h-2.5v-7.6h-2.5V783.1z"/>
			<path class="st4" d="M-3584.7,791.9h-1.3v-7.6h1.3v-1.3h6.3v2.5h-5.1v1.3h2.5v2.5h-2.5v1.3h5.1v2.5h-6.3V791.9z"/>
		</g>
	</g>
	<g>
		<rect x="-3691.5" y="777.4" class="st4" width="13.1" height="1.7"/>
		<rect x="-3676.6" y="777.4" class="st4" width="1.7" height="1.7"/>
	</g>
</g>
<g>
	<g>
		<polygon class="st22" points="-3381,778.2 -3384.7,778.2 -3521.9,778.2 -3521.9,781.9 -3525.6,781.9 -3525.6,803.1 -3521.9,803.1 
			-3521.9,806.8 -3384.7,806.8 -3381,806.8 -3381,803.1 -3377.4,803.1 -3377.4,781.9 -3381,781.9 		"/>
		<polygon class="st23" points="-3381,774.6 -3384.7,774.6 -3521.9,774.6 -3521.9,778.3 -3525.6,778.3 -3525.6,799.4 -3521.9,799.4 
			-3521.9,803.1 -3384.7,803.1 -3381,803.1 -3381,799.4 -3377.4,799.4 -3377.4,778.3 -3381,778.3 		"/>
	</g>
	<g>
		<rect x="-3519.5" y="777.4" class="st4" width="13.1" height="1.7"/>
		<rect x="-3504.6" y="777.4" class="st4" width="1.7" height="1.7"/>
	</g>
</g>
<g>
	<rect x="-3271.7" y="509.1" class="st4" width="23.6" height="3"/>
	<rect x="-3244.9" y="509.1" class="st4" width="3" height="3"/>
</g>
<g>
	<rect x="-3592.1" y="447.6" class="st4" width="23.6" height="3"/>
	<rect x="-3565.3" y="447.6" class="st4" width="3" height="3"/>
</g>
<g>
	<polygon class="st23" points="-3622.2,571.1 -3622.2,563.7 -3640.8,563.7 -3640.8,571.1 -3648.3,571.1 -3648.3,578.6 
		-3648.3,589.8 -3640.8,589.8 -3640.8,597.2 -3629.6,597.2 -3622.2,597.2 -3622.2,589.8 -3614.7,589.8 -3614.7,578.6 -3614.7,571.1 
			"/>
	<line class="st24" x1="-3640.2" y1="597.2" x2="-3640.2" y2="607.2"/>
	<line class="st24" x1="-3622.8" y1="597.2" x2="-3622.8" y2="607.2"/>
	<polygon class="st25" points="-3623.7,605.3 -3625.9,605.3 -3639.3,605.3 -3639.3,607.5 -3641.4,607.5 -3641.4,623 -3639.3,623 
		-3639.3,625.2 -3625.9,625.2 -3623.7,625.2 -3623.7,623 -3621.5,623 -3621.5,607.5 -3623.7,607.5 	"/>
</g>
<polygon class="st22" points="-3555.1,1010.4 -3555.1,1002.5 -3563,1002.5 -3628,1002.5 -3696.8,1002.5 -3696.8,1010.4 
	-3704.7,1010.4 -3704.7,1055.9 -3696.8,1055.9 -3696.8,1063.9 -3628,1063.9 -3563,1063.9 -3555.1,1063.9 -3555.1,1055.9 
	-3547.2,1055.9 -3547.2,1010.4 "/>
<polygon class="st22" points="-3555.1,1010.5 -3555.1,1002.6 -3563,1002.6 -3628,1002.6 -3696.8,1002.6 -3696.8,1010.5 
	-3704.7,1010.5 -3704.7,1056 -3696.8,1056 -3696.8,1064 -3628,1064 -3563,1064 -3555.1,1064 -3555.1,1056 -3547.2,1056 
	-3547.2,1010.5 "/>
<g>
	<path class="st4" d="M-3658.6,1043.9h-5.4v-21.8h13.6v2.7h2.7v8.2h-2.7v2.7h-8.2V1043.9z M-3658.6,1030.3h5.4v-2.7h-5.4V1030.3z"/>
	<path class="st4" d="M-3642.3,1041.2h-2.7v-19h5.4v16.3h10.9v5.4h-13.6V1041.2z"/>
	<path class="st4" d="M-3620.5,1043.9h-5.4v-19h2.7v-2.7h10.9v2.7h2.7v19h-5.4v-8.2h-5.4V1043.9z M-3615,1030.3v-2.7h-5.4v2.7H-3615
		z"/>
	<path class="st4" d="M-3606.9,1022.1h5.4v8.2h5.4v-8.2h5.4v10.9h-2.7v2.7h-2.7v8.2h-5.4v-8.2h-2.7v-2.7h-2.7V1022.1z"/>
</g>
<polygon class="st22" points="-3385.1,1010.4 -3385.1,1002.5 -3393,1002.5 -3458,1002.5 -3526.8,1002.5 -3526.8,1010.4 
	-3534.7,1010.4 -3534.7,1055.9 -3526.8,1055.9 -3526.8,1063.9 -3458,1063.9 -3393,1063.9 -3385.1,1063.9 -3385.1,1055.9 
	-3377.2,1055.9 -3377.2,1010.4 "/>
<polygon class="st23" points="-3385.1,1002.5 -3385.1,994.6 -3393,994.6 -3458,994.6 -3526.8,994.6 -3526.8,1002.5 -3534.7,1002.5 
	-3534.7,1048 -3526.8,1048 -3526.8,1056 -3458,1056 -3393,1056 -3385.1,1056 -3385.1,1048 -3377.2,1048 -3377.2,1002.5 "/>
<g>
	<path class="st4" d="M-3488.6,1035.9h-5.4v-21.8h13.6v2.7h2.7v8.2h-2.7v2.7h-8.2V1035.9z M-3488.6,1022.3h5.4v-2.7h-5.4V1022.3z"/>
	<path class="st4" d="M-3472.3,1033.2h-2.7v-19h5.4v16.3h10.9v5.4h-13.6V1033.2z"/>
	<path class="st4" d="M-3450.5,1035.9h-5.4v-19h2.7v-2.7h10.9v2.7h2.7v19h-5.4v-8.2h-5.4V1035.9z M-3445,1022.3v-2.7h-5.4v2.7H-3445
		z"/>
	<path class="st4" d="M-3436.9,1014.1h5.4v8.2h5.4v-8.2h5.4v10.9h-2.7v2.7h-2.7v8.2h-5.4v-8.2h-2.7v-2.7h-2.7V1014.1z"/>
</g>
<g>
	<path class="st26" d="M-4378.7,764.8h43.2v108h43.2v-108h43.2v129.6h-21.6V916h-21.6v21.6h-43.2V916h-21.6v-21.6h-21.6V764.8z"/>
	<path class="st27" d="M-4227.5,788.4h21.6v-21.6h108V810h-86.4v21.6h64.8v21.6h21.6V918h-21.6v21.6h-108v-43.2h86.4v-21.6h-64.8
		v-21.6h-21.6V788.4z"/>
</g>
<g>
	<path class="st28" d="M-4378.7,743.7h43.2v108h43.2v-108h43.2v129.6h-21.6v21.6h-21.6v21.6h-43.2v-21.6h-21.6v-21.6h-21.6V743.7z"
		/>
	<path class="st29" d="M-4227.5,765.3h21.6v-21.6h108v43.2h-86.4v21.6h64.8v21.6h21.6v64.8h-21.6v21.6h-108v-43.2h86.4v-21.6h-64.8
		v-21.6h-21.6V765.3z"/>
</g>
<g>
	<g>
		<path class="st0" d="M-4329.3,1122.3h27.5v68.7h27.5v-68.7h27.5v82.4h-13.7v13.7h-13.7v13.7h-27.5v-13.7h-13.7v-13.7h-13.7V1122.3
			z"/>
		<path class="st0" d="M-4233.2,1137.4h13.7v-13.7h68.7v27.5h-54.9v13.7h41.2v13.7h13.7v41.2h-13.7v13.7h-68.7V1206h54.9v-13.7
			h-41.2v-13.7h-13.7V1137.4z"/>
	</g>
	<g>
		<path class="st7" d="M-4329.3,1107.8h27.5v68.7h27.5v-68.7h27.5v82.4h-13.7v13.7h-13.7v13.7h-27.5V1204h-13.7v-13.7h-13.7V1107.8z
			"/>
		<path class="st7" d="M-4233.2,1122.9h13.7v-13.7h68.7v27.5h-54.9v13.7h41.2v13.7h13.7v41.2h-13.7v13.7h-68.7v-27.5h54.9v-13.7
			h-41.2v-13.7h-13.7V1122.9z"/>
	</g>
	<g>
		<path class="st4" d="M-4329.3,1094.4h27.5v68.7h27.5v-68.7h27.5v82.4h-13.7v13.7h-13.7v13.7h-27.5v-13.7h-13.7v-13.7h-13.7V1094.4
			z"/>
		<path class="st4" d="M-4233.2,1108.2h13.7v-13.7h68.7v27.5h-54.9v13.7h41.2v13.7h13.7v41.2h-13.7v13.7h-68.7v-27.5h54.9v-13.7
			h-41.2v-13.7h-13.7V1108.2z"/>
	</g>
</g>
<g>
	<g>
		<path class="st0" d="M-3754.8,262.6h-21.6v-86.4h54V187h10.8v32.4h-10.8v10.8h-32.4V262.6z M-3754.8,208.6h21.6v-10.8h-21.6V208.6
			z"/>
		<path class="st0" d="M-3700.8,187h10.8v-10.8h43.2V187h10.8v64.8h-10.8v10.8h-43.2v-10.8h-10.8V187z M-3679.2,241h21.6v-43.2
			h-21.6V241z"/>
		<path class="st0" d="M-3614.4,251.8h-10.8v-75.6h21.6V241h43.2v21.6h-54V251.8z"/>
		<path class="st0" d="M-3571.2,176.2h21.6v32.4h21.6v-32.4h21.6v43.2h-10.8v10.8h-10.8v32.4h-21.6v-32.4h-10.8v-10.8h-10.8V176.2z"
			/>
	</g>
	<g>
		<path class="st30" d="M-3754.8,254.2h-21.6v-86.4h54v10.8h10.8V211h-10.8v10.8h-32.4V254.2z M-3754.8,200.2h21.6v-10.8h-21.6
			V200.2z"/>
		<path class="st30" d="M-3700.8,178.6h10.8v-10.8h43.2v10.8h10.8v64.8h-10.8v10.8h-43.2v-10.8h-10.8V178.6z M-3679.2,232.6h21.6
			v-43.2h-21.6V232.6z"/>
		<path class="st30" d="M-3614.4,243.4h-10.8v-75.6h21.6v64.8h43.2v21.6h-54V243.4z"/>
		<path class="st30" d="M-3571.2,167.8h21.6v32.4h21.6v-32.4h21.6V211h-10.8v10.8h-10.8v32.4h-21.6v-32.4h-10.8V211h-10.8V167.8z"/>
	</g>
	<g>
		<path class="st4" d="M-3754.8,246h-21.6v-86.4h54v10.8h10.8v32.4h-10.8v10.8h-32.4V246z M-3754.8,192h21.6v-10.8h-21.6V192z"/>
		<path class="st4" d="M-3700.8,170.4h10.8v-10.8h43.2v10.8h10.8v64.8h-10.8V246h-43.2v-10.8h-10.8V170.4z M-3679.2,224.4h21.6
			v-43.2h-21.6V224.4z"/>
		<path class="st4" d="M-3614.4,235.2h-10.8v-75.6h21.6v64.8h43.2V246h-54V235.2z"/>
		<path class="st4" d="M-3571.2,159.6h21.6V192h21.6v-32.4h21.6v43.2h-10.8v10.8h-10.8V246h-21.6v-32.4h-10.8v-10.8h-10.8V159.6z"/>
	</g>
</g>
<image style="overflow:visible;" width="843" height="1118" xlink:href="2929DAF433FF651E.jpg"  transform="matrix(0.24 0 0 0.24 -3985.9678 309.8225)">
</image>
<g>
	<g class="st1">
		<g>
			<polygon class="st0" points="-3428,-53.8 -3428,32.6 -3326.8,32.6 -3326.8,21 -3339.5,21 -3339.5,8.4 -3352.1,8.4 -3352.1,-4.3 
				-3364.8,-4.3 -3364.8,-16.9 -3352.1,-16.9 -3352.1,-29.6 -3339.5,-29.6 -3339.5,-42.2 -3326.8,-42.2 -3326.8,-53.8 			"/>
		</g>
		<polygon class="st0" points="-3413.3,7.3 -3428,31.6 -3428,7.3 		"/>
	</g>
	<rect x="-3916.2" y="-76.8" class="st0" width="510.3" height="86.5"/>
	<rect x="-3439.6" y="1.3" class="st0" width="112.8" height="31.6"/>
	<g class="st1">
		<g>
			<polygon class="st0" points="-3908.4,-53.7 -3908.4,32.8 -4009.6,32.8 -4009.6,21.2 -3996.9,21.2 -3996.9,8.5 -3984.3,8.5 
				-3984.3,-4.1 -3971.6,-4.1 -3971.6,-16.8 -3984.3,-16.8 -3984.3,-29.4 -3996.9,-29.4 -3996.9,-42.1 -4009.6,-42.1 -4009.6,-53.7 
							"/>
		</g>
		<polygon class="st0" points="-3923.1,7.5 -3908.4,31.7 -3908.4,7.5 		"/>
	</g>
	<g>
		<g>
			<polygon class="st2" points="-3428,-64.1 -3428,22.3 -3326.8,22.3 -3326.8,10.7 -3339.5,10.7 -3339.5,-1.9 -3352.1,-1.9 
				-3352.1,-14.6 -3364.8,-14.6 -3364.8,-27.2 -3352.1,-27.2 -3352.1,-39.9 -3339.5,-39.9 -3339.5,-52.5 -3326.8,-52.5 
				-3326.8,-64.1 			"/>
			<polygon class="st3" points="-3428,-75.7 -3428,10.7 -3326.8,10.7 -3326.8,-0.9 -3339.5,-0.9 -3339.5,-13.5 -3352.1,-13.5 
				-3352.1,-26.2 -3364.8,-26.2 -3364.8,-38.8 -3352.1,-38.8 -3352.1,-51.5 -3339.5,-51.5 -3339.5,-64.1 -3326.8,-64.1 
				-3326.8,-75.7 			"/>
		</g>
		<polygon class="st2" points="-3413.3,-3 -3428,21.3 -3428,-3 		"/>
		<g>
			<g>
				<polygon class="st2" points="-3908.8,-64.1 -3908.8,22.3 -4010.1,22.3 -4010.1,10.7 -3997.4,10.7 -3997.4,-1.9 -3984.8,-1.9 
					-3984.8,-14.6 -3972.1,-14.6 -3972.1,-27.2 -3984.8,-27.2 -3984.8,-39.9 -3997.4,-39.9 -3997.4,-52.5 -4010.1,-52.5 
					-4010.1,-64.1 				"/>
				<polygon class="st3" points="-3908.8,-75.7 -3908.8,10.7 -4010.1,10.7 -4010.1,-0.9 -3997.4,-0.9 -3997.4,-13.5 -3984.8,-13.5 
					-3984.8,-26.2 -3972.1,-26.2 -3972.1,-38.8 -3984.8,-38.8 -3984.8,-51.5 -3997.4,-51.5 -3997.4,-64.1 -4010.1,-64.1 
					-4010.1,-75.7 				"/>
			</g>
			<polygon class="st2" points="-3923.6,-3 -3908.8,21.3 -3908.9,-3 			"/>
		</g>
		<g>
			<rect x="-3923.6" y="-89.4" class="st2" width="510.3" height="86.5"/>
			<rect x="-3923.6" y="-102.1" class="st3" width="510.3" height="86.5"/>
		</g>
	</g>
</g>
<g>
	<g>
		<path class="st22" d="M-3809.5-27.1h-37.4V-87h37.4v7.5h7.5v15h-7.5v15h7.5v15h-7.5V-27.1z M-3831.9-64.6h15V-72h-15V-64.6z
			 M-3831.9-42.1h15v-7.5h-15V-42.1z"/>
		<path class="st22" d="M-3779.5-27.1h-15v-52.4h7.5V-87h30v7.5h7.5v52.4h-15v-22.5h-15V-27.1z M-3764.5-64.6V-72h-15v7.5H-3764.5z"
			/>
		<path class="st22" d="M-3734.6-34.6h-7.5V-87h15v44.9h30v15h-37.4V-34.6z"/>
		<path class="st22" d="M-3682.1-34.6h-7.5V-87h15v44.9h30v15h-37.4V-34.6z"/>
		<path class="st22" d="M-3637.2-79.5h7.5V-87h30v7.5h7.5v44.9h-7.5v7.5h-30v-7.5h-7.5V-79.5z M-3622.2-42.1h15v-30h-15V-42.1z"/>
		<path class="st22" d="M-3584.8-79.5h7.5V-87h30v7.5h7.5v44.9h-7.5v7.5h-30v-7.5h-7.5V-79.5z M-3569.8-42.1h15v-30h-15V-42.1z"/>
		<path class="st22" d="M-3509.9-57.1h-7.5v30h-15V-87h15v7.5h7.5v7.5h7.5v-15h15v59.9h-15v-22.5h-7.5V-57.1z"/>
	</g>
	<g>
		<path class="st23" d="M-3809.5-32.9h-37.4v-59.9h37.4v7.5h7.5v15h-7.5v15h7.5v15h-7.5V-32.9z M-3831.9-70.4h15v-7.5h-15V-70.4z
			 M-3831.9-47.9h15v-7.5h-15V-47.9z"/>
		<path class="st23" d="M-3779.5-32.9h-15v-52.4h7.5v-7.5h30v7.5h7.5v52.4h-15v-22.5h-15V-32.9z M-3764.5-70.4v-7.5h-15v7.5H-3764.5
			z"/>
		<path class="st23" d="M-3734.6-40.4h-7.5v-52.4h15v44.9h30v15h-37.4V-40.4z"/>
		<path class="st23" d="M-3682.1-40.4h-7.5v-52.4h15v44.9h30v15h-37.4V-40.4z"/>
		<path class="st23" d="M-3637.2-85.4h7.5v-7.5h30v7.5h7.5v44.9h-7.5v7.5h-30v-7.5h-7.5V-85.4z M-3622.2-47.9h15v-30h-15V-47.9z"/>
		<path class="st23" d="M-3584.8-85.4h7.5v-7.5h30v7.5h7.5v44.9h-7.5v7.5h-30v-7.5h-7.5V-85.4z M-3569.8-47.9h15v-30h-15V-47.9z"/>
		<path class="st23" d="M-3509.9-62.9h-7.5v30h-15v-59.9h15v7.5h7.5v7.5h7.5v-15h15v59.9h-15v-22.5h-7.5V-62.9z"/>
	</g>
</g>
<g>
	<path class="st0" d="M-3317.8,119.6h20.7v6.9h-20.7V119.6z"/>
	<path class="st0" d="M-3262.5,136.9h-6.9v-27.6h17.3v3.5h3.5v10.4h-3.5v3.5h-10.4V136.9z M-3262.5,119.6h6.9v-3.5h-6.9V119.6z"/>
	<path class="st0" d="M-3234.9,126.5h-3.5v10.4h-6.9v-27.6h17.3v3.5h3.5v10.4h-3.5v3.5h3.5v10.4h-6.9V130h-3.5V126.5z
		 M-3238.4,119.6h6.9v-3.5h-6.9V119.6z"/>
	<path class="st0" d="M-3217.6,133.4h-3.5v-20.7h3.5v-3.5h17.3v6.9h-13.8v3.5h6.9v6.9h-6.9v3.5h13.8v6.9h-17.3V133.4z"/>
	<path class="st0" d="M-3196.9,112.7h3.5v-3.5h17.3v6.9h-13.8v3.5h10.4v3.5h3.5v10.4h-3.5v3.5h-17.3V130h13.8v-3.5h-10.4v-3.5h-3.5
		V112.7z"/>
	<path class="st0" d="M-3172.7,112.7h3.5v-3.5h17.3v6.9h-13.8v3.5h10.4v3.5h3.5v10.4h-3.5v3.5h-17.3V130h13.8v-3.5h-10.4v-3.5h-3.5
		V112.7z"/>
	<path class="st0" d="M-3117.4,136.9h-6.9v-24.2h3.5v-3.5h13.8v3.5h3.5v24.2h-6.9v-10.4h-6.9V136.9z M-3110.5,119.6v-3.5h-6.9v3.5
		H-3110.5z"/>
	<path class="st0" d="M-3089.7,123.1h-3.5v13.8h-6.9v-27.6h6.9v3.5h3.5v3.5h3.5v-6.9h6.9v27.6h-6.9v-10.4h-3.5V123.1z"/>
	<path class="st0" d="M-3075.9,109.2h6.9v10.4h6.9v-10.4h6.9v13.8h-3.5v3.5h-3.5v10.4h-6.9v-10.4h-3.5v-3.5h-3.5V109.2z"/>
	<path class="st0" d="M-3020.6,136.9h-6.9v-27.6h6.9v6.9h3.5v-3.5h3.5v-3.5h6.9v6.9h-3.5v3.5h-3.5v6.9h3.5v3.5h3.5v6.9h-6.9v-3.5
		h-3.5V130h-3.5V136.9z"/>
	<path class="st0" d="M-2999.9,133.4h-3.5v-20.7h3.5v-3.5h17.3v6.9h-13.8v3.5h6.9v6.9h-6.9v3.5h13.8v6.9h-17.3V133.4z"/>
	<path class="st0" d="M-2979.2,109.2h6.9v10.4h6.9v-10.4h6.9v13.8h-3.5v3.5h-3.5v10.4h-6.9v-10.4h-3.5v-3.5h-3.5V109.2z"/>
	<path class="st0" d="M-2930.8,109.2h20.7v6.9h-6.9v20.7h-6.9v-20.7h-6.9V109.2z"/>
	<path class="st0" d="M-2906.6,112.7h3.5v-3.5h13.8v3.5h3.5v20.7h-3.5v3.5h-13.8v-3.5h-3.5V112.7z M-2899.7,130h6.9v-13.8h-6.9V130z
		"/>
	<path class="st0" d="M-2851.3,136.9h-6.9v-27.6h17.3v3.5h3.5v10.4h-3.5v3.5h-10.4V136.9z M-2851.3,119.6h6.9v-3.5h-6.9V119.6z"/>
	<path class="st0" d="M-2830.6,133.4h-3.5v-24.2h6.9V130h13.8v6.9h-17.3V133.4z"/>
	<path class="st0" d="M-2802.9,136.9h-6.9v-24.2h3.5v-3.5h13.8v3.5h3.5v24.2h-6.9v-10.4h-6.9V136.9z M-2796,119.6v-3.5h-6.9v3.5
		H-2796z"/>
	<path class="st0" d="M-2785.6,109.2h6.9v10.4h6.9v-10.4h6.9v13.8h-3.5v3.5h-3.5v10.4h-6.9v-10.4h-3.5v-3.5h-3.5V109.2z"/>
	<path class="st0" d="M-2737.2,119.6h20.7v6.9h-20.7V119.6z"/>
</g>
<g>
	<path class="st30" d="M-3318.7,113.7h20.7v6.9h-20.7V113.7z"/>
	<path class="st30" d="M-3263.4,131h-6.9v-27.6h17.3v3.5h3.5v10.4h-3.5v3.5h-10.4V131z M-3263.4,113.7h6.9v-3.5h-6.9V113.7z"/>
	<path class="st30" d="M-3235.8,120.6h-3.5V131h-6.9v-27.6h17.3v3.5h3.5v10.4h-3.5v3.5h3.5V131h-6.9v-6.9h-3.5V120.6z
		 M-3239.2,113.7h6.9v-3.5h-6.9V113.7z"/>
	<path class="st30" d="M-3218.5,127.5h-3.5v-20.7h3.5v-3.5h17.3v6.9h-13.8v3.5h6.9v6.9h-6.9v3.5h13.8v6.9h-17.3V127.5z"/>
	<path class="st30" d="M-3197.7,106.8h3.5v-3.5h17.3v6.9h-13.8v3.5h10.4v3.5h3.5v10.4h-3.5v3.5h-17.3v-6.9h13.8v-3.5h-10.4v-3.5
		h-3.5V106.8z"/>
	<path class="st30" d="M-3173.6,106.8h3.5v-3.5h17.3v6.9h-13.8v3.5h10.4v3.5h3.5v10.4h-3.5v3.5h-17.3v-6.9h13.8v-3.5h-10.4v-3.5
		h-3.5V106.8z"/>
	<path class="st30" d="M-3118.3,131h-6.9v-24.2h3.5v-3.5h13.8v3.5h3.5V131h-6.9v-10.4h-6.9V131z M-3111.3,113.7v-3.5h-6.9v3.5
		H-3111.3z"/>
	<path class="st30" d="M-3090.6,117.2h-3.5V131h-6.9v-27.6h6.9v3.5h3.5v3.5h3.5v-6.9h6.9V131h-6.9v-10.4h-3.5V117.2z"/>
	<path class="st30" d="M-3076.8,103.3h6.9v10.4h6.9v-10.4h6.9v13.8h-3.5v3.5h-3.5V131h-6.9v-10.4h-3.5v-3.5h-3.5V103.3z"/>
	<path class="st30" d="M-3021.5,131h-6.9v-27.6h6.9v6.9h3.5v-3.5h3.5v-3.5h6.9v6.9h-3.5v3.5h-3.5v6.9h3.5v3.5h3.5v6.9h-6.9v-3.5
		h-3.5v-3.5h-3.5V131z"/>
	<path class="st30" d="M-3000.8,127.5h-3.5v-20.7h3.5v-3.5h17.3v6.9h-13.8v3.5h6.9v6.9h-6.9v3.5h13.8v6.9h-17.3V127.5z"/>
	<path class="st30" d="M-2980,103.3h6.9v10.4h6.9v-10.4h6.9v13.8h-3.5v3.5h-3.5V131h-6.9v-10.4h-3.5v-3.5h-3.5V103.3z"/>
	<path class="st30" d="M-2931.6,103.3h20.7v6.9h-6.9V131h-6.9v-20.7h-6.9V103.3z"/>
	<path class="st30" d="M-2907.4,106.8h3.5v-3.5h13.8v3.5h3.5v20.7h-3.5v3.5h-13.8v-3.5h-3.5V106.8z M-2900.5,124.1h6.9v-13.8h-6.9
		V124.1z"/>
	<path class="st30" d="M-2852.2,131h-6.9v-27.6h17.3v3.5h3.5v10.4h-3.5v3.5h-10.4V131z M-2852.2,113.7h6.9v-3.5h-6.9V113.7z"/>
	<path class="st30" d="M-2831.4,127.5h-3.5v-24.2h6.9v20.7h13.8v6.9h-17.3V127.5z"/>
	<path class="st30" d="M-2803.8,131h-6.9v-24.2h3.5v-3.5h13.8v3.5h3.5V131h-6.9v-10.4h-6.9V131z M-2796.9,113.7v-3.5h-6.9v3.5
		H-2796.9z"/>
	<path class="st30" d="M-2786.5,103.3h6.9v10.4h6.9v-10.4h6.9v13.8h-3.5v3.5h-3.5V131h-6.9v-10.4h-3.5v-3.5h-3.5V103.3z"/>
	<path class="st30" d="M-2738.1,113.7h20.7v6.9h-20.7V113.7z"/>
</g>
<g>
	<path class="st4" d="M-3318.7,109.3h20.7v6.9h-20.7V109.3z"/>
	<path class="st4" d="M-3263.4,126.6h-6.9V98.9h17.3v3.5h3.5v10.4h-3.5v3.5h-10.4V126.6z M-3263.4,109.3h6.9v-3.5h-6.9V109.3z"/>
	<path class="st4" d="M-3235.8,116.2h-3.5v10.4h-6.9V98.9h17.3v3.5h3.5v10.4h-3.5v3.5h3.5v10.4h-6.9v-6.9h-3.5V116.2z
		 M-3239.2,109.3h6.9v-3.5h-6.9V109.3z"/>
	<path class="st4" d="M-3218.5,123.1h-3.5v-20.7h3.5v-3.5h17.3v6.9h-13.8v3.5h6.9v6.9h-6.9v3.5h13.8v6.9h-17.3V123.1z"/>
	<path class="st4" d="M-3197.7,102.4h3.5v-3.5h17.3v6.9h-13.8v3.5h10.4v3.5h3.5v10.4h-3.5v3.5h-17.3v-6.9h13.8v-3.5h-10.4v-3.5h-3.5
		V102.4z"/>
	<path class="st4" d="M-3173.6,102.4h3.5v-3.5h17.3v6.9h-13.8v3.5h10.4v3.5h3.5v10.4h-3.5v3.5h-17.3v-6.9h13.8v-3.5h-10.4v-3.5h-3.5
		V102.4z"/>
	<path class="st4" d="M-3118.3,126.6h-6.9v-24.2h3.5v-3.5h13.8v3.5h3.5v24.2h-6.9v-10.4h-6.9V126.6z M-3111.3,109.3v-3.5h-6.9v3.5
		H-3111.3z"/>
	<path class="st4" d="M-3090.6,112.8h-3.5v13.8h-6.9V98.9h6.9v3.5h3.5v3.5h3.5v-6.9h6.9v27.6h-6.9v-10.4h-3.5V112.8z"/>
	<path class="st4" d="M-3076.8,98.9h6.9v10.4h6.9V98.9h6.9v13.8h-3.5v3.5h-3.5v10.4h-6.9v-10.4h-3.5v-3.5h-3.5V98.9z"/>
	<path class="st4" d="M-3021.5,126.6h-6.9V98.9h6.9v6.9h3.5v-3.5h3.5v-3.5h6.9v6.9h-3.5v3.5h-3.5v6.9h3.5v3.5h3.5v6.9h-6.9v-3.5
		h-3.5v-3.5h-3.5V126.6z"/>
	<path class="st4" d="M-3000.8,123.1h-3.5v-20.7h3.5v-3.5h17.3v6.9h-13.8v3.5h6.9v6.9h-6.9v3.5h13.8v6.9h-17.3V123.1z"/>
	<path class="st4" d="M-2980,98.9h6.9v10.4h6.9V98.9h6.9v13.8h-3.5v3.5h-3.5v10.4h-6.9v-10.4h-3.5v-3.5h-3.5V98.9z"/>
	<path class="st4" d="M-2931.6,98.9h20.7v6.9h-6.9v20.7h-6.9v-20.7h-6.9V98.9z"/>
	<path class="st4" d="M-2907.4,102.4h3.5v-3.5h13.8v3.5h3.5v20.7h-3.5v3.5h-13.8v-3.5h-3.5V102.4z M-2900.5,119.7h6.9v-13.8h-6.9
		V119.7z"/>
	<path class="st4" d="M-2852.2,126.6h-6.9V98.9h17.3v3.5h3.5v10.4h-3.5v3.5h-10.4V126.6z M-2852.2,109.3h6.9v-3.5h-6.9V109.3z"/>
	<path class="st4" d="M-2831.4,123.1h-3.5V98.9h6.9v20.7h13.8v6.9h-17.3V123.1z"/>
	<path class="st4" d="M-2803.8,126.6h-6.9v-24.2h3.5v-3.5h13.8v3.5h3.5v24.2h-6.9v-10.4h-6.9V126.6z M-2796.9,109.3v-3.5h-6.9v3.5
		H-2796.9z"/>
	<path class="st4" d="M-2786.5,98.9h6.9v10.4h6.9V98.9h6.9v13.8h-3.5v3.5h-3.5v10.4h-6.9v-10.4h-3.5v-3.5h-3.5V98.9z"/>
	<path class="st4" d="M-2738.1,109.3h20.7v6.9h-20.7V109.3z"/>
</g>
<path class="st31" d="M-556.9-592.8h-2.2h-10.8h-38.7h-12.9H-2148h-12.9h-38.7h-12.9h-12.9v22.6v840.8v11.3v33.9v11.3v11.3h25.8
	h1578.2h12.9h38.7h10.8h2.2h12.9v-931.2H-556.9z M-569.8-536.3v818.2v11.3h-12.9v11.3h-12.9v11.3h-12.9h-1552.4h-12.9v-11.3h-12.9
	v-11.3h-12.9v-11.3v-818.2v-11.3h12.9v-11.3h12.9v-11.3h12.9h204.3h135.5h1212.7h12.9v11.3h12.9v11.3h12.9V-536.3z"/>
<polygon class="st32" points="-1836.9,-950.1 -1836.9,-958.8 -1846.7,-958.8 -2203.5,-958.8 -2203.5,-875.4 -1847.4,-875.4 
	-1847.4,-884.1 -1846.7,-884.1 -1836.9,-884.1 -1836.9,-891 -1836.9,-892.8 -1827,-892.8 -1827,-899.8 -1827,-950.1 "/>
<polygon class="st31" points="-1837.3,-958.8 -1837.3,-967.5 -1847.2,-967.5 -2214.5,-967.5 -2214.5,-960.6 -2214.5,-958.8 
	-2224.4,-958.8 -2224.4,-908.5 -2214.6,-908.5 -2214.6,-901.5 -2214.5,-901.5 -2214.5,-892.8 -2204,-892.8 -2204,-884.1 
	-1847.9,-884.1 -1847.9,-892.8 -1847.2,-892.8 -1837.3,-892.8 -1837.3,-899.7 -1837.3,-901.5 -1827.5,-901.5 -1827.5,-908.5 
	-1827.5,-958.8 "/>
<rect x="-2286.3" y="-742.7" class="st13" width="92.2" height="32.8"/>
<text transform="matrix(1 0 0 1 -2265.1943 -724.5463)" class="st4" style="font-family:'EditUndoBRK'; font-size:31.5429px;">DMG</text>
<g>
	<g>
		<polygon class="st23" points="-2086.5,-708.3 -1831.8,-708.3 -1831.8,-726.3 -2086.5,-726.3 -2086.5,-726.2 -2086.5,-721.1 
			-2093.5,-721.1 -2093.5,-713.5 -2086.5,-713.5 -2086.5,-708.4 		"/>
	</g>
	<polygon class="st23" points="-1823.2,-721.2 -1823.2,-726.3 -1823.2,-726.3 -1878.9,-726.3 -1878.9,-708.3 -1823.2,-708.3 
		-1823.2,-708.4 -1823.2,-713.5 -1816.2,-713.5 -1816.2,-721.2 	"/>
</g>
<g class="st33">
	<polygon class="st34" points="-1442.9,-495.2 -1442.9,-573.2 -1532.9,-573.2 -1532.9,-563.1 -1542.9,-563.1 -1542.9,-505.3 
		-1532.9,-505.3 -1532.9,-495.2 	"/>
	<polygon class="st34" points="-1207.9,-564.1 -1207.9,-574.2 -1218,-574.2 -1299.9,-574.2 -1299.9,-496.2 -1218,-496.2 
		-1207.9,-496.2 -1207.9,-506.3 -1197.8,-506.3 -1197.8,-564.1 	"/>
	<rect x="-1522.9" y="-564.2" class="st34" width="305" height="78"/>
</g>
<g>
	<polygon class="st31" points="-1432.9,-495.2 -1432.9,-573.2 -1522.9,-573.2 -1522.9,-563.1 -1532.9,-563.1 -1532.9,-505.3 
		-1522.9,-505.3 -1522.9,-495.2 	"/>
	<polygon class="st31" points="-1442.9,-505.2 -1442.9,-583.2 -1532.9,-583.2 -1532.9,-573.1 -1542.9,-573.1 -1542.9,-515.3 
		-1532.9,-515.3 -1532.9,-505.2 	"/>
	<polygon class="st31" points="-1217.9,-563.1 -1217.9,-573.2 -1228,-573.2 -1309.9,-573.2 -1309.9,-495.2 -1228,-495.2 
		-1217.9,-495.2 -1217.9,-505.3 -1207.8,-505.3 -1207.8,-563.1 	"/>
	<polygon class="st31" points="-1207.9,-573.1 -1207.9,-583.2 -1218,-583.2 -1299.9,-583.2 -1299.9,-505.2 -1218,-505.2 
		-1207.9,-505.2 -1207.9,-515.3 -1197.8,-515.3 -1197.8,-573.1 	"/>
	<rect x="-1432.9" y="-573.2" class="st31" width="123" height="78"/>
</g>
<g>
	<polygon class="st35" points="-1432.9,-505.2 -1432.9,-583.2 -1522.9,-583.2 -1522.9,-573.1 -1532.9,-573.1 -1532.9,-515.3 
		-1522.9,-515.3 -1522.9,-505.2 	"/>
	<polygon class="st35" points="-1217.9,-573.1 -1217.9,-583.2 -1228,-583.2 -1295.9,-583.2 -1295.9,-505.2 -1228,-505.2 
		-1217.9,-505.2 -1217.9,-515.3 -1207.8,-515.3 -1207.8,-573.1 	"/>
</g>
<g class="st33">
	<polygon class="st34" points="-1709.3,-890.9 -1709.3,-960.8 -1789.9,-960.8 -1789.9,-951.8 -1798.9,-951.8 -1798.9,-899.9 
		-1789.9,-899.9 -1789.9,-890.9 	"/>
	<polygon class="st34" points="-1498.5,-952.7 -1498.5,-961.7 -1507.5,-961.7 -1581,-961.7 -1581,-891.8 -1507.5,-891.8 
		-1498.5,-891.8 -1498.5,-900.8 -1489.4,-900.8 -1489.4,-952.7 	"/>
	<rect x="-1781" y="-952.7" class="st34" width="273.6" height="70"/>
</g>
<g>
	<polygon class="st31" points="-1700.3,-890.9 -1700.3,-960.8 -1781,-960.8 -1781,-951.8 -1790,-951.8 -1790,-899.9 -1781,-899.9 
		-1781,-890.9 	"/>
	<polygon class="st31" points="-1709.3,-899.8 -1709.3,-969.8 -1789.9,-969.8 -1789.9,-960.8 -1798.9,-960.8 -1798.9,-908.9 
		-1789.9,-908.9 -1789.9,-899.8 	"/>
	<polygon class="st31" points="-1507.4,-951.8 -1507.4,-960.8 -1516.4,-960.8 -1590,-960.8 -1590,-890.9 -1516.4,-890.9 
		-1507.4,-890.9 -1507.4,-899.9 -1498.4,-899.9 -1498.4,-951.8 	"/>
	<polygon class="st31" points="-1498.5,-960.8 -1498.5,-969.8 -1507.5,-969.8 -1581,-969.8 -1581,-899.8 -1507.5,-899.8 
		-1498.5,-899.8 -1498.5,-908.9 -1489.4,-908.9 -1489.4,-960.8 	"/>
	<rect x="-1700.3" y="-960.8" class="st31" width="110.3" height="70"/>
</g>
<g>
	<polygon class="st35" points="-1700.3,-899.8 -1700.3,-969.8 -1780.9,-969.8 -1780.9,-960.8 -1790,-960.8 -1790,-908.9 
		-1780.9,-908.9 -1780.9,-899.8 	"/>
	<polygon class="st35" points="-1507.4,-960.8 -1507.4,-969.8 -1516.4,-969.8 -1577.4,-969.8 -1577.4,-899.8 -1516.4,-899.8 
		-1507.4,-899.8 -1507.4,-908.9 -1498.4,-908.9 -1498.4,-960.8 	"/>
</g>
<rect x="-1447.9" y="-583.2" class="st35" width="169" height="78"/>
<rect x="-1713.7" y="-969.8" class="st35" width="151.6" height="70"/>
<g>
	<rect x="-1452.9" y="-551" class="st13" width="179" height="81.8"/>
	<text transform="matrix(1 0 0 1 -1430.8376 -523.3233)" class="st4" style="font-family:'EditUndoBRK'; font-size:48px;">124 KM</text>
</g>
<g>
	<rect x="-567.3" y="-573.2" class="st32" width="8" height="2"/>
	<polygon class="st32" points="-648.4,-573.2 -648.4,-563.1 -658.3,-563.1 -658.3,-505.3 -648.4,-505.3 -648.4,-495.3 
		-648.4,-495.3 -648.4,-495.2 -638.5,-495.2 -638.5,-485.2 -583.3,-485.2 -583.3,-573.2 	"/>
</g>
<polygon class="st31" points="-558.3,-573.2 -558.3,-583.2 -648.3,-583.2 -648.3,-573.1 -658.3,-573.1 -658.3,-515.3 -648.3,-515.3 
	-648.3,-505.3 -648.3,-505.3 -648.3,-505.2 -638.3,-505.2 -638.3,-495.2 -548.3,-495.2 -548.3,-573.2 "/>
<g>
	<g>
		<g>
			<polygon class="st2" points="-588.3,-561.7 -593.6,-561.7 -626.1,-561.7 -626.1,-556.4 -631.4,-556.4 -631.4,-518.5 
				-626.1,-518.5 -626.1,-513.2 -593.6,-513.2 -588.3,-513.2 -588.3,-518.5 -582.9,-518.5 -582.9,-556.4 -588.3,-556.4 			"/>
			<polygon class="st3" points="-588,-567.4 -593.4,-567.4 -626.1,-567.4 -626.1,-562.1 -631.4,-562.1 -631.4,-524 -626.1,-524 
				-626.1,-518.6 -593.4,-518.6 -588,-518.6 -588,-524 -582.6,-524 -582.6,-562.1 -588,-562.1 			"/>
		</g>
		<g>
			<rect x="-618.5" y="-538.3" class="st4" width="24.2" height="4.8"/>
			<rect x="-618.5" y="-549.5" class="st4" width="24.2" height="4.8"/>
		</g>
	</g>
	<g class="st33">
		<polygon class="st36" points="-626.1,-513.1 -626.1,-508.1 -620.7,-508.1 -588,-508.1 -588,-513.1 -620.7,-513.1 		"/>
		<rect x="-631.4" y="-518.4" class="st36" width="5.4" height="5"/>
		<rect x="-588" y="-518.4" class="st36" width="5.4" height="5"/>
	</g>
</g>
<g>
	<g>
		<g>
			<polygon class="st2" points="-1234.8,-951.2 -1238.9,-951.2 -1264.3,-951.2 -1264.3,-947 -1268.4,-947 -1268.4,-917.5 
				-1264.3,-917.5 -1264.3,-913.4 -1238.9,-913.4 -1234.8,-913.4 -1234.8,-917.5 -1230.6,-917.5 -1230.6,-947 -1234.8,-947 			"/>
			<polygon class="st3" points="-1234.6,-955.7 -1238.8,-955.7 -1264.2,-955.7 -1264.2,-951.5 -1268.4,-951.5 -1268.4,-921.8 
				-1264.2,-921.8 -1264.2,-917.6 -1238.8,-917.6 -1234.6,-917.6 -1234.6,-921.8 -1230.4,-921.8 -1230.4,-951.5 -1234.6,-951.5 			
				"/>
		</g>
		<g>
			
				<rect x="-1263.7" y="-938.3" transform="matrix(-1.836970e-16 1 -1 -1.836970e-16 -2190.7363 317.8403)" class="st4" width="18.9" height="3.8"/>
			
				<rect x="-1253" y="-938.3" transform="matrix(-1.836970e-16 1 -1 -1.836970e-16 -2180.0339 307.1378)" class="st4" width="18.9" height="3.8"/>
		</g>
	</g>
	<g class="st33">
		<polygon class="st36" points="-1264.2,-913.3 -1264.2,-909.4 -1260.1,-909.4 -1234.6,-909.4 -1234.6,-913.3 -1260.1,-913.3 		"/>
		<rect x="-1268.4" y="-917.5" class="st36" width="4.2" height="3.9"/>
		<rect x="-1234.6" y="-917.5" class="st36" width="4.2" height="3.9"/>
	</g>
</g>
<polygon class="st23" points="-2059.9,-825.9 -2059.9,-829.7 -2069.5,-829.7 -2069.9,-829.7 -2079.2,-829.7 -2079.5,-829.7 
	-2088.8,-829.7 -2089.2,-829.7 -2098.8,-829.7 -2098.8,-825.9 -2103.6,-825.9 -2103.6,-820.5 -2098.8,-820.5 -2098.8,-816.8 
	-2098.5,-816.8 -2094.3,-816.8 -2093.5,-816.8 -2089.3,-816.8 -2089.2,-816.8 -2088.9,-816.8 -2088.8,-816.8 -2084.7,-816.8 
	-2083.9,-816.8 -2079.7,-816.8 -2079.5,-816.8 -2079.3,-816.8 -2079.2,-816.8 -2075.1,-816.8 -2074.3,-816.8 -2070.1,-816.8 
	-2069.9,-816.8 -2069.7,-816.8 -2069.5,-816.8 -2065.5,-816.8 -2064.6,-816.8 -2060.4,-816.8 -2059.9,-816.8 -2059.9,-820.5 
	-2055.4,-820.5 -2055.4,-825.9 "/>
<polygon class="st23" points="-2053.2,-1062.8 -2053.2,-1066.5 -2062.8,-1066.5 -2063.2,-1066.5 -2072.4,-1066.5 -2072.8,-1066.5 
	-2082.1,-1066.5 -2082.4,-1066.5 -2092.1,-1066.5 -2092.1,-1062.8 -2096.8,-1062.8 -2096.8,-1057.4 -2092.1,-1057.4 
	-2092.1,-1053.6 -2091.8,-1053.6 -2087.6,-1053.6 -2086.8,-1053.6 -2082.6,-1053.6 -2082.4,-1053.6 -2082.2,-1053.6 
	-2082.1,-1053.6 -2078,-1053.6 -2077.2,-1053.6 -2073,-1053.6 -2072.8,-1053.6 -2072.6,-1053.6 -2072.4,-1053.6 -2068.4,-1053.6 
	-2067.5,-1053.6 -2063.3,-1053.6 -2063.2,-1053.6 -2062.9,-1053.6 -2062.8,-1053.6 -2058.7,-1053.6 -2057.9,-1053.6 
	-2053.7,-1053.6 -2053.2,-1053.6 -2053.2,-1057.3 -2048.7,-1057.3 -2048.7,-1062.8 "/>
<polygon class="st37" points="-1899.3,-1062.8 -1899.3,-1066.5 -1908.9,-1066.5 -1909.3,-1066.5 -1918.6,-1066.5 -1918.9,-1066.5 
	-1928.2,-1066.5 -1928.6,-1066.5 -1937.6,-1066.5 -1938.2,-1066.5 -1947.2,-1066.5 -1947.6,-1066.5 -1956.9,-1066.5 
	-1957.2,-1066.5 -1966.5,-1066.5 -1966.9,-1066.5 -1976.1,-1066.5 -1976.5,-1066.5 -1985.8,-1066.5 -1986.1,-1066.5 
	-1995.4,-1066.5 -1995.8,-1066.5 -2005,-1066.5 -2005.4,-1066.5 -2014.7,-1066.5 -2015,-1066.5 -2024.3,-1066.5 -2024.7,-1066.5 
	-2033.9,-1066.5 -2034.3,-1066.5 -2043.5,-1066.5 -2043.9,-1066.5 -2053.2,-1066.5 -2053.6,-1066.5 -2062.8,-1066.5 
	-2063.2,-1066.5 -2072.4,-1066.5 -2072.8,-1066.5 -2082.1,-1066.5 -2082.4,-1066.5 -2092.1,-1066.5 -2092.1,-1062.8 
	-2096.8,-1062.8 -2096.8,-1057.4 -2092.1,-1057.4 -2092.1,-1053.6 -2091.8,-1053.6 -2087.6,-1053.6 -2086.8,-1053.6 
	-2082.6,-1053.6 -2082.4,-1053.6 -2082.2,-1053.6 -2082.1,-1053.6 -2078,-1053.6 -2077.2,-1053.6 -2073,-1053.6 -2072.8,-1053.6 
	-2072.6,-1053.6 -2072.4,-1053.6 -2068.4,-1053.6 -2067.5,-1053.6 -2063.3,-1053.6 -2063.2,-1053.6 -2062.9,-1053.6 
	-2062.8,-1053.6 -2058.7,-1053.6 -2057.9,-1053.6 -2053.7,-1053.6 -2053.6,-1053.6 -2053.3,-1053.6 -2053.2,-1053.6 
	-2049.1,-1053.6 -2048.3,-1053.6 -2044.1,-1053.6 -2043.9,-1053.6 -2043.7,-1053.6 -2043.5,-1053.6 -2039.5,-1053.6 
	-2038.6,-1053.6 -2034.4,-1053.6 -2034.3,-1053.6 -2034,-1053.6 -2033.9,-1053.6 -2029.8,-1053.6 -2029,-1053.6 -2024.8,-1053.6 
	-2024.7,-1053.6 -2024.4,-1053.6 -2024.3,-1053.6 -2020.2,-1053.6 -2019.4,-1053.6 -2015.2,-1053.6 -2015,-1053.6 -2014.8,-1053.6 
	-2014.7,-1053.6 -2010.6,-1053.6 -2009.8,-1053.6 -2005.5,-1053.6 -2005.4,-1053.6 -2005.2,-1053.6 -2005,-1053.6 -2000.9,-1053.6 
	-2000.1,-1053.6 -1995.9,-1053.6 -1995.8,-1053.6 -1995.5,-1053.6 -1995.4,-1053.6 -1991.3,-1053.6 -1990.5,-1053.6 
	-1986.3,-1053.6 -1986.1,-1053.6 -1985.9,-1053.6 -1985.8,-1053.6 -1981.7,-1053.6 -1980.9,-1053.6 -1976.7,-1053.6 
	-1976.5,-1053.6 -1976.3,-1053.6 -1976.1,-1053.6 -1972.1,-1053.6 -1971.2,-1053.6 -1967,-1053.6 -1966.9,-1053.6 -1966.6,-1053.6 
	-1966.5,-1053.6 -1962.4,-1053.6 -1961.6,-1053.6 -1957.4,-1053.6 -1957.2,-1053.6 -1957,-1053.6 -1956.9,-1053.6 -1952.8,-1053.6 
	-1952,-1053.6 -1947.8,-1053.6 -1947.6,-1053.6 -1947.4,-1053.6 -1947.2,-1053.6 -1943.2,-1053.6 -1942.3,-1053.6 -1938.2,-1053.6 
	-1938.1,-1053.6 -1938,-1053.6 -1937.6,-1053.6 -1933.8,-1053.6 -1932.9,-1053.6 -1928.7,-1053.6 -1928.6,-1053.6 -1928.3,-1053.6 
	-1928.2,-1053.6 -1924.1,-1053.6 -1923.3,-1053.6 -1919.1,-1053.6 -1918.9,-1053.6 -1918.7,-1053.6 -1918.6,-1053.6 
	-1914.5,-1053.6 -1913.7,-1053.6 -1909.5,-1053.6 -1909.3,-1053.6 -1909.1,-1053.6 -1908.9,-1053.6 -1904.9,-1053.6 -1904,-1053.6 
	-1899.8,-1053.6 -1899.3,-1053.6 -1899.3,-1057.3 -1894.8,-1057.3 -1894.8,-1062.8 "/>
<g>
	<polygon class="st31" points="-348.3,315.8 -343,315.8 -330.1,315.8 -330.1,304.5 -317.2,304.5 -317.2,293.2 -304.3,293.2 
		-304.3,281.9 -304.3,268.5 -278.5,268.5 -278.5,270.6 -278.5,281.9 -278.5,315.8 -278.5,327.1 -278.5,338.4 -304.3,338.4 
		-348.3,338.4 	"/>
</g>
<g>
	<polygon class="st31" points="-282.1,268.6 -282.1,273.9 -282.1,286.8 -270.8,286.8 -270.8,299.7 -259.5,299.7 -259.5,312.6 
		-248.2,312.6 -234.9,312.6 -234.9,338.4 -236.9,338.4 -248.2,338.4 -282.1,338.4 -293.4,338.4 -304.7,338.4 -304.7,312.6 
		-304.7,268.6 	"/>
</g>
<g>
	<polygon class="st31" points="-334.3,315.8 -334.3,321.1 -334.3,334 -323,334 -323,346.9 -311.7,346.9 -311.7,359.8 -300.4,359.8 
		-287,359.8 -287,385.6 -289.1,385.6 -300.4,385.6 -334.3,385.6 -345.6,385.6 -356.9,385.6 -356.9,359.8 -356.9,315.8 	"/>
</g>
<g>
	<polygon class="st31" points="-415.5,315.8 -420.8,315.8 -433.7,315.8 -433.7,304.5 -446.6,304.5 -446.6,293.2 -459.5,293.2 
		-459.5,281.9 -459.5,268.5 -485.3,268.5 -485.3,270.6 -485.3,281.9 -485.3,315.8 -485.3,327.1 -485.3,338.4 -459.5,338.4 
		-415.5,338.4 	"/>
</g>
<g>
	<polygon class="st31" points="-360.1,363 -365.4,363 -378.3,363 -378.3,351.7 -391.2,351.7 -391.2,340.4 -404.1,340.4 
		-404.1,329.1 -404.1,315.7 -429.9,315.7 -429.9,317.8 -429.9,329.1 -429.9,363 -429.9,374.3 -429.9,385.6 -404.1,385.6 
		-360.1,385.6 	"/>
</g>
<g>
	<polygon class="st31" points="-482.5,279.4 -482.5,284.7 -482.5,297.6 -493.8,297.6 -493.8,310.5 -505.1,310.5 -505.1,323.4 
		-516.4,323.4 -529.8,323.4 -529.8,349.2 -527.7,349.2 -516.4,349.2 -482.5,349.2 -471.2,349.2 -459.9,349.2 -459.9,323.4 
		-459.9,279.4 	"/>
</g>
<polygon class="st32" points="-1308.6,-942.9 -1308.6,-951.9 -1308.7,-951.9 -1308.7,-951.9 -1317.6,-951.9 -1317.6,-960.9 
	-1345.5,-960.9 -1352.7,-960.9 -1367,-960.9 -1425.4,-960.9 -1425.4,-951.9 -1434.3,-951.9 -1434.3,-899.9 -1425.5,-899.9 
	-1425.5,-891 -1425.4,-891 -1425.4,-890.9 -1416.5,-890.9 -1416.5,-881.9 -1367,-881.9 -1366.2,-881.9 -1366.2,-890.9 
	-1344.5,-890.9 -1344.5,-881.9 -1308.7,-881.9 -1308.7,-891 -1299.7,-891 -1299.7,-942.9 "/>
<polygon class="st31" points="-1344.6,-960.9 -1344.6,-969.9 -1425.3,-969.9 -1425.3,-960.8 -1434.3,-960.8 -1434.3,-908.9 
	-1425.4,-908.9 -1425.4,-899.9 -1425.3,-899.9 -1425.3,-899.9 -1416.3,-899.9 -1416.3,-890.9 -1335.6,-890.9 -1335.6,-960.9 "/>
<g>
	<polygon class="st7" points="778.1,-526.2 761.6,-526.2 761.6,-534.2 745.1,-534.2 745.1,-542.9 33,-542.9 33,-534.2 16.5,-534.2 
		16.5,-526.2 0,-526.2 0,-58.3 16.5,-58.3 16.5,-50.3 33,-50.3 33,-41.6 745.1,-41.6 745.1,-50.3 761.6,-50.3 761.6,-58.3 
		778.1,-58.3 	"/>
	<polygon class="st8" points="778.1,-534.4 761.6,-534.4 761.6,-542.4 745.1,-542.4 745.1,-551.1 33,-551.1 33,-542.4 16.5,-542.4 
		16.5,-534.4 0,-534.4 0,-66.5 16.5,-66.5 16.5,-58.6 33,-58.6 33,-49.8 745.1,-49.8 745.1,-58.6 761.6,-58.6 761.6,-66.5 
		778.1,-66.5 	"/>
</g>
<g>
	<g>
		<polygon class="st20" points="854.7,-428 854.7,-251 868.2,-251 868.2,-240.7 881.7,-240.7 881.7,-229.4 1463.3,-229.4 
			1463.3,-240.7 1476.8,-240.7 1476.8,-251 1490.3,-251 1490.3,-428 		"/>
		<polygon class="st20" points="1490.3,-428 1490.3,-529.9 1476.8,-529.9 1476.8,-540.2 1463.3,-540.2 1463.3,-551.5 881.7,-551.5 
			881.7,-540.2 868.2,-540.2 868.2,-529.9 854.7,-529.9 854.7,-428 		"/>
	</g>
	<g>
		<polygon class="st21" points="868.2,-529.8 881.7,-529.8 881.7,-540.2 868.2,-540.2 868.2,-529.9 854.7,-529.9 854.7,-519.5 
			868.2,-519.5 		"/>
		<rect x="881.7" y="-551.5" class="st21" width="581.6" height="10.4"/>
		<polygon class="st21" points="1476.8,-529.9 1476.8,-540.2 1463.3,-540.2 1463.3,-529.8 1476.8,-529.8 1476.8,-519.5 
			1490.3,-519.5 1490.3,-529.9 		"/>
	</g>
</g>
<g>
	<polygon class="st2" points="272.5,6.9 265.6,6.9 6.9,6.9 6.9,13.8 0,13.8 0,53.8 6.9,53.8 6.9,60.7 265.6,60.7 272.5,60.7 
		272.5,53.8 279.5,53.8 279.5,13.8 272.5,13.8 	"/>
	<polygon class="st3" points="272.5,0 265.6,0 6.9,0 6.9,6.9 0,6.9 0,46.9 6.9,46.9 6.9,53.8 265.6,53.8 272.5,53.8 272.5,46.9 
		279.5,46.9 279.5,6.9 272.5,6.9 	"/>
	<g>
		<path class="st4" d="M50.6,35.1H38.7V16h11.9v2.4H53v4.8h-2.4v4.8H53v4.8h-2.4V35.1z M43.5,23.2h4.8v-2.4h-4.8V23.2z M43.5,30.3
			h4.8v-2.4h-4.8V30.3z"/>
		<path class="st4" d="M60.2,35.1h-4.8V18.4h2.4V16h9.5v2.4h2.4v16.7h-4.8v-7.2h-4.8V35.1z M64.9,23.2v-2.4h-4.8v2.4H64.9z"/>
		<path class="st4" d="M72.1,18.4h2.4V16h11.9v4.8h-9.5v9.5h9.5v4.8H74.5v-2.4h-2.4V18.4z"/>
		<path class="st4" d="M93.6,35.1h-4.8V16h4.8v4.8h2.4v-2.4h2.4V16h4.8v4.8h-2.4v2.4h-2.4v4.8h2.4v2.4h2.4v4.8h-4.8v-2.4h-2.4v-2.4
			h-2.4V35.1z"/>
		<path class="st4" d="M122.2,16h14.3v4.8h-4.8v14.3h-4.8V20.8h-4.8V16z"/>
		<path class="st4" d="M138.9,18.4h2.4V16h9.5v2.4h2.4v14.3h-2.4v2.4h-9.5v-2.4h-2.4V18.4z M143.6,30.3h4.8v-9.5h-4.8V30.3z"/>
		<path class="st4" d="M177,35.1h-4.8V16h4.8v2.4h2.4v2.4h2.4v-2.4h2.4V16h4.8v19.1h-4.8v-9.5h-2.4v2.4h-2.4v-2.4H177V35.1z"/>
		<path class="st4" d="M193.7,32.7h-2.4V18.4h2.4V16h11.9v4.8h-9.5v2.4h4.8v4.8h-4.8v2.4h9.5v4.8h-11.9V32.7z"/>
		<path class="st4" d="M215.2,25.6h-2.4v9.5H208V16h4.8v2.4h2.4v2.4h2.4V16h4.8v19.1h-4.8v-7.2h-2.4V25.6z"/>
		<path class="st4" d="M224.7,16h4.8v14.3h4.8V16h4.8v16.7h-2.4v2.4h-9.5v-2.4h-2.4V16z"/>
	</g>
</g>
<g>
	<polygon class="st2" points="771.2,87.5 764.2,87.5 505.6,87.5 505.6,94.4 498.6,94.4 498.6,134.4 505.6,134.4 505.6,141.3 
		764.2,141.3 771.2,141.3 771.2,134.4 778.1,134.4 778.1,94.4 771.2,94.4 	"/>
	<polygon class="st2" points="771.2,87.6 764.2,87.6 505.6,87.6 505.6,94.5 498.6,94.5 498.6,134.5 505.6,134.5 505.6,141.4 
		764.2,141.4 771.2,141.4 771.2,134.5 778.1,134.5 778.1,94.5 771.2,94.5 	"/>
	<g>
		<path class="st4" d="M563.6,103.6h14.3v4.8h-4.8v14.3h-4.8v-14.3h-4.8V103.6z"/>
		<path class="st4" d="M587.4,115.5H585v7.2h-4.8v-19.1h11.9v2.4h2.4v7.2h-2.4v2.4h2.4v7.2h-4.8v-4.8h-2.4V115.5z M585,110.8h4.8
			v-2.4H585V110.8z"/>
		<path class="st4" d="M596.9,103.6h4.8v7.2h4.8v-7.2h4.8v9.5h-2.4v2.4h-2.4v7.2h-4.8v-7.2h-2.4v-2.4h-2.4V103.6z"/>
		<path class="st4" d="M635.1,122.7h-4.8V106h2.4v-2.4h9.5v2.4h2.4v16.7h-4.8v-7.2h-4.8V122.7z M639.9,110.8v-2.4h-4.8v2.4H639.9z"
			/>
		<path class="st4" d="M649.4,120.3H647V106h2.4v-2.4h11.9v4.8h-9.5v9.5h4.8v-2.4h-2.4v-4.8h7.2v11.9h-11.9V120.3z"/>
		<path class="st4" d="M668.5,122.7h-4.8V106h2.4v-2.4h9.5v2.4h2.4v16.7h-4.8v-7.2h-4.8V122.7z M673.2,110.8v-2.4h-4.8v2.4H673.2z"
			/>
		<path class="st4" d="M680.4,103.6h14.3v4.8h-4.8v9.5h4.8v4.8h-14.3v-4.8h4.8v-9.5h-4.8V103.6z"/>
		<path class="st4" d="M704.2,113.1h-2.4v9.5h-4.8v-19.1h4.8v2.4h2.4v2.4h2.4v-4.8h4.8v19.1h-4.8v-7.2h-2.4V113.1z"/>
	</g>
</g>
<g>
	<polygon class="st2" points="771.2,4.5 764.2,4.5 505.6,4.5 505.6,11.4 498.6,11.4 498.6,51.4 505.6,51.4 505.6,58.3 764.2,58.3 
		771.2,58.3 771.2,51.4 778.1,51.4 778.1,11.4 771.2,11.4 	"/>
	<polygon class="st3" points="771.2,-2.4 764.2,-2.4 505.6,-2.4 505.6,4.5 498.6,4.5 498.6,44.5 505.6,44.5 505.6,51.4 764.2,51.4 
		771.2,51.4 771.2,44.5 778.1,44.5 778.1,4.5 771.2,4.5 	"/>
	<g>
		<path class="st4" d="M563.6,13.6h14.3v4.8h-4.8v14.3h-4.8V18.4h-4.8V13.6z"/>
		<path class="st4" d="M587.4,25.5H585v7.2h-4.8V13.6h11.9V16h2.4v7.2h-2.4v2.4h2.4v7.2h-4.8v-4.8h-2.4V25.5z M585,20.8h4.8v-2.4
			H585V20.8z"/>
		<path class="st4" d="M596.9,13.6h4.8v7.2h4.8v-7.2h4.8v9.5h-2.4v2.4h-2.4v7.2h-4.8v-7.2h-2.4v-2.4h-2.4V13.6z"/>
		<path class="st4" d="M635.1,32.7h-4.8V16h2.4v-2.4h9.5V16h2.4v16.7h-4.8v-7.2h-4.8V32.7z M639.9,20.8v-2.4h-4.8v2.4H639.9z"/>
		<path class="st4" d="M649.4,30.3H647V16h2.4v-2.4h11.9v4.8h-9.5v9.5h4.8v-2.4h-2.4v-4.8h7.2v11.9h-11.9V30.3z"/>
		<path class="st4" d="M668.5,32.7h-4.8V16h2.4v-2.4h9.5V16h2.4v16.7h-4.8v-7.2h-4.8V32.7z M673.2,20.8v-2.4h-4.8v2.4H673.2z"/>
		<path class="st4" d="M680.4,13.6h14.3v4.8h-4.8v9.5h4.8v4.8h-14.3v-4.8h4.8v-9.5h-4.8V13.6z"/>
		<path class="st4" d="M704.2,23.1h-2.4v9.5h-4.8V13.6h4.8V16h2.4v2.4h2.4v-4.8h4.8v19.1h-4.8v-7.2h-2.4V23.1z"/>
	</g>
</g>
<g>
	<polygon class="st2" points="272.5,87.9 265.6,87.9 6.9,87.9 6.9,94.8 0,94.8 0,134.8 6.9,134.8 6.9,141.7 265.6,141.7 
		272.5,141.7 272.5,134.8 279.5,134.8 279.5,94.8 272.5,94.8 	"/>
	<polygon class="st2" points="272.5,88 265.6,88 6.9,88 6.9,94.9 0,94.9 0,134.9 6.9,134.9 6.9,141.8 265.6,141.8 272.5,141.8 
		272.5,134.9 279.5,134.9 279.5,94.9 272.5,94.9 	"/>
	<g>
		<path class="st4" d="M50.6,123.1H38.7V104h11.9v2.4H53v4.8h-2.4v4.8H53v4.8h-2.4V123.1z M43.5,111.2h4.8v-2.4h-4.8V111.2z
			 M43.5,118.3h4.8v-2.4h-4.8V118.3z"/>
		<path class="st4" d="M60.2,123.1h-4.8v-16.7h2.4V104h9.5v2.4h2.4v16.7h-4.8v-7.2h-4.8V123.1z M64.9,111.2v-2.4h-4.8v2.4H64.9z"/>
		<path class="st4" d="M72.1,106.4h2.4V104h11.9v4.8h-9.5v9.5h9.5v4.8H74.5v-2.4h-2.4V106.4z"/>
		<path class="st4" d="M93.6,123.1h-4.8V104h4.8v4.8h2.4v-2.4h2.4V104h4.8v4.8h-2.4v2.4h-2.4v4.8h2.4v2.4h2.4v4.8h-4.8v-2.4h-2.4
			v-2.4h-2.4V123.1z"/>
		<path class="st4" d="M122.2,104h14.3v4.8h-4.8v14.3h-4.8v-14.3h-4.8V104z"/>
		<path class="st4" d="M138.9,106.4h2.4V104h9.5v2.4h2.4v14.3h-2.4v2.4h-9.5v-2.4h-2.4V106.4z M143.6,118.3h4.8v-9.5h-4.8V118.3z"/>
		<path class="st4" d="M177,123.1h-4.8V104h4.8v2.4h2.4v2.4h2.4v-2.4h2.4V104h4.8v19.1h-4.8v-9.5h-2.4v2.4h-2.4v-2.4H177V123.1z"/>
		<path class="st4" d="M193.7,120.7h-2.4v-14.3h2.4V104h11.9v4.8h-9.5v2.4h4.8v4.8h-4.8v2.4h9.5v4.8h-11.9V120.7z"/>
		<path class="st4" d="M215.2,113.6h-2.4v9.5H208V104h4.8v2.4h2.4v2.4h2.4V104h4.8v19.1h-4.8v-7.2h-2.4V113.6z"/>
		<path class="st4" d="M224.7,104h4.8v14.3h4.8V104h4.8v16.7h-2.4v2.4h-9.5v-2.4h-2.4V104z"/>
	</g>
</g>
<g>
	<path class="st4" d="M-3497.9,791.2h-1.3v3.9h-2.6v-10.4h6.5v1.3h1.3v3.9h-1.3v1.3h1.3v3.9h-2.6v-2.6h-1.3V791.2z M-3499.2,788.6
		h2.6v-1.3h-2.6V788.6z"/>
	<path class="st4" d="M-3491.4,793.8h-1.3V786h1.3v-1.3h6.5v2.6h-5.2v1.3h2.6v2.6h-2.6v1.3h5.2v2.6h-6.5V793.8z"/>
	<path class="st4" d="M-3481,795.1h-2.6V786h1.3v-1.3h5.2v1.3h1.3v9.1h-2.6v-3.9h-2.6V795.1z M-3478.4,788.6v-1.3h-2.6v1.3H-3478.4z
		"/>
	<path class="st4" d="M-3469.4,795.1h-5.2v-10.4h5.2v1.3h1.3v1.3h1.3v5.2h-1.3v1.3h-1.3V795.1z M-3470.7,787.3h-1.3v5.2h1.3v-1.3
		h1.3v-2.6h-1.3V787.3z"/>
	<path class="st4" d="M-3465.5,784.7h2.6v3.9h2.6v-3.9h2.6v5.2h-1.3v1.3h-1.3v3.9h-2.6v-3.9h-1.3v-1.3h-1.3V784.7z"/>
	<path class="st4" d="M-3447.3,784.7h7.8v2.6h-2.6v7.8h-2.6v-7.8h-2.6V784.7z"/>
	<path class="st4" d="M-3438.3,786h1.3v-1.3h5.2v1.3h1.3v7.8h-1.3v1.3h-5.2v-1.3h-1.3V786z M-3435.7,792.5h2.6v-5.2h-2.6V792.5z"/>
	<path class="st4" d="M-3418.8,793.8h-1.3V786h1.3v-1.3h6.5v2.6h-5.2v5.2h2.6v-1.3h-1.3v-2.6h3.9v6.5h-6.5V793.8z"/>
	<path class="st4" d="M-3411,786h1.3v-1.3h5.2v1.3h1.3v7.8h-1.3v1.3h-5.2v-1.3h-1.3V786z M-3408.4,792.5h2.6v-5.2h-2.6V792.5z"/>
	<path class="st4" d="M-3402,784.7h2.6v6.5h-2.6V784.7z M-3402,792.5h2.6v2.6h-2.6V792.5z"/>
</g>
<g>
	<path class="st4" d="M-3497.9,751.2h-1.3v3.9h-2.6v-10.4h6.5v1.3h1.3v3.9h-1.3v1.3h1.3v3.9h-2.6v-2.6h-1.3V751.2z M-3499.2,748.6
		h2.6v-1.3h-2.6V748.6z"/>
	<path class="st4" d="M-3491.4,753.8h-1.3V746h1.3v-1.3h6.5v2.6h-5.2v1.3h2.6v2.6h-2.6v1.3h5.2v2.6h-6.5V753.8z"/>
	<path class="st4" d="M-3481,755.1h-2.6V746h1.3v-1.3h5.2v1.3h1.3v9.1h-2.6v-3.9h-2.6V755.1z M-3478.4,748.6v-1.3h-2.6v1.3H-3478.4z
		"/>
	<path class="st4" d="M-3469.4,755.1h-5.2v-10.4h5.2v1.3h1.3v1.3h1.3v5.2h-1.3v1.3h-1.3V755.1z M-3470.7,747.3h-1.3v5.2h1.3v-1.3
		h1.3v-2.6h-1.3V747.3z"/>
	<path class="st4" d="M-3465.5,744.7h2.6v3.9h2.6v-3.9h2.6v5.2h-1.3v1.3h-1.3v3.9h-2.6v-3.9h-1.3v-1.3h-1.3V744.7z"/>
	<path class="st4" d="M-3447.3,744.7h7.8v2.6h-2.6v7.8h-2.6v-7.8h-2.6V744.7z"/>
	<path class="st4" d="M-3438.3,746h1.3v-1.3h5.2v1.3h1.3v7.8h-1.3v1.3h-5.2v-1.3h-1.3V746z M-3435.7,752.5h2.6v-5.2h-2.6V752.5z"/>
	<path class="st4" d="M-3418.8,753.8h-1.3V746h1.3v-1.3h6.5v2.6h-5.2v5.2h2.6v-1.3h-1.3v-2.6h3.9v6.5h-6.5V753.8z"/>
	<path class="st4" d="M-3411,746h1.3v-1.3h5.2v1.3h1.3v7.8h-1.3v1.3h-5.2v-1.3h-1.3V746z M-3408.4,752.5h2.6v-5.2h-2.6V752.5z"/>
	<path class="st4" d="M-3402,744.7h2.6v6.5h-2.6V744.7z M-3402,752.5h2.6v2.6h-2.6V752.5z"/>
</g>
</svg>
