<?xml version="1.0" encoding="utf-8"?>
<!-- Generator: Adobe Illustrator 22.0.1, SVG Export Plug-In . SVG Version: 6.00 Build 0)  -->
<svg version="1.1" id="Layer_1" xmlns="http://www.w3.org/2000/svg" xmlns:xlink="http://www.w3.org/1999/xlink" x="0px" y="0px"
	 width="279.5px" height="60.5px" viewBox="0 0 279.5 60.5" style="enable-background:new 0 0 279.5 60.5;" xml:space="preserve">
<style type="text/css">
	.st0{fill:#5895B7;}
	.st1{opacity:0.8;}
	.st2{fill:#C17620;}
	.st3{fill:#F4C24A;}
	.st4{fill:#FFFFFF;}
	.st5{fill:#2A6FBA;}
	.st6{fill:#4ABAEF;}
	.st7{fill:#95C9C8;}
	.st8{fill:#DDEFEE;}
	.st9{fill:#1B8E6F;}
	.st10{fill:#3CEA8A;}
	.st11{opacity:0.4;fill:#666666;}
	.st12{fill:#33BC6E;}
	.st13{fill:none;}
	.st14{fill:#7149A4;}
	.st15{fill:#BD86E0;}
	.st16{opacity:0.4;fill:#666666;stroke:#666666;stroke-width:4;stroke-linejoin:bevel;stroke-miterlimit:10;}
	.st17{fill:#F2F2F2;}
	.st18{fill:#E6E6E6;}
	.st19{fill:none;stroke:#000000;stroke-width:4;stroke-linejoin:bevel;stroke-miterlimit:10;}
	.st20{fill:#C6E0DE;}
	.st21{fill:#A7C6C3;}
	.st22{fill:#910E46;}
	.st23{fill:#EE3D53;}
	.st24{fill:none;stroke:#000000;stroke-width:2;stroke-miterlimit:10;}
	.st25{fill:#A17559;}
	.st26{fill:#238D6F;}
	.st27{fill:#704CA2;}
	.st28{fill:#47E88D;}
	.st29{fill:#BC88DE;}
	.st30{fill:#CCCCCC;}
	.st31{fill:#5B2616;}
	.st32{opacity:0.38;fill:#2D3D3E;}
	.st33{opacity:0.38;}
	.st34{fill:#2D3D3E;}
	.st35{fill:#3F180F;}
	.st36{fill:#1A1A1A;}
	.st37{fill:#38140C;}
</style>
<g>
	<rect x="-3173.5" y="1157.5" class="st0" width="484" height="82"/>
	<rect x="-2721.5" y="1231.5" class="st0" width="107" height="30"/>
	<g class="st1">
		<g>
			<polygon class="st0" points="-3157.5,1177.5 -3157.5,1259.5 -3253.5,1259.5 -3253.5,1248.5 -3241.5,1248.5 -3241.5,1236.5 
				-3229.5,1236.5 -3229.5,1224.5 -3217.5,1224.5 -3217.5,1212.5 -3229.5,1212.5 -3229.5,1200.5 -3241.5,1200.5 -3241.5,1188.5 
				-3253.5,1188.5 -3253.5,1177.5 			"/>
		</g>
		<polygon class="st0" points="-3171.5,1235.5 -3157.5,1258.5 -3157.5,1235.5 		"/>
	</g>
	<g>
		<g>
			<polygon class="st2" points="-2710.5,1169.5 -2710.5,1251.5 -2614.5,1251.5 -2614.5,1240.5 -2626.5,1240.5 -2626.5,1228.5 
				-2638.5,1228.5 -2638.5,1216.5 -2650.5,1216.5 -2650.5,1204.5 -2638.5,1204.5 -2638.5,1192.5 -2626.5,1192.5 -2626.5,1180.5 
				-2614.5,1180.5 -2614.5,1169.5 			"/>
			<polygon class="st3" points="-2710.5,1158.5 -2710.5,1240.5 -2614.5,1240.5 -2614.5,1229.5 -2626.5,1229.5 -2626.5,1217.5 
				-2638.5,1217.5 -2638.5,1205.5 -2650.5,1205.5 -2650.5,1193.5 -2638.5,1193.5 -2638.5,1181.5 -2626.5,1181.5 -2626.5,1169.5 
				-2614.5,1169.5 -2614.5,1158.5 			"/>
		</g>
		<polygon class="st2" points="-2696.5,1227.5 -2710.5,1250.5 -2710.4,1227.5 		"/>
		<g>
			<g>
				<polygon class="st2" points="-3166.5,1169.5 -3166.5,1251.5 -3262.5,1251.5 -3262.5,1240.5 -3250.5,1240.5 -3250.5,1228.5 
					-3238.5,1228.5 -3238.5,1216.5 -3226.5,1216.5 -3226.5,1204.5 -3238.5,1204.5 -3238.5,1192.5 -3250.5,1192.5 -3250.5,1180.5 
					-3262.5,1180.5 -3262.5,1169.5 				"/>
				<polygon class="st3" points="-3166.5,1158.5 -3166.5,1240.5 -3262.5,1240.5 -3262.5,1229.5 -3250.5,1229.5 -3250.5,1217.5 
					-3238.5,1217.5 -3238.5,1205.5 -3226.5,1205.5 -3226.5,1193.5 -3238.5,1193.5 -3238.5,1181.5 -3250.5,1181.5 -3250.5,1169.5 
					-3262.5,1169.5 -3262.5,1158.5 				"/>
			</g>
			<polygon class="st2" points="-3180.5,1227.5 -3166.5,1250.5 -3166.5,1227.5 			"/>
		</g>
		<g>
			<rect x="-3180.5" y="1145.5" class="st2" width="484" height="82"/>
			<rect x="-3180.5" y="1133.5" class="st3" width="484" height="82"/>
		</g>
	</g>
	<g>
		<path class="st4" d="M-3109.9,1193.3h-8.6v-34.6h8.6v13h8.6v-13h8.6v34.6h-8.6v-13h-8.6V1193.3z"/>
		<path class="st4" d="M-3088.3,1163.1h4.3v-4.3h17.3v4.3h4.3v25.9h-4.3v4.3h-17.3v-4.3h-4.3V1163.1z M-3079.6,1184.7h8.6v-17.3
			h-8.6V1184.7z"/>
		<path class="st4" d="M-3049.4,1193.3h-8.6v-34.6h8.6v17.3h4.3v-4.3h4.3v4.3h4.3v-17.3h8.6v34.6h-8.6v-4.3h-4.3v-4.3h-4.3v4.3h-4.3
			V1193.3z"/>
		<path class="st4" d="M-2993.2,1158.7h25.9v8.6h-8.6v25.9h-8.6v-25.9h-8.6V1158.7z"/>
		<path class="st4" d="M-2963,1163.1h4.3v-4.3h17.3v4.3h4.3v25.9h-4.3v4.3h-17.3v-4.3h-4.3V1163.1z M-2954.4,1184.7h8.6v-17.3h-8.6
			V1184.7z"/>
		<path class="st4" d="M-2893.9,1193.3h-8.6v-34.6h21.6v4.3h4.3v13h-4.3v4.3h-13V1193.3z M-2893.9,1171.7h8.6v-4.3h-8.6V1171.7z"/>
		<path class="st4" d="M-2867.9,1189h-4.3v-30.2h8.6v25.9h17.3v8.6h-21.6V1189z"/>
		<path class="st4" d="M-2833.4,1193.3h-8.6v-30.2h4.3v-4.3h17.3v4.3h4.3v30.2h-8.6v-13h-8.6V1193.3z M-2824.7,1171.7v-4.3h-8.6v4.3
			H-2824.7z"/>
		<path class="st4" d="M-2811.8,1158.7h8.6v13h8.6v-13h8.6v17.3h-4.3v4.3h-4.3v13h-8.6v-13h-4.3v-4.3h-4.3V1158.7z"/>
	</g>
</g>
<polygon class="st5" points="-3004.5,1426.5 -3016.5,1426.5 -3089.5,1426.5 -3089.5,1438.5 -3101.5,1438.5 -3101.5,1523.5 
	-3089.5,1523.5 -3089.5,1535.5 -3016.5,1535.5 -3004.5,1535.5 -3004.5,1523.5 -2992.5,1523.5 -2992.5,1438.5 -3004.5,1438.5 "/>
<polygon class="st5" points="-3004.5,1426.5 -3016.5,1426.5 -3089.5,1426.5 -3089.5,1438.5 -3101.5,1438.5 -3101.5,1523.5 
	-3089.5,1523.5 -3089.5,1535.5 -3016.5,1535.5 -3004.5,1535.5 -3004.5,1523.5 -2992.5,1523.5 -2992.5,1438.5 -3004.5,1438.5 "/>
<g>
	<path class="st4" d="M-3064.9,1460.7h28.4v5.7h5.7v17.1h-5.7v5.7h-17.1v-11.4h11.4v-5.7h-22.8V1460.7z M-3053.5,1494.9h11.4v11.4
		h-11.4V1494.9z"/>
</g>
<polygon class="st5" points="-2853.5,1426.5 -2865.5,1426.5 -2938.5,1426.5 -2938.5,1438.5 -2950.5,1438.5 -2950.5,1523.5 
	-2938.5,1523.5 -2938.5,1535.5 -2865.5,1535.5 -2853.5,1535.5 -2853.5,1523.5 -2841.5,1523.5 -2841.5,1438.5 -2853.5,1438.5 "/>
<polygon class="st6" points="-2853.5,1416.5 -2865.5,1416.5 -2938.5,1416.5 -2938.5,1428.5 -2950.5,1428.5 -2950.5,1513.5 
	-2938.5,1513.5 -2938.5,1525.5 -2865.5,1525.5 -2853.5,1525.5 -2853.5,1513.5 -2841.5,1513.5 -2841.5,1428.5 -2853.5,1428.5 "/>
<g>
	<path class="st4" d="M-2913.9,1450.7h28.4v5.7h5.7v17.1h-5.7v5.7h-17.1v-11.4h11.4v-5.7h-22.8V1450.7z M-2902.5,1484.9h11.4v11.4
		h-11.4V1484.9z"/>
</g>
<g>
	<polygon class="st0" points="-1818.5,1271 -1830.1,1271 -1830.1,1259.4 -1841.6,1259.4 -1841.6,1246.6 -2340.3,1246.6 
		-2340.3,1259.4 -2351.9,1259.4 -2351.9,1271 -2363.5,1271 -2363.5,1955.8 -2351.9,1955.8 -2351.9,1967.4 -2340.3,1967.4 
		-2340.3,1980.2 -1841.6,1980.2 -1841.6,1967.4 -1830.1,1967.4 -1830.1,1955.8 -1818.5,1955.8 	"/>
	<polygon class="st7" points="-1818.5,1259 -1830.1,1259 -1830.1,1247.4 -1841.6,1247.4 -1841.6,1234.6 -2340.3,1234.6 
		-2340.3,1247.4 -2351.9,1247.4 -2351.9,1259 -2363.5,1259 -2363.5,1943.7 -2351.9,1943.7 -2351.9,1955.4 -2340.3,1955.4 
		-2340.3,1968.2 -1841.6,1968.2 -1841.6,1955.4 -1830.1,1955.4 -1830.1,1943.7 -1818.5,1943.7 	"/>
	<polygon class="st8" points="-1818.5,1247 -1830.1,1247 -1830.1,1235.3 -1841.6,1235.3 -1841.6,1222.5 -2340.3,1222.5 
		-2340.3,1235.3 -2351.9,1235.3 -2351.9,1247 -2363.5,1247 -2363.5,1931.7 -2351.9,1931.7 -2351.9,1943.4 -2340.3,1943.4 
		-2340.3,1956.2 -1841.6,1956.2 -1841.6,1943.4 -1830.1,1943.4 -1830.1,1931.7 -1818.5,1931.7 	"/>
</g>
<g>
	<polygon class="st0" points="-3304.5,-721.5 -3308.5,-721.5 -3308.5,-725.6 -3312.6,-725.6 -3312.6,-730.2 -3488.8,-730.2 
		-3488.8,-725.6 -3492.9,-725.6 -3492.9,-721.5 -3497,-721.5 -3497,-479.6 -3492.9,-479.6 -3492.9,-475.5 -3488.8,-475.5 
		-3488.8,-470.9 -3312.6,-470.9 -3312.6,-475.5 -3308.5,-475.5 -3308.5,-479.6 -3304.5,-479.6 	"/>
	<polygon class="st7" points="-3304.5,-725.8 -3308.5,-725.8 -3308.5,-729.9 -3312.6,-729.9 -3312.6,-734.4 -3488.8,-734.4 
		-3488.8,-729.9 -3492.9,-729.9 -3492.9,-725.8 -3497,-725.8 -3497,-483.8 -3492.9,-483.8 -3492.9,-479.7 -3488.8,-479.7 
		-3488.8,-475.2 -3312.6,-475.2 -3312.6,-479.7 -3308.5,-479.7 -3308.5,-483.8 -3304.5,-483.8 	"/>
	<polygon class="st8" points="-3304.5,-730 -3308.5,-730 -3308.5,-734.1 -3312.6,-734.1 -3312.6,-738.7 -3488.8,-738.7 
		-3488.8,-734.1 -3492.9,-734.1 -3492.9,-730 -3497,-730 -3497,-488.1 -3492.9,-488.1 -3492.9,-484 -3488.8,-484 -3488.8,-479.4 
		-3312.6,-479.4 -3312.6,-484 -3308.5,-484 -3308.5,-488.1 -3304.5,-488.1 	"/>
</g>
<g>
	<polygon class="st9" points="-2867.5,906.5 -2877.5,906.5 -3252.4,906.5 -3252.4,916.6 -3262.5,916.6 -3262.5,974.5 -3252.4,974.5 
		-3252.4,984.5 -2877.5,984.5 -2867.5,984.5 -2867.5,974.5 -2857.4,974.5 -2857.4,916.6 -2867.5,916.6 	"/>
	<polygon class="st10" points="-2867.5,896.5 -2877.5,896.5 -3252.4,896.5 -3252.4,906.6 -3262.5,906.6 -3262.5,964.5 
		-3252.4,964.5 -3252.4,974.5 -2877.5,974.5 -2867.5,974.5 -2867.5,964.5 -2857.4,964.5 -2857.4,906.6 -2867.5,906.6 	"/>
	<g>
		<path class="st4" d="M-3142.4,947.4h-6.9v-27.6h17.3v3.5h3.5v10.4h-3.5v3.5h-10.4V947.4z M-3142.4,930.1h6.9v-3.5h-6.9V930.1z"/>
		<path class="st4" d="M-3121.7,944h-3.5v-24.2h6.9v20.7h13.8v6.9h-17.3V944z"/>
		<path class="st4" d="M-3094,947.4h-6.9v-24.2h3.5v-3.5h13.8v3.5h3.5v24.2h-6.9V937h-6.9V947.4z M-3087.1,930.1v-3.5h-6.9v3.5
			H-3087.1z"/>
		<path class="st4" d="M-3076.8,919.8h6.9v10.4h6.9v-10.4h6.9v13.8h-3.5v3.5h-3.5v10.4h-6.9V937h-3.5v-3.5h-3.5V919.8z"/>
		<path class="st4" d="M-3049.1,944h-3.5v-20.7h3.5v-3.5h17.3v6.9h-13.8v3.5h6.9v6.9h-6.9v3.5h13.8v6.9h-17.3V944z"/>
		<path class="st4" d="M-3018,937h-3.5v10.4h-6.9v-27.6h17.3v3.5h3.5v10.4h-3.5v3.5h3.5v10.4h-6.9v-6.9h-3.5V937z M-3021.5,930.1
			h6.9v-3.5h-6.9V930.1z"/>
		<path class="st4" d="M-2980,919.8h6.9v27.6h-6.9V919.8z"/>
	</g>
</g>
<g>
	<polygon class="st11" points="-3228.3,785.9 -3230.3,780.2 -3234.3,768.2 -3252.1,774.2 -3250.2,779.9 -3255.9,781.9 
		-3251.9,793.9 -3246.1,792 -3244.1,797.7 -3232.1,793.7 -3234.1,787.9 	"/>
	<polygon class="st11" points="-3189.5,773.9 -3191.5,768.1 -3195.5,756.1 -3213.3,762.1 -3211.4,767.9 -3217.1,769.8 
		-3213.1,781.9 -3207.3,779.9 -3205.3,785.7 -3193.3,781.6 -3195.3,775.8 	"/>
	<rect x="-3249.1" y="726.9" transform="matrix(0.9472 -0.3207 0.3207 0.9472 -410.784 -1001.501)" width="7.1" height="38.6"/>
	<polygon points="-3229.9,781.1 -3231.9,775.4 -3236,763.3 -3253.7,769.4 -3251.8,775.1 -3257.6,777.1 -3253.5,789.1 -3247.7,787.2 
		-3245.8,792.9 -3233.8,788.9 -3235.7,783.1 	"/>
	<rect x="-3210.6" y="713.9" transform="matrix(0.9472 -0.3207 0.3207 0.9472 -404.574 -989.8513)" width="7.1" height="38.6"/>
	<polygon points="-3191.5,768.1 -3193.4,762.3 -3197.5,750.3 -3215.3,756.3 -3213.3,762.1 -3219.1,764.1 -3215,776.1 -3209.3,774.1 
		-3207.3,779.9 -3195.3,775.8 -3197.2,770.1 	"/>
	<rect x="-3259.1" y="704.6" transform="matrix(0.9472 -0.3207 0.3207 0.9472 -399.6698 -999.9455)" width="47.7" height="17.3"/>
</g>
<g>
	<polygon class="st11" points="-3162.1,819.5 -3161.2,815.4 -3159.3,806.7 -3172.1,803.9 -3173,808.1 -3177.1,807.2 -3179,815.8 
		-3174.9,816.7 -3175.8,820.9 -3167.2,822.8 -3166.2,818.6 	"/>
	<polygon class="st11" points="-3134.6,826.3 -3133.7,822.2 -3131.8,813.5 -3144.6,810.7 -3145.5,814.8 -3149.6,813.9 
		-3151.5,822.6 -3147.4,823.5 -3148.3,827.6 -3139.6,829.5 -3138.7,825.4 	"/>
	<rect x="-3160.5" y="776.1" transform="matrix(0.9766 0.2149 -0.2149 0.9766 95.8994 697.0738)" width="5" height="26.9"/>
	<polygon points="-3161.3,816.1 -3160.4,811.9 -3158.5,803.3 -3171.3,800.5 -3172.2,804.6 -3176.4,803.7 -3178.3,812.3 
		-3174.1,813.3 -3175,817.4 -3166.4,819.3 -3165.5,815.2 	"/>
	<rect x="-3132.9" y="782.2" transform="matrix(0.9766 0.2149 -0.2149 0.9766 97.8535 691.2718)" width="5" height="26.9"/>
	<polygon points="-3133.7,822.2 -3132.8,818 -3130.9,809.4 -3143.7,806.5 -3144.6,810.7 -3148.7,809.8 -3150.6,818.4 -3146.5,819.3 
		-3147.4,823.5 -3138.7,825.4 -3137.8,821.2 	"/>
	<rect x="-3156.7" y="767.6" transform="matrix(0.9766 0.2149 -0.2149 0.9766 92.8876 692.8293)" width="33.3" height="12"/>
</g>
<g>
	<polygon class="st11" points="-3086.1,757.7 -3086.8,754.7 -3088.2,748.3 -3097.6,750.4 -3096.9,753.5 -3099.9,754.1 
		-3098.5,760.5 -3095.5,759.8 -3094.8,762.9 -3088.4,761.5 -3089.1,758.4 	"/>
	<polygon class="st11" points="-3065.7,753.7 -3066.3,750.7 -3067.7,744.3 -3077.1,746.4 -3076.5,749.5 -3079.5,750.1 
		-3078.1,756.5 -3075,755.8 -3074.4,758.9 -3068,757.4 -3068.7,754.4 	"/>
	<rect x="-3094.5" y="726.7" transform="matrix(0.9761 -0.2173 0.2173 0.9761 -233.9323 -654.3966)" width="3.6" height="19.8"/>
	<polygon points="-3086.6,755.2 -3087.3,752.1 -3088.7,745.8 -3098.1,747.9 -3097.4,750.9 -3100.5,751.6 -3099.1,758 -3096,757.3 
		-3095.4,760.3 -3089,758.9 -3089.7,755.9 	"/>
	<rect x="-3074.2" y="722.1" transform="matrix(0.9761 -0.2173 0.2173 0.9761 -232.4648 -650.0919)" width="3.6" height="19.8"/>
	<polygon points="-3066.3,750.7 -3067,747.6 -3068.4,741.3 -3077.8,743.4 -3077.1,746.4 -3080.2,747.1 -3078.8,753.4 -3075.7,752.8 
		-3075,755.8 -3068.7,754.4 -3069.4,751.3 	"/>
	<rect x="-3097.8" y="715.9" transform="matrix(0.9761 -0.2173 0.2173 0.9761 -230.239 -653.2532)" width="24.4" height="8.8"/>
</g>
<g>
	<polygon class="st11" points="-3065.5,803.5 -3062.9,799.4 -3057.4,790.8 -3070.1,782.7 -3072.7,786.9 -3076.8,784.2 
		-3082.3,792.8 -3078.2,795.4 -3080.8,799.5 -3072.2,805 -3069.6,800.9 	"/>
	<polygon class="st11" points="-3038.5,821.6 -3035.9,817.5 -3030.4,808.9 -3043.1,800.9 -3045.7,805 -3049.8,802.4 -3055.3,810.9 
		-3051.2,813.5 -3053.8,817.7 -3045.2,823.1 -3042.6,819 	"/>
	<rect x="-3052.2" y="757.4" transform="matrix(0.844 0.5363 -0.5363 0.844 -61.159 1755.9358)" width="5.7" height="30.9"/>
	<polygon points="-3063.3,800.1 -3060.7,795.9 -3055.2,787.4 -3067.9,779.3 -3070.5,783.4 -3074.6,780.8 -3080.1,789.4 -3076,792 
		-3078.6,796.1 -3070,801.6 -3067.4,797.4 	"/>
	<rect x="-3024.8" y="774.8" transform="matrix(0.844 0.5363 -0.5363 0.844 -47.5345 1743.9449)" width="5.7" height="30.9"/>
	<polygon points="-3035.9,817.5 -3033.2,813.4 -3027.8,804.8 -3040.5,796.7 -3043.1,800.9 -3047.2,798.2 -3052.7,806.8 
		-3048.5,809.4 -3051.2,813.5 -3042.6,819 -3040,814.9 	"/>
	<rect x="-3042.7" y="755.8" transform="matrix(0.844 0.5363 -0.5363 0.844 -62.5905 1740.5736)" width="38.2" height="13.8"/>
</g>
<g>
	<polygon class="st9" points="-3344.2,363.1 -3350.8,363.1 -3597.2,363.1 -3597.2,369.7 -3603.8,369.7 -3603.8,407.7 -3597.2,407.7 
		-3597.2,414.3 -3350.8,414.3 -3344.2,414.3 -3344.2,407.7 -3337.6,407.7 -3337.6,369.7 -3344.2,369.7 	"/>
	<polygon class="st12" points="-3344.2,363.1 -3350.8,363.1 -3597.2,363.1 -3597.2,369.7 -3603.8,369.7 -3603.8,407.7 
		-3597.2,407.7 -3597.2,414.3 -3350.8,414.3 -3344.2,414.3 -3344.2,407.7 -3337.6,407.7 -3337.6,369.7 -3344.2,369.7 	"/>
	<g>
		<path class="st4" d="M-3537.4,380.6h2.3v-2.3h11.4v4.5h-9.1v9.1h9.1v4.5h-11.4v-2.3h-2.3V380.6z"/>
		<path class="st4" d="M-3517,396.5h-4.5v-15.9h2.3v-2.3h9.1v2.3h2.3v15.9h-4.5v-6.8h-4.5V396.5z M-3512.4,385.2v-2.3h-4.5v2.3
			H-3512.4z"/>
		<path class="st4" d="M-3503.3,394.2h-2.3v-15.9h4.5V392h9.1v4.5h-11.4V394.2z"/>
		<path class="st4" d="M-3489.7,378.3h4.5v18.2h-4.5V378.3z"/>
		<path class="st4" d="M-3482.9,378.3h11.4v2.3h2.3v13.6h-2.3v2.3h-11.4V378.3z M-3478.4,385.2h4.5v-2.3h-4.5V385.2z M-3478.4,392
			h4.5v-2.3h-4.5V392z"/>
		<path class="st4" d="M-3460.2,389.7h-2.3v6.8h-4.5v-15.9h2.3v-2.3h9.1v2.3h2.3v6.8h-2.3v2.3h2.3v6.8h-4.5V392h-2.3V389.7z
			 M-3462.5,385.2h4.5v-2.3h-4.5V385.2z"/>
		<path class="st4" d="M-3446.6,396.5h-4.5v-15.9h2.3v-2.3h9.1v2.3h2.3v15.9h-4.5v-6.8h-4.5V396.5z M-3442,385.2v-2.3h-4.5v2.3
			H-3442z"/>
		<path class="st4" d="M-3435.2,378.3h13.6v4.5h-4.5v13.6h-4.5v-13.6h-4.5V378.3z"/>
		<path class="st4" d="M-3417,394.2h-2.3v-13.6h2.3v-2.3h11.4v4.5h-9.1v2.3h4.5v4.5h-4.5v2.3h9.1v4.5h-11.4V394.2z"/>
	</g>
</g>
<g>
	<polygon class="st9" points="-3024.2,431.1 -3030.8,431.1 -3277.2,431.1 -3277.2,437.7 -3283.8,437.7 -3283.8,475.7 -3277.2,475.7 
		-3277.2,482.3 -3030.8,482.3 -3024.2,482.3 -3024.2,475.7 -3017.6,475.7 -3017.6,437.7 -3024.2,437.7 	"/>
	<polygon class="st10" points="-3024.2,424.5 -3030.8,424.5 -3277.2,424.5 -3277.2,431.1 -3283.8,431.1 -3283.8,469.1 
		-3277.2,469.1 -3277.2,475.8 -3030.8,475.8 -3024.2,475.8 -3024.2,469.1 -3017.6,469.1 -3017.6,431.1 -3024.2,431.1 	"/>
	<g>
		<path class="st4" d="M-3217.4,442h2.3v-2.3h11.4v4.5h-9.1v9.1h9.1v4.5h-11.4v-2.3h-2.3V442z"/>
		<path class="st4" d="M-3197,457.9h-4.5V442h2.3v-2.3h9.1v2.3h2.3v15.9h-4.5v-6.8h-4.5V457.9z M-3192.4,446.6v-2.3h-4.5v2.3
			H-3192.4z"/>
		<path class="st4" d="M-3183.3,455.7h-2.3v-15.9h4.5v13.6h9.1v4.5h-11.4V455.7z"/>
		<path class="st4" d="M-3169.7,439.8h4.5v18.2h-4.5V439.8z"/>
		<path class="st4" d="M-3162.9,439.8h11.4v2.3h2.3v13.6h-2.3v2.3h-11.4V439.8z M-3158.4,446.6h4.5v-2.3h-4.5V446.6z M-3158.4,453.4
			h4.5v-2.3h-4.5V453.4z"/>
		<path class="st4" d="M-3140.2,451.1h-2.3v6.8h-4.5V442h2.3v-2.3h9.1v2.3h2.3v6.8h-2.3v2.3h2.3v6.8h-4.5v-4.5h-2.3V451.1z
			 M-3142.5,446.6h4.5v-2.3h-4.5V446.6z"/>
		<path class="st4" d="M-3126.6,457.9h-4.5V442h2.3v-2.3h9.1v2.3h2.3v15.9h-4.5v-6.8h-4.5V457.9z M-3122,446.6v-2.3h-4.5v2.3H-3122z
			"/>
		<path class="st4" d="M-3115.2,439.8h13.6v4.5h-4.5v13.6h-4.5v-13.6h-4.5V439.8z"/>
		<path class="st4" d="M-3097,455.7h-2.3V442h2.3v-2.3h11.4v4.5h-9.1v2.3h4.5v4.5h-4.5v2.3h9.1v4.5h-11.4V455.7z"/>
	</g>
</g>
<g>
	<rect x="-3282.2" y="513.4" class="st9" width="219.8" height="28.8"/>
	<rect x="-3287" y="506.9" class="st9" width="229.4" height="30.6"/>
	<polygon class="st10" points="-3287,502.5 -3287,531.8 -3282.2,531.8 -3282.2,537.5 -3062.5,537.5 -3062.5,531.8 -3057.7,531.8 
		-3057.7,502.5 	"/>
</g>
<polygon class="st9" points="-3067.3,517.4 -3067.3,512.3 -3072.3,512.3 -3072.3,512.2 -3129,512.2 -3159.6,512.2 -3185.2,512.2 
	-3209,512.2 -3272.4,512.2 -3272.4,512.2 -3277.5,512.2 -3277.5,517.3 -3282.6,517.3 -3282.6,525 -3277.5,525 -3277.5,530.1 
	-3272.4,530.1 -3272.4,530.2 -3209,530.2 -3185.2,530.2 -3159.6,530.2 -3129,530.2 -3072.3,530.2 -3072.3,530.1 -3067.3,530.1 
	-3067.3,525 -3062.2,525 -3062.2,517.4 "/>
<g>
	<rect x="-3291.2" y="611.4" class="st13" width="4.7" height="0.1"/>
	<rect x="-3291.2" y="629.3" class="st13" width="4.7" height="0.1"/>
	<polygon class="st4" points="-3270.1,629.4 -3270.1,624.3 -3265.1,624.3 -3265.1,616.6 -3270.1,616.6 -3270.1,611.5 -3275.2,611.5 
		-3275.2,611.4 -3286.4,611.4 -3286.4,611.5 -3291.2,611.5 -3291.2,629.3 -3286.4,629.3 -3286.4,629.4 -3275.2,629.4 -3275.2,629.4 
			"/>
</g>
<g>
	<polygon class="st4" points="-3317,575.9 -3317,570.8 -3322.1,570.8 -3322.1,570.7 -3338,570.7 -3338,588.7 -3322.1,588.7 
		-3322.1,588.6 -3317,588.6 -3317,583.5 -3311.9,583.5 -3311.9,575.9 	"/>
	<polygon class="st4" points="-3330.5,614.7 -3330.5,609.7 -3330.5,609.7 -3330.5,609.5 -3335,609.5 -3335.6,609.5 -3340.1,609.5 
		-3340.1,609.6 -3340.1,609.6 -3340.1,614.7 -3345.2,614.7 -3345.2,622.4 -3340.1,622.4 -3340.1,627.4 -3340.1,627.4 -3340.1,627.5 
		-3335.6,627.5 -3335,627.5 -3330.5,627.5 -3330.5,627.5 -3330.5,627.5 -3330.5,622.4 -3325.4,622.4 -3325.4,614.7 	"/>
</g>
<polygon class="st4" points="-3380.3,517.4 -3380.3,512.3 -3380.3,512.3 -3380.3,512.2 -3384.8,512.2 -3385.4,512.2 -3389.9,512.2 
	-3389.9,512.2 -3389.9,512.2 -3389.9,517.3 -3395,517.3 -3395,525 -3389.9,525 -3389.9,530.1 -3389.9,530.1 -3389.9,530.2 
	-3385.4,530.2 -3384.8,530.2 -3380.3,530.2 -3380.3,530.1 -3380.3,530.1 -3380.3,525 -3375.2,525 -3375.2,517.4 "/>
<polygon class="st14" points="-2414.5,906.5 -2424.5,906.5 -2799.4,906.5 -2799.4,916.6 -2809.5,916.6 -2809.5,974.5 -2799.4,974.5 
	-2799.4,984.5 -2424.5,984.5 -2414.5,984.5 -2414.5,974.5 -2404.4,974.5 -2404.4,916.6 -2414.5,916.6 "/>
<polygon class="st15" points="-2414.5,896.5 -2424.5,896.5 -2799.4,896.5 -2799.4,906.6 -2809.5,906.6 -2809.5,964.5 -2799.4,964.5 
	-2799.4,974.5 -2424.5,974.5 -2414.5,974.5 -2414.5,964.5 -2404.4,964.5 -2404.4,906.6 -2414.5,906.6 "/>
<g>
	<path class="st4" d="M-2696.8,947.4h-6.9v-27.6h17.3v3.5h3.5v10.4h-3.5v3.5h-10.4V947.4z M-2696.8,930.1h6.9v-3.5h-6.9V930.1z"/>
	<path class="st4" d="M-2676.1,944h-3.5v-24.2h6.9v20.7h13.8v6.9h-17.3V944z"/>
	<path class="st4" d="M-2648.5,947.4h-6.9v-24.2h3.5v-3.5h13.8v3.5h3.5v24.2h-6.9V937h-6.9V947.4z M-2641.5,930.1v-3.5h-6.9v3.5
		H-2641.5z"/>
	<path class="st4" d="M-2631.2,919.8h6.9v10.4h6.9v-10.4h6.9v13.8h-3.5v3.5h-3.5v10.4h-6.9V937h-3.5v-3.5h-3.5V919.8z"/>
	<path class="st4" d="M-2603.5,944h-3.5v-20.7h3.5v-3.5h17.3v6.9h-13.8v3.5h6.9v6.9h-6.9v3.5h13.8v6.9h-17.3V944z"/>
	<path class="st4" d="M-2572.4,937h-3.5v10.4h-6.9v-27.6h17.3v3.5h3.5v10.4h-3.5v3.5h3.5v10.4h-6.9v-6.9h-3.5V937z M-2575.9,930.1
		h6.9v-3.5h-6.9V930.1z"/>
	<path class="st4" d="M-2534.4,919.8h17.3v3.5h3.5v10.4h-3.5v3.5h-10.4v3.5h13.8v6.9h-20.7v-13.8h3.5v-3.5h10.4v-3.5h-13.8V919.8z"
		/>
</g>
<g>
	<rect x="-2788.5" y="900.5" class="st4" width="45.1" height="5.7"/>
	<rect x="-2737.2" y="900.5" class="st4" width="5.7" height="5.7"/>
</g>
<g>
	<rect x="-3243" y="901.5" class="st4" width="45.1" height="5.7"/>
	<rect x="-3191.7" y="901.5" class="st4" width="5.7" height="5.7"/>
</g>
<polygon class="st16" points="-2853.9,741.5 -2847.5,747.1 -2853.1,753.5 -2832.6,770.9 -2832.6,808.8 -2811.9,782.7 -2780.1,812.1 
	-2774.3,805.8 -2769.3,810.4 -2697.7,691.7 "/>
<polygon class="st17" points="-2856.3,734.4 -2849.9,740 -2855.5,746.4 -2835.1,763.8 -2835.1,801.7 -2814.4,775.6 -2782.6,805 
	-2776.8,798.7 -2771.8,803.3 -2700.2,684.6 "/>
<polygon class="st18" points="-2814.3,775.4 -2699.9,684.6 -2835,763.6 -2835,801.5 "/>
<polygon class="st19" points="-2857.4,734.6 -2851,740.2 -2856.6,746.6 -2836.2,763.9 -2836.2,801.8 -2815.4,775.7 -2783.7,805.1 
	-2777.8,798.8 -2772.9,803.5 -2701.2,684.8 "/>
<g>
	<polygon class="st20" points="-2921.5,427.8 -2921.5,591.5 -2911.2,591.5 -2911.2,601 -2900.8,601 -2900.8,611.4 -2453.3,611.4 
		-2453.3,601 -2442.9,601 -2442.9,591.5 -2432.5,591.5 -2432.5,427.8 	"/>
	<polygon class="st20" points="-2432.5,427.8 -2432.5,333.7 -2442.9,333.7 -2442.9,324.2 -2453.3,324.2 -2453.3,313.7 
		-2900.8,313.7 -2900.8,324.2 -2911.2,324.2 -2911.2,333.7 -2921.5,333.7 -2921.5,427.8 	"/>
</g>
<g>
	<polygon class="st21" points="-2911.2,330.3 -2900.8,330.3 -2900.8,322.3 -2911.2,322.3 -2911.2,330.2 -2921.5,330.2 
		-2921.5,338.2 -2911.2,338.2 	"/>
	<rect x="-2900.8" y="313.6" class="st21" width="447.5" height="8"/>
	<polygon class="st21" points="-2442.9,330.2 -2442.9,322.3 -2453.3,322.3 -2453.3,330.3 -2442.9,330.3 -2442.9,338.2 
		-2432.5,338.2 -2432.5,330.2 	"/>
</g>
<g>
	<g>
		<g>
			<rect x="-3314.7" y="249.3" width="10.2" height="10.2"/>
		</g>
	</g>
	<g>
		<g>
			<path d="M-3253.2,239.1v5.1h-5.1v5.1h5.1v20.5h5.1v5.1h-5.1v5.1h5.1h5.1v-10.2h15.4v5.1h5.1v-5.1v-30.7H-3253.2z M-3227.6,264.7
				h-20.5v-20.5h20.5V264.7z"/>
		</g>
	</g>
	<g>
		<g>
			<rect x="-3243" y="249.3" width="10.2" height="10.2"/>
		</g>
	</g>
	<g>
		<g>
			<rect x="-3314.7" y="321" width="10.2" height="10.2"/>
		</g>
	</g>
	<g>
		<g>
			<rect x="-3253.2" y="310.8" width="5.1" height="5.1"/>
		</g>
	</g>
	<g>
		<g>
			<rect x="-3278.8" y="336.4" width="5.1" height="5.1"/>
		</g>
	</g>
	<g>
		<g>
			<rect x="-3273.7" y="315.9" width="5.1" height="5.1"/>
		</g>
	</g>
	<g>
		<g>
			<rect x="-3273.7" y="326.2" width="5.1" height="5.1"/>
		</g>
	</g>
	<g>
		<g>
			<rect x="-3227.6" y="300.5" width="5.1" height="5.1"/>
		</g>
	</g>
	<g>
		<g>
			<rect x="-3324.9" y="300.5" width="5.1" height="5.1"/>
		</g>
	</g>
	<g>
		<g>
			<rect x="-3324.9" y="274.9" width="5.1" height="5.1"/>
		</g>
	</g>
	<g>
		<g>
			<polygon points="-3268.6,244.2 -3268.6,249.3 -3278.8,249.3 -3278.8,254.5 -3263.5,254.5 -3263.5,249.3 -3263.5,244.2 			"/>
		</g>
	</g>
	<g>
		<g>
			<path d="M-3227.6,280.1v5.1h-10.2v5.1h-15.4v-5.1h-5.1v5.1h-10.2v5.1h15.4v5.1h-10.2h-5.1v-5.1h-5.1v5.1h-5.1v-5.1h-5.1v5.1h-5.1
				v5.1h10.2v5.1h5.1v-5.1h10.2v5.1h-5.1v5.1h5.1v10.2h5.1v5.1h5.1v-5.1h15.4v-10.2h5.1v-5.1h-5.1v-10.2h-10.2v-5.1h10.2v5.1h5.1
				v-5.1h5.1v-5.1h5.1v-5.1v-5.1H-3227.6L-3227.6,280.1z M-3243,305.7V321h-15.4v-15.4H-3243z"/>
		</g>
	</g>
	<g>
		<g>
			<polygon points="-3258.4,269.8 -3263.5,269.8 -3263.5,274.9 -3268.6,274.9 -3268.6,280.1 -3268.6,285.2 -3263.5,285.2 
				-3263.5,280.1 -3258.4,280.1 -3258.4,274.9 -3253.2,274.9 -3253.2,269.8 			"/>
		</g>
	</g>
	<g>
		<g>
			<rect x="-3268.6" y="336.4" width="10.2" height="5.1"/>
		</g>
	</g>
	<g>
		<g>
			<rect x="-3284" y="244.2" width="5.1" height="5.1"/>
		</g>
	</g>
	<g>
		<g>
			<rect x="-3243" y="280.1" width="5.1" height="5.1"/>
		</g>
	</g>
	<g>
		<g>
			<rect x="-3237.9" y="274.9" width="5.1" height="5.1"/>
		</g>
	</g>
	<g>
		<g>
			<rect x="-3304.5" y="300.5" width="5.1" height="5.1"/>
		</g>
	</g>
	<g>
		<g>
			<path d="M-3294.2,336.4v-20.5h5.1v-5.1v-5.1h-5.1v5.1h-15.4v-5.1h-5.1h-5.1v5.1h-5.1v30.7h30.7h10.2v-5.1H-3294.2z
				 M-3299.3,336.4h-20.5v-20.5h20.5V336.4z"/>
		</g>
	</g>
	<g>
		<g>
			<rect x="-3294.2" y="269.8" width="5.1" height="5.1"/>
		</g>
	</g>
	<g>
		<g>
			<path d="M-3289.1,239.1h-5.1h-30.7v30.7h5.1v5.1h5.1v-5.1h5.1v5.1h5.1v-5.1h10.2v-10.2h5.1v-5.1h-5.1v-10.2h5.1h5.1v-5.1H-3289.1
				z M-3299.3,264.7h-20.5v-20.5h20.5V264.7z"/>
		</g>
	</g>
	<g>
		<g>
			<rect x="-3263.5" y="254.5" width="5.1" height="5.1"/>
		</g>
	</g>
	<g>
		<g>
			<rect x="-3273.7" y="239.1" width="5.1" height="5.1"/>
		</g>
	</g>
	<g>
		<g>
			<path d="M-3263.5,269.8v-5.1h-5.1v-5.1h-5.1v5.1h-10.2v-5.1h-5.1v5.1v5.1h5.1v10.2h-15.4v-5.1h-5.1v5.1h-15.4v5.1h10.2v5.1h-15.4
				v5.1h15.4v5.1h5.1v-5.1h5.1v5.1h5.1v-5.1h10.2v-5.1h-5.1v-5.1h5.1h5.1v5.1h5.1h5.1v-5.1h-5.1v-5.1h-5.1v-10.2H-3263.5
				L-3263.5,269.8z M-3294.2,290.3h-10.2v-5.1h10.2V290.3z"/>
		</g>
	</g>
	<g>
		<g>
			<polygon points="-3278.8,321 -3278.8,315.9 -3278.8,310.8 -3284,310.8 -3284,315.9 -3289.1,315.9 -3289.1,321 -3284,321 
				-3284,326.2 -3289.1,326.2 -3289.1,331.3 -3278.8,331.3 -3278.8,326.2 -3273.7,326.2 -3273.7,321 			"/>
		</g>
	</g>
	<g>
		<g>
			<polygon points="-3232.8,331.3 -3232.8,326.2 -3237.9,326.2 -3237.9,331.3 -3253.2,331.3 -3253.2,336.4 -3243,336.4 -3243,341.5 
				-3237.9,341.5 -3237.9,336.4 -3227.6,336.4 -3227.6,341.5 -3222.5,341.5 -3222.5,336.4 -3222.5,331.3 			"/>
		</g>
	</g>
	<g>
		<g>
			<polygon points="-3227.6,310.8 -3227.6,315.9 -3232.8,315.9 -3232.8,321 -3222.5,321 -3222.5,315.9 -3222.5,310.8 			"/>
		</g>
	</g>
</g>
<g>
	<g>
		<polygon class="st22" points="-3381,655.2 -3384.7,655.2 -3521.9,655.2 -3521.9,658.9 -3525.6,658.9 -3525.6,680.1 -3521.9,680.1 
			-3521.9,683.8 -3384.7,683.8 -3381,683.8 -3381,680.1 -3377.4,680.1 -3377.4,658.9 -3381,658.9 		"/>
		<polygon class="st22" points="-3381,655.2 -3384.7,655.2 -3521.9,655.2 -3521.9,658.9 -3525.6,658.9 -3525.6,680.1 -3521.9,680.1 
			-3521.9,683.8 -3384.7,683.8 -3381,683.8 -3381,680.1 -3377.4,680.1 -3377.4,658.9 -3381,658.9 		"/>
	</g>
	<g>
		<rect x="-3519.5" y="657.4" class="st22" width="13.1" height="1.7"/>
		<rect x="-3504.6" y="657.4" class="st22" width="1.7" height="1.7"/>
	</g>
</g>
<g>
	<g>
		<polygon class="st9" points="-3553,655.2 -3556.7,655.2 -3693.9,655.2 -3693.9,658.9 -3697.6,658.9 -3697.6,680.1 -3693.9,680.1 
			-3693.9,683.8 -3556.7,683.8 -3553,683.8 -3553,680.1 -3549.4,680.1 -3549.4,658.9 -3553,658.9 		"/>
		<polygon class="st12" points="-3553,655.2 -3556.7,655.2 -3693.9,655.2 -3693.9,658.9 -3697.6,658.9 -3697.6,680.1 -3693.9,680.1 
			-3693.9,683.8 -3556.7,683.8 -3553,683.8 -3553,680.1 -3549.4,680.1 -3549.4,658.9 -3553,658.9 		"/>
		<g>
			<path class="st4" d="M-3665.7,670.1h-1.3v3.8h-2.5v-10.1h6.3v1.3h1.3v3.8h-1.3v1.3h1.3v3.8h-2.5v-2.5h-1.3V670.1z M-3666.9,667.5
				h2.5v-1.3h-2.5V667.5z"/>
			<path class="st4" d="M-3659.4,672.6h-1.3V665h1.3v-1.3h6.3v2.5h-5.1v1.3h2.5v2.5h-2.5v1.3h5.1v2.5h-6.3V672.6z"/>
			<path class="st4" d="M-3650.5,672.6h-1.3V665h1.3v-1.3h5.1v1.3h1.3v2.5h-2.5v-1.3h-2.5v5.1h2.5v-1.3h2.5v2.5h-1.3v1.3h-5.1V672.6
				z"/>
			<path class="st4" d="M-3640.4,673.9h-2.5V665h1.3v-1.3h5.1v1.3h1.3v8.9h-2.5v-3.8h-2.5V673.9z M-3637.9,667.5v-1.3h-2.5v1.3
				H-3637.9z"/>
			<path class="st4" d="M-3632.8,672.6h-1.3v-8.9h2.5v7.6h5.1v2.5h-6.3V672.6z"/>
			<path class="st4" d="M-3625.2,663.7h2.5v10.1h-2.5V663.7z"/>
			<path class="st4" d="M-3621.4,663.7h6.3v1.3h1.3v7.6h-1.3v1.3h-6.3V663.7z M-3618.9,667.5h2.5v-1.3h-2.5V667.5z M-3618.9,671.3
				h2.5v-1.3h-2.5V671.3z"/>
			<path class="st4" d="M-3608.8,670.1h-1.3v3.8h-2.5V665h1.3v-1.3h5.1v1.3h1.3v3.8h-1.3v1.3h1.3v3.8h-2.5v-2.5h-1.3V670.1z
				 M-3610,667.5h2.5v-1.3h-2.5V667.5z"/>
			<path class="st4" d="M-3601.2,673.9h-2.5V665h1.3v-1.3h5.1v1.3h1.3v8.9h-2.5v-3.8h-2.5V673.9z M-3598.7,667.5v-1.3h-2.5v1.3
				H-3598.7z"/>
			<path class="st4" d="M-3594.9,663.7h7.6v2.5h-2.5v7.6h-2.5v-7.6h-2.5V663.7z"/>
			<path class="st4" d="M-3584.7,672.6h-1.3V665h1.3v-1.3h6.3v2.5h-5.1v1.3h2.5v2.5h-2.5v1.3h5.1v2.5h-6.3V672.6z"/>
		</g>
	</g>
	<g>
		<rect x="-3691.5" y="657.4" class="st4" width="13.1" height="1.7"/>
		<rect x="-3676.6" y="657.4" class="st4" width="1.7" height="1.7"/>
	</g>
</g>
<g>
	<g>
		<polygon class="st9" points="-3553,697.2 -3556.7,697.2 -3693.9,697.2 -3693.9,700.9 -3697.6,700.9 -3697.6,722.1 -3693.9,722.1 
			-3693.9,725.8 -3556.7,725.8 -3553,725.8 -3553,722.1 -3549.4,722.1 -3549.4,700.9 -3553,700.9 		"/>
		<polygon class="st10" points="-3553,693.6 -3556.7,693.6 -3693.9,693.6 -3693.9,697.3 -3697.6,697.3 -3697.6,718.4 -3693.9,718.4 
			-3693.9,722.1 -3556.7,722.1 -3553,722.1 -3553,718.4 -3549.4,718.4 -3549.4,697.3 -3553,697.3 		"/>
		<g>
			<path class="st4" d="M-3665.7,708.4h-1.3v3.8h-2.5v-10.1h6.3v1.3h1.3v3.8h-1.3v1.3h1.3v3.8h-2.5v-2.5h-1.3V708.4z M-3666.9,705.9
				h2.5v-1.3h-2.5V705.9z"/>
			<path class="st4" d="M-3659.4,710.9h-1.3v-7.6h1.3v-1.3h6.3v2.5h-5.1v1.3h2.5v2.5h-2.5v1.3h5.1v2.5h-6.3V710.9z"/>
			<path class="st4" d="M-3650.5,710.9h-1.3v-7.6h1.3v-1.3h5.1v1.3h1.3v2.5h-2.5v-1.3h-2.5v5.1h2.5v-1.3h2.5v2.5h-1.3v1.3h-5.1
				V710.9z"/>
			<path class="st4" d="M-3640.4,712.2h-2.5v-8.9h1.3v-1.3h5.1v1.3h1.3v8.9h-2.5v-3.8h-2.5V712.2z M-3637.9,705.9v-1.3h-2.5v1.3
				H-3637.9z"/>
			<path class="st4" d="M-3632.8,710.9h-1.3v-8.9h2.5v7.6h5.1v2.5h-6.3V710.9z"/>
			<path class="st4" d="M-3625.2,702.1h2.5v10.1h-2.5V702.1z"/>
			<path class="st4" d="M-3621.4,702.1h6.3v1.3h1.3v7.6h-1.3v1.3h-6.3V702.1z M-3618.9,705.9h2.5v-1.3h-2.5V705.9z M-3618.9,709.7
				h2.5v-1.3h-2.5V709.7z"/>
			<path class="st4" d="M-3608.8,708.4h-1.3v3.8h-2.5v-8.9h1.3v-1.3h5.1v1.3h1.3v3.8h-1.3v1.3h1.3v3.8h-2.5v-2.5h-1.3V708.4z
				 M-3610,705.9h2.5v-1.3h-2.5V705.9z"/>
			<path class="st4" d="M-3601.2,712.2h-2.5v-8.9h1.3v-1.3h5.1v1.3h1.3v8.9h-2.5v-3.8h-2.5V712.2z M-3598.7,705.9v-1.3h-2.5v1.3
				H-3598.7z"/>
			<path class="st4" d="M-3594.9,702.1h7.6v2.5h-2.5v7.6h-2.5v-7.6h-2.5V702.1z"/>
			<path class="st4" d="M-3584.7,710.9h-1.3v-7.6h1.3v-1.3h6.3v2.5h-5.1v1.3h2.5v2.5h-2.5v1.3h5.1v2.5h-6.3V710.9z"/>
		</g>
	</g>
	<g>
		<rect x="-3691.5" y="696.4" class="st4" width="13.1" height="1.7"/>
		<rect x="-3676.6" y="696.4" class="st4" width="1.7" height="1.7"/>
	</g>
</g>
<g>
	<g>
		<polygon class="st22" points="-3381,697.2 -3384.7,697.2 -3521.9,697.2 -3521.9,700.9 -3525.6,700.9 -3525.6,722.1 -3521.9,722.1 
			-3521.9,725.8 -3384.7,725.8 -3381,725.8 -3381,722.1 -3377.4,722.1 -3377.4,700.9 -3381,700.9 		"/>
		<polygon class="st23" points="-3381,693.6 -3384.7,693.6 -3521.9,693.6 -3521.9,697.3 -3525.6,697.3 -3525.6,718.4 -3521.9,718.4 
			-3521.9,722.1 -3384.7,722.1 -3381,722.1 -3381,718.4 -3377.4,718.4 -3377.4,697.3 -3381,697.3 		"/>
	</g>
	<g>
		<rect x="-3519.5" y="696.4" class="st4" width="13.1" height="1.7"/>
		<rect x="-3504.6" y="696.4" class="st4" width="1.7" height="1.7"/>
	</g>
</g>
<g>
	<rect x="-3271.7" y="428.1" class="st4" width="23.6" height="3"/>
	<rect x="-3244.9" y="428.1" class="st4" width="3" height="3"/>
</g>
<g>
	<rect x="-3592.1" y="366.6" class="st4" width="23.6" height="3"/>
	<rect x="-3565.3" y="366.6" class="st4" width="3" height="3"/>
</g>
<g>
	<polygon class="st23" points="-3622.2,490.1 -3622.2,482.7 -3640.8,482.7 -3640.8,490.1 -3648.3,490.1 -3648.3,497.6 
		-3648.3,508.8 -3640.8,508.8 -3640.8,516.2 -3629.6,516.2 -3622.2,516.2 -3622.2,508.8 -3614.7,508.8 -3614.7,497.6 -3614.7,490.1 
			"/>
	<line class="st24" x1="-3640.2" y1="516.2" x2="-3640.2" y2="526.2"/>
	<line class="st24" x1="-3622.8" y1="516.2" x2="-3622.8" y2="526.2"/>
	<polygon class="st25" points="-3623.7,524.3 -3625.9,524.3 -3639.3,524.3 -3639.3,526.5 -3641.4,526.5 -3641.4,542 -3639.3,542 
		-3639.3,544.2 -3625.9,544.2 -3623.7,544.2 -3623.7,542 -3621.5,542 -3621.5,526.5 -3623.7,526.5 	"/>
</g>
<polygon class="st22" points="-3555.1,929.4 -3555.1,921.5 -3563,921.5 -3628,921.5 -3696.8,921.5 -3696.8,929.4 -3704.7,929.4 
	-3704.7,974.9 -3696.8,974.9 -3696.8,982.9 -3628,982.9 -3563,982.9 -3555.1,982.9 -3555.1,974.9 -3547.2,974.9 -3547.2,929.4 "/>
<polygon class="st22" points="-3555.1,929.5 -3555.1,921.6 -3563,921.6 -3628,921.6 -3696.8,921.6 -3696.8,929.5 -3704.7,929.5 
	-3704.7,975 -3696.8,975 -3696.8,983 -3628,983 -3563,983 -3555.1,983 -3555.1,975 -3547.2,975 -3547.2,929.5 "/>
<g>
	<path class="st4" d="M-3658.6,962.9h-5.4v-21.8h13.6v2.7h2.7v8.2h-2.7v2.7h-8.2V962.9z M-3658.6,949.3h5.4v-2.7h-5.4V949.3z"/>
	<path class="st4" d="M-3642.3,960.2h-2.7v-19h5.4v16.3h10.9v5.4h-13.6V960.2z"/>
	<path class="st4" d="M-3620.5,962.9h-5.4v-19h2.7v-2.7h10.9v2.7h2.7v19h-5.4v-8.2h-5.4V962.9z M-3615,949.3v-2.7h-5.4v2.7H-3615z"
		/>
	<path class="st4" d="M-3606.9,941.1h5.4v8.2h5.4v-8.2h5.4V952h-2.7v2.7h-2.7v8.2h-5.4v-8.2h-2.7V952h-2.7V941.1z"/>
</g>
<polygon class="st22" points="-3385.1,929.4 -3385.1,921.5 -3393,921.5 -3458,921.5 -3526.8,921.5 -3526.8,929.4 -3534.7,929.4 
	-3534.7,974.9 -3526.8,974.9 -3526.8,982.9 -3458,982.9 -3393,982.9 -3385.1,982.9 -3385.1,974.9 -3377.2,974.9 -3377.2,929.4 "/>
<polygon class="st23" points="-3385.1,921.5 -3385.1,913.6 -3393,913.6 -3458,913.6 -3526.8,913.6 -3526.8,921.5 -3534.7,921.5 
	-3534.7,967 -3526.8,967 -3526.8,975 -3458,975 -3393,975 -3385.1,975 -3385.1,967 -3377.2,967 -3377.2,921.5 "/>
<g>
	<path class="st4" d="M-3488.6,954.9h-5.4v-21.8h13.6v2.7h2.7v8.2h-2.7v2.7h-8.2V954.9z M-3488.6,941.3h5.4v-2.7h-5.4V941.3z"/>
	<path class="st4" d="M-3472.3,952.2h-2.7v-19h5.4v16.3h10.9v5.4h-13.6V952.2z"/>
	<path class="st4" d="M-3450.5,954.9h-5.4v-19h2.7v-2.7h10.9v2.7h2.7v19h-5.4v-8.2h-5.4V954.9z M-3445,941.3v-2.7h-5.4v2.7H-3445z"
		/>
	<path class="st4" d="M-3436.9,933.1h5.4v8.2h5.4v-8.2h5.4V944h-2.7v2.7h-2.7v8.2h-5.4v-8.2h-2.7V944h-2.7V933.1z"/>
</g>
<g>
	<path class="st26" d="M-4378.7,683.8h43.2v108h43.2v-108h43.2v129.6h-21.6V835h-21.6v21.6h-43.2V835h-21.6v-21.6h-21.6V683.8z"/>
	<path class="st27" d="M-4227.5,707.4h21.6v-21.6h108V729h-86.4v21.6h64.8v21.6h21.6V837h-21.6v21.6h-108v-43.2h86.4v-21.6h-64.8
		v-21.6h-21.6V707.4z"/>
</g>
<g>
	<path class="st28" d="M-4378.7,662.7h43.2v108h43.2v-108h43.2v129.6h-21.6v21.6h-21.6v21.6h-43.2v-21.6h-21.6v-21.6h-21.6V662.7z"
		/>
	<path class="st29" d="M-4227.5,684.3h21.6v-21.6h108v43.2h-86.4v21.6h64.8v21.6h21.6v64.8h-21.6v21.6h-108v-43.2h86.4v-21.6h-64.8
		v-21.6h-21.6V684.3z"/>
</g>
<g>
	<g>
		<path class="st0" d="M-4329.3,1041.3h27.5v68.7h27.5v-68.7h27.5v82.4h-13.7v13.7h-13.7v13.7h-27.5v-13.7h-13.7v-13.7h-13.7V1041.3
			z"/>
		<path class="st0" d="M-4233.2,1056.4h13.7v-13.7h68.7v27.5h-54.9v13.7h41.2v13.7h13.7v41.2h-13.7v13.7h-68.7V1125h54.9v-13.7
			h-41.2v-13.7h-13.7V1056.4z"/>
	</g>
	<g>
		<path class="st7" d="M-4329.3,1026.8h27.5v68.7h27.5v-68.7h27.5v82.4h-13.7v13.7h-13.7v13.7h-27.5V1123h-13.7v-13.7h-13.7V1026.8z
			"/>
		<path class="st7" d="M-4233.2,1041.9h13.7v-13.7h68.7v27.5h-54.9v13.7h41.2v13.7h13.7v41.2h-13.7v13.7h-68.7v-27.5h54.9v-13.7
			h-41.2v-13.7h-13.7V1041.9z"/>
	</g>
	<g>
		<path class="st4" d="M-4329.3,1013.4h27.5v68.7h27.5v-68.7h27.5v82.4h-13.7v13.7h-13.7v13.7h-27.5v-13.7h-13.7v-13.7h-13.7V1013.4
			z"/>
		<path class="st4" d="M-4233.2,1027.2h13.7v-13.7h68.7v27.5h-54.9v13.7h41.2v13.7h13.7v41.2h-13.7v13.7h-68.7v-27.5h54.9v-13.7
			h-41.2v-13.7h-13.7V1027.2z"/>
	</g>
</g>
<g>
	<g>
		<path class="st0" d="M-3754.8,181.6h-21.6V95.2h54V106h10.8v32.4h-10.8v10.8h-32.4V181.6z M-3754.8,127.6h21.6v-10.8h-21.6V127.6z
			"/>
		<path class="st0" d="M-3700.8,106h10.8V95.2h43.2V106h10.8v64.8h-10.8v10.8h-43.2v-10.8h-10.8V106z M-3679.2,160h21.6v-43.2h-21.6
			V160z"/>
		<path class="st0" d="M-3614.4,170.8h-10.8V95.2h21.6V160h43.2v21.6h-54V170.8z"/>
		<path class="st0" d="M-3571.2,95.2h21.6v32.4h21.6V95.2h21.6v43.2h-10.8v10.8h-10.8v32.4h-21.6v-32.4h-10.8v-10.8h-10.8V95.2z"/>
	</g>
	<g>
		<path class="st30" d="M-3754.8,173.2h-21.6V86.8h54v10.8h10.8V130h-10.8v10.8h-32.4V173.2z M-3754.8,119.2h21.6v-10.8h-21.6V119.2
			z"/>
		<path class="st30" d="M-3700.8,97.6h10.8V86.8h43.2v10.8h10.8v64.8h-10.8v10.8h-43.2v-10.8h-10.8V97.6z M-3679.2,151.6h21.6v-43.2
			h-21.6V151.6z"/>
		<path class="st30" d="M-3614.4,162.4h-10.8V86.8h21.6v64.8h43.2v21.6h-54V162.4z"/>
		<path class="st30" d="M-3571.2,86.8h21.6v32.4h21.6V86.8h21.6V130h-10.8v10.8h-10.8v32.4h-21.6v-32.4h-10.8V130h-10.8V86.8z"/>
	</g>
	<g>
		<path class="st4" d="M-3754.8,165h-21.6V78.6h54v10.8h10.8v32.4h-10.8v10.8h-32.4V165z M-3754.8,111h21.6v-10.8h-21.6V111z"/>
		<path class="st4" d="M-3700.8,89.4h10.8V78.6h43.2v10.8h10.8v64.8h-10.8V165h-43.2v-10.8h-10.8V89.4z M-3679.2,143.4h21.6v-43.2
			h-21.6V143.4z"/>
		<path class="st4" d="M-3614.4,154.2h-10.8V78.6h21.6v64.8h43.2V165h-54V154.2z"/>
		<path class="st4" d="M-3571.2,78.6h21.6V111h21.6V78.6h21.6v43.2h-10.8v10.8h-10.8V165h-21.6v-32.4h-10.8v-10.8h-10.8V78.6z"/>
	</g>
</g>
<image style="overflow:visible;" width="843" height="1118" xlink:href="3A5EBA7496A6E3F8.jpg"  transform="matrix(0.24 0 0 0.24 -3985.9678 228.8225)">
</image>
<g>
	<g class="st1">
		<g>
			<polygon class="st0" points="-3428,-134.8 -3428,-48.4 -3326.8,-48.4 -3326.8,-60 -3339.5,-60 -3339.5,-72.6 -3352.1,-72.6 
				-3352.1,-85.3 -3364.8,-85.3 -3364.8,-97.9 -3352.1,-97.9 -3352.1,-110.6 -3339.5,-110.6 -3339.5,-123.2 -3326.8,-123.2 
				-3326.8,-134.8 			"/>
		</g>
		<polygon class="st0" points="-3413.3,-73.7 -3428,-49.4 -3428,-73.7 		"/>
	</g>
	<rect x="-3916.2" y="-157.8" class="st0" width="510.3" height="86.5"/>
	<rect x="-3439.6" y="-79.7" class="st0" width="112.8" height="31.6"/>
	<g class="st1">
		<g>
			<polygon class="st0" points="-3908.4,-134.7 -3908.4,-48.2 -4009.6,-48.2 -4009.6,-59.8 -3996.9,-59.8 -3996.9,-72.5 
				-3984.3,-72.5 -3984.3,-85.1 -3971.6,-85.1 -3971.6,-97.8 -3984.3,-97.8 -3984.3,-110.4 -3996.9,-110.4 -3996.9,-123.1 
				-4009.6,-123.1 -4009.6,-134.7 			"/>
		</g>
		<polygon class="st0" points="-3923.1,-73.5 -3908.4,-49.3 -3908.4,-73.5 		"/>
	</g>
	<g>
		<g>
			<polygon class="st2" points="-3428,-145.1 -3428,-58.7 -3326.8,-58.7 -3326.8,-70.3 -3339.5,-70.3 -3339.5,-82.9 -3352.1,-82.9 
				-3352.1,-95.6 -3364.8,-95.6 -3364.8,-108.2 -3352.1,-108.2 -3352.1,-120.9 -3339.5,-120.9 -3339.5,-133.5 -3326.8,-133.5 
				-3326.8,-145.1 			"/>
			<polygon class="st3" points="-3428,-156.7 -3428,-70.3 -3326.8,-70.3 -3326.8,-81.9 -3339.5,-81.9 -3339.5,-94.5 -3352.1,-94.5 
				-3352.1,-107.2 -3364.8,-107.2 -3364.8,-119.8 -3352.1,-119.8 -3352.1,-132.5 -3339.5,-132.5 -3339.5,-145.1 -3326.8,-145.1 
				-3326.8,-156.7 			"/>
		</g>
		<polygon class="st2" points="-3413.3,-84 -3428,-59.7 -3428,-84 		"/>
		<g>
			<g>
				<polygon class="st2" points="-3908.8,-145.1 -3908.8,-58.7 -4010.1,-58.7 -4010.1,-70.3 -3997.4,-70.3 -3997.4,-82.9 
					-3984.8,-82.9 -3984.8,-95.6 -3972.1,-95.6 -3972.1,-108.2 -3984.8,-108.2 -3984.8,-120.9 -3997.4,-120.9 -3997.4,-133.5 
					-4010.1,-133.5 -4010.1,-145.1 				"/>
				<polygon class="st3" points="-3908.8,-156.7 -3908.8,-70.3 -4010.1,-70.3 -4010.1,-81.9 -3997.4,-81.9 -3997.4,-94.5 
					-3984.8,-94.5 -3984.8,-107.2 -3972.1,-107.2 -3972.1,-119.8 -3984.8,-119.8 -3984.8,-132.5 -3997.4,-132.5 -3997.4,-145.1 
					-4010.1,-145.1 -4010.1,-156.7 				"/>
			</g>
			<polygon class="st2" points="-3923.6,-84 -3908.8,-59.7 -3908.9,-84 			"/>
		</g>
		<g>
			<rect x="-3923.6" y="-170.4" class="st2" width="510.3" height="86.5"/>
			<rect x="-3923.6" y="-183.1" class="st3" width="510.3" height="86.5"/>
		</g>
	</g>
</g>
<g>
	<g>
		<path class="st22" d="M-3809.5-108.1h-37.4V-168h37.4v7.5h7.5v15h-7.5v15h7.5v15h-7.5V-108.1z M-3831.9-145.6h15v-7.5h-15V-145.6z
			 M-3831.9-123.1h15v-7.5h-15V-123.1z"/>
		<path class="st22" d="M-3779.5-108.1h-15v-52.4h7.5v-7.5h30v7.5h7.5v52.4h-15v-22.5h-15V-108.1z M-3764.5-145.6v-7.5h-15v7.5
			H-3764.5z"/>
		<path class="st22" d="M-3734.6-115.6h-7.5V-168h15v44.9h30v15h-37.4V-115.6z"/>
		<path class="st22" d="M-3682.1-115.6h-7.5V-168h15v44.9h30v15h-37.4V-115.6z"/>
		<path class="st22" d="M-3637.2-160.5h7.5v-7.5h30v7.5h7.5v44.9h-7.5v7.5h-30v-7.5h-7.5V-160.5z M-3622.2-123.1h15v-30h-15V-123.1z
			"/>
		<path class="st22" d="M-3584.8-160.5h7.5v-7.5h30v7.5h7.5v44.9h-7.5v7.5h-30v-7.5h-7.5V-160.5z M-3569.8-123.1h15v-30h-15V-123.1z
			"/>
		<path class="st22" d="M-3509.9-138.1h-7.5v30h-15V-168h15v7.5h7.5v7.5h7.5v-15h15v59.9h-15v-22.5h-7.5V-138.1z"/>
	</g>
	<g>
		<path class="st23" d="M-3809.5-113.9h-37.4v-59.9h37.4v7.5h7.5v15h-7.5v15h7.5v15h-7.5V-113.9z M-3831.9-151.4h15v-7.5h-15V-151.4
			z M-3831.9-128.9h15v-7.5h-15V-128.9z"/>
		<path class="st23" d="M-3779.5-113.9h-15v-52.4h7.5v-7.5h30v7.5h7.5v52.4h-15v-22.5h-15V-113.9z M-3764.5-151.4v-7.5h-15v7.5
			H-3764.5z"/>
		<path class="st23" d="M-3734.6-121.4h-7.5v-52.4h15v44.9h30v15h-37.4V-121.4z"/>
		<path class="st23" d="M-3682.1-121.4h-7.5v-52.4h15v44.9h30v15h-37.4V-121.4z"/>
		<path class="st23" d="M-3637.2-166.4h7.5v-7.5h30v7.5h7.5v44.9h-7.5v7.5h-30v-7.5h-7.5V-166.4z M-3622.2-128.9h15v-30h-15V-128.9z
			"/>
		<path class="st23" d="M-3584.8-166.4h7.5v-7.5h30v7.5h7.5v44.9h-7.5v7.5h-30v-7.5h-7.5V-166.4z M-3569.8-128.9h15v-30h-15V-128.9z
			"/>
		<path class="st23" d="M-3509.9-143.9h-7.5v30h-15v-59.9h15v7.5h7.5v7.5h7.5v-15h15v59.9h-15v-22.5h-7.5V-143.9z"/>
	</g>
</g>
<g>
	<path class="st0" d="M-3317.8,38.6h20.7v6.9h-20.7V38.6z"/>
	<path class="st0" d="M-3262.5,55.9h-6.9V28.2h17.3v3.5h3.5v10.4h-3.5v3.5h-10.4V55.9z M-3262.5,38.6h6.9v-3.5h-6.9V38.6z"/>
	<path class="st0" d="M-3234.9,45.5h-3.5v10.4h-6.9V28.2h17.3v3.5h3.5v10.4h-3.5v3.5h3.5v10.4h-6.9V49h-3.5V45.5z M-3238.4,38.6h6.9
		v-3.5h-6.9V38.6z"/>
	<path class="st0" d="M-3217.6,52.4h-3.5V31.7h3.5v-3.5h17.3v6.9h-13.8v3.5h6.9v6.9h-6.9V49h13.8v6.9h-17.3V52.4z"/>
	<path class="st0" d="M-3196.9,31.7h3.5v-3.5h17.3v6.9h-13.8v3.5h10.4v3.5h3.5v10.4h-3.5v3.5h-17.3V49h13.8v-3.5h-10.4v-3.5h-3.5
		V31.7z"/>
	<path class="st0" d="M-3172.7,31.7h3.5v-3.5h17.3v6.9h-13.8v3.5h10.4v3.5h3.5v10.4h-3.5v3.5h-17.3V49h13.8v-3.5h-10.4v-3.5h-3.5
		V31.7z"/>
	<path class="st0" d="M-3117.4,55.9h-6.9V31.7h3.5v-3.5h13.8v3.5h3.5v24.2h-6.9V45.5h-6.9V55.9z M-3110.5,38.6v-3.5h-6.9v3.5
		H-3110.5z"/>
	<path class="st0" d="M-3089.7,42.1h-3.5v13.8h-6.9V28.2h6.9v3.5h3.5v3.5h3.5v-6.9h6.9v27.6h-6.9V45.5h-3.5V42.1z"/>
	<path class="st0" d="M-3075.9,28.2h6.9v10.4h6.9V28.2h6.9v13.8h-3.5v3.5h-3.5v10.4h-6.9V45.5h-3.5v-3.5h-3.5V28.2z"/>
	<path class="st0" d="M-3020.6,55.9h-6.9V28.2h6.9v6.9h3.5v-3.5h3.5v-3.5h6.9v6.9h-3.5v3.5h-3.5v6.9h3.5V49h3.5v6.9h-6.9v-3.5h-3.5
		V49h-3.5V55.9z"/>
	<path class="st0" d="M-2999.9,52.4h-3.5V31.7h3.5v-3.5h17.3v6.9h-13.8v3.5h6.9v6.9h-6.9V49h13.8v6.9h-17.3V52.4z"/>
	<path class="st0" d="M-2979.2,28.2h6.9v10.4h6.9V28.2h6.9v13.8h-3.5v3.5h-3.5v10.4h-6.9V45.5h-3.5v-3.5h-3.5V28.2z"/>
	<path class="st0" d="M-2930.8,28.2h20.7v6.9h-6.9v20.7h-6.9V35.2h-6.9V28.2z"/>
	<path class="st0" d="M-2906.6,31.7h3.5v-3.5h13.8v3.5h3.5v20.7h-3.5v3.5h-13.8v-3.5h-3.5V31.7z M-2899.7,49h6.9V35.2h-6.9V49z"/>
	<path class="st0" d="M-2851.3,55.9h-6.9V28.2h17.3v3.5h3.5v10.4h-3.5v3.5h-10.4V55.9z M-2851.3,38.6h6.9v-3.5h-6.9V38.6z"/>
	<path class="st0" d="M-2830.6,52.4h-3.5V28.2h6.9V49h13.8v6.9h-17.3V52.4z"/>
	<path class="st0" d="M-2802.9,55.9h-6.9V31.7h3.5v-3.5h13.8v3.5h3.5v24.2h-6.9V45.5h-6.9V55.9z M-2796,38.6v-3.5h-6.9v3.5H-2796z"
		/>
	<path class="st0" d="M-2785.6,28.2h6.9v10.4h6.9V28.2h6.9v13.8h-3.5v3.5h-3.5v10.4h-6.9V45.5h-3.5v-3.5h-3.5V28.2z"/>
	<path class="st0" d="M-2737.2,38.6h20.7v6.9h-20.7V38.6z"/>
</g>
<g>
	<path class="st30" d="M-3318.7,32.7h20.7v6.9h-20.7V32.7z"/>
	<path class="st30" d="M-3263.4,50h-6.9V22.3h17.3v3.5h3.5v10.4h-3.5v3.5h-10.4V50z M-3263.4,32.7h6.9v-3.5h-6.9V32.7z"/>
	<path class="st30" d="M-3235.8,39.6h-3.5V50h-6.9V22.3h17.3v3.5h3.5v10.4h-3.5v3.5h3.5V50h-6.9v-6.9h-3.5V39.6z M-3239.2,32.7h6.9
		v-3.5h-6.9V32.7z"/>
	<path class="st30" d="M-3218.5,46.5h-3.5V25.8h3.5v-3.5h17.3v6.9h-13.8v3.5h6.9v6.9h-6.9v3.5h13.8V50h-17.3V46.5z"/>
	<path class="st30" d="M-3197.7,25.8h3.5v-3.5h17.3v6.9h-13.8v3.5h10.4v3.5h3.5v10.4h-3.5V50h-17.3v-6.9h13.8v-3.5h-10.4v-3.5h-3.5
		V25.8z"/>
	<path class="st30" d="M-3173.6,25.8h3.5v-3.5h17.3v6.9h-13.8v3.5h10.4v3.5h3.5v10.4h-3.5V50h-17.3v-6.9h13.8v-3.5h-10.4v-3.5h-3.5
		V25.8z"/>
	<path class="st30" d="M-3118.3,50h-6.9V25.8h3.5v-3.5h13.8v3.5h3.5V50h-6.9V39.6h-6.9V50z M-3111.3,32.7v-3.5h-6.9v3.5H-3111.3z"/>
	<path class="st30" d="M-3090.6,36.2h-3.5V50h-6.9V22.3h6.9v3.5h3.5v3.5h3.5v-6.9h6.9V50h-6.9V39.6h-3.5V36.2z"/>
	<path class="st30" d="M-3076.8,22.3h6.9v10.4h6.9V22.3h6.9v13.8h-3.5v3.5h-3.5V50h-6.9V39.6h-3.5v-3.5h-3.5V22.3z"/>
	<path class="st30" d="M-3021.5,50h-6.9V22.3h6.9v6.9h3.5v-3.5h3.5v-3.5h6.9v6.9h-3.5v3.5h-3.5v6.9h3.5v3.5h3.5V50h-6.9v-3.5h-3.5
		v-3.5h-3.5V50z"/>
	<path class="st30" d="M-3000.8,46.5h-3.5V25.8h3.5v-3.5h17.3v6.9h-13.8v3.5h6.9v6.9h-6.9v3.5h13.8V50h-17.3V46.5z"/>
	<path class="st30" d="M-2980,22.3h6.9v10.4h6.9V22.3h6.9v13.8h-3.5v3.5h-3.5V50h-6.9V39.6h-3.5v-3.5h-3.5V22.3z"/>
	<path class="st30" d="M-2931.6,22.3h20.7v6.9h-6.9V50h-6.9V29.3h-6.9V22.3z"/>
	<path class="st30" d="M-2907.4,25.8h3.5v-3.5h13.8v3.5h3.5v20.7h-3.5V50h-13.8v-3.5h-3.5V25.8z M-2900.5,43.1h6.9V29.3h-6.9V43.1z"
		/>
	<path class="st30" d="M-2852.2,50h-6.9V22.3h17.3v3.5h3.5v10.4h-3.5v3.5h-10.4V50z M-2852.2,32.7h6.9v-3.5h-6.9V32.7z"/>
	<path class="st30" d="M-2831.4,46.5h-3.5V22.3h6.9v20.7h13.8V50h-17.3V46.5z"/>
	<path class="st30" d="M-2803.8,50h-6.9V25.8h3.5v-3.5h13.8v3.5h3.5V50h-6.9V39.6h-6.9V50z M-2796.9,32.7v-3.5h-6.9v3.5H-2796.9z"/>
	<path class="st30" d="M-2786.5,22.3h6.9v10.4h6.9V22.3h6.9v13.8h-3.5v3.5h-3.5V50h-6.9V39.6h-3.5v-3.5h-3.5V22.3z"/>
	<path class="st30" d="M-2738.1,32.7h20.7v6.9h-20.7V32.7z"/>
</g>
<g>
	<path class="st4" d="M-3318.7,28.3h20.7v6.9h-20.7V28.3z"/>
	<path class="st4" d="M-3263.4,45.6h-6.9V17.9h17.3v3.5h3.5v10.4h-3.5v3.5h-10.4V45.6z M-3263.4,28.3h6.9v-3.5h-6.9V28.3z"/>
	<path class="st4" d="M-3235.8,35.2h-3.5v10.4h-6.9V17.9h17.3v3.5h3.5v10.4h-3.5v3.5h3.5v10.4h-6.9v-6.9h-3.5V35.2z M-3239.2,28.3
		h6.9v-3.5h-6.9V28.3z"/>
	<path class="st4" d="M-3218.5,42.1h-3.5V21.4h3.5v-3.5h17.3v6.9h-13.8v3.5h6.9v6.9h-6.9v3.5h13.8v6.9h-17.3V42.1z"/>
	<path class="st4" d="M-3197.7,21.4h3.5v-3.5h17.3v6.9h-13.8v3.5h10.4v3.5h3.5v10.4h-3.5v3.5h-17.3v-6.9h13.8v-3.5h-10.4v-3.5h-3.5
		V21.4z"/>
	<path class="st4" d="M-3173.6,21.4h3.5v-3.5h17.3v6.9h-13.8v3.5h10.4v3.5h3.5v10.4h-3.5v3.5h-17.3v-6.9h13.8v-3.5h-10.4v-3.5h-3.5
		V21.4z"/>
	<path class="st4" d="M-3118.3,45.6h-6.9V21.4h3.5v-3.5h13.8v3.5h3.5v24.2h-6.9V35.2h-6.9V45.6z M-3111.3,28.3v-3.5h-6.9v3.5
		H-3111.3z"/>
	<path class="st4" d="M-3090.6,31.8h-3.5v13.8h-6.9V17.9h6.9v3.5h3.5v3.5h3.5v-6.9h6.9v27.6h-6.9V35.2h-3.5V31.8z"/>
	<path class="st4" d="M-3076.8,17.9h6.9v10.4h6.9V17.9h6.9v13.8h-3.5v3.5h-3.5v10.4h-6.9V35.2h-3.5v-3.5h-3.5V17.9z"/>
	<path class="st4" d="M-3021.5,45.6h-6.9V17.9h6.9v6.9h3.5v-3.5h3.5v-3.5h6.9v6.9h-3.5v3.5h-3.5v6.9h3.5v3.5h3.5v6.9h-6.9v-3.5h-3.5
		v-3.5h-3.5V45.6z"/>
	<path class="st4" d="M-3000.8,42.1h-3.5V21.4h3.5v-3.5h17.3v6.9h-13.8v3.5h6.9v6.9h-6.9v3.5h13.8v6.9h-17.3V42.1z"/>
	<path class="st4" d="M-2980,17.9h6.9v10.4h6.9V17.9h6.9v13.8h-3.5v3.5h-3.5v10.4h-6.9V35.2h-3.5v-3.5h-3.5V17.9z"/>
	<path class="st4" d="M-2931.6,17.9h20.7v6.9h-6.9v20.7h-6.9V24.8h-6.9V17.9z"/>
	<path class="st4" d="M-2907.4,21.4h3.5v-3.5h13.8v3.5h3.5v20.7h-3.5v3.5h-13.8v-3.5h-3.5V21.4z M-2900.5,38.7h6.9V24.8h-6.9V38.7z"
		/>
	<path class="st4" d="M-2852.2,45.6h-6.9V17.9h17.3v3.5h3.5v10.4h-3.5v3.5h-10.4V45.6z M-2852.2,28.3h6.9v-3.5h-6.9V28.3z"/>
	<path class="st4" d="M-2831.4,42.1h-3.5V17.9h6.9v20.7h13.8v6.9h-17.3V42.1z"/>
	<path class="st4" d="M-2803.8,45.6h-6.9V21.4h3.5v-3.5h13.8v3.5h3.5v24.2h-6.9V35.2h-6.9V45.6z M-2796.9,28.3v-3.5h-6.9v3.5
		H-2796.9z"/>
	<path class="st4" d="M-2786.5,17.9h6.9v10.4h6.9V17.9h6.9v13.8h-3.5v3.5h-3.5v10.4h-6.9V35.2h-3.5v-3.5h-3.5V17.9z"/>
	<path class="st4" d="M-2738.1,28.3h20.7v6.9h-20.7V28.3z"/>
</g>
<path class="st31" d="M-556.9-673.8h-2.2h-10.8h-38.7h-12.9H-2148h-12.9h-38.7h-12.9h-12.9v22.6v840.8v11.3v33.9v11.3v11.3h25.8
	h1578.2h12.9h38.7h10.8h2.2h12.9v-931.2H-556.9z M-569.8-617.3v818.2v11.3h-12.9v11.3h-12.9v11.3h-12.9h-1552.4h-12.9v-11.3h-12.9
	v-11.3h-12.9v-11.3v-818.2v-11.3h12.9v-11.3h12.9v-11.3h12.9h204.3h135.5h1212.7h12.9v11.3h12.9v11.3h12.9V-617.3z"/>
<polygon class="st32" points="-1836.9,-1031.1 -1836.9,-1039.8 -1846.7,-1039.8 -2203.5,-1039.8 -2203.5,-956.4 -1847.4,-956.4 
	-1847.4,-965.1 -1846.7,-965.1 -1836.9,-965.1 -1836.9,-972 -1836.9,-973.8 -1827,-973.8 -1827,-980.8 -1827,-1031.1 "/>
<polygon class="st31" points="-1837.3,-1039.8 -1837.3,-1048.5 -1847.2,-1048.5 -2214.5,-1048.5 -2214.5,-1041.6 -2214.5,-1039.8 
	-2224.4,-1039.8 -2224.4,-989.5 -2214.6,-989.5 -2214.6,-982.5 -2214.5,-982.5 -2214.5,-973.8 -2204,-973.8 -2204,-965.1 
	-1847.9,-965.1 -1847.9,-973.8 -1847.2,-973.8 -1837.3,-973.8 -1837.3,-980.7 -1837.3,-982.5 -1827.5,-982.5 -1827.5,-989.5 
	-1827.5,-1039.8 "/>
<rect x="-2286.3" y="-823.7" class="st13" width="92.2" height="32.8"/>
<text transform="matrix(1 0 0 1 -2265.1943 -805.5463)" class="st4" style="font-family:'EditUndoBRK'; font-size:31.5429px;">DMG</text>
<g>
	<g>
		<polygon class="st23" points="-2086.5,-789.3 -1831.8,-789.3 -1831.8,-807.3 -2086.5,-807.3 -2086.5,-807.2 -2086.5,-802.1 
			-2093.5,-802.1 -2093.5,-794.5 -2086.5,-794.5 -2086.5,-789.4 		"/>
	</g>
	<polygon class="st23" points="-1823.2,-802.2 -1823.2,-807.3 -1823.2,-807.3 -1878.9,-807.3 -1878.9,-789.3 -1823.2,-789.3 
		-1823.2,-789.4 -1823.2,-794.5 -1816.2,-794.5 -1816.2,-802.2 	"/>
</g>
<g class="st33">
	<polygon class="st34" points="-1442.9,-576.2 -1442.9,-654.2 -1532.9,-654.2 -1532.9,-644.1 -1542.9,-644.1 -1542.9,-586.3 
		-1532.9,-586.3 -1532.9,-576.2 	"/>
	<polygon class="st34" points="-1207.9,-645.1 -1207.9,-655.2 -1218,-655.2 -1299.9,-655.2 -1299.9,-577.2 -1218,-577.2 
		-1207.9,-577.2 -1207.9,-587.3 -1197.8,-587.3 -1197.8,-645.1 	"/>
	<rect x="-1522.9" y="-645.2" class="st34" width="305" height="78"/>
</g>
<g>
	<polygon class="st31" points="-1432.9,-576.2 -1432.9,-654.2 -1522.9,-654.2 -1522.9,-644.1 -1532.9,-644.1 -1532.9,-586.3 
		-1522.9,-586.3 -1522.9,-576.2 	"/>
	<polygon class="st31" points="-1442.9,-586.2 -1442.9,-664.2 -1532.9,-664.2 -1532.9,-654.1 -1542.9,-654.1 -1542.9,-596.3 
		-1532.9,-596.3 -1532.9,-586.2 	"/>
	<polygon class="st31" points="-1217.9,-644.1 -1217.9,-654.2 -1228,-654.2 -1309.9,-654.2 -1309.9,-576.2 -1228,-576.2 
		-1217.9,-576.2 -1217.9,-586.3 -1207.8,-586.3 -1207.8,-644.1 	"/>
	<polygon class="st31" points="-1207.9,-654.1 -1207.9,-664.2 -1218,-664.2 -1299.9,-664.2 -1299.9,-586.2 -1218,-586.2 
		-1207.9,-586.2 -1207.9,-596.3 -1197.8,-596.3 -1197.8,-654.1 	"/>
	<rect x="-1432.9" y="-654.2" class="st31" width="123" height="78"/>
</g>
<g>
	<polygon class="st35" points="-1432.9,-586.2 -1432.9,-664.2 -1522.9,-664.2 -1522.9,-654.1 -1532.9,-654.1 -1532.9,-596.3 
		-1522.9,-596.3 -1522.9,-586.2 	"/>
	<polygon class="st35" points="-1217.9,-654.1 -1217.9,-664.2 -1228,-664.2 -1295.9,-664.2 -1295.9,-586.2 -1228,-586.2 
		-1217.9,-586.2 -1217.9,-596.3 -1207.8,-596.3 -1207.8,-654.1 	"/>
</g>
<g class="st33">
	<polygon class="st34" points="-1709.3,-971.9 -1709.3,-1041.8 -1789.9,-1041.8 -1789.9,-1032.8 -1798.9,-1032.8 -1798.9,-980.9 
		-1789.9,-980.9 -1789.9,-971.9 	"/>
	<polygon class="st34" points="-1498.5,-1033.7 -1498.5,-1042.7 -1507.5,-1042.7 -1581,-1042.7 -1581,-972.8 -1507.5,-972.8 
		-1498.5,-972.8 -1498.5,-981.8 -1489.4,-981.8 -1489.4,-1033.7 	"/>
	<rect x="-1781" y="-1033.7" class="st34" width="273.6" height="70"/>
</g>
<g>
	<polygon class="st31" points="-1700.3,-971.9 -1700.3,-1041.8 -1781,-1041.8 -1781,-1032.8 -1790,-1032.8 -1790,-980.9 
		-1781,-980.9 -1781,-971.9 	"/>
	<polygon class="st31" points="-1709.3,-980.8 -1709.3,-1050.8 -1789.9,-1050.8 -1789.9,-1041.8 -1798.9,-1041.8 -1798.9,-989.9 
		-1789.9,-989.9 -1789.9,-980.8 	"/>
	<polygon class="st31" points="-1507.4,-1032.8 -1507.4,-1041.8 -1516.4,-1041.8 -1590,-1041.8 -1590,-971.9 -1516.4,-971.9 
		-1507.4,-971.9 -1507.4,-980.9 -1498.4,-980.9 -1498.4,-1032.8 	"/>
	<polygon class="st31" points="-1498.5,-1041.8 -1498.5,-1050.8 -1507.5,-1050.8 -1581,-1050.8 -1581,-980.8 -1507.5,-980.8 
		-1498.5,-980.8 -1498.5,-989.9 -1489.4,-989.9 -1489.4,-1041.8 	"/>
	<rect x="-1700.3" y="-1041.8" class="st31" width="110.3" height="70"/>
</g>
<g>
	<polygon class="st35" points="-1700.3,-980.8 -1700.3,-1050.8 -1780.9,-1050.8 -1780.9,-1041.8 -1790,-1041.8 -1790,-989.9 
		-1780.9,-989.9 -1780.9,-980.8 	"/>
	<polygon class="st35" points="-1507.4,-1041.8 -1507.4,-1050.8 -1516.4,-1050.8 -1577.4,-1050.8 -1577.4,-980.8 -1516.4,-980.8 
		-1507.4,-980.8 -1507.4,-989.9 -1498.4,-989.9 -1498.4,-1041.8 	"/>
</g>
<rect x="-1447.9" y="-664.2" class="st35" width="169" height="78"/>
<rect x="-1713.7" y="-1050.8" class="st35" width="151.6" height="70"/>
<g>
	<rect x="-1452.9" y="-632" class="st13" width="179" height="81.8"/>
	<text transform="matrix(1 0 0 1 -1430.8376 -604.3233)" class="st4" style="font-family:'EditUndoBRK'; font-size:48px;">124 KM</text>
</g>
<g>
	<rect x="-567.3" y="-654.2" class="st32" width="8" height="2"/>
	<polygon class="st32" points="-648.4,-654.2 -648.4,-644.1 -658.3,-644.1 -658.3,-586.3 -648.4,-586.3 -648.4,-576.3 
		-648.4,-576.3 -648.4,-576.2 -638.5,-576.2 -638.5,-566.2 -583.3,-566.2 -583.3,-654.2 	"/>
</g>
<polygon class="st31" points="-558.3,-654.2 -558.3,-664.2 -648.3,-664.2 -648.3,-654.1 -658.3,-654.1 -658.3,-596.3 -648.3,-596.3 
	-648.3,-586.3 -648.3,-586.3 -648.3,-586.2 -638.3,-586.2 -638.3,-576.2 -548.3,-576.2 -548.3,-654.2 "/>
<g>
	<g>
		<g>
			<polygon class="st2" points="-588.3,-642.7 -593.6,-642.7 -626.1,-642.7 -626.1,-637.4 -631.4,-637.4 -631.4,-599.5 
				-626.1,-599.5 -626.1,-594.2 -593.6,-594.2 -588.3,-594.2 -588.3,-599.5 -582.9,-599.5 -582.9,-637.4 -588.3,-637.4 			"/>
			<polygon class="st3" points="-588,-648.4 -593.4,-648.4 -626.1,-648.4 -626.1,-643.1 -631.4,-643.1 -631.4,-605 -626.1,-605 
				-626.1,-599.6 -593.4,-599.6 -588,-599.6 -588,-605 -582.6,-605 -582.6,-643.1 -588,-643.1 			"/>
		</g>
		<g>
			<rect x="-618.5" y="-619.3" class="st4" width="24.2" height="4.8"/>
			<rect x="-618.5" y="-630.5" class="st4" width="24.2" height="4.8"/>
		</g>
	</g>
	<g class="st33">
		<polygon class="st36" points="-626.1,-594.1 -626.1,-589.1 -620.7,-589.1 -588,-589.1 -588,-594.1 -620.7,-594.1 		"/>
		<rect x="-631.4" y="-599.4" class="st36" width="5.4" height="5"/>
		<rect x="-588" y="-599.4" class="st36" width="5.4" height="5"/>
	</g>
</g>
<g>
	<g>
		<g>
			<polygon class="st2" points="-1234.8,-1032.2 -1238.9,-1032.2 -1264.3,-1032.2 -1264.3,-1028 -1268.4,-1028 -1268.4,-998.5 
				-1264.3,-998.5 -1264.3,-994.4 -1238.9,-994.4 -1234.8,-994.4 -1234.8,-998.5 -1230.6,-998.5 -1230.6,-1028 -1234.8,-1028 			"/>
			<polygon class="st3" points="-1234.6,-1036.7 -1238.8,-1036.7 -1264.2,-1036.7 -1264.2,-1032.5 -1268.4,-1032.5 -1268.4,-1002.8 
				-1264.2,-1002.8 -1264.2,-998.6 -1238.8,-998.6 -1234.6,-998.6 -1234.6,-1002.8 -1230.4,-1002.8 -1230.4,-1032.5 
				-1234.6,-1032.5 			"/>
		</g>
		<g>
			
				<rect x="-1263.7" y="-1019.3" transform="matrix(-1.836970e-16 1 -1 -1.836970e-16 -2271.7363 236.8403)" class="st4" width="18.9" height="3.8"/>
			
				<rect x="-1253" y="-1019.3" transform="matrix(-1.836970e-16 1 -1 -1.836970e-16 -2261.0339 226.1378)" class="st4" width="18.9" height="3.8"/>
		</g>
	</g>
	<g class="st33">
		<polygon class="st36" points="-1264.2,-994.3 -1264.2,-990.4 -1260.1,-990.4 -1234.6,-990.4 -1234.6,-994.3 -1260.1,-994.3 		"/>
		<rect x="-1268.4" y="-998.5" class="st36" width="4.2" height="3.9"/>
		<rect x="-1234.6" y="-998.5" class="st36" width="4.2" height="3.9"/>
	</g>
</g>
<polygon class="st23" points="-2059.9,-906.9 -2059.9,-910.7 -2069.5,-910.7 -2069.9,-910.7 -2079.2,-910.7 -2079.5,-910.7 
	-2088.8,-910.7 -2089.2,-910.7 -2098.8,-910.7 -2098.8,-906.9 -2103.6,-906.9 -2103.6,-901.5 -2098.8,-901.5 -2098.8,-897.8 
	-2098.5,-897.8 -2094.3,-897.8 -2093.5,-897.8 -2089.3,-897.8 -2089.2,-897.8 -2088.9,-897.8 -2088.8,-897.8 -2084.7,-897.8 
	-2083.9,-897.8 -2079.7,-897.8 -2079.5,-897.8 -2079.3,-897.8 -2079.2,-897.8 -2075.1,-897.8 -2074.3,-897.8 -2070.1,-897.8 
	-2069.9,-897.8 -2069.7,-897.8 -2069.5,-897.8 -2065.5,-897.8 -2064.6,-897.8 -2060.4,-897.8 -2059.9,-897.8 -2059.9,-901.5 
	-2055.4,-901.5 -2055.4,-906.9 "/>
<polygon class="st23" points="-2053.2,-1143.8 -2053.2,-1147.5 -2062.8,-1147.5 -2063.2,-1147.5 -2072.4,-1147.5 -2072.8,-1147.5 
	-2082.1,-1147.5 -2082.4,-1147.5 -2092.1,-1147.5 -2092.1,-1143.8 -2096.8,-1143.8 -2096.8,-1138.4 -2092.1,-1138.4 
	-2092.1,-1134.6 -2091.8,-1134.6 -2087.6,-1134.6 -2086.8,-1134.6 -2082.6,-1134.6 -2082.4,-1134.6 -2082.2,-1134.6 
	-2082.1,-1134.6 -2078,-1134.6 -2077.2,-1134.6 -2073,-1134.6 -2072.8,-1134.6 -2072.6,-1134.6 -2072.4,-1134.6 -2068.4,-1134.6 
	-2067.5,-1134.6 -2063.3,-1134.6 -2063.2,-1134.6 -2062.9,-1134.6 -2062.8,-1134.6 -2058.7,-1134.6 -2057.9,-1134.6 
	-2053.7,-1134.6 -2053.2,-1134.6 -2053.2,-1138.3 -2048.7,-1138.3 -2048.7,-1143.8 "/>
<polygon class="st37" points="-1899.3,-1143.8 -1899.3,-1147.5 -1908.9,-1147.5 -1909.3,-1147.5 -1918.6,-1147.5 -1918.9,-1147.5 
	-1928.2,-1147.5 -1928.6,-1147.5 -1937.6,-1147.5 -1938.2,-1147.5 -1947.2,-1147.5 -1947.6,-1147.5 -1956.9,-1147.5 
	-1957.2,-1147.5 -1966.5,-1147.5 -1966.9,-1147.5 -1976.1,-1147.5 -1976.5,-1147.5 -1985.8,-1147.5 -1986.1,-1147.5 
	-1995.4,-1147.5 -1995.8,-1147.5 -2005,-1147.5 -2005.4,-1147.5 -2014.7,-1147.5 -2015,-1147.5 -2024.3,-1147.5 -2024.7,-1147.5 
	-2033.9,-1147.5 -2034.3,-1147.5 -2043.5,-1147.5 -2043.9,-1147.5 -2053.2,-1147.5 -2053.6,-1147.5 -2062.8,-1147.5 
	-2063.2,-1147.5 -2072.4,-1147.5 -2072.8,-1147.5 -2082.1,-1147.5 -2082.4,-1147.5 -2092.1,-1147.5 -2092.1,-1143.8 
	-2096.8,-1143.8 -2096.8,-1138.4 -2092.1,-1138.4 -2092.1,-1134.6 -2091.8,-1134.6 -2087.6,-1134.6 -2086.8,-1134.6 
	-2082.6,-1134.6 -2082.4,-1134.6 -2082.2,-1134.6 -2082.1,-1134.6 -2078,-1134.6 -2077.2,-1134.6 -2073,-1134.6 -2072.8,-1134.6 
	-2072.6,-1134.6 -2072.4,-1134.6 -2068.4,-1134.6 -2067.5,-1134.6 -2063.3,-1134.6 -2063.2,-1134.6 -2062.9,-1134.6 
	-2062.8,-1134.6 -2058.7,-1134.6 -2057.9,-1134.6 -2053.7,-1134.6 -2053.6,-1134.6 -2053.3,-1134.6 -2053.2,-1134.6 
	-2049.1,-1134.6 -2048.3,-1134.6 -2044.1,-1134.6 -2043.9,-1134.6 -2043.7,-1134.6 -2043.5,-1134.6 -2039.5,-1134.6 
	-2038.6,-1134.6 -2034.4,-1134.6 -2034.3,-1134.6 -2034,-1134.6 -2033.9,-1134.6 -2029.8,-1134.6 -2029,-1134.6 -2024.8,-1134.6 
	-2024.7,-1134.6 -2024.4,-1134.6 -2024.3,-1134.6 -2020.2,-1134.6 -2019.4,-1134.6 -2015.2,-1134.6 -2015,-1134.6 -2014.8,-1134.6 
	-2014.7,-1134.6 -2010.6,-1134.6 -2009.8,-1134.6 -2005.5,-1134.6 -2005.4,-1134.6 -2005.2,-1134.6 -2005,-1134.6 -2000.9,-1134.6 
	-2000.1,-1134.6 -1995.9,-1134.6 -1995.8,-1134.6 -1995.5,-1134.6 -1995.4,-1134.6 -1991.3,-1134.6 -1990.5,-1134.6 
	-1986.3,-1134.6 -1986.1,-1134.6 -1985.9,-1134.6 -1985.8,-1134.6 -1981.7,-1134.6 -1980.9,-1134.6 -1976.7,-1134.6 
	-1976.5,-1134.6 -1976.3,-1134.6 -1976.1,-1134.6 -1972.1,-1134.6 -1971.2,-1134.6 -1967,-1134.6 -1966.9,-1134.6 -1966.6,-1134.6 
	-1966.5,-1134.6 -1962.4,-1134.6 -1961.6,-1134.6 -1957.4,-1134.6 -1957.2,-1134.6 -1957,-1134.6 -1956.9,-1134.6 -1952.8,-1134.6 
	-1952,-1134.6 -1947.8,-1134.6 -1947.6,-1134.6 -1947.4,-1134.6 -1947.2,-1134.6 -1943.2,-1134.6 -1942.3,-1134.6 -1938.2,-1134.6 
	-1938.1,-1134.6 -1938,-1134.6 -1937.6,-1134.6 -1933.8,-1134.6 -1932.9,-1134.6 -1928.7,-1134.6 -1928.6,-1134.6 -1928.3,-1134.6 
	-1928.2,-1134.6 -1924.1,-1134.6 -1923.3,-1134.6 -1919.1,-1134.6 -1918.9,-1134.6 -1918.7,-1134.6 -1918.6,-1134.6 
	-1914.5,-1134.6 -1913.7,-1134.6 -1909.5,-1134.6 -1909.3,-1134.6 -1909.1,-1134.6 -1908.9,-1134.6 -1904.9,-1134.6 -1904,-1134.6 
	-1899.8,-1134.6 -1899.3,-1134.6 -1899.3,-1138.3 -1894.8,-1138.3 -1894.8,-1143.8 "/>
<g>
	<polygon class="st31" points="-348.3,234.8 -343,234.8 -330.1,234.8 -330.1,223.5 -317.2,223.5 -317.2,212.2 -304.3,212.2 
		-304.3,200.9 -304.3,187.5 -278.5,187.5 -278.5,189.6 -278.5,200.9 -278.5,234.8 -278.5,246.1 -278.5,257.4 -304.3,257.4 
		-348.3,257.4 	"/>
</g>
<g>
	<polygon class="st31" points="-282.1,187.6 -282.1,192.9 -282.1,205.8 -270.8,205.8 -270.8,218.7 -259.5,218.7 -259.5,231.6 
		-248.2,231.6 -234.9,231.6 -234.9,257.4 -236.9,257.4 -248.2,257.4 -282.1,257.4 -293.4,257.4 -304.7,257.4 -304.7,231.6 
		-304.7,187.6 	"/>
</g>
<g>
	<polygon class="st31" points="-334.3,234.8 -334.3,240.1 -334.3,253 -323,253 -323,265.9 -311.7,265.9 -311.7,278.8 -300.4,278.8 
		-287,278.8 -287,304.6 -289.1,304.6 -300.4,304.6 -334.3,304.6 -345.6,304.6 -356.9,304.6 -356.9,278.8 -356.9,234.8 	"/>
</g>
<g>
	<polygon class="st31" points="-415.5,234.8 -420.8,234.8 -433.7,234.8 -433.7,223.5 -446.6,223.5 -446.6,212.2 -459.5,212.2 
		-459.5,200.9 -459.5,187.5 -485.3,187.5 -485.3,189.6 -485.3,200.9 -485.3,234.8 -485.3,246.1 -485.3,257.4 -459.5,257.4 
		-415.5,257.4 	"/>
</g>
<g>
	<polygon class="st31" points="-360.1,282 -365.4,282 -378.3,282 -378.3,270.7 -391.2,270.7 -391.2,259.4 -404.1,259.4 
		-404.1,248.1 -404.1,234.7 -429.9,234.7 -429.9,236.8 -429.9,248.1 -429.9,282 -429.9,293.3 -429.9,304.6 -404.1,304.6 
		-360.1,304.6 	"/>
</g>
<g>
	<polygon class="st31" points="-482.5,198.4 -482.5,203.7 -482.5,216.6 -493.8,216.6 -493.8,229.5 -505.1,229.5 -505.1,242.4 
		-516.4,242.4 -529.8,242.4 -529.8,268.2 -527.7,268.2 -516.4,268.2 -482.5,268.2 -471.2,268.2 -459.9,268.2 -459.9,242.4 
		-459.9,198.4 	"/>
</g>
<polygon class="st32" points="-1308.6,-1023.9 -1308.6,-1032.9 -1308.7,-1032.9 -1308.7,-1032.9 -1317.6,-1032.9 -1317.6,-1041.9 
	-1345.5,-1041.9 -1352.7,-1041.9 -1367,-1041.9 -1425.4,-1041.9 -1425.4,-1032.9 -1434.3,-1032.9 -1434.3,-980.9 -1425.5,-980.9 
	-1425.5,-972 -1425.4,-972 -1425.4,-971.9 -1416.5,-971.9 -1416.5,-962.9 -1367,-962.9 -1366.2,-962.9 -1366.2,-971.9 
	-1344.5,-971.9 -1344.5,-962.9 -1308.7,-962.9 -1308.7,-972 -1299.7,-972 -1299.7,-1023.9 "/>
<polygon class="st31" points="-1344.6,-1041.9 -1344.6,-1050.9 -1425.3,-1050.9 -1425.3,-1041.8 -1434.3,-1041.8 -1434.3,-989.9 
	-1425.4,-989.9 -1425.4,-980.9 -1425.3,-980.9 -1425.3,-980.9 -1416.3,-980.9 -1416.3,-971.9 -1335.6,-971.9 -1335.6,-1041.9 "/>
<g>
	<polygon class="st7" points="778.1,-607.2 761.6,-607.2 761.6,-615.2 745.1,-615.2 745.1,-623.9 33,-623.9 33,-615.2 16.5,-615.2 
		16.5,-607.2 0,-607.2 0,-139.3 16.5,-139.3 16.5,-131.3 33,-131.3 33,-122.6 745.1,-122.6 745.1,-131.3 761.6,-131.3 761.6,-139.3 
		778.1,-139.3 	"/>
	<polygon class="st8" points="778.1,-615.4 761.6,-615.4 761.6,-623.4 745.1,-623.4 745.1,-632.1 33,-632.1 33,-623.4 16.5,-623.4 
		16.5,-615.4 0,-615.4 0,-147.5 16.5,-147.5 16.5,-139.6 33,-139.6 33,-130.8 745.1,-130.8 745.1,-139.6 761.6,-139.6 761.6,-147.5 
		778.1,-147.5 	"/>
</g>
<g>
	<g>
		<polygon class="st20" points="854.7,-509 854.7,-332 868.2,-332 868.2,-321.7 881.7,-321.7 881.7,-310.4 1463.3,-310.4 
			1463.3,-321.7 1476.8,-321.7 1476.8,-332 1490.3,-332 1490.3,-509 		"/>
		<polygon class="st20" points="1490.3,-509 1490.3,-610.9 1476.8,-610.9 1476.8,-621.2 1463.3,-621.2 1463.3,-632.5 881.7,-632.5 
			881.7,-621.2 868.2,-621.2 868.2,-610.9 854.7,-610.9 854.7,-509 		"/>
	</g>
	<g>
		<polygon class="st21" points="868.2,-610.8 881.7,-610.8 881.7,-621.2 868.2,-621.2 868.2,-610.9 854.7,-610.9 854.7,-600.5 
			868.2,-600.5 		"/>
		<rect x="881.7" y="-632.5" class="st21" width="581.6" height="10.4"/>
		<polygon class="st21" points="1476.8,-610.9 1476.8,-621.2 1463.3,-621.2 1463.3,-610.8 1476.8,-610.8 1476.8,-600.5 
			1490.3,-600.5 1490.3,-610.9 		"/>
	</g>
</g>
<g>
	<polygon class="st2" points="272.5,-74.1 265.6,-74.1 6.9,-74.1 6.9,-67.2 0,-67.2 0,-27.2 6.9,-27.2 6.9,-20.3 265.6,-20.3 
		272.5,-20.3 272.5,-27.2 279.5,-27.2 279.5,-67.2 272.5,-67.2 	"/>
	<polygon class="st3" points="272.5,-81 265.6,-81 6.9,-81 6.9,-74.1 0,-74.1 0,-34.1 6.9,-34.1 6.9,-27.2 265.6,-27.2 272.5,-27.2 
		272.5,-34.1 279.5,-34.1 279.5,-74.1 272.5,-74.1 	"/>
	<g>
		<path class="st4" d="M50.6-45.9H38.7V-65h11.9v2.4H53v4.8h-2.4v4.8H53v4.8h-2.4V-45.9z M43.5-57.8h4.8v-2.4h-4.8V-57.8z
			 M43.5-50.7h4.8v-2.4h-4.8V-50.7z"/>
		<path class="st4" d="M60.2-45.9h-4.8v-16.7h2.4V-65h9.5v2.4h2.4v16.7h-4.8v-7.2h-4.8V-45.9z M64.9-57.8v-2.4h-4.8v2.4H64.9z"/>
		<path class="st4" d="M72.1-62.6h2.4V-65h11.9v4.8h-9.5v9.5h9.5v4.8H74.5v-2.4h-2.4V-62.6z"/>
		<path class="st4" d="M93.6-45.9h-4.8V-65h4.8v4.8h2.4v-2.4h2.4V-65h4.8v4.8h-2.4v2.4h-2.4v4.8h2.4v2.4h2.4v4.8h-4.8v-2.4h-2.4
			v-2.4h-2.4V-45.9z"/>
		<path class="st4" d="M122.2-65h14.3v4.8h-4.8v14.3h-4.8v-14.3h-4.8V-65z"/>
		<path class="st4" d="M138.9-62.6h2.4V-65h9.5v2.4h2.4v14.3h-2.4v2.4h-9.5v-2.4h-2.4V-62.6z M143.6-50.7h4.8v-9.5h-4.8V-50.7z"/>
		<path class="st4" d="M177-45.9h-4.8V-65h4.8v2.4h2.4v2.4h2.4v-2.4h2.4V-65h4.8v19.1h-4.8v-9.5h-2.4v2.4h-2.4v-2.4H177V-45.9z"/>
		<path class="st4" d="M193.7-48.3h-2.4v-14.3h2.4V-65h11.9v4.8h-9.5v2.4h4.8v4.8h-4.8v2.4h9.5v4.8h-11.9V-48.3z"/>
		<path class="st4" d="M215.2-55.4h-2.4v9.5H208V-65h4.8v2.4h2.4v2.4h2.4V-65h4.8v19.1h-4.8v-7.2h-2.4V-55.4z"/>
		<path class="st4" d="M224.7-65h4.8v14.3h4.8V-65h4.8v16.7h-2.4v2.4h-9.5v-2.4h-2.4V-65z"/>
	</g>
</g>
<g>
	<polygon class="st2" points="771.2,6.5 764.2,6.5 505.6,6.5 505.6,13.4 498.6,13.4 498.6,53.4 505.6,53.4 505.6,60.3 764.2,60.3 
		771.2,60.3 771.2,53.4 778.1,53.4 778.1,13.4 771.2,13.4 	"/>
	<polygon class="st2" points="771.2,6.6 764.2,6.6 505.6,6.6 505.6,13.5 498.6,13.5 498.6,53.5 505.6,53.5 505.6,60.4 764.2,60.4 
		771.2,60.4 771.2,53.5 778.1,53.5 778.1,13.5 771.2,13.5 	"/>
	<g>
		<path class="st4" d="M563.6,22.6h14.3v4.8h-4.8v14.3h-4.8V27.4h-4.8V22.6z"/>
		<path class="st4" d="M587.4,34.5H585v7.2h-4.8V22.6h11.9V25h2.4v7.2h-2.4v2.4h2.4v7.2h-4.8v-4.8h-2.4V34.5z M585,29.8h4.8v-2.4
			H585V29.8z"/>
		<path class="st4" d="M596.9,22.6h4.8v7.2h4.8v-7.2h4.8v9.5h-2.4v2.4h-2.4v7.2h-4.8v-7.2h-2.4v-2.4h-2.4V22.6z"/>
		<path class="st4" d="M635.1,41.7h-4.8V25h2.4v-2.4h9.5V25h2.4v16.7h-4.8v-7.2h-4.8V41.7z M639.9,29.8v-2.4h-4.8v2.4H639.9z"/>
		<path class="st4" d="M649.4,39.3H647V25h2.4v-2.4h11.9v4.8h-9.5v9.5h4.8v-2.4h-2.4v-4.8h7.2v11.9h-11.9V39.3z"/>
		<path class="st4" d="M668.5,41.7h-4.8V25h2.4v-2.4h9.5V25h2.4v16.7h-4.8v-7.2h-4.8V41.7z M673.2,29.8v-2.4h-4.8v2.4H673.2z"/>
		<path class="st4" d="M680.4,22.6h14.3v4.8h-4.8v9.5h4.8v4.8h-14.3v-4.8h4.8v-9.5h-4.8V22.6z"/>
		<path class="st4" d="M704.2,32.1h-2.4v9.5h-4.8V22.6h4.8V25h2.4v2.4h2.4v-4.8h4.8v19.1h-4.8v-7.2h-2.4V32.1z"/>
	</g>
</g>
<g>
	<polygon class="st2" points="771.2,-76.5 764.2,-76.5 505.6,-76.5 505.6,-69.6 498.6,-69.6 498.6,-29.6 505.6,-29.6 505.6,-22.7 
		764.2,-22.7 771.2,-22.7 771.2,-29.6 778.1,-29.6 778.1,-69.6 771.2,-69.6 	"/>
	<polygon class="st3" points="771.2,-83.4 764.2,-83.4 505.6,-83.4 505.6,-76.5 498.6,-76.5 498.6,-36.5 505.6,-36.5 505.6,-29.6 
		764.2,-29.6 771.2,-29.6 771.2,-36.5 778.1,-36.5 778.1,-76.5 771.2,-76.5 	"/>
	<g>
		<path class="st4" d="M563.6-67.4h14.3v4.8h-4.8v14.3h-4.8v-14.3h-4.8V-67.4z"/>
		<path class="st4" d="M587.4-55.5H585v7.2h-4.8v-19.1h11.9v2.4h2.4v7.2h-2.4v2.4h2.4v7.2h-4.8v-4.8h-2.4V-55.5z M585-60.2h4.8v-2.4
			H585V-60.2z"/>
		<path class="st4" d="M596.9-67.4h4.8v7.2h4.8v-7.2h4.8v9.5h-2.4v2.4h-2.4v7.2h-4.8v-7.2h-2.4v-2.4h-2.4V-67.4z"/>
		<path class="st4" d="M635.1-48.3h-4.8V-65h2.4v-2.4h9.5v2.4h2.4v16.7h-4.8v-7.2h-4.8V-48.3z M639.9-60.2v-2.4h-4.8v2.4H639.9z"/>
		<path class="st4" d="M649.4-50.7H647V-65h2.4v-2.4h11.9v4.8h-9.5v9.5h4.8v-2.4h-2.4v-4.8h7.2v11.9h-11.9V-50.7z"/>
		<path class="st4" d="M668.5-48.3h-4.8V-65h2.4v-2.4h9.5v2.4h2.4v16.7h-4.8v-7.2h-4.8V-48.3z M673.2-60.2v-2.4h-4.8v2.4H673.2z"/>
		<path class="st4" d="M680.4-67.4h14.3v4.8h-4.8v9.5h4.8v4.8h-14.3v-4.8h4.8v-9.5h-4.8V-67.4z"/>
		<path class="st4" d="M704.2-57.9h-2.4v9.5h-4.8v-19.1h4.8v2.4h2.4v2.4h2.4v-4.8h4.8v19.1h-4.8v-7.2h-2.4V-57.9z"/>
	</g>
</g>
<g>
	<polygon class="st2" points="272.5,6.9 265.6,6.9 6.9,6.9 6.9,13.8 0,13.8 0,53.8 6.9,53.8 6.9,60.7 265.6,60.7 272.5,60.7 
		272.5,53.8 279.5,53.8 279.5,13.8 272.5,13.8 	"/>
	<polygon class="st2" points="272.5,7 265.6,7 6.9,7 6.9,13.9 0,13.9 0,53.9 6.9,53.9 6.9,60.8 265.6,60.8 272.5,60.8 272.5,53.9 
		279.5,53.9 279.5,13.9 272.5,13.9 	"/>
	<g>
		<path class="st4" d="M50.6,42.1H38.7V23h11.9v2.4H53v4.8h-2.4v4.8H53v4.8h-2.4V42.1z M43.5,30.2h4.8v-2.4h-4.8V30.2z M43.5,37.3
			h4.8v-2.4h-4.8V37.3z"/>
		<path class="st4" d="M60.2,42.1h-4.8V25.4h2.4V23h9.5v2.4h2.4v16.7h-4.8v-7.2h-4.8V42.1z M64.9,30.2v-2.4h-4.8v2.4H64.9z"/>
		<path class="st4" d="M72.1,25.4h2.4V23h11.9v4.8h-9.5v9.5h9.5v4.8H74.5v-2.4h-2.4V25.4z"/>
		<path class="st4" d="M93.6,42.1h-4.8V23h4.8v4.8h2.4v-2.4h2.4V23h4.8v4.8h-2.4v2.4h-2.4v4.8h2.4v2.4h2.4v4.8h-4.8v-2.4h-2.4v-2.4
			h-2.4V42.1z"/>
		<path class="st4" d="M122.2,23h14.3v4.8h-4.8v14.3h-4.8V27.8h-4.8V23z"/>
		<path class="st4" d="M138.9,25.4h2.4V23h9.5v2.4h2.4v14.3h-2.4v2.4h-9.5v-2.4h-2.4V25.4z M143.6,37.3h4.8v-9.5h-4.8V37.3z"/>
		<path class="st4" d="M177,42.1h-4.8V23h4.8v2.4h2.4v2.4h2.4v-2.4h2.4V23h4.8v19.1h-4.8v-9.5h-2.4v2.4h-2.4v-2.4H177V42.1z"/>
		<path class="st4" d="M193.7,39.7h-2.4V25.4h2.4V23h11.9v4.8h-9.5v2.4h4.8v4.8h-4.8v2.4h9.5v4.8h-11.9V39.7z"/>
		<path class="st4" d="M215.2,32.6h-2.4v9.5H208V23h4.8v2.4h2.4v2.4h2.4V23h4.8v19.1h-4.8v-7.2h-2.4V32.6z"/>
		<path class="st4" d="M224.7,23h4.8v14.3h4.8V23h4.8v16.7h-2.4v2.4h-9.5v-2.4h-2.4V23z"/>
	</g>
</g>
<g>
	<path class="st4" d="M-3497.9,710.2h-1.3v3.9h-2.6v-10.4h6.5v1.3h1.3v3.9h-1.3v1.3h1.3v3.9h-2.6v-2.6h-1.3V710.2z M-3499.2,707.6
		h2.6v-1.3h-2.6V707.6z"/>
	<path class="st4" d="M-3491.4,712.8h-1.3V705h1.3v-1.3h6.5v2.6h-5.2v1.3h2.6v2.6h-2.6v1.3h5.2v2.6h-6.5V712.8z"/>
	<path class="st4" d="M-3481,714.1h-2.6V705h1.3v-1.3h5.2v1.3h1.3v9.1h-2.6v-3.9h-2.6V714.1z M-3478.4,707.6v-1.3h-2.6v1.3H-3478.4z
		"/>
	<path class="st4" d="M-3469.4,714.1h-5.2v-10.4h5.2v1.3h1.3v1.3h1.3v5.2h-1.3v1.3h-1.3V714.1z M-3470.7,706.3h-1.3v5.2h1.3v-1.3
		h1.3v-2.6h-1.3V706.3z"/>
	<path class="st4" d="M-3465.5,703.7h2.6v3.9h2.6v-3.9h2.6v5.2h-1.3v1.3h-1.3v3.9h-2.6v-3.9h-1.3v-1.3h-1.3V703.7z"/>
	<path class="st4" d="M-3447.3,703.7h7.8v2.6h-2.6v7.8h-2.6v-7.8h-2.6V703.7z"/>
	<path class="st4" d="M-3438.3,705h1.3v-1.3h5.2v1.3h1.3v7.8h-1.3v1.3h-5.2v-1.3h-1.3V705z M-3435.7,711.5h2.6v-5.2h-2.6V711.5z"/>
	<path class="st4" d="M-3418.8,712.8h-1.3V705h1.3v-1.3h6.5v2.6h-5.2v5.2h2.6v-1.3h-1.3v-2.6h3.9v6.5h-6.5V712.8z"/>
	<path class="st4" d="M-3411,705h1.3v-1.3h5.2v1.3h1.3v7.8h-1.3v1.3h-5.2v-1.3h-1.3V705z M-3408.4,711.5h2.6v-5.2h-2.6V711.5z"/>
	<path class="st4" d="M-3402,703.7h2.6v6.5h-2.6V703.7z M-3402,711.5h2.6v2.6h-2.6V711.5z"/>
</g>
<g>
	<path class="st4" d="M-3497.9,670.2h-1.3v3.9h-2.6v-10.4h6.5v1.3h1.3v3.9h-1.3v1.3h1.3v3.9h-2.6v-2.6h-1.3V670.2z M-3499.2,667.6
		h2.6v-1.3h-2.6V667.6z"/>
	<path class="st4" d="M-3491.4,672.8h-1.3V665h1.3v-1.3h6.5v2.6h-5.2v1.3h2.6v2.6h-2.6v1.3h5.2v2.6h-6.5V672.8z"/>
	<path class="st4" d="M-3481,674.1h-2.6V665h1.3v-1.3h5.2v1.3h1.3v9.1h-2.6v-3.9h-2.6V674.1z M-3478.4,667.6v-1.3h-2.6v1.3H-3478.4z
		"/>
	<path class="st4" d="M-3469.4,674.1h-5.2v-10.4h5.2v1.3h1.3v1.3h1.3v5.2h-1.3v1.3h-1.3V674.1z M-3470.7,666.3h-1.3v5.2h1.3v-1.3
		h1.3v-2.6h-1.3V666.3z"/>
	<path class="st4" d="M-3465.5,663.7h2.6v3.9h2.6v-3.9h2.6v5.2h-1.3v1.3h-1.3v3.9h-2.6v-3.9h-1.3v-1.3h-1.3V663.7z"/>
	<path class="st4" d="M-3447.3,663.7h7.8v2.6h-2.6v7.8h-2.6v-7.8h-2.6V663.7z"/>
	<path class="st4" d="M-3438.3,665h1.3v-1.3h5.2v1.3h1.3v7.8h-1.3v1.3h-5.2v-1.3h-1.3V665z M-3435.7,671.5h2.6v-5.2h-2.6V671.5z"/>
	<path class="st4" d="M-3418.8,672.8h-1.3V665h1.3v-1.3h6.5v2.6h-5.2v5.2h2.6v-1.3h-1.3v-2.6h3.9v6.5h-6.5V672.8z"/>
	<path class="st4" d="M-3411,665h1.3v-1.3h5.2v1.3h1.3v7.8h-1.3v1.3h-5.2v-1.3h-1.3V665z M-3408.4,671.5h2.6v-5.2h-2.6V671.5z"/>
	<path class="st4" d="M-3402,663.7h2.6v6.5h-2.6V663.7z M-3402,671.5h2.6v2.6h-2.6V671.5z"/>
</g>
</svg>
