<!-- Generator: Adobe Illustrator 19.2.1, SVG Export Plug-In  -->
<svg version="1.1"
	 xmlns="http://www.w3.org/2000/svg" xmlns:xlink="http://www.w3.org/1999/xlink" xmlns:a="http://ns.adobe.com/AdobeSVGViewerExtensions/3.0/"
	 x="0px" y="0px" width="683.2px" height="134.9px" viewBox="0 0 683.2 134.9" style="enable-background:new 0 0 683.2 134.9;"
	 xml:space="preserve">
<style type="text/css">
	.st0{opacity:0.8;}
	.st1{fill:#5895B7;}
	.st2{fill:#C17620;}
	.st3{fill:#F4C24A;}
	.st4{fill:#910E46;}
	.st5{fill:#EE3D53;}
</style>
<defs>
</defs>
<g>
	<g class="st0">
		<g>
			<polygon class="st1" points="582,48.2 582,134.7 683.2,134.7 683.2,123.1 670.6,123.1 670.6,110.4 657.9,110.4 657.9,97.8
				645.3,97.8 645.3,85.1 657.9,85.1 657.9,72.5 670.6,72.5 670.6,59.8 683.2,59.8 683.2,48.2 			"/>
		</g>
		<polygon class="st1" points="596.8,109.4 582,133.6 582.1,109.4 		"/>
	</g>
	<rect x="93.8" y="25.3" class="st1" width="510.3" height="86.5"/>
	<rect x="570.4" y="103.3" class="st1" width="112.8" height="31.6"/>
	<g class="st0">
		<g>
			<polygon class="st1" points="101.7,48.4 101.7,134.8 0.5,134.8 0.5,123.2 13.1,123.2 13.1,110.6 25.8,110.6 25.8,97.9 38.4,97.9
				38.4,85.3 25.8,85.3 25.8,72.6 13.1,72.6 13.1,60 0.5,60 0.5,48.4 			"/>
		</g>
		<polygon class="st1" points="86.9,109.5 101.7,133.8 101.6,109.5 		"/>
	</g>
	<g>
		<g>
			<polygon class="st2" points="582,37.9 582,124.4 683.2,124.4 683.2,112.8 670.6,112.8 670.6,100.1 657.9,100.1 657.9,87.5
				645.3,87.5 645.3,74.8 657.9,74.8 657.9,62.2 670.6,62.2 670.6,49.5 683.2,49.5 683.2,37.9 			"/>
			<polygon class="st3" points="582,26.3 582,112.8 683.2,112.8 683.2,101.2 670.6,101.2 670.6,88.5 657.9,88.5 657.9,75.9
				645.3,75.9 645.3,63.2 657.9,63.2 657.9,50.6 670.6,50.6 670.6,37.9 683.2,37.9 683.2,26.3 			"/>
		</g>
		<polygon class="st2" points="596.8,99.1 582,123.3 582.1,99.1 		"/>
		<g>
			<g>
				<polygon class="st2" points="101.2,37.9 101.2,124.4 0,124.4 0,112.8 12.6,112.8 12.6,100.1 25.3,100.1 25.3,87.5 37.9,87.5
					37.9,74.8 25.3,74.8 25.3,62.2 12.6,62.2 12.6,49.5 0,49.5 0,37.9 				"/>
				<polygon class="st3" points="101.2,26.3 101.2,112.8 0,112.8 0,101.2 12.6,101.2 12.6,88.5 25.3,88.5 25.3,75.9 37.9,75.9
					37.9,63.2 25.3,63.2 25.3,50.6 12.6,50.6 12.6,37.9 0,37.9 0,26.3 				"/>
			</g>
			<polygon class="st2" points="86.4,99.1 101.2,123.3 101.1,99.1 			"/>
		</g>
		<g>
			<rect x="86.4" y="12.6" class="st2" width="510.3" height="86.5"/>
			<rect x="86.4" class="st3" width="510.3" height="86.5"/>
		</g>
	</g>
</g>
<g>
	<g>
		<path class="st4" d="M200.6,74.9h-37.4V15h37.4v7.5h7.5v15h-7.5v15h7.5v15h-7.5V74.9z M178.1,37.5h15V30h-15V37.5z M178.1,60h15
			v-7.5h-15V60z"/>
		<path class="st4" d="M230.5,74.9h-15V22.5h7.5V15h30v7.5h7.5v52.4h-15V52.5h-15V74.9z M245.5,37.5V30h-15v7.5H245.5z"/>
		<path class="st4" d="M275.5,67.4H268V15h15v44.9h30v15h-37.4L275.5,67.4L275.5,67.4z"/>
		<path class="st4" d="M327.9,67.4h-7.5V15h15v44.9h30v15H328L327.9,67.4L327.9,67.4z"/>
		<path class="st4" d="M372.8,22.5h7.5V15h30v7.5h7.5v44.9h-7.5v7.5h-30v-7.5h-7.5V22.5z M387.8,60h15V30h-15V60z"/>
		<path class="st4" d="M425.3,22.5h7.5V15h30v7.5h7.5v44.9h-7.5v7.5h-30v-7.5h-7.5V22.5z M440.2,60h15V30h-15V60z"/>
		<path class="st4" d="M500.2,45h-7.5v30h-15V15.1h15v7.5h7.5v7.5h7.5v-15h15V75h-15V52.5h-7.5V45z"/>
	</g>
	<g>
		<path class="st5" d="M200.6,69.1h-37.4V9.2h37.4v7.5h7.5v15h-7.5v15h7.5v15h-7.5V69.1z M178.1,31.7h15v-7.5h-15V31.7z M178.1,54.1
			h15v-7.5h-15V54.1z"/>
		<path class="st5" d="M230.5,69.1h-15V16.7h7.5V9.2h30v7.5h7.5v52.4h-15V46.6h-15V69.1z M245.5,31.7v-7.5h-15v7.5H245.5z"/>
		<path class="st5" d="M275.5,61.6H268V9.2h15v44.9h30v15h-37.4L275.5,61.6L275.5,61.6z"/>
		<path class="st5" d="M327.9,61.6h-7.5V9.2h15v44.9h30v15H328L327.9,61.6L327.9,61.6z"/>
		<path class="st5" d="M372.8,16.7h7.5V9.2h30v7.5h7.5v44.9h-7.5v7.5h-30v-7.5h-7.5V16.7z M387.8,54.1h15v-30h-15V54.1z"/>
		<path class="st5" d="M425.3,16.7h7.5V9.2h30v7.5h7.5v44.9h-7.5v7.5h-30v-7.5h-7.5V16.7z M440.2,54.1h15v-30h-15V54.1z"/>
		<path class="st5" d="M500.2,39.2h-7.5v30h-15V9.3h15v7.5h7.5v7.5h7.5v-15h15v59.9h-15V46.7h-7.5V39.2z"/>
	</g>
</g>
</svg>
