<?xml version="1.0" encoding="utf-8"?>
<!-- Generator: Adobe Illustrator 22.0.1, SVG Export Plug-In . SVG Version: 6.00 Build 0)  -->
<svg version="1.1" id="Layer_1" xmlns="http://www.w3.org/2000/svg" xmlns:xlink="http://www.w3.org/1999/xlink" x="0px" y="0px"
	 width="683.3px" height="135px" viewBox="0 0 683.3 135" style="enable-background:new 0 0 683.3 135;" xml:space="preserve">
<style type="text/css">
	.st0{fill:#5895B7;}
	.st1{opacity:0.8;}
	.st2{fill:#C17620;}
	.st3{fill:#F4C24A;}
	.st4{fill:#FFFFFF;}
	.st5{fill:#2A6FBA;}
	.st6{fill:#4ABAEF;}
	.st7{fill:#95C9C8;}
	.st8{fill:#DDEFEE;}
	.st9{fill:#1B8E6F;}
	.st10{fill:#3CEA8A;}
	.st11{opacity:0.4;fill:#666666;}
	.st12{fill:#33BC6E;}
	.st13{fill:none;}
	.st14{fill:#7149A4;}
	.st15{fill:#BD86E0;}
	.st16{opacity:0.4;fill:#666666;stroke:#666666;stroke-width:4;stroke-linejoin:bevel;stroke-miterlimit:10;}
	.st17{fill:#F2F2F2;}
	.st18{fill:#E6E6E6;}
	.st19{fill:none;stroke:#000000;stroke-width:4;stroke-linejoin:bevel;stroke-miterlimit:10;}
	.st20{fill:#C6E0DE;}
	.st21{fill:#A7C6C3;}
	.st22{fill:#EE3D53;}
	.st23{fill:none;stroke:#000000;stroke-width:2;stroke-miterlimit:10;}
	.st24{fill:#A17559;}
	.st25{fill:#910E46;}
	.st26{fill:#238D6F;}
	.st27{fill:#704CA2;}
	.st28{fill:#47E88D;}
	.st29{fill:#BC88DE;}
	.st30{fill:#CCCCCC;}
	.st31{opacity:0.4;}
</style>
<g>
	<rect x="836.6" y="1340.6" class="st0" width="484" height="82"/>
	<rect x="1288.6" y="1414.6" class="st0" width="107" height="30"/>
	<g class="st1">
		<g>
			<polygon class="st0" points="852.6,1360.6 852.6,1442.6 756.6,1442.6 756.6,1431.6 768.6,1431.6 768.6,1419.6 780.6,1419.6 
				780.6,1407.6 792.6,1407.6 792.6,1395.6 780.6,1395.6 780.6,1383.6 768.6,1383.6 768.6,1371.6 756.6,1371.6 756.6,1360.6 			"/>
		</g>
		<polygon class="st0" points="838.6,1418.6 852.6,1441.6 852.5,1418.6 		"/>
	</g>
	<g>
		<g>
			<polygon class="st2" points="1299.6,1352.6 1299.6,1434.6 1395.6,1434.6 1395.6,1423.6 1383.6,1423.6 1383.6,1411.6 
				1371.6,1411.6 1371.6,1399.6 1359.6,1399.6 1359.6,1387.6 1371.6,1387.6 1371.6,1375.6 1383.6,1375.6 1383.6,1363.6 
				1395.6,1363.6 1395.6,1352.6 			"/>
			<polygon class="st3" points="1299.6,1341.6 1299.6,1423.6 1395.6,1423.6 1395.6,1412.6 1383.6,1412.6 1383.6,1400.6 
				1371.6,1400.6 1371.6,1388.6 1359.6,1388.6 1359.6,1376.6 1371.6,1376.6 1371.6,1364.6 1383.6,1364.6 1383.6,1352.6 
				1395.6,1352.6 1395.6,1341.6 			"/>
		</g>
		<polygon class="st2" points="1313.6,1410.6 1299.6,1433.6 1299.6,1410.6 		"/>
		<g>
			<g>
				<polygon class="st2" points="843.6,1352.6 843.6,1434.6 747.6,1434.6 747.6,1423.6 759.6,1423.6 759.6,1411.6 771.6,1411.6 
					771.6,1399.6 783.6,1399.6 783.6,1387.6 771.6,1387.6 771.6,1375.6 759.6,1375.6 759.6,1363.6 747.6,1363.6 747.6,1352.6 				
					"/>
				<polygon class="st3" points="843.6,1341.6 843.6,1423.6 747.6,1423.6 747.6,1412.6 759.6,1412.6 759.6,1400.6 771.6,1400.6 
					771.6,1388.6 783.6,1388.6 783.6,1376.6 771.6,1376.6 771.6,1364.6 759.6,1364.6 759.6,1352.6 747.6,1352.6 747.6,1341.6 				
					"/>
			</g>
			<polygon class="st2" points="829.6,1410.6 843.6,1433.6 843.5,1410.6 			"/>
		</g>
		<g>
			<rect x="829.6" y="1328.6" class="st2" width="484" height="82"/>
			<rect x="829.6" y="1316.6" class="st3" width="484" height="82"/>
		</g>
	</g>
	<g>
		<path class="st4" d="M900.2,1376.4h-8.6v-34.6h8.6v13h8.6v-13h8.6v34.6h-8.6v-13h-8.6V1376.4z"/>
		<path class="st4" d="M921.8,1346.1h4.3v-4.3h17.3v4.3h4.3v25.9h-4.3v4.3h-17.3v-4.3h-4.3V1346.1z M930.4,1367.7h8.6v-17.3h-8.6
			V1367.7z"/>
		<path class="st4" d="M960.7,1376.4H952v-34.6h8.6v17.3h4.3v-4.3h4.3v4.3h4.3v-17.3h8.6v34.6h-8.6v-4.3h-4.3v-4.3H965v4.3h-4.3
			V1376.4z"/>
		<path class="st4" d="M1016.8,1341.8h25.9v8.6h-8.6v25.9h-8.6v-25.9h-8.6V1341.8z"/>
		<path class="st4" d="M1047.1,1346.1h4.3v-4.3h17.3v4.3h4.3v25.9h-4.3v4.3h-17.3v-4.3h-4.3V1346.1z M1055.7,1367.7h8.6v-17.3h-8.6
			V1367.7z"/>
		<path class="st4" d="M1116.2,1376.4h-8.6v-34.6h21.6v4.3h4.3v13h-4.3v4.3h-13V1376.4z M1116.2,1354.8h8.6v-4.3h-8.6V1354.8z"/>
		<path class="st4" d="M1142.1,1372h-4.3v-30.2h8.6v25.9h17.3v8.6h-21.6V1372z"/>
		<path class="st4" d="M1176.7,1376.4h-8.6v-30.2h4.3v-4.3h17.3v4.3h4.3v30.2h-8.6v-13h-8.6V1376.4z M1185.3,1354.8v-4.3h-8.6v4.3
			H1185.3z"/>
		<path class="st4" d="M1198.3,1341.8h8.6v13h8.6v-13h8.6v17.3h-4.3v4.3h-4.3v13h-8.6v-13h-4.3v-4.3h-4.3V1341.8z"/>
	</g>
</g>
<polygon class="st5" points="1005.6,1609.6 993.6,1609.6 920.6,1609.6 920.6,1621.6 908.6,1621.6 908.6,1706.6 920.6,1706.6 
	920.6,1718.6 993.6,1718.6 1005.6,1718.6 1005.6,1706.6 1017.6,1706.6 1017.6,1621.6 1005.6,1621.6 "/>
<polygon class="st5" points="1005.6,1609.6 993.6,1609.6 920.6,1609.6 920.6,1621.6 908.6,1621.6 908.6,1706.6 920.6,1706.6 
	920.6,1718.6 993.6,1718.6 1005.6,1718.6 1005.6,1706.6 1017.6,1706.6 1017.6,1621.6 1005.6,1621.6 "/>
<g>
	<path class="st4" d="M945.2,1643.8h28.4v5.7h5.7v17.1h-5.7v5.7h-17.1v-11.4h11.4v-5.7h-22.8V1643.8z M956.6,1677.9h11.4v11.4h-11.4
		V1677.9z"/>
</g>
<polygon class="st5" points="1156.6,1609.6 1144.6,1609.6 1071.6,1609.6 1071.6,1621.6 1059.6,1621.6 1059.6,1706.6 1071.6,1706.6 
	1071.6,1718.6 1144.6,1718.6 1156.6,1718.6 1156.6,1706.6 1168.6,1706.6 1168.6,1621.6 1156.6,1621.6 "/>
<polygon class="st6" points="1156.6,1599.6 1144.6,1599.6 1071.6,1599.6 1071.6,1611.6 1059.6,1611.6 1059.6,1696.6 1071.6,1696.6 
	1071.6,1708.6 1144.6,1708.6 1156.6,1708.6 1156.6,1696.6 1168.6,1696.6 1168.6,1611.6 1156.6,1611.6 "/>
<g>
	<path class="st4" d="M1096.2,1633.8h28.4v5.7h5.7v17.1h-5.7v5.7h-17.1v-11.4h11.4v-5.7h-22.8V1633.8z M1107.6,1667.9h11.4v11.4
		h-11.4V1667.9z"/>
</g>
<g>
	<polygon class="st0" points="2191.6,1454.1 2180,1454.1 2180,1442.5 2168.4,1442.5 2168.4,1429.7 1669.7,1429.7 1669.7,1442.5 
		1658.2,1442.5 1658.2,1454.1 1646.6,1454.1 1646.6,2138.8 1658.2,2138.8 1658.2,2150.5 1669.7,2150.5 1669.7,2163.3 2168.4,2163.3 
		2168.4,2150.5 2180,2150.5 2180,2138.8 2191.6,2138.8 	"/>
	<polygon class="st7" points="2191.6,1442.1 2180,1442.1 2180,1430.4 2168.4,1430.4 2168.4,1417.6 1669.7,1417.6 1669.7,1430.4 
		1658.2,1430.4 1658.2,1442.1 1646.6,1442.1 1646.6,2126.8 1658.2,2126.8 1658.2,2138.5 1669.7,2138.5 1669.7,2151.3 2168.4,2151.3 
		2168.4,2138.5 2180,2138.5 2180,2126.8 2191.6,2126.8 	"/>
	<polygon class="st8" points="2191.6,1430.1 2180,1430.1 2180,1418.4 2168.4,1418.4 2168.4,1405.6 1669.7,1405.6 1669.7,1418.4 
		1658.2,1418.4 1658.2,1430.1 1646.6,1430.1 1646.6,2114.8 1658.2,2114.8 1658.2,2126.4 1669.7,2126.4 1669.7,2139.2 2168.4,2139.2 
		2168.4,2126.4 2180,2126.4 2180,2114.8 2191.6,2114.8 	"/>
</g>
<g>
	<polygon class="st9" points="1142.6,1089.6 1132.6,1089.6 757.6,1089.6 757.6,1099.7 747.6,1099.7 747.6,1157.5 757.6,1157.5 
		757.6,1167.6 1132.6,1167.6 1142.6,1167.6 1142.6,1157.5 1152.7,1157.5 1152.7,1099.7 1142.6,1099.7 	"/>
	<polygon class="st10" points="1142.6,1079.6 1132.6,1079.6 757.6,1079.6 757.6,1089.7 747.6,1089.7 747.6,1147.5 757.6,1147.5 
		757.6,1157.6 1132.6,1157.6 1142.6,1157.6 1142.6,1147.5 1152.7,1147.5 1152.7,1089.7 1142.6,1089.7 	"/>
	<g>
		<path class="st4" d="M867.6,1130.5h-6.9v-27.6H878v3.5h3.5v10.4H878v3.5h-10.4V1130.5z M867.6,1113.2h6.9v-3.5h-6.9V1113.2z"/>
		<path class="st4" d="M888.4,1127h-3.5v-24.2h6.9v20.7h13.8v6.9h-17.3V1127z"/>
		<path class="st4" d="M916,1130.5h-6.9v-24.2h3.5v-3.5h13.8v3.5h3.5v24.2h-6.9v-10.4H916V1130.5z M922.9,1113.2v-3.5H916v3.5H922.9
			z"/>
		<path class="st4" d="M933.3,1102.8h6.9v10.4h6.9v-10.4h6.9v13.8h-3.5v3.5h-3.5v10.4h-6.9v-10.4h-3.5v-3.5h-3.5V1102.8z"/>
		<path class="st4" d="M960.9,1127h-3.5v-20.7h3.5v-3.5h17.3v6.9h-13.8v3.5h6.9v6.9h-6.9v3.5h13.8v6.9h-17.3V1127z"/>
		<path class="st4" d="M992.1,1120.1h-3.5v10.4h-6.9v-27.6H999v3.5h3.5v10.4H999v3.5h3.5v10.4h-6.9v-6.9h-3.5V1120.1z M988.6,1113.2
			h6.9v-3.5h-6.9V1113.2z"/>
		<path class="st4" d="M1030.1,1102.8h6.9v27.6h-6.9V1102.8z"/>
	</g>
</g>
<g>
	<polygon class="st11" points="781.8,969 779.8,963.2 775.7,951.2 757.9,957.3 759.9,963 754.1,965 758.2,977 764,975 765.9,980.8 
		777.9,976.7 776,971 	"/>
	<polygon class="st11" points="820.6,957 818.6,951.2 814.5,939.2 796.7,945.2 798.7,951 792.9,952.9 797,964.9 802.8,963 
		804.7,968.7 816.7,964.7 814.8,958.9 	"/>
	<rect x="761" y="910" transform="matrix(0.9472 -0.3207 0.3207 0.9472 -257.656 294.3069)" width="7.1" height="38.6"/>
	<polygon points="780.1,964.2 778.2,958.4 774.1,946.4 756.3,952.4 758.3,958.2 752.5,960.2 756.6,972.2 762.3,970.2 764.3,976 
		776.3,971.9 774.4,966.2 	"/>
	<rect x="799.5" y="897" transform="matrix(0.9472 -0.3207 0.3207 0.9472 -251.446 305.9566)" width="7.1" height="38.6"/>
	<polygon points="818.6,951.2 816.7,945.4 812.6,933.4 794.8,939.4 796.7,945.2 791,947.1 795,959.2 800.8,957.2 802.8,963 
		814.8,958.9 812.8,953.1 	"/>
	<rect x="751" y="887.7" transform="matrix(0.9472 -0.3207 0.3207 0.9472 -246.5418 295.8624)" width="47.7" height="17.3"/>
</g>
<g>
	<polygon class="st11" points="848,1002.6 848.9,998.4 850.8,989.8 838,987 837.1,991.1 832.9,990.2 831,998.9 835.2,999.8 
		834.3,1003.9 842.9,1005.8 843.8,1001.7 	"/>
	<polygon class="st11" points="875.5,1009.4 876.4,1005.2 878.3,996.6 865.5,993.8 864.6,997.9 860.4,997 858.5,1005.6 
		862.7,1006.6 861.8,1010.7 870.4,1012.6 871.3,1008.5 	"/>
	<rect x="849.5" y="959.2" transform="matrix(0.9766 0.2149 -0.2149 0.9766 228.9206 -160.3665)" width="5" height="26.9"/>
	<polygon points="848.7,999.1 849.6,995 851.6,986.3 838.8,983.5 837.8,987.7 833.7,986.8 831.8,995.4 835.9,996.3 835,1000.5 
		843.7,1002.4 844.6,998.2 	"/>
	<rect x="877.2" y="965.3" transform="matrix(0.9766 0.2149 -0.2149 0.9766 230.8747 -166.1685)" width="5" height="26.9"/>
	<polygon points="876.4,1005.2 877.3,1001.1 879.2,992.4 866.4,989.6 865.5,993.8 861.4,992.9 859.5,1001.5 863.6,1002.4 
		862.7,1006.6 871.3,1008.5 872.2,1004.3 	"/>
	<rect x="853.4" y="950.7" transform="matrix(0.9766 0.2149 -0.2149 0.9766 225.9088 -164.611)" width="33.3" height="12"/>
</g>
<g>
	<polygon class="st11" points="924,940.8 923.3,937.8 921.9,931.4 912.5,933.5 913.2,936.5 910.1,937.2 911.6,943.6 914.6,942.9 
		915.3,945.9 921.6,944.5 921,941.5 	"/>
	<polygon class="st11" points="944.4,936.8 943.7,933.7 942.3,927.4 932.9,929.5 933.6,932.5 930.6,933.2 932,939.6 935,938.9 
		935.7,941.9 942,940.5 941.4,937.5 	"/>
	<rect x="915.6" y="909.7" transform="matrix(0.9761 -0.2173 0.2173 0.9761 -177.9022 221.3146)" width="3.6" height="19.8"/>
	<polygon points="923.4,938.3 922.8,935.2 921.3,928.9 911.9,931 912.6,934 909.6,934.7 911,941 914,940.4 914.7,943.4 921.1,942 
		920.4,938.9 	"/>
	<rect x="935.9" y="905.2" transform="matrix(0.9761 -0.2173 0.2173 0.9761 -176.4347 225.6193)" width="3.6" height="19.8"/>
	<polygon points="943.7,933.7 943.1,930.7 941.6,924.3 932.3,926.4 932.9,929.5 929.9,930.2 931.3,936.5 934.3,935.8 935,938.9 
		941.4,937.5 940.7,934.4 	"/>
	<rect x="912.2" y="899" transform="matrix(0.9761 -0.2173 0.2173 0.9761 -174.209 222.458)" width="24.4" height="8.8"/>
</g>
<g>
	<polygon class="st11" points="944.6,986.6 947.2,982.5 952.7,973.9 940,965.8 937.4,969.9 933.3,967.3 927.8,975.9 931.9,978.5 
		929.3,982.6 937.9,988.1 940.5,984 	"/>
	<polygon class="st11" points="971.6,1004.7 974.2,1000.6 979.7,992 967,983.9 964.4,988 960.2,985.4 954.8,994 958.9,996.6 
		956.3,1000.7 964.9,1006.2 967.5,1002.1 	"/>
	<rect x="957.9" y="940.5" transform="matrix(0.844 0.5363 -0.5363 0.844 662.5079 -366.1435)" width="5.7" height="30.9"/>
	<polygon points="946.8,983.1 949.4,979 954.8,970.5 942.2,962.4 939.5,966.5 935.4,963.9 930,972.5 934.1,975.1 931.5,979.2 
		940.1,984.6 942.7,980.5 	"/>
	<rect x="985.3" y="957.9" transform="matrix(0.844 0.5363 -0.5363 0.844 676.1323 -378.1343)" width="5.7" height="30.9"/>
	<polygon points="974.2,1000.6 976.8,996.4 982.3,987.9 969.6,979.8 967,983.9 962.9,981.3 957.4,989.9 961.5,992.5 958.9,996.6 
		967.5,1002.1 970.1,997.9 	"/>
	<rect x="967.3" y="938.9" transform="matrix(0.844 0.5363 -0.5363 0.844 661.0764 -381.5057)" width="38.2" height="13.8"/>
</g>
<g>
	<polygon class="st9" points="665.9,546.1 659.2,546.1 412.9,546.1 412.9,552.8 406.3,552.8 406.3,590.8 412.9,590.8 412.9,597.4 
		659.2,597.4 665.9,597.4 665.9,590.8 672.5,590.8 672.5,552.8 665.9,552.8 	"/>
	<polygon class="st12" points="665.9,546.1 659.2,546.1 412.9,546.1 412.9,552.8 406.3,552.8 406.3,590.8 412.9,590.8 412.9,597.4 
		659.2,597.4 665.9,597.4 665.9,590.8 672.5,590.8 672.5,552.8 665.9,552.8 	"/>
	<g>
		<path class="st4" d="M472.7,563.7h2.3v-2.3h11.4v4.5h-9.1v9.1h9.1v4.5h-11.4v-2.3h-2.3V563.7z"/>
		<path class="st4" d="M493.1,579.6h-4.5v-15.9h2.3v-2.3h9.1v2.3h2.3v15.9h-4.5v-6.8h-4.5V579.6z M497.6,568.2V566h-4.5v2.3H497.6z"
			/>
		<path class="st4" d="M506.7,577.3h-2.3v-15.9h4.5V575h9.1v4.5h-11.4V577.3z"/>
		<path class="st4" d="M520.4,561.4h4.5v18.2h-4.5V561.4z"/>
		<path class="st4" d="M527.2,561.4h11.4v2.3h2.3v13.6h-2.3v2.3h-11.4V561.4z M531.7,568.2h4.5V566h-4.5V568.2z M531.7,575h4.5v-2.3
			h-4.5V575z"/>
		<path class="st4" d="M549.9,572.8h-2.3v6.8h-4.5v-15.9h2.3v-2.3h9.1v2.3h2.3v6.8h-2.3v2.3h2.3v6.8h-4.5V575h-2.3V572.8z
			 M547.6,568.2h4.5V566h-4.5V568.2z"/>
		<path class="st4" d="M563.5,579.6H559v-15.9h2.3v-2.3h9.1v2.3h2.3v15.9H568v-6.8h-4.5V579.6z M568,568.2V566h-4.5v2.3H568z"/>
		<path class="st4" d="M574.9,561.4h13.6v4.5h-4.5v13.6h-4.5V566h-4.5V561.4z"/>
		<path class="st4" d="M593,577.3h-2.3v-13.6h2.3v-2.3h11.4v4.5h-9.1v2.3h4.5v4.5h-4.5v2.3h9.1v4.5H593V577.3z"/>
	</g>
</g>
<g>
	<polygon class="st9" points="985.9,614.1 979.2,614.1 732.9,614.1 732.9,620.8 726.3,620.8 726.3,658.8 732.9,658.8 732.9,665.4 
		979.2,665.4 985.9,665.4 985.9,658.8 992.5,658.8 992.5,620.8 985.9,620.8 	"/>
	<polygon class="st10" points="985.9,607.6 979.2,607.6 732.9,607.6 732.9,614.2 726.3,614.2 726.3,652.2 732.9,652.2 732.9,658.8 
		979.2,658.8 985.9,658.8 985.9,652.2 992.5,652.2 992.5,614.2 985.9,614.2 	"/>
	<g>
		<path class="st4" d="M792.7,625.1h2.3v-2.3h11.4v4.5h-9.1v9.1h9.1v4.5h-11.4v-2.3h-2.3V625.1z"/>
		<path class="st4" d="M813.1,641h-4.5v-15.9h2.3v-2.3h9.1v2.3h2.3V641h-4.5v-6.8h-4.5V641z M817.6,629.7v-2.3h-4.5v2.3H817.6z"/>
		<path class="st4" d="M826.7,638.7h-2.3v-15.9h4.5v13.6h9.1v4.5h-11.4V638.7z"/>
		<path class="st4" d="M840.4,622.8h4.5V641h-4.5V622.8z"/>
		<path class="st4" d="M847.2,622.8h11.4v2.3h2.3v13.6h-2.3v2.3h-11.4V622.8z M851.7,629.7h4.5v-2.3h-4.5V629.7z M851.7,636.5h4.5
			v-2.3h-4.5V636.5z"/>
		<path class="st4" d="M869.9,634.2h-2.3v6.8h-4.5v-15.9h2.3v-2.3h9.1v2.3h2.3v6.8h-2.3v2.3h2.3v6.8h-4.5v-4.5h-2.3V634.2z
			 M867.6,629.7h4.5v-2.3h-4.5V629.7z"/>
		<path class="st4" d="M883.5,641H879v-15.9h2.3v-2.3h9.1v2.3h2.3V641H888v-6.8h-4.5V641z M888,629.7v-2.3h-4.5v2.3H888z"/>
		<path class="st4" d="M894.9,622.8h13.6v4.5h-4.5V641h-4.5v-13.6h-4.5V622.8z"/>
		<path class="st4" d="M913,638.7h-2.3v-13.6h2.3v-2.3h11.4v4.5h-9.1v2.3h4.5v4.5h-4.5v2.3h9.1v4.5H913V638.7z"/>
	</g>
</g>
<g>
	<rect x="727.8" y="696.5" class="st9" width="219.8" height="28.8"/>
	<rect x="723" y="689.9" class="st9" width="229.4" height="30.6"/>
	<polygon class="st10" points="723,685.6 723,714.8 727.8,714.8 727.8,720.5 947.6,720.5 947.6,714.8 952.4,714.8 952.4,685.6 	"/>
</g>
<polygon class="st9" points="942.8,700.4 942.8,695.3 937.7,695.3 937.7,695.2 881.1,695.2 850.5,695.2 824.9,695.2 801.1,695.2 
	737.7,695.2 737.7,695.3 732.6,695.3 732.6,700.4 727.5,700.4 727.5,708 732.6,708 732.6,713.1 737.7,713.1 737.7,713.2 
	801.1,713.2 824.9,713.2 850.5,713.2 881.1,713.2 937.7,713.2 937.7,713.2 942.8,713.2 942.8,708.1 947.9,708.1 947.9,700.4 "/>
<g>
	<rect x="718.9" y="794.5" class="st13" width="4.7" height="0.1"/>
	<rect x="718.9" y="812.4" class="st13" width="4.7" height="0.1"/>
	<polygon class="st4" points="739.9,812.4 739.9,807.4 745,807.4 745,799.7 739.9,799.7 739.9,794.6 734.8,794.6 734.8,794.5 
		723.6,794.5 723.6,794.6 718.9,794.6 718.9,812.4 723.6,812.4 723.6,812.5 734.8,812.5 734.8,812.4 	"/>
</g>
<g>
	<polygon class="st4" points="693.1,759 693.1,753.9 688,753.9 688,753.8 672.1,753.8 672.1,771.8 688,771.8 688,771.7 693.1,771.7 
		693.1,766.6 698.2,766.6 698.2,759 	"/>
	<polygon class="st4" points="679.6,797.8 679.6,792.7 679.6,792.7 679.6,792.6 675.1,792.6 674.5,792.6 670,792.6 670,792.7 
		670,792.7 670,797.8 664.9,797.8 664.9,805.4 670,805.4 670,810.5 670,810.5 670,810.6 674.5,810.6 675.1,810.6 679.6,810.6 
		679.6,810.6 679.6,810.6 679.6,805.5 684.7,805.5 684.7,797.8 	"/>
</g>
<polygon class="st4" points="629.8,700.4 629.8,695.3 629.8,695.3 629.8,695.2 625.3,695.2 624.7,695.2 620.2,695.2 620.2,695.3 
	620.2,695.3 620.2,700.4 615.1,700.4 615.1,708 620.2,708 620.2,713.1 620.2,713.1 620.2,713.2 624.7,713.2 625.3,713.2 
	629.8,713.2 629.8,713.2 629.8,713.2 629.8,708.1 634.9,708.1 634.9,700.4 "/>
<polygon class="st14" points="1595.6,1089.6 1585.6,1089.6 1210.6,1089.6 1210.6,1099.7 1200.6,1099.7 1200.6,1157.5 1210.6,1157.5 
	1210.6,1167.6 1585.6,1167.6 1595.6,1167.6 1595.6,1157.5 1605.7,1157.5 1605.7,1099.7 1595.6,1099.7 "/>
<polygon class="st15" points="1595.6,1079.6 1585.6,1079.6 1210.6,1079.6 1210.6,1089.7 1200.6,1089.7 1200.6,1147.5 1210.6,1147.5 
	1210.6,1157.6 1585.6,1157.6 1595.6,1157.6 1595.6,1147.5 1605.7,1147.5 1605.7,1089.7 1595.6,1089.7 "/>
<g>
	<path class="st4" d="M1313.2,1130.5h-6.9v-27.6h17.3v3.5h3.5v10.4h-3.5v3.5h-10.4V1130.5z M1313.2,1113.2h6.9v-3.5h-6.9V1113.2z"/>
	<path class="st4" d="M1334,1127h-3.5v-24.2h6.9v20.7h13.8v6.9H1334V1127z"/>
	<path class="st4" d="M1361.6,1130.5h-6.9v-24.2h3.5v-3.5h13.8v3.5h3.5v24.2h-6.9v-10.4h-6.9V1130.5z M1368.5,1113.2v-3.5h-6.9v3.5
		H1368.5z"/>
	<path class="st4" d="M1378.9,1102.8h6.9v10.4h6.9v-10.4h6.9v13.8h-3.5v3.5h-3.5v10.4h-6.9v-10.4h-3.5v-3.5h-3.5V1102.8z"/>
	<path class="st4" d="M1406.5,1127h-3.5v-20.7h3.5v-3.5h17.3v6.9H1410v3.5h6.9v6.9h-6.9v3.5h13.8v6.9h-17.3V1127z"/>
	<path class="st4" d="M1437.6,1120.1h-3.5v10.4h-6.9v-27.6h17.3v3.5h3.5v10.4h-3.5v3.5h3.5v10.4h-6.9v-6.9h-3.5V1120.1z
		 M1434.2,1113.2h6.9v-3.5h-6.9V1113.2z"/>
	<path class="st4" d="M1475.7,1102.8h17.3v3.5h3.5v10.4h-3.5v3.5h-10.4v3.5h13.8v6.9h-20.7v-13.8h3.5v-3.5h10.4v-3.5h-13.8V1102.8z"
		/>
</g>
<g>
	<rect x="1221.6" y="1083.6" class="st4" width="45.1" height="5.7"/>
	<rect x="1272.8" y="1083.6" class="st4" width="5.7" height="5.7"/>
</g>
<g>
	<rect x="767.1" y="1084.6" class="st4" width="45.1" height="5.7"/>
	<rect x="818.3" y="1084.6" class="st4" width="5.7" height="5.7"/>
</g>
<polygon class="st16" points="1156.2,924.6 1162.6,930.2 1157,936.6 1177.4,954 1177.4,991.9 1198.2,965.8 1229.9,995.2 
	1235.8,988.9 1240.7,993.5 1312.4,874.8 "/>
<polygon class="st17" points="1153.7,917.5 1160.1,923.1 1154.5,929.5 1175,946.9 1175,984.7 1195.7,958.7 1227.5,988 1233.3,981.8 
	1238.3,986.4 1309.9,867.7 "/>
<polygon class="st18" points="1195.8,958.4 1310.1,867.7 1175,946.7 1175,984.5 "/>
<polygon class="st19" points="1152.7,917.6 1159.1,923.2 1153.5,929.6 1173.9,947 1173.9,984.9 1194.6,958.8 1226.4,988.2 
	1232.3,981.9 1237.2,986.5 1308.8,867.8 "/>
<g>
	<polygon class="st20" points="1088.5,610.9 1088.5,774.5 1098.9,774.5 1098.9,784 1109.3,784 1109.3,794.5 1556.8,794.5 
		1556.8,784 1567.1,784 1567.1,774.5 1577.5,774.5 1577.5,610.9 	"/>
	<polygon class="st20" points="1577.5,610.9 1577.5,516.8 1567.1,516.8 1567.1,507.3 1556.8,507.3 1556.8,496.8 1109.3,496.8 
		1109.3,507.3 1098.9,507.3 1098.9,516.8 1088.5,516.8 1088.5,610.9 	"/>
</g>
<g>
	<polygon class="st21" points="1098.9,513.4 1109.3,513.4 1109.3,505.4 1098.9,505.4 1098.9,513.3 1088.5,513.3 1088.5,521.3 
		1098.9,521.3 	"/>
	<rect x="1109.3" y="496.7" class="st21" width="447.5" height="8"/>
	<polygon class="st21" points="1567.1,513.3 1567.1,505.4 1556.8,505.4 1556.8,513.4 1567.1,513.4 1567.1,521.3 1577.5,521.3 
		1577.5,513.3 	"/>
</g>
<g>
	<g>
		<g>
			<rect x="695.4" y="432.4" width="10.2" height="10.2"/>
		</g>
	</g>
	<g>
		<g>
			<path d="M756.8,422.2v5.1h-5.1v5.1h5.1v20.5h5.1v5.1h-5.1v5.1h5.1h5.1v-10.2h15.4v5.1h5.1v-5.1v-30.7H756.8z M782.4,447.8h-20.5
				v-20.5h20.5V447.8z"/>
		</g>
	</g>
	<g>
		<g>
			<rect x="767.1" y="432.4" width="10.2" height="10.2"/>
		</g>
	</g>
	<g>
		<g>
			<rect x="695.4" y="504.1" width="10.2" height="10.2"/>
		</g>
	</g>
	<g>
		<g>
			<rect x="756.8" y="493.9" width="5.1" height="5.1"/>
		</g>
	</g>
	<g>
		<g>
			<rect x="731.2" y="519.5" width="5.1" height="5.1"/>
		</g>
	</g>
	<g>
		<g>
			<rect x="736.3" y="499" width="5.1" height="5.1"/>
		</g>
	</g>
	<g>
		<g>
			<rect x="736.3" y="509.2" width="5.1" height="5.1"/>
		</g>
	</g>
	<g>
		<g>
			<rect x="782.4" y="483.6" width="5.1" height="5.1"/>
		</g>
	</g>
	<g>
		<g>
			<rect x="685.1" y="483.6" width="5.1" height="5.1"/>
		</g>
	</g>
	<g>
		<g>
			<rect x="685.1" y="458" width="5.1" height="5.1"/>
		</g>
	</g>
	<g>
		<g>
			<polygon points="741.5,427.3 741.5,432.4 731.2,432.4 731.2,437.5 746.6,437.5 746.6,432.4 746.6,427.3 			"/>
		</g>
	</g>
	<g>
		<g>
			<path d="M782.4,463.1v5.1h-10.2v5.1h-15.4v-5.1h-5.1v5.1h-10.2v5.1h15.4v5.1h-10.2h-5.1v-5.1h-5.1v5.1h-5.1v-5.1h-5.1v5.1H721
				v5.1h10.2v5.1h5.1v-5.1h10.2v5.1h-5.1v5.1h5.1v10.2h5.1v5.1h5.1v-5.1h15.4V499h5.1v-5.1h-5.1v-10.2h-10.2v-5.1h10.2v5.1h5.1v-5.1
				h5.1v-5.1h5.1v-5.1v-5.1H782.4L782.4,463.1z M767.1,488.7v15.4h-15.4v-15.4H767.1z"/>
		</g>
	</g>
	<g>
		<g>
			<polygon points="751.7,452.9 746.6,452.9 746.6,458 741.5,458 741.5,463.1 741.5,468.3 746.6,468.3 746.6,463.1 751.7,463.1 
				751.7,458 756.8,458 756.8,452.9 			"/>
		</g>
	</g>
	<g>
		<g>
			<rect x="741.5" y="519.5" width="10.2" height="5.1"/>
		</g>
	</g>
	<g>
		<g>
			<rect x="726.1" y="427.3" width="5.1" height="5.1"/>
		</g>
	</g>
	<g>
		<g>
			<rect x="767.1" y="463.1" width="5.1" height="5.1"/>
		</g>
	</g>
	<g>
		<g>
			<rect x="772.2" y="458" width="5.1" height="5.1"/>
		</g>
	</g>
	<g>
		<g>
			<rect x="705.6" y="483.6" width="5.1" height="5.1"/>
		</g>
	</g>
	<g>
		<g>
			<path d="M715.9,519.5V499h5.1v-5.1v-5.1h-5.1v5.1h-15.4v-5.1h-5.1h-5.1v5.1h-5.1v30.7h30.7h10.2v-5.1H715.9z M710.7,519.5h-20.5
				V499h20.5V519.5z"/>
		</g>
	</g>
	<g>
		<g>
			<rect x="715.9" y="452.9" width="5.1" height="5.1"/>
		</g>
	</g>
	<g>
		<g>
			<path d="M721,422.2h-5.1h-30.7v30.7h5.1v5.1h5.1v-5.1h5.1v5.1h5.1v-5.1h10.2v-10.2h5.1v-5.1h-5.1v-10.2h5.1h5.1v-5.1H721z
				 M710.7,447.8h-20.5v-20.5h20.5V447.8z"/>
		</g>
	</g>
	<g>
		<g>
			<rect x="746.6" y="437.5" width="5.1" height="5.1"/>
		</g>
	</g>
	<g>
		<g>
			<rect x="736.3" y="422.2" width="5.1" height="5.1"/>
		</g>
	</g>
	<g>
		<g>
			<path d="M746.6,452.9v-5.1h-5.1v-5.1h-5.1v5.1h-10.2v-5.1H721v5.1v5.1h5.1v10.2h-15.4V458h-5.1v5.1h-15.4v5.1h10.2v5.1h-15.4v5.1
				h15.4v5.1h5.1v-5.1h5.1v5.1h5.1v-5.1h10.2v-5.1H721v-5.1h5.1h5.1v5.1h5.1h5.1v-5.1h-5.1v-5.1h-5.1v-10.2H746.6L746.6,452.9z
				 M715.9,473.4h-10.2v-5.1h10.2V473.4z"/>
		</g>
	</g>
	<g>
		<g>
			<polygon points="731.2,504.1 731.2,499 731.2,493.9 726.1,493.9 726.1,499 721,499 721,504.1 726.1,504.1 726.1,509.2 721,509.2 
				721,514.3 731.2,514.3 731.2,509.2 736.3,509.2 736.3,504.1 			"/>
		</g>
	</g>
	<g>
		<g>
			<polygon points="777.3,514.3 777.3,509.2 772.2,509.2 772.2,514.3 756.8,514.3 756.8,519.5 767.1,519.5 767.1,524.6 772.2,524.6 
				772.2,519.5 782.4,519.5 782.4,524.6 787.5,524.6 787.5,519.5 787.5,514.3 			"/>
		</g>
	</g>
	<g>
		<g>
			<polygon points="782.4,493.9 782.4,499 777.3,499 777.3,504.1 787.5,504.1 787.5,499 787.5,493.9 			"/>
		</g>
	</g>
</g>
<g>
	<g>
		<polygon class="st9" points="457,838.3 453.3,838.3 316.2,838.3 316.2,842 312.5,842 312.5,863.2 316.2,863.2 316.2,866.9 
			453.3,866.9 457,866.9 457,863.2 460.7,863.2 460.7,842 457,842 		"/>
		<polygon class="st12" points="457,838.3 453.3,838.3 316.2,838.3 316.2,842 312.5,842 312.5,863.2 316.2,863.2 316.2,866.9 
			453.3,866.9 457,866.9 457,863.2 460.7,863.2 460.7,842 457,842 		"/>
		<g>
			<path class="st4" d="M344.4,853.1h-1.3v3.8h-2.5v-10.1h6.3v1.3h1.3v3.8h-1.3v1.3h1.3v3.8h-2.5v-2.5h-1.3V853.1z M343.1,850.6h2.5
				v-1.3h-2.5V850.6z"/>
			<path class="st4" d="M350.7,855.7h-1.3v-7.6h1.3v-1.3h6.3v2.5H352v1.3h2.5v2.5H352v1.3h5.1v2.5h-6.3V855.7z"/>
			<path class="st4" d="M359.6,855.7h-1.3v-7.6h1.3v-1.3h5.1v1.3h1.3v2.5h-2.5v-1.3h-2.5v5.1h2.5v-1.3h2.5v2.5h-1.3v1.3h-5.1V855.7z
				"/>
			<path class="st4" d="M369.7,856.9h-2.5v-8.9h1.3v-1.3h5.1v1.3h1.3v8.9h-2.5v-3.8h-2.5V856.9z M372.2,850.6v-1.3h-2.5v1.3H372.2z"
				/>
			<path class="st4" d="M377.3,855.7H376v-8.9h2.5v7.6h5.1v2.5h-6.3V855.7z"/>
			<path class="st4" d="M384.9,846.8h2.5v10.1h-2.5V846.8z"/>
			<path class="st4" d="M388.7,846.8h6.3v1.3h1.3v7.6H395v1.3h-6.3V846.8z M391.2,850.6h2.5v-1.3h-2.5V850.6z M391.2,854.4h2.5v-1.3
				h-2.5V854.4z"/>
			<path class="st4" d="M401.3,853.1H400v3.8h-2.5v-8.9h1.3v-1.3h5.1v1.3h1.3v3.8h-1.3v1.3h1.3v3.8h-2.5v-2.5h-1.3V853.1z
				 M400,850.6h2.5v-1.3H400V850.6z"/>
			<path class="st4" d="M408.9,856.9h-2.5v-8.9h1.3v-1.3h5.1v1.3h1.3v8.9h-2.5v-3.8h-2.5V856.9z M411.4,850.6v-1.3h-2.5v1.3H411.4z"
				/>
			<path class="st4" d="M415.2,846.8h7.6v2.5h-2.5v7.6h-2.5v-7.6h-2.5V846.8z"/>
			<path class="st4" d="M425.3,855.7h-1.3v-7.6h1.3v-1.3h6.3v2.5h-5.1v1.3h2.5v2.5h-2.5v1.3h5.1v2.5h-6.3V855.7z"/>
		</g>
	</g>
	<g>
		<rect x="318.6" y="840.4" class="st4" width="13.1" height="1.7"/>
		<rect x="333.5" y="840.4" class="st4" width="1.7" height="1.7"/>
	</g>
</g>
<g>
	<g>
		<polygon class="st9" points="457,880.3 453.3,880.3 316.2,880.3 316.2,884 312.5,884 312.5,905.2 316.2,905.2 316.2,908.9 
			453.3,908.9 457,908.9 457,905.2 460.7,905.2 460.7,884 457,884 		"/>
		<polygon class="st10" points="457,876.7 453.3,876.7 316.2,876.7 316.2,880.3 312.5,880.3 312.5,901.5 316.2,901.5 316.2,905.2 
			453.3,905.2 457,905.2 457,901.5 460.7,901.5 460.7,880.3 457,880.3 		"/>
		<g>
			<path class="st4" d="M344.4,891.5h-1.3v3.8h-2.5v-10.1h6.3v1.3h1.3v3.8h-1.3v1.3h1.3v3.8h-2.5v-2.5h-1.3V891.5z M343.1,888.9h2.5
				v-1.3h-2.5V888.9z"/>
			<path class="st4" d="M350.7,894h-1.3v-7.6h1.3v-1.3h6.3v2.5H352v1.3h2.5v2.5H352v1.3h5.1v2.5h-6.3V894z"/>
			<path class="st4" d="M359.6,894h-1.3v-7.6h1.3v-1.3h5.1v1.3h1.3v2.5h-2.5v-1.3h-2.5v5.1h2.5v-1.3h2.5v2.5h-1.3v1.3h-5.1V894z"/>
			<path class="st4" d="M369.7,895.3h-2.5v-8.9h1.3v-1.3h5.1v1.3h1.3v8.9h-2.5v-3.8h-2.5V895.3z M372.2,888.9v-1.3h-2.5v1.3H372.2z"
				/>
			<path class="st4" d="M377.3,894H376v-8.9h2.5v7.6h5.1v2.5h-6.3V894z"/>
			<path class="st4" d="M384.9,885.2h2.5v10.1h-2.5V885.2z"/>
			<path class="st4" d="M388.7,885.2h6.3v1.3h1.3v7.6H395v1.3h-6.3V885.2z M391.2,888.9h2.5v-1.3h-2.5V888.9z M391.2,892.7h2.5v-1.3
				h-2.5V892.7z"/>
			<path class="st4" d="M401.3,891.5H400v3.8h-2.5v-8.9h1.3v-1.3h5.1v1.3h1.3v3.8h-1.3v1.3h1.3v3.8h-2.5v-2.5h-1.3V891.5z
				 M400,888.9h2.5v-1.3H400V888.9z"/>
			<path class="st4" d="M408.9,895.3h-2.5v-8.9h1.3v-1.3h5.1v1.3h1.3v8.9h-2.5v-3.8h-2.5V895.3z M411.4,888.9v-1.3h-2.5v1.3H411.4z"
				/>
			<path class="st4" d="M415.2,885.2h7.6v2.5h-2.5v7.6h-2.5v-7.6h-2.5V885.2z"/>
			<path class="st4" d="M425.3,894h-1.3v-7.6h1.3v-1.3h6.3v2.5h-5.1v1.3h2.5v2.5h-2.5v1.3h5.1v2.5h-6.3V894z"/>
		</g>
	</g>
	<g>
		<rect x="318.6" y="879.4" class="st4" width="13.1" height="1.7"/>
		<rect x="333.5" y="879.4" class="st4" width="1.7" height="1.7"/>
	</g>
</g>
<g>
	<rect x="738.4" y="611.1" class="st4" width="23.6" height="3"/>
	<rect x="765.2" y="611.1" class="st4" width="3" height="3"/>
</g>
<g>
	<rect x="418" y="549.7" class="st4" width="23.6" height="3"/>
	<rect x="444.7" y="549.7" class="st4" width="3" height="3"/>
</g>
<g>
	<polygon class="st22" points="387.9,673.2 387.9,665.7 369.3,665.7 369.3,673.2 361.8,673.2 361.8,680.6 361.8,691.8 369.3,691.8 
		369.3,699.3 380.4,699.3 387.9,699.3 387.9,691.8 395.4,691.8 395.4,680.6 395.4,673.2 	"/>
	<line class="st23" x1="369.9" y1="699.3" x2="369.9" y2="709.2"/>
	<line class="st23" x1="387.3" y1="699.3" x2="387.3" y2="709.2"/>
	<polygon class="st24" points="386.3,707.4 384.1,707.4 370.8,707.4 370.8,709.6 368.6,709.6 368.6,725.1 370.8,725.1 370.8,727.3 
		384.1,727.3 386.3,727.3 386.3,725.1 388.5,725.1 388.5,709.6 386.3,709.6 	"/>
</g>
<polygon class="st25" points="455,1112.4 455,1104.5 447.1,1104.5 382,1104.5 313.3,1104.5 313.3,1112.4 305.4,1112.4 305.4,1158 
	313.3,1158 313.3,1165.9 382,1165.9 447.1,1165.9 455,1165.9 455,1158 462.9,1158 462.9,1112.4 "/>
<polygon class="st25" points="455,1112.6 455,1104.6 447.1,1104.6 382,1104.6 313.3,1104.6 313.3,1112.6 305.4,1112.6 305.4,1158.1 
	313.3,1158.1 313.3,1166 382,1166 447.1,1166 455,1166 455,1158.1 462.9,1158.1 462.9,1112.6 "/>
<g>
	<path class="st4" d="M351.5,1146H346v-21.8h13.6v2.7h2.7v8.2h-2.7v2.7h-8.2V1146z M351.5,1132.4h5.4v-2.7h-5.4V1132.4z"/>
	<path class="st4" d="M367.8,1143.3h-2.7v-19h5.4v16.3h10.9v5.4h-13.6V1143.3z"/>
	<path class="st4" d="M389.6,1146h-5.4v-19h2.7v-2.7h10.9v2.7h2.7v19H395v-8.2h-5.4V1146z M395,1132.4v-2.7h-5.4v2.7H395z"/>
	<path class="st4" d="M403.2,1124.2h5.4v8.2h5.4v-8.2h5.4v10.9h-2.7v2.7h-2.7v8.2h-5.4v-8.2h-2.7v-2.7h-2.7V1124.2z"/>
</g>
<polygon class="st25" points="625,1112.4 625,1104.5 617.1,1104.5 552,1104.5 483.3,1104.5 483.3,1112.4 475.4,1112.4 475.4,1158 
	483.3,1158 483.3,1165.9 552,1165.9 617.1,1165.9 625,1165.9 625,1158 632.9,1158 632.9,1112.4 "/>
<polygon class="st22" points="625,1104.6 625,1096.6 617.1,1096.6 552,1096.6 483.3,1096.6 483.3,1104.6 475.4,1104.6 475.4,1150.1 
	483.3,1150.1 483.3,1158 552,1158 617.1,1158 625,1158 625,1150.1 632.9,1150.1 632.9,1104.6 "/>
<g>
	<path class="st4" d="M521.5,1138H516v-21.8h13.6v2.7h2.7v8.2h-2.7v2.7h-8.2V1138z M521.5,1124.4h5.4v-2.7h-5.4V1124.4z"/>
	<path class="st4" d="M537.8,1135.3h-2.7v-19h5.4v16.3h10.9v5.4h-13.6V1135.3z"/>
	<path class="st4" d="M559.6,1138h-5.4v-19h2.7v-2.7h10.9v2.7h2.7v19H565v-8.2h-5.4V1138z M565,1124.4v-2.7h-5.4v2.7H565z"/>
	<path class="st4" d="M573.2,1116.2h5.4v8.2h5.4v-8.2h5.4v10.9h-2.7v2.7h-2.7v8.2h-5.4v-8.2h-2.7v-2.7h-2.7V1116.2z"/>
</g>
<g>
	<path class="st26" d="M-368.6,866.9h43.2v108h43.2v-108h43.2v129.6h-21.6v21.6h-21.6v21.6h-43.2v-21.6H-347v-21.6h-21.6V866.9z"/>
	<path class="st27" d="M-217.4,890.5h21.6v-21.6h108v43.2h-86.4v21.6h64.8v21.6h21.6v64.8h-21.6v21.6h-108v-43.2h86.4v-21.6h-64.8
		v-21.6h-21.6V890.5z"/>
</g>
<g>
	<path class="st28" d="M-368.6,845.8h43.2v108h43.2v-108h43.2v129.6h-21.6V997h-21.6v21.6h-43.2V997H-347v-21.6h-21.6V845.8z"/>
	<path class="st29" d="M-217.4,867.4h21.6v-21.6h108V889h-86.4v21.6h64.8v21.6h21.6V997h-21.6v21.6h-108v-43.2h86.4v-21.6h-64.8
		v-21.6h-21.6V867.4z"/>
</g>
<g>
	<g>
		<path class="st0" d="M-319.2,1224.4h27.5v68.7h27.5v-68.7h27.5v82.4h-13.7v13.7h-13.7v13.7h-27.5v-13.7h-13.7v-13.7h-13.7V1224.4z
			"/>
		<path class="st0" d="M-223.1,1239.4h13.7v-13.7h68.7v27.5h-54.9v13.7h41.2v13.7h13.7v41.2h-13.7v13.7h-68.7v-27.5h54.9v-13.7
			h-41.2v-13.7h-13.7V1239.4z"/>
	</g>
	<g>
		<path class="st7" d="M-319.2,1209.9h27.5v68.7h27.5v-68.7h27.5v82.4h-13.7v13.7h-13.7v13.7h-27.5V1306h-13.7v-13.7h-13.7V1209.9z"
			/>
		<path class="st7" d="M-223.1,1225h13.7v-13.7h68.7v27.5h-54.9v13.7h41.2v13.7h13.7v41.2h-13.7v13.7h-68.7v-27.5h54.9v-13.7h-41.2
			v-13.7h-13.7V1225z"/>
	</g>
	<g>
		<path class="st4" d="M-319.2,1196.5h27.5v68.7h27.5v-68.7h27.5v82.4h-13.7v13.7h-13.7v13.7h-27.5v-13.7h-13.7v-13.7h-13.7V1196.5z
			"/>
		<path class="st4" d="M-223.1,1210.2h13.7v-13.7h68.7v27.5h-54.9v13.7h41.2v13.7h13.7v41.2h-13.7v13.7h-68.7v-27.5h54.9v-13.7
			h-41.2v-13.7h-13.7V1210.2z"/>
	</g>
</g>
<g>
	<g>
		<path class="st0" d="M255.2,364.7h-21.6v-86.4h54v10.8h10.8v32.4h-10.8v10.8h-32.4V364.7z M255.2,310.7h21.6v-10.8h-21.6V310.7z"
			/>
		<path class="st0" d="M309.2,289.1H320v-10.8h43.2v10.8H374v64.8h-10.8v10.8H320v-10.8h-10.8V289.1z M330.8,343.1h21.6v-43.2h-21.6
			V343.1z"/>
		<path class="st0" d="M395.6,353.9h-10.8v-75.6h21.6v64.8h43.2v21.6h-54V353.9z"/>
		<path class="st0" d="M438.8,278.3h21.6v32.4H482v-32.4h21.6v43.2h-10.8v10.8H482v32.4h-21.6v-32.4h-10.8v-10.8h-10.8V278.3z"/>
	</g>
	<g>
		<path class="st30" d="M255.2,356.3h-21.6v-86.4h54v10.8h10.8v32.4h-10.8v10.8h-32.4V356.3z M255.2,302.3h21.6v-10.8h-21.6V302.3z"
			/>
		<path class="st30" d="M309.2,280.7H320v-10.8h43.2v10.8H374v64.8h-10.8v10.8H320v-10.8h-10.8V280.7z M330.8,334.7h21.6v-43.2
			h-21.6V334.7z"/>
		<path class="st30" d="M395.6,345.5h-10.8v-75.6h21.6v64.8h43.2v21.6h-54V345.5z"/>
		<path class="st30" d="M438.8,269.9h21.6v32.4H482v-32.4h21.6v43.2h-10.8v10.8H482v32.4h-21.6v-32.4h-10.8v-10.8h-10.8V269.9z"/>
	</g>
	<g>
		<path class="st4" d="M255.2,348.1h-21.6v-86.4h54v10.8h10.8v32.4h-10.8v10.8h-32.4V348.1z M255.2,294.1h21.6v-10.8h-21.6V294.1z"
			/>
		<path class="st4" d="M309.2,272.5H320v-10.8h43.2v10.8H374v64.8h-10.8v10.8H320v-10.8h-10.8V272.5z M330.8,326.5h21.6v-43.2h-21.6
			V326.5z"/>
		<path class="st4" d="M395.6,337.3h-10.8v-75.6h21.6v64.8h43.2v21.6h-54V337.3z"/>
		<path class="st4" d="M438.8,261.7h21.6v32.4H482v-32.4h21.6v43.2h-10.8v10.8H482v32.4h-21.6v-32.4h-10.8v-10.8h-10.8V261.7z"/>
	</g>
</g>
<g>
	<g id="u9MLE1.tif_3_" class="st31">
		
			<image style="overflow:visible;" width="163" height="260" id="Layer_1_3_" xlink:href="CB0EAE42F92A1C88.png"  transform="matrix(0.8268 0.2296 -0.2296 0.8268 91.4161 427.8021)">
		</image>
	</g>
	<g id="u9MLE1.tif_2_">
		
			<image style="overflow:visible;" width="163" height="260" id="Layer_1_1_" xlink:href="CB0EAE42F92A1C89.png"  transform="matrix(0.8455 0.2348 -0.2348 0.8455 85.384 412.099)">
		</image>
	</g>
</g>
<g>
	<g class="st1">
		<g>
			<polygon class="st0" points="582,48.2 582,134.7 683.3,134.7 683.3,123.1 670.6,123.1 670.6,110.4 658,110.4 658,97.8 
				645.3,97.8 645.3,85.1 658,85.1 658,72.5 670.6,72.5 670.6,59.8 683.3,59.8 683.3,48.2 			"/>
		</g>
		<polygon class="st0" points="596.8,109.4 582,133.6 582.1,109.4 		"/>
	</g>
	<rect x="93.8" y="25.3" class="st0" width="510.3" height="86.5"/>
	<rect x="570.4" y="103.3" class="st0" width="112.8" height="31.6"/>
	<g class="st1">
		<g>
			<polygon class="st0" points="101.7,48.4 101.7,134.9 0.5,134.9 0.5,123.3 13.1,123.3 13.1,110.6 25.8,110.6 25.8,98 38.4,98 
				38.4,85.3 25.8,85.3 25.8,72.6 13.1,72.6 13.1,60 0.5,60 0.5,48.4 			"/>
		</g>
		<polygon class="st0" points="87,109.5 101.7,133.8 101.7,109.5 		"/>
	</g>
	<g>
		<g>
			<polygon class="st2" points="582,38 582,124.4 683.3,124.4 683.3,112.8 670.6,112.8 670.6,100.2 658,100.2 658,87.5 645.3,87.5 
				645.3,74.9 658,74.9 658,62.2 670.6,62.2 670.6,49.6 683.3,49.6 683.3,38 			"/>
			<polygon class="st3" points="582,26.4 582,112.8 683.3,112.8 683.3,101.2 670.6,101.2 670.6,88.6 658,88.6 658,75.9 645.3,75.9 
				645.3,63.3 658,63.3 658,50.6 670.6,50.6 670.6,38 683.3,38 683.3,26.4 			"/>
		</g>
		<polygon class="st2" points="596.8,99.1 582,123.4 582.1,99.1 		"/>
		<g>
			<g>
				<polygon class="st2" points="101.2,38 101.2,124.4 0,124.4 0,112.8 12.7,112.8 12.7,100.2 25.3,100.2 25.3,87.5 38,87.5 
					38,74.9 25.3,74.9 25.3,62.2 12.7,62.2 12.7,49.6 0,49.6 0,38 				"/>
				<polygon class="st3" points="101.2,26.4 101.2,112.8 0,112.8 0,101.2 12.7,101.2 12.7,88.6 25.3,88.6 25.3,75.9 38,75.9 
					38,63.3 25.3,63.3 25.3,50.6 12.7,50.6 12.7,38 0,38 0,26.4 				"/>
			</g>
			<polygon class="st2" points="86.5,99.1 101.2,123.4 101.2,99.1 			"/>
		</g>
		<g>
			<rect x="86.5" y="12.7" class="st2" width="510.3" height="86.5"/>
			<rect x="86.5" class="st3" width="510.3" height="86.5"/>
		</g>
	</g>
</g>
<g>
	<g>
		<path class="st25" d="M200.6,75h-37.4V15h37.4v7.5h7.5v15h-7.5v15h7.5v15h-7.5V75z M178.1,37.5h15V30h-15V37.5z M178.1,60h15v-7.5
			h-15V60z"/>
		<path class="st25" d="M230.6,75h-15V22.5h7.5V15h30v7.5h7.5V75h-15V52.5h-15V75z M245.5,37.5V30h-15v7.5H245.5z"/>
		<path class="st25" d="M275.5,67.5H268V15h15V60h30v15h-37.4V67.5z"/>
		<path class="st25" d="M327.9,67.5h-7.5V15h15V60h30v15h-37.4V67.5z"/>
		<path class="st25" d="M372.9,22.5h7.5V15h30v7.5h7.5v44.9h-7.5V75h-30v-7.5h-7.5V22.5z M387.8,60h15V30h-15V60z"/>
		<path class="st25" d="M425.3,22.5h7.5V15h30v7.5h7.5v44.9h-7.5V75h-30v-7.5h-7.5V22.5z M440.3,60h15V30h-15V60z"/>
		<path class="st25" d="M500.2,45h-7.5v30h-15V15h15v7.5h7.5V30h7.5V15h15V75h-15V52.5h-7.5V45z"/>
	</g>
	<g>
		<path class="st22" d="M200.6,69.1h-37.4V9.2h37.4v7.5h7.5v15h-7.5v15h7.5v15h-7.5V69.1z M178.1,31.7h15v-7.5h-15V31.7z
			 M178.1,54.2h15v-7.5h-15V54.2z"/>
		<path class="st22" d="M230.6,69.1h-15V16.7h7.5V9.2h30v7.5h7.5v52.4h-15V46.7h-15V69.1z M245.5,31.7v-7.5h-15v7.5H245.5z"/>
		<path class="st22" d="M275.5,61.6H268V9.2h15v44.9h30v15h-37.4V61.6z"/>
		<path class="st22" d="M327.9,61.6h-7.5V9.2h15v44.9h30v15h-37.4V61.6z"/>
		<path class="st22" d="M372.9,16.7h7.5V9.2h30v7.5h7.5v44.9h-7.5v7.5h-30v-7.5h-7.5V16.7z M387.8,54.2h15v-30h-15V54.2z"/>
		<path class="st22" d="M425.3,16.7h7.5V9.2h30v7.5h7.5v44.9h-7.5v7.5h-30v-7.5h-7.5V16.7z M440.3,54.2h15v-30h-15V54.2z"/>
		<path class="st22" d="M500.2,39.2h-7.5v30h-15V9.2h15v7.5h7.5v7.5h7.5v-15h15v59.9h-15V46.7h-7.5V39.2z"/>
	</g>
</g>
<g>
	<path class="st0" d="M692.2,221.7H713v6.9h-20.7V221.7z"/>
	<path class="st0" d="M747.5,239h-6.9v-27.6h17.3v3.5h3.5v10.4h-3.5v3.5h-10.4V239z M747.5,221.7h6.9v-3.5h-6.9V221.7z"/>
	<path class="st0" d="M775.2,228.6h-3.5V239h-6.9v-27.6h17.3v3.5h3.5v10.4h-3.5v3.5h3.5V239h-6.9v-6.9h-3.5V228.6z M771.7,221.7h6.9
		v-3.5h-6.9V221.7z"/>
	<path class="st0" d="M792.5,235.5H789v-20.7h3.5v-3.5h17.3v6.9h-13.8v3.5h6.9v6.9h-6.9v3.5h13.8v6.9h-17.3V235.5z"/>
	<path class="st0" d="M813.2,214.8h3.5v-3.5h17.3v6.9h-13.8v3.5h10.4v3.5h3.5v10.4h-3.5v3.5h-17.3v-6.9H827v-3.5h-10.4v-3.5h-3.5
		V214.8z"/>
	<path class="st0" d="M837.4,214.8h3.5v-3.5h17.3v6.9h-13.8v3.5h10.4v3.5h3.5v10.4h-3.5v3.5h-17.3v-6.9h13.8v-3.5h-10.4v-3.5h-3.5
		V214.8z"/>
	<path class="st0" d="M892.7,239h-6.9v-24.2h3.5v-3.5H903v3.5h3.5V239h-6.9v-10.4h-6.9V239z M899.6,221.7v-3.5h-6.9v3.5H899.6z"/>
	<path class="st0" d="M920.3,225.1h-3.5V239H910v-27.6h6.9v3.5h3.5v3.5h3.5v-6.9h6.9V239h-6.9v-10.4h-3.5V225.1z"/>
	<path class="st0" d="M934.1,211.3h6.9v10.4h6.9v-10.4h6.9v13.8h-3.5v3.5H948V239h-6.9v-10.4h-3.5v-3.5h-3.5V211.3z"/>
	<path class="st0" d="M989.4,239h-6.9v-27.6h6.9v6.9h3.5v-3.5h3.5v-3.5h6.9v6.9h-3.5v3.5h-3.5v6.9h3.5v3.5h3.5v6.9h-6.9v-3.5h-3.5
		v-3.5h-3.5V239z"/>
	<path class="st0" d="M1010.2,235.5h-3.5v-20.7h3.5v-3.5h17.3v6.9h-13.8v3.5h6.9v6.9h-6.9v3.5h13.8v6.9h-17.3V235.5z"/>
	<path class="st0" d="M1030.9,211.3h6.9v10.4h6.9v-10.4h6.9v13.8h-3.5v3.5h-3.5V239h-6.9v-10.4h-3.5v-3.5h-3.5V211.3z"/>
	<path class="st0" d="M1079.3,211.3h20.7v6.9h-6.9V239h-6.9v-20.7h-6.9V211.3z"/>
	<path class="st0" d="M1103.5,214.8h3.5v-3.5h13.8v3.5h3.5v20.7h-3.5v3.5h-13.8v-3.5h-3.5V214.8z M1110.4,232.1h6.9v-13.8h-6.9
		V232.1z"/>
	<path class="st0" d="M1158.8,239h-6.9v-27.6h17.3v3.5h3.5v10.4h-3.5v3.5h-10.4V239z M1158.8,221.7h6.9v-3.5h-6.9V221.7z"/>
	<path class="st0" d="M1179.5,235.5h-3.5v-24.2h6.9v20.7h13.8v6.9h-17.3V235.5z"/>
	<path class="st0" d="M1207.2,239h-6.9v-24.2h3.5v-3.5h13.8v3.5h3.5V239h-6.9v-10.4h-6.9V239z M1214.1,221.7v-3.5h-6.9v3.5H1214.1z"
		/>
	<path class="st0" d="M1224.4,211.3h6.9v10.4h6.9v-10.4h6.9v13.8h-3.5v3.5h-3.5V239h-6.9v-10.4h-3.5v-3.5h-3.5V211.3z"/>
	<path class="st0" d="M1272.8,221.7h20.7v6.9h-20.7V221.7z"/>
</g>
<g>
	<path class="st30" d="M691.4,215.8h20.7v6.9h-20.7V215.8z"/>
	<path class="st30" d="M746.7,233.1h-6.9v-27.6H757v3.5h3.5v10.4H757v3.5h-10.4V233.1z M746.7,215.8h6.9v-3.5h-6.9V215.8z"/>
	<path class="st30" d="M774.3,222.7h-3.5v10.4h-6.9v-27.6h17.3v3.5h3.5v10.4h-3.5v3.5h3.5v10.4h-6.9v-6.9h-3.5V222.7z M770.9,215.8
		h6.9v-3.5h-6.9V215.8z"/>
	<path class="st30" d="M791.6,229.6h-3.5v-20.7h3.5v-3.5h17.3v6.9H795v3.5h6.9v6.9H795v3.5h13.8v6.9h-17.3V229.6z"/>
	<path class="st30" d="M812.3,208.9h3.5v-3.5h17.3v6.9h-13.8v3.5h10.4v3.5h3.5v10.4h-3.5v3.5h-17.3v-6.9h13.8v-3.5h-10.4v-3.5h-3.5
		V208.9z"/>
	<path class="st30" d="M836.5,208.9h3.5v-3.5h17.3v6.9h-13.8v3.5h10.4v3.5h3.5v10.4h-3.5v3.5h-17.3v-6.9h13.8v-3.5H840v-3.5h-3.5
		V208.9z"/>
	<path class="st30" d="M891.8,233.1h-6.9v-24.2h3.5v-3.5h13.8v3.5h3.5v24.2h-6.9v-10.4h-6.9V233.1z M898.7,215.8v-3.5h-6.9v3.5
		H898.7z"/>
	<path class="st30" d="M919.5,219.2H916v13.8h-6.9v-27.6h6.9v3.5h3.5v3.5h3.5v-6.9h6.9v27.6h-6.9v-10.4h-3.5V219.2z"/>
	<path class="st30" d="M933.3,205.4h6.9v10.4h6.9v-10.4h6.9v13.8h-3.5v3.5h-3.5v10.4h-6.9v-10.4h-3.5v-3.5h-3.5V205.4z"/>
	<path class="st30" d="M988.6,233.1h-6.9v-27.6h6.9v6.9h3.5v-3.5h3.5v-3.5h6.9v6.9h-3.5v3.5h-3.5v6.9h3.5v3.5h3.5v6.9h-6.9v-3.5H992
		v-3.5h-3.5V233.1z"/>
	<path class="st30" d="M1009.3,229.6h-3.5v-20.7h3.5v-3.5h17.3v6.9h-13.8v3.5h6.9v6.9h-6.9v3.5h13.8v6.9h-17.3V229.6z"/>
	<path class="st30" d="M1030,205.4h6.9v10.4h6.9v-10.4h6.9v13.8h-3.5v3.5h-3.5v10.4h-6.9v-10.4h-3.5v-3.5h-3.5V205.4z"/>
	<path class="st30" d="M1078.4,205.4h20.7v6.9h-6.9v20.7h-6.9v-20.7h-6.9V205.4z"/>
	<path class="st30" d="M1102.6,208.9h3.5v-3.5h13.8v3.5h3.5v20.7h-3.5v3.5h-13.8v-3.5h-3.5V208.9z M1109.5,226.2h6.9v-13.8h-6.9
		V226.2z"/>
	<path class="st30" d="M1157.9,233.1h-6.9v-27.6h17.3v3.5h3.5v10.4h-3.5v3.5h-10.4V233.1z M1157.9,215.8h6.9v-3.5h-6.9V215.8z"/>
	<path class="st30" d="M1178.7,229.6h-3.5v-24.2h6.9v20.7h13.8v6.9h-17.3V229.6z"/>
	<path class="st30" d="M1206.3,233.1h-6.9v-24.2h3.5v-3.5h13.8v3.5h3.5v24.2h-6.9v-10.4h-6.9V233.1z M1213.2,215.8v-3.5h-6.9v3.5
		H1213.2z"/>
	<path class="st30" d="M1223.6,205.4h6.9v10.4h6.9v-10.4h6.9v13.8h-3.5v3.5h-3.5v10.4h-6.9v-10.4h-3.5v-3.5h-3.5V205.4z"/>
	<path class="st30" d="M1272,215.8h20.7v6.9H1272V215.8z"/>
</g>
<g>
	<path class="st4" d="M691.4,211.4h20.7v6.9h-20.7V211.4z"/>
	<path class="st4" d="M746.7,228.7h-6.9V201H757v3.5h3.5v10.4H757v3.5h-10.4V228.7z M746.7,211.4h6.9v-3.5h-6.9V211.4z"/>
	<path class="st4" d="M774.3,218.3h-3.5v10.4h-6.9V201h17.3v3.5h3.5v10.4h-3.5v3.5h3.5v10.4h-6.9v-6.9h-3.5V218.3z M770.9,211.4h6.9
		v-3.5h-6.9V211.4z"/>
	<path class="st4" d="M791.6,225.2h-3.5v-20.7h3.5V201h17.3v6.9H795v3.5h6.9v6.9H795v3.5h13.8v6.9h-17.3V225.2z"/>
	<path class="st4" d="M812.3,204.5h3.5V201h17.3v6.9h-13.8v3.5h10.4v3.5h3.5v10.4h-3.5v3.5h-17.3v-6.9h13.8v-3.5h-10.4v-3.5h-3.5
		V204.5z"/>
	<path class="st4" d="M836.5,204.5h3.5V201h17.3v6.9h-13.8v3.5h10.4v3.5h3.5v10.4h-3.5v3.5h-17.3v-6.9h13.8v-3.5H840v-3.5h-3.5
		V204.5z"/>
	<path class="st4" d="M891.8,228.7h-6.9v-24.2h3.5V201h13.8v3.5h3.5v24.2h-6.9v-10.4h-6.9V228.7z M898.7,211.4v-3.5h-6.9v3.5H898.7z
		"/>
	<path class="st4" d="M919.5,214.8H916v13.8h-6.9V201h6.9v3.5h3.5v3.5h3.5V201h6.9v27.6h-6.9v-10.4h-3.5V214.8z"/>
	<path class="st4" d="M933.3,201h6.9v10.4h6.9V201h6.9v13.8h-3.5v3.5h-3.5v10.4h-6.9v-10.4h-3.5v-3.5h-3.5V201z"/>
	<path class="st4" d="M988.6,228.7h-6.9V201h6.9v6.9h3.5v-3.5h3.5V201h6.9v6.9h-3.5v3.5h-3.5v6.9h3.5v3.5h3.5v6.9h-6.9v-3.5H992
		v-3.5h-3.5V228.7z"/>
	<path class="st4" d="M1009.3,225.2h-3.5v-20.7h3.5V201h17.3v6.9h-13.8v3.5h6.9v6.9h-6.9v3.5h13.8v6.9h-17.3V225.2z"/>
	<path class="st4" d="M1030,201h6.9v10.4h6.9V201h6.9v13.8h-3.5v3.5h-3.5v10.4h-6.9v-10.4h-3.5v-3.5h-3.5V201z"/>
	<path class="st4" d="M1078.4,201h20.7v6.9h-6.9v20.7h-6.9v-20.7h-6.9V201z"/>
	<path class="st4" d="M1102.6,204.5h3.5V201h13.8v3.5h3.5v20.7h-3.5v3.5h-13.8v-3.5h-3.5V204.5z M1109.5,221.7h6.9v-13.8h-6.9V221.7
		z"/>
	<path class="st4" d="M1157.9,228.7h-6.9V201h17.3v3.5h3.5v10.4h-3.5v3.5h-10.4V228.7z M1157.9,211.4h6.9v-3.5h-6.9V211.4z"/>
	<path class="st4" d="M1178.7,225.2h-3.5V201h6.9v20.7h13.8v6.9h-17.3V225.2z"/>
	<path class="st4" d="M1206.3,228.7h-6.9v-24.2h3.5V201h13.8v3.5h3.5v24.2h-6.9v-10.4h-6.9V228.7z M1213.2,211.4v-3.5h-6.9v3.5
		H1213.2z"/>
	<path class="st4" d="M1223.6,201h6.9v10.4h6.9V201h6.9v13.8h-3.5v3.5h-3.5v10.4h-6.9v-10.4h-3.5v-3.5h-3.5V201z"/>
	<path class="st4" d="M1272,211.4h20.7v6.9H1272V211.4z"/>
</g>
</svg>
