<?xml version="1.0" encoding="utf-8"?>
<!-- Generator: Adobe Illustrator 22.0.1, SVG Export Plug-In . SVG Version: 6.00 Build 0)  -->
<svg version="1.1" id="Layer_1" xmlns="http://www.w3.org/2000/svg" xmlns:xlink="http://www.w3.org/1999/xlink" x="0px" y="0px"
	 width="489px" height="297.7px" viewBox="0 0 489 297.7" style="enable-background:new 0 0 489 297.7;" xml:space="preserve">
<style type="text/css">
	.st0{fill:#5895B7;}
	.st1{opacity:0.8;}
	.st2{fill:#C17620;}
	.st3{fill:#F4C24A;}
	.st4{fill:#2A6FBA;}
	.st5{fill:#4ABAEF;}
	.st6{fill:#FFFFFF;}
	.st7{fill:#95C9C8;}
	.st8{fill:#DDEFEE;}
	.st9{fill:#1B8E6F;}
	.st10{fill:#3CEA8A;}
	.st11{opacity:0.4;fill:#666666;}
	.st12{fill:none;}
	.st13{fill:#7149A4;}
	.st14{fill:#BD86E0;}
	.st15{opacity:0.4;fill:#666666;stroke:#666666;stroke-width:4;stroke-linejoin:bevel;stroke-miterlimit:10;}
	.st16{fill:#F2F2F2;}
	.st17{fill:#E6E6E6;}
	.st18{fill:none;stroke:#000000;stroke-width:4;stroke-linejoin:bevel;stroke-miterlimit:10;}
	.st19{fill:#C6E0DE;}
	.st20{fill:#A7C6C3;}
</style>
<g>
	<rect x="-251.9" y="843.8" class="st0" width="484" height="82"/>
	<rect x="200.1" y="917.8" class="st0" width="107" height="30"/>
	<g class="st1">
		<g>
			<polygon class="st0" points="-235.9,863.8 -235.9,945.8 -331.9,945.8 -331.9,934.8 -319.9,934.8 -319.9,922.8 -307.9,922.8 
				-307.9,910.8 -295.9,910.8 -295.9,898.8 -307.9,898.8 -307.9,886.8 -319.9,886.8 -319.9,874.8 -331.9,874.8 -331.9,863.8 			"/>
		</g>
		<polygon class="st0" points="-249.9,921.8 -235.9,944.8 -236,921.8 		"/>
	</g>
	<g>
		<g>
			<polygon class="st2" points="211.1,855.8 211.1,937.8 307.1,937.8 307.1,926.8 295.1,926.8 295.1,914.8 283.1,914.8 283.1,902.8 
				271.1,902.8 271.1,890.8 283.1,890.8 283.1,878.8 295.1,878.8 295.1,866.8 307.1,866.8 307.1,855.8 			"/>
			<polygon class="st3" points="211.1,844.8 211.1,926.8 307.1,926.8 307.1,915.8 295.1,915.8 295.1,903.8 283.1,903.8 283.1,891.8 
				271.1,891.8 271.1,879.8 283.1,879.8 283.1,867.8 295.1,867.8 295.1,855.8 307.1,855.8 307.1,844.8 			"/>
		</g>
		<polygon class="st2" points="225.1,913.8 211.1,936.8 211.1,913.8 		"/>
		<g>
			<g>
				<polygon class="st2" points="-244.9,855.8 -244.9,937.8 -340.9,937.8 -340.9,926.8 -328.9,926.8 -328.9,914.8 -316.9,914.8 
					-316.9,902.8 -304.9,902.8 -304.9,890.8 -316.9,890.8 -316.9,878.8 -328.9,878.8 -328.9,866.8 -340.9,866.8 -340.9,855.8 				
					"/>
				<polygon class="st3" points="-244.9,844.8 -244.9,926.8 -340.9,926.8 -340.9,915.8 -328.9,915.8 -328.9,903.8 -316.9,903.8 
					-316.9,891.8 -304.9,891.8 -304.9,879.8 -316.9,879.8 -316.9,867.8 -328.9,867.8 -328.9,855.8 -340.9,855.8 -340.9,844.8 				
					"/>
			</g>
			<polygon class="st2" points="-258.9,913.8 -244.9,936.8 -245,913.8 			"/>
		</g>
		<g>
			<rect x="-258.9" y="831.8" class="st2" width="484" height="82"/>
			<rect x="-258.9" y="819.8" class="st3" width="484" height="82"/>
		</g>
	</g>
	<rect x="-236.1" y="845" class="st12" width="415.2" height="81.8"/>
	<text transform="matrix(1 0 0 1 -196.9665 879.5624)" class="st6" style="font-family:'EditUndoBRK'; font-size:60px;">HOW TO PLAY</text>
</g>
<polygon class="st4" points="68.1,1112.8 56.1,1112.8 -16.9,1112.8 -16.9,1124.8 -28.9,1124.8 -28.9,1209.8 -16.9,1209.8 
	-16.9,1221.8 56.1,1221.8 68.1,1221.8 68.1,1209.8 80.1,1209.8 80.1,1124.8 68.1,1124.8 "/>
<polygon class="st5" points="68.1,1102.8 56.1,1102.8 -16.9,1102.8 -16.9,1114.8 -28.9,1114.8 -28.9,1199.8 -16.9,1199.8 
	-16.9,1211.8 56.1,1211.8 68.1,1211.8 68.1,1199.8 80.1,1199.8 80.1,1114.8 68.1,1114.8 "/>
<rect x="-16.9" y="1137" class="st12" width="89" height="81.8"/>
<text transform="matrix(1 0 0 1 7.6477 1182.5057)" class="st6" style="font-family:'EditUndoBRK'; font-size:79px;">?</text>
<g>
	<polygon class="st0" points="1103.1,957.3 1091.5,957.3 1091.5,945.7 1079.9,945.7 1079.9,932.9 581.2,932.9 581.2,945.7 
		569.6,945.7 569.6,957.3 558.1,957.3 558.1,1642 569.6,1642 569.6,1653.7 581.2,1653.7 581.2,1666.5 1079.9,1666.5 1079.9,1653.7 
		1091.5,1653.7 1091.5,1642 1103.1,1642 	"/>
	<polygon class="st7" points="1103.1,945.3 1091.5,945.3 1091.5,933.6 1079.9,933.6 1079.9,920.8 581.2,920.8 581.2,933.6 
		569.6,933.6 569.6,945.3 558.1,945.3 558.1,1630 569.6,1630 569.6,1641.6 581.2,1641.6 581.2,1654.5 1079.9,1654.5 1079.9,1641.6 
		1091.5,1641.6 1091.5,1630 1103.1,1630 	"/>
	<polygon class="st8" points="1103.1,933.3 1091.5,933.3 1091.5,921.6 1079.9,921.6 1079.9,908.8 581.2,908.8 581.2,921.6 
		569.6,921.6 569.6,933.3 558.1,933.3 558.1,1618 569.6,1618 569.6,1629.6 581.2,1629.6 581.2,1642.4 1079.9,1642.4 1079.9,1629.6 
		1091.5,1629.6 1091.5,1618 1103.1,1618 	"/>
</g>
<g>
	<polygon class="st9" points="54.1,592.8 44,592.8 -330.9,592.8 -330.9,602.9 -340.9,602.9 -340.9,660.7 -330.9,660.7 -330.9,670.8 
		44,670.8 54.1,670.8 54.1,660.7 64.2,660.7 64.2,602.9 54.1,602.9 	"/>
	<polygon class="st10" points="54.1,582.8 44,582.8 -330.9,582.8 -330.9,592.9 -340.9,592.9 -340.9,650.7 -330.9,650.7 
		-330.9,660.8 44,660.8 54.1,660.8 54.1,650.7 64.2,650.7 64.2,592.9 54.1,592.9 	"/>
	<rect x="-339.9" y="606" class="st12" width="404" height="81.8"/>
	<text transform="matrix(1 0 0 1 -227.7995 633.6848)" class="st6" style="font-family:'EditUndoBRK'; font-size:48px;">PLAYER 1</text>
</g>
<g>
	<polygon class="st11" points="-306.8,472.2 -308.7,466.4 -312.8,454.4 -330.6,460.4 -328.6,466.2 -334.4,468.2 -330.3,480.2 
		-324.6,478.2 -322.6,484 -310.6,479.9 -312.5,474.2 	"/>
	<polygon class="st11" points="-268,460.1 -269.9,454.4 -274,442.4 -291.8,448.4 -289.8,454.2 -295.6,456.1 -291.5,468.1 
		-285.8,466.2 -283.8,471.9 -271.8,467.9 -273.7,462.1 	"/>
	<rect x="-327.5" y="413.2" transform="matrix(0.9472 -0.3207 0.3207 0.9472 -155.8222 -81.058)" width="7.1" height="38.6"/>
	<polygon points="-308.4,467.4 -310.3,461.6 -314.4,449.6 -332.2,455.6 -330.3,461.4 -336,463.4 -332,475.4 -326.2,473.4 
		-324.2,479.2 -312.2,475.1 -314.2,469.4 	"/>
	<rect x="-289.1" y="400.2" transform="matrix(0.9472 -0.3207 0.3207 0.9472 -149.6122 -69.4083)" width="7.1" height="38.6"/>
	<polygon points="-269.9,454.4 -271.9,448.6 -275.9,436.6 -293.7,442.6 -291.8,448.4 -297.6,450.3 -293.5,462.4 -287.7,460.4 
		-285.8,466.2 -273.7,462.1 -275.7,456.3 	"/>
	<rect x="-337.5" y="390.9" transform="matrix(0.9472 -0.3207 0.3207 0.9472 -144.708 -79.5025)" width="47.7" height="17.3"/>
</g>
<g>
	<polygon class="st11" points="-240.6,505.8 -239.6,501.6 -237.7,493 -250.5,490.2 -251.4,494.3 -255.6,493.4 -257.5,502.1 
		-253.3,503 -254.3,507.1 -245.6,509 -244.7,504.9 	"/>
	<polygon class="st11" points="-213,512.6 -212.1,508.4 -210.2,499.8 -223,497 -223.9,501.1 -228.1,500.2 -230,508.8 -225.8,509.8 
		-226.7,513.9 -218.1,515.8 -217.2,511.7 	"/>
	<rect x="-239" y="462.4" transform="matrix(0.9766 0.2149 -0.2149 0.9766 96.7335 61.9391)" width="5" height="26.9"/>
	<polygon points="-239.8,502.3 -238.9,498.2 -237,489.5 -249.8,486.7 -250.7,490.9 -254.8,490 -256.7,498.6 -252.6,499.5 
		-253.5,503.7 -244.9,505.6 -243.9,501.4 	"/>
	<rect x="-211.3" y="468.5" transform="matrix(0.9766 0.2149 -0.2149 0.9766 98.6876 56.1371)" width="5" height="26.9"/>
	<polygon points="-212.1,508.4 -211.2,504.3 -209.3,495.6 -222.1,492.8 -223,497 -227.2,496 -229.1,504.7 -224.9,505.6 
		-225.8,509.8 -217.2,511.7 -216.3,507.5 	"/>
	<rect x="-235.1" y="453.9" transform="matrix(0.9766 0.2149 -0.2149 0.9766 93.7217 57.6947)" width="33.3" height="12"/>
</g>
<g>
	<polygon class="st11" points="-164.5,444 -165.2,440.9 -166.6,434.6 -176,436.7 -175.3,439.7 -178.4,440.4 -177,446.8 
		-173.9,446.1 -173.2,449.1 -166.9,447.7 -167.6,444.7 	"/>
	<polygon class="st11" points="-144.1,440 -144.8,436.9 -146.2,430.6 -155.6,432.7 -154.9,435.7 -158,436.4 -156.5,442.8 
		-153.5,442.1 -152.8,445.1 -146.5,443.7 -147.2,440.7 	"/>
	<rect x="-172.9" y="412.9" transform="matrix(0.9761 -0.2173 0.2173 0.9761 -95.9602 -27.0782)" width="3.6" height="19.8"/>
	<polygon points="-165.1,441.5 -165.8,438.4 -167.2,432.1 -176.6,434.2 -175.9,437.2 -178.9,437.9 -177.5,444.2 -174.5,443.5 
		-173.8,446.6 -167.5,445.2 -168.1,442.1 	"/>
	<rect x="-152.6" y="408.4" transform="matrix(0.9761 -0.2173 0.2173 0.9761 -94.4927 -22.7735)" width="3.6" height="19.8"/>
	<polygon points="-144.8,436.9 -145.5,433.9 -146.9,427.5 -156.3,429.6 -155.6,432.7 -158.6,433.4 -157.2,439.7 -154.2,439 
		-153.5,442.1 -147.2,440.7 -147.8,437.6 	"/>
	<rect x="-176.3" y="402.2" transform="matrix(0.9761 -0.2173 0.2173 0.9761 -92.2669 -25.9348)" width="24.4" height="8.8"/>
</g>
<g>
	<polygon class="st11" points="-143.9,489.8 -141.3,485.6 -135.9,477.1 -148.5,469 -151.2,473.1 -155.3,470.5 -160.7,479.1 
		-156.6,481.7 -159.2,485.8 -150.7,491.3 -148,487.1 	"/>
	<polygon class="st11" points="-116.9,507.9 -114.3,503.8 -108.9,495.2 -121.6,487.1 -124.2,491.2 -128.3,488.6 -133.7,497.2 
		-129.6,499.8 -132.2,503.9 -123.7,509.4 -121,505.3 	"/>
	<rect x="-130.6" y="443.7" transform="matrix(0.844 0.5363 -0.5363 0.844 226.2808 140.1521)" width="5.7" height="30.9"/>
	<polygon points="-141.7,486.3 -139.1,482.2 -133.7,473.6 -146.4,465.6 -149,469.7 -153.1,467.1 -158.5,475.7 -154.4,478.3 
		-157,482.4 -148.5,487.8 -145.9,483.7 	"/>
	<rect x="-103.2" y="461.1" transform="matrix(0.844 0.5363 -0.5363 0.844 239.9052 128.1612)" width="5.7" height="30.9"/>
	<polygon points="-114.3,503.8 -111.7,499.6 -106.3,491.1 -118.9,483 -121.6,487.1 -125.7,484.5 -131.1,493.1 -127,495.7 
		-129.6,499.8 -121,505.3 -118.4,501.1 	"/>
	<rect x="-121.2" y="442" transform="matrix(0.844 0.5363 -0.5363 0.844 224.8493 124.7899)" width="38.2" height="13.8"/>
</g>
<g>
	<polygon class="st9" points="-102.7,117.3 -109.3,117.3 -355.7,117.3 -355.7,124 -362.3,124 -362.3,162 -355.7,162 -355.7,168.6 
		-109.3,168.6 -102.7,168.6 -102.7,162 -96.1,162 -96.1,124 -102.7,124 	"/>
	<polygon class="st10" points="-102.7,110.8 -109.3,110.8 -355.7,110.8 -355.7,117.4 -362.3,117.4 -362.3,155.4 -355.7,155.4 
		-355.7,162 -109.3,162 -102.7,162 -102.7,155.4 -96.1,155.4 -96.1,117.4 -102.7,117.4 	"/>
	<rect x="-361.6" y="126" class="st12" width="265.5" height="32.8"/>
	<text transform="matrix(1 0 0 1 -295.864 144.2059)" class="st6" style="font-family:'EditUndoBRK'; font-size:31.5429px;">Calibrate</text>
</g>
<g>
	<rect x="-360.7" y="199.7" class="st9" width="219.8" height="28.8"/>
	<rect x="-365.5" y="193.1" class="st9" width="229.4" height="30.6"/>
	<polygon class="st10" points="-365.5,188.8 -365.5,218 -360.7,218 -360.7,223.7 -140.9,223.7 -140.9,218 -136.1,218 -136.1,188.8 	
		"/>
</g>
<polygon class="st9" points="-145.7,203.6 -145.7,198.5 -150.8,198.5 -150.8,198.4 -207.5,198.4 -238,198.4 -263.6,198.4 
	-287.5,198.4 -350.8,198.4 -350.8,198.5 -355.9,198.5 -355.9,203.6 -361,203.6 -361,211.2 -355.9,211.2 -355.9,216.3 -350.8,216.3 
	-350.8,216.4 -287.5,216.4 -263.6,216.4 -238,216.4 -207.5,216.4 -150.8,216.4 -150.8,216.4 -145.7,216.4 -145.7,211.3 
	-140.6,211.3 -140.6,203.6 "/>
<g>
	<rect x="-369.6" y="297.7" class="st12" width="4.7" height="0.1"/>
	<rect x="-369.6" y="315.6" class="st12" width="4.7" height="0.1"/>
	<polygon class="st6" points="-348.6,315.6 -348.6,310.5 -343.5,310.5 -343.5,302.9 -348.6,302.9 -348.6,297.8 -353.7,297.8 
		-353.7,297.7 -364.9,297.7 -364.9,297.8 -369.6,297.8 -369.6,315.6 -364.9,315.6 -364.9,315.7 -353.7,315.7 -353.7,315.6 	"/>
</g>
<g>
	<polygon class="st6" points="-395.4,262.2 -395.4,257.1 -400.5,257.1 -400.5,257 -416.5,257 -416.5,275 -400.5,275 -400.5,274.9 
		-395.4,274.9 -395.4,269.8 -390.3,269.8 -390.3,262.2 	"/>
	<polygon class="st6" points="-408.9,301 -408.9,295.9 -408.9,295.9 -408.9,295.8 -413.5,295.8 -414,295.8 -418.5,295.8 
		-418.5,295.9 -418.6,295.9 -418.6,301 -423.6,301 -423.6,308.6 -418.6,308.6 -418.6,313.7 -418.5,313.7 -418.5,313.8 -414,313.8 
		-413.5,313.8 -408.9,313.8 -408.9,313.8 -408.9,313.8 -408.9,308.7 -403.8,308.7 -403.8,301 	"/>
</g>
<polygon class="st6" points="-458.7,203.6 -458.7,198.5 -458.7,198.5 -458.7,198.4 -463.3,198.4 -463.8,198.4 -468.3,198.4 
	-468.3,198.5 -468.4,198.5 -468.4,203.6 -473.4,203.6 -473.4,211.2 -468.4,211.2 -468.4,216.3 -468.3,216.3 -468.3,216.4 
	-463.8,216.4 -463.3,216.4 -458.7,216.4 -458.7,216.4 -458.7,216.4 -458.7,211.3 -453.6,211.3 -453.6,203.6 "/>
<polygon class="st13" points="507.1,592.8 497,592.8 122.1,592.8 122.1,602.9 112.1,602.9 112.1,660.7 122.1,660.7 122.1,670.8 
	497,670.8 507.1,670.8 507.1,660.7 517.2,660.7 517.2,602.9 507.1,602.9 "/>
<polygon class="st14" points="507.1,582.8 497,582.8 122.1,582.8 122.1,592.9 112.1,592.9 112.1,650.7 122.1,650.7 122.1,660.8 
	497,660.8 507.1,660.8 507.1,650.7 517.2,650.7 517.2,592.9 507.1,592.9 "/>
<rect x="112.1" y="606" class="st12" width="405" height="81.8"/>
<text transform="matrix(1 0 0 1 217.7884 633.6848)" class="st6" style="font-family:'EditUndoBRK'; font-size:48px;">PLAYER 2</text>
<g>
	<rect x="133.1" y="586.8" class="st6" width="45.1" height="5.7"/>
	<rect x="184.3" y="586.8" class="st6" width="5.7" height="5.7"/>
</g>
<g>
	<rect x="-321.4" y="587.8" class="st6" width="45.1" height="5.7"/>
	<rect x="-270.2" y="587.8" class="st6" width="5.7" height="5.7"/>
</g>
<polygon class="st15" points="67.7,427.8 74.1,433.4 68.5,439.8 88.9,457.2 88.9,495.1 109.6,469 141.4,498.3 147.2,492.1 
	152.2,496.7 223.8,378 "/>
<polygon class="st16" points="65.2,420.7 71.6,426.3 66,432.7 86.4,450 86.4,487.9 107.2,461.8 138.9,491.2 144.8,485 149.7,489.6 
	221.4,370.9 "/>
<polygon class="st17" points="107.2,461.6 221.6,370.9 86.5,449.8 86.5,487.7 "/>
<polygon class="st18" points="64.2,420.8 70.5,426.4 64.9,432.8 85.4,450.2 85.4,488.1 106.1,462 137.9,491.4 143.7,485.1 
	148.7,489.7 220.3,371 "/>
<g>
	<polygon class="st19" points="0,114.1 0,277.7 10.4,277.7 10.4,287.2 20.8,287.2 20.8,297.7 468.2,297.7 468.2,287.2 478.6,287.2 
		478.6,277.7 489,277.7 489,114.1 	"/>
	<polygon class="st19" points="489,114.1 489,20 478.6,20 478.6,10.5 468.2,10.5 468.2,0 20.8,0 20.8,10.5 10.4,10.5 10.4,20 0,20 
		0,114.1 	"/>
</g>
<g>
	<polygon class="st20" points="10.4,16.6 20.8,16.6 20.8,8.6 10.4,8.6 10.4,16.5 0,16.5 0,24.5 10.4,24.5 	"/>
	<rect x="20.8" y="-0.1" class="st20" width="447.5" height="8"/>
	<polygon class="st20" points="478.6,16.5 478.6,8.6 468.2,8.6 468.2,16.6 478.6,16.6 478.6,24.5 489,24.5 489,16.5 	"/>
</g>
</svg>
