<!-- Generator: Adobe Illustrator 19.2.1, SVG Export Plug-In  -->
<svg version="1.1"
	 xmlns="http://www.w3.org/2000/svg" xmlns:xlink="http://www.w3.org/1999/xlink" xmlns:a="http://ns.adobe.com/AdobeSVGViewerExtensions/3.0/"
	 x="0px" y="0px" width="266.2px" height="57.8px" viewBox="0 0 266.2 57.8" style="enable-background:new 0 0 266.2 57.8;"
	 xml:space="preserve">
<style type="text/css">
	.st0{fill:#1B8E6F;}
	.st1{fill:#3CEA8A;}
	.st2{fill:#FFFFFF;}
</style>
<defs>
</defs>
<g>
	<polygon class="st0" points="259.6,6.5 253,6.5 6.6,6.5 6.6,13.1 0,13.1 0,51.2 6.6,51.2 6.6,57.8 253,57.8 259.6,57.8 259.6,51.2
		266.2,51.2 266.2,13.1 259.6,13.1 	"/>
	<polygon class="st1" points="259.6,0 253,0 6.6,0 6.6,6.6 0,6.6 0,44.6 6.6,44.6 6.6,51.2 253,51.2 259.6,51.2 259.6,44.6
		266.2,44.6 266.2,6.6 259.6,6.6 	"/>
	<g>
		<path class="st2" d="M66.4,17.5h2.3v-2.3h11.4v4.5H71v9.1h9.1v4.5H68.7V31h-2.3V17.5z"/>
		<path class="st2" d="M86.9,33.4h-4.5V17.5h2.3v-2.3h9.1v2.3h2.3v15.9h-4.5v-6.8h-4.5v6.8H86.9z M91.4,22v-2.3h-4.5V22H91.4z"/>
		<path class="st2" d="M100.5,31.1h-2.3V15.2h4.5v13.6h9.1v4.5h-11.4v-2.2H100.5z"/>
		<path class="st2" d="M114.1,15.2h4.5v18.2h-4.5V15.2z"/>
		<path class="st2" d="M120.9,15.2h11.4v2.3h2.3v13.6h-2.3v2.3h-11.4V15.2z M125.5,22h4.5v-2.3h-4.5V22z M125.5,28.8h4.5v-2.3h-4.5
			V28.8z"/>
		<path class="st2" d="M143.7,26.6h-2.3v6.8h-4.5V17.5h2.3v-2.3h9.1v2.3h2.3v6.8h-2.3v2.3h2.3v6.8h-4.5v-4.5h-2.3L143.7,26.6
			L143.7,26.6z M141.4,22h4.5v-2.3h-4.5V22z"/>
		<path class="st2" d="M157.3,33.4h-4.5V17.5h2.3v-2.3h9.1v2.3h2.3v15.9H162v-6.8h-4.5v6.8H157.3z M161.8,22v-2.3h-4.5V22H161.8z"/>
		<path class="st2" d="M168.6,15.2h13.6v4.5h-4.5v13.6h-4.5V19.7h-4.5L168.6,15.2L168.6,15.2z"/>
		<path class="st2" d="M186.8,31.1h-2.3V17.5h2.3v-2.3h11.4v4.5h-9.1V22h4.5v4.5h-4.5v2.3h9.1v4.5h-11.4V31.1z"/>
	</g>
</g>
<g>
	<rect x="12.2" y="3.5" class="st2" width="23.6" height="3"/>
	<rect x="38.9" y="3.5" class="st2" width="3" height="3"/>
</g>
</svg>
