<?xml version="1.0" encoding="utf-8"?>
<!-- Generator: Adobe Illustrator 22.0.1, SVG Export Plug-In . SVG Version: 6.00 Build 0)  -->
<svg version="1.1" id="Layer_1" xmlns="http://www.w3.org/2000/svg" xmlns:xlink="http://www.w3.org/1999/xlink" x="0px" y="0px"
	 width="266.2px" height="57.8px" viewBox="0 0 266.2 57.8" style="enable-background:new 0 0 266.2 57.8;" xml:space="preserve">
<style type="text/css">
	.st0{fill:#5895B7;}
	.st1{opacity:0.8;}
	.st2{fill:#C17620;}
	.st3{fill:#F4C24A;}
	.st4{fill:#2A6FBA;}
	.st5{fill:#FFFFFF;}
	.st6{fill:#4ABAEF;}
	.st7{fill:#95C9C8;}
	.st8{fill:#DDEFEE;}
	.st9{fill:#1B8E6F;}
	.st10{fill:#3CEA8A;}
	.st11{opacity:0.4;fill:#666666;}
	.st12{fill:#33BC6E;}
	.st13{fill:none;}
	.st14{font-family:'EditUndoBRK';}
	.st15{font-size:31.5429px;}
	.st16{fill:#7149A4;}
	.st17{fill:#BD86E0;}
	.st18{opacity:0.4;fill:#666666;stroke:#666666;stroke-width:4;stroke-linejoin:bevel;stroke-miterlimit:10;}
	.st19{fill:#F2F2F2;}
	.st20{fill:#E6E6E6;}
	.st21{fill:none;stroke:#000000;stroke-width:4;stroke-linejoin:bevel;stroke-miterlimit:10;}
	.st22{fill:#C6E0DE;}
	.st23{fill:#A7C6C3;}
</style>
<g>
	<rect x="430.3" y="801" class="st0" width="484" height="82"/>
	<rect x="882.3" y="875" class="st0" width="107" height="30"/>
	<g class="st1">
		<g>
			<polygon class="st0" points="446.3,821 446.3,903 350.3,903 350.3,892 362.3,892 362.3,880 374.3,880 374.3,868 386.3,868 
				386.3,856 374.3,856 374.3,844 362.3,844 362.3,832 350.3,832 350.3,821 			"/>
		</g>
		<polygon class="st0" points="432.3,879 446.3,902 446.3,879 		"/>
	</g>
	<g>
		<g>
			<polygon class="st2" points="893.3,813 893.3,895 989.3,895 989.3,884 977.3,884 977.3,872 965.3,872 965.3,860 953.3,860 
				953.3,848 965.3,848 965.3,836 977.3,836 977.3,824 989.3,824 989.3,813 			"/>
			<polygon class="st3" points="893.3,802 893.3,884 989.3,884 989.3,873 977.3,873 977.3,861 965.3,861 965.3,849 953.3,849 
				953.3,837 965.3,837 965.3,825 977.3,825 977.3,813 989.3,813 989.3,802 			"/>
		</g>
		<polygon class="st2" points="907.3,871 893.3,894 893.4,871 		"/>
		<g>
			<g>
				<polygon class="st2" points="437.3,813 437.3,895 341.3,895 341.3,884 353.3,884 353.3,872 365.3,872 365.3,860 377.3,860 
					377.3,848 365.3,848 365.3,836 353.3,836 353.3,824 341.3,824 341.3,813 				"/>
				<polygon class="st3" points="437.3,802 437.3,884 341.3,884 341.3,873 353.3,873 353.3,861 365.3,861 365.3,849 377.3,849 
					377.3,837 365.3,837 365.3,825 353.3,825 353.3,813 341.3,813 341.3,802 				"/>
			</g>
			<polygon class="st2" points="423.3,871 437.3,894 437.3,871 			"/>
		</g>
		<g>
			<rect x="423.3" y="789" class="st2" width="484" height="82"/>
			<rect x="423.3" y="777" class="st3" width="484" height="82"/>
		</g>
	</g>
	<rect x="446.2" y="802.2" class="st13" width="415.2" height="81.8"/>
	<text transform="matrix(1 0 0 1 485.3008 836.791)" class="st5 st14" style="font-size:60px;">HOW TO PLAY</text>
</g>
<polygon class="st4" points="599.3,1070 587.3,1070 514.3,1070 514.3,1082 502.3,1082 502.3,1167 514.3,1167 514.3,1179 587.3,1179 
	599.3,1179 599.3,1167 611.3,1167 611.3,1082 599.3,1082 "/>
<polygon class="st4" points="599.3,1070 587.3,1070 514.3,1070 514.3,1082 502.3,1082 502.3,1167 514.3,1167 514.3,1179 587.3,1179 
	599.3,1179 599.3,1167 611.3,1167 611.3,1082 599.3,1082 "/>
<rect x="514.3" y="1104.2" class="st13" width="89" height="81.8"/>
<text transform="matrix(1 0 0 1 538.915 1149.7344)" class="st5 st14" style="font-size:79px;">?</text>
<polygon class="st4" points="750.3,1070 738.3,1070 665.3,1070 665.3,1082 653.3,1082 653.3,1167 665.3,1167 665.3,1179 738.3,1179 
	750.3,1179 750.3,1167 762.3,1167 762.3,1082 750.3,1082 "/>
<polygon class="st6" points="750.3,1060 738.3,1060 665.3,1060 665.3,1072 653.3,1072 653.3,1157 665.3,1157 665.3,1169 738.3,1169 
	750.3,1169 750.3,1157 762.3,1157 762.3,1072 750.3,1072 "/>
<rect x="665.3" y="1094.2" class="st13" width="89" height="81.8"/>
<text transform="matrix(1 0 0 1 689.915 1139.7344)" class="st5 st14" style="font-size:79px;">?</text>
<g>
	<polygon class="st0" points="1785.3,914.5 1773.8,914.5 1773.8,902.9 1762.2,902.9 1762.2,890.1 1263.5,890.1 1263.5,902.9 
		1251.9,902.9 1251.9,914.5 1240.3,914.5 1240.3,1599.3 1251.9,1599.3 1251.9,1610.9 1263.5,1610.9 1263.5,1623.7 1762.2,1623.7 
		1762.2,1610.9 1773.8,1610.9 1773.8,1599.3 1785.3,1599.3 	"/>
	<polygon class="st7" points="1785.3,902.5 1773.8,902.5 1773.8,890.9 1762.2,890.9 1762.2,878.1 1263.5,878.1 1263.5,890.9 
		1251.9,890.9 1251.9,902.5 1240.3,902.5 1240.3,1587.2 1251.9,1587.2 1251.9,1598.9 1263.5,1598.9 1263.5,1611.7 1762.2,1611.7 
		1762.2,1598.9 1773.8,1598.9 1773.8,1587.2 1785.3,1587.2 	"/>
	<polygon class="st8" points="1785.3,890.5 1773.8,890.5 1773.8,878.8 1762.2,878.8 1762.2,866 1263.5,866 1263.5,878.8 
		1251.9,878.8 1251.9,890.5 1240.3,890.5 1240.3,1575.2 1251.9,1575.2 1251.9,1586.8 1263.5,1586.8 1263.5,1599.7 1762.2,1599.7 
		1762.2,1586.8 1773.8,1586.8 1773.8,1575.2 1785.3,1575.2 	"/>
</g>
<g>
	<polygon class="st9" points="736.4,550 726.3,550 351.4,550 351.4,560.1 341.3,560.1 341.3,618 351.4,618 351.4,628 726.3,628 
		736.4,628 736.4,618 746.4,618 746.4,560.1 736.4,560.1 	"/>
	<polygon class="st10" points="736.4,540 726.3,540 351.4,540 351.4,550.1 341.3,550.1 341.3,608 351.4,608 351.4,618 726.3,618 
		736.4,618 736.4,608 746.4,608 746.4,550.1 736.4,550.1 	"/>
	<rect x="342.3" y="563.3" class="st13" width="404" height="81.8"/>
	<text transform="matrix(1 0 0 1 454.4678 590.9135)" class="st5 st14" style="font-size:48px;">PLAYER 1</text>
</g>
<g>
	<polygon class="st11" points="375.5,429.4 373.6,423.7 369.5,411.6 351.7,417.7 353.6,423.4 347.9,425.4 351.9,437.4 357.7,435.5 
		359.7,441.2 371.7,437.2 369.7,431.4 	"/>
	<polygon class="st11" points="414.3,417.4 412.3,411.6 408.3,399.6 390.5,405.6 392.4,411.4 386.7,413.3 390.7,425.4 396.5,423.4 
		398.5,429.2 410.5,425.1 408.5,419.3 	"/>
	<rect x="354.7" y="370.4" transform="matrix(0.9472 -0.3207 0.3207 0.9472 -106.0613 135.5037)" width="7.1" height="38.6"/>
	<polygon points="373.9,424.6 371.9,418.9 367.9,406.8 350.1,412.9 352,418.6 346.2,420.6 350.3,432.6 356.1,430.7 358,436.4 
		370.1,432.4 368.1,426.6 	"/>
	<rect x="393.2" y="357.4" transform="matrix(0.9472 -0.3207 0.3207 0.9472 -99.8513 147.1535)" width="7.1" height="38.6"/>
	<polygon points="412.3,411.6 410.4,405.8 406.3,393.8 388.5,399.8 390.5,405.6 384.7,407.6 388.8,419.6 394.6,417.6 396.5,423.4 
		408.5,419.3 406.6,413.6 	"/>
	<rect x="344.7" y="348.1" transform="matrix(0.9472 -0.3207 0.3207 0.9472 -94.9471 137.0592)" width="47.7" height="17.3"/>
</g>
<g>
	<polygon class="st11" points="441.7,463 442.6,458.9 444.5,450.2 431.7,447.4 430.8,451.6 426.7,450.6 424.8,459.3 428.9,460.2 
		428,464.4 436.7,466.3 437.6,462.1 	"/>
	<polygon class="st11" points="469.2,469.8 470.1,465.6 472,457 459.2,454.2 458.3,458.3 454.2,457.4 452.3,466.1 456.4,467 
		455.5,471.1 464.2,473 465.1,468.9 	"/>
	<rect x="443.3" y="419.6" transform="matrix(0.9766 0.2149 -0.2149 0.9766 103.4811 -85.6713)" width="5" height="26.9"/>
	<polygon points="442.5,459.6 443.4,455.4 445.3,446.8 432.5,444 431.6,448.1 427.4,447.2 425.5,455.8 429.7,456.7 428.8,460.9 
		437.4,462.8 438.3,458.6 	"/>
	<rect x="470.9" y="425.7" transform="matrix(0.9766 0.2149 -0.2149 0.9766 105.4352 -91.4733)" width="5" height="26.9"/>
	<polygon points="470.1,465.6 471.1,461.5 473,452.9 460.2,450 459.2,454.2 455.1,453.3 453.2,461.9 457.3,462.8 456.4,467 
		465.1,468.9 466,464.7 	"/>
	<rect x="447.1" y="411.1" transform="matrix(0.9766 0.2149 -0.2149 0.9766 100.4693 -89.9158)" width="33.3" height="12"/>
</g>
<g>
	<polygon class="st11" points="517.7,401.2 517.1,398.2 515.6,391.8 506.3,393.9 506.9,397 503.9,397.6 505.3,404 508.3,403.3 
		509,406.4 515.4,404.9 514.7,401.9 	"/>
	<polygon class="st11" points="538.2,397.2 537.5,394.2 536.1,387.8 526.7,389.9 527.4,393 524.3,393.6 525.7,400 528.8,399.3 
		529.4,402.3 535.8,400.9 535.1,397.9 	"/>
	<rect x="509.3" y="370.2" transform="matrix(0.9761 -0.2173 0.2173 0.9761 -70.3656 120.1478)" width="3.6" height="19.8"/>
	<polygon points="517.2,398.7 516.5,395.6 515.1,389.3 505.7,391.4 506.4,394.4 503.3,395.1 504.7,401.5 507.8,400.8 508.5,403.8 
		514.8,402.4 514.1,399.4 	"/>
	<rect x="529.6" y="365.6" transform="matrix(0.9761 -0.2173 0.2173 0.9761 -68.8981 124.4526)" width="3.6" height="19.8"/>
	<polygon points="537.5,394.2 536.8,391.1 535.4,384.8 526,386.9 526.7,389.9 523.6,390.6 525,396.9 528.1,396.3 528.8,399.3 
		535.1,397.9 534.4,394.8 	"/>
	<rect x="506" y="359.4" transform="matrix(0.9761 -0.2173 0.2173 0.9761 -66.6723 121.2913)" width="24.4" height="8.8"/>
</g>
<g>
	<polygon class="st11" points="538.3,447 541,442.9 546.4,434.3 533.7,426.2 531.1,430.4 527,427.7 521.5,436.3 525.7,438.9 
		523,443 531.6,448.5 534.2,444.4 	"/>
	<polygon class="st11" points="565.3,465.1 567.9,461 573.4,452.4 560.7,444.4 558.1,448.5 554,445.9 548.5,454.4 552.7,457 
		550,461.2 558.6,466.6 561.2,462.5 	"/>
	<rect x="551.6" y="400.9" transform="matrix(0.844 0.5363 -0.5363 0.844 309.7608 -232.425)" width="5.7" height="30.9"/>
	<polygon points="540.5,443.6 543.1,439.4 548.6,430.9 535.9,422.8 533.3,426.9 529.2,424.3 523.7,432.9 527.8,435.5 525.2,439.6 
		533.8,445.1 536.4,440.9 	"/>
	<rect x="579" y="418.3" transform="matrix(0.844 0.5363 -0.5363 0.844 323.3852 -244.4159)" width="5.7" height="30.9"/>
	<polygon points="567.9,461 570.6,456.9 576,448.3 563.3,440.2 560.7,444.4 556.6,441.7 551.2,450.3 555.3,452.9 552.7,457 
		561.2,462.5 563.8,458.4 	"/>
	<rect x="561.1" y="399.3" transform="matrix(0.844 0.5363 -0.5363 0.844 308.3293 -247.7873)" width="38.2" height="13.8"/>
</g>
<g>
	<polygon class="st9" points="259.6,6.6 253,6.6 6.6,6.6 6.6,13.2 0,13.2 0,51.2 6.6,51.2 6.6,57.8 253,57.8 259.6,57.8 259.6,51.2 
		266.2,51.2 266.2,13.2 259.6,13.2 	"/>
	<polygon class="st12" points="259.6,6.6 253,6.6 6.6,6.6 6.6,13.2 0,13.2 0,51.2 6.6,51.2 6.6,57.8 253,57.8 259.6,57.8 
		259.6,51.2 266.2,51.2 266.2,13.2 259.6,13.2 	"/>
	<rect x="0.7" y="21.8" class="st13" width="265.5" height="32.8"/>
	<text transform="matrix(1 0 0 1 66.4033 40.006)" class="st5 st14 st15">Calibrate</text>
</g>
<g>
	<polygon class="st9" points="579.6,74.6 573,74.6 326.6,74.6 326.6,81.2 320,81.2 320,119.2 326.6,119.2 326.6,125.8 573,125.8 
		579.6,125.8 579.6,119.2 586.2,119.2 586.2,81.2 579.6,81.2 	"/>
	<polygon class="st10" points="579.6,68 573,68 326.6,68 326.6,74.6 320,74.6 320,112.6 326.6,112.6 326.6,119.3 573,119.3 
		579.6,119.3 579.6,112.6 586.2,112.6 586.2,74.6 579.6,74.6 	"/>
	<rect x="320.7" y="83.3" class="st13" width="265.5" height="32.8"/>
	<text transform="matrix(1 0 0 1 386.4033 101.4346)" class="st5 st14 st15">Calibrate</text>
</g>
<g>
	<rect x="321.6" y="156.9" class="st9" width="219.8" height="28.8"/>
	<rect x="316.8" y="150.4" class="st9" width="229.4" height="30.6"/>
	<polygon class="st10" points="316.8,146 316.8,175.3 321.6,175.3 321.6,181 541.3,181 541.3,175.3 546.1,175.3 546.1,146 	"/>
</g>
<polygon class="st9" points="536.6,160.9 536.6,155.8 531.5,155.8 531.5,155.7 474.8,155.7 444.3,155.7 418.7,155.7 394.8,155.7 
	331.4,155.7 331.4,155.7 326.3,155.7 326.3,160.8 321.3,160.8 321.3,168.5 326.3,168.5 326.3,173.6 331.4,173.6 331.4,173.7 
	394.8,173.7 418.7,173.7 444.3,173.7 474.8,173.7 531.5,173.7 531.5,173.6 536.6,173.6 536.6,168.5 541.7,168.5 541.7,160.9 "/>
<g>
	<rect x="312.6" y="254.9" class="st13" width="4.7" height="0.1"/>
	<rect x="312.6" y="272.8" class="st13" width="4.7" height="0.1"/>
	<polygon class="st5" points="333.7,272.9 333.7,267.8 338.8,267.8 338.8,260.1 333.7,260.1 333.7,255 328.6,255 328.6,254.9 
		317.4,254.9 317.4,255 312.6,255 312.6,272.8 317.4,272.8 317.4,272.9 328.6,272.9 328.6,272.9 	"/>
</g>
<g>
	<polygon class="st5" points="286.8,219.4 286.8,214.3 281.7,214.3 281.7,214.2 265.8,214.2 265.8,232.2 281.7,232.2 281.7,232.1 
		286.8,232.1 286.8,227 291.9,227 291.9,219.4 	"/>
	<polygon class="st5" points="273.3,258.2 273.3,253.1 273.3,253.1 273.3,253 268.8,253 268.2,253 263.7,253 263.7,253.1 
		263.7,253.1 263.7,258.2 258.6,258.2 258.6,265.8 263.7,265.8 263.7,270.9 263.7,270.9 263.7,271 268.2,271 268.8,271 273.3,271 
		273.3,271 273.3,271 273.3,265.9 278.4,265.9 278.4,258.2 	"/>
</g>
<polygon class="st5" points="223.5,160.9 223.5,155.8 223.5,155.8 223.5,155.7 219,155.7 218.4,155.7 213.9,155.7 213.9,155.7 
	213.9,155.7 213.9,160.8 208.8,160.8 208.8,168.5 213.9,168.5 213.9,173.6 213.9,173.6 213.9,173.7 218.4,173.7 219,173.7 
	223.5,173.7 223.5,173.6 223.5,173.6 223.5,168.5 228.6,168.5 228.6,160.9 "/>
<polygon class="st16" points="1189.4,550 1179.3,550 804.4,550 804.4,560.1 794.3,560.1 794.3,618 804.4,618 804.4,628 1179.3,628 
	1189.4,628 1189.4,618 1199.4,618 1199.4,560.1 1189.4,560.1 "/>
<polygon class="st17" points="1189.4,540 1179.3,540 804.4,540 804.4,550.1 794.3,550.1 794.3,608 804.4,608 804.4,618 1179.3,618 
	1189.4,618 1189.4,608 1199.4,608 1199.4,550.1 1189.4,550.1 "/>
<rect x="794.3" y="563.3" class="st13" width="405" height="81.8"/>
<text transform="matrix(1 0 0 1 900.0557 590.9135)" class="st5 st14" style="font-size:48px;">PLAYER 2</text>
<g>
	<rect x="815.3" y="544" class="st5" width="45.1" height="5.7"/>
	<rect x="866.6" y="544" class="st5" width="5.7" height="5.7"/>
</g>
<g>
	<rect x="360.8" y="545" class="st5" width="45.1" height="5.7"/>
	<rect x="412.1" y="545" class="st5" width="5.7" height="5.7"/>
</g>
<polygon class="st18" points="749.9,385 756.3,390.6 750.7,397 771.2,414.4 771.2,452.3 791.9,426.2 823.7,455.6 829.5,449.3 
	834.5,453.9 906.1,335.2 "/>
<polygon class="st19" points="747.5,377.9 753.9,383.5 748.3,389.9 768.7,407.3 768.7,445.2 789.4,419.1 821.2,448.5 827.1,442.2 
	832,446.8 903.6,328.1 "/>
<polygon class="st20" points="789.5,418.9 903.9,328.1 768.8,407.1 768.8,445 "/>
<polygon class="st21" points="746.4,378.1 752.8,383.7 747.2,390.1 767.7,407.4 767.7,445.3 788.4,419.2 820.2,448.6 826,442.3 
	831,446.9 902.6,328.3 "/>
<g>
	<polygon class="st22" points="682.3,71.3 682.3,235 692.6,235 692.6,244.5 703,244.5 703,254.9 1150.5,254.9 1150.5,244.5 
		1160.9,244.5 1160.9,235 1171.3,235 1171.3,71.3 	"/>
	<polygon class="st22" points="1171.3,71.3 1171.3,-22.8 1160.9,-22.8 1160.9,-32.3 1150.5,-32.3 1150.5,-42.8 703,-42.8 703,-32.3 
		692.6,-32.3 692.6,-22.8 682.3,-22.8 682.3,71.3 	"/>
</g>
<g>
	<polygon class="st23" points="692.6,-26.2 703,-26.2 703,-34.2 692.6,-34.2 692.6,-26.3 682.3,-26.3 682.3,-18.3 692.6,-18.3 	"/>
	<rect x="703" y="-42.9" class="st23" width="447.5" height="8"/>
	<polygon class="st23" points="1160.9,-26.3 1160.9,-34.2 1150.5,-34.2 1150.5,-26.2 1160.9,-26.2 1160.9,-18.3 1171.3,-18.3 
		1171.3,-26.3 	"/>
</g>
<g>
	<g>
		<g>
			<rect x="289.1" y="-107.2" width="10.2" height="10.2"/>
		</g>
	</g>
	<g>
		<g>
			<path d="M350.6-117.4v5.1h-5.1v5.1h5.1v20.5h5.1v5.1h-5.1v5.1h5.1h5.1v-10.2h15.4v5.1h5.1v-5.1v-30.7H350.6z M376.2-91.8h-20.5
				v-20.5h20.5V-91.8z"/>
		</g>
	</g>
	<g>
		<g>
			<rect x="360.8" y="-107.2" width="10.2" height="10.2"/>
		</g>
	</g>
	<g>
		<g>
			<rect x="289.1" y="-35.5" width="10.2" height="10.2"/>
		</g>
	</g>
	<g>
		<g>
			<rect x="350.6" y="-45.7" width="5.1" height="5.1"/>
		</g>
	</g>
	<g>
		<g>
			<rect x="325" y="-20.1" width="5.1" height="5.1"/>
		</g>
	</g>
	<g>
		<g>
			<rect x="330.1" y="-40.6" width="5.1" height="5.1"/>
		</g>
	</g>
	<g>
		<g>
			<rect x="330.1" y="-30.3" width="5.1" height="5.1"/>
		</g>
	</g>
	<g>
		<g>
			<rect x="376.2" y="-56" width="5.1" height="5.1"/>
		</g>
	</g>
	<g>
		<g>
			<rect x="278.9" y="-56" width="5.1" height="5.1"/>
		</g>
	</g>
	<g>
		<g>
			<rect x="278.9" y="-81.6" width="5.1" height="5.1"/>
		</g>
	</g>
	<g>
		<g>
			<polygon points="335.2,-112.3 335.2,-107.2 325,-107.2 325,-102 340.3,-102 340.3,-107.2 340.3,-112.3 			"/>
		</g>
	</g>
	<g>
		<g>
			<path d="M376.2-76.4v5.1h-10.2v5.1h-15.4v-5.1h-5.1v5.1h-10.2v5.1h15.4v5.1h-10.2h-5.1v-5.1h-5.1v5.1H325v-5.1h-5.1v5.1h-5.1v5.1
				H325v5.1h5.1v-5.1h10.2v5.1h-5.1v5.1h5.1v10.2h5.1v5.1h5.1v-5.1h15.4v-10.2h5.1v-5.1h-5.1V-56h-10.2v-5.1h10.2v5.1h5.1v-5.1h5.1
				v-5.1h5.1v-5.1v-5.1L376.2-76.4L376.2-76.4z M360.8-50.8v15.4h-15.4v-15.4H360.8z"/>
		</g>
	</g>
	<g>
		<g>
			<polygon points="345.4,-86.7 340.3,-86.7 340.3,-81.6 335.2,-81.6 335.2,-76.4 335.2,-71.3 340.3,-71.3 340.3,-76.4 345.4,-76.4 
				345.4,-81.6 350.6,-81.6 350.6,-86.7 			"/>
		</g>
	</g>
	<g>
		<g>
			<rect x="335.2" y="-20.1" width="10.2" height="5.1"/>
		</g>
	</g>
	<g>
		<g>
			<rect x="319.8" y="-112.3" width="5.1" height="5.1"/>
		</g>
	</g>
	<g>
		<g>
			<rect x="360.8" y="-76.4" width="5.1" height="5.1"/>
		</g>
	</g>
	<g>
		<g>
			<rect x="365.9" y="-81.6" width="5.1" height="5.1"/>
		</g>
	</g>
	<g>
		<g>
			<rect x="299.4" y="-56" width="5.1" height="5.1"/>
		</g>
	</g>
	<g>
		<g>
			<path d="M309.6-20.1v-20.5h5.1v-5.1v-5.1h-5.1v5.1h-15.4v-5.1h-5.1H284v5.1h-5.1V-15h30.7h10.2v-5.1H309.6z M304.5-20.1H284
				v-20.5h20.5V-20.1z"/>
		</g>
	</g>
	<g>
		<g>
			<rect x="309.6" y="-86.7" width="5.1" height="5.1"/>
		</g>
	</g>
	<g>
		<g>
			<path d="M314.7-117.4h-5.1h-30.7v30.7h5.1v5.1h5.1v-5.1h5.1v5.1h5.1v-5.1h10.2v-10.2h5.1v-5.1h-5.1v-10.2h5.1h5.1v-5.1H314.7z
				 M304.5-91.8H284v-20.5h20.5V-91.8z"/>
		</g>
	</g>
	<g>
		<g>
			<rect x="340.3" y="-102" width="5.1" height="5.1"/>
		</g>
	</g>
	<g>
		<g>
			<rect x="330.1" y="-117.4" width="5.1" height="5.1"/>
		</g>
	</g>
	<g>
		<g>
			<path d="M340.3-86.7v-5.1h-5.1v-5.1h-5.1v5.1h-10.2v-5.1h-5.1v5.1v5.1h5.1v10.2h-15.4v-5.1h-5.1v5.1H284v5.1h10.2v5.1h-15.4v5.1
				h15.4v5.1h5.1v-5.1h5.1v5.1h5.1v-5.1h10.2v-5.1h-5.1v-5.1h5.1h5.1v5.1h5.1h5.1v-5.1h-5.1v-5.1H325v-10.2L340.3-86.7L340.3-86.7z
				 M309.6-66.2h-10.2v-5.1h10.2V-66.2z"/>
		</g>
	</g>
	<g>
		<g>
			<polygon points="325,-35.5 325,-40.6 325,-45.7 319.8,-45.7 319.8,-40.6 314.7,-40.6 314.7,-35.5 319.8,-35.5 319.8,-30.3 
				314.7,-30.3 314.7,-25.2 325,-25.2 325,-30.3 330.1,-30.3 330.1,-35.5 			"/>
		</g>
	</g>
	<g>
		<g>
			<polygon points="371,-25.2 371,-30.3 365.9,-30.3 365.9,-25.2 350.6,-25.2 350.6,-20.1 360.8,-20.1 360.8,-15 365.9,-15 
				365.9,-20.1 376.2,-20.1 376.2,-15 381.3,-15 381.3,-20.1 381.3,-25.2 			"/>
		</g>
	</g>
	<g>
		<g>
			<polygon points="376.2,-45.7 376.2,-40.6 371,-40.6 371,-35.5 381.3,-35.5 381.3,-40.6 381.3,-45.7 			"/>
		</g>
	</g>
</g>
<g>
	<g>
		<polygon class="st9" points="50.8,298.7 47.1,298.7 -90.1,298.7 -90.1,302.4 -93.8,302.4 -93.8,323.6 -90.1,323.6 -90.1,327.3 
			47.1,327.3 50.8,327.3 50.8,323.6 54.4,323.6 54.4,302.4 50.8,302.4 		"/>
		<polygon class="st12" points="50.8,298.7 47.1,298.7 -90.1,298.7 -90.1,302.4 -93.8,302.4 -93.8,323.6 -90.1,323.6 -90.1,327.3 
			47.1,327.3 50.8,327.3 50.8,323.6 54.4,323.6 54.4,302.4 50.8,302.4 		"/>
		<rect x="-93.4" y="307.2" class="st13" width="147.8" height="18.3"/>
		<text transform="matrix(1 0 0 1 -65.6577 317.3503)" class="st5 st14" style="font-size:17.5636px;">Recalibrate</text>
	</g>
	<g>
		<rect x="-87.7" y="300.9" class="st5" width="13.1" height="1.7"/>
		<rect x="-72.8" y="300.9" class="st5" width="1.7" height="1.7"/>
	</g>
</g>
<g>
	<g>
		<polygon class="st9" points="50.8,340.7 47.1,340.7 -90.1,340.7 -90.1,344.4 -93.8,344.4 -93.8,365.6 -90.1,365.6 -90.1,369.3 
			47.1,369.3 50.8,369.3 50.8,365.6 54.4,365.6 54.4,344.4 50.8,344.4 		"/>
		<polygon class="st10" points="50.8,337.1 47.1,337.1 -90.1,337.1 -90.1,340.8 -93.8,340.8 -93.8,361.9 -90.1,361.9 -90.1,365.6 
			47.1,365.6 50.8,365.6 50.8,361.9 54.4,361.9 54.4,340.8 50.8,340.8 		"/>
		<rect x="-93.4" y="345.6" class="st13" width="147.8" height="18.3"/>
		<text transform="matrix(1 0 0 1 -65.6577 355.6913)" class="st5 st14" style="font-size:17.5636px;">Recalibrate</text>
	</g>
	<g>
		<rect x="-87.7" y="339.9" class="st5" width="13.1" height="1.7"/>
		<rect x="-72.8" y="339.9" class="st5" width="1.7" height="1.7"/>
	</g>
</g>
<g>
	<rect x="332.1" y="71.6" class="st5" width="23.6" height="3"/>
	<rect x="358.9" y="71.6" class="st5" width="3" height="3"/>
</g>
<g>
	<rect x="11.7" y="10.1" class="st5" width="23.6" height="3"/>
	<rect x="38.5" y="10.1" class="st5" width="3" height="3"/>
</g>
</svg>
