<!-- Generator: Adobe Illustrator 19.2.1, SVG Export Plug-In  -->
<svg version="1.1"
	 xmlns="http://www.w3.org/2000/svg" xmlns:xlink="http://www.w3.org/1999/xlink" xmlns:a="http://ns.adobe.com/AdobeSVGViewerExtensions/3.0/"
	 x="0px" y="0px" width="266.2px" height="51.3px" viewBox="0 0 266.2 51.3" style="enable-background:new 0 0 266.2 51.3;"
	 xml:space="preserve">
<style type="text/css">
	.st0{fill:#1B8E6F;}
	.st1{fill:#33BC6E;}
	.st2{fill:#FFFFFF;}
</style>
<defs>
</defs>
<g>
	<polygon class="st0" points="259.6,0 253,0 6.6,0 6.6,6.6 0,6.6 0,44.7 6.6,44.7 6.6,51.3 253,51.3 259.6,51.3 259.6,44.7
		266.2,44.7 266.2,6.6 259.6,6.6 	"/>
	<polygon class="st1" points="259.6,0 253,0 6.6,0 6.6,6.6 0,6.6 0,44.7 6.6,44.7 6.6,51.3 253,51.3 259.6,51.3 259.6,44.7
		266.2,44.7 266.2,6.6 259.6,6.6 	"/>
	<g>
		<path class="st2" d="M66.4,17.6h2.3v-2.3h11.4v4.5H71v9.1h9.1v4.5H68.7v-2.3h-2.3V17.6z"/>
		<path class="st2" d="M86.9,33.5h-4.5V17.6h2.3v-2.3h9.1v2.3h2.3v15.9h-4.5v-6.8h-4.5v6.8H86.9z M91.4,22.1v-2.3h-4.5v2.3H91.4z"/>
		<path class="st2" d="M100.5,31.2h-2.3V15.3h4.5v13.6h9.1v4.5h-11.4v-2.2H100.5z"/>
		<path class="st2" d="M114.1,15.3h4.5v18.2h-4.5V15.3z"/>
		<path class="st2" d="M120.9,15.3h11.4v2.3h2.3v13.6h-2.3v2.3h-11.4V15.3z M125.5,22.1h4.5v-2.3h-4.5V22.1z M125.5,28.9h4.5v-2.3
			h-4.5V28.9z"/>
		<path class="st2" d="M143.7,26.6h-2.3v6.8h-4.5V17.5h2.3v-2.3h9.1v2.3h2.3v6.8h-2.3v2.3h2.3v6.8h-4.5v-4.5h-2.3L143.7,26.6
			L143.7,26.6z M141.4,22.1h4.5v-2.3h-4.5V22.1z"/>
		<path class="st2" d="M157.3,33.5h-4.5V17.6h2.3v-2.3h9.1v2.3h2.3v15.9H162v-6.8h-4.5v6.8H157.3z M161.8,22.1v-2.3h-4.5v2.3H161.8z
			"/>
		<path class="st2" d="M168.6,15.3h13.6v4.5h-4.5v13.6h-4.5V19.8h-4.5L168.6,15.3L168.6,15.3z"/>
		<path class="st2" d="M186.8,31.2h-2.3V17.6h2.3v-2.3h11.4v4.5h-9.1v2.3h4.5v4.5h-4.5v2.3h9.1v4.5h-11.4V31.2z"/>
	</g>
</g>
<g>
	<rect x="11.8" y="3.6" class="st2" width="23.6" height="3"/>
	<rect x="38.5" y="3.6" class="st2" width="3" height="3"/>
</g>
</svg>
