<?xml version="1.0" encoding="utf-8"?>
<!-- Generator: Adobe Illustrator 22.0.1, SVG Export Plug-In . SVG Version: 6.00 Build 0)  -->
<svg version="1.1" id="Layer_1" xmlns="http://www.w3.org/2000/svg" xmlns:xlink="http://www.w3.org/1999/xlink" x="0px" y="0px"
	 width="266.2px" height="57.8px" viewBox="0 0 266.2 57.8" style="enable-background:new 0 0 266.2 57.8;" xml:space="preserve">
<style type="text/css">
	.st0{fill:#5895B7;}
	.st1{opacity:0.8;}
	.st2{fill:#C17620;}
	.st3{fill:#F4C24A;}
	.st4{fill:#2A6FBA;}
	.st5{fill:#FFFFFF;}
	.st6{fill:#4ABAEF;}
	.st7{fill:#95C9C8;}
	.st8{fill:#DDEFEE;}
	.st9{fill:#1B8E6F;}
	.st10{fill:#3CEA8A;}
	.st11{opacity:0.4;fill:#666666;}
	.st12{fill:#33BC6E;}
	.st13{fill:none;}
	.st14{font-family:'EditUndoBRK';}
	.st15{font-size:31.5429px;}
	.st16{fill:#7149A4;}
	.st17{fill:#BD86E0;}
	.st18{opacity:0.4;fill:#666666;stroke:#666666;stroke-width:4;stroke-linejoin:bevel;stroke-miterlimit:10;}
	.st19{fill:#F2F2F2;}
	.st20{fill:#E6E6E6;}
	.st21{fill:none;stroke:#000000;stroke-width:4;stroke-linejoin:bevel;stroke-miterlimit:10;}
	.st22{fill:#C6E0DE;}
	.st23{fill:#A7C6C3;}
</style>
<g>
	<rect x="110.3" y="733" class="st0" width="484" height="82"/>
	<rect x="562.3" y="807" class="st0" width="107" height="30"/>
	<g class="st1">
		<g>
			<polygon class="st0" points="126.3,753 126.3,835 30.3,835 30.3,824 42.3,824 42.3,812 54.3,812 54.3,800 66.3,800 66.3,788 
				54.3,788 54.3,776 42.3,776 42.3,764 30.3,764 30.3,753 			"/>
		</g>
		<polygon class="st0" points="112.3,811 126.3,834 126.3,811 		"/>
	</g>
	<g>
		<g>
			<polygon class="st2" points="573.3,745 573.3,827 669.3,827 669.3,816 657.3,816 657.3,804 645.3,804 645.3,792 633.3,792 
				633.3,780 645.3,780 645.3,768 657.3,768 657.3,756 669.3,756 669.3,745 			"/>
			<polygon class="st3" points="573.3,734 573.3,816 669.3,816 669.3,805 657.3,805 657.3,793 645.3,793 645.3,781 633.3,781 
				633.3,769 645.3,769 645.3,757 657.3,757 657.3,745 669.3,745 669.3,734 			"/>
		</g>
		<polygon class="st2" points="587.3,803 573.3,826 573.4,803 		"/>
		<g>
			<g>
				<polygon class="st2" points="117.3,745 117.3,827 21.3,827 21.3,816 33.3,816 33.3,804 45.3,804 45.3,792 57.3,792 57.3,780 
					45.3,780 45.3,768 33.3,768 33.3,756 21.3,756 21.3,745 				"/>
				<polygon class="st3" points="117.3,734 117.3,816 21.3,816 21.3,805 33.3,805 33.3,793 45.3,793 45.3,781 57.3,781 57.3,769 
					45.3,769 45.3,757 33.3,757 33.3,745 21.3,745 21.3,734 				"/>
			</g>
			<polygon class="st2" points="103.3,803 117.3,826 117.3,803 			"/>
		</g>
		<g>
			<rect x="103.3" y="721" class="st2" width="484" height="82"/>
			<rect x="103.3" y="709" class="st3" width="484" height="82"/>
		</g>
	</g>
	<rect x="126.2" y="734.2" class="st13" width="415.2" height="81.8"/>
	<text transform="matrix(1 0 0 1 165.3008 768.791)" class="st5 st14" style="font-size:60px;">HOW TO PLAY</text>
</g>
<polygon class="st4" points="279.3,1002 267.3,1002 194.3,1002 194.3,1014 182.3,1014 182.3,1099 194.3,1099 194.3,1111 267.3,1111 
	279.3,1111 279.3,1099 291.3,1099 291.3,1014 279.3,1014 "/>
<polygon class="st4" points="279.3,1002 267.3,1002 194.3,1002 194.3,1014 182.3,1014 182.3,1099 194.3,1099 194.3,1111 267.3,1111 
	279.3,1111 279.3,1099 291.3,1099 291.3,1014 279.3,1014 "/>
<rect x="194.3" y="1036.2" class="st13" width="89" height="81.8"/>
<text transform="matrix(1 0 0 1 218.9151 1081.7344)" class="st5 st14" style="font-size:79px;">?</text>
<polygon class="st4" points="430.3,1002 418.3,1002 345.3,1002 345.3,1014 333.3,1014 333.3,1099 345.3,1099 345.3,1111 418.3,1111 
	430.3,1111 430.3,1099 442.3,1099 442.3,1014 430.3,1014 "/>
<polygon class="st6" points="430.3,992 418.3,992 345.3,992 345.3,1004 333.3,1004 333.3,1089 345.3,1089 345.3,1101 418.3,1101 
	430.3,1101 430.3,1089 442.3,1089 442.3,1004 430.3,1004 "/>
<rect x="345.3" y="1026.2" class="st13" width="89" height="81.8"/>
<text transform="matrix(1 0 0 1 369.915 1071.7344)" class="st5 st14" style="font-size:79px;">?</text>
<g>
	<polygon class="st0" points="1465.3,846.5 1453.8,846.5 1453.8,834.9 1442.2,834.9 1442.2,822.1 943.5,822.1 943.5,834.9 
		931.9,834.9 931.9,846.5 920.3,846.5 920.3,1531.3 931.9,1531.3 931.9,1542.9 943.5,1542.9 943.5,1555.7 1442.2,1555.7 
		1442.2,1542.9 1453.8,1542.9 1453.8,1531.3 1465.3,1531.3 	"/>
	<polygon class="st7" points="1465.3,834.5 1453.8,834.5 1453.8,822.9 1442.2,822.9 1442.2,810.1 943.5,810.1 943.5,822.9 
		931.9,822.9 931.9,834.5 920.3,834.5 920.3,1519.2 931.9,1519.2 931.9,1530.9 943.5,1530.9 943.5,1543.7 1442.2,1543.7 
		1442.2,1530.9 1453.8,1530.9 1453.8,1519.2 1465.3,1519.2 	"/>
	<polygon class="st8" points="1465.3,822.5 1453.8,822.5 1453.8,810.8 1442.2,810.8 1442.2,798 943.5,798 943.5,810.8 931.9,810.8 
		931.9,822.5 920.3,822.5 920.3,1507.2 931.9,1507.2 931.9,1518.8 943.5,1518.8 943.5,1531.7 1442.2,1531.7 1442.2,1518.8 
		1453.8,1518.8 1453.8,1507.2 1465.3,1507.2 	"/>
</g>
<g>
	<polygon class="st9" points="416.4,482 406.3,482 31.4,482 31.4,492.1 21.3,492.1 21.3,550 31.4,550 31.4,560 406.3,560 416.4,560 
		416.4,550 426.4,550 426.4,492.1 416.4,492.1 	"/>
	<polygon class="st10" points="416.4,472 406.3,472 31.4,472 31.4,482.1 21.3,482.1 21.3,540 31.4,540 31.4,550 406.3,550 
		416.4,550 416.4,540 426.4,540 426.4,482.1 416.4,482.1 	"/>
	<rect x="22.3" y="495.3" class="st13" width="404" height="81.8"/>
	<text transform="matrix(1 0 0 1 134.4678 522.9135)" class="st5 st14" style="font-size:48px;">PLAYER 1</text>
</g>
<g>
	<polygon class="st11" points="55.5,361.4 53.6,355.7 49.5,343.6 31.7,349.7 33.6,355.4 27.9,357.4 31.9,369.4 37.7,367.5 
		39.7,373.2 51.7,369.2 49.7,363.4 	"/>
	<polygon class="st11" points="94.3,349.4 92.3,343.6 88.3,331.6 70.5,337.6 72.4,343.4 66.7,345.3 70.7,357.4 76.5,355.4 
		78.5,361.2 90.5,357.1 88.5,351.3 	"/>
	<rect x="34.7" y="302.4" transform="matrix(0.9472 -0.3207 0.3207 0.9472 -101.1569 29.2789)" width="7.1" height="38.6"/>
	<polygon points="53.9,356.6 51.9,350.9 47.9,338.8 30.1,344.9 32,350.6 26.2,352.6 30.3,364.6 36.1,362.7 38,368.4 50.1,364.4 
		48.1,358.6 	"/>
	<rect x="73.2" y="289.4" transform="matrix(0.9472 -0.3207 0.3207 0.9472 -94.9469 40.9286)" width="7.1" height="38.6"/>
	<polygon points="92.3,343.6 90.4,337.8 86.3,325.8 68.5,331.8 70.5,337.6 64.7,339.6 68.8,351.6 74.6,349.6 76.5,355.4 88.5,351.3 
		86.6,345.6 	"/>
	<rect x="24.7" y="280.1" transform="matrix(0.9472 -0.3207 0.3207 0.9472 -90.0428 30.8344)" width="47.7" height="17.3"/>
</g>
<g>
	<polygon class="st11" points="121.7,395 122.6,390.9 124.5,382.2 111.7,379.4 110.8,383.6 106.7,382.6 104.8,391.3 108.9,392.2 
		108,396.4 116.7,398.3 117.6,394.1 	"/>
	<polygon class="st11" points="149.2,401.8 150.1,397.6 152,389 139.2,386.2 138.3,390.3 134.2,389.4 132.3,398.1 136.4,399 
		135.5,403.1 144.2,405 145.1,400.9 	"/>
	<rect x="123.3" y="351.6" transform="matrix(0.9766 0.2149 -0.2149 0.9766 81.3931 -18.4957)" width="5" height="26.9"/>
	<polygon points="122.5,391.6 123.4,387.4 125.3,378.8 112.5,376 111.6,380.1 107.4,379.2 105.5,387.8 109.7,388.7 108.8,392.9 
		117.4,394.8 118.3,390.6 	"/>
	<rect x="150.9" y="357.7" transform="matrix(0.9766 0.2149 -0.2149 0.9766 83.3472 -24.2976)" width="5" height="26.9"/>
	<polygon points="150.1,397.6 151.1,393.5 153,384.9 140.2,382 139.2,386.2 135.1,385.3 133.2,393.9 137.3,394.8 136.4,399 
		145.1,400.9 146,396.7 	"/>
	<rect x="127.1" y="343.1" transform="matrix(0.9766 0.2149 -0.2149 0.9766 78.3813 -22.7401)" width="33.3" height="12"/>
</g>
<g>
	<polygon class="st11" points="197.7,333.2 197.1,330.2 195.6,323.8 186.3,325.9 186.9,329 183.9,329.6 185.3,336 188.3,335.3 
		189,338.4 195.4,336.9 194.7,333.9 	"/>
	<polygon class="st11" points="218.2,329.2 217.5,326.2 216.1,319.8 206.7,321.9 207.4,325 204.3,325.6 205.7,332 208.8,331.3 
		209.4,334.3 215.8,332.9 215.1,329.9 	"/>
	<rect x="189.3" y="302.2" transform="matrix(0.9761 -0.2173 0.2173 0.9761 -63.2356 48.9912)" width="3.6" height="19.8"/>
	<polygon points="197.2,330.7 196.5,327.6 195.1,321.3 185.7,323.4 186.4,326.4 183.3,327.1 184.7,333.5 187.8,332.8 188.5,335.8 
		194.8,334.4 194.1,331.4 	"/>
	<rect x="209.6" y="297.6" transform="matrix(0.9761 -0.2173 0.2173 0.9761 -61.7681 53.296)" width="3.6" height="19.8"/>
	<polygon points="217.5,326.2 216.8,323.1 215.4,316.8 206,318.9 206.7,321.9 203.6,322.6 205,328.9 208.1,328.3 208.8,331.3 
		215.1,329.9 214.4,326.8 	"/>
	<rect x="186" y="291.4" transform="matrix(0.9761 -0.2173 0.2173 0.9761 -59.5423 50.1347)" width="24.4" height="8.8"/>
</g>
<g>
	<polygon class="st11" points="218.3,379 221,374.9 226.4,366.3 213.7,358.2 211.1,362.4 207,359.7 201.5,368.3 205.7,370.9 
		203,375 211.6,380.5 214.2,376.4 	"/>
	<polygon class="st11" points="245.3,397.1 247.9,393 253.4,384.4 240.7,376.4 238.1,380.5 234,377.9 228.5,386.4 232.7,389 
		230,393.2 238.6,398.6 241.2,394.5 	"/>
	<rect x="231.6" y="332.9" transform="matrix(0.844 0.5363 -0.5363 0.844 223.3788 -71.4128)" width="5.7" height="30.9"/>
	<polygon points="220.5,375.6 223.1,371.4 228.6,362.9 215.9,354.8 213.3,358.9 209.2,356.3 203.7,364.9 207.8,367.5 205.2,371.6 
		213.8,377.1 216.4,372.9 	"/>
	<rect x="259" y="350.3" transform="matrix(0.844 0.5363 -0.5363 0.844 237.0033 -83.4037)" width="5.7" height="30.9"/>
	<polygon points="247.9,393 250.6,388.9 256,380.3 243.3,372.2 240.7,376.4 236.6,373.7 231.2,382.3 235.3,384.9 232.7,389 
		241.2,394.5 243.8,390.4 	"/>
	<rect x="241.1" y="331.3" transform="matrix(0.844 0.5363 -0.5363 0.844 221.9474 -86.775)" width="38.2" height="13.8"/>
</g>
<g>
	<polygon class="st9" points="-60.4,-61.4 -67,-61.4 -313.4,-61.4 -313.4,-54.8 -320,-54.8 -320,-16.8 -313.4,-16.8 -313.4,-10.2 
		-67,-10.2 -60.4,-10.2 -60.4,-16.8 -53.8,-16.8 -53.8,-54.8 -60.4,-54.8 	"/>
	<polygon class="st12" points="-60.4,-61.4 -67,-61.4 -313.4,-61.4 -313.4,-54.8 -320,-54.8 -320,-16.8 -313.4,-16.8 -313.4,-10.2 
		-67,-10.2 -60.4,-10.2 -60.4,-16.8 -53.8,-16.8 -53.8,-54.8 -60.4,-54.8 	"/>
	<rect x="-319.3" y="-46.2" class="st13" width="265.5" height="32.8"/>
	<text transform="matrix(1 0 0 1 -253.5967 -27.994)" class="st5 st14 st15">Calibrate</text>
</g>
<g>
	<polygon class="st9" points="259.6,6.6 253,6.6 6.6,6.6 6.6,13.2 0,13.2 0,51.2 6.6,51.2 6.6,57.8 253,57.8 259.6,57.8 259.6,51.2 
		266.2,51.2 266.2,13.2 259.6,13.2 	"/>
	<polygon class="st10" points="259.6,0 253,0 6.6,0 6.6,6.6 0,6.6 0,44.6 6.6,44.6 6.6,51.3 253,51.3 259.6,51.3 259.6,44.6 
		266.2,44.6 266.2,6.6 259.6,6.6 	"/>
	<rect x="0.7" y="15.3" class="st13" width="265.5" height="32.8"/>
	<text transform="matrix(1 0 0 1 66.4033 33.4346)" class="st5 st14 st15">Calibrate</text>
</g>
<g>
	<rect x="1.6" y="88.9" class="st9" width="219.8" height="28.8"/>
	<rect x="-3.2" y="82.4" class="st9" width="229.4" height="30.6"/>
	<polygon class="st10" points="-3.2,78 -3.2,107.3 1.6,107.3 1.6,113 221.3,113 221.3,107.3 226.1,107.3 226.1,78 	"/>
</g>
<polygon class="st9" points="216.6,92.9 216.6,87.8 211.5,87.8 211.5,87.7 154.8,87.7 124.3,87.7 98.7,87.7 74.8,87.7 11.4,87.7 
	11.4,87.7 6.3,87.7 6.3,92.8 1.3,92.8 1.3,100.5 6.3,100.5 6.3,105.6 11.4,105.6 11.4,105.7 74.8,105.7 98.7,105.7 124.3,105.7 
	154.8,105.7 211.5,105.7 211.5,105.6 216.6,105.6 216.6,100.5 221.7,100.5 221.7,92.9 "/>
<g>
	<rect x="-7.4" y="186.9" class="st13" width="4.7" height="0.1"/>
	<rect x="-7.4" y="204.8" class="st13" width="4.7" height="0.1"/>
	<polygon class="st5" points="13.7,204.9 13.7,199.8 18.8,199.8 18.8,192.1 13.7,192.1 13.7,187 8.6,187 8.6,186.9 -2.6,186.9 
		-2.6,187 -7.4,187 -7.4,204.8 -2.6,204.8 -2.6,204.9 8.6,204.9 8.6,204.9 	"/>
</g>
<g>
	<polygon class="st5" points="-33.2,151.4 -33.2,146.3 -38.3,146.3 -38.3,146.2 -54.2,146.2 -54.2,164.2 -38.3,164.2 -38.3,164.1 
		-33.2,164.1 -33.2,159 -28.1,159 -28.1,151.4 	"/>
	<polygon class="st5" points="-46.7,190.2 -46.7,185.1 -46.7,185.1 -46.7,185 -51.2,185 -51.8,185 -56.3,185 -56.3,185.1 
		-56.3,185.1 -56.3,190.2 -61.4,190.2 -61.4,197.8 -56.3,197.8 -56.3,202.9 -56.3,202.9 -56.3,203 -51.8,203 -51.2,203 -46.7,203 
		-46.7,203 -46.7,203 -46.7,197.9 -41.6,197.9 -41.6,190.2 	"/>
</g>
<polygon class="st5" points="-96.5,92.9 -96.5,87.8 -96.5,87.8 -96.5,87.7 -101,87.7 -101.6,87.7 -106.1,87.7 -106.1,87.7 
	-106.1,87.7 -106.1,92.8 -111.2,92.8 -111.2,100.5 -106.1,100.5 -106.1,105.6 -106.1,105.6 -106.1,105.7 -101.6,105.7 -101,105.7 
	-96.5,105.7 -96.5,105.6 -96.5,105.6 -96.5,100.5 -91.4,100.5 -91.4,92.9 "/>
<polygon class="st16" points="869.4,482 859.3,482 484.4,482 484.4,492.1 474.3,492.1 474.3,550 484.4,550 484.4,560 859.3,560 
	869.4,560 869.4,550 879.4,550 879.4,492.1 869.4,492.1 "/>
<polygon class="st17" points="869.4,472 859.3,472 484.4,472 484.4,482.1 474.3,482.1 474.3,540 484.4,540 484.4,550 859.3,550 
	869.4,550 869.4,540 879.4,540 879.4,482.1 869.4,482.1 "/>
<rect x="474.3" y="495.3" class="st13" width="405" height="81.8"/>
<text transform="matrix(1 0 0 1 580.0557 522.9135)" class="st5 st14" style="font-size:48px;">PLAYER 2</text>
<g>
	<rect x="495.3" y="476" class="st5" width="45.1" height="5.7"/>
	<rect x="546.6" y="476" class="st5" width="5.7" height="5.7"/>
</g>
<g>
	<rect x="40.8" y="477" class="st5" width="45.1" height="5.7"/>
	<rect x="92.1" y="477" class="st5" width="5.7" height="5.7"/>
</g>
<polygon class="st18" points="429.9,317 436.3,322.6 430.7,329 451.2,346.4 451.2,384.3 471.9,358.2 503.7,387.6 509.5,381.3 
	514.5,385.9 586.1,267.2 "/>
<polygon class="st19" points="427.5,309.9 433.9,315.5 428.3,321.9 448.7,339.3 448.7,377.2 469.4,351.1 501.2,380.5 507.1,374.2 
	512,378.8 583.6,260.1 "/>
<polygon class="st20" points="469.5,350.9 583.9,260.1 448.8,339.1 448.8,377 "/>
<polygon class="st21" points="426.4,310.1 432.8,315.7 427.2,322.1 447.7,339.4 447.7,377.3 468.4,351.2 500.2,380.6 506,374.3 
	511,378.9 582.6,260.3 "/>
<g>
	<polygon class="st22" points="362.3,3.3 362.3,167 372.6,167 372.6,176.5 383,176.5 383,186.9 830.5,186.9 830.5,176.5 
		840.9,176.5 840.9,167 851.3,167 851.3,3.3 	"/>
	<polygon class="st22" points="851.3,3.3 851.3,-90.8 840.9,-90.8 840.9,-100.3 830.5,-100.3 830.5,-110.8 383,-110.8 383,-100.3 
		372.6,-100.3 372.6,-90.8 362.3,-90.8 362.3,3.3 	"/>
</g>
<g>
	<polygon class="st23" points="372.6,-94.2 383,-94.2 383,-102.2 372.6,-102.2 372.6,-94.3 362.3,-94.3 362.3,-86.3 372.6,-86.3 	
		"/>
	<rect x="383" y="-110.9" class="st23" width="447.5" height="8"/>
	<polygon class="st23" points="840.9,-94.3 840.9,-102.2 830.5,-102.2 830.5,-94.2 840.9,-94.2 840.9,-86.3 851.3,-86.3 
		851.3,-94.3 	"/>
</g>
<g>
	<g>
		<g>
			<rect x="-30.9" y="-175.2" width="10.2" height="10.2"/>
		</g>
	</g>
	<g>
		<g>
			<path d="M30.6-185.4v5.1h-5.1v5.1h5.1v20.5h5.1v5.1h-5.1v5.1h5.1h5.1v-10.2h15.4v5.1h5.1v-5.1v-30.7H30.6z M56.2-159.8H35.7
				v-20.5h20.5V-159.8z"/>
		</g>
	</g>
	<g>
		<g>
			<rect x="40.8" y="-175.2" width="10.2" height="10.2"/>
		</g>
	</g>
	<g>
		<g>
			<rect x="-30.9" y="-103.5" width="10.2" height="10.2"/>
		</g>
	</g>
	<g>
		<g>
			<rect x="30.6" y="-113.7" width="5.1" height="5.1"/>
		</g>
	</g>
	<g>
		<g>
			<rect x="5" y="-88.1" width="5.1" height="5.1"/>
		</g>
	</g>
	<g>
		<g>
			<rect x="10.1" y="-108.6" width="5.1" height="5.1"/>
		</g>
	</g>
	<g>
		<g>
			<rect x="10.1" y="-98.3" width="5.1" height="5.1"/>
		</g>
	</g>
	<g>
		<g>
			<rect x="56.2" y="-124" width="5.1" height="5.1"/>
		</g>
	</g>
	<g>
		<g>
			<rect x="-41.1" y="-124" width="5.1" height="5.1"/>
		</g>
	</g>
	<g>
		<g>
			<rect x="-41.1" y="-149.6" width="5.1" height="5.1"/>
		</g>
	</g>
	<g>
		<g>
			<polygon points="15.2,-180.3 15.2,-175.2 5,-175.2 5,-170 20.3,-170 20.3,-175.2 20.3,-180.3 			"/>
		</g>
	</g>
	<g>
		<g>
			<path d="M56.2-144.4v5.1H45.9v5.1H30.6v-5.1h-5.1v5.1H15.2v5.1h15.4v5.1H20.3h-5.1v-5.1h-5.1v5.1H5v-5.1h-5.1v5.1h-5.1v5.1H5v5.1
				h5.1v-5.1h10.2v5.1h-5.1v5.1h5.1v10.2h5.1v5.1h5.1v-5.1h15.4v-10.2H51v-5.1h-5.1V-124H35.7v-5.1h10.2v5.1H51v-5.1h5.1v-5.1h5.1
				v-5.1v-5.1H56.2L56.2-144.4z M40.8-118.8v15.4H25.4v-15.4H40.8z"/>
		</g>
	</g>
	<g>
		<g>
			<polygon points="25.4,-154.7 20.3,-154.7 20.3,-149.6 15.2,-149.6 15.2,-144.4 15.2,-139.3 20.3,-139.3 20.3,-144.4 25.4,-144.4 
				25.4,-149.6 30.6,-149.6 30.6,-154.7 			"/>
		</g>
	</g>
	<g>
		<g>
			<rect x="15.2" y="-88.1" width="10.2" height="5.1"/>
		</g>
	</g>
	<g>
		<g>
			<rect x="-0.2" y="-180.3" width="5.1" height="5.1"/>
		</g>
	</g>
	<g>
		<g>
			<rect x="40.8" y="-144.4" width="5.1" height="5.1"/>
		</g>
	</g>
	<g>
		<g>
			<rect x="45.9" y="-149.6" width="5.1" height="5.1"/>
		</g>
	</g>
	<g>
		<g>
			<rect x="-20.6" y="-124" width="5.1" height="5.1"/>
		</g>
	</g>
	<g>
		<g>
			<path d="M-10.4-88.1v-20.5h5.1v-5.1v-5.1h-5.1v5.1h-15.4v-5.1h-5.1H-36v5.1h-5.1V-83h30.7h10.2v-5.1H-10.4z M-15.5-88.1H-36
				v-20.5h20.5V-88.1z"/>
		</g>
	</g>
	<g>
		<g>
			<rect x="-10.4" y="-154.7" width="5.1" height="5.1"/>
		</g>
	</g>
	<g>
		<g>
			<path d="M-5.3-185.4h-5.1h-30.7v30.7h5.1v5.1h5.1v-5.1h5.1v5.1h5.1v-5.1h10.2v-10.2h5.1v-5.1h-5.1v-10.2h5.1h5.1v-5.1H-5.3z
				 M-15.5-159.8H-36v-20.5h20.5V-159.8z"/>
		</g>
	</g>
	<g>
		<g>
			<rect x="20.3" y="-170" width="5.1" height="5.1"/>
		</g>
	</g>
	<g>
		<g>
			<rect x="10.1" y="-185.4" width="5.1" height="5.1"/>
		</g>
	</g>
	<g>
		<g>
			<path d="M20.3-154.7v-5.1h-5.1v-5.1h-5.1v5.1H-0.2v-5.1h-5.1v5.1v5.1h5.1v10.2h-15.4v-5.1h-5.1v5.1H-36v5.1h10.2v5.1h-15.4v5.1
				h15.4v5.1h5.1v-5.1h5.1v5.1h5.1v-5.1h10.2v-5.1h-5.1v-5.1h5.1H5v5.1h5.1h5.1v-5.1h-5.1v-5.1H5v-10.2H20.3L20.3-154.7z
				 M-10.4-134.2h-10.2v-5.1h10.2V-134.2z"/>
		</g>
	</g>
	<g>
		<g>
			<polygon points="5,-103.5 5,-108.6 5,-113.7 -0.2,-113.7 -0.2,-108.6 -5.3,-108.6 -5.3,-103.5 -0.2,-103.5 -0.2,-98.3 
				-5.3,-98.3 -5.3,-93.2 5,-93.2 5,-98.3 10.1,-98.3 10.1,-103.5 			"/>
		</g>
	</g>
	<g>
		<g>
			<polygon points="51,-93.2 51,-98.3 45.9,-98.3 45.9,-93.2 30.6,-93.2 30.6,-88.1 40.8,-88.1 40.8,-83 45.9,-83 45.9,-88.1 
				56.2,-88.1 56.2,-83 61.3,-83 61.3,-88.1 61.3,-93.2 			"/>
		</g>
	</g>
	<g>
		<g>
			<polygon points="56.2,-113.7 56.2,-108.6 51,-108.6 51,-103.5 61.3,-103.5 61.3,-108.6 61.3,-113.7 			"/>
		</g>
	</g>
</g>
<g>
	<g>
		<polygon class="st9" points="-269.2,230.7 -272.9,230.7 -410.1,230.7 -410.1,234.4 -413.8,234.4 -413.8,255.6 -410.1,255.6 
			-410.1,259.3 -272.9,259.3 -269.2,259.3 -269.2,255.6 -265.6,255.6 -265.6,234.4 -269.2,234.4 		"/>
		<polygon class="st12" points="-269.2,230.7 -272.9,230.7 -410.1,230.7 -410.1,234.4 -413.8,234.4 -413.8,255.6 -410.1,255.6 
			-410.1,259.3 -272.9,259.3 -269.2,259.3 -269.2,255.6 -265.6,255.6 -265.6,234.4 -269.2,234.4 		"/>
		<rect x="-413.4" y="239.2" class="st13" width="147.8" height="18.3"/>
		<text transform="matrix(1 0 0 1 -385.6577 249.3503)" class="st5 st14" style="font-size:17.5636px;">Recalibrate</text>
	</g>
	<g>
		<rect x="-407.7" y="232.9" class="st5" width="13.1" height="1.7"/>
		<rect x="-392.8" y="232.9" class="st5" width="1.7" height="1.7"/>
	</g>
</g>
<g>
	<g>
		<polygon class="st9" points="-269.2,272.7 -272.9,272.7 -410.1,272.7 -410.1,276.4 -413.8,276.4 -413.8,297.6 -410.1,297.6 
			-410.1,301.3 -272.9,301.3 -269.2,301.3 -269.2,297.6 -265.6,297.6 -265.6,276.4 -269.2,276.4 		"/>
		<polygon class="st10" points="-269.2,269.1 -272.9,269.1 -410.1,269.1 -410.1,272.8 -413.8,272.8 -413.8,293.9 -410.1,293.9 
			-410.1,297.6 -272.9,297.6 -269.2,297.6 -269.2,293.9 -265.6,293.9 -265.6,272.8 -269.2,272.8 		"/>
		<rect x="-413.4" y="277.6" class="st13" width="147.8" height="18.3"/>
		<text transform="matrix(1 0 0 1 -385.6577 287.6913)" class="st5 st14" style="font-size:17.5636px;">Recalibrate</text>
	</g>
	<g>
		<rect x="-407.7" y="271.9" class="st5" width="13.1" height="1.7"/>
		<rect x="-392.8" y="271.9" class="st5" width="1.7" height="1.7"/>
	</g>
</g>
<g>
	<rect x="12.1" y="3.6" class="st5" width="23.6" height="3"/>
	<rect x="38.9" y="3.6" class="st5" width="3" height="3"/>
</g>
<g>
	<rect x="-308.3" y="-57.9" class="st5" width="23.6" height="3"/>
	<rect x="-281.5" y="-57.9" class="st5" width="3" height="3"/>
</g>
</svg>
