<?xml version="1.0" encoding="utf-8"?>
<!-- Generator: Adobe Illustrator 22.0.1, SVG Export Plug-In . SVG Version: 6.00 Build 0)  -->
<svg version="1.1" id="Layer_1" xmlns="http://www.w3.org/2000/svg" xmlns:xlink="http://www.w3.org/1999/xlink" x="0px" y="0px"
	 width="266.2px" height="57.8px" viewBox="0 0 266.2 57.8" style="enable-background:new 0 0 266.2 57.8;" xml:space="preserve">
<style type="text/css">
	.st0{fill:#5895B7;}
	.st1{opacity:0.8;}
	.st2{fill:#C17620;}
	.st3{fill:#F4C24A;}
	.st4{fill:#FFFFFF;}
	.st5{fill:#2A6FBA;}
	.st6{fill:#4ABAEF;}
	.st7{fill:#95C9C8;}
	.st8{fill:#DDEFEE;}
	.st9{fill:#1B8E6F;}
	.st10{fill:#3CEA8A;}
	.st11{opacity:0.4;fill:#666666;}
	.st12{fill:#33BC6E;}
	.st13{fill:none;}
	.st14{fill:#7149A4;}
	.st15{fill:#BD86E0;}
	.st16{opacity:0.4;fill:#666666;stroke:#666666;stroke-width:4;stroke-linejoin:bevel;stroke-miterlimit:10;}
	.st17{fill:#F2F2F2;}
	.st18{fill:#E6E6E6;}
	.st19{fill:none;stroke:#000000;stroke-width:4;stroke-linejoin:bevel;stroke-miterlimit:10;}
	.st20{fill:#C6E0DE;}
	.st21{fill:#A7C6C3;}
	.st22{fill:#EE3D53;}
	.st23{fill:none;stroke:#000000;stroke-width:2;stroke-miterlimit:10;}
	.st24{fill:#A17559;}
	.st25{fill:#910E46;}
	.st26{fill:#238D6F;}
	.st27{fill:#704CA2;}
	.st28{fill:#47E88D;}
	.st29{fill:#BC88DE;}
</style>
<g>
	<rect x="430.3" y="801" class="st0" width="484" height="82"/>
	<rect x="882.3" y="875" class="st0" width="107" height="30"/>
	<g class="st1">
		<g>
			<polygon class="st0" points="446.3,821 446.3,903 350.3,903 350.3,892 362.3,892 362.3,880 374.3,880 374.3,868 386.3,868 
				386.3,856 374.3,856 374.3,844 362.3,844 362.3,832 350.3,832 350.3,821 			"/>
		</g>
		<polygon class="st0" points="432.3,879 446.3,902 446.3,879 		"/>
	</g>
	<g>
		<g>
			<polygon class="st2" points="893.3,813 893.3,895 989.3,895 989.3,884 977.3,884 977.3,872 965.3,872 965.3,860 953.3,860 
				953.3,848 965.3,848 965.3,836 977.3,836 977.3,824 989.3,824 989.3,813 			"/>
			<polygon class="st3" points="893.3,802 893.3,884 989.3,884 989.3,873 977.3,873 977.3,861 965.3,861 965.3,849 953.3,849 
				953.3,837 965.3,837 965.3,825 977.3,825 977.3,813 989.3,813 989.3,802 			"/>
		</g>
		<polygon class="st2" points="907.3,871 893.3,894 893.4,871 		"/>
		<g>
			<g>
				<polygon class="st2" points="437.3,813 437.3,895 341.3,895 341.3,884 353.3,884 353.3,872 365.3,872 365.3,860 377.3,860 
					377.3,848 365.3,848 365.3,836 353.3,836 353.3,824 341.3,824 341.3,813 				"/>
				<polygon class="st3" points="437.3,802 437.3,884 341.3,884 341.3,873 353.3,873 353.3,861 365.3,861 365.3,849 377.3,849 
					377.3,837 365.3,837 365.3,825 353.3,825 353.3,813 341.3,813 341.3,802 				"/>
			</g>
			<polygon class="st2" points="423.3,871 437.3,894 437.3,871 			"/>
		</g>
		<g>
			<rect x="423.3" y="789" class="st2" width="484" height="82"/>
			<rect x="423.3" y="777" class="st3" width="484" height="82"/>
		</g>
	</g>
	<g>
		<path class="st4" d="M493.9,836.8h-8.6v-34.6h8.6v13h8.6v-13h8.6v34.6h-8.6v-13h-8.6V836.8z"/>
		<path class="st4" d="M515.5,806.6h4.3v-4.3h17.3v4.3h4.3v25.9h-4.3v4.3h-17.3v-4.3h-4.3V806.6z M524.2,828.2h8.6v-17.3h-8.6V828.2
			z"/>
		<path class="st4" d="M554.4,836.8h-8.6v-34.6h8.6v17.3h4.3v-4.3h4.3v4.3h4.3v-17.3h8.6v34.6h-8.6v-4.3h-4.3v-4.3h-4.3v4.3h-4.3
			V836.8z"/>
		<path class="st4" d="M610.6,802.2h25.9v8.6h-8.6v25.9h-8.6v-25.9h-8.6V802.2z"/>
		<path class="st4" d="M640.8,806.6h4.3v-4.3h17.3v4.3h4.3v25.9h-4.3v4.3h-17.3v-4.3h-4.3V806.6z M649.5,828.2h8.6v-17.3h-8.6V828.2
			z"/>
		<path class="st4" d="M709.9,836.8h-8.6v-34.6h21.6v4.3h4.3v13h-4.3v4.3h-13V836.8z M709.9,815.2h8.6v-4.3h-8.6V815.2z"/>
		<path class="st4" d="M735.9,832.5h-4.3v-30.2h8.6v25.9h17.3v8.6h-21.6V832.5z"/>
		<path class="st4" d="M770.4,836.8h-8.6v-30.2h4.3v-4.3h17.3v4.3h4.3v30.2h-8.6v-13h-8.6V836.8z M779.1,815.2v-4.3h-8.6v4.3H779.1z
			"/>
		<path class="st4" d="M792,802.2h8.6v13h8.6v-13h8.6v17.3h-4.3v4.3h-4.3v13h-8.6v-13h-4.3v-4.3H792V802.2z"/>
	</g>
</g>
<polygon class="st5" points="599.3,1070 587.3,1070 514.3,1070 514.3,1082 502.3,1082 502.3,1167 514.3,1167 514.3,1179 587.3,1179 
	599.3,1179 599.3,1167 611.3,1167 611.3,1082 599.3,1082 "/>
<polygon class="st5" points="599.3,1070 587.3,1070 514.3,1070 514.3,1082 502.3,1082 502.3,1167 514.3,1167 514.3,1179 587.3,1179 
	599.3,1179 599.3,1167 611.3,1167 611.3,1082 599.3,1082 "/>
<g>
	<path class="st4" d="M538.9,1104.2h28.4v5.7h5.7v17.1h-5.7v5.7h-17.1v-11.4h11.4v-5.7h-22.8V1104.2z M550.3,1138.4h11.4v11.4h-11.4
		V1138.4z"/>
</g>
<polygon class="st5" points="750.3,1070 738.3,1070 665.3,1070 665.3,1082 653.3,1082 653.3,1167 665.3,1167 665.3,1179 738.3,1179 
	750.3,1179 750.3,1167 762.3,1167 762.3,1082 750.3,1082 "/>
<polygon class="st6" points="750.3,1060 738.3,1060 665.3,1060 665.3,1072 653.3,1072 653.3,1157 665.3,1157 665.3,1169 738.3,1169 
	750.3,1169 750.3,1157 762.3,1157 762.3,1072 750.3,1072 "/>
<g>
	<path class="st4" d="M689.9,1094.2h28.4v5.7h5.7v17.1h-5.7v5.7h-17.1v-11.4h11.4v-5.7h-22.8V1094.2z M701.3,1128.4h11.4v11.4h-11.4
		V1128.4z"/>
</g>
<g>
	<polygon class="st0" points="1785.3,914.5 1773.8,914.5 1773.8,902.9 1762.2,902.9 1762.2,890.1 1263.5,890.1 1263.5,902.9 
		1251.9,902.9 1251.9,914.5 1240.3,914.5 1240.3,1599.3 1251.9,1599.3 1251.9,1610.9 1263.5,1610.9 1263.5,1623.7 1762.2,1623.7 
		1762.2,1610.9 1773.8,1610.9 1773.8,1599.3 1785.3,1599.3 	"/>
	<polygon class="st7" points="1785.3,902.5 1773.8,902.5 1773.8,890.9 1762.2,890.9 1762.2,878.1 1263.5,878.1 1263.5,890.9 
		1251.9,890.9 1251.9,902.5 1240.3,902.5 1240.3,1587.2 1251.9,1587.2 1251.9,1598.9 1263.5,1598.9 1263.5,1611.7 1762.2,1611.7 
		1762.2,1598.9 1773.8,1598.9 1773.8,1587.2 1785.3,1587.2 	"/>
	<polygon class="st8" points="1785.3,890.5 1773.8,890.5 1773.8,878.8 1762.2,878.8 1762.2,866 1263.5,866 1263.5,878.8 
		1251.9,878.8 1251.9,890.5 1240.3,890.5 1240.3,1575.2 1251.9,1575.2 1251.9,1586.8 1263.5,1586.8 1263.5,1599.7 1762.2,1599.7 
		1762.2,1586.8 1773.8,1586.8 1773.8,1575.2 1785.3,1575.2 	"/>
</g>
<g>
	<polygon class="st9" points="736.4,550 726.3,550 351.4,550 351.4,560.1 341.3,560.1 341.3,618 351.4,618 351.4,628 726.3,628 
		736.4,628 736.4,618 746.4,618 746.4,560.1 736.4,560.1 	"/>
	<polygon class="st10" points="736.4,540 726.3,540 351.4,540 351.4,550.1 341.3,550.1 341.3,608 351.4,608 351.4,618 726.3,618 
		736.4,618 736.4,608 746.4,608 746.4,550.1 736.4,550.1 	"/>
	<g>
		<path class="st4" d="M461.4,590.9h-6.9v-27.6h17.3v3.5h3.5v10.4h-3.5v3.5h-10.4V590.9z M461.4,573.6h6.9v-3.5h-6.9V573.6z"/>
		<path class="st4" d="M482.1,587.5h-3.5v-24.2h6.9V584h13.8v6.9h-17.3V587.5z"/>
		<path class="st4" d="M509.8,590.9h-6.9v-24.2h3.5v-3.5h13.8v3.5h3.5v24.2h-6.9v-10.4h-6.9V590.9z M516.7,573.6v-3.5h-6.9v3.5
			H516.7z"/>
		<path class="st4" d="M527,563.3h6.9v10.4h6.9v-10.4h6.9v13.8h-3.5v3.5h-3.5v10.4H534v-10.4h-3.5v-3.5H527V563.3z"/>
		<path class="st4" d="M554.7,587.5h-3.5v-20.7h3.5v-3.5H572v6.9h-13.8v3.5h6.9v6.9h-6.9v3.5H572v6.9h-17.3V587.5z"/>
		<path class="st4" d="M585.8,580.5h-3.5v10.4h-6.9v-27.6h17.3v3.5h3.5v10.4h-3.5v3.5h3.5v10.4h-6.9V584h-3.5V580.5z M582.3,573.6
			h6.9v-3.5h-6.9V573.6z"/>
		<path class="st4" d="M623.8,563.3h6.9v27.6h-6.9V563.3z"/>
	</g>
</g>
<g>
	<polygon class="st11" points="375.5,429.4 373.6,423.7 369.5,411.6 351.7,417.7 353.6,423.4 347.9,425.4 351.9,437.4 357.7,435.5 
		359.7,441.2 371.7,437.2 369.7,431.4 	"/>
	<polygon class="st11" points="414.3,417.4 412.3,411.6 408.3,399.6 390.5,405.6 392.4,411.4 386.7,413.3 390.7,425.4 396.5,423.4 
		398.5,429.2 410.5,425.1 408.5,419.3 	"/>
	<rect x="354.7" y="370.4" transform="matrix(0.9472 -0.3207 0.3207 0.9472 -106.0613 135.5037)" width="7.1" height="38.6"/>
	<polygon points="373.9,424.6 371.9,418.9 367.9,406.8 350.1,412.9 352,418.6 346.2,420.6 350.3,432.6 356.1,430.7 358,436.4 
		370.1,432.4 368.1,426.6 	"/>
	<rect x="393.2" y="357.4" transform="matrix(0.9472 -0.3207 0.3207 0.9472 -99.8513 147.1535)" width="7.1" height="38.6"/>
	<polygon points="412.3,411.6 410.4,405.8 406.3,393.8 388.5,399.8 390.5,405.6 384.7,407.6 388.8,419.6 394.6,417.6 396.5,423.4 
		408.5,419.3 406.6,413.6 	"/>
	<rect x="344.7" y="348.1" transform="matrix(0.9472 -0.3207 0.3207 0.9472 -94.9471 137.0592)" width="47.7" height="17.3"/>
</g>
<g>
	<polygon class="st11" points="441.7,463 442.6,458.9 444.5,450.2 431.7,447.4 430.8,451.6 426.7,450.6 424.8,459.3 428.9,460.2 
		428,464.4 436.7,466.3 437.6,462.1 	"/>
	<polygon class="st11" points="469.2,469.8 470.1,465.6 472,457 459.2,454.2 458.3,458.3 454.2,457.4 452.3,466.1 456.4,467 
		455.5,471.1 464.2,473 465.1,468.9 	"/>
	<rect x="443.3" y="419.6" transform="matrix(0.9766 0.2149 -0.2149 0.9766 103.4811 -85.6713)" width="5" height="26.9"/>
	<polygon points="442.5,459.6 443.4,455.4 445.3,446.8 432.5,444 431.6,448.1 427.4,447.2 425.5,455.8 429.7,456.7 428.8,460.9 
		437.4,462.8 438.3,458.6 	"/>
	<rect x="470.9" y="425.7" transform="matrix(0.9766 0.2149 -0.2149 0.9766 105.4352 -91.4733)" width="5" height="26.9"/>
	<polygon points="470.1,465.6 471.1,461.5 473,452.9 460.2,450 459.2,454.2 455.1,453.3 453.2,461.9 457.3,462.8 456.4,467 
		465.1,468.9 466,464.7 	"/>
	<rect x="447.1" y="411.1" transform="matrix(0.9766 0.2149 -0.2149 0.9766 100.4693 -89.9158)" width="33.3" height="12"/>
</g>
<g>
	<polygon class="st11" points="517.7,401.2 517.1,398.2 515.6,391.8 506.3,393.9 506.9,397 503.9,397.6 505.3,404 508.3,403.3 
		509,406.4 515.4,404.9 514.7,401.9 	"/>
	<polygon class="st11" points="538.2,397.2 537.5,394.2 536.1,387.8 526.7,389.9 527.4,393 524.3,393.6 525.7,400 528.8,399.3 
		529.4,402.3 535.8,400.9 535.1,397.9 	"/>
	<rect x="509.3" y="370.2" transform="matrix(0.9761 -0.2173 0.2173 0.9761 -70.3656 120.1478)" width="3.6" height="19.8"/>
	<polygon points="517.2,398.7 516.5,395.6 515.1,389.3 505.7,391.4 506.4,394.4 503.3,395.1 504.7,401.5 507.8,400.8 508.5,403.8 
		514.8,402.4 514.1,399.4 	"/>
	<rect x="529.6" y="365.6" transform="matrix(0.9761 -0.2173 0.2173 0.9761 -68.8981 124.4526)" width="3.6" height="19.8"/>
	<polygon points="537.5,394.2 536.8,391.1 535.4,384.8 526,386.9 526.7,389.9 523.6,390.6 525,396.9 528.1,396.3 528.8,399.3 
		535.1,397.9 534.4,394.8 	"/>
	<rect x="506" y="359.4" transform="matrix(0.9761 -0.2173 0.2173 0.9761 -66.6723 121.2913)" width="24.4" height="8.8"/>
</g>
<g>
	<polygon class="st11" points="538.3,447 541,442.9 546.4,434.3 533.7,426.2 531.1,430.4 527,427.7 521.5,436.3 525.7,438.9 
		523,443 531.6,448.5 534.2,444.4 	"/>
	<polygon class="st11" points="565.3,465.1 567.9,461 573.4,452.4 560.7,444.4 558.1,448.5 554,445.9 548.5,454.4 552.7,457 
		550,461.2 558.6,466.6 561.2,462.5 	"/>
	<rect x="551.6" y="400.9" transform="matrix(0.844 0.5363 -0.5363 0.844 309.7608 -232.425)" width="5.7" height="30.9"/>
	<polygon points="540.5,443.6 543.1,439.4 548.6,430.9 535.9,422.8 533.3,426.9 529.2,424.3 523.7,432.9 527.8,435.5 525.2,439.6 
		533.8,445.1 536.4,440.9 	"/>
	<rect x="579" y="418.3" transform="matrix(0.844 0.5363 -0.5363 0.844 323.3852 -244.4159)" width="5.7" height="30.9"/>
	<polygon points="567.9,461 570.6,456.9 576,448.3 563.3,440.2 560.7,444.4 556.6,441.7 551.2,450.3 555.3,452.9 552.7,457 
		561.2,462.5 563.8,458.4 	"/>
	<rect x="561.1" y="399.3" transform="matrix(0.844 0.5363 -0.5363 0.844 308.3293 -247.7873)" width="38.2" height="13.8"/>
</g>
<g>
	<polygon class="st9" points="259.6,6.6 253,6.6 6.6,6.6 6.6,13.2 0,13.2 0,51.2 6.6,51.2 6.6,57.8 253,57.8 259.6,57.8 259.6,51.2 
		266.2,51.2 266.2,13.2 259.6,13.2 	"/>
	<polygon class="st12" points="259.6,6.6 253,6.6 6.6,6.6 6.6,13.2 0,13.2 0,51.2 6.6,51.2 6.6,57.8 253,57.8 259.6,57.8 
		259.6,51.2 266.2,51.2 266.2,13.2 259.6,13.2 	"/>
	<g>
		<path class="st4" d="M66.4,24.1h2.3v-2.3H80v4.5h-9.1v9.1H80V40H68.7v-2.3h-2.3V24.1z"/>
		<path class="st4" d="M86.8,40h-4.5V24.1h2.3v-2.3h9.1v2.3h2.3V40h-4.5v-6.8h-4.5V40z M91.4,28.7v-2.3h-4.5v2.3H91.4z"/>
		<path class="st4" d="M100.5,37.7h-2.3V21.8h4.5v13.6h9.1V40h-11.4V37.7z"/>
		<path class="st4" d="M114.1,21.8h4.5V40h-4.5V21.8z"/>
		<path class="st4" d="M120.9,21.8h11.4v2.3h2.3v13.6h-2.3V40h-11.4V21.8z M125.5,28.7h4.5v-2.3h-4.5V28.7z M125.5,35.5h4.5v-2.3
			h-4.5V35.5z"/>
		<path class="st4" d="M143.6,33.2h-2.3V40h-4.5V24.1h2.3v-2.3h9.1v2.3h2.3v6.8h-2.3v2.3h2.3V40h-4.5v-4.5h-2.3V33.2z M141.3,28.7
			h4.5v-2.3h-4.5V28.7z"/>
		<path class="st4" d="M157.2,40h-4.5V24.1h2.3v-2.3h9.1v2.3h2.3V40h-4.5v-6.8h-4.5V40z M161.8,28.7v-2.3h-4.5v2.3H161.8z"/>
		<path class="st4" d="M168.6,21.8h13.6v4.5h-4.5V40h-4.5V26.4h-4.5V21.8z"/>
		<path class="st4" d="M186.8,37.7h-2.3V24.1h2.3v-2.3h11.4v4.5H189v2.3h4.5v4.5H189v2.3h9.1V40h-11.4V37.7z"/>
	</g>
</g>
<g>
	<polygon class="st9" points="579.6,74.6 573,74.6 326.6,74.6 326.6,81.2 320,81.2 320,119.2 326.6,119.2 326.6,125.8 573,125.8 
		579.6,125.8 579.6,119.2 586.2,119.2 586.2,81.2 579.6,81.2 	"/>
	<polygon class="st10" points="579.6,68 573,68 326.6,68 326.6,74.6 320,74.6 320,112.6 326.6,112.6 326.6,119.3 573,119.3 
		579.6,119.3 579.6,112.6 586.2,112.6 586.2,74.6 579.6,74.6 	"/>
	<g>
		<path class="st4" d="M386.4,85.5h2.3v-2.3H400v4.5h-9.1v9.1h9.1v4.5h-11.4v-2.3h-2.3V85.5z"/>
		<path class="st4" d="M406.8,101.4h-4.5V85.5h2.3v-2.3h9.1v2.3h2.3v15.9h-4.5v-6.8h-4.5V101.4z M411.4,90.1v-2.3h-4.5v2.3H411.4z"
			/>
		<path class="st4" d="M420.5,99.2h-2.3V83.3h4.5v13.6h9.1v4.5h-11.4V99.2z"/>
		<path class="st4" d="M434.1,83.3h4.5v18.2h-4.5V83.3z"/>
		<path class="st4" d="M440.9,83.3h11.4v2.3h2.3v13.6h-2.3v2.3h-11.4V83.3z M445.5,90.1h4.5v-2.3h-4.5V90.1z M445.5,96.9h4.5v-2.3
			h-4.5V96.9z"/>
		<path class="st4" d="M463.6,94.6h-2.3v6.8h-4.5V85.5h2.3v-2.3h9.1v2.3h2.3v6.8h-2.3v2.3h2.3v6.8h-4.5v-4.5h-2.3V94.6z M461.3,90.1
			h4.5v-2.3h-4.5V90.1z"/>
		<path class="st4" d="M477.2,101.4h-4.5V85.5h2.3v-2.3h9.1v2.3h2.3v15.9h-4.5v-6.8h-4.5V101.4z M481.8,90.1v-2.3h-4.5v2.3H481.8z"
			/>
		<path class="st4" d="M488.6,83.3h13.6v4.5h-4.5v13.6h-4.5V87.8h-4.5V83.3z"/>
		<path class="st4" d="M506.8,99.2h-2.3V85.5h2.3v-2.3h11.4v4.5H509v2.3h4.5v4.5H509v2.3h9.1v4.5h-11.4V99.2z"/>
	</g>
</g>
<g>
	<rect x="321.6" y="156.9" class="st9" width="219.8" height="28.8"/>
	<rect x="316.8" y="150.4" class="st9" width="229.4" height="30.6"/>
	<polygon class="st10" points="316.8,146 316.8,175.3 321.6,175.3 321.6,181 541.3,181 541.3,175.3 546.1,175.3 546.1,146 	"/>
</g>
<polygon class="st9" points="536.6,160.9 536.6,155.8 531.5,155.8 531.5,155.7 474.8,155.7 444.3,155.7 418.7,155.7 394.8,155.7 
	331.4,155.7 331.4,155.7 326.3,155.7 326.3,160.8 321.3,160.8 321.3,168.5 326.3,168.5 326.3,173.6 331.4,173.6 331.4,173.7 
	394.8,173.7 418.7,173.7 444.3,173.7 474.8,173.7 531.5,173.7 531.5,173.6 536.6,173.6 536.6,168.5 541.7,168.5 541.7,160.9 "/>
<g>
	<rect x="312.6" y="254.9" class="st13" width="4.7" height="0.1"/>
	<rect x="312.6" y="272.8" class="st13" width="4.7" height="0.1"/>
	<polygon class="st4" points="333.7,272.9 333.7,267.8 338.8,267.8 338.8,260.1 333.7,260.1 333.7,255 328.6,255 328.6,254.9 
		317.4,254.9 317.4,255 312.6,255 312.6,272.8 317.4,272.8 317.4,272.9 328.6,272.9 328.6,272.9 	"/>
</g>
<g>
	<polygon class="st4" points="286.8,219.4 286.8,214.3 281.7,214.3 281.7,214.2 265.8,214.2 265.8,232.2 281.7,232.2 281.7,232.1 
		286.8,232.1 286.8,227 291.9,227 291.9,219.4 	"/>
	<polygon class="st4" points="273.3,258.2 273.3,253.1 273.3,253.1 273.3,253 268.8,253 268.2,253 263.7,253 263.7,253.1 
		263.7,253.1 263.7,258.2 258.6,258.2 258.6,265.8 263.7,265.8 263.7,270.9 263.7,270.9 263.7,271 268.2,271 268.8,271 273.3,271 
		273.3,271 273.3,271 273.3,265.9 278.4,265.9 278.4,258.2 	"/>
</g>
<polygon class="st4" points="223.5,160.9 223.5,155.8 223.5,155.8 223.5,155.7 219,155.7 218.4,155.7 213.9,155.7 213.9,155.7 
	213.9,155.7 213.9,160.8 208.8,160.8 208.8,168.5 213.9,168.5 213.9,173.6 213.9,173.6 213.9,173.7 218.4,173.7 219,173.7 
	223.5,173.7 223.5,173.6 223.5,173.6 223.5,168.5 228.6,168.5 228.6,160.9 "/>
<polygon class="st14" points="1189.4,550 1179.3,550 804.4,550 804.4,560.1 794.3,560.1 794.3,618 804.4,618 804.4,628 1179.3,628 
	1189.4,628 1189.4,618 1199.4,618 1199.4,560.1 1189.4,560.1 "/>
<polygon class="st15" points="1189.4,540 1179.3,540 804.4,540 804.4,550.1 794.3,550.1 794.3,608 804.4,608 804.4,618 1179.3,618 
	1189.4,618 1189.4,608 1199.4,608 1199.4,550.1 1189.4,550.1 "/>
<g>
	<path class="st4" d="M907,590.9h-6.9v-27.6h17.3v3.5h3.5v10.4h-3.5v3.5H907V590.9z M907,573.6h6.9v-3.5H907V573.6z"/>
	<path class="st4" d="M927.7,587.5h-3.5v-24.2h6.9V584H945v6.9h-17.3V587.5z"/>
	<path class="st4" d="M955.4,590.9h-6.9v-24.2h3.5v-3.5h13.8v3.5h3.5v24.2h-6.9v-10.4h-6.9V590.9z M962.3,573.6v-3.5h-6.9v3.5H962.3
		z"/>
	<path class="st4" d="M972.6,563.3h6.9v10.4h6.9v-10.4h6.9v13.8h-3.5v3.5h-3.5v10.4h-6.9v-10.4h-3.5v-3.5h-3.5V563.3z"/>
	<path class="st4" d="M1000.3,587.5h-3.5v-20.7h3.5v-3.5h17.3v6.9h-13.8v3.5h6.9v6.9h-6.9v3.5h13.8v6.9h-17.3V587.5z"/>
	<path class="st4" d="M1031.4,580.5h-3.5v10.4h-6.9v-27.6h17.3v3.5h3.5v10.4h-3.5v3.5h3.5v10.4h-6.9V584h-3.5V580.5z M1027.9,573.6
		h6.9v-3.5h-6.9V573.6z"/>
	<path class="st4" d="M1069.4,563.3h17.3v3.5h3.5v10.4h-3.5v3.5h-10.4v3.5h13.8v6.9h-20.7v-13.8h3.5v-3.5h10.4v-3.5h-13.8V563.3z"/>
</g>
<g>
	<rect x="815.3" y="544" class="st4" width="45.1" height="5.7"/>
	<rect x="866.6" y="544" class="st4" width="5.7" height="5.7"/>
</g>
<g>
	<rect x="360.8" y="545" class="st4" width="45.1" height="5.7"/>
	<rect x="412.1" y="545" class="st4" width="5.7" height="5.7"/>
</g>
<polygon class="st16" points="749.9,385 756.3,390.6 750.7,397 771.2,414.4 771.2,452.3 791.9,426.2 823.7,455.6 829.5,449.3 
	834.5,453.9 906.1,335.2 "/>
<polygon class="st17" points="747.5,377.9 753.9,383.5 748.3,389.9 768.7,407.3 768.7,445.2 789.4,419.1 821.2,448.5 827.1,442.2 
	832,446.8 903.6,328.1 "/>
<polygon class="st18" points="789.5,418.9 903.9,328.1 768.8,407.1 768.8,445 "/>
<polygon class="st19" points="746.4,378.1 752.8,383.7 747.2,390.1 767.7,407.4 767.7,445.3 788.4,419.2 820.2,448.6 826,442.3 
	831,446.9 902.6,328.3 "/>
<g>
	<polygon class="st20" points="682.3,71.3 682.3,235 692.6,235 692.6,244.5 703,244.5 703,254.9 1150.5,254.9 1150.5,244.5 
		1160.9,244.5 1160.9,235 1171.3,235 1171.3,71.3 	"/>
	<polygon class="st20" points="1171.3,71.3 1171.3,-22.8 1160.9,-22.8 1160.9,-32.3 1150.5,-32.3 1150.5,-42.8 703,-42.8 703,-32.3 
		692.6,-32.3 692.6,-22.8 682.3,-22.8 682.3,71.3 	"/>
</g>
<g>
	<polygon class="st21" points="692.6,-26.2 703,-26.2 703,-34.2 692.6,-34.2 692.6,-26.3 682.3,-26.3 682.3,-18.3 692.6,-18.3 	"/>
	<rect x="703" y="-42.9" class="st21" width="447.5" height="8"/>
	<polygon class="st21" points="1160.9,-26.3 1160.9,-34.2 1150.5,-34.2 1150.5,-26.2 1160.9,-26.2 1160.9,-18.3 1171.3,-18.3 
		1171.3,-26.3 	"/>
</g>
<g>
	<g>
		<g>
			<rect x="289.1" y="-107.2" width="10.2" height="10.2"/>
		</g>
	</g>
	<g>
		<g>
			<path d="M350.6-117.4v5.1h-5.1v5.1h5.1v20.5h5.1v5.1h-5.1v5.1h5.1h5.1v-10.2h15.4v5.1h5.1v-5.1v-30.7H350.6z M376.2-91.8h-20.5
				v-20.5h20.5V-91.8z"/>
		</g>
	</g>
	<g>
		<g>
			<rect x="360.8" y="-107.2" width="10.2" height="10.2"/>
		</g>
	</g>
	<g>
		<g>
			<rect x="289.1" y="-35.5" width="10.2" height="10.2"/>
		</g>
	</g>
	<g>
		<g>
			<rect x="350.6" y="-45.7" width="5.1" height="5.1"/>
		</g>
	</g>
	<g>
		<g>
			<rect x="325" y="-20.1" width="5.1" height="5.1"/>
		</g>
	</g>
	<g>
		<g>
			<rect x="330.1" y="-40.6" width="5.1" height="5.1"/>
		</g>
	</g>
	<g>
		<g>
			<rect x="330.1" y="-30.3" width="5.1" height="5.1"/>
		</g>
	</g>
	<g>
		<g>
			<rect x="376.2" y="-56" width="5.1" height="5.1"/>
		</g>
	</g>
	<g>
		<g>
			<rect x="278.9" y="-56" width="5.1" height="5.1"/>
		</g>
	</g>
	<g>
		<g>
			<rect x="278.9" y="-81.6" width="5.1" height="5.1"/>
		</g>
	</g>
	<g>
		<g>
			<polygon points="335.2,-112.3 335.2,-107.2 325,-107.2 325,-102 340.3,-102 340.3,-107.2 340.3,-112.3 			"/>
		</g>
	</g>
	<g>
		<g>
			<path d="M376.2-76.4v5.1h-10.2v5.1h-15.4v-5.1h-5.1v5.1h-10.2v5.1h15.4v5.1h-10.2h-5.1v-5.1h-5.1v5.1H325v-5.1h-5.1v5.1h-5.1v5.1
				H325v5.1h5.1v-5.1h10.2v5.1h-5.1v5.1h5.1v10.2h5.1v5.1h5.1v-5.1h15.4v-10.2h5.1v-5.1h-5.1V-56h-10.2v-5.1h10.2v5.1h5.1v-5.1h5.1
				v-5.1h5.1v-5.1v-5.1L376.2-76.4L376.2-76.4z M360.8-50.8v15.4h-15.4v-15.4H360.8z"/>
		</g>
	</g>
	<g>
		<g>
			<polygon points="345.4,-86.7 340.3,-86.7 340.3,-81.6 335.2,-81.6 335.2,-76.4 335.2,-71.3 340.3,-71.3 340.3,-76.4 345.4,-76.4 
				345.4,-81.6 350.6,-81.6 350.6,-86.7 			"/>
		</g>
	</g>
	<g>
		<g>
			<rect x="335.2" y="-20.1" width="10.2" height="5.1"/>
		</g>
	</g>
	<g>
		<g>
			<rect x="319.8" y="-112.3" width="5.1" height="5.1"/>
		</g>
	</g>
	<g>
		<g>
			<rect x="360.8" y="-76.4" width="5.1" height="5.1"/>
		</g>
	</g>
	<g>
		<g>
			<rect x="365.9" y="-81.6" width="5.1" height="5.1"/>
		</g>
	</g>
	<g>
		<g>
			<rect x="299.4" y="-56" width="5.1" height="5.1"/>
		</g>
	</g>
	<g>
		<g>
			<path d="M309.6-20.1v-20.5h5.1v-5.1v-5.1h-5.1v5.1h-15.4v-5.1h-5.1H284v5.1h-5.1V-15h30.7h10.2v-5.1H309.6z M304.5-20.1H284
				v-20.5h20.5V-20.1z"/>
		</g>
	</g>
	<g>
		<g>
			<rect x="309.6" y="-86.7" width="5.1" height="5.1"/>
		</g>
	</g>
	<g>
		<g>
			<path d="M314.7-117.4h-5.1h-30.7v30.7h5.1v5.1h5.1v-5.1h5.1v5.1h5.1v-5.1h10.2v-10.2h5.1v-5.1h-5.1v-10.2h5.1h5.1v-5.1H314.7z
				 M304.5-91.8H284v-20.5h20.5V-91.8z"/>
		</g>
	</g>
	<g>
		<g>
			<rect x="340.3" y="-102" width="5.1" height="5.1"/>
		</g>
	</g>
	<g>
		<g>
			<rect x="330.1" y="-117.4" width="5.1" height="5.1"/>
		</g>
	</g>
	<g>
		<g>
			<path d="M340.3-86.7v-5.1h-5.1v-5.1h-5.1v5.1h-10.2v-5.1h-5.1v5.1v5.1h5.1v10.2h-15.4v-5.1h-5.1v5.1H284v5.1h10.2v5.1h-15.4v5.1
				h15.4v5.1h5.1v-5.1h5.1v5.1h5.1v-5.1h10.2v-5.1h-5.1v-5.1h5.1h5.1v5.1h5.1h5.1v-5.1h-5.1v-5.1H325v-10.2L340.3-86.7L340.3-86.7z
				 M309.6-66.2h-10.2v-5.1h10.2V-66.2z"/>
		</g>
	</g>
	<g>
		<g>
			<polygon points="325,-35.5 325,-40.6 325,-45.7 319.8,-45.7 319.8,-40.6 314.7,-40.6 314.7,-35.5 319.8,-35.5 319.8,-30.3 
				314.7,-30.3 314.7,-25.2 325,-25.2 325,-30.3 330.1,-30.3 330.1,-35.5 			"/>
		</g>
	</g>
	<g>
		<g>
			<polygon points="371,-25.2 371,-30.3 365.9,-30.3 365.9,-25.2 350.6,-25.2 350.6,-20.1 360.8,-20.1 360.8,-15 365.9,-15 
				365.9,-20.1 376.2,-20.1 376.2,-15 381.3,-15 381.3,-20.1 381.3,-25.2 			"/>
		</g>
	</g>
	<g>
		<g>
			<polygon points="376.2,-45.7 376.2,-40.6 371,-40.6 371,-35.5 381.3,-35.5 381.3,-40.6 381.3,-45.7 			"/>
		</g>
	</g>
</g>
<g>
	<g>
		<polygon class="st9" points="50.8,298.7 47.1,298.7 -90.1,298.7 -90.1,302.4 -93.8,302.4 -93.8,323.6 -90.1,323.6 -90.1,327.3 
			47.1,327.3 50.8,327.3 50.8,323.6 54.4,323.6 54.4,302.4 50.8,302.4 		"/>
		<polygon class="st12" points="50.8,298.7 47.1,298.7 -90.1,298.7 -90.1,302.4 -93.8,302.4 -93.8,323.6 -90.1,323.6 -90.1,327.3 
			47.1,327.3 50.8,327.3 50.8,323.6 54.4,323.6 54.4,302.4 50.8,302.4 		"/>
		<g>
			<path class="st4" d="M-61.9,313.6h-1.3v3.8h-2.5v-10.1h6.3v1.3h1.3v3.8h-1.3v1.3h1.3v3.8h-2.5v-2.5h-1.3V313.6z M-63.1,311h2.5
				v-1.3h-2.5V311z"/>
			<path class="st4" d="M-55.5,316.1h-1.3v-7.6h1.3v-1.3h6.3v2.5h-5.1v1.3h2.5v2.5h-2.5v1.3h5.1v2.5h-6.3V316.1z"/>
			<path class="st4" d="M-46.7,316.1H-48v-7.6h1.3v-1.3h5.1v1.3h1.3v2.5h-2.5v-1.3h-2.5v5.1h2.5v-1.3h2.5v2.5h-1.3v1.3h-5.1V316.1z"
				/>
			<path class="st4" d="M-36.6,317.4h-2.5v-8.9h1.3v-1.3h5.1v1.3h1.3v8.9H-34v-3.8h-2.5V317.4z M-34,311v-1.3h-2.5v1.3H-34z"/>
			<path class="st4" d="M-29,316.1h-1.3v-8.9h2.5v7.6h5.1v2.5H-29V316.1z"/>
			<path class="st4" d="M-21.4,307.2h2.5v10.1h-2.5V307.2z"/>
			<path class="st4" d="M-17.6,307.2h6.3v1.3h1.3v7.6h-1.3v1.3h-6.3V307.2z M-15.1,311h2.5v-1.3h-2.5V311z M-15.1,314.8h2.5v-1.3
				h-2.5V314.8z"/>
			<path class="st4" d="M-5,313.6h-1.3v3.8h-2.5v-8.9h1.3v-1.3h5.1v1.3h1.3v3.8h-1.3v1.3h1.3v3.8h-2.5v-2.5H-5V313.6z M-6.2,311h2.5
				v-1.3h-2.5V311z"/>
			<path class="st4" d="M2.6,317.4H0.1v-8.9h1.3v-1.3h5.1v1.3h1.3v8.9H5.2v-3.8H2.6V317.4z M5.2,311v-1.3H2.6v1.3H5.2z"/>
			<path class="st4" d="M8.9,307.2h7.6v2.5H14v7.6h-2.5v-7.6H8.9V307.2z"/>
			<path class="st4" d="M19.1,316.1h-1.3v-7.6h1.3v-1.3h6.3v2.5h-5.1v1.3h2.5v2.5h-2.5v1.3h5.1v2.5h-6.3V316.1z"/>
		</g>
	</g>
	<g>
		<rect x="-87.7" y="300.9" class="st4" width="13.1" height="1.7"/>
		<rect x="-72.8" y="300.9" class="st4" width="1.7" height="1.7"/>
	</g>
</g>
<g>
	<g>
		<polygon class="st9" points="50.8,340.7 47.1,340.7 -90.1,340.7 -90.1,344.4 -93.8,344.4 -93.8,365.6 -90.1,365.6 -90.1,369.3 
			47.1,369.3 50.8,369.3 50.8,365.6 54.4,365.6 54.4,344.4 50.8,344.4 		"/>
		<polygon class="st10" points="50.8,337.1 47.1,337.1 -90.1,337.1 -90.1,340.8 -93.8,340.8 -93.8,361.9 -90.1,361.9 -90.1,365.6 
			47.1,365.6 50.8,365.6 50.8,361.9 54.4,361.9 54.4,340.8 50.8,340.8 		"/>
		<g>
			<path class="st4" d="M-61.9,351.9h-1.3v3.8h-2.5v-10.1h6.3v1.3h1.3v3.8h-1.3v1.3h1.3v3.8h-2.5v-2.5h-1.3V351.9z M-63.1,349.4h2.5
				v-1.3h-2.5V349.4z"/>
			<path class="st4" d="M-55.5,354.4h-1.3v-7.6h1.3v-1.3h6.3v2.5h-5.1v1.3h2.5v2.5h-2.5v1.3h5.1v2.5h-6.3V354.4z"/>
			<path class="st4" d="M-46.7,354.4H-48v-7.6h1.3v-1.3h5.1v1.3h1.3v2.5h-2.5v-1.3h-2.5v5.1h2.5v-1.3h2.5v2.5h-1.3v1.3h-5.1V354.4z"
				/>
			<path class="st4" d="M-36.6,355.7h-2.5v-8.9h1.3v-1.3h5.1v1.3h1.3v8.9H-34v-3.8h-2.5V355.7z M-34,349.4v-1.3h-2.5v1.3H-34z"/>
			<path class="st4" d="M-29,354.4h-1.3v-8.9h2.5v7.6h5.1v2.5H-29V354.4z"/>
			<path class="st4" d="M-21.4,345.6h2.5v10.1h-2.5V345.6z"/>
			<path class="st4" d="M-17.6,345.6h6.3v1.3h1.3v7.6h-1.3v1.3h-6.3V345.6z M-15.1,349.4h2.5v-1.3h-2.5V349.4z M-15.1,353.2h2.5
				v-1.3h-2.5V353.2z"/>
			<path class="st4" d="M-5,351.9h-1.3v3.8h-2.5v-8.9h1.3v-1.3h5.1v1.3h1.3v3.8h-1.3v1.3h1.3v3.8h-2.5v-2.5H-5V351.9z M-6.2,349.4
				h2.5v-1.3h-2.5V349.4z"/>
			<path class="st4" d="M2.6,355.7H0.1v-8.9h1.3v-1.3h5.1v1.3h1.3v8.9H5.2v-3.8H2.6V355.7z M5.2,349.4v-1.3H2.6v1.3H5.2z"/>
			<path class="st4" d="M8.9,345.6h7.6v2.5H14v7.6h-2.5v-7.6H8.9V345.6z"/>
			<path class="st4" d="M19.1,354.4h-1.3v-7.6h1.3v-1.3h6.3v2.5h-5.1v1.3h2.5v2.5h-2.5v1.3h5.1v2.5h-6.3V354.4z"/>
		</g>
	</g>
	<g>
		<rect x="-87.7" y="339.9" class="st4" width="13.1" height="1.7"/>
		<rect x="-72.8" y="339.9" class="st4" width="1.7" height="1.7"/>
	</g>
</g>
<g>
	<rect x="332.1" y="71.6" class="st4" width="23.6" height="3"/>
	<rect x="358.9" y="71.6" class="st4" width="3" height="3"/>
</g>
<g>
	<rect x="11.7" y="10.1" class="st4" width="23.6" height="3"/>
	<rect x="38.5" y="10.1" class="st4" width="3" height="3"/>
</g>
<g>
	<polygon class="st22" points="-18.4,133.6 -18.4,126.1 -37,126.1 -37,133.6 -44.5,133.6 -44.5,141.1 -44.5,152.3 -37,152.3 
		-37,159.7 -25.8,159.7 -18.4,159.7 -18.4,152.3 -10.9,152.3 -10.9,141.1 -10.9,133.6 	"/>
	<line class="st23" x1="-36.4" y1="159.7" x2="-36.4" y2="169.7"/>
	<line class="st23" x1="-19" y1="159.7" x2="-19" y2="169.7"/>
	<polygon class="st24" points="-19.9,167.8 -22.1,167.8 -35.4,167.8 -35.4,170 -37.6,170 -37.6,185.5 -35.4,185.5 -35.4,187.7 
		-22.1,187.7 -19.9,187.7 -19.9,185.5 -17.7,185.5 -17.7,170 -19.9,170 	"/>
</g>
<polygon class="st25" points="48.7,572.9 48.7,564.9 40.8,564.9 -24.2,564.9 -93,564.9 -93,572.9 -100.9,572.9 -100.9,618.4 
	-93,618.4 -93,626.4 -24.2,626.4 40.8,626.4 48.7,626.4 48.7,618.4 56.7,618.4 56.7,572.9 "/>
<polygon class="st25" points="48.7,573 48.7,565.1 40.8,565.1 -24.2,565.1 -93,565.1 -93,573 -100.9,573 -100.9,618.5 -93,618.5 
	-93,626.5 -24.2,626.5 40.8,626.5 48.7,626.5 48.7,618.5 56.7,618.5 56.7,573 "/>
<g>
	<path class="st4" d="M-54.8,606.4h-5.4v-21.8h13.6v2.7h2.7v8.2h-2.7v2.7h-8.2V606.4z M-54.8,592.8h5.4v-2.7h-5.4V592.8z"/>
	<path class="st4" d="M-38.4,603.7h-2.7v-19h5.4V601h10.9v5.4h-13.6V603.7z"/>
	<path class="st4" d="M-16.7,606.4h-5.4v-19h2.7v-2.7h10.9v2.7h2.7v19h-5.4v-8.2h-5.4V606.4z M-11.2,592.8v-2.7h-5.4v2.7H-11.2z"/>
	<path class="st4" d="M-3.1,584.6h5.4v8.2h5.4v-8.2h5.4v10.9h-2.7v2.7H7.8v8.2H2.4v-8.2h-2.7v-2.7h-2.7V584.6z"/>
</g>
<polygon class="st25" points="218.7,572.9 218.7,564.9 210.8,564.9 145.8,564.9 77,564.9 77,572.9 69.1,572.9 69.1,618.4 77,618.4 
	77,626.4 145.8,626.4 210.8,626.4 218.7,626.4 218.7,618.4 226.7,618.4 226.7,572.9 "/>
<polygon class="st22" points="218.7,565 218.7,557.1 210.8,557.1 145.8,557.1 77,557.1 77,565 69.1,565 69.1,610.5 77,610.5 
	77,618.5 145.8,618.5 210.8,618.5 218.7,618.5 218.7,610.5 226.7,610.5 226.7,565 "/>
<g>
	<path class="st4" d="M115.2,598.4h-5.4v-21.8h13.6v2.7h2.7v8.2h-2.7v2.7h-8.2V598.4z M115.2,584.8h5.4v-2.7h-5.4V584.8z"/>
	<path class="st4" d="M131.6,595.7h-2.7v-19h5.4V593h10.9v5.4h-13.6V595.7z"/>
	<path class="st4" d="M153.3,598.4h-5.4v-19h2.7v-2.7h10.9v2.7h2.7v19h-5.4v-8.2h-5.4V598.4z M158.8,584.8v-2.7h-5.4v2.7H158.8z"/>
	<path class="st4" d="M166.9,576.6h5.4v8.2h5.4v-8.2h5.4v10.9h-2.7v2.7h-2.7v8.2h-5.4v-8.2h-2.7v-2.7h-2.7V576.6z"/>
</g>
<g>
	<path class="st26" d="M-774.8,327.3h43.2v108h43.2v-108h43.2v129.6h-21.6v21.6h-21.6v21.6h-43.2v-21.6h-21.6v-21.6h-21.6V327.3z"/>
	<path class="st27" d="M-623.6,350.9h21.6v-21.6h108v43.2h-86.4v21.6h64.8v21.6h21.6v64.8h-21.6v21.6h-108v-43.2h86.4v-21.6H-602
		v-21.6h-21.6V350.9z"/>
</g>
<g>
	<path class="st28" d="M-774.8,306.2h43.2v108h43.2v-108h43.2v129.6h-21.6v21.6h-21.6V479h-43.2v-21.6h-21.6v-21.6h-21.6V306.2z"/>
	<path class="st29" d="M-623.6,327.8h21.6v-21.6h108v43.2h-86.4V371h64.8v21.6h21.6v64.8h-21.6V479h-108v-43.2h86.4v-21.6H-602
		v-21.6h-21.6V327.8z"/>
</g>
<g>
	<g>
		<path class="st0" d="M-725.5,684.8h27.5v68.7h27.5v-68.7h27.5v82.4h-13.7V781h-13.7v13.7H-698V781h-13.7v-13.7h-13.7V684.8z"/>
		<path class="st0" d="M-629.3,699.9h13.7v-13.7h68.7v27.5h-54.9v13.7h41.2v13.7h13.7v41.2h-13.7V796h-68.7v-27.5h54.9v-13.7h-41.2
			v-13.7h-13.7V699.9z"/>
	</g>
	<g>
		<path class="st7" d="M-725.5,670.3h27.5V739h27.5v-68.7h27.5v82.4h-13.7v13.7h-13.7v13.7H-698v-13.7h-13.7v-13.7h-13.7V670.3z"/>
		<path class="st7" d="M-629.3,685.4h13.7v-13.7h68.7v27.5h-54.9v13.7h41.2v13.7h13.7v41.2h-13.7v13.7h-68.7V754h54.9v-13.7h-41.2
			v-13.7h-13.7V685.4z"/>
	</g>
	<g>
		<path class="st4" d="M-725.5,656.9h27.5v68.7h27.5v-68.7h27.5v82.4h-13.7v13.7h-13.7v13.7H-698v-13.7h-13.7v-13.7h-13.7V656.9z"/>
		<path class="st4" d="M-629.3,670.7h13.7v-13.7h68.7v27.5h-54.9v13.7h41.2v13.7h13.7v41.2h-13.7v13.7h-68.7v-27.5h54.9v-13.7h-41.2
			v-13.7h-13.7V670.7z"/>
	</g>
</g>
</svg>
