<!-- Generator: Adobe Illustrator 19.2.1, SVG Export Plug-In  -->
<svg version="1.1"
	 xmlns="http://www.w3.org/2000/svg" xmlns:xlink="http://www.w3.org/1999/xlink" xmlns:a="http://ns.adobe.com/AdobeSVGViewerExtensions/3.0/"
	 x="0px" y="0px" width="69px" height="75.3px" viewBox="0 0 69 75.3" style="enable-background:new 0 0 69 75.3;"
	 xml:space="preserve">
<style type="text/css">
	.st0{fill:#2A6FBA;}
	.st1{fill:#4ABAEF;}
	.st2{fill:#FFFFFF;}
</style>
<defs>
</defs>
<polygon class="st0" points="61.4,6.3 53.8,6.3 7.6,6.3 7.6,13.9 0,13.9 0,67.7 7.6,67.7 7.6,75.3 53.8,75.3 61.4,75.3 61.4,67.7
	69,67.7 69,13.9 61.4,13.9 "/>
<polygon class="st1" points="61.4,0 53.8,0 7.6,0 7.6,7.6 0,7.6 0,61.4 7.6,61.4 7.6,69 53.8,69 61.4,69 61.4,61.4 69,61.4 69,7.6
	61.4,7.6 "/>
<g>
	<path class="st2" d="M23.9,23.4H31v7.1H38v-7.1h7.1V34h-3.5v7.1h3.5v10.6H38v-7.1H31v7.1h-7.1V41.1h3.5V34h-3.5V23.4z"/>
</g>
</svg>
