<!-- Generator: Adobe Illustrator 19.2.1, SVG Export Plug-In  -->
<svg version="1.1"
	 xmlns="http://www.w3.org/2000/svg" xmlns:xlink="http://www.w3.org/1999/xlink" xmlns:a="http://ns.adobe.com/AdobeSVGViewerExtensions/3.0/"
	 x="0px" y="0px" width="69px" height="69px" viewBox="0 0 69 69" style="enable-background:new 0 0 69 69;" xml:space="preserve">
<style type="text/css">
	.st0{fill:#2A6FBA;}
	.st1{fill:#FFFFFF;}
</style>
<defs>
</defs>
<polygon class="st0" points="61.4,0 53.8,0 7.6,0 7.6,7.6 0,7.6 0,61.4 7.6,61.4 7.6,69 53.8,69 61.4,69 61.4,61.4 69,61.4 69,7.6
	61.4,7.6 "/>
<polygon class="st0" points="61.4,0 53.8,0 7.6,0 7.6,7.6 0,7.6 0,61.4 7.6,61.4 7.6,69 53.8,69 61.4,69 61.4,61.4 69,61.4 69,7.6
	61.4,7.6 "/>
<g>
	<path class="st1" d="M23.9,20.3H31v7.1H38v-7.1h7.1v10.6h-3.5V38h3.5v10.8H38v-7.2H31v7.2h-7.1V38h3.5V31h-3.5V20.3z"/>
</g>
</svg>
