<!-- Generator: Adobe Illustrator 19.2.1, SVG Export Plug-In  -->
<svg version="1.1"
	 xmlns="http://www.w3.org/2000/svg" xmlns:xlink="http://www.w3.org/1999/xlink" xmlns:a="http://ns.adobe.com/AdobeSVGViewerExtensions/3.0/"
	 x="0px" y="0px" width="241.9px" height="52.6px" viewBox="0 0 241.9 52.6" style="enable-background:new 0 0 241.9 52.6;"
	 xml:space="preserve">
<style type="text/css">
	.st0{fill:#7149A4;}
	.st1{fill:#BD86E0;}
	.st2{fill:#FFFFFF;}
</style>
<defs>
</defs>
<polygon class="st0" points="235.9,6 229.9,6 6,6 6,12 0,12 0,46.6 6,46.6 6,52.6 229.9,52.6 235.9,52.6 235.9,46.6 241.9,46.6
	241.9,12 235.9,12 "/>
<polygon class="st1" points="235.9,0 229.9,0 6,0 6,6 0,6 0,40.5 6,40.5 6,46.6 229.9,46.6 235.9,46.6 235.9,40.5 241.9,40.5
	241.9,6 235.9,6 "/>
<g>
	<rect x="12.5" y="2.4" class="st2" width="26.9" height="3.4"/>
	<rect x="43.1" y="2.4" class="st2" width="3.4" height="3.4"/>
</g>
<g>
	<path class="st2" d="M53.3,16.7h2.2v-2.2h11.2v4.5h-8.9v8.9h8.9v4.5H55.6v-2.2h-2.2V16.7z"/>
	<path class="st2" d="M69,16.7h2.2v-2.2h8.9v2.2h2.2v13.4h-2.2v2.2h-8.9v-2.2H69V16.7z M73.5,27.9H78v-9h-4.5V27.9z"/>
	<path class="st2" d="M91.4,23.4h-2.2v8.9h-4.5V14.4h4.5v2.2h2.2v2.2h2.2v-4.5h4.5v17.9h-4.5v-6.7h-2.2V23.4z"/>
	<path class="st2" d="M107,23.4h-2.2v8.9h-4.5V14.4h4.5v2.2h2.2v2.2h2.2v-4.5h4.5v17.9h-4.5v-6.7H107C107,25.6,107,23.4,107,23.4z"
		/>
	<path class="st2" d="M118.2,30.1H116V16.7h2.2v-2.2h11.2v4.5h-8.9v2.2h4.5v4.5h-4.5v2.2h8.9v4.5h-11.2L118.2,30.1L118.2,30.1z"/>
	<path class="st2" d="M131.7,16.7h2.2v-2.2h11.2v4.5h-8.9v8.9h8.9v4.5H134v-2.2h-2.2V16.7z"/>
	<path class="st2" d="M147.3,14.4h13.4v4.5h-4.4v13.4h-4.5V18.9h-4.5V14.4z"/>
	<path class="st2" d="M165.3,30.1H163V16.7h2.2v-2.2h11.2v4.5h-8.9v2.2h4.5v4.5h-4.5v2.2h8.9v4.5h-11.2V30.1z"/>
	<path class="st2" d="M187.7,32.3h-8.9V14.4h8.9v2.2h2.2v2.2h2.2v8.9h-2.2v2.2h-2.2V32.3z M185.4,18.9h-2.2v8.9h2.2v-2.2h2.2v-4.4
		h-2.2V18.9z"/>
	<path class="st2" d="M194.4,14.4h4.5v11.2h-4.5V14.4z M194.4,27.9h4.5v4.5h-4.5V27.9z"/>
</g>
</svg>
