<!-- Generator: Adobe Illustrator 19.2.1, SVG Export Plug-In  -->
<svg version="1.1"
	 xmlns="http://www.w3.org/2000/svg" xmlns:xlink="http://www.w3.org/1999/xlink" xmlns:a="http://ns.adobe.com/AdobeSVGViewerExtensions/3.0/"
	 x="0px" y="0px" width="45.3px" height="95.8px" viewBox="0 0 45.3 95.8" style="enable-background:new 0 0 45.3 95.8;"
	 xml:space="preserve">
<style type="text/css">
	.st0{fill:#060606;}
	.st1{fill:#080808;}
	.st2{fill:#202020;}
	.st3{fill:#101010;}
	.st4{fill:#1B1B1B;}
	.st5{fill:#090909;}
	.st6{fill:#010101;}
</style>
<defs>
</defs>
<g>
	<rect x="24.9" y="93.4" width="1.1" height="2.4"/>
	<rect x="23.7" y="93.4" width="1.1" height="2.4"/>
	<rect x="22.6" y="93.4" width="1.1" height="2.4"/>
	<rect x="21.5" y="93.4" width="1.1" height="2.4"/>
	<rect x="20.4" y="93.4" width="1.1" height="2.4"/>
	<rect x="19.2" y="93.4" width="1.1" height="2.4"/>
	<rect x="27.2" y="91" width="1.1" height="2.4"/>
	<rect x="26" y="91" width="1.1" height="2.4"/>
	<rect x="24.9" y="91" width="1.1" height="2.4"/>
	<rect x="23.7" y="91" width="1.1" height="2.4"/>
	<rect x="22.6" y="91" width="1.1" height="2.4"/>
	<rect x="21.5" y="91" width="1.1" height="2.4"/>
	<rect x="20.4" y="91" width="1.1" height="2.4"/>
	<rect x="19.2" y="91" width="1.1" height="2.4"/>
	<rect x="18.1" y="91" width="1.1" height="2.4"/>
	<rect x="17" y="91" width="1.1" height="2.4"/>
	<rect x="29.4" y="88.6" width="1.1" height="2.4"/>
	<rect x="28.3" y="88.6" width="1.1" height="2.4"/>
	<rect x="27.2" y="88.6" width="1.1" height="2.4"/>
	<rect x="26" y="88.6" width="1.1" height="2.4"/>
	<rect x="24.9" y="88.6" width="1.1" height="2.4"/>
	<rect x="23.7" y="88.6" width="1.1" height="2.4"/>
	<rect x="22.6" y="88.6" width="1.1" height="2.4"/>
	<rect x="21.5" y="88.6" width="1.1" height="2.4"/>
	<rect x="20.4" y="88.6" width="1.1" height="2.4"/>
	<rect x="19.2" y="88.6" width="1.1" height="2.4"/>
	<rect x="18.1" y="88.6" width="1.1" height="2.4"/>
	<rect x="17" y="88.6" width="1.1" height="2.4"/>
	<rect x="15.8" y="88.6" width="1.1" height="2.4"/>
	<rect x="14.7" y="88.6" width="1.1" height="2.4"/>
	<rect x="32.8" y="86.2" width="1.1" height="2.4"/>
	<rect x="31.7" y="86.2" width="1.1" height="2.4"/>
	<rect x="30.5" y="86.2" width="1.1" height="2.4"/>
	<rect x="29.4" y="86.2" width="1.1" height="2.4"/>
	<rect x="28.3" y="86.2" width="1.1" height="2.4"/>
	<rect x="27.2" y="86.2" width="1.1" height="2.4"/>
	<rect x="26" y="86.2" width="1.1" height="2.4"/>
	<rect x="24.9" y="86.2" width="1.1" height="2.4"/>
	<rect x="23.7" y="86.2" width="1.1" height="2.4"/>
	<rect x="22.6" y="86.2" width="1.1" height="2.4"/>
	<rect x="21.5" y="86.2" width="1.1" height="2.4"/>
	<rect x="20.4" y="86.2" width="1.1" height="2.4"/>
	<rect x="19.2" y="86.2" width="1.1" height="2.4"/>
	<rect x="18.1" y="86.2" width="1.1" height="2.4"/>
	<rect x="17" y="86.2" width="1.1" height="2.4"/>
	<rect x="15.8" y="86.2" width="1.1" height="2.4"/>
	<rect x="14.7" y="86.2" width="1.1" height="2.4"/>
	<rect x="13.5" y="86.2" width="1.1" height="2.4"/>
	<rect x="12.4" y="86.2" width="1.1" height="2.4"/>
	<rect x="11.3" y="86.2" class="st0" width="1.1" height="2.4"/>
	<rect x="35.1" y="83.8" width="1.1" height="2.4"/>
	<rect x="33.9" y="83.8" width="1.1" height="2.4"/>
	<rect x="32.8" y="83.8" width="1.1" height="2.4"/>
	<rect x="31.7" y="83.8" width="1.1" height="2.4"/>
	<rect x="30.5" y="83.8" width="1.1" height="2.4"/>
	<rect x="29.4" y="83.8" width="1.1" height="2.4"/>
	<rect x="28.3" y="83.8" width="1.1" height="2.4"/>
	<rect x="27.2" y="83.8" width="1.1" height="2.4"/>
	<rect x="26" y="83.8" width="1.1" height="2.4"/>
	<rect x="24.9" y="83.8" width="1.1" height="2.4"/>
	<rect x="23.7" y="83.8" width="1.1" height="2.4"/>
	<rect x="22.6" y="83.8" width="1.1" height="2.4"/>
	<rect x="21.5" y="83.8" width="1.1" height="2.4"/>
	<rect x="20.4" y="83.8" width="1.1" height="2.4"/>
	<rect x="19.2" y="83.8" width="1.1" height="2.4"/>
	<rect x="18.1" y="83.8" width="1.1" height="2.4"/>
	<rect x="17" y="83.8" width="1.1" height="2.4"/>
	<rect x="15.8" y="83.8" width="1.1" height="2.4"/>
	<rect x="14.7" y="83.8" width="1.1" height="2.4"/>
	<rect x="13.5" y="83.8" width="1.1" height="2.4"/>
	<rect x="12.4" y="83.8" width="1.1" height="2.4"/>
	<rect x="11.3" y="83.8" width="1.1" height="2.4"/>
	<rect x="10.2" y="83.8" width="1.1" height="2.4"/>
	<rect x="9.1" y="83.8" class="st0" width="1.1" height="2.4"/>
	<rect x="37.3" y="81.4" width="1.1" height="2.4"/>
	<rect x="36.2" y="81.4" width="1.1" height="2.4"/>
	<rect x="35.1" y="81.4" width="1.1" height="2.4"/>
	<rect x="33.9" y="81.4" width="1.1" height="2.4"/>
	<rect x="32.8" y="81.4" width="1.1" height="2.4"/>
	<rect x="31.7" y="81.4" width="1.1" height="2.4"/>
	<rect x="30.5" y="81.4" width="1.1" height="2.4"/>
	<rect x="29.4" y="81.4" width="1.1" height="2.4"/>
	<rect x="28.3" y="81.4" width="1.1" height="2.4"/>
	<rect x="27.2" y="81.4" width="1.1" height="2.4"/>
	<rect x="26" y="81.4" width="1.1" height="2.4"/>
	<rect x="24.9" y="81.4" width="1.1" height="2.4"/>
	<rect x="23.7" y="81.4" width="1.1" height="2.4"/>
	<rect x="22.6" y="81.4" width="1.1" height="2.4"/>
	<rect x="21.5" y="81.4" width="1.1" height="2.4"/>
	<rect x="20.4" y="81.4" width="1.1" height="2.4"/>
	<rect x="19.2" y="81.4" width="1.1" height="2.4"/>
	<rect x="18.1" y="81.4" width="1.1" height="2.4"/>
	<rect x="17" y="81.4" width="1.1" height="2.4"/>
	<rect x="15.8" y="81.4" width="1.1" height="2.4"/>
	<rect x="14.7" y="81.4" width="1.1" height="2.4"/>
	<rect x="13.5" y="81.4" width="1.1" height="2.4"/>
	<rect x="12.4" y="81.4" width="1.1" height="2.4"/>
	<rect x="11.3" y="81.4" width="1.1" height="2.4"/>
	<rect x="10.2" y="81.4" width="1.1" height="2.4"/>
	<rect x="9.1" y="81.4" width="1.1" height="2.4"/>
	<rect x="7.9" y="81.4" width="1.1" height="2.4"/>
	<rect x="6.8" y="81.4" width="1.1" height="2.4"/>
	<rect x="39.6" y="79" width="1.1" height="2.4"/>
	<rect x="38.4" y="79" width="1.1" height="2.4"/>
	<rect x="37.3" y="79" width="1.1" height="2.4"/>
	<rect x="36.2" y="79" width="1.1" height="2.4"/>
	<rect x="35.1" y="79" width="1.1" height="2.4"/>
	<rect x="33.9" y="79" width="1.1" height="2.4"/>
	<rect x="32.8" y="79" width="1.1" height="2.4"/>
	<rect x="31.7" y="79" width="1.1" height="2.4"/>
	<rect x="30.5" y="79" width="1.1" height="2.4"/>
	<rect x="29.4" y="79" width="1.1" height="2.4"/>
	<rect x="28.3" y="79" width="1.1" height="2.4"/>
	<rect x="27.2" y="79" width="1.1" height="2.4"/>
	<rect x="26" y="79" width="1.1" height="2.4"/>
	<rect x="24.9" y="79" width="1.1" height="2.4"/>
	<rect x="23.7" y="79" width="1.1" height="2.4"/>
	<rect x="22.6" y="79" width="1.1" height="2.4"/>
	<rect x="21.5" y="79" width="1.1" height="2.4"/>
	<rect x="20.4" y="79" width="1.1" height="2.4"/>
	<rect x="19.2" y="79" width="1.1" height="2.4"/>
	<rect x="18.1" y="79" width="1.1" height="2.4"/>
	<rect x="17" y="79" width="1.1" height="2.4"/>
	<rect x="15.8" y="79" width="1.1" height="2.4"/>
	<rect x="14.7" y="79" width="1.1" height="2.4"/>
	<rect x="13.5" y="79" width="1.1" height="2.4"/>
	<rect x="12.4" y="79" width="1.1" height="2.4"/>
	<rect x="11.3" y="79" width="1.1" height="2.4"/>
	<rect x="10.2" y="79" width="1.1" height="2.4"/>
	<rect x="9.1" y="79" width="1.1" height="2.4"/>
	<rect x="7.9" y="79" width="1.1" height="2.4"/>
	<rect x="6.8" y="79" width="1.1" height="2.4"/>
	<rect x="5.6" y="79" width="1.1" height="2.4"/>
	<rect x="4.5" y="79" width="1.1" height="2.4"/>
	<rect x="41.8" y="76.6" width="1.1" height="2.4"/>
	<rect x="40.7" y="76.6" width="1.1" height="2.4"/>
	<rect x="39.6" y="76.6" width="1.1" height="2.4"/>
	<rect x="38.4" y="76.6" width="1.1" height="2.4"/>
	<rect x="37.3" y="76.6" width="1.1" height="2.4"/>
	<rect x="36.2" y="76.6" width="1.1" height="2.4"/>
	<rect x="35.1" y="76.6" width="1.1" height="2.4"/>
	<rect x="33.9" y="76.6" width="1.1" height="2.4"/>
	<rect x="32.8" y="76.6" width="1.1" height="2.4"/>
	<rect x="31.7" y="76.6" width="1.1" height="2.4"/>
	<rect x="30.5" y="76.6" width="1.1" height="2.4"/>
	<rect x="29.4" y="76.6" width="1.1" height="2.4"/>
	<rect x="28.3" y="76.6" width="1.1" height="2.4"/>
	<rect x="27.2" y="76.6" width="1.1" height="2.4"/>
	<rect x="26" y="76.6" width="1.1" height="2.4"/>
	<rect x="24.9" y="76.6" width="1.1" height="2.4"/>
	<rect x="23.7" y="76.6" width="1.1" height="2.4"/>
	<rect x="22.6" y="76.6" class="st1" width="1.1" height="2.4"/>
	<rect x="21.5" y="76.6" width="1.1" height="2.4"/>
	<rect x="20.4" y="76.6" width="1.1" height="2.4"/>
	<rect x="19.2" y="76.6" width="1.1" height="2.4"/>
	<rect x="18.1" y="76.6" width="1.1" height="2.4"/>
	<rect x="17" y="76.6" width="1.1" height="2.4"/>
	<rect x="15.8" y="76.6" width="1.1" height="2.4"/>
	<rect x="14.7" y="76.6" width="1.1" height="2.4"/>
	<rect x="13.5" y="76.6" width="1.1" height="2.4"/>
	<rect x="12.4" y="76.6" width="1.1" height="2.4"/>
	<rect x="11.3" y="76.6" width="1.1" height="2.4"/>
	<rect x="10.2" y="76.6" width="1.1" height="2.4"/>
	<rect x="9.1" y="76.6" width="1.1" height="2.4"/>
	<rect x="7.9" y="76.6" width="1.1" height="2.4"/>
	<rect x="6.8" y="76.6" width="1.1" height="2.4"/>
	<rect x="5.6" y="76.6" width="1.1" height="2.4"/>
	<rect x="4.5" y="76.6" width="1.1" height="2.4"/>
	<rect x="3.4" y="76.6" width="1.1" height="2.4"/>
	<rect x="2.3" y="76.6" width="1.1" height="2.4"/>
	<rect x="43" y="74.2" width="1.1" height="2.4"/>
	<rect x="41.8" y="74.2" width="1.1" height="2.4"/>
	<rect x="40.7" y="74.2" width="1.1" height="2.4"/>
	<rect x="39.6" y="74.2" width="1.1" height="2.4"/>
	<rect x="38.4" y="74.2" width="1.1" height="2.4"/>
	<rect x="37.3" y="74.2" width="1.1" height="2.4"/>
	<rect x="36.2" y="74.2" width="1.1" height="2.4"/>
	<rect x="35.1" y="74.2" width="1.1" height="2.4"/>
	<rect x="33.9" y="74.2" width="1.1" height="2.4"/>
	<rect x="32.8" y="74.2" width="1.1" height="2.4"/>
	<rect x="31.7" y="74.2" width="1.1" height="2.4"/>
	<rect x="30.5" y="74.2" width="1.1" height="2.4"/>
	<rect x="29.4" y="74.2" width="1.1" height="2.4"/>
	<rect x="28.3" y="74.2" width="1.1" height="2.4"/>
	<rect x="27.2" y="74.2" width="1.1" height="2.4"/>
	<rect x="26" y="74.2" width="1.1" height="2.4"/>
	<rect x="18.1" y="74.2" width="1.1" height="2.4"/>
	<rect x="17" y="74.2" width="1.1" height="2.4"/>
	<rect x="15.8" y="74.2" width="1.1" height="2.4"/>
	<rect x="14.7" y="74.2" width="1.1" height="2.4"/>
	<rect x="13.5" y="74.2" width="1.1" height="2.4"/>
	<rect x="12.4" y="74.2" width="1.1" height="2.4"/>
	<rect x="11.3" y="74.2" width="1.1" height="2.4"/>
	<rect x="10.2" y="74.2" width="1.1" height="2.4"/>
	<rect x="9.1" y="74.2" width="1.1" height="2.4"/>
	<rect x="7.9" y="74.2" width="1.1" height="2.4"/>
	<rect x="6.8" y="74.2" width="1.1" height="2.4"/>
	<rect x="5.6" y="74.2" width="1.1" height="2.4"/>
	<rect x="4.5" y="74.2" width="1.1" height="2.4"/>
	<rect x="3.4" y="74.2" width="1.1" height="2.4"/>
	<rect x="2.3" y="74.2" width="1.1" height="2.4"/>
	<rect x="1.1" y="74.2" width="1.1" height="2.4"/>
	<rect x="44.1" y="71.8" width="1.1" height="2.4"/>
	<rect x="43" y="71.8" width="1.1" height="2.4"/>
	<rect x="41.8" y="71.8" width="1.1" height="2.4"/>
	<rect x="40.7" y="71.8" width="1.1" height="2.4"/>
	<rect x="39.6" y="71.8" width="1.1" height="2.4"/>
	<rect x="38.4" y="71.8" width="1.1" height="2.4"/>
	<rect x="37.3" y="71.8" width="1.1" height="2.4"/>
	<rect x="36.2" y="71.8" width="1.1" height="2.4"/>
	<rect x="35.1" y="71.8" width="1.1" height="2.4"/>
	<rect x="33.9" y="71.8" width="1.1" height="2.4"/>
	<rect x="32.8" y="71.8" width="1.1" height="2.4"/>
	<rect x="31.7" y="71.8" width="1.1" height="2.4"/>
	<rect x="30.5" y="71.8" width="1.1" height="2.4"/>
	<rect x="29.4" y="71.8" width="1.1" height="2.4"/>
	<rect x="28.3" y="71.8" width="1.1" height="2.4"/>
	<rect x="15.8" y="71.8" width="1.1" height="2.4"/>
	<rect x="14.7" y="71.8" width="1.1" height="2.4"/>
	<rect x="13.5" y="71.8" width="1.1" height="2.4"/>
	<rect x="12.4" y="71.8" width="1.1" height="2.4"/>
	<rect x="11.3" y="71.8" width="1.1" height="2.4"/>
	<rect x="10.2" y="71.8" width="1.1" height="2.4"/>
	<rect x="9.1" y="71.8" width="1.1" height="2.4"/>
	<rect x="7.9" y="71.8" width="1.1" height="2.4"/>
	<rect x="6.8" y="71.8" width="1.1" height="2.4"/>
	<rect x="5.6" y="71.8" width="1.1" height="2.4"/>
	<rect x="4.5" y="71.8" width="1.1" height="2.4"/>
	<rect x="3.4" y="71.8" width="1.1" height="2.4"/>
	<rect x="2.3" y="71.8" width="1.1" height="2.4"/>
	<rect x="1.1" y="71.8" width="1.1" height="2.4"/>
	<rect y="71.8" width="1.1" height="2.4"/>
	<rect x="44.1" y="69.4" width="1.1" height="2.4"/>
	<rect x="43" y="69.4" width="1.1" height="2.4"/>
	<rect x="41.8" y="69.4" width="1.1" height="2.4"/>
	<rect x="40.7" y="69.4" width="1.1" height="2.4"/>
	<rect x="39.6" y="69.4" width="1.1" height="2.4"/>
	<rect x="38.4" y="69.4" width="1.1" height="2.4"/>
	<rect x="37.3" y="69.4" width="1.1" height="2.4"/>
	<rect x="36.2" y="69.4" width="1.1" height="2.4"/>
	<rect x="35.1" y="69.4" width="1.1" height="2.4"/>
	<rect x="33.9" y="69.4" width="1.1" height="2.4"/>
	<rect x="32.8" y="69.4" width="1.1" height="2.4"/>
	<rect x="31.7" y="69.4" width="1.1" height="2.4"/>
	<rect x="30.5" y="69.4" width="1.1" height="2.4"/>
	<rect x="29.4" y="69.4" class="st2" width="1.1" height="2.4"/>
	<rect x="14.7" y="69.4" width="1.1" height="2.4"/>
	<rect x="13.5" y="69.4" width="1.1" height="2.4"/>
	<rect x="12.4" y="69.4" width="1.1" height="2.4"/>
	<rect x="11.3" y="69.4" width="1.1" height="2.4"/>
	<rect x="10.2" y="69.4" width="1.1" height="2.4"/>
	<rect x="9.1" y="69.4" width="1.1" height="2.4"/>
	<rect x="7.9" y="69.4" width="1.1" height="2.4"/>
	<rect x="6.8" y="69.4" width="1.1" height="2.4"/>
	<rect x="5.6" y="69.4" width="1.1" height="2.4"/>
	<rect x="4.5" y="69.4" width="1.1" height="2.4"/>
	<rect x="3.4" y="69.4" width="1.1" height="2.4"/>
	<rect x="2.3" y="69.4" width="1.1" height="2.4"/>
	<rect x="1.1" y="69.4" width="1.1" height="2.4"/>
	<rect y="69.4" width="1.1" height="2.4"/>
	<rect x="44.1" y="67" width="1.1" height="2.4"/>
	<rect x="43" y="67" width="1.1" height="2.4"/>
	<rect x="41.8" y="67" width="1.1" height="2.4"/>
	<rect x="40.7" y="67" width="1.1" height="2.4"/>
	<rect x="39.6" y="67" width="1.1" height="2.4"/>
	<rect x="38.4" y="67" width="1.1" height="2.4"/>
	<rect x="37.3" y="67" width="1.1" height="2.4"/>
	<rect x="36.2" y="67" width="1.1" height="2.4"/>
	<rect x="35.1" y="67" width="1.1" height="2.4"/>
	<rect x="33.9" y="67" width="1.1" height="2.4"/>
	<rect x="32.8" y="67" width="1.1" height="2.4"/>
	<rect x="31.7" y="67" width="1.1" height="2.4"/>
	<rect x="30.5" y="67" width="1.1" height="2.4"/>
	<rect x="29.4" y="67" class="st2" width="1.1" height="2.4"/>
	<rect x="14.7" y="67" width="1.1" height="2.4"/>
	<rect x="13.5" y="67" width="1.1" height="2.4"/>
	<rect x="12.4" y="67" width="1.1" height="2.4"/>
	<rect x="11.3" y="67" width="1.1" height="2.4"/>
	<rect x="10.2" y="67" width="1.1" height="2.4"/>
	<rect x="9.1" y="67" width="1.1" height="2.4"/>
	<rect x="7.9" y="67" width="1.1" height="2.4"/>
	<rect x="6.8" y="67" width="1.1" height="2.4"/>
	<rect x="5.6" y="67" width="1.1" height="2.4"/>
	<rect x="4.5" y="67" width="1.1" height="2.4"/>
	<rect x="3.4" y="67" width="1.1" height="2.4"/>
	<rect x="2.3" y="67" width="1.1" height="2.4"/>
	<rect x="1.1" y="67" width="1.1" height="2.4"/>
	<rect y="67" width="1.1" height="2.4"/>
	<rect x="44.1" y="64.6" width="1.1" height="2.4"/>
	<rect x="43" y="64.6" width="1.1" height="2.4"/>
	<rect x="41.8" y="64.6" width="1.1" height="2.4"/>
	<rect x="40.7" y="64.6" width="1.1" height="2.4"/>
	<rect x="39.6" y="64.6" width="1.1" height="2.4"/>
	<rect x="38.4" y="64.6" width="1.1" height="2.4"/>
	<rect x="37.3" y="64.6" width="1.1" height="2.4"/>
	<rect x="36.2" y="64.6" width="1.1" height="2.4"/>
	<rect x="35.1" y="64.6" width="1.1" height="2.4"/>
	<rect x="33.9" y="64.6" width="1.1" height="2.4"/>
	<rect x="32.8" y="64.6" width="1.1" height="2.4"/>
	<rect x="31.7" y="64.6" width="1.1" height="2.4"/>
	<rect x="30.5" y="64.6" width="1.1" height="2.4"/>
	<rect x="29.4" y="64.6" class="st2" width="1.1" height="2.4"/>
	<rect x="14.7" y="64.6" width="1.1" height="2.4"/>
	<rect x="13.5" y="64.6" width="1.1" height="2.4"/>
	<rect x="12.4" y="64.6" width="1.1" height="2.4"/>
	<rect x="11.3" y="64.6" width="1.1" height="2.4"/>
	<rect x="10.2" y="64.6" width="1.1" height="2.4"/>
	<rect x="9.1" y="64.6" width="1.1" height="2.4"/>
	<rect x="7.9" y="64.6" width="1.1" height="2.4"/>
	<rect x="6.8" y="64.6" width="1.1" height="2.4"/>
	<rect x="5.6" y="64.6" width="1.1" height="2.4"/>
	<rect x="4.5" y="64.6" width="1.1" height="2.4"/>
	<rect x="3.4" y="64.6" width="1.1" height="2.4"/>
	<rect x="2.3" y="64.6" width="1.1" height="2.4"/>
	<rect x="1.1" y="64.6" width="1.1" height="2.4"/>
	<rect y="64.6" width="1.1" height="2.4"/>
	<rect x="44.1" y="62.2" width="1.1" height="2.4"/>
	<rect x="43" y="62.2" width="1.1" height="2.4"/>
	<rect x="41.8" y="62.2" width="1.1" height="2.4"/>
	<rect x="40.7" y="62.2" width="1.1" height="2.4"/>
	<rect x="39.6" y="62.2" width="1.1" height="2.4"/>
	<rect x="38.4" y="62.2" width="1.1" height="2.4"/>
	<rect x="37.3" y="62.2" width="1.1" height="2.4"/>
	<rect x="36.2" y="62.2" width="1.1" height="2.4"/>
	<rect x="35.1" y="62.2" width="1.1" height="2.4"/>
	<rect x="33.9" y="62.2" width="1.1" height="2.4"/>
	<rect x="32.8" y="62.2" width="1.1" height="2.4"/>
	<rect x="31.7" y="62.2" width="1.1" height="2.4"/>
	<rect x="30.5" y="62.2" width="1.1" height="2.4"/>
	<rect x="29.4" y="62.2" class="st2" width="1.1" height="2.4"/>
	<rect x="14.7" y="62.2" width="1.1" height="2.4"/>
	<rect x="13.5" y="62.2" width="1.1" height="2.4"/>
	<rect x="12.4" y="62.2" width="1.1" height="2.4"/>
	<rect x="11.3" y="62.2" width="1.1" height="2.4"/>
	<rect x="10.2" y="62.2" width="1.1" height="2.4"/>
	<rect x="9.1" y="62.2" width="1.1" height="2.4"/>
	<rect x="7.9" y="62.2" width="1.1" height="2.4"/>
	<rect x="6.8" y="62.2" width="1.1" height="2.4"/>
	<rect x="5.6" y="62.2" width="1.1" height="2.4"/>
	<rect x="4.5" y="62.2" width="1.1" height="2.4"/>
	<rect x="3.4" y="62.2" width="1.1" height="2.4"/>
	<rect x="2.3" y="62.2" width="1.1" height="2.4"/>
	<rect x="1.1" y="62.2" width="1.1" height="2.4"/>
	<rect y="62.2" width="1.1" height="2.4"/>
	<rect x="44.1" y="59.9" width="1.1" height="2.4"/>
	<rect x="43" y="59.9" width="1.1" height="2.4"/>
	<rect x="41.8" y="59.9" width="1.1" height="2.4"/>
	<rect x="40.7" y="59.9" width="1.1" height="2.4"/>
	<rect x="39.6" y="59.9" width="1.1" height="2.4"/>
	<rect x="38.4" y="59.9" width="1.1" height="2.4"/>
	<rect x="37.3" y="59.9" width="1.1" height="2.4"/>
	<rect x="36.2" y="59.9" width="1.1" height="2.4"/>
	<rect x="35.1" y="59.9" width="1.1" height="2.4"/>
	<rect x="33.9" y="59.9" width="1.1" height="2.4"/>
	<rect x="32.8" y="59.9" width="1.1" height="2.4"/>
	<rect x="31.7" y="59.9" width="1.1" height="2.4"/>
	<rect x="30.5" y="59.9" width="1.1" height="2.4"/>
	<rect x="29.4" y="59.9" class="st2" width="1.1" height="2.4"/>
	<rect x="14.7" y="59.9" width="1.1" height="2.4"/>
	<rect x="13.5" y="59.9" width="1.1" height="2.4"/>
	<rect x="12.4" y="59.9" width="1.1" height="2.4"/>
	<rect x="11.3" y="59.9" width="1.1" height="2.4"/>
	<rect x="10.2" y="59.9" width="1.1" height="2.4"/>
	<rect x="9.1" y="59.9" width="1.1" height="2.4"/>
	<rect x="7.9" y="59.9" width="1.1" height="2.4"/>
	<rect x="6.8" y="59.9" width="1.1" height="2.4"/>
	<rect x="5.6" y="59.9" width="1.1" height="2.4"/>
	<rect x="4.5" y="59.9" width="1.1" height="2.4"/>
	<rect x="3.4" y="59.9" width="1.1" height="2.4"/>
	<rect x="2.3" y="59.9" width="1.1" height="2.4"/>
	<rect x="1.1" y="59.9" width="1.1" height="2.4"/>
	<rect y="59.9" width="1.1" height="2.4"/>
	<rect x="44.1" y="57.5" width="1.1" height="2.4"/>
	<rect x="43" y="57.5" width="1.1" height="2.4"/>
	<rect x="41.8" y="57.5" width="1.1" height="2.4"/>
	<rect x="40.7" y="57.5" width="1.1" height="2.4"/>
	<rect x="39.6" y="57.5" width="1.1" height="2.4"/>
	<rect x="38.4" y="57.5" width="1.1" height="2.4"/>
	<rect x="37.3" y="57.5" width="1.1" height="2.4"/>
	<rect x="36.2" y="57.5" width="1.1" height="2.4"/>
	<rect x="35.1" y="57.5" width="1.1" height="2.4"/>
	<rect x="33.9" y="57.5" width="1.1" height="2.4"/>
	<rect x="32.8" y="57.5" width="1.1" height="2.4"/>
	<rect x="31.7" y="57.5" width="1.1" height="2.4"/>
	<rect x="30.5" y="57.5" width="1.1" height="2.4"/>
	<rect x="29.4" y="57.5" class="st2" width="1.1" height="2.4"/>
	<rect x="14.7" y="57.5" width="1.1" height="2.4"/>
	<rect x="13.5" y="57.5" width="1.1" height="2.4"/>
	<rect x="12.4" y="57.5" width="1.1" height="2.4"/>
	<rect x="11.3" y="57.5" width="1.1" height="2.4"/>
	<rect x="10.2" y="57.5" width="1.1" height="2.4"/>
	<rect x="9.1" y="57.5" width="1.1" height="2.4"/>
	<rect x="7.9" y="57.5" width="1.1" height="2.4"/>
	<rect x="6.8" y="57.5" width="1.1" height="2.4"/>
	<rect x="5.6" y="57.5" width="1.1" height="2.4"/>
	<rect x="4.5" y="57.5" width="1.1" height="2.4"/>
	<rect x="3.4" y="57.5" width="1.1" height="2.4"/>
	<rect x="2.3" y="57.5" width="1.1" height="2.4"/>
	<rect x="1.1" y="57.5" width="1.1" height="2.4"/>
	<rect y="57.5" width="1.1" height="2.4"/>
	<rect x="44.1" y="55.1" width="1.1" height="2.4"/>
	<rect x="43" y="55.1" width="1.1" height="2.4"/>
	<rect x="41.8" y="55.1" width="1.1" height="2.4"/>
	<rect x="40.7" y="55.1" width="1.1" height="2.4"/>
	<rect x="39.6" y="55.1" width="1.1" height="2.4"/>
	<rect x="38.4" y="55.1" width="1.1" height="2.4"/>
	<rect x="37.3" y="55.1" width="1.1" height="2.4"/>
	<rect x="36.2" y="55.1" width="1.1" height="2.4"/>
	<rect x="35.1" y="55.1" width="1.1" height="2.4"/>
	<rect x="33.9" y="55.1" width="1.1" height="2.4"/>
	<rect x="32.8" y="55.1" width="1.1" height="2.4"/>
	<rect x="31.7" y="55.1" width="1.1" height="2.4"/>
	<rect x="30.5" y="55.1" width="1.1" height="2.4"/>
	<rect x="29.4" y="55.1" class="st2" width="1.1" height="2.4"/>
	<rect x="14.7" y="55.1" width="1.1" height="2.4"/>
	<rect x="13.5" y="55.1" width="1.1" height="2.4"/>
	<rect x="12.4" y="55.1" width="1.1" height="2.4"/>
	<rect x="11.3" y="55.1" width="1.1" height="2.4"/>
	<rect x="10.2" y="55.1" width="1.1" height="2.4"/>
	<rect x="9.1" y="55.1" width="1.1" height="2.4"/>
	<rect x="7.9" y="55.1" width="1.1" height="2.4"/>
	<rect x="6.8" y="55.1" width="1.1" height="2.4"/>
	<rect x="5.6" y="55.1" width="1.1" height="2.4"/>
	<rect x="4.5" y="55.1" width="1.1" height="2.4"/>
	<rect x="3.4" y="55.1" width="1.1" height="2.4"/>
	<rect x="2.3" y="55.1" width="1.1" height="2.4"/>
	<rect x="1.1" y="55.1" width="1.1" height="2.4"/>
	<rect y="55.1" width="1.1" height="2.4"/>
	<rect x="44.1" y="52.7" width="1.1" height="2.4"/>
	<rect x="43" y="52.7" width="1.1" height="2.4"/>
	<rect x="41.8" y="52.7" width="1.1" height="2.4"/>
	<rect x="40.7" y="52.7" width="1.1" height="2.4"/>
	<rect x="39.6" y="52.7" width="1.1" height="2.4"/>
	<rect x="38.4" y="52.7" width="1.1" height="2.4"/>
	<rect x="37.3" y="52.7" width="1.1" height="2.4"/>
	<rect x="36.2" y="52.7" width="1.1" height="2.4"/>
	<rect x="35.1" y="52.7" width="1.1" height="2.4"/>
	<rect x="33.9" y="52.7" width="1.1" height="2.4"/>
	<rect x="32.8" y="52.7" width="1.1" height="2.4"/>
	<rect x="31.7" y="52.7" width="1.1" height="2.4"/>
	<rect x="30.5" y="52.7" width="1.1" height="2.4"/>
	<rect x="29.4" y="52.7" class="st2" width="1.1" height="2.4"/>
	<rect x="14.7" y="52.7" width="1.1" height="2.4"/>
	<rect x="13.5" y="52.7" width="1.1" height="2.4"/>
	<rect x="12.4" y="52.7" width="1.1" height="2.4"/>
	<rect x="11.3" y="52.7" width="1.1" height="2.4"/>
	<rect x="10.2" y="52.7" width="1.1" height="2.4"/>
	<rect x="9.1" y="52.7" width="1.1" height="2.4"/>
	<rect x="7.9" y="52.7" width="1.1" height="2.4"/>
	<rect x="6.8" y="52.7" width="1.1" height="2.4"/>
	<rect x="5.6" y="52.7" width="1.1" height="2.4"/>
	<rect x="4.5" y="52.7" width="1.1" height="2.4"/>
	<rect x="3.4" y="52.7" width="1.1" height="2.4"/>
	<rect x="2.3" y="52.7" width="1.1" height="2.4"/>
	<rect x="1.1" y="52.7" width="1.1" height="2.4"/>
	<rect y="52.7" width="1.1" height="2.4"/>
	<rect x="44.1" y="50.3" width="1.1" height="2.4"/>
	<rect x="43" y="50.3" width="1.1" height="2.4"/>
	<rect x="41.8" y="50.3" width="1.1" height="2.4"/>
	<rect x="40.7" y="50.3" width="1.1" height="2.4"/>
	<rect x="39.6" y="50.3" width="1.1" height="2.4"/>
	<rect x="38.4" y="50.3" width="1.1" height="2.4"/>
	<rect x="37.3" y="50.3" width="1.1" height="2.4"/>
	<rect x="36.2" y="50.3" width="1.1" height="2.4"/>
	<rect x="35.1" y="50.3" width="1.1" height="2.4"/>
	<rect x="33.9" y="50.3" width="1.1" height="2.4"/>
	<rect x="32.8" y="50.3" width="1.1" height="2.4"/>
	<rect x="31.7" y="50.3" width="1.1" height="2.4"/>
	<rect x="30.5" y="50.3" width="1.1" height="2.4"/>
	<rect x="29.4" y="50.3" class="st2" width="1.1" height="2.4"/>
	<rect x="14.7" y="50.3" width="1.1" height="2.4"/>
	<rect x="13.5" y="50.3" width="1.1" height="2.4"/>
	<rect x="12.4" y="50.3" width="1.1" height="2.4"/>
	<rect x="11.3" y="50.3" width="1.1" height="2.4"/>
	<rect x="10.2" y="50.3" width="1.1" height="2.4"/>
	<rect x="9.1" y="50.3" width="1.1" height="2.4"/>
	<rect x="7.9" y="50.3" width="1.1" height="2.4"/>
	<rect x="6.8" y="50.3" width="1.1" height="2.4"/>
	<rect x="5.6" y="50.3" width="1.1" height="2.4"/>
	<rect x="4.5" y="50.3" width="1.1" height="2.4"/>
	<rect x="3.4" y="50.3" width="1.1" height="2.4"/>
	<rect x="2.3" y="50.3" width="1.1" height="2.4"/>
	<rect x="1.1" y="50.3" width="1.1" height="2.4"/>
	<rect y="50.3" width="1.1" height="2.4"/>
	<rect x="44.1" y="47.9" width="1.1" height="2.4"/>
	<rect x="43" y="47.9" width="1.1" height="2.4"/>
	<rect x="41.8" y="47.9" width="1.1" height="2.4"/>
	<rect x="40.7" y="47.9" width="1.1" height="2.4"/>
	<rect x="39.6" y="47.9" width="1.1" height="2.4"/>
	<rect x="38.4" y="47.9" width="1.1" height="2.4"/>
	<rect x="37.3" y="47.9" width="1.1" height="2.4"/>
	<rect x="36.2" y="47.9" width="1.1" height="2.4"/>
	<rect x="35.1" y="47.9" width="1.1" height="2.4"/>
	<rect x="33.9" y="47.9" width="1.1" height="2.4"/>
	<rect x="32.8" y="47.9" width="1.1" height="2.4"/>
	<rect x="31.7" y="47.9" width="1.1" height="2.4"/>
	<rect x="30.5" y="47.9" width="1.1" height="2.4"/>
	<rect x="29.4" y="47.9" class="st3" width="1.1" height="2.4"/>
	<rect x="14.7" y="47.9" width="1.1" height="2.4"/>
	<rect x="13.5" y="47.9" width="1.1" height="2.4"/>
	<rect x="12.4" y="47.9" width="1.1" height="2.4"/>
	<rect x="11.3" y="47.9" width="1.1" height="2.4"/>
	<rect x="10.2" y="47.9" width="1.1" height="2.4"/>
	<rect x="9.1" y="47.9" width="1.1" height="2.4"/>
	<rect x="7.9" y="47.9" width="1.1" height="2.4"/>
	<rect x="6.8" y="47.9" width="1.1" height="2.4"/>
	<rect x="5.6" y="47.9" width="1.1" height="2.4"/>
	<rect x="4.5" y="47.9" width="1.1" height="2.4"/>
	<rect x="3.4" y="47.9" width="1.1" height="2.4"/>
	<rect x="2.3" y="47.9" width="1.1" height="2.4"/>
	<rect x="1.1" y="47.9" width="1.1" height="2.4"/>
	<rect y="47.9" width="1.1" height="2.4"/>
	<rect x="44.1" y="45.5" width="1.1" height="2.4"/>
	<rect x="43" y="45.5" width="1.1" height="2.4"/>
	<rect x="41.8" y="45.5" width="1.1" height="2.4"/>
	<rect x="40.7" y="45.5" width="1.1" height="2.4"/>
	<rect x="39.6" y="45.5" width="1.1" height="2.4"/>
	<rect x="38.4" y="45.5" width="1.1" height="2.4"/>
	<rect x="37.3" y="45.5" width="1.1" height="2.4"/>
	<rect x="36.2" y="45.5" width="1.1" height="2.4"/>
	<rect x="35.1" y="45.5" width="1.1" height="2.4"/>
	<rect x="33.9" y="45.5" width="1.1" height="2.4"/>
	<rect x="32.8" y="45.5" width="1.1" height="2.4"/>
	<rect x="31.7" y="45.5" width="1.1" height="2.4"/>
	<rect x="30.5" y="45.5" width="1.1" height="2.4"/>
	<rect x="29.4" y="45.5" class="st3" width="1.1" height="2.4"/>
	<rect x="14.7" y="45.5" width="1.1" height="2.4"/>
	<rect x="13.5" y="45.5" width="1.1" height="2.4"/>
	<rect x="12.4" y="45.5" width="1.1" height="2.4"/>
	<rect x="11.3" y="45.5" width="1.1" height="2.4"/>
	<rect x="10.2" y="45.5" width="1.1" height="2.4"/>
	<rect x="9.1" y="45.5" width="1.1" height="2.4"/>
	<rect x="7.9" y="45.5" width="1.1" height="2.4"/>
	<rect x="6.8" y="45.5" width="1.1" height="2.4"/>
	<rect x="5.6" y="45.5" width="1.1" height="2.4"/>
	<rect x="4.5" y="45.5" width="1.1" height="2.4"/>
	<rect x="3.4" y="45.5" width="1.1" height="2.4"/>
	<rect x="2.3" y="45.5" width="1.1" height="2.4"/>
	<rect x="1.1" y="45.5" width="1.1" height="2.4"/>
	<rect y="45.5" width="1.1" height="2.4"/>
	<rect x="44.1" y="43.1" width="1.1" height="2.4"/>
	<rect x="43" y="43.1" width="1.1" height="2.4"/>
	<rect x="41.8" y="43.1" width="1.1" height="2.4"/>
	<rect x="40.7" y="43.1" width="1.1" height="2.4"/>
	<rect x="39.6" y="43.1" width="1.1" height="2.4"/>
	<rect x="38.4" y="43.1" width="1.1" height="2.4"/>
	<rect x="37.3" y="43.1" width="1.1" height="2.4"/>
	<rect x="36.2" y="43.1" width="1.1" height="2.4"/>
	<rect x="35.1" y="43.1" width="1.1" height="2.4"/>
	<rect x="33.9" y="43.1" width="1.1" height="2.4"/>
	<rect x="32.8" y="43.1" width="1.1" height="2.4"/>
	<rect x="31.7" y="43.1" width="1.1" height="2.4"/>
	<rect x="30.5" y="43.1" width="1.1" height="2.4"/>
	<rect x="29.4" y="43.1" class="st3" width="1.1" height="2.4"/>
	<rect x="14.7" y="43.1" width="1.1" height="2.4"/>
	<rect x="13.5" y="43.1" width="1.1" height="2.4"/>
	<rect x="12.4" y="43.1" width="1.1" height="2.4"/>
	<rect x="11.3" y="43.1" width="1.1" height="2.4"/>
	<rect x="10.2" y="43.1" width="1.1" height="2.4"/>
	<rect x="9.1" y="43.1" width="1.1" height="2.4"/>
	<rect x="7.9" y="43.1" width="1.1" height="2.4"/>
	<rect x="6.8" y="43.1" width="1.1" height="2.4"/>
	<rect x="5.6" y="43.1" width="1.1" height="2.4"/>
	<rect x="4.5" y="43.1" width="1.1" height="2.4"/>
	<rect x="3.4" y="43.1" width="1.1" height="2.4"/>
	<rect x="2.3" y="43.1" width="1.1" height="2.4"/>
	<rect x="1.1" y="43.1" width="1.1" height="2.4"/>
	<rect y="43.1" width="1.1" height="2.4"/>
	<rect x="44.1" y="40.7" width="1.1" height="2.4"/>
	<rect x="43" y="40.7" width="1.1" height="2.4"/>
	<rect x="41.8" y="40.7" width="1.1" height="2.4"/>
	<rect x="40.7" y="40.7" width="1.1" height="2.4"/>
	<rect x="39.6" y="40.7" width="1.1" height="2.4"/>
	<rect x="38.4" y="40.7" width="1.1" height="2.4"/>
	<rect x="37.3" y="40.7" width="1.1" height="2.4"/>
	<rect x="36.2" y="40.7" width="1.1" height="2.4"/>
	<rect x="35.1" y="40.7" width="1.1" height="2.4"/>
	<rect x="33.9" y="40.7" width="1.1" height="2.4"/>
	<rect x="32.8" y="40.7" width="1.1" height="2.4"/>
	<rect x="31.7" y="40.7" width="1.1" height="2.4"/>
	<rect x="30.5" y="40.7" width="1.1" height="2.4"/>
	<rect x="29.4" y="40.7" class="st3" width="1.1" height="2.4"/>
	<rect x="14.7" y="40.7" width="1.1" height="2.4"/>
	<rect x="13.5" y="40.7" width="1.1" height="2.4"/>
	<rect x="12.4" y="40.7" width="1.1" height="2.4"/>
	<rect x="11.3" y="40.7" width="1.1" height="2.4"/>
	<rect x="10.2" y="40.7" width="1.1" height="2.4"/>
	<rect x="9.1" y="40.7" width="1.1" height="2.4"/>
	<rect x="7.9" y="40.7" width="1.1" height="2.4"/>
	<rect x="6.8" y="40.7" width="1.1" height="2.4"/>
	<rect x="5.6" y="40.7" width="1.1" height="2.4"/>
	<rect x="4.5" y="40.7" width="1.1" height="2.4"/>
	<rect x="3.4" y="40.7" width="1.1" height="2.4"/>
	<rect x="2.3" y="40.7" width="1.1" height="2.4"/>
	<rect x="1.1" y="40.7" width="1.1" height="2.4"/>
	<rect y="40.7" width="1.1" height="2.4"/>
	<rect x="44.1" y="38.3" width="1.1" height="2.4"/>
	<rect x="43" y="38.3" width="1.1" height="2.4"/>
	<rect x="41.8" y="38.3" width="1.1" height="2.4"/>
	<rect x="40.7" y="38.3" width="1.1" height="2.4"/>
	<rect x="39.6" y="38.3" width="1.1" height="2.4"/>
	<rect x="38.4" y="38.3" width="1.1" height="2.4"/>
	<rect x="37.3" y="38.3" width="1.1" height="2.4"/>
	<rect x="36.2" y="38.3" width="1.1" height="2.4"/>
	<rect x="35.1" y="38.3" width="1.1" height="2.4"/>
	<rect x="33.9" y="38.3" width="1.1" height="2.4"/>
	<rect x="32.8" y="38.3" width="1.1" height="2.4"/>
	<rect x="31.7" y="38.3" width="1.1" height="2.4"/>
	<rect x="30.5" y="38.3" width="1.1" height="2.4"/>
	<rect x="29.4" y="38.3" class="st3" width="1.1" height="2.4"/>
	<rect x="13.5" y="38.3" width="1.1" height="2.4"/>
	<rect x="12.4" y="38.3" width="1.1" height="2.4"/>
	<rect x="11.3" y="38.3" width="1.1" height="2.4"/>
	<rect x="10.2" y="38.3" width="1.1" height="2.4"/>
	<rect x="9.1" y="38.3" width="1.1" height="2.4"/>
	<rect x="7.9" y="38.3" width="1.1" height="2.4"/>
	<rect x="6.8" y="38.3" width="1.1" height="2.4"/>
	<rect x="5.6" y="38.3" width="1.1" height="2.4"/>
	<rect x="4.5" y="38.3" width="1.1" height="2.4"/>
	<rect x="3.4" y="38.3" width="1.1" height="2.4"/>
	<rect x="2.3" y="38.3" width="1.1" height="2.4"/>
	<rect x="1.1" y="38.3" width="1.1" height="2.4"/>
	<rect y="38.3" width="1.1" height="2.4"/>
	<rect x="44.1" y="35.9" width="1.1" height="2.4"/>
	<rect x="43" y="35.9" width="1.1" height="2.4"/>
	<rect x="41.8" y="35.9" width="1.1" height="2.4"/>
	<rect x="40.7" y="35.9" width="1.1" height="2.4"/>
	<rect x="39.6" y="35.9" width="1.1" height="2.4"/>
	<rect x="38.4" y="35.9" width="1.1" height="2.4"/>
	<rect x="37.3" y="35.9" width="1.1" height="2.4"/>
	<rect x="36.2" y="35.9" width="1.1" height="2.4"/>
	<rect x="35.1" y="35.9" width="1.1" height="2.4"/>
	<rect x="33.9" y="35.9" width="1.1" height="2.4"/>
	<rect x="32.8" y="35.9" width="1.1" height="2.4"/>
	<rect x="31.7" y="35.9" width="1.1" height="2.4"/>
	<rect x="30.5" y="35.9" width="1.1" height="2.4"/>
	<rect x="29.4" y="35.9" class="st3" width="1.1" height="2.4"/>
	<rect x="11.3" y="35.9" width="1.1" height="2.4"/>
	<rect x="10.2" y="35.9" width="1.1" height="2.4"/>
	<rect x="9.1" y="35.9" width="1.1" height="2.4"/>
	<rect x="7.9" y="35.9" width="1.1" height="2.4"/>
	<rect x="6.8" y="35.9" width="1.1" height="2.4"/>
	<rect x="5.6" y="35.9" width="1.1" height="2.4"/>
	<rect x="4.5" y="35.9" width="1.1" height="2.4"/>
	<rect x="3.4" y="35.9" width="1.1" height="2.4"/>
	<rect x="2.3" y="35.9" width="1.1" height="2.4"/>
	<rect x="1.1" y="35.9" width="1.1" height="2.4"/>
	<rect y="35.9" width="1.1" height="2.4"/>
	<rect x="44.1" y="33.5" width="1.1" height="2.4"/>
	<rect x="43" y="33.5" width="1.1" height="2.4"/>
	<rect x="41.8" y="33.5" width="1.1" height="2.4"/>
	<rect x="40.7" y="33.5" width="1.1" height="2.4"/>
	<rect x="39.6" y="33.5" width="1.1" height="2.4"/>
	<rect x="38.4" y="33.5" width="1.1" height="2.4"/>
	<rect x="37.3" y="33.5" width="1.1" height="2.4"/>
	<rect x="36.2" y="33.5" width="1.1" height="2.4"/>
	<rect x="35.1" y="33.5" width="1.1" height="2.4"/>
	<rect x="33.9" y="33.5" width="1.1" height="2.4"/>
	<rect x="32.8" y="33.5" width="1.1" height="2.4"/>
	<rect x="31.7" y="33.5" width="1.1" height="2.4"/>
	<rect x="30.5" y="33.5" width="1.1" height="2.4"/>
	<rect x="29.4" y="33.5" width="1.1" height="2.4"/>
	<rect x="28.3" y="33.5" width="1.1" height="2.4"/>
	<rect x="9.1" y="33.5" width="1.1" height="2.4"/>
	<rect x="7.9" y="33.5" width="1.1" height="2.4"/>
	<rect x="6.8" y="33.5" width="1.1" height="2.4"/>
	<rect x="5.6" y="33.5" width="1.1" height="2.4"/>
	<rect x="4.5" y="33.5" width="1.1" height="2.4"/>
	<rect x="3.4" y="33.5" width="1.1" height="2.4"/>
	<rect x="2.3" y="33.5" width="1.1" height="2.4"/>
	<rect x="1.1" y="33.5" width="1.1" height="2.4"/>
	<rect y="33.5" width="1.1" height="2.4"/>
	<rect x="44.1" y="31.1" width="1.1" height="2.4"/>
	<rect x="43" y="31.1" width="1.1" height="2.4"/>
	<rect x="41.8" y="31.1" width="1.1" height="2.4"/>
	<rect x="40.7" y="31.1" width="1.1" height="2.4"/>
	<rect x="39.6" y="31.1" width="1.1" height="2.4"/>
	<rect x="38.4" y="31.1" width="1.1" height="2.4"/>
	<rect x="37.3" y="31.1" width="1.1" height="2.4"/>
	<rect x="36.2" y="31.1" width="1.1" height="2.4"/>
	<rect x="35.1" y="31.1" width="1.1" height="2.4"/>
	<rect x="33.9" y="31.1" width="1.1" height="2.4"/>
	<rect x="32.8" y="31.1" width="1.1" height="2.4"/>
	<rect x="31.7" y="31.1" width="1.1" height="2.4"/>
	<rect x="30.5" y="31.1" width="1.1" height="2.4"/>
	<rect x="29.4" y="31.1" width="1.1" height="2.4"/>
	<rect x="28.3" y="31.1" width="1.1" height="2.4"/>
	<rect x="27.2" y="31.1" width="1.1" height="2.4"/>
	<rect x="26" y="31.1" width="1.1" height="2.4"/>
	<rect x="6.8" y="31.1" width="1.1" height="2.4"/>
	<rect x="5.6" y="31.1" width="1.1" height="2.4"/>
	<rect x="4.5" y="31.1" width="1.1" height="2.4"/>
	<rect x="3.4" y="31.1" width="1.1" height="2.4"/>
	<rect x="2.3" y="31.1" width="1.1" height="2.4"/>
	<rect x="1.1" y="31.1" width="1.1" height="2.4"/>
	<rect y="31.1" width="1.1" height="2.4"/>
	<rect x="44.1" y="28.7" width="1.1" height="2.4"/>
	<rect x="43" y="28.7" width="1.1" height="2.4"/>
	<rect x="41.8" y="28.7" width="1.1" height="2.4"/>
	<rect x="40.7" y="28.7" width="1.1" height="2.4"/>
	<rect x="39.6" y="28.7" width="1.1" height="2.4"/>
	<rect x="38.4" y="28.7" width="1.1" height="2.4"/>
	<rect x="37.3" y="28.7" width="1.1" height="2.4"/>
	<rect x="36.2" y="28.7" width="1.1" height="2.4"/>
	<rect x="35.1" y="28.7" width="1.1" height="2.4"/>
	<rect x="33.9" y="28.7" width="1.1" height="2.4"/>
	<rect x="32.8" y="28.7" width="1.1" height="2.4"/>
	<rect x="31.7" y="28.7" width="1.1" height="2.4"/>
	<rect x="30.5" y="28.7" width="1.1" height="2.4"/>
	<rect x="29.4" y="28.7" width="1.1" height="2.4"/>
	<rect x="28.3" y="28.7" width="1.1" height="2.4"/>
	<rect x="27.2" y="28.7" width="1.1" height="2.4"/>
	<rect x="26" y="28.7" width="1.1" height="2.4"/>
	<rect x="24.9" y="28.7" width="1.1" height="2.4"/>
	<rect x="23.7" y="28.7" width="1.1" height="2.4"/>
	<rect x="4.5" y="28.7" width="1.1" height="2.4"/>
	<rect x="3.4" y="28.7" width="1.1" height="2.4"/>
	<rect x="2.3" y="28.7" width="1.1" height="2.4"/>
	<rect x="1.1" y="28.7" width="1.1" height="2.4"/>
	<rect y="28.7" width="1.1" height="2.4"/>
	<rect x="43" y="26.3" width="1.1" height="2.4"/>
	<rect x="41.8" y="26.3" width="1.1" height="2.4"/>
	<rect x="40.7" y="26.3" width="1.1" height="2.4"/>
	<rect x="39.6" y="26.3" width="1.1" height="2.4"/>
	<rect x="38.4" y="26.3" width="1.1" height="2.4"/>
	<rect x="37.3" y="26.3" width="1.1" height="2.4"/>
	<rect x="36.2" y="26.3" width="1.1" height="2.4"/>
	<rect x="35.1" y="26.3" width="1.1" height="2.4"/>
	<rect x="33.9" y="26.3" width="1.1" height="2.4"/>
	<rect x="32.8" y="26.3" width="1.1" height="2.4"/>
	<rect x="31.7" y="26.3" width="1.1" height="2.4"/>
	<rect x="30.5" y="26.3" width="1.1" height="2.4"/>
	<rect x="29.4" y="26.3" width="1.1" height="2.4"/>
	<rect x="28.3" y="26.3" width="1.1" height="2.4"/>
	<rect x="27.2" y="26.3" width="1.1" height="2.4"/>
	<rect x="26" y="26.3" width="1.1" height="2.4"/>
	<rect x="24.9" y="26.3" width="1.1" height="2.4"/>
	<rect x="23.7" y="26.3" width="1.1" height="2.4"/>
	<rect x="22.6" y="26.3" width="1.1" height="2.4"/>
	<rect x="21.5" y="26.3" width="1.1" height="2.4"/>
	<rect x="40.7" y="23.9" width="1.1" height="2.4"/>
	<rect x="39.6" y="23.9" width="1.1" height="2.4"/>
	<rect x="38.4" y="23.9" width="1.1" height="2.4"/>
	<rect x="37.3" y="23.9" width="1.1" height="2.4"/>
	<rect x="36.2" y="23.9" width="1.1" height="2.4"/>
	<rect x="35.1" y="23.9" width="1.1" height="2.4"/>
	<rect x="33.9" y="23.9" width="1.1" height="2.4"/>
	<rect x="32.8" y="23.9" width="1.1" height="2.4"/>
	<rect x="31.7" y="23.9" width="1.1" height="2.4"/>
	<rect x="30.5" y="23.9" width="1.1" height="2.4"/>
	<rect x="29.4" y="23.9" width="1.1" height="2.4"/>
	<rect x="28.3" y="23.9" width="1.1" height="2.4"/>
	<rect x="27.2" y="23.9" width="1.1" height="2.4"/>
	<rect x="26" y="23.9" width="1.1" height="2.4"/>
	<rect x="24.9" y="23.9" width="1.1" height="2.4"/>
	<rect x="23.7" y="23.9" width="1.1" height="2.4"/>
	<rect x="22.6" y="23.9" width="1.1" height="2.4"/>
	<rect x="21.5" y="23.9" width="1.1" height="2.4"/>
	<rect x="20.4" y="23.9" width="1.1" height="2.4"/>
	<rect x="19.2" y="23.9" width="1.1" height="2.4"/>
	<rect x="18.1" y="23.9" class="st4" width="1.1" height="2.4"/>
	<rect x="37.3" y="21.5" width="1.1" height="2.4"/>
	<rect x="36.2" y="21.5" width="1.1" height="2.4"/>
	<rect x="35.1" y="21.5" width="1.1" height="2.4"/>
	<rect x="33.9" y="21.5" width="1.1" height="2.4"/>
	<rect x="32.8" y="21.5" width="1.1" height="2.4"/>
	<rect x="31.7" y="21.5" width="1.1" height="2.4"/>
	<rect x="30.5" y="21.5" width="1.1" height="2.4"/>
	<rect x="29.4" y="21.5" width="1.1" height="2.4"/>
	<rect x="28.3" y="21.5" width="1.1" height="2.4"/>
	<rect x="27.2" y="21.5" width="1.1" height="2.4"/>
	<rect x="26" y="21.5" width="1.1" height="2.4"/>
	<rect x="24.9" y="21.5" width="1.1" height="2.4"/>
	<rect x="23.7" y="21.5" width="1.1" height="2.4"/>
	<rect x="22.6" y="21.5" width="1.1" height="2.4"/>
	<rect x="21.5" y="21.5" width="1.1" height="2.4"/>
	<rect x="20.4" y="21.5" width="1.1" height="2.4"/>
	<rect x="19.2" y="21.5" width="1.1" height="2.4"/>
	<rect x="18.1" y="21.5" width="1.1" height="2.4"/>
	<rect x="17" y="21.5" width="1.1" height="2.4"/>
	<rect x="15.8" y="21.5" class="st5" width="1.1" height="2.4"/>
	<rect x="33.9" y="19.1" width="1.1" height="2.4"/>
	<rect x="32.8" y="19.1" width="1.1" height="2.4"/>
	<rect x="31.7" y="19.1" width="1.1" height="2.4"/>
	<rect x="30.5" y="19.1" width="1.1" height="2.4"/>
	<rect x="29.4" y="19.1" width="1.1" height="2.4"/>
	<rect x="28.3" y="19.1" width="1.1" height="2.4"/>
	<rect x="27.2" y="19.1" width="1.1" height="2.4"/>
	<rect x="26" y="19.1" width="1.1" height="2.4"/>
	<rect x="24.9" y="19.1" width="1.1" height="2.4"/>
	<rect x="23.7" y="19.1" width="1.1" height="2.4"/>
	<rect x="22.6" y="19.1" width="1.1" height="2.4"/>
	<rect x="21.5" y="19.1" width="1.1" height="2.4"/>
	<rect x="20.4" y="19.1" width="1.1" height="2.4"/>
	<rect x="19.2" y="19.1" width="1.1" height="2.4"/>
	<rect x="18.1" y="19.1" width="1.1" height="2.4"/>
	<rect x="17" y="19.1" width="1.1" height="2.4"/>
	<rect x="15.8" y="19.1" width="1.1" height="2.4"/>
	<rect x="14.7" y="19.1" width="1.1" height="2.4"/>
	<rect x="13.5" y="19.1" class="st6" width="1.1" height="2.4"/>
	<rect x="30.5" y="16.8" width="1.1" height="2.4"/>
	<rect x="29.4" y="16.8" width="1.1" height="2.4"/>
	<rect x="28.3" y="16.8" width="1.1" height="2.4"/>
	<rect x="27.2" y="16.8" width="1.1" height="2.4"/>
	<rect x="26" y="16.8" width="1.1" height="2.4"/>
	<rect x="24.9" y="16.8" width="1.1" height="2.4"/>
	<rect x="23.7" y="16.8" width="1.1" height="2.4"/>
	<rect x="22.6" y="16.8" width="1.1" height="2.4"/>
	<rect x="21.5" y="16.8" width="1.1" height="2.4"/>
	<rect x="20.4" y="16.8" width="1.1" height="2.4"/>
	<rect x="19.2" y="16.8" width="1.1" height="2.4"/>
	<rect x="18.1" y="16.8" width="1.1" height="2.4"/>
	<rect x="17" y="16.8" width="1.1" height="2.4"/>
	<rect x="15.8" y="16.8" width="1.1" height="2.4"/>
	<rect x="14.7" y="16.8" width="1.1" height="2.4"/>
	<rect x="13.5" y="16.8" width="1.1" height="2.4"/>
	<rect x="12.4" y="16.8" width="1.1" height="2.4"/>
	<rect x="11.3" y="16.8" width="1.1" height="2.4"/>
	<rect x="27.2" y="14.4" width="1.1" height="2.4"/>
	<rect x="26" y="14.4" width="1.1" height="2.4"/>
	<rect x="24.9" y="14.4" width="1.1" height="2.4"/>
	<rect x="23.7" y="14.4" width="1.1" height="2.4"/>
	<rect x="22.6" y="14.4" width="1.1" height="2.4"/>
	<rect x="21.5" y="14.4" width="1.1" height="2.4"/>
	<rect x="20.4" y="14.4" width="1.1" height="2.4"/>
	<rect x="19.2" y="14.4" width="1.1" height="2.4"/>
	<rect x="18.1" y="14.4" width="1.1" height="2.4"/>
	<rect x="17" y="14.4" width="1.1" height="2.4"/>
	<rect x="15.8" y="14.4" width="1.1" height="2.4"/>
	<rect x="14.7" y="14.4" width="1.1" height="2.4"/>
	<rect x="13.5" y="14.4" width="1.1" height="2.4"/>
	<rect x="12.4" y="14.4" width="1.1" height="2.4"/>
	<rect x="11.3" y="14.4" width="1.1" height="2.4"/>
	<rect x="10.2" y="14.4" width="1.1" height="2.4"/>
	<rect x="9.1" y="14.4" width="1.1" height="2.4"/>
	<rect x="23.7" y="12" width="1.1" height="2.4"/>
	<rect x="22.6" y="12" width="1.1" height="2.4"/>
	<rect x="21.5" y="12" width="1.1" height="2.4"/>
	<rect x="20.4" y="12" width="1.1" height="2.4"/>
	<rect x="19.2" y="12" width="1.1" height="2.4"/>
	<rect x="18.1" y="12" width="1.1" height="2.4"/>
	<rect x="17" y="12" width="1.1" height="2.4"/>
	<rect x="15.8" y="12" width="1.1" height="2.4"/>
	<rect x="14.7" y="12" width="1.1" height="2.4"/>
	<rect x="13.5" y="12" width="1.1" height="2.4"/>
	<rect x="12.4" y="12" width="1.1" height="2.4"/>
	<rect x="11.3" y="12" width="1.1" height="2.4"/>
	<rect x="10.2" y="12" width="1.1" height="2.4"/>
	<rect x="9.1" y="12" width="1.1" height="2.4"/>
	<rect x="7.9" y="12" width="1.1" height="2.4"/>
	<rect x="6.8" y="12" width="1.1" height="2.4"/>
	<rect x="20.4" y="9.6" width="1.1" height="2.4"/>
	<rect x="19.2" y="9.6" width="1.1" height="2.4"/>
	<rect x="18.1" y="9.6" width="1.1" height="2.4"/>
	<rect x="17" y="9.6" width="1.1" height="2.4"/>
	<rect x="15.8" y="9.6" width="1.1" height="2.4"/>
	<rect x="14.7" y="9.6" width="1.1" height="2.4"/>
	<rect x="13.5" y="9.6" width="1.1" height="2.4"/>
	<rect x="12.4" y="9.6" width="1.1" height="2.4"/>
	<rect x="11.3" y="9.6" width="1.1" height="2.4"/>
	<rect x="10.2" y="9.6" width="1.1" height="2.4"/>
	<rect x="9.1" y="9.6" width="1.1" height="2.4"/>
	<rect x="7.9" y="9.6" width="1.1" height="2.4"/>
	<rect x="6.8" y="9.6" width="1.1" height="2.4"/>
	<rect x="5.6" y="9.6" width="1.1" height="2.4"/>
	<rect x="17" y="7.2" width="1.1" height="2.4"/>
	<rect x="15.8" y="7.2" width="1.1" height="2.4"/>
	<rect x="14.7" y="7.2" width="1.1" height="2.4"/>
	<rect x="13.5" y="7.2" width="1.1" height="2.4"/>
	<rect x="12.4" y="7.2" width="1.1" height="2.4"/>
	<rect x="11.3" y="7.2" width="1.1" height="2.4"/>
	<rect x="10.2" y="7.2" width="1.1" height="2.4"/>
	<rect x="9.1" y="7.2" width="1.1" height="2.4"/>
	<rect x="7.9" y="7.2" width="1.1" height="2.4"/>
	<rect x="6.8" y="7.2" width="1.1" height="2.4"/>
	<rect x="5.6" y="7.2" width="1.1" height="2.4"/>
	<rect x="13.5" y="4.8" width="1.1" height="2.4"/>
	<rect x="12.4" y="4.8" width="1.1" height="2.4"/>
	<rect x="11.3" y="4.8" width="1.1" height="2.4"/>
	<rect x="10.2" y="4.8" width="1.1" height="2.4"/>
	<rect x="9.1" y="4.8" width="1.1" height="2.4"/>
	<rect x="7.9" y="4.8" width="1.1" height="2.4"/>
	<rect x="6.8" y="4.8" width="1.1" height="2.4"/>
	<rect x="5.6" y="4.8" width="1.1" height="2.4"/>
	<rect x="4.5" y="4.8" width="1.1" height="2.4"/>
	<rect x="10.2" y="2.4" width="1.1" height="2.4"/>
	<rect x="9.1" y="2.4" width="1.1" height="2.4"/>
	<rect x="7.9" y="2.4" width="1.1" height="2.4"/>
	<rect x="6.8" y="2.4" width="1.1" height="2.4"/>
	<rect x="5.6" y="2.4" width="1.1" height="2.4"/>
	<rect x="4.5" y="2.4" width="1.1" height="2.4"/>
	<rect x="6.8" width="1.1" height="2.4"/>
	<rect x="5.6" width="1.1" height="2.4"/>
	<rect x="4.5" width="1.1" height="2.4"/>
</g>
</svg>
