<?xml version="1.0" encoding="utf-8"?>
<!-- Generator: Adobe Illustrator 22.0.1, SVG Export Plug-In . SVG Version: 6.00 Build 0)  -->
<svg version="1.1" id="Layer_1" xmlns="http://www.w3.org/2000/svg" xmlns:xlink="http://www.w3.org/1999/xlink" x="0px" y="0px"
	 width="345.4px" height="96.4px" viewBox="0 0 345.4 96.4" style="enable-background:new 0 0 345.4 96.4;" xml:space="preserve">
<style type="text/css">
	.st0{fill:#5895B7;}
	.st1{opacity:0.8;}
	.st2{fill:#C17620;}
	.st3{fill:#F4C24A;}
	.st4{fill:#FFFFFF;}
	.st5{fill:#2A6FBA;}
	.st6{fill:#4ABAEF;}
	.st7{fill:#95C9C8;}
	.st8{fill:#DDEFEE;}
	.st9{fill:#1B8E6F;}
	.st10{fill:#3CEA8A;}
	.st11{opacity:0.4;fill:#666666;}
	.st12{fill:#33BC6E;}
	.st13{fill:none;}
	.st14{fill:#7149A4;}
	.st15{fill:#BD86E0;}
	.st16{opacity:0.4;fill:#666666;stroke:#666666;stroke-width:4;stroke-linejoin:bevel;stroke-miterlimit:10;}
	.st17{fill:#F2F2F2;}
	.st18{fill:#E6E6E6;}
	.st19{fill:none;stroke:#000000;stroke-width:4;stroke-linejoin:bevel;stroke-miterlimit:10;}
	.st20{fill:#C6E0DE;}
	.st21{fill:#A7C6C3;}
	.st22{fill:#EE3D53;}
	.st23{fill:none;stroke:#000000;stroke-width:2;stroke-miterlimit:10;}
	.st24{fill:#A17559;}
	.st25{fill:#910E46;}
	.st26{fill:#238D6F;}
	.st27{fill:#704CA2;}
	.st28{fill:#47E88D;}
	.st29{fill:#BC88DE;}
	.st30{fill:#CCCCCC;}
	.st31{opacity:0.38;fill:#2D3D3E;}
	.st32{fill:#5B2616;}
	.st33{opacity:0.38;}
	.st34{fill:#2D3D3E;}
	.st35{fill:#3F180F;}
	.st36{fill:#1A1A1A;}
	.st37{fill:#38140C;}
</style>
<g>
	<rect x="-1630.2" y="2085.3" class="st0" width="484" height="82"/>
	<rect x="-1178.2" y="2159.3" class="st0" width="107" height="30"/>
	<g class="st1">
		<g>
			<polygon class="st0" points="-1614.2,2105.3 -1614.2,2187.3 -1710.2,2187.3 -1710.2,2176.3 -1698.2,2176.3 -1698.2,2164.3 
				-1686.2,2164.3 -1686.2,2152.3 -1674.2,2152.3 -1674.2,2140.3 -1686.2,2140.3 -1686.2,2128.3 -1698.2,2128.3 -1698.2,2116.3 
				-1710.2,2116.3 -1710.2,2105.3 			"/>
		</g>
		<polygon class="st0" points="-1628.2,2163.3 -1614.2,2186.3 -1614.3,2163.3 		"/>
	</g>
	<g>
		<g>
			<polygon class="st2" points="-1167.2,2097.3 -1167.2,2179.3 -1071.2,2179.3 -1071.2,2168.3 -1083.2,2168.3 -1083.2,2156.3 
				-1095.2,2156.3 -1095.2,2144.3 -1107.2,2144.3 -1107.2,2132.3 -1095.2,2132.3 -1095.2,2120.3 -1083.2,2120.3 -1083.2,2108.3 
				-1071.2,2108.3 -1071.2,2097.3 			"/>
			<polygon class="st3" points="-1167.2,2086.3 -1167.2,2168.3 -1071.2,2168.3 -1071.2,2157.3 -1083.2,2157.3 -1083.2,2145.3 
				-1095.2,2145.3 -1095.2,2133.3 -1107.2,2133.3 -1107.2,2121.3 -1095.2,2121.3 -1095.2,2109.3 -1083.2,2109.3 -1083.2,2097.3 
				-1071.2,2097.3 -1071.2,2086.3 			"/>
		</g>
		<polygon class="st2" points="-1153.2,2155.3 -1167.2,2178.3 -1167.2,2155.3 		"/>
		<g>
			<g>
				<polygon class="st2" points="-1623.2,2097.3 -1623.2,2179.3 -1719.2,2179.3 -1719.2,2168.3 -1707.2,2168.3 -1707.2,2156.3 
					-1695.2,2156.3 -1695.2,2144.3 -1683.2,2144.3 -1683.2,2132.3 -1695.2,2132.3 -1695.2,2120.3 -1707.2,2120.3 -1707.2,2108.3 
					-1719.2,2108.3 -1719.2,2097.3 				"/>
				<polygon class="st3" points="-1623.2,2086.3 -1623.2,2168.3 -1719.2,2168.3 -1719.2,2157.3 -1707.2,2157.3 -1707.2,2145.3 
					-1695.2,2145.3 -1695.2,2133.3 -1683.2,2133.3 -1683.2,2121.3 -1695.2,2121.3 -1695.2,2109.3 -1707.2,2109.3 -1707.2,2097.3 
					-1719.2,2097.3 -1719.2,2086.3 				"/>
			</g>
			<polygon class="st2" points="-1637.2,2155.3 -1623.2,2178.3 -1623.3,2155.3 			"/>
		</g>
		<g>
			<rect x="-1637.2" y="2073.3" class="st2" width="484" height="82"/>
			<rect x="-1637.2" y="2061.3" class="st3" width="484" height="82"/>
		</g>
	</g>
	<g>
		<path class="st4" d="M-1566.6,2121.1h-8.6v-34.6h8.6v13h8.6v-13h8.6v34.6h-8.6v-13h-8.6V2121.1z"/>
		<path class="st4" d="M-1545,2090.8h4.3v-4.3h17.3v4.3h4.3v25.9h-4.3v4.3h-17.3v-4.3h-4.3V2090.8z M-1536.4,2112.4h8.6v-17.3h-8.6
			V2112.4z"/>
		<path class="st4" d="M-1506.1,2121.1h-8.6v-34.6h8.6v17.3h4.3v-4.3h4.3v4.3h4.3v-17.3h8.6v34.6h-8.6v-4.3h-4.3v-4.3h-4.3v4.3h-4.3
			V2121.1z"/>
		<path class="st4" d="M-1450,2086.5h25.9v8.6h-8.6v25.9h-8.6v-25.9h-8.6V2086.5z"/>
		<path class="st4" d="M-1419.7,2090.8h4.3v-4.3h17.3v4.3h4.3v25.9h-4.3v4.3h-17.3v-4.3h-4.3V2090.8z M-1411.1,2112.4h8.6v-17.3
			h-8.6V2112.4z"/>
		<path class="st4" d="M-1350.6,2121.1h-8.6v-34.6h21.6v4.3h4.3v13h-4.3v4.3h-13V2121.1z M-1350.6,2099.5h8.6v-4.3h-8.6V2099.5z"/>
		<path class="st4" d="M-1324.7,2116.8h-4.3v-30.2h8.6v25.9h17.3v8.6h-21.6V2116.8z"/>
		<path class="st4" d="M-1290.1,2121.1h-8.6v-30.2h4.3v-4.3h17.3v4.3h4.3v30.2h-8.6v-13h-8.6V2121.1z M-1281.5,2099.5v-4.3h-8.6v4.3
			H-1281.5z"/>
		<path class="st4" d="M-1268.5,2086.5h8.6v13h8.6v-13h8.6v17.3h-4.3v4.3h-4.3v13h-8.6v-13h-4.3v-4.3h-4.3V2086.5z"/>
	</g>
</g>
<polygon class="st5" points="-1461.2,2354.3 -1473.2,2354.3 -1546.2,2354.3 -1546.2,2366.3 -1558.2,2366.3 -1558.2,2451.3 
	-1546.2,2451.3 -1546.2,2463.3 -1473.2,2463.3 -1461.2,2463.3 -1461.2,2451.3 -1449.2,2451.3 -1449.2,2366.3 -1461.2,2366.3 "/>
<polygon class="st5" points="-1461.2,2354.3 -1473.2,2354.3 -1546.2,2354.3 -1546.2,2366.3 -1558.2,2366.3 -1558.2,2451.3 
	-1546.2,2451.3 -1546.2,2463.3 -1473.2,2463.3 -1461.2,2463.3 -1461.2,2451.3 -1449.2,2451.3 -1449.2,2366.3 -1461.2,2366.3 "/>
<g>
	<path class="st4" d="M-1521.6,2388.5h28.4v5.7h5.7v17.1h-5.7v5.7h-17.1v-11.4h11.4v-5.7h-22.8V2388.5z M-1510.3,2422.6h11.4v11.4
		h-11.4V2422.6z"/>
</g>
<polygon class="st5" points="-1310.2,2354.3 -1322.2,2354.3 -1395.2,2354.3 -1395.2,2366.3 -1407.2,2366.3 -1407.2,2451.3 
	-1395.2,2451.3 -1395.2,2463.3 -1322.2,2463.3 -1310.2,2463.3 -1310.2,2451.3 -1298.2,2451.3 -1298.2,2366.3 -1310.2,2366.3 "/>
<polygon class="st6" points="-1310.2,2344.3 -1322.2,2344.3 -1395.2,2344.3 -1395.2,2356.3 -1407.2,2356.3 -1407.2,2441.3 
	-1395.2,2441.3 -1395.2,2453.3 -1322.2,2453.3 -1310.2,2453.3 -1310.2,2441.3 -1298.2,2441.3 -1298.2,2356.3 -1310.2,2356.3 "/>
<g>
	<path class="st4" d="M-1370.6,2378.5h28.4v5.7h5.7v17.1h-5.7v5.7h-17.1v-11.4h11.4v-5.7h-22.8V2378.5z M-1359.3,2412.6h11.4v11.4
		h-11.4V2412.6z"/>
</g>
<g>
	<polygon class="st0" points="-275.2,2198.8 -286.8,2198.8 -286.8,2187.2 -298.4,2187.2 -298.4,2174.4 -797.1,2174.4 -797.1,2187.2 
		-808.7,2187.2 -808.7,2198.8 -820.2,2198.8 -820.2,2883.5 -808.7,2883.5 -808.7,2895.2 -797.1,2895.2 -797.1,2908 -298.4,2908 
		-298.4,2895.2 -286.8,2895.2 -286.8,2883.5 -275.2,2883.5 	"/>
	<polygon class="st7" points="-275.2,2186.8 -286.8,2186.8 -286.8,2175.2 -298.4,2175.2 -298.4,2162.3 -797.1,2162.3 -797.1,2175.2 
		-808.7,2175.2 -808.7,2186.8 -820.2,2186.8 -820.2,2871.5 -808.7,2871.5 -808.7,2883.2 -797.1,2883.2 -797.1,2896 -298.4,2896 
		-298.4,2883.2 -286.8,2883.2 -286.8,2871.5 -275.2,2871.5 	"/>
	<polygon class="st8" points="-275.2,2174.8 -286.8,2174.8 -286.8,2163.1 -298.4,2163.1 -298.4,2150.3 -797.1,2150.3 -797.1,2163.1 
		-808.7,2163.1 -808.7,2174.8 -820.2,2174.8 -820.2,2859.5 -808.7,2859.5 -808.7,2871.1 -797.1,2871.1 -797.1,2883.9 -298.4,2883.9 
		-298.4,2871.1 -286.8,2871.1 -286.8,2859.5 -275.2,2859.5 	"/>
</g>
<g>
	<polygon class="st9" points="-1324.2,1834.3 -1334.3,1834.3 -1709.2,1834.3 -1709.2,1844.4 -1719.2,1844.4 -1719.2,1902.3 
		-1709.2,1902.3 -1709.2,1912.3 -1334.3,1912.3 -1324.2,1912.3 -1324.2,1902.3 -1314.1,1902.3 -1314.1,1844.4 -1324.2,1844.4 	"/>
	<polygon class="st10" points="-1324.2,1824.3 -1334.3,1824.3 -1709.2,1824.3 -1709.2,1834.4 -1719.2,1834.4 -1719.2,1892.3 
		-1709.2,1892.3 -1709.2,1902.3 -1334.3,1902.3 -1324.2,1902.3 -1324.2,1892.3 -1314.1,1892.3 -1314.1,1834.4 -1324.2,1834.4 	"/>
	<g>
		<path class="st4" d="M-1599.2,1875.2h-6.9v-27.6h17.3v3.5h3.5v10.4h-3.5v3.5h-10.4V1875.2z M-1599.2,1857.9h6.9v-3.5h-6.9V1857.9z
			"/>
		<path class="st4" d="M-1578.4,1871.7h-3.5v-24.2h6.9v20.7h13.8v6.9h-17.3V1871.7z"/>
		<path class="st4" d="M-1550.8,1875.2h-6.9V1851h3.5v-3.5h13.8v3.5h3.5v24.2h-6.9v-10.4h-6.9V1875.2z M-1543.9,1857.9v-3.5h-6.9
			v3.5H-1543.9z"/>
		<path class="st4" d="M-1533.5,1847.6h6.9v10.4h6.9v-10.4h6.9v13.8h-3.5v3.5h-3.5v10.4h-6.9v-10.4h-3.5v-3.5h-3.5V1847.6z"/>
		<path class="st4" d="M-1505.9,1871.7h-3.5V1851h3.5v-3.5h17.3v6.9h-13.8v3.5h6.9v6.9h-6.9v3.5h13.8v6.9h-17.3V1871.7z"/>
		<path class="st4" d="M-1474.8,1864.8h-3.5v10.4h-6.9v-27.6h17.3v3.5h3.5v10.4h-3.5v3.5h3.5v10.4h-6.9v-6.9h-3.5V1864.8z
			 M-1478.2,1857.9h6.9v-3.5h-6.9V1857.9z"/>
		<path class="st4" d="M-1436.7,1847.6h6.9v27.6h-6.9V1847.6z"/>
	</g>
</g>
<g>
	<polygon class="st11" points="-1685,1713.7 -1687,1708 -1691.1,1695.9 -1708.9,1702 -1706.9,1707.7 -1712.7,1709.7 -1708.6,1721.7 
		-1702.8,1719.8 -1700.9,1725.5 -1688.9,1721.5 -1690.8,1715.7 	"/>
	<polygon class="st11" points="-1646.2,1701.7 -1648.2,1695.9 -1652.3,1683.9 -1670.1,1689.9 -1668.1,1695.7 -1673.9,1697.6 
		-1669.8,1709.6 -1664,1707.7 -1662.1,1713.5 -1650.1,1709.4 -1652,1703.6 	"/>
	<rect x="-1705.8" y="1654.7" transform="matrix(0.9472 -0.3207 0.3207 0.9472 -626.821 -457.5229)" width="7.1" height="38.6"/>
	<polygon points="-1686.7,1708.9 -1688.6,1703.1 -1692.7,1691.1 -1710.5,1697.2 -1708.5,1702.9 -1714.3,1704.9 -1710.2,1716.9 
		-1704.5,1714.9 -1702.5,1720.7 -1690.5,1716.6 -1692.4,1710.9 	"/>
	<rect x="-1667.3" y="1641.7" transform="matrix(0.9472 -0.3207 0.3207 0.9472 -620.611 -445.8732)" width="7.1" height="38.6"/>
	<polygon points="-1648.2,1695.9 -1650.2,1690.1 -1654.2,1678.1 -1672,1684.1 -1670.1,1689.9 -1675.8,1691.8 -1671.8,1703.9 
		-1666,1701.9 -1664,1707.7 -1652,1703.6 -1654,1697.8 	"/>
	<rect x="-1715.8" y="1632.4" transform="matrix(0.9472 -0.3207 0.3207 0.9472 -615.7068 -455.9674)" width="47.7" height="17.3"/>
</g>
<g>
	<polygon class="st11" points="-1618.8,1747.3 -1617.9,1743.2 -1616,1734.5 -1628.8,1731.7 -1629.7,1735.8 -1633.9,1734.9 
		-1635.8,1743.6 -1631.6,1744.5 -1632.5,1748.6 -1623.9,1750.5 -1623,1746.4 	"/>
	<polygon class="st11" points="-1591.3,1754.1 -1590.4,1749.9 -1588.5,1741.3 -1601.3,1738.5 -1602.2,1742.6 -1606.4,1741.7 
		-1608.3,1750.4 -1604.1,1751.3 -1605,1755.4 -1596.4,1757.3 -1595.5,1753.2 	"/>
	<rect x="-1617.3" y="1703.9" transform="matrix(0.9766 0.2149 -0.2149 0.9766 331.3218 387.1193)" width="5" height="26.9"/>
	<polygon points="-1618.1,1743.8 -1617.2,1739.7 -1615.3,1731.1 -1628.1,1728.2 -1629,1732.4 -1633.1,1731.5 -1635,1740.1 
		-1630.9,1741 -1631.8,1745.2 -1623.1,1747.1 -1622.2,1742.9 	"/>
	<rect x="-1589.6" y="1710" transform="matrix(0.9766 0.2149 -0.2149 0.9766 333.2759 381.3173)" width="5" height="26.9"/>
	<polygon points="-1590.4,1749.9 -1589.5,1745.8 -1587.6,1737.1 -1600.4,1734.3 -1601.3,1738.5 -1605.5,1737.6 -1607.4,1746.2 
		-1603.2,1747.1 -1604.1,1751.3 -1595.5,1753.2 -1594.6,1749 	"/>
	<rect x="-1613.4" y="1695.4" transform="matrix(0.9766 0.2149 -0.2149 0.9766 328.31 382.8748)" width="33.3" height="12"/>
</g>
<g>
	<polygon class="st11" points="-1542.8,1685.5 -1543.5,1682.5 -1544.9,1676.1 -1554.3,1678.2 -1553.6,1681.3 -1556.7,1681.9 
		-1555.3,1688.3 -1552.2,1687.6 -1551.5,1690.6 -1545.2,1689.2 -1545.9,1686.2 	"/>
	<polygon class="st11" points="-1522.4,1681.5 -1523.1,1678.5 -1524.5,1672.1 -1533.9,1674.2 -1533.2,1677.2 -1536.2,1677.9 
		-1534.8,1684.3 -1531.8,1683.6 -1531.1,1686.6 -1524.8,1685.2 -1525.4,1682.2 	"/>
	<rect x="-1551.2" y="1654.4" transform="matrix(0.9761 -0.2173 0.2173 0.9761 -398.6557 -296.8988)" width="3.6" height="19.8"/>
	<polygon points="-1543.4,1683 -1544.1,1679.9 -1545.5,1673.6 -1554.9,1675.7 -1554.2,1678.7 -1557.2,1679.4 -1555.8,1685.7 
		-1552.8,1685.1 -1552.1,1688.1 -1545.7,1686.7 -1546.4,1683.6 	"/>
	<rect x="-1530.9" y="1649.9" transform="matrix(0.9761 -0.2173 0.2173 0.9761 -397.1881 -292.594)" width="3.6" height="19.8"/>
	<polygon points="-1523.1,1678.5 -1523.7,1675.4 -1525.2,1669.1 -1534.6,1671.1 -1533.9,1674.2 -1536.9,1674.9 -1535.5,1681.2 
		-1532.5,1680.5 -1531.8,1683.6 -1525.4,1682.2 -1526.1,1679.1 	"/>
	<rect x="-1554.6" y="1643.7" transform="matrix(0.9761 -0.2173 0.2173 0.9761 -394.9624 -295.7553)" width="24.4" height="8.8"/>
</g>
<g>
	<polygon class="st11" points="-1522.2,1731.3 -1519.6,1727.2 -1514.1,1718.6 -1526.8,1710.5 -1529.4,1714.6 -1533.6,1712 
		-1539,1720.6 -1534.9,1723.2 -1537.5,1727.3 -1528.9,1732.8 -1526.3,1728.7 	"/>
	<polygon class="st11" points="-1495.2,1749.4 -1492.6,1745.3 -1487.2,1736.7 -1499.8,1728.6 -1502.5,1732.8 -1506.6,1730.1 
		-1512,1738.7 -1507.9,1741.3 -1510.5,1745.4 -1501.9,1750.9 -1499.3,1746.8 	"/>
	<rect x="-1508.9" y="1685.2" transform="matrix(0.844 0.5363 -0.5363 0.844 677.1337 1072.9854)" width="5.7" height="30.9"/>
	<polygon points="-1520,1727.8 -1517.4,1723.7 -1512,1715.2 -1524.7,1707.1 -1527.3,1711.2 -1531.4,1708.6 -1536.8,1717.2 
		-1532.7,1719.8 -1535.3,1723.9 -1526.8,1729.3 -1524.1,1725.2 	"/>
	<rect x="-1481.5" y="1702.6" transform="matrix(0.844 0.5363 -0.5363 0.844 690.7581 1060.9945)" width="5.7" height="30.9"/>
	<polygon points="-1492.6,1745.3 -1490,1741.2 -1484.5,1732.6 -1497.2,1724.5 -1499.8,1728.6 -1504,1726 -1509.4,1734.6 
		-1505.3,1737.2 -1507.9,1741.3 -1499.3,1746.8 -1496.7,1742.7 	"/>
	<rect x="-1499.5" y="1683.6" transform="matrix(0.844 0.5363 -0.5363 0.844 675.7022 1057.6232)" width="38.2" height="13.8"/>
</g>
<g>
	<polygon class="st9" points="-1801,1290.9 -1807.6,1290.9 -2053.9,1290.9 -2053.9,1297.5 -2060.5,1297.5 -2060.5,1335.5 
		-2053.9,1335.5 -2053.9,1342.1 -1807.6,1342.1 -1801,1342.1 -1801,1335.5 -1794.3,1335.5 -1794.3,1297.5 -1801,1297.5 	"/>
	<polygon class="st12" points="-1801,1290.9 -1807.6,1290.9 -2053.9,1290.9 -2053.9,1297.5 -2060.5,1297.5 -2060.5,1335.5 
		-2053.9,1335.5 -2053.9,1342.1 -1807.6,1342.1 -1801,1342.1 -1801,1335.5 -1794.3,1335.5 -1794.3,1297.5 -1801,1297.5 	"/>
	<g>
		<path class="st4" d="M-1994.1,1308.4h2.3v-2.3h11.4v4.5h-9.1v9.1h9.1v4.5h-11.4v-2.3h-2.3V1308.4z"/>
		<path class="st4" d="M-1973.7,1324.3h-4.5v-15.9h2.3v-2.3h9.1v2.3h2.3v15.9h-4.5v-6.8h-4.5V1324.3z M-1969.2,1312.9v-2.3h-4.5v2.3
			H-1969.2z"/>
		<path class="st4" d="M-1960.1,1322h-2.3v-15.9h4.5v13.6h9.1v4.5h-11.4V1322z"/>
		<path class="st4" d="M-1946.5,1306.1h4.5v18.2h-4.5V1306.1z"/>
		<path class="st4" d="M-1939.6,1306.1h11.4v2.3h2.3v13.6h-2.3v2.3h-11.4V1306.1z M-1935.1,1312.9h4.5v-2.3h-4.5V1312.9z
			 M-1935.1,1319.7h4.5v-2.3h-4.5V1319.7z"/>
		<path class="st4" d="M-1916.9,1317.5h-2.3v6.8h-4.5v-15.9h2.3v-2.3h9.1v2.3h2.3v6.8h-2.3v2.3h2.3v6.8h-4.5v-4.5h-2.3V1317.5z
			 M-1919.2,1312.9h4.5v-2.3h-4.5V1312.9z"/>
		<path class="st4" d="M-1903.3,1324.3h-4.5v-15.9h2.3v-2.3h9.1v2.3h2.3v15.9h-4.5v-6.8h-4.5V1324.3z M-1898.8,1312.9v-2.3h-4.5v2.3
			H-1898.8z"/>
		<path class="st4" d="M-1891.9,1306.1h13.6v4.5h-4.5v13.6h-4.5v-13.6h-4.5V1306.1z"/>
		<path class="st4" d="M-1873.8,1322h-2.3v-13.6h2.3v-2.3h11.4v4.5h-9.1v2.3h4.5v4.5h-4.5v2.3h9.1v4.5h-11.4V1322z"/>
	</g>
</g>
<g>
	<polygon class="st9" points="-1481,1358.9 -1487.6,1358.9 -1733.9,1358.9 -1733.9,1365.5 -1740.5,1365.5 -1740.5,1403.5 
		-1733.9,1403.5 -1733.9,1410.1 -1487.6,1410.1 -1481,1410.1 -1481,1403.5 -1474.3,1403.5 -1474.3,1365.5 -1481,1365.5 	"/>
	<polygon class="st10" points="-1481,1352.3 -1487.6,1352.3 -1733.9,1352.3 -1733.9,1358.9 -1740.5,1358.9 -1740.5,1396.9 
		-1733.9,1396.9 -1733.9,1403.5 -1487.6,1403.5 -1481,1403.5 -1481,1396.9 -1474.3,1396.9 -1474.3,1358.9 -1481,1358.9 	"/>
	<g>
		<path class="st4" d="M-1674.1,1369.8h2.3v-2.3h11.4v4.5h-9.1v9.1h9.1v4.5h-11.4v-2.3h-2.3V1369.8z"/>
		<path class="st4" d="M-1653.7,1385.7h-4.5v-15.9h2.3v-2.3h9.1v2.3h2.3v15.9h-4.5v-6.8h-4.5V1385.7z M-1649.2,1374.4v-2.3h-4.5v2.3
			H-1649.2z"/>
		<path class="st4" d="M-1640.1,1383.4h-2.3v-15.9h4.5v13.6h9.1v4.5h-11.4V1383.4z"/>
		<path class="st4" d="M-1626.5,1367.6h4.5v18.2h-4.5V1367.6z"/>
		<path class="st4" d="M-1619.6,1367.6h11.4v2.3h2.3v13.6h-2.3v2.3h-11.4V1367.6z M-1615.1,1374.4h4.5v-2.3h-4.5V1374.4z
			 M-1615.1,1381.2h4.5v-2.3h-4.5V1381.2z"/>
		<path class="st4" d="M-1596.9,1378.9h-2.3v6.8h-4.5v-15.9h2.3v-2.3h9.1v2.3h2.3v6.8h-2.3v2.3h2.3v6.8h-4.5v-4.5h-2.3V1378.9z
			 M-1599.2,1374.4h4.5v-2.3h-4.5V1374.4z"/>
		<path class="st4" d="M-1583.3,1385.7h-4.5v-15.9h2.3v-2.3h9.1v2.3h2.3v15.9h-4.5v-6.8h-4.5V1385.7z M-1578.8,1374.4v-2.3h-4.5v2.3
			H-1578.8z"/>
		<path class="st4" d="M-1571.9,1367.6h13.6v4.5h-4.5v13.6h-4.5v-13.6h-4.5V1367.6z"/>
		<path class="st4" d="M-1553.8,1383.4h-2.3v-13.6h2.3v-2.3h11.4v4.5h-9.1v2.3h4.5v4.5h-4.5v2.3h9.1v4.5h-11.4V1383.4z"/>
	</g>
</g>
<g>
	<rect x="-1739" y="1441.2" class="st9" width="219.8" height="28.8"/>
	<rect x="-1743.8" y="1434.7" class="st9" width="229.4" height="30.6"/>
	<polygon class="st10" points="-1743.8,1430.3 -1743.8,1459.6 -1739,1459.6 -1739,1465.2 -1519.2,1465.2 -1519.2,1459.6 
		-1514.4,1459.6 -1514.4,1430.3 	"/>
</g>
<polygon class="st9" points="-1524,1445.1 -1524,1440 -1529.1,1440 -1529.1,1439.9 -1585.8,1439.9 -1616.3,1439.9 -1641.9,1439.9 
	-1665.8,1439.9 -1729.1,1439.9 -1729.1,1440 -1734.2,1440 -1734.2,1445.1 -1739.3,1445.1 -1739.3,1452.7 -1734.2,1452.7 
	-1734.2,1457.8 -1729.1,1457.8 -1729.1,1457.9 -1665.8,1457.9 -1641.9,1457.9 -1616.3,1457.9 -1585.8,1457.9 -1529.1,1457.9 
	-1529.1,1457.9 -1524,1457.9 -1524,1452.8 -1518.9,1452.8 -1518.9,1445.1 "/>
<g>
	<rect x="-1747.9" y="1539.2" class="st13" width="4.7" height="0.1"/>
	<rect x="-1747.9" y="1557.1" class="st13" width="4.7" height="0.1"/>
	<polygon class="st4" points="-1726.9,1557.2 -1726.9,1552.1 -1721.8,1552.1 -1721.8,1544.4 -1726.9,1544.4 -1726.9,1539.3 
		-1732,1539.3 -1732,1539.2 -1743.2,1539.2 -1743.2,1539.3 -1747.9,1539.3 -1747.9,1557.1 -1743.2,1557.1 -1743.2,1557.2 
		-1732,1557.2 -1732,1557.2 	"/>
</g>
<g>
	<polygon class="st4" points="-1773.7,1503.7 -1773.7,1498.6 -1778.8,1498.6 -1778.8,1498.5 -1794.7,1498.5 -1794.7,1516.5 
		-1778.8,1516.5 -1778.8,1516.4 -1773.7,1516.4 -1773.7,1511.3 -1768.6,1511.3 -1768.6,1503.7 	"/>
	<polygon class="st4" points="-1787.2,1542.5 -1787.2,1537.4 -1787.2,1537.4 -1787.2,1537.3 -1791.7,1537.3 -1792.3,1537.3 
		-1796.8,1537.3 -1796.8,1537.4 -1796.8,1537.4 -1796.8,1542.5 -1801.9,1542.5 -1801.9,1550.1 -1796.8,1550.1 -1796.8,1555.2 
		-1796.8,1555.2 -1796.8,1555.3 -1792.3,1555.3 -1791.7,1555.3 -1787.2,1555.3 -1787.2,1555.3 -1787.2,1555.3 -1787.2,1550.2 
		-1782.1,1550.2 -1782.1,1542.5 	"/>
</g>
<polygon class="st4" points="-1837,1445.1 -1837,1440 -1837,1440 -1837,1439.9 -1841.5,1439.9 -1842.1,1439.9 -1846.6,1439.9 
	-1846.6,1440 -1846.6,1440 -1846.6,1445.1 -1851.7,1445.1 -1851.7,1452.7 -1846.6,1452.7 -1846.6,1457.8 -1846.6,1457.8 
	-1846.6,1457.9 -1842.1,1457.9 -1841.5,1457.9 -1837,1457.9 -1837,1457.9 -1837,1457.9 -1837,1452.8 -1831.9,1452.8 -1831.9,1445.1 
	"/>
<polygon class="st14" points="-871.2,1834.3 -881.3,1834.3 -1256.2,1834.3 -1256.2,1844.4 -1266.2,1844.4 -1266.2,1902.3 
	-1256.2,1902.3 -1256.2,1912.3 -881.3,1912.3 -871.2,1912.3 -871.2,1902.3 -861.1,1902.3 -861.1,1844.4 -871.2,1844.4 "/>
<polygon class="st15" points="-871.2,1824.3 -881.3,1824.3 -1256.2,1824.3 -1256.2,1834.4 -1266.2,1834.4 -1266.2,1892.3 
	-1256.2,1892.3 -1256.2,1902.3 -881.3,1902.3 -871.2,1902.3 -871.2,1892.3 -861.1,1892.3 -861.1,1834.4 -871.2,1834.4 "/>
<g>
	<path class="st4" d="M-1153.6,1875.2h-6.9v-27.6h17.3v3.5h3.5v10.4h-3.5v3.5h-10.4V1875.2z M-1153.6,1857.9h6.9v-3.5h-6.9V1857.9z"
		/>
	<path class="st4" d="M-1132.8,1871.7h-3.5v-24.2h6.9v20.7h13.8v6.9h-17.3V1871.7z"/>
	<path class="st4" d="M-1105.2,1875.2h-6.9V1851h3.5v-3.5h13.8v3.5h3.5v24.2h-6.9v-10.4h-6.9V1875.2z M-1098.3,1857.9v-3.5h-6.9v3.5
		H-1098.3z"/>
	<path class="st4" d="M-1087.9,1847.6h6.9v10.4h6.9v-10.4h6.9v13.8h-3.5v3.5h-3.5v10.4h-6.9v-10.4h-3.5v-3.5h-3.5V1847.6z"/>
	<path class="st4" d="M-1060.3,1871.7h-3.5V1851h3.5v-3.5h17.3v6.9h-13.8v3.5h6.9v6.9h-6.9v3.5h13.8v6.9h-17.3V1871.7z"/>
	<path class="st4" d="M-1029.2,1864.8h-3.5v10.4h-6.9v-27.6h17.3v3.5h3.5v10.4h-3.5v3.5h3.5v10.4h-6.9v-6.9h-3.5V1864.8z
		 M-1032.6,1857.9h6.9v-3.5h-6.9V1857.9z"/>
	<path class="st4" d="M-991.2,1847.6h17.3v3.5h3.5v10.4h-3.5v3.5h-10.4v3.5h13.8v6.9h-20.7v-13.8h3.5v-3.5h10.4v-3.5h-13.8V1847.6z"
		/>
</g>
<g>
	<rect x="-1245.2" y="1828.3" class="st4" width="45.1" height="5.7"/>
	<rect x="-1194" y="1828.3" class="st4" width="5.7" height="5.7"/>
</g>
<g>
	<rect x="-1699.7" y="1829.3" class="st4" width="45.1" height="5.7"/>
	<rect x="-1648.5" y="1829.3" class="st4" width="5.7" height="5.7"/>
</g>
<polygon class="st16" points="-1310.6,1669.3 -1304.2,1674.9 -1309.8,1681.3 -1289.4,1698.7 -1289.4,1736.6 -1268.6,1710.5 
	-1236.9,1739.9 -1231,1733.6 -1226.1,1738.2 -1154.5,1619.5 "/>
<polygon class="st17" points="-1313.1,1662.2 -1306.7,1667.8 -1312.3,1674.2 -1291.8,1691.6 -1291.8,1729.5 -1271.1,1703.4 
	-1239.3,1732.7 -1233.5,1726.5 -1228.5,1731.1 -1156.9,1612.4 "/>
<polygon class="st18" points="-1271,1703.2 -1156.7,1612.4 -1291.8,1691.4 -1291.8,1729.2 "/>
<polygon class="st19" points="-1314.1,1662.3 -1307.7,1667.9 -1313.3,1674.3 -1292.9,1691.7 -1292.9,1729.6 -1272.2,1703.5 
	-1240.4,1732.9 -1234.6,1726.6 -1229.6,1731.2 -1158,1612.5 "/>
<g>
	<polygon class="st20" points="-1378.3,1355.6 -1378.3,1519.2 -1367.9,1519.2 -1367.9,1528.8 -1357.5,1528.8 -1357.5,1539.2 
		-910,1539.2 -910,1528.8 -899.7,1528.8 -899.7,1519.2 -889.3,1519.2 -889.3,1355.6 	"/>
	<polygon class="st20" points="-889.3,1355.6 -889.3,1261.5 -899.7,1261.5 -899.7,1252 -910,1252 -910,1241.5 -1357.5,1241.5 
		-1357.5,1252 -1367.9,1252 -1367.9,1261.5 -1378.3,1261.5 -1378.3,1355.6 	"/>
</g>
<g>
	<polygon class="st21" points="-1367.9,1258.1 -1357.5,1258.1 -1357.5,1250.1 -1367.9,1250.1 -1367.9,1258 -1378.3,1258 
		-1378.3,1266 -1367.9,1266 	"/>
	<rect x="-1357.5" y="1241.4" class="st21" width="447.5" height="8"/>
	<polygon class="st21" points="-899.7,1258 -899.7,1250.1 -910,1250.1 -910,1258.1 -899.7,1258.1 -899.7,1266 -889.3,1266 
		-889.3,1258 	"/>
</g>
<g>
	<g>
		<g>
			<rect x="-1771.4" y="1177.1" width="10.2" height="10.2"/>
		</g>
	</g>
	<g>
		<g>
			<path d="M-1710,1166.9v5.1h-5.1v5.1h5.1v20.5h5.1v5.1h-5.1v5.1h5.1h5.1v-10.2h15.4v5.1h5.1v-5.1v-30.7H-1710z M-1684.4,1192.5
				h-20.5V1172h20.5V1192.5z"/>
		</g>
	</g>
	<g>
		<g>
			<rect x="-1699.7" y="1177.1" width="10.2" height="10.2"/>
		</g>
	</g>
	<g>
		<g>
			<rect x="-1771.4" y="1248.8" width="10.2" height="10.2"/>
		</g>
	</g>
	<g>
		<g>
			<rect x="-1710" y="1238.6" width="5.1" height="5.1"/>
		</g>
	</g>
	<g>
		<g>
			<rect x="-1735.6" y="1264.2" width="5.1" height="5.1"/>
		</g>
	</g>
	<g>
		<g>
			<rect x="-1730.5" y="1243.7" width="5.1" height="5.1"/>
		</g>
	</g>
	<g>
		<g>
			<rect x="-1730.5" y="1253.9" width="5.1" height="5.1"/>
		</g>
	</g>
	<g>
		<g>
			<rect x="-1684.4" y="1228.3" width="5.1" height="5.1"/>
		</g>
	</g>
	<g>
		<g>
			<rect x="-1781.7" y="1228.3" width="5.1" height="5.1"/>
		</g>
	</g>
	<g>
		<g>
			<rect x="-1781.7" y="1202.7" width="5.1" height="5.1"/>
		</g>
	</g>
	<g>
		<g>
			<polygon points="-1725.3,1172 -1725.3,1177.1 -1735.6,1177.1 -1735.6,1182.2 -1720.2,1182.2 -1720.2,1177.1 -1720.2,1172 			"/>
		</g>
	</g>
	<g>
		<g>
			<path d="M-1684.4,1207.9v5.1h-10.2v5.1h-15.4v-5.1h-5.1v5.1h-10.2v5.1h15.4v5.1h-10.2h-5.1v-5.1h-5.1v5.1h-5.1v-5.1h-5.1v5.1
				h-5.1v5.1h10.2v5.1h5.1v-5.1h10.2v5.1h-5.1v5.1h5.1v10.2h5.1v5.1h5.1v-5.1h15.4v-10.2h5.1v-5.1h-5.1v-10.2h-10.2v-5.1h10.2v5.1
				h5.1v-5.1h5.1v-5.1h5.1v-5.1v-5.1H-1684.4L-1684.4,1207.9z M-1699.7,1233.5v15.4h-15.4v-15.4H-1699.7z"/>
		</g>
	</g>
	<g>
		<g>
			<polygon points="-1715.1,1197.6 -1720.2,1197.6 -1720.2,1202.7 -1725.3,1202.7 -1725.3,1207.9 -1725.3,1213 -1720.2,1213 
				-1720.2,1207.9 -1715.1,1207.9 -1715.1,1202.7 -1710,1202.7 -1710,1197.6 			"/>
		</g>
	</g>
	<g>
		<g>
			<rect x="-1725.3" y="1264.2" width="10.2" height="5.1"/>
		</g>
	</g>
	<g>
		<g>
			<rect x="-1740.7" y="1172" width="5.1" height="5.1"/>
		</g>
	</g>
	<g>
		<g>
			<rect x="-1699.7" y="1207.9" width="5.1" height="5.1"/>
		</g>
	</g>
	<g>
		<g>
			<rect x="-1694.6" y="1202.7" width="5.1" height="5.1"/>
		</g>
	</g>
	<g>
		<g>
			<rect x="-1761.2" y="1228.3" width="5.1" height="5.1"/>
		</g>
	</g>
	<g>
		<g>
			<path d="M-1751,1264.2v-20.5h5.1v-5.1v-5.1h-5.1v5.1h-15.4v-5.1h-5.1h-5.1v5.1h-5.1v30.7h30.7h10.2v-5.1H-1751z M-1756.1,1264.2
				h-20.5v-20.5h20.5V1264.2z"/>
		</g>
	</g>
	<g>
		<g>
			<rect x="-1751" y="1197.6" width="5.1" height="5.1"/>
		</g>
	</g>
	<g>
		<g>
			<path d="M-1745.8,1166.9h-5.1h-30.7v30.7h5.1v5.1h5.1v-5.1h5.1v5.1h5.1v-5.1h10.2v-10.2h5.1v-5.1h-5.1V1172h5.1h5.1v-5.1H-1745.8
				z M-1756.1,1192.5h-20.5V1172h20.5V1192.5z"/>
		</g>
	</g>
	<g>
		<g>
			<rect x="-1720.2" y="1182.2" width="5.1" height="5.1"/>
		</g>
	</g>
	<g>
		<g>
			<rect x="-1730.5" y="1166.9" width="5.1" height="5.1"/>
		</g>
	</g>
	<g>
		<g>
			<path d="M-1720.2,1197.6v-5.1h-5.1v-5.1h-5.1v5.1h-10.2v-5.1h-5.1v5.1v5.1h5.1v10.2h-15.4v-5.1h-5.1v5.1h-15.4v5.1h10.2v5.1
				h-15.4v5.1h15.4v5.1h5.1v-5.1h5.1v5.1h5.1v-5.1h10.2v-5.1h-5.1v-5.1h5.1h5.1v5.1h5.1h5.1v-5.1h-5.1v-5.1h-5.1v-10.2H-1720.2
				L-1720.2,1197.6z M-1751,1218.1h-10.2v-5.1h10.2V1218.1z"/>
		</g>
	</g>
	<g>
		<g>
			<polygon points="-1735.6,1248.8 -1735.6,1243.7 -1735.6,1238.6 -1740.7,1238.6 -1740.7,1243.7 -1745.8,1243.7 -1745.8,1248.8 
				-1740.7,1248.8 -1740.7,1253.9 -1745.8,1253.9 -1745.8,1259.1 -1735.6,1259.1 -1735.6,1253.9 -1730.5,1253.9 -1730.5,1248.8 			
				"/>
		</g>
	</g>
	<g>
		<g>
			<polygon points="-1689.5,1259.1 -1689.5,1253.9 -1694.6,1253.9 -1694.6,1259.1 -1710,1259.1 -1710,1264.2 -1699.7,1264.2 
				-1699.7,1269.3 -1694.6,1269.3 -1694.6,1264.2 -1684.4,1264.2 -1684.4,1269.3 -1679.3,1269.3 -1679.3,1264.2 -1679.3,1259.1 			
				"/>
		</g>
	</g>
	<g>
		<g>
			<polygon points="-1684.4,1238.6 -1684.4,1243.7 -1689.5,1243.7 -1689.5,1248.8 -1679.3,1248.8 -1679.3,1243.7 -1679.3,1238.6 			
				"/>
		</g>
	</g>
</g>
<g>
	<g>
		<polygon class="st9" points="-2009.8,1583 -2013.5,1583 -2150.6,1583 -2150.6,1586.7 -2154.3,1586.7 -2154.3,1607.9 
			-2150.6,1607.9 -2150.6,1611.6 -2013.5,1611.6 -2009.8,1611.6 -2009.8,1607.9 -2006.1,1607.9 -2006.1,1586.7 -2009.8,1586.7 		"/>
		<polygon class="st12" points="-2009.8,1583 -2013.5,1583 -2150.6,1583 -2150.6,1586.7 -2154.3,1586.7 -2154.3,1607.9 
			-2150.6,1607.9 -2150.6,1611.6 -2013.5,1611.6 -2009.8,1611.6 -2009.8,1607.9 -2006.1,1607.9 -2006.1,1586.7 -2009.8,1586.7 		"/>
		<g>
			<path class="st4" d="M-2122.4,1597.8h-1.3v3.8h-2.5v-10.1h6.3v1.3h1.3v3.8h-1.3v1.3h1.3v3.8h-2.5v-2.5h-1.3V1597.8z
				 M-2123.7,1595.3h2.5v-1.3h-2.5V1595.3z"/>
			<path class="st4" d="M-2116.1,1600.4h-1.3v-7.6h1.3v-1.3h6.3v2.5h-5.1v1.3h2.5v2.5h-2.5v1.3h5.1v2.5h-6.3V1600.4z"/>
			<path class="st4" d="M-2107.2,1600.4h-1.3v-7.6h1.3v-1.3h5.1v1.3h1.3v2.5h-2.5v-1.3h-2.5v5.1h2.5v-1.3h2.5v2.5h-1.3v1.3h-5.1
				V1600.4z"/>
			<path class="st4" d="M-2097.1,1601.6h-2.5v-8.9h1.3v-1.3h5.1v1.3h1.3v8.9h-2.5v-3.8h-2.5V1601.6z M-2094.6,1595.3v-1.3h-2.5v1.3
				H-2094.6z"/>
			<path class="st4" d="M-2089.5,1600.4h-1.3v-8.9h2.5v7.6h5.1v2.5h-6.3V1600.4z"/>
			<path class="st4" d="M-2081.9,1591.5h2.5v10.1h-2.5V1591.5z"/>
			<path class="st4" d="M-2078.2,1591.5h6.3v1.3h1.3v7.6h-1.3v1.3h-6.3V1591.5z M-2075.6,1595.3h2.5v-1.3h-2.5V1595.3z
				 M-2075.6,1599.1h2.5v-1.3h-2.5V1599.1z"/>
			<path class="st4" d="M-2065.5,1597.8h-1.3v3.8h-2.5v-8.9h1.3v-1.3h5.1v1.3h1.3v3.8h-1.3v1.3h1.3v3.8h-2.5v-2.5h-1.3V1597.8z
				 M-2066.8,1595.3h2.5v-1.3h-2.5V1595.3z"/>
			<path class="st4" d="M-2057.9,1601.6h-2.5v-8.9h1.3v-1.3h5.1v1.3h1.3v8.9h-2.5v-3.8h-2.5V1601.6z M-2055.4,1595.3v-1.3h-2.5v1.3
				H-2055.4z"/>
			<path class="st4" d="M-2051.6,1591.5h7.6v2.5h-2.5v7.6h-2.5v-7.6h-2.5V1591.5z"/>
			<path class="st4" d="M-2041.5,1600.4h-1.3v-7.6h1.3v-1.3h6.3v2.5h-5.1v1.3h2.5v2.5h-2.5v1.3h5.1v2.5h-6.3V1600.4z"/>
		</g>
	</g>
	<g>
		<rect x="-2148.2" y="1585.1" class="st4" width="13.1" height="1.7"/>
		<rect x="-2133.3" y="1585.1" class="st4" width="1.7" height="1.7"/>
	</g>
</g>
<g>
	<g>
		<polygon class="st9" points="-2009.8,1625 -2013.5,1625 -2150.6,1625 -2150.6,1628.7 -2154.3,1628.7 -2154.3,1649.9 
			-2150.6,1649.9 -2150.6,1653.6 -2013.5,1653.6 -2009.8,1653.6 -2009.8,1649.9 -2006.1,1649.9 -2006.1,1628.7 -2009.8,1628.7 		"/>
		<polygon class="st10" points="-2009.8,1621.4 -2013.5,1621.4 -2150.6,1621.4 -2150.6,1625 -2154.3,1625 -2154.3,1646.2 
			-2150.6,1646.2 -2150.6,1649.9 -2013.5,1649.9 -2009.8,1649.9 -2009.8,1646.2 -2006.1,1646.2 -2006.1,1625 -2009.8,1625 		"/>
		<g>
			<path class="st4" d="M-2122.4,1636.2h-1.3v3.8h-2.5v-10.1h6.3v1.3h1.3v3.8h-1.3v1.3h1.3v3.8h-2.5v-2.5h-1.3V1636.2z
				 M-2123.7,1633.7h2.5v-1.3h-2.5V1633.7z"/>
			<path class="st4" d="M-2116.1,1638.7h-1.3v-7.6h1.3v-1.3h6.3v2.5h-5.1v1.3h2.5v2.5h-2.5v1.3h5.1v2.5h-6.3V1638.7z"/>
			<path class="st4" d="M-2107.2,1638.7h-1.3v-7.6h1.3v-1.3h5.1v1.3h1.3v2.5h-2.5v-1.3h-2.5v5.1h2.5v-1.3h2.5v2.5h-1.3v1.3h-5.1
				V1638.7z"/>
			<path class="st4" d="M-2097.1,1640h-2.5v-8.9h1.3v-1.3h5.1v1.3h1.3v8.9h-2.5v-3.8h-2.5V1640z M-2094.6,1633.7v-1.3h-2.5v1.3
				H-2094.6z"/>
			<path class="st4" d="M-2089.5,1638.7h-1.3v-8.9h2.5v7.6h5.1v2.5h-6.3V1638.7z"/>
			<path class="st4" d="M-2081.9,1629.9h2.5v10.1h-2.5V1629.9z"/>
			<path class="st4" d="M-2078.2,1629.9h6.3v1.3h1.3v7.6h-1.3v1.3h-6.3V1629.9z M-2075.6,1633.7h2.5v-1.3h-2.5V1633.7z
				 M-2075.6,1637.4h2.5v-1.3h-2.5V1637.4z"/>
			<path class="st4" d="M-2065.5,1636.2h-1.3v3.8h-2.5v-8.9h1.3v-1.3h5.1v1.3h1.3v3.8h-1.3v1.3h1.3v3.8h-2.5v-2.5h-1.3V1636.2z
				 M-2066.8,1633.7h2.5v-1.3h-2.5V1633.7z"/>
			<path class="st4" d="M-2057.9,1640h-2.5v-8.9h1.3v-1.3h5.1v1.3h1.3v8.9h-2.5v-3.8h-2.5V1640z M-2055.4,1633.7v-1.3h-2.5v1.3
				H-2055.4z"/>
			<path class="st4" d="M-2051.6,1629.9h7.6v2.5h-2.5v7.6h-2.5v-7.6h-2.5V1629.9z"/>
			<path class="st4" d="M-2041.5,1638.7h-1.3v-7.6h1.3v-1.3h6.3v2.5h-5.1v1.3h2.5v2.5h-2.5v1.3h5.1v2.5h-6.3V1638.7z"/>
		</g>
	</g>
	<g>
		<rect x="-2148.2" y="1624.1" class="st4" width="13.1" height="1.7"/>
		<rect x="-2133.3" y="1624.1" class="st4" width="1.7" height="1.7"/>
	</g>
</g>
<g>
	<rect x="-1728.4" y="1355.9" class="st4" width="23.6" height="3"/>
	<rect x="-1701.7" y="1355.9" class="st4" width="3" height="3"/>
</g>
<g>
	<rect x="-2048.8" y="1294.4" class="st4" width="23.6" height="3"/>
	<rect x="-2022.1" y="1294.4" class="st4" width="3" height="3"/>
</g>
<g>
	<polygon class="st22" points="-2078.9,1417.9 -2078.9,1410.4 -2097.6,1410.4 -2097.6,1417.9 -2105,1417.9 -2105,1425.4 
		-2105,1436.5 -2097.6,1436.5 -2097.6,1444 -2086.4,1444 -2078.9,1444 -2078.9,1436.5 -2071.4,1436.5 -2071.4,1425.4 
		-2071.4,1417.9 	"/>
	<line class="st23" x1="-2096.9" y1="1444" x2="-2096.9" y2="1454"/>
	<line class="st23" x1="-2079.5" y1="1444" x2="-2079.5" y2="1454"/>
	<polygon class="st24" points="-2080.5,1452.1 -2082.7,1452.1 -2096,1452.1 -2096,1454.3 -2098.2,1454.3 -2098.2,1469.8 
		-2096,1469.8 -2096,1472 -2082.7,1472 -2080.5,1472 -2080.5,1469.8 -2078.3,1469.8 -2078.3,1454.3 -2080.5,1454.3 	"/>
</g>
<polygon class="st25" points="-2011.8,1857.2 -2011.8,1849.2 -2019.7,1849.2 -2084.8,1849.2 -2153.5,1849.2 -2153.5,1857.2 
	-2161.4,1857.2 -2161.4,1902.7 -2153.5,1902.7 -2153.5,1910.6 -2084.8,1910.6 -2019.7,1910.6 -2011.8,1910.6 -2011.8,1902.7 
	-2003.9,1902.7 -2003.9,1857.2 "/>
<polygon class="st25" points="-2011.8,1857.3 -2011.8,1849.3 -2019.7,1849.3 -2084.8,1849.3 -2153.5,1849.3 -2153.5,1857.3 
	-2161.4,1857.3 -2161.4,1902.8 -2153.5,1902.8 -2153.5,1910.8 -2084.8,1910.8 -2019.7,1910.8 -2011.8,1910.8 -2011.8,1902.8 
	-2003.9,1902.8 -2003.9,1857.3 "/>
<g>
	<path class="st4" d="M-2115.3,1890.7h-5.4v-21.8h13.6v2.7h2.7v8.2h-2.7v2.7h-8.2V1890.7z M-2115.3,1877.1h5.4v-2.7h-5.4V1877.1z"/>
	<path class="st4" d="M-2099,1888h-2.7v-19h5.4v16.3h10.9v5.4h-13.6V1888z"/>
	<path class="st4" d="M-2077.2,1890.7h-5.4v-19h2.7v-2.7h10.9v2.7h2.7v19h-5.4v-8.2h-5.4V1890.7z M-2071.8,1877.1v-2.7h-5.4v2.7
		H-2071.8z"/>
	<path class="st4" d="M-2063.6,1868.9h5.4v8.2h5.4v-8.2h5.4v10.9h-2.7v2.7h-2.7v8.2h-5.4v-8.2h-2.7v-2.7h-2.7V1868.9z"/>
</g>
<polygon class="st25" points="-1841.8,1857.2 -1841.8,1849.2 -1849.7,1849.2 -1914.8,1849.2 -1983.5,1849.2 -1983.5,1857.2 
	-1991.4,1857.2 -1991.4,1902.7 -1983.5,1902.7 -1983.5,1910.6 -1914.8,1910.6 -1849.7,1910.6 -1841.8,1910.6 -1841.8,1902.7 
	-1833.9,1902.7 -1833.9,1857.2 "/>
<polygon class="st22" points="-1841.8,1849.3 -1841.8,1841.3 -1849.7,1841.3 -1914.8,1841.3 -1983.5,1841.3 -1983.5,1849.3 
	-1991.4,1849.3 -1991.4,1894.8 -1983.5,1894.8 -1983.5,1902.8 -1914.8,1902.8 -1849.7,1902.8 -1841.8,1902.8 -1841.8,1894.8 
	-1833.9,1894.8 -1833.9,1849.3 "/>
<g>
	<path class="st4" d="M-1945.3,1882.7h-5.4v-21.8h13.6v2.7h2.7v8.2h-2.7v2.7h-8.2V1882.7z M-1945.3,1869.1h5.4v-2.7h-5.4V1869.1z"/>
	<path class="st4" d="M-1929,1880h-2.7v-19h5.4v16.3h10.9v5.4h-13.6V1880z"/>
	<path class="st4" d="M-1907.2,1882.7h-5.4v-19h2.7v-2.7h10.9v2.7h2.7v19h-5.4v-8.2h-5.4V1882.7z M-1901.8,1869.1v-2.7h-5.4v2.7
		H-1901.8z"/>
	<path class="st4" d="M-1893.6,1860.9h5.4v8.2h5.4v-8.2h5.4v10.9h-2.7v2.7h-2.7v8.2h-5.4v-8.2h-2.7v-2.7h-2.7V1860.9z"/>
</g>
<g>
	<path class="st26" d="M-2835.4,1611.6h43.2v108h43.2v-108h43.2v129.6h-21.6v21.6h-21.6v21.6h-43.2v-21.6h-21.6v-21.6h-21.6V1611.6z
		"/>
	<path class="st27" d="M-2684.2,1635.2h21.6v-21.6h108v43.2h-86.4v21.6h64.8v21.6h21.6v64.8h-21.6v21.6h-108v-43.2h86.4v-21.6h-64.8
		V1700h-21.6V1635.2z"/>
</g>
<g>
	<path class="st28" d="M-2835.4,1590.5h43.2v108h43.2v-108h43.2v129.6h-21.6v21.6h-21.6v21.6h-43.2v-21.6h-21.6v-21.6h-21.6V1590.5z
		"/>
	<path class="st29" d="M-2684.2,1612.1h21.6v-21.6h108v43.2h-86.4v21.6h64.8v21.6h21.6v64.8h-21.6v21.6h-108v-43.2h86.4v-21.6h-64.8
		v-21.6h-21.6V1612.1z"/>
</g>
<g>
	<g>
		<path class="st0" d="M-2786,1969.1h27.5v68.7h27.5v-68.7h27.5v82.4h-13.7v13.7h-13.7v13.7h-27.5v-13.7h-13.7v-13.7h-13.7V1969.1z"
			/>
		<path class="st0" d="M-2689.9,1984.2h13.7v-13.7h68.7v27.5h-54.9v13.7h41.2v13.7h13.7v41.2h-13.7v13.7h-68.7v-27.5h54.9v-13.7
			h-41.2v-13.7h-13.7V1984.2z"/>
	</g>
	<g>
		<path class="st7" d="M-2786,1954.6h27.5v68.7h27.5v-68.7h27.5v82.4h-13.7v13.7h-13.7v13.7h-27.5v-13.7h-13.7V2037h-13.7V1954.6z"
			/>
		<path class="st7" d="M-2689.9,1969.7h13.7v-13.7h68.7v27.5h-54.9v13.7h41.2v13.7h13.7v41.2h-13.7v13.7h-68.7v-27.5h54.9v-13.7
			h-41.2v-13.7h-13.7V1969.7z"/>
	</g>
	<g>
		<path class="st4" d="M-2786,1941.2h27.5v68.7h27.5v-68.7h27.5v82.4h-13.7v13.7h-13.7v13.7h-27.5v-13.7h-13.7v-13.7h-13.7V1941.2z"
			/>
		<path class="st4" d="M-2689.9,1954.9h13.7v-13.7h68.7v27.5h-54.9v13.7h41.2v13.7h13.7v41.2h-13.7v13.7h-68.7v-27.5h54.9v-13.7
			h-41.2v-13.7h-13.7V1954.9z"/>
	</g>
</g>
<g>
	<g>
		<path class="st0" d="M-2211.6,1109.4h-21.6V1023h54v10.8h10.8v32.4h-10.8v10.8h-32.4V1109.4z M-2211.6,1055.4h21.6v-10.8h-21.6
			V1055.4z"/>
		<path class="st0" d="M-2157.6,1033.8h10.8V1023h43.2v10.8h10.8v64.8h-10.8v10.8h-43.2v-10.8h-10.8V1033.8z M-2136,1087.8h21.6
			v-43.2h-21.6V1087.8z"/>
		<path class="st0" d="M-2071.2,1098.6h-10.8V1023h21.6v64.8h43.2v21.6h-54V1098.6z"/>
		<path class="st0" d="M-2028,1023h21.6v32.4h21.6V1023h21.6v43.2h-10.8v10.8h-10.8v32.4h-21.6V1077h-10.8v-10.8h-10.8V1023z"/>
	</g>
	<g>
		<path class="st30" d="M-2211.6,1101h-21.6v-86.4h54v10.8h10.8v32.4h-10.8v10.8h-32.4V1101z M-2211.6,1047h21.6v-10.8h-21.6V1047z"
			/>
		<path class="st30" d="M-2157.6,1025.4h10.8v-10.8h43.2v10.8h10.8v64.8h-10.8v10.8h-43.2v-10.8h-10.8V1025.4z M-2136,1079.4h21.6
			v-43.2h-21.6V1079.4z"/>
		<path class="st30" d="M-2071.2,1090.2h-10.8v-75.6h21.6v64.8h43.2v21.6h-54V1090.2z"/>
		<path class="st30" d="M-2028,1014.6h21.6v32.4h21.6v-32.4h21.6v43.2h-10.8v10.8h-10.8v32.4h-21.6v-32.4h-10.8v-10.8h-10.8V1014.6z
			"/>
	</g>
	<g>
		<path class="st4" d="M-2211.6,1092.8h-21.6v-86.4h54v10.8h10.8v32.4h-10.8v10.8h-32.4V1092.8z M-2211.6,1038.8h21.6V1028h-21.6
			V1038.8z"/>
		<path class="st4" d="M-2157.6,1017.2h10.8v-10.8h43.2v10.8h10.8v64.8h-10.8v10.8h-43.2V1082h-10.8V1017.2z M-2136,1071.2h21.6
			V1028h-21.6V1071.2z"/>
		<path class="st4" d="M-2071.2,1082h-10.8v-75.6h21.6v64.8h43.2v21.6h-54V1082z"/>
		<path class="st4" d="M-2028,1006.4h21.6v32.4h21.6v-32.4h21.6v43.2h-10.8v10.8h-10.8v32.4h-21.6v-32.4h-10.8v-10.8h-10.8V1006.4z"
			/>
	</g>
</g>
<image style="overflow:visible;" width="843" height="1118" xlink:href="D6BFE9CD32D0CEDA.jpg"  transform="matrix(0.24 0 0 0.24 -2442.7063 1156.6056)">
</image>
<g>
	<g class="st1">
		<g>
			<polygon class="st0" points="-1884.8,792.9 -1884.8,879.4 -1783.6,879.4 -1783.6,867.8 -1796.2,867.8 -1796.2,855.1 
				-1808.9,855.1 -1808.9,842.5 -1821.5,842.5 -1821.5,829.8 -1808.9,829.8 -1808.9,817.2 -1796.2,817.2 -1796.2,804.5 
				-1783.6,804.5 -1783.6,792.9 			"/>
		</g>
		<polygon class="st0" points="-1870,854.1 -1884.8,878.3 -1884.7,854.1 		"/>
	</g>
	<rect x="-2373" y="770" class="st0" width="510.3" height="86.5"/>
	<rect x="-1896.4" y="848" class="st0" width="112.8" height="31.6"/>
	<g class="st1">
		<g>
			<polygon class="st0" points="-2365.1,793.1 -2365.1,879.6 -2466.3,879.6 -2466.3,868 -2453.7,868 -2453.7,855.3 -2441,855.3 
				-2441,842.7 -2428.4,842.7 -2428.4,830 -2441,830 -2441,817.4 -2453.7,817.4 -2453.7,804.7 -2466.3,804.7 -2466.3,793.1 			"/>
		</g>
		<polygon class="st0" points="-2379.9,854.3 -2365.1,878.5 -2365.1,854.3 		"/>
	</g>
	<g>
		<g>
			<polygon class="st2" points="-1884.8,782.7 -1884.8,869.1 -1783.6,869.1 -1783.6,857.5 -1796.2,857.5 -1796.2,844.9 
				-1808.9,844.9 -1808.9,832.2 -1821.5,832.2 -1821.5,819.6 -1808.9,819.6 -1808.9,806.9 -1796.2,806.9 -1796.2,794.3 
				-1783.6,794.3 -1783.6,782.7 			"/>
			<polygon class="st3" points="-1884.8,771.1 -1884.8,857.5 -1783.6,857.5 -1783.6,845.9 -1796.2,845.9 -1796.2,833.3 
				-1808.9,833.3 -1808.9,820.6 -1821.5,820.6 -1821.5,808 -1808.9,808 -1808.9,795.3 -1796.2,795.3 -1796.2,782.7 -1783.6,782.7 
				-1783.6,771.1 			"/>
		</g>
		<polygon class="st2" points="-1870,843.8 -1884.8,868.1 -1884.7,843.8 		"/>
		<g>
			<g>
				<polygon class="st2" points="-2365.6,782.7 -2365.6,869.1 -2466.8,869.1 -2466.8,857.5 -2454.2,857.5 -2454.2,844.9 
					-2441.5,844.9 -2441.5,832.2 -2428.9,832.2 -2428.9,819.6 -2441.5,819.6 -2441.5,806.9 -2454.2,806.9 -2454.2,794.3 
					-2466.8,794.3 -2466.8,782.7 				"/>
				<polygon class="st3" points="-2365.6,771.1 -2365.6,857.5 -2466.8,857.5 -2466.8,845.9 -2454.2,845.9 -2454.2,833.3 
					-2441.5,833.3 -2441.5,820.6 -2428.9,820.6 -2428.9,808 -2441.5,808 -2441.5,795.3 -2454.2,795.3 -2454.2,782.7 -2466.8,782.7 
					-2466.8,771.1 				"/>
			</g>
			<polygon class="st2" points="-2380.3,843.8 -2365.6,868.1 -2365.6,843.8 			"/>
		</g>
		<g>
			<rect x="-2380.3" y="757.4" class="st2" width="510.3" height="86.5"/>
			<rect x="-2380.3" y="744.7" class="st3" width="510.3" height="86.5"/>
		</g>
	</g>
</g>
<g>
	<g>
		<path class="st25" d="M-2266.2,819.7h-37.4v-59.9h37.4v7.5h7.5v15h-7.5v15h7.5v15h-7.5V819.7z M-2288.7,782.2h15v-7.5h-15V782.2z
			 M-2288.7,804.7h15v-7.5h-15V804.7z"/>
		<path class="st25" d="M-2236.2,819.7h-15v-52.4h7.5v-7.5h30v7.5h7.5v52.4h-15v-22.5h-15V819.7z M-2221.3,782.2v-7.5h-15v7.5
			H-2221.3z"/>
		<path class="st25" d="M-2191.3,812.2h-7.5v-52.4h15v44.9h30v15h-37.4V812.2z"/>
		<path class="st25" d="M-2138.9,812.2h-7.5v-52.4h15v44.9h30v15h-37.4V812.2z"/>
		<path class="st25" d="M-2094,767.2h7.5v-7.5h30v7.5h7.5v44.9h-7.5v7.5h-30v-7.5h-7.5V767.2z M-2079,804.7h15v-30h-15V804.7z"/>
		<path class="st25" d="M-2041.5,767.2h7.5v-7.5h30v7.5h7.5v44.9h-7.5v7.5h-30v-7.5h-7.5V767.2z M-2026.5,804.7h15v-30h-15V804.7z"
			/>
		<path class="st25" d="M-1966.6,789.7h-7.5v30h-15v-59.9h15v7.5h7.5v7.5h7.5v-15h15v59.9h-15v-22.5h-7.5V789.7z"/>
	</g>
	<g>
		<path class="st22" d="M-2266.2,813.8h-37.4v-59.9h37.4v7.5h7.5v15h-7.5v15h7.5v15h-7.5V813.8z M-2288.7,776.4h15v-7.5h-15V776.4z
			 M-2288.7,798.9h15v-7.5h-15V798.9z"/>
		<path class="st22" d="M-2236.2,813.8h-15v-52.4h7.5v-7.5h30v7.5h7.5v52.4h-15v-22.5h-15V813.8z M-2221.3,776.4v-7.5h-15v7.5
			H-2221.3z"/>
		<path class="st22" d="M-2191.3,806.4h-7.5v-52.4h15v44.9h30v15h-37.4V806.4z"/>
		<path class="st22" d="M-2138.9,806.4h-7.5v-52.4h15v44.9h30v15h-37.4V806.4z"/>
		<path class="st22" d="M-2094,761.4h7.5v-7.5h30v7.5h7.5v44.9h-7.5v7.5h-30v-7.5h-7.5V761.4z M-2079,798.9h15v-30h-15V798.9z"/>
		<path class="st22" d="M-2041.5,761.4h7.5v-7.5h30v7.5h7.5v44.9h-7.5v7.5h-30v-7.5h-7.5V761.4z M-2026.5,798.9h15v-30h-15V798.9z"
			/>
		<path class="st22" d="M-1966.6,783.9h-7.5v30h-15v-59.9h15v7.5h7.5v7.5h7.5v-15h15v59.9h-15v-22.5h-7.5V783.9z"/>
	</g>
</g>
<g>
	<path class="st0" d="M-1774.6,966.4h20.7v6.9h-20.7V966.4z"/>
	<path class="st0" d="M-1719.3,983.7h-6.9V956h17.3v3.5h3.5v10.4h-3.5v3.5h-10.4V983.7z M-1719.3,966.4h6.9v-3.5h-6.9V966.4z"/>
	<path class="st0" d="M-1691.6,973.3h-3.5v10.4h-6.9V956h17.3v3.5h3.5v10.4h-3.5v3.5h3.5v10.4h-6.9v-6.9h-3.5V973.3z M-1695.1,966.4
		h6.9v-3.5h-6.9V966.4z"/>
	<path class="st0" d="M-1674.4,980.2h-3.5v-20.7h3.5V956h17.3v6.9h-13.8v3.5h6.9v6.9h-6.9v3.5h13.8v6.9h-17.3V980.2z"/>
	<path class="st0" d="M-1653.6,959.5h3.5V956h17.3v6.9h-13.8v3.5h10.4v3.5h3.5v10.4h-3.5v3.5h-17.3v-6.9h13.8v-3.5h-10.4v-3.5h-3.5
		V959.5z"/>
	<path class="st0" d="M-1629.4,959.5h3.5V956h17.3v6.9h-13.8v3.5h10.4v3.5h3.5v10.4h-3.5v3.5h-17.3v-6.9h13.8v-3.5h-10.4v-3.5h-3.5
		V959.5z"/>
	<path class="st0" d="M-1574.1,983.7h-6.9v-24.2h3.5V956h13.8v3.5h3.5v24.2h-6.9v-10.4h-6.9V983.7z M-1567.2,966.4v-3.5h-6.9v3.5
		H-1567.2z"/>
	<path class="st0" d="M-1546.5,969.9h-3.5v13.8h-6.9V956h6.9v3.5h3.5v3.5h3.5V956h6.9v27.6h-6.9v-10.4h-3.5V969.9z"/>
	<path class="st0" d="M-1532.7,956h6.9v10.4h6.9V956h6.9v13.8h-3.5v3.5h-3.5v10.4h-6.9v-10.4h-3.5v-3.5h-3.5V956z"/>
	<path class="st0" d="M-1477.4,983.7h-6.9V956h6.9v6.9h3.5v-3.5h3.5V956h6.9v6.9h-3.5v3.5h-3.5v6.9h3.5v3.5h3.5v6.9h-6.9v-3.5h-3.5
		v-3.5h-3.5V983.7z"/>
	<path class="st0" d="M-1456.6,980.2h-3.5v-20.7h3.5V956h17.3v6.9h-13.8v3.5h6.9v6.9h-6.9v3.5h13.8v6.9h-17.3V980.2z"/>
	<path class="st0" d="M-1435.9,956h6.9v10.4h6.9V956h6.9v13.8h-3.5v3.5h-3.5v10.4h-6.9v-10.4h-3.5v-3.5h-3.5V956z"/>
	<path class="st0" d="M-1387.5,956h20.7v6.9h-6.9v20.7h-6.9v-20.7h-6.9V956z"/>
	<path class="st0" d="M-1363.3,959.5h3.5V956h13.8v3.5h3.5v20.7h-3.5v3.5h-13.8v-3.5h-3.5V959.5z M-1356.4,976.8h6.9v-13.8h-6.9
		V976.8z"/>
	<path class="st0" d="M-1308,983.7h-6.9V956h17.3v3.5h3.5v10.4h-3.5v3.5h-10.4V983.7z M-1308,966.4h6.9v-3.5h-6.9V966.4z"/>
	<path class="st0" d="M-1287.3,980.2h-3.5V956h6.9v20.7h13.8v6.9h-17.3V980.2z"/>
	<path class="st0" d="M-1259.6,983.7h-6.9v-24.2h3.5V956h13.8v3.5h3.5v24.2h-6.9v-10.4h-6.9V983.7z M-1252.7,966.4v-3.5h-6.9v3.5
		H-1252.7z"/>
	<path class="st0" d="M-1242.4,956h6.9v10.4h6.9V956h6.9v13.8h-3.5v3.5h-3.5v10.4h-6.9v-10.4h-3.5v-3.5h-3.5V956z"/>
	<path class="st0" d="M-1194,966.4h20.7v6.9h-20.7V966.4z"/>
</g>
<g>
	<path class="st30" d="M-1775.4,960.5h20.7v6.9h-20.7V960.5z"/>
	<path class="st30" d="M-1720.1,977.8h-6.9v-27.6h17.3v3.5h3.5V964h-3.5v3.5h-10.4V977.8z M-1720.1,960.5h6.9V957h-6.9V960.5z"/>
	<path class="st30" d="M-1692.5,967.4h-3.5v10.4h-6.9v-27.6h17.3v3.5h3.5V964h-3.5v3.5h3.5v10.4h-6.9v-6.9h-3.5V967.4z M-1696,960.5
		h6.9V957h-6.9V960.5z"/>
	<path class="st30" d="M-1675.2,974.3h-3.5v-20.7h3.5v-3.5h17.3v6.9h-13.8v3.5h6.9v6.9h-6.9v3.5h13.8v6.9h-17.3V974.3z"/>
	<path class="st30" d="M-1654.5,953.6h3.5v-3.5h17.3v6.9h-13.8v3.5h10.4v3.5h3.5v10.4h-3.5v3.5h-17.3v-6.9h13.8v-3.5h-10.4V964h-3.5
		V953.6z"/>
	<path class="st30" d="M-1630.3,953.6h3.5v-3.5h17.3v6.9h-13.8v3.5h10.4v3.5h3.5v10.4h-3.5v3.5h-17.3v-6.9h13.8v-3.5h-10.4V964h-3.5
		V953.6z"/>
	<path class="st30" d="M-1575,977.8h-6.9v-24.2h3.5v-3.5h13.8v3.5h3.5v24.2h-6.9v-10.4h-6.9V977.8z M-1568.1,960.5V957h-6.9v3.5
		H-1568.1z"/>
	<path class="st30" d="M-1547.4,964h-3.5v13.8h-6.9v-27.6h6.9v3.5h3.5v3.5h3.5v-6.9h6.9v27.6h-6.9v-10.4h-3.5V964z"/>
	<path class="st30" d="M-1533.5,950.1h6.9v10.4h6.9v-10.4h6.9V964h-3.5v3.5h-3.5v10.4h-6.9v-10.4h-3.5V964h-3.5V950.1z"/>
	<path class="st30" d="M-1478.2,977.8h-6.9v-27.6h6.9v6.9h3.5v-3.5h3.5v-3.5h6.9v6.9h-3.5v3.5h-3.5v6.9h3.5v3.5h3.5v6.9h-6.9v-3.5
		h-3.5v-3.5h-3.5V977.8z"/>
	<path class="st30" d="M-1457.5,974.3h-3.5v-20.7h3.5v-3.5h17.3v6.9h-13.8v3.5h6.9v6.9h-6.9v3.5h13.8v6.9h-17.3V974.3z"/>
	<path class="st30" d="M-1436.8,950.1h6.9v10.4h6.9v-10.4h6.9V964h-3.5v3.5h-3.5v10.4h-6.9v-10.4h-3.5V964h-3.5V950.1z"/>
	<path class="st30" d="M-1388.4,950.1h20.7v6.9h-6.9v20.7h-6.9V957h-6.9V950.1z"/>
	<path class="st30" d="M-1364.2,953.6h3.5v-3.5h13.8v3.5h3.5v20.7h-3.5v3.5h-13.8v-3.5h-3.5V953.6z M-1357.3,970.9h6.9V957h-6.9
		V970.9z"/>
	<path class="st30" d="M-1308.9,977.8h-6.9v-27.6h17.3v3.5h3.5V964h-3.5v3.5h-10.4V977.8z M-1308.9,960.5h6.9V957h-6.9V960.5z"/>
	<path class="st30" d="M-1288.2,974.3h-3.5v-24.2h6.9v20.7h13.8v6.9h-17.3V974.3z"/>
	<path class="st30" d="M-1260.5,977.8h-6.9v-24.2h3.5v-3.5h13.8v3.5h3.5v24.2h-6.9v-10.4h-6.9V977.8z M-1253.6,960.5V957h-6.9v3.5
		H-1253.6z"/>
	<path class="st30" d="M-1243.2,950.1h6.9v10.4h6.9v-10.4h6.9V964h-3.5v3.5h-3.5v10.4h-6.9v-10.4h-3.5V964h-3.5V950.1z"/>
	<path class="st30" d="M-1194.8,960.5h20.7v6.9h-20.7V960.5z"/>
</g>
<g>
	<path class="st4" d="M-1775.4,956.1h20.7v6.9h-20.7V956.1z"/>
	<path class="st4" d="M-1720.1,973.4h-6.9v-27.6h17.3v3.5h3.5v10.4h-3.5v3.5h-10.4V973.4z M-1720.1,956.1h6.9v-3.5h-6.9V956.1z"/>
	<path class="st4" d="M-1692.5,963h-3.5v10.4h-6.9v-27.6h17.3v3.5h3.5v10.4h-3.5v3.5h3.5v10.4h-6.9v-6.9h-3.5V963z M-1696,956.1h6.9
		v-3.5h-6.9V956.1z"/>
	<path class="st4" d="M-1675.2,969.9h-3.5v-20.7h3.5v-3.5h17.3v6.9h-13.8v3.5h6.9v6.9h-6.9v3.5h13.8v6.9h-17.3V969.9z"/>
	<path class="st4" d="M-1654.5,949.2h3.5v-3.5h17.3v6.9h-13.8v3.5h10.4v3.5h3.5v10.4h-3.5v3.5h-17.3v-6.9h13.8V963h-10.4v-3.5h-3.5
		V949.2z"/>
	<path class="st4" d="M-1630.3,949.2h3.5v-3.5h17.3v6.9h-13.8v3.5h10.4v3.5h3.5v10.4h-3.5v3.5h-17.3v-6.9h13.8V963h-10.4v-3.5h-3.5
		V949.2z"/>
	<path class="st4" d="M-1575,973.4h-6.9v-24.2h3.5v-3.5h13.8v3.5h3.5v24.2h-6.9V963h-6.9V973.4z M-1568.1,956.1v-3.5h-6.9v3.5
		H-1568.1z"/>
	<path class="st4" d="M-1547.4,959.5h-3.5v13.8h-6.9v-27.6h6.9v3.5h3.5v3.5h3.5v-6.9h6.9v27.6h-6.9V963h-3.5V959.5z"/>
	<path class="st4" d="M-1533.5,945.7h6.9v10.4h6.9v-10.4h6.9v13.8h-3.5v3.5h-3.5v10.4h-6.9V963h-3.5v-3.5h-3.5V945.7z"/>
	<path class="st4" d="M-1478.2,973.4h-6.9v-27.6h6.9v6.9h3.5v-3.5h3.5v-3.5h6.9v6.9h-3.5v3.5h-3.5v6.9h3.5v3.5h3.5v6.9h-6.9v-3.5
		h-3.5v-3.5h-3.5V973.4z"/>
	<path class="st4" d="M-1457.5,969.9h-3.5v-20.7h3.5v-3.5h17.3v6.9h-13.8v3.5h6.9v6.9h-6.9v3.5h13.8v6.9h-17.3V969.9z"/>
	<path class="st4" d="M-1436.8,945.7h6.9v10.4h6.9v-10.4h6.9v13.8h-3.5v3.5h-3.5v10.4h-6.9V963h-3.5v-3.5h-3.5V945.7z"/>
	<path class="st4" d="M-1388.4,945.7h20.7v6.9h-6.9v20.7h-6.9v-20.7h-6.9V945.7z"/>
	<path class="st4" d="M-1364.2,949.2h3.5v-3.5h13.8v3.5h3.5v20.7h-3.5v3.5h-13.8v-3.5h-3.5V949.2z M-1357.3,966.5h6.9v-13.8h-6.9
		V966.5z"/>
	<path class="st4" d="M-1308.9,973.4h-6.9v-27.6h17.3v3.5h3.5v10.4h-3.5v3.5h-10.4V973.4z M-1308.9,956.1h6.9v-3.5h-6.9V956.1z"/>
	<path class="st4" d="M-1288.2,969.9h-3.5v-24.2h6.9v20.7h13.8v6.9h-17.3V969.9z"/>
	<path class="st4" d="M-1260.5,973.4h-6.9v-24.2h3.5v-3.5h13.8v3.5h3.5v24.2h-6.9V963h-6.9V973.4z M-1253.6,956.1v-3.5h-6.9v3.5
		H-1253.6z"/>
	<path class="st4" d="M-1243.2,945.7h6.9v10.4h6.9v-10.4h6.9v13.8h-3.5v3.5h-3.5v10.4h-6.9V963h-3.5v-3.5h-3.5V945.7z"/>
	<path class="st4" d="M-1194.8,956.1h20.7v6.9h-20.7V956.1z"/>
</g>
<path class="st31" d="M975.3,245.2h-2.2h-10.8h-38.7h-12.9H-615.7h-12.9h-38.7h-12.9h-12.9v22.6v840.8v11.3v33.9v11.3v11.3h25.8
	H910.8h12.9h38.7h10.8h2.2h12.9V245.2H975.3z M921.7,1151.8H-630.6h-12.9v-11.3h-12.9v-11.3h-12.9v-11.3V299.7v-11.3h12.9v-11.3
	h12.9v-11.3h12.9H921.7h12.9v11.3h12.9v11.3h12.9v11.3v818.2v11.3h-12.9v11.3h-12.9v11.3H921.7z"/>
<path class="st32" d="M986.4,254h-2.2h-10.8h-38.7h-12.9H-604.7h-12.9h-38.7h-12.9h-12.9v22.6v840.8v11.3v33.9v11.3v11.3h25.8H921.9
	h12.9h38.7h10.8h2.2h12.9V254H986.4z M973.5,310.5v818.2v11.3h-12.9v11.3h-12.9v11.3h-12.9H-617.6h-12.9v-11.3h-12.9V1140h-12.9
	v-11.3V310.5v-11.3h12.9v-11.3h12.9v-11.3h12.9h204.3h135.5H934.8h12.9v11.3h12.9v11.3h12.9V310.5z"/>
<polygon class="st31" points="-235.1,-100.7 -235.1,-110.7 -246.5,-110.7 -657.1,-110.7 -657.1,-14.7 -247.3,-14.7 -247.3,-24.7 
	-246.5,-24.7 -235.1,-24.7 -235.1,-32.7 -235.1,-34.8 -223.8,-34.8 -223.8,-42.8 -223.8,-100.7 "/>
<polygon class="st32" points="-235.7,-110.7 -235.7,-120.7 -247,-120.7 -669.8,-120.7 -669.8,-112.7 -669.8,-110.7 -681.1,-110.7 
	-681.1,-52.8 -669.9,-52.8 -669.9,-44.8 -669.8,-44.8 -669.8,-34.7 -657.7,-34.7 -657.7,-24.7 -247.9,-24.7 -247.9,-34.7 
	-247,-34.7 -235.7,-34.7 -235.7,-42.7 -235.7,-44.8 -224.3,-44.8 -224.3,-52.8 -224.3,-110.7 "/>
<rect x="-743.1" y="104.1" class="st13" width="92.2" height="32.8"/>
<text transform="matrix(1 0 0 1 -721.9329 122.2367)" class="st4" style="font-family:'EditUndoBRK'; font-size:31.5429px;">DMG</text>
<g>
	<g>
		<polygon class="st22" points="-543.3,138.5 -288.6,138.5 -288.6,120.5 -543.3,120.5 -543.3,120.6 -543.3,125.7 -550.2,125.7 
			-550.2,133.3 -543.3,133.3 -543.3,138.4 		"/>
	</g>
	<polygon class="st22" points="-279.9,125.6 -279.9,120.5 -279.9,120.5 -335.6,120.5 -335.6,138.5 -279.9,138.5 -279.9,138.4 
		-279.9,133.3 -273,133.3 -273,125.6 	"/>
</g>
<g class="st33">
	<polygon class="st34" points="100.3,351.6 100.3,273.6 10.4,273.6 10.4,283.6 0.3,283.6 0.3,341.5 10.4,341.5 10.4,351.6 	"/>
	<polygon class="st34" points="335.3,282.6 335.3,272.6 325.3,272.6 243.3,272.6 243.3,350.6 325.3,350.6 335.3,350.6 335.3,340.5 
		345.4,340.5 345.4,282.6 	"/>
	<rect x="20.3" y="282.6" class="st34" width="305" height="78"/>
</g>
<g>
	<polygon class="st32" points="110.3,351.6 110.3,273.6 20.4,273.6 20.4,283.6 10.3,283.6 10.3,341.5 20.4,341.5 20.4,351.6 	"/>
	<polygon class="st32" points="100.3,341.6 100.3,263.6 10.4,263.6 10.4,273.6 0.3,273.6 0.3,331.5 10.4,331.5 10.4,341.6 	"/>
	<polygon class="st32" points="325.3,283.6 325.3,273.6 315.3,273.6 233.3,273.6 233.3,351.6 315.3,351.6 325.3,351.6 325.3,341.5 
		335.4,341.5 335.4,283.6 	"/>
	<polygon class="st32" points="335.3,273.6 335.3,263.6 325.3,263.6 243.3,263.6 243.3,341.6 325.3,341.6 335.3,341.6 335.3,331.5 
		345.4,331.5 345.4,273.6 	"/>
	<rect x="110.3" y="273.6" class="st32" width="123" height="78"/>
</g>
<g>
	<polygon class="st35" points="110.3,341.6 110.3,263.6 20.4,263.6 20.4,273.6 10.3,273.6 10.3,331.5 20.4,331.5 20.4,341.6 	"/>
	<polygon class="st35" points="325.3,273.6 325.3,263.6 315.3,263.6 247.3,263.6 247.3,341.6 315.3,341.6 325.3,341.6 325.3,331.5 
		335.4,331.5 335.4,273.6 	"/>
</g>
<g class="st33">
	<polygon class="st34" points="100.3,88 100.3,10 10.4,10 10.4,20.1 0.3,20.1 0.3,77.9 10.4,77.9 10.4,88 	"/>
	<polygon class="st34" points="335.3,19.1 335.3,9 325.3,9 243.3,9 243.3,87 325.3,87 335.3,87 335.3,76.9 345.4,76.9 345.4,19.1 	
		"/>
	<rect x="20.3" y="19" class="st34" width="305" height="78"/>
</g>
<g>
	<polygon class="st32" points="110.3,88 110.3,10 20.4,10 20.4,20.1 10.3,20.1 10.3,77.9 20.4,77.9 20.4,88 	"/>
	<polygon class="st32" points="100.3,78 100.3,0 10.4,0 10.4,10.1 0.3,10.1 0.3,67.9 10.4,67.9 10.4,78 	"/>
	<polygon class="st32" points="325.3,20.1 325.3,10 315.3,10 233.3,10 233.3,88 315.3,88 325.3,88 325.3,77.9 335.4,77.9 
		335.4,20.1 	"/>
	<polygon class="st32" points="335.3,10.1 335.3,0 325.3,0 243.3,0 243.3,78 325.3,78 335.3,78 335.3,67.9 345.4,67.9 345.4,10.1 	
		"/>
	<rect x="110.3" y="10" class="st32" width="123" height="78"/>
</g>
<g>
	<polygon class="st35" points="110.3,78 110.3,0 20.4,0 20.4,10.1 10.3,10.1 10.3,67.9 20.4,67.9 20.4,78 	"/>
	<polygon class="st35" points="325.3,10.1 325.3,0 315.3,0 247.3,0 247.3,78 315.3,78 325.3,78 325.3,67.9 335.4,67.9 335.4,10.1 	
		"/>
</g>
<rect x="95.3" y="263.6" class="st35" width="169" height="78"/>
<rect x="95.3" class="st35" width="169" height="78"/>
<g>
	<rect x="90.3" y="295.8" class="st13" width="179" height="81.8"/>
	<text transform="matrix(1 0 0 1 112.4238 323.4597)" class="st4" style="font-family:'EditUndoBRK'; font-size:48px;">124 KM</text>
</g>
<g>
	<rect x="975.9" y="273.6" class="st31" width="8" height="2"/>
	<polygon class="st31" points="894.9,273.6 894.9,283.6 884.9,283.6 884.9,341.5 894.8,341.5 894.8,351.5 894.9,351.5 894.9,351.6 
		904.8,351.6 904.8,361.6 959.9,361.6 959.9,273.6 	"/>
</g>
<polygon class="st32" points="984.9,273.6 984.9,263.6 895,263.6 895,273.6 884.9,273.6 884.9,331.5 894.9,331.5 894.9,341.5 
	895,341.5 895,341.6 905,341.6 905,351.6 994.9,351.6 994.9,273.6 "/>
<g>
	<g>
		<g>
			<polygon class="st2" points="955,285.1 949.6,285.1 917.2,285.1 917.2,290.4 911.8,290.4 911.8,328.2 917.2,328.2 917.2,333.6 
				949.6,333.6 955,333.6 955,328.2 960.3,328.2 960.3,290.4 955,290.4 			"/>
			<polygon class="st3" points="955.3,279.4 949.9,279.4 917.2,279.4 917.2,284.7 911.8,284.7 911.8,322.8 917.2,322.8 917.2,328.2 
				949.9,328.2 955.3,328.2 955.3,322.8 960.6,322.8 960.6,284.7 955.3,284.7 			"/>
		</g>
		<g>
			<rect x="924.7" y="308.4" class="st4" width="24.2" height="4.8"/>
			<rect x="924.7" y="297.3" class="st4" width="24.2" height="4.8"/>
		</g>
	</g>
	<g class="st33">
		<polygon class="st36" points="917.2,333.7 917.2,338.7 922.6,338.7 955.3,338.7 955.3,333.7 922.6,333.7 		"/>
		<rect x="911.8" y="328.4" class="st36" width="5.4" height="5"/>
		<rect x="955.3" y="328.4" class="st36" width="5.4" height="5"/>
	</g>
</g>
<polygon class="st22" points="-499.2,22.4 -499.2,17.1 -512.7,17.1 -513.2,17.1 -526.1,17.1 -526.7,17.1 -539.6,17.1 -540.1,17.1 
	-553.6,17.1 -553.6,22.3 -560.3,22.3 -560.3,30 -553.6,30 -553.6,35.2 -553.3,35.2 -547.4,35.2 -546.2,35.2 -540.4,35.2 
	-540.1,35.2 -539.8,35.2 -539.6,35.2 -533.9,35.2 -532.8,35.2 -526.9,35.2 -526.7,35.2 -526.3,35.2 -526.1,35.2 -520.4,35.2 
	-519.3,35.2 -513.4,35.2 -513.2,35.2 -512.9,35.2 -512.7,35.2 -507,35.2 -505.8,35.2 -499.9,35.2 -499.2,35.2 -499.2,30 -492.9,30 
	-492.9,22.4 "/>
<polygon class="st37" points="-277.1,-214.5 -277.1,-219.8 -290.6,-219.8 -291.1,-219.8 -304.1,-219.8 -304.6,-219.8 -317.6,-219.8 
	-318.1,-219.8 -330.7,-219.8 -331.6,-219.8 -344.2,-219.8 -344.7,-219.8 -357.7,-219.8 -358.2,-219.8 -371.2,-219.8 -371.7,-219.8 
	-384.7,-219.8 -385.2,-219.8 -398.1,-219.8 -398.7,-219.8 -411.6,-219.8 -412.1,-219.8 -425.1,-219.8 -425.6,-219.8 -438.6,-219.8 
	-439.1,-219.8 -452,-219.8 -452.6,-219.8 -465.5,-219.8 -466,-219.8 -479,-219.8 -479.5,-219.8 -492.5,-219.8 -493,-219.8 
	-506,-219.8 -506.5,-219.8 -519.4,-219.8 -520,-219.8 -532.9,-219.8 -533.4,-219.8 -546.9,-219.8 -546.9,-214.6 -553.6,-214.6 
	-553.6,-206.9 -546.9,-206.9 -546.9,-201.7 -546.6,-201.7 -540.7,-201.7 -539.5,-201.7 -533.6,-201.7 -533.4,-201.7 -533.1,-201.7 
	-532.9,-201.7 -527.2,-201.7 -526.1,-201.7 -520.2,-201.7 -520,-201.7 -519.6,-201.7 -519.4,-201.7 -513.7,-201.7 -512.6,-201.7 
	-506.7,-201.7 -506.5,-201.7 -506.1,-201.7 -506,-201.7 -500.3,-201.7 -499.1,-201.7 -493.2,-201.7 -493,-201.7 -492.7,-201.7 
	-492.5,-201.7 -486.8,-201.7 -485.6,-201.7 -479.7,-201.7 -479.5,-201.7 -479.2,-201.7 -479,-201.7 -473.3,-201.7 -472.1,-201.7 
	-466.3,-201.7 -466,-201.7 -465.7,-201.7 -465.5,-201.7 -459.8,-201.7 -458.7,-201.7 -452.8,-201.7 -452.6,-201.7 -452.2,-201.7 
	-452,-201.7 -446.3,-201.7 -445.2,-201.7 -439.3,-201.7 -439.1,-201.7 -438.7,-201.7 -438.6,-201.7 -432.9,-201.7 -431.7,-201.7 
	-425.8,-201.7 -425.6,-201.7 -425.3,-201.7 -425.1,-201.7 -419.4,-201.7 -418.2,-201.7 -412.3,-201.7 -412.1,-201.7 -411.8,-201.7 
	-411.6,-201.7 -405.9,-201.7 -404.8,-201.7 -398.9,-201.7 -398.7,-201.7 -398.3,-201.7 -398.1,-201.7 -392.4,-201.7 -391.3,-201.7 
	-385.4,-201.7 -385.2,-201.7 -384.8,-201.7 -384.7,-201.7 -378.9,-201.7 -377.8,-201.7 -371.9,-201.7 -371.7,-201.7 -371.4,-201.7 
	-371.2,-201.7 -365.5,-201.7 -364.3,-201.7 -358.4,-201.7 -358.2,-201.7 -357.9,-201.7 -357.7,-201.7 -352,-201.7 -350.8,-201.7 
	-345,-201.7 -344.7,-201.7 -344.4,-201.7 -344.2,-201.7 -338.5,-201.7 -337.4,-201.7 -331.6,-201.7 -331.5,-201.7 -331.2,-201.7 
	-330.7,-201.7 -325.4,-201.7 -324.2,-201.7 -318.3,-201.7 -318.1,-201.7 -317.8,-201.7 -317.6,-201.7 -311.9,-201.7 -310.7,-201.7 
	-304.8,-201.7 -304.6,-201.7 -304.3,-201.7 -304.1,-201.7 -298.4,-201.7 -297.2,-201.7 -291.4,-201.7 -291.1,-201.7 -290.8,-201.7 
	-290.6,-201.7 -284.9,-201.7 -283.8,-201.7 -277.9,-201.7 -277.1,-201.7 -277.1,-206.9 -270.9,-206.9 -270.9,-214.5 "/>
</svg>
