<?xml version="1.0" encoding="utf-8"?>
<!-- Generator: Adobe Illustrator 22.0.1, SVG Export Plug-In . SVG Version: 6.00 Build 0)  -->
<svg version="1.1" id="Layer_1" xmlns="http://www.w3.org/2000/svg" xmlns:xlink="http://www.w3.org/1999/xlink" x="0px" y="0px"
	 width="309.9px" height="87.5px" viewBox="0 0 309.9 87.5" style="enable-background:new 0 0 309.9 87.5;" xml:space="preserve">
<style type="text/css">
	.st0{fill:#5895B7;}
	.st1{opacity:0.8;}
	.st2{fill:#C17620;}
	.st3{fill:#F4C24A;}
	.st4{fill:#FFFFFF;}
	.st5{fill:#2A6FBA;}
	.st6{fill:#4ABAEF;}
	.st7{fill:#95C9C8;}
	.st8{fill:#DDEFEE;}
	.st9{fill:#1B8E6F;}
	.st10{fill:#3CEA8A;}
	.st11{opacity:0.4;fill:#666666;}
	.st12{fill:#33BC6E;}
	.st13{fill:none;}
	.st14{fill:#7149A4;}
	.st15{fill:#BD86E0;}
	.st16{opacity:0.4;fill:#666666;stroke:#666666;stroke-width:4;stroke-linejoin:bevel;stroke-miterlimit:10;}
	.st17{fill:#F2F2F2;}
	.st18{fill:#E6E6E6;}
	.st19{fill:none;stroke:#000000;stroke-width:4;stroke-linejoin:bevel;stroke-miterlimit:10;}
	.st20{fill:#C6E0DE;}
	.st21{fill:#A7C6C3;}
	.st22{fill:#EE3D53;}
	.st23{fill:none;stroke:#000000;stroke-width:2;stroke-miterlimit:10;}
	.st24{fill:#A17559;}
	.st25{fill:#910E46;}
	.st26{fill:#238D6F;}
	.st27{fill:#704CA2;}
	.st28{fill:#47E88D;}
	.st29{fill:#BC88DE;}
	.st30{fill:#CCCCCC;}
	.st31{fill:#5B2616;}
	.st32{opacity:0.38;fill:#2D3D3E;}
	.st33{opacity:0.38;}
	.st34{fill:#2D3D3E;}
	.st35{fill:#3F180F;}
	.st36{fill:#1A1A1A;}
	.st37{fill:#38140C;}
</style>
<g>
	<rect x="-1374.2" y="2208.3" class="st0" width="484" height="82"/>
	<rect x="-922.2" y="2282.3" class="st0" width="107" height="30"/>
	<g class="st1">
		<g>
			<polygon class="st0" points="-1358.2,2228.3 -1358.2,2310.3 -1454.2,2310.3 -1454.2,2299.3 -1442.2,2299.3 -1442.2,2287.3 
				-1430.2,2287.3 -1430.2,2275.3 -1418.2,2275.3 -1418.2,2263.3 -1430.2,2263.3 -1430.2,2251.3 -1442.2,2251.3 -1442.2,2239.3 
				-1454.2,2239.3 -1454.2,2228.3 			"/>
		</g>
		<polygon class="st0" points="-1372.2,2286.3 -1358.2,2309.3 -1358.3,2286.3 		"/>
	</g>
	<g>
		<g>
			<polygon class="st2" points="-911.2,2220.3 -911.2,2302.3 -815.2,2302.3 -815.2,2291.3 -827.2,2291.3 -827.2,2279.3 
				-839.2,2279.3 -839.2,2267.3 -851.2,2267.3 -851.2,2255.3 -839.2,2255.3 -839.2,2243.3 -827.2,2243.3 -827.2,2231.3 
				-815.2,2231.3 -815.2,2220.3 			"/>
			<polygon class="st3" points="-911.2,2209.3 -911.2,2291.3 -815.2,2291.3 -815.2,2280.3 -827.2,2280.3 -827.2,2268.3 
				-839.2,2268.3 -839.2,2256.3 -851.2,2256.3 -851.2,2244.3 -839.2,2244.3 -839.2,2232.3 -827.2,2232.3 -827.2,2220.3 
				-815.2,2220.3 -815.2,2209.3 			"/>
		</g>
		<polygon class="st2" points="-897.2,2278.3 -911.2,2301.3 -911.2,2278.3 		"/>
		<g>
			<g>
				<polygon class="st2" points="-1367.2,2220.3 -1367.2,2302.3 -1463.2,2302.3 -1463.2,2291.3 -1451.2,2291.3 -1451.2,2279.3 
					-1439.2,2279.3 -1439.2,2267.3 -1427.2,2267.3 -1427.2,2255.3 -1439.2,2255.3 -1439.2,2243.3 -1451.2,2243.3 -1451.2,2231.3 
					-1463.2,2231.3 -1463.2,2220.3 				"/>
				<polygon class="st3" points="-1367.2,2209.3 -1367.2,2291.3 -1463.2,2291.3 -1463.2,2280.3 -1451.2,2280.3 -1451.2,2268.3 
					-1439.2,2268.3 -1439.2,2256.3 -1427.2,2256.3 -1427.2,2244.3 -1439.2,2244.3 -1439.2,2232.3 -1451.2,2232.3 -1451.2,2220.3 
					-1463.2,2220.3 -1463.2,2209.3 				"/>
			</g>
			<polygon class="st2" points="-1381.2,2278.3 -1367.2,2301.3 -1367.3,2278.3 			"/>
		</g>
		<g>
			<rect x="-1381.2" y="2196.3" class="st2" width="484" height="82"/>
			<rect x="-1381.2" y="2184.3" class="st3" width="484" height="82"/>
		</g>
	</g>
	<g>
		<path class="st4" d="M-1310.6,2244.1h-8.6v-34.6h8.6v13h8.6v-13h8.6v34.6h-8.6v-13h-8.6V2244.1z"/>
		<path class="st4" d="M-1289,2213.8h4.3v-4.3h17.3v4.3h4.3v25.9h-4.3v4.3h-17.3v-4.3h-4.3V2213.8z M-1280.4,2235.4h8.6v-17.3h-8.6
			V2235.4z"/>
		<path class="st4" d="M-1250.1,2244.1h-8.6v-34.6h8.6v17.3h4.3v-4.3h4.3v4.3h4.3v-17.3h8.6v34.6h-8.6v-4.3h-4.3v-4.3h-4.3v4.3h-4.3
			V2244.1z"/>
		<path class="st4" d="M-1194,2209.5h25.9v8.6h-8.6v25.9h-8.6v-25.9h-8.6V2209.5z"/>
		<path class="st4" d="M-1163.7,2213.8h4.3v-4.3h17.3v4.3h4.3v25.9h-4.3v4.3h-17.3v-4.3h-4.3V2213.8z M-1155.1,2235.4h8.6v-17.3
			h-8.6V2235.4z"/>
		<path class="st4" d="M-1094.6,2244.1h-8.6v-34.6h21.6v4.3h4.3v13h-4.3v4.3h-13V2244.1z M-1094.6,2222.5h8.6v-4.3h-8.6V2222.5z"/>
		<path class="st4" d="M-1068.7,2239.8h-4.3v-30.2h8.6v25.9h17.3v8.6h-21.6V2239.8z"/>
		<path class="st4" d="M-1034.1,2244.1h-8.6v-30.2h4.3v-4.3h17.3v4.3h4.3v30.2h-8.6v-13h-8.6V2244.1z M-1025.5,2222.5v-4.3h-8.6v4.3
			H-1025.5z"/>
		<path class="st4" d="M-1012.5,2209.5h8.6v13h8.6v-13h8.6v17.3h-4.3v4.3h-4.3v13h-8.6v-13h-4.3v-4.3h-4.3V2209.5z"/>
	</g>
</g>
<polygon class="st5" points="-1205.2,2477.3 -1217.2,2477.3 -1290.2,2477.3 -1290.2,2489.3 -1302.2,2489.3 -1302.2,2574.3 
	-1290.2,2574.3 -1290.2,2586.3 -1217.2,2586.3 -1205.2,2586.3 -1205.2,2574.3 -1193.2,2574.3 -1193.2,2489.3 -1205.2,2489.3 "/>
<polygon class="st5" points="-1205.2,2477.3 -1217.2,2477.3 -1290.2,2477.3 -1290.2,2489.3 -1302.2,2489.3 -1302.2,2574.3 
	-1290.2,2574.3 -1290.2,2586.3 -1217.2,2586.3 -1205.2,2586.3 -1205.2,2574.3 -1193.2,2574.3 -1193.2,2489.3 -1205.2,2489.3 "/>
<g>
	<path class="st4" d="M-1265.6,2511.5h28.4v5.7h5.7v17.1h-5.7v5.7h-17.1v-11.4h11.4v-5.7h-22.8V2511.5z M-1254.3,2545.6h11.4v11.4
		h-11.4V2545.6z"/>
</g>
<polygon class="st5" points="-1054.2,2477.3 -1066.2,2477.3 -1139.2,2477.3 -1139.2,2489.3 -1151.2,2489.3 -1151.2,2574.3 
	-1139.2,2574.3 -1139.2,2586.3 -1066.2,2586.3 -1054.2,2586.3 -1054.2,2574.3 -1042.2,2574.3 -1042.2,2489.3 -1054.2,2489.3 "/>
<polygon class="st6" points="-1054.2,2467.3 -1066.2,2467.3 -1139.2,2467.3 -1139.2,2479.3 -1151.2,2479.3 -1151.2,2564.3 
	-1139.2,2564.3 -1139.2,2576.3 -1066.2,2576.3 -1054.2,2576.3 -1054.2,2564.3 -1042.2,2564.3 -1042.2,2479.3 -1054.2,2479.3 "/>
<g>
	<path class="st4" d="M-1114.6,2501.5h28.4v5.7h5.7v17.1h-5.7v5.7h-17.1v-11.4h11.4v-5.7h-22.8V2501.5z M-1103.3,2535.6h11.4v11.4
		h-11.4V2535.6z"/>
</g>
<g>
	<polygon class="st0" points="-19.2,2321.8 -30.8,2321.8 -30.8,2310.2 -42.4,2310.2 -42.4,2297.4 -541.1,2297.4 -541.1,2310.2 
		-552.7,2310.2 -552.7,2321.8 -564.2,2321.8 -564.2,3006.5 -552.7,3006.5 -552.7,3018.2 -541.1,3018.2 -541.1,3031 -42.4,3031 
		-42.4,3018.2 -30.8,3018.2 -30.8,3006.5 -19.2,3006.5 	"/>
	<polygon class="st7" points="-19.2,2309.8 -30.8,2309.8 -30.8,2298.2 -42.4,2298.2 -42.4,2285.3 -541.1,2285.3 -541.1,2298.2 
		-552.7,2298.2 -552.7,2309.8 -564.2,2309.8 -564.2,2994.5 -552.7,2994.5 -552.7,3006.2 -541.1,3006.2 -541.1,3019 -42.4,3019 
		-42.4,3006.2 -30.8,3006.2 -30.8,2994.5 -19.2,2994.5 	"/>
	<polygon class="st8" points="-19.2,2297.8 -30.8,2297.8 -30.8,2286.1 -42.4,2286.1 -42.4,2273.3 -541.1,2273.3 -541.1,2286.1 
		-552.7,2286.1 -552.7,2297.8 -564.2,2297.8 -564.2,2982.5 -552.7,2982.5 -552.7,2994.1 -541.1,2994.1 -541.1,3006.9 -42.4,3006.9 
		-42.4,2994.1 -30.8,2994.1 -30.8,2982.5 -19.2,2982.5 	"/>
</g>
<g>
	<polygon class="st0" points="-1505.2,329.3 -1509.3,329.3 -1509.3,325.1 -1513.4,325.1 -1513.4,320.6 -1689.6,320.6 -1689.6,325.1 
		-1693.7,325.1 -1693.7,329.3 -1697.8,329.3 -1697.8,571.2 -1693.7,571.2 -1693.7,575.3 -1689.6,575.3 -1689.6,579.8 -1513.4,579.8 
		-1513.4,575.3 -1509.3,575.3 -1509.3,571.2 -1505.2,571.2 	"/>
	<polygon class="st7" points="-1505.2,325 -1509.3,325 -1509.3,320.9 -1513.4,320.9 -1513.4,316.4 -1689.6,316.4 -1689.6,320.9 
		-1693.7,320.9 -1693.7,325 -1697.8,325 -1697.8,566.9 -1693.7,566.9 -1693.7,571.1 -1689.6,571.1 -1689.6,575.6 -1513.4,575.6 
		-1513.4,571.1 -1509.3,571.1 -1509.3,566.9 -1505.2,566.9 	"/>
	<polygon class="st8" points="-1505.2,320.8 -1509.3,320.8 -1509.3,316.6 -1513.4,316.6 -1513.4,312.1 -1689.6,312.1 -1689.6,316.6 
		-1693.7,316.6 -1693.7,320.8 -1697.8,320.8 -1697.8,562.7 -1693.7,562.7 -1693.7,566.8 -1689.6,566.8 -1689.6,571.3 -1513.4,571.3 
		-1513.4,566.8 -1509.3,566.8 -1509.3,562.7 -1505.2,562.7 	"/>
</g>
<g>
	<polygon class="st9" points="-1068.2,1957.3 -1078.3,1957.3 -1453.2,1957.3 -1453.2,1967.4 -1463.2,1967.4 -1463.2,2025.3 
		-1453.2,2025.3 -1453.2,2035.3 -1078.3,2035.3 -1068.2,2035.3 -1068.2,2025.3 -1058.1,2025.3 -1058.1,1967.4 -1068.2,1967.4 	"/>
	<polygon class="st10" points="-1068.2,1947.3 -1078.3,1947.3 -1453.2,1947.3 -1453.2,1957.4 -1463.2,1957.4 -1463.2,2015.3 
		-1453.2,2015.3 -1453.2,2025.3 -1078.3,2025.3 -1068.2,2025.3 -1068.2,2015.3 -1058.1,2015.3 -1058.1,1957.4 -1068.2,1957.4 	"/>
	<g>
		<path class="st4" d="M-1343.2,1998.2h-6.9v-27.6h17.3v3.5h3.5v10.4h-3.5v3.5h-10.4V1998.2z M-1343.2,1980.9h6.9v-3.5h-6.9V1980.9z
			"/>
		<path class="st4" d="M-1322.4,1994.7h-3.5v-24.2h6.9v20.7h13.8v6.9h-17.3V1994.7z"/>
		<path class="st4" d="M-1294.8,1998.2h-6.9V1974h3.5v-3.5h13.8v3.5h3.5v24.2h-6.9v-10.4h-6.9V1998.2z M-1287.9,1980.9v-3.5h-6.9
			v3.5H-1287.9z"/>
		<path class="st4" d="M-1277.5,1970.6h6.9v10.4h6.9v-10.4h6.9v13.8h-3.5v3.5h-3.5v10.4h-6.9v-10.4h-3.5v-3.5h-3.5V1970.6z"/>
		<path class="st4" d="M-1249.9,1994.7h-3.5V1974h3.5v-3.5h17.3v6.9h-13.8v3.5h6.9v6.9h-6.9v3.5h13.8v6.9h-17.3V1994.7z"/>
		<path class="st4" d="M-1218.8,1987.8h-3.5v10.4h-6.9v-27.6h17.3v3.5h3.5v10.4h-3.5v3.5h3.5v10.4h-6.9v-6.9h-3.5V1987.8z
			 M-1222.2,1980.9h6.9v-3.5h-6.9V1980.9z"/>
		<path class="st4" d="M-1180.7,1970.6h6.9v27.6h-6.9V1970.6z"/>
	</g>
</g>
<g>
	<polygon class="st11" points="-1429,1836.7 -1431,1831 -1435.1,1818.9 -1452.9,1825 -1450.9,1830.7 -1456.7,1832.7 -1452.6,1844.7 
		-1446.8,1842.8 -1444.9,1848.5 -1432.9,1844.5 -1434.8,1838.7 	"/>
	<polygon class="st11" points="-1390.2,1824.7 -1392.2,1818.9 -1396.3,1806.9 -1414.1,1812.9 -1412.1,1818.7 -1417.9,1820.6 
		-1413.8,1832.6 -1408,1830.7 -1406.1,1836.5 -1394.1,1832.4 -1396,1826.6 	"/>
	<rect x="-1449.8" y="1777.7" transform="matrix(0.9472 -0.3207 0.3207 0.9472 -652.7463 -368.919)" width="7.1" height="38.6"/>
	<polygon points="-1430.7,1831.9 -1432.6,1826.1 -1436.7,1814.1 -1454.5,1820.2 -1452.5,1825.9 -1458.3,1827.9 -1454.2,1839.9 
		-1448.5,1837.9 -1446.5,1843.7 -1434.5,1839.6 -1436.4,1833.9 	"/>
	<rect x="-1411.3" y="1764.7" transform="matrix(0.9472 -0.3207 0.3207 0.9472 -646.5363 -357.2693)" width="7.1" height="38.6"/>
	<polygon points="-1392.2,1818.9 -1394.2,1813.1 -1398.2,1801.1 -1416,1807.1 -1414.1,1812.9 -1419.8,1814.8 -1415.8,1826.9 
		-1410,1824.9 -1408,1830.7 -1396,1826.6 -1398,1820.8 	"/>
	<rect x="-1459.8" y="1755.4" transform="matrix(0.9472 -0.3207 0.3207 0.9472 -641.6321 -367.3635)" width="47.7" height="17.3"/>
</g>
<g>
	<polygon class="st11" points="-1362.8,1870.3 -1361.9,1866.2 -1360,1857.5 -1372.8,1854.7 -1373.7,1858.8 -1377.9,1857.9 
		-1379.8,1866.6 -1375.6,1867.5 -1376.5,1871.6 -1367.9,1873.5 -1367,1869.4 	"/>
	<polygon class="st11" points="-1335.3,1877.1 -1334.4,1872.9 -1332.5,1864.3 -1345.3,1861.5 -1346.2,1865.6 -1350.4,1864.7 
		-1352.3,1873.4 -1348.1,1874.3 -1349,1878.4 -1340.4,1880.3 -1339.5,1876.2 	"/>
	<rect x="-1361.3" y="1826.9" transform="matrix(0.9766 0.2149 -0.2149 0.9766 363.7336 334.9813)" width="5" height="26.9"/>
	<polygon points="-1362.1,1866.8 -1361.2,1862.7 -1359.3,1854.1 -1372.1,1851.2 -1373,1855.4 -1377.1,1854.5 -1379,1863.1 
		-1374.9,1864 -1375.8,1868.2 -1367.1,1870.1 -1366.2,1865.9 	"/>
	<rect x="-1333.6" y="1833" transform="matrix(0.9766 0.2149 -0.2149 0.9766 365.6877 329.1794)" width="5" height="26.9"/>
	<polygon points="-1334.4,1872.9 -1333.5,1868.8 -1331.6,1860.1 -1344.4,1857.3 -1345.3,1861.5 -1349.5,1860.6 -1351.4,1869.2 
		-1347.2,1870.1 -1348.1,1874.3 -1339.5,1876.2 -1338.6,1872 	"/>
	<rect x="-1357.4" y="1818.4" transform="matrix(0.9766 0.2149 -0.2149 0.9766 360.7217 330.7369)" width="33.3" height="12"/>
</g>
<g>
	<polygon class="st11" points="-1286.8,1808.5 -1287.5,1805.5 -1288.9,1799.1 -1298.3,1801.2 -1297.6,1804.3 -1300.7,1804.9 
		-1299.3,1811.3 -1296.2,1810.6 -1295.5,1813.6 -1289.2,1812.2 -1289.9,1809.2 	"/>
	<polygon class="st11" points="-1266.4,1804.5 -1267.1,1801.5 -1268.5,1795.1 -1277.9,1797.2 -1277.2,1800.2 -1280.2,1800.9 
		-1278.8,1807.3 -1275.8,1806.6 -1275.1,1809.6 -1268.8,1808.2 -1269.4,1805.2 	"/>
	<rect x="-1295.2" y="1777.4" transform="matrix(0.9761 -0.2173 0.2173 0.9761 -419.2656 -238.3345)" width="3.6" height="19.8"/>
	<polygon points="-1287.4,1806 -1288.1,1802.9 -1289.5,1796.6 -1298.9,1798.7 -1298.2,1801.7 -1301.2,1802.4 -1299.8,1808.7 
		-1296.8,1808.1 -1296.1,1811.1 -1289.7,1809.7 -1290.4,1806.6 	"/>
	<rect x="-1274.9" y="1772.9" transform="matrix(0.9761 -0.2173 0.2173 0.9761 -417.7981 -234.0298)" width="3.6" height="19.8"/>
	<polygon points="-1267.1,1801.5 -1267.7,1798.4 -1269.2,1792.1 -1278.6,1794.1 -1277.9,1797.2 -1280.9,1797.9 -1279.5,1804.2 
		-1276.5,1803.5 -1275.8,1806.6 -1269.4,1805.2 -1270.1,1802.1 	"/>
	<rect x="-1298.6" y="1766.7" transform="matrix(0.9761 -0.2173 0.2173 0.9761 -415.5723 -237.191)" width="24.4" height="8.8"/>
</g>
<g>
	<polygon class="st11" points="-1266.2,1854.3 -1263.6,1850.2 -1258.1,1841.6 -1270.8,1833.5 -1273.4,1837.6 -1277.6,1835 
		-1283,1843.6 -1278.9,1846.2 -1281.5,1850.3 -1272.9,1855.8 -1270.3,1851.7 	"/>
	<polygon class="st11" points="-1239.2,1872.4 -1236.6,1868.3 -1231.2,1859.7 -1243.8,1851.6 -1246.5,1855.8 -1250.6,1853.1 
		-1256,1861.7 -1251.9,1864.3 -1254.5,1868.4 -1245.9,1873.9 -1243.3,1869.8 	"/>
	<rect x="-1252.9" y="1808.2" transform="matrix(0.844 0.5363 -0.5363 0.844 783.03 954.8757)" width="5.7" height="30.9"/>
	<polygon points="-1264,1850.8 -1261.4,1846.7 -1256,1838.2 -1268.7,1830.1 -1271.3,1834.2 -1275.4,1831.6 -1280.8,1840.2 
		-1276.7,1842.8 -1279.3,1846.9 -1270.8,1852.3 -1268.1,1848.2 	"/>
	<rect x="-1225.5" y="1825.6" transform="matrix(0.844 0.5363 -0.5363 0.844 796.6544 942.8848)" width="5.7" height="30.9"/>
	<polygon points="-1236.6,1868.3 -1234,1864.2 -1228.5,1855.6 -1241.2,1847.5 -1243.8,1851.6 -1248,1849 -1253.4,1857.6 
		-1249.3,1860.2 -1251.9,1864.3 -1243.3,1869.8 -1240.7,1865.7 	"/>
	<rect x="-1243.5" y="1806.6" transform="matrix(0.844 0.5363 -0.5363 0.844 781.5985 939.5135)" width="38.2" height="13.8"/>
</g>
<g>
	<polygon class="st9" points="-1545,1413.9 -1551.6,1413.9 -1797.9,1413.9 -1797.9,1420.5 -1804.5,1420.5 -1804.5,1458.5 
		-1797.9,1458.5 -1797.9,1465.1 -1551.6,1465.1 -1545,1465.1 -1545,1458.5 -1538.3,1458.5 -1538.3,1420.5 -1545,1420.5 	"/>
	<polygon class="st12" points="-1545,1413.9 -1551.6,1413.9 -1797.9,1413.9 -1797.9,1420.5 -1804.5,1420.5 -1804.5,1458.5 
		-1797.9,1458.5 -1797.9,1465.1 -1551.6,1465.1 -1545,1465.1 -1545,1458.5 -1538.3,1458.5 -1538.3,1420.5 -1545,1420.5 	"/>
	<g>
		<path class="st4" d="M-1738.1,1431.4h2.3v-2.3h11.4v4.5h-9.1v9.1h9.1v4.5h-11.4v-2.3h-2.3V1431.4z"/>
		<path class="st4" d="M-1717.7,1447.3h-4.5v-15.9h2.3v-2.3h9.1v2.3h2.3v15.9h-4.5v-6.8h-4.5V1447.3z M-1713.2,1435.9v-2.3h-4.5v2.3
			H-1713.2z"/>
		<path class="st4" d="M-1704.1,1445h-2.3v-15.9h4.5v13.6h9.1v4.5h-11.4V1445z"/>
		<path class="st4" d="M-1690.5,1429.1h4.5v18.2h-4.5V1429.1z"/>
		<path class="st4" d="M-1683.6,1429.1h11.4v2.3h2.3v13.6h-2.3v2.3h-11.4V1429.1z M-1679.1,1435.9h4.5v-2.3h-4.5V1435.9z
			 M-1679.1,1442.7h4.5v-2.3h-4.5V1442.7z"/>
		<path class="st4" d="M-1660.9,1440.5h-2.3v6.8h-4.5v-15.9h2.3v-2.3h9.1v2.3h2.3v6.8h-2.3v2.3h2.3v6.8h-4.5v-4.5h-2.3V1440.5z
			 M-1663.2,1435.9h4.5v-2.3h-4.5V1435.9z"/>
		<path class="st4" d="M-1647.3,1447.3h-4.5v-15.9h2.3v-2.3h9.1v2.3h2.3v15.9h-4.5v-6.8h-4.5V1447.3z M-1642.8,1435.9v-2.3h-4.5v2.3
			H-1642.8z"/>
		<path class="st4" d="M-1635.9,1429.1h13.6v4.5h-4.5v13.6h-4.5v-13.6h-4.5V1429.1z"/>
		<path class="st4" d="M-1617.8,1445h-2.3v-13.6h2.3v-2.3h11.4v4.5h-9.1v2.3h4.5v4.5h-4.5v2.3h9.1v4.5h-11.4V1445z"/>
	</g>
</g>
<g>
	<polygon class="st9" points="-1225,1481.9 -1231.6,1481.9 -1477.9,1481.9 -1477.9,1488.5 -1484.5,1488.5 -1484.5,1526.5 
		-1477.9,1526.5 -1477.9,1533.1 -1231.6,1533.1 -1225,1533.1 -1225,1526.5 -1218.3,1526.5 -1218.3,1488.5 -1225,1488.5 	"/>
	<polygon class="st10" points="-1225,1475.3 -1231.6,1475.3 -1477.9,1475.3 -1477.9,1481.9 -1484.5,1481.9 -1484.5,1519.9 
		-1477.9,1519.9 -1477.9,1526.5 -1231.6,1526.5 -1225,1526.5 -1225,1519.9 -1218.3,1519.9 -1218.3,1481.9 -1225,1481.9 	"/>
	<g>
		<path class="st4" d="M-1418.1,1492.8h2.3v-2.3h11.4v4.5h-9.1v9.1h9.1v4.5h-11.4v-2.3h-2.3V1492.8z"/>
		<path class="st4" d="M-1397.7,1508.7h-4.5v-15.9h2.3v-2.3h9.1v2.3h2.3v15.9h-4.5v-6.8h-4.5V1508.7z M-1393.2,1497.4v-2.3h-4.5v2.3
			H-1393.2z"/>
		<path class="st4" d="M-1384.1,1506.4h-2.3v-15.9h4.5v13.6h9.1v4.5h-11.4V1506.4z"/>
		<path class="st4" d="M-1370.5,1490.6h4.5v18.2h-4.5V1490.6z"/>
		<path class="st4" d="M-1363.6,1490.6h11.4v2.3h2.3v13.6h-2.3v2.3h-11.4V1490.6z M-1359.1,1497.4h4.5v-2.3h-4.5V1497.4z
			 M-1359.1,1504.2h4.5v-2.3h-4.5V1504.2z"/>
		<path class="st4" d="M-1340.9,1501.9h-2.3v6.8h-4.5v-15.9h2.3v-2.3h9.1v2.3h2.3v6.8h-2.3v2.3h2.3v6.8h-4.5v-4.5h-2.3V1501.9z
			 M-1343.2,1497.4h4.5v-2.3h-4.5V1497.4z"/>
		<path class="st4" d="M-1327.3,1508.7h-4.5v-15.9h2.3v-2.3h9.1v2.3h2.3v15.9h-4.5v-6.8h-4.5V1508.7z M-1322.8,1497.4v-2.3h-4.5v2.3
			H-1322.8z"/>
		<path class="st4" d="M-1315.9,1490.6h13.6v4.5h-4.5v13.6h-4.5v-13.6h-4.5V1490.6z"/>
		<path class="st4" d="M-1297.8,1506.4h-2.3v-13.6h2.3v-2.3h11.4v4.5h-9.1v2.3h4.5v4.5h-4.5v2.3h9.1v4.5h-11.4V1506.4z"/>
	</g>
</g>
<g>
	<rect x="-1483" y="1564.2" class="st9" width="219.8" height="28.8"/>
	<rect x="-1487.8" y="1557.7" class="st9" width="229.4" height="30.6"/>
	<polygon class="st10" points="-1487.8,1553.3 -1487.8,1582.6 -1483,1582.6 -1483,1588.2 -1263.2,1588.2 -1263.2,1582.6 
		-1258.4,1582.6 -1258.4,1553.3 	"/>
</g>
<polygon class="st9" points="-1268,1568.1 -1268,1563 -1273.1,1563 -1273.1,1562.9 -1329.8,1562.9 -1360.3,1562.9 -1385.9,1562.9 
	-1409.8,1562.9 -1473.1,1562.9 -1473.1,1563 -1478.2,1563 -1478.2,1568.1 -1483.3,1568.1 -1483.3,1575.7 -1478.2,1575.7 
	-1478.2,1580.8 -1473.1,1580.8 -1473.1,1580.9 -1409.8,1580.9 -1385.9,1580.9 -1360.3,1580.9 -1329.8,1580.9 -1273.1,1580.9 
	-1273.1,1580.9 -1268,1580.9 -1268,1575.8 -1262.9,1575.8 -1262.9,1568.1 "/>
<g>
	<rect x="-1491.9" y="1662.2" class="st13" width="4.7" height="0.1"/>
	<rect x="-1491.9" y="1680.1" class="st13" width="4.7" height="0.1"/>
	<polygon class="st4" points="-1470.9,1680.2 -1470.9,1675.1 -1465.8,1675.1 -1465.8,1667.4 -1470.9,1667.4 -1470.9,1662.3 
		-1476,1662.3 -1476,1662.2 -1487.2,1662.2 -1487.2,1662.3 -1491.9,1662.3 -1491.9,1680.1 -1487.2,1680.1 -1487.2,1680.2 
		-1476,1680.2 -1476,1680.2 	"/>
</g>
<g>
	<polygon class="st4" points="-1517.7,1626.7 -1517.7,1621.6 -1522.8,1621.6 -1522.8,1621.5 -1538.7,1621.5 -1538.7,1639.5 
		-1522.8,1639.5 -1522.8,1639.4 -1517.7,1639.4 -1517.7,1634.3 -1512.6,1634.3 -1512.6,1626.7 	"/>
	<polygon class="st4" points="-1531.2,1665.5 -1531.2,1660.4 -1531.2,1660.4 -1531.2,1660.3 -1535.7,1660.3 -1536.3,1660.3 
		-1540.8,1660.3 -1540.8,1660.4 -1540.8,1660.4 -1540.8,1665.5 -1545.9,1665.5 -1545.9,1673.1 -1540.8,1673.1 -1540.8,1678.2 
		-1540.8,1678.2 -1540.8,1678.3 -1536.3,1678.3 -1535.7,1678.3 -1531.2,1678.3 -1531.2,1678.3 -1531.2,1678.3 -1531.2,1673.2 
		-1526.1,1673.2 -1526.1,1665.5 	"/>
</g>
<polygon class="st4" points="-1581,1568.1 -1581,1563 -1581,1563 -1581,1562.9 -1585.5,1562.9 -1586.1,1562.9 -1590.6,1562.9 
	-1590.6,1563 -1590.6,1563 -1590.6,1568.1 -1595.7,1568.1 -1595.7,1575.7 -1590.6,1575.7 -1590.6,1580.8 -1590.6,1580.8 
	-1590.6,1580.9 -1586.1,1580.9 -1585.5,1580.9 -1581,1580.9 -1581,1580.9 -1581,1580.9 -1581,1575.8 -1575.9,1575.8 -1575.9,1568.1 
	"/>
<polygon class="st14" points="-615.2,1957.3 -625.3,1957.3 -1000.2,1957.3 -1000.2,1967.4 -1010.2,1967.4 -1010.2,2025.3 
	-1000.2,2025.3 -1000.2,2035.3 -625.3,2035.3 -615.2,2035.3 -615.2,2025.3 -605.1,2025.3 -605.1,1967.4 -615.2,1967.4 "/>
<polygon class="st15" points="-615.2,1947.3 -625.3,1947.3 -1000.2,1947.3 -1000.2,1957.4 -1010.2,1957.4 -1010.2,2015.3 
	-1000.2,2015.3 -1000.2,2025.3 -625.3,2025.3 -615.2,2025.3 -615.2,2015.3 -605.1,2015.3 -605.1,1957.4 -615.2,1957.4 "/>
<g>
	<path class="st4" d="M-897.6,1998.2h-6.9v-27.6h17.3v3.5h3.5v10.4h-3.5v3.5h-10.4V1998.2z M-897.6,1980.9h6.9v-3.5h-6.9V1980.9z"/>
	<path class="st4" d="M-876.8,1994.7h-3.5v-24.2h6.9v20.7h13.8v6.9h-17.3V1994.7z"/>
	<path class="st4" d="M-849.2,1998.2h-6.9V1974h3.5v-3.5h13.8v3.5h3.5v24.2h-6.9v-10.4h-6.9V1998.2z M-842.3,1980.9v-3.5h-6.9v3.5
		H-842.3z"/>
	<path class="st4" d="M-831.9,1970.6h6.9v10.4h6.9v-10.4h6.9v13.8h-3.5v3.5h-3.5v10.4h-6.9v-10.4h-3.5v-3.5h-3.5V1970.6z"/>
	<path class="st4" d="M-804.3,1994.7h-3.5V1974h3.5v-3.5h17.3v6.9h-13.8v3.5h6.9v6.9h-6.9v3.5h13.8v6.9h-17.3V1994.7z"/>
	<path class="st4" d="M-773.2,1987.8h-3.5v10.4h-6.9v-27.6h17.3v3.5h3.5v10.4h-3.5v3.5h3.5v10.4h-6.9v-6.9h-3.5V1987.8z
		 M-776.6,1980.9h6.9v-3.5h-6.9V1980.9z"/>
	<path class="st4" d="M-735.2,1970.6h17.3v3.5h3.5v10.4h-3.5v3.5h-10.4v3.5h13.8v6.9h-20.7v-13.8h3.5v-3.5h10.4v-3.5h-13.8V1970.6z"
		/>
</g>
<g>
	<rect x="-989.2" y="1951.3" class="st4" width="45.1" height="5.7"/>
	<rect x="-938" y="1951.3" class="st4" width="5.7" height="5.7"/>
</g>
<g>
	<rect x="-1443.7" y="1952.3" class="st4" width="45.1" height="5.7"/>
	<rect x="-1392.5" y="1952.3" class="st4" width="5.7" height="5.7"/>
</g>
<polygon class="st16" points="-1054.6,1792.3 -1048.2,1797.9 -1053.8,1804.3 -1033.4,1821.7 -1033.4,1859.6 -1012.6,1833.5 
	-980.9,1862.9 -975,1856.6 -970.1,1861.2 -898.5,1742.5 "/>
<polygon class="st17" points="-1057.1,1785.2 -1050.7,1790.8 -1056.3,1797.2 -1035.8,1814.6 -1035.8,1852.5 -1015.1,1826.4 
	-983.3,1855.7 -977.5,1849.5 -972.5,1854.1 -900.9,1735.4 "/>
<polygon class="st18" points="-1015,1826.2 -900.7,1735.4 -1035.8,1814.4 -1035.8,1852.2 "/>
<polygon class="st19" points="-1058.1,1785.3 -1051.7,1790.9 -1057.3,1797.3 -1036.9,1814.7 -1036.9,1852.6 -1016.2,1826.5 
	-984.4,1855.9 -978.6,1849.6 -973.6,1854.2 -902,1735.5 "/>
<g>
	<polygon class="st20" points="-1122.3,1478.6 -1122.3,1642.2 -1111.9,1642.2 -1111.9,1651.8 -1101.5,1651.8 -1101.5,1662.2 
		-654,1662.2 -654,1651.8 -643.7,1651.8 -643.7,1642.2 -633.3,1642.2 -633.3,1478.6 	"/>
	<polygon class="st20" points="-633.3,1478.6 -633.3,1384.5 -643.7,1384.5 -643.7,1375 -654,1375 -654,1364.5 -1101.5,1364.5 
		-1101.5,1375 -1111.9,1375 -1111.9,1384.5 -1122.3,1384.5 -1122.3,1478.6 	"/>
</g>
<g>
	<polygon class="st21" points="-1111.9,1381.1 -1101.5,1381.1 -1101.5,1373.1 -1111.9,1373.1 -1111.9,1381 -1122.3,1381 
		-1122.3,1389 -1111.9,1389 	"/>
	<rect x="-1101.5" y="1364.4" class="st21" width="447.5" height="8"/>
	<polygon class="st21" points="-643.7,1381 -643.7,1373.1 -654,1373.1 -654,1381.1 -643.7,1381.1 -643.7,1389 -633.3,1389 
		-633.3,1381 	"/>
</g>
<g>
	<g>
		<g>
			<rect x="-1515.4" y="1300.1" width="10.2" height="10.2"/>
		</g>
	</g>
	<g>
		<g>
			<path d="M-1454,1289.9v5.1h-5.1v5.1h5.1v20.5h5.1v5.1h-5.1v5.1h5.1h5.1v-10.2h15.4v5.1h5.1v-5.1v-30.7H-1454z M-1428.4,1315.5
				h-20.5V1295h20.5V1315.5z"/>
		</g>
	</g>
	<g>
		<g>
			<rect x="-1443.7" y="1300.1" width="10.2" height="10.2"/>
		</g>
	</g>
	<g>
		<g>
			<rect x="-1515.4" y="1371.8" width="10.2" height="10.2"/>
		</g>
	</g>
	<g>
		<g>
			<rect x="-1454" y="1361.6" width="5.1" height="5.1"/>
		</g>
	</g>
	<g>
		<g>
			<rect x="-1479.6" y="1387.2" width="5.1" height="5.1"/>
		</g>
	</g>
	<g>
		<g>
			<rect x="-1474.5" y="1366.7" width="5.1" height="5.1"/>
		</g>
	</g>
	<g>
		<g>
			<rect x="-1474.5" y="1376.9" width="5.1" height="5.1"/>
		</g>
	</g>
	<g>
		<g>
			<rect x="-1428.4" y="1351.3" width="5.1" height="5.1"/>
		</g>
	</g>
	<g>
		<g>
			<rect x="-1525.7" y="1351.3" width="5.1" height="5.1"/>
		</g>
	</g>
	<g>
		<g>
			<rect x="-1525.7" y="1325.7" width="5.1" height="5.1"/>
		</g>
	</g>
	<g>
		<g>
			<polygon points="-1469.3,1295 -1469.3,1300.1 -1479.6,1300.1 -1479.6,1305.2 -1464.2,1305.2 -1464.2,1300.1 -1464.2,1295 			"/>
		</g>
	</g>
	<g>
		<g>
			<path d="M-1428.4,1330.9v5.1h-10.2v5.1h-15.4v-5.1h-5.1v5.1h-10.2v5.1h15.4v5.1h-10.2h-5.1v-5.1h-5.1v5.1h-5.1v-5.1h-5.1v5.1
				h-5.1v5.1h10.2v5.1h5.1v-5.1h10.2v5.1h-5.1v5.1h5.1v10.2h5.1v5.1h5.1v-5.1h15.4v-10.2h5.1v-5.1h-5.1v-10.2h-10.2v-5.1h10.2v5.1
				h5.1v-5.1h5.1v-5.1h5.1v-5.1v-5.1H-1428.4L-1428.4,1330.9z M-1443.7,1356.5v15.4h-15.4v-15.4H-1443.7z"/>
		</g>
	</g>
	<g>
		<g>
			<polygon points="-1459.1,1320.6 -1464.2,1320.6 -1464.2,1325.7 -1469.3,1325.7 -1469.3,1330.9 -1469.3,1336 -1464.2,1336 
				-1464.2,1330.9 -1459.1,1330.9 -1459.1,1325.7 -1454,1325.7 -1454,1320.6 			"/>
		</g>
	</g>
	<g>
		<g>
			<rect x="-1469.3" y="1387.2" width="10.2" height="5.1"/>
		</g>
	</g>
	<g>
		<g>
			<rect x="-1484.7" y="1295" width="5.1" height="5.1"/>
		</g>
	</g>
	<g>
		<g>
			<rect x="-1443.7" y="1330.9" width="5.1" height="5.1"/>
		</g>
	</g>
	<g>
		<g>
			<rect x="-1438.6" y="1325.7" width="5.1" height="5.1"/>
		</g>
	</g>
	<g>
		<g>
			<rect x="-1505.2" y="1351.3" width="5.1" height="5.1"/>
		</g>
	</g>
	<g>
		<g>
			<path d="M-1495,1387.2v-20.5h5.1v-5.1v-5.1h-5.1v5.1h-15.4v-5.1h-5.1h-5.1v5.1h-5.1v30.7h30.7h10.2v-5.1H-1495z M-1500.1,1387.2
				h-20.5v-20.5h20.5V1387.2z"/>
		</g>
	</g>
	<g>
		<g>
			<rect x="-1495" y="1320.6" width="5.1" height="5.1"/>
		</g>
	</g>
	<g>
		<g>
			<path d="M-1489.8,1289.9h-5.1h-30.7v30.7h5.1v5.1h5.1v-5.1h5.1v5.1h5.1v-5.1h10.2v-10.2h5.1v-5.1h-5.1V1295h5.1h5.1v-5.1H-1489.8
				z M-1500.1,1315.5h-20.5V1295h20.5V1315.5z"/>
		</g>
	</g>
	<g>
		<g>
			<rect x="-1464.2" y="1305.2" width="5.1" height="5.1"/>
		</g>
	</g>
	<g>
		<g>
			<rect x="-1474.5" y="1289.9" width="5.1" height="5.1"/>
		</g>
	</g>
	<g>
		<g>
			<path d="M-1464.2,1320.6v-5.1h-5.1v-5.1h-5.1v5.1h-10.2v-5.1h-5.1v5.1v5.1h5.1v10.2h-15.4v-5.1h-5.1v5.1h-15.4v5.1h10.2v5.1
				h-15.4v5.1h15.4v5.1h5.1v-5.1h5.1v5.1h5.1v-5.1h10.2v-5.1h-5.1v-5.1h5.1h5.1v5.1h5.1h5.1v-5.1h-5.1v-5.1h-5.1v-10.2H-1464.2
				L-1464.2,1320.6z M-1495,1341.1h-10.2v-5.1h10.2V1341.1z"/>
		</g>
	</g>
	<g>
		<g>
			<polygon points="-1479.6,1371.8 -1479.6,1366.7 -1479.6,1361.6 -1484.7,1361.6 -1484.7,1366.7 -1489.8,1366.7 -1489.8,1371.8 
				-1484.7,1371.8 -1484.7,1376.9 -1489.8,1376.9 -1489.8,1382.1 -1479.6,1382.1 -1479.6,1376.9 -1474.5,1376.9 -1474.5,1371.8 			
				"/>
		</g>
	</g>
	<g>
		<g>
			<polygon points="-1433.5,1382.1 -1433.5,1376.9 -1438.6,1376.9 -1438.6,1382.1 -1454,1382.1 -1454,1387.2 -1443.7,1387.2 
				-1443.7,1392.3 -1438.6,1392.3 -1438.6,1387.2 -1428.4,1387.2 -1428.4,1392.3 -1423.3,1392.3 -1423.3,1387.2 -1423.3,1382.1 			
				"/>
		</g>
	</g>
	<g>
		<g>
			<polygon points="-1428.4,1361.6 -1428.4,1366.7 -1433.5,1366.7 -1433.5,1371.8 -1423.3,1371.8 -1423.3,1366.7 -1423.3,1361.6 			
				"/>
		</g>
	</g>
</g>
<g>
	<g>
		<polygon class="st9" points="-1753.8,1706 -1757.5,1706 -1894.6,1706 -1894.6,1709.7 -1898.3,1709.7 -1898.3,1730.9 
			-1894.6,1730.9 -1894.6,1734.6 -1757.5,1734.6 -1753.8,1734.6 -1753.8,1730.9 -1750.1,1730.9 -1750.1,1709.7 -1753.8,1709.7 		"/>
		<polygon class="st12" points="-1753.8,1706 -1757.5,1706 -1894.6,1706 -1894.6,1709.7 -1898.3,1709.7 -1898.3,1730.9 
			-1894.6,1730.9 -1894.6,1734.6 -1757.5,1734.6 -1753.8,1734.6 -1753.8,1730.9 -1750.1,1730.9 -1750.1,1709.7 -1753.8,1709.7 		"/>
		<g>
			<path class="st4" d="M-1866.4,1720.8h-1.3v3.8h-2.5v-10.1h6.3v1.3h1.3v3.8h-1.3v1.3h1.3v3.8h-2.5v-2.5h-1.3V1720.8z
				 M-1867.7,1718.3h2.5v-1.3h-2.5V1718.3z"/>
			<path class="st4" d="M-1860.1,1723.4h-1.3v-7.6h1.3v-1.3h6.3v2.5h-5.1v1.3h2.5v2.5h-2.5v1.3h5.1v2.5h-6.3V1723.4z"/>
			<path class="st4" d="M-1851.2,1723.4h-1.3v-7.6h1.3v-1.3h5.1v1.3h1.3v2.5h-2.5v-1.3h-2.5v5.1h2.5v-1.3h2.5v2.5h-1.3v1.3h-5.1
				V1723.4z"/>
			<path class="st4" d="M-1841.1,1724.6h-2.5v-8.9h1.3v-1.3h5.1v1.3h1.3v8.9h-2.5v-3.8h-2.5V1724.6z M-1838.6,1718.3v-1.3h-2.5v1.3
				H-1838.6z"/>
			<path class="st4" d="M-1833.5,1723.4h-1.3v-8.9h2.5v7.6h5.1v2.5h-6.3V1723.4z"/>
			<path class="st4" d="M-1825.9,1714.5h2.5v10.1h-2.5V1714.5z"/>
			<path class="st4" d="M-1822.2,1714.5h6.3v1.3h1.3v7.6h-1.3v1.3h-6.3V1714.5z M-1819.6,1718.3h2.5v-1.3h-2.5V1718.3z
				 M-1819.6,1722.1h2.5v-1.3h-2.5V1722.1z"/>
			<path class="st4" d="M-1809.5,1720.8h-1.3v3.8h-2.5v-8.9h1.3v-1.3h5.1v1.3h1.3v3.8h-1.3v1.3h1.3v3.8h-2.5v-2.5h-1.3V1720.8z
				 M-1810.8,1718.3h2.5v-1.3h-2.5V1718.3z"/>
			<path class="st4" d="M-1801.9,1724.6h-2.5v-8.9h1.3v-1.3h5.1v1.3h1.3v8.9h-2.5v-3.8h-2.5V1724.6z M-1799.4,1718.3v-1.3h-2.5v1.3
				H-1799.4z"/>
			<path class="st4" d="M-1795.6,1714.5h7.6v2.5h-2.5v7.6h-2.5v-7.6h-2.5V1714.5z"/>
			<path class="st4" d="M-1785.5,1723.4h-1.3v-7.6h1.3v-1.3h6.3v2.5h-5.1v1.3h2.5v2.5h-2.5v1.3h5.1v2.5h-6.3V1723.4z"/>
		</g>
	</g>
	<g>
		<rect x="-1892.2" y="1708.1" class="st4" width="13.1" height="1.7"/>
		<rect x="-1877.3" y="1708.1" class="st4" width="1.7" height="1.7"/>
	</g>
</g>
<g>
	<g>
		<polygon class="st9" points="-1753.8,1748 -1757.5,1748 -1894.6,1748 -1894.6,1751.7 -1898.3,1751.7 -1898.3,1772.9 
			-1894.6,1772.9 -1894.6,1776.6 -1757.5,1776.6 -1753.8,1776.6 -1753.8,1772.9 -1750.1,1772.9 -1750.1,1751.7 -1753.8,1751.7 		"/>
		<polygon class="st10" points="-1753.8,1744.4 -1757.5,1744.4 -1894.6,1744.4 -1894.6,1748 -1898.3,1748 -1898.3,1769.2 
			-1894.6,1769.2 -1894.6,1772.9 -1757.5,1772.9 -1753.8,1772.9 -1753.8,1769.2 -1750.1,1769.2 -1750.1,1748 -1753.8,1748 		"/>
		<g>
			<path class="st4" d="M-1866.4,1759.2h-1.3v3.8h-2.5v-10.1h6.3v1.3h1.3v3.8h-1.3v1.3h1.3v3.8h-2.5v-2.5h-1.3V1759.2z
				 M-1867.7,1756.7h2.5v-1.3h-2.5V1756.7z"/>
			<path class="st4" d="M-1860.1,1761.7h-1.3v-7.6h1.3v-1.3h6.3v2.5h-5.1v1.3h2.5v2.5h-2.5v1.3h5.1v2.5h-6.3V1761.7z"/>
			<path class="st4" d="M-1851.2,1761.7h-1.3v-7.6h1.3v-1.3h5.1v1.3h1.3v2.5h-2.5v-1.3h-2.5v5.1h2.5v-1.3h2.5v2.5h-1.3v1.3h-5.1
				V1761.7z"/>
			<path class="st4" d="M-1841.1,1763h-2.5v-8.9h1.3v-1.3h5.1v1.3h1.3v8.9h-2.5v-3.8h-2.5V1763z M-1838.6,1756.7v-1.3h-2.5v1.3
				H-1838.6z"/>
			<path class="st4" d="M-1833.5,1761.7h-1.3v-8.9h2.5v7.6h5.1v2.5h-6.3V1761.7z"/>
			<path class="st4" d="M-1825.9,1752.9h2.5v10.1h-2.5V1752.9z"/>
			<path class="st4" d="M-1822.2,1752.9h6.3v1.3h1.3v7.6h-1.3v1.3h-6.3V1752.9z M-1819.6,1756.7h2.5v-1.3h-2.5V1756.7z
				 M-1819.6,1760.4h2.5v-1.3h-2.5V1760.4z"/>
			<path class="st4" d="M-1809.5,1759.2h-1.3v3.8h-2.5v-8.9h1.3v-1.3h5.1v1.3h1.3v3.8h-1.3v1.3h1.3v3.8h-2.5v-2.5h-1.3V1759.2z
				 M-1810.8,1756.7h2.5v-1.3h-2.5V1756.7z"/>
			<path class="st4" d="M-1801.9,1763h-2.5v-8.9h1.3v-1.3h5.1v1.3h1.3v8.9h-2.5v-3.8h-2.5V1763z M-1799.4,1756.7v-1.3h-2.5v1.3
				H-1799.4z"/>
			<path class="st4" d="M-1795.6,1752.9h7.6v2.5h-2.5v7.6h-2.5v-7.6h-2.5V1752.9z"/>
			<path class="st4" d="M-1785.5,1761.7h-1.3v-7.6h1.3v-1.3h6.3v2.5h-5.1v1.3h2.5v2.5h-2.5v1.3h5.1v2.5h-6.3V1761.7z"/>
		</g>
	</g>
	<g>
		<rect x="-1892.2" y="1747.1" class="st4" width="13.1" height="1.7"/>
		<rect x="-1877.3" y="1747.1" class="st4" width="1.7" height="1.7"/>
	</g>
</g>
<g>
	<rect x="-1472.4" y="1478.9" class="st4" width="23.6" height="3"/>
	<rect x="-1445.7" y="1478.9" class="st4" width="3" height="3"/>
</g>
<g>
	<rect x="-1792.8" y="1417.4" class="st4" width="23.6" height="3"/>
	<rect x="-1766.1" y="1417.4" class="st4" width="3" height="3"/>
</g>
<g>
	<polygon class="st22" points="-1822.9,1540.9 -1822.9,1533.4 -1841.6,1533.4 -1841.6,1540.9 -1849,1540.9 -1849,1548.4 
		-1849,1559.5 -1841.6,1559.5 -1841.6,1567 -1830.4,1567 -1822.9,1567 -1822.9,1559.5 -1815.4,1559.5 -1815.4,1548.4 
		-1815.4,1540.9 	"/>
	<line class="st23" x1="-1840.9" y1="1567" x2="-1840.9" y2="1577"/>
	<line class="st23" x1="-1823.5" y1="1567" x2="-1823.5" y2="1577"/>
	<polygon class="st24" points="-1824.5,1575.1 -1826.7,1575.1 -1840,1575.1 -1840,1577.3 -1842.2,1577.3 -1842.2,1592.8 
		-1840,1592.8 -1840,1595 -1826.7,1595 -1824.5,1595 -1824.5,1592.8 -1822.3,1592.8 -1822.3,1577.3 -1824.5,1577.3 	"/>
</g>
<polygon class="st25" points="-1755.8,1980.2 -1755.8,1972.2 -1763.7,1972.2 -1828.8,1972.2 -1897.5,1972.2 -1897.5,1980.2 
	-1905.4,1980.2 -1905.4,2025.7 -1897.5,2025.7 -1897.5,2033.6 -1828.8,2033.6 -1763.7,2033.6 -1755.8,2033.6 -1755.8,2025.7 
	-1747.9,2025.7 -1747.9,1980.2 "/>
<polygon class="st25" points="-1755.8,1980.3 -1755.8,1972.3 -1763.7,1972.3 -1828.8,1972.3 -1897.5,1972.3 -1897.5,1980.3 
	-1905.4,1980.3 -1905.4,2025.8 -1897.5,2025.8 -1897.5,2033.8 -1828.8,2033.8 -1763.7,2033.8 -1755.8,2033.8 -1755.8,2025.8 
	-1747.9,2025.8 -1747.9,1980.3 "/>
<g>
	<path class="st4" d="M-1859.3,2013.7h-5.4v-21.8h13.6v2.7h2.7v8.2h-2.7v2.7h-8.2V2013.7z M-1859.3,2000.1h5.4v-2.7h-5.4V2000.1z"/>
	<path class="st4" d="M-1843,2011h-2.7v-19h5.4v16.3h10.9v5.4h-13.6V2011z"/>
	<path class="st4" d="M-1821.2,2013.7h-5.4v-19h2.7v-2.7h10.9v2.7h2.7v19h-5.4v-8.2h-5.4V2013.7z M-1815.8,2000.1v-2.7h-5.4v2.7
		H-1815.8z"/>
	<path class="st4" d="M-1807.6,1991.9h5.4v8.2h5.4v-8.2h5.4v10.9h-2.7v2.7h-2.7v8.2h-5.4v-8.2h-2.7v-2.7h-2.7V1991.9z"/>
</g>
<polygon class="st25" points="-1585.8,1980.2 -1585.8,1972.2 -1593.7,1972.2 -1658.8,1972.2 -1727.5,1972.2 -1727.5,1980.2 
	-1735.4,1980.2 -1735.4,2025.7 -1727.5,2025.7 -1727.5,2033.6 -1658.8,2033.6 -1593.7,2033.6 -1585.8,2033.6 -1585.8,2025.7 
	-1577.9,2025.7 -1577.9,1980.2 "/>
<polygon class="st22" points="-1585.8,1972.3 -1585.8,1964.3 -1593.7,1964.3 -1658.8,1964.3 -1727.5,1964.3 -1727.5,1972.3 
	-1735.4,1972.3 -1735.4,2017.8 -1727.5,2017.8 -1727.5,2025.8 -1658.8,2025.8 -1593.7,2025.8 -1585.8,2025.8 -1585.8,2017.8 
	-1577.9,2017.8 -1577.9,1972.3 "/>
<g>
	<path class="st4" d="M-1689.3,2005.7h-5.4v-21.8h13.6v2.7h2.7v8.2h-2.7v2.7h-8.2V2005.7z M-1689.3,1992.1h5.4v-2.7h-5.4V1992.1z"/>
	<path class="st4" d="M-1673,2003h-2.7v-19h5.4v16.3h10.9v5.4h-13.6V2003z"/>
	<path class="st4" d="M-1651.2,2005.7h-5.4v-19h2.7v-2.7h10.9v2.7h2.7v19h-5.4v-8.2h-5.4V2005.7z M-1645.8,1992.1v-2.7h-5.4v2.7
		H-1645.8z"/>
	<path class="st4" d="M-1637.6,1983.9h5.4v8.2h5.4v-8.2h5.4v10.9h-2.7v2.7h-2.7v8.2h-5.4v-8.2h-2.7v-2.7h-2.7V1983.9z"/>
</g>
<g>
	<path class="st26" d="M-2579.4,1734.6h43.2v108h43.2v-108h43.2v129.6h-21.6v21.6h-21.6v21.6h-43.2v-21.6h-21.6v-21.6h-21.6V1734.6z
		"/>
	<path class="st27" d="M-2428.2,1758.2h21.6v-21.6h108v43.2h-86.4v21.6h64.8v21.6h21.6v64.8h-21.6v21.6h-108v-43.2h86.4v-21.6h-64.8
		V1823h-21.6V1758.2z"/>
</g>
<g>
	<path class="st28" d="M-2579.4,1713.5h43.2v108h43.2v-108h43.2v129.6h-21.6v21.6h-21.6v21.6h-43.2v-21.6h-21.6v-21.6h-21.6V1713.5z
		"/>
	<path class="st29" d="M-2428.2,1735.1h21.6v-21.6h108v43.2h-86.4v21.6h64.8v21.6h21.6v64.8h-21.6v21.6h-108v-43.2h86.4v-21.6h-64.8
		v-21.6h-21.6V1735.1z"/>
</g>
<g>
	<g>
		<path class="st0" d="M-2530,2092.1h27.5v68.7h27.5v-68.7h27.5v82.4h-13.7v13.7h-13.7v13.7h-27.5v-13.7h-13.7v-13.7h-13.7V2092.1z"
			/>
		<path class="st0" d="M-2433.9,2107.2h13.7v-13.7h68.7v27.5h-54.9v13.7h41.2v13.7h13.7v41.2h-13.7v13.7h-68.7v-27.5h54.9v-13.7
			h-41.2v-13.7h-13.7V2107.2z"/>
	</g>
	<g>
		<path class="st7" d="M-2530,2077.6h27.5v68.7h27.5v-68.7h27.5v82.4h-13.7v13.7h-13.7v13.7h-27.5v-13.7h-13.7V2160h-13.7V2077.6z"
			/>
		<path class="st7" d="M-2433.9,2092.7h13.7v-13.7h68.7v27.5h-54.9v13.7h41.2v13.7h13.7v41.2h-13.7v13.7h-68.7v-27.5h54.9v-13.7
			h-41.2v-13.7h-13.7V2092.7z"/>
	</g>
	<g>
		<path class="st4" d="M-2530,2064.2h27.5v68.7h27.5v-68.7h27.5v82.4h-13.7v13.7h-13.7v13.7h-27.5v-13.7h-13.7v-13.7h-13.7V2064.2z"
			/>
		<path class="st4" d="M-2433.9,2077.9h13.7v-13.7h68.7v27.5h-54.9v13.7h41.2v13.7h13.7v41.2h-13.7v13.7h-68.7v-27.5h54.9v-13.7
			h-41.2v-13.7h-13.7V2077.9z"/>
	</g>
</g>
<g>
	<g>
		<path class="st0" d="M-1955.6,1232.4h-21.6V1146h54v10.8h10.8v32.4h-10.8v10.8h-32.4V1232.4z M-1955.6,1178.4h21.6v-10.8h-21.6
			V1178.4z"/>
		<path class="st0" d="M-1901.6,1156.8h10.8V1146h43.2v10.8h10.8v64.8h-10.8v10.8h-43.2v-10.8h-10.8V1156.8z M-1880,1210.8h21.6
			v-43.2h-21.6V1210.8z"/>
		<path class="st0" d="M-1815.2,1221.6h-10.8V1146h21.6v64.8h43.2v21.6h-54V1221.6z"/>
		<path class="st0" d="M-1772,1146h21.6v32.4h21.6V1146h21.6v43.2h-10.8v10.8h-10.8v32.4h-21.6V1200h-10.8v-10.8h-10.8V1146z"/>
	</g>
	<g>
		<path class="st30" d="M-1955.6,1224h-21.6v-86.4h54v10.8h10.8v32.4h-10.8v10.8h-32.4V1224z M-1955.6,1170h21.6v-10.8h-21.6V1170z"
			/>
		<path class="st30" d="M-1901.6,1148.4h10.8v-10.8h43.2v10.8h10.8v64.8h-10.8v10.8h-43.2v-10.8h-10.8V1148.4z M-1880,1202.4h21.6
			v-43.2h-21.6V1202.4z"/>
		<path class="st30" d="M-1815.2,1213.2h-10.8v-75.6h21.6v64.8h43.2v21.6h-54V1213.2z"/>
		<path class="st30" d="M-1772,1137.6h21.6v32.4h21.6v-32.4h21.6v43.2h-10.8v10.8h-10.8v32.4h-21.6v-32.4h-10.8v-10.8h-10.8V1137.6z
			"/>
	</g>
	<g>
		<path class="st4" d="M-1955.6,1215.8h-21.6v-86.4h54v10.8h10.8v32.4h-10.8v10.8h-32.4V1215.8z M-1955.6,1161.8h21.6V1151h-21.6
			V1161.8z"/>
		<path class="st4" d="M-1901.6,1140.2h10.8v-10.8h43.2v10.8h10.8v64.8h-10.8v10.8h-43.2V1205h-10.8V1140.2z M-1880,1194.2h21.6
			V1151h-21.6V1194.2z"/>
		<path class="st4" d="M-1815.2,1205h-10.8v-75.6h21.6v64.8h43.2v21.6h-54V1205z"/>
		<path class="st4" d="M-1772,1129.4h21.6v32.4h21.6v-32.4h21.6v43.2h-10.8v10.8h-10.8v32.4h-21.6v-32.4h-10.8v-10.8h-10.8V1129.4z"
			/>
	</g>
</g>
<image style="overflow:visible;" width="843" height="1118" xlink:href="F3A3AF752E298DB3.jpg"  transform="matrix(0.24 0 0 0.24 -2186.7063 1279.6056)">
</image>
<g>
	<g class="st1">
		<g>
			<polygon class="st0" points="-1628.8,915.9 -1628.8,1002.4 -1527.6,1002.4 -1527.6,990.8 -1540.2,990.8 -1540.2,978.1 
				-1552.9,978.1 -1552.9,965.5 -1565.5,965.5 -1565.5,952.8 -1552.9,952.8 -1552.9,940.2 -1540.2,940.2 -1540.2,927.5 
				-1527.6,927.5 -1527.6,915.9 			"/>
		</g>
		<polygon class="st0" points="-1614,977.1 -1628.8,1001.3 -1628.7,977.1 		"/>
	</g>
	<rect x="-2117" y="893" class="st0" width="510.3" height="86.5"/>
	<rect x="-1640.4" y="971" class="st0" width="112.8" height="31.6"/>
	<g class="st1">
		<g>
			<polygon class="st0" points="-2109.1,916.1 -2109.1,1002.6 -2210.3,1002.6 -2210.3,991 -2197.7,991 -2197.7,978.3 -2185,978.3 
				-2185,965.7 -2172.4,965.7 -2172.4,953 -2185,953 -2185,940.4 -2197.7,940.4 -2197.7,927.7 -2210.3,927.7 -2210.3,916.1 			"/>
		</g>
		<polygon class="st0" points="-2123.9,977.3 -2109.1,1001.5 -2109.1,977.3 		"/>
	</g>
	<g>
		<g>
			<polygon class="st2" points="-1628.8,905.7 -1628.8,992.1 -1527.6,992.1 -1527.6,980.5 -1540.2,980.5 -1540.2,967.9 
				-1552.9,967.9 -1552.9,955.2 -1565.5,955.2 -1565.5,942.6 -1552.9,942.6 -1552.9,929.9 -1540.2,929.9 -1540.2,917.3 
				-1527.6,917.3 -1527.6,905.7 			"/>
			<polygon class="st3" points="-1628.8,894.1 -1628.8,980.5 -1527.6,980.5 -1527.6,968.9 -1540.2,968.9 -1540.2,956.3 
				-1552.9,956.3 -1552.9,943.6 -1565.5,943.6 -1565.5,931 -1552.9,931 -1552.9,918.3 -1540.2,918.3 -1540.2,905.7 -1527.6,905.7 
				-1527.6,894.1 			"/>
		</g>
		<polygon class="st2" points="-1614,966.8 -1628.8,991.1 -1628.7,966.8 		"/>
		<g>
			<g>
				<polygon class="st2" points="-2109.6,905.7 -2109.6,992.1 -2210.8,992.1 -2210.8,980.5 -2198.2,980.5 -2198.2,967.9 
					-2185.5,967.9 -2185.5,955.2 -2172.9,955.2 -2172.9,942.6 -2185.5,942.6 -2185.5,929.9 -2198.2,929.9 -2198.2,917.3 
					-2210.8,917.3 -2210.8,905.7 				"/>
				<polygon class="st3" points="-2109.6,894.1 -2109.6,980.5 -2210.8,980.5 -2210.8,968.9 -2198.2,968.9 -2198.2,956.3 
					-2185.5,956.3 -2185.5,943.6 -2172.9,943.6 -2172.9,931 -2185.5,931 -2185.5,918.3 -2198.2,918.3 -2198.2,905.7 -2210.8,905.7 
					-2210.8,894.1 				"/>
			</g>
			<polygon class="st2" points="-2124.3,966.8 -2109.6,991.1 -2109.6,966.8 			"/>
		</g>
		<g>
			<rect x="-2124.3" y="880.4" class="st2" width="510.3" height="86.5"/>
			<rect x="-2124.3" y="867.7" class="st3" width="510.3" height="86.5"/>
		</g>
	</g>
</g>
<g>
	<g>
		<path class="st25" d="M-2010.2,942.7h-37.4v-59.9h37.4v7.5h7.5v15h-7.5v15h7.5v15h-7.5V942.7z M-2032.7,905.2h15v-7.5h-15V905.2z
			 M-2032.7,927.7h15v-7.5h-15V927.7z"/>
		<path class="st25" d="M-1980.2,942.7h-15v-52.4h7.5v-7.5h30v7.5h7.5v52.4h-15v-22.5h-15V942.7z M-1965.3,905.2v-7.5h-15v7.5
			H-1965.3z"/>
		<path class="st25" d="M-1935.3,935.2h-7.5v-52.4h15v44.9h30v15h-37.4V935.2z"/>
		<path class="st25" d="M-1882.9,935.2h-7.5v-52.4h15v44.9h30v15h-37.4V935.2z"/>
		<path class="st25" d="M-1838,890.2h7.5v-7.5h30v7.5h7.5v44.9h-7.5v7.5h-30v-7.5h-7.5V890.2z M-1823,927.7h15v-30h-15V927.7z"/>
		<path class="st25" d="M-1785.5,890.2h7.5v-7.5h30v7.5h7.5v44.9h-7.5v7.5h-30v-7.5h-7.5V890.2z M-1770.5,927.7h15v-30h-15V927.7z"
			/>
		<path class="st25" d="M-1710.6,912.7h-7.5v30h-15v-59.9h15v7.5h7.5v7.5h7.5v-15h15v59.9h-15v-22.5h-7.5V912.7z"/>
	</g>
	<g>
		<path class="st22" d="M-2010.2,936.8h-37.4v-59.9h37.4v7.5h7.5v15h-7.5v15h7.5v15h-7.5V936.8z M-2032.7,899.4h15v-7.5h-15V899.4z
			 M-2032.7,921.9h15v-7.5h-15V921.9z"/>
		<path class="st22" d="M-1980.2,936.8h-15v-52.4h7.5v-7.5h30v7.5h7.5v52.4h-15v-22.5h-15V936.8z M-1965.3,899.4v-7.5h-15v7.5
			H-1965.3z"/>
		<path class="st22" d="M-1935.3,929.4h-7.5v-52.4h15v44.9h30v15h-37.4V929.4z"/>
		<path class="st22" d="M-1882.9,929.4h-7.5v-52.4h15v44.9h30v15h-37.4V929.4z"/>
		<path class="st22" d="M-1838,884.4h7.5v-7.5h30v7.5h7.5v44.9h-7.5v7.5h-30v-7.5h-7.5V884.4z M-1823,921.9h15v-30h-15V921.9z"/>
		<path class="st22" d="M-1785.5,884.4h7.5v-7.5h30v7.5h7.5v44.9h-7.5v7.5h-30v-7.5h-7.5V884.4z M-1770.5,921.9h15v-30h-15V921.9z"
			/>
		<path class="st22" d="M-1710.6,906.9h-7.5v30h-15v-59.9h15v7.5h7.5v7.5h7.5v-15h15v59.9h-15v-22.5h-7.5V906.9z"/>
	</g>
</g>
<g>
	<path class="st0" d="M-1518.6,1089.4h20.7v6.9h-20.7V1089.4z"/>
	<path class="st0" d="M-1463.3,1106.7h-6.9V1079h17.3v3.5h3.5v10.4h-3.5v3.5h-10.4V1106.7z M-1463.3,1089.4h6.9v-3.5h-6.9V1089.4z"
		/>
	<path class="st0" d="M-1435.6,1096.3h-3.5v10.4h-6.9V1079h17.3v3.5h3.5v10.4h-3.5v3.5h3.5v10.4h-6.9v-6.9h-3.5V1096.3z
		 M-1439.1,1089.4h6.9v-3.5h-6.9V1089.4z"/>
	<path class="st0" d="M-1418.4,1103.2h-3.5v-20.7h3.5v-3.5h17.3v6.9h-13.8v3.5h6.9v6.9h-6.9v3.5h13.8v6.9h-17.3V1103.2z"/>
	<path class="st0" d="M-1397.6,1082.5h3.5v-3.5h17.3v6.9h-13.8v3.5h10.4v3.5h3.5v10.4h-3.5v3.5h-17.3v-6.9h13.8v-3.5h-10.4v-3.5
		h-3.5V1082.5z"/>
	<path class="st0" d="M-1373.4,1082.5h3.5v-3.5h17.3v6.9h-13.8v3.5h10.4v3.5h3.5v10.4h-3.5v3.5h-17.3v-6.9h13.8v-3.5h-10.4v-3.5
		h-3.5V1082.5z"/>
	<path class="st0" d="M-1318.1,1106.7h-6.9v-24.2h3.5v-3.5h13.8v3.5h3.5v24.2h-6.9v-10.4h-6.9V1106.7z M-1311.2,1089.4v-3.5h-6.9
		v3.5H-1311.2z"/>
	<path class="st0" d="M-1290.5,1092.9h-3.5v13.8h-6.9V1079h6.9v3.5h3.5v3.5h3.5v-6.9h6.9v27.6h-6.9v-10.4h-3.5V1092.9z"/>
	<path class="st0" d="M-1276.7,1079h6.9v10.4h6.9V1079h6.9v13.8h-3.5v3.5h-3.5v10.4h-6.9v-10.4h-3.5v-3.5h-3.5V1079z"/>
	<path class="st0" d="M-1221.4,1106.7h-6.9V1079h6.9v6.9h3.5v-3.5h3.5v-3.5h6.9v6.9h-3.5v3.5h-3.5v6.9h3.5v3.5h3.5v6.9h-6.9v-3.5
		h-3.5v-3.5h-3.5V1106.7z"/>
	<path class="st0" d="M-1200.6,1103.2h-3.5v-20.7h3.5v-3.5h17.3v6.9h-13.8v3.5h6.9v6.9h-6.9v3.5h13.8v6.9h-17.3V1103.2z"/>
	<path class="st0" d="M-1179.9,1079h6.9v10.4h6.9V1079h6.9v13.8h-3.5v3.5h-3.5v10.4h-6.9v-10.4h-3.5v-3.5h-3.5V1079z"/>
	<path class="st0" d="M-1131.5,1079h20.7v6.9h-6.9v20.7h-6.9v-20.7h-6.9V1079z"/>
	<path class="st0" d="M-1107.3,1082.5h3.5v-3.5h13.8v3.5h3.5v20.7h-3.5v3.5h-13.8v-3.5h-3.5V1082.5z M-1100.4,1099.8h6.9v-13.8h-6.9
		V1099.8z"/>
	<path class="st0" d="M-1052,1106.7h-6.9V1079h17.3v3.5h3.5v10.4h-3.5v3.5h-10.4V1106.7z M-1052,1089.4h6.9v-3.5h-6.9V1089.4z"/>
	<path class="st0" d="M-1031.3,1103.2h-3.5V1079h6.9v20.7h13.8v6.9h-17.3V1103.2z"/>
	<path class="st0" d="M-1003.6,1106.7h-6.9v-24.2h3.5v-3.5h13.8v3.5h3.5v24.2h-6.9v-10.4h-6.9V1106.7z M-996.7,1089.4v-3.5h-6.9v3.5
		H-996.7z"/>
	<path class="st0" d="M-986.4,1079h6.9v10.4h6.9V1079h6.9v13.8h-3.5v3.5h-3.5v10.4h-6.9v-10.4h-3.5v-3.5h-3.5V1079z"/>
	<path class="st0" d="M-938,1089.4h20.7v6.9H-938V1089.4z"/>
</g>
<g>
	<path class="st30" d="M-1519.4,1083.5h20.7v6.9h-20.7V1083.5z"/>
	<path class="st30" d="M-1464.1,1100.8h-6.9v-27.6h17.3v3.5h3.5v10.4h-3.5v3.5h-10.4V1100.8z M-1464.1,1083.5h6.9v-3.5h-6.9V1083.5z
		"/>
	<path class="st30" d="M-1436.5,1090.4h-3.5v10.4h-6.9v-27.6h17.3v3.5h3.5v10.4h-3.5v3.5h3.5v10.4h-6.9v-6.9h-3.5V1090.4z
		 M-1440,1083.5h6.9v-3.5h-6.9V1083.5z"/>
	<path class="st30" d="M-1419.2,1097.3h-3.5v-20.7h3.5v-3.5h17.3v6.9h-13.8v3.5h6.9v6.9h-6.9v3.5h13.8v6.9h-17.3V1097.3z"/>
	<path class="st30" d="M-1398.5,1076.6h3.5v-3.5h17.3v6.9h-13.8v3.5h10.4v3.5h3.5v10.4h-3.5v3.5h-17.3v-6.9h13.8v-3.5h-10.4v-3.5
		h-3.5V1076.6z"/>
	<path class="st30" d="M-1374.3,1076.6h3.5v-3.5h17.3v6.9h-13.8v3.5h10.4v3.5h3.5v10.4h-3.5v3.5h-17.3v-6.9h13.8v-3.5h-10.4v-3.5
		h-3.5V1076.6z"/>
	<path class="st30" d="M-1319,1100.8h-6.9v-24.2h3.5v-3.5h13.8v3.5h3.5v24.2h-6.9v-10.4h-6.9V1100.8z M-1312.1,1083.5v-3.5h-6.9v3.5
		H-1312.1z"/>
	<path class="st30" d="M-1291.4,1087h-3.5v13.8h-6.9v-27.6h6.9v3.5h3.5v3.5h3.5v-6.9h6.9v27.6h-6.9v-10.4h-3.5V1087z"/>
	<path class="st30" d="M-1277.5,1073.1h6.9v10.4h6.9v-10.4h6.9v13.8h-3.5v3.5h-3.5v10.4h-6.9v-10.4h-3.5v-3.5h-3.5V1073.1z"/>
	<path class="st30" d="M-1222.2,1100.8h-6.9v-27.6h6.9v6.9h3.5v-3.5h3.5v-3.5h6.9v6.9h-3.5v3.5h-3.5v6.9h3.5v3.5h3.5v6.9h-6.9v-3.5
		h-3.5v-3.5h-3.5V1100.8z"/>
	<path class="st30" d="M-1201.5,1097.3h-3.5v-20.7h3.5v-3.5h17.3v6.9h-13.8v3.5h6.9v6.9h-6.9v3.5h13.8v6.9h-17.3V1097.3z"/>
	<path class="st30" d="M-1180.8,1073.1h6.9v10.4h6.9v-10.4h6.9v13.8h-3.5v3.5h-3.5v10.4h-6.9v-10.4h-3.5v-3.5h-3.5V1073.1z"/>
	<path class="st30" d="M-1132.4,1073.1h20.7v6.9h-6.9v20.7h-6.9V1080h-6.9V1073.1z"/>
	<path class="st30" d="M-1108.2,1076.6h3.5v-3.5h13.8v3.5h3.5v20.7h-3.5v3.5h-13.8v-3.5h-3.5V1076.6z M-1101.3,1093.9h6.9V1080h-6.9
		V1093.9z"/>
	<path class="st30" d="M-1052.9,1100.8h-6.9v-27.6h17.3v3.5h3.5v10.4h-3.5v3.5h-10.4V1100.8z M-1052.9,1083.5h6.9v-3.5h-6.9V1083.5z
		"/>
	<path class="st30" d="M-1032.2,1097.3h-3.5v-24.2h6.9v20.7h13.8v6.9h-17.3V1097.3z"/>
	<path class="st30" d="M-1004.5,1100.8h-6.9v-24.2h3.5v-3.5h13.8v3.5h3.5v24.2h-6.9v-10.4h-6.9V1100.8z M-997.6,1083.5v-3.5h-6.9
		v3.5H-997.6z"/>
	<path class="st30" d="M-987.2,1073.1h6.9v10.4h6.9v-10.4h6.9v13.8h-3.5v3.5h-3.5v10.4h-6.9v-10.4h-3.5v-3.5h-3.5V1073.1z"/>
	<path class="st30" d="M-938.8,1083.5h20.7v6.9h-20.7V1083.5z"/>
</g>
<g>
	<path class="st4" d="M-1519.4,1079.1h20.7v6.9h-20.7V1079.1z"/>
	<path class="st4" d="M-1464.1,1096.4h-6.9v-27.6h17.3v3.5h3.5v10.4h-3.5v3.5h-10.4V1096.4z M-1464.1,1079.1h6.9v-3.5h-6.9V1079.1z"
		/>
	<path class="st4" d="M-1436.5,1086h-3.5v10.4h-6.9v-27.6h17.3v3.5h3.5v10.4h-3.5v3.5h3.5v10.4h-6.9v-6.9h-3.5V1086z M-1440,1079.1
		h6.9v-3.5h-6.9V1079.1z"/>
	<path class="st4" d="M-1419.2,1092.9h-3.5v-20.7h3.5v-3.5h17.3v6.9h-13.8v3.5h6.9v6.9h-6.9v3.5h13.8v6.9h-17.3V1092.9z"/>
	<path class="st4" d="M-1398.5,1072.2h3.5v-3.5h17.3v6.9h-13.8v3.5h10.4v3.5h3.5v10.4h-3.5v3.5h-17.3v-6.9h13.8v-3.5h-10.4v-3.5
		h-3.5V1072.2z"/>
	<path class="st4" d="M-1374.3,1072.2h3.5v-3.5h17.3v6.9h-13.8v3.5h10.4v3.5h3.5v10.4h-3.5v3.5h-17.3v-6.9h13.8v-3.5h-10.4v-3.5
		h-3.5V1072.2z"/>
	<path class="st4" d="M-1319,1096.4h-6.9v-24.2h3.5v-3.5h13.8v3.5h3.5v24.2h-6.9V1086h-6.9V1096.4z M-1312.1,1079.1v-3.5h-6.9v3.5
		H-1312.1z"/>
	<path class="st4" d="M-1291.4,1082.5h-3.5v13.8h-6.9v-27.6h6.9v3.5h3.5v3.5h3.5v-6.9h6.9v27.6h-6.9V1086h-3.5V1082.5z"/>
	<path class="st4" d="M-1277.5,1068.7h6.9v10.4h6.9v-10.4h6.9v13.8h-3.5v3.5h-3.5v10.4h-6.9V1086h-3.5v-3.5h-3.5V1068.7z"/>
	<path class="st4" d="M-1222.2,1096.4h-6.9v-27.6h6.9v6.9h3.5v-3.5h3.5v-3.5h6.9v6.9h-3.5v3.5h-3.5v6.9h3.5v3.5h3.5v6.9h-6.9v-3.5
		h-3.5v-3.5h-3.5V1096.4z"/>
	<path class="st4" d="M-1201.5,1092.9h-3.5v-20.7h3.5v-3.5h17.3v6.9h-13.8v3.5h6.9v6.9h-6.9v3.5h13.8v6.9h-17.3V1092.9z"/>
	<path class="st4" d="M-1180.8,1068.7h6.9v10.4h6.9v-10.4h6.9v13.8h-3.5v3.5h-3.5v10.4h-6.9V1086h-3.5v-3.5h-3.5V1068.7z"/>
	<path class="st4" d="M-1132.4,1068.7h20.7v6.9h-6.9v20.7h-6.9v-20.7h-6.9V1068.7z"/>
	<path class="st4" d="M-1108.2,1072.2h3.5v-3.5h13.8v3.5h3.5v20.7h-3.5v3.5h-13.8v-3.5h-3.5V1072.2z M-1101.3,1089.5h6.9v-13.8h-6.9
		V1089.5z"/>
	<path class="st4" d="M-1052.9,1096.4h-6.9v-27.6h17.3v3.5h3.5v10.4h-3.5v3.5h-10.4V1096.4z M-1052.9,1079.1h6.9v-3.5h-6.9V1079.1z"
		/>
	<path class="st4" d="M-1032.2,1092.9h-3.5v-24.2h6.9v20.7h13.8v6.9h-17.3V1092.9z"/>
	<path class="st4" d="M-1004.5,1096.4h-6.9v-24.2h3.5v-3.5h13.8v3.5h3.5v24.2h-6.9V1086h-6.9V1096.4z M-997.6,1079.1v-3.5h-6.9v3.5
		H-997.6z"/>
	<path class="st4" d="M-987.2,1068.7h6.9v10.4h6.9v-10.4h6.9v13.8h-3.5v3.5h-3.5v10.4h-6.9V1086h-3.5v-3.5h-3.5V1068.7z"/>
	<path class="st4" d="M-938.8,1079.1h20.7v6.9h-20.7V1079.1z"/>
</g>
<path class="st31" d="M1242.4,377h-2.2h-10.8h-38.7h-12.9H-348.7h-12.9h-38.7h-12.9h-12.9v22.6v840.8v11.3v33.9v11.3v11.3h25.8
	h1578.2h12.9h38.7h10.8h2.2h12.9V377H1242.4z M1229.5,433.5v818.2v11.3h-12.9v11.3h-12.9v11.3h-12.9H-361.6h-12.9v-11.3h-12.9V1263
	h-12.9v-11.3V433.5v-11.3h12.9v-11.3h12.9v-11.3h12.9h204.3h135.5h1212.7h12.9v11.3h12.9v11.3h12.9V433.5z"/>
<polygon class="st32" points="-37.6,19.7 -37.6,11 -47.5,11 -404.3,11 -404.3,94.4 -48.2,94.4 -48.2,85.7 -47.5,85.7 -37.6,85.7 
	-37.6,78.7 -37.6,76.9 -27.8,76.9 -27.8,70 -27.8,19.7 "/>
<polygon class="st31" points="-38.1,11 -38.1,2.3 -47.9,2.3 -415.3,2.3 -415.3,9.2 -415.3,11 -425.1,11 -425.1,61.3 -415.3,61.3 
	-415.3,68.3 -415.3,68.3 -415.3,77 -404.8,77 -404.8,85.7 -48.7,85.7 -48.7,77 -47.9,77 -38.1,77 -38.1,70.1 -38.1,68.3 -28.2,68.3 
	-28.2,61.3 -28.2,11 "/>
<rect x="-487.1" y="227.1" class="st13" width="92.2" height="32.8"/>
<text transform="matrix(1 0 0 1 -465.9329 245.2367)" class="st4" style="font-family:'EditUndoBRK'; font-size:31.5429px;">DMG</text>
<g>
	<g>
		<polygon class="st22" points="-287.3,261.5 -32.6,261.5 -32.6,243.5 -287.3,243.5 -287.3,243.6 -287.3,248.7 -294.2,248.7 
			-294.2,256.3 -287.3,256.3 -287.3,261.4 		"/>
	</g>
	<polygon class="st22" points="-23.9,248.6 -23.9,243.5 -23.9,243.5 -79.6,243.5 -79.6,261.5 -23.9,261.5 -23.9,261.4 -23.9,256.3 
		-17,256.3 -17,248.6 	"/>
</g>
<g class="st33">
	<polygon class="st34" points="356.3,474.6 356.3,396.6 266.4,396.6 266.4,406.6 256.3,406.6 256.3,464.5 266.4,464.5 266.4,474.6 	
		"/>
	<polygon class="st34" points="591.3,405.6 591.3,395.6 581.3,395.6 499.3,395.6 499.3,473.6 581.3,473.6 591.3,473.6 591.3,463.5 
		601.4,463.5 601.4,405.6 	"/>
	<rect x="276.3" y="405.6" class="st34" width="305" height="78"/>
</g>
<g>
	<polygon class="st31" points="366.3,474.6 366.3,396.6 276.4,396.6 276.4,406.6 266.3,406.6 266.3,464.5 276.4,464.5 276.4,474.6 	
		"/>
	<polygon class="st31" points="356.3,464.6 356.3,386.6 266.4,386.6 266.4,396.6 256.3,396.6 256.3,454.5 266.4,454.5 266.4,464.6 	
		"/>
	<polygon class="st31" points="581.3,406.6 581.3,396.6 571.3,396.6 489.3,396.6 489.3,474.6 571.3,474.6 581.3,474.6 581.3,464.5 
		591.4,464.5 591.4,406.6 	"/>
	<polygon class="st31" points="591.3,396.6 591.3,386.6 581.3,386.6 499.3,386.6 499.3,464.6 581.3,464.6 591.3,464.6 591.3,454.5 
		601.4,454.5 601.4,396.6 	"/>
	<rect x="366.3" y="396.6" class="st31" width="123" height="78"/>
</g>
<g>
	<polygon class="st35" points="366.3,464.6 366.3,386.6 276.4,386.6 276.4,396.6 266.3,396.6 266.3,454.5 276.4,454.5 276.4,464.6 	
		"/>
	<polygon class="st35" points="581.3,396.6 581.3,386.6 571.3,386.6 503.3,386.6 503.3,464.6 571.3,464.6 581.3,464.6 581.3,454.5 
		591.4,454.5 591.4,396.6 	"/>
</g>
<g class="st33">
	<polygon class="st34" points="90,78.9 90,9 9.3,9 9.3,18 0.3,18 0.3,69.9 9.3,69.9 9.3,78.9 	"/>
	<polygon class="st34" points="300.8,17.1 300.8,8.1 291.8,8.1 218.3,8.1 218.3,78 291.8,78 300.8,78 300.8,69 309.8,69 309.8,17.1 
			"/>
	<rect x="18.3" y="17" class="st34" width="273.6" height="70"/>
</g>
<g>
	<polygon class="st31" points="99,78.9 99,9 18.3,9 18.3,18 9.3,18 9.3,69.9 18.3,69.9 18.3,78.9 	"/>
	<polygon class="st31" points="90,70 90,0 9.3,0 9.3,9 0.3,9 0.3,60.9 9.3,60.9 9.3,70 	"/>
	<polygon class="st31" points="291.8,18 291.8,9 282.8,9 209.3,9 209.3,78.9 282.8,78.9 291.8,78.9 291.8,69.9 300.9,69.9 300.9,18 
			"/>
	<polygon class="st31" points="300.8,9 300.8,0 291.8,0 218.3,0 218.3,70 291.8,70 300.8,70 300.8,60.9 309.8,60.9 309.8,9 	"/>
	<rect x="99" y="9" class="st31" width="110.3" height="70"/>
</g>
<g>
	<polygon class="st35" points="99,70 99,0 18.3,0 18.3,9 9.3,9 9.3,60.9 18.3,60.9 18.3,70 	"/>
	<polygon class="st35" points="291.8,9 291.8,0 282.8,0 221.9,0 221.9,70 282.8,70 291.8,70 291.8,60.9 300.9,60.9 300.9,9 	"/>
</g>
<rect x="351.3" y="386.6" class="st35" width="169" height="78"/>
<rect x="85.5" class="st35" width="151.6" height="70"/>
<g>
	<rect x="346.3" y="418.8" class="st13" width="179" height="81.8"/>
	<text transform="matrix(1 0 0 1 368.4238 446.4597)" class="st4" style="font-family:'EditUndoBRK'; font-size:48px;">124 KM</text>
</g>
<g>
	<rect x="1231.9" y="396.6" class="st32" width="8" height="2"/>
	<polygon class="st32" points="1150.9,396.6 1150.9,406.6 1140.9,406.6 1140.9,464.5 1150.8,464.5 1150.8,474.5 1150.9,474.5 
		1150.9,474.6 1160.8,474.6 1160.8,484.6 1215.9,484.6 1215.9,396.6 	"/>
</g>
<polygon class="st31" points="1240.9,396.6 1240.9,386.6 1151,386.6 1151,396.6 1140.9,396.6 1140.9,454.5 1150.9,454.5 
	1150.9,464.5 1151,464.5 1151,464.6 1161,464.6 1161,474.6 1250.9,474.6 1250.9,396.6 "/>
<g>
	<g>
		<g>
			<polygon class="st2" points="1211,408.1 1205.6,408.1 1173.2,408.1 1173.2,413.4 1167.8,413.4 1167.8,451.2 1173.2,451.2 
				1173.2,456.6 1205.6,456.6 1211,456.6 1211,451.2 1216.3,451.2 1216.3,413.4 1211,413.4 			"/>
			<polygon class="st3" points="1211.3,402.4 1205.9,402.4 1173.2,402.4 1173.2,407.7 1167.8,407.7 1167.8,445.8 1173.2,445.8 
				1173.2,451.2 1205.9,451.2 1211.3,451.2 1211.3,445.8 1216.6,445.8 1216.6,407.7 1211.3,407.7 			"/>
		</g>
		<g>
			<rect x="1180.7" y="431.4" class="st4" width="24.2" height="4.8"/>
			<rect x="1180.7" y="420.3" class="st4" width="24.2" height="4.8"/>
		</g>
	</g>
	<g class="st33">
		<polygon class="st36" points="1173.2,456.7 1173.2,461.7 1178.6,461.7 1211.3,461.7 1211.3,456.7 1178.6,456.7 		"/>
		<rect x="1167.8" y="451.4" class="st36" width="5.4" height="5"/>
		<rect x="1211.3" y="451.4" class="st36" width="5.4" height="5"/>
	</g>
</g>
<g>
	<rect x="1231.9" y="172.9" class="st32" width="8" height="2"/>
	<polygon class="st32" points="1150.9,172.9 1150.9,183 1140.9,183 1140.9,240.9 1150.8,240.9 1150.8,250.9 1150.9,250.9 
		1150.9,250.9 1160.8,250.9 1160.8,260.9 1215.9,260.9 1215.9,172.9 	"/>
</g>
<polygon class="st31" points="1240.9,172.9 1240.9,162.9 1151,162.9 1151,173 1140.9,173 1140.9,230.9 1150.9,230.9 1150.9,240.9 
	1151,240.9 1151,240.9 1161,240.9 1161,250.9 1250.9,250.9 1250.9,172.9 "/>
<g>
	<g>
		<g>
			<polygon class="st2" points="1211,64.8 1205.6,64.8 1173.2,64.8 1173.2,70.2 1167.8,70.2 1167.8,108 1173.2,108 1173.2,113.3 
				1205.6,113.3 1211,113.3 1211,108 1216.3,108 1216.3,70.2 1211,70.2 			"/>
			<polygon class="st3" points="1211.3,59.1 1205.9,59.1 1173.2,59.1 1173.2,64.5 1167.8,64.5 1167.8,102.5 1173.2,102.5 
				1173.2,107.9 1205.9,107.9 1211.3,107.9 1211.3,102.5 1216.6,102.5 1216.6,64.5 1211.3,64.5 			"/>
		</g>
		<g>
			<rect x="1180.7" y="88.2" class="st4" width="24.2" height="4.8"/>
			<rect x="1180.7" y="77" class="st4" width="24.2" height="4.8"/>
		</g>
	</g>
	<g class="st33">
		<polygon class="st36" points="1173.2,113.5 1173.2,118.5 1178.6,118.5 1211.3,118.5 1211.3,113.5 1178.6,113.5 		"/>
		<rect x="1167.8" y="108.1" class="st36" width="5.4" height="5"/>
		<rect x="1211.3" y="108.1" class="st36" width="5.4" height="5"/>
	</g>
</g>
<polygon class="st22" points="-260.6,143.9 -260.6,140.1 -270.3,140.1 -270.6,140.1 -279.9,140.1 -280.3,140.1 -289.5,140.1 
	-289.9,140.1 -299.5,140.1 -299.5,143.8 -304.3,143.8 -304.3,149.3 -299.5,149.3 -299.5,153 -299.3,153 -295.1,153 -294.3,153 
	-290.1,153 -289.9,153 -289.7,153 -289.5,153 -285.5,153 -284.6,153 -280.4,153 -280.3,153 -280,153 -279.9,153 -275.8,153 
	-275,153 -270.8,153 -270.6,153 -270.4,153 -270.3,153 -266.2,153 -265.4,153 -261.2,153 -260.6,153 -260.6,149.3 -256.1,149.3 
	-256.1,143.9 "/>
<polygon class="st22" points="-253.9,-93 -253.9,-96.8 -263.5,-96.8 -263.9,-96.8 -273.2,-96.8 -273.6,-96.8 -282.8,-96.8 
	-283.2,-96.8 -292.8,-96.8 -292.8,-93 -297.6,-93 -297.6,-87.6 -292.8,-87.6 -292.8,-83.9 -292.6,-83.9 -288.4,-83.9 -287.5,-83.9 
	-283.3,-83.9 -283.2,-83.9 -282.9,-83.9 -282.8,-83.9 -278.7,-83.9 -277.9,-83.9 -273.7,-83.9 -273.6,-83.9 -273.3,-83.9 
	-273.2,-83.9 -269.1,-83.9 -268.3,-83.9 -264.1,-83.9 -263.9,-83.9 -263.7,-83.9 -263.5,-83.9 -259.5,-83.9 -258.6,-83.9 
	-254.4,-83.9 -253.9,-83.9 -253.9,-87.5 -249.4,-87.5 -249.4,-93 "/>
<polygon class="st37" points="-100,-93 -100,-96.8 -109.7,-96.8 -110,-96.8 -119.3,-96.8 -119.7,-96.8 -128.9,-96.8 -129.3,-96.8 
	-138.3,-96.8 -138.9,-96.8 -148,-96.8 -148.3,-96.8 -157.6,-96.8 -158,-96.8 -167.2,-96.8 -167.6,-96.8 -176.9,-96.8 -177.2,-96.8 
	-186.5,-96.8 -186.9,-96.8 -196.1,-96.8 -196.5,-96.8 -205.8,-96.8 -206.1,-96.8 -215.4,-96.8 -215.8,-96.8 -225,-96.8 
	-225.4,-96.8 -234.7,-96.8 -235,-96.8 -244.3,-96.8 -244.7,-96.8 -253.9,-96.8 -254.3,-96.8 -263.5,-96.8 -263.9,-96.8 
	-273.2,-96.8 -273.6,-96.8 -282.8,-96.8 -283.2,-96.8 -292.8,-96.8 -292.8,-93 -297.6,-93 -297.6,-87.6 -292.8,-87.6 -292.8,-83.9 
	-292.6,-83.9 -288.4,-83.9 -287.5,-83.9 -283.3,-83.9 -283.2,-83.9 -282.9,-83.9 -282.8,-83.9 -278.7,-83.9 -277.9,-83.9 
	-273.7,-83.9 -273.6,-83.9 -273.3,-83.9 -273.2,-83.9 -269.1,-83.9 -268.3,-83.9 -264.1,-83.9 -263.9,-83.9 -263.7,-83.9 
	-263.5,-83.9 -259.5,-83.9 -258.6,-83.9 -254.4,-83.9 -254.3,-83.9 -254,-83.9 -253.9,-83.9 -249.8,-83.9 -249,-83.9 -244.8,-83.9 
	-244.7,-83.9 -244.4,-83.9 -244.3,-83.9 -240.2,-83.9 -239.4,-83.9 -235.2,-83.9 -235,-83.9 -234.8,-83.9 -234.7,-83.9 
	-230.6,-83.9 -229.8,-83.9 -225.6,-83.9 -225.4,-83.9 -225.2,-83.9 -225,-83.9 -220.9,-83.9 -220.1,-83.9 -215.9,-83.9 
	-215.8,-83.9 -215.5,-83.9 -215.4,-83.9 -211.3,-83.9 -210.5,-83.9 -206.3,-83.9 -206.1,-83.9 -205.9,-83.9 -205.8,-83.9 
	-201.7,-83.9 -200.9,-83.9 -196.7,-83.9 -196.5,-83.9 -196.3,-83.9 -196.1,-83.9 -192.1,-83.9 -191.2,-83.9 -187,-83.9 
	-186.9,-83.9 -186.6,-83.9 -186.5,-83.9 -182.4,-83.9 -181.6,-83.9 -177.4,-83.9 -177.2,-83.9 -177,-83.9 -176.9,-83.9 
	-172.8,-83.9 -172,-83.9 -167.8,-83.9 -167.6,-83.9 -167.4,-83.9 -167.2,-83.9 -163.2,-83.9 -162.3,-83.9 -158.1,-83.9 -158,-83.9 
	-157.7,-83.9 -157.6,-83.9 -153.5,-83.9 -152.7,-83.9 -148.5,-83.9 -148.3,-83.9 -148.1,-83.9 -148,-83.9 -143.9,-83.9 
	-143.1,-83.9 -138.9,-83.9 -138.9,-83.9 -138.7,-83.9 -138.3,-83.9 -134.5,-83.9 -133.7,-83.9 -129.5,-83.9 -129.3,-83.9 
	-129.1,-83.9 -128.9,-83.9 -124.9,-83.9 -124,-83.9 -119.8,-83.9 -119.7,-83.9 -119.4,-83.9 -119.3,-83.9 -115.2,-83.9 
	-114.4,-83.9 -110.2,-83.9 -110,-83.9 -109.8,-83.9 -109.7,-83.9 -105.6,-83.9 -104.8,-83.9 -100.6,-83.9 -100,-83.9 -100,-87.5 
	-95.6,-87.5 -95.6,-93 "/>
<g>
	<polygon class="st31" points="1451,1285.6 1456.3,1285.6 1469.2,1285.6 1469.2,1274.3 1482.1,1274.3 1482.1,1263 1495,1263 
		1495,1251.7 1495,1238.3 1520.8,1238.3 1520.8,1240.4 1520.8,1251.7 1520.8,1285.6 1520.8,1296.8 1520.8,1308.1 1495,1308.1 
		1451,1308.1 	"/>
</g>
<g>
	<polygon class="st31" points="1517.1,1238.4 1517.1,1243.7 1517.1,1256.6 1528.4,1256.6 1528.4,1269.5 1539.7,1269.5 
		1539.7,1282.4 1551,1282.4 1564.4,1282.4 1564.4,1308.2 1562.3,1308.2 1551,1308.2 1517.1,1308.2 1505.8,1308.2 1494.5,1308.2 
		1494.5,1282.4 1494.5,1238.4 	"/>
</g>
<g>
	<polygon class="st31" points="1465,1285.5 1465,1290.9 1465,1303.8 1476.3,1303.8 1476.3,1316.7 1487.6,1316.7 1487.6,1329.6 
		1498.9,1329.6 1512.3,1329.6 1512.3,1355.4 1510.2,1355.4 1498.9,1355.4 1465,1355.4 1453.7,1355.4 1442.4,1355.4 1442.4,1329.6 
		1442.4,1285.5 	"/>
</g>
<g>
	<polygon class="st31" points="1383.8,1285.6 1378.5,1285.6 1365.6,1285.6 1365.6,1274.3 1352.7,1274.3 1352.7,1263 1339.8,1263 
		1339.8,1251.7 1339.8,1238.3 1314,1238.3 1314,1240.4 1314,1251.7 1314,1285.6 1314,1296.8 1314,1308.1 1339.8,1308.1 
		1383.8,1308.1 	"/>
</g>
<g>
	<polygon class="st31" points="1439.2,1332.8 1433.9,1332.8 1421,1332.8 1421,1321.5 1408.1,1321.5 1408.1,1310.2 1395.2,1310.2 
		1395.2,1298.9 1395.2,1285.5 1369.4,1285.5 1369.4,1287.6 1369.4,1298.9 1369.4,1332.8 1369.4,1344.1 1369.4,1355.4 1395.2,1355.4 
		1439.2,1355.4 	"/>
</g>
<g>
	<polygon class="st31" points="1316.7,1249.2 1316.7,1254.5 1316.7,1267.4 1305.4,1267.4 1305.4,1280.3 1294.1,1280.3 
		1294.1,1293.2 1282.8,1293.2 1269.5,1293.2 1269.5,1319 1271.5,1319 1282.8,1319 1316.7,1319 1328,1319 1339.3,1319 1339.3,1293.2 
		1339.3,1249.2 	"/>
</g>
</svg>
