<?xml version="1.0" encoding="utf-8"?>
<!-- Generator: Adobe Illustrator 22.0.1, SVG Export Plug-In . SVG Version: 6.00 Build 0)  -->
<svg version="1.1" id="Layer_1" xmlns="http://www.w3.org/2000/svg" xmlns:xlink="http://www.w3.org/1999/xlink" x="0px" y="0px"
	 width="282.7px" height="18.1px" viewBox="0 0 282.7 18.1" style="enable-background:new 0 0 282.7 18.1;" xml:space="preserve">
<style type="text/css">
	.st0{fill:#5895B7;}
	.st1{opacity:0.8;}
	.st2{fill:#C17620;}
	.st3{fill:#F4C24A;}
	.st4{fill:#FFFFFF;}
	.st5{fill:#2A6FBA;}
	.st6{fill:#4ABAEF;}
	.st7{fill:#95C9C8;}
	.st8{fill:#DDEFEE;}
	.st9{fill:#1B8E6F;}
	.st10{fill:#3CEA8A;}
	.st11{opacity:0.4;fill:#666666;}
	.st12{fill:#33BC6E;}
	.st13{fill:none;}
	.st14{fill:#7149A4;}
	.st15{fill:#BD86E0;}
	.st16{opacity:0.4;fill:#666666;stroke:#666666;stroke-width:4;stroke-linejoin:bevel;stroke-miterlimit:10;}
	.st17{fill:#F2F2F2;}
	.st18{fill:#E6E6E6;}
	.st19{fill:none;stroke:#000000;stroke-width:4;stroke-linejoin:bevel;stroke-miterlimit:10;}
	.st20{fill:#C6E0DE;}
	.st21{fill:#A7C6C3;}
	.st22{fill:#EE3D53;}
	.st23{fill:none;stroke:#000000;stroke-width:2;stroke-miterlimit:10;}
	.st24{fill:#A17559;}
	.st25{fill:#910E46;}
	.st26{fill:#238D6F;}
	.st27{fill:#704CA2;}
	.st28{fill:#47E88D;}
	.st29{fill:#BC88DE;}
	.st30{fill:#CCCCCC;}
	.st31{opacity:0.38;fill:#2D3D3E;}
	.st32{fill:#5B2616;}
	.st33{opacity:0.38;}
	.st34{fill:#2D3D3E;}
	.st35{fill:#3F180F;}
	.st36{fill:#1A1A1A;}
	.st37{fill:#38140C;}
</style>
<g>
	<rect x="-1076.6" y="2305.1" class="st0" width="484" height="82"/>
	<rect x="-624.6" y="2379.1" class="st0" width="107" height="30"/>
	<g class="st1">
		<g>
			<polygon class="st0" points="-1060.6,2325.1 -1060.6,2407.1 -1156.6,2407.1 -1156.6,2396.1 -1144.6,2396.1 -1144.6,2384.1 
				-1132.6,2384.1 -1132.6,2372.1 -1120.6,2372.1 -1120.6,2360.1 -1132.6,2360.1 -1132.6,2348.1 -1144.6,2348.1 -1144.6,2336.1 
				-1156.6,2336.1 -1156.6,2325.1 			"/>
		</g>
		<polygon class="st0" points="-1074.6,2383.1 -1060.6,2406.1 -1060.7,2383.1 		"/>
	</g>
	<g>
		<g>
			<polygon class="st2" points="-613.6,2317.1 -613.6,2399.1 -517.6,2399.1 -517.6,2388.1 -529.6,2388.1 -529.6,2376.1 
				-541.6,2376.1 -541.6,2364.1 -553.6,2364.1 -553.6,2352.1 -541.6,2352.1 -541.6,2340.1 -529.6,2340.1 -529.6,2328.1 
				-517.6,2328.1 -517.6,2317.1 			"/>
			<polygon class="st3" points="-613.6,2306.1 -613.6,2388.1 -517.6,2388.1 -517.6,2377.1 -529.6,2377.1 -529.6,2365.1 
				-541.6,2365.1 -541.6,2353.1 -553.6,2353.1 -553.6,2341.1 -541.6,2341.1 -541.6,2329.1 -529.6,2329.1 -529.6,2317.1 
				-517.6,2317.1 -517.6,2306.1 			"/>
		</g>
		<polygon class="st2" points="-599.6,2375.1 -613.6,2398.1 -613.6,2375.1 		"/>
		<g>
			<g>
				<polygon class="st2" points="-1069.6,2317.1 -1069.6,2399.1 -1165.6,2399.1 -1165.6,2388.1 -1153.6,2388.1 -1153.6,2376.1 
					-1141.6,2376.1 -1141.6,2364.1 -1129.6,2364.1 -1129.6,2352.1 -1141.6,2352.1 -1141.6,2340.1 -1153.6,2340.1 -1153.6,2328.1 
					-1165.6,2328.1 -1165.6,2317.1 				"/>
				<polygon class="st3" points="-1069.6,2306.1 -1069.6,2388.1 -1165.6,2388.1 -1165.6,2377.1 -1153.6,2377.1 -1153.6,2365.1 
					-1141.6,2365.1 -1141.6,2353.1 -1129.6,2353.1 -1129.6,2341.1 -1141.6,2341.1 -1141.6,2329.1 -1153.6,2329.1 -1153.6,2317.1 
					-1165.6,2317.1 -1165.6,2306.1 				"/>
			</g>
			<polygon class="st2" points="-1083.6,2375.1 -1069.6,2398.1 -1069.7,2375.1 			"/>
		</g>
		<g>
			<rect x="-1083.6" y="2293.1" class="st2" width="484" height="82"/>
			<rect x="-1083.6" y="2281.1" class="st3" width="484" height="82"/>
		</g>
	</g>
	<g>
		<path class="st4" d="M-1013,2340.8h-8.6v-34.6h8.6v13h8.6v-13h8.6v34.6h-8.6v-13h-8.6V2340.8z"/>
		<path class="st4" d="M-991.4,2310.6h4.3v-4.3h17.3v4.3h4.3v25.9h-4.3v4.3h-17.3v-4.3h-4.3V2310.6z M-982.8,2332.2h8.6v-17.3h-8.6
			V2332.2z"/>
		<path class="st4" d="M-952.5,2340.8h-8.6v-34.6h8.6v17.3h4.3v-4.3h4.3v4.3h4.3v-17.3h8.6v34.6h-8.6v-4.3h-4.3v-4.3h-4.3v4.3h-4.3
			V2340.8z"/>
		<path class="st4" d="M-896.4,2306.3h25.9v8.6h-8.6v25.9h-8.6v-25.9h-8.6V2306.3z"/>
		<path class="st4" d="M-866.1,2310.6h4.3v-4.3h17.3v4.3h4.3v25.9h-4.3v4.3h-17.3v-4.3h-4.3V2310.6z M-857.5,2332.2h8.6v-17.3h-8.6
			V2332.2z"/>
		<path class="st4" d="M-797,2340.8h-8.6v-34.6h21.6v4.3h4.3v13h-4.3v4.3h-13V2340.8z M-797,2319.2h8.6v-4.3h-8.6V2319.2z"/>
		<path class="st4" d="M-771.1,2336.5h-4.3v-30.2h8.6v25.9h17.3v8.6h-21.6V2336.5z"/>
		<path class="st4" d="M-736.5,2340.8h-8.6v-30.2h4.3v-4.3h17.3v4.3h4.3v30.2h-8.6v-13h-8.6V2340.8z M-727.9,2319.2v-4.3h-8.6v4.3
			H-727.9z"/>
		<path class="st4" d="M-714.9,2306.3h8.6v13h8.6v-13h8.6v17.3h-4.3v4.3h-4.3v13h-8.6v-13h-4.3v-4.3h-4.3V2306.3z"/>
	</g>
</g>
<polygon class="st5" points="-907.6,2574.1 -919.6,2574.1 -992.6,2574.1 -992.6,2586.1 -1004.6,2586.1 -1004.6,2671.1 
	-992.6,2671.1 -992.6,2683.1 -919.6,2683.1 -907.6,2683.1 -907.6,2671.1 -895.6,2671.1 -895.6,2586.1 -907.6,2586.1 "/>
<polygon class="st5" points="-907.6,2574.1 -919.6,2574.1 -992.6,2574.1 -992.6,2586.1 -1004.6,2586.1 -1004.6,2671.1 
	-992.6,2671.1 -992.6,2683.1 -919.6,2683.1 -907.6,2683.1 -907.6,2671.1 -895.6,2671.1 -895.6,2586.1 -907.6,2586.1 "/>
<g>
	<path class="st4" d="M-968,2608.3h28.4v5.7h5.7v17.1h-5.7v5.7h-17.1v-11.4h11.4v-5.7H-968V2608.3z M-956.7,2642.4h11.4v11.4h-11.4
		V2642.4z"/>
</g>
<polygon class="st5" points="-756.6,2574.1 -768.6,2574.1 -841.6,2574.1 -841.6,2586.1 -853.6,2586.1 -853.6,2671.1 -841.6,2671.1 
	-841.6,2683.1 -768.6,2683.1 -756.6,2683.1 -756.6,2671.1 -744.6,2671.1 -744.6,2586.1 -756.6,2586.1 "/>
<polygon class="st6" points="-756.6,2564.1 -768.6,2564.1 -841.6,2564.1 -841.6,2576.1 -853.6,2576.1 -853.6,2661.1 -841.6,2661.1 
	-841.6,2673.1 -768.6,2673.1 -756.6,2673.1 -756.6,2661.1 -744.6,2661.1 -744.6,2576.1 -756.6,2576.1 "/>
<g>
	<path class="st4" d="M-817,2598.3h28.4v5.7h5.7v17.1h-5.7v5.7h-17.1v-11.4h11.4v-5.7H-817V2598.3z M-805.7,2632.4h11.4v11.4h-11.4
		V2632.4z"/>
</g>
<g>
	<polygon class="st0" points="278.4,2418.6 266.8,2418.6 266.8,2406.9 255.2,2406.9 255.2,2394.1 -243.5,2394.1 -243.5,2406.9 
		-255.1,2406.9 -255.1,2418.6 -266.6,2418.6 -266.6,3103.3 -255.1,3103.3 -255.1,3115 -243.5,3115 -243.5,3127.8 255.2,3127.8 
		255.2,3115 266.8,3115 266.8,3103.3 278.4,3103.3 	"/>
	<polygon class="st7" points="278.4,2406.6 266.8,2406.6 266.8,2394.9 255.2,2394.9 255.2,2382.1 -243.5,2382.1 -243.5,2394.9 
		-255.1,2394.9 -255.1,2406.6 -266.6,2406.6 -266.6,3091.3 -255.1,3091.3 -255.1,3102.9 -243.5,3102.9 -243.5,3115.7 255.2,3115.7 
		255.2,3102.9 266.8,3102.9 266.8,3091.3 278.4,3091.3 	"/>
	<polygon class="st8" points="278.4,2394.5 266.8,2394.5 266.8,2382.9 255.2,2382.9 255.2,2370.1 -243.5,2370.1 -243.5,2382.9 
		-255.1,2382.9 -255.1,2394.5 -266.6,2394.5 -266.6,3079.3 -255.1,3079.3 -255.1,3090.9 -243.5,3090.9 -243.5,3103.7 255.2,3103.7 
		255.2,3090.9 266.8,3090.9 266.8,3079.3 278.4,3079.3 	"/>
</g>
<g>
	<polygon class="st9" points="-770.6,2054.1 -780.7,2054.1 -1155.6,2054.1 -1155.6,2064.1 -1165.6,2064.1 -1165.6,2122 
		-1155.6,2122 -1155.6,2132.1 -780.7,2132.1 -770.6,2132.1 -770.6,2122 -760.5,2122 -760.5,2064.1 -770.6,2064.1 	"/>
	<polygon class="st10" points="-770.6,2044.1 -780.7,2044.1 -1155.6,2044.1 -1155.6,2054.1 -1165.6,2054.1 -1165.6,2112 
		-1155.6,2112 -1155.6,2122.1 -780.7,2122.1 -770.6,2122.1 -770.6,2112 -760.5,2112 -760.5,2054.1 -770.6,2054.1 	"/>
	<g>
		<path class="st4" d="M-1045.6,2095h-6.9v-27.6h17.3v3.5h3.5v10.4h-3.5v3.5h-10.4V2095z M-1045.6,2077.7h6.9v-3.5h-6.9V2077.7z"/>
		<path class="st4" d="M-1024.8,2091.5h-3.5v-24.2h6.9v20.7h13.8v6.9h-17.3V2091.5z"/>
		<path class="st4" d="M-997.2,2095h-6.9v-24.2h3.5v-3.5h13.8v3.5h3.5v24.2h-6.9v-10.4h-6.9V2095z M-990.3,2077.7v-3.5h-6.9v3.5
			H-990.3z"/>
		<path class="st4" d="M-979.9,2067.3h6.9v10.4h6.9v-10.4h6.9v13.8h-3.5v3.5h-3.5v10.4h-6.9v-10.4h-3.5v-3.5h-3.5V2067.3z"/>
		<path class="st4" d="M-952.3,2091.5h-3.5v-20.7h3.5v-3.5h17.3v6.9h-13.8v3.5h6.9v6.9h-6.9v3.5h13.8v6.9h-17.3V2091.5z"/>
		<path class="st4" d="M-921.2,2084.6h-3.5v10.4h-6.9v-27.6h17.3v3.5h3.5v10.4h-3.5v3.5h3.5v10.4h-6.9v-6.9h-3.5V2084.6z
			 M-924.6,2077.7h6.9v-3.5h-6.9V2077.7z"/>
		<path class="st4" d="M-883.2,2067.3h6.9v27.6h-6.9V2067.3z"/>
	</g>
</g>
<g>
	<polygon class="st11" points="-1131.5,1933.5 -1133.4,1927.7 -1137.5,1915.7 -1155.3,1921.7 -1153.3,1927.5 -1159.1,1929.4 
		-1155,1941.5 -1149.2,1939.5 -1147.3,1945.3 -1135.3,1941.2 -1137.2,1935.4 	"/>
	<polygon class="st11" points="-1092.7,1921.4 -1094.6,1915.7 -1098.7,1903.6 -1116.5,1909.7 -1114.5,1915.4 -1120.3,1917.4 
		-1116.2,1929.4 -1110.5,1927.5 -1108.5,1933.2 -1096.5,1929.2 -1098.4,1923.4 	"/>
	<rect x="-1152.2" y="1874.5" transform="matrix(0.9472 -0.3207 0.3207 0.9472 -668.0607 -268.3634)" width="7.1" height="38.6"/>
	<polygon points="-1133.1,1928.7 -1135,1922.9 -1139.1,1910.9 -1156.9,1916.9 -1154.9,1922.7 -1160.7,1924.6 -1156.6,1936.7 
		-1150.9,1934.7 -1148.9,1940.5 -1136.9,1936.4 -1138.9,1930.6 	"/>
	<rect x="-1113.7" y="1861.4" transform="matrix(0.9472 -0.3207 0.3207 0.9472 -661.8506 -256.7137)" width="7.1" height="38.6"/>
	<polygon points="-1094.6,1915.7 -1096.6,1909.9 -1100.6,1897.9 -1118.4,1903.9 -1116.5,1909.7 -1122.3,1911.6 -1118.2,1923.6 
		-1112.4,1921.7 -1110.5,1927.5 -1098.4,1923.4 -1100.4,1917.6 	"/>
	<rect x="-1162.2" y="1852.2" transform="matrix(0.9472 -0.3207 0.3207 0.9472 -656.9465 -266.8079)" width="47.7" height="17.3"/>
</g>
<g>
	<polygon class="st11" points="-1065.2,1967.1 -1064.3,1962.9 -1062.4,1954.3 -1075.2,1951.5 -1076.1,1955.6 -1080.3,1954.7 
		-1082.2,1963.3 -1078,1964.3 -1079,1968.4 -1070.3,1970.3 -1069.4,1966.2 	"/>
	<polygon class="st11" points="-1037.7,1973.8 -1036.8,1969.7 -1034.9,1961.1 -1047.7,1958.2 -1048.6,1962.4 -1052.8,1961.5 
		-1054.7,1970.1 -1050.5,1971 -1051.4,1975.2 -1042.8,1977.1 -1041.9,1972.9 	"/>
	<rect x="-1063.7" y="1923.7" transform="matrix(0.9766 0.2149 -0.2149 0.9766 391.4793 273.2942)" width="5" height="26.9"/>
	<polygon points="-1064.5,1963.6 -1063.6,1959.5 -1061.7,1950.8 -1074.5,1948 -1075.4,1952.2 -1079.5,1951.2 -1081.4,1959.9 
		-1077.3,1960.8 -1078.2,1964.9 -1069.5,1966.8 -1068.6,1962.7 	"/>
	<rect x="-1036" y="1929.8" transform="matrix(0.9766 0.2149 -0.2149 0.9766 393.4334 267.4922)" width="5" height="26.9"/>
	<polygon points="-1036.8,1969.7 -1035.9,1965.6 -1034,1956.9 -1046.8,1954.1 -1047.7,1958.2 -1051.9,1957.3 -1053.8,1966 
		-1049.6,1966.9 -1050.5,1971 -1041.9,1972.9 -1041,1968.8 	"/>
	<rect x="-1059.8" y="1915.2" transform="matrix(0.9766 0.2149 -0.2149 0.9766 388.4675 269.0498)" width="33.3" height="12"/>
</g>
<g>
	<polygon class="st11" points="-989.2,1905.3 -989.9,1902.2 -991.3,1895.9 -1000.7,1898 -1000,1901 -1003.1,1901.7 -1001.7,1908 
		-998.6,1907.4 -997.9,1910.4 -991.6,1909 -992.3,1906 	"/>
	<polygon class="st11" points="-968.8,1901.3 -969.5,1898.2 -970.9,1891.9 -980.3,1894 -979.6,1897 -982.7,1897.7 -981.2,1904 
		-978.2,1903.4 -977.5,1906.4 -971.2,1905 -971.9,1901.9 	"/>
	<rect x="-997.6" y="1874.2" transform="matrix(0.9761 -0.2173 0.2173 0.9761 -433.1815 -171.361)" width="3.6" height="19.8"/>
	<polygon points="-989.8,1902.7 -990.5,1899.7 -991.9,1893.3 -1001.3,1895.4 -1000.6,1898.5 -1003.6,1899.2 -1002.2,1905.5 
		-999.2,1904.8 -998.5,1907.9 -992.2,1906.5 -992.8,1903.4 	"/>
	<rect x="-977.3" y="1869.7" transform="matrix(0.9761 -0.2173 0.2173 0.9761 -431.7139 -167.0562)" width="3.6" height="19.8"/>
	<polygon points="-969.5,1898.2 -970.2,1895.2 -971.6,1888.8 -981,1890.9 -980.3,1894 -983.3,1894.6 -981.9,1901 -978.9,1900.3 
		-978.2,1903.4 -971.9,1901.9 -972.5,1898.9 	"/>
	<rect x="-1001" y="1863.4" transform="matrix(0.9761 -0.2173 0.2173 0.9761 -429.4882 -170.2175)" width="24.4" height="8.8"/>
</g>
<g>
	<polygon class="st11" points="-968.6,1951 -966,1946.9 -960.6,1938.4 -973.2,1930.3 -975.9,1934.4 -980,1931.8 -985.4,1940.4 
		-981.3,1943 -983.9,1947.1 -975.3,1952.5 -972.7,1948.4 	"/>
	<polygon class="st11" points="-941.6,1969.2 -939,1965 -933.6,1956.5 -946.3,1948.4 -948.9,1952.5 -953,1949.9 -958.4,1958.5 
		-954.3,1961.1 -956.9,1965.2 -948.4,1970.7 -945.7,1966.5 	"/>
	<rect x="-955.3" y="1904.9" transform="matrix(0.844 0.5363 -0.5363 0.844 881.3429 810.3712)" width="5.7" height="30.9"/>
	<polygon points="-966.4,1947.6 -963.8,1943.5 -958.4,1934.9 -971.1,1926.9 -973.7,1931 -977.8,1928.4 -983.2,1936.9 -979.1,1939.6 
		-981.7,1943.7 -973.2,1949.1 -970.6,1945 	"/>
	<rect x="-927.9" y="1922.4" transform="matrix(0.844 0.5363 -0.5363 0.844 894.9673 798.3804)" width="5.7" height="30.9"/>
	<polygon points="-939,1965 -936.4,1960.9 -931,1952.4 -943.6,1944.3 -946.3,1948.4 -950.4,1945.8 -955.8,1954.4 -951.7,1957 
		-954.3,1961.1 -945.7,1966.5 -943.1,1962.4 	"/>
	<rect x="-945.9" y="1903.3" transform="matrix(0.844 0.5363 -0.5363 0.844 879.9114 795.009)" width="38.2" height="13.8"/>
</g>
<g>
	<polygon class="st9" points="-1247.4,1510.6 -1254,1510.6 -1500.4,1510.6 -1500.4,1517.2 -1507,1517.2 -1507,1555.3 
		-1500.4,1555.3 -1500.4,1561.9 -1254,1561.9 -1247.4,1561.9 -1247.4,1555.3 -1240.8,1555.3 -1240.8,1517.2 -1247.4,1517.2 	"/>
	<polygon class="st12" points="-1247.4,1510.6 -1254,1510.6 -1500.4,1510.6 -1500.4,1517.2 -1507,1517.2 -1507,1555.3 
		-1500.4,1555.3 -1500.4,1561.9 -1254,1561.9 -1247.4,1561.9 -1247.4,1555.3 -1240.8,1555.3 -1240.8,1517.2 -1247.4,1517.2 	"/>
	<g>
		<path class="st4" d="M-1440.6,1528.2h2.3v-2.3h11.4v4.5h-9.1v9.1h9.1v4.5h-11.4v-2.3h-2.3V1528.2z"/>
		<path class="st4" d="M-1420.1,1544.1h-4.5v-15.9h2.3v-2.3h9.1v2.3h2.3v15.9h-4.5v-6.8h-4.5V1544.1z M-1415.6,1532.7v-2.3h-4.5v2.3
			H-1415.6z"/>
		<path class="st4" d="M-1406.5,1541.8h-2.3v-15.9h4.5v13.6h9.1v4.5h-11.4V1541.8z"/>
		<path class="st4" d="M-1392.9,1525.9h4.5v18.2h-4.5V1525.9z"/>
		<path class="st4" d="M-1386.1,1525.9h11.4v2.3h2.3v13.6h-2.3v2.3h-11.4V1525.9z M-1381.5,1532.7h4.5v-2.3h-4.5V1532.7z
			 M-1381.5,1539.5h4.5v-2.3h-4.5V1539.5z"/>
		<path class="st4" d="M-1363.3,1537.2h-2.3v6.8h-4.5v-15.9h2.3v-2.3h9.1v2.3h2.3v6.8h-2.3v2.3h2.3v6.8h-4.5v-4.5h-2.3V1537.2z
			 M-1365.6,1532.7h4.5v-2.3h-4.5V1532.7z"/>
		<path class="st4" d="M-1349.7,1544.1h-4.5v-15.9h2.3v-2.3h9.1v2.3h2.3v15.9h-4.5v-6.8h-4.5V1544.1z M-1345.2,1532.7v-2.3h-4.5v2.3
			H-1345.2z"/>
		<path class="st4" d="M-1338.4,1525.9h13.6v4.5h-4.5v13.6h-4.5v-13.6h-4.5V1525.9z"/>
		<path class="st4" d="M-1320.2,1541.8h-2.3v-13.6h2.3v-2.3h11.4v4.5h-9.1v2.3h4.5v4.5h-4.5v2.3h9.1v4.5h-11.4V1541.8z"/>
	</g>
</g>
<g>
	<polygon class="st9" points="-927.4,1578.6 -934,1578.6 -1180.4,1578.6 -1180.4,1585.2 -1187,1585.2 -1187,1623.3 -1180.4,1623.3 
		-1180.4,1629.9 -934,1629.9 -927.4,1629.9 -927.4,1623.3 -920.8,1623.3 -920.8,1585.2 -927.4,1585.2 	"/>
	<polygon class="st10" points="-927.4,1572.1 -934,1572.1 -1180.4,1572.1 -1180.4,1578.7 -1187,1578.7 -1187,1616.7 -1180.4,1616.7 
		-1180.4,1623.3 -934,1623.3 -927.4,1623.3 -927.4,1616.7 -920.8,1616.7 -920.8,1578.7 -927.4,1578.7 	"/>
	<g>
		<path class="st4" d="M-1120.6,1589.6h2.3v-2.3h11.4v4.5h-9.1v9.1h9.1v4.5h-11.4v-2.3h-2.3V1589.6z"/>
		<path class="st4" d="M-1100.1,1605.5h-4.5v-15.9h2.3v-2.3h9.1v2.3h2.3v15.9h-4.5v-6.8h-4.5V1605.5z M-1095.6,1594.1v-2.3h-4.5v2.3
			H-1095.6z"/>
		<path class="st4" d="M-1086.5,1603.2h-2.3v-15.9h4.5v13.6h9.1v4.5h-11.4V1603.2z"/>
		<path class="st4" d="M-1072.9,1587.3h4.5v18.2h-4.5V1587.3z"/>
		<path class="st4" d="M-1066.1,1587.3h11.4v2.3h2.3v13.6h-2.3v2.3h-11.4V1587.3z M-1061.5,1594.1h4.5v-2.3h-4.5V1594.1z
			 M-1061.5,1600.9h4.5v-2.3h-4.5V1600.9z"/>
		<path class="st4" d="M-1043.3,1598.7h-2.3v6.8h-4.5v-15.9h2.3v-2.3h9.1v2.3h2.3v6.8h-2.3v2.3h2.3v6.8h-4.5v-4.5h-2.3V1598.7z
			 M-1045.6,1594.1h4.5v-2.3h-4.5V1594.1z"/>
		<path class="st4" d="M-1029.7,1605.5h-4.5v-15.9h2.3v-2.3h9.1v2.3h2.3v15.9h-4.5v-6.8h-4.5V1605.5z M-1025.2,1594.1v-2.3h-4.5v2.3
			H-1025.2z"/>
		<path class="st4" d="M-1018.4,1587.3h13.6v4.5h-4.5v13.6h-4.5v-13.6h-4.5V1587.3z"/>
		<path class="st4" d="M-1000.2,1603.2h-2.3v-13.6h2.3v-2.3h11.4v4.5h-9.1v2.3h4.5v4.5h-4.5v2.3h9.1v4.5h-11.4V1603.2z"/>
	</g>
</g>
<g>
	<rect x="-1185.4" y="1661" class="st9" width="219.8" height="28.8"/>
	<rect x="-1190.2" y="1654.4" class="st9" width="229.4" height="30.6"/>
	<polygon class="st10" points="-1190.2,1650.1 -1190.2,1679.3 -1185.4,1679.3 -1185.4,1685 -965.6,1685 -965.6,1679.3 
		-960.8,1679.3 -960.8,1650.1 	"/>
</g>
<polygon class="st9" points="-970.4,1664.9 -970.4,1659.8 -975.5,1659.8 -975.5,1659.7 -1032.2,1659.7 -1062.7,1659.7 
	-1088.3,1659.7 -1112.2,1659.7 -1175.5,1659.7 -1175.5,1659.8 -1180.6,1659.8 -1180.6,1664.9 -1185.7,1664.9 -1185.7,1672.5 
	-1180.6,1672.5 -1180.6,1677.6 -1175.5,1677.6 -1175.5,1677.7 -1112.2,1677.7 -1088.3,1677.7 -1062.7,1677.7 -1032.2,1677.7 
	-975.5,1677.7 -975.5,1677.7 -970.4,1677.7 -970.4,1672.6 -965.3,1672.6 -965.3,1664.9 "/>
<g>
	<rect x="-1194.3" y="1759" class="st13" width="4.7" height="0.1"/>
	<rect x="-1194.3" y="1776.9" class="st13" width="4.7" height="0.1"/>
	<polygon class="st4" points="-1173.3,1776.9 -1173.3,1771.8 -1168.2,1771.8 -1168.2,1764.2 -1173.3,1764.2 -1173.3,1759.1 
		-1178.4,1759.1 -1178.4,1759 -1189.6,1759 -1189.6,1759 -1194.3,1759 -1194.3,1776.9 -1189.6,1776.9 -1189.6,1777 -1178.4,1777 
		-1178.4,1776.9 	"/>
</g>
<g>
	<polygon class="st4" points="-1220.1,1723.4 -1220.1,1718.3 -1225.2,1718.3 -1225.2,1718.2 -1241.1,1718.2 -1241.1,1736.2 
		-1225.2,1736.2 -1225.2,1736.2 -1220.1,1736.2 -1220.1,1731.1 -1215,1731.1 -1215,1723.4 	"/>
	<polygon class="st4" points="-1233.6,1762.3 -1233.6,1757.2 -1233.6,1757.2 -1233.6,1757.1 -1238.2,1757.1 -1238.7,1757.1 
		-1243.2,1757.1 -1243.2,1757.2 -1243.3,1757.2 -1243.3,1762.3 -1248.3,1762.3 -1248.3,1769.9 -1243.3,1769.9 -1243.3,1775 
		-1243.2,1775 -1243.2,1775.1 -1238.7,1775.1 -1238.2,1775.1 -1233.6,1775.1 -1233.6,1775 -1233.6,1775 -1233.6,1769.9 
		-1228.5,1769.9 -1228.5,1762.3 	"/>
</g>
<polygon class="st4" points="-1283.4,1664.9 -1283.4,1659.8 -1283.4,1659.8 -1283.4,1659.7 -1288,1659.7 -1288.5,1659.7 
	-1293,1659.7 -1293,1659.8 -1293,1659.8 -1293,1664.9 -1298.1,1664.9 -1298.1,1672.5 -1293,1672.5 -1293,1677.6 -1293,1677.6 
	-1293,1677.7 -1288.5,1677.7 -1288,1677.7 -1283.4,1677.7 -1283.4,1677.7 -1283.4,1677.7 -1283.4,1672.6 -1278.3,1672.6 
	-1278.3,1664.9 "/>
<polygon class="st14" points="-317.6,2054.1 -327.7,2054.1 -702.6,2054.1 -702.6,2064.1 -712.6,2064.1 -712.6,2122 -702.6,2122 
	-702.6,2132.1 -327.7,2132.1 -317.6,2132.1 -317.6,2122 -307.5,2122 -307.5,2064.1 -317.6,2064.1 "/>
<polygon class="st15" points="-317.6,2044.1 -327.7,2044.1 -702.6,2044.1 -702.6,2054.1 -712.6,2054.1 -712.6,2112 -702.6,2112 
	-702.6,2122.1 -327.7,2122.1 -317.6,2122.1 -317.6,2112 -307.5,2112 -307.5,2054.1 -317.6,2054.1 "/>
<g>
	<path class="st4" d="M-600,2095h-6.9v-27.6h17.3v3.5h3.5v10.4h-3.5v3.5H-600V2095z M-600,2077.7h6.9v-3.5h-6.9V2077.7z"/>
	<path class="st4" d="M-579.3,2091.5h-3.5v-24.2h6.9v20.7h13.8v6.9h-17.3V2091.5z"/>
	<path class="st4" d="M-551.6,2095h-6.9v-24.2h3.5v-3.5h13.8v3.5h3.5v24.2h-6.9v-10.4h-6.9V2095z M-544.7,2077.7v-3.5h-6.9v3.5
		H-544.7z"/>
	<path class="st4" d="M-534.3,2067.3h6.9v10.4h6.9v-10.4h6.9v13.8h-3.5v3.5h-3.5v10.4h-6.9v-10.4h-3.5v-3.5h-3.5V2067.3z"/>
	<path class="st4" d="M-506.7,2091.5h-3.5v-20.7h3.5v-3.5h17.3v6.9h-13.8v3.5h6.9v6.9h-6.9v3.5h13.8v6.9h-17.3V2091.5z"/>
	<path class="st4" d="M-475.6,2084.6h-3.5v10.4h-6.9v-27.6h17.3v3.5h3.5v10.4h-3.5v3.5h3.5v10.4h-6.9v-6.9h-3.5V2084.6z
		 M-479,2077.7h6.9v-3.5h-6.9V2077.7z"/>
	<path class="st4" d="M-437.6,2067.3h17.3v3.5h3.5v10.4h-3.5v3.5h-10.4v3.5h13.8v6.9h-20.7v-13.8h3.5v-3.5h10.4v-3.5h-13.8V2067.3z"
		/>
</g>
<g>
	<rect x="-691.6" y="2048.1" class="st4" width="45.1" height="5.7"/>
	<rect x="-640.4" y="2048.1" class="st4" width="5.7" height="5.7"/>
</g>
<g>
	<rect x="-1146.1" y="2049.1" class="st4" width="45.1" height="5.7"/>
	<rect x="-1094.9" y="2049.1" class="st4" width="5.7" height="5.7"/>
</g>
<polygon class="st16" points="-757,1889.1 -750.6,1894.7 -756.2,1901.1 -735.8,1918.5 -735.8,1956.3 -715.1,1930.2 -683.3,1959.6 
	-677.4,1953.4 -672.5,1958 -600.9,1839.3 "/>
<polygon class="st17" points="-759.5,1882 -753.1,1887.6 -758.7,1894 -738.3,1911.3 -738.3,1949.2 -717.5,1923.1 -685.8,1952.5 
	-679.9,1946.2 -675,1950.9 -603.3,1832.2 "/>
<polygon class="st18" points="-717.5,1922.9 -603.1,1832.1 -738.2,1911.1 -738.2,1949 "/>
<polygon class="st19" points="-760.5,1882.1 -754.2,1887.7 -759.8,1894.1 -739.3,1911.5 -739.3,1949.4 -718.6,1923.3 -686.8,1952.7 
	-681,1946.4 -676,1951 -604.4,1832.3 "/>
<g>
	<polygon class="st20" points="-824.7,1575.4 -824.7,1739 -814.3,1739 -814.3,1748.5 -803.9,1748.5 -803.9,1759 -356.5,1759 
		-356.5,1748.5 -346.1,1748.5 -346.1,1739 -335.7,1739 -335.7,1575.4 	"/>
	<polygon class="st20" points="-335.7,1575.4 -335.7,1481.3 -346.1,1481.3 -346.1,1471.7 -356.5,1471.7 -356.5,1461.3 
		-803.9,1461.3 -803.9,1471.7 -814.3,1471.7 -814.3,1481.3 -824.7,1481.3 -824.7,1575.4 	"/>
</g>
<g>
	<polygon class="st21" points="-814.3,1477.9 -803.9,1477.9 -803.9,1469.9 -814.3,1469.9 -814.3,1477.8 -824.7,1477.8 
		-824.7,1485.8 -814.3,1485.8 	"/>
	<rect x="-803.9" y="1461.2" class="st21" width="447.5" height="8"/>
	<polygon class="st21" points="-346.1,1477.8 -346.1,1469.9 -356.5,1469.9 -356.5,1477.9 -346.1,1477.9 -346.1,1485.8 
		-335.7,1485.8 -335.7,1477.8 	"/>
</g>
<g>
	<g>
		<g>
			<rect x="-1217.8" y="1396.9" width="10.2" height="10.2"/>
		</g>
	</g>
	<g>
		<g>
			<path d="M-1156.4,1386.7v5.1h-5.1v5.1h5.1v20.5h5.1v5.1h-5.1v5.1h5.1h5.1v-10.2h15.4v5.1h5.1v-5.1v-30.7H-1156.4z
				 M-1130.8,1412.3h-20.5v-20.5h20.5V1412.3z"/>
		</g>
	</g>
	<g>
		<g>
			<rect x="-1146.2" y="1396.9" width="10.2" height="10.2"/>
		</g>
	</g>
	<g>
		<g>
			<rect x="-1217.8" y="1468.6" width="10.2" height="10.2"/>
		</g>
	</g>
	<g>
		<g>
			<rect x="-1156.4" y="1458.3" width="5.1" height="5.1"/>
		</g>
	</g>
	<g>
		<g>
			<rect x="-1182" y="1483.9" width="5.1" height="5.1"/>
		</g>
	</g>
	<g>
		<g>
			<rect x="-1176.9" y="1463.5" width="5.1" height="5.1"/>
		</g>
	</g>
	<g>
		<g>
			<rect x="-1176.9" y="1473.7" width="5.1" height="5.1"/>
		</g>
	</g>
	<g>
		<g>
			<rect x="-1130.8" y="1448.1" width="5.1" height="5.1"/>
		</g>
	</g>
	<g>
		<g>
			<rect x="-1228.1" y="1448.1" width="5.1" height="5.1"/>
		</g>
	</g>
	<g>
		<g>
			<rect x="-1228.1" y="1422.5" width="5.1" height="5.1"/>
		</g>
	</g>
	<g>
		<g>
			<polygon points="-1171.8,1391.8 -1171.8,1396.9 -1182,1396.9 -1182,1402 -1166.6,1402 -1166.6,1396.9 -1166.6,1391.8 			"/>
		</g>
	</g>
	<g>
		<g>
			<path d="M-1130.8,1427.6v5.1h-10.2v5.1h-15.4v-5.1h-5.1v5.1h-10.2v5.1h15.4v5.1h-10.2h-5.1v-5.1h-5.1v5.1h-5.1v-5.1h-5.1v5.1
				h-5.1v5.1h10.2v5.1h5.1v-5.1h10.2v5.1h-5.1v5.1h5.1v10.2h5.1v5.1h5.1v-5.1h15.4v-10.2h5.1v-5.1h-5.1v-10.2h-10.2v-5.1h10.2v5.1
				h5.1v-5.1h5.1v-5.1h5.1v-5.1v-5.1H-1130.8L-1130.8,1427.6z M-1146.2,1453.2v15.4h-15.4v-15.4H-1146.2z"/>
		</g>
	</g>
	<g>
		<g>
			<polygon points="-1161.5,1417.4 -1166.6,1417.4 -1166.6,1422.5 -1171.8,1422.5 -1171.8,1427.6 -1171.8,1432.7 -1166.6,1432.7 
				-1166.6,1427.6 -1161.5,1427.6 -1161.5,1422.5 -1156.4,1422.5 -1156.4,1417.4 			"/>
		</g>
	</g>
	<g>
		<g>
			<rect x="-1171.8" y="1483.9" width="10.2" height="5.1"/>
		</g>
	</g>
	<g>
		<g>
			<rect x="-1187.1" y="1391.8" width="5.1" height="5.1"/>
		</g>
	</g>
	<g>
		<g>
			<rect x="-1146.2" y="1427.6" width="5.1" height="5.1"/>
		</g>
	</g>
	<g>
		<g>
			<rect x="-1141" y="1422.5" width="5.1" height="5.1"/>
		</g>
	</g>
	<g>
		<g>
			<rect x="-1207.6" y="1448.1" width="5.1" height="5.1"/>
		</g>
	</g>
	<g>
		<g>
			<path d="M-1197.4,1483.9v-20.5h5.1v-5.1v-5.1h-5.1v5.1h-15.4v-5.1h-5.1h-5.1v5.1h-5.1v30.7h30.7h10.2v-5.1H-1197.4z
				 M-1202.5,1483.9h-20.5v-20.5h20.5V1483.9z"/>
		</g>
	</g>
	<g>
		<g>
			<rect x="-1197.4" y="1417.4" width="5.1" height="5.1"/>
		</g>
	</g>
	<g>
		<g>
			<path d="M-1192.2,1386.7h-5.1h-30.7v30.7h5.1v5.1h5.1v-5.1h5.1v5.1h5.1v-5.1h10.2v-10.2h5.1v-5.1h-5.1v-10.2h5.1h5.1v-5.1
				H-1192.2z M-1202.5,1412.3h-20.5v-20.5h20.5V1412.3z"/>
		</g>
	</g>
	<g>
		<g>
			<rect x="-1166.6" y="1402" width="5.1" height="5.1"/>
		</g>
	</g>
	<g>
		<g>
			<rect x="-1176.9" y="1386.7" width="5.1" height="5.1"/>
		</g>
	</g>
	<g>
		<g>
			<path d="M-1166.6,1417.4v-5.1h-5.1v-5.1h-5.1v5.1h-10.2v-5.1h-5.1v5.1v5.1h5.1v10.2h-15.4v-5.1h-5.1v5.1h-15.4v5.1h10.2v5.1
				h-15.4v5.1h15.4v5.1h5.1v-5.1h5.1v5.1h5.1v-5.1h10.2v-5.1h-5.1v-5.1h5.1h5.1v5.1h5.1h5.1v-5.1h-5.1v-5.1h-5.1v-10.2H-1166.6
				L-1166.6,1417.4z M-1197.4,1437.9h-10.2v-5.1h10.2V1437.9z"/>
		</g>
	</g>
	<g>
		<g>
			<polygon points="-1182,1468.6 -1182,1463.5 -1182,1458.3 -1187.1,1458.3 -1187.1,1463.5 -1192.2,1463.5 -1192.2,1468.6 
				-1187.1,1468.6 -1187.1,1473.7 -1192.2,1473.7 -1192.2,1478.8 -1182,1478.8 -1182,1473.7 -1176.9,1473.7 -1176.9,1468.6 			"/>
		</g>
	</g>
	<g>
		<g>
			<polygon points="-1135.9,1478.8 -1135.9,1473.7 -1141,1473.7 -1141,1478.8 -1156.4,1478.8 -1156.4,1483.9 -1146.2,1483.9 
				-1146.2,1489.1 -1141,1489.1 -1141,1483.9 -1130.8,1483.9 -1130.8,1489.1 -1125.7,1489.1 -1125.7,1483.9 -1125.7,1478.8 			"/>
		</g>
	</g>
	<g>
		<g>
			<polygon points="-1130.8,1458.3 -1130.8,1463.5 -1135.9,1463.5 -1135.9,1468.6 -1125.7,1468.6 -1125.7,1463.5 -1125.7,1458.3 			
				"/>
		</g>
	</g>
</g>
<g>
	<g>
		<polygon class="st9" points="-1456.2,1802.8 -1459.9,1802.8 -1597.1,1802.8 -1597.1,1806.5 -1600.7,1806.5 -1600.7,1827.6 
			-1597.1,1827.6 -1597.1,1831.3 -1459.9,1831.3 -1456.2,1831.3 -1456.2,1827.6 -1452.5,1827.6 -1452.5,1806.5 -1456.2,1806.5 		"/>
		<polygon class="st12" points="-1456.2,1802.8 -1459.9,1802.8 -1597.1,1802.8 -1597.1,1806.5 -1600.7,1806.5 -1600.7,1827.6 
			-1597.1,1827.6 -1597.1,1831.3 -1459.9,1831.3 -1456.2,1831.3 -1456.2,1827.6 -1452.5,1827.6 -1452.5,1806.5 -1456.2,1806.5 		"/>
		<g>
			<path class="st4" d="M-1568.8,1817.6h-1.3v3.8h-2.5v-10.1h6.3v1.3h1.3v3.8h-1.3v1.3h1.3v3.8h-2.5v-2.5h-1.3V1817.6z
				 M-1570.1,1815.1h2.5v-1.3h-2.5V1815.1z"/>
			<path class="st4" d="M-1562.5,1820.1h-1.3v-7.6h1.3v-1.3h6.3v2.5h-5.1v1.3h2.5v2.5h-2.5v1.3h5.1v2.5h-6.3V1820.1z"/>
			<path class="st4" d="M-1553.7,1820.1h-1.3v-7.6h1.3v-1.3h5.1v1.3h1.3v2.5h-2.5v-1.3h-2.5v5.1h2.5v-1.3h2.5v2.5h-1.3v1.3h-5.1
				V1820.1z"/>
			<path class="st4" d="M-1543.5,1821.4h-2.5v-8.9h1.3v-1.3h5.1v1.3h1.3v8.9h-2.5v-3.8h-2.5V1821.4z M-1541,1815.1v-1.3h-2.5v1.3
				H-1541z"/>
			<path class="st4" d="M-1536,1820.1h-1.3v-8.9h2.5v7.6h5.1v2.5h-6.3V1820.1z"/>
			<path class="st4" d="M-1528.4,1811.3h2.5v10.1h-2.5V1811.3z"/>
			<path class="st4" d="M-1524.6,1811.3h6.3v1.3h1.3v7.6h-1.3v1.3h-6.3V1811.3z M-1522,1815.1h2.5v-1.3h-2.5V1815.1z M-1522,1818.9
				h2.5v-1.3h-2.5V1818.9z"/>
			<path class="st4" d="M-1511.9,1817.6h-1.3v3.8h-2.5v-8.9h1.3v-1.3h5.1v1.3h1.3v3.8h-1.3v1.3h1.3v3.8h-2.5v-2.5h-1.3V1817.6z
				 M-1513.2,1815.1h2.5v-1.3h-2.5V1815.1z"/>
			<path class="st4" d="M-1504.3,1821.4h-2.5v-8.9h1.3v-1.3h5.1v1.3h1.3v8.9h-2.5v-3.8h-2.5V1821.4z M-1501.8,1815.1v-1.3h-2.5v1.3
				H-1501.8z"/>
			<path class="st4" d="M-1498,1811.3h7.6v2.5h-2.5v7.6h-2.5v-7.6h-2.5V1811.3z"/>
			<path class="st4" d="M-1487.9,1820.1h-1.3v-7.6h1.3v-1.3h6.3v2.5h-5.1v1.3h2.5v2.5h-2.5v1.3h5.1v2.5h-6.3V1820.1z"/>
		</g>
	</g>
	<g>
		<rect x="-1594.6" y="1804.9" class="st4" width="13.1" height="1.7"/>
		<rect x="-1579.7" y="1804.9" class="st4" width="1.7" height="1.7"/>
	</g>
</g>
<g>
	<g>
		<polygon class="st9" points="-1456.2,1844.8 -1459.9,1844.8 -1597.1,1844.8 -1597.1,1848.5 -1600.7,1848.5 -1600.7,1869.6 
			-1597.1,1869.6 -1597.1,1873.3 -1459.9,1873.3 -1456.2,1873.3 -1456.2,1869.6 -1452.5,1869.6 -1452.5,1848.5 -1456.2,1848.5 		"/>
		<polygon class="st10" points="-1456.2,1841.1 -1459.9,1841.1 -1597.1,1841.1 -1597.1,1844.8 -1600.7,1844.8 -1600.7,1866 
			-1597.1,1866 -1597.1,1869.7 -1459.9,1869.7 -1456.2,1869.7 -1456.2,1866 -1452.5,1866 -1452.5,1844.8 -1456.2,1844.8 		"/>
		<g>
			<path class="st4" d="M-1568.8,1855.9h-1.3v3.8h-2.5v-10.1h6.3v1.3h1.3v3.8h-1.3v1.3h1.3v3.8h-2.5v-2.5h-1.3V1855.9z
				 M-1570.1,1853.4h2.5v-1.3h-2.5V1853.4z"/>
			<path class="st4" d="M-1562.5,1858.5h-1.3v-7.6h1.3v-1.3h6.3v2.5h-5.1v1.3h2.5v2.5h-2.5v1.3h5.1v2.5h-6.3V1858.5z"/>
			<path class="st4" d="M-1553.7,1858.5h-1.3v-7.6h1.3v-1.3h5.1v1.3h1.3v2.5h-2.5v-1.3h-2.5v5.1h2.5v-1.3h2.5v2.5h-1.3v1.3h-5.1
				V1858.5z"/>
			<path class="st4" d="M-1543.5,1859.7h-2.5v-8.9h1.3v-1.3h5.1v1.3h1.3v8.9h-2.5v-3.8h-2.5V1859.7z M-1541,1853.4v-1.3h-2.5v1.3
				H-1541z"/>
			<path class="st4" d="M-1536,1858.5h-1.3v-8.9h2.5v7.6h5.1v2.5h-6.3V1858.5z"/>
			<path class="st4" d="M-1528.4,1849.6h2.5v10.1h-2.5V1849.6z"/>
			<path class="st4" d="M-1524.6,1849.6h6.3v1.3h1.3v7.6h-1.3v1.3h-6.3V1849.6z M-1522,1853.4h2.5v-1.3h-2.5V1853.4z M-1522,1857.2
				h2.5v-1.3h-2.5V1857.2z"/>
			<path class="st4" d="M-1511.9,1855.9h-1.3v3.8h-2.5v-8.9h1.3v-1.3h5.1v1.3h1.3v3.8h-1.3v1.3h1.3v3.8h-2.5v-2.5h-1.3V1855.9z
				 M-1513.2,1853.4h2.5v-1.3h-2.5V1853.4z"/>
			<path class="st4" d="M-1504.3,1859.7h-2.5v-8.9h1.3v-1.3h5.1v1.3h1.3v8.9h-2.5v-3.8h-2.5V1859.7z M-1501.8,1853.4v-1.3h-2.5v1.3
				H-1501.8z"/>
			<path class="st4" d="M-1498,1849.6h7.6v2.5h-2.5v7.6h-2.5v-7.6h-2.5V1849.6z"/>
			<path class="st4" d="M-1487.9,1858.5h-1.3v-7.6h1.3v-1.3h6.3v2.5h-5.1v1.3h2.5v2.5h-2.5v1.3h5.1v2.5h-6.3V1858.5z"/>
		</g>
	</g>
	<g>
		<rect x="-1594.6" y="1843.9" class="st4" width="13.1" height="1.7"/>
		<rect x="-1579.7" y="1843.9" class="st4" width="1.7" height="1.7"/>
	</g>
</g>
<g>
	<rect x="-1174.8" y="1575.6" class="st4" width="23.6" height="3"/>
	<rect x="-1148.1" y="1575.6" class="st4" width="3" height="3"/>
</g>
<g>
	<rect x="-1495.2" y="1514.2" class="st4" width="23.6" height="3"/>
	<rect x="-1468.5" y="1514.2" class="st4" width="3" height="3"/>
</g>
<g>
	<polygon class="st22" points="-1525.3,1637.7 -1525.3,1630.2 -1544,1630.2 -1544,1637.7 -1551.4,1637.7 -1551.4,1645.1 
		-1551.4,1656.3 -1544,1656.3 -1544,1663.8 -1532.8,1663.8 -1525.3,1663.8 -1525.3,1656.3 -1517.9,1656.3 -1517.9,1645.1 
		-1517.9,1637.7 	"/>
	<line class="st23" x1="-1543.4" y1="1663.8" x2="-1543.4" y2="1673.7"/>
	<line class="st23" x1="-1525.9" y1="1663.8" x2="-1525.9" y2="1673.7"/>
	<polygon class="st24" points="-1526.9,1671.9 -1529.1,1671.9 -1542.4,1671.9 -1542.4,1674 -1544.6,1674 -1544.6,1689.6 
		-1542.4,1689.6 -1542.4,1691.7 -1529.1,1691.7 -1526.9,1691.7 -1526.9,1689.6 -1524.7,1689.6 -1524.7,1674 -1526.9,1674 	"/>
</g>
<polygon class="st25" points="-1458.2,2076.9 -1458.2,2069 -1466.2,2069 -1531.2,2069 -1599.9,2069 -1599.9,2076.9 -1607.9,2076.9 
	-1607.9,2122.5 -1599.9,2122.5 -1599.9,2130.4 -1531.2,2130.4 -1466.2,2130.4 -1458.2,2130.4 -1458.2,2122.5 -1450.3,2122.5 
	-1450.3,2076.9 "/>
<polygon class="st25" points="-1458.2,2077 -1458.2,2069.1 -1466.2,2069.1 -1531.2,2069.1 -1599.9,2069.1 -1599.9,2077 
	-1607.9,2077 -1607.9,2122.6 -1599.9,2122.6 -1599.9,2130.5 -1531.2,2130.5 -1466.2,2130.5 -1458.2,2130.5 -1458.2,2122.6 
	-1450.3,2122.6 -1450.3,2077 "/>
<g>
	<path class="st4" d="M-1561.7,2110.5h-5.4v-21.8h13.6v2.7h2.7v8.2h-2.7v2.7h-8.2V2110.5z M-1561.7,2096.8h5.4v-2.7h-5.4V2096.8z"/>
	<path class="st4" d="M-1545.4,2107.7h-2.7v-19h5.4v16.3h10.9v5.4h-13.6V2107.7z"/>
	<path class="st4" d="M-1523.6,2110.5h-5.4v-19h2.7v-2.7h10.9v2.7h2.7v19h-5.4v-8.2h-5.4V2110.5z M-1518.2,2096.8v-2.7h-5.4v2.7
		H-1518.2z"/>
	<path class="st4" d="M-1510,2088.7h5.4v8.2h5.4v-8.2h5.4v10.9h-2.7v2.7h-2.7v8.2h-5.4v-8.2h-2.7v-2.7h-2.7V2088.7z"/>
</g>
<polygon class="st25" points="-1288.2,2076.9 -1288.2,2069 -1296.2,2069 -1361.2,2069 -1429.9,2069 -1429.9,2076.9 -1437.9,2076.9 
	-1437.9,2122.5 -1429.9,2122.5 -1429.9,2130.4 -1361.2,2130.4 -1296.2,2130.4 -1288.2,2130.4 -1288.2,2122.5 -1280.3,2122.5 
	-1280.3,2076.9 "/>
<polygon class="st22" points="-1288.2,2069 -1288.2,2061.1 -1296.2,2061.1 -1361.2,2061.1 -1429.9,2061.1 -1429.9,2069 
	-1437.9,2069 -1437.9,2114.6 -1429.9,2114.6 -1429.9,2122.5 -1361.2,2122.5 -1296.2,2122.5 -1288.2,2122.5 -1288.2,2114.6 
	-1280.3,2114.6 -1280.3,2069 "/>
<g>
	<path class="st4" d="M-1391.7,2102.5h-5.4v-21.8h13.6v2.7h2.7v8.2h-2.7v2.7h-8.2V2102.5z M-1391.7,2088.8h5.4v-2.7h-5.4V2088.8z"/>
	<path class="st4" d="M-1375.4,2099.7h-2.7v-19h5.4v16.3h10.9v5.4h-13.6V2099.7z"/>
	<path class="st4" d="M-1353.6,2102.5h-5.4v-19h2.7v-2.7h10.9v2.7h2.7v19h-5.4v-8.2h-5.4V2102.5z M-1348.2,2088.8v-2.7h-5.4v2.7
		H-1348.2z"/>
	<path class="st4" d="M-1340,2080.7h5.4v8.2h5.4v-8.2h5.4v10.9h-2.7v2.7h-2.7v8.2h-5.4v-8.2h-2.7v-2.7h-2.7V2080.7z"/>
</g>
<g>
	<path class="st26" d="M-2281.8,1831.3h43.2v108h43.2v-108h43.2v129.6h-21.6v21.6h-21.6v21.6h-43.2v-21.6h-21.6v-21.6h-21.6V1831.3z
		"/>
	<path class="st27" d="M-2130.6,1855h21.6v-21.6h108v43.2h-86.4v21.6h64.8v21.6h21.6v64.8h-21.6v21.6h-108V1963h86.4v-21.6h-64.8
		v-21.6h-21.6V1855z"/>
</g>
<g>
	<path class="st28" d="M-2281.8,1810.2h43.2v108h43.2v-108h43.2v129.6h-21.6v21.6h-21.6v21.6h-43.2v-21.6h-21.6v-21.6h-21.6V1810.2z
		"/>
	<path class="st29" d="M-2130.6,1831.8h21.6v-21.6h108v43.2h-86.4v21.6h64.8v21.6h21.6v64.8h-21.6v21.6h-108v-43.2h86.4v-21.6h-64.8
		v-21.6h-21.6V1831.8z"/>
</g>
<g>
	<g>
		<path class="st0" d="M-2232.4,2188.9h27.5v68.7h27.5v-68.7h27.5v82.4h-13.7v13.7h-13.7v13.7h-27.5V2285h-13.7v-13.7h-13.7V2188.9z
			"/>
		<path class="st0" d="M-2136.3,2203.9h13.7v-13.7h68.7v27.5h-54.9v13.7h41.2v13.7h13.7v41.2h-13.7v13.7h-68.7v-27.5h54.9v-13.7
			h-41.2v-13.7h-13.7V2203.9z"/>
	</g>
	<g>
		<path class="st7" d="M-2232.4,2174.4h27.5v68.7h27.5v-68.7h27.5v82.4h-13.7v13.7h-13.7v13.7h-27.5v-13.7h-13.7v-13.7h-13.7V2174.4
			z"/>
		<path class="st7" d="M-2136.3,2189.4h13.7v-13.7h68.7v27.5h-54.9v13.7h41.2v13.7h13.7v41.2h-13.7v13.7h-68.7v-27.5h54.9v-13.7
			h-41.2v-13.7h-13.7V2189.4z"/>
	</g>
	<g>
		<path class="st4" d="M-2232.4,2161h27.5v68.7h27.5V2161h27.5v82.4h-13.7v13.7h-13.7v13.7h-27.5v-13.7h-13.7v-13.7h-13.7V2161z"/>
		<path class="st4" d="M-2136.3,2174.7h13.7V2161h68.7v27.5h-54.9v13.7h41.2v13.7h13.7v41.2h-13.7v13.7h-68.7v-27.5h54.9v-13.7
			h-41.2v-13.7h-13.7V2174.7z"/>
	</g>
</g>
<g>
	<g>
		<path class="st0" d="M-1658,1329.2h-21.6v-86.4h54v10.8h10.8v32.4h-10.8v10.8h-32.4V1329.2z M-1658,1275.2h21.6v-10.8h-21.6
			V1275.2z"/>
		<path class="st0" d="M-1604,1253.6h10.8v-10.8h43.2v10.8h10.8v64.8h-10.8v10.8h-43.2v-10.8h-10.8V1253.6z M-1582.4,1307.6h21.6
			v-43.2h-21.6V1307.6z"/>
		<path class="st0" d="M-1517.6,1318.4h-10.8v-75.6h21.6v64.8h43.2v21.6h-54V1318.4z"/>
		<path class="st0" d="M-1474.4,1242.8h21.6v32.4h21.6v-32.4h21.6v43.2h-10.8v10.8h-10.8v32.4h-21.6v-32.4h-10.8V1286h-10.8V1242.8z
			"/>
	</g>
	<g>
		<path class="st30" d="M-1658,1320.8h-21.6v-86.4h54v10.8h10.8v32.4h-10.8v10.8h-32.4V1320.8z M-1658,1266.8h21.6V1256h-21.6
			V1266.8z"/>
		<path class="st30" d="M-1604,1245.2h10.8v-10.8h43.2v10.8h10.8v64.8h-10.8v10.8h-43.2V1310h-10.8V1245.2z M-1582.4,1299.2h21.6
			V1256h-21.6V1299.2z"/>
		<path class="st30" d="M-1517.6,1310h-10.8v-75.6h21.6v64.8h43.2v21.6h-54V1310z"/>
		<path class="st30" d="M-1474.4,1234.4h21.6v32.4h21.6v-32.4h21.6v43.2h-10.8v10.8h-10.8v32.4h-21.6v-32.4h-10.8v-10.8h-10.8
			V1234.4z"/>
	</g>
	<g>
		<path class="st4" d="M-1658,1312.6h-21.6v-86.4h54v10.8h10.8v32.4h-10.8v10.8h-32.4V1312.6z M-1658,1258.6h21.6v-10.8h-21.6
			V1258.6z"/>
		<path class="st4" d="M-1604,1237h10.8v-10.8h43.2v10.8h10.8v64.8h-10.8v10.8h-43.2v-10.8h-10.8V1237z M-1582.4,1291h21.6v-43.2
			h-21.6V1291z"/>
		<path class="st4" d="M-1517.6,1301.8h-10.8v-75.6h21.6v64.8h43.2v21.6h-54V1301.8z"/>
		<path class="st4" d="M-1474.4,1226.2h21.6v32.4h21.6v-32.4h21.6v43.2h-10.8v10.8h-10.8v32.4h-21.6v-32.4h-10.8v-10.8h-10.8V1226.2
			z"/>
	</g>
</g>
<image style="overflow:visible;" width="843" height="1118" xlink:href="ED5D355621AE700B.jpg"  transform="matrix(0.24 0 0 0.24 -1889.1207 1376.371)">
</image>
<g>
	<g class="st1">
		<g>
			<polygon class="st0" points="-1331.2,1012.7 -1331.2,1099.2 -1230,1099.2 -1230,1087.6 -1242.6,1087.6 -1242.6,1074.9 
				-1255.3,1074.9 -1255.3,1062.3 -1267.9,1062.3 -1267.9,1049.6 -1255.3,1049.6 -1255.3,1037 -1242.6,1037 -1242.6,1024.3 
				-1230,1024.3 -1230,1012.7 			"/>
		</g>
		<polygon class="st0" points="-1316.4,1073.9 -1331.2,1098.1 -1331.1,1073.9 		"/>
	</g>
	<rect x="-1819.4" y="989.8" class="st0" width="510.3" height="86.5"/>
	<rect x="-1342.8" y="1067.8" class="st0" width="112.8" height="31.6"/>
	<g class="st1">
		<g>
			<polygon class="st0" points="-1811.5,1012.9 -1811.5,1099.3 -1912.7,1099.3 -1912.7,1087.7 -1900.1,1087.7 -1900.1,1075.1 
				-1887.4,1075.1 -1887.4,1062.4 -1874.8,1062.4 -1874.8,1049.8 -1887.4,1049.8 -1887.4,1037.1 -1900.1,1037.1 -1900.1,1024.5 
				-1912.7,1024.5 -1912.7,1012.9 			"/>
		</g>
		<polygon class="st0" points="-1826.3,1074 -1811.5,1098.3 -1811.6,1074 		"/>
	</g>
	<g>
		<g>
			<polygon class="st2" points="-1331.2,1002.4 -1331.2,1088.9 -1230,1088.9 -1230,1077.3 -1242.6,1077.3 -1242.6,1064.6 
				-1255.3,1064.6 -1255.3,1052 -1267.9,1052 -1267.9,1039.3 -1255.3,1039.3 -1255.3,1026.7 -1242.6,1026.7 -1242.6,1014 
				-1230,1014 -1230,1002.4 			"/>
			<polygon class="st3" points="-1331.2,990.8 -1331.2,1077.3 -1230,1077.3 -1230,1065.7 -1242.6,1065.7 -1242.6,1053 -1255.3,1053 
				-1255.3,1040.4 -1267.9,1040.4 -1267.9,1027.7 -1255.3,1027.7 -1255.3,1015.1 -1242.6,1015.1 -1242.6,1002.4 -1230,1002.4 
				-1230,990.8 			"/>
		</g>
		<polygon class="st2" points="-1316.4,1063.6 -1331.2,1087.8 -1331.1,1063.6 		"/>
		<g>
			<g>
				<polygon class="st2" points="-1812,1002.4 -1812,1088.9 -1913.2,1088.9 -1913.2,1077.3 -1900.6,1077.3 -1900.6,1064.6 
					-1887.9,1064.6 -1887.9,1052 -1875.3,1052 -1875.3,1039.3 -1887.9,1039.3 -1887.9,1026.7 -1900.6,1026.7 -1900.6,1014 
					-1913.2,1014 -1913.2,1002.4 				"/>
				<polygon class="st3" points="-1812,990.8 -1812,1077.3 -1913.2,1077.3 -1913.2,1065.7 -1900.6,1065.7 -1900.6,1053 
					-1887.9,1053 -1887.9,1040.4 -1875.3,1040.4 -1875.3,1027.7 -1887.9,1027.7 -1887.9,1015.1 -1900.6,1015.1 -1900.6,1002.4 
					-1913.2,1002.4 -1913.2,990.8 				"/>
			</g>
			<polygon class="st2" points="-1826.8,1063.6 -1812,1087.8 -1812.1,1063.6 			"/>
		</g>
		<g>
			<rect x="-1826.8" y="977.1" class="st2" width="510.3" height="86.5"/>
			<rect x="-1826.8" y="964.5" class="st3" width="510.3" height="86.5"/>
		</g>
	</g>
</g>
<g>
	<g>
		<path class="st25" d="M-1712.6,1039.4h-37.4v-59.9h37.4v7.5h7.5v15h-7.5v15h7.5v15h-7.5V1039.4z M-1735.1,1002h15v-7.5h-15V1002z
			 M-1735.1,1024.5h15v-7.5h-15V1024.5z"/>
		<path class="st25" d="M-1682.7,1039.4h-15V987h7.5v-7.5h30v7.5h7.5v52.4h-15V1017h-15V1039.4z M-1667.7,1002v-7.5h-15v7.5H-1667.7
			z"/>
		<path class="st25" d="M-1637.7,1031.9h-7.5v-52.4h15v44.9h30v15h-37.4V1031.9z"/>
		<path class="st25" d="M-1585.3,1031.9h-7.5v-52.4h15v44.9h30v15h-37.4V1031.9z"/>
		<path class="st25" d="M-1540.4,987h7.5v-7.5h30v7.5h7.5v44.9h-7.5v7.5h-30v-7.5h-7.5V987z M-1525.4,1024.5h15v-30h-15V1024.5z"/>
		<path class="st25" d="M-1487.9,987h7.5v-7.5h30v7.5h7.5v44.9h-7.5v7.5h-30v-7.5h-7.5V987z M-1473,1024.5h15v-30h-15V1024.5z"/>
		<path class="st25" d="M-1413,1009.5h-7.5v30h-15v-59.9h15v7.5h7.5v7.5h7.5v-15h15v59.9h-15V1017h-7.5V1009.5z"/>
	</g>
	<g>
		<path class="st22" d="M-1712.6,1033.6h-37.4v-59.9h37.4v7.5h7.5v15h-7.5v15h7.5v15h-7.5V1033.6z M-1735.1,996.2h15v-7.5h-15V996.2
			z M-1735.1,1018.6h15v-7.5h-15V1018.6z"/>
		<path class="st22" d="M-1682.7,1033.6h-15v-52.4h7.5v-7.5h30v7.5h7.5v52.4h-15v-22.5h-15V1033.6z M-1667.7,996.2v-7.5h-15v7.5
			H-1667.7z"/>
		<path class="st22" d="M-1637.7,1026.1h-7.5v-52.4h15v44.9h30v15h-37.4V1026.1z"/>
		<path class="st22" d="M-1585.3,1026.1h-7.5v-52.4h15v44.9h30v15h-37.4V1026.1z"/>
		<path class="st22" d="M-1540.4,981.2h7.5v-7.5h30v7.5h7.5v44.9h-7.5v7.5h-30v-7.5h-7.5V981.2z M-1525.4,1018.6h15v-30h-15V1018.6z
			"/>
		<path class="st22" d="M-1487.9,981.2h7.5v-7.5h30v7.5h7.5v44.9h-7.5v7.5h-30v-7.5h-7.5V981.2z M-1473,1018.6h15v-30h-15V1018.6z"
			/>
		<path class="st22" d="M-1413,1003.7h-7.5v30h-15v-59.9h15v7.5h7.5v7.5h7.5v-15h15v59.9h-15v-22.5h-7.5V1003.7z"/>
	</g>
</g>
<g>
	<path class="st0" d="M-1221,1186.2h20.7v6.9h-20.7V1186.2z"/>
	<path class="st0" d="M-1165.7,1203.4h-6.9v-27.6h17.3v3.5h3.5v10.4h-3.5v3.5h-10.4V1203.4z M-1165.7,1186.2h6.9v-3.5h-6.9V1186.2z"
		/>
	<path class="st0" d="M-1138,1193.1h-3.5v10.4h-6.9v-27.6h17.3v3.5h3.5v10.4h-3.5v3.5h3.5v10.4h-6.9v-6.9h-3.5V1193.1z
		 M-1141.5,1186.2h6.9v-3.5h-6.9V1186.2z"/>
	<path class="st0" d="M-1120.8,1200h-3.5v-20.7h3.5v-3.5h17.3v6.9h-13.8v3.5h6.9v6.9h-6.9v3.5h13.8v6.9h-17.3V1200z"/>
	<path class="st0" d="M-1100,1179.3h3.5v-3.5h17.3v6.9h-13.8v3.5h10.4v3.5h3.5v10.4h-3.5v3.5h-17.3v-6.9h13.8v-3.5h-10.4v-3.5h-3.5
		V1179.3z"/>
	<path class="st0" d="M-1075.8,1179.3h3.5v-3.5h17.3v6.9h-13.8v3.5h10.4v3.5h3.5v10.4h-3.5v3.5h-17.3v-6.9h13.8v-3.5h-10.4v-3.5
		h-3.5V1179.3z"/>
	<path class="st0" d="M-1020.5,1203.4h-6.9v-24.2h3.5v-3.5h13.8v3.5h3.5v24.2h-6.9v-10.4h-6.9V1203.4z M-1013.6,1186.2v-3.5h-6.9
		v3.5H-1013.6z"/>
	<path class="st0" d="M-992.9,1189.6h-3.5v13.8h-6.9v-27.6h6.9v3.5h3.5v3.5h3.5v-6.9h6.9v27.6h-6.9v-10.4h-3.5V1189.6z"/>
	<path class="st0" d="M-979.1,1175.8h6.9v10.4h6.9v-10.4h6.9v13.8h-3.5v3.5h-3.5v10.4h-6.9v-10.4h-3.5v-3.5h-3.5V1175.8z"/>
	<path class="st0" d="M-923.8,1203.4h-6.9v-27.6h6.9v6.9h3.5v-3.5h3.5v-3.5h6.9v6.9h-3.5v3.5h-3.5v6.9h3.5v3.5h3.5v6.9h-6.9v-3.5
		h-3.5v-3.5h-3.5V1203.4z"/>
	<path class="st0" d="M-903,1200h-3.5v-20.7h3.5v-3.5h17.3v6.9h-13.8v3.5h6.9v6.9h-6.9v3.5h13.8v6.9H-903V1200z"/>
	<path class="st0" d="M-882.3,1175.8h6.9v10.4h6.9v-10.4h6.9v13.8h-3.5v3.5h-3.5v10.4h-6.9v-10.4h-3.5v-3.5h-3.5V1175.8z"/>
	<path class="st0" d="M-833.9,1175.8h20.7v6.9h-6.9v20.7h-6.9v-20.7h-6.9V1175.8z"/>
	<path class="st0" d="M-809.7,1179.3h3.5v-3.5h13.8v3.5h3.5v20.7h-3.5v3.5h-13.8v-3.5h-3.5V1179.3z M-802.8,1196.5h6.9v-13.8h-6.9
		V1196.5z"/>
	<path class="st0" d="M-754.4,1203.4h-6.9v-27.6h17.3v3.5h3.5v10.4h-3.5v3.5h-10.4V1203.4z M-754.4,1186.2h6.9v-3.5h-6.9V1186.2z"/>
	<path class="st0" d="M-733.7,1200h-3.5v-24.2h6.9v20.7h13.8v6.9h-17.3V1200z"/>
	<path class="st0" d="M-706.1,1203.4h-6.9v-24.2h3.5v-3.5h13.8v3.5h3.5v24.2h-6.9v-10.4h-6.9V1203.4z M-699.1,1186.2v-3.5h-6.9v3.5
		H-699.1z"/>
	<path class="st0" d="M-688.8,1175.8h6.9v10.4h6.9v-10.4h6.9v13.8h-3.5v3.5h-3.5v10.4h-6.9v-10.4h-3.5v-3.5h-3.5V1175.8z"/>
	<path class="st0" d="M-640.4,1186.2h20.7v6.9h-20.7V1186.2z"/>
</g>
<g>
	<path class="st30" d="M-1221.9,1180.3h20.7v6.9h-20.7V1180.3z"/>
	<path class="st30" d="M-1166.6,1197.5h-6.9v-27.6h17.3v3.5h3.5v10.4h-3.5v3.5h-10.4V1197.5z M-1166.6,1180.3h6.9v-3.5h-6.9V1180.3z
		"/>
	<path class="st30" d="M-1138.9,1187.2h-3.5v10.4h-6.9v-27.6h17.3v3.5h3.5v10.4h-3.5v3.5h3.5v10.4h-6.9v-6.9h-3.5V1187.2z
		 M-1142.4,1180.3h6.9v-3.5h-6.9V1180.3z"/>
	<path class="st30" d="M-1121.6,1194.1h-3.5v-20.7h3.5v-3.5h17.3v6.9h-13.8v3.5h6.9v6.9h-6.9v3.5h13.8v6.9h-17.3V1194.1z"/>
	<path class="st30" d="M-1100.9,1173.4h3.5v-3.5h17.3v6.9h-13.8v3.5h10.4v3.5h3.5v10.4h-3.5v3.5h-17.3v-6.9h13.8v-3.5h-10.4v-3.5
		h-3.5V1173.4z"/>
	<path class="st30" d="M-1076.7,1173.4h3.5v-3.5h17.3v6.9h-13.8v3.5h10.4v3.5h3.5v10.4h-3.5v3.5h-17.3v-6.9h13.8v-3.5h-10.4v-3.5
		h-3.5V1173.4z"/>
	<path class="st30" d="M-1021.4,1197.5h-6.9v-24.2h3.5v-3.5h13.8v3.5h3.5v24.2h-6.9v-10.4h-6.9V1197.5z M-1014.5,1180.3v-3.5h-6.9
		v3.5H-1014.5z"/>
	<path class="st30" d="M-993.8,1183.7h-3.5v13.8h-6.9v-27.6h6.9v3.5h3.5v3.5h3.5v-6.9h6.9v27.6h-6.9v-10.4h-3.5V1183.7z"/>
	<path class="st30" d="M-979.9,1169.9h6.9v10.4h6.9v-10.4h6.9v13.8h-3.5v3.5h-3.5v10.4h-6.9v-10.4h-3.5v-3.5h-3.5V1169.9z"/>
	<path class="st30" d="M-924.6,1197.5h-6.9v-27.6h6.9v6.9h3.5v-3.5h3.5v-3.5h6.9v6.9h-3.5v3.5h-3.5v6.9h3.5v3.5h3.5v6.9h-6.9v-3.5
		h-3.5v-3.5h-3.5V1197.5z"/>
	<path class="st30" d="M-903.9,1194.1h-3.5v-20.7h3.5v-3.5h17.3v6.9h-13.8v3.5h6.9v6.9h-6.9v3.5h13.8v6.9h-17.3V1194.1z"/>
	<path class="st30" d="M-883.2,1169.9h6.9v10.4h6.9v-10.4h6.9v13.8h-3.5v3.5h-3.5v10.4h-6.9v-10.4h-3.5v-3.5h-3.5V1169.9z"/>
	<path class="st30" d="M-834.8,1169.9h20.7v6.9h-6.9v20.7h-6.9v-20.7h-6.9V1169.9z"/>
	<path class="st30" d="M-810.6,1173.4h3.5v-3.5h13.8v3.5h3.5v20.7h-3.5v3.5h-13.8v-3.5h-3.5V1173.4z M-803.7,1190.6h6.9v-13.8h-6.9
		V1190.6z"/>
	<path class="st30" d="M-755.3,1197.5h-6.9v-27.6h17.3v3.5h3.5v10.4h-3.5v3.5h-10.4V1197.5z M-755.3,1180.3h6.9v-3.5h-6.9V1180.3z"
		/>
	<path class="st30" d="M-734.6,1194.1h-3.5v-24.2h6.9v20.7h13.8v6.9h-17.3V1194.1z"/>
	<path class="st30" d="M-706.9,1197.5h-6.9v-24.2h3.5v-3.5h13.8v3.5h3.5v24.2h-6.9v-10.4h-6.9V1197.5z M-700,1180.3v-3.5h-6.9v3.5
		H-700z"/>
	<path class="st30" d="M-689.6,1169.9h6.9v10.4h6.9v-10.4h6.9v13.8h-3.5v3.5h-3.5v10.4h-6.9v-10.4h-3.5v-3.5h-3.5V1169.9z"/>
	<path class="st30" d="M-641.3,1180.3h20.7v6.9h-20.7V1180.3z"/>
</g>
<g>
	<path class="st4" d="M-1221.9,1175.9h20.7v6.9h-20.7V1175.9z"/>
	<path class="st4" d="M-1166.6,1193.1h-6.9v-27.6h17.3v3.5h3.5v10.4h-3.5v3.5h-10.4V1193.1z M-1166.6,1175.9h6.9v-3.5h-6.9V1175.9z"
		/>
	<path class="st4" d="M-1138.9,1182.8h-3.5v10.4h-6.9v-27.6h17.3v3.5h3.5v10.4h-3.5v3.5h3.5v10.4h-6.9v-6.9h-3.5V1182.8z
		 M-1142.4,1175.9h6.9v-3.5h-6.9V1175.9z"/>
	<path class="st4" d="M-1121.6,1189.7h-3.5v-20.7h3.5v-3.5h17.3v6.9h-13.8v3.5h6.9v6.9h-6.9v3.5h13.8v6.9h-17.3V1189.7z"/>
	<path class="st4" d="M-1100.9,1168.9h3.5v-3.5h17.3v6.9h-13.8v3.5h10.4v3.5h3.5v10.4h-3.5v3.5h-17.3v-6.9h13.8v-3.5h-10.4v-3.5
		h-3.5V1168.9z"/>
	<path class="st4" d="M-1076.7,1168.9h3.5v-3.5h17.3v6.9h-13.8v3.5h10.4v3.5h3.5v10.4h-3.5v3.5h-17.3v-6.9h13.8v-3.5h-10.4v-3.5
		h-3.5V1168.9z"/>
	<path class="st4" d="M-1021.4,1193.1h-6.9v-24.2h3.5v-3.5h13.8v3.5h3.5v24.2h-6.9v-10.4h-6.9V1193.1z M-1014.5,1175.9v-3.5h-6.9
		v3.5H-1014.5z"/>
	<path class="st4" d="M-993.8,1179.3h-3.5v13.8h-6.9v-27.6h6.9v3.5h3.5v3.5h3.5v-6.9h6.9v27.6h-6.9v-10.4h-3.5V1179.3z"/>
	<path class="st4" d="M-979.9,1165.5h6.9v10.4h6.9v-10.4h6.9v13.8h-3.5v3.5h-3.5v10.4h-6.9v-10.4h-3.5v-3.5h-3.5V1165.5z"/>
	<path class="st4" d="M-924.6,1193.1h-6.9v-27.6h6.9v6.9h3.5v-3.5h3.5v-3.5h6.9v6.9h-3.5v3.5h-3.5v6.9h3.5v3.5h3.5v6.9h-6.9v-3.5
		h-3.5v-3.5h-3.5V1193.1z"/>
	<path class="st4" d="M-903.9,1189.7h-3.5v-20.7h3.5v-3.5h17.3v6.9h-13.8v3.5h6.9v6.9h-6.9v3.5h13.8v6.9h-17.3V1189.7z"/>
	<path class="st4" d="M-883.2,1165.5h6.9v10.4h6.9v-10.4h6.9v13.8h-3.5v3.5h-3.5v10.4h-6.9v-10.4h-3.5v-3.5h-3.5V1165.5z"/>
	<path class="st4" d="M-834.8,1165.5h20.7v6.9h-6.9v20.7h-6.9v-20.7h-6.9V1165.5z"/>
	<path class="st4" d="M-810.6,1168.9h3.5v-3.5h13.8v3.5h3.5v20.7h-3.5v3.5h-13.8v-3.5h-3.5V1168.9z M-803.7,1186.2h6.9v-13.8h-6.9
		V1186.2z"/>
	<path class="st4" d="M-755.3,1193.1h-6.9v-27.6h17.3v3.5h3.5v10.4h-3.5v3.5h-10.4V1193.1z M-755.3,1175.9h6.9v-3.5h-6.9V1175.9z"/>
	<path class="st4" d="M-734.6,1189.7h-3.5v-24.2h6.9v20.7h13.8v6.9h-17.3V1189.7z"/>
	<path class="st4" d="M-706.9,1193.1h-6.9v-24.2h3.5v-3.5h13.8v3.5h3.5v24.2h-6.9v-10.4h-6.9V1193.1z M-700,1175.9v-3.5h-6.9v3.5
		H-700z"/>
	<path class="st4" d="M-689.6,1165.5h6.9v10.4h6.9v-10.4h6.9v13.8h-3.5v3.5h-3.5v10.4h-6.9v-10.4h-3.5v-3.5h-3.5V1165.5z"/>
	<path class="st4" d="M-641.3,1175.9h20.7v6.9h-20.7V1175.9z"/>
</g>
<path class="st31" d="M1528.9,465h-2.2H1516h-38.7h-12.9H-62.1H-75h-38.7h-12.9h-12.9v22.6v840.8v11.3v33.9v11.3v11.3h25.8h1578.2
	h12.9h38.7h10.8h2.2h12.9V465H1528.9z M1475.3,1371.5H-77h-12.9v-11.3h-12.9v-11.3h-12.9v-11.3V519.5v-11.3h12.9v-11.3h12.9v-11.3
	H-77h1552.4h12.9v11.3h12.9v11.3h12.9v11.3v818.2v11.3h-12.9v11.3h-12.9v11.3H1475.3z"/>
<path class="st32" d="M1540,473.7h-2.2h-10.8h-38.7h-12.9H-51.1H-64h-38.7h-12.9h-12.9v22.6v840.8v11.3v33.9v11.3v11.3h25.8h1578.2
	h12.9h38.7h10.8h2.2h12.9V473.7H1540z M1527.1,530.2v818.2v11.3h-12.9v11.3h-12.9v11.3h-12.9H-64h-12.9V1371h-12.9v-11.3h-12.9
	v-11.3V530.2v-11.3h12.9v-11.3h12.9v-11.3H-64h204.3h135.5h1212.7h12.9v11.3h12.9v11.3h12.9V530.2z"/>
<polygon class="st31" points="318.4,119.1 318.4,109 307.1,109 -103.6,109 -103.6,205 306.3,205 306.3,195 307.1,195 318.4,195 
	318.4,187 318.4,185 329.8,185 329.8,177 329.8,119.1 "/>
<polygon class="st32" points="317.9,109.1 317.9,99 306.5,99 -116.2,99 -116.2,107 -116.2,109.1 -127.6,109.1 -127.6,167 
	-116.3,167 -116.3,175 -116.2,175 -116.2,185 -104.1,185 -104.1,195 305.7,195 305.7,185 306.5,185 317.9,185 317.9,177 317.9,175 
	329.2,175 329.2,167 329.2,109.1 "/>
<rect x="-101.5" y="138" class="st13" width="92.2" height="32.8"/>
<text transform="matrix(1 0 0 1 -80.3812 156.2106)" class="st4" style="font-family:'EditUndoBRK'; font-size:31.5429px;">DMG</text>
<g>
	<g>
		<polygon class="st22" points="10.3,358.2 265,358.2 265,340.2 10.3,340.2 10.3,340.3 10.3,345.4 3.4,345.4 3.4,353.1 10.3,353.1 
			10.3,358.2 		"/>
	</g>
	<polygon class="st22" points="273.7,345.4 273.7,340.3 273.7,340.2 218,340.2 218,358.2 273.7,358.2 273.7,358.1 273.7,353 
		280.6,353 280.6,345.4 	"/>
</g>
<g class="st33">
	<polygon class="st34" points="653.9,571.3 653.9,493.3 564,493.3 564,503.4 553.9,503.4 553.9,561.3 564,561.3 564,571.3 	"/>
	<polygon class="st34" points="888.9,502.4 888.9,492.3 878.9,492.3 796.9,492.3 796.9,570.3 878.9,570.3 888.9,570.3 888.9,560.3 
		899,560.3 899,502.4 	"/>
	<rect x="573.9" y="502.3" class="st34" width="305" height="78"/>
</g>
<g>
	<polygon class="st32" points="663.9,571.3 663.9,493.3 574,493.3 574,503.4 563.9,503.4 563.9,561.3 574,561.3 574,571.3 	"/>
	<polygon class="st32" points="653.9,561.3 653.9,483.3 564,483.3 564,493.4 553.9,493.4 553.9,551.3 564,551.3 564,561.3 	"/>
	<polygon class="st32" points="878.9,503.4 878.9,493.3 868.9,493.3 786.9,493.3 786.9,571.3 868.9,571.3 878.9,571.3 878.9,561.3 
		889,561.3 889,503.4 	"/>
	<polygon class="st32" points="888.9,493.4 888.9,483.3 878.9,483.3 796.9,483.3 796.9,561.3 878.9,561.3 888.9,561.3 888.9,551.3 
		899,551.3 899,493.4 	"/>
	<rect x="663.9" y="493.3" class="st32" width="123" height="78"/>
</g>
<g>
	<polygon class="st35" points="663.9,561.3 663.9,483.3 574,483.3 574,493.4 563.9,493.4 563.9,551.3 574,551.3 574,561.3 	"/>
	<polygon class="st35" points="878.9,493.4 878.9,483.3 868.9,483.3 800.9,483.3 800.9,561.3 868.9,561.3 878.9,561.3 878.9,551.3 
		889,551.3 889,493.4 	"/>
</g>
<rect x="648.9" y="483.3" class="st35" width="169" height="78"/>
<g>
	<rect x="643.9" y="515.6" class="st13" width="179" height="81.8"/>
	<text transform="matrix(1 0 0 1 666.0095 543.2252)" class="st4" style="font-family:'EditUndoBRK'; font-size:48px;">124 KM</text>
</g>
<g>
	<rect x="1529.5" y="493.3" class="st31" width="8" height="2"/>
	<polygon class="st31" points="1448.5,493.3 1448.5,503.4 1438.5,503.4 1438.5,561.3 1448.4,561.3 1448.4,571.3 1448.5,571.3 
		1448.5,571.3 1458.4,571.3 1458.4,581.3 1513.5,581.3 1513.5,493.3 	"/>
</g>
<polygon class="st32" points="1538.5,493.3 1538.5,483.3 1448.6,483.3 1448.6,493.4 1438.5,493.4 1438.5,551.3 1448.5,551.3 
	1448.5,561.3 1448.6,561.3 1448.6,561.3 1458.6,561.3 1458.6,571.3 1548.5,571.3 1548.5,493.3 "/>
<g>
	<g>
		<g>
			<polygon class="st2" points="1508.6,504.9 1503.2,504.9 1470.8,504.9 1470.8,510.2 1465.4,510.2 1465.4,548 1470.8,548 
				1470.8,553.3 1503.2,553.3 1508.6,553.3 1508.6,548 1513.9,548 1513.9,510.2 1508.6,510.2 			"/>
			<polygon class="st3" points="1508.8,499.1 1503.5,499.1 1470.8,499.1 1470.8,504.5 1465.4,504.5 1465.4,542.6 1470.8,542.6 
				1470.8,547.9 1503.5,547.9 1508.8,547.9 1508.8,542.6 1514.2,542.6 1514.2,504.5 1508.8,504.5 			"/>
		</g>
		<g>
			<rect x="1478.3" y="528.2" class="st4" width="24.2" height="4.8"/>
			<rect x="1478.3" y="517" class="st4" width="24.2" height="4.8"/>
		</g>
	</g>
	<g class="st33">
		<polygon class="st36" points="1470.8,553.5 1470.8,558.5 1476.2,558.5 1508.8,558.5 1508.8,553.5 1476.2,553.5 		"/>
		<rect x="1465.4" y="548.1" class="st36" width="5.4" height="5"/>
		<rect x="1508.8" y="548.1" class="st36" width="5.4" height="5"/>
	</g>
</g>
<g>
	<polygon class="st22" points="20.2,242.1 14,242.1 14,236.9 0,236.9 0,242.1 -6.7,242.1 -6.7,249.7 0,249.7 0,254.9 0.3,254.9 
		6.2,254.9 7.3,254.9 13.2,254.9 14,254.9 14,249.8 20.2,249.8 	"/>
	<polygon class="st22" points="33.7,242.1 27.4,242.1 27.4,236.9 13.4,236.9 13.4,242.1 6.8,242.1 6.8,249.7 13.4,249.7 13.4,254.9 
		13.8,254.9 19.7,254.9 20.8,254.9 26.7,254.9 27.4,254.9 27.4,249.8 33.7,249.8 	"/>
	<polygon class="st22" points="47.2,242.1 40.9,242.1 40.9,236.9 26.9,236.9 26.9,242.1 20.2,242.1 20.2,249.7 26.9,249.7 
		26.9,254.9 27.3,254.9 33.1,254.9 34.3,254.9 40.2,254.9 40.9,254.9 40.9,249.8 47.2,249.8 	"/>
	<polygon class="st22" points="60.7,242.1 54.4,242.1 54.4,236.9 40.4,236.9 40.4,242.1 33.7,242.1 33.7,249.7 40.4,249.7 
		40.4,254.9 40.7,254.9 46.6,254.9 47.8,254.9 53.7,254.9 54.4,254.9 54.4,249.8 60.7,249.8 	"/>
</g>
<polygon class="st37" points="276.4,5.3 276.4,0 263,0 262.4,0 249.5,0 249,0 236,0 235.5,0 222.8,0 222,0 209.4,0 208.8,0 195.9,0 
	195.4,0 182.4,0 181.9,0 168.9,0 168.4,0 155.5,0 154.9,0 142,0 141.5,0 128.5,0 128,0 115,0 114.5,0 101.5,0 101,0 88.1,0 87.5,0 
	74.6,0 74.1,0 61.1,0 60.6,0 47.6,0 47.1,0 34.2,0 33.6,0 20.7,0 20.2,0 6.7,0 6.7,5.2 0,5.2 0,12.9 6.7,12.9 6.7,18.1 7,18.1 
	12.9,18.1 14.1,18.1 19.9,18.1 20.2,18.1 20.5,18.1 20.7,18.1 26.4,18.1 27.5,18.1 33.4,18.1 33.6,18.1 34,18.1 34.2,18.1 
	39.9,18.1 41,18.1 46.9,18.1 47.1,18.1 47.5,18.1 47.6,18.1 53.3,18.1 54.5,18.1 60.4,18.1 60.6,18.1 60.9,18.1 61.1,18.1 
	66.8,18.1 68,18.1 73.8,18.1 74.1,18.1 74.4,18.1 74.6,18.1 80.3,18.1 81.4,18.1 87.3,18.1 87.5,18.1 87.9,18.1 88.1,18.1 
	93.8,18.1 94.9,18.1 100.8,18.1 101,18.1 101.4,18.1 101.5,18.1 107.2,18.1 108.4,18.1 114.3,18.1 114.5,18.1 114.8,18.1 115,18.1 
	120.7,18.1 121.9,18.1 127.8,18.1 128,18.1 128.3,18.1 128.5,18.1 134.2,18.1 135.4,18.1 141.2,18.1 141.5,18.1 141.8,18.1 
	142,18.1 147.7,18.1 148.8,18.1 154.7,18.1 154.9,18.1 155.3,18.1 155.5,18.1 161.2,18.1 162.3,18.1 168.2,18.1 168.4,18.1 
	168.8,18.1 168.9,18.1 174.6,18.1 175.8,18.1 181.7,18.1 181.9,18.1 182.2,18.1 182.4,18.1 188.1,18.1 189.3,18.1 195.2,18.1 
	195.4,18.1 195.7,18.1 195.9,18.1 201.6,18.1 202.7,18.1 208.6,18.1 208.8,18.1 209.2,18.1 209.4,18.1 215.1,18.1 216.2,18.1 
	222,18.1 222.1,18.1 222.3,18.1 222.8,18.1 228.2,18.1 229.4,18.1 235.3,18.1 235.5,18.1 235.8,18.1 236,18.1 241.7,18.1 
	242.9,18.1 248.7,18.1 249,18.1 249.3,18.1 249.5,18.1 255.2,18.1 256.3,18.1 262.2,18.1 262.4,18.1 262.8,18.1 263,18.1 
	268.7,18.1 269.8,18.1 275.7,18.1 276.4,18.1 276.4,12.9 282.7,12.9 282.7,5.3 "/>
</svg>
