<?xml version="1.0" encoding="utf-8"?>
<!-- Generator: Adobe Illustrator 22.0.1, SVG Export Plug-In . SVG Version: 6.00 Build 0)  -->
<svg version="1.1" id="Layer_1" xmlns="http://www.w3.org/2000/svg" xmlns:xlink="http://www.w3.org/1999/xlink" x="0px" y="0px"
	 width="67.4px" height="18.1px" viewBox="0 0 67.4 18.1" style="enable-background:new 0 0 67.4 18.1;" xml:space="preserve">
<style type="text/css">
	.st0{fill:#5895B7;}
	.st1{opacity:0.8;}
	.st2{fill:#C17620;}
	.st3{fill:#F4C24A;}
	.st4{fill:#FFFFFF;}
	.st5{fill:#2A6FBA;}
	.st6{fill:#4ABAEF;}
	.st7{fill:#95C9C8;}
	.st8{fill:#DDEFEE;}
	.st9{fill:#1B8E6F;}
	.st10{fill:#3CEA8A;}
	.st11{opacity:0.4;fill:#666666;}
	.st12{fill:#33BC6E;}
	.st13{fill:none;}
	.st14{fill:#7149A4;}
	.st15{fill:#BD86E0;}
	.st16{opacity:0.4;fill:#666666;stroke:#666666;stroke-width:4;stroke-linejoin:bevel;stroke-miterlimit:10;}
	.st17{fill:#F2F2F2;}
	.st18{fill:#E6E6E6;}
	.st19{fill:none;stroke:#000000;stroke-width:4;stroke-linejoin:bevel;stroke-miterlimit:10;}
	.st20{fill:#C6E0DE;}
	.st21{fill:#A7C6C3;}
	.st22{fill:#EE3D53;}
	.st23{fill:none;stroke:#000000;stroke-width:2;stroke-miterlimit:10;}
	.st24{fill:#A17559;}
	.st25{fill:#910E46;}
	.st26{fill:#238D6F;}
	.st27{fill:#704CA2;}
	.st28{fill:#47E88D;}
	.st29{fill:#BC88DE;}
	.st30{fill:#CCCCCC;}
	.st31{opacity:0.38;fill:#2D3D3E;}
	.st32{fill:#5B2616;}
	.st33{opacity:0.38;}
	.st34{fill:#2D3D3E;}
	.st35{fill:#3F180F;}
	.st36{fill:#1A1A1A;}
	.st37{fill:#38140C;}
</style>
<g>
	<rect x="-1069.9" y="2068.2" class="st0" width="484" height="82"/>
	<rect x="-617.9" y="2142.2" class="st0" width="107" height="30"/>
	<g class="st1">
		<g>
			<polygon class="st0" points="-1053.9,2088.2 -1053.9,2170.2 -1149.9,2170.2 -1149.9,2159.2 -1137.9,2159.2 -1137.9,2147.2 
				-1125.9,2147.2 -1125.9,2135.2 -1113.9,2135.2 -1113.9,2123.2 -1125.9,2123.2 -1125.9,2111.2 -1137.9,2111.2 -1137.9,2099.2 
				-1149.9,2099.2 -1149.9,2088.2 			"/>
		</g>
		<polygon class="st0" points="-1067.9,2146.2 -1053.9,2169.2 -1054,2146.2 		"/>
	</g>
	<g>
		<g>
			<polygon class="st2" points="-606.9,2080.2 -606.9,2162.2 -510.9,2162.2 -510.9,2151.2 -522.9,2151.2 -522.9,2139.2 
				-534.9,2139.2 -534.9,2127.2 -546.9,2127.2 -546.9,2115.2 -534.9,2115.2 -534.9,2103.2 -522.9,2103.2 -522.9,2091.2 
				-510.9,2091.2 -510.9,2080.2 			"/>
			<polygon class="st3" points="-606.9,2069.2 -606.9,2151.2 -510.9,2151.2 -510.9,2140.2 -522.9,2140.2 -522.9,2128.2 
				-534.9,2128.2 -534.9,2116.2 -546.9,2116.2 -546.9,2104.2 -534.9,2104.2 -534.9,2092.2 -522.9,2092.2 -522.9,2080.2 
				-510.9,2080.2 -510.9,2069.2 			"/>
		</g>
		<polygon class="st2" points="-592.9,2138.2 -606.9,2161.2 -606.9,2138.2 		"/>
		<g>
			<g>
				<polygon class="st2" points="-1062.9,2080.2 -1062.9,2162.2 -1158.9,2162.2 -1158.9,2151.2 -1146.9,2151.2 -1146.9,2139.2 
					-1134.9,2139.2 -1134.9,2127.2 -1122.9,2127.2 -1122.9,2115.2 -1134.9,2115.2 -1134.9,2103.2 -1146.9,2103.2 -1146.9,2091.2 
					-1158.9,2091.2 -1158.9,2080.2 				"/>
				<polygon class="st3" points="-1062.9,2069.2 -1062.9,2151.2 -1158.9,2151.2 -1158.9,2140.2 -1146.9,2140.2 -1146.9,2128.2 
					-1134.9,2128.2 -1134.9,2116.2 -1122.9,2116.2 -1122.9,2104.2 -1134.9,2104.2 -1134.9,2092.2 -1146.9,2092.2 -1146.9,2080.2 
					-1158.9,2080.2 -1158.9,2069.2 				"/>
			</g>
			<polygon class="st2" points="-1076.9,2138.2 -1062.9,2161.2 -1063,2138.2 			"/>
		</g>
		<g>
			<rect x="-1076.9" y="2056.2" class="st2" width="484" height="82"/>
			<rect x="-1076.9" y="2044.2" class="st3" width="484" height="82"/>
		</g>
	</g>
	<g>
		<path class="st4" d="M-1006.3,2104h-8.6v-34.6h8.6v13h8.6v-13h8.6v34.6h-8.6v-13h-8.6V2104z"/>
		<path class="st4" d="M-984.7,2073.7h4.3v-4.3h17.3v4.3h4.3v25.9h-4.3v4.3h-17.3v-4.3h-4.3V2073.7z M-976.1,2095.3h8.6V2078h-8.6
			V2095.3z"/>
		<path class="st4" d="M-945.8,2104h-8.6v-34.6h8.6v17.3h4.3v-4.3h4.3v4.3h4.3v-17.3h8.6v34.6h-8.6v-4.3h-4.3v-4.3h-4.3v4.3h-4.3
			V2104z"/>
		<path class="st4" d="M-889.7,2069.4h25.9v8.6h-8.6v25.9h-8.6V2078h-8.6V2069.4z"/>
		<path class="st4" d="M-859.4,2073.7h4.3v-4.3h17.3v4.3h4.3v25.9h-4.3v4.3h-17.3v-4.3h-4.3V2073.7z M-850.8,2095.3h8.6V2078h-8.6
			V2095.3z"/>
		<path class="st4" d="M-790.3,2104h-8.6v-34.6h21.6v4.3h4.3v13h-4.3v4.3h-13V2104z M-790.3,2082.4h8.6v-4.3h-8.6V2082.4z"/>
		<path class="st4" d="M-764.4,2099.6h-4.3v-30.2h8.6v25.9h17.3v8.6h-21.6V2099.6z"/>
		<path class="st4" d="M-729.8,2104h-8.6v-30.2h4.3v-4.3h17.3v4.3h4.3v30.2h-8.6v-13h-8.6V2104z M-721.2,2082.4v-4.3h-8.6v4.3
			H-721.2z"/>
		<path class="st4" d="M-708.2,2069.4h8.6v13h8.6v-13h8.6v17.3h-4.3v4.3h-4.3v13h-8.6v-13h-4.3v-4.3h-4.3V2069.4z"/>
	</g>
</g>
<polygon class="st5" points="-900.9,2337.2 -912.9,2337.2 -985.9,2337.2 -985.9,2349.2 -997.9,2349.2 -997.9,2434.2 -985.9,2434.2 
	-985.9,2446.2 -912.9,2446.2 -900.9,2446.2 -900.9,2434.2 -888.9,2434.2 -888.9,2349.2 -900.9,2349.2 "/>
<polygon class="st5" points="-900.9,2337.2 -912.9,2337.2 -985.9,2337.2 -985.9,2349.2 -997.9,2349.2 -997.9,2434.2 -985.9,2434.2 
	-985.9,2446.2 -912.9,2446.2 -900.9,2446.2 -900.9,2434.2 -888.9,2434.2 -888.9,2349.2 -900.9,2349.2 "/>
<g>
	<path class="st4" d="M-961.3,2371.4h28.4v5.7h5.7v17.1h-5.7v5.7H-950v-11.4h11.4v-5.7h-22.8V2371.4z M-950,2405.5h11.4v11.4H-950
		V2405.5z"/>
</g>
<polygon class="st5" points="-749.9,2337.2 -761.9,2337.2 -834.9,2337.2 -834.9,2349.2 -846.9,2349.2 -846.9,2434.2 -834.9,2434.2 
	-834.9,2446.2 -761.9,2446.2 -749.9,2446.2 -749.9,2434.2 -737.9,2434.2 -737.9,2349.2 -749.9,2349.2 "/>
<polygon class="st6" points="-749.9,2327.2 -761.9,2327.2 -834.9,2327.2 -834.9,2339.2 -846.9,2339.2 -846.9,2424.2 -834.9,2424.2 
	-834.9,2436.2 -761.9,2436.2 -749.9,2436.2 -749.9,2424.2 -737.9,2424.2 -737.9,2339.2 -749.9,2339.2 "/>
<g>
	<path class="st4" d="M-810.3,2361.4h28.4v5.7h5.7v17.1h-5.7v5.7H-799v-11.4h11.4v-5.7h-22.8V2361.4z M-799,2395.5h11.4v11.4H-799
		V2395.5z"/>
</g>
<g>
	<polygon class="st0" points="285.1,2181.7 273.5,2181.7 273.5,2170.1 261.9,2170.1 261.9,2157.3 -236.8,2157.3 -236.8,2170.1 
		-248.4,2170.1 -248.4,2181.7 -259.9,2181.7 -259.9,2866.4 -248.4,2866.4 -248.4,2878.1 -236.8,2878.1 -236.8,2890.9 261.9,2890.9 
		261.9,2878.1 273.5,2878.1 273.5,2866.4 285.1,2866.4 	"/>
	<polygon class="st7" points="285.1,2169.7 273.5,2169.7 273.5,2158 261.9,2158 261.9,2145.2 -236.8,2145.2 -236.8,2158 
		-248.4,2158 -248.4,2169.7 -259.9,2169.7 -259.9,2854.4 -248.4,2854.4 -248.4,2866.1 -236.8,2866.1 -236.8,2878.9 261.9,2878.9 
		261.9,2866.1 273.5,2866.1 273.5,2854.4 285.1,2854.4 	"/>
	<polygon class="st8" points="285.1,2157.7 273.5,2157.7 273.5,2146 261.9,2146 261.9,2133.2 -236.8,2133.2 -236.8,2146 
		-248.4,2146 -248.4,2157.7 -259.9,2157.7 -259.9,2842.4 -248.4,2842.4 -248.4,2854 -236.8,2854 -236.8,2866.8 261.9,2866.8 
		261.9,2854 273.5,2854 273.5,2842.4 285.1,2842.4 	"/>
</g>
<g>
	<polygon class="st9" points="-763.9,1817.2 -774,1817.2 -1148.9,1817.2 -1148.9,1827.3 -1158.9,1827.3 -1158.9,1885.1 
		-1148.9,1885.1 -1148.9,1895.2 -774,1895.2 -763.9,1895.2 -763.9,1885.1 -753.8,1885.1 -753.8,1827.3 -763.9,1827.3 	"/>
	<polygon class="st10" points="-763.9,1807.2 -774,1807.2 -1148.9,1807.2 -1148.9,1817.3 -1158.9,1817.3 -1158.9,1875.1 
		-1148.9,1875.1 -1148.9,1885.2 -774,1885.2 -763.9,1885.2 -763.9,1875.1 -753.8,1875.1 -753.8,1817.3 -763.9,1817.3 	"/>
	<g>
		<path class="st4" d="M-1038.9,1858.1h-6.9v-27.6h17.3v3.5h3.5v10.4h-3.5v3.5h-10.4V1858.1z M-1038.9,1840.8h6.9v-3.5h-6.9V1840.8z
			"/>
		<path class="st4" d="M-1018.1,1854.6h-3.5v-24.2h6.9v20.7h13.8v6.9h-17.3V1854.6z"/>
		<path class="st4" d="M-990.5,1858.1h-6.9v-24.2h3.5v-3.5h13.8v3.5h3.5v24.2h-6.9v-10.4h-6.9V1858.1z M-983.6,1840.8v-3.5h-6.9v3.5
			H-983.6z"/>
		<path class="st4" d="M-973.2,1830.4h6.9v10.4h6.9v-10.4h6.9v13.8h-3.5v3.5h-3.5v10.4h-6.9v-10.4h-3.5v-3.5h-3.5V1830.4z"/>
		<path class="st4" d="M-945.6,1854.6h-3.5v-20.7h3.5v-3.5h17.3v6.9h-13.8v3.5h6.9v6.9h-6.9v3.5h13.8v6.9h-17.3V1854.6z"/>
		<path class="st4" d="M-914.5,1847.7h-3.5v10.4h-6.9v-27.6h17.3v3.5h3.5v10.4h-3.5v3.5h3.5v10.4h-6.9v-6.9h-3.5V1847.7z
			 M-917.9,1840.8h6.9v-3.5h-6.9V1840.8z"/>
		<path class="st4" d="M-876.4,1830.4h6.9v27.6h-6.9V1830.4z"/>
	</g>
</g>
<g>
	<polygon class="st11" points="-1124.7,1696.6 -1126.7,1690.8 -1130.8,1678.8 -1148.6,1684.8 -1146.6,1690.6 -1152.4,1692.6 
		-1148.3,1704.6 -1142.5,1702.6 -1140.6,1708.4 -1128.6,1704.3 -1130.5,1698.6 	"/>
	<polygon class="st11" points="-1085.9,1684.6 -1087.9,1678.8 -1092,1666.8 -1109.8,1672.8 -1107.8,1678.6 -1113.6,1680.5 
		-1109.5,1692.5 -1103.7,1690.6 -1101.8,1696.3 -1089.8,1692.3 -1091.7,1686.5 	"/>
	<rect x="-1145.5" y="1637.6" transform="matrix(0.9472 -0.3207 0.3207 0.9472 -591.7337 -278.7228)" width="7.1" height="38.6"/>
	<polygon points="-1126.4,1691.8 -1128.3,1686 -1132.4,1674 -1150.2,1680 -1148.2,1685.8 -1154,1687.8 -1149.9,1699.8 
		-1144.2,1697.8 -1142.2,1703.6 -1130.2,1699.5 -1132.1,1693.8 	"/>
	<rect x="-1107" y="1624.6" transform="matrix(0.9472 -0.3207 0.3207 0.9472 -585.5237 -267.0731)" width="7.1" height="38.6"/>
	<polygon points="-1087.9,1678.8 -1089.9,1673 -1093.9,1661 -1111.7,1667 -1109.8,1672.8 -1115.5,1674.7 -1111.5,1686.8 
		-1105.7,1684.8 -1103.7,1690.6 -1091.7,1686.5 -1093.7,1680.7 	"/>
	<rect x="-1155.5" y="1615.3" transform="matrix(0.9472 -0.3207 0.3207 0.9472 -580.6196 -277.1673)" width="47.7" height="17.3"/>
</g>
<g>
	<polygon class="st11" points="-1058.5,1730.2 -1057.6,1726 -1055.7,1717.4 -1068.5,1714.6 -1069.4,1718.7 -1073.6,1717.8 
		-1075.5,1726.5 -1071.3,1727.4 -1072.2,1731.5 -1063.6,1733.4 -1062.7,1729.3 	"/>
	<polygon class="st11" points="-1031,1737 -1030.1,1732.8 -1028.2,1724.2 -1041,1721.4 -1041.9,1725.5 -1046.1,1724.6 -1048,1733.2 
		-1043.8,1734.2 -1044.7,1738.3 -1036.1,1740.2 -1035.2,1736.1 	"/>
	<rect x="-1057" y="1686.8" transform="matrix(0.9766 0.2149 -0.2149 0.9766 340.7346 266.3171)" width="5" height="26.9"/>
	<polygon points="-1057.8,1726.7 -1056.9,1722.6 -1055,1713.9 -1067.7,1711.1 -1068.7,1715.3 -1072.8,1714.4 -1074.7,1723 
		-1070.6,1723.9 -1071.5,1728.1 -1062.8,1730 -1061.9,1725.8 	"/>
	<rect x="-1029.3" y="1692.9" transform="matrix(0.9766 0.2149 -0.2149 0.9766 342.6887 260.5151)" width="5" height="26.9"/>
	<polygon points="-1030.1,1732.8 -1029.2,1728.7 -1027.3,1720 -1040.1,1717.2 -1041,1721.4 -1045.1,1720.5 -1047.1,1729.1 
		-1042.9,1730 -1043.8,1734.2 -1035.2,1736.1 -1034.3,1731.9 	"/>
	<rect x="-1053.1" y="1678.3" transform="matrix(0.9766 0.2149 -0.2149 0.9766 337.7228 262.0727)" width="33.3" height="12"/>
</g>
<g>
	<polygon class="st11" points="-982.5,1668.4 -983.2,1665.4 -984.6,1659 -994,1661.1 -993.3,1664.1 -996.4,1664.8 -994.9,1671.2 
		-991.9,1670.5 -991.2,1673.5 -984.9,1672.1 -985.6,1669.1 	"/>
	<polygon class="st11" points="-962.1,1664.4 -962.8,1661.3 -964.2,1655 -973.6,1657.1 -972.9,1660.1 -975.9,1660.8 -974.5,1667.2 
		-971.5,1666.5 -970.8,1669.5 -964.5,1668.1 -965.1,1665.1 	"/>
	<rect x="-990.9" y="1637.3" transform="matrix(0.9761 -0.2173 0.2173 0.9761 -381.5511 -175.561)" width="3.6" height="19.8"/>
	<polygon points="-983.1,1665.9 -983.8,1662.8 -985.2,1656.5 -994.6,1658.6 -993.9,1661.6 -996.9,1662.3 -995.5,1668.6 -992.5,1668 
		-991.8,1671 -985.4,1669.6 -986.1,1666.5 	"/>
	<rect x="-970.6" y="1632.8" transform="matrix(0.9761 -0.2173 0.2173 0.9761 -380.0836 -171.2562)" width="3.6" height="19.8"/>
	<polygon points="-962.8,1661.3 -963.4,1658.3 -964.9,1651.9 -974.3,1654 -973.6,1657.1 -976.6,1657.8 -975.2,1664.1 -972.2,1663.4 
		-971.5,1666.5 -965.1,1665.1 -965.8,1662 	"/>
	<rect x="-994.3" y="1626.6" transform="matrix(0.9761 -0.2173 0.2173 0.9761 -377.8578 -174.4175)" width="24.4" height="8.8"/>
</g>
<g>
	<polygon class="st11" points="-961.9,1714.2 -959.3,1710 -953.8,1701.5 -966.5,1693.4 -969.1,1697.5 -973.3,1694.9 -978.7,1703.5 
		-974.6,1706.1 -977.2,1710.2 -968.6,1715.7 -966,1711.5 	"/>
	<polygon class="st11" points="-934.9,1732.3 -932.3,1728.2 -926.9,1719.6 -939.5,1711.5 -942.2,1715.6 -946.3,1713 -951.7,1721.6 
		-947.6,1724.2 -950.2,1728.3 -941.6,1733.8 -939,1729.7 	"/>
	<rect x="-948.6" y="1668.1" transform="matrix(0.844 0.5363 -0.5363 0.844 755.3525 769.8217)" width="5.7" height="30.9"/>
	<polygon points="-959.7,1710.7 -957.1,1706.6 -951.7,1698.1 -964.3,1690 -967,1694.1 -971.1,1691.5 -976.5,1700.1 -972.4,1702.7 
		-975,1706.8 -966.5,1712.2 -963.8,1708.1 	"/>
	<rect x="-921.2" y="1685.5" transform="matrix(0.844 0.5363 -0.5363 0.844 768.9769 757.8308)" width="5.7" height="30.9"/>
	<polygon points="-932.3,1728.2 -929.7,1724 -924.2,1715.5 -936.9,1707.4 -939.5,1711.5 -943.7,1708.9 -949.1,1717.5 -945,1720.1 
		-947.6,1724.2 -939,1729.7 -936.4,1725.5 	"/>
	<rect x="-939.2" y="1666.5" transform="matrix(0.844 0.5363 -0.5363 0.844 753.921 754.4595)" width="38.2" height="13.8"/>
</g>
<g>
	<polygon class="st9" points="-1240.7,1273.7 -1247.3,1273.7 -1493.6,1273.7 -1493.6,1280.4 -1500.2,1280.4 -1500.2,1318.4 
		-1493.6,1318.4 -1493.6,1325 -1247.3,1325 -1240.7,1325 -1240.7,1318.4 -1234,1318.4 -1234,1280.4 -1240.7,1280.4 	"/>
	<polygon class="st12" points="-1240.7,1273.7 -1247.3,1273.7 -1493.6,1273.7 -1493.6,1280.4 -1500.2,1280.4 -1500.2,1318.4 
		-1493.6,1318.4 -1493.6,1325 -1247.3,1325 -1240.7,1325 -1240.7,1318.4 -1234,1318.4 -1234,1280.4 -1240.7,1280.4 	"/>
	<g>
		<path class="st4" d="M-1433.8,1291.3h2.3v-2.3h11.4v4.5h-9.1v9.1h9.1v4.5h-11.4v-2.3h-2.3V1291.3z"/>
		<path class="st4" d="M-1413.4,1307.2h-4.5v-15.9h2.3v-2.3h9.1v2.3h2.3v15.9h-4.5v-6.8h-4.5V1307.2z M-1408.9,1295.8v-2.3h-4.5v2.3
			H-1408.9z"/>
		<path class="st4" d="M-1399.8,1304.9h-2.3V1289h4.5v13.6h9.1v4.5h-11.4V1304.9z"/>
		<path class="st4" d="M-1386.2,1289h4.5v18.2h-4.5V1289z"/>
		<path class="st4" d="M-1379.3,1289h11.4v2.3h2.3v13.6h-2.3v2.3h-11.4V1289z M-1374.8,1295.8h4.5v-2.3h-4.5V1295.8z
			 M-1374.8,1302.6h4.5v-2.3h-4.5V1302.6z"/>
		<path class="st4" d="M-1356.6,1300.4h-2.3v6.8h-4.5v-15.9h2.3v-2.3h9.1v2.3h2.3v6.8h-2.3v2.3h2.3v6.8h-4.5v-4.5h-2.3V1300.4z
			 M-1358.9,1295.8h4.5v-2.3h-4.5V1295.8z"/>
		<path class="st4" d="M-1343,1307.2h-4.5v-15.9h2.3v-2.3h9.1v2.3h2.3v15.9h-4.5v-6.8h-4.5V1307.2z M-1338.5,1295.8v-2.3h-4.5v2.3
			H-1338.5z"/>
		<path class="st4" d="M-1331.6,1289h13.6v4.5h-4.5v13.6h-4.5v-13.6h-4.5V1289z"/>
		<path class="st4" d="M-1313.5,1304.9h-2.3v-13.6h2.3v-2.3h11.4v4.5h-9.1v2.3h4.5v4.5h-4.5v2.3h9.1v4.5h-11.4V1304.9z"/>
	</g>
</g>
<g>
	<polygon class="st9" points="-920.7,1341.7 -927.3,1341.7 -1173.6,1341.7 -1173.6,1348.4 -1180.2,1348.4 -1180.2,1386.4 
		-1173.6,1386.4 -1173.6,1393 -927.3,1393 -920.7,1393 -920.7,1386.4 -914,1386.4 -914,1348.4 -920.7,1348.4 	"/>
	<polygon class="st10" points="-920.7,1335.2 -927.3,1335.2 -1173.6,1335.2 -1173.6,1341.8 -1180.2,1341.8 -1180.2,1379.8 
		-1173.6,1379.8 -1173.6,1386.4 -927.3,1386.4 -920.7,1386.4 -920.7,1379.8 -914,1379.8 -914,1341.8 -920.7,1341.8 	"/>
	<g>
		<path class="st4" d="M-1113.8,1352.7h2.3v-2.3h11.4v4.5h-9.1v9.1h9.1v4.5h-11.4v-2.3h-2.3V1352.7z"/>
		<path class="st4" d="M-1093.4,1368.6h-4.5v-15.9h2.3v-2.3h9.1v2.3h2.3v15.9h-4.5v-6.8h-4.5V1368.6z M-1088.9,1357.3v-2.3h-4.5v2.3
			H-1088.9z"/>
		<path class="st4" d="M-1079.8,1366.3h-2.3v-15.9h4.5v13.6h9.1v4.5h-11.4V1366.3z"/>
		<path class="st4" d="M-1066.2,1350.4h4.5v18.2h-4.5V1350.4z"/>
		<path class="st4" d="M-1059.3,1350.4h11.4v2.3h2.3v13.6h-2.3v2.3h-11.4V1350.4z M-1054.8,1357.3h4.5v-2.3h-4.5V1357.3z
			 M-1054.8,1364.1h4.5v-2.3h-4.5V1364.1z"/>
		<path class="st4" d="M-1036.6,1361.8h-2.3v6.8h-4.5v-15.9h2.3v-2.3h9.1v2.3h2.3v6.8h-2.3v2.3h2.3v6.8h-4.5v-4.5h-2.3V1361.8z
			 M-1038.9,1357.3h4.5v-2.3h-4.5V1357.3z"/>
		<path class="st4" d="M-1023,1368.6h-4.5v-15.9h2.3v-2.3h9.1v2.3h2.3v15.9h-4.5v-6.8h-4.5V1368.6z M-1018.5,1357.3v-2.3h-4.5v2.3
			H-1018.5z"/>
		<path class="st4" d="M-1011.6,1350.4h13.6v4.5h-4.5v13.6h-4.5V1355h-4.5V1350.4z"/>
		<path class="st4" d="M-993.5,1366.3h-2.3v-13.6h2.3v-2.3h11.4v4.5h-9.1v2.3h4.5v4.5h-4.5v2.3h9.1v4.5h-11.4V1366.3z"/>
	</g>
</g>
<g>
	<rect x="-1178.7" y="1424.1" class="st9" width="219.8" height="28.8"/>
	<rect x="-1183.5" y="1417.5" class="st9" width="229.4" height="30.6"/>
	<polygon class="st10" points="-1183.5,1413.2 -1183.5,1442.4 -1178.7,1442.4 -1178.7,1448.1 -958.9,1448.1 -958.9,1442.4 
		-954.1,1442.4 -954.1,1413.2 	"/>
</g>
<polygon class="st9" points="-963.7,1428 -963.7,1422.9 -968.8,1422.9 -968.8,1422.8 -1025.5,1422.8 -1056,1422.8 -1081.6,1422.8 
	-1105.5,1422.8 -1168.8,1422.8 -1168.8,1422.9 -1173.9,1422.9 -1173.9,1428 -1179,1428 -1179,1435.6 -1173.9,1435.6 -1173.9,1440.7 
	-1168.8,1440.7 -1168.8,1440.8 -1105.5,1440.8 -1081.6,1440.8 -1056,1440.8 -1025.5,1440.8 -968.8,1440.8 -968.8,1440.8 
	-963.7,1440.8 -963.7,1435.7 -958.6,1435.7 -958.6,1428 "/>
<g>
	<rect x="-1187.6" y="1522.1" class="st13" width="4.7" height="0.1"/>
	<rect x="-1187.6" y="1540" class="st13" width="4.7" height="0.1"/>
	<polygon class="st4" points="-1166.6,1540 -1166.6,1535 -1161.5,1535 -1161.5,1527.3 -1166.6,1527.3 -1166.6,1522.2 
		-1171.7,1522.2 -1171.7,1522.1 -1182.9,1522.1 -1182.9,1522.2 -1187.6,1522.2 -1187.6,1540 -1182.9,1540 -1182.9,1540.1 
		-1171.7,1540.1 -1171.7,1540 	"/>
</g>
<g>
	<polygon class="st4" points="-1213.4,1486.6 -1213.4,1481.5 -1218.5,1481.5 -1218.5,1481.4 -1234.4,1481.4 -1234.4,1499.4 
		-1218.5,1499.4 -1218.5,1499.3 -1213.4,1499.3 -1213.4,1494.2 -1208.3,1494.2 -1208.3,1486.6 	"/>
	<polygon class="st4" points="-1226.9,1525.4 -1226.9,1520.3 -1226.9,1520.3 -1226.9,1520.2 -1231.4,1520.2 -1232,1520.2 
		-1236.5,1520.2 -1236.5,1520.3 -1236.5,1520.3 -1236.5,1525.4 -1241.6,1525.4 -1241.6,1533 -1236.5,1533 -1236.5,1538.1 
		-1236.5,1538.1 -1236.5,1538.2 -1232,1538.2 -1231.4,1538.2 -1226.9,1538.2 -1226.9,1538.2 -1226.9,1538.2 -1226.9,1533.1 
		-1221.8,1533.1 -1221.8,1525.4 	"/>
</g>
<polygon class="st4" points="-1276.7,1428 -1276.7,1422.9 -1276.7,1422.9 -1276.7,1422.8 -1281.2,1422.8 -1281.8,1422.8 
	-1286.3,1422.8 -1286.3,1422.9 -1286.3,1422.9 -1286.3,1428 -1291.4,1428 -1291.4,1435.6 -1286.3,1435.6 -1286.3,1440.7 
	-1286.3,1440.7 -1286.3,1440.8 -1281.8,1440.8 -1281.2,1440.8 -1276.7,1440.8 -1276.7,1440.8 -1276.7,1440.8 -1276.7,1435.7 
	-1271.6,1435.7 -1271.6,1428 "/>
<polygon class="st14" points="-310.9,1817.2 -321,1817.2 -695.9,1817.2 -695.9,1827.3 -705.9,1827.3 -705.9,1885.1 -695.9,1885.1 
	-695.9,1895.2 -321,1895.2 -310.9,1895.2 -310.9,1885.1 -300.8,1885.1 -300.8,1827.3 -310.9,1827.3 "/>
<polygon class="st15" points="-310.9,1807.2 -321,1807.2 -695.9,1807.2 -695.9,1817.3 -705.9,1817.3 -705.9,1875.1 -695.9,1875.1 
	-695.9,1885.2 -321,1885.2 -310.9,1885.2 -310.9,1875.1 -300.8,1875.1 -300.8,1817.3 -310.9,1817.3 "/>
<g>
	<path class="st4" d="M-593.3,1858.1h-6.9v-27.6h17.3v3.5h3.5v10.4h-3.5v3.5h-10.4V1858.1z M-593.3,1840.8h6.9v-3.5h-6.9V1840.8z"/>
	<path class="st4" d="M-572.5,1854.6h-3.5v-24.2h6.9v20.7h13.8v6.9h-17.3V1854.6z"/>
	<path class="st4" d="M-544.9,1858.1h-6.9v-24.2h3.5v-3.5h13.8v3.5h3.5v24.2h-6.9v-10.4h-6.9V1858.1z M-538,1840.8v-3.5h-6.9v3.5
		H-538z"/>
	<path class="st4" d="M-527.6,1830.4h6.9v10.4h6.9v-10.4h6.9v13.8h-3.5v3.5h-3.5v10.4h-6.9v-10.4h-3.5v-3.5h-3.5V1830.4z"/>
	<path class="st4" d="M-500,1854.6h-3.5v-20.7h3.5v-3.5h17.3v6.9h-13.8v3.5h6.9v6.9h-6.9v3.5h13.8v6.9H-500V1854.6z"/>
	<path class="st4" d="M-468.9,1847.7h-3.5v10.4h-6.9v-27.6h17.3v3.5h3.5v10.4h-3.5v3.5h3.5v10.4h-6.9v-6.9h-3.5V1847.7z
		 M-472.3,1840.8h6.9v-3.5h-6.9V1840.8z"/>
	<path class="st4" d="M-430.9,1830.4h17.3v3.5h3.5v10.4h-3.5v3.5h-10.4v3.5h13.8v6.9h-20.7v-13.8h3.5v-3.5h10.4v-3.5h-13.8V1830.4z"
		/>
</g>
<g>
	<rect x="-684.9" y="1811.2" class="st4" width="45.1" height="5.7"/>
	<rect x="-633.7" y="1811.2" class="st4" width="5.7" height="5.7"/>
</g>
<g>
	<rect x="-1139.4" y="1812.2" class="st4" width="45.1" height="5.7"/>
	<rect x="-1088.2" y="1812.2" class="st4" width="5.7" height="5.7"/>
</g>
<polygon class="st16" points="-750.3,1652.2 -743.9,1657.8 -749.5,1664.2 -729.1,1681.6 -729.1,1719.5 -708.3,1693.4 -676.6,1722.8 
	-670.7,1716.5 -665.8,1721.1 -594.1,1602.4 "/>
<polygon class="st17" points="-752.8,1645.1 -746.4,1650.7 -752,1657.1 -731.5,1674.5 -731.5,1712.3 -710.8,1686.2 -679,1715.6 
	-673.2,1709.4 -668.2,1714 -596.6,1595.3 "/>
<polygon class="st18" points="-710.7,1686 -596.4,1595.3 -731.5,1674.3 -731.5,1712.1 "/>
<polygon class="st19" points="-753.8,1645.2 -747.4,1650.8 -753,1657.2 -732.6,1674.6 -732.6,1712.5 -711.9,1686.4 -680.1,1715.8 
	-674.3,1709.5 -669.3,1714.1 -597.7,1595.4 "/>
<g>
	<polygon class="st20" points="-818,1338.5 -818,1502.1 -807.6,1502.1 -807.6,1511.6 -797.2,1511.6 -797.2,1522.1 -349.7,1522.1 
		-349.7,1511.6 -339.4,1511.6 -339.4,1502.1 -329,1502.1 -329,1338.5 	"/>
	<polygon class="st20" points="-329,1338.5 -329,1244.4 -339.4,1244.4 -339.4,1234.9 -349.7,1234.9 -349.7,1224.4 -797.2,1224.4 
		-797.2,1234.9 -807.6,1234.9 -807.6,1244.4 -818,1244.4 -818,1338.5 	"/>
</g>
<g>
	<polygon class="st21" points="-807.6,1241 -797.2,1241 -797.2,1233 -807.6,1233 -807.6,1240.9 -818,1240.9 -818,1248.9 
		-807.6,1248.9 	"/>
	<rect x="-797.2" y="1224.3" class="st21" width="447.5" height="8"/>
	<polygon class="st21" points="-339.4,1240.9 -339.4,1233 -349.7,1233 -349.7,1241 -339.4,1241 -339.4,1248.9 -329,1248.9 
		-329,1240.9 	"/>
</g>
<g>
	<g>
		<g>
			<rect x="-1211.1" y="1160" width="10.2" height="10.2"/>
		</g>
	</g>
	<g>
		<g>
			<path d="M-1149.7,1149.8v5.1h-5.1v5.1h5.1v20.5h5.1v5.1h-5.1v5.1h5.1h5.1v-10.2h15.4v5.1h5.1v-5.1v-30.7H-1149.7z
				 M-1124.1,1175.4h-20.5v-20.5h20.5V1175.4z"/>
		</g>
	</g>
	<g>
		<g>
			<rect x="-1139.4" y="1160" width="10.2" height="10.2"/>
		</g>
	</g>
	<g>
		<g>
			<rect x="-1211.1" y="1231.7" width="10.2" height="10.2"/>
		</g>
	</g>
	<g>
		<g>
			<rect x="-1149.7" y="1221.5" width="5.1" height="5.1"/>
		</g>
	</g>
	<g>
		<g>
			<rect x="-1175.3" y="1247.1" width="5.1" height="5.1"/>
		</g>
	</g>
	<g>
		<g>
			<rect x="-1170.2" y="1226.6" width="5.1" height="5.1"/>
		</g>
	</g>
	<g>
		<g>
			<rect x="-1170.2" y="1236.8" width="5.1" height="5.1"/>
		</g>
	</g>
	<g>
		<g>
			<rect x="-1124.1" y="1211.2" width="5.1" height="5.1"/>
		</g>
	</g>
	<g>
		<g>
			<rect x="-1221.4" y="1211.2" width="5.1" height="5.1"/>
		</g>
	</g>
	<g>
		<g>
			<rect x="-1221.4" y="1185.6" width="5.1" height="5.1"/>
		</g>
	</g>
	<g>
		<g>
			<polygon points="-1165,1154.9 -1165,1160 -1175.3,1160 -1175.3,1165.1 -1159.9,1165.1 -1159.9,1160 -1159.9,1154.9 			"/>
		</g>
	</g>
	<g>
		<g>
			<path d="M-1124.1,1190.7v5.1h-10.2v5.1h-15.4v-5.1h-5.1v5.1h-10.2v5.1h15.4v5.1h-10.2h-5.1v-5.1h-5.1v5.1h-5.1v-5.1h-5.1v5.1
				h-5.1v5.1h10.2v5.1h5.1v-5.1h10.2v5.1h-5.1v5.1h5.1v10.2h5.1v5.1h5.1v-5.1h15.4v-10.2h5.1v-5.1h-5.1v-10.2h-10.2v-5.1h10.2v5.1
				h5.1v-5.1h5.1v-5.1h5.1v-5.1v-5.1H-1124.1L-1124.1,1190.7z M-1139.4,1216.3v15.4h-15.4v-15.4H-1139.4z"/>
		</g>
	</g>
	<g>
		<g>
			<polygon points="-1154.8,1180.5 -1159.9,1180.5 -1159.9,1185.6 -1165,1185.6 -1165,1190.7 -1165,1195.9 -1159.9,1195.9 
				-1159.9,1190.7 -1154.8,1190.7 -1154.8,1185.6 -1149.7,1185.6 -1149.7,1180.5 			"/>
		</g>
	</g>
	<g>
		<g>
			<rect x="-1165" y="1247.1" width="10.2" height="5.1"/>
		</g>
	</g>
	<g>
		<g>
			<rect x="-1180.4" y="1154.9" width="5.1" height="5.1"/>
		</g>
	</g>
	<g>
		<g>
			<rect x="-1139.4" y="1190.7" width="5.1" height="5.1"/>
		</g>
	</g>
	<g>
		<g>
			<rect x="-1134.3" y="1185.6" width="5.1" height="5.1"/>
		</g>
	</g>
	<g>
		<g>
			<rect x="-1200.9" y="1211.2" width="5.1" height="5.1"/>
		</g>
	</g>
	<g>
		<g>
			<path d="M-1190.6,1247.1v-20.5h5.1v-5.1v-5.1h-5.1v5.1h-15.4v-5.1h-5.1h-5.1v5.1h-5.1v30.7h30.7h10.2v-5.1H-1190.6z
				 M-1195.8,1247.1h-20.5v-20.5h20.5V1247.1z"/>
		</g>
	</g>
	<g>
		<g>
			<rect x="-1190.6" y="1180.5" width="5.1" height="5.1"/>
		</g>
	</g>
	<g>
		<g>
			<path d="M-1185.5,1149.8h-5.1h-30.7v30.7h5.1v5.1h5.1v-5.1h5.1v5.1h5.1v-5.1h10.2v-10.2h5.1v-5.1h-5.1v-10.2h5.1h5.1v-5.1
				H-1185.5z M-1195.8,1175.4h-20.5v-20.5h20.5V1175.4z"/>
		</g>
	</g>
	<g>
		<g>
			<rect x="-1159.9" y="1165.1" width="5.1" height="5.1"/>
		</g>
	</g>
	<g>
		<g>
			<rect x="-1170.2" y="1149.8" width="5.1" height="5.1"/>
		</g>
	</g>
	<g>
		<g>
			<path d="M-1159.9,1180.5v-5.1h-5.1v-5.1h-5.1v5.1h-10.2v-5.1h-5.1v5.1v5.1h5.1v10.2h-15.4v-5.1h-5.1v5.1h-15.4v5.1h10.2v5.1
				h-15.4v5.1h15.4v5.1h5.1v-5.1h5.1v5.1h5.1v-5.1h10.2v-5.1h-5.1v-5.1h5.1h5.1v5.1h5.1h5.1v-5.1h-5.1v-5.1h-5.1v-10.2H-1159.9
				L-1159.9,1180.5z M-1190.6,1201h-10.2v-5.1h10.2V1201z"/>
		</g>
	</g>
	<g>
		<g>
			<polygon points="-1175.3,1231.7 -1175.3,1226.6 -1175.3,1221.5 -1180.4,1221.5 -1180.4,1226.6 -1185.5,1226.6 -1185.5,1231.7 
				-1180.4,1231.7 -1180.4,1236.8 -1185.5,1236.8 -1185.5,1241.9 -1175.3,1241.9 -1175.3,1236.8 -1170.2,1236.8 -1170.2,1231.7 			
				"/>
		</g>
	</g>
	<g>
		<g>
			<polygon points="-1129.2,1241.9 -1129.2,1236.8 -1134.3,1236.8 -1134.3,1241.9 -1149.7,1241.9 -1149.7,1247.1 -1139.4,1247.1 
				-1139.4,1252.2 -1134.3,1252.2 -1134.3,1247.1 -1124.1,1247.1 -1124.1,1252.2 -1119,1252.2 -1119,1247.1 -1119,1241.9 			"/>
		</g>
	</g>
	<g>
		<g>
			<polygon points="-1124.1,1221.5 -1124.1,1226.6 -1129.2,1226.6 -1129.2,1231.7 -1119,1231.7 -1119,1226.6 -1119,1221.5 			"/>
		</g>
	</g>
</g>
<g>
	<g>
		<polygon class="st9" points="-1449.5,1565.9 -1453.2,1565.9 -1590.3,1565.9 -1590.3,1569.6 -1594,1569.6 -1594,1590.8 
			-1590.3,1590.8 -1590.3,1594.5 -1453.2,1594.5 -1449.5,1594.5 -1449.5,1590.8 -1445.8,1590.8 -1445.8,1569.6 -1449.5,1569.6 		"/>
		<polygon class="st12" points="-1449.5,1565.9 -1453.2,1565.9 -1590.3,1565.9 -1590.3,1569.6 -1594,1569.6 -1594,1590.8 
			-1590.3,1590.8 -1590.3,1594.5 -1453.2,1594.5 -1449.5,1594.5 -1449.5,1590.8 -1445.8,1590.8 -1445.8,1569.6 -1449.5,1569.6 		"/>
		<g>
			<path class="st4" d="M-1562.1,1580.7h-1.3v3.8h-2.5v-10.1h6.3v1.3h1.3v3.8h-1.3v1.3h1.3v3.8h-2.5v-2.5h-1.3V1580.7z
				 M-1563.4,1578.2h2.5v-1.3h-2.5V1578.2z"/>
			<path class="st4" d="M-1555.8,1583.3h-1.3v-7.6h1.3v-1.3h6.3v2.5h-5.1v1.3h2.5v2.5h-2.5v1.3h5.1v2.5h-6.3V1583.3z"/>
			<path class="st4" d="M-1546.9,1583.3h-1.3v-7.6h1.3v-1.3h5.1v1.3h1.3v2.5h-2.5v-1.3h-2.5v5.1h2.5v-1.3h2.5v2.5h-1.3v1.3h-5.1
				V1583.3z"/>
			<path class="st4" d="M-1536.8,1584.5h-2.5v-8.9h1.3v-1.3h5.1v1.3h1.3v8.9h-2.5v-3.8h-2.5V1584.5z M-1534.3,1578.2v-1.3h-2.5v1.3
				H-1534.3z"/>
			<path class="st4" d="M-1529.2,1583.3h-1.3v-8.9h2.5v7.6h5.1v2.5h-6.3V1583.3z"/>
			<path class="st4" d="M-1521.6,1574.4h2.5v10.1h-2.5V1574.4z"/>
			<path class="st4" d="M-1517.9,1574.4h6.3v1.3h1.3v7.6h-1.3v1.3h-6.3V1574.4z M-1515.3,1578.2h2.5v-1.3h-2.5V1578.2z
				 M-1515.3,1582h2.5v-1.3h-2.5V1582z"/>
			<path class="st4" d="M-1505.2,1580.7h-1.3v3.8h-2.5v-8.9h1.3v-1.3h5.1v1.3h1.3v3.8h-1.3v1.3h1.3v3.8h-2.5v-2.5h-1.3V1580.7z
				 M-1506.5,1578.2h2.5v-1.3h-2.5V1578.2z"/>
			<path class="st4" d="M-1497.6,1584.5h-2.5v-8.9h1.3v-1.3h5.1v1.3h1.3v8.9h-2.5v-3.8h-2.5V1584.5z M-1495.1,1578.2v-1.3h-2.5v1.3
				H-1495.1z"/>
			<path class="st4" d="M-1491.3,1574.4h7.6v2.5h-2.5v7.6h-2.5v-7.6h-2.5V1574.4z"/>
			<path class="st4" d="M-1481.2,1583.3h-1.3v-7.6h1.3v-1.3h6.3v2.5h-5.1v1.3h2.5v2.5h-2.5v1.3h5.1v2.5h-6.3V1583.3z"/>
		</g>
	</g>
	<g>
		<rect x="-1587.9" y="1568" class="st4" width="13.1" height="1.7"/>
		<rect x="-1573" y="1568" class="st4" width="1.7" height="1.7"/>
	</g>
</g>
<g>
	<g>
		<polygon class="st9" points="-1449.5,1607.9 -1453.2,1607.9 -1590.3,1607.9 -1590.3,1611.6 -1594,1611.6 -1594,1632.8 
			-1590.3,1632.8 -1590.3,1636.5 -1453.2,1636.5 -1449.5,1636.5 -1449.5,1632.8 -1445.8,1632.8 -1445.8,1611.6 -1449.5,1611.6 		"/>
		<polygon class="st10" points="-1449.5,1604.3 -1453.2,1604.3 -1590.3,1604.3 -1590.3,1607.9 -1594,1607.9 -1594,1629.1 
			-1590.3,1629.1 -1590.3,1632.8 -1453.2,1632.8 -1449.5,1632.8 -1449.5,1629.1 -1445.8,1629.1 -1445.8,1607.9 -1449.5,1607.9 		"/>
		<g>
			<path class="st4" d="M-1562.1,1619.1h-1.3v3.8h-2.5v-10.1h6.3v1.3h1.3v3.8h-1.3v1.3h1.3v3.8h-2.5v-2.5h-1.3V1619.1z
				 M-1563.4,1616.5h2.5v-1.3h-2.5V1616.5z"/>
			<path class="st4" d="M-1555.8,1621.6h-1.3v-7.6h1.3v-1.3h6.3v2.5h-5.1v1.3h2.5v2.5h-2.5v1.3h5.1v2.5h-6.3V1621.6z"/>
			<path class="st4" d="M-1546.9,1621.6h-1.3v-7.6h1.3v-1.3h5.1v1.3h1.3v2.5h-2.5v-1.3h-2.5v5.1h2.5v-1.3h2.5v2.5h-1.3v1.3h-5.1
				V1621.6z"/>
			<path class="st4" d="M-1536.8,1622.9h-2.5v-8.9h1.3v-1.3h5.1v1.3h1.3v8.9h-2.5v-3.8h-2.5V1622.9z M-1534.3,1616.5v-1.3h-2.5v1.3
				H-1534.3z"/>
			<path class="st4" d="M-1529.2,1621.6h-1.3v-8.9h2.5v7.6h5.1v2.5h-6.3V1621.6z"/>
			<path class="st4" d="M-1521.6,1612.8h2.5v10.1h-2.5V1612.8z"/>
			<path class="st4" d="M-1517.9,1612.8h6.3v1.3h1.3v7.6h-1.3v1.3h-6.3V1612.8z M-1515.3,1616.5h2.5v-1.3h-2.5V1616.5z
				 M-1515.3,1620.3h2.5v-1.3h-2.5V1620.3z"/>
			<path class="st4" d="M-1505.2,1619.1h-1.3v3.8h-2.5v-8.9h1.3v-1.3h5.1v1.3h1.3v3.8h-1.3v1.3h1.3v3.8h-2.5v-2.5h-1.3V1619.1z
				 M-1506.5,1616.5h2.5v-1.3h-2.5V1616.5z"/>
			<path class="st4" d="M-1497.6,1622.9h-2.5v-8.9h1.3v-1.3h5.1v1.3h1.3v8.9h-2.5v-3.8h-2.5V1622.9z M-1495.1,1616.5v-1.3h-2.5v1.3
				H-1495.1z"/>
			<path class="st4" d="M-1491.3,1612.8h7.6v2.5h-2.5v7.6h-2.5v-7.6h-2.5V1612.8z"/>
			<path class="st4" d="M-1481.2,1621.6h-1.3v-7.6h1.3v-1.3h6.3v2.5h-5.1v1.3h2.5v2.5h-2.5v1.3h5.1v2.5h-6.3V1621.6z"/>
		</g>
	</g>
	<g>
		<rect x="-1587.9" y="1607" class="st4" width="13.1" height="1.7"/>
		<rect x="-1573" y="1607" class="st4" width="1.7" height="1.7"/>
	</g>
</g>
<g>
	<rect x="-1168.1" y="1338.7" class="st4" width="23.6" height="3"/>
	<rect x="-1141.4" y="1338.7" class="st4" width="3" height="3"/>
</g>
<g>
	<rect x="-1488.5" y="1277.3" class="st4" width="23.6" height="3"/>
	<rect x="-1461.8" y="1277.3" class="st4" width="3" height="3"/>
</g>
<g>
	<polygon class="st22" points="-1518.6,1400.8 -1518.6,1393.3 -1537.3,1393.3 -1537.3,1400.8 -1544.7,1400.8 -1544.7,1408.2 
		-1544.7,1419.4 -1537.3,1419.4 -1537.3,1426.9 -1526.1,1426.9 -1518.6,1426.9 -1518.6,1419.4 -1511.1,1419.4 -1511.1,1408.2 
		-1511.1,1400.8 	"/>
	<line class="st23" x1="-1536.6" y1="1426.9" x2="-1536.6" y2="1436.8"/>
	<line class="st23" x1="-1519.2" y1="1426.9" x2="-1519.2" y2="1436.8"/>
	<polygon class="st24" points="-1520.2,1435 -1522.4,1435 -1535.7,1435 -1535.7,1437.2 -1537.9,1437.2 -1537.9,1452.7 
		-1535.7,1452.7 -1535.7,1454.9 -1522.4,1454.9 -1520.2,1454.9 -1520.2,1452.7 -1518,1452.7 -1518,1437.2 -1520.2,1437.2 	"/>
</g>
<polygon class="st25" points="-1451.5,1840 -1451.5,1832.1 -1459.4,1832.1 -1524.5,1832.1 -1593.2,1832.1 -1593.2,1840 
	-1601.1,1840 -1601.1,1885.6 -1593.2,1885.6 -1593.2,1893.5 -1524.5,1893.5 -1459.4,1893.5 -1451.5,1893.5 -1451.5,1885.6 
	-1443.6,1885.6 -1443.6,1840 "/>
<polygon class="st25" points="-1451.5,1840.2 -1451.5,1832.2 -1459.4,1832.2 -1524.5,1832.2 -1593.2,1832.2 -1593.2,1840.2 
	-1601.1,1840.2 -1601.1,1885.7 -1593.2,1885.7 -1593.2,1893.6 -1524.5,1893.6 -1459.4,1893.6 -1451.5,1893.6 -1451.5,1885.7 
	-1443.6,1885.7 -1443.6,1840.2 "/>
<g>
	<path class="st4" d="M-1555,1873.6h-5.4v-21.8h13.6v2.7h2.7v8.2h-2.7v2.7h-8.2V1873.6z M-1555,1860h5.4v-2.7h-5.4V1860z"/>
	<path class="st4" d="M-1538.7,1870.9h-2.7v-19h5.4v16.3h10.9v5.4h-13.6V1870.9z"/>
	<path class="st4" d="M-1516.9,1873.6h-5.4v-19h2.7v-2.7h10.9v2.7h2.7v19h-5.4v-8.2h-5.4V1873.6z M-1511.5,1860v-2.7h-5.4v2.7
		H-1511.5z"/>
	<path class="st4" d="M-1503.3,1851.8h5.4v8.2h5.4v-8.2h5.4v10.9h-2.7v2.7h-2.7v8.2h-5.4v-8.2h-2.7v-2.7h-2.7V1851.8z"/>
</g>
<polygon class="st25" points="-1281.5,1840 -1281.5,1832.1 -1289.4,1832.1 -1354.5,1832.1 -1423.2,1832.1 -1423.2,1840 
	-1431.1,1840 -1431.1,1885.6 -1423.2,1885.6 -1423.2,1893.5 -1354.5,1893.5 -1289.4,1893.5 -1281.5,1893.5 -1281.5,1885.6 
	-1273.6,1885.6 -1273.6,1840 "/>
<polygon class="st22" points="-1281.5,1832.2 -1281.5,1824.2 -1289.4,1824.2 -1354.5,1824.2 -1423.2,1824.2 -1423.2,1832.2 
	-1431.1,1832.2 -1431.1,1877.7 -1423.2,1877.7 -1423.2,1885.6 -1354.5,1885.6 -1289.4,1885.6 -1281.5,1885.6 -1281.5,1877.7 
	-1273.6,1877.7 -1273.6,1832.2 "/>
<g>
	<path class="st4" d="M-1385,1865.6h-5.4v-21.8h13.6v2.7h2.7v8.2h-2.7v2.7h-8.2V1865.6z M-1385,1852h5.4v-2.7h-5.4V1852z"/>
	<path class="st4" d="M-1368.7,1862.9h-2.7v-19h5.4v16.3h10.9v5.4h-13.6V1862.9z"/>
	<path class="st4" d="M-1346.9,1865.6h-5.4v-19h2.7v-2.7h10.9v2.7h2.7v19h-5.4v-8.2h-5.4V1865.6z M-1341.5,1852v-2.7h-5.4v2.7
		H-1341.5z"/>
	<path class="st4" d="M-1333.3,1843.8h5.4v8.2h5.4v-8.2h5.4v10.9h-2.7v2.7h-2.7v8.2h-5.4v-8.2h-2.7v-2.7h-2.7V1843.8z"/>
</g>
<g>
	<path class="st26" d="M-2275.1,1594.5h43.2v108h43.2v-108h43.2V1724h-21.6v21.6h-21.6v21.6h-43.2v-21.6h-21.6V1724h-21.6V1594.5z"
		/>
	<path class="st27" d="M-2123.9,1618.1h21.6v-21.6h108v43.2h-86.4v21.6h64.8v21.6h21.6v64.8h-21.6v21.6h-108v-43.2h86.4v-21.6h-64.8
		v-21.6h-21.6V1618.1z"/>
</g>
<g>
	<path class="st28" d="M-2275.1,1573.4h43.2v108h43.2v-108h43.2V1703h-21.6v21.6h-21.6v21.6h-43.2v-21.6h-21.6V1703h-21.6V1573.4z"
		/>
	<path class="st29" d="M-2123.9,1595h21.6v-21.6h108v43.2h-86.4v21.6h64.8v21.6h21.6v64.8h-21.6v21.6h-108V1703h86.4v-21.6h-64.8
		v-21.6h-21.6V1595z"/>
</g>
<g>
	<g>
		<path class="st0" d="M-2225.7,1952h27.5v68.7h27.5V1952h27.5v82.4h-13.7v13.7h-13.7v13.7h-27.5v-13.7h-13.7v-13.7h-13.7V1952z"/>
		<path class="st0" d="M-2129.6,1967h13.7v-13.7h68.7v27.5h-54.9v13.7h41.2v13.7h13.7v41.2h-13.7v13.7h-68.7v-27.5h54.9V2022h-41.2
			v-13.7h-13.7V1967z"/>
	</g>
	<g>
		<path class="st7" d="M-2225.7,1937.5h27.5v68.7h27.5v-68.7h27.5v82.4h-13.7v13.7h-13.7v13.7h-27.5v-13.7h-13.7v-13.7h-13.7V1937.5
			z"/>
		<path class="st7" d="M-2129.6,1952.6h13.7v-13.7h68.7v27.5h-54.9v13.7h41.2v13.7h13.7v41.2h-13.7v13.7h-68.7v-27.5h54.9v-13.7
			h-41.2v-13.7h-13.7V1952.6z"/>
	</g>
	<g>
		<path class="st4" d="M-2225.7,1924.1h27.5v68.7h27.5v-68.7h27.5v82.4h-13.7v13.7h-13.7v13.7h-27.5v-13.7h-13.7v-13.7h-13.7V1924.1
			z"/>
		<path class="st4" d="M-2129.6,1937.8h13.7v-13.7h68.7v27.5h-54.9v13.7h41.2v13.7h13.7v41.2h-13.7v13.7h-68.7v-27.5h54.9v-13.7
			h-41.2V1979h-13.7V1937.8z"/>
	</g>
</g>
<g>
	<g>
		<path class="st0" d="M-1651.3,1092.3h-21.6v-86.4h54v10.8h10.8v32.4h-10.8v10.8h-32.4V1092.3z M-1651.3,1038.3h21.6v-10.8h-21.6
			V1038.3z"/>
		<path class="st0" d="M-1597.3,1016.7h10.8v-10.8h43.2v10.8h10.8v64.8h-10.8v10.8h-43.2v-10.8h-10.8V1016.7z M-1575.7,1070.7h21.6
			v-43.2h-21.6V1070.7z"/>
		<path class="st0" d="M-1510.9,1081.5h-10.8v-75.6h21.6v64.8h43.2v21.6h-54V1081.5z"/>
		<path class="st0" d="M-1467.7,1005.9h21.6v32.4h21.6v-32.4h21.6v43.2h-10.8v10.8h-10.8v32.4h-21.6v-32.4h-10.8v-10.8h-10.8V1005.9
			z"/>
	</g>
	<g>
		<path class="st30" d="M-1651.3,1083.9h-21.6v-86.4h54v10.8h10.8v32.4h-10.8v10.8h-32.4V1083.9z M-1651.3,1029.9h21.6v-10.8h-21.6
			V1029.9z"/>
		<path class="st30" d="M-1597.3,1008.3h10.8v-10.8h43.2v10.8h10.8v64.8h-10.8v10.8h-43.2v-10.8h-10.8V1008.3z M-1575.7,1062.3h21.6
			v-43.2h-21.6V1062.3z"/>
		<path class="st30" d="M-1510.9,1073.1h-10.8v-75.6h21.6v64.8h43.2v21.6h-54V1073.1z"/>
		<path class="st30" d="M-1467.7,997.5h21.6v32.4h21.6v-32.4h21.6v43.2h-10.8v10.8h-10.8v32.4h-21.6v-32.4h-10.8v-10.8h-10.8V997.5z
			"/>
	</g>
	<g>
		<path class="st4" d="M-1651.3,1075.7h-21.6v-86.4h54v10.8h10.8v32.4h-10.8v10.8h-32.4V1075.7z M-1651.3,1021.7h21.6v-10.8h-21.6
			V1021.7z"/>
		<path class="st4" d="M-1597.3,1000.1h10.8v-10.8h43.2v10.8h10.8v64.8h-10.8v10.8h-43.2v-10.8h-10.8V1000.1z M-1575.7,1054.1h21.6
			v-43.2h-21.6V1054.1z"/>
		<path class="st4" d="M-1510.9,1064.9h-10.8v-75.6h21.6v64.8h43.2v21.6h-54V1064.9z"/>
		<path class="st4" d="M-1467.7,989.3h21.6v32.4h21.6v-32.4h21.6v43.2h-10.8v10.8h-10.8v32.4h-21.6v-32.4h-10.8v-10.8h-10.8V989.3z"
			/>
	</g>
</g>
<image style="overflow:visible;" width="843" height="1118" xlink:href="A195264A69F39953.jpg"  transform="matrix(0.24 0 0 0.24 -1882.4038 1139.496)">
</image>
<g>
	<g class="st1">
		<g>
			<polygon class="st0" points="-1324.5,775.8 -1324.5,862.3 -1223.2,862.3 -1223.2,850.7 -1235.9,850.7 -1235.9,838 -1248.6,838 
				-1248.6,825.4 -1261.2,825.4 -1261.2,812.7 -1248.6,812.7 -1248.6,800.1 -1235.9,800.1 -1235.9,787.4 -1223.2,787.4 
				-1223.2,775.8 			"/>
		</g>
		<polygon class="st0" points="-1309.7,837 -1324.5,861.2 -1324.4,837 		"/>
	</g>
	<rect x="-1812.7" y="752.9" class="st0" width="510.3" height="86.5"/>
	<rect x="-1336.1" y="830.9" class="st0" width="112.8" height="31.6"/>
	<g class="st1">
		<g>
			<polygon class="st0" points="-1804.8,776 -1804.8,862.5 -1906,862.5 -1906,850.9 -1893.4,850.9 -1893.4,838.2 -1880.7,838.2 
				-1880.7,825.6 -1868.1,825.6 -1868.1,812.9 -1880.7,812.9 -1880.7,800.2 -1893.4,800.2 -1893.4,787.6 -1906,787.6 -1906,776 			
				"/>
		</g>
		<polygon class="st0" points="-1819.6,837.1 -1804.8,861.4 -1804.8,837.1 		"/>
	</g>
	<g>
		<g>
			<polygon class="st2" points="-1324.5,765.6 -1324.5,852 -1223.2,852 -1223.2,840.4 -1235.9,840.4 -1235.9,827.8 -1248.6,827.8 
				-1248.6,815.1 -1261.2,815.1 -1261.2,802.5 -1248.6,802.5 -1248.6,789.8 -1235.9,789.8 -1235.9,777.2 -1223.2,777.2 
				-1223.2,765.6 			"/>
			<polygon class="st3" points="-1324.5,754 -1324.5,840.4 -1223.2,840.4 -1223.2,828.8 -1235.9,828.8 -1235.9,816.2 -1248.6,816.2 
				-1248.6,803.5 -1261.2,803.5 -1261.2,790.9 -1248.6,790.9 -1248.6,778.2 -1235.9,778.2 -1235.9,765.6 -1223.2,765.6 -1223.2,754 
							"/>
		</g>
		<polygon class="st2" points="-1309.7,826.7 -1324.5,851 -1324.4,826.7 		"/>
		<g>
			<g>
				<polygon class="st2" points="-1805.3,765.6 -1805.3,852 -1906.5,852 -1906.5,840.4 -1893.9,840.4 -1893.9,827.8 -1881.2,827.8 
					-1881.2,815.1 -1868.5,815.1 -1868.5,802.5 -1881.2,802.5 -1881.2,789.8 -1893.9,789.8 -1893.9,777.2 -1906.5,777.2 
					-1906.5,765.6 				"/>
				<polygon class="st3" points="-1805.3,754 -1805.3,840.4 -1906.5,840.4 -1906.5,828.8 -1893.9,828.8 -1893.9,816.2 
					-1881.2,816.2 -1881.2,803.5 -1868.5,803.5 -1868.5,790.9 -1881.2,790.9 -1881.2,778.2 -1893.9,778.2 -1893.9,765.6 
					-1906.5,765.6 -1906.5,754 				"/>
			</g>
			<polygon class="st2" points="-1820,826.7 -1805.3,851 -1805.3,826.7 			"/>
		</g>
		<g>
			<rect x="-1820" y="740.3" class="st2" width="510.3" height="86.5"/>
			<rect x="-1820" y="727.6" class="st3" width="510.3" height="86.5"/>
		</g>
	</g>
</g>
<g>
	<g>
		<path class="st25" d="M-1705.9,802.6h-37.4v-59.9h37.4v7.5h7.5v15h-7.5v15h7.5v15h-7.5V802.6z M-1728.4,765.1h15v-7.5h-15V765.1z
			 M-1728.4,787.6h15v-7.5h-15V787.6z"/>
		<path class="st25" d="M-1675.9,802.6h-15v-52.4h7.5v-7.5h30v7.5h7.5v52.4h-15v-22.5h-15V802.6z M-1661,765.1v-7.5h-15v7.5H-1661z"
			/>
		<path class="st25" d="M-1631,795.1h-7.5v-52.4h15v44.9h30v15h-37.4V795.1z"/>
		<path class="st25" d="M-1578.6,795.1h-7.5v-52.4h15v44.9h30v15h-37.4V795.1z"/>
		<path class="st25" d="M-1533.6,750.1h7.5v-7.5h30v7.5h7.5v44.9h-7.5v7.5h-30v-7.5h-7.5V750.1z M-1518.7,787.6h15v-30h-15V787.6z"
			/>
		<path class="st25" d="M-1481.2,750.1h7.5v-7.5h30v7.5h7.5v44.9h-7.5v7.5h-30v-7.5h-7.5V750.1z M-1466.2,787.6h15v-30h-15V787.6z"
			/>
		<path class="st25" d="M-1406.3,772.6h-7.5v30h-15v-59.9h15v7.5h7.5v7.5h7.5v-15h15v59.9h-15v-22.5h-7.5V772.6z"/>
	</g>
	<g>
		<path class="st22" d="M-1705.9,796.7h-37.4v-59.9h37.4v7.5h7.5v15h-7.5v15h7.5v15h-7.5V796.7z M-1728.4,759.3h15v-7.5h-15V759.3z
			 M-1728.4,781.8h15v-7.5h-15V781.8z"/>
		<path class="st22" d="M-1675.9,796.7h-15v-52.4h7.5v-7.5h30v7.5h7.5v52.4h-15v-22.5h-15V796.7z M-1661,759.3v-7.5h-15v7.5H-1661z"
			/>
		<path class="st22" d="M-1631,789.2h-7.5v-52.4h15v44.9h30v15h-37.4V789.2z"/>
		<path class="st22" d="M-1578.6,789.2h-7.5v-52.4h15v44.9h30v15h-37.4V789.2z"/>
		<path class="st22" d="M-1533.6,744.3h7.5v-7.5h30v7.5h7.5v44.9h-7.5v7.5h-30v-7.5h-7.5V744.3z M-1518.7,781.8h15v-30h-15V781.8z"
			/>
		<path class="st22" d="M-1481.2,744.3h7.5v-7.5h30v7.5h7.5v44.9h-7.5v7.5h-30v-7.5h-7.5V744.3z M-1466.2,781.8h15v-30h-15V781.8z"
			/>
		<path class="st22" d="M-1406.3,766.8h-7.5v30h-15v-59.9h15v7.5h7.5v7.5h7.5v-15h15v59.9h-15v-22.5h-7.5V766.8z"/>
	</g>
</g>
<g>
	<path class="st0" d="M-1214.3,949.3h20.7v6.9h-20.7V949.3z"/>
	<path class="st0" d="M-1159,966.6h-6.9v-27.6h17.3v3.5h3.5v10.4h-3.5v3.5h-10.4V966.6z M-1159,949.3h6.9v-3.5h-6.9V949.3z"/>
	<path class="st0" d="M-1131.3,956.2h-3.5v10.4h-6.9v-27.6h17.3v3.5h3.5v10.4h-3.5v3.5h3.5v10.4h-6.9v-6.9h-3.5V956.2z
		 M-1134.8,949.3h6.9v-3.5h-6.9V949.3z"/>
	<path class="st0" d="M-1114.1,963.1h-3.5v-20.7h3.5v-3.5h17.3v6.9h-13.8v3.5h6.9v6.9h-6.9v3.5h13.8v6.9h-17.3V963.1z"/>
	<path class="st0" d="M-1093.3,942.4h3.5v-3.5h17.3v6.9h-13.8v3.5h10.4v3.5h3.5v10.4h-3.5v3.5h-17.3v-6.9h13.8v-3.5h-10.4v-3.5h-3.5
		V942.4z"/>
	<path class="st0" d="M-1069.1,942.4h3.5v-3.5h17.3v6.9h-13.8v3.5h10.4v3.5h3.5v10.4h-3.5v3.5h-17.3v-6.9h13.8v-3.5h-10.4v-3.5h-3.5
		V942.4z"/>
	<path class="st0" d="M-1013.8,966.6h-6.9v-24.2h3.5v-3.5h13.8v3.5h3.5v24.2h-6.9v-10.4h-6.9V966.6z M-1006.9,949.3v-3.5h-6.9v3.5
		H-1006.9z"/>
	<path class="st0" d="M-986.2,952.7h-3.5v13.8h-6.9v-27.6h6.9v3.5h3.5v3.5h3.5v-6.9h6.9v27.6h-6.9v-10.4h-3.5V952.7z"/>
	<path class="st0" d="M-972.4,938.9h6.9v10.4h6.9v-10.4h6.9v13.8h-3.5v3.5h-3.5v10.4h-6.9v-10.4h-3.5v-3.5h-3.5V938.9z"/>
	<path class="st0" d="M-917.1,966.6h-6.9v-27.6h6.9v6.9h3.5v-3.5h3.5v-3.5h6.9v6.9h-3.5v3.5h-3.5v6.9h3.5v3.5h3.5v6.9h-6.9v-3.5
		h-3.5v-3.5h-3.5V966.6z"/>
	<path class="st0" d="M-896.3,963.1h-3.5v-20.7h3.5v-3.5h17.3v6.9h-13.8v3.5h6.9v6.9h-6.9v3.5h13.8v6.9h-17.3V963.1z"/>
	<path class="st0" d="M-875.6,938.9h6.9v10.4h6.9v-10.4h6.9v13.8h-3.5v3.5h-3.5v10.4h-6.9v-10.4h-3.5v-3.5h-3.5V938.9z"/>
	<path class="st0" d="M-827.2,938.9h20.7v6.9h-6.9v20.7h-6.9v-20.7h-6.9V938.9z"/>
	<path class="st0" d="M-803,942.4h3.5v-3.5h13.8v3.5h3.5v20.7h-3.5v3.5h-13.8v-3.5h-3.5V942.4z M-796.1,959.7h6.9v-13.8h-6.9V959.7z
		"/>
	<path class="st0" d="M-747.7,966.6h-6.9v-27.6h17.3v3.5h3.5v10.4h-3.5v3.5h-10.4V966.6z M-747.7,949.3h6.9v-3.5h-6.9V949.3z"/>
	<path class="st0" d="M-727,963.1h-3.5v-24.2h6.9v20.7h13.8v6.9H-727V963.1z"/>
	<path class="st0" d="M-699.3,966.6h-6.9v-24.2h3.5v-3.5h13.8v3.5h3.5v24.2h-6.9v-10.4h-6.9V966.6z M-692.4,949.3v-3.5h-6.9v3.5
		H-692.4z"/>
	<path class="st0" d="M-682.1,938.9h6.9v10.4h6.9v-10.4h6.9v13.8h-3.5v3.5h-3.5v10.4h-6.9v-10.4h-3.5v-3.5h-3.5V938.9z"/>
	<path class="st0" d="M-633.7,949.3h20.7v6.9h-20.7V949.3z"/>
</g>
<g>
	<path class="st30" d="M-1215.1,943.4h20.7v6.9h-20.7V943.4z"/>
	<path class="st30" d="M-1159.8,960.7h-6.9V933h17.3v3.5h3.5v10.4h-3.5v3.5h-10.4V960.7z M-1159.8,943.4h6.9v-3.5h-6.9V943.4z"/>
	<path class="st30" d="M-1132.2,950.3h-3.5v10.4h-6.9V933h17.3v3.5h3.5v10.4h-3.5v3.5h3.5v10.4h-6.9v-6.9h-3.5V950.3z
		 M-1135.7,943.4h6.9v-3.5h-6.9V943.4z"/>
	<path class="st30" d="M-1114.9,957.2h-3.5v-20.7h3.5V933h17.3v6.9h-13.8v3.5h6.9v6.9h-6.9v3.5h13.8v6.9h-17.3V957.2z"/>
	<path class="st30" d="M-1094.2,936.5h3.5V933h17.3v6.9h-13.8v3.5h10.4v3.5h3.5v10.4h-3.5v3.5h-17.3v-6.9h13.8v-3.5h-10.4v-3.5h-3.5
		V936.5z"/>
	<path class="st30" d="M-1070,936.5h3.5V933h17.3v6.9h-13.8v3.5h10.4v3.5h3.5v10.4h-3.5v3.5h-17.3v-6.9h13.8v-3.5h-10.4v-3.5h-3.5
		V936.5z"/>
	<path class="st30" d="M-1014.7,960.7h-6.9v-24.2h3.5V933h13.8v3.5h3.5v24.2h-6.9v-10.4h-6.9V960.7z M-1007.8,943.4v-3.5h-6.9v3.5
		H-1007.8z"/>
	<path class="st30" d="M-987,946.8h-3.5v13.8h-6.9V933h6.9v3.5h3.5v3.5h3.5V933h6.9v27.6h-6.9v-10.4h-3.5V946.8z"/>
	<path class="st30" d="M-973.2,933h6.9v10.4h6.9V933h6.9v13.8h-3.5v3.5h-3.5v10.4h-6.9v-10.4h-3.5v-3.5h-3.5V933z"/>
	<path class="st30" d="M-917.9,960.7h-6.9V933h6.9v6.9h3.5v-3.5h3.5V933h6.9v6.9h-3.5v3.5h-3.5v6.9h3.5v3.5h3.5v6.9h-6.9v-3.5h-3.5
		v-3.5h-3.5V960.7z"/>
	<path class="st30" d="M-897.2,957.2h-3.5v-20.7h3.5V933h17.3v6.9h-13.8v3.5h6.9v6.9h-6.9v3.5h13.8v6.9h-17.3V957.2z"/>
	<path class="st30" d="M-876.5,933h6.9v10.4h6.9V933h6.9v13.8h-3.5v3.5h-3.5v10.4h-6.9v-10.4h-3.5v-3.5h-3.5V933z"/>
	<path class="st30" d="M-828.1,933h20.7v6.9h-6.9v20.7h-6.9v-20.7h-6.9V933z"/>
	<path class="st30" d="M-803.9,936.5h3.5V933h13.8v3.5h3.5v20.7h-3.5v3.5h-13.8v-3.5h-3.5V936.5z M-797,953.8h6.9v-13.8h-6.9V953.8z
		"/>
	<path class="st30" d="M-748.6,960.7h-6.9V933h17.3v3.5h3.5v10.4h-3.5v3.5h-10.4V960.7z M-748.6,943.4h6.9v-3.5h-6.9V943.4z"/>
	<path class="st30" d="M-727.9,957.2h-3.5V933h6.9v20.7h13.8v6.9h-17.3V957.2z"/>
	<path class="st30" d="M-700.2,960.7h-6.9v-24.2h3.5V933h13.8v3.5h3.5v24.2h-6.9v-10.4h-6.9V960.7z M-693.3,943.4v-3.5h-6.9v3.5
		H-693.3z"/>
	<path class="st30" d="M-682.9,933h6.9v10.4h6.9V933h6.9v13.8h-3.5v3.5h-3.5v10.4h-6.9v-10.4h-3.5v-3.5h-3.5V933z"/>
	<path class="st30" d="M-634.5,943.4h20.7v6.9h-20.7V943.4z"/>
</g>
<g>
	<path class="st4" d="M-1215.1,939h20.7v6.9h-20.7V939z"/>
	<path class="st4" d="M-1159.8,956.3h-6.9v-27.6h17.3v3.5h3.5v10.4h-3.5v3.5h-10.4V956.3z M-1159.8,939h6.9v-3.5h-6.9V939z"/>
	<path class="st4" d="M-1132.2,945.9h-3.5v10.4h-6.9v-27.6h17.3v3.5h3.5v10.4h-3.5v3.5h3.5v10.4h-6.9v-6.9h-3.5V945.9z M-1135.7,939
		h6.9v-3.5h-6.9V939z"/>
	<path class="st4" d="M-1114.9,952.8h-3.5v-20.7h3.5v-3.5h17.3v6.9h-13.8v3.5h6.9v6.9h-6.9v3.5h13.8v6.9h-17.3V952.8z"/>
	<path class="st4" d="M-1094.2,932.1h3.5v-3.5h17.3v6.9h-13.8v3.5h10.4v3.5h3.5v10.4h-3.5v3.5h-17.3v-6.9h13.8v-3.5h-10.4v-3.5h-3.5
		V932.1z"/>
	<path class="st4" d="M-1070,932.1h3.5v-3.5h17.3v6.9h-13.8v3.5h10.4v3.5h3.5v10.4h-3.5v3.5h-17.3v-6.9h13.8v-3.5h-10.4v-3.5h-3.5
		V932.1z"/>
	<path class="st4" d="M-1014.7,956.3h-6.9v-24.2h3.5v-3.5h13.8v3.5h3.5v24.2h-6.9v-10.4h-6.9V956.3z M-1007.8,939v-3.5h-6.9v3.5
		H-1007.8z"/>
	<path class="st4" d="M-987,942.4h-3.5v13.8h-6.9v-27.6h6.9v3.5h3.5v3.5h3.5v-6.9h6.9v27.6h-6.9v-10.4h-3.5V942.4z"/>
	<path class="st4" d="M-973.2,928.6h6.9V939h6.9v-10.4h6.9v13.8h-3.5v3.5h-3.5v10.4h-6.9v-10.4h-3.5v-3.5h-3.5V928.6z"/>
	<path class="st4" d="M-917.9,956.3h-6.9v-27.6h6.9v6.9h3.5v-3.5h3.5v-3.5h6.9v6.9h-3.5v3.5h-3.5v6.9h3.5v3.5h3.5v6.9h-6.9v-3.5
		h-3.5v-3.5h-3.5V956.3z"/>
	<path class="st4" d="M-897.2,952.8h-3.5v-20.7h3.5v-3.5h17.3v6.9h-13.8v3.5h6.9v6.9h-6.9v3.5h13.8v6.9h-17.3V952.8z"/>
	<path class="st4" d="M-876.5,928.6h6.9V939h6.9v-10.4h6.9v13.8h-3.5v3.5h-3.5v10.4h-6.9v-10.4h-3.5v-3.5h-3.5V928.6z"/>
	<path class="st4" d="M-828.1,928.6h20.7v6.9h-6.9v20.7h-6.9v-20.7h-6.9V928.6z"/>
	<path class="st4" d="M-803.9,932.1h3.5v-3.5h13.8v3.5h3.5v20.7h-3.5v3.5h-13.8v-3.5h-3.5V932.1z M-797,949.3h6.9v-13.8h-6.9V949.3z
		"/>
	<path class="st4" d="M-748.6,956.3h-6.9v-27.6h17.3v3.5h3.5v10.4h-3.5v3.5h-10.4V956.3z M-748.6,939h6.9v-3.5h-6.9V939z"/>
	<path class="st4" d="M-727.9,952.8h-3.5v-24.2h6.9v20.7h13.8v6.9h-17.3V952.8z"/>
	<path class="st4" d="M-700.2,956.3h-6.9v-24.2h3.5v-3.5h13.8v3.5h3.5v24.2h-6.9v-10.4h-6.9V956.3z M-693.3,939v-3.5h-6.9v3.5
		H-693.3z"/>
	<path class="st4" d="M-682.9,928.6h6.9V939h6.9v-10.4h6.9v13.8h-3.5v3.5h-3.5v10.4h-6.9v-10.4h-3.5v-3.5h-3.5V928.6z"/>
	<path class="st4" d="M-634.5,939h20.7v6.9h-20.7V939z"/>
</g>
<path class="st31" d="M1535.7,228.1h-2.2h-10.8H1484h-12.9H-55.4h-12.9H-107h-12.9h-12.9v22.6v840.8v11.3v33.9v11.3v11.3h25.8
	h1578.2h12.9h38.7h10.8h2.2h12.9V228.1H1535.7z M1482,1134.7H-70.3h-12.9v-11.3h-12.9v-11.3H-109v-11.3V282.6v-11.3h12.9V260h12.9
	v-11.3h12.9H1482h12.9V260h12.9v11.3h12.9v11.3v818.2v11.3h-12.9v11.3h-12.9v11.3H1482z"/>
<path class="st32" d="M1546.7,236.9h-2.2h-10.8h-38.7h-12.9H-44.4h-12.9H-96h-12.9h-12.9v22.6v840.8v11.3v33.9v11.3v11.3H-96h1578.2
	h12.9h38.7h10.8h2.2h12.9V236.9H1546.7z M1533.8,293.4v818.2v11.3h-12.9v11.3H1508v11.3h-12.9H-57.3h-12.9v-11.3h-12.9v-11.3H-96
	v-11.3V293.4v-11.3h12.9v-11.3h12.9v-11.3h12.9H147h135.5h1212.7h12.9v11.3h12.9v11.3h12.9V293.4z"/>
<polygon class="st31" points="325.2,-117.8 325.2,-127.8 313.8,-127.8 -96.8,-127.8 -96.8,-31.8 313,-31.8 313,-41.8 313.8,-41.8 
	325.2,-41.8 325.2,-49.8 325.2,-51.9 336.5,-51.9 336.5,-59.9 336.5,-117.8 "/>
<polygon class="st32" points="324.6,-127.8 324.6,-137.8 313.3,-137.8 -109.5,-137.8 -109.5,-129.8 -109.5,-127.8 -120.8,-127.8 
	-120.8,-69.9 -109.6,-69.9 -109.6,-61.9 -109.5,-61.9 -109.5,-51.8 -97.4,-51.8 -97.4,-41.8 312.5,-41.8 312.5,-51.8 313.3,-51.8 
	324.6,-51.8 324.6,-59.8 324.6,-61.9 336,-61.9 336,-69.9 336,-127.8 "/>
<rect x="-182.8" y="87" class="st13" width="92.2" height="32.8"/>
<text transform="matrix(1 0 0 1 -161.6304 105.1272)" class="st4" style="font-family:'EditUndoBRK'; font-size:31.5429px;">DMG</text>
<g>
	<g>
		<polygon class="st22" points="17,121.3 271.7,121.3 271.7,103.3 17,103.3 17,103.5 17,108.5 10.1,108.5 10.1,116.2 17,116.2 
			17,121.3 		"/>
	</g>
	<polygon class="st22" points="280.4,108.5 280.4,103.4 280.4,103.3 224.7,103.3 224.7,121.3 280.4,121.3 280.4,121.2 280.4,116.2 
		287.3,116.2 287.3,108.5 	"/>
</g>
<g class="st33">
	<polygon class="st34" points="660.6,334.5 660.6,256.5 570.7,256.5 570.7,266.5 560.6,266.5 560.6,324.4 570.7,324.4 570.7,334.5 	
		"/>
	<polygon class="st34" points="895.7,265.5 895.7,255.5 885.6,255.5 803.6,255.5 803.6,333.5 885.6,333.5 895.7,333.5 895.7,323.4 
		905.7,323.4 905.7,265.5 	"/>
	<rect x="580.6" y="265.5" class="st34" width="305" height="78"/>
</g>
<g>
	<polygon class="st32" points="670.6,334.5 670.6,256.5 580.7,256.5 580.7,266.5 570.6,266.5 570.6,324.4 580.7,324.4 580.7,334.5 	
		"/>
	<polygon class="st32" points="660.6,324.5 660.6,246.5 570.7,246.5 570.7,256.5 560.6,256.5 560.6,314.4 570.7,314.4 570.7,324.5 	
		"/>
	<polygon class="st32" points="885.7,266.5 885.7,256.5 875.6,256.5 793.6,256.5 793.6,334.5 875.6,334.5 885.7,334.5 885.7,324.4 
		895.7,324.4 895.7,266.5 	"/>
	<polygon class="st32" points="895.7,256.5 895.7,246.5 885.6,246.5 803.6,246.5 803.6,324.5 885.6,324.5 895.7,324.5 895.7,314.4 
		905.7,314.4 905.7,256.5 	"/>
	<rect x="670.6" y="256.5" class="st32" width="123" height="78"/>
</g>
<g>
	<polygon class="st35" points="670.6,324.5 670.6,246.5 580.7,246.5 580.7,256.5 570.6,256.5 570.6,314.4 580.7,314.4 580.7,324.5 	
		"/>
	<polygon class="st35" points="885.7,256.5 885.7,246.5 875.6,246.5 807.6,246.5 807.6,324.5 875.6,324.5 885.7,324.5 885.7,314.4 
		895.7,314.4 895.7,256.5 	"/>
</g>
<rect x="655.6" y="246.5" class="st35" width="169" height="78"/>
<g>
	<rect x="650.6" y="278.7" class="st13" width="179" height="81.8"/>
	<text transform="matrix(1 0 0 1 672.7263 306.3502)" class="st4" style="font-family:'EditUndoBRK'; font-size:48px;">124 KM</text>
</g>
<g>
	<rect x="1536.2" y="256.5" class="st31" width="8" height="2"/>
	<polygon class="st31" points="1455.2,256.5 1455.2,266.5 1445.2,266.5 1445.2,324.4 1455.1,324.4 1455.1,334.4 1455.2,334.4 
		1455.2,334.5 1465.1,334.5 1465.1,344.5 1520.2,344.5 1520.2,256.5 	"/>
</g>
<polygon class="st32" points="1545.2,256.5 1545.2,246.5 1455.3,246.5 1455.3,256.5 1445.2,256.5 1445.2,314.4 1455.2,314.4 
	1455.2,324.4 1455.3,324.4 1455.3,324.5 1465.3,324.5 1465.3,334.5 1555.2,334.5 1555.2,256.5 "/>
<g>
	<g>
		<g>
			<polygon class="st2" points="1515.3,268 1509.9,268 1477.5,268 1477.5,273.3 1472.1,273.3 1472.1,311.1 1477.5,311.1 
				1477.5,316.5 1509.9,316.5 1515.3,316.5 1515.3,311.1 1520.6,311.1 1520.6,273.3 1515.3,273.3 			"/>
			<polygon class="st3" points="1515.6,262.2 1510.2,262.2 1477.5,262.2 1477.5,267.6 1472.1,267.6 1472.1,305.7 1477.5,305.7 
				1477.5,311 1510.2,311 1515.6,311 1515.6,305.7 1520.9,305.7 1520.9,267.6 1515.6,267.6 			"/>
		</g>
		<g>
			<rect x="1485" y="291.3" class="st4" width="24.2" height="4.8"/>
			<rect x="1485" y="280.2" class="st4" width="24.2" height="4.8"/>
		</g>
	</g>
	<g class="st33">
		<polygon class="st36" points="1477.5,316.6 1477.5,321.6 1482.9,321.6 1515.6,321.6 1515.6,316.6 1482.9,316.6 		"/>
		<rect x="1472.1" y="311.2" class="st36" width="5.4" height="5"/>
		<rect x="1515.6" y="311.2" class="st36" width="5.4" height="5"/>
	</g>
</g>
<polygon class="st22" points="61.1,5.3 61.1,0 47.6,0 47.1,0 34.2,0 33.6,0 20.7,0 20.2,0 6.7,0 6.7,5.2 0,5.2 0,12.9 6.7,12.9 
	6.7,18.1 7,18.1 12.9,18.1 14.1,18.1 19.9,18.1 20.2,18.1 20.5,18.1 20.7,18.1 26.4,18.1 27.5,18.1 33.4,18.1 33.6,18.1 34,18.1 
	34.2,18.1 39.9,18.1 41,18.1 46.9,18.1 47.1,18.1 47.5,18.1 47.6,18.1 53.3,18.1 54.5,18.1 60.4,18.1 61.1,18.1 61.1,12.9 
	67.4,12.9 67.4,5.3 "/>
<polygon class="st37" points="283.2,-231.6 283.2,-236.9 269.7,-236.9 269.2,-236.9 256.2,-236.9 255.7,-236.9 242.7,-236.9 
	242.2,-236.9 229.6,-236.9 228.7,-236.9 216.1,-236.9 215.6,-236.9 202.6,-236.9 202.1,-236.9 189.1,-236.9 188.6,-236.9 
	175.7,-236.9 175.1,-236.9 162.2,-236.9 161.7,-236.9 148.7,-236.9 148.2,-236.9 135.2,-236.9 134.7,-236.9 121.7,-236.9 
	121.2,-236.9 108.3,-236.9 107.7,-236.9 94.8,-236.9 94.3,-236.9 81.3,-236.9 80.8,-236.9 67.8,-236.9 67.3,-236.9 54.3,-236.9 
	53.8,-236.9 40.9,-236.9 40.3,-236.9 27.4,-236.9 26.9,-236.9 13.4,-236.9 13.4,-231.7 6.7,-231.7 6.7,-224 13.4,-224 13.4,-218.8 
	13.7,-218.8 19.6,-218.8 20.8,-218.8 26.7,-218.8 26.9,-218.8 27.2,-218.8 27.4,-218.8 33.1,-218.8 34.2,-218.8 40.1,-218.8 
	40.3,-218.8 40.7,-218.8 40.9,-218.8 46.6,-218.8 47.7,-218.8 53.6,-218.8 53.8,-218.8 54.2,-218.8 54.3,-218.8 60.1,-218.8 
	61.2,-218.8 67.1,-218.8 67.3,-218.8 67.6,-218.8 67.8,-218.8 73.5,-218.8 74.7,-218.8 80.6,-218.8 80.8,-218.8 81.1,-218.8 
	81.3,-218.8 87,-218.8 88.2,-218.8 94,-218.8 94.3,-218.8 94.6,-218.8 94.8,-218.8 100.5,-218.8 101.6,-218.8 107.5,-218.8 
	107.7,-218.8 108.1,-218.8 108.3,-218.8 114,-218.8 115.1,-218.8 121,-218.8 121.2,-218.8 121.6,-218.8 121.7,-218.8 127.4,-218.8 
	128.6,-218.8 134.5,-218.8 134.7,-218.8 135,-218.8 135.2,-218.8 140.9,-218.8 142.1,-218.8 148,-218.8 148.2,-218.8 148.5,-218.8 
	148.7,-218.8 154.4,-218.8 155.6,-218.8 161.4,-218.8 161.7,-218.8 162,-218.8 162.2,-218.8 167.9,-218.8 169,-218.8 174.9,-218.8 
	175.1,-218.8 175.5,-218.8 175.7,-218.8 181.4,-218.8 182.5,-218.8 188.4,-218.8 188.6,-218.8 188.9,-218.8 189.1,-218.8 
	194.8,-218.8 196,-218.8 201.9,-218.8 202.1,-218.8 202.4,-218.8 202.6,-218.8 208.3,-218.8 209.5,-218.8 215.3,-218.8 
	215.6,-218.8 215.9,-218.8 216.1,-218.8 221.8,-218.8 222.9,-218.8 228.7,-218.8 228.8,-218.8 229.1,-218.8 229.6,-218.8 
	234.9,-218.8 236.1,-218.8 242,-218.8 242.2,-218.8 242.5,-218.8 242.7,-218.8 248.4,-218.8 249.6,-218.8 255.5,-218.8 
	255.7,-218.8 256,-218.8 256.2,-218.8 261.9,-218.8 263.1,-218.8 268.9,-218.8 269.2,-218.8 269.5,-218.8 269.7,-218.8 
	275.4,-218.8 276.5,-218.8 282.4,-218.8 283.2,-218.8 283.2,-224 289.4,-224 289.4,-231.6 "/>
</svg>
