<!-- Generator: Adobe Illustrator 19.2.1, SVG Export Plug-In  -->
<svg version="1.1"
	 xmlns="http://www.w3.org/2000/svg" xmlns:xlink="http://www.w3.org/1999/xlink" xmlns:a="http://ns.adobe.com/AdobeSVGViewerExtensions/3.0/"
	 x="0px" y="0px" width="245.7px" height="148.6px" viewBox="0 0 245.7 148.6" style="enable-background:new 0 0 245.7 148.6;"
	 xml:space="preserve">
<style type="text/css">
	.st0{fill:#C6E0DE;}
	.st1{fill:#A7C6C3;}
</style>
<defs>
</defs>
<g>
	<g>
		<polygon class="st0" points="0,57 0,138.7 5.2,138.7 5.2,143.4 10.5,143.4 10.5,148.6 235.3,148.6 235.3,143.4 240.5,143.4
			240.5,138.7 245.7,138.7 245.7,57 		"/>
		<polygon class="st0" points="245.7,57 245.7,10 240.5,10 240.5,5.2 235.3,5.2 235.3,0 10.5,0 10.5,5.2 5.2,5.2 5.2,10 0,10 0,57
					"/>
	</g>
	<g>
		<polygon class="st1" points="5.2,10 10.5,10 10.5,5.2 5.2,5.2 5.2,10 0,10 0,14.8 5.2,14.8 		"/>
		<rect x="10.5" class="st1" width="224.8" height="4.8"/>
		<polygon class="st1" points="240.5,10 240.5,5.2 235.3,5.2 235.3,10 240.5,10 240.5,14.8 245.7,14.8 245.7,10 		"/>
	</g>
</g>
<g>
	<path d="M21.7,21.9h7.5v1.5h1.5v8.9h-1.5v1.5h-7.5V21.9z M24.7,30.8h3v-6h-3V30.8z"/>
	<path d="M36.6,29.3h-1.5v4.5h-3V23.4h1.5v-1.5h6v1.5h1.5v4.5h-1.5v1.5h1.5v4.5h-3v-3h-1.5C36.6,30.9,36.6,29.3,36.6,29.3z
		 M35.1,26.3h3v-1.5h-3V26.3z"/>
	<path d="M45.6,33.8h-3V23.4h1.5v-1.5h6v1.5h1.5v10.5h-3v-4.5h-3L45.6,33.8L45.6,33.8z M48.5,26.3v-1.5h-3v1.5H48.5z"/>
	<path d="M53,23.4h1.5v-1.5H62v3h-6v6h3v-1.5h-1.5v-3H62v6h-1.5v1.5h-6v-1.5H53C53,32.3,53,23.4,53,23.4z"/>
	<path d="M73.9,21.9h3v8.9h3v-8.9h3v10.5h-1.5v1.5h-6v-1.5h-1.5L73.9,21.9L73.9,21.9z"/>
	<path d="M84.3,23.4h1.5v-1.5h6v1.5h1.5v4.5h-1.5v1.5h-4.5v4.5h-3V23.4z M87.3,26.3h3v-1.5h-3V26.3z"/>
	<path d="M108.2,33.8h-3V23.4h1.5v-1.5h6v1.5h1.5v10.5h-3v-4.5h-3L108.2,33.8L108.2,33.8z M111.2,26.3v-1.5h-3v1.5H111.2z"/>
	<path d="M121.6,24.9h-3v8.9h-3V23.4h1.5v-1.5h6v1.5h1.5v10.5h-3L121.6,24.9L121.6,24.9z"/>
	<path d="M126.1,21.9h7.5v1.5h1.5v8.9h-1.5v1.5h-7.5V21.9z M129.1,30.8h3v-6h-3V30.8z"/>
	<path d="M147,21.9h7.5v1.5h1.5v8.9h-1.5v1.5H147V21.9z M150,30.8h3v-6h-3V30.8z"/>
	<path d="M157.5,23.4h1.5v-1.5h5.9v1.5h1.5v8.9h-1.5v1.5h-6v-1.5h-1.5L157.5,23.4L157.5,23.4z M160.5,30.8h3v-6h-3V30.8z"/>
	<path d="M167.9,21.9h3v8.9h1.5v-8.9h3v8.9h1.5v-8.9h3v10.5h-1.5v1.5h-8.9v-1.5h-1.5V21.9z"/>
	<path d="M187.3,24.9h-3v8.9h-3V23.4h1.5v-1.5h6v1.5h1.5v10.5h-3L187.3,24.9L187.3,24.9z"/>
	<path d="M202.2,21.9h8.9v3h-3v8.9h-3v-8.9h-3L202.2,21.9L202.2,21.9z"/>
	<path d="M212.7,23.4h1.5v-1.5h6v1.5h1.5v8.9h-1.5v1.5h-6v-1.5h-1.5V23.4z M215.7,30.8h3v-6h-3V30.8z"/>
	<path d="M46.3,57.2h-1.5v-8.9h1.5v-1.5h6v1.5h1.5v3h-3v-1.5h-3v6h3v-1.5h3v3h-1.5v1.5h-6V57.2z"/>
	<path d="M58.3,58.7h-3V46.8h3v4.5h3v-4.5h3v11.9h-3v-4.5h-2.9V58.7z"/>
	<path d="M68.7,58.7h-3V48.2h1.5v-1.5h6v1.5h1.5v10.5h-3v-4.5h-3L68.7,58.7L68.7,58.7z M71.7,51.2v-1.5h-3v1.5L71.7,51.2L71.7,51.2z
		"/>
	<path d="M82.1,49.7h-3v8.9h-3V48.2h1.5v-1.5h6v1.5h1.5v10.5h-3L82.1,49.7L82.1,49.7z"/>
	<path d="M86.6,48.2h1.5v-1.5h7.5v3h-6v6h3v-1.5h-1.5v-3h4.5v6H94v1.5h-6v-1.5h-1.5V48.2z"/>
	<path d="M98.5,57.2H97v-8.9h1.5v-1.5h7.5v3h-6v1.5h3v3h-3v1.5h6v3h-7.5V57.2z"/>
	<path d="M117.9,46.8h7.5v1.5h1.5v8.9h-1.5v1.5h-7.5V46.8z M120.9,55.7h3v-6h-3V55.7z"/>
	<path d="M128.4,46.8h3v11.9h-3V46.8z"/>
	<path d="M137.3,54.2h-1.5v4.5h-3V48.2h1.5v-1.5h6v1.5h1.5v4.5h-1.5v1.5h1.5v4.5h-3v-3h-1.5V54.2z M135.9,51.2h3v-1.5h-3V51.2z"/>
	<path d="M144.8,57.2h-1.5v-8.9h1.5v-1.5h7.5v3h-6v1.5h3v3h-3v1.5h6v3h-7.5V57.2z"/>
	<path d="M155.2,57.2h-1.5v-8.9h1.5v-1.5h6v1.5h1.5v3h-3v-1.5h-3v6h3v-1.5h3v3h-1.5v1.5h-6L155.2,57.2L155.2,57.2z"/>
	<path d="M164.2,46.8h8.9v3h-3v8.9h-3v-8.9h-3V46.8L164.2,46.8z"/>
	<path d="M174.6,46.8h3v11.9h-3V46.8z"/>
	<path d="M179.1,48.2h1.5v-1.5h6v1.5h1.5v8.9h-1.5v1.5h-6v-1.5h-1.5L179.1,48.2L179.1,48.2z M182.1,55.7h3v-6h-3V55.7z"/>
	<path d="M195.5,49.7h-3v8.9h-3V48.2h1.5v-1.5h6v1.5h1.5v10.5h-3L195.5,49.7L195.5,49.7z"/>
</g>
<g>
	<g>
		<rect x="100.2" y="77" width="3.5" height="3.5"/>
		<rect x="103.7" y="80.4" width="3.5" height="3.5"/>
		<rect x="107.1" y="83.9" width="3.5" height="3.5"/>
		<rect x="103.7" y="83.9" width="3.5" height="3.5"/>
		<rect x="100.2" y="83.9" width="3.5" height="3.5"/>
		<rect x="96.8" y="83.9" width="3.5" height="3.5"/>
		<rect x="93.3" y="83.9" width="3.5" height="3.5"/>
		<rect x="107.1" y="87.3" width="3.5" height="3.5"/>
		<rect x="110.6" y="87.3" width="3.5" height="3.5"/>
		<rect x="103.7" y="87.3" width="3.5" height="3.5"/>
		<rect x="100.2" y="87.3" width="3.5" height="3.5"/>
		<rect x="96.8" y="87.3" width="3.5" height="3.5"/>
		<rect x="93.3" y="87.3" width="3.5" height="3.5"/>
		<rect x="89.8" y="87.3" width="3.5" height="3.5"/>
		<rect x="107.1" y="90.8" width="3.5" height="3.5"/>
		<rect x="110.6" y="90.8" width="3.5" height="3.5"/>
		<rect x="114" y="90.8" width="3.5" height="3.5"/>
		<rect x="103.7" y="90.8" width="3.5" height="3.5"/>
		<rect x="100.2" y="90.8" width="3.5" height="3.5"/>
		<rect x="100.2" y="94.2" width="3.5" height="3.5"/>
		<rect x="100.2" y="97.7" width="3.5" height="3.5"/>
		<rect x="100.2" y="101.2" width="3.5" height="3.5"/>
		<rect x="100.2" y="104.6" width="3.5" height="3.5"/>
		<rect x="100.2" y="108.1" width="3.5" height="3.5"/>
		<rect x="100.2" y="111.5" width="3.5" height="3.5"/>
		<rect x="103.7" y="94.2" width="3.5" height="3.5"/>
		<rect x="103.7" y="97.7" width="3.5" height="3.5"/>
		<rect x="103.7" y="101.2" width="3.5" height="3.5"/>
		<rect x="103.7" y="104.6" width="3.5" height="3.5"/>
		<rect x="103.7" y="108.1" width="3.5" height="3.5"/>
		<rect x="103.7" y="111.5" width="3.5" height="3.5"/>
		<rect x="100.2" y="115" width="3.5" height="3.5"/>
		<rect x="96.8" y="94.2" width="3.5" height="3.5"/>
		<rect x="96.8" y="97.7" width="3.5" height="3.5"/>
		<rect x="96.8" y="101.2" width="3.5" height="3.5"/>
		<rect x="96.8" y="104.6" width="3.5" height="3.5"/>
		<rect x="96.8" y="108.1" width="3.5" height="3.5"/>
		<rect x="96.8" y="111.5" width="3.5" height="3.5"/>
		<rect x="96.8" y="115" width="3.5" height="3.5"/>
		<rect x="103.7" y="115" width="3.5" height="3.5"/>
		<rect x="96.8" y="90.8" width="3.5" height="3.5"/>
		<rect x="93.3" y="90.8" width="3.5" height="3.5"/>
		<rect x="89.8" y="90.8" width="3.5" height="3.5"/>
		<rect x="86.4" y="90.8" width="3.5" height="3.5"/>
		<rect x="100.2" y="80.4" width="3.5" height="3.5"/>
		<rect x="96.8" y="80.4" width="3.5" height="3.5"/>
	</g>
	<g>
		<rect x="137.7" y="128.8" width="3.5" height="3.5"/>
		<rect x="134.3" y="125.3" width="3.5" height="3.5"/>
		<rect x="130.8" y="121.9" width="3.5" height="3.5"/>
		<rect x="134.3" y="121.9" width="3.5" height="3.5"/>
		<rect x="137.7" y="121.9" width="3.5" height="3.5"/>
		<rect x="141.2" y="121.9" width="3.5" height="3.5"/>
		<rect x="144.6" y="121.9" width="3.5" height="3.5"/>
		<rect x="130.8" y="118.4" width="3.5" height="3.5"/>
		<rect x="127.4" y="118.4" width="3.5" height="3.5"/>
		<rect x="134.3" y="118.4" width="3.5" height="3.5"/>
		<rect x="137.7" y="118.4" width="3.5" height="3.5"/>
		<rect x="141.2" y="118.4" width="3.5" height="3.5"/>
		<rect x="144.6" y="118.4" width="3.5" height="3.5"/>
		<rect x="148.1" y="118.4" width="3.5" height="3.5"/>
		<rect x="130.8" y="115" width="3.5" height="3.5"/>
		<rect x="127.4" y="115" width="3.5" height="3.5"/>
		<rect x="123.9" y="115" width="3.5" height="3.5"/>
		<rect x="134.3" y="115" width="3.5" height="3.5"/>
		<rect x="137.7" y="115" width="3.5" height="3.5"/>
		<rect x="137.7" y="111.5" width="3.5" height="3.5"/>
		<rect x="137.7" y="108.1" width="3.5" height="3.5"/>
		<rect x="137.7" y="104.6" width="3.5" height="3.5"/>
		<rect x="137.7" y="101.2" width="3.5" height="3.5"/>
		<rect x="137.7" y="97.7" width="3.5" height="3.5"/>
		<rect x="137.7" y="94.2" width="3.5" height="3.5"/>
		<rect x="134.3" y="111.5" width="3.5" height="3.5"/>
		<rect x="134.3" y="108.1" width="3.5" height="3.5"/>
		<rect x="134.3" y="104.6" width="3.5" height="3.5"/>
		<rect x="134.3" y="101.2" width="3.5" height="3.5"/>
		<rect x="134.3" y="97.7" width="3.5" height="3.5"/>
		<rect x="134.3" y="94.2" width="3.5" height="3.5"/>
		<rect x="137.7" y="90.8" width="3.5" height="3.5"/>
		<rect x="141.2" y="111.5" width="3.5" height="3.5"/>
		<rect x="141.2" y="108.1" width="3.5" height="3.5"/>
		<rect x="141.2" y="104.6" width="3.5" height="3.5"/>
		<rect x="141.2" y="101.2" width="3.5" height="3.5"/>
		<rect x="141.2" y="97.7" width="3.5" height="3.5"/>
		<rect x="141.2" y="94.2" width="3.5" height="3.5"/>
		<rect x="141.2" y="90.8" width="3.5" height="3.5"/>
		<rect x="134.3" y="90.8" width="3.5" height="3.5"/>
		<rect x="141.2" y="115" width="3.5" height="3.5"/>
		<rect x="144.6" y="115" width="3.5" height="3.5"/>
		<rect x="148.1" y="115" width="3.5" height="3.5"/>
		<rect x="151.5" y="115" width="3.5" height="3.5"/>
		<rect x="137.7" y="125.3" width="3.5" height="3.5"/>
		<rect x="141.2" y="125.3" width="3.5" height="3.5"/>
	</g>
</g>
</svg>
