<?xml version="1.0" encoding="utf-8"?>
<!-- Generator: Adobe Illustrator 22.0.1, SVG Export Plug-In . SVG Version: 6.00 Build 0)  -->
<svg version="1.1" id="Layer_1" xmlns="http://www.w3.org/2000/svg" xmlns:xlink="http://www.w3.org/1999/xlink" x="0px" y="0px"
	 width="70px" height="70px" viewBox="0 0 70 70" style="enable-background:new 0 0 70 70;" xml:space="preserve">
<style type="text/css">
	.st0{fill:#5895B7;}
	.st1{opacity:0.8;}
	.st2{fill:#C17620;}
	.st3{fill:#F4C24A;}
	.st4{fill:#FFFFFF;}
	.st5{fill:#2A6FBA;}
	.st6{fill:#4ABAEF;}
	.st7{fill:#95C9C8;}
	.st8{fill:#DDEFEE;}
	.st9{fill:#1B8E6F;}
	.st10{fill:#3CEA8A;}
	.st11{opacity:0.4;fill:#666666;}
	.st12{fill:#33BC6E;}
	.st13{fill:none;}
	.st14{fill:#7149A4;}
	.st15{fill:#BD86E0;}
	.st16{opacity:0.4;fill:#666666;stroke:#666666;stroke-width:4;stroke-linejoin:bevel;stroke-miterlimit:10;}
	.st17{fill:#F2F2F2;}
	.st18{fill:#E6E6E6;}
	.st19{fill:none;stroke:#000000;stroke-width:4;stroke-linejoin:bevel;stroke-miterlimit:10;}
	.st20{fill:#C6E0DE;}
	.st21{fill:#A7C6C3;}
	.st22{fill:#EE3D53;}
	.st23{fill:none;stroke:#000000;stroke-width:2;stroke-miterlimit:10;}
	.st24{fill:#A17559;}
	.st25{fill:#910E46;}
	.st26{fill:#238D6F;}
	.st27{fill:#704CA2;}
	.st28{fill:#47E88D;}
	.st29{fill:#BC88DE;}
	.st30{fill:#CCCCCC;}
	.st31{fill:#5B2616;}
	.st32{opacity:0.38;fill:#2D3D3E;}
	.st33{opacity:0.38;}
	.st34{fill:#2D3D3E;}
	.st35{fill:#3F180F;}
	.st36{fill:#1A1A1A;}
	.st37{fill:#38140C;}
</style>
<g>
	<rect x="-2691" y="970" class="st0" width="484" height="82"/>
	<rect x="-2239" y="1044" class="st0" width="107" height="30"/>
	<g class="st1">
		<g>
			<polygon class="st0" points="-2675,990 -2675,1072 -2771,1072 -2771,1061 -2759,1061 -2759,1049 -2747,1049 -2747,1037 
				-2735,1037 -2735,1025 -2747,1025 -2747,1013 -2759,1013 -2759,1001 -2771,1001 -2771,990 			"/>
		</g>
		<polygon class="st0" points="-2689,1048 -2675,1071 -2675,1048 		"/>
	</g>
	<g>
		<g>
			<polygon class="st2" points="-2228,982 -2228,1064 -2132,1064 -2132,1053 -2144,1053 -2144,1041 -2156,1041 -2156,1029 
				-2168,1029 -2168,1017 -2156,1017 -2156,1005 -2144,1005 -2144,993 -2132,993 -2132,982 			"/>
			<polygon class="st3" points="-2228,971 -2228,1053 -2132,1053 -2132,1042 -2144,1042 -2144,1030 -2156,1030 -2156,1018 
				-2168,1018 -2168,1006 -2156,1006 -2156,994 -2144,994 -2144,982 -2132,982 -2132,971 			"/>
		</g>
		<polygon class="st2" points="-2214,1040 -2228,1063 -2228,1040 		"/>
		<g>
			<g>
				<polygon class="st2" points="-2684,982 -2684,1064 -2780,1064 -2780,1053 -2768,1053 -2768,1041 -2756,1041 -2756,1029 
					-2744,1029 -2744,1017 -2756,1017 -2756,1005 -2768,1005 -2768,993 -2780,993 -2780,982 				"/>
				<polygon class="st3" points="-2684,971 -2684,1053 -2780,1053 -2780,1042 -2768,1042 -2768,1030 -2756,1030 -2756,1018 
					-2744,1018 -2744,1006 -2756,1006 -2756,994 -2768,994 -2768,982 -2780,982 -2780,971 				"/>
			</g>
			<polygon class="st2" points="-2698,1040 -2684,1063 -2684,1040 			"/>
		</g>
		<g>
			<rect x="-2698" y="958" class="st2" width="484" height="82"/>
			<rect x="-2698" y="946" class="st3" width="484" height="82"/>
		</g>
	</g>
	<g>
		<path class="st4" d="M-2627.4,1005.8h-8.6v-34.6h8.6v13h8.6v-13h8.6v34.6h-8.6v-13h-8.6V1005.8z"/>
		<path class="st4" d="M-2605.8,975.6h4.3v-4.3h17.3v4.3h4.3v25.9h-4.3v4.3h-17.3v-4.3h-4.3V975.6z M-2597.1,997.2h8.6v-17.3h-8.6
			V997.2z"/>
		<path class="st4" d="M-2566.9,1005.8h-8.6v-34.6h8.6v17.3h4.3v-4.3h4.3v4.3h4.3v-17.3h8.6v34.6h-8.6v-4.3h-4.3v-4.3h-4.3v4.3h-4.3
			V1005.8z"/>
		<path class="st4" d="M-2510.7,971.2h25.9v8.6h-8.6v25.9h-8.6v-25.9h-8.6V971.2z"/>
		<path class="st4" d="M-2480.5,975.6h4.3v-4.3h17.3v4.3h4.3v25.9h-4.3v4.3h-17.3v-4.3h-4.3V975.6z M-2471.9,997.2h8.6v-17.3h-8.6
			V997.2z"/>
		<path class="st4" d="M-2411.4,1005.8h-8.6v-34.6h21.6v4.3h4.3v13h-4.3v4.3h-13V1005.8z M-2411.4,984.2h8.6v-4.3h-8.6V984.2z"/>
		<path class="st4" d="M-2385.5,1001.5h-4.3v-30.2h8.6v25.9h17.3v8.6h-21.6V1001.5z"/>
		<path class="st4" d="M-2350.9,1005.8h-8.6v-30.2h4.3v-4.3h17.3v4.3h4.3v30.2h-8.6v-13h-8.6V1005.8z M-2342.3,984.2v-4.3h-8.6v4.3
			H-2342.3z"/>
		<path class="st4" d="M-2329.3,971.2h8.6v13h8.6v-13h8.6v17.3h-4.3v4.3h-4.3v13h-8.6v-13h-4.3v-4.3h-4.3V971.2z"/>
	</g>
</g>
<polygon class="st5" points="-2522,1239 -2534,1239 -2607,1239 -2607,1251 -2619,1251 -2619,1336 -2607,1336 -2607,1348 -2534,1348 
	-2522,1348 -2522,1336 -2510,1336 -2510,1251 -2522,1251 "/>
<polygon class="st5" points="-2522,1239 -2534,1239 -2607,1239 -2607,1251 -2619,1251 -2619,1336 -2607,1336 -2607,1348 -2534,1348 
	-2522,1348 -2522,1336 -2510,1336 -2510,1251 -2522,1251 "/>
<g>
	<path class="st4" d="M-2582.4,1273.2h28.4v5.7h5.7v17.1h-5.7v5.7h-17.1v-11.4h11.4v-5.7h-22.8V1273.2z M-2571,1307.4h11.4v11.4
		h-11.4V1307.4z"/>
</g>
<polygon class="st5" points="-2371,1239 -2383,1239 -2456,1239 -2456,1251 -2468,1251 -2468,1336 -2456,1336 -2456,1348 -2383,1348 
	-2371,1348 -2371,1336 -2359,1336 -2359,1251 -2371,1251 "/>
<polygon class="st6" points="-2371,1229 -2383,1229 -2456,1229 -2456,1241 -2468,1241 -2468,1326 -2456,1326 -2456,1338 -2383,1338 
	-2371,1338 -2371,1326 -2359,1326 -2359,1241 -2371,1241 "/>
<g>
	<path class="st4" d="M-2431.4,1263.2h28.4v5.7h5.7v17.1h-5.7v5.7h-17.1v-11.4h11.4v-5.7h-22.8V1263.2z M-2420,1297.4h11.4v11.4
		h-11.4V1297.4z"/>
</g>
<g>
	<polygon class="st0" points="-1336,1083.5 -1347.6,1083.5 -1347.6,1071.9 -1359.1,1071.9 -1359.1,1059.1 -1857.9,1059.1 
		-1857.9,1071.9 -1869.4,1071.9 -1869.4,1083.5 -1881,1083.5 -1881,1768.3 -1869.4,1768.3 -1869.4,1779.9 -1857.9,1779.9 
		-1857.9,1792.7 -1359.1,1792.7 -1359.1,1779.9 -1347.6,1779.9 -1347.6,1768.3 -1336,1768.3 	"/>
	<polygon class="st7" points="-1336,1071.5 -1347.6,1071.5 -1347.6,1059.9 -1359.1,1059.9 -1359.1,1047.1 -1857.9,1047.1 
		-1857.9,1059.9 -1869.4,1059.9 -1869.4,1071.5 -1881,1071.5 -1881,1756.2 -1869.4,1756.2 -1869.4,1767.9 -1857.9,1767.9 
		-1857.9,1780.7 -1359.1,1780.7 -1359.1,1767.9 -1347.6,1767.9 -1347.6,1756.2 -1336,1756.2 	"/>
	<polygon class="st8" points="-1336,1059.5 -1347.6,1059.5 -1347.6,1047.8 -1359.1,1047.8 -1359.1,1035 -1857.9,1035 
		-1857.9,1047.8 -1869.4,1047.8 -1869.4,1059.5 -1881,1059.5 -1881,1744.2 -1869.4,1744.2 -1869.4,1755.8 -1857.9,1755.8 
		-1857.9,1768.7 -1359.1,1768.7 -1359.1,1755.8 -1347.6,1755.8 -1347.6,1744.2 -1336,1744.2 	"/>
</g>
<g>
	<polygon class="st0" points="-2822,-909 -2826.1,-909 -2826.1,-913.1 -2830.1,-913.1 -2830.1,-917.7 -3006.4,-917.7 
		-3006.4,-913.1 -3010.4,-913.1 -3010.4,-909 -3014.5,-909 -3014.5,-667.1 -3010.4,-667.1 -3010.4,-663 -3006.4,-663 
		-3006.4,-658.4 -2830.1,-658.4 -2830.1,-663 -2826.1,-663 -2826.1,-667.1 -2822,-667.1 	"/>
	<polygon class="st7" points="-2822,-913.3 -2826.1,-913.3 -2826.1,-917.4 -2830.1,-917.4 -2830.1,-921.9 -3006.4,-921.9 
		-3006.4,-917.4 -3010.4,-917.4 -3010.4,-913.3 -3014.5,-913.3 -3014.5,-671.3 -3010.4,-671.3 -3010.4,-667.2 -3006.4,-667.2 
		-3006.4,-662.7 -2830.1,-662.7 -2830.1,-667.2 -2826.1,-667.2 -2826.1,-671.3 -2822,-671.3 	"/>
	<polygon class="st8" points="-2822,-917.5 -2826.1,-917.5 -2826.1,-921.6 -2830.1,-921.6 -2830.1,-926.2 -3006.4,-926.2 
		-3006.4,-921.6 -3010.4,-921.6 -3010.4,-917.5 -3014.5,-917.5 -3014.5,-675.6 -3010.4,-675.6 -3010.4,-671.5 -3006.4,-671.5 
		-3006.4,-666.9 -2830.1,-666.9 -2830.1,-671.5 -2826.1,-671.5 -2826.1,-675.6 -2822,-675.6 	"/>
</g>
<g>
	<polygon class="st9" points="-2385,719 -2395,719 -2769.9,719 -2769.9,729.1 -2780,729.1 -2780,787 -2769.9,787 -2769.9,797 
		-2395,797 -2385,797 -2385,787 -2374.9,787 -2374.9,729.1 -2385,729.1 	"/>
	<polygon class="st10" points="-2385,709 -2395,709 -2769.9,709 -2769.9,719.1 -2780,719.1 -2780,777 -2769.9,777 -2769.9,787 
		-2395,787 -2385,787 -2385,777 -2374.9,777 -2374.9,719.1 -2385,719.1 	"/>
	<g>
		<path class="st4" d="M-2659.9,759.9h-6.9v-27.6h17.3v3.5h3.5v10.4h-3.5v3.5h-10.4V759.9z M-2659.9,742.6h6.9v-3.5h-6.9V742.6z"/>
		<path class="st4" d="M-2639.2,756.5h-3.5v-24.2h6.9V753h13.8v6.9h-17.3V756.5z"/>
		<path class="st4" d="M-2611.6,759.9h-6.9v-24.2h3.5v-3.5h13.8v3.5h3.5v24.2h-6.9v-10.4h-6.9V759.9z M-2604.6,742.6v-3.5h-6.9v3.5
			H-2604.6z"/>
		<path class="st4" d="M-2594.3,732.3h6.9v10.4h6.9v-10.4h6.9v13.8h-3.5v3.5h-3.5v10.4h-6.9v-10.4h-3.5v-3.5h-3.5V732.3z"/>
		<path class="st4" d="M-2566.6,756.5h-3.5v-20.7h3.5v-3.5h17.3v6.9h-13.8v3.5h6.9v6.9h-6.9v3.5h13.8v6.9h-17.3V756.5z"/>
		<path class="st4" d="M-2535.5,749.5h-3.5v10.4h-6.9v-27.6h17.3v3.5h3.5v10.4h-3.5v3.5h3.5v10.4h-6.9V753h-3.5V749.5z M-2539,742.6
			h6.9v-3.5h-6.9V742.6z"/>
		<path class="st4" d="M-2497.5,732.3h6.9v27.6h-6.9V732.3z"/>
	</g>
</g>
<g>
	<polygon class="st11" points="-2745.8,598.4 -2747.8,592.7 -2751.8,580.6 -2769.6,586.7 -2767.7,592.4 -2773.5,594.4 
		-2769.4,606.4 -2763.6,604.5 -2761.7,610.2 -2749.6,606.2 -2751.6,600.4 	"/>
	<polygon class="st11" points="-2707,586.4 -2709,580.6 -2713,568.6 -2730.8,574.6 -2728.9,580.4 -2734.7,582.3 -2730.6,594.4 
		-2724.8,592.4 -2722.9,598.2 -2710.8,594.1 -2712.8,588.3 	"/>
	<rect x="-2766.6" y="539.4" transform="matrix(0.9472 -0.3207 0.3207 0.9472 -325.158 -856.6597)" width="7.1" height="38.6"/>
	<polygon points="-2747.4,593.6 -2749.4,587.9 -2753.5,575.8 -2771.3,581.9 -2769.3,587.6 -2775.1,589.6 -2771,601.6 -2765.2,599.7 
		-2763.3,605.4 -2751.3,601.4 -2753.2,595.6 	"/>
	<rect x="-2728.1" y="526.4" transform="matrix(0.9472 -0.3207 0.3207 0.9472 -318.948 -845.01)" width="7.1" height="38.6"/>
	<polygon points="-2709,580.6 -2710.9,574.8 -2715,562.8 -2732.8,568.8 -2730.8,574.6 -2736.6,576.6 -2732.5,588.6 -2726.8,586.6 
		-2724.8,592.4 -2712.8,588.3 -2714.7,582.6 	"/>
	<rect x="-2776.6" y="517.1" transform="matrix(0.9472 -0.3207 0.3207 0.9472 -314.0438 -855.1042)" width="47.7" height="17.3"/>
</g>
<g>
	<polygon class="st11" points="-2679.6,632 -2678.7,627.9 -2676.8,619.2 -2689.6,616.4 -2690.5,620.6 -2694.6,619.6 -2696.6,628.3 
		-2692.4,629.2 -2693.3,633.4 -2684.7,635.3 -2683.8,631.1 	"/>
	<polygon class="st11" points="-2652.1,638.8 -2651.2,634.6 -2649.3,626 -2662.1,623.2 -2663,627.3 -2667.1,626.4 -2669,635.1 
		-2664.9,636 -2665.8,640.1 -2657.2,642 -2656.2,637.9 	"/>
	<rect x="-2678" y="588.6" transform="matrix(0.9766 0.2149 -0.2149 0.9766 66.8789 589.0125)" width="5" height="26.9"/>
	<polygon points="-2678.8,628.6 -2677.9,624.4 -2676,615.8 -2688.8,613 -2689.7,617.1 -2693.9,616.2 -2695.8,624.8 -2691.6,625.7 
		-2692.6,629.9 -2683.9,631.8 -2683,627.6 	"/>
	<rect x="-2650.4" y="594.7" transform="matrix(0.9766 0.2149 -0.2149 0.9766 68.833 583.2105)" width="5" height="26.9"/>
	<polygon points="-2651.2,634.6 -2650.3,630.5 -2648.4,621.9 -2661.2,619 -2662.1,623.2 -2666.2,622.3 -2668.1,630.9 -2664,631.8 
		-2664.9,636 -2656.2,637.9 -2655.3,633.7 	"/>
	<rect x="-2674.2" y="580.1" transform="matrix(0.9766 0.2149 -0.2149 0.9766 63.8671 584.7681)" width="33.3" height="12"/>
</g>
<g>
	<polygon class="st11" points="-2603.6,570.2 -2604.3,567.2 -2605.7,560.8 -2615.1,562.9 -2614.4,566 -2617.4,566.6 -2616,573 
		-2613,572.3 -2612.3,575.4 -2606,573.9 -2606.6,570.9 	"/>
	<polygon class="st11" points="-2583.2,566.2 -2583.8,563.2 -2585.3,556.8 -2594.6,558.9 -2594,562 -2597,562.6 -2595.6,569 
		-2592.6,568.3 -2591.9,571.3 -2585.5,569.9 -2586.2,566.9 	"/>
	<rect x="-2612" y="539.2" transform="matrix(0.9761 -0.2173 0.2173 0.9761 -181.6627 -554.038)" width="3.6" height="19.8"/>
	<polygon points="-2604.2,567.7 -2604.8,564.6 -2606.2,558.3 -2615.6,560.4 -2615,563.4 -2618,564.1 -2616.6,570.5 -2613.5,569.8 
		-2612.9,572.8 -2606.5,571.4 -2607.2,568.4 	"/>
	<rect x="-2591.7" y="534.6" transform="matrix(0.9761 -0.2173 0.2173 0.9761 -180.1952 -549.7333)" width="3.6" height="19.8"/>
	<polygon points="-2583.8,563.2 -2584.5,560.1 -2585.9,553.8 -2595.3,555.9 -2594.6,558.9 -2597.7,559.6 -2596.3,565.9 
		-2593.2,565.3 -2592.6,568.3 -2586.2,566.9 -2586.9,563.8 	"/>
	<rect x="-2615.3" y="528.4" transform="matrix(0.9761 -0.2173 0.2173 0.9761 -177.9694 -552.8946)" width="24.4" height="8.8"/>
</g>
<g>
	<polygon class="st11" points="-2583,616 -2580.4,611.9 -2574.9,603.3 -2587.6,595.2 -2590.2,599.4 -2594.3,596.7 -2599.8,605.3 
		-2595.7,607.9 -2598.3,612 -2589.7,617.5 -2587.1,613.4 	"/>
	<polygon class="st11" points="-2556,634.1 -2553.4,630 -2547.9,621.4 -2560.6,613.4 -2563.2,617.5 -2567.3,614.9 -2572.8,623.4 
		-2568.7,626 -2571.3,630.2 -2562.7,635.6 -2560.1,631.5 	"/>
	<rect x="-2569.7" y="569.9" transform="matrix(0.844 0.5363 -0.5363 0.844 -86.4607 1467.9272)" width="5.7" height="30.9"/>
	<polygon points="-2580.8,612.6 -2578.2,608.4 -2572.7,599.9 -2585.4,591.8 -2588,595.9 -2592.2,593.3 -2597.6,601.9 -2593.5,604.5 
		-2596.1,608.6 -2587.5,614.1 -2584.9,609.9 	"/>
	<rect x="-2542.3" y="587.3" transform="matrix(0.844 0.5363 -0.5363 0.844 -72.8363 1455.9364)" width="5.7" height="30.9"/>
	<polygon points="-2553.4,630 -2550.8,625.9 -2545.3,617.3 -2558,609.2 -2560.6,613.4 -2564.7,610.7 -2570.2,619.3 -2566.1,621.9 
		-2568.7,626 -2560.1,631.5 -2557.5,627.4 	"/>
	<rect x="-2560.3" y="568.3" transform="matrix(0.844 0.5363 -0.5363 0.844 -87.8922 1452.5651)" width="38.2" height="13.8"/>
</g>
<g>
	<polygon class="st9" points="-2861.7,175.6 -2868.3,175.6 -3114.7,175.6 -3114.7,182.2 -3121.3,182.2 -3121.3,220.2 -3114.7,220.2 
		-3114.7,226.8 -2868.3,226.8 -2861.7,226.8 -2861.7,220.2 -2855.1,220.2 -2855.1,182.2 -2861.7,182.2 	"/>
	<polygon class="st12" points="-2861.7,175.6 -2868.3,175.6 -3114.7,175.6 -3114.7,182.2 -3121.3,182.2 -3121.3,220.2 
		-3114.7,220.2 -3114.7,226.8 -2868.3,226.8 -2861.7,226.8 -2861.7,220.2 -2855.1,220.2 -2855.1,182.2 -2861.7,182.2 	"/>
	<g>
		<path class="st4" d="M-3054.9,193.1h2.3v-2.3h11.4v4.5h-9.1v9.1h9.1v4.5h-11.4v-2.3h-2.3V193.1z"/>
		<path class="st4" d="M-3034.5,209h-4.5v-15.9h2.3v-2.3h9.1v2.3h2.3V209h-4.5v-6.8h-4.5V209z M-3029.9,197.7v-2.3h-4.5v2.3H-3029.9
			z"/>
		<path class="st4" d="M-3020.9,206.7h-2.3v-15.9h4.5v13.6h9.1v4.5h-11.4V206.7z"/>
		<path class="st4" d="M-3007.2,190.8h4.5V209h-4.5V190.8z"/>
		<path class="st4" d="M-3000.4,190.8h11.4v2.3h2.3v13.6h-2.3v2.3h-11.4V190.8z M-2995.9,197.7h4.5v-2.3h-4.5V197.7z M-2995.9,204.5
			h4.5v-2.3h-4.5V204.5z"/>
		<path class="st4" d="M-2977.7,202.2h-2.3v6.8h-4.5v-15.9h2.3v-2.3h9.1v2.3h2.3v6.8h-2.3v2.3h2.3v6.8h-4.5v-4.5h-2.3V202.2z
			 M-2980,197.7h4.5v-2.3h-4.5V197.7z"/>
		<path class="st4" d="M-2964.1,209h-4.5v-15.9h2.3v-2.3h9.1v2.3h2.3V209h-4.5v-6.8h-4.5V209z M-2959.5,197.7v-2.3h-4.5v2.3H-2959.5
			z"/>
		<path class="st4" d="M-2952.7,190.8h13.6v4.5h-4.5V209h-4.5v-13.6h-4.5V190.8z"/>
		<path class="st4" d="M-2934.6,206.7h-2.3v-13.6h2.3v-2.3h11.4v4.5h-9.1v2.3h4.5v4.5h-4.5v2.3h9.1v4.5h-11.4V206.7z"/>
	</g>
</g>
<g>
	<polygon class="st9" points="-2541.7,243.6 -2548.3,243.6 -2794.7,243.6 -2794.7,250.2 -2801.3,250.2 -2801.3,288.2 -2794.7,288.2 
		-2794.7,294.8 -2548.3,294.8 -2541.7,294.8 -2541.7,288.2 -2535.1,288.2 -2535.1,250.2 -2541.7,250.2 	"/>
	<polygon class="st10" points="-2541.7,237 -2548.3,237 -2794.7,237 -2794.7,243.6 -2801.3,243.6 -2801.3,281.6 -2794.7,281.6 
		-2794.7,288.3 -2548.3,288.3 -2541.7,288.3 -2541.7,281.6 -2535.1,281.6 -2535.1,243.6 -2541.7,243.6 	"/>
	<g>
		<path class="st4" d="M-2734.9,254.5h2.3v-2.3h11.4v4.5h-9.1v9.1h9.1v4.5h-11.4v-2.3h-2.3V254.5z"/>
		<path class="st4" d="M-2714.5,270.4h-4.5v-15.9h2.3v-2.3h9.1v2.3h2.3v15.9h-4.5v-6.8h-4.5V270.4z M-2709.9,259.1v-2.3h-4.5v2.3
			H-2709.9z"/>
		<path class="st4" d="M-2700.9,268.2h-2.3v-15.9h4.5v13.6h9.1v4.5h-11.4V268.2z"/>
		<path class="st4" d="M-2687.2,252.3h4.5v18.2h-4.5V252.3z"/>
		<path class="st4" d="M-2680.4,252.3h11.4v2.3h2.3v13.6h-2.3v2.3h-11.4V252.3z M-2675.9,259.1h4.5v-2.3h-4.5V259.1z M-2675.9,265.9
			h4.5v-2.3h-4.5V265.9z"/>
		<path class="st4" d="M-2657.7,263.6h-2.3v6.8h-4.5v-15.9h2.3v-2.3h9.1v2.3h2.3v6.8h-2.3v2.3h2.3v6.8h-4.5v-4.5h-2.3V263.6z
			 M-2660,259.1h4.5v-2.3h-4.5V259.1z"/>
		<path class="st4" d="M-2644.1,270.4h-4.5v-15.9h2.3v-2.3h9.1v2.3h2.3v15.9h-4.5v-6.8h-4.5V270.4z M-2639.5,259.1v-2.3h-4.5v2.3
			H-2639.5z"/>
		<path class="st4" d="M-2632.7,252.3h13.6v4.5h-4.5v13.6h-4.5v-13.6h-4.5V252.3z"/>
		<path class="st4" d="M-2614.6,268.2h-2.3v-13.6h2.3v-2.3h11.4v4.5h-9.1v2.3h4.5v4.5h-4.5v2.3h9.1v4.5h-11.4V268.2z"/>
	</g>
</g>
<g>
	<rect x="-2799.7" y="325.9" class="st9" width="219.8" height="28.8"/>
	<rect x="-2804.6" y="319.4" class="st9" width="229.4" height="30.6"/>
	<polygon class="st10" points="-2804.6,315 -2804.6,344.3 -2799.7,344.3 -2799.7,350 -2580,350 -2580,344.3 -2575.2,344.3 
		-2575.2,315 	"/>
</g>
<polygon class="st9" points="-2584.8,329.9 -2584.8,324.8 -2589.9,324.8 -2589.9,324.7 -2646.5,324.7 -2677.1,324.7 -2702.7,324.7 
	-2726.5,324.7 -2789.9,324.7 -2789.9,324.7 -2795,324.7 -2795,329.8 -2800.1,329.8 -2800.1,337.5 -2795,337.5 -2795,342.6 
	-2789.9,342.6 -2789.9,342.7 -2726.5,342.7 -2702.7,342.7 -2677.1,342.7 -2646.5,342.7 -2589.9,342.7 -2589.9,342.6 -2584.8,342.6 
	-2584.8,337.5 -2579.7,337.5 -2579.7,329.9 "/>
<g>
	<rect x="-2808.7" y="423.9" class="st13" width="4.7" height="0.1"/>
	<rect x="-2808.7" y="441.8" class="st13" width="4.7" height="0.1"/>
	<polygon class="st4" points="-2787.7,441.9 -2787.7,436.8 -2782.6,436.8 -2782.6,429.1 -2787.7,429.1 -2787.7,424 -2792.8,424 
		-2792.8,423.9 -2804,423.9 -2804,424 -2808.7,424 -2808.7,441.8 -2804,441.8 -2804,441.9 -2792.8,441.9 -2792.8,441.9 	"/>
</g>
<g>
	<polygon class="st4" points="-2834.5,388.4 -2834.5,383.3 -2839.6,383.3 -2839.6,383.2 -2855.5,383.2 -2855.5,401.2 -2839.6,401.2 
		-2839.6,401.1 -2834.5,401.1 -2834.5,396 -2829.4,396 -2829.4,388.4 	"/>
	<polygon class="st4" points="-2848,427.2 -2848,422.1 -2848,422.1 -2848,422 -2852.5,422 -2853.1,422 -2857.6,422 -2857.6,422.1 
		-2857.6,422.1 -2857.6,427.2 -2862.7,427.2 -2862.7,434.8 -2857.6,434.8 -2857.6,439.9 -2857.6,439.9 -2857.6,440 -2853.1,440 
		-2852.5,440 -2848,440 -2848,440 -2848,440 -2848,434.9 -2842.9,434.9 -2842.9,427.2 	"/>
</g>
<polygon class="st4" points="-2897.8,329.9 -2897.8,324.8 -2897.8,324.8 -2897.8,324.7 -2902.3,324.7 -2902.9,324.7 -2907.4,324.7 
	-2907.4,324.7 -2907.4,324.7 -2907.4,329.8 -2912.5,329.8 -2912.5,337.5 -2907.4,337.5 -2907.4,342.6 -2907.4,342.6 -2907.4,342.7 
	-2902.9,342.7 -2902.3,342.7 -2897.8,342.7 -2897.8,342.6 -2897.8,342.6 -2897.8,337.5 -2892.7,337.5 -2892.7,329.9 "/>
<polygon class="st14" points="-1932,719 -1942,719 -2316.9,719 -2316.9,729.1 -2327,729.1 -2327,787 -2316.9,787 -2316.9,797 
	-1942,797 -1932,797 -1932,787 -1921.9,787 -1921.9,729.1 -1932,729.1 "/>
<polygon class="st15" points="-1932,709 -1942,709 -2316.9,709 -2316.9,719.1 -2327,719.1 -2327,777 -2316.9,777 -2316.9,787 
	-1942,787 -1932,787 -1932,777 -1921.9,777 -1921.9,719.1 -1932,719.1 "/>
<g>
	<path class="st4" d="M-2214.4,759.9h-6.9v-27.6h17.3v3.5h3.5v10.4h-3.5v3.5h-10.4V759.9z M-2214.4,742.6h6.9v-3.5h-6.9V742.6z"/>
	<path class="st4" d="M-2193.6,756.5h-3.5v-24.2h6.9V753h13.8v6.9h-17.3V756.5z"/>
	<path class="st4" d="M-2166,759.9h-6.9v-24.2h3.5v-3.5h13.8v3.5h3.5v24.2h-6.9v-10.4h-6.9V759.9z M-2159.1,742.6v-3.5h-6.9v3.5
		H-2159.1z"/>
	<path class="st4" d="M-2148.7,732.3h6.9v10.4h6.9v-10.4h6.9v13.8h-3.5v3.5h-3.5v10.4h-6.9v-10.4h-3.5v-3.5h-3.5V732.3z"/>
	<path class="st4" d="M-2121,756.5h-3.5v-20.7h3.5v-3.5h17.3v6.9h-13.8v3.5h6.9v6.9h-6.9v3.5h13.8v6.9h-17.3V756.5z"/>
	<path class="st4" d="M-2089.9,749.5h-3.5v10.4h-6.9v-27.6h17.3v3.5h3.5v10.4h-3.5v3.5h3.5v10.4h-6.9V753h-3.5V749.5z
		 M-2093.4,742.6h6.9v-3.5h-6.9V742.6z"/>
	<path class="st4" d="M-2051.9,732.3h17.3v3.5h3.5v10.4h-3.5v3.5h-10.4v3.5h13.8v6.9h-20.7v-13.8h3.5v-3.5h10.4v-3.5h-13.8V732.3z"
		/>
</g>
<g>
	<rect x="-2306" y="713" class="st4" width="45.1" height="5.7"/>
	<rect x="-2254.7" y="713" class="st4" width="5.7" height="5.7"/>
</g>
<g>
	<rect x="-2760.5" y="714" class="st4" width="45.1" height="5.7"/>
	<rect x="-2709.2" y="714" class="st4" width="5.7" height="5.7"/>
</g>
<polygon class="st16" points="-2371.4,554 -2365,559.6 -2370.6,566 -2350.2,583.4 -2350.2,621.3 -2329.4,595.2 -2297.7,624.6 
	-2291.8,618.3 -2286.8,622.9 -2215.2,504.2 "/>
<polygon class="st17" points="-2373.8,546.9 -2367.5,552.5 -2373.1,558.9 -2352.6,576.3 -2352.6,614.2 -2331.9,588.1 -2300.1,617.5 
	-2294.3,611.2 -2289.3,615.8 -2217.7,497.1 "/>
<polygon class="st18" points="-2331.8,587.9 -2217.4,497.1 -2352.5,576.1 -2352.5,614 "/>
<polygon class="st19" points="-2374.9,547.1 -2368.5,552.7 -2374.1,559.1 -2353.7,576.4 -2353.7,614.3 -2332.9,588.2 -2301.2,617.6 
	-2295.3,611.3 -2290.4,615.9 -2218.7,497.3 "/>
<g>
	<polygon class="st20" points="-2439.1,240.3 -2439.1,404 -2428.7,404 -2428.7,413.5 -2418.3,413.5 -2418.3,423.9 -1970.8,423.9 
		-1970.8,413.5 -1960.4,413.5 -1960.4,404 -1950.1,404 -1950.1,240.3 	"/>
	<polygon class="st20" points="-1950.1,240.3 -1950.1,146.2 -1960.4,146.2 -1960.4,136.7 -1970.8,136.7 -1970.8,126.2 
		-2418.3,126.2 -2418.3,136.7 -2428.7,136.7 -2428.7,146.2 -2439.1,146.2 -2439.1,240.3 	"/>
</g>
<g>
	<polygon class="st21" points="-2428.7,142.8 -2418.3,142.8 -2418.3,134.8 -2428.7,134.8 -2428.7,142.7 -2439.1,142.7 
		-2439.1,150.7 -2428.7,150.7 	"/>
	<rect x="-2418.3" y="126.1" class="st21" width="447.5" height="8"/>
	<polygon class="st21" points="-1960.4,142.7 -1960.4,134.8 -1970.8,134.8 -1970.8,142.8 -1960.4,142.8 -1960.4,150.7 
		-1950.1,150.7 -1950.1,142.7 	"/>
</g>
<g>
	<g>
		<g>
			<rect x="-2832.2" y="61.8" width="10.2" height="10.2"/>
		</g>
	</g>
	<g>
		<g>
			<path d="M-2770.8,51.6v5.1h-5.1v5.1h5.1v20.5h5.1v5.1h-5.1v5.1h5.1h5.1V82.3h15.4v5.1h5.1v-5.1V51.6H-2770.8z M-2745.2,77.2
				h-20.5V56.7h20.5V77.2z"/>
		</g>
	</g>
	<g>
		<g>
			<rect x="-2760.5" y="61.8" width="10.2" height="10.2"/>
		</g>
	</g>
	<g>
		<g>
			<rect x="-2832.2" y="133.5" width="10.2" height="10.2"/>
		</g>
	</g>
	<g>
		<g>
			<rect x="-2770.8" y="123.3" width="5.1" height="5.1"/>
		</g>
	</g>
	<g>
		<g>
			<rect x="-2796.4" y="148.9" width="5.1" height="5.1"/>
		</g>
	</g>
	<g>
		<g>
			<rect x="-2791.2" y="128.4" width="5.1" height="5.1"/>
		</g>
	</g>
	<g>
		<g>
			<rect x="-2791.2" y="138.7" width="5.1" height="5.1"/>
		</g>
	</g>
	<g>
		<g>
			<rect x="-2745.2" y="113" width="5.1" height="5.1"/>
		</g>
	</g>
	<g>
		<g>
			<rect x="-2842.4" y="113" width="5.1" height="5.1"/>
		</g>
	</g>
	<g>
		<g>
			<rect x="-2842.4" y="87.4" width="5.1" height="5.1"/>
		</g>
	</g>
	<g>
		<g>
			<polygon points="-2786.1,56.7 -2786.1,61.8 -2796.4,61.8 -2796.4,67 -2781,67 -2781,61.8 -2781,56.7 			"/>
		</g>
	</g>
	<g>
		<g>
			<path d="M-2745.2,92.6v5.1h-10.2v5.1h-15.4v-5.1h-5.1v5.1h-10.2v5.1h15.4v5.1h-10.2h-5.1v-5.1h-5.1v5.1h-5.1v-5.1h-5.1v5.1h-5.1
				v5.1h10.2v5.1h5.1v-5.1h10.2v5.1h-5.1v5.1h5.1v10.2h5.1v5.1h5.1v-5.1h15.4v-10.2h5.1v-5.1h-5.1V113h-10.2v-5.1h10.2v5.1h5.1v-5.1
				h5.1v-5.1h5.1v-5.1v-5.1L-2745.2,92.6L-2745.2,92.6z M-2760.5,118.2v15.4h-15.4v-15.4H-2760.5z"/>
		</g>
	</g>
	<g>
		<g>
			<polygon points="-2775.9,82.3 -2781,82.3 -2781,87.4 -2786.1,87.4 -2786.1,92.6 -2786.1,97.7 -2781,97.7 -2781,92.6 
				-2775.9,92.6 -2775.9,87.4 -2770.8,87.4 -2770.8,82.3 			"/>
		</g>
	</g>
	<g>
		<g>
			<rect x="-2786.1" y="148.9" width="10.2" height="5.1"/>
		</g>
	</g>
	<g>
		<g>
			<rect x="-2801.5" y="56.7" width="5.1" height="5.1"/>
		</g>
	</g>
	<g>
		<g>
			<rect x="-2760.5" y="92.6" width="5.1" height="5.1"/>
		</g>
	</g>
	<g>
		<g>
			<rect x="-2755.4" y="87.4" width="5.1" height="5.1"/>
		</g>
	</g>
	<g>
		<g>
			<rect x="-2822" y="113" width="5.1" height="5.1"/>
		</g>
	</g>
	<g>
		<g>
			<path d="M-2811.7,148.9v-20.5h5.1v-5.1v-5.1h-5.1v5.1h-15.4v-5.1h-5.1h-5.1v5.1h-5.1V154h30.7h10.2v-5.1H-2811.7z M-2816.8,148.9
				h-20.5v-20.5h20.5V148.9z"/>
		</g>
	</g>
	<g>
		<g>
			<rect x="-2811.7" y="82.3" width="5.1" height="5.1"/>
		</g>
	</g>
	<g>
		<g>
			<path d="M-2806.6,51.6h-5.1h-30.7v30.7h5.1v5.1h5.1v-5.1h5.1v5.1h5.1v-5.1h10.2V72.1h5.1V67h-5.1V56.7h5.1h5.1v-5.1H-2806.6z
				 M-2816.8,77.2h-20.5V56.7h20.5V77.2z"/>
		</g>
	</g>
	<g>
		<g>
			<rect x="-2781" y="67" width="5.1" height="5.1"/>
		</g>
	</g>
	<g>
		<g>
			<rect x="-2791.2" y="51.6" width="5.1" height="5.1"/>
		</g>
	</g>
	<g>
		<g>
			<path d="M-2781,82.3v-5.1h-5.1v-5.1h-5.1v5.1h-10.2v-5.1h-5.1v5.1v5.1h5.1v10.2h-15.4v-5.1h-5.1v5.1h-15.4v5.1h10.2v5.1h-15.4
				v5.1h15.4v5.1h5.1v-5.1h5.1v5.1h5.1v-5.1h10.2v-5.1h-5.1v-5.1h5.1h5.1v5.1h5.1h5.1v-5.1h-5.1v-5.1h-5.1V82.3L-2781,82.3
				L-2781,82.3z M-2811.7,102.8h-10.2v-5.1h10.2V102.8z"/>
		</g>
	</g>
	<g>
		<g>
			<polygon points="-2796.4,133.5 -2796.4,128.4 -2796.4,123.3 -2801.5,123.3 -2801.5,128.4 -2806.6,128.4 -2806.6,133.5 
				-2801.5,133.5 -2801.5,138.7 -2806.6,138.7 -2806.6,143.8 -2796.4,143.8 -2796.4,138.7 -2791.2,138.7 -2791.2,133.5 			"/>
		</g>
	</g>
	<g>
		<g>
			<polygon points="-2750.3,143.8 -2750.3,138.7 -2755.4,138.7 -2755.4,143.8 -2770.8,143.8 -2770.8,148.9 -2760.5,148.9 
				-2760.5,154 -2755.4,154 -2755.4,148.9 -2745.2,148.9 -2745.2,154 -2740,154 -2740,148.9 -2740,143.8 			"/>
		</g>
	</g>
	<g>
		<g>
			<polygon points="-2745.2,123.3 -2745.2,128.4 -2750.3,128.4 -2750.3,133.5 -2740,133.5 -2740,128.4 -2740,123.3 			"/>
		</g>
	</g>
</g>
<g>
	<g>
		<polygon class="st9" points="-3070.6,467.7 -3074.2,467.7 -3211.4,467.7 -3211.4,471.4 -3215.1,471.4 -3215.1,492.6 
			-3211.4,492.6 -3211.4,496.3 -3074.2,496.3 -3070.6,496.3 -3070.6,492.6 -3066.9,492.6 -3066.9,471.4 -3070.6,471.4 		"/>
		<polygon class="st12" points="-3070.6,467.7 -3074.2,467.7 -3211.4,467.7 -3211.4,471.4 -3215.1,471.4 -3215.1,492.6 
			-3211.4,492.6 -3211.4,496.3 -3074.2,496.3 -3070.6,496.3 -3070.6,492.6 -3066.9,492.6 -3066.9,471.4 -3070.6,471.4 		"/>
		<g>
			<path class="st4" d="M-3183.2,482.6h-1.3v3.8h-2.5v-10.1h6.3v1.3h1.3v3.8h-1.3v1.3h1.3v3.8h-2.5v-2.5h-1.3V482.6z M-3184.5,480
				h2.5v-1.3h-2.5V480z"/>
			<path class="st4" d="M-3176.9,485.1h-1.3v-7.6h1.3v-1.3h6.3v2.5h-5.1v1.3h2.5v2.5h-2.5v1.3h5.1v2.5h-6.3V485.1z"/>
			<path class="st4" d="M-3168,485.1h-1.3v-7.6h1.3v-1.3h5.1v1.3h1.3v2.5h-2.5v-1.3h-2.5v5.1h2.5v-1.3h2.5v2.5h-1.3v1.3h-5.1V485.1z
				"/>
			<path class="st4" d="M-3157.9,486.4h-2.5v-8.9h1.3v-1.3h5.1v1.3h1.3v8.9h-2.5v-3.8h-2.5V486.4z M-3155.4,480v-1.3h-2.5v1.3
				H-3155.4z"/>
			<path class="st4" d="M-3150.3,485.1h-1.3v-8.9h2.5v7.6h5.1v2.5h-6.3V485.1z"/>
			<path class="st4" d="M-3142.7,476.2h2.5v10.1h-2.5V476.2z"/>
			<path class="st4" d="M-3138.9,476.2h6.3v1.3h1.3v7.6h-1.3v1.3h-6.3V476.2z M-3136.4,480h2.5v-1.3h-2.5V480z M-3136.4,483.8h2.5
				v-1.3h-2.5V483.8z"/>
			<path class="st4" d="M-3126.3,482.6h-1.3v3.8h-2.5v-8.9h1.3v-1.3h5.1v1.3h1.3v3.8h-1.3v1.3h1.3v3.8h-2.5v-2.5h-1.3V482.6z
				 M-3127.5,480h2.5v-1.3h-2.5V480z"/>
			<path class="st4" d="M-3118.7,486.4h-2.5v-8.9h1.3v-1.3h5.1v1.3h1.3v8.9h-2.5v-3.8h-2.5V486.4z M-3116.2,480v-1.3h-2.5v1.3
				H-3116.2z"/>
			<path class="st4" d="M-3112.4,476.2h7.6v2.5h-2.5v7.6h-2.5v-7.6h-2.5V476.2z"/>
			<path class="st4" d="M-3102.3,485.1h-1.3v-7.6h1.3v-1.3h6.3v2.5h-5.1v1.3h2.5v2.5h-2.5v1.3h5.1v2.5h-6.3V485.1z"/>
		</g>
	</g>
	<g>
		<rect x="-3209" y="469.9" class="st4" width="13.1" height="1.7"/>
		<rect x="-3194.1" y="469.9" class="st4" width="1.7" height="1.7"/>
	</g>
</g>
<g>
	<g>
		<polygon class="st9" points="-3070.6,509.7 -3074.2,509.7 -3211.4,509.7 -3211.4,513.4 -3215.1,513.4 -3215.1,534.6 
			-3211.4,534.6 -3211.4,538.3 -3074.2,538.3 -3070.6,538.3 -3070.6,534.6 -3066.9,534.6 -3066.9,513.4 -3070.6,513.4 		"/>
		<polygon class="st10" points="-3070.6,506.1 -3074.2,506.1 -3211.4,506.1 -3211.4,509.8 -3215.1,509.8 -3215.1,530.9 
			-3211.4,530.9 -3211.4,534.6 -3074.2,534.6 -3070.6,534.6 -3070.6,530.9 -3066.9,530.9 -3066.9,509.8 -3070.6,509.8 		"/>
		<g>
			<path class="st4" d="M-3183.2,520.9h-1.3v3.8h-2.5v-10.1h6.3v1.3h1.3v3.8h-1.3v1.3h1.3v3.8h-2.5v-2.5h-1.3V520.9z M-3184.5,518.4
				h2.5v-1.3h-2.5V518.4z"/>
			<path class="st4" d="M-3176.9,523.4h-1.3v-7.6h1.3v-1.3h6.3v2.5h-5.1v1.3h2.5v2.5h-2.5v1.3h5.1v2.5h-6.3V523.4z"/>
			<path class="st4" d="M-3168,523.4h-1.3v-7.6h1.3v-1.3h5.1v1.3h1.3v2.5h-2.5v-1.3h-2.5v5.1h2.5v-1.3h2.5v2.5h-1.3v1.3h-5.1V523.4z
				"/>
			<path class="st4" d="M-3157.9,524.7h-2.5v-8.9h1.3v-1.3h5.1v1.3h1.3v8.9h-2.5v-3.8h-2.5V524.7z M-3155.4,518.4v-1.3h-2.5v1.3
				H-3155.4z"/>
			<path class="st4" d="M-3150.3,523.4h-1.3v-8.9h2.5v7.6h5.1v2.5h-6.3V523.4z"/>
			<path class="st4" d="M-3142.7,514.6h2.5v10.1h-2.5V514.6z"/>
			<path class="st4" d="M-3138.9,514.6h6.3v1.3h1.3v7.6h-1.3v1.3h-6.3V514.6z M-3136.4,518.4h2.5v-1.3h-2.5V518.4z M-3136.4,522.2
				h2.5v-1.3h-2.5V522.2z"/>
			<path class="st4" d="M-3126.3,520.9h-1.3v3.8h-2.5v-8.9h1.3v-1.3h5.1v1.3h1.3v3.8h-1.3v1.3h1.3v3.8h-2.5v-2.5h-1.3V520.9z
				 M-3127.5,518.4h2.5v-1.3h-2.5V518.4z"/>
			<path class="st4" d="M-3118.7,524.7h-2.5v-8.9h1.3v-1.3h5.1v1.3h1.3v8.9h-2.5v-3.8h-2.5V524.7z M-3116.2,518.4v-1.3h-2.5v1.3
				H-3116.2z"/>
			<path class="st4" d="M-3112.4,514.6h7.6v2.5h-2.5v7.6h-2.5v-7.6h-2.5V514.6z"/>
			<path class="st4" d="M-3102.3,523.4h-1.3v-7.6h1.3v-1.3h6.3v2.5h-5.1v1.3h2.5v2.5h-2.5v1.3h5.1v2.5h-6.3V523.4z"/>
		</g>
	</g>
	<g>
		<rect x="-3209" y="508.9" class="st4" width="13.1" height="1.7"/>
		<rect x="-3194.1" y="508.9" class="st4" width="1.7" height="1.7"/>
	</g>
</g>
<g>
	<rect x="-2789.2" y="240.6" class="st4" width="23.6" height="3"/>
	<rect x="-2762.4" y="240.6" class="st4" width="3" height="3"/>
</g>
<g>
	<rect x="-3109.6" y="179.1" class="st4" width="23.6" height="3"/>
	<rect x="-3082.8" y="179.1" class="st4" width="3" height="3"/>
</g>
<g>
	<polygon class="st22" points="-3139.7,302.6 -3139.7,295.1 -3158.3,295.1 -3158.3,302.6 -3165.8,302.6 -3165.8,310.1 
		-3165.8,321.3 -3158.3,321.3 -3158.3,328.7 -3147.1,328.7 -3139.7,328.7 -3139.7,321.3 -3132.2,321.3 -3132.2,310.1 -3132.2,302.6 
			"/>
	<line class="st23" x1="-3157.7" y1="328.7" x2="-3157.7" y2="338.7"/>
	<line class="st23" x1="-3140.3" y1="328.7" x2="-3140.3" y2="338.7"/>
	<polygon class="st24" points="-3141.3,336.8 -3143.4,336.8 -3156.8,336.8 -3156.8,339 -3159,339 -3159,354.5 -3156.8,354.5 
		-3156.8,356.7 -3143.4,356.7 -3141.3,356.7 -3141.3,354.5 -3139.1,354.5 -3139.1,339 -3141.3,339 	"/>
</g>
<polygon class="st25" points="-3072.6,741.9 -3072.6,733.9 -3080.5,733.9 -3145.5,733.9 -3214.3,733.9 -3214.3,741.9 -3222.2,741.9 
	-3222.2,787.4 -3214.3,787.4 -3214.3,795.4 -3145.5,795.4 -3080.5,795.4 -3072.6,795.4 -3072.6,787.4 -3064.7,787.4 -3064.7,741.9 
	"/>
<polygon class="st25" points="-3072.6,742 -3072.6,734.1 -3080.5,734.1 -3145.5,734.1 -3214.3,734.1 -3214.3,742 -3222.2,742 
	-3222.2,787.5 -3214.3,787.5 -3214.3,795.5 -3145.5,795.5 -3080.5,795.5 -3072.6,795.5 -3072.6,787.5 -3064.7,787.5 -3064.7,742 "/>
<g>
	<path class="st4" d="M-3176.1,775.4h-5.4v-21.8h13.6v2.7h2.7v8.2h-2.7v2.7h-8.2V775.4z M-3176.1,761.8h5.4v-2.7h-5.4V761.8z"/>
	<path class="st4" d="M-3159.8,772.7h-2.7v-19h5.4V770h10.9v5.4h-13.6V772.7z"/>
	<path class="st4" d="M-3138,775.4h-5.4v-19h2.7v-2.7h10.9v2.7h2.7v19h-5.4v-8.2h-5.4V775.4z M-3132.6,761.8v-2.7h-5.4v2.7H-3132.6z
		"/>
	<path class="st4" d="M-3124.4,753.6h5.4v8.2h5.4v-8.2h5.4v10.9h-2.7v2.7h-2.7v8.2h-5.4v-8.2h-2.7v-2.7h-2.7V753.6z"/>
</g>
<polygon class="st25" points="-2902.6,741.9 -2902.6,733.9 -2910.5,733.9 -2975.5,733.9 -3044.3,733.9 -3044.3,741.9 -3052.2,741.9 
	-3052.2,787.4 -3044.3,787.4 -3044.3,795.4 -2975.5,795.4 -2910.5,795.4 -2902.6,795.4 -2902.6,787.4 -2894.7,787.4 -2894.7,741.9 
	"/>
<polygon class="st22" points="-2902.6,734 -2902.6,726.1 -2910.5,726.1 -2975.5,726.1 -3044.3,726.1 -3044.3,734 -3052.2,734 
	-3052.2,779.5 -3044.3,779.5 -3044.3,787.5 -2975.5,787.5 -2910.5,787.5 -2902.6,787.5 -2902.6,779.5 -2894.7,779.5 -2894.7,734 "/>
<g>
	<path class="st4" d="M-3006.1,767.4h-5.4v-21.8h13.6v2.7h2.7v8.2h-2.7v2.7h-8.2V767.4z M-3006.1,753.8h5.4v-2.7h-5.4V753.8z"/>
	<path class="st4" d="M-2989.8,764.7h-2.7v-19h5.4V762h10.9v5.4h-13.6V764.7z"/>
	<path class="st4" d="M-2968,767.4h-5.4v-19h2.7v-2.7h10.9v2.7h2.7v19h-5.4v-8.2h-5.4V767.4z M-2962.6,753.8v-2.7h-5.4v2.7H-2962.6z
		"/>
	<path class="st4" d="M-2954.4,745.6h5.4v8.2h5.4v-8.2h5.4v10.9h-2.7v2.7h-2.7v8.2h-5.4v-8.2h-2.7v-2.7h-2.7V745.6z"/>
</g>
<g>
	<path class="st26" d="M-3896.2,496.3h43.2v108h43.2v-108h43.2v129.6h-21.6v21.6h-21.6v21.6h-43.2v-21.6h-21.6v-21.6h-21.6V496.3z"
		/>
	<path class="st27" d="M-3745,519.9h21.6v-21.6h108v43.2h-86.4v21.6h64.8v21.6h21.6v64.8h-21.6v21.6h-108v-43.2h86.4v-21.6h-64.8
		v-21.6h-21.6V519.9z"/>
</g>
<g>
	<path class="st28" d="M-3896.2,475.2h43.2v108h43.2v-108h43.2v129.6h-21.6v21.6h-21.6V648h-43.2v-21.6h-21.6v-21.6h-21.6V475.2z"/>
	<path class="st29" d="M-3745,496.8h21.6v-21.6h108v43.2h-86.4V540h64.8v21.6h21.6v64.8h-21.6V648h-108v-43.2h86.4v-21.6h-64.8
		v-21.6h-21.6V496.8z"/>
</g>
<g>
	<g>
		<path class="st0" d="M-3846.8,853.8h27.5v68.7h27.5v-68.7h27.5v82.4h-13.7V950h-13.7v13.7h-27.5V950h-13.7v-13.7h-13.7V853.8z"/>
		<path class="st0" d="M-3750.7,868.9h13.7v-13.7h68.7v27.5h-54.9v13.7h41.2v13.7h13.7v41.2h-13.7V965h-68.7v-27.5h54.9v-13.7h-41.2
			v-13.7h-13.7V868.9z"/>
	</g>
	<g>
		<path class="st7" d="M-3846.8,839.3h27.5V908h27.5v-68.7h27.5v82.4h-13.7v13.7h-13.7v13.7h-27.5v-13.7h-13.7v-13.7h-13.7V839.3z"
			/>
		<path class="st7" d="M-3750.7,854.4h13.7v-13.7h68.7v27.5h-54.9v13.7h41.2v13.7h13.7v41.2h-13.7v13.7h-68.7V923h54.9v-13.7h-41.2
			v-13.7h-13.7V854.4z"/>
	</g>
	<g>
		<path class="st4" d="M-3846.8,825.9h27.5v68.7h27.5v-68.7h27.5v82.4h-13.7v13.7h-13.7v13.7h-27.5v-13.7h-13.7v-13.7h-13.7V825.9z"
			/>
		<path class="st4" d="M-3750.7,839.7h13.7v-13.7h68.7v27.5h-54.9v13.7h41.2v13.7h13.7v41.2h-13.7v13.7h-68.7v-27.5h54.9v-13.7
			h-41.2v-13.7h-13.7V839.7z"/>
	</g>
</g>
<g>
	<g>
		<path class="st0" d="M-3272.4-5.9h-21.6v-86.4h54v10.8h10.8v32.4h-10.8v10.8h-32.4V-5.9z M-3272.4-59.9h21.6v-10.8h-21.6V-59.9z"
			/>
		<path class="st0" d="M-3218.4-81.5h10.8v-10.8h43.2v10.8h10.8v64.8h-10.8v10.8h-43.2v-10.8h-10.8V-81.5z M-3196.8-27.5h21.6v-43.2
			h-21.6V-27.5z"/>
		<path class="st0" d="M-3132-16.7h-10.8v-75.6h21.6v64.8h43.2v21.6h-54V-16.7z"/>
		<path class="st0" d="M-3088.8-92.3h21.6v32.4h21.6v-32.4h21.6v43.2h-10.8v10.8h-10.8v32.4h-21.6v-32.4h-10.8v-10.8h-10.8V-92.3z"
			/>
	</g>
	<g>
		<path class="st30" d="M-3272.4-14.3h-21.6v-86.4h54v10.8h10.8v32.4h-10.8v10.8h-32.4V-14.3z M-3272.4-68.3h21.6v-10.8h-21.6V-68.3
			z"/>
		<path class="st30" d="M-3218.4-89.9h10.8v-10.8h43.2v10.8h10.8v64.8h-10.8v10.8h-43.2v-10.8h-10.8V-89.9z M-3196.8-35.9h21.6
			v-43.2h-21.6V-35.9z"/>
		<path class="st30" d="M-3132-25.1h-10.8v-75.6h21.6v64.8h43.2v21.6h-54V-25.1z"/>
		<path class="st30" d="M-3088.8-100.7h21.6v32.4h21.6v-32.4h21.6v43.2h-10.8v10.8h-10.8v32.4h-21.6v-32.4h-10.8v-10.8h-10.8V-100.7
			z"/>
	</g>
	<g>
		<path class="st4" d="M-3272.4-22.5h-21.6v-86.4h54v10.8h10.8v32.4h-10.8v10.8h-32.4V-22.5z M-3272.4-76.5h21.6v-10.8h-21.6V-76.5z
			"/>
		<path class="st4" d="M-3218.4-98.1h10.8v-10.8h43.2v10.8h10.8v64.8h-10.8v10.8h-43.2v-10.8h-10.8V-98.1z M-3196.8-44.1h21.6v-43.2
			h-21.6V-44.1z"/>
		<path class="st4" d="M-3132-33.3h-10.8v-75.6h21.6v64.8h43.2v21.6h-54V-33.3z"/>
		<path class="st4" d="M-3088.8-108.9h21.6v32.4h21.6v-32.4h21.6v43.2h-10.8v10.8h-10.8v32.4h-21.6v-32.4h-10.8v-10.8h-10.8V-108.9z
			"/>
	</g>
</g>
<image style="overflow:visible;" width="843" height="1118" xlink:href="40F078CE18BF8C19.jpg"  transform="matrix(0.24 0 0 0.24 -3503.48 41.32)">
</image>
<g>
	<g class="st1">
		<g>
			<polygon class="st0" points="-2945.5,-322.3 -2945.5,-235.9 -2844.3,-235.9 -2844.3,-247.5 -2857,-247.5 -2857,-260.1 
				-2869.6,-260.1 -2869.6,-272.8 -2882.3,-272.8 -2882.3,-285.4 -2869.6,-285.4 -2869.6,-298.1 -2857,-298.1 -2857,-310.7 
				-2844.3,-310.7 -2844.3,-322.3 			"/>
		</g>
		<polygon class="st0" points="-2930.8,-261.2 -2945.5,-236.9 -2945.5,-261.2 		"/>
	</g>
	<rect x="-3433.7" y="-345.3" class="st0" width="510.3" height="86.5"/>
	<rect x="-2957.1" y="-267.2" class="st0" width="112.8" height="31.6"/>
	<g class="st1">
		<g>
			<polygon class="st0" points="-3425.9,-322.2 -3425.9,-235.7 -3527.1,-235.7 -3527.1,-247.3 -3514.4,-247.3 -3514.4,-260 
				-3501.8,-260 -3501.8,-272.6 -3489.1,-272.6 -3489.1,-285.3 -3501.8,-285.3 -3501.8,-297.9 -3514.4,-297.9 -3514.4,-310.6 
				-3527.1,-310.6 -3527.1,-322.2 			"/>
		</g>
		<polygon class="st0" points="-3440.6,-261 -3425.9,-236.8 -3425.9,-261 		"/>
	</g>
	<g>
		<g>
			<polygon class="st2" points="-2945.5,-332.6 -2945.5,-246.2 -2844.3,-246.2 -2844.3,-257.8 -2857,-257.8 -2857,-270.4 
				-2869.6,-270.4 -2869.6,-283.1 -2882.3,-283.1 -2882.3,-295.7 -2869.6,-295.7 -2869.6,-308.4 -2857,-308.4 -2857,-321 
				-2844.3,-321 -2844.3,-332.6 			"/>
			<polygon class="st3" points="-2945.5,-344.2 -2945.5,-257.8 -2844.3,-257.8 -2844.3,-269.4 -2857,-269.4 -2857,-282 
				-2869.6,-282 -2869.6,-294.7 -2882.3,-294.7 -2882.3,-307.3 -2869.6,-307.3 -2869.6,-320 -2857,-320 -2857,-332.6 
				-2844.3,-332.6 -2844.3,-344.2 			"/>
		</g>
		<polygon class="st2" points="-2930.8,-271.5 -2945.5,-247.2 -2945.5,-271.5 		"/>
		<g>
			<g>
				<polygon class="st2" points="-3426.4,-332.6 -3426.4,-246.2 -3527.6,-246.2 -3527.6,-257.8 -3514.9,-257.8 -3514.9,-270.4 
					-3502.3,-270.4 -3502.3,-283.1 -3489.6,-283.1 -3489.6,-295.7 -3502.3,-295.7 -3502.3,-308.4 -3514.9,-308.4 -3514.9,-321 
					-3527.6,-321 -3527.6,-332.6 				"/>
				<polygon class="st3" points="-3426.4,-344.2 -3426.4,-257.8 -3527.6,-257.8 -3527.6,-269.4 -3514.9,-269.4 -3514.9,-282 
					-3502.3,-282 -3502.3,-294.7 -3489.6,-294.7 -3489.6,-307.3 -3502.3,-307.3 -3502.3,-320 -3514.9,-320 -3514.9,-332.6 
					-3527.6,-332.6 -3527.6,-344.2 				"/>
			</g>
			<polygon class="st2" points="-3441.1,-271.5 -3426.4,-247.2 -3426.4,-271.5 			"/>
		</g>
		<g>
			<rect x="-3441.1" y="-357.9" class="st2" width="510.3" height="86.5"/>
			<rect x="-3441.1" y="-370.6" class="st3" width="510.3" height="86.5"/>
		</g>
	</g>
</g>
<g>
	<g>
		<path class="st25" d="M-3327-295.6h-37.4v-59.9h37.4v7.5h7.5v15h-7.5v15h7.5v15h-7.5V-295.6z M-3349.4-333.1h15v-7.5h-15V-333.1z
			 M-3349.4-310.6h15v-7.5h-15V-310.6z"/>
		<path class="st25" d="M-3297-295.6h-15V-348h7.5v-7.5h30v7.5h7.5v52.4h-15v-22.5h-15V-295.6z M-3282-333.1v-7.5h-15v7.5H-3282z"/>
		<path class="st25" d="M-3252.1-303.1h-7.5v-52.4h15v44.9h30v15h-37.4V-303.1z"/>
		<path class="st25" d="M-3199.7-303.1h-7.5v-52.4h15v44.9h30v15h-37.4V-303.1z"/>
		<path class="st25" d="M-3154.7-348h7.5v-7.5h30v7.5h7.5v44.9h-7.5v7.5h-30v-7.5h-7.5V-348z M-3139.7-310.6h15v-30h-15V-310.6z"/>
		<path class="st25" d="M-3102.3-348h7.5v-7.5h30v7.5h7.5v44.9h-7.5v7.5h-30v-7.5h-7.5V-348z M-3087.3-310.6h15v-30h-15V-310.6z"/>
		<path class="st25" d="M-3027.4-325.6h-7.5v30h-15v-59.9h15v7.5h7.5v7.5h7.5v-15h15v59.9h-15v-22.5h-7.5V-325.6z"/>
	</g>
	<g>
		<path class="st22" d="M-3327-301.4h-37.4v-59.9h37.4v7.5h7.5v15h-7.5v15h7.5v15h-7.5V-301.4z M-3349.4-338.9h15v-7.5h-15V-338.9z
			 M-3349.4-316.4h15v-7.5h-15V-316.4z"/>
		<path class="st22" d="M-3297-301.4h-15v-52.4h7.5v-7.5h30v7.5h7.5v52.4h-15v-22.5h-15V-301.4z M-3282-338.9v-7.5h-15v7.5H-3282z"
			/>
		<path class="st22" d="M-3252.1-308.9h-7.5v-52.4h15v44.9h30v15h-37.4V-308.9z"/>
		<path class="st22" d="M-3199.7-308.9h-7.5v-52.4h15v44.9h30v15h-37.4V-308.9z"/>
		<path class="st22" d="M-3154.7-353.9h7.5v-7.5h30v7.5h7.5v44.9h-7.5v7.5h-30v-7.5h-7.5V-353.9z M-3139.7-316.4h15v-30h-15V-316.4z
			"/>
		<path class="st22" d="M-3102.3-353.9h7.5v-7.5h30v7.5h7.5v44.9h-7.5v7.5h-30v-7.5h-7.5V-353.9z M-3087.3-316.4h15v-30h-15V-316.4z
			"/>
		<path class="st22" d="M-3027.4-331.4h-7.5v30h-15v-59.9h15v7.5h7.5v7.5h7.5v-15h15v59.9h-15v-22.5h-7.5V-331.4z"/>
	</g>
</g>
<g>
	<path class="st0" d="M-2835.3-148.9h20.7v6.9h-20.7V-148.9z"/>
	<path class="st0" d="M-2780.1-131.6h-6.9v-27.6h17.3v3.5h3.5v10.4h-3.5v3.5h-10.4V-131.6z M-2780.1-148.9h6.9v-3.5h-6.9V-148.9z"/>
	<path class="st0" d="M-2752.4-142h-3.5v10.4h-6.9v-27.6h17.3v3.5h3.5v10.4h-3.5v3.5h3.5v10.4h-6.9v-6.9h-3.5V-142z M-2755.9-148.9
		h6.9v-3.5h-6.9V-148.9z"/>
	<path class="st0" d="M-2735.1-135.1h-3.5v-20.7h3.5v-3.5h17.3v6.9h-13.8v3.5h6.9v6.9h-6.9v3.5h13.8v6.9h-17.3V-135.1z"/>
	<path class="st0" d="M-2714.4-155.8h3.5v-3.5h17.3v6.9h-13.8v3.5h10.4v3.5h3.5v10.4h-3.5v3.5h-17.3v-6.9h13.8v-3.5h-10.4v-3.5h-3.5
		V-155.8z"/>
	<path class="st0" d="M-2690.2-155.8h3.5v-3.5h17.3v6.9h-13.8v3.5h10.4v3.5h3.5v10.4h-3.5v3.5h-17.3v-6.9h13.8v-3.5h-10.4v-3.5h-3.5
		V-155.8z"/>
	<path class="st0" d="M-2634.9-131.6h-6.9v-24.2h3.5v-3.5h13.8v3.5h3.5v24.2h-6.9V-142h-6.9V-131.6z M-2628-148.9v-3.5h-6.9v3.5
		H-2628z"/>
	<path class="st0" d="M-2607.3-145.4h-3.5v13.8h-6.9v-27.6h6.9v3.5h3.5v3.5h3.5v-6.9h6.9v27.6h-6.9V-142h-3.5V-145.4z"/>
	<path class="st0" d="M-2593.4-159.3h6.9v10.4h6.9v-10.4h6.9v13.8h-3.5v3.5h-3.5v10.4h-6.9V-142h-3.5v-3.5h-3.5V-159.3z"/>
	<path class="st0" d="M-2538.1-131.6h-6.9v-27.6h6.9v6.9h3.5v-3.5h3.5v-3.5h6.9v6.9h-3.5v3.5h-3.5v6.9h3.5v3.5h3.5v6.9h-6.9v-3.5
		h-3.5v-3.5h-3.5V-131.6z"/>
	<path class="st0" d="M-2517.4-135.1h-3.5v-20.7h3.5v-3.5h17.3v6.9h-13.8v3.5h6.9v6.9h-6.9v3.5h13.8v6.9h-17.3V-135.1z"/>
	<path class="st0" d="M-2496.7-159.3h6.9v10.4h6.9v-10.4h6.9v13.8h-3.5v3.5h-3.5v10.4h-6.9V-142h-3.5v-3.5h-3.5V-159.3z"/>
	<path class="st0" d="M-2448.3-159.3h20.7v6.9h-6.9v20.7h-6.9v-20.7h-6.9V-159.3z"/>
	<path class="st0" d="M-2424.1-155.8h3.5v-3.5h13.8v3.5h3.5v20.7h-3.5v3.5h-13.8v-3.5h-3.5V-155.8z M-2417.2-138.5h6.9v-13.8h-6.9
		V-138.5z"/>
	<path class="st0" d="M-2368.8-131.6h-6.9v-27.6h17.3v3.5h3.5v10.4h-3.5v3.5h-10.4V-131.6z M-2368.8-148.9h6.9v-3.5h-6.9V-148.9z"/>
	<path class="st0" d="M-2348.1-135.1h-3.5v-24.2h6.9v20.7h13.8v6.9h-17.3V-135.1z"/>
	<path class="st0" d="M-2320.4-131.6h-6.9v-24.2h3.5v-3.5h13.8v3.5h3.5v24.2h-6.9V-142h-6.9V-131.6z M-2313.5-148.9v-3.5h-6.9v3.5
		H-2313.5z"/>
	<path class="st0" d="M-2303.1-159.3h6.9v10.4h6.9v-10.4h6.9v13.8h-3.5v3.5h-3.5v10.4h-6.9V-142h-3.5v-3.5h-3.5V-159.3z"/>
	<path class="st0" d="M-2254.8-148.9h20.7v6.9h-20.7V-148.9z"/>
</g>
<g>
	<path class="st30" d="M-2836.2-154.8h20.7v6.9h-20.7V-154.8z"/>
	<path class="st30" d="M-2780.9-137.5h-6.9v-27.6h17.3v3.5h3.5v10.4h-3.5v3.5h-10.4V-137.5z M-2780.9-154.8h6.9v-3.5h-6.9V-154.8z"
		/>
	<path class="st30" d="M-2753.3-147.9h-3.5v10.4h-6.9v-27.6h17.3v3.5h3.5v10.4h-3.5v3.5h3.5v10.4h-6.9v-6.9h-3.5V-147.9z
		 M-2756.7-154.8h6.9v-3.5h-6.9V-154.8z"/>
	<path class="st30" d="M-2736-141h-3.5v-20.7h3.5v-3.5h17.3v6.9h-13.8v3.5h6.9v6.9h-6.9v3.5h13.8v6.9h-17.3V-141z"/>
	<path class="st30" d="M-2715.3-161.7h3.5v-3.5h17.3v6.9h-13.8v3.5h10.4v3.5h3.5v10.4h-3.5v3.5h-17.3v-6.9h13.8v-3.5h-10.4v-3.5
		h-3.5V-161.7z"/>
	<path class="st30" d="M-2691.1-161.7h3.5v-3.5h17.3v6.9h-13.8v3.5h10.4v3.5h3.5v10.4h-3.5v3.5h-17.3v-6.9h13.8v-3.5h-10.4v-3.5
		h-3.5V-161.7z"/>
	<path class="st30" d="M-2635.8-137.5h-6.9v-24.2h3.5v-3.5h13.8v3.5h3.5v24.2h-6.9v-10.4h-6.9V-137.5z M-2628.9-154.8v-3.5h-6.9v3.5
		H-2628.9z"/>
	<path class="st30" d="M-2608.1-151.3h-3.5v13.8h-6.9v-27.6h6.9v3.5h3.5v3.5h3.5v-6.9h6.9v27.6h-6.9v-10.4h-3.5V-151.3z"/>
	<path class="st30" d="M-2594.3-165.2h6.9v10.4h6.9v-10.4h6.9v13.8h-3.5v3.5h-3.5v10.4h-6.9v-10.4h-3.5v-3.5h-3.5V-165.2z"/>
	<path class="st30" d="M-2539-137.5h-6.9v-27.6h6.9v6.9h3.5v-3.5h3.5v-3.5h6.9v6.9h-3.5v3.5h-3.5v6.9h3.5v3.5h3.5v6.9h-6.9v-3.5
		h-3.5v-3.5h-3.5V-137.5z"/>
	<path class="st30" d="M-2518.3-141h-3.5v-20.7h3.5v-3.5h17.3v6.9h-13.8v3.5h6.9v6.9h-6.9v3.5h13.8v6.9h-17.3V-141z"/>
	<path class="st30" d="M-2497.5-165.2h6.9v10.4h6.9v-10.4h6.9v13.8h-3.5v3.5h-3.5v10.4h-6.9v-10.4h-3.5v-3.5h-3.5V-165.2z"/>
	<path class="st30" d="M-2449.2-165.2h20.7v6.9h-6.9v20.7h-6.9v-20.7h-6.9V-165.2z"/>
	<path class="st30" d="M-2425-161.7h3.5v-3.5h13.8v3.5h3.5v20.7h-3.5v3.5h-13.8v-3.5h-3.5V-161.7z M-2418-144.4h6.9v-13.8h-6.9
		V-144.4z"/>
	<path class="st30" d="M-2369.7-137.5h-6.9v-27.6h17.3v3.5h3.5v10.4h-3.5v3.5h-10.4V-137.5z M-2369.7-154.8h6.9v-3.5h-6.9V-154.8z"
		/>
	<path class="st30" d="M-2348.9-141h-3.5v-24.2h6.9v20.7h13.8v6.9h-17.3V-141z"/>
	<path class="st30" d="M-2321.3-137.5h-6.9v-24.2h3.5v-3.5h13.8v3.5h3.5v24.2h-6.9v-10.4h-6.9V-137.5z M-2314.4-154.8v-3.5h-6.9v3.5
		H-2314.4z"/>
	<path class="st30" d="M-2304-165.2h6.9v10.4h6.9v-10.4h6.9v13.8h-3.5v3.5h-3.5v10.4h-6.9v-10.4h-3.5v-3.5h-3.5V-165.2z"/>
	<path class="st30" d="M-2255.6-154.8h20.7v6.9h-20.7V-154.8z"/>
</g>
<g>
	<path class="st4" d="M-2836.2-159.2h20.7v6.9h-20.7V-159.2z"/>
	<path class="st4" d="M-2780.9-141.9h-6.9v-27.6h17.3v3.5h3.5v10.4h-3.5v3.5h-10.4V-141.9z M-2780.9-159.2h6.9v-3.5h-6.9V-159.2z"/>
	<path class="st4" d="M-2753.3-152.3h-3.5v10.4h-6.9v-27.6h17.3v3.5h3.5v10.4h-3.5v3.5h3.5v10.4h-6.9v-6.9h-3.5V-152.3z
		 M-2756.7-159.2h6.9v-3.5h-6.9V-159.2z"/>
	<path class="st4" d="M-2736-145.4h-3.5v-20.7h3.5v-3.5h17.3v6.9h-13.8v3.5h6.9v6.9h-6.9v3.5h13.8v6.9h-17.3V-145.4z"/>
	<path class="st4" d="M-2715.3-166.1h3.5v-3.5h17.3v6.9h-13.8v3.5h10.4v3.5h3.5v10.4h-3.5v3.5h-17.3v-6.9h13.8v-3.5h-10.4v-3.5h-3.5
		V-166.1z"/>
	<path class="st4" d="M-2691.1-166.1h3.5v-3.5h17.3v6.9h-13.8v3.5h10.4v3.5h3.5v10.4h-3.5v3.5h-17.3v-6.9h13.8v-3.5h-10.4v-3.5h-3.5
		V-166.1z"/>
	<path class="st4" d="M-2635.8-141.9h-6.9v-24.2h3.5v-3.5h13.8v3.5h3.5v24.2h-6.9v-10.4h-6.9V-141.9z M-2628.9-159.2v-3.5h-6.9v3.5
		H-2628.9z"/>
	<path class="st4" d="M-2608.1-155.7h-3.5v13.8h-6.9v-27.6h6.9v3.5h3.5v3.5h3.5v-6.9h6.9v27.6h-6.9v-10.4h-3.5V-155.7z"/>
	<path class="st4" d="M-2594.3-169.6h6.9v10.4h6.9v-10.4h6.9v13.8h-3.5v3.5h-3.5v10.4h-6.9v-10.4h-3.5v-3.5h-3.5V-169.6z"/>
	<path class="st4" d="M-2539-141.9h-6.9v-27.6h6.9v6.9h3.5v-3.5h3.5v-3.5h6.9v6.9h-3.5v3.5h-3.5v6.9h3.5v3.5h3.5v6.9h-6.9v-3.5h-3.5
		v-3.5h-3.5V-141.9z"/>
	<path class="st4" d="M-2518.3-145.4h-3.5v-20.7h3.5v-3.5h17.3v6.9h-13.8v3.5h6.9v6.9h-6.9v3.5h13.8v6.9h-17.3V-145.4z"/>
	<path class="st4" d="M-2497.5-169.6h6.9v10.4h6.9v-10.4h6.9v13.8h-3.5v3.5h-3.5v10.4h-6.9v-10.4h-3.5v-3.5h-3.5V-169.6z"/>
	<path class="st4" d="M-2449.2-169.6h20.7v6.9h-6.9v20.7h-6.9v-20.7h-6.9V-169.6z"/>
	<path class="st4" d="M-2425-166.1h3.5v-3.5h13.8v3.5h3.5v20.7h-3.5v3.5h-13.8v-3.5h-3.5V-166.1z M-2418-148.8h6.9v-13.8h-6.9
		V-148.8z"/>
	<path class="st4" d="M-2369.7-141.9h-6.9v-27.6h17.3v3.5h3.5v10.4h-3.5v3.5h-10.4V-141.9z M-2369.7-159.2h6.9v-3.5h-6.9V-159.2z"/>
	<path class="st4" d="M-2348.9-145.4h-3.5v-24.2h6.9v20.7h13.8v6.9h-17.3V-145.4z"/>
	<path class="st4" d="M-2321.3-141.9h-6.9v-24.2h3.5v-3.5h13.8v3.5h3.5v24.2h-6.9v-10.4h-6.9V-141.9z M-2314.4-159.2v-3.5h-6.9v3.5
		H-2314.4z"/>
	<path class="st4" d="M-2304-169.6h6.9v10.4h6.9v-10.4h6.9v13.8h-3.5v3.5h-3.5v10.4h-6.9v-10.4h-3.5v-3.5h-3.5V-169.6z"/>
	<path class="st4" d="M-2255.6-159.2h20.7v6.9h-20.7V-159.2z"/>
</g>
<path class="st31" d="M-74.4-861.3h-2.2h-10.8H-126h-12.9h-1526.6h-12.9h-38.7h-12.9h-12.9v22.6V2.1v11.3v33.9v11.3v11.3h25.8
	h1578.2h12.9h38.7h10.8h2.2h12.9v-931.2H-74.4z M-87.3-804.8V13.4v11.3h-12.9V36h-12.9v11.3H-126h-1552.4h-12.9V36h-12.9V24.7h-12.9
	V13.4v-818.2v-11.3h12.9v-11.3h12.9v-11.3h12.9h204.3h135.5H-126h12.9v11.3h12.9v11.3h12.9V-804.8z"/>
<polygon class="st32" points="-1295.9,-1215.9 -1295.9,-1226 -1307.3,-1226 -1717.9,-1226 -1717.9,-1130 -1308.1,-1130 
	-1308.1,-1140 -1307.3,-1140 -1295.9,-1140 -1295.9,-1148 -1295.9,-1150.1 -1284.6,-1150.1 -1284.6,-1158.1 -1284.6,-1215.9 "/>
<polygon class="st31" points="-1296.5,-1225.9 -1296.5,-1236 -1307.8,-1236 -1730.6,-1236 -1730.6,-1228 -1730.6,-1225.9 
	-1741.9,-1225.9 -1741.9,-1168.1 -1730.6,-1168.1 -1730.6,-1160.1 -1730.6,-1160.1 -1730.6,-1150 -1718.5,-1150 -1718.5,-1140 
	-1308.6,-1140 -1308.6,-1150 -1307.8,-1150 -1296.5,-1150 -1296.5,-1158 -1296.5,-1160.1 -1285.1,-1160.1 -1285.1,-1168.1 
	-1285.1,-1225.9 "/>
<rect x="-1803.8" y="-1011.2" class="st13" width="92.2" height="32.8"/>
<text transform="matrix(1 0 0 1 -1782.7065 -993.0488)" class="st4" style="font-family:'EditUndoBRK'; font-size:31.5429px;">DMG</text>
<g>
	<g>
		<polygon class="st22" points="-1604,-976.8 -1349.3,-976.8 -1349.3,-994.8 -1604,-994.8 -1604,-994.7 -1604,-989.6 -1611,-989.6 
			-1611,-982 -1604,-982 -1604,-976.9 		"/>
	</g>
	<polygon class="st22" points="-1340.7,-989.7 -1340.7,-994.8 -1340.7,-994.8 -1396.4,-994.8 -1396.4,-976.8 -1340.7,-976.8 
		-1340.7,-976.9 -1340.7,-982 -1333.8,-982 -1333.8,-989.7 	"/>
</g>
<g class="st33">
	<polygon class="st34" points="-960.5,-763.7 -960.5,-841.7 -1050.4,-841.7 -1050.4,-831.6 -1060.5,-831.6 -1060.5,-773.8 
		-1050.4,-773.8 -1050.4,-763.7 	"/>
	<polygon class="st34" points="-725.4,-832.6 -725.4,-842.7 -735.5,-842.7 -817.5,-842.7 -817.5,-764.7 -735.5,-764.7 
		-725.4,-764.7 -725.4,-774.8 -715.4,-774.8 -715.4,-832.6 	"/>
	<rect x="-1040.5" y="-832.7" class="st34" width="305" height="78"/>
</g>
<g>
	<polygon class="st31" points="-950.5,-763.7 -950.5,-841.7 -1040.4,-841.7 -1040.4,-831.6 -1050.5,-831.6 -1050.5,-773.8 
		-1040.4,-773.8 -1040.4,-763.7 	"/>
	<polygon class="st31" points="-960.5,-773.7 -960.5,-851.7 -1050.4,-851.7 -1050.4,-841.6 -1060.5,-841.6 -1060.5,-783.8 
		-1050.4,-783.8 -1050.4,-773.7 	"/>
	<polygon class="st31" points="-735.4,-831.6 -735.4,-841.7 -745.5,-841.7 -827.5,-841.7 -827.5,-763.7 -745.5,-763.7 
		-735.4,-763.7 -735.4,-773.8 -725.4,-773.8 -725.4,-831.6 	"/>
	<polygon class="st31" points="-725.4,-841.6 -725.4,-851.7 -735.5,-851.7 -817.5,-851.7 -817.5,-773.7 -735.5,-773.7 
		-725.4,-773.7 -725.4,-783.8 -715.4,-783.8 -715.4,-841.6 	"/>
	<rect x="-950.5" y="-841.7" class="st31" width="123" height="78"/>
</g>
<g>
	<polygon class="st35" points="-950.5,-773.7 -950.5,-851.7 -1040.4,-851.7 -1040.4,-841.6 -1050.5,-841.6 -1050.5,-783.8 
		-1040.4,-783.8 -1040.4,-773.7 	"/>
	<polygon class="st35" points="-735.4,-841.6 -735.4,-851.7 -745.5,-851.7 -813.5,-851.7 -813.5,-773.7 -745.5,-773.7 
		-735.4,-773.7 -735.4,-783.8 -725.4,-783.8 -725.4,-841.6 	"/>
</g>
<g class="st33">
	<polygon class="st34" points="-960.5,-1027.3 -960.5,-1105.3 -1050.4,-1105.3 -1050.4,-1095.2 -1060.5,-1095.2 -1060.5,-1037.3 
		-1050.4,-1037.3 -1050.4,-1027.3 	"/>
	<polygon class="st34" points="-725.4,-1096.2 -725.4,-1106.3 -735.5,-1106.3 -817.5,-1106.3 -817.5,-1028.3 -735.5,-1028.3 
		-725.4,-1028.3 -725.4,-1038.3 -715.4,-1038.3 -715.4,-1096.2 	"/>
	<rect x="-1040.5" y="-1096.3" class="st34" width="305" height="78"/>
</g>
<g>
	<polygon class="st31" points="-950.5,-1027.3 -950.5,-1105.3 -1040.4,-1105.3 -1040.4,-1095.2 -1050.5,-1095.2 -1050.5,-1037.3 
		-1040.4,-1037.3 -1040.4,-1027.3 	"/>
	<polygon class="st31" points="-960.5,-1037.3 -960.5,-1115.3 -1050.4,-1115.3 -1050.4,-1105.2 -1060.5,-1105.2 -1060.5,-1047.3 
		-1050.4,-1047.3 -1050.4,-1037.3 	"/>
	<polygon class="st31" points="-735.4,-1095.2 -735.4,-1105.3 -745.5,-1105.3 -827.5,-1105.3 -827.5,-1027.3 -745.5,-1027.3 
		-735.4,-1027.3 -735.4,-1037.3 -725.4,-1037.3 -725.4,-1095.2 	"/>
	<polygon class="st31" points="-725.4,-1105.2 -725.4,-1115.3 -735.5,-1115.3 -817.5,-1115.3 -817.5,-1037.3 -735.5,-1037.3 
		-725.4,-1037.3 -725.4,-1047.3 -715.4,-1047.3 -715.4,-1105.2 	"/>
	<rect x="-950.5" y="-1105.3" class="st31" width="123" height="78"/>
</g>
<g>
	<polygon class="st35" points="-950.5,-1037.3 -950.5,-1115.3 -1040.4,-1115.3 -1040.4,-1105.2 -1050.5,-1105.2 -1050.5,-1047.4 
		-1040.4,-1047.4 -1040.4,-1037.3 	"/>
	<polygon class="st35" points="-735.4,-1105.2 -735.4,-1115.3 -745.5,-1115.3 -813.5,-1115.3 -813.5,-1037.3 -745.5,-1037.3 
		-735.4,-1037.3 -735.4,-1047.4 -725.4,-1047.4 -725.4,-1105.2 	"/>
</g>
<rect x="-965.5" y="-851.7" class="st35" width="169" height="78"/>
<rect x="-965.5" y="-1115.3" class="st35" width="169" height="78"/>
<g>
	<rect x="-970.5" y="-819.5" class="st13" width="179" height="81.8"/>
	<text transform="matrix(1 0 0 1 -948.3499 -791.8258)" class="st4" style="font-family:'EditUndoBRK'; font-size:48px;">124 KM</text>
</g>
<g>
	<rect x="-84.8" y="-841.7" class="st32" width="8" height="2"/>
	<polygon class="st32" points="-165.9,-841.7 -165.9,-831.6 -175.8,-831.6 -175.8,-773.8 -165.9,-773.8 -165.9,-763.8 
		-165.9,-763.8 -165.9,-763.7 -156,-763.7 -156,-753.7 -100.8,-753.7 -100.8,-841.7 	"/>
</g>
<polygon class="st31" points="-75.8,-841.7 -75.8,-851.7 -165.8,-851.7 -165.8,-841.6 -175.8,-841.6 -175.8,-783.8 -165.8,-783.8 
	-165.8,-773.8 -165.8,-773.8 -165.8,-773.7 -155.8,-773.7 -155.8,-763.7 -65.8,-763.7 -65.8,-841.7 "/>
<g>
	<g>
		<g>
			<polygon class="st2" points="-105.8,-830.2 -111.1,-830.2 -143.6,-830.2 -143.6,-824.9 -148.9,-824.9 -148.9,-787 -143.6,-787 
				-143.6,-781.7 -111.1,-781.7 -105.8,-781.7 -105.8,-787 -100.5,-787 -100.5,-824.9 -105.8,-824.9 			"/>
			<polygon class="st3" points="-105.5,-835.9 -110.9,-835.9 -143.6,-835.9 -143.6,-830.6 -148.9,-830.6 -148.9,-792.5 
				-143.6,-792.5 -143.6,-787.1 -110.9,-787.1 -105.5,-787.1 -105.5,-792.5 -100.1,-792.5 -100.1,-830.6 -105.5,-830.6 			"/>
		</g>
		<g>
			<rect x="-136" y="-806.8" class="st4" width="24.2" height="4.8"/>
			<rect x="-136" y="-818" class="st4" width="24.2" height="4.8"/>
		</g>
	</g>
	<g class="st33">
		<polygon class="st36" points="-143.6,-781.6 -143.6,-776.6 -138.2,-776.6 -105.5,-776.6 -105.5,-781.6 -138.2,-781.6 		"/>
		<rect x="-148.9" y="-786.9" class="st36" width="5.4" height="5"/>
		<rect x="-105.5" y="-786.9" class="st36" width="5.4" height="5"/>
	</g>
</g>
<g>
	<rect x="-84.8" y="-1065.4" class="st32" width="8" height="2"/>
	<polygon class="st32" points="-165.9,-1065.4 -165.9,-1055.3 -175.8,-1055.3 -175.8,-997.4 -165.9,-997.4 -165.9,-987.4 
		-165.9,-987.4 -165.9,-987.4 -156,-987.4 -156,-977.4 -100.8,-977.4 -100.8,-1065.4 	"/>
</g>
<polygon class="st31" points="-75.8,-1065.4 -75.8,-1075.4 -165.8,-1075.4 -165.8,-1065.3 -175.8,-1065.3 -175.8,-1007.4 
	-165.8,-1007.4 -165.8,-997.4 -165.8,-997.4 -165.8,-997.4 -155.8,-997.4 -155.8,-987.4 -65.8,-987.4 -65.8,-1065.4 "/>
<g>
	<g>
		<g>
			<polygon class="st2" points="-105.8,-1173.4 -111.1,-1173.4 -143.6,-1173.4 -143.6,-1168.1 -148.9,-1168.1 -148.9,-1130.3 
				-143.6,-1130.3 -143.6,-1124.9 -111.1,-1124.9 -105.8,-1124.9 -105.8,-1130.3 -100.5,-1130.3 -100.5,-1168.1 -105.8,-1168.1 			
				"/>
			<polygon class="st3" points="-105.5,-1179.2 -110.9,-1179.2 -143.6,-1179.2 -143.6,-1173.8 -148.9,-1173.8 -148.9,-1135.7 
				-143.6,-1135.7 -143.6,-1130.4 -110.9,-1130.4 -105.5,-1130.4 -105.5,-1135.7 -100.1,-1135.7 -100.1,-1173.8 -105.5,-1173.8 			
				"/>
		</g>
		<g>
			<rect x="-136" y="-1150.1" class="st4" width="24.2" height="4.8"/>
			<rect x="-136" y="-1161.2" class="st4" width="24.2" height="4.8"/>
		</g>
	</g>
	<g class="st33">
		<polygon class="st36" points="-143.6,-1124.8 -143.6,-1119.8 -138.2,-1119.8 -105.5,-1119.8 -105.5,-1124.8 -138.2,-1124.8 		"/>
		<rect x="-148.9" y="-1130.2" class="st36" width="5.4" height="5"/>
		<rect x="-105.5" y="-1130.2" class="st36" width="5.4" height="5"/>
	</g>
</g>
<polygon class="st22" points="-1560,-1092.9 -1560,-1098.2 -1573.4,-1098.2 -1574,-1098.2 -1586.9,-1098.2 -1587.4,-1098.2 
	-1600.4,-1098.2 -1600.9,-1098.2 -1614.4,-1098.2 -1614.4,-1093 -1621.1,-1093 -1621.1,-1085.3 -1614.4,-1085.3 -1614.4,-1080.1 
	-1614.1,-1080.1 -1608.2,-1080.1 -1607,-1080.1 -1601.1,-1080.1 -1600.9,-1080.1 -1600.6,-1080.1 -1600.4,-1080.1 -1594.7,-1080.1 
	-1593.5,-1080.1 -1587.7,-1080.1 -1587.4,-1080.1 -1587.1,-1080.1 -1586.9,-1080.1 -1581.2,-1080.1 -1580.1,-1080.1 
	-1574.2,-1080.1 -1574,-1080.1 -1573.6,-1080.1 -1573.4,-1080.1 -1567.7,-1080.1 -1566.6,-1080.1 -1560.7,-1080.1 -1560,-1080.1 
	-1560,-1085.3 -1553.7,-1085.3 -1553.7,-1092.9 "/>
<polygon class="st37" points="-1337.9,-1329.8 -1337.9,-1335.1 -1351.4,-1335.1 -1351.9,-1335.1 -1364.9,-1335.1 -1365.4,-1335.1 
	-1378.4,-1335.1 -1378.9,-1335.1 -1391.5,-1335.1 -1392.4,-1335.1 -1405,-1335.1 -1405.5,-1335.1 -1418.5,-1335.1 -1419,-1335.1 
	-1431.9,-1335.1 -1432.5,-1335.1 -1445.4,-1335.1 -1445.9,-1335.1 -1458.9,-1335.1 -1459.4,-1335.1 -1472.4,-1335.1 
	-1472.9,-1335.1 -1485.9,-1335.1 -1486.4,-1335.1 -1499.3,-1335.1 -1499.9,-1335.1 -1512.8,-1335.1 -1513.3,-1335.1 
	-1526.3,-1335.1 -1526.8,-1335.1 -1539.8,-1335.1 -1540.3,-1335.1 -1553.2,-1335.1 -1553.8,-1335.1 -1566.7,-1335.1 
	-1567.2,-1335.1 -1580.2,-1335.1 -1580.7,-1335.1 -1593.7,-1335.1 -1594.2,-1335.1 -1607.7,-1335.1 -1607.7,-1329.8 
	-1614.4,-1329.8 -1614.4,-1322.2 -1607.7,-1322.2 -1607.7,-1317 -1607.3,-1317 -1601.5,-1317 -1600.3,-1317 -1594.4,-1317 
	-1594.2,-1317 -1593.9,-1317 -1593.7,-1317 -1588,-1317 -1586.8,-1317 -1580.9,-1317 -1580.7,-1317 -1580.4,-1317 -1580.2,-1317 
	-1574.5,-1317 -1573.3,-1317 -1567.5,-1317 -1567.2,-1317 -1566.9,-1317 -1566.7,-1317 -1561,-1317 -1559.9,-1317 -1554,-1317 
	-1553.8,-1317 -1553.4,-1317 -1553.2,-1317 -1547.5,-1317 -1546.4,-1317 -1540.5,-1317 -1540.3,-1317 -1540,-1317 -1539.8,-1317 
	-1534.1,-1317 -1532.9,-1317 -1527,-1317 -1526.8,-1317 -1526.5,-1317 -1526.3,-1317 -1520.6,-1317 -1519.4,-1317 -1513.6,-1317 
	-1513.3,-1317 -1513,-1317 -1512.8,-1317 -1507.1,-1317 -1506,-1317 -1500.1,-1317 -1499.9,-1317 -1499.5,-1317 -1499.3,-1317 
	-1493.6,-1317 -1492.5,-1317 -1486.6,-1317 -1486.4,-1317 -1486,-1317 -1485.9,-1317 -1480.2,-1317 -1479,-1317 -1473.1,-1317 
	-1472.9,-1317 -1472.6,-1317 -1472.4,-1317 -1466.7,-1317 -1465.5,-1317 -1459.6,-1317 -1459.4,-1317 -1459.1,-1317 -1458.9,-1317 
	-1453.2,-1317 -1452,-1317 -1446.2,-1317 -1445.9,-1317 -1445.6,-1317 -1445.4,-1317 -1439.7,-1317 -1438.6,-1317 -1432.7,-1317 
	-1432.5,-1317 -1432.1,-1317 -1431.9,-1317 -1426.2,-1317 -1425.1,-1317 -1419.2,-1317 -1419,-1317 -1418.7,-1317 -1418.5,-1317 
	-1412.8,-1317 -1411.6,-1317 -1405.7,-1317 -1405.5,-1317 -1405.2,-1317 -1405,-1317 -1399.3,-1317 -1398.1,-1317 -1392.4,-1317 
	-1392.3,-1317 -1392,-1317 -1391.5,-1317 -1386.1,-1317 -1385,-1317 -1379.1,-1317 -1378.9,-1317 -1378.5,-1317 -1378.4,-1317 
	-1372.6,-1317 -1371.5,-1317 -1365.6,-1317 -1365.4,-1317 -1365.1,-1317 -1364.9,-1317 -1359.2,-1317 -1358,-1317 -1352.1,-1317 
	-1351.9,-1317 -1351.6,-1317 -1351.4,-1317 -1345.7,-1317 -1344.5,-1317 -1338.7,-1317 -1337.9,-1317 -1337.9,-1322.1 
	-1331.6,-1322.1 -1331.6,-1329.8 "/>
<g>
	<polygon class="st31" points="130.2,47.3 135.5,47.3 148.4,47.3 148.4,36 161.3,36 161.3,24.7 174.2,24.7 174.2,13.4 174.2,0 
		200,0 200,2.1 200,13.4 200,47.3 200,58.6 200,69.9 174.2,69.9 130.2,69.9 	"/>
</g>
<g>
	<polygon class="st31" points="67,47.3 61.7,47.3 48.8,47.3 48.8,36 35.9,36 35.9,24.7 23,24.7 23,13.4 23,0 -2.8,0 -2.8,2.1 
		-2.8,13.4 -2.8,47.3 -2.8,58.6 -2.8,69.9 23,69.9 67,69.9 	"/>
</g>
<g>
	<polygon class="st31" points="122.4,94.5 117.1,94.5 104.2,94.5 104.2,83.2 91.3,83.2 91.3,71.9 78.4,71.9 78.4,60.6 78.4,47.2 
		52.6,47.2 52.6,49.3 52.6,60.6 52.6,94.5 52.6,105.8 52.6,117.1 78.4,117.1 122.4,117.1 	"/>
</g>
<g>
	<polygon class="st31" points="0,10.9 0,16.2 0,29.1 -11.3,29.1 -11.3,42 -22.6,42 -22.6,54.9 -33.9,54.9 -47.3,54.9 -47.3,80.7 
		-45.2,80.7 -33.9,80.7 0,80.7 11.3,80.7 22.6,80.7 22.6,54.9 22.6,10.9 	"/>
</g>
</svg>
