<?xml version="1.0" encoding="utf-8"?>
<!-- Generator: Adobe Illustrator 22.0.1, SVG Export Plug-In . SVG Version: 6.00 Build 0)  -->
<svg version="1.1" id="Layer_1" xmlns="http://www.w3.org/2000/svg" xmlns:xlink="http://www.w3.org/1999/xlink" x="0px" y="0px"
	 width="70px" height="70px" viewBox="0 0 70 70" style="enable-background:new 0 0 70 70;" xml:space="preserve">
<style type="text/css">
	.st0{fill:#5895B7;}
	.st1{opacity:0.8;}
	.st2{fill:#C17620;}
	.st3{fill:#F4C24A;}
	.st4{fill:#FFFFFF;}
	.st5{fill:#2A6FBA;}
	.st6{fill:#4ABAEF;}
	.st7{fill:#95C9C8;}
	.st8{fill:#DDEFEE;}
	.st9{fill:#1B8E6F;}
	.st10{fill:#3CEA8A;}
	.st11{opacity:0.4;fill:#666666;}
	.st12{fill:#33BC6E;}
	.st13{fill:none;}
	.st14{fill:#7149A4;}
	.st15{fill:#BD86E0;}
	.st16{opacity:0.4;fill:#666666;stroke:#666666;stroke-width:4;stroke-linejoin:bevel;stroke-miterlimit:10;}
	.st17{fill:#F2F2F2;}
	.st18{fill:#E6E6E6;}
	.st19{fill:none;stroke:#000000;stroke-width:4;stroke-linejoin:bevel;stroke-miterlimit:10;}
	.st20{fill:#C6E0DE;}
	.st21{fill:#A7C6C3;}
	.st22{fill:#EE3D53;}
	.st23{fill:none;stroke:#000000;stroke-width:2;stroke-miterlimit:10;}
	.st24{fill:#A17559;}
	.st25{fill:#910E46;}
	.st26{fill:#238D6F;}
	.st27{fill:#704CA2;}
	.st28{fill:#47E88D;}
	.st29{fill:#BC88DE;}
	.st30{fill:#CCCCCC;}
	.st31{fill:#5B2616;}
	.st32{opacity:0.38;fill:#2D3D3E;}
	.st33{opacity:0.38;}
	.st34{fill:#2D3D3E;}
	.st35{fill:#3F180F;}
	.st36{fill:#1A1A1A;}
	.st37{fill:#38140C;}
</style>
<g>
	<rect x="-2821" y="970" class="st0" width="484" height="82"/>
	<rect x="-2369" y="1044" class="st0" width="107" height="30"/>
	<g class="st1">
		<g>
			<polygon class="st0" points="-2805,990 -2805,1072 -2901,1072 -2901,1061 -2889,1061 -2889,1049 -2877,1049 -2877,1037 
				-2865,1037 -2865,1025 -2877,1025 -2877,1013 -2889,1013 -2889,1001 -2901,1001 -2901,990 			"/>
		</g>
		<polygon class="st0" points="-2819,1048 -2805,1071 -2805,1048 		"/>
	</g>
	<g>
		<g>
			<polygon class="st2" points="-2358,982 -2358,1064 -2262,1064 -2262,1053 -2274,1053 -2274,1041 -2286,1041 -2286,1029 
				-2298,1029 -2298,1017 -2286,1017 -2286,1005 -2274,1005 -2274,993 -2262,993 -2262,982 			"/>
			<polygon class="st3" points="-2358,971 -2358,1053 -2262,1053 -2262,1042 -2274,1042 -2274,1030 -2286,1030 -2286,1018 
				-2298,1018 -2298,1006 -2286,1006 -2286,994 -2274,994 -2274,982 -2262,982 -2262,971 			"/>
		</g>
		<polygon class="st2" points="-2344,1040 -2358,1063 -2358,1040 		"/>
		<g>
			<g>
				<polygon class="st2" points="-2814,982 -2814,1064 -2910,1064 -2910,1053 -2898,1053 -2898,1041 -2886,1041 -2886,1029 
					-2874,1029 -2874,1017 -2886,1017 -2886,1005 -2898,1005 -2898,993 -2910,993 -2910,982 				"/>
				<polygon class="st3" points="-2814,971 -2814,1053 -2910,1053 -2910,1042 -2898,1042 -2898,1030 -2886,1030 -2886,1018 
					-2874,1018 -2874,1006 -2886,1006 -2886,994 -2898,994 -2898,982 -2910,982 -2910,971 				"/>
			</g>
			<polygon class="st2" points="-2828,1040 -2814,1063 -2814,1040 			"/>
		</g>
		<g>
			<rect x="-2828" y="958" class="st2" width="484" height="82"/>
			<rect x="-2828" y="946" class="st3" width="484" height="82"/>
		</g>
	</g>
	<g>
		<path class="st4" d="M-2757.4,1005.8h-8.6v-34.6h8.6v13h8.6v-13h8.6v34.6h-8.6v-13h-8.6V1005.8z"/>
		<path class="st4" d="M-2735.8,975.6h4.3v-4.3h17.3v4.3h4.3v25.9h-4.3v4.3h-17.3v-4.3h-4.3V975.6z M-2727.1,997.2h8.6v-17.3h-8.6
			V997.2z"/>
		<path class="st4" d="M-2696.9,1005.8h-8.6v-34.6h8.6v17.3h4.3v-4.3h4.3v4.3h4.3v-17.3h8.6v34.6h-8.6v-4.3h-4.3v-4.3h-4.3v4.3h-4.3
			V1005.8z"/>
		<path class="st4" d="M-2640.7,971.2h25.9v8.6h-8.6v25.9h-8.6v-25.9h-8.6V971.2z"/>
		<path class="st4" d="M-2610.5,975.6h4.3v-4.3h17.3v4.3h4.3v25.9h-4.3v4.3h-17.3v-4.3h-4.3V975.6z M-2601.9,997.2h8.6v-17.3h-8.6
			V997.2z"/>
		<path class="st4" d="M-2541.4,1005.8h-8.6v-34.6h21.6v4.3h4.3v13h-4.3v4.3h-13V1005.8z M-2541.4,984.2h8.6v-4.3h-8.6V984.2z"/>
		<path class="st4" d="M-2515.5,1001.5h-4.3v-30.2h8.6v25.9h17.3v8.6h-21.6V1001.5z"/>
		<path class="st4" d="M-2480.9,1005.8h-8.6v-30.2h4.3v-4.3h17.3v4.3h4.3v30.2h-8.6v-13h-8.6V1005.8z M-2472.3,984.2v-4.3h-8.6v4.3
			H-2472.3z"/>
		<path class="st4" d="M-2459.3,971.2h8.6v13h8.6v-13h8.6v17.3h-4.3v4.3h-4.3v13h-8.6v-13h-4.3v-4.3h-4.3V971.2z"/>
	</g>
</g>
<polygon class="st5" points="-2652,1239 -2664,1239 -2737,1239 -2737,1251 -2749,1251 -2749,1336 -2737,1336 -2737,1348 -2664,1348 
	-2652,1348 -2652,1336 -2640,1336 -2640,1251 -2652,1251 "/>
<polygon class="st5" points="-2652,1239 -2664,1239 -2737,1239 -2737,1251 -2749,1251 -2749,1336 -2737,1336 -2737,1348 -2664,1348 
	-2652,1348 -2652,1336 -2640,1336 -2640,1251 -2652,1251 "/>
<g>
	<path class="st4" d="M-2712.4,1273.2h28.4v5.7h5.7v17.1h-5.7v5.7h-17.1v-11.4h11.4v-5.7h-22.8V1273.2z M-2701,1307.4h11.4v11.4
		h-11.4V1307.4z"/>
</g>
<polygon class="st5" points="-2501,1239 -2513,1239 -2586,1239 -2586,1251 -2598,1251 -2598,1336 -2586,1336 -2586,1348 -2513,1348 
	-2501,1348 -2501,1336 -2489,1336 -2489,1251 -2501,1251 "/>
<polygon class="st6" points="-2501,1229 -2513,1229 -2586,1229 -2586,1241 -2598,1241 -2598,1326 -2586,1326 -2586,1338 -2513,1338 
	-2501,1338 -2501,1326 -2489,1326 -2489,1241 -2501,1241 "/>
<g>
	<path class="st4" d="M-2561.4,1263.2h28.4v5.7h5.7v17.1h-5.7v5.7h-17.1v-11.4h11.4v-5.7h-22.8V1263.2z M-2550,1297.4h11.4v11.4
		h-11.4V1297.4z"/>
</g>
<g>
	<polygon class="st0" points="-1466,1083.5 -1477.6,1083.5 -1477.6,1071.9 -1489.1,1071.9 -1489.1,1059.1 -1987.9,1059.1 
		-1987.9,1071.9 -1999.4,1071.9 -1999.4,1083.5 -2011,1083.5 -2011,1768.3 -1999.4,1768.3 -1999.4,1779.9 -1987.9,1779.9 
		-1987.9,1792.7 -1489.1,1792.7 -1489.1,1779.9 -1477.6,1779.9 -1477.6,1768.3 -1466,1768.3 	"/>
	<polygon class="st7" points="-1466,1071.5 -1477.6,1071.5 -1477.6,1059.9 -1489.1,1059.9 -1489.1,1047.1 -1987.9,1047.1 
		-1987.9,1059.9 -1999.4,1059.9 -1999.4,1071.5 -2011,1071.5 -2011,1756.2 -1999.4,1756.2 -1999.4,1767.9 -1987.9,1767.9 
		-1987.9,1780.7 -1489.1,1780.7 -1489.1,1767.9 -1477.6,1767.9 -1477.6,1756.2 -1466,1756.2 	"/>
	<polygon class="st8" points="-1466,1059.5 -1477.6,1059.5 -1477.6,1047.8 -1489.1,1047.8 -1489.1,1035 -1987.9,1035 
		-1987.9,1047.8 -1999.4,1047.8 -1999.4,1059.5 -2011,1059.5 -2011,1744.2 -1999.4,1744.2 -1999.4,1755.8 -1987.9,1755.8 
		-1987.9,1768.7 -1489.1,1768.7 -1489.1,1755.8 -1477.6,1755.8 -1477.6,1744.2 -1466,1744.2 	"/>
</g>
<g>
	<polygon class="st0" points="-2952,-909 -2956.1,-909 -2956.1,-913.1 -2960.1,-913.1 -2960.1,-917.7 -3136.4,-917.7 
		-3136.4,-913.1 -3140.4,-913.1 -3140.4,-909 -3144.5,-909 -3144.5,-667.1 -3140.4,-667.1 -3140.4,-663 -3136.4,-663 
		-3136.4,-658.4 -2960.1,-658.4 -2960.1,-663 -2956.1,-663 -2956.1,-667.1 -2952,-667.1 	"/>
	<polygon class="st7" points="-2952,-913.3 -2956.1,-913.3 -2956.1,-917.4 -2960.1,-917.4 -2960.1,-921.9 -3136.4,-921.9 
		-3136.4,-917.4 -3140.4,-917.4 -3140.4,-913.3 -3144.5,-913.3 -3144.5,-671.3 -3140.4,-671.3 -3140.4,-667.2 -3136.4,-667.2 
		-3136.4,-662.7 -2960.1,-662.7 -2960.1,-667.2 -2956.1,-667.2 -2956.1,-671.3 -2952,-671.3 	"/>
	<polygon class="st8" points="-2952,-917.5 -2956.1,-917.5 -2956.1,-921.6 -2960.1,-921.6 -2960.1,-926.2 -3136.4,-926.2 
		-3136.4,-921.6 -3140.4,-921.6 -3140.4,-917.5 -3144.5,-917.5 -3144.5,-675.6 -3140.4,-675.6 -3140.4,-671.5 -3136.4,-671.5 
		-3136.4,-666.9 -2960.1,-666.9 -2960.1,-671.5 -2956.1,-671.5 -2956.1,-675.6 -2952,-675.6 	"/>
</g>
<g>
	<polygon class="st9" points="-2515,719 -2525,719 -2899.9,719 -2899.9,729.1 -2910,729.1 -2910,787 -2899.9,787 -2899.9,797 
		-2525,797 -2515,797 -2515,787 -2504.9,787 -2504.9,729.1 -2515,729.1 	"/>
	<polygon class="st10" points="-2515,709 -2525,709 -2899.9,709 -2899.9,719.1 -2910,719.1 -2910,777 -2899.9,777 -2899.9,787 
		-2525,787 -2515,787 -2515,777 -2504.9,777 -2504.9,719.1 -2515,719.1 	"/>
	<g>
		<path class="st4" d="M-2789.9,759.9h-6.9v-27.6h17.3v3.5h3.5v10.4h-3.5v3.5h-10.4V759.9z M-2789.9,742.6h6.9v-3.5h-6.9V742.6z"/>
		<path class="st4" d="M-2769.2,756.5h-3.5v-24.2h6.9V753h13.8v6.9h-17.3V756.5z"/>
		<path class="st4" d="M-2741.6,759.9h-6.9v-24.2h3.5v-3.5h13.8v3.5h3.5v24.2h-6.9v-10.4h-6.9V759.9z M-2734.6,742.6v-3.5h-6.9v3.5
			H-2734.6z"/>
		<path class="st4" d="M-2724.3,732.3h6.9v10.4h6.9v-10.4h6.9v13.8h-3.5v3.5h-3.5v10.4h-6.9v-10.4h-3.5v-3.5h-3.5V732.3z"/>
		<path class="st4" d="M-2696.6,756.5h-3.5v-20.7h3.5v-3.5h17.3v6.9h-13.8v3.5h6.9v6.9h-6.9v3.5h13.8v6.9h-17.3V756.5z"/>
		<path class="st4" d="M-2665.5,749.5h-3.5v10.4h-6.9v-27.6h17.3v3.5h3.5v10.4h-3.5v3.5h3.5v10.4h-6.9V753h-3.5V749.5z M-2669,742.6
			h6.9v-3.5h-6.9V742.6z"/>
		<path class="st4" d="M-2627.5,732.3h6.9v27.6h-6.9V732.3z"/>
	</g>
</g>
<g>
	<polygon class="st11" points="-2875.8,598.4 -2877.8,592.7 -2881.8,580.6 -2899.6,586.7 -2897.7,592.4 -2903.5,594.4 
		-2899.4,606.4 -2893.6,604.5 -2891.7,610.2 -2879.6,606.2 -2881.6,600.4 	"/>
	<polygon class="st11" points="-2837,586.4 -2839,580.6 -2843,568.6 -2860.8,574.6 -2858.9,580.4 -2864.7,582.3 -2860.6,594.4 
		-2854.8,592.4 -2852.9,598.2 -2840.8,594.1 -2842.8,588.3 	"/>
	<rect x="-2896.6" y="539.4" transform="matrix(0.9472 -0.3207 0.3207 0.9472 -332.0256 -898.3542)" width="7.1" height="38.6"/>
	<polygon points="-2877.4,593.6 -2879.4,587.9 -2883.5,575.8 -2901.3,581.9 -2899.3,587.6 -2905.1,589.6 -2901,601.6 -2895.2,599.7 
		-2893.3,605.4 -2881.3,601.4 -2883.2,595.6 	"/>
	<rect x="-2858.1" y="526.4" transform="matrix(0.9472 -0.3207 0.3207 0.9472 -325.8156 -886.7045)" width="7.1" height="38.6"/>
	<polygon points="-2839,580.6 -2840.9,574.8 -2845,562.8 -2862.8,568.8 -2860.8,574.6 -2866.6,576.6 -2862.5,588.6 -2856.8,586.6 
		-2854.8,592.4 -2842.8,588.3 -2844.7,582.6 	"/>
	<rect x="-2906.6" y="517.1" transform="matrix(0.9472 -0.3207 0.3207 0.9472 -320.9115 -896.7987)" width="47.7" height="17.3"/>
</g>
<g>
	<polygon class="st11" points="-2809.6,632 -2808.7,627.9 -2806.8,619.2 -2819.6,616.4 -2820.5,620.6 -2824.6,619.6 -2826.6,628.3 
		-2822.4,629.2 -2823.3,633.4 -2814.7,635.3 -2813.8,631.1 	"/>
	<polygon class="st11" points="-2782.1,638.8 -2781.2,634.6 -2779.3,626 -2792.1,623.2 -2793,627.3 -2797.1,626.4 -2799,635.1 
		-2794.9,636 -2795.8,640.1 -2787.2,642 -2786.2,637.9 	"/>
	<rect x="-2808" y="588.6" transform="matrix(0.9766 0.2149 -0.2149 0.9766 63.8419 616.9479)" width="5" height="26.9"/>
	<polygon points="-2808.8,628.6 -2807.9,624.4 -2806,615.8 -2818.8,613 -2819.7,617.1 -2823.9,616.2 -2825.8,624.8 -2821.6,625.7 
		-2822.6,629.9 -2813.9,631.8 -2813,627.6 	"/>
	<rect x="-2780.4" y="594.7" transform="matrix(0.9766 0.2149 -0.2149 0.9766 65.796 611.146)" width="5" height="26.9"/>
	<polygon points="-2781.2,634.6 -2780.3,630.5 -2778.4,621.9 -2791.2,619 -2792.1,623.2 -2796.2,622.3 -2798.1,630.9 -2794,631.8 
		-2794.9,636 -2786.2,637.9 -2785.3,633.7 	"/>
	<rect x="-2804.2" y="580.1" transform="matrix(0.9766 0.2149 -0.2149 0.9766 60.8301 612.7036)" width="33.3" height="12"/>
</g>
<g>
	<polygon class="st11" points="-2733.6,570.2 -2734.3,567.2 -2735.7,560.8 -2745.1,562.9 -2744.4,566 -2747.4,566.6 -2746,573 
		-2743,572.3 -2742.3,575.4 -2736,573.9 -2736.6,570.9 	"/>
	<polygon class="st11" points="-2713.2,566.2 -2713.8,563.2 -2715.3,556.8 -2724.6,558.9 -2724,562 -2727,562.6 -2725.6,569 
		-2722.6,568.3 -2721.9,571.3 -2715.5,569.9 -2716.2,566.9 	"/>
	<rect x="-2742" y="539.2" transform="matrix(0.9761 -0.2173 0.2173 0.9761 -184.7687 -582.2854)" width="3.6" height="19.8"/>
	<polygon points="-2734.2,567.7 -2734.8,564.6 -2736.2,558.3 -2745.6,560.4 -2745,563.4 -2748,564.1 -2746.6,570.5 -2743.5,569.8 
		-2742.9,572.8 -2736.5,571.4 -2737.2,568.4 	"/>
	<rect x="-2721.7" y="534.6" transform="matrix(0.9761 -0.2173 0.2173 0.9761 -183.3012 -577.9807)" width="3.6" height="19.8"/>
	<polygon points="-2713.8,563.2 -2714.5,560.1 -2715.9,553.8 -2725.3,555.9 -2724.6,558.9 -2727.7,559.6 -2726.3,565.9 
		-2723.2,565.3 -2722.6,568.3 -2716.2,566.9 -2716.9,563.8 	"/>
	<rect x="-2745.3" y="528.4" transform="matrix(0.9761 -0.2173 0.2173 0.9761 -181.0754 -581.1419)" width="24.4" height="8.8"/>
</g>
<g>
	<polygon class="st11" points="-2713,616 -2710.4,611.9 -2704.9,603.3 -2717.6,595.2 -2720.2,599.4 -2724.3,596.7 -2729.8,605.3 
		-2725.7,607.9 -2728.3,612 -2719.7,617.5 -2717.1,613.4 	"/>
	<polygon class="st11" points="-2686,634.1 -2683.4,630 -2677.9,621.4 -2690.6,613.4 -2693.2,617.5 -2697.3,614.9 -2702.8,623.4 
		-2698.7,626 -2701.3,630.2 -2692.7,635.6 -2690.1,631.5 	"/>
	<rect x="-2699.7" y="569.9" transform="matrix(0.844 0.5363 -0.5363 0.844 -106.7378 1537.6473)" width="5.7" height="30.9"/>
	<polygon points="-2710.8,612.6 -2708.2,608.4 -2702.7,599.9 -2715.4,591.8 -2718,595.9 -2722.2,593.3 -2727.6,601.9 -2723.5,604.5 
		-2726.1,608.6 -2717.5,614.1 -2714.9,609.9 	"/>
	<rect x="-2672.3" y="587.3" transform="matrix(0.844 0.5363 -0.5363 0.844 -93.1134 1525.6565)" width="5.7" height="30.9"/>
	<polygon points="-2683.4,630 -2680.8,625.9 -2675.3,617.3 -2688,609.2 -2690.6,613.4 -2694.7,610.7 -2700.2,619.3 -2696.1,621.9 
		-2698.7,626 -2690.1,631.5 -2687.5,627.4 	"/>
	<rect x="-2690.3" y="568.3" transform="matrix(0.844 0.5363 -0.5363 0.844 -108.1693 1522.2852)" width="38.2" height="13.8"/>
</g>
<g>
	<polygon class="st9" points="-2991.7,175.6 -2998.3,175.6 -3244.7,175.6 -3244.7,182.2 -3251.3,182.2 -3251.3,220.2 -3244.7,220.2 
		-3244.7,226.8 -2998.3,226.8 -2991.7,226.8 -2991.7,220.2 -2985.1,220.2 -2985.1,182.2 -2991.7,182.2 	"/>
	<polygon class="st12" points="-2991.7,175.6 -2998.3,175.6 -3244.7,175.6 -3244.7,182.2 -3251.3,182.2 -3251.3,220.2 
		-3244.7,220.2 -3244.7,226.8 -2998.3,226.8 -2991.7,226.8 -2991.7,220.2 -2985.1,220.2 -2985.1,182.2 -2991.7,182.2 	"/>
	<g>
		<path class="st4" d="M-3184.9,193.1h2.3v-2.3h11.4v4.5h-9.1v9.1h9.1v4.5h-11.4v-2.3h-2.3V193.1z"/>
		<path class="st4" d="M-3164.5,209h-4.5v-15.9h2.3v-2.3h9.1v2.3h2.3V209h-4.5v-6.8h-4.5V209z M-3159.9,197.7v-2.3h-4.5v2.3H-3159.9
			z"/>
		<path class="st4" d="M-3150.9,206.7h-2.3v-15.9h4.5v13.6h9.1v4.5h-11.4V206.7z"/>
		<path class="st4" d="M-3137.2,190.8h4.5V209h-4.5V190.8z"/>
		<path class="st4" d="M-3130.4,190.8h11.4v2.3h2.3v13.6h-2.3v2.3h-11.4V190.8z M-3125.9,197.7h4.5v-2.3h-4.5V197.7z M-3125.9,204.5
			h4.5v-2.3h-4.5V204.5z"/>
		<path class="st4" d="M-3107.7,202.2h-2.3v6.8h-4.5v-15.9h2.3v-2.3h9.1v2.3h2.3v6.8h-2.3v2.3h2.3v6.8h-4.5v-4.5h-2.3V202.2z
			 M-3110,197.7h4.5v-2.3h-4.5V197.7z"/>
		<path class="st4" d="M-3094.1,209h-4.5v-15.9h2.3v-2.3h9.1v2.3h2.3V209h-4.5v-6.8h-4.5V209z M-3089.5,197.7v-2.3h-4.5v2.3H-3089.5
			z"/>
		<path class="st4" d="M-3082.7,190.8h13.6v4.5h-4.5V209h-4.5v-13.6h-4.5V190.8z"/>
		<path class="st4" d="M-3064.6,206.7h-2.3v-13.6h2.3v-2.3h11.4v4.5h-9.1v2.3h4.5v4.5h-4.5v2.3h9.1v4.5h-11.4V206.7z"/>
	</g>
</g>
<g>
	<polygon class="st9" points="-2671.7,243.6 -2678.3,243.6 -2924.7,243.6 -2924.7,250.2 -2931.3,250.2 -2931.3,288.2 -2924.7,288.2 
		-2924.7,294.8 -2678.3,294.8 -2671.7,294.8 -2671.7,288.2 -2665.1,288.2 -2665.1,250.2 -2671.7,250.2 	"/>
	<polygon class="st10" points="-2671.7,237 -2678.3,237 -2924.7,237 -2924.7,243.6 -2931.3,243.6 -2931.3,281.6 -2924.7,281.6 
		-2924.7,288.3 -2678.3,288.3 -2671.7,288.3 -2671.7,281.6 -2665.1,281.6 -2665.1,243.6 -2671.7,243.6 	"/>
	<g>
		<path class="st4" d="M-2864.9,254.5h2.3v-2.3h11.4v4.5h-9.1v9.1h9.1v4.5h-11.4v-2.3h-2.3V254.5z"/>
		<path class="st4" d="M-2844.5,270.4h-4.5v-15.9h2.3v-2.3h9.1v2.3h2.3v15.9h-4.5v-6.8h-4.5V270.4z M-2839.9,259.1v-2.3h-4.5v2.3
			H-2839.9z"/>
		<path class="st4" d="M-2830.9,268.2h-2.3v-15.9h4.5v13.6h9.1v4.5h-11.4V268.2z"/>
		<path class="st4" d="M-2817.2,252.3h4.5v18.2h-4.5V252.3z"/>
		<path class="st4" d="M-2810.4,252.3h11.4v2.3h2.3v13.6h-2.3v2.3h-11.4V252.3z M-2805.9,259.1h4.5v-2.3h-4.5V259.1z M-2805.9,265.9
			h4.5v-2.3h-4.5V265.9z"/>
		<path class="st4" d="M-2787.7,263.6h-2.3v6.8h-4.5v-15.9h2.3v-2.3h9.1v2.3h2.3v6.8h-2.3v2.3h2.3v6.8h-4.5v-4.5h-2.3V263.6z
			 M-2790,259.1h4.5v-2.3h-4.5V259.1z"/>
		<path class="st4" d="M-2774.1,270.4h-4.5v-15.9h2.3v-2.3h9.1v2.3h2.3v15.9h-4.5v-6.8h-4.5V270.4z M-2769.5,259.1v-2.3h-4.5v2.3
			H-2769.5z"/>
		<path class="st4" d="M-2762.7,252.3h13.6v4.5h-4.5v13.6h-4.5v-13.6h-4.5V252.3z"/>
		<path class="st4" d="M-2744.6,268.2h-2.3v-13.6h2.3v-2.3h11.4v4.5h-9.1v2.3h4.5v4.5h-4.5v2.3h9.1v4.5h-11.4V268.2z"/>
	</g>
</g>
<g>
	<rect x="-2929.7" y="325.9" class="st9" width="219.8" height="28.8"/>
	<rect x="-2934.6" y="319.4" class="st9" width="229.4" height="30.6"/>
	<polygon class="st10" points="-2934.6,315 -2934.6,344.3 -2929.7,344.3 -2929.7,350 -2710,350 -2710,344.3 -2705.2,344.3 
		-2705.2,315 	"/>
</g>
<polygon class="st9" points="-2714.8,329.9 -2714.8,324.8 -2719.9,324.8 -2719.9,324.7 -2776.5,324.7 -2807.1,324.7 -2832.7,324.7 
	-2856.5,324.7 -2919.9,324.7 -2919.9,324.7 -2925,324.7 -2925,329.8 -2930.1,329.8 -2930.1,337.5 -2925,337.5 -2925,342.6 
	-2919.9,342.6 -2919.9,342.7 -2856.5,342.7 -2832.7,342.7 -2807.1,342.7 -2776.5,342.7 -2719.9,342.7 -2719.9,342.6 -2714.8,342.6 
	-2714.8,337.5 -2709.7,337.5 -2709.7,329.9 "/>
<g>
	<rect x="-2938.7" y="423.9" class="st13" width="4.7" height="0.1"/>
	<rect x="-2938.7" y="441.8" class="st13" width="4.7" height="0.1"/>
	<polygon class="st4" points="-2917.7,441.9 -2917.7,436.8 -2912.6,436.8 -2912.6,429.1 -2917.7,429.1 -2917.7,424 -2922.8,424 
		-2922.8,423.9 -2934,423.9 -2934,424 -2938.7,424 -2938.7,441.8 -2934,441.8 -2934,441.9 -2922.8,441.9 -2922.8,441.9 	"/>
</g>
<g>
	<polygon class="st4" points="-2964.5,388.4 -2964.5,383.3 -2969.6,383.3 -2969.6,383.2 -2985.5,383.2 -2985.5,401.2 -2969.6,401.2 
		-2969.6,401.1 -2964.5,401.1 -2964.5,396 -2959.4,396 -2959.4,388.4 	"/>
	<polygon class="st4" points="-2978,427.2 -2978,422.1 -2978,422.1 -2978,422 -2982.5,422 -2983.1,422 -2987.6,422 -2987.6,422.1 
		-2987.6,422.1 -2987.6,427.2 -2992.7,427.2 -2992.7,434.8 -2987.6,434.8 -2987.6,439.9 -2987.6,439.9 -2987.6,440 -2983.1,440 
		-2982.5,440 -2978,440 -2978,440 -2978,440 -2978,434.9 -2972.9,434.9 -2972.9,427.2 	"/>
</g>
<polygon class="st4" points="-3027.8,329.9 -3027.8,324.8 -3027.8,324.8 -3027.8,324.7 -3032.3,324.7 -3032.9,324.7 -3037.4,324.7 
	-3037.4,324.7 -3037.4,324.7 -3037.4,329.8 -3042.5,329.8 -3042.5,337.5 -3037.4,337.5 -3037.4,342.6 -3037.4,342.6 -3037.4,342.7 
	-3032.9,342.7 -3032.3,342.7 -3027.8,342.7 -3027.8,342.6 -3027.8,342.6 -3027.8,337.5 -3022.7,337.5 -3022.7,329.9 "/>
<polygon class="st14" points="-2062,719 -2072,719 -2446.9,719 -2446.9,729.1 -2457,729.1 -2457,787 -2446.9,787 -2446.9,797 
	-2072,797 -2062,797 -2062,787 -2051.9,787 -2051.9,729.1 -2062,729.1 "/>
<polygon class="st15" points="-2062,709 -2072,709 -2446.9,709 -2446.9,719.1 -2457,719.1 -2457,777 -2446.9,777 -2446.9,787 
	-2072,787 -2062,787 -2062,777 -2051.9,777 -2051.9,719.1 -2062,719.1 "/>
<g>
	<path class="st4" d="M-2344.4,759.9h-6.9v-27.6h17.3v3.5h3.5v10.4h-3.5v3.5h-10.4V759.9z M-2344.4,742.6h6.9v-3.5h-6.9V742.6z"/>
	<path class="st4" d="M-2323.6,756.5h-3.5v-24.2h6.9V753h13.8v6.9h-17.3V756.5z"/>
	<path class="st4" d="M-2296,759.9h-6.9v-24.2h3.5v-3.5h13.8v3.5h3.5v24.2h-6.9v-10.4h-6.9V759.9z M-2289.1,742.6v-3.5h-6.9v3.5
		H-2289.1z"/>
	<path class="st4" d="M-2278.7,732.3h6.9v10.4h6.9v-10.4h6.9v13.8h-3.5v3.5h-3.5v10.4h-6.9v-10.4h-3.5v-3.5h-3.5V732.3z"/>
	<path class="st4" d="M-2251,756.5h-3.5v-20.7h3.5v-3.5h17.3v6.9h-13.8v3.5h6.9v6.9h-6.9v3.5h13.8v6.9h-17.3V756.5z"/>
	<path class="st4" d="M-2219.9,749.5h-3.5v10.4h-6.9v-27.6h17.3v3.5h3.5v10.4h-3.5v3.5h3.5v10.4h-6.9V753h-3.5V749.5z
		 M-2223.4,742.6h6.9v-3.5h-6.9V742.6z"/>
	<path class="st4" d="M-2181.9,732.3h17.3v3.5h3.5v10.4h-3.5v3.5h-10.4v3.5h13.8v6.9h-20.7v-13.8h3.5v-3.5h10.4v-3.5h-13.8V732.3z"
		/>
</g>
<g>
	<rect x="-2436" y="713" class="st4" width="45.1" height="5.7"/>
	<rect x="-2384.7" y="713" class="st4" width="5.7" height="5.7"/>
</g>
<g>
	<rect x="-2890.5" y="714" class="st4" width="45.1" height="5.7"/>
	<rect x="-2839.2" y="714" class="st4" width="5.7" height="5.7"/>
</g>
<polygon class="st16" points="-2501.4,554 -2495,559.6 -2500.6,566 -2480.2,583.4 -2480.2,621.3 -2459.4,595.2 -2427.7,624.6 
	-2421.8,618.3 -2416.8,622.9 -2345.2,504.2 "/>
<polygon class="st17" points="-2503.8,546.9 -2497.5,552.5 -2503.1,558.9 -2482.6,576.3 -2482.6,614.2 -2461.9,588.1 -2430.1,617.5 
	-2424.3,611.2 -2419.3,615.8 -2347.7,497.1 "/>
<polygon class="st18" points="-2461.8,587.9 -2347.4,497.1 -2482.5,576.1 -2482.5,614 "/>
<polygon class="st19" points="-2504.9,547.1 -2498.5,552.7 -2504.1,559.1 -2483.7,576.4 -2483.7,614.3 -2462.9,588.2 -2431.2,617.6 
	-2425.3,611.3 -2420.4,615.9 -2348.7,497.3 "/>
<g>
	<polygon class="st20" points="-2569.1,240.3 -2569.1,404 -2558.7,404 -2558.7,413.5 -2548.3,413.5 -2548.3,423.9 -2100.8,423.9 
		-2100.8,413.5 -2090.4,413.5 -2090.4,404 -2080.1,404 -2080.1,240.3 	"/>
	<polygon class="st20" points="-2080.1,240.3 -2080.1,146.2 -2090.4,146.2 -2090.4,136.7 -2100.8,136.7 -2100.8,126.2 
		-2548.3,126.2 -2548.3,136.7 -2558.7,136.7 -2558.7,146.2 -2569.1,146.2 -2569.1,240.3 	"/>
</g>
<g>
	<polygon class="st21" points="-2558.7,142.8 -2548.3,142.8 -2548.3,134.8 -2558.7,134.8 -2558.7,142.7 -2569.1,142.7 
		-2569.1,150.7 -2558.7,150.7 	"/>
	<rect x="-2548.3" y="126.1" class="st21" width="447.5" height="8"/>
	<polygon class="st21" points="-2090.4,142.7 -2090.4,134.8 -2100.8,134.8 -2100.8,142.8 -2090.4,142.8 -2090.4,150.7 
		-2080.1,150.7 -2080.1,142.7 	"/>
</g>
<g>
	<g>
		<g>
			<rect x="-2962.2" y="61.8" width="10.2" height="10.2"/>
		</g>
	</g>
	<g>
		<g>
			<path d="M-2900.8,51.6v5.1h-5.1v5.1h5.1v20.5h5.1v5.1h-5.1v5.1h5.1h5.1V82.3h15.4v5.1h5.1v-5.1V51.6H-2900.8z M-2875.2,77.2
				h-20.5V56.7h20.5V77.2z"/>
		</g>
	</g>
	<g>
		<g>
			<rect x="-2890.5" y="61.8" width="10.2" height="10.2"/>
		</g>
	</g>
	<g>
		<g>
			<rect x="-2962.2" y="133.5" width="10.2" height="10.2"/>
		</g>
	</g>
	<g>
		<g>
			<rect x="-2900.8" y="123.3" width="5.1" height="5.1"/>
		</g>
	</g>
	<g>
		<g>
			<rect x="-2926.4" y="148.9" width="5.1" height="5.1"/>
		</g>
	</g>
	<g>
		<g>
			<rect x="-2921.2" y="128.4" width="5.1" height="5.1"/>
		</g>
	</g>
	<g>
		<g>
			<rect x="-2921.2" y="138.7" width="5.1" height="5.1"/>
		</g>
	</g>
	<g>
		<g>
			<rect x="-2875.2" y="113" width="5.1" height="5.1"/>
		</g>
	</g>
	<g>
		<g>
			<rect x="-2972.4" y="113" width="5.1" height="5.1"/>
		</g>
	</g>
	<g>
		<g>
			<rect x="-2972.4" y="87.4" width="5.1" height="5.1"/>
		</g>
	</g>
	<g>
		<g>
			<polygon points="-2916.1,56.7 -2916.1,61.8 -2926.4,61.8 -2926.4,67 -2911,67 -2911,61.8 -2911,56.7 			"/>
		</g>
	</g>
	<g>
		<g>
			<path d="M-2875.2,92.6v5.1h-10.2v5.1h-15.4v-5.1h-5.1v5.1h-10.2v5.1h15.4v5.1h-10.2h-5.1v-5.1h-5.1v5.1h-5.1v-5.1h-5.1v5.1h-5.1
				v5.1h10.2v5.1h5.1v-5.1h10.2v5.1h-5.1v5.1h5.1v10.2h5.1v5.1h5.1v-5.1h15.4v-10.2h5.1v-5.1h-5.1V113h-10.2v-5.1h10.2v5.1h5.1v-5.1
				h5.1v-5.1h5.1v-5.1v-5.1L-2875.2,92.6L-2875.2,92.6z M-2890.5,118.2v15.4h-15.4v-15.4H-2890.5z"/>
		</g>
	</g>
	<g>
		<g>
			<polygon points="-2905.9,82.3 -2911,82.3 -2911,87.4 -2916.1,87.4 -2916.1,92.6 -2916.1,97.7 -2911,97.7 -2911,92.6 
				-2905.9,92.6 -2905.9,87.4 -2900.8,87.4 -2900.8,82.3 			"/>
		</g>
	</g>
	<g>
		<g>
			<rect x="-2916.1" y="148.9" width="10.2" height="5.1"/>
		</g>
	</g>
	<g>
		<g>
			<rect x="-2931.5" y="56.7" width="5.1" height="5.1"/>
		</g>
	</g>
	<g>
		<g>
			<rect x="-2890.5" y="92.6" width="5.1" height="5.1"/>
		</g>
	</g>
	<g>
		<g>
			<rect x="-2885.4" y="87.4" width="5.1" height="5.1"/>
		</g>
	</g>
	<g>
		<g>
			<rect x="-2952" y="113" width="5.1" height="5.1"/>
		</g>
	</g>
	<g>
		<g>
			<path d="M-2941.7,148.9v-20.5h5.1v-5.1v-5.1h-5.1v5.1h-15.4v-5.1h-5.1h-5.1v5.1h-5.1V154h30.7h10.2v-5.1H-2941.7z M-2946.8,148.9
				h-20.5v-20.5h20.5V148.9z"/>
		</g>
	</g>
	<g>
		<g>
			<rect x="-2941.7" y="82.3" width="5.1" height="5.1"/>
		</g>
	</g>
	<g>
		<g>
			<path d="M-2936.6,51.6h-5.1h-30.7v30.7h5.1v5.1h5.1v-5.1h5.1v5.1h5.1v-5.1h10.2V72.1h5.1V67h-5.1V56.7h5.1h5.1v-5.1H-2936.6z
				 M-2946.8,77.2h-20.5V56.7h20.5V77.2z"/>
		</g>
	</g>
	<g>
		<g>
			<rect x="-2911" y="67" width="5.1" height="5.1"/>
		</g>
	</g>
	<g>
		<g>
			<rect x="-2921.2" y="51.6" width="5.1" height="5.1"/>
		</g>
	</g>
	<g>
		<g>
			<path d="M-2911,82.3v-5.1h-5.1v-5.1h-5.1v5.1h-10.2v-5.1h-5.1v5.1v5.1h5.1v10.2h-15.4v-5.1h-5.1v5.1h-15.4v5.1h10.2v5.1h-15.4
				v5.1h15.4v5.1h5.1v-5.1h5.1v5.1h5.1v-5.1h10.2v-5.1h-5.1v-5.1h5.1h5.1v5.1h5.1h5.1v-5.1h-5.1v-5.1h-5.1V82.3L-2911,82.3
				L-2911,82.3z M-2941.7,102.8h-10.2v-5.1h10.2V102.8z"/>
		</g>
	</g>
	<g>
		<g>
			<polygon points="-2926.4,133.5 -2926.4,128.4 -2926.4,123.3 -2931.5,123.3 -2931.5,128.4 -2936.6,128.4 -2936.6,133.5 
				-2931.5,133.5 -2931.5,138.7 -2936.6,138.7 -2936.6,143.8 -2926.4,143.8 -2926.4,138.7 -2921.2,138.7 -2921.2,133.5 			"/>
		</g>
	</g>
	<g>
		<g>
			<polygon points="-2880.3,143.8 -2880.3,138.7 -2885.4,138.7 -2885.4,143.8 -2900.8,143.8 -2900.8,148.9 -2890.5,148.9 
				-2890.5,154 -2885.4,154 -2885.4,148.9 -2875.2,148.9 -2875.2,154 -2870,154 -2870,148.9 -2870,143.8 			"/>
		</g>
	</g>
	<g>
		<g>
			<polygon points="-2875.2,123.3 -2875.2,128.4 -2880.3,128.4 -2880.3,133.5 -2870,133.5 -2870,128.4 -2870,123.3 			"/>
		</g>
	</g>
</g>
<g>
	<g>
		<polygon class="st9" points="-3200.6,467.7 -3204.2,467.7 -3341.4,467.7 -3341.4,471.4 -3345.1,471.4 -3345.1,492.6 
			-3341.4,492.6 -3341.4,496.3 -3204.2,496.3 -3200.6,496.3 -3200.6,492.6 -3196.9,492.6 -3196.9,471.4 -3200.6,471.4 		"/>
		<polygon class="st12" points="-3200.6,467.7 -3204.2,467.7 -3341.4,467.7 -3341.4,471.4 -3345.1,471.4 -3345.1,492.6 
			-3341.4,492.6 -3341.4,496.3 -3204.2,496.3 -3200.6,496.3 -3200.6,492.6 -3196.9,492.6 -3196.9,471.4 -3200.6,471.4 		"/>
		<g>
			<path class="st4" d="M-3313.2,482.6h-1.3v3.8h-2.5v-10.1h6.3v1.3h1.3v3.8h-1.3v1.3h1.3v3.8h-2.5v-2.5h-1.3V482.6z M-3314.5,480
				h2.5v-1.3h-2.5V480z"/>
			<path class="st4" d="M-3306.9,485.1h-1.3v-7.6h1.3v-1.3h6.3v2.5h-5.1v1.3h2.5v2.5h-2.5v1.3h5.1v2.5h-6.3V485.1z"/>
			<path class="st4" d="M-3298,485.1h-1.3v-7.6h1.3v-1.3h5.1v1.3h1.3v2.5h-2.5v-1.3h-2.5v5.1h2.5v-1.3h2.5v2.5h-1.3v1.3h-5.1V485.1z
				"/>
			<path class="st4" d="M-3287.9,486.4h-2.5v-8.9h1.3v-1.3h5.1v1.3h1.3v8.9h-2.5v-3.8h-2.5V486.4z M-3285.4,480v-1.3h-2.5v1.3
				H-3285.4z"/>
			<path class="st4" d="M-3280.3,485.1h-1.3v-8.9h2.5v7.6h5.1v2.5h-6.3V485.1z"/>
			<path class="st4" d="M-3272.7,476.2h2.5v10.1h-2.5V476.2z"/>
			<path class="st4" d="M-3268.9,476.2h6.3v1.3h1.3v7.6h-1.3v1.3h-6.3V476.2z M-3266.4,480h2.5v-1.3h-2.5V480z M-3266.4,483.8h2.5
				v-1.3h-2.5V483.8z"/>
			<path class="st4" d="M-3256.3,482.6h-1.3v3.8h-2.5v-8.9h1.3v-1.3h5.1v1.3h1.3v3.8h-1.3v1.3h1.3v3.8h-2.5v-2.5h-1.3V482.6z
				 M-3257.5,480h2.5v-1.3h-2.5V480z"/>
			<path class="st4" d="M-3248.7,486.4h-2.5v-8.9h1.3v-1.3h5.1v1.3h1.3v8.9h-2.5v-3.8h-2.5V486.4z M-3246.2,480v-1.3h-2.5v1.3
				H-3246.2z"/>
			<path class="st4" d="M-3242.4,476.2h7.6v2.5h-2.5v7.6h-2.5v-7.6h-2.5V476.2z"/>
			<path class="st4" d="M-3232.3,485.1h-1.3v-7.6h1.3v-1.3h6.3v2.5h-5.1v1.3h2.5v2.5h-2.5v1.3h5.1v2.5h-6.3V485.1z"/>
		</g>
	</g>
	<g>
		<rect x="-3339" y="469.9" class="st4" width="13.1" height="1.7"/>
		<rect x="-3324.1" y="469.9" class="st4" width="1.7" height="1.7"/>
	</g>
</g>
<g>
	<g>
		<polygon class="st9" points="-3200.6,509.7 -3204.2,509.7 -3341.4,509.7 -3341.4,513.4 -3345.1,513.4 -3345.1,534.6 
			-3341.4,534.6 -3341.4,538.3 -3204.2,538.3 -3200.6,538.3 -3200.6,534.6 -3196.9,534.6 -3196.9,513.4 -3200.6,513.4 		"/>
		<polygon class="st10" points="-3200.6,506.1 -3204.2,506.1 -3341.4,506.1 -3341.4,509.8 -3345.1,509.8 -3345.1,530.9 
			-3341.4,530.9 -3341.4,534.6 -3204.2,534.6 -3200.6,534.6 -3200.6,530.9 -3196.9,530.9 -3196.9,509.8 -3200.6,509.8 		"/>
		<g>
			<path class="st4" d="M-3313.2,520.9h-1.3v3.8h-2.5v-10.1h6.3v1.3h1.3v3.8h-1.3v1.3h1.3v3.8h-2.5v-2.5h-1.3V520.9z M-3314.5,518.4
				h2.5v-1.3h-2.5V518.4z"/>
			<path class="st4" d="M-3306.9,523.4h-1.3v-7.6h1.3v-1.3h6.3v2.5h-5.1v1.3h2.5v2.5h-2.5v1.3h5.1v2.5h-6.3V523.4z"/>
			<path class="st4" d="M-3298,523.4h-1.3v-7.6h1.3v-1.3h5.1v1.3h1.3v2.5h-2.5v-1.3h-2.5v5.1h2.5v-1.3h2.5v2.5h-1.3v1.3h-5.1V523.4z
				"/>
			<path class="st4" d="M-3287.9,524.7h-2.5v-8.9h1.3v-1.3h5.1v1.3h1.3v8.9h-2.5v-3.8h-2.5V524.7z M-3285.4,518.4v-1.3h-2.5v1.3
				H-3285.4z"/>
			<path class="st4" d="M-3280.3,523.4h-1.3v-8.9h2.5v7.6h5.1v2.5h-6.3V523.4z"/>
			<path class="st4" d="M-3272.7,514.6h2.5v10.1h-2.5V514.6z"/>
			<path class="st4" d="M-3268.9,514.6h6.3v1.3h1.3v7.6h-1.3v1.3h-6.3V514.6z M-3266.4,518.4h2.5v-1.3h-2.5V518.4z M-3266.4,522.2
				h2.5v-1.3h-2.5V522.2z"/>
			<path class="st4" d="M-3256.3,520.9h-1.3v3.8h-2.5v-8.9h1.3v-1.3h5.1v1.3h1.3v3.8h-1.3v1.3h1.3v3.8h-2.5v-2.5h-1.3V520.9z
				 M-3257.5,518.4h2.5v-1.3h-2.5V518.4z"/>
			<path class="st4" d="M-3248.7,524.7h-2.5v-8.9h1.3v-1.3h5.1v1.3h1.3v8.9h-2.5v-3.8h-2.5V524.7z M-3246.2,518.4v-1.3h-2.5v1.3
				H-3246.2z"/>
			<path class="st4" d="M-3242.4,514.6h7.6v2.5h-2.5v7.6h-2.5v-7.6h-2.5V514.6z"/>
			<path class="st4" d="M-3232.3,523.4h-1.3v-7.6h1.3v-1.3h6.3v2.5h-5.1v1.3h2.5v2.5h-2.5v1.3h5.1v2.5h-6.3V523.4z"/>
		</g>
	</g>
	<g>
		<rect x="-3339" y="508.9" class="st4" width="13.1" height="1.7"/>
		<rect x="-3324.1" y="508.9" class="st4" width="1.7" height="1.7"/>
	</g>
</g>
<g>
	<rect x="-2919.2" y="240.6" class="st4" width="23.6" height="3"/>
	<rect x="-2892.4" y="240.6" class="st4" width="3" height="3"/>
</g>
<g>
	<rect x="-3239.6" y="179.1" class="st4" width="23.6" height="3"/>
	<rect x="-3212.8" y="179.1" class="st4" width="3" height="3"/>
</g>
<g>
	<polygon class="st22" points="-3269.7,302.6 -3269.7,295.1 -3288.3,295.1 -3288.3,302.6 -3295.8,302.6 -3295.8,310.1 
		-3295.8,321.3 -3288.3,321.3 -3288.3,328.7 -3277.1,328.7 -3269.7,328.7 -3269.7,321.3 -3262.2,321.3 -3262.2,310.1 -3262.2,302.6 
			"/>
	<line class="st23" x1="-3287.7" y1="328.7" x2="-3287.7" y2="338.7"/>
	<line class="st23" x1="-3270.3" y1="328.7" x2="-3270.3" y2="338.7"/>
	<polygon class="st24" points="-3271.3,336.8 -3273.4,336.8 -3286.8,336.8 -3286.8,339 -3289,339 -3289,354.5 -3286.8,354.5 
		-3286.8,356.7 -3273.4,356.7 -3271.3,356.7 -3271.3,354.5 -3269.1,354.5 -3269.1,339 -3271.3,339 	"/>
</g>
<polygon class="st25" points="-3202.6,741.9 -3202.6,733.9 -3210.5,733.9 -3275.5,733.9 -3344.3,733.9 -3344.3,741.9 -3352.2,741.9 
	-3352.2,787.4 -3344.3,787.4 -3344.3,795.4 -3275.5,795.4 -3210.5,795.4 -3202.6,795.4 -3202.6,787.4 -3194.7,787.4 -3194.7,741.9 
	"/>
<polygon class="st25" points="-3202.6,742 -3202.6,734.1 -3210.5,734.1 -3275.5,734.1 -3344.3,734.1 -3344.3,742 -3352.2,742 
	-3352.2,787.5 -3344.3,787.5 -3344.3,795.5 -3275.5,795.5 -3210.5,795.5 -3202.6,795.5 -3202.6,787.5 -3194.7,787.5 -3194.7,742 "/>
<g>
	<path class="st4" d="M-3306.1,775.4h-5.4v-21.8h13.6v2.7h2.7v8.2h-2.7v2.7h-8.2V775.4z M-3306.1,761.8h5.4v-2.7h-5.4V761.8z"/>
	<path class="st4" d="M-3289.8,772.7h-2.7v-19h5.4V770h10.9v5.4h-13.6V772.7z"/>
	<path class="st4" d="M-3268,775.4h-5.4v-19h2.7v-2.7h10.9v2.7h2.7v19h-5.4v-8.2h-5.4V775.4z M-3262.6,761.8v-2.7h-5.4v2.7H-3262.6z
		"/>
	<path class="st4" d="M-3254.4,753.6h5.4v8.2h5.4v-8.2h5.4v10.9h-2.7v2.7h-2.7v8.2h-5.4v-8.2h-2.7v-2.7h-2.7V753.6z"/>
</g>
<polygon class="st25" points="-3032.6,741.9 -3032.6,733.9 -3040.5,733.9 -3105.5,733.9 -3174.3,733.9 -3174.3,741.9 -3182.2,741.9 
	-3182.2,787.4 -3174.3,787.4 -3174.3,795.4 -3105.5,795.4 -3040.5,795.4 -3032.6,795.4 -3032.6,787.4 -3024.7,787.4 -3024.7,741.9 
	"/>
<polygon class="st22" points="-3032.6,734 -3032.6,726.1 -3040.5,726.1 -3105.5,726.1 -3174.3,726.1 -3174.3,734 -3182.2,734 
	-3182.2,779.5 -3174.3,779.5 -3174.3,787.5 -3105.5,787.5 -3040.5,787.5 -3032.6,787.5 -3032.6,779.5 -3024.7,779.5 -3024.7,734 "/>
<g>
	<path class="st4" d="M-3136.1,767.4h-5.4v-21.8h13.6v2.7h2.7v8.2h-2.7v2.7h-8.2V767.4z M-3136.1,753.8h5.4v-2.7h-5.4V753.8z"/>
	<path class="st4" d="M-3119.8,764.7h-2.7v-19h5.4V762h10.9v5.4h-13.6V764.7z"/>
	<path class="st4" d="M-3098,767.4h-5.4v-19h2.7v-2.7h10.9v2.7h2.7v19h-5.4v-8.2h-5.4V767.4z M-3092.6,753.8v-2.7h-5.4v2.7H-3092.6z
		"/>
	<path class="st4" d="M-3084.4,745.6h5.4v8.2h5.4v-8.2h5.4v10.9h-2.7v2.7h-2.7v8.2h-5.4v-8.2h-2.7v-2.7h-2.7V745.6z"/>
</g>
<g>
	<path class="st26" d="M-4026.2,496.3h43.2v108h43.2v-108h43.2v129.6h-21.6v21.6h-21.6v21.6h-43.2v-21.6h-21.6v-21.6h-21.6V496.3z"
		/>
	<path class="st27" d="M-3875,519.9h21.6v-21.6h108v43.2h-86.4v21.6h64.8v21.6h21.6v64.8h-21.6v21.6h-108v-43.2h86.4v-21.6h-64.8
		v-21.6h-21.6V519.9z"/>
</g>
<g>
	<path class="st28" d="M-4026.2,475.2h43.2v108h43.2v-108h43.2v129.6h-21.6v21.6h-21.6V648h-43.2v-21.6h-21.6v-21.6h-21.6V475.2z"/>
	<path class="st29" d="M-3875,496.8h21.6v-21.6h108v43.2h-86.4V540h64.8v21.6h21.6v64.8h-21.6V648h-108v-43.2h86.4v-21.6h-64.8
		v-21.6h-21.6V496.8z"/>
</g>
<g>
	<g>
		<path class="st0" d="M-3976.8,853.8h27.5v68.7h27.5v-68.7h27.5v82.4h-13.7V950h-13.7v13.7h-27.5V950h-13.7v-13.7h-13.7V853.8z"/>
		<path class="st0" d="M-3880.7,868.9h13.7v-13.7h68.7v27.5h-54.9v13.7h41.2v13.7h13.7v41.2h-13.7V965h-68.7v-27.5h54.9v-13.7h-41.2
			v-13.7h-13.7V868.9z"/>
	</g>
	<g>
		<path class="st7" d="M-3976.8,839.3h27.5V908h27.5v-68.7h27.5v82.4h-13.7v13.7h-13.7v13.7h-27.5v-13.7h-13.7v-13.7h-13.7V839.3z"
			/>
		<path class="st7" d="M-3880.7,854.4h13.7v-13.7h68.7v27.5h-54.9v13.7h41.2v13.7h13.7v41.2h-13.7v13.7h-68.7V923h54.9v-13.7h-41.2
			v-13.7h-13.7V854.4z"/>
	</g>
	<g>
		<path class="st4" d="M-3976.8,825.9h27.5v68.7h27.5v-68.7h27.5v82.4h-13.7v13.7h-13.7v13.7h-27.5v-13.7h-13.7v-13.7h-13.7V825.9z"
			/>
		<path class="st4" d="M-3880.7,839.7h13.7v-13.7h68.7v27.5h-54.9v13.7h41.2v13.7h13.7v41.2h-13.7v13.7h-68.7v-27.5h54.9v-13.7
			h-41.2v-13.7h-13.7V839.7z"/>
	</g>
</g>
<g>
	<g>
		<path class="st0" d="M-3402.4-5.9h-21.6v-86.4h54v10.8h10.8v32.4h-10.8v10.8h-32.4V-5.9z M-3402.4-59.9h21.6v-10.8h-21.6V-59.9z"
			/>
		<path class="st0" d="M-3348.4-81.5h10.8v-10.8h43.2v10.8h10.8v64.8h-10.8v10.8h-43.2v-10.8h-10.8V-81.5z M-3326.8-27.5h21.6v-43.2
			h-21.6V-27.5z"/>
		<path class="st0" d="M-3262-16.7h-10.8v-75.6h21.6v64.8h43.2v21.6h-54V-16.7z"/>
		<path class="st0" d="M-3218.8-92.3h21.6v32.4h21.6v-32.4h21.6v43.2h-10.8v10.8h-10.8v32.4h-21.6v-32.4h-10.8v-10.8h-10.8V-92.3z"
			/>
	</g>
	<g>
		<path class="st30" d="M-3402.4-14.3h-21.6v-86.4h54v10.8h10.8v32.4h-10.8v10.8h-32.4V-14.3z M-3402.4-68.3h21.6v-10.8h-21.6V-68.3
			z"/>
		<path class="st30" d="M-3348.4-89.9h10.8v-10.8h43.2v10.8h10.8v64.8h-10.8v10.8h-43.2v-10.8h-10.8V-89.9z M-3326.8-35.9h21.6
			v-43.2h-21.6V-35.9z"/>
		<path class="st30" d="M-3262-25.1h-10.8v-75.6h21.6v64.8h43.2v21.6h-54V-25.1z"/>
		<path class="st30" d="M-3218.8-100.7h21.6v32.4h21.6v-32.4h21.6v43.2h-10.8v10.8h-10.8v32.4h-21.6v-32.4h-10.8v-10.8h-10.8V-100.7
			z"/>
	</g>
	<g>
		<path class="st4" d="M-3402.4-22.5h-21.6v-86.4h54v10.8h10.8v32.4h-10.8v10.8h-32.4V-22.5z M-3402.4-76.5h21.6v-10.8h-21.6V-76.5z
			"/>
		<path class="st4" d="M-3348.4-98.1h10.8v-10.8h43.2v10.8h10.8v64.8h-10.8v10.8h-43.2v-10.8h-10.8V-98.1z M-3326.8-44.1h21.6v-43.2
			h-21.6V-44.1z"/>
		<path class="st4" d="M-3262-33.3h-10.8v-75.6h21.6v64.8h43.2v21.6h-54V-33.3z"/>
		<path class="st4" d="M-3218.8-108.9h21.6v32.4h21.6v-32.4h21.6v43.2h-10.8v10.8h-10.8v32.4h-21.6v-32.4h-10.8v-10.8h-10.8V-108.9z
			"/>
	</g>
</g>
<image style="overflow:visible;" width="843" height="1118" xlink:href="C763D7D2648168E1.jpg"  transform="matrix(0.24 0 0 0.24 -3633.48 41.32)">
</image>
<g>
	<g class="st1">
		<g>
			<polygon class="st0" points="-3075.5,-322.3 -3075.5,-235.9 -2974.3,-235.9 -2974.3,-247.5 -2987,-247.5 -2987,-260.1 
				-2999.6,-260.1 -2999.6,-272.8 -3012.3,-272.8 -3012.3,-285.4 -2999.6,-285.4 -2999.6,-298.1 -2987,-298.1 -2987,-310.7 
				-2974.3,-310.7 -2974.3,-322.3 			"/>
		</g>
		<polygon class="st0" points="-3060.8,-261.2 -3075.5,-236.9 -3075.5,-261.2 		"/>
	</g>
	<rect x="-3563.7" y="-345.3" class="st0" width="510.3" height="86.5"/>
	<rect x="-3087.1" y="-267.2" class="st0" width="112.8" height="31.6"/>
	<g class="st1">
		<g>
			<polygon class="st0" points="-3555.9,-322.2 -3555.9,-235.7 -3657.1,-235.7 -3657.1,-247.3 -3644.4,-247.3 -3644.4,-260 
				-3631.8,-260 -3631.8,-272.6 -3619.1,-272.6 -3619.1,-285.3 -3631.8,-285.3 -3631.8,-297.9 -3644.4,-297.9 -3644.4,-310.6 
				-3657.1,-310.6 -3657.1,-322.2 			"/>
		</g>
		<polygon class="st0" points="-3570.6,-261 -3555.9,-236.8 -3555.9,-261 		"/>
	</g>
	<g>
		<g>
			<polygon class="st2" points="-3075.5,-332.6 -3075.5,-246.2 -2974.3,-246.2 -2974.3,-257.8 -2987,-257.8 -2987,-270.4 
				-2999.6,-270.4 -2999.6,-283.1 -3012.3,-283.1 -3012.3,-295.7 -2999.6,-295.7 -2999.6,-308.4 -2987,-308.4 -2987,-321 
				-2974.3,-321 -2974.3,-332.6 			"/>
			<polygon class="st3" points="-3075.5,-344.2 -3075.5,-257.8 -2974.3,-257.8 -2974.3,-269.4 -2987,-269.4 -2987,-282 
				-2999.6,-282 -2999.6,-294.7 -3012.3,-294.7 -3012.3,-307.3 -2999.6,-307.3 -2999.6,-320 -2987,-320 -2987,-332.6 
				-2974.3,-332.6 -2974.3,-344.2 			"/>
		</g>
		<polygon class="st2" points="-3060.8,-271.5 -3075.5,-247.2 -3075.5,-271.5 		"/>
		<g>
			<g>
				<polygon class="st2" points="-3556.4,-332.6 -3556.4,-246.2 -3657.6,-246.2 -3657.6,-257.8 -3644.9,-257.8 -3644.9,-270.4 
					-3632.3,-270.4 -3632.3,-283.1 -3619.6,-283.1 -3619.6,-295.7 -3632.3,-295.7 -3632.3,-308.4 -3644.9,-308.4 -3644.9,-321 
					-3657.6,-321 -3657.6,-332.6 				"/>
				<polygon class="st3" points="-3556.4,-344.2 -3556.4,-257.8 -3657.6,-257.8 -3657.6,-269.4 -3644.9,-269.4 -3644.9,-282 
					-3632.3,-282 -3632.3,-294.7 -3619.6,-294.7 -3619.6,-307.3 -3632.3,-307.3 -3632.3,-320 -3644.9,-320 -3644.9,-332.6 
					-3657.6,-332.6 -3657.6,-344.2 				"/>
			</g>
			<polygon class="st2" points="-3571.1,-271.5 -3556.4,-247.2 -3556.4,-271.5 			"/>
		</g>
		<g>
			<rect x="-3571.1" y="-357.9" class="st2" width="510.3" height="86.5"/>
			<rect x="-3571.1" y="-370.6" class="st3" width="510.3" height="86.5"/>
		</g>
	</g>
</g>
<g>
	<g>
		<path class="st25" d="M-3457-295.6h-37.4v-59.9h37.4v7.5h7.5v15h-7.5v15h7.5v15h-7.5V-295.6z M-3479.4-333.1h15v-7.5h-15V-333.1z
			 M-3479.4-310.6h15v-7.5h-15V-310.6z"/>
		<path class="st25" d="M-3427-295.6h-15V-348h7.5v-7.5h30v7.5h7.5v52.4h-15v-22.5h-15V-295.6z M-3412-333.1v-7.5h-15v7.5H-3412z"/>
		<path class="st25" d="M-3382.1-303.1h-7.5v-52.4h15v44.9h30v15h-37.4V-303.1z"/>
		<path class="st25" d="M-3329.7-303.1h-7.5v-52.4h15v44.9h30v15h-37.4V-303.1z"/>
		<path class="st25" d="M-3284.7-348h7.5v-7.5h30v7.5h7.5v44.9h-7.5v7.5h-30v-7.5h-7.5V-348z M-3269.7-310.6h15v-30h-15V-310.6z"/>
		<path class="st25" d="M-3232.3-348h7.5v-7.5h30v7.5h7.5v44.9h-7.5v7.5h-30v-7.5h-7.5V-348z M-3217.3-310.6h15v-30h-15V-310.6z"/>
		<path class="st25" d="M-3157.4-325.6h-7.5v30h-15v-59.9h15v7.5h7.5v7.5h7.5v-15h15v59.9h-15v-22.5h-7.5V-325.6z"/>
	</g>
	<g>
		<path class="st22" d="M-3457-301.4h-37.4v-59.9h37.4v7.5h7.5v15h-7.5v15h7.5v15h-7.5V-301.4z M-3479.4-338.9h15v-7.5h-15V-338.9z
			 M-3479.4-316.4h15v-7.5h-15V-316.4z"/>
		<path class="st22" d="M-3427-301.4h-15v-52.4h7.5v-7.5h30v7.5h7.5v52.4h-15v-22.5h-15V-301.4z M-3412-338.9v-7.5h-15v7.5H-3412z"
			/>
		<path class="st22" d="M-3382.1-308.9h-7.5v-52.4h15v44.9h30v15h-37.4V-308.9z"/>
		<path class="st22" d="M-3329.7-308.9h-7.5v-52.4h15v44.9h30v15h-37.4V-308.9z"/>
		<path class="st22" d="M-3284.7-353.9h7.5v-7.5h30v7.5h7.5v44.9h-7.5v7.5h-30v-7.5h-7.5V-353.9z M-3269.7-316.4h15v-30h-15V-316.4z
			"/>
		<path class="st22" d="M-3232.3-353.9h7.5v-7.5h30v7.5h7.5v44.9h-7.5v7.5h-30v-7.5h-7.5V-353.9z M-3217.3-316.4h15v-30h-15V-316.4z
			"/>
		<path class="st22" d="M-3157.4-331.4h-7.5v30h-15v-59.9h15v7.5h7.5v7.5h7.5v-15h15v59.9h-15v-22.5h-7.5V-331.4z"/>
	</g>
</g>
<g>
	<path class="st0" d="M-2965.3-148.9h20.7v6.9h-20.7V-148.9z"/>
	<path class="st0" d="M-2910.1-131.6h-6.9v-27.6h17.3v3.5h3.5v10.4h-3.5v3.5h-10.4V-131.6z M-2910.1-148.9h6.9v-3.5h-6.9V-148.9z"/>
	<path class="st0" d="M-2882.4-142h-3.5v10.4h-6.9v-27.6h17.3v3.5h3.5v10.4h-3.5v3.5h3.5v10.4h-6.9v-6.9h-3.5V-142z M-2885.9-148.9
		h6.9v-3.5h-6.9V-148.9z"/>
	<path class="st0" d="M-2865.1-135.1h-3.5v-20.7h3.5v-3.5h17.3v6.9h-13.8v3.5h6.9v6.9h-6.9v3.5h13.8v6.9h-17.3V-135.1z"/>
	<path class="st0" d="M-2844.4-155.8h3.5v-3.5h17.3v6.9h-13.8v3.5h10.4v3.5h3.5v10.4h-3.5v3.5h-17.3v-6.9h13.8v-3.5h-10.4v-3.5h-3.5
		V-155.8z"/>
	<path class="st0" d="M-2820.2-155.8h3.5v-3.5h17.3v6.9h-13.8v3.5h10.4v3.5h3.5v10.4h-3.5v3.5h-17.3v-6.9h13.8v-3.5h-10.4v-3.5h-3.5
		V-155.8z"/>
	<path class="st0" d="M-2764.9-131.6h-6.9v-24.2h3.5v-3.5h13.8v3.5h3.5v24.2h-6.9V-142h-6.9V-131.6z M-2758-148.9v-3.5h-6.9v3.5
		H-2758z"/>
	<path class="st0" d="M-2737.3-145.4h-3.5v13.8h-6.9v-27.6h6.9v3.5h3.5v3.5h3.5v-6.9h6.9v27.6h-6.9V-142h-3.5V-145.4z"/>
	<path class="st0" d="M-2723.4-159.3h6.9v10.4h6.9v-10.4h6.9v13.8h-3.5v3.5h-3.5v10.4h-6.9V-142h-3.5v-3.5h-3.5V-159.3z"/>
	<path class="st0" d="M-2668.1-131.6h-6.9v-27.6h6.9v6.9h3.5v-3.5h3.5v-3.5h6.9v6.9h-3.5v3.5h-3.5v6.9h3.5v3.5h3.5v6.9h-6.9v-3.5
		h-3.5v-3.5h-3.5V-131.6z"/>
	<path class="st0" d="M-2647.4-135.1h-3.5v-20.7h3.5v-3.5h17.3v6.9h-13.8v3.5h6.9v6.9h-6.9v3.5h13.8v6.9h-17.3V-135.1z"/>
	<path class="st0" d="M-2626.7-159.3h6.9v10.4h6.9v-10.4h6.9v13.8h-3.5v3.5h-3.5v10.4h-6.9V-142h-3.5v-3.5h-3.5V-159.3z"/>
	<path class="st0" d="M-2578.3-159.3h20.7v6.9h-6.9v20.7h-6.9v-20.7h-6.9V-159.3z"/>
	<path class="st0" d="M-2554.1-155.8h3.5v-3.5h13.8v3.5h3.5v20.7h-3.5v3.5h-13.8v-3.5h-3.5V-155.8z M-2547.2-138.5h6.9v-13.8h-6.9
		V-138.5z"/>
	<path class="st0" d="M-2498.8-131.6h-6.9v-27.6h17.3v3.5h3.5v10.4h-3.5v3.5h-10.4V-131.6z M-2498.8-148.9h6.9v-3.5h-6.9V-148.9z"/>
	<path class="st0" d="M-2478.1-135.1h-3.5v-24.2h6.9v20.7h13.8v6.9h-17.3V-135.1z"/>
	<path class="st0" d="M-2450.4-131.6h-6.9v-24.2h3.5v-3.5h13.8v3.5h3.5v24.2h-6.9V-142h-6.9V-131.6z M-2443.5-148.9v-3.5h-6.9v3.5
		H-2443.5z"/>
	<path class="st0" d="M-2433.1-159.3h6.9v10.4h6.9v-10.4h6.9v13.8h-3.5v3.5h-3.5v10.4h-6.9V-142h-3.5v-3.5h-3.5V-159.3z"/>
	<path class="st0" d="M-2384.8-148.9h20.7v6.9h-20.7V-148.9z"/>
</g>
<g>
	<path class="st30" d="M-2966.2-154.8h20.7v6.9h-20.7V-154.8z"/>
	<path class="st30" d="M-2910.9-137.5h-6.9v-27.6h17.3v3.5h3.5v10.4h-3.5v3.5h-10.4V-137.5z M-2910.9-154.8h6.9v-3.5h-6.9V-154.8z"
		/>
	<path class="st30" d="M-2883.3-147.9h-3.5v10.4h-6.9v-27.6h17.3v3.5h3.5v10.4h-3.5v3.5h3.5v10.4h-6.9v-6.9h-3.5V-147.9z
		 M-2886.7-154.8h6.9v-3.5h-6.9V-154.8z"/>
	<path class="st30" d="M-2866-141h-3.5v-20.7h3.5v-3.5h17.3v6.9h-13.8v3.5h6.9v6.9h-6.9v3.5h13.8v6.9h-17.3V-141z"/>
	<path class="st30" d="M-2845.3-161.7h3.5v-3.5h17.3v6.9h-13.8v3.5h10.4v3.5h3.5v10.4h-3.5v3.5h-17.3v-6.9h13.8v-3.5h-10.4v-3.5
		h-3.5V-161.7z"/>
	<path class="st30" d="M-2821.1-161.7h3.5v-3.5h17.3v6.9h-13.8v3.5h10.4v3.5h3.5v10.4h-3.5v3.5h-17.3v-6.9h13.8v-3.5h-10.4v-3.5
		h-3.5V-161.7z"/>
	<path class="st30" d="M-2765.8-137.5h-6.9v-24.2h3.5v-3.5h13.8v3.5h3.5v24.2h-6.9v-10.4h-6.9V-137.5z M-2758.9-154.8v-3.5h-6.9v3.5
		H-2758.9z"/>
	<path class="st30" d="M-2738.1-151.3h-3.5v13.8h-6.9v-27.6h6.9v3.5h3.5v3.5h3.5v-6.9h6.9v27.6h-6.9v-10.4h-3.5V-151.3z"/>
	<path class="st30" d="M-2724.3-165.2h6.9v10.4h6.9v-10.4h6.9v13.8h-3.5v3.5h-3.5v10.4h-6.9v-10.4h-3.5v-3.5h-3.5V-165.2z"/>
	<path class="st30" d="M-2669-137.5h-6.9v-27.6h6.9v6.9h3.5v-3.5h3.5v-3.5h6.9v6.9h-3.5v3.5h-3.5v6.9h3.5v3.5h3.5v6.9h-6.9v-3.5
		h-3.5v-3.5h-3.5V-137.5z"/>
	<path class="st30" d="M-2648.3-141h-3.5v-20.7h3.5v-3.5h17.3v6.9h-13.8v3.5h6.9v6.9h-6.9v3.5h13.8v6.9h-17.3V-141z"/>
	<path class="st30" d="M-2627.5-165.2h6.9v10.4h6.9v-10.4h6.9v13.8h-3.5v3.5h-3.5v10.4h-6.9v-10.4h-3.5v-3.5h-3.5V-165.2z"/>
	<path class="st30" d="M-2579.2-165.2h20.7v6.9h-6.9v20.7h-6.9v-20.7h-6.9V-165.2z"/>
	<path class="st30" d="M-2555-161.7h3.5v-3.5h13.8v3.5h3.5v20.7h-3.5v3.5h-13.8v-3.5h-3.5V-161.7z M-2548-144.4h6.9v-13.8h-6.9
		V-144.4z"/>
	<path class="st30" d="M-2499.7-137.5h-6.9v-27.6h17.3v3.5h3.5v10.4h-3.5v3.5h-10.4V-137.5z M-2499.7-154.8h6.9v-3.5h-6.9V-154.8z"
		/>
	<path class="st30" d="M-2478.9-141h-3.5v-24.2h6.9v20.7h13.8v6.9h-17.3V-141z"/>
	<path class="st30" d="M-2451.3-137.5h-6.9v-24.2h3.5v-3.5h13.8v3.5h3.5v24.2h-6.9v-10.4h-6.9V-137.5z M-2444.4-154.8v-3.5h-6.9v3.5
		H-2444.4z"/>
	<path class="st30" d="M-2434-165.2h6.9v10.4h6.9v-10.4h6.9v13.8h-3.5v3.5h-3.5v10.4h-6.9v-10.4h-3.5v-3.5h-3.5V-165.2z"/>
	<path class="st30" d="M-2385.6-154.8h20.7v6.9h-20.7V-154.8z"/>
</g>
<g>
	<path class="st4" d="M-2966.2-159.2h20.7v6.9h-20.7V-159.2z"/>
	<path class="st4" d="M-2910.9-141.9h-6.9v-27.6h17.3v3.5h3.5v10.4h-3.5v3.5h-10.4V-141.9z M-2910.9-159.2h6.9v-3.5h-6.9V-159.2z"/>
	<path class="st4" d="M-2883.3-152.3h-3.5v10.4h-6.9v-27.6h17.3v3.5h3.5v10.4h-3.5v3.5h3.5v10.4h-6.9v-6.9h-3.5V-152.3z
		 M-2886.7-159.2h6.9v-3.5h-6.9V-159.2z"/>
	<path class="st4" d="M-2866-145.4h-3.5v-20.7h3.5v-3.5h17.3v6.9h-13.8v3.5h6.9v6.9h-6.9v3.5h13.8v6.9h-17.3V-145.4z"/>
	<path class="st4" d="M-2845.3-166.1h3.5v-3.5h17.3v6.9h-13.8v3.5h10.4v3.5h3.5v10.4h-3.5v3.5h-17.3v-6.9h13.8v-3.5h-10.4v-3.5h-3.5
		V-166.1z"/>
	<path class="st4" d="M-2821.1-166.1h3.5v-3.5h17.3v6.9h-13.8v3.5h10.4v3.5h3.5v10.4h-3.5v3.5h-17.3v-6.9h13.8v-3.5h-10.4v-3.5h-3.5
		V-166.1z"/>
	<path class="st4" d="M-2765.8-141.9h-6.9v-24.2h3.5v-3.5h13.8v3.5h3.5v24.2h-6.9v-10.4h-6.9V-141.9z M-2758.9-159.2v-3.5h-6.9v3.5
		H-2758.9z"/>
	<path class="st4" d="M-2738.1-155.7h-3.5v13.8h-6.9v-27.6h6.9v3.5h3.5v3.5h3.5v-6.9h6.9v27.6h-6.9v-10.4h-3.5V-155.7z"/>
	<path class="st4" d="M-2724.3-169.6h6.9v10.4h6.9v-10.4h6.9v13.8h-3.5v3.5h-3.5v10.4h-6.9v-10.4h-3.5v-3.5h-3.5V-169.6z"/>
	<path class="st4" d="M-2669-141.9h-6.9v-27.6h6.9v6.9h3.5v-3.5h3.5v-3.5h6.9v6.9h-3.5v3.5h-3.5v6.9h3.5v3.5h3.5v6.9h-6.9v-3.5h-3.5
		v-3.5h-3.5V-141.9z"/>
	<path class="st4" d="M-2648.3-145.4h-3.5v-20.7h3.5v-3.5h17.3v6.9h-13.8v3.5h6.9v6.9h-6.9v3.5h13.8v6.9h-17.3V-145.4z"/>
	<path class="st4" d="M-2627.5-169.6h6.9v10.4h6.9v-10.4h6.9v13.8h-3.5v3.5h-3.5v10.4h-6.9v-10.4h-3.5v-3.5h-3.5V-169.6z"/>
	<path class="st4" d="M-2579.2-169.6h20.7v6.9h-6.9v20.7h-6.9v-20.7h-6.9V-169.6z"/>
	<path class="st4" d="M-2555-166.1h3.5v-3.5h13.8v3.5h3.5v20.7h-3.5v3.5h-13.8v-3.5h-3.5V-166.1z M-2548-148.8h6.9v-13.8h-6.9
		V-148.8z"/>
	<path class="st4" d="M-2499.7-141.9h-6.9v-27.6h17.3v3.5h3.5v10.4h-3.5v3.5h-10.4V-141.9z M-2499.7-159.2h6.9v-3.5h-6.9V-159.2z"/>
	<path class="st4" d="M-2478.9-145.4h-3.5v-24.2h6.9v20.7h13.8v6.9h-17.3V-145.4z"/>
	<path class="st4" d="M-2451.3-141.9h-6.9v-24.2h3.5v-3.5h13.8v3.5h3.5v24.2h-6.9v-10.4h-6.9V-141.9z M-2444.4-159.2v-3.5h-6.9v3.5
		H-2444.4z"/>
	<path class="st4" d="M-2434-169.6h6.9v10.4h6.9v-10.4h6.9v13.8h-3.5v3.5h-3.5v10.4h-6.9v-10.4h-3.5v-3.5h-3.5V-169.6z"/>
	<path class="st4" d="M-2385.6-159.2h20.7v6.9h-20.7V-159.2z"/>
</g>
<path class="st31" d="M-204.4-861.3h-2.2h-10.8H-256h-12.9h-1526.6h-12.9h-38.7h-12.9h-12.9v22.6V2.1v11.3v33.9v11.3v11.3h25.8
	h1578.2h12.9h38.7h10.8h2.2h12.9v-931.2H-204.4z M-217.3-804.8V13.4v11.3h-12.9V36h-12.9v11.3H-256h-1552.4h-12.9V36h-12.9V24.7
	h-12.9V13.4v-818.2v-11.3h12.9v-11.3h12.9v-11.3h12.9h204.3h135.5H-256h12.9v11.3h12.9v11.3h12.9V-804.8z"/>
<polygon class="st32" points="-1425.9,-1215.9 -1425.9,-1226 -1437.3,-1226 -1847.9,-1226 -1847.9,-1130 -1438.1,-1130 
	-1438.1,-1140 -1437.3,-1140 -1425.9,-1140 -1425.9,-1148 -1425.9,-1150.1 -1414.6,-1150.1 -1414.6,-1158.1 -1414.6,-1215.9 "/>
<polygon class="st31" points="-1426.5,-1225.9 -1426.5,-1236 -1437.8,-1236 -1860.6,-1236 -1860.6,-1228 -1860.6,-1225.9 
	-1871.9,-1225.9 -1871.9,-1168.1 -1860.6,-1168.1 -1860.6,-1160.1 -1860.6,-1160.1 -1860.6,-1150 -1848.5,-1150 -1848.5,-1140 
	-1438.6,-1140 -1438.6,-1150 -1437.8,-1150 -1426.5,-1150 -1426.5,-1158 -1426.5,-1160.1 -1415.1,-1160.1 -1415.1,-1168.1 
	-1415.1,-1225.9 "/>
<rect x="-1933.8" y="-1011.2" class="st13" width="92.2" height="32.8"/>
<text transform="matrix(1 0 0 1 -1912.7065 -993.0488)" class="st4" style="font-family:'EditUndoBRK'; font-size:31.5429px;">DMG</text>
<g>
	<g>
		<polygon class="st22" points="-1734,-976.8 -1479.3,-976.8 -1479.3,-994.8 -1734,-994.8 -1734,-994.7 -1734,-989.6 -1741,-989.6 
			-1741,-982 -1734,-982 -1734,-976.9 		"/>
	</g>
	<polygon class="st22" points="-1470.7,-989.7 -1470.7,-994.8 -1470.7,-994.8 -1526.4,-994.8 -1526.4,-976.8 -1470.7,-976.8 
		-1470.7,-976.9 -1470.7,-982 -1463.8,-982 -1463.8,-989.7 	"/>
</g>
<g class="st33">
	<polygon class="st34" points="-1090.5,-763.7 -1090.5,-841.7 -1180.4,-841.7 -1180.4,-831.6 -1190.5,-831.6 -1190.5,-773.8 
		-1180.4,-773.8 -1180.4,-763.7 	"/>
	<polygon class="st34" points="-855.4,-832.6 -855.4,-842.7 -865.5,-842.7 -947.5,-842.7 -947.5,-764.7 -865.5,-764.7 
		-855.4,-764.7 -855.4,-774.8 -845.4,-774.8 -845.4,-832.6 	"/>
	<rect x="-1170.5" y="-832.7" class="st34" width="305" height="78"/>
</g>
<g>
	<polygon class="st31" points="-1080.5,-763.7 -1080.5,-841.7 -1170.4,-841.7 -1170.4,-831.6 -1180.5,-831.6 -1180.5,-773.8 
		-1170.4,-773.8 -1170.4,-763.7 	"/>
	<polygon class="st31" points="-1090.5,-773.7 -1090.5,-851.7 -1180.4,-851.7 -1180.4,-841.6 -1190.5,-841.6 -1190.5,-783.8 
		-1180.4,-783.8 -1180.4,-773.7 	"/>
	<polygon class="st31" points="-865.4,-831.6 -865.4,-841.7 -875.5,-841.7 -957.5,-841.7 -957.5,-763.7 -875.5,-763.7 
		-865.4,-763.7 -865.4,-773.8 -855.4,-773.8 -855.4,-831.6 	"/>
	<polygon class="st31" points="-855.4,-841.6 -855.4,-851.7 -865.5,-851.7 -947.5,-851.7 -947.5,-773.7 -865.5,-773.7 
		-855.4,-773.7 -855.4,-783.8 -845.4,-783.8 -845.4,-841.6 	"/>
	<rect x="-1080.5" y="-841.7" class="st31" width="123" height="78"/>
</g>
<g>
	<polygon class="st35" points="-1080.5,-773.7 -1080.5,-851.7 -1170.4,-851.7 -1170.4,-841.6 -1180.5,-841.6 -1180.5,-783.8 
		-1170.4,-783.8 -1170.4,-773.7 	"/>
	<polygon class="st35" points="-865.4,-841.6 -865.4,-851.7 -875.5,-851.7 -943.5,-851.7 -943.5,-773.7 -875.5,-773.7 
		-865.4,-773.7 -865.4,-783.8 -855.4,-783.8 -855.4,-841.6 	"/>
</g>
<g class="st33">
	<polygon class="st34" points="-1090.5,-1027.3 -1090.5,-1105.3 -1180.4,-1105.3 -1180.4,-1095.2 -1190.5,-1095.2 -1190.5,-1037.3 
		-1180.4,-1037.3 -1180.4,-1027.3 	"/>
	<polygon class="st34" points="-855.4,-1096.2 -855.4,-1106.3 -865.5,-1106.3 -947.5,-1106.3 -947.5,-1028.3 -865.5,-1028.3 
		-855.4,-1028.3 -855.4,-1038.3 -845.4,-1038.3 -845.4,-1096.2 	"/>
	<rect x="-1170.5" y="-1096.3" class="st34" width="305" height="78"/>
</g>
<g>
	<polygon class="st31" points="-1080.5,-1027.3 -1080.5,-1105.3 -1170.4,-1105.3 -1170.4,-1095.2 -1180.5,-1095.2 -1180.5,-1037.3 
		-1170.4,-1037.3 -1170.4,-1027.3 	"/>
	<polygon class="st31" points="-1090.5,-1037.3 -1090.5,-1115.3 -1180.4,-1115.3 -1180.4,-1105.2 -1190.5,-1105.2 -1190.5,-1047.3 
		-1180.4,-1047.3 -1180.4,-1037.3 	"/>
	<polygon class="st31" points="-865.4,-1095.2 -865.4,-1105.3 -875.5,-1105.3 -957.5,-1105.3 -957.5,-1027.3 -875.5,-1027.3 
		-865.4,-1027.3 -865.4,-1037.3 -855.4,-1037.3 -855.4,-1095.2 	"/>
	<polygon class="st31" points="-855.4,-1105.2 -855.4,-1115.3 -865.5,-1115.3 -947.5,-1115.3 -947.5,-1037.3 -865.5,-1037.3 
		-855.4,-1037.3 -855.4,-1047.3 -845.4,-1047.3 -845.4,-1105.2 	"/>
	<rect x="-1080.5" y="-1105.3" class="st31" width="123" height="78"/>
</g>
<g>
	<polygon class="st35" points="-1080.5,-1037.3 -1080.5,-1115.3 -1170.4,-1115.3 -1170.4,-1105.2 -1180.5,-1105.2 -1180.5,-1047.4 
		-1170.4,-1047.4 -1170.4,-1037.3 	"/>
	<polygon class="st35" points="-865.4,-1105.2 -865.4,-1115.3 -875.5,-1115.3 -943.5,-1115.3 -943.5,-1037.3 -875.5,-1037.3 
		-865.4,-1037.3 -865.4,-1047.4 -855.4,-1047.4 -855.4,-1105.2 	"/>
</g>
<rect x="-1095.5" y="-851.7" class="st35" width="169" height="78"/>
<rect x="-1095.5" y="-1115.3" class="st35" width="169" height="78"/>
<g>
	<rect x="-1100.5" y="-819.5" class="st13" width="179" height="81.8"/>
	<text transform="matrix(1 0 0 1 -1078.3499 -791.8258)" class="st4" style="font-family:'EditUndoBRK'; font-size:48px;">124 KM</text>
</g>
<g>
	<rect x="-214.8" y="-841.7" class="st32" width="8" height="2"/>
	<polygon class="st32" points="-295.9,-841.7 -295.9,-831.6 -305.8,-831.6 -305.8,-773.8 -295.9,-773.8 -295.9,-763.8 
		-295.9,-763.8 -295.9,-763.7 -286,-763.7 -286,-753.7 -230.8,-753.7 -230.8,-841.7 	"/>
</g>
<polygon class="st31" points="-205.8,-841.7 -205.8,-851.7 -295.8,-851.7 -295.8,-841.6 -305.8,-841.6 -305.8,-783.8 -295.8,-783.8 
	-295.8,-773.8 -295.8,-773.8 -295.8,-773.7 -285.8,-773.7 -285.8,-763.7 -195.8,-763.7 -195.8,-841.7 "/>
<g>
	<g>
		<g>
			<polygon class="st2" points="-235.8,-830.2 -241.1,-830.2 -273.6,-830.2 -273.6,-824.9 -278.9,-824.9 -278.9,-787 -273.6,-787 
				-273.6,-781.7 -241.1,-781.7 -235.8,-781.7 -235.8,-787 -230.5,-787 -230.5,-824.9 -235.8,-824.9 			"/>
			<polygon class="st3" points="-235.5,-835.9 -240.9,-835.9 -273.6,-835.9 -273.6,-830.6 -278.9,-830.6 -278.9,-792.5 
				-273.6,-792.5 -273.6,-787.1 -240.9,-787.1 -235.5,-787.1 -235.5,-792.5 -230.1,-792.5 -230.1,-830.6 -235.5,-830.6 			"/>
		</g>
		<g>
			<rect x="-266" y="-806.8" class="st4" width="24.2" height="4.8"/>
			<rect x="-266" y="-818" class="st4" width="24.2" height="4.8"/>
		</g>
	</g>
	<g class="st33">
		<polygon class="st36" points="-273.6,-781.6 -273.6,-776.6 -268.2,-776.6 -235.5,-776.6 -235.5,-781.6 -268.2,-781.6 		"/>
		<rect x="-278.9" y="-786.9" class="st36" width="5.4" height="5"/>
		<rect x="-235.5" y="-786.9" class="st36" width="5.4" height="5"/>
	</g>
</g>
<g>
	<rect x="-214.8" y="-1065.4" class="st32" width="8" height="2"/>
	<polygon class="st32" points="-295.9,-1065.4 -295.9,-1055.3 -305.8,-1055.3 -305.8,-997.4 -295.9,-997.4 -295.9,-987.4 
		-295.9,-987.4 -295.9,-987.4 -286,-987.4 -286,-977.4 -230.8,-977.4 -230.8,-1065.4 	"/>
</g>
<polygon class="st31" points="-205.8,-1065.4 -205.8,-1075.4 -295.8,-1075.4 -295.8,-1065.3 -305.8,-1065.3 -305.8,-1007.4 
	-295.8,-1007.4 -295.8,-997.4 -295.8,-997.4 -295.8,-997.4 -285.8,-997.4 -285.8,-987.4 -195.8,-987.4 -195.8,-1065.4 "/>
<g>
	<g>
		<g>
			<polygon class="st2" points="-235.8,-1173.4 -241.1,-1173.4 -273.6,-1173.4 -273.6,-1168.1 -278.9,-1168.1 -278.9,-1130.3 
				-273.6,-1130.3 -273.6,-1124.9 -241.1,-1124.9 -235.8,-1124.9 -235.8,-1130.3 -230.5,-1130.3 -230.5,-1168.1 -235.8,-1168.1 			
				"/>
			<polygon class="st3" points="-235.5,-1179.2 -240.9,-1179.2 -273.6,-1179.2 -273.6,-1173.8 -278.9,-1173.8 -278.9,-1135.7 
				-273.6,-1135.7 -273.6,-1130.4 -240.9,-1130.4 -235.5,-1130.4 -235.5,-1135.7 -230.1,-1135.7 -230.1,-1173.8 -235.5,-1173.8 			
				"/>
		</g>
		<g>
			<rect x="-266" y="-1150.1" class="st4" width="24.2" height="4.8"/>
			<rect x="-266" y="-1161.2" class="st4" width="24.2" height="4.8"/>
		</g>
	</g>
	<g class="st33">
		<polygon class="st36" points="-273.6,-1124.8 -273.6,-1119.8 -268.2,-1119.8 -235.5,-1119.8 -235.5,-1124.8 -268.2,-1124.8 		"/>
		<rect x="-278.9" y="-1130.2" class="st36" width="5.4" height="5"/>
		<rect x="-235.5" y="-1130.2" class="st36" width="5.4" height="5"/>
	</g>
</g>
<polygon class="st22" points="-1690,-1092.9 -1690,-1098.2 -1703.4,-1098.2 -1704,-1098.2 -1716.9,-1098.2 -1717.4,-1098.2 
	-1730.4,-1098.2 -1730.9,-1098.2 -1744.4,-1098.2 -1744.4,-1093 -1751.1,-1093 -1751.1,-1085.3 -1744.4,-1085.3 -1744.4,-1080.1 
	-1744.1,-1080.1 -1738.2,-1080.1 -1737,-1080.1 -1731.1,-1080.1 -1730.9,-1080.1 -1730.6,-1080.1 -1730.4,-1080.1 -1724.7,-1080.1 
	-1723.5,-1080.1 -1717.7,-1080.1 -1717.4,-1080.1 -1717.1,-1080.1 -1716.9,-1080.1 -1711.2,-1080.1 -1710.1,-1080.1 
	-1704.2,-1080.1 -1704,-1080.1 -1703.6,-1080.1 -1703.4,-1080.1 -1697.7,-1080.1 -1696.6,-1080.1 -1690.7,-1080.1 -1690,-1080.1 
	-1690,-1085.3 -1683.7,-1085.3 -1683.7,-1092.9 "/>
<polygon class="st37" points="-1467.9,-1329.8 -1467.9,-1335.1 -1481.4,-1335.1 -1481.9,-1335.1 -1494.9,-1335.1 -1495.4,-1335.1 
	-1508.4,-1335.1 -1508.9,-1335.1 -1521.5,-1335.1 -1522.4,-1335.1 -1535,-1335.1 -1535.5,-1335.1 -1548.5,-1335.1 -1549,-1335.1 
	-1561.9,-1335.1 -1562.5,-1335.1 -1575.4,-1335.1 -1575.9,-1335.1 -1588.9,-1335.1 -1589.4,-1335.1 -1602.4,-1335.1 
	-1602.9,-1335.1 -1615.9,-1335.1 -1616.4,-1335.1 -1629.3,-1335.1 -1629.9,-1335.1 -1642.8,-1335.1 -1643.3,-1335.1 
	-1656.3,-1335.1 -1656.8,-1335.1 -1669.8,-1335.1 -1670.3,-1335.1 -1683.2,-1335.1 -1683.8,-1335.1 -1696.7,-1335.1 
	-1697.2,-1335.1 -1710.2,-1335.1 -1710.7,-1335.1 -1723.7,-1335.1 -1724.2,-1335.1 -1737.7,-1335.1 -1737.7,-1329.8 
	-1744.4,-1329.8 -1744.4,-1322.2 -1737.7,-1322.2 -1737.7,-1317 -1737.3,-1317 -1731.5,-1317 -1730.3,-1317 -1724.4,-1317 
	-1724.2,-1317 -1723.9,-1317 -1723.7,-1317 -1718,-1317 -1716.8,-1317 -1710.9,-1317 -1710.7,-1317 -1710.4,-1317 -1710.2,-1317 
	-1704.5,-1317 -1703.3,-1317 -1697.5,-1317 -1697.2,-1317 -1696.9,-1317 -1696.7,-1317 -1691,-1317 -1689.9,-1317 -1684,-1317 
	-1683.8,-1317 -1683.4,-1317 -1683.2,-1317 -1677.5,-1317 -1676.4,-1317 -1670.5,-1317 -1670.3,-1317 -1670,-1317 -1669.8,-1317 
	-1664.1,-1317 -1662.9,-1317 -1657,-1317 -1656.8,-1317 -1656.5,-1317 -1656.3,-1317 -1650.6,-1317 -1649.4,-1317 -1643.6,-1317 
	-1643.3,-1317 -1643,-1317 -1642.8,-1317 -1637.1,-1317 -1636,-1317 -1630.1,-1317 -1629.9,-1317 -1629.5,-1317 -1629.3,-1317 
	-1623.6,-1317 -1622.5,-1317 -1616.6,-1317 -1616.4,-1317 -1616,-1317 -1615.9,-1317 -1610.2,-1317 -1609,-1317 -1603.1,-1317 
	-1602.9,-1317 -1602.6,-1317 -1602.4,-1317 -1596.7,-1317 -1595.5,-1317 -1589.6,-1317 -1589.4,-1317 -1589.1,-1317 -1588.9,-1317 
	-1583.2,-1317 -1582,-1317 -1576.2,-1317 -1575.9,-1317 -1575.6,-1317 -1575.4,-1317 -1569.7,-1317 -1568.6,-1317 -1562.7,-1317 
	-1562.5,-1317 -1562.1,-1317 -1561.9,-1317 -1556.2,-1317 -1555.1,-1317 -1549.2,-1317 -1549,-1317 -1548.7,-1317 -1548.5,-1317 
	-1542.8,-1317 -1541.6,-1317 -1535.7,-1317 -1535.5,-1317 -1535.2,-1317 -1535,-1317 -1529.3,-1317 -1528.1,-1317 -1522.4,-1317 
	-1522.3,-1317 -1522,-1317 -1521.5,-1317 -1516.1,-1317 -1515,-1317 -1509.1,-1317 -1508.9,-1317 -1508.5,-1317 -1508.4,-1317 
	-1502.6,-1317 -1501.5,-1317 -1495.6,-1317 -1495.4,-1317 -1495.1,-1317 -1494.9,-1317 -1489.2,-1317 -1488,-1317 -1482.1,-1317 
	-1481.9,-1317 -1481.6,-1317 -1481.4,-1317 -1475.7,-1317 -1474.5,-1317 -1468.7,-1317 -1467.9,-1317 -1467.9,-1322.1 
	-1461.6,-1322.1 -1461.6,-1329.8 "/>
<g>
	<polygon class="st31" points="4.2,47.3 9.5,47.3 22.4,47.3 22.4,36 35.3,36 35.3,24.7 48.2,24.7 48.2,13.4 48.2,0 74,0 74,2.1 
		74,13.4 74,47.3 74,58.6 74,69.9 48.2,69.9 4.2,69.9 	"/>
</g>
<g>
	<polygon class="st31" points="70.4,0.1 70.4,5.4 70.4,18.3 81.7,18.3 81.7,31.2 93,31.2 93,44.1 104.3,44.1 117.6,44.1 117.6,69.9 
		115.6,69.9 104.3,69.9 70.4,69.9 59.1,69.9 47.8,69.9 47.8,44.1 47.8,0.1 	"/>
</g>
<g>
	<polygon class="st31" points="18.2,47.3 18.2,52.6 18.2,65.5 29.5,65.5 29.5,78.4 40.8,78.4 40.8,91.3 52.1,91.3 65.5,91.3 
		65.5,117.1 63.4,117.1 52.1,117.1 18.2,117.1 6.9,117.1 -4.4,117.1 -4.4,91.3 -4.4,47.3 	"/>
</g>
<g>
	<polygon class="st31" points="-63,47.3 -68.3,47.3 -81.2,47.3 -81.2,36 -94.1,36 -94.1,24.7 -107,24.7 -107,13.4 -107,0 -132.8,0 
		-132.8,2.1 -132.8,13.4 -132.8,47.3 -132.8,58.6 -132.8,69.9 -107,69.9 -63,69.9 	"/>
</g>
<g>
	<polygon class="st31" points="-7.6,94.5 -12.9,94.5 -25.8,94.5 -25.8,83.2 -38.7,83.2 -38.7,71.9 -51.6,71.9 -51.6,60.6 
		-51.6,47.2 -77.4,47.2 -77.4,49.3 -77.4,60.6 -77.4,94.5 -77.4,105.8 -77.4,117.1 -51.6,117.1 -7.6,117.1 	"/>
</g>
<g>
	<polygon class="st31" points="-130,10.9 -130,16.2 -130,29.1 -141.3,29.1 -141.3,42 -152.6,42 -152.6,54.9 -163.9,54.9 
		-177.3,54.9 -177.3,80.7 -175.2,80.7 -163.9,80.7 -130,80.7 -118.7,80.7 -107.4,80.7 -107.4,54.9 -107.4,10.9 	"/>
</g>
</svg>
