<?xml version="1.0" encoding="utf-8"?>
<!-- Generator: Adobe Illustrator 22.0.1, SVG Export Plug-In . SVG Version: 6.00 Build 0)  -->
<svg version="1.1" id="Layer_1" xmlns="http://www.w3.org/2000/svg" xmlns:xlink="http://www.w3.org/1999/xlink" x="0px" y="0px"
	 width="1681.4px" height="929.9px" viewBox="0 0 1681.4 929.9" style="enable-background:new 0 0 1681.4 929.9;"
	 xml:space="preserve">
<style type="text/css">
	.st0{fill:#5895B7;}
	.st1{opacity:0.8;}
	.st2{fill:#C17620;}
	.st3{fill:#F4C24A;}
	.st4{fill:#FFFFFF;}
	.st5{fill:#2A6FBA;}
	.st6{fill:#4ABAEF;}
	.st7{fill:#95C9C8;}
	.st8{fill:#DDEFEE;}
	.st9{fill:#1B8E6F;}
	.st10{fill:#3CEA8A;}
	.st11{opacity:0.4;fill:#666666;}
	.st12{fill:#33BC6E;}
	.st13{fill:none;}
	.st14{fill:#7149A4;}
	.st15{fill:#BD86E0;}
	.st16{opacity:0.4;fill:#666666;stroke:#666666;stroke-width:4;stroke-linejoin:bevel;stroke-miterlimit:10;}
	.st17{fill:#F2F2F2;}
	.st18{fill:#E6E6E6;}
	.st19{fill:none;stroke:#000000;stroke-width:4;stroke-linejoin:bevel;stroke-miterlimit:10;}
	.st20{fill:#C6E0DE;}
	.st21{fill:#A7C6C3;}
	.st22{fill:#EE3D53;}
	.st23{fill:none;stroke:#000000;stroke-width:2;stroke-miterlimit:10;}
	.st24{fill:#A17559;}
	.st25{fill:#910E46;}
	.st26{fill:#238D6F;}
	.st27{fill:#704CA2;}
	.st28{fill:#47E88D;}
	.st29{fill:#BC88DE;}
	.st30{fill:#CCCCCC;}
	.st31{opacity:0.38;fill:#2D3D3E;}
	.st32{fill:#5B2616;}
</style>
<g>
	<rect x="-948.1" y="1830.1" class="st0" width="484" height="82"/>
	<rect x="-496.1" y="1904.1" class="st0" width="107" height="30"/>
	<g class="st1">
		<g>
			<polygon class="st0" points="-932.1,1850.1 -932.1,1932.1 -1028.1,1932.1 -1028.1,1921.1 -1016.1,1921.1 -1016.1,1909.1 
				-1004.1,1909.1 -1004.1,1897.1 -992.1,1897.1 -992.1,1885.1 -1004.1,1885.1 -1004.1,1873.1 -1016.1,1873.1 -1016.1,1861.1 
				-1028.1,1861.1 -1028.1,1850.1 			"/>
		</g>
		<polygon class="st0" points="-946.1,1908.1 -932.1,1931.1 -932.1,1908.1 		"/>
	</g>
	<g>
		<g>
			<polygon class="st2" points="-485.1,1842.1 -485.1,1924.1 -389.1,1924.1 -389.1,1913.1 -401.1,1913.1 -401.1,1901.1 
				-413.1,1901.1 -413.1,1889.1 -425.1,1889.1 -425.1,1877.1 -413.1,1877.1 -413.1,1865.1 -401.1,1865.1 -401.1,1853.1 
				-389.1,1853.1 -389.1,1842.1 			"/>
			<polygon class="st3" points="-485.1,1831.1 -485.1,1913.1 -389.1,1913.1 -389.1,1902.1 -401.1,1902.1 -401.1,1890.1 
				-413.1,1890.1 -413.1,1878.1 -425.1,1878.1 -425.1,1866.1 -413.1,1866.1 -413.1,1854.1 -401.1,1854.1 -401.1,1842.1 
				-389.1,1842.1 -389.1,1831.1 			"/>
		</g>
		<polygon class="st2" points="-471.1,1900.1 -485.1,1923.1 -485,1900.1 		"/>
		<g>
			<g>
				<polygon class="st2" points="-941.1,1842.1 -941.1,1924.1 -1037.1,1924.1 -1037.1,1913.1 -1025.1,1913.1 -1025.1,1901.1 
					-1013.1,1901.1 -1013.1,1889.1 -1001.1,1889.1 -1001.1,1877.1 -1013.1,1877.1 -1013.1,1865.1 -1025.1,1865.1 -1025.1,1853.1 
					-1037.1,1853.1 -1037.1,1842.1 				"/>
				<polygon class="st3" points="-941.1,1831.1 -941.1,1913.1 -1037.1,1913.1 -1037.1,1902.1 -1025.1,1902.1 -1025.1,1890.1 
					-1013.1,1890.1 -1013.1,1878.1 -1001.1,1878.1 -1001.1,1866.1 -1013.1,1866.1 -1013.1,1854.1 -1025.1,1854.1 -1025.1,1842.1 
					-1037.1,1842.1 -1037.1,1831.1 				"/>
			</g>
			<polygon class="st2" points="-955.1,1900.1 -941.1,1923.1 -941.1,1900.1 			"/>
		</g>
		<g>
			<rect x="-955.1" y="1818.1" class="st2" width="484" height="82"/>
			<rect x="-955.1" y="1806.1" class="st3" width="484" height="82"/>
		</g>
	</g>
	<g>
		<path class="st4" d="M-884.5,1865.9h-8.6v-34.6h8.6v13h8.6v-13h8.6v34.6h-8.6v-13h-8.6V1865.9z"/>
		<path class="st4" d="M-862.9,1835.6h4.3v-4.3h17.3v4.3h4.3v25.9h-4.3v4.3h-17.3v-4.3h-4.3V1835.6z M-854.2,1857.2h8.6v-17.3h-8.6
			V1857.2z"/>
		<path class="st4" d="M-824,1865.9h-8.6v-34.6h8.6v17.3h4.3v-4.3h4.3v4.3h4.3v-17.3h8.6v34.6h-8.6v-4.3h-4.3v-4.3h-4.3v4.3h-4.3
			V1865.9z"/>
		<path class="st4" d="M-767.8,1831.3h25.9v8.6h-8.6v25.9h-8.6v-25.9h-8.6V1831.3z"/>
		<path class="st4" d="M-737.6,1835.6h4.3v-4.3h17.3v4.3h4.3v25.9h-4.3v4.3h-17.3v-4.3h-4.3V1835.6z M-729,1857.2h8.6v-17.3h-8.6
			V1857.2z"/>
		<path class="st4" d="M-668.5,1865.9h-8.6v-34.6h21.6v4.3h4.3v13h-4.3v4.3h-13V1865.9z M-668.5,1844.3h8.6v-4.3h-8.6V1844.3z"/>
		<path class="st4" d="M-642.6,1861.5h-4.3v-30.2h8.6v25.9h17.3v8.6h-21.6V1861.5z"/>
		<path class="st4" d="M-608,1865.9h-8.6v-30.2h4.3v-4.3h17.3v4.3h4.3v30.2h-8.6v-13h-8.6V1865.9z M-599.4,1844.3v-4.3h-8.6v4.3
			H-599.4z"/>
		<path class="st4" d="M-586.4,1831.3h8.6v13h8.6v-13h8.6v17.3h-4.3v4.3h-4.3v13h-8.6v-13h-4.3v-4.3h-4.3V1831.3z"/>
	</g>
</g>
<polygon class="st5" points="-779.1,2099.1 -791.1,2099.1 -864.1,2099.1 -864.1,2111.1 -876.1,2111.1 -876.1,2196.1 -864.1,2196.1 
	-864.1,2208.1 -791.1,2208.1 -779.1,2208.1 -779.1,2196.1 -767.1,2196.1 -767.1,2111.1 -779.1,2111.1 "/>
<polygon class="st5" points="-779.1,2099.1 -791.1,2099.1 -864.1,2099.1 -864.1,2111.1 -876.1,2111.1 -876.1,2196.1 -864.1,2196.1 
	-864.1,2208.1 -791.1,2208.1 -779.1,2208.1 -779.1,2196.1 -767.1,2196.1 -767.1,2111.1 -779.1,2111.1 "/>
<g>
	<path class="st4" d="M-839.5,2133.3h28.4v5.7h5.7v17.1h-5.7v5.7h-17.1v-11.4h11.4v-5.7h-22.8V2133.3z M-828.1,2167.4h11.4v11.4
		h-11.4V2167.4z"/>
</g>
<polygon class="st5" points="-628.1,2099.1 -640.1,2099.1 -713.1,2099.1 -713.1,2111.1 -725.1,2111.1 -725.1,2196.1 -713.1,2196.1 
	-713.1,2208.1 -640.1,2208.1 -628.1,2208.1 -628.1,2196.1 -616.1,2196.1 -616.1,2111.1 -628.1,2111.1 "/>
<polygon class="st6" points="-628.1,2089.1 -640.1,2089.1 -713.1,2089.1 -713.1,2101.1 -725.1,2101.1 -725.1,2186.1 -713.1,2186.1 
	-713.1,2198.1 -640.1,2198.1 -628.1,2198.1 -628.1,2186.1 -616.1,2186.1 -616.1,2101.1 -628.1,2101.1 "/>
<g>
	<path class="st4" d="M-688.5,2123.3h28.4v5.7h5.7v17.1h-5.7v5.7h-17.1v-11.4h11.4v-5.7h-22.8V2123.3z M-677.1,2157.4h11.4v11.4
		h-11.4V2157.4z"/>
</g>
<g>
	<polygon class="st0" points="406.9,1943.6 395.3,1943.6 395.3,1932 383.8,1932 383.8,1919.2 -114.9,1919.2 -114.9,1932 
		-126.5,1932 -126.5,1943.6 -138.1,1943.6 -138.1,2628.3 -126.5,2628.3 -126.5,2640 -114.9,2640 -114.9,2652.8 383.8,2652.8 
		383.8,2640 395.3,2640 395.3,2628.3 406.9,2628.3 	"/>
	<polygon class="st7" points="406.9,1931.6 395.3,1931.6 395.3,1919.9 383.8,1919.9 383.8,1907.1 -114.9,1907.1 -114.9,1919.9 
		-126.5,1919.9 -126.5,1931.6 -138.1,1931.6 -138.1,2616.3 -126.5,2616.3 -126.5,2628 -114.9,2628 -114.9,2640.8 383.8,2640.8 
		383.8,2628 395.3,2628 395.3,2616.3 406.9,2616.3 	"/>
	<polygon class="st8" points="406.9,1919.6 395.3,1919.6 395.3,1907.9 383.8,1907.9 383.8,1895.1 -114.9,1895.1 -114.9,1907.9 
		-126.5,1907.9 -126.5,1919.6 -138.1,1919.6 -138.1,2604.3 -126.5,2604.3 -126.5,2615.9 -114.9,2615.9 -114.9,2628.7 383.8,2628.7 
		383.8,2615.9 395.3,2615.9 395.3,2604.3 406.9,2604.3 	"/>
</g>
<g>
	<polygon class="st9" points="-642.1,1579.1 -652.1,1579.1 -1027,1579.1 -1027,1589.2 -1037.1,1589.2 -1037.1,1647 -1027,1647 
		-1027,1657.1 -652.1,1657.1 -642.1,1657.1 -642.1,1647 -632,1647 -632,1589.2 -642.1,1589.2 	"/>
	<polygon class="st10" points="-642.1,1569.1 -652.1,1569.1 -1027,1569.1 -1027,1579.2 -1037.1,1579.2 -1037.1,1637 -1027,1637 
		-1027,1647.1 -652.1,1647.1 -642.1,1647.1 -642.1,1637 -632,1637 -632,1579.2 -642.1,1579.2 	"/>
	<g>
		<path class="st4" d="M-917,1620h-6.9v-27.6h17.3v3.5h3.5v10.4h-3.5v3.5H-917V1620z M-917,1602.7h6.9v-3.5h-6.9V1602.7z"/>
		<path class="st4" d="M-896.3,1616.5h-3.5v-24.2h6.9v20.7h13.8v6.9h-17.3V1616.5z"/>
		<path class="st4" d="M-868.7,1620h-6.9v-24.2h3.5v-3.5h13.8v3.5h3.5v24.2h-6.9v-10.4h-6.9V1620z M-861.7,1602.7v-3.5h-6.9v3.5
			H-861.7z"/>
		<path class="st4" d="M-851.4,1592.3h6.9v10.4h6.9v-10.4h6.9v13.8h-3.5v3.5h-3.5v10.4h-6.9v-10.4h-3.5v-3.5h-3.5V1592.3z"/>
		<path class="st4" d="M-823.7,1616.5h-3.5v-20.7h3.5v-3.5h17.3v6.9h-13.8v3.5h6.9v6.9h-6.9v3.5h13.8v6.9h-17.3V1616.5z"/>
		<path class="st4" d="M-792.6,1609.6h-3.5v10.4h-6.9v-27.6h17.3v3.5h3.5v10.4h-3.5v3.5h3.5v10.4h-6.9v-6.9h-3.5V1609.6z
			 M-796.1,1602.7h6.9v-3.5h-6.9V1602.7z"/>
		<path class="st4" d="M-754.6,1592.3h6.9v27.6h-6.9V1592.3z"/>
	</g>
</g>
<g>
	<polygon class="st11" points="-1002.9,1458.5 -1004.9,1452.7 -1008.9,1440.7 -1026.7,1446.8 -1024.8,1452.5 -1030.5,1454.5 
		-1026.5,1466.5 -1020.7,1464.5 -1018.7,1470.3 -1006.7,1466.2 -1008.7,1460.5 	"/>
	<polygon class="st11" points="-964.1,1446.5 -966.1,1440.7 -970.1,1428.7 -987.9,1434.7 -986,1440.5 -991.7,1442.4 -987.7,1454.4 
		-981.9,1452.5 -980,1458.2 -967.9,1454.2 -969.9,1448.4 	"/>
	<rect x="-1023.7" y="1399.5" transform="matrix(0.9472 -0.3207 0.3207 0.9472 -508.9327 -252.2259)" width="7.1" height="38.6"/>
	<polygon points="-1004.5,1453.7 -1006.5,1447.9 -1010.6,1435.9 -1028.4,1441.9 -1026.4,1447.7 -1032.2,1449.7 -1028.1,1461.7 
		-1022.3,1459.7 -1020.4,1465.5 -1008.4,1461.4 -1010.3,1455.7 	"/>
	<rect x="-985.2" y="1386.5" transform="matrix(0.9472 -0.3207 0.3207 0.9472 -502.7227 -240.5761)" width="7.1" height="38.6"/>
	<polygon points="-966.1,1440.7 -968,1434.9 -972.1,1422.9 -989.9,1428.9 -987.9,1434.7 -993.7,1436.6 -989.6,1448.7 -983.9,1446.7 
		-981.9,1452.5 -969.9,1448.4 -971.8,1442.6 	"/>
	<rect x="-1033.7" y="1377.2" transform="matrix(0.9472 -0.3207 0.3207 0.9472 -497.8185 -250.6704)" width="47.7" height="17.3"/>
</g>
<g>
	<polygon class="st11" points="-936.7,1492.1 -935.8,1487.9 -933.9,1479.3 -946.7,1476.5 -947.6,1480.6 -951.7,1479.7 
		-953.6,1488.4 -949.5,1489.3 -950.4,1493.4 -941.8,1495.3 -940.8,1491.2 	"/>
	<polygon class="st11" points="-909.2,1498.9 -908.3,1494.7 -906.4,1486.1 -919.2,1483.3 -920.1,1487.4 -924.2,1486.5 
		-926.1,1495.1 -922,1496.1 -922.9,1500.2 -914.3,1502.1 -913.3,1498 	"/>
	<rect x="-935.1" y="1448.7" transform="matrix(0.9766 0.2149 -0.2149 0.9766 292.416 234.5742)" width="5" height="26.9"/>
	<polygon points="-935.9,1488.6 -935,1484.5 -933.1,1475.8 -945.9,1473 -946.8,1477.2 -951,1476.3 -952.9,1484.9 -948.7,1485.8 
		-949.6,1490 -941,1491.9 -940.1,1487.7 	"/>
	<rect x="-907.5" y="1454.8" transform="matrix(0.9766 0.2149 -0.2149 0.9766 294.3701 228.7722)" width="5" height="26.9"/>
	<polygon points="-908.3,1494.7 -907.4,1490.6 -905.5,1481.9 -918.3,1479.1 -919.2,1483.3 -923.3,1482.4 -925.2,1491 -921.1,1491.9 
		-922,1496.1 -913.3,1498 -912.4,1493.8 	"/>
	<rect x="-931.3" y="1440.2" transform="matrix(0.9766 0.2149 -0.2149 0.9766 289.4042 230.3297)" width="33.3" height="12"/>
</g>
<g>
	<polygon class="st11" points="-860.7,1430.3 -861.4,1427.3 -862.8,1420.9 -872.2,1423 -871.5,1426 -874.5,1426.7 -873.1,1433.1 
		-870.1,1432.4 -869.4,1435.4 -863,1434 -863.7,1431 	"/>
	<polygon class="st11" points="-840.3,1426.3 -840.9,1423.2 -842.3,1416.9 -851.7,1419 -851.1,1422 -854.1,1422.7 -852.7,1429.1 
		-849.6,1428.4 -849,1431.4 -842.6,1430 -843.3,1427 	"/>
	<rect x="-869.1" y="1399.2" transform="matrix(0.9761 -0.2173 0.2173 0.9761 -326.9043 -154.7768)" width="3.6" height="19.8"/>
	<polygon points="-861.2,1427.8 -861.9,1424.7 -863.3,1418.4 -872.7,1420.5 -872,1423.5 -875.1,1424.2 -873.7,1430.5 -870.6,1429.9 
		-870,1432.9 -863.6,1431.5 -864.3,1428.4 	"/>
	<rect x="-848.8" y="1394.7" transform="matrix(0.9761 -0.2173 0.2173 0.9761 -325.4367 -150.4721)" width="3.6" height="19.8"/>
	<polygon points="-840.9,1423.2 -841.6,1420.2 -843,1413.8 -852.4,1415.9 -851.7,1419 -854.8,1419.7 -853.4,1426 -850.3,1425.3 
		-849.6,1428.4 -843.3,1427 -844,1423.9 	"/>
	<rect x="-872.4" y="1388.5" transform="matrix(0.9761 -0.2173 0.2173 0.9761 -323.211 -153.6333)" width="24.4" height="8.8"/>
</g>
<g>
	<polygon class="st11" points="-840.1,1476.1 -837.5,1472 -832,1463.4 -844.7,1455.3 -847.3,1459.4 -851.4,1456.8 -856.9,1465.4 
		-852.8,1468 -855.4,1472.1 -846.8,1477.6 -844.2,1473.5 	"/>
	<polygon class="st11" points="-813.1,1494.2 -810.5,1490.1 -805,1481.5 -817.7,1473.4 -820.3,1477.5 -824.4,1474.9 -829.9,1483.5 
		-825.8,1486.1 -828.4,1490.2 -819.8,1495.7 -817.2,1491.6 	"/>
	<rect x="-826.8" y="1430" transform="matrix(0.844 0.5363 -0.5363 0.844 646.6613 667.343)" width="5.7" height="30.9"/>
	<polygon points="-837.9,1472.6 -835.3,1468.5 -829.8,1460 -842.5,1451.9 -845.1,1456 -849.2,1453.4 -854.7,1462 -850.6,1464.6 
		-853.2,1468.7 -844.6,1474.1 -842,1470 	"/>
	<rect x="-799.4" y="1447.4" transform="matrix(0.844 0.5363 -0.5363 0.844 660.2856 655.3522)" width="5.7" height="30.9"/>
	<polygon points="-810.5,1490.1 -807.9,1485.9 -802.4,1477.4 -815.1,1469.3 -817.7,1473.4 -821.8,1470.8 -827.3,1479.4 -823.1,1482 
		-825.8,1486.1 -817.2,1491.6 -814.6,1487.4 	"/>
	<rect x="-817.3" y="1428.4" transform="matrix(0.844 0.5363 -0.5363 0.844 645.2297 651.9808)" width="38.2" height="13.8"/>
</g>
<g>
	<polygon class="st9" points="-1118.8,1035.6 -1125.4,1035.6 -1371.8,1035.6 -1371.8,1042.3 -1378.4,1042.3 -1378.4,1080.3 
		-1371.8,1080.3 -1371.8,1086.9 -1125.4,1086.9 -1118.8,1086.9 -1118.8,1080.3 -1112.2,1080.3 -1112.2,1042.3 -1118.8,1042.3 	"/>
	<polygon class="st12" points="-1118.8,1035.6 -1125.4,1035.6 -1371.8,1035.6 -1371.8,1042.3 -1378.4,1042.3 -1378.4,1080.3 
		-1371.8,1080.3 -1371.8,1086.9 -1125.4,1086.9 -1118.8,1086.9 -1118.8,1080.3 -1112.2,1080.3 -1112.2,1042.3 -1118.8,1042.3 	"/>
	<g>
		<path class="st4" d="M-1312,1053.2h2.3v-2.3h11.4v4.5h-9.1v9.1h9.1v4.5h-11.4v-2.3h-2.3V1053.2z"/>
		<path class="st4" d="M-1291.6,1069.1h-4.5v-15.9h2.3v-2.3h9.1v2.3h2.3v15.9h-4.5v-6.8h-4.5V1069.1z M-1287,1057.7v-2.3h-4.5v2.3
			H-1287z"/>
		<path class="st4" d="M-1277.9,1066.8h-2.3v-15.9h4.5v13.6h9.1v4.5h-11.4V1066.8z"/>
		<path class="st4" d="M-1264.3,1050.9h4.5v18.2h-4.5V1050.9z"/>
		<path class="st4" d="M-1257.5,1050.9h11.4v2.3h2.3v13.6h-2.3v2.3h-11.4V1050.9z M-1253,1057.7h4.5v-2.3h-4.5V1057.7z
			 M-1253,1064.5h4.5v-2.3h-4.5V1064.5z"/>
		<path class="st4" d="M-1234.8,1062.3h-2.3v6.8h-4.5v-15.9h2.3v-2.3h9.1v2.3h2.3v6.8h-2.3v2.3h2.3v6.8h-4.5v-4.5h-2.3V1062.3z
			 M-1237.1,1057.7h4.5v-2.3h-4.5V1057.7z"/>
		<path class="st4" d="M-1221.2,1069.1h-4.5v-15.9h2.3v-2.3h9.1v2.3h2.3v15.9h-4.5v-6.8h-4.5V1069.1z M-1216.6,1057.7v-2.3h-4.5v2.3
			H-1216.6z"/>
		<path class="st4" d="M-1209.8,1050.9h13.6v4.5h-4.5v13.6h-4.5v-13.6h-4.5V1050.9z"/>
		<path class="st4" d="M-1191.6,1066.8h-2.3v-13.6h2.3v-2.3h11.4v4.5h-9.1v2.3h4.5v4.5h-4.5v2.3h9.1v4.5h-11.4V1066.8z"/>
	</g>
</g>
<g>
	<polygon class="st9" points="-798.8,1103.6 -805.4,1103.6 -1051.8,1103.6 -1051.8,1110.3 -1058.4,1110.3 -1058.4,1148.3 
		-1051.8,1148.3 -1051.8,1154.9 -805.4,1154.9 -798.8,1154.9 -798.8,1148.3 -792.2,1148.3 -792.2,1110.3 -798.8,1110.3 	"/>
	<polygon class="st10" points="-798.8,1097.1 -805.4,1097.1 -1051.8,1097.1 -1051.8,1103.7 -1058.4,1103.7 -1058.4,1141.7 
		-1051.8,1141.7 -1051.8,1148.3 -805.4,1148.3 -798.8,1148.3 -798.8,1141.7 -792.2,1141.7 -792.2,1103.7 -798.8,1103.7 	"/>
	<g>
		<path class="st4" d="M-992,1114.6h2.3v-2.3h11.4v4.5h-9.1v9.1h9.1v4.5h-11.4v-2.3h-2.3V1114.6z"/>
		<path class="st4" d="M-971.6,1130.5h-4.5v-15.9h2.3v-2.3h9.1v2.3h2.3v15.9h-4.5v-6.8h-4.5V1130.5z M-967,1119.2v-2.3h-4.5v2.3
			H-967z"/>
		<path class="st4" d="M-957.9,1128.2h-2.3v-15.9h4.5v13.6h9.1v4.5h-11.4V1128.2z"/>
		<path class="st4" d="M-944.3,1112.3h4.5v18.2h-4.5V1112.3z"/>
		<path class="st4" d="M-937.5,1112.3h11.4v2.3h2.3v13.6h-2.3v2.3h-11.4V1112.3z M-933,1119.2h4.5v-2.3h-4.5V1119.2z M-933,1126h4.5
			v-2.3h-4.5V1126z"/>
		<path class="st4" d="M-914.8,1123.7h-2.3v6.8h-4.5v-15.9h2.3v-2.3h9.1v2.3h2.3v6.8h-2.3v2.3h2.3v6.8h-4.5v-4.5h-2.3V1123.7z
			 M-917.1,1119.2h4.5v-2.3h-4.5V1119.2z"/>
		<path class="st4" d="M-901.2,1130.5h-4.5v-15.9h2.3v-2.3h9.1v2.3h2.3v15.9h-4.5v-6.8h-4.5V1130.5z M-896.6,1119.2v-2.3h-4.5v2.3
			H-896.6z"/>
		<path class="st4" d="M-889.8,1112.3h13.6v4.5h-4.5v13.6h-4.5v-13.6h-4.5V1112.3z"/>
		<path class="st4" d="M-871.6,1128.2h-2.3v-13.6h2.3v-2.3h11.4v4.5h-9.1v2.3h4.5v4.5h-4.5v2.3h9.1v4.5h-11.4V1128.2z"/>
	</g>
</g>
<g>
	<rect x="-1056.8" y="1186" class="st9" width="219.8" height="28.8"/>
	<rect x="-1061.6" y="1179.4" class="st9" width="229.4" height="30.6"/>
	<polygon class="st10" points="-1061.6,1175.1 -1061.6,1204.3 -1056.8,1204.3 -1056.8,1210 -837.1,1210 -837.1,1204.3 
		-832.3,1204.3 -832.3,1175.1 	"/>
</g>
<polygon class="st9" points="-841.9,1189.9 -841.9,1184.8 -846.9,1184.8 -846.9,1184.7 -903.6,1184.7 -934.2,1184.7 -959.8,1184.7 
	-983.6,1184.7 -1047,1184.7 -1047,1184.8 -1052.1,1184.8 -1052.1,1189.9 -1057.2,1189.9 -1057.2,1197.5 -1052.1,1197.5 
	-1052.1,1202.6 -1047,1202.6 -1047,1202.7 -983.6,1202.7 -959.8,1202.7 -934.2,1202.7 -903.6,1202.7 -846.9,1202.7 -846.9,1202.7 
	-841.9,1202.7 -841.9,1197.6 -836.8,1197.6 -836.8,1189.9 "/>
<g>
	<rect x="-1065.8" y="1284" class="st13" width="4.7" height="0.1"/>
	<rect x="-1065.8" y="1301.9" class="st13" width="4.7" height="0.1"/>
	<polygon class="st4" points="-1044.8,1301.9 -1044.8,1296.9 -1039.7,1296.9 -1039.7,1289.2 -1044.8,1289.2 -1044.8,1284.1 
		-1049.8,1284.1 -1049.8,1284 -1061,1284 -1061,1284.1 -1065.8,1284.1 -1065.8,1301.9 -1061,1301.9 -1061,1302 -1049.8,1302 
		-1049.8,1301.9 	"/>
</g>
<g>
	<polygon class="st4" points="-1091.6,1248.5 -1091.6,1243.4 -1096.7,1243.4 -1096.7,1243.3 -1112.6,1243.3 -1112.6,1261.3 
		-1096.7,1261.3 -1096.7,1261.2 -1091.6,1261.2 -1091.6,1256.1 -1086.5,1256.1 -1086.5,1248.5 	"/>
	<polygon class="st4" points="-1105.1,1287.3 -1105.1,1282.2 -1105.1,1282.2 -1105.1,1282.1 -1109.6,1282.1 -1110.2,1282.1 
		-1114.7,1282.1 -1114.7,1282.2 -1114.7,1282.2 -1114.7,1287.3 -1119.8,1287.3 -1119.8,1294.9 -1114.7,1294.9 -1114.7,1300 
		-1114.7,1300 -1114.7,1300.1 -1110.2,1300.1 -1109.6,1300.1 -1105.1,1300.1 -1105.1,1300.1 -1105.1,1300.1 -1105.1,1295 
		-1100,1295 -1100,1287.3 	"/>
</g>
<polygon class="st4" points="-1154.9,1189.9 -1154.9,1184.8 -1154.9,1184.8 -1154.9,1184.7 -1159.4,1184.7 -1160,1184.7 
	-1164.5,1184.7 -1164.5,1184.8 -1164.5,1184.8 -1164.5,1189.9 -1169.6,1189.9 -1169.6,1197.5 -1164.5,1197.5 -1164.5,1202.6 
	-1164.5,1202.6 -1164.5,1202.7 -1160,1202.7 -1159.4,1202.7 -1154.9,1202.7 -1154.9,1202.7 -1154.9,1202.7 -1154.9,1197.6 
	-1149.8,1197.6 -1149.8,1189.9 "/>
<polygon class="st14" points="-189.1,1579.1 -199.1,1579.1 -574,1579.1 -574,1589.2 -584.1,1589.2 -584.1,1647 -574,1647 
	-574,1657.1 -199.1,1657.1 -189.1,1657.1 -189.1,1647 -179,1647 -179,1589.2 -189.1,1589.2 "/>
<polygon class="st15" points="-189.1,1569.1 -199.1,1569.1 -574,1569.1 -574,1579.2 -584.1,1579.2 -584.1,1637 -574,1637 
	-574,1647.1 -199.1,1647.1 -189.1,1647.1 -189.1,1637 -179,1637 -179,1579.2 -189.1,1579.2 "/>
<g>
	<path class="st4" d="M-471.4,1620h-6.9v-27.6h17.3v3.5h3.5v10.4h-3.5v3.5h-10.4V1620z M-471.4,1602.7h6.9v-3.5h-6.9V1602.7z"/>
	<path class="st4" d="M-450.7,1616.5h-3.5v-24.2h6.9v20.7h13.8v6.9h-17.3V1616.5z"/>
	<path class="st4" d="M-423.1,1620h-6.9v-24.2h3.5v-3.5h13.8v3.5h3.5v24.2h-6.9v-10.4h-6.9V1620z M-416.2,1602.7v-3.5h-6.9v3.5
		H-416.2z"/>
	<path class="st4" d="M-405.8,1592.3h6.9v10.4h6.9v-10.4h6.9v13.8h-3.5v3.5h-3.5v10.4h-6.9v-10.4h-3.5v-3.5h-3.5V1592.3z"/>
	<path class="st4" d="M-378.1,1616.5h-3.5v-20.7h3.5v-3.5h17.3v6.9h-13.8v3.5h6.9v6.9h-6.9v3.5h13.8v6.9h-17.3V1616.5z"/>
	<path class="st4" d="M-347,1609.6h-3.5v10.4h-6.9v-27.6h17.3v3.5h3.5v10.4h-3.5v3.5h3.5v10.4h-6.9v-6.9h-3.5V1609.6z
		 M-350.5,1602.7h6.9v-3.5h-6.9V1602.7z"/>
	<path class="st4" d="M-309,1592.3h17.3v3.5h3.5v10.4h-3.5v3.5h-10.4v3.5h13.8v6.9H-309v-13.8h3.5v-3.5h10.4v-3.5H-309V1592.3z"/>
</g>
<g>
	<rect x="-563.1" y="1573.1" class="st4" width="45.1" height="5.7"/>
	<rect x="-511.8" y="1573.1" class="st4" width="5.7" height="5.7"/>
</g>
<g>
	<rect x="-1017.6" y="1574.1" class="st4" width="45.1" height="5.7"/>
	<rect x="-966.3" y="1574.1" class="st4" width="5.7" height="5.7"/>
</g>
<polygon class="st16" points="-628.5,1414.1 -622.1,1419.7 -627.7,1426.1 -607.2,1443.5 -607.2,1481.4 -586.5,1455.3 -554.7,1484.7 
	-548.9,1478.4 -543.9,1483 -472.3,1364.3 "/>
<polygon class="st17" points="-630.9,1407 -624.5,1412.6 -630.1,1419 -609.7,1436.4 -609.7,1474.2 -589,1448.2 -557.2,1477.5 
	-551.4,1471.3 -546.4,1475.9 -474.8,1357.2 "/>
<polygon class="st18" points="-588.9,1447.9 -474.5,1357.2 -609.6,1436.2 -609.6,1474 "/>
<polygon class="st19" points="-632,1407.1 -625.6,1412.7 -631.2,1419.1 -610.8,1436.5 -610.8,1474.4 -590,1448.3 -558.3,1477.7 
	-552.4,1471.4 -547.5,1476 -475.8,1357.3 "/>
<g>
	<polygon class="st20" points="-696.1,1100.4 -696.1,1264 -685.8,1264 -685.8,1273.5 -675.4,1273.5 -675.4,1284 -227.9,1284 
		-227.9,1273.5 -217.5,1273.5 -217.5,1264 -207.1,1264 -207.1,1100.4 	"/>
	<polygon class="st20" points="-207.1,1100.4 -207.1,1006.3 -217.5,1006.3 -217.5,996.8 -227.9,996.8 -227.9,986.3 -675.4,986.3 
		-675.4,996.8 -685.8,996.8 -685.8,1006.3 -696.1,1006.3 -696.1,1100.4 	"/>
</g>
<g>
	<polygon class="st21" points="-685.8,1002.9 -675.4,1002.9 -675.4,994.9 -685.8,994.9 -685.8,1002.8 -696.1,1002.8 -696.1,1010.8 
		-685.8,1010.8 	"/>
	<rect x="-675.4" y="986.2" class="st21" width="447.5" height="8"/>
	<polygon class="st21" points="-217.5,1002.8 -217.5,994.9 -227.9,994.9 -227.9,1002.9 -217.5,1002.9 -217.5,1010.8 -207.1,1010.8 
		-207.1,1002.8 	"/>
</g>
<g>
	<g>
		<g>
			<rect x="-1089.3" y="921.9" width="10.2" height="10.2"/>
		</g>
	</g>
	<g>
		<g>
			<path d="M-1027.8,911.7v5.1h-5.1v5.1h5.1v20.5h5.1v5.1h-5.1v5.1h5.1h5.1v-10.2h15.4v5.1h5.1v-5.1v-30.7H-1027.8z M-1002.2,937.3
				h-20.5v-20.5h20.5V937.3z"/>
		</g>
	</g>
	<g>
		<g>
			<rect x="-1017.6" y="921.9" width="10.2" height="10.2"/>
		</g>
	</g>
	<g>
		<g>
			<rect x="-1089.3" y="993.6" width="10.2" height="10.2"/>
		</g>
	</g>
	<g>
		<g>
			<rect x="-1027.8" y="983.4" width="5.1" height="5.1"/>
		</g>
	</g>
	<g>
		<g>
			<rect x="-1053.5" y="1009" width="5.1" height="5.1"/>
		</g>
	</g>
	<g>
		<g>
			<rect x="-1048.3" y="988.5" width="5.1" height="5.1"/>
		</g>
	</g>
	<g>
		<g>
			<rect x="-1048.3" y="998.7" width="5.1" height="5.1"/>
		</g>
	</g>
	<g>
		<g>
			<rect x="-1002.2" y="973.1" width="5.1" height="5.1"/>
		</g>
	</g>
	<g>
		<g>
			<rect x="-1099.5" y="973.1" width="5.1" height="5.1"/>
		</g>
	</g>
	<g>
		<g>
			<rect x="-1099.5" y="947.5" width="5.1" height="5.1"/>
		</g>
	</g>
	<g>
		<g>
			<polygon points="-1043.2,916.8 -1043.2,921.9 -1053.5,921.9 -1053.5,927 -1038.1,927 -1038.1,921.9 -1038.1,916.8 			"/>
		</g>
	</g>
	<g>
		<g>
			<path d="M-1002.2,952.6v5.1h-10.2v5.1h-15.4v-5.1h-5.1v5.1h-10.2v5.1h15.4v5.1h-10.2h-5.1V968h-5.1v5.1h-5.1V968h-5.1v5.1h-5.1
				v5.1h10.2v5.1h5.1v-5.1h10.2v5.1h-5.1v5.1h5.1v10.2h5.1v5.1h5.1v-5.1h15.4v-10.2h5.1v-5.1h-5.1v-10.2h-10.2V968h10.2v5.1h5.1V968
				h5.1v-5.1h5.1v-5.1v-5.1H-1002.2L-1002.2,952.6z M-1017.6,978.2v15.4h-15.4v-15.4H-1017.6z"/>
		</g>
	</g>
	<g>
		<g>
			<polygon points="-1033,942.4 -1038.1,942.4 -1038.1,947.5 -1043.2,947.5 -1043.2,952.6 -1043.2,957.8 -1038.1,957.8 
				-1038.1,952.6 -1033,952.6 -1033,947.5 -1027.8,947.5 -1027.8,942.4 			"/>
		</g>
	</g>
	<g>
		<g>
			<rect x="-1043.2" y="1009" width="10.2" height="5.1"/>
		</g>
	</g>
	<g>
		<g>
			<rect x="-1058.6" y="916.8" width="5.1" height="5.1"/>
		</g>
	</g>
	<g>
		<g>
			<rect x="-1017.6" y="952.6" width="5.1" height="5.1"/>
		</g>
	</g>
	<g>
		<g>
			<rect x="-1012.5" y="947.5" width="5.1" height="5.1"/>
		</g>
	</g>
	<g>
		<g>
			<rect x="-1079.1" y="973.1" width="5.1" height="5.1"/>
		</g>
	</g>
	<g>
		<g>
			<path d="M-1068.8,1009v-20.5h5.1v-5.1v-5.1h-5.1v5.1h-15.4v-5.1h-5.1h-5.1v5.1h-5.1v30.7h30.7h10.2v-5.1H-1068.8z M-1073.9,1009
				h-20.5v-20.5h20.5V1009z"/>
		</g>
	</g>
	<g>
		<g>
			<rect x="-1068.8" y="942.4" width="5.1" height="5.1"/>
		</g>
	</g>
	<g>
		<g>
			<path d="M-1063.7,911.7h-5.1h-30.7v30.7h5.1v5.1h5.1v-5.1h5.1v5.1h5.1v-5.1h10.2v-10.2h5.1V927h-5.1v-10.2h5.1h5.1v-5.1H-1063.7z
				 M-1073.9,937.3h-20.5v-20.5h20.5V937.3z"/>
		</g>
	</g>
	<g>
		<g>
			<rect x="-1038.1" y="927" width="5.1" height="5.1"/>
		</g>
	</g>
	<g>
		<g>
			<rect x="-1048.3" y="911.7" width="5.1" height="5.1"/>
		</g>
	</g>
	<g>
		<g>
			<path d="M-1038.1,942.4v-5.1h-5.1v-5.1h-5.1v5.1h-10.2v-5.1h-5.1v5.1v5.1h5.1v10.2h-15.4v-5.1h-5.1v5.1h-15.4v5.1h10.2v5.1h-15.4
				v5.1h15.4v5.1h5.1V968h5.1v5.1h5.1V968h10.2v-5.1h-5.1v-5.1h5.1h5.1v5.1h5.1h5.1v-5.1h-5.1v-5.1h-5.1v-10.2H-1038.1
				L-1038.1,942.4z M-1068.8,962.9h-10.2v-5.1h10.2V962.9z"/>
		</g>
	</g>
	<g>
		<g>
			<polygon points="-1053.5,993.6 -1053.5,988.5 -1053.5,983.4 -1058.6,983.4 -1058.6,988.5 -1063.7,988.5 -1063.7,993.6 
				-1058.6,993.6 -1058.6,998.7 -1063.7,998.7 -1063.7,1003.8 -1053.5,1003.8 -1053.5,998.7 -1048.3,998.7 -1048.3,993.6 			"/>
		</g>
	</g>
	<g>
		<g>
			<polygon points="-1007.4,1003.8 -1007.4,998.7 -1012.5,998.7 -1012.5,1003.8 -1027.8,1003.8 -1027.8,1009 -1017.6,1009 
				-1017.6,1014.1 -1012.5,1014.1 -1012.5,1009 -1002.2,1009 -1002.2,1014.1 -997.1,1014.1 -997.1,1009 -997.1,1003.8 			"/>
		</g>
	</g>
	<g>
		<g>
			<polygon points="-1002.2,983.4 -1002.2,988.5 -1007.4,988.5 -1007.4,993.6 -997.1,993.6 -997.1,988.5 -997.1,983.4 			"/>
		</g>
	</g>
</g>
<g>
	<g>
		<polygon class="st9" points="-1327.6,1327.8 -1331.3,1327.8 -1468.5,1327.8 -1468.5,1331.5 -1472.2,1331.5 -1472.2,1352.7 
			-1468.5,1352.7 -1468.5,1356.4 -1331.3,1356.4 -1327.6,1356.4 -1327.6,1352.7 -1324,1352.7 -1324,1331.5 -1327.6,1331.5 		"/>
		<polygon class="st12" points="-1327.6,1327.8 -1331.3,1327.8 -1468.5,1327.8 -1468.5,1331.5 -1472.2,1331.5 -1472.2,1352.7 
			-1468.5,1352.7 -1468.5,1356.4 -1331.3,1356.4 -1327.6,1356.4 -1327.6,1352.7 -1324,1352.7 -1324,1331.5 -1327.6,1331.5 		"/>
		<g>
			<path class="st4" d="M-1440.3,1342.6h-1.3v3.8h-2.5v-10.1h6.3v1.3h1.3v3.8h-1.3v1.3h1.3v3.8h-2.5v-2.5h-1.3V1342.6z
				 M-1441.5,1340.1h2.5v-1.3h-2.5V1340.1z"/>
			<path class="st4" d="M-1434,1345.2h-1.3v-7.6h1.3v-1.3h6.3v2.5h-5.1v1.3h2.5v2.5h-2.5v1.3h5.1v2.5h-6.3V1345.2z"/>
			<path class="st4" d="M-1425.1,1345.2h-1.3v-7.6h1.3v-1.3h5.1v1.3h1.3v2.5h-2.5v-1.3h-2.5v5.1h2.5v-1.3h2.5v2.5h-1.3v1.3h-5.1
				V1345.2z"/>
			<path class="st4" d="M-1415,1346.4h-2.5v-8.9h1.3v-1.3h5.1v1.3h1.3v8.9h-2.5v-3.8h-2.5V1346.4z M-1412.5,1340.1v-1.3h-2.5v1.3
				H-1412.5z"/>
			<path class="st4" d="M-1407.4,1345.2h-1.3v-8.9h2.5v7.6h5.1v2.5h-6.3V1345.2z"/>
			<path class="st4" d="M-1399.8,1336.3h2.5v10.1h-2.5V1336.3z"/>
			<path class="st4" d="M-1396,1336.3h6.3v1.3h1.3v7.6h-1.3v1.3h-6.3V1336.3z M-1393.5,1340.1h2.5v-1.3h-2.5V1340.1z
				 M-1393.5,1343.9h2.5v-1.3h-2.5V1343.9z"/>
			<path class="st4" d="M-1383.4,1342.6h-1.3v3.8h-2.5v-8.9h1.3v-1.3h5.1v1.3h1.3v3.8h-1.3v1.3h1.3v3.8h-2.5v-2.5h-1.3V1342.6z
				 M-1384.6,1340.1h2.5v-1.3h-2.5V1340.1z"/>
			<path class="st4" d="M-1375.8,1346.4h-2.5v-8.9h1.3v-1.3h5.1v1.3h1.3v8.9h-2.5v-3.8h-2.5V1346.4z M-1373.3,1340.1v-1.3h-2.5v1.3
				H-1373.3z"/>
			<path class="st4" d="M-1369.5,1336.3h7.6v2.5h-2.5v7.6h-2.5v-7.6h-2.5V1336.3z"/>
			<path class="st4" d="M-1359.3,1345.2h-1.3v-7.6h1.3v-1.3h6.3v2.5h-5.1v1.3h2.5v2.5h-2.5v1.3h5.1v2.5h-6.3V1345.2z"/>
		</g>
	</g>
	<g>
		<rect x="-1466.1" y="1329.9" class="st4" width="13.1" height="1.7"/>
		<rect x="-1451.2" y="1329.9" class="st4" width="1.7" height="1.7"/>
	</g>
</g>
<g>
	<g>
		<polygon class="st9" points="-1327.6,1369.8 -1331.3,1369.8 -1468.5,1369.8 -1468.5,1373.5 -1472.2,1373.5 -1472.2,1394.7 
			-1468.5,1394.7 -1468.5,1398.4 -1331.3,1398.4 -1327.6,1398.4 -1327.6,1394.7 -1324,1394.7 -1324,1373.5 -1327.6,1373.5 		"/>
		<polygon class="st10" points="-1327.6,1366.2 -1331.3,1366.2 -1468.5,1366.2 -1468.5,1369.8 -1472.2,1369.8 -1472.2,1391 
			-1468.5,1391 -1468.5,1394.7 -1331.3,1394.7 -1327.6,1394.7 -1327.6,1391 -1324,1391 -1324,1369.8 -1327.6,1369.8 		"/>
		<g>
			<path class="st4" d="M-1440.3,1381h-1.3v3.8h-2.5v-10.1h6.3v1.3h1.3v3.8h-1.3v1.3h1.3v3.8h-2.5v-2.5h-1.3V1381z M-1441.5,1378.4
				h2.5v-1.3h-2.5V1378.4z"/>
			<path class="st4" d="M-1434,1383.5h-1.3v-7.6h1.3v-1.3h6.3v2.5h-5.1v1.3h2.5v2.5h-2.5v1.3h5.1v2.5h-6.3V1383.5z"/>
			<path class="st4" d="M-1425.1,1383.5h-1.3v-7.6h1.3v-1.3h5.1v1.3h1.3v2.5h-2.5v-1.3h-2.5v5.1h2.5v-1.3h2.5v2.5h-1.3v1.3h-5.1
				V1383.5z"/>
			<path class="st4" d="M-1415,1384.8h-2.5v-8.9h1.3v-1.3h5.1v1.3h1.3v8.9h-2.5v-3.8h-2.5V1384.8z M-1412.5,1378.4v-1.3h-2.5v1.3
				H-1412.5z"/>
			<path class="st4" d="M-1407.4,1383.5h-1.3v-8.9h2.5v7.6h5.1v2.5h-6.3V1383.5z"/>
			<path class="st4" d="M-1399.8,1374.7h2.5v10.1h-2.5V1374.7z"/>
			<path class="st4" d="M-1396,1374.7h6.3v1.3h1.3v7.6h-1.3v1.3h-6.3V1374.7z M-1393.5,1378.4h2.5v-1.3h-2.5V1378.4z
				 M-1393.5,1382.2h2.5v-1.3h-2.5V1382.2z"/>
			<path class="st4" d="M-1383.4,1381h-1.3v3.8h-2.5v-8.9h1.3v-1.3h5.1v1.3h1.3v3.8h-1.3v1.3h1.3v3.8h-2.5v-2.5h-1.3V1381z
				 M-1384.6,1378.4h2.5v-1.3h-2.5V1378.4z"/>
			<path class="st4" d="M-1375.8,1384.8h-2.5v-8.9h1.3v-1.3h5.1v1.3h1.3v8.9h-2.5v-3.8h-2.5V1384.8z M-1373.3,1378.4v-1.3h-2.5v1.3
				H-1373.3z"/>
			<path class="st4" d="M-1369.5,1374.7h7.6v2.5h-2.5v7.6h-2.5v-7.6h-2.5V1374.7z"/>
			<path class="st4" d="M-1359.3,1383.5h-1.3v-7.6h1.3v-1.3h6.3v2.5h-5.1v1.3h2.5v2.5h-2.5v1.3h5.1v2.5h-6.3V1383.5z"/>
		</g>
	</g>
	<g>
		<rect x="-1466.1" y="1368.9" class="st4" width="13.1" height="1.7"/>
		<rect x="-1451.2" y="1368.9" class="st4" width="1.7" height="1.7"/>
	</g>
</g>
<g>
	<rect x="-1046.3" y="1100.6" class="st4" width="23.6" height="3"/>
	<rect x="-1019.5" y="1100.6" class="st4" width="3" height="3"/>
</g>
<g>
	<rect x="-1366.7" y="1039.2" class="st4" width="23.6" height="3"/>
	<rect x="-1339.9" y="1039.2" class="st4" width="3" height="3"/>
</g>
<g>
	<polygon class="st22" points="-1396.8,1162.7 -1396.8,1155.2 -1415.4,1155.2 -1415.4,1162.7 -1422.9,1162.7 -1422.9,1170.1 
		-1422.9,1181.3 -1415.4,1181.3 -1415.4,1188.8 -1404.2,1188.8 -1396.8,1188.8 -1396.8,1181.3 -1389.3,1181.3 -1389.3,1170.1 
		-1389.3,1162.7 	"/>
	<line class="st23" x1="-1414.8" y1="1188.8" x2="-1414.8" y2="1198.7"/>
	<line class="st23" x1="-1397.4" y1="1188.8" x2="-1397.4" y2="1198.7"/>
	<polygon class="st24" points="-1398.3,1196.9 -1400.5,1196.9 -1413.9,1196.9 -1413.9,1199.1 -1416,1199.1 -1416,1214.6 
		-1413.9,1214.6 -1413.9,1216.8 -1400.5,1216.8 -1398.3,1216.8 -1398.3,1214.6 -1396.2,1214.6 -1396.2,1199.1 -1398.3,1199.1 	"/>
</g>
<polygon class="st25" points="-1329.7,1601.9 -1329.7,1594 -1337.6,1594 -1402.6,1594 -1471.4,1594 -1471.4,1601.9 -1479.3,1601.9 
	-1479.3,1647.5 -1471.4,1647.5 -1471.4,1655.4 -1402.6,1655.4 -1337.6,1655.4 -1329.7,1655.4 -1329.7,1647.5 -1321.8,1647.5 
	-1321.8,1601.9 "/>
<polygon class="st25" points="-1329.7,1602.1 -1329.7,1594.1 -1337.6,1594.1 -1402.6,1594.1 -1471.4,1594.1 -1471.4,1602.1 
	-1479.3,1602.1 -1479.3,1647.6 -1471.4,1647.6 -1471.4,1655.5 -1402.6,1655.5 -1337.6,1655.5 -1329.7,1655.5 -1329.7,1647.6 
	-1321.8,1647.6 -1321.8,1602.1 "/>
<g>
	<path class="st4" d="M-1433.2,1635.5h-5.4v-21.8h13.6v2.7h2.7v8.2h-2.7v2.7h-8.2V1635.5z M-1433.2,1621.9h5.4v-2.7h-5.4V1621.9z"/>
	<path class="st4" d="M-1416.9,1632.8h-2.7v-19h5.4v16.3h10.9v5.4h-13.6V1632.8z"/>
	<path class="st4" d="M-1395.1,1635.5h-5.4v-19h2.7v-2.7h10.9v2.7h2.7v19h-5.4v-8.2h-5.4V1635.5z M-1389.6,1621.9v-2.7h-5.4v2.7
		H-1389.6z"/>
	<path class="st4" d="M-1381.5,1613.7h5.4v8.2h5.4v-8.2h5.4v10.9h-2.7v2.7h-2.7v8.2h-5.4v-8.2h-2.7v-2.7h-2.7V1613.7z"/>
</g>
<polygon class="st25" points="-1159.7,1601.9 -1159.7,1594 -1167.6,1594 -1232.6,1594 -1301.4,1594 -1301.4,1601.9 -1309.3,1601.9 
	-1309.3,1647.5 -1301.4,1647.5 -1301.4,1655.4 -1232.6,1655.4 -1167.6,1655.4 -1159.7,1655.4 -1159.7,1647.5 -1151.8,1647.5 
	-1151.8,1601.9 "/>
<polygon class="st22" points="-1159.7,1594.1 -1159.7,1586.1 -1167.6,1586.1 -1232.6,1586.1 -1301.4,1586.1 -1301.4,1594.1 
	-1309.3,1594.1 -1309.3,1639.6 -1301.4,1639.6 -1301.4,1647.5 -1232.6,1647.5 -1167.6,1647.5 -1159.7,1647.5 -1159.7,1639.6 
	-1151.8,1639.6 -1151.8,1594.1 "/>
<g>
	<path class="st4" d="M-1263.2,1627.5h-5.4v-21.8h13.6v2.7h2.7v8.2h-2.7v2.7h-8.2V1627.5z M-1263.2,1613.9h5.4v-2.7h-5.4V1613.9z"/>
	<path class="st4" d="M-1246.9,1624.8h-2.7v-19h5.4v16.3h10.9v5.4h-13.6V1624.8z"/>
	<path class="st4" d="M-1225.1,1627.5h-5.4v-19h2.7v-2.7h10.9v2.7h2.7v19h-5.4v-8.2h-5.4V1627.5z M-1219.6,1613.9v-2.7h-5.4v2.7
		H-1219.6z"/>
	<path class="st4" d="M-1211.5,1605.7h5.4v8.2h5.4v-8.2h5.4v10.9h-2.7v2.7h-2.7v8.2h-5.4v-8.2h-2.7v-2.7h-2.7V1605.7z"/>
</g>
<g>
	<path class="st26" d="M-2153.3,1356.4h43.2v108h43.2v-108h43.2V1486h-21.6v21.6h-21.6v21.6h-43.2v-21.6h-21.6V1486h-21.6V1356.4z"
		/>
	<path class="st27" d="M-2002.1,1380h21.6v-21.6h108v43.2h-86.4v21.6h64.8v21.6h21.6v64.8h-21.6v21.6h-108V1488h86.4v-21.6h-64.8
		v-21.6h-21.6V1380z"/>
</g>
<g>
	<path class="st28" d="M-2153.3,1335.3h43.2v108h43.2v-108h43.2v129.6h-21.6v21.6h-21.6v21.6h-43.2v-21.6h-21.6v-21.6h-21.6V1335.3z
		"/>
	<path class="st29" d="M-2002.1,1356.9h21.6v-21.6h108v43.2h-86.4v21.6h64.8v21.6h21.6v64.8h-21.6v21.6h-108v-43.2h86.4v-21.6h-64.8
		v-21.6h-21.6V1356.9z"/>
</g>
<g>
	<g>
		<path class="st0" d="M-2103.9,1713.9h27.5v68.7h27.5v-68.7h27.5v82.4h-13.7v13.7h-13.7v13.7h-27.5V1810h-13.7v-13.7h-13.7V1713.9z
			"/>
		<path class="st0" d="M-2007.8,1728.9h13.7v-13.7h68.7v27.5h-54.9v13.7h41.2v13.7h13.7v41.2h-13.7v13.7h-68.7v-27.5h54.9v-13.7
			h-41.2v-13.7h-13.7V1728.9z"/>
	</g>
	<g>
		<path class="st7" d="M-2103.9,1699.4h27.5v68.7h27.5v-68.7h27.5v82.4h-13.7v13.7h-13.7v13.7h-27.5v-13.7h-13.7v-13.7h-13.7V1699.4
			z"/>
		<path class="st7" d="M-2007.8,1714.5h13.7v-13.7h68.7v27.5h-54.9v13.7h41.2v13.7h13.7v41.2h-13.7v13.7h-68.7v-27.5h54.9v-13.7
			h-41.2v-13.7h-13.7V1714.5z"/>
	</g>
	<g>
		<path class="st4" d="M-2103.9,1686h27.5v68.7h27.5V1686h27.5v82.4h-13.7v13.7h-13.7v13.7h-27.5v-13.7h-13.7v-13.7h-13.7V1686z"/>
		<path class="st4" d="M-2007.8,1699.7h13.7V1686h68.7v27.5h-54.9v13.7h41.2v13.7h13.7v41.2h-13.7v13.7h-68.7v-27.5h54.9v-13.7
			h-41.2v-13.7h-13.7V1699.7z"/>
	</g>
</g>
<g>
	<g>
		<path class="st0" d="M-1529.4,854.2h-21.6v-86.4h54v10.8h10.8V811h-10.8v10.8h-32.4V854.2z M-1529.4,800.2h21.6v-10.8h-21.6V800.2
			z"/>
		<path class="st0" d="M-1475.4,778.6h10.8v-10.8h43.2v10.8h10.8v64.8h-10.8v10.8h-43.2v-10.8h-10.8V778.6z M-1453.8,832.6h21.6
			v-43.2h-21.6V832.6z"/>
		<path class="st0" d="M-1389,843.4h-10.8v-75.6h21.6v64.8h43.2v21.6h-54V843.4z"/>
		<path class="st0" d="M-1345.8,767.8h21.6v32.4h21.6v-32.4h21.6V811h-10.8v10.8h-10.8v32.4h-21.6v-32.4h-10.8V811h-10.8V767.8z"/>
	</g>
	<g>
		<path class="st30" d="M-1529.4,845.8h-21.6v-86.4h54v10.8h10.8v32.4h-10.8v10.8h-32.4V845.8z M-1529.4,791.8h21.6V781h-21.6V791.8
			z"/>
		<path class="st30" d="M-1475.4,770.2h10.8v-10.8h43.2v10.8h10.8V835h-10.8v10.8h-43.2V835h-10.8V770.2z M-1453.8,824.2h21.6V781
			h-21.6V824.2z"/>
		<path class="st30" d="M-1389,835h-10.8v-75.6h21.6v64.8h43.2v21.6h-54V835z"/>
		<path class="st30" d="M-1345.8,759.4h21.6v32.4h21.6v-32.4h21.6v43.2h-10.8v10.8h-10.8v32.4h-21.6v-32.4h-10.8v-10.8h-10.8V759.4z
			"/>
	</g>
	<g>
		<path class="st4" d="M-1529.4,837.6h-21.6v-86.4h54V762h10.8v32.4h-10.8v10.8h-32.4V837.6z M-1529.4,783.6h21.6v-10.8h-21.6V783.6
			z"/>
		<path class="st4" d="M-1475.4,762h10.8v-10.8h43.2V762h10.8v64.8h-10.8v10.8h-43.2v-10.8h-10.8V762z M-1453.8,816h21.6v-43.2
			h-21.6V816z"/>
		<path class="st4" d="M-1389,826.8h-10.8v-75.6h21.6V816h43.2v21.6h-54V826.8z"/>
		<path class="st4" d="M-1345.8,751.2h21.6v32.4h21.6v-32.4h21.6v43.2h-10.8v10.8h-10.8v32.4h-21.6v-32.4h-10.8v-10.8h-10.8V751.2z"
			/>
	</g>
</g>
<image style="overflow:visible;" width="843" height="1118" xlink:href="F9973357CEB9A122.jpg"  transform="matrix(0.24 0 0 0.24 -1760.5702 901.3967)">
</image>
<g>
	<g class="st1">
		<g>
			<polygon class="st0" points="-1202.6,537.7 -1202.6,624.2 -1101.4,624.2 -1101.4,612.6 -1114.1,612.6 -1114.1,599.9 
				-1126.7,599.9 -1126.7,587.3 -1139.4,587.3 -1139.4,574.6 -1126.7,574.6 -1126.7,562 -1114.1,562 -1114.1,549.3 -1101.4,549.3 
				-1101.4,537.7 			"/>
		</g>
		<polygon class="st0" points="-1187.9,598.9 -1202.6,623.1 -1202.6,598.9 		"/>
	</g>
	<rect x="-1690.8" y="514.8" class="st0" width="510.3" height="86.5"/>
	<rect x="-1214.2" y="592.8" class="st0" width="112.8" height="31.6"/>
	<g class="st1">
		<g>
			<polygon class="st0" points="-1683,537.9 -1683,624.4 -1784.2,624.4 -1784.2,612.8 -1771.5,612.8 -1771.5,600.1 -1758.9,600.1 
				-1758.9,587.5 -1746.2,587.5 -1746.2,574.8 -1758.9,574.8 -1758.9,562.1 -1771.5,562.1 -1771.5,549.5 -1784.2,549.5 
				-1784.2,537.9 			"/>
		</g>
		<polygon class="st0" points="-1697.7,599 -1683,623.3 -1683,599 		"/>
	</g>
	<g>
		<g>
			<polygon class="st2" points="-1202.6,527.5 -1202.6,613.9 -1101.4,613.9 -1101.4,602.3 -1114.1,602.3 -1114.1,589.7 
				-1126.7,589.7 -1126.7,577 -1139.4,577 -1139.4,564.4 -1126.7,564.4 -1126.7,551.7 -1114.1,551.7 -1114.1,539.1 -1101.4,539.1 
				-1101.4,527.5 			"/>
			<polygon class="st3" points="-1202.6,515.9 -1202.6,602.3 -1101.4,602.3 -1101.4,590.7 -1114.1,590.7 -1114.1,578.1 
				-1126.7,578.1 -1126.7,565.4 -1139.4,565.4 -1139.4,552.8 -1126.7,552.8 -1126.7,540.1 -1114.1,540.1 -1114.1,527.5 
				-1101.4,527.5 -1101.4,515.9 			"/>
		</g>
		<polygon class="st2" points="-1187.9,588.6 -1202.6,612.9 -1202.6,588.6 		"/>
		<g>
			<g>
				<polygon class="st2" points="-1683.4,527.5 -1683.4,613.9 -1784.7,613.9 -1784.7,602.3 -1772,602.3 -1772,589.7 -1759.4,589.7 
					-1759.4,577 -1746.7,577 -1746.7,564.4 -1759.4,564.4 -1759.4,551.7 -1772,551.7 -1772,539.1 -1784.7,539.1 -1784.7,527.5 				
					"/>
				<polygon class="st3" points="-1683.4,515.9 -1683.4,602.3 -1784.7,602.3 -1784.7,590.7 -1772,590.7 -1772,578.1 -1759.4,578.1 
					-1759.4,565.4 -1746.7,565.4 -1746.7,552.8 -1759.4,552.8 -1759.4,540.1 -1772,540.1 -1772,527.5 -1784.7,527.5 -1784.7,515.9 
									"/>
			</g>
			<polygon class="st2" points="-1698.2,588.6 -1683.4,612.9 -1683.5,588.6 			"/>
		</g>
		<g>
			<rect x="-1698.2" y="502.2" class="st2" width="510.3" height="86.5"/>
			<rect x="-1698.2" y="489.5" class="st3" width="510.3" height="86.5"/>
		</g>
	</g>
</g>
<g>
	<g>
		<path class="st25" d="M-1584.1,564.5h-37.4v-59.9h37.4v7.5h7.5v15h-7.5v15h7.5v15h-7.5V564.5z M-1606.5,527h15v-7.5h-15V527z
			 M-1606.5,549.5h15V542h-15V549.5z"/>
		<path class="st25" d="M-1554.1,564.5h-15V512h7.5v-7.5h30v7.5h7.5v52.4h-15V542h-15V564.5z M-1539.1,527v-7.5h-15v7.5H-1539.1z"/>
		<path class="st25" d="M-1509.2,557h-7.5v-52.4h15v44.9h30v15h-37.4V557z"/>
		<path class="st25" d="M-1456.8,557h-7.5v-52.4h15v44.9h30v15h-37.4V557z"/>
		<path class="st25" d="M-1411.8,512h7.5v-7.5h30v7.5h7.5V557h-7.5v7.5h-30V557h-7.5V512z M-1396.8,549.5h15v-30h-15V549.5z"/>
		<path class="st25" d="M-1359.4,512h7.5v-7.5h30v7.5h7.5V557h-7.5v7.5h-30V557h-7.5V512z M-1344.4,549.5h15v-30h-15V549.5z"/>
		<path class="st25" d="M-1284.5,534.5h-7.5v30h-15v-59.9h15v7.5h7.5v7.5h7.5v-15h15v59.9h-15V542h-7.5V534.5z"/>
	</g>
	<g>
		<path class="st22" d="M-1584.1,558.6h-37.4v-59.9h37.4v7.5h7.5v15h-7.5v15h7.5v15h-7.5V558.6z M-1606.5,521.2h15v-7.5h-15V521.2z
			 M-1606.5,543.7h15v-7.5h-15V543.7z"/>
		<path class="st22" d="M-1554.1,558.6h-15v-52.4h7.5v-7.5h30v7.5h7.5v52.4h-15v-22.5h-15V558.6z M-1539.1,521.2v-7.5h-15v7.5
			H-1539.1z"/>
		<path class="st22" d="M-1509.2,551.1h-7.5v-52.4h15v44.9h30v15h-37.4V551.1z"/>
		<path class="st22" d="M-1456.8,551.1h-7.5v-52.4h15v44.9h30v15h-37.4V551.1z"/>
		<path class="st22" d="M-1411.8,506.2h7.5v-7.5h30v7.5h7.5v44.9h-7.5v7.5h-30v-7.5h-7.5V506.2z M-1396.8,543.7h15v-30h-15V543.7z"
			/>
		<path class="st22" d="M-1359.4,506.2h7.5v-7.5h30v7.5h7.5v44.9h-7.5v7.5h-30v-7.5h-7.5V506.2z M-1344.4,543.7h15v-30h-15V543.7z"
			/>
		<path class="st22" d="M-1284.5,528.7h-7.5v30h-15v-59.9h15v7.5h7.5v7.5h7.5v-15h15v59.9h-15v-22.5h-7.5V528.7z"/>
	</g>
</g>
<g>
	<path class="st0" d="M-1092.4,711.2h20.7v6.9h-20.7V711.2z"/>
	<path class="st0" d="M-1037.1,728.5h-6.9v-27.6h17.3v3.5h3.5v10.4h-3.5v3.5h-10.4V728.5z M-1037.1,711.2h6.9v-3.5h-6.9V711.2z"/>
	<path class="st0" d="M-1009.5,718.1h-3.5v10.4h-6.9v-27.6h17.3v3.5h3.5v10.4h-3.5v3.5h3.5v10.4h-6.9v-6.9h-3.5V718.1z M-1013,711.2
		h6.9v-3.5h-6.9V711.2z"/>
	<path class="st0" d="M-992.2,725h-3.5v-20.7h3.5v-3.5h17.3v6.9h-13.8v3.5h6.9v6.9h-6.9v3.5h13.8v6.9h-17.3V725z"/>
	<path class="st0" d="M-971.5,704.3h3.5v-3.5h17.3v6.9h-13.8v3.5h10.4v3.5h3.5V725h-3.5v3.5h-17.3v-6.9h13.8v-3.5H-968v-3.5h-3.5
		V704.3z"/>
	<path class="st0" d="M-947.3,704.3h3.5v-3.5h17.3v6.9h-13.8v3.5h10.4v3.5h3.5V725h-3.5v3.5h-17.3v-6.9h13.8v-3.5h-10.4v-3.5h-3.5
		V704.3z"/>
	<path class="st0" d="M-892,728.5h-6.9v-24.2h3.5v-3.5h13.8v3.5h3.5v24.2h-6.9v-10.4h-6.9V728.5z M-885.1,711.2v-3.5h-6.9v3.5
		H-885.1z"/>
	<path class="st0" d="M-864.3,714.6h-3.5v13.8h-6.9v-27.6h6.9v3.5h3.5v3.5h3.5v-6.9h6.9v27.6h-6.9v-10.4h-3.5V714.6z"/>
	<path class="st0" d="M-850.5,700.8h6.9v10.4h6.9v-10.4h6.9v13.8h-3.5v3.5h-3.5v10.4h-6.9v-10.4h-3.5v-3.5h-3.5V700.8z"/>
	<path class="st0" d="M-795.2,728.5h-6.9v-27.6h6.9v6.9h3.5v-3.5h3.5v-3.5h6.9v6.9h-3.5v3.5h-3.5v6.9h3.5v3.5h3.5v6.9h-6.9V725h-3.5
		v-3.5h-3.5V728.5z"/>
	<path class="st0" d="M-774.5,725h-3.5v-20.7h3.5v-3.5h17.3v6.9H-771v3.5h6.9v6.9h-6.9v3.5h13.8v6.9h-17.3V725z"/>
	<path class="st0" d="M-753.8,700.8h6.9v10.4h6.9v-10.4h6.9v13.8h-3.5v3.5h-3.5v10.4h-6.9v-10.4h-3.5v-3.5h-3.5V700.8z"/>
	<path class="st0" d="M-705.4,700.8h20.7v6.9h-6.9v20.7h-6.9v-20.7h-6.9V700.8z"/>
	<path class="st0" d="M-681.2,704.3h3.5v-3.5h13.8v3.5h3.5V725h-3.5v3.5h-13.8V725h-3.5V704.3z M-674.3,721.6h6.9v-13.8h-6.9V721.6z
		"/>
	<path class="st0" d="M-625.9,728.5h-6.9v-27.6h17.3v3.5h3.5v10.4h-3.5v3.5h-10.4V728.5z M-625.9,711.2h6.9v-3.5h-6.9V711.2z"/>
	<path class="st0" d="M-605.2,725h-3.5v-24.2h6.9v20.7h13.8v6.9h-17.3V725z"/>
	<path class="st0" d="M-577.5,728.5h-6.9v-24.2h3.5v-3.5h13.8v3.5h3.5v24.2h-6.9v-10.4h-6.9V728.5z M-570.6,711.2v-3.5h-6.9v3.5
		H-570.6z"/>
	<path class="st0" d="M-560.2,700.8h6.9v10.4h6.9v-10.4h6.9v13.8h-3.5v3.5h-3.5v10.4h-6.9v-10.4h-3.5v-3.5h-3.5V700.8z"/>
	<path class="st0" d="M-511.8,711.2h20.7v6.9h-20.7V711.2z"/>
</g>
<g>
	<path class="st30" d="M-1093.3,705.3h20.7v6.9h-20.7V705.3z"/>
	<path class="st30" d="M-1038,722.6h-6.9v-27.6h17.3v3.5h3.5v10.4h-3.5v3.5h-10.4V722.6z M-1038,705.3h6.9v-3.5h-6.9V705.3z"/>
	<path class="st30" d="M-1010.4,712.2h-3.5v10.4h-6.9v-27.6h17.3v3.5h3.5v10.4h-3.5v3.5h3.5v10.4h-6.9v-6.9h-3.5V712.2z
		 M-1013.8,705.3h6.9v-3.5h-6.9V705.3z"/>
	<path class="st30" d="M-993.1,719.1h-3.5v-20.7h3.5v-3.5h17.3v6.9h-13.8v3.5h6.9v6.9h-6.9v3.5h13.8v6.9h-17.3V719.1z"/>
	<path class="st30" d="M-972.3,698.4h3.5v-3.5h17.3v6.9h-13.8v3.5h10.4v3.5h3.5v10.4h-3.5v3.5h-17.3v-6.9h13.8v-3.5h-10.4v-3.5h-3.5
		V698.4z"/>
	<path class="st30" d="M-948.2,698.4h3.5v-3.5h17.3v6.9h-13.8v3.5h10.4v3.5h3.5v10.4h-3.5v3.5h-17.3v-6.9h13.8v-3.5h-10.4v-3.5h-3.5
		V698.4z"/>
	<path class="st30" d="M-892.9,722.6h-6.9v-24.2h3.5v-3.5h13.8v3.5h3.5v24.2h-6.9v-10.4h-6.9V722.6z M-885.9,705.3v-3.5h-6.9v3.5
		H-885.9z"/>
	<path class="st30" d="M-865.2,708.7h-3.5v13.8h-6.9v-27.6h6.9v3.5h3.5v3.5h3.5v-6.9h6.9v27.6h-6.9v-10.4h-3.5V708.7z"/>
	<path class="st30" d="M-851.4,694.9h6.9v10.4h6.9v-10.4h6.9v13.8h-3.5v3.5h-3.5v10.4h-6.9v-10.4h-3.5v-3.5h-3.5V694.9z"/>
	<path class="st30" d="M-796.1,722.6h-6.9v-27.6h6.9v6.9h3.5v-3.5h3.5v-3.5h6.9v6.9h-3.5v3.5h-3.5v6.9h3.5v3.5h3.5v6.9h-6.9v-3.5
		h-3.5v-3.5h-3.5V722.6z"/>
	<path class="st30" d="M-775.4,719.1h-3.5v-20.7h3.5v-3.5h17.3v6.9h-13.8v3.5h6.9v6.9h-6.9v3.5h13.8v6.9h-17.3V719.1z"/>
	<path class="st30" d="M-754.6,694.9h6.9v10.4h6.9v-10.4h6.9v13.8h-3.5v3.5h-3.5v10.4h-6.9v-10.4h-3.5v-3.5h-3.5V694.9z"/>
	<path class="st30" d="M-706.2,694.9h20.7v6.9h-6.9v20.7h-6.9v-20.7h-6.9V694.9z"/>
	<path class="st30" d="M-682.1,698.4h3.5v-3.5h13.8v3.5h3.5v20.7h-3.5v3.5h-13.8v-3.5h-3.5V698.4z M-675.1,715.7h6.9v-13.8h-6.9
		V715.7z"/>
	<path class="st30" d="M-626.8,722.6h-6.9v-27.6h17.3v3.5h3.5v10.4h-3.5v3.5h-10.4V722.6z M-626.8,705.3h6.9v-3.5h-6.9V705.3z"/>
	<path class="st30" d="M-606,719.1h-3.5v-24.2h6.9v20.7h13.8v6.9H-606V719.1z"/>
	<path class="st30" d="M-578.4,722.6h-6.9v-24.2h3.5v-3.5h13.8v3.5h3.5v24.2h-6.9v-10.4h-6.9V722.6z M-571.5,705.3v-3.5h-6.9v3.5
		H-571.5z"/>
	<path class="st30" d="M-561.1,694.9h6.9v10.4h6.9v-10.4h6.9v13.8h-3.5v3.5h-3.5v10.4h-6.9v-10.4h-3.5v-3.5h-3.5V694.9z"/>
	<path class="st30" d="M-512.7,705.3h20.7v6.9h-20.7V705.3z"/>
</g>
<g>
	<path class="st4" d="M-1093.3,700.9h20.7v6.9h-20.7V700.9z"/>
	<path class="st4" d="M-1038,718.2h-6.9v-27.6h17.3v3.5h3.5v10.4h-3.5v3.5h-10.4V718.2z M-1038,700.9h6.9v-3.5h-6.9V700.9z"/>
	<path class="st4" d="M-1010.4,707.8h-3.5v10.4h-6.9v-27.6h17.3v3.5h3.5v10.4h-3.5v3.5h3.5v10.4h-6.9v-6.9h-3.5V707.8z
		 M-1013.8,700.9h6.9v-3.5h-6.9V700.9z"/>
	<path class="st4" d="M-993.1,714.7h-3.5V694h3.5v-3.5h17.3v6.9h-13.8v3.5h6.9v6.9h-6.9v3.5h13.8v6.9h-17.3V714.7z"/>
	<path class="st4" d="M-972.3,694h3.5v-3.5h17.3v6.9h-13.8v3.5h10.4v3.5h3.5v10.4h-3.5v3.5h-17.3v-6.9h13.8v-3.5h-10.4v-3.5h-3.5
		V694z"/>
	<path class="st4" d="M-948.2,694h3.5v-3.5h17.3v6.9h-13.8v3.5h10.4v3.5h3.5v10.4h-3.5v3.5h-17.3v-6.9h13.8v-3.5h-10.4v-3.5h-3.5
		V694z"/>
	<path class="st4" d="M-892.9,718.2h-6.9V694h3.5v-3.5h13.8v3.5h3.5v24.2h-6.9v-10.4h-6.9V718.2z M-885.9,700.9v-3.5h-6.9v3.5
		H-885.9z"/>
	<path class="st4" d="M-865.2,704.3h-3.5v13.8h-6.9v-27.6h6.9v3.5h3.5v3.5h3.5v-6.9h6.9v27.6h-6.9v-10.4h-3.5V704.3z"/>
	<path class="st4" d="M-851.4,690.5h6.9v10.4h6.9v-10.4h6.9v13.8h-3.5v3.5h-3.5v10.4h-6.9v-10.4h-3.5v-3.5h-3.5V690.5z"/>
	<path class="st4" d="M-796.1,718.2h-6.9v-27.6h6.9v6.9h3.5V694h3.5v-3.5h6.9v6.9h-3.5v3.5h-3.5v6.9h3.5v3.5h3.5v6.9h-6.9v-3.5h-3.5
		v-3.5h-3.5V718.2z"/>
	<path class="st4" d="M-775.4,714.7h-3.5V694h3.5v-3.5h17.3v6.9h-13.8v3.5h6.9v6.9h-6.9v3.5h13.8v6.9h-17.3V714.7z"/>
	<path class="st4" d="M-754.6,690.5h6.9v10.4h6.9v-10.4h6.9v13.8h-3.5v3.5h-3.5v10.4h-6.9v-10.4h-3.5v-3.5h-3.5V690.5z"/>
	<path class="st4" d="M-706.2,690.5h20.7v6.9h-6.9v20.7h-6.9v-20.7h-6.9V690.5z"/>
	<path class="st4" d="M-682.1,694h3.5v-3.5h13.8v3.5h3.5v20.7h-3.5v3.5h-13.8v-3.5h-3.5V694z M-675.1,711.2h6.9v-13.8h-6.9V711.2z"
		/>
	<path class="st4" d="M-626.8,718.2h-6.9v-27.6h17.3v3.5h3.5v10.4h-3.5v3.5h-10.4V718.2z M-626.8,700.9h6.9v-3.5h-6.9V700.9z"/>
	<path class="st4" d="M-606,714.7h-3.5v-24.2h6.9v20.7h13.8v6.9H-606V714.7z"/>
	<path class="st4" d="M-578.4,718.2h-6.9V694h3.5v-3.5h13.8v3.5h3.5v24.2h-6.9v-10.4h-6.9V718.2z M-571.5,700.9v-3.5h-6.9v3.5
		H-571.5z"/>
	<path class="st4" d="M-561.1,690.5h6.9v10.4h6.9v-10.4h6.9v13.8h-3.5v3.5h-3.5v10.4h-6.9v-10.4h-3.5v-3.5h-3.5V690.5z"/>
	<path class="st4" d="M-512.7,700.9h20.7v6.9h-20.7V700.9z"/>
</g>
<path class="st31" d="M1657.5-10h-2.2h-10.8h-38.7H1593H66.4H53.5H14.8H1.9H-11v22.6v840.8v11.3v33.9v11.3v11.3h25.8H1593h12.9h38.7
	h10.8h2.2h12.9V-10H1657.5z M1603.9,896.6H51.5H38.6v-11.3H25.7V874H12.8v-11.3V44.5V33.2h12.9V21.9h12.9V10.6h12.9h1552.4h12.9
	v11.3h12.9v11.3h12.9v11.3v818.2V874h-12.9v11.3h-12.9v11.3H1603.9z"/>
<path class="st32" d="M1668.5-1.2h-2.2h-10.8h-38.7H1604H77.4H64.5H25.8H12.9H0v22.6v840.8v11.3v33.9v11.3v11.3h25.8H1604h12.9h38.7
	h10.8h2.2h12.9V-1.2H1668.5z M1655.6,55.3v818.2v11.3h-12.9V896h-12.9v11.3h-12.9H64.5H51.6V896H38.7v-11.3H25.8v-11.3V55.3V44h12.9
	V32.7h12.9V21.4h12.9h204.3h135.5h1212.7h12.9v11.3h12.9V44h12.9V55.3z"/>
</svg>
