<?xml version="1.0" encoding="utf-8"?>
<!-- Generator: Adobe Illustrator 22.0.1, SVG Export Plug-In . SVG Version: 6.00 Build 0)  -->
<svg version="1.1" id="Layer_1" xmlns="http://www.w3.org/2000/svg" xmlns:xlink="http://www.w3.org/1999/xlink" x="0px" y="0px"
	 width="778.1px" height="509.6px" viewBox="0 0 778.1 509.6" style="enable-background:new 0 0 778.1 509.6;" xml:space="preserve"
	>
<style type="text/css">
	.st0{fill:#5895B7;}
	.st1{opacity:0.8;}
	.st2{fill:#C17620;}
	.st3{fill:#F4C24A;}
	.st4{fill:#FFFFFF;}
	.st5{fill:#2A6FBA;}
	.st6{fill:#4ABAEF;}
	.st7{fill:#95C9C8;}
	.st8{fill:#DDEFEE;}
	.st9{fill:#1B8E6F;}
	.st10{fill:#3CEA8A;}
	.st11{opacity:0.4;fill:#666666;}
	.st12{fill:#33BC6E;}
	.st13{fill:none;}
	.st14{fill:#7149A4;}
	.st15{fill:#BD86E0;}
	.st16{opacity:0.4;fill:#666666;stroke:#666666;stroke-width:4;stroke-linejoin:bevel;stroke-miterlimit:10;}
	.st17{fill:#F2F2F2;}
	.st18{fill:#E6E6E6;}
	.st19{fill:none;stroke:#000000;stroke-width:4;stroke-linejoin:bevel;stroke-miterlimit:10;}
	.st20{fill:#C6E0DE;}
	.st21{fill:#A7C6C3;}
	.st22{fill:#EE3D53;}
	.st23{fill:none;stroke:#000000;stroke-width:2;stroke-miterlimit:10;}
	.st24{fill:#A17559;}
	.st25{fill:#910E46;}
	.st26{fill:#238D6F;}
	.st27{fill:#704CA2;}
	.st28{fill:#47E88D;}
	.st29{fill:#BC88DE;}
	.st30{fill:#CCCCCC;}
	.st31{fill:#5B2616;}
	.st32{opacity:0.38;fill:#2D3D3E;}
	.st33{opacity:0.38;}
	.st34{fill:#2D3D3E;}
	.st35{fill:#3F180F;}
	.st36{fill:#1A1A1A;}
	.st37{fill:#38140C;}
</style>
<g>
	<rect x="-3173.5" y="1789.7" class="st0" width="484" height="82"/>
	<rect x="-2721.5" y="1863.7" class="st0" width="107" height="30"/>
	<g class="st1">
		<g>
			<polygon class="st0" points="-3157.5,1809.7 -3157.5,1891.7 -3253.5,1891.7 -3253.5,1880.7 -3241.5,1880.7 -3241.5,1868.7 
				-3229.5,1868.7 -3229.5,1856.7 -3217.5,1856.7 -3217.5,1844.7 -3229.5,1844.7 -3229.5,1832.7 -3241.5,1832.7 -3241.5,1820.7 
				-3253.5,1820.7 -3253.5,1809.7 			"/>
		</g>
		<polygon class="st0" points="-3171.5,1867.7 -3157.5,1890.7 -3157.5,1867.7 		"/>
	</g>
	<g>
		<g>
			<polygon class="st2" points="-2710.5,1801.7 -2710.5,1883.7 -2614.5,1883.7 -2614.5,1872.7 -2626.5,1872.7 -2626.5,1860.7 
				-2638.5,1860.7 -2638.5,1848.7 -2650.5,1848.7 -2650.5,1836.7 -2638.5,1836.7 -2638.5,1824.7 -2626.5,1824.7 -2626.5,1812.7 
				-2614.5,1812.7 -2614.5,1801.7 			"/>
			<polygon class="st3" points="-2710.5,1790.7 -2710.5,1872.7 -2614.5,1872.7 -2614.5,1861.7 -2626.5,1861.7 -2626.5,1849.7 
				-2638.5,1849.7 -2638.5,1837.7 -2650.5,1837.7 -2650.5,1825.7 -2638.5,1825.7 -2638.5,1813.7 -2626.5,1813.7 -2626.5,1801.7 
				-2614.5,1801.7 -2614.5,1790.7 			"/>
		</g>
		<polygon class="st2" points="-2696.5,1859.7 -2710.5,1882.7 -2710.4,1859.7 		"/>
		<g>
			<g>
				<polygon class="st2" points="-3166.5,1801.7 -3166.5,1883.7 -3262.5,1883.7 -3262.5,1872.7 -3250.5,1872.7 -3250.5,1860.7 
					-3238.5,1860.7 -3238.5,1848.7 -3226.5,1848.7 -3226.5,1836.7 -3238.5,1836.7 -3238.5,1824.7 -3250.5,1824.7 -3250.5,1812.7 
					-3262.5,1812.7 -3262.5,1801.7 				"/>
				<polygon class="st3" points="-3166.5,1790.7 -3166.5,1872.7 -3262.5,1872.7 -3262.5,1861.7 -3250.5,1861.7 -3250.5,1849.7 
					-3238.5,1849.7 -3238.5,1837.7 -3226.5,1837.7 -3226.5,1825.7 -3238.5,1825.7 -3238.5,1813.7 -3250.5,1813.7 -3250.5,1801.7 
					-3262.5,1801.7 -3262.5,1790.7 				"/>
			</g>
			<polygon class="st2" points="-3180.5,1859.7 -3166.5,1882.7 -3166.5,1859.7 			"/>
		</g>
		<g>
			<rect x="-3180.5" y="1777.7" class="st2" width="484" height="82"/>
			<rect x="-3180.5" y="1765.7" class="st3" width="484" height="82"/>
		</g>
	</g>
	<g>
		<path class="st4" d="M-3109.9,1825.4h-8.6v-34.6h8.6v13h8.6v-13h8.6v34.6h-8.6v-13h-8.6V1825.4z"/>
		<path class="st4" d="M-3088.3,1795.2h4.3v-4.3h17.3v4.3h4.3v25.9h-4.3v4.3h-17.3v-4.3h-4.3V1795.2z M-3079.6,1816.8h8.6v-17.3
			h-8.6V1816.8z"/>
		<path class="st4" d="M-3049.4,1825.4h-8.6v-34.6h8.6v17.3h4.3v-4.3h4.3v4.3h4.3v-17.3h8.6v34.6h-8.6v-4.3h-4.3v-4.3h-4.3v4.3h-4.3
			V1825.4z"/>
		<path class="st4" d="M-2993.2,1790.9h25.9v8.6h-8.6v25.9h-8.6v-25.9h-8.6V1790.9z"/>
		<path class="st4" d="M-2963,1795.2h4.3v-4.3h17.3v4.3h4.3v25.9h-4.3v4.3h-17.3v-4.3h-4.3V1795.2z M-2954.4,1816.8h8.6v-17.3h-8.6
			V1816.8z"/>
		<path class="st4" d="M-2893.9,1825.4h-8.6v-34.6h21.6v4.3h4.3v13h-4.3v4.3h-13V1825.4z M-2893.9,1803.8h8.6v-4.3h-8.6V1803.8z"/>
		<path class="st4" d="M-2867.9,1821.1h-4.3v-30.2h8.6v25.9h17.3v8.6h-21.6V1821.1z"/>
		<path class="st4" d="M-2833.4,1825.4h-8.6v-30.2h4.3v-4.3h17.3v4.3h4.3v30.2h-8.6v-13h-8.6V1825.4z M-2824.7,1803.8v-4.3h-8.6v4.3
			H-2824.7z"/>
		<path class="st4" d="M-2811.8,1790.9h8.6v13h8.6v-13h8.6v17.3h-4.3v4.3h-4.3v13h-8.6v-13h-4.3v-4.3h-4.3V1790.9z"/>
	</g>
</g>
<polygon class="st5" points="-3004.5,2058.7 -3016.5,2058.7 -3089.5,2058.7 -3089.5,2070.7 -3101.5,2070.7 -3101.5,2155.7 
	-3089.5,2155.7 -3089.5,2167.7 -3016.5,2167.7 -3004.5,2167.7 -3004.5,2155.7 -2992.5,2155.7 -2992.5,2070.7 -3004.5,2070.7 "/>
<polygon class="st5" points="-3004.5,2058.7 -3016.5,2058.7 -3089.5,2058.7 -3089.5,2070.7 -3101.5,2070.7 -3101.5,2155.7 
	-3089.5,2155.7 -3089.5,2167.7 -3016.5,2167.7 -3004.5,2167.7 -3004.5,2155.7 -2992.5,2155.7 -2992.5,2070.7 -3004.5,2070.7 "/>
<g>
	<path class="st4" d="M-3064.9,2092.9h28.4v5.7h5.7v17.1h-5.7v5.7h-17.1v-11.4h11.4v-5.7h-22.8V2092.9z M-3053.5,2127h11.4v11.4
		h-11.4V2127z"/>
</g>
<polygon class="st5" points="-2853.5,2058.7 -2865.5,2058.7 -2938.5,2058.7 -2938.5,2070.7 -2950.5,2070.7 -2950.5,2155.7 
	-2938.5,2155.7 -2938.5,2167.7 -2865.5,2167.7 -2853.5,2167.7 -2853.5,2155.7 -2841.5,2155.7 -2841.5,2070.7 -2853.5,2070.7 "/>
<polygon class="st6" points="-2853.5,2048.7 -2865.5,2048.7 -2938.5,2048.7 -2938.5,2060.7 -2950.5,2060.7 -2950.5,2145.7 
	-2938.5,2145.7 -2938.5,2157.7 -2865.5,2157.7 -2853.5,2157.7 -2853.5,2145.7 -2841.5,2145.7 -2841.5,2060.7 -2853.5,2060.7 "/>
<g>
	<path class="st4" d="M-2913.9,2082.9h28.4v5.7h5.7v17.1h-5.7v5.7h-17.1v-11.4h11.4v-5.7h-22.8V2082.9z M-2902.5,2117h11.4v11.4
		h-11.4V2117z"/>
</g>
<g>
	<polygon class="st0" points="-1818.5,1903.2 -1830.1,1903.2 -1830.1,1891.5 -1841.6,1891.5 -1841.6,1878.7 -2340.3,1878.7 
		-2340.3,1891.5 -2351.9,1891.5 -2351.9,1903.2 -2363.5,1903.2 -2363.5,2587.9 -2351.9,2587.9 -2351.9,2599.6 -2340.3,2599.6 
		-2340.3,2612.4 -1841.6,2612.4 -1841.6,2599.6 -1830.1,2599.6 -1830.1,2587.9 -1818.5,2587.9 	"/>
	<polygon class="st7" points="-1818.5,1891.2 -1830.1,1891.2 -1830.1,1879.5 -1841.6,1879.5 -1841.6,1866.7 -2340.3,1866.7 
		-2340.3,1879.5 -2351.9,1879.5 -2351.9,1891.2 -2363.5,1891.2 -2363.5,2575.9 -2351.9,2575.9 -2351.9,2587.5 -2340.3,2587.5 
		-2340.3,2600.3 -1841.6,2600.3 -1841.6,2587.5 -1830.1,2587.5 -1830.1,2575.9 -1818.5,2575.9 	"/>
	<polygon class="st8" points="-1818.5,1879.1 -1830.1,1879.1 -1830.1,1867.5 -1841.6,1867.5 -1841.6,1854.7 -2340.3,1854.7 
		-2340.3,1867.5 -2351.9,1867.5 -2351.9,1879.1 -2363.5,1879.1 -2363.5,2563.9 -2351.9,2563.9 -2351.9,2575.5 -2340.3,2575.5 
		-2340.3,2588.3 -1841.6,2588.3 -1841.6,2575.5 -1830.1,2575.5 -1830.1,2563.9 -1818.5,2563.9 	"/>
</g>
<g>
	<polygon class="st0" points="-3304.5,-89.4 -3308.5,-89.4 -3308.5,-93.5 -3312.6,-93.5 -3312.6,-98 -3488.8,-98 -3488.8,-93.5 
		-3492.9,-93.5 -3492.9,-89.4 -3497,-89.4 -3497,152.6 -3492.9,152.6 -3492.9,156.7 -3488.8,156.7 -3488.8,161.2 -3312.6,161.2 
		-3312.6,156.7 -3308.5,156.7 -3308.5,152.6 -3304.5,152.6 	"/>
	<polygon class="st7" points="-3304.5,-93.6 -3308.5,-93.6 -3308.5,-97.7 -3312.6,-97.7 -3312.6,-102.3 -3488.8,-102.3 
		-3488.8,-97.7 -3492.9,-97.7 -3492.9,-93.6 -3497,-93.6 -3497,148.3 -3492.9,148.3 -3492.9,152.4 -3488.8,152.4 -3488.8,157 
		-3312.6,157 -3312.6,152.4 -3308.5,152.4 -3308.5,148.3 -3304.5,148.3 	"/>
	<polygon class="st8" points="-3304.5,-97.9 -3308.5,-97.9 -3308.5,-102 -3312.6,-102 -3312.6,-106.5 -3488.8,-106.5 -3488.8,-102 
		-3492.9,-102 -3492.9,-97.9 -3497,-97.9 -3497,144.1 -3492.9,144.1 -3492.9,148.2 -3488.8,148.2 -3488.8,152.7 -3312.6,152.7 
		-3312.6,148.2 -3308.5,148.2 -3308.5,144.1 -3304.5,144.1 	"/>
</g>
<g>
	<polygon class="st9" points="-2867.5,1538.7 -2877.5,1538.7 -3252.4,1538.7 -3252.4,1548.8 -3262.5,1548.8 -3262.5,1606.6 
		-3252.4,1606.6 -3252.4,1616.7 -2877.5,1616.7 -2867.5,1616.7 -2867.5,1606.6 -2857.4,1606.6 -2857.4,1548.8 -2867.5,1548.8 	"/>
	<polygon class="st10" points="-2867.5,1528.7 -2877.5,1528.7 -3252.4,1528.7 -3252.4,1538.8 -3262.5,1538.8 -3262.5,1596.6 
		-3252.4,1596.6 -3252.4,1606.7 -2877.5,1606.7 -2867.5,1606.7 -2867.5,1596.6 -2857.4,1596.6 -2857.4,1538.8 -2867.5,1538.8 	"/>
	<g>
		<path class="st4" d="M-3142.4,1579.6h-6.9v-27.6h17.3v3.5h3.5v10.4h-3.5v3.5h-10.4V1579.6z M-3142.4,1562.3h6.9v-3.5h-6.9V1562.3z
			"/>
		<path class="st4" d="M-3121.7,1576.1h-3.5v-24.2h6.9v20.7h13.8v6.9h-17.3V1576.1z"/>
		<path class="st4" d="M-3094,1579.6h-6.9v-24.2h3.5v-3.5h13.8v3.5h3.5v24.2h-6.9v-10.4h-6.9V1579.6z M-3087.1,1562.3v-3.5h-6.9v3.5
			H-3087.1z"/>
		<path class="st4" d="M-3076.8,1551.9h6.9v10.4h6.9v-10.4h6.9v13.8h-3.5v3.5h-3.5v10.4h-6.9v-10.4h-3.5v-3.5h-3.5V1551.9z"/>
		<path class="st4" d="M-3049.1,1576.1h-3.5v-20.7h3.5v-3.5h17.3v6.9h-13.8v3.5h6.9v6.9h-6.9v3.5h13.8v6.9h-17.3V1576.1z"/>
		<path class="st4" d="M-3018,1569.2h-3.5v10.4h-6.9v-27.6h17.3v3.5h3.5v10.4h-3.5v3.5h3.5v10.4h-6.9v-6.9h-3.5V1569.2z
			 M-3021.5,1562.3h6.9v-3.5h-6.9V1562.3z"/>
		<path class="st4" d="M-2980,1551.9h6.9v27.6h-6.9V1551.9z"/>
	</g>
</g>
<g>
	<polygon class="st11" points="-3228.3,1418.1 -3230.3,1412.3 -3234.3,1400.3 -3252.1,1406.3 -3250.2,1412.1 -3255.9,1414 
		-3251.9,1426.1 -3246.1,1424.1 -3244.1,1429.9 -3232.1,1425.8 -3234.1,1420 	"/>
	<polygon class="st11" points="-3189.5,1406 -3191.5,1400.3 -3195.5,1388.2 -3213.3,1394.3 -3211.4,1400 -3217.1,1402 -3213.1,1414 
		-3207.3,1412.1 -3205.3,1417.8 -3193.3,1413.8 -3195.3,1408 	"/>
	<rect x="-3249.1" y="1359.1" transform="matrix(0.9472 -0.3207 0.3207 0.9472 -613.5311 -968.1057)" width="7.1" height="38.6"/>
	<polygon points="-3229.9,1413.3 -3231.9,1407.5 -3236,1395.5 -3253.7,1401.5 -3251.8,1407.3 -3257.6,1409.2 -3253.5,1421.3 
		-3247.7,1419.3 -3245.8,1425.1 -3233.8,1421 -3235.7,1415.2 	"/>
	<rect x="-3210.6" y="1346" transform="matrix(0.9472 -0.3207 0.3207 0.9472 -607.321 -956.456)" width="7.1" height="38.6"/>
	<polygon points="-3191.5,1400.3 -3193.4,1394.5 -3197.5,1382.5 -3215.3,1388.5 -3213.3,1394.3 -3219.1,1396.2 -3215,1408.2 
		-3209.3,1406.3 -3207.3,1412.1 -3195.3,1408 -3197.2,1402.2 	"/>
	<rect x="-3259.1" y="1336.8" transform="matrix(0.9472 -0.3207 0.3207 0.9472 -602.4169 -966.5502)" width="47.7" height="17.3"/>
</g>
<g>
	<polygon class="st11" points="-3162.1,1451.7 -3161.2,1447.5 -3159.3,1438.9 -3172.1,1436.1 -3173,1440.2 -3177.1,1439.3 
		-3179,1447.9 -3174.9,1448.9 -3175.8,1453 -3167.2,1454.9 -3166.2,1450.8 	"/>
	<polygon class="st11" points="-3134.6,1458.4 -3133.7,1454.3 -3131.8,1445.7 -3144.6,1442.8 -3145.5,1447 -3149.6,1446.1 
		-3151.5,1454.7 -3147.4,1455.6 -3148.3,1459.8 -3139.6,1461.7 -3138.7,1457.5 	"/>
	<rect x="-3160.5" y="1408.3" transform="matrix(0.9766 0.2149 -0.2149 0.9766 231.7409 711.8416)" width="5" height="26.9"/>
	<polygon points="-3161.3,1448.2 -3160.4,1444.1 -3158.5,1435.4 -3171.3,1432.6 -3172.2,1436.8 -3176.4,1435.8 -3178.3,1444.5 
		-3174.1,1445.4 -3175,1449.5 -3166.4,1451.5 -3165.5,1447.3 	"/>
	<rect x="-3132.9" y="1414.4" transform="matrix(0.9766 0.2149 -0.2149 0.9766 233.695 706.0397)" width="5" height="26.9"/>
	<polygon points="-3133.7,1454.3 -3132.8,1450.2 -3130.9,1441.5 -3143.7,1438.7 -3144.6,1442.8 -3148.7,1441.9 -3150.6,1450.6 
		-3146.5,1451.5 -3147.4,1455.6 -3138.7,1457.5 -3137.8,1453.4 	"/>
	<rect x="-3156.7" y="1399.8" transform="matrix(0.9766 0.2149 -0.2149 0.9766 228.729 707.5972)" width="33.3" height="12"/>
</g>
<g>
	<polygon class="st11" points="-3086.1,1389.9 -3086.8,1386.8 -3088.2,1380.5 -3097.6,1382.6 -3096.9,1385.6 -3099.9,1386.3 
		-3098.5,1392.6 -3095.5,1392 -3094.8,1395 -3088.4,1393.6 -3089.1,1390.6 	"/>
	<polygon class="st11" points="-3065.7,1385.9 -3066.3,1382.8 -3067.7,1376.5 -3077.1,1378.6 -3076.5,1381.6 -3079.5,1382.3 
		-3078.1,1388.6 -3075,1388 -3074.4,1391 -3068,1389.6 -3068.7,1386.5 	"/>
	<rect x="-3094.5" y="1358.8" transform="matrix(0.9761 -0.2173 0.2173 0.9761 -371.2903 -639.2932)" width="3.6" height="19.8"/>
	<polygon points="-3086.6,1387.3 -3087.3,1384.3 -3088.7,1377.9 -3098.1,1380 -3097.4,1383.1 -3100.5,1383.8 -3099.1,1390.1 
		-3096,1389.4 -3095.4,1392.5 -3089,1391.1 -3089.7,1388 	"/>
	<rect x="-3074.2" y="1354.3" transform="matrix(0.9761 -0.2173 0.2173 0.9761 -369.8228 -634.9884)" width="3.6" height="19.8"/>
	<polygon points="-3066.3,1382.8 -3067,1379.8 -3068.4,1373.4 -3077.8,1375.5 -3077.1,1378.6 -3080.2,1379.2 -3078.8,1385.6 
		-3075.7,1384.9 -3075,1388 -3068.7,1386.5 -3069.4,1383.5 	"/>
	<rect x="-3097.8" y="1348.1" transform="matrix(0.9761 -0.2173 0.2173 0.9761 -367.597 -638.1497)" width="24.4" height="8.8"/>
</g>
<g>
	<polygon class="st11" points="-3065.5,1435.6 -3062.9,1431.5 -3057.4,1423 -3070.1,1414.9 -3072.7,1419 -3076.8,1416.4 
		-3082.3,1425 -3078.2,1427.6 -3080.8,1431.7 -3072.2,1437.1 -3069.6,1433 	"/>
	<polygon class="st11" points="-3038.5,1453.8 -3035.9,1449.6 -3030.4,1441.1 -3043.1,1433 -3045.7,1437.1 -3049.8,1434.5 
		-3055.3,1443.1 -3051.2,1445.7 -3053.8,1449.8 -3045.2,1455.3 -3042.6,1451.1 	"/>
	<rect x="-3052.2" y="1389.5" transform="matrix(0.844 0.5363 -0.5363 0.844 277.868 1854.5371)" width="5.7" height="30.9"/>
	<polygon points="-3063.3,1432.2 -3060.7,1428.1 -3055.2,1419.5 -3067.9,1411.5 -3070.5,1415.6 -3074.6,1413 -3080.1,1421.5 
		-3076,1424.2 -3078.6,1428.3 -3070,1433.7 -3067.4,1429.6 	"/>
	<rect x="-3024.8" y="1407" transform="matrix(0.844 0.5363 -0.5363 0.844 291.4924 1842.5463)" width="5.7" height="30.9"/>
	<polygon points="-3035.9,1449.6 -3033.2,1445.5 -3027.8,1437 -3040.5,1428.9 -3043.1,1433 -3047.2,1430.4 -3052.7,1439 
		-3048.5,1441.6 -3051.2,1445.7 -3042.6,1451.1 -3040,1447 	"/>
	<rect x="-3042.7" y="1387.9" transform="matrix(0.844 0.5363 -0.5363 0.844 276.4365 1839.1749)" width="38.2" height="13.8"/>
</g>
<g>
	<polygon class="st9" points="-3344.2,995.2 -3350.8,995.2 -3597.2,995.2 -3597.2,1001.8 -3603.8,1001.8 -3603.8,1039.9 
		-3597.2,1039.9 -3597.2,1046.5 -3350.8,1046.5 -3344.2,1046.5 -3344.2,1039.9 -3337.6,1039.9 -3337.6,1001.8 -3344.2,1001.8 	"/>
	<polygon class="st12" points="-3344.2,995.2 -3350.8,995.2 -3597.2,995.2 -3597.2,1001.8 -3603.8,1001.8 -3603.8,1039.9 
		-3597.2,1039.9 -3597.2,1046.5 -3350.8,1046.5 -3344.2,1046.5 -3344.2,1039.9 -3337.6,1039.9 -3337.6,1001.8 -3344.2,1001.8 	"/>
	<g>
		<path class="st4" d="M-3537.4,1012.8h2.3v-2.3h11.4v4.5h-9.1v9.1h9.1v4.5h-11.4v-2.3h-2.3V1012.8z"/>
		<path class="st4" d="M-3517,1028.7h-4.5v-15.9h2.3v-2.3h9.1v2.3h2.3v15.9h-4.5v-6.8h-4.5V1028.7z M-3512.4,1017.3v-2.3h-4.5v2.3
			H-3512.4z"/>
		<path class="st4" d="M-3503.3,1026.4h-2.3v-15.9h4.5v13.6h9.1v4.5h-11.4V1026.4z"/>
		<path class="st4" d="M-3489.7,1010.5h4.5v18.2h-4.5V1010.5z"/>
		<path class="st4" d="M-3482.9,1010.5h11.4v2.3h2.3v13.6h-2.3v2.3h-11.4V1010.5z M-3478.4,1017.3h4.5v-2.3h-4.5V1017.3z
			 M-3478.4,1024.1h4.5v-2.3h-4.5V1024.1z"/>
		<path class="st4" d="M-3460.2,1021.8h-2.3v6.8h-4.5v-15.9h2.3v-2.3h9.1v2.3h2.3v6.8h-2.3v2.3h2.3v6.8h-4.5v-4.5h-2.3V1021.8z
			 M-3462.5,1017.3h4.5v-2.3h-4.5V1017.3z"/>
		<path class="st4" d="M-3446.6,1028.7h-4.5v-15.9h2.3v-2.3h9.1v2.3h2.3v15.9h-4.5v-6.8h-4.5V1028.7z M-3442,1017.3v-2.3h-4.5v2.3
			H-3442z"/>
		<path class="st4" d="M-3435.2,1010.5h13.6v4.5h-4.5v13.6h-4.5V1015h-4.5V1010.5z"/>
		<path class="st4" d="M-3417,1026.4h-2.3v-13.6h2.3v-2.3h11.4v4.5h-9.1v2.3h4.5v4.5h-4.5v2.3h9.1v4.5h-11.4V1026.4z"/>
	</g>
</g>
<g>
	<polygon class="st9" points="-3024.2,1063.2 -3030.8,1063.2 -3277.2,1063.2 -3277.2,1069.8 -3283.8,1069.8 -3283.8,1107.9 
		-3277.2,1107.9 -3277.2,1114.5 -3030.8,1114.5 -3024.2,1114.5 -3024.2,1107.9 -3017.6,1107.9 -3017.6,1069.8 -3024.2,1069.8 	"/>
	<polygon class="st10" points="-3024.2,1056.7 -3030.8,1056.7 -3277.2,1056.7 -3277.2,1063.3 -3283.8,1063.3 -3283.8,1101.3 
		-3277.2,1101.3 -3277.2,1107.9 -3030.8,1107.9 -3024.2,1107.9 -3024.2,1101.3 -3017.6,1101.3 -3017.6,1063.3 -3024.2,1063.3 	"/>
	<g>
		<path class="st4" d="M-3217.4,1074.2h2.3v-2.3h11.4v4.5h-9.1v9.1h9.1v4.5h-11.4v-2.3h-2.3V1074.2z"/>
		<path class="st4" d="M-3197,1090.1h-4.5v-15.9h2.3v-2.3h9.1v2.3h2.3v15.9h-4.5v-6.8h-4.5V1090.1z M-3192.4,1078.7v-2.3h-4.5v2.3
			H-3192.4z"/>
		<path class="st4" d="M-3183.3,1087.8h-2.3v-15.9h4.5v13.6h9.1v4.5h-11.4V1087.8z"/>
		<path class="st4" d="M-3169.7,1071.9h4.5v18.2h-4.5V1071.9z"/>
		<path class="st4" d="M-3162.9,1071.9h11.4v2.3h2.3v13.6h-2.3v2.3h-11.4V1071.9z M-3158.4,1078.7h4.5v-2.3h-4.5V1078.7z
			 M-3158.4,1085.5h4.5v-2.3h-4.5V1085.5z"/>
		<path class="st4" d="M-3140.2,1083.3h-2.3v6.8h-4.5v-15.9h2.3v-2.3h9.1v2.3h2.3v6.8h-2.3v2.3h2.3v6.8h-4.5v-4.5h-2.3V1083.3z
			 M-3142.5,1078.7h4.5v-2.3h-4.5V1078.7z"/>
		<path class="st4" d="M-3126.6,1090.1h-4.5v-15.9h2.3v-2.3h9.1v2.3h2.3v15.9h-4.5v-6.8h-4.5V1090.1z M-3122,1078.7v-2.3h-4.5v2.3
			H-3122z"/>
		<path class="st4" d="M-3115.2,1071.9h13.6v4.5h-4.5v13.6h-4.5v-13.6h-4.5V1071.9z"/>
		<path class="st4" d="M-3097,1087.8h-2.3v-13.6h2.3v-2.3h11.4v4.5h-9.1v2.3h4.5v4.5h-4.5v2.3h9.1v4.5h-11.4V1087.8z"/>
	</g>
</g>
<g>
	<rect x="-3282.2" y="1145.6" class="st9" width="219.8" height="28.8"/>
	<rect x="-3287" y="1139" class="st9" width="229.4" height="30.6"/>
	<polygon class="st10" points="-3287,1134.7 -3287,1163.9 -3282.2,1163.9 -3282.2,1169.6 -3062.5,1169.6 -3062.5,1163.9 
		-3057.7,1163.9 -3057.7,1134.7 	"/>
</g>
<polygon class="st9" points="-3067.3,1149.5 -3067.3,1144.4 -3072.3,1144.4 -3072.3,1144.3 -3129,1144.3 -3159.6,1144.3 
	-3185.2,1144.3 -3209,1144.3 -3272.4,1144.3 -3272.4,1144.4 -3277.5,1144.4 -3277.5,1149.5 -3282.6,1149.5 -3282.6,1157.1 
	-3277.5,1157.1 -3277.5,1162.2 -3272.4,1162.2 -3272.4,1162.3 -3209,1162.3 -3185.2,1162.3 -3159.6,1162.3 -3129,1162.3 
	-3072.3,1162.3 -3072.3,1162.3 -3067.3,1162.3 -3067.3,1157.2 -3062.2,1157.2 -3062.2,1149.5 "/>
<g>
	<rect x="-3291.2" y="1243.6" class="st13" width="4.7" height="0.1"/>
	<rect x="-3291.2" y="1261.5" class="st13" width="4.7" height="0.1"/>
	<polygon class="st4" points="-3270.1,1261.5 -3270.1,1256.4 -3265.1,1256.4 -3265.1,1248.8 -3270.1,1248.8 -3270.1,1243.7 
		-3275.2,1243.7 -3275.2,1243.6 -3286.4,1243.6 -3286.4,1243.6 -3291.2,1243.6 -3291.2,1261.5 -3286.4,1261.5 -3286.4,1261.6 
		-3275.2,1261.6 -3275.2,1261.5 	"/>
</g>
<g>
	<polygon class="st4" points="-3317,1208 -3317,1202.9 -3322.1,1202.9 -3322.1,1202.8 -3338,1202.8 -3338,1220.8 -3322.1,1220.8 
		-3322.1,1220.8 -3317,1220.8 -3317,1215.7 -3311.9,1215.7 -3311.9,1208 	"/>
	<polygon class="st4" points="-3330.5,1246.9 -3330.5,1241.8 -3330.5,1241.8 -3330.5,1241.7 -3335,1241.7 -3335.6,1241.7 
		-3340.1,1241.7 -3340.1,1241.8 -3340.1,1241.8 -3340.1,1246.9 -3345.2,1246.9 -3345.2,1254.5 -3340.1,1254.5 -3340.1,1259.6 
		-3340.1,1259.6 -3340.1,1259.7 -3335.6,1259.7 -3335,1259.7 -3330.5,1259.7 -3330.5,1259.6 -3330.5,1259.6 -3330.5,1254.5 
		-3325.4,1254.5 -3325.4,1246.9 	"/>
</g>
<polygon class="st4" points="-3380.3,1149.5 -3380.3,1144.4 -3380.3,1144.4 -3380.3,1144.3 -3384.8,1144.3 -3385.4,1144.3 
	-3389.9,1144.3 -3389.9,1144.4 -3389.9,1144.4 -3389.9,1149.5 -3395,1149.5 -3395,1157.1 -3389.9,1157.1 -3389.9,1162.2 
	-3389.9,1162.2 -3389.9,1162.3 -3385.4,1162.3 -3384.8,1162.3 -3380.3,1162.3 -3380.3,1162.3 -3380.3,1162.3 -3380.3,1157.2 
	-3375.2,1157.2 -3375.2,1149.5 "/>
<polygon class="st14" points="-2414.5,1538.7 -2424.5,1538.7 -2799.4,1538.7 -2799.4,1548.8 -2809.5,1548.8 -2809.5,1606.6 
	-2799.4,1606.6 -2799.4,1616.7 -2424.5,1616.7 -2414.5,1616.7 -2414.5,1606.6 -2404.4,1606.6 -2404.4,1548.8 -2414.5,1548.8 "/>
<polygon class="st15" points="-2414.5,1528.7 -2424.5,1528.7 -2799.4,1528.7 -2799.4,1538.8 -2809.5,1538.8 -2809.5,1596.6 
	-2799.4,1596.6 -2799.4,1606.7 -2424.5,1606.7 -2414.5,1606.7 -2414.5,1596.6 -2404.4,1596.6 -2404.4,1538.8 -2414.5,1538.8 "/>
<g>
	<path class="st4" d="M-2696.8,1579.6h-6.9v-27.6h17.3v3.5h3.5v10.4h-3.5v3.5h-10.4V1579.6z M-2696.8,1562.3h6.9v-3.5h-6.9V1562.3z"
		/>
	<path class="st4" d="M-2676.1,1576.1h-3.5v-24.2h6.9v20.7h13.8v6.9h-17.3V1576.1z"/>
	<path class="st4" d="M-2648.5,1579.6h-6.9v-24.2h3.5v-3.5h13.8v3.5h3.5v24.2h-6.9v-10.4h-6.9V1579.6z M-2641.5,1562.3v-3.5h-6.9
		v3.5H-2641.5z"/>
	<path class="st4" d="M-2631.2,1551.9h6.9v10.4h6.9v-10.4h6.9v13.8h-3.5v3.5h-3.5v10.4h-6.9v-10.4h-3.5v-3.5h-3.5V1551.9z"/>
	<path class="st4" d="M-2603.5,1576.1h-3.5v-20.7h3.5v-3.5h17.3v6.9h-13.8v3.5h6.9v6.9h-6.9v3.5h13.8v6.9h-17.3V1576.1z"/>
	<path class="st4" d="M-2572.4,1569.2h-3.5v10.4h-6.9v-27.6h17.3v3.5h3.5v10.4h-3.5v3.5h3.5v10.4h-6.9v-6.9h-3.5V1569.2z
		 M-2575.9,1562.3h6.9v-3.5h-6.9V1562.3z"/>
	<path class="st4" d="M-2534.4,1551.9h17.3v3.5h3.5v10.4h-3.5v3.5h-10.4v3.5h13.8v6.9h-20.7v-13.8h3.5v-3.5h10.4v-3.5h-13.8V1551.9z
		"/>
</g>
<g>
	<rect x="-2788.5" y="1532.7" class="st4" width="45.1" height="5.7"/>
	<rect x="-2737.2" y="1532.7" class="st4" width="5.7" height="5.7"/>
</g>
<g>
	<rect x="-3243" y="1533.7" class="st4" width="45.1" height="5.7"/>
	<rect x="-3191.7" y="1533.7" class="st4" width="5.7" height="5.7"/>
</g>
<polygon class="st16" points="-2853.9,1373.7 -2847.5,1379.3 -2853.1,1385.7 -2832.6,1403.1 -2832.6,1440.9 -2811.9,1414.8 
	-2780.1,1444.2 -2774.3,1438 -2769.3,1442.6 -2697.7,1323.9 "/>
<polygon class="st17" points="-2856.3,1366.6 -2849.9,1372.2 -2855.5,1378.6 -2835.1,1395.9 -2835.1,1433.8 -2814.4,1407.7 
	-2782.6,1437.1 -2776.8,1430.8 -2771.8,1435.5 -2700.2,1316.8 "/>
<polygon class="st18" points="-2814.3,1407.5 -2699.9,1316.7 -2835,1395.7 -2835,1433.6 "/>
<polygon class="st19" points="-2857.4,1366.7 -2851,1372.3 -2856.6,1378.7 -2836.2,1396.1 -2836.2,1434 -2815.4,1407.9 
	-2783.7,1437.3 -2777.8,1431 -2772.9,1435.6 -2701.2,1316.9 "/>
<g>
	<polygon class="st20" points="-2921.5,1060 -2921.5,1223.6 -2911.2,1223.6 -2911.2,1233.1 -2900.8,1233.1 -2900.8,1243.6 
		-2453.3,1243.6 -2453.3,1233.1 -2442.9,1233.1 -2442.9,1223.6 -2432.5,1223.6 -2432.5,1060 	"/>
	<polygon class="st20" points="-2432.5,1060 -2432.5,965.9 -2442.9,965.9 -2442.9,956.3 -2453.3,956.3 -2453.3,945.9 -2900.8,945.9 
		-2900.8,956.3 -2911.2,956.3 -2911.2,965.9 -2921.5,965.9 -2921.5,1060 	"/>
</g>
<g>
	<polygon class="st21" points="-2911.2,962.5 -2900.8,962.5 -2900.8,954.5 -2911.2,954.5 -2911.2,962.4 -2921.5,962.4 
		-2921.5,970.4 -2911.2,970.4 	"/>
	<rect x="-2900.8" y="945.8" class="st21" width="447.5" height="8"/>
	<polygon class="st21" points="-2442.9,962.4 -2442.9,954.5 -2453.3,954.5 -2453.3,962.5 -2442.9,962.5 -2442.9,970.4 
		-2432.5,970.4 -2432.5,962.4 	"/>
</g>
<g>
	<g>
		<g>
			<rect x="-3314.7" y="881.5" width="10.2" height="10.2"/>
		</g>
	</g>
	<g>
		<g>
			<path d="M-3253.2,871.3v5.1h-5.1v5.1h5.1V902h5.1v5.1h-5.1v5.1h5.1h5.1V902h15.4v5.1h5.1V902v-30.7H-3253.2z M-3227.6,896.9
				h-20.5v-20.5h20.5V896.9z"/>
		</g>
	</g>
	<g>
		<g>
			<rect x="-3243" y="881.5" width="10.2" height="10.2"/>
		</g>
	</g>
	<g>
		<g>
			<rect x="-3314.7" y="953.2" width="10.2" height="10.2"/>
		</g>
	</g>
	<g>
		<g>
			<rect x="-3253.2" y="942.9" width="5.1" height="5.1"/>
		</g>
	</g>
	<g>
		<g>
			<rect x="-3278.8" y="968.5" width="5.1" height="5.1"/>
		</g>
	</g>
	<g>
		<g>
			<rect x="-3273.7" y="948.1" width="5.1" height="5.1"/>
		</g>
	</g>
	<g>
		<g>
			<rect x="-3273.7" y="958.3" width="5.1" height="5.1"/>
		</g>
	</g>
	<g>
		<g>
			<rect x="-3227.6" y="932.7" width="5.1" height="5.1"/>
		</g>
	</g>
	<g>
		<g>
			<rect x="-3324.9" y="932.7" width="5.1" height="5.1"/>
		</g>
	</g>
	<g>
		<g>
			<rect x="-3324.9" y="907.1" width="5.1" height="5.1"/>
		</g>
	</g>
	<g>
		<g>
			<polygon points="-3268.6,876.4 -3268.6,881.5 -3278.8,881.5 -3278.8,886.6 -3263.5,886.6 -3263.5,881.5 -3263.5,876.4 			"/>
		</g>
	</g>
	<g>
		<g>
			<path d="M-3227.6,912.2v5.1h-10.2v5.1h-15.4v-5.1h-5.1v5.1h-10.2v5.1h15.4v5.1h-10.2h-5.1v-5.1h-5.1v5.1h-5.1v-5.1h-5.1v5.1h-5.1
				v5.1h10.2v5.1h5.1v-5.1h10.2v5.1h-5.1v5.1h5.1v10.2h5.1v5.1h5.1v-5.1h15.4v-10.2h5.1v-5.1h-5.1v-10.2h-10.2v-5.1h10.2v5.1h5.1
				v-5.1h5.1v-5.1h5.1v-5.1v-5.1H-3227.6L-3227.6,912.2z M-3243,937.8v15.4h-15.4v-15.4H-3243z"/>
		</g>
	</g>
	<g>
		<g>
			<polygon points="-3258.4,902 -3263.5,902 -3263.5,907.1 -3268.6,907.1 -3268.6,912.2 -3268.6,917.3 -3263.5,917.3 -3263.5,912.2 
				-3258.4,912.2 -3258.4,907.1 -3253.2,907.1 -3253.2,902 			"/>
		</g>
	</g>
	<g>
		<g>
			<rect x="-3268.6" y="968.5" width="10.2" height="5.1"/>
		</g>
	</g>
	<g>
		<g>
			<rect x="-3284" y="876.4" width="5.1" height="5.1"/>
		</g>
	</g>
	<g>
		<g>
			<rect x="-3243" y="912.2" width="5.1" height="5.1"/>
		</g>
	</g>
	<g>
		<g>
			<rect x="-3237.9" y="907.1" width="5.1" height="5.1"/>
		</g>
	</g>
	<g>
		<g>
			<rect x="-3304.5" y="932.7" width="5.1" height="5.1"/>
		</g>
	</g>
	<g>
		<g>
			<path d="M-3294.2,968.5v-20.5h5.1v-5.1v-5.1h-5.1v5.1h-15.4v-5.1h-5.1h-5.1v5.1h-5.1v30.7h30.7h10.2v-5.1H-3294.2z
				 M-3299.3,968.5h-20.5v-20.5h20.5V968.5z"/>
		</g>
	</g>
	<g>
		<g>
			<rect x="-3294.2" y="902" width="5.1" height="5.1"/>
		</g>
	</g>
	<g>
		<g>
			<path d="M-3289.1,871.3h-5.1h-30.7V902h5.1v5.1h5.1V902h5.1v5.1h5.1V902h10.2v-10.2h5.1v-5.1h-5.1v-10.2h5.1h5.1v-5.1H-3289.1z
				 M-3299.3,896.9h-20.5v-20.5h20.5V896.9z"/>
		</g>
	</g>
	<g>
		<g>
			<rect x="-3263.5" y="886.6" width="5.1" height="5.1"/>
		</g>
	</g>
	<g>
		<g>
			<rect x="-3273.7" y="871.3" width="5.1" height="5.1"/>
		</g>
	</g>
	<g>
		<g>
			<path d="M-3263.5,902v-5.1h-5.1v-5.1h-5.1v5.1h-10.2v-5.1h-5.1v5.1v5.1h5.1v10.2h-15.4v-5.1h-5.1v5.1h-15.4v5.1h10.2v5.1h-15.4
				v5.1h15.4v5.1h5.1v-5.1h5.1v5.1h5.1v-5.1h10.2v-5.1h-5.1v-5.1h5.1h5.1v5.1h5.1h5.1v-5.1h-5.1v-5.1h-5.1V902H-3263.5L-3263.5,902z
				 M-3294.2,922.5h-10.2v-5.1h10.2V922.5z"/>
		</g>
	</g>
	<g>
		<g>
			<polygon points="-3278.8,953.2 -3278.8,948.1 -3278.8,942.9 -3284,942.9 -3284,948.1 -3289.1,948.1 -3289.1,953.2 -3284,953.2 
				-3284,958.3 -3289.1,958.3 -3289.1,963.4 -3278.8,963.4 -3278.8,958.3 -3273.7,958.3 -3273.7,953.2 			"/>
		</g>
	</g>
	<g>
		<g>
			<polygon points="-3232.8,963.4 -3232.8,958.3 -3237.9,958.3 -3237.9,963.4 -3253.2,963.4 -3253.2,968.5 -3243,968.5 -3243,973.7 
				-3237.9,973.7 -3237.9,968.5 -3227.6,968.5 -3227.6,973.7 -3222.5,973.7 -3222.5,968.5 -3222.5,963.4 			"/>
		</g>
	</g>
	<g>
		<g>
			<polygon points="-3227.6,942.9 -3227.6,948.1 -3232.8,948.1 -3232.8,953.2 -3222.5,953.2 -3222.5,948.1 -3222.5,942.9 			"/>
		</g>
	</g>
</g>
<g>
	<g>
		<polygon class="st9" points="-3553,1287.4 -3556.7,1287.4 -3693.9,1287.4 -3693.9,1291.1 -3697.6,1291.1 -3697.6,1312.2 
			-3693.9,1312.2 -3693.9,1315.9 -3556.7,1315.9 -3553,1315.9 -3553,1312.2 -3549.4,1312.2 -3549.4,1291.1 -3553,1291.1 		"/>
		<polygon class="st12" points="-3553,1287.4 -3556.7,1287.4 -3693.9,1287.4 -3693.9,1291.1 -3697.6,1291.1 -3697.6,1312.2 
			-3693.9,1312.2 -3693.9,1315.9 -3556.7,1315.9 -3553,1315.9 -3553,1312.2 -3549.4,1312.2 -3549.4,1291.1 -3553,1291.1 		"/>
		<g>
			<path class="st4" d="M-3665.7,1302.2h-1.3v3.8h-2.5v-10.1h6.3v1.3h1.3v3.8h-1.3v1.3h1.3v3.8h-2.5v-2.5h-1.3V1302.2z
				 M-3666.9,1299.7h2.5v-1.3h-2.5V1299.7z"/>
			<path class="st4" d="M-3659.4,1304.7h-1.3v-7.6h1.3v-1.3h6.3v2.5h-5.1v1.3h2.5v2.5h-2.5v1.3h5.1v2.5h-6.3V1304.7z"/>
			<path class="st4" d="M-3650.5,1304.7h-1.3v-7.6h1.3v-1.3h5.1v1.3h1.3v2.5h-2.5v-1.3h-2.5v5.1h2.5v-1.3h2.5v2.5h-1.3v1.3h-5.1
				V1304.7z"/>
			<path class="st4" d="M-3640.4,1306h-2.5v-8.9h1.3v-1.3h5.1v1.3h1.3v8.9h-2.5v-3.8h-2.5V1306z M-3637.9,1299.7v-1.3h-2.5v1.3
				H-3637.9z"/>
			<path class="st4" d="M-3632.8,1304.7h-1.3v-8.9h2.5v7.6h5.1v2.5h-6.3V1304.7z"/>
			<path class="st4" d="M-3625.2,1295.9h2.5v10.1h-2.5V1295.9z"/>
			<path class="st4" d="M-3621.4,1295.9h6.3v1.3h1.3v7.6h-1.3v1.3h-6.3V1295.9z M-3618.9,1299.7h2.5v-1.3h-2.5V1299.7z
				 M-3618.9,1303.5h2.5v-1.3h-2.5V1303.5z"/>
			<path class="st4" d="M-3608.8,1302.2h-1.3v3.8h-2.5v-8.9h1.3v-1.3h5.1v1.3h1.3v3.8h-1.3v1.3h1.3v3.8h-2.5v-2.5h-1.3V1302.2z
				 M-3610,1299.7h2.5v-1.3h-2.5V1299.7z"/>
			<path class="st4" d="M-3601.2,1306h-2.5v-8.9h1.3v-1.3h5.1v1.3h1.3v8.9h-2.5v-3.8h-2.5V1306z M-3598.7,1299.7v-1.3h-2.5v1.3
				H-3598.7z"/>
			<path class="st4" d="M-3594.9,1295.9h7.6v2.5h-2.5v7.6h-2.5v-7.6h-2.5V1295.9z"/>
			<path class="st4" d="M-3584.7,1304.7h-1.3v-7.6h1.3v-1.3h6.3v2.5h-5.1v1.3h2.5v2.5h-2.5v1.3h5.1v2.5h-6.3V1304.7z"/>
		</g>
	</g>
	<g>
		<rect x="-3691.5" y="1289.5" class="st4" width="13.1" height="1.7"/>
		<rect x="-3676.6" y="1289.5" class="st4" width="1.7" height="1.7"/>
	</g>
</g>
<g>
	<g>
		<polygon class="st9" points="-3553,1329.4 -3556.7,1329.4 -3693.9,1329.4 -3693.9,1333.1 -3697.6,1333.1 -3697.6,1354.2 
			-3693.9,1354.2 -3693.9,1357.9 -3556.7,1357.9 -3553,1357.9 -3553,1354.2 -3549.4,1354.2 -3549.4,1333.1 -3553,1333.1 		"/>
		<polygon class="st10" points="-3553,1325.7 -3556.7,1325.7 -3693.9,1325.7 -3693.9,1329.4 -3697.6,1329.4 -3697.6,1350.6 
			-3693.9,1350.6 -3693.9,1354.3 -3556.7,1354.3 -3553,1354.3 -3553,1350.6 -3549.4,1350.6 -3549.4,1329.4 -3553,1329.4 		"/>
		<g>
			<path class="st4" d="M-3665.7,1340.5h-1.3v3.8h-2.5v-10.1h6.3v1.3h1.3v3.8h-1.3v1.3h1.3v3.8h-2.5v-2.5h-1.3V1340.5z
				 M-3666.9,1338h2.5v-1.3h-2.5V1338z"/>
			<path class="st4" d="M-3659.4,1343.1h-1.3v-7.6h1.3v-1.3h6.3v2.5h-5.1v1.3h2.5v2.5h-2.5v1.3h5.1v2.5h-6.3V1343.1z"/>
			<path class="st4" d="M-3650.5,1343.1h-1.3v-7.6h1.3v-1.3h5.1v1.3h1.3v2.5h-2.5v-1.3h-2.5v5.1h2.5v-1.3h2.5v2.5h-1.3v1.3h-5.1
				V1343.1z"/>
			<path class="st4" d="M-3640.4,1344.3h-2.5v-8.9h1.3v-1.3h5.1v1.3h1.3v8.9h-2.5v-3.8h-2.5V1344.3z M-3637.9,1338v-1.3h-2.5v1.3
				H-3637.9z"/>
			<path class="st4" d="M-3632.8,1343.1h-1.3v-8.9h2.5v7.6h5.1v2.5h-6.3V1343.1z"/>
			<path class="st4" d="M-3625.2,1334.2h2.5v10.1h-2.5V1334.2z"/>
			<path class="st4" d="M-3621.4,1334.2h6.3v1.3h1.3v7.6h-1.3v1.3h-6.3V1334.2z M-3618.9,1338h2.5v-1.3h-2.5V1338z M-3618.9,1341.8
				h2.5v-1.3h-2.5V1341.8z"/>
			<path class="st4" d="M-3608.8,1340.5h-1.3v3.8h-2.5v-8.9h1.3v-1.3h5.1v1.3h1.3v3.8h-1.3v1.3h1.3v3.8h-2.5v-2.5h-1.3V1340.5z
				 M-3610,1338h2.5v-1.3h-2.5V1338z"/>
			<path class="st4" d="M-3601.2,1344.3h-2.5v-8.9h1.3v-1.3h5.1v1.3h1.3v8.9h-2.5v-3.8h-2.5V1344.3z M-3598.7,1338v-1.3h-2.5v1.3
				H-3598.7z"/>
			<path class="st4" d="M-3594.9,1334.2h7.6v2.5h-2.5v7.6h-2.5v-7.6h-2.5V1334.2z"/>
			<path class="st4" d="M-3584.7,1343.1h-1.3v-7.6h1.3v-1.3h6.3v2.5h-5.1v1.3h2.5v2.5h-2.5v1.3h5.1v2.5h-6.3V1343.1z"/>
		</g>
	</g>
	<g>
		<rect x="-3691.5" y="1328.5" class="st4" width="13.1" height="1.7"/>
		<rect x="-3676.6" y="1328.5" class="st4" width="1.7" height="1.7"/>
	</g>
</g>
<g>
	<rect x="-3271.7" y="1060.2" class="st4" width="23.6" height="3"/>
	<rect x="-3244.9" y="1060.2" class="st4" width="3" height="3"/>
</g>
<g>
	<rect x="-3592.1" y="998.8" class="st4" width="23.6" height="3"/>
	<rect x="-3565.3" y="998.8" class="st4" width="3" height="3"/>
</g>
<g>
	<polygon class="st22" points="-3622.2,1122.3 -3622.2,1114.8 -3640.8,1114.8 -3640.8,1122.3 -3648.3,1122.3 -3648.3,1129.7 
		-3648.3,1140.9 -3640.8,1140.9 -3640.8,1148.4 -3629.6,1148.4 -3622.2,1148.4 -3622.2,1140.9 -3614.7,1140.9 -3614.7,1129.7 
		-3614.7,1122.3 	"/>
	<line class="st23" x1="-3640.2" y1="1148.4" x2="-3640.2" y2="1158.3"/>
	<line class="st23" x1="-3622.8" y1="1148.4" x2="-3622.8" y2="1158.3"/>
	<polygon class="st24" points="-3623.7,1156.5 -3625.9,1156.5 -3639.3,1156.5 -3639.3,1158.6 -3641.4,1158.6 -3641.4,1174.2 
		-3639.3,1174.2 -3639.3,1176.3 -3625.9,1176.3 -3623.7,1176.3 -3623.7,1174.2 -3621.5,1174.2 -3621.5,1158.6 -3623.7,1158.6 	"/>
</g>
<polygon class="st25" points="-3555.1,1561.5 -3555.1,1553.6 -3563,1553.6 -3628,1553.6 -3696.8,1553.6 -3696.8,1561.5 
	-3704.7,1561.5 -3704.7,1607.1 -3696.8,1607.1 -3696.8,1615 -3628,1615 -3563,1615 -3555.1,1615 -3555.1,1607.1 -3547.2,1607.1 
	-3547.2,1561.5 "/>
<polygon class="st25" points="-3555.1,1561.6 -3555.1,1553.7 -3563,1553.7 -3628,1553.7 -3696.8,1553.7 -3696.8,1561.6 
	-3704.7,1561.6 -3704.7,1607.2 -3696.8,1607.2 -3696.8,1615.1 -3628,1615.1 -3563,1615.1 -3555.1,1615.1 -3555.1,1607.2 
	-3547.2,1607.2 -3547.2,1561.6 "/>
<g>
	<path class="st4" d="M-3658.6,1595.1h-5.4v-21.8h13.6v2.7h2.7v8.2h-2.7v2.7h-8.2V1595.1z M-3658.6,1581.4h5.4v-2.7h-5.4V1581.4z"/>
	<path class="st4" d="M-3642.3,1592.3h-2.7v-19h5.4v16.3h10.9v5.4h-13.6V1592.3z"/>
	<path class="st4" d="M-3620.5,1595.1h-5.4v-19h2.7v-2.7h10.9v2.7h2.7v19h-5.4v-8.2h-5.4V1595.1z M-3615,1581.4v-2.7h-5.4v2.7H-3615
		z"/>
	<path class="st4" d="M-3606.9,1573.3h5.4v8.2h5.4v-8.2h5.4v10.9h-2.7v2.7h-2.7v8.2h-5.4v-8.2h-2.7v-2.7h-2.7V1573.3z"/>
</g>
<polygon class="st25" points="-3385.1,1561.5 -3385.1,1553.6 -3393,1553.6 -3458,1553.6 -3526.8,1553.6 -3526.8,1561.5 
	-3534.7,1561.5 -3534.7,1607.1 -3526.8,1607.1 -3526.8,1615 -3458,1615 -3393,1615 -3385.1,1615 -3385.1,1607.1 -3377.2,1607.1 
	-3377.2,1561.5 "/>
<polygon class="st22" points="-3385.1,1553.6 -3385.1,1545.7 -3393,1545.7 -3458,1545.7 -3526.8,1545.7 -3526.8,1553.6 
	-3534.7,1553.6 -3534.7,1599.2 -3526.8,1599.2 -3526.8,1607.1 -3458,1607.1 -3393,1607.1 -3385.1,1607.1 -3385.1,1599.2 
	-3377.2,1599.2 -3377.2,1553.6 "/>
<g>
	<path class="st4" d="M-3488.6,1587.1h-5.4v-21.8h13.6v2.7h2.7v8.2h-2.7v2.7h-8.2V1587.1z M-3488.6,1573.4h5.4v-2.7h-5.4V1573.4z"/>
	<path class="st4" d="M-3472.3,1584.3h-2.7v-19h5.4v16.3h10.9v5.4h-13.6V1584.3z"/>
	<path class="st4" d="M-3450.5,1587.1h-5.4v-19h2.7v-2.7h10.9v2.7h2.7v19h-5.4v-8.2h-5.4V1587.1z M-3445,1573.4v-2.7h-5.4v2.7H-3445
		z"/>
	<path class="st4" d="M-3436.9,1565.3h5.4v8.2h5.4v-8.2h5.4v10.9h-2.7v2.7h-2.7v8.2h-5.4v-8.2h-2.7v-2.7h-2.7V1565.3z"/>
</g>
<g>
	<path class="st26" d="M-4378.7,1315.9h43.2v108h43.2v-108h43.2v129.6h-21.6v21.6h-21.6v21.6h-43.2v-21.6h-21.6v-21.6h-21.6V1315.9z
		"/>
	<path class="st27" d="M-4227.5,1339.6h21.6V1318h108v43.2h-86.4v21.6h64.8v21.6h21.6v64.8h-21.6v21.6h-108v-43.2h86.4V1426h-64.8
		v-21.6h-21.6V1339.6z"/>
</g>
<g>
	<path class="st28" d="M-4378.7,1294.8h43.2v108h43.2v-108h43.2v129.6h-21.6v21.6h-21.6v21.6h-43.2V1446h-21.6v-21.6h-21.6V1294.8z"
		/>
	<path class="st29" d="M-4227.5,1316.4h21.6v-21.6h108v43.2h-86.4v21.6h64.8v21.6h21.6v64.8h-21.6v21.6h-108v-43.2h86.4v-21.6h-64.8
		v-21.6h-21.6V1316.4z"/>
</g>
<g>
	<g>
		<path class="st0" d="M-4329.3,1673.5h27.5v68.7h27.5v-68.7h27.5v82.4h-13.7v13.7h-13.7v13.7h-27.5v-13.7h-13.7v-13.7h-13.7V1673.5
			z"/>
		<path class="st0" d="M-4233.2,1688.5h13.7v-13.7h68.7v27.5h-54.9v13.7h41.2v13.7h13.7v41.2h-13.7v13.7h-68.7v-27.5h54.9v-13.7
			h-41.2v-13.7h-13.7V1688.5z"/>
	</g>
	<g>
		<path class="st7" d="M-4329.3,1659h27.5v68.7h27.5V1659h27.5v82.4h-13.7v13.7h-13.7v13.7h-27.5v-13.7h-13.7v-13.7h-13.7V1659z"/>
		<path class="st7" d="M-4233.2,1674h13.7v-13.7h68.7v27.5h-54.9v13.7h41.2v13.7h13.7v41.2h-13.7v13.7h-68.7v-27.5h54.9V1729h-41.2
			v-13.7h-13.7V1674z"/>
	</g>
	<g>
		<path class="st4" d="M-4329.3,1645.6h27.5v68.7h27.5v-68.7h27.5v82.4h-13.7v13.7h-13.7v13.7h-27.5v-13.7h-13.7V1728h-13.7V1645.6z
			"/>
		<path class="st4" d="M-4233.2,1659.3h13.7v-13.7h68.7v27.5h-54.9v13.7h41.2v13.7h13.7v41.2h-13.7v13.7h-68.7V1728h54.9v-13.7
			h-41.2v-13.7h-13.7V1659.3z"/>
	</g>
</g>
<g>
	<g>
		<path class="st0" d="M-3754.8,813.8h-21.6v-86.4h54v10.8h10.8v32.4h-10.8v10.8h-32.4V813.8z M-3754.8,759.8h21.6V749h-21.6V759.8z
			"/>
		<path class="st0" d="M-3700.8,738.2h10.8v-10.8h43.2v10.8h10.8V803h-10.8v10.8h-43.2V803h-10.8V738.2z M-3679.2,792.2h21.6V749
			h-21.6V792.2z"/>
		<path class="st0" d="M-3614.4,803h-10.8v-75.6h21.6v64.8h43.2v21.6h-54V803z"/>
		<path class="st0" d="M-3571.2,727.4h21.6v32.4h21.6v-32.4h21.6v43.2h-10.8v10.8h-10.8v32.4h-21.6v-32.4h-10.8v-10.8h-10.8V727.4z"
			/>
	</g>
	<g>
		<path class="st30" d="M-3754.8,805.4h-21.6V719h54v10.8h10.8v32.4h-10.8V773h-32.4V805.4z M-3754.8,751.4h21.6v-10.8h-21.6V751.4z
			"/>
		<path class="st30" d="M-3700.8,729.8h10.8V719h43.2v10.8h10.8v64.8h-10.8v10.8h-43.2v-10.8h-10.8V729.8z M-3679.2,783.8h21.6
			v-43.2h-21.6V783.8z"/>
		<path class="st30" d="M-3614.4,794.6h-10.8V719h21.6v64.8h43.2v21.6h-54V794.6z"/>
		<path class="st30" d="M-3571.2,719h21.6v32.4h21.6V719h21.6v43.2h-10.8V773h-10.8v32.4h-21.6V773h-10.8v-10.8h-10.8V719z"/>
	</g>
	<g>
		<path class="st4" d="M-3754.8,797.2h-21.6v-86.4h54v10.8h10.8V754h-10.8v10.8h-32.4V797.2z M-3754.8,743.2h21.6v-10.8h-21.6V743.2
			z"/>
		<path class="st4" d="M-3700.8,721.6h10.8v-10.8h43.2v10.8h10.8v64.8h-10.8v10.8h-43.2v-10.8h-10.8V721.6z M-3679.2,775.6h21.6
			v-43.2h-21.6V775.6z"/>
		<path class="st4" d="M-3614.4,786.4h-10.8v-75.6h21.6v64.8h43.2v21.6h-54V786.4z"/>
		<path class="st4" d="M-3571.2,710.8h21.6v32.4h21.6v-32.4h21.6V754h-10.8v10.8h-10.8v32.4h-21.6v-32.4h-10.8V754h-10.8V710.8z"/>
	</g>
</g>
<image style="overflow:visible;" width="843" height="1118" xlink:href="F3B5F51420A604A9.jpg"  transform="matrix(0.24 0 0 0.24 -3985.9678 860.9717)">
</image>
<g>
	<g class="st1">
		<g>
			<polygon class="st0" points="-3428,497.3 -3428,583.8 -3326.8,583.8 -3326.8,572.2 -3339.5,572.2 -3339.5,559.5 -3352.1,559.5 
				-3352.1,546.9 -3364.8,546.9 -3364.8,534.2 -3352.1,534.2 -3352.1,521.6 -3339.5,521.6 -3339.5,508.9 -3326.8,508.9 
				-3326.8,497.3 			"/>
		</g>
		<polygon class="st0" points="-3413.3,558.5 -3428,582.7 -3428,558.5 		"/>
	</g>
	<rect x="-3916.2" y="474.4" class="st0" width="510.3" height="86.5"/>
	<rect x="-3439.6" y="552.4" class="st0" width="112.8" height="31.6"/>
	<g class="st1">
		<g>
			<polygon class="st0" points="-3908.4,497.5 -3908.4,583.9 -4009.6,583.9 -4009.6,572.3 -3996.9,572.3 -3996.9,559.7 
				-3984.3,559.7 -3984.3,547 -3971.6,547 -3971.6,534.4 -3984.3,534.4 -3984.3,521.7 -3996.9,521.7 -3996.9,509.1 -4009.6,509.1 
				-4009.6,497.5 			"/>
		</g>
		<polygon class="st0" points="-3923.1,558.6 -3908.4,582.9 -3908.4,558.6 		"/>
	</g>
	<g>
		<g>
			<polygon class="st2" points="-3428,487 -3428,573.5 -3326.8,573.5 -3326.8,561.9 -3339.5,561.9 -3339.5,549.2 -3352.1,549.2 
				-3352.1,536.6 -3364.8,536.6 -3364.8,523.9 -3352.1,523.9 -3352.1,511.3 -3339.5,511.3 -3339.5,498.6 -3326.8,498.6 -3326.8,487 
							"/>
			<polygon class="st3" points="-3428,475.4 -3428,561.9 -3326.8,561.9 -3326.8,550.3 -3339.5,550.3 -3339.5,537.6 -3352.1,537.6 
				-3352.1,525 -3364.8,525 -3364.8,512.3 -3352.1,512.3 -3352.1,499.7 -3339.5,499.7 -3339.5,487 -3326.8,487 -3326.8,475.4 			"/>
		</g>
		<polygon class="st2" points="-3413.3,548.2 -3428,572.4 -3428,548.2 		"/>
		<g>
			<g>
				<polygon class="st2" points="-3908.8,487 -3908.8,573.5 -4010.1,573.5 -4010.1,561.9 -3997.4,561.9 -3997.4,549.2 
					-3984.8,549.2 -3984.8,536.6 -3972.1,536.6 -3972.1,523.9 -3984.8,523.9 -3984.8,511.3 -3997.4,511.3 -3997.4,498.6 
					-4010.1,498.6 -4010.1,487 				"/>
				<polygon class="st3" points="-3908.8,475.4 -3908.8,561.9 -4010.1,561.9 -4010.1,550.3 -3997.4,550.3 -3997.4,537.6 
					-3984.8,537.6 -3984.8,525 -3972.1,525 -3972.1,512.3 -3984.8,512.3 -3984.8,499.7 -3997.4,499.7 -3997.4,487 -4010.1,487 
					-4010.1,475.4 				"/>
			</g>
			<polygon class="st2" points="-3923.6,548.2 -3908.8,572.4 -3908.9,548.2 			"/>
		</g>
		<g>
			<rect x="-3923.6" y="461.7" class="st2" width="510.3" height="86.5"/>
			<rect x="-3923.6" y="449.1" class="st3" width="510.3" height="86.5"/>
		</g>
	</g>
</g>
<g>
	<g>
		<path class="st25" d="M-3809.5,524h-37.4v-59.9h37.4v7.5h7.5v15h-7.5v15h7.5v15h-7.5V524z M-3831.9,486.6h15v-7.5h-15V486.6z
			 M-3831.9,509.1h15v-7.5h-15V509.1z"/>
		<path class="st25" d="M-3779.5,524h-15v-52.4h7.5v-7.5h30v7.5h7.5V524h-15v-22.5h-15V524z M-3764.5,486.6v-7.5h-15v7.5H-3764.5z"
			/>
		<path class="st25" d="M-3734.6,516.5h-7.5v-52.4h15v44.9h30v15h-37.4V516.5z"/>
		<path class="st25" d="M-3682.1,516.5h-7.5v-52.4h15v44.9h30v15h-37.4V516.5z"/>
		<path class="st25" d="M-3637.2,471.6h7.5v-7.5h30v7.5h7.5v44.9h-7.5v7.5h-30v-7.5h-7.5V471.6z M-3622.2,509.1h15v-30h-15V509.1z"
			/>
		<path class="st25" d="M-3584.8,471.6h7.5v-7.5h30v7.5h7.5v44.9h-7.5v7.5h-30v-7.5h-7.5V471.6z M-3569.8,509.1h15v-30h-15V509.1z"
			/>
		<path class="st25" d="M-3509.9,494.1h-7.5v30h-15v-59.9h15v7.5h7.5v7.5h7.5v-15h15V524h-15v-22.5h-7.5V494.1z"/>
	</g>
	<g>
		<path class="st22" d="M-3809.5,518.2h-37.4v-59.9h37.4v7.5h7.5v15h-7.5v15h7.5v15h-7.5V518.2z M-3831.9,480.8h15v-7.5h-15V480.8z
			 M-3831.9,503.2h15v-7.5h-15V503.2z"/>
		<path class="st22" d="M-3779.5,518.2h-15v-52.4h7.5v-7.5h30v7.5h7.5v52.4h-15v-22.5h-15V518.2z M-3764.5,480.8v-7.5h-15v7.5
			H-3764.5z"/>
		<path class="st22" d="M-3734.6,510.7h-7.5v-52.4h15v44.9h30v15h-37.4V510.7z"/>
		<path class="st22" d="M-3682.1,510.7h-7.5v-52.4h15v44.9h30v15h-37.4V510.7z"/>
		<path class="st22" d="M-3637.2,465.8h7.5v-7.5h30v7.5h7.5v44.9h-7.5v7.5h-30v-7.5h-7.5V465.8z M-3622.2,503.2h15v-30h-15V503.2z"
			/>
		<path class="st22" d="M-3584.8,465.8h7.5v-7.5h30v7.5h7.5v44.9h-7.5v7.5h-30v-7.5h-7.5V465.8z M-3569.8,503.2h15v-30h-15V503.2z"
			/>
		<path class="st22" d="M-3509.9,488.3h-7.5v30h-15v-59.9h15v7.5h7.5v7.5h7.5v-15h15v59.9h-15v-22.5h-7.5V488.3z"/>
	</g>
</g>
<g>
	<path class="st0" d="M-3317.8,670.8h20.7v6.9h-20.7V670.8z"/>
	<path class="st0" d="M-3262.5,688h-6.9v-27.6h17.3v3.5h3.5v10.4h-3.5v3.5h-10.4V688z M-3262.5,670.8h6.9v-3.5h-6.9V670.8z"/>
	<path class="st0" d="M-3234.9,677.7h-3.5V688h-6.9v-27.6h17.3v3.5h3.5v10.4h-3.5v3.5h3.5V688h-6.9v-6.9h-3.5V677.7z M-3238.4,670.8
		h6.9v-3.5h-6.9V670.8z"/>
	<path class="st0" d="M-3217.6,684.6h-3.5v-20.7h3.5v-3.5h17.3v6.9h-13.8v3.5h6.9v6.9h-6.9v3.5h13.8v6.9h-17.3V684.6z"/>
	<path class="st0" d="M-3196.9,663.9h3.5v-3.5h17.3v6.9h-13.8v3.5h10.4v3.5h3.5v10.4h-3.5v3.5h-17.3v-6.9h13.8v-3.5h-10.4v-3.5h-3.5
		V663.9z"/>
	<path class="st0" d="M-3172.7,663.9h3.5v-3.5h17.3v6.9h-13.8v3.5h10.4v3.5h3.5v10.4h-3.5v3.5h-17.3v-6.9h13.8v-3.5h-10.4v-3.5h-3.5
		V663.9z"/>
	<path class="st0" d="M-3117.4,688h-6.9v-24.2h3.5v-3.5h13.8v3.5h3.5V688h-6.9v-10.4h-6.9V688z M-3110.5,670.8v-3.5h-6.9v3.5
		H-3110.5z"/>
	<path class="st0" d="M-3089.7,674.2h-3.5V688h-6.9v-27.6h6.9v3.5h3.5v3.5h3.5v-6.9h6.9V688h-6.9v-10.4h-3.5V674.2z"/>
	<path class="st0" d="M-3075.9,660.4h6.9v10.4h6.9v-10.4h6.9v13.8h-3.5v3.5h-3.5V688h-6.9v-10.4h-3.5v-3.5h-3.5V660.4z"/>
	<path class="st0" d="M-3020.6,688h-6.9v-27.6h6.9v6.9h3.5v-3.5h3.5v-3.5h6.9v6.9h-3.5v3.5h-3.5v6.9h3.5v3.5h3.5v6.9h-6.9v-3.5h-3.5
		v-3.5h-3.5V688z"/>
	<path class="st0" d="M-2999.9,684.6h-3.5v-20.7h3.5v-3.5h17.3v6.9h-13.8v3.5h6.9v6.9h-6.9v3.5h13.8v6.9h-17.3V684.6z"/>
	<path class="st0" d="M-2979.2,660.4h6.9v10.4h6.9v-10.4h6.9v13.8h-3.5v3.5h-3.5V688h-6.9v-10.4h-3.5v-3.5h-3.5V660.4z"/>
	<path class="st0" d="M-2930.8,660.4h20.7v6.9h-6.9V688h-6.9v-20.7h-6.9V660.4z"/>
	<path class="st0" d="M-2906.6,663.9h3.5v-3.5h13.8v3.5h3.5v20.7h-3.5v3.5h-13.8v-3.5h-3.5V663.9z M-2899.7,681.1h6.9v-13.8h-6.9
		V681.1z"/>
	<path class="st0" d="M-2851.3,688h-6.9v-27.6h17.3v3.5h3.5v10.4h-3.5v3.5h-10.4V688z M-2851.3,670.8h6.9v-3.5h-6.9V670.8z"/>
	<path class="st0" d="M-2830.6,684.6h-3.5v-24.2h6.9v20.7h13.8v6.9h-17.3V684.6z"/>
	<path class="st0" d="M-2802.9,688h-6.9v-24.2h3.5v-3.5h13.8v3.5h3.5V688h-6.9v-10.4h-6.9V688z M-2796,670.8v-3.5h-6.9v3.5H-2796z"
		/>
	<path class="st0" d="M-2785.6,660.4h6.9v10.4h6.9v-10.4h6.9v13.8h-3.5v3.5h-3.5V688h-6.9v-10.4h-3.5v-3.5h-3.5V660.4z"/>
	<path class="st0" d="M-2737.2,670.8h20.7v6.9h-20.7V670.8z"/>
</g>
<g>
	<path class="st30" d="M-3318.7,664.9h20.7v6.9h-20.7V664.9z"/>
	<path class="st30" d="M-3263.4,682.1h-6.9v-27.6h17.3v3.5h3.5v10.4h-3.5v3.5h-10.4V682.1z M-3263.4,664.9h6.9v-3.5h-6.9V664.9z"/>
	<path class="st30" d="M-3235.8,671.8h-3.5v10.4h-6.9v-27.6h17.3v3.5h3.5v10.4h-3.5v3.5h3.5v10.4h-6.9v-6.9h-3.5V671.8z
		 M-3239.2,664.9h6.9v-3.5h-6.9V664.9z"/>
	<path class="st30" d="M-3218.5,678.7h-3.5V658h3.5v-3.5h17.3v6.9h-13.8v3.5h6.9v6.9h-6.9v3.5h13.8v6.9h-17.3V678.7z"/>
	<path class="st30" d="M-3197.7,658h3.5v-3.5h17.3v6.9h-13.8v3.5h10.4v3.5h3.5v10.4h-3.5v3.5h-17.3v-6.9h13.8v-3.5h-10.4v-3.5h-3.5
		V658z"/>
	<path class="st30" d="M-3173.6,658h3.5v-3.5h17.3v6.9h-13.8v3.5h10.4v3.5h3.5v10.4h-3.5v3.5h-17.3v-6.9h13.8v-3.5h-10.4v-3.5h-3.5
		V658z"/>
	<path class="st30" d="M-3118.3,682.1h-6.9V658h3.5v-3.5h13.8v3.5h3.5v24.2h-6.9v-10.4h-6.9V682.1z M-3111.3,664.9v-3.5h-6.9v3.5
		H-3111.3z"/>
	<path class="st30" d="M-3090.6,668.3h-3.5v13.8h-6.9v-27.6h6.9v3.5h3.5v3.5h3.5v-6.9h6.9v27.6h-6.9v-10.4h-3.5V668.3z"/>
	<path class="st30" d="M-3076.8,654.5h6.9v10.4h6.9v-10.4h6.9v13.8h-3.5v3.5h-3.5v10.4h-6.9v-10.4h-3.5v-3.5h-3.5V654.5z"/>
	<path class="st30" d="M-3021.5,682.1h-6.9v-27.6h6.9v6.9h3.5V658h3.5v-3.5h6.9v6.9h-3.5v3.5h-3.5v6.9h3.5v3.5h3.5v6.9h-6.9v-3.5
		h-3.5v-3.5h-3.5V682.1z"/>
	<path class="st30" d="M-3000.8,678.7h-3.5V658h3.5v-3.5h17.3v6.9h-13.8v3.5h6.9v6.9h-6.9v3.5h13.8v6.9h-17.3V678.7z"/>
	<path class="st30" d="M-2980,654.5h6.9v10.4h6.9v-10.4h6.9v13.8h-3.5v3.5h-3.5v10.4h-6.9v-10.4h-3.5v-3.5h-3.5V654.5z"/>
	<path class="st30" d="M-2931.6,654.5h20.7v6.9h-6.9v20.7h-6.9v-20.7h-6.9V654.5z"/>
	<path class="st30" d="M-2907.4,658h3.5v-3.5h13.8v3.5h3.5v20.7h-3.5v3.5h-13.8v-3.5h-3.5V658z M-2900.5,675.2h6.9v-13.8h-6.9V675.2
		z"/>
	<path class="st30" d="M-2852.2,682.1h-6.9v-27.6h17.3v3.5h3.5v10.4h-3.5v3.5h-10.4V682.1z M-2852.2,664.9h6.9v-3.5h-6.9V664.9z"/>
	<path class="st30" d="M-2831.4,678.7h-3.5v-24.2h6.9v20.7h13.8v6.9h-17.3V678.7z"/>
	<path class="st30" d="M-2803.8,682.1h-6.9V658h3.5v-3.5h13.8v3.5h3.5v24.2h-6.9v-10.4h-6.9V682.1z M-2796.9,664.9v-3.5h-6.9v3.5
		H-2796.9z"/>
	<path class="st30" d="M-2786.5,654.5h6.9v10.4h6.9v-10.4h6.9v13.8h-3.5v3.5h-3.5v10.4h-6.9v-10.4h-3.5v-3.5h-3.5V654.5z"/>
	<path class="st30" d="M-2738.1,664.9h20.7v6.9h-20.7V664.9z"/>
</g>
<g>
	<path class="st4" d="M-3318.7,660.5h20.7v6.9h-20.7V660.5z"/>
	<path class="st4" d="M-3263.4,677.7h-6.9v-27.6h17.3v3.5h3.5v10.4h-3.5v3.5h-10.4V677.7z M-3263.4,660.5h6.9V657h-6.9V660.5z"/>
	<path class="st4" d="M-3235.8,667.4h-3.5v10.4h-6.9v-27.6h17.3v3.5h3.5v10.4h-3.5v3.5h3.5v10.4h-6.9v-6.9h-3.5V667.4z
		 M-3239.2,660.5h6.9V657h-6.9V660.5z"/>
	<path class="st4" d="M-3218.5,674.3h-3.5v-20.7h3.5v-3.5h17.3v6.9h-13.8v3.5h6.9v6.9h-6.9v3.5h13.8v6.9h-17.3V674.3z"/>
	<path class="st4" d="M-3197.7,653.5h3.5v-3.5h17.3v6.9h-13.8v3.5h10.4v3.5h3.5v10.4h-3.5v3.5h-17.3v-6.9h13.8v-3.5h-10.4v-3.5h-3.5
		V653.5z"/>
	<path class="st4" d="M-3173.6,653.5h3.5v-3.5h17.3v6.9h-13.8v3.5h10.4v3.5h3.5v10.4h-3.5v3.5h-17.3v-6.9h13.8v-3.5h-10.4v-3.5h-3.5
		V653.5z"/>
	<path class="st4" d="M-3118.3,677.7h-6.9v-24.2h3.5v-3.5h13.8v3.5h3.5v24.2h-6.9v-10.4h-6.9V677.7z M-3111.3,660.5V657h-6.9v3.5
		H-3111.3z"/>
	<path class="st4" d="M-3090.6,663.9h-3.5v13.8h-6.9v-27.6h6.9v3.5h3.5v3.5h3.5v-6.9h6.9v27.6h-6.9v-10.4h-3.5V663.9z"/>
	<path class="st4" d="M-3076.8,650.1h6.9v10.4h6.9v-10.4h6.9v13.8h-3.5v3.5h-3.5v10.4h-6.9v-10.4h-3.5v-3.5h-3.5V650.1z"/>
	<path class="st4" d="M-3021.5,677.7h-6.9v-27.6h6.9v6.9h3.5v-3.5h3.5v-3.5h6.9v6.9h-3.5v3.5h-3.5v6.9h3.5v3.5h3.5v6.9h-6.9v-3.5
		h-3.5v-3.5h-3.5V677.7z"/>
	<path class="st4" d="M-3000.8,674.3h-3.5v-20.7h3.5v-3.5h17.3v6.9h-13.8v3.5h6.9v6.9h-6.9v3.5h13.8v6.9h-17.3V674.3z"/>
	<path class="st4" d="M-2980,650.1h6.9v10.4h6.9v-10.4h6.9v13.8h-3.5v3.5h-3.5v10.4h-6.9v-10.4h-3.5v-3.5h-3.5V650.1z"/>
	<path class="st4" d="M-2931.6,650.1h20.7v6.9h-6.9v20.7h-6.9V657h-6.9V650.1z"/>
	<path class="st4" d="M-2907.4,653.5h3.5v-3.5h13.8v3.5h3.5v20.7h-3.5v3.5h-13.8v-3.5h-3.5V653.5z M-2900.5,670.8h6.9V657h-6.9
		V670.8z"/>
	<path class="st4" d="M-2852.2,677.7h-6.9v-27.6h17.3v3.5h3.5v10.4h-3.5v3.5h-10.4V677.7z M-2852.2,660.5h6.9V657h-6.9V660.5z"/>
	<path class="st4" d="M-2831.4,674.3h-3.5v-24.2h6.9v20.7h13.8v6.9h-17.3V674.3z"/>
	<path class="st4" d="M-2803.8,677.7h-6.9v-24.2h3.5v-3.5h13.8v3.5h3.5v24.2h-6.9v-10.4h-6.9V677.7z M-2796.9,660.5V657h-6.9v3.5
		H-2796.9z"/>
	<path class="st4" d="M-2786.5,650.1h6.9v10.4h6.9v-10.4h6.9v13.8h-3.5v3.5h-3.5v10.4h-6.9v-10.4h-3.5v-3.5h-3.5V650.1z"/>
	<path class="st4" d="M-2738.1,660.5h20.7v6.9h-20.7V660.5z"/>
</g>
<path class="st31" d="M-556.9-41.6h-2.2h-10.8h-38.7h-12.9H-2148h-12.9h-38.7h-12.9h-12.9v22.6v840.8V833v33.9v11.3v11.3h25.8
	h1578.2h12.9h38.7h10.8h2.2h12.9V-41.6H-556.9z M-569.8,14.8V833v11.3h-12.9v11.3h-12.9v11.3h-12.9h-1552.4h-12.9v-11.3h-12.9v-11.3
	h-12.9V833V14.8V3.5h12.9V-7.8h12.9v-11.3h12.9h204.3h135.5h1212.7h12.9v11.3h12.9V3.5h12.9V14.8z"/>
<polygon class="st32" points="-1836.9,-398.9 -1836.9,-407.7 -1846.7,-407.7 -2203.5,-407.7 -2203.5,-324.3 -1847.4,-324.3 
	-1847.4,-332.9 -1846.7,-332.9 -1836.9,-332.9 -1836.9,-339.9 -1836.9,-341.7 -1827,-341.7 -1827,-348.6 -1827,-398.9 "/>
<polygon class="st31" points="-1837.3,-407.6 -1837.3,-416.4 -1847.2,-416.4 -2214.5,-416.4 -2214.5,-409.4 -2214.5,-407.6 
	-2224.4,-407.6 -2224.4,-357.3 -2214.6,-357.3 -2214.6,-350.4 -2214.5,-350.4 -2214.5,-341.6 -2204,-341.6 -2204,-332.9 
	-1847.9,-332.9 -1847.9,-341.6 -1847.2,-341.6 -1837.3,-341.6 -1837.3,-348.6 -1837.3,-350.4 -1827.5,-350.4 -1827.5,-357.3 
	-1827.5,-407.6 "/>
<rect x="-2286.3" y="-191.6" class="st13" width="92.2" height="32.8"/>
<text transform="matrix(1 0 0 1 -2265.1943 -173.3971)" class="st4" style="font-family:'EditUndoBRK'; font-size:31.5429px;">DMG</text>
<g>
	<g>
		<polygon class="st22" points="-2086.5,-157.2 -1831.8,-157.2 -1831.8,-175.2 -2086.5,-175.2 -2086.5,-175.1 -2086.5,-170 
			-2093.5,-170 -2093.5,-162.3 -2086.5,-162.3 -2086.5,-157.2 		"/>
	</g>
	<polygon class="st22" points="-1823.2,-170 -1823.2,-175.1 -1823.2,-175.2 -1878.9,-175.2 -1878.9,-157.2 -1823.2,-157.2 
		-1823.2,-157.3 -1823.2,-162.4 -1816.2,-162.4 -1816.2,-170 	"/>
</g>
<g class="st33">
	<polygon class="st34" points="-1442.9,55.9 -1442.9,-22.1 -1532.9,-22.1 -1532.9,-12 -1542.9,-12 -1542.9,45.9 -1532.9,45.9 
		-1532.9,55.9 	"/>
	<polygon class="st34" points="-1207.9,-13 -1207.9,-23.1 -1218,-23.1 -1299.9,-23.1 -1299.9,54.9 -1218,54.9 -1207.9,54.9 
		-1207.9,44.9 -1197.8,44.9 -1197.8,-13 	"/>
	<rect x="-1522.9" y="-13.1" class="st34" width="305" height="78"/>
</g>
<g>
	<polygon class="st31" points="-1432.9,55.9 -1432.9,-22.1 -1522.9,-22.1 -1522.9,-12 -1532.9,-12 -1532.9,45.9 -1522.9,45.9 
		-1522.9,55.9 	"/>
	<polygon class="st31" points="-1442.9,45.9 -1442.9,-32.1 -1532.9,-32.1 -1532.9,-22 -1542.9,-22 -1542.9,35.9 -1532.9,35.9 
		-1532.9,45.9 	"/>
	<polygon class="st31" points="-1217.9,-12 -1217.9,-22.1 -1228,-22.1 -1309.9,-22.1 -1309.9,55.9 -1228,55.9 -1217.9,55.9 
		-1217.9,45.9 -1207.8,45.9 -1207.8,-12 	"/>
	<polygon class="st31" points="-1207.9,-22 -1207.9,-32.1 -1218,-32.1 -1299.9,-32.1 -1299.9,45.9 -1218,45.9 -1207.9,45.9 
		-1207.9,35.9 -1197.8,35.9 -1197.8,-22 	"/>
	<rect x="-1432.9" y="-22.1" class="st31" width="123" height="78"/>
</g>
<g>
	<polygon class="st35" points="-1432.9,45.9 -1432.9,-32.1 -1522.9,-32.1 -1522.9,-22 -1532.9,-22 -1532.9,35.9 -1522.9,35.9 
		-1522.9,45.9 	"/>
	<polygon class="st35" points="-1217.9,-22 -1217.9,-32.1 -1228,-32.1 -1295.9,-32.1 -1295.9,45.9 -1228,45.9 -1217.9,45.9 
		-1217.9,35.9 -1207.8,35.9 -1207.8,-22 	"/>
</g>
<g class="st33">
	<polygon class="st34" points="-1709.3,-339.7 -1709.3,-409.7 -1789.9,-409.7 -1789.9,-400.6 -1798.9,-400.6 -1798.9,-348.7 
		-1789.9,-348.7 -1789.9,-339.7 	"/>
	<polygon class="st34" points="-1498.5,-401.5 -1498.5,-410.6 -1507.5,-410.6 -1581,-410.6 -1581,-340.6 -1507.5,-340.6 
		-1498.5,-340.6 -1498.5,-349.6 -1489.4,-349.6 -1489.4,-401.5 	"/>
	<rect x="-1781" y="-401.6" class="st34" width="273.6" height="70"/>
</g>
<g>
	<polygon class="st31" points="-1700.3,-339.7 -1700.3,-409.7 -1781,-409.7 -1781,-400.6 -1790,-400.6 -1790,-348.7 -1781,-348.7 
		-1781,-339.7 	"/>
	<polygon class="st31" points="-1709.3,-348.7 -1709.3,-418.6 -1789.9,-418.6 -1789.9,-409.6 -1798.9,-409.6 -1798.9,-357.7 
		-1789.9,-357.7 -1789.9,-348.7 	"/>
	<polygon class="st31" points="-1507.4,-400.6 -1507.4,-409.7 -1516.4,-409.7 -1590,-409.7 -1590,-339.7 -1516.4,-339.7 
		-1507.4,-339.7 -1507.4,-348.7 -1498.4,-348.7 -1498.4,-400.6 	"/>
	<polygon class="st31" points="-1498.5,-409.6 -1498.5,-418.6 -1507.5,-418.6 -1581,-418.6 -1581,-348.7 -1507.5,-348.7 
		-1498.5,-348.7 -1498.5,-357.7 -1489.4,-357.7 -1489.4,-409.6 	"/>
	<rect x="-1700.3" y="-409.7" class="st31" width="110.3" height="70"/>
</g>
<g>
	<polygon class="st35" points="-1700.3,-348.7 -1700.3,-418.6 -1780.9,-418.6 -1780.9,-409.6 -1790,-409.6 -1790,-357.7 
		-1780.9,-357.7 -1780.9,-348.7 	"/>
	<polygon class="st35" points="-1507.4,-409.6 -1507.4,-418.6 -1516.4,-418.6 -1577.4,-418.6 -1577.4,-348.7 -1516.4,-348.7 
		-1507.4,-348.7 -1507.4,-357.7 -1498.4,-357.7 -1498.4,-409.6 	"/>
</g>
<rect x="-1447.9" y="-32.1" class="st35" width="169" height="78"/>
<rect x="-1713.7" y="-418.6" class="st35" width="151.6" height="70"/>
<g>
	<rect x="-1452.9" y="0.2" class="st13" width="179" height="81.8"/>
	<text transform="matrix(1 0 0 1 -1430.8376 27.8259)" class="st4" style="font-family:'EditUndoBRK'; font-size:48px;">124 KM</text>
</g>
<g>
	<rect x="-567.3" y="-22.1" class="st32" width="8" height="2"/>
	<polygon class="st32" points="-648.4,-22.1 -648.4,-12 -658.3,-12 -658.3,45.9 -648.4,45.9 -648.4,55.9 -648.4,55.9 -648.4,55.9 
		-638.5,55.9 -638.5,65.9 -583.3,65.9 -583.3,-22.1 	"/>
</g>
<polygon class="st31" points="-558.3,-22.1 -558.3,-32.1 -648.3,-32.1 -648.3,-22 -658.3,-22 -658.3,35.9 -648.3,35.9 -648.3,45.9 
	-648.3,45.9 -648.3,45.9 -638.3,45.9 -638.3,55.9 -548.3,55.9 -548.3,-22.1 "/>
<g>
	<g>
		<g>
			<polygon class="st2" points="-588.3,-10.5 -593.6,-10.5 -626.1,-10.5 -626.1,-5.2 -631.4,-5.2 -631.4,32.6 -626.1,32.6 
				-626.1,37.9 -593.6,37.9 -588.3,37.9 -588.3,32.6 -582.9,32.6 -582.9,-5.2 -588.3,-5.2 			"/>
			<polygon class="st3" points="-588,-16.3 -593.4,-16.3 -626.1,-16.3 -626.1,-10.9 -631.4,-10.9 -631.4,27.2 -626.1,27.2 
				-626.1,32.5 -593.4,32.5 -588,32.5 -588,27.2 -582.6,27.2 -582.6,-10.9 -588,-10.9 			"/>
		</g>
		<g>
			<rect x="-618.5" y="12.8" class="st4" width="24.2" height="4.8"/>
			<rect x="-618.5" y="1.6" class="st4" width="24.2" height="4.8"/>
		</g>
	</g>
	<g class="st33">
		<polygon class="st36" points="-626.1,38.1 -626.1,43.1 -620.7,43.1 -588,43.1 -588,38.1 -620.7,38.1 		"/>
		<rect x="-631.4" y="32.7" class="st36" width="5.4" height="5"/>
		<rect x="-588" y="32.7" class="st36" width="5.4" height="5"/>
	</g>
</g>
<g>
	<g>
		<g>
			<polygon class="st2" points="-1234.8,-400 -1238.9,-400 -1264.3,-400 -1264.3,-395.9 -1268.4,-395.9 -1268.4,-366.4 
				-1264.3,-366.4 -1264.3,-362.2 -1238.9,-362.2 -1234.8,-362.2 -1234.8,-366.4 -1230.6,-366.4 -1230.6,-395.9 -1234.8,-395.9 			
				"/>
			<polygon class="st3" points="-1234.6,-404.5 -1238.8,-404.5 -1264.2,-404.5 -1264.2,-400.3 -1268.4,-400.3 -1268.4,-370.7 
				-1264.2,-370.7 -1264.2,-366.5 -1238.8,-366.5 -1234.6,-366.5 -1234.6,-370.7 -1230.4,-370.7 -1230.4,-400.3 -1234.6,-400.3 			
				"/>
		</g>
		<g>
			
				<rect x="-1263.7" y="-387.2" transform="matrix(-1.836970e-16 1 -1 -1.836970e-16 -1639.5872 868.9895)" class="st4" width="18.9" height="3.8"/>
			
				<rect x="-1253" y="-387.2" transform="matrix(-1.836970e-16 1 -1 -1.836970e-16 -1628.8848 858.287)" class="st4" width="18.9" height="3.8"/>
		</g>
	</g>
	<g class="st33">
		<polygon class="st36" points="-1264.2,-362.1 -1264.2,-358.2 -1260.1,-358.2 -1234.6,-358.2 -1234.6,-362.1 -1260.1,-362.1 		"/>
		<rect x="-1268.4" y="-366.3" class="st36" width="4.2" height="3.9"/>
		<rect x="-1234.6" y="-366.3" class="st36" width="4.2" height="3.9"/>
	</g>
</g>
<polygon class="st22" points="-2059.9,-274.8 -2059.9,-278.5 -2069.5,-278.5 -2069.9,-278.5 -2079.2,-278.5 -2079.5,-278.5 
	-2088.8,-278.5 -2089.2,-278.5 -2098.8,-278.5 -2098.8,-274.8 -2103.6,-274.8 -2103.6,-269.3 -2098.8,-269.3 -2098.8,-265.6 
	-2098.5,-265.6 -2094.3,-265.6 -2093.5,-265.6 -2089.3,-265.6 -2089.2,-265.6 -2088.9,-265.6 -2088.8,-265.6 -2084.7,-265.6 
	-2083.9,-265.6 -2079.7,-265.6 -2079.5,-265.6 -2079.3,-265.6 -2079.2,-265.6 -2075.1,-265.6 -2074.3,-265.6 -2070.1,-265.6 
	-2069.9,-265.6 -2069.7,-265.6 -2069.5,-265.6 -2065.5,-265.6 -2064.6,-265.6 -2060.4,-265.6 -2059.9,-265.6 -2059.9,-269.3 
	-2055.4,-269.3 -2055.4,-274.8 "/>
<polygon class="st22" points="-2053.2,-511.6 -2053.2,-515.4 -2062.8,-515.4 -2063.2,-515.4 -2072.4,-515.4 -2072.8,-515.4 
	-2082.1,-515.4 -2082.4,-515.4 -2092.1,-515.4 -2092.1,-511.7 -2096.8,-511.7 -2096.8,-506.2 -2092.1,-506.2 -2092.1,-502.5 
	-2091.8,-502.5 -2087.6,-502.5 -2086.8,-502.5 -2082.6,-502.5 -2082.4,-502.5 -2082.2,-502.5 -2082.1,-502.5 -2078,-502.5 
	-2077.2,-502.5 -2073,-502.5 -2072.8,-502.5 -2072.6,-502.5 -2072.4,-502.5 -2068.4,-502.5 -2067.5,-502.5 -2063.3,-502.5 
	-2063.2,-502.5 -2062.9,-502.5 -2062.8,-502.5 -2058.7,-502.5 -2057.9,-502.5 -2053.7,-502.5 -2053.2,-502.5 -2053.2,-506.2 
	-2048.7,-506.2 -2048.7,-511.6 "/>
<polygon class="st37" points="-1899.3,-511.6 -1899.3,-515.4 -1908.9,-515.4 -1909.3,-515.4 -1918.6,-515.4 -1918.9,-515.4 
	-1928.2,-515.4 -1928.6,-515.4 -1937.6,-515.4 -1938.2,-515.4 -1947.2,-515.4 -1947.6,-515.4 -1956.9,-515.4 -1957.2,-515.4 
	-1966.5,-515.4 -1966.9,-515.4 -1976.1,-515.4 -1976.5,-515.4 -1985.8,-515.4 -1986.1,-515.4 -1995.4,-515.4 -1995.8,-515.4 
	-2005,-515.4 -2005.4,-515.4 -2014.7,-515.4 -2015,-515.4 -2024.3,-515.4 -2024.7,-515.4 -2033.9,-515.4 -2034.3,-515.4 
	-2043.5,-515.4 -2043.9,-515.4 -2053.2,-515.4 -2053.6,-515.4 -2062.8,-515.4 -2063.2,-515.4 -2072.4,-515.4 -2072.8,-515.4 
	-2082.1,-515.4 -2082.4,-515.4 -2092.1,-515.4 -2092.1,-511.7 -2096.8,-511.7 -2096.8,-506.2 -2092.1,-506.2 -2092.1,-502.5 
	-2091.8,-502.5 -2087.6,-502.5 -2086.8,-502.5 -2082.6,-502.5 -2082.4,-502.5 -2082.2,-502.5 -2082.1,-502.5 -2078,-502.5 
	-2077.2,-502.5 -2073,-502.5 -2072.8,-502.5 -2072.6,-502.5 -2072.4,-502.5 -2068.4,-502.5 -2067.5,-502.5 -2063.3,-502.5 
	-2063.2,-502.5 -2062.9,-502.5 -2062.8,-502.5 -2058.7,-502.5 -2057.9,-502.5 -2053.7,-502.5 -2053.6,-502.5 -2053.3,-502.5 
	-2053.2,-502.5 -2049.1,-502.5 -2048.3,-502.5 -2044.1,-502.5 -2043.9,-502.5 -2043.7,-502.5 -2043.5,-502.5 -2039.5,-502.5 
	-2038.6,-502.5 -2034.4,-502.5 -2034.3,-502.5 -2034,-502.5 -2033.9,-502.5 -2029.8,-502.5 -2029,-502.5 -2024.8,-502.5 
	-2024.7,-502.5 -2024.4,-502.5 -2024.3,-502.5 -2020.2,-502.5 -2019.4,-502.5 -2015.2,-502.5 -2015,-502.5 -2014.8,-502.5 
	-2014.7,-502.5 -2010.6,-502.5 -2009.8,-502.5 -2005.5,-502.5 -2005.4,-502.5 -2005.2,-502.5 -2005,-502.5 -2000.9,-502.5 
	-2000.1,-502.5 -1995.9,-502.5 -1995.8,-502.5 -1995.5,-502.5 -1995.4,-502.5 -1991.3,-502.5 -1990.5,-502.5 -1986.3,-502.5 
	-1986.1,-502.5 -1985.9,-502.5 -1985.8,-502.5 -1981.7,-502.5 -1980.9,-502.5 -1976.7,-502.5 -1976.5,-502.5 -1976.3,-502.5 
	-1976.1,-502.5 -1972.1,-502.5 -1971.2,-502.5 -1967,-502.5 -1966.9,-502.5 -1966.6,-502.5 -1966.5,-502.5 -1962.4,-502.5 
	-1961.6,-502.5 -1957.4,-502.5 -1957.2,-502.5 -1957,-502.5 -1956.9,-502.5 -1952.8,-502.5 -1952,-502.5 -1947.8,-502.5 
	-1947.6,-502.5 -1947.4,-502.5 -1947.2,-502.5 -1943.2,-502.5 -1942.3,-502.5 -1938.2,-502.5 -1938.1,-502.5 -1938,-502.5 
	-1937.6,-502.5 -1933.8,-502.5 -1932.9,-502.5 -1928.7,-502.5 -1928.6,-502.5 -1928.3,-502.5 -1928.2,-502.5 -1924.1,-502.5 
	-1923.3,-502.5 -1919.1,-502.5 -1918.9,-502.5 -1918.7,-502.5 -1918.6,-502.5 -1914.5,-502.5 -1913.7,-502.5 -1909.5,-502.5 
	-1909.3,-502.5 -1909.1,-502.5 -1908.9,-502.5 -1904.9,-502.5 -1904,-502.5 -1899.8,-502.5 -1899.3,-502.5 -1899.3,-506.2 
	-1894.8,-506.2 -1894.8,-511.6 "/>
<g>
	<polygon class="st31" points="-348.3,866.9 -343,866.9 -330.1,866.9 -330.1,855.6 -317.2,855.6 -317.2,844.3 -304.3,844.3 
		-304.3,833 -304.3,819.7 -278.5,819.7 -278.5,821.7 -278.5,833 -278.5,866.9 -278.5,878.2 -278.5,889.5 -304.3,889.5 -348.3,889.5 
			"/>
</g>
<g>
	<polygon class="st31" points="-282.1,819.7 -282.1,825.1 -282.1,838 -270.8,838 -270.8,850.9 -259.5,850.9 -259.5,863.8 
		-248.2,863.8 -234.9,863.8 -234.9,889.6 -236.9,889.6 -248.2,889.6 -282.1,889.6 -293.4,889.6 -304.7,889.6 -304.7,863.8 
		-304.7,819.7 	"/>
</g>
<g>
	<polygon class="st31" points="-334.3,866.9 -334.3,872.2 -334.3,885.1 -323,885.1 -323,898 -311.7,898 -311.7,910.9 -300.4,910.9 
		-287,910.9 -287,936.7 -289.1,936.7 -300.4,936.7 -334.3,936.7 -345.6,936.7 -356.9,936.7 -356.9,910.9 -356.9,866.9 	"/>
</g>
<g>
	<polygon class="st31" points="-415.5,866.9 -420.8,866.9 -433.7,866.9 -433.7,855.6 -446.6,855.6 -446.6,844.3 -459.5,844.3 
		-459.5,833 -459.5,819.7 -485.3,819.7 -485.3,821.7 -485.3,833 -485.3,866.9 -485.3,878.2 -485.3,889.5 -459.5,889.5 -415.5,889.5 
			"/>
</g>
<g>
	<polygon class="st31" points="-360.1,914.2 -365.4,914.2 -378.3,914.2 -378.3,902.9 -391.2,902.9 -391.2,891.6 -404.1,891.6 
		-404.1,880.3 -404.1,866.9 -429.9,866.9 -429.9,869 -429.9,880.3 -429.9,914.2 -429.9,925.5 -429.9,936.7 -404.1,936.7 
		-360.1,936.7 	"/>
</g>
<g>
	<polygon class="st31" points="-482.5,830.5 -482.5,835.9 -482.5,848.8 -493.8,848.8 -493.8,861.7 -505.1,861.7 -505.1,874.6 
		-516.4,874.6 -529.8,874.6 -529.8,900.4 -527.7,900.4 -516.4,900.4 -482.5,900.4 -471.2,900.4 -459.9,900.4 -459.9,874.6 
		-459.9,830.5 	"/>
</g>
<polygon class="st32" points="-1308.6,-391.7 -1308.6,-400.7 -1308.7,-400.7 -1308.7,-400.8 -1317.6,-400.8 -1317.6,-409.7 
	-1345.5,-409.7 -1352.7,-409.7 -1367,-409.7 -1425.4,-409.7 -1425.4,-400.7 -1434.3,-400.7 -1434.3,-348.8 -1425.5,-348.8 
	-1425.5,-339.8 -1425.4,-339.8 -1425.4,-339.7 -1416.5,-339.7 -1416.5,-330.8 -1367,-330.8 -1366.2,-330.8 -1366.2,-339.7 
	-1344.5,-339.7 -1344.5,-330.8 -1308.7,-330.8 -1308.7,-339.8 -1299.7,-339.8 -1299.7,-391.7 "/>
<polygon class="st31" points="-1344.6,-409.7 -1344.6,-418.7 -1425.3,-418.7 -1425.3,-409.7 -1434.3,-409.7 -1434.3,-357.8 
	-1425.4,-357.8 -1425.4,-348.8 -1425.3,-348.8 -1425.3,-348.7 -1416.3,-348.7 -1416.3,-339.7 -1335.6,-339.7 -1335.6,-409.7 "/>
<g>
	<polygon class="st7" points="778.1,24.9 761.6,24.9 761.6,17 745.1,17 745.1,8.2 33,8.2 33,17 16.5,17 16.5,24.9 0,24.9 0,492.8 
		16.5,492.8 16.5,500.8 33,500.8 33,509.6 745.1,509.6 745.1,500.8 761.6,500.8 761.6,492.8 778.1,492.8 	"/>
	<polygon class="st8" points="778.1,16.7 761.6,16.7 761.6,8.8 745.1,8.8 745.1,0 33,0 33,8.8 16.5,8.8 16.5,16.7 0,16.7 0,484.6 
		16.5,484.6 16.5,492.6 33,492.6 33,501.3 745.1,501.3 745.1,492.6 761.6,492.6 761.6,484.6 778.1,484.6 	"/>
</g>
<g>
	<g>
		<polygon class="st20" points="854.7,123.1 854.7,300.2 868.2,300.2 868.2,310.4 881.7,310.4 881.7,321.8 1463.3,321.8 
			1463.3,310.4 1476.8,310.4 1476.8,300.2 1490.3,300.2 1490.3,123.1 		"/>
		<polygon class="st20" points="1490.3,123.1 1490.3,21.3 1476.8,21.3 1476.8,11 1463.3,11 1463.3,-0.3 881.7,-0.3 881.7,11 
			868.2,11 868.2,21.3 854.7,21.3 854.7,123.1 		"/>
	</g>
	<g>
		<polygon class="st21" points="868.2,21.4 881.7,21.4 881.7,11 868.2,11 868.2,21.3 854.7,21.3 854.7,31.7 868.2,31.7 		"/>
		<rect x="881.7" y="-0.3" class="st21" width="581.6" height="10.4"/>
		<polygon class="st21" points="1476.8,21.3 1476.8,11 1463.3,11 1463.3,21.4 1476.8,21.4 1476.8,31.7 1490.3,31.7 1490.3,21.3 		
			"/>
	</g>
</g>
<g>
	<polygon class="st2" points="272.5,558 265.6,558 6.9,558 6.9,565 0,565 0,604.9 6.9,604.9 6.9,611.9 265.6,611.9 272.5,611.9 
		272.5,604.9 279.5,604.9 279.5,565 272.5,565 	"/>
	<polygon class="st3" points="272.5,551.1 265.6,551.1 6.9,551.1 6.9,558.1 0,558.1 0,598 6.9,598 6.9,605 265.6,605 272.5,605 
		272.5,598 279.5,598 279.5,558.1 272.5,558.1 	"/>
	<rect x="0.7" y="567.2" class="st13" width="278.7" height="56.4"/>
	<text transform="matrix(1 0 0 1 38.7193 586.2521)" class="st4" style="font-family:'EditUndoBRK'; font-size:33.1169px;">BACK TO MENU</text>
</g>
<g>
	<polygon class="st2" points="771.2,555.6 764.2,555.6 505.6,555.6 505.6,562.6 498.6,562.6 498.6,602.5 505.6,602.5 505.6,609.4 
		764.2,609.4 771.2,609.4 771.2,602.5 778.1,602.5 778.1,562.6 771.2,562.6 	"/>
	<polygon class="st3" points="771.2,548.7 764.2,548.7 505.6,548.7 505.6,555.7 498.6,555.7 498.6,595.6 505.6,595.6 505.6,602.5 
		764.2,602.5 771.2,602.5 771.2,595.6 778.1,595.6 778.1,555.7 771.2,555.7 	"/>
	<rect x="499.3" y="564.8" class="st13" width="278.7" height="56.4"/>
	<text transform="matrix(1 0 0 1 563.5653 583.8373)" class="st4" style="font-family:'EditUndoBRK'; font-size:33.1169px;">TRY AGAIN</text>
</g>
</svg>
