<!-- Generator: Adobe Illustrator 19.2.1, SVG Export Plug-In  -->
<svg version="1.1"
	 xmlns="http://www.w3.org/2000/svg" xmlns:xlink="http://www.w3.org/1999/xlink" xmlns:a="http://ns.adobe.com/AdobeSVGViewerExtensions/3.0/"
	 x="0px" y="0px" width="648px" height="128px" viewBox="0 0 648 128" style="enable-background:new 0 0 648 128;"
	 xml:space="preserve">
<style type="text/css">
	.st0{fill:#5895B7;}
	.st1{opacity:0.8;}
	.st2{fill:#C17620;}
	.st3{fill:#F4C24A;}
	.st4{fill:#FFFFFF;}
</style>
<defs>
</defs>
<g>
	<rect x="89" y="24" class="st0" width="484" height="82"/>
	<rect x="541" y="98" class="st0" width="107" height="30"/>
	<g class="st1">
		<g>
			<polygon class="st0" points="105,44 105,126 9,126 9,115 21,115 21,103 33,103 33,91 45,91 45,79 33,79 33,67 21,67 21,55 9,55
				9,44 			"/>
		</g>
		<polygon class="st0" points="91,102 105,125 104.9,102 		"/>
	</g>
	<g>
		<g>
			<polygon class="st2" points="552,36 552,118 648,118 648,107 636,107 636,95 624,95 624,83 612,83 612,71 624,71 624,59 636,59
				636,47 648,47 648,36 			"/>
			<polygon class="st3" points="552,25 552,107 648,107 648,96 636,96 636,84 624,84 624,72 612,72 612,60 624,60 624,48 636,48
				636,36 648,36 648,25 			"/>
		</g>
		<polygon class="st2" points="566,94 552,117 552,94 		"/>
		<g>
			<g>
				<polygon class="st2" points="96,36 96,118 0,118 0,107 12,107 12,95 24,95 24,83 36,83 36,71 24,71 24,59 12,59 12,47 0,47
					0,36 				"/>
				<polygon class="st3" points="96,25 96,107 0,107 0,96 12,96 12,84 24,84 24,72 36,72 36,60 24,60 24,48 12,48 12,36 0,36 0,25
									"/>
			</g>
			<polygon class="st2" points="82,94 96,117 95.9,94 			"/>
		</g>
		<g>
			<rect x="82" y="12" class="st2" width="484" height="82"/>
			<rect x="82" class="st3" width="484" height="82"/>
		</g>
	</g>
	<g>
		<path class="st4" d="M152.6,59.7H144V25.1h8.6v13h8.6v-13h8.6v34.6h-8.6v-13h-8.6V59.7z"/>
		<path class="st4" d="M174.2,29.5h4.3v-4.3h17.3v4.3h4.3v25.9h-4.3v4.3h-17.3v-4.3h-4.3V29.5z M182.8,51.1h8.6V33.8h-8.6V51.1z"/>
		<path class="st4" d="M213.1,59.7h-8.6V25.1h8.6v17.3h4.3v-4.3h4.3v4.3h4.3V25.1h8.6v34.6H226v-4.3h-4.3v-4.3h-4.3v4.3h-4.3V59.7z"
			/>
		<path class="st4" d="M269.2,25.2h25.9v8.6h-8.6v25.9h-8.6V33.8h-8.6v-8.6H269.2z"/>
		<path class="st4" d="M299.5,29.5h4.3v-4.3h17.3v4.3h4.3v25.9h-4.3v4.3h-17.3v-4.3h-4.3V29.5z M308.1,51.1h8.6V33.8h-8.6V51.1z"/>
		<path class="st4" d="M368.6,59.7H360V25.1h21.6v4.3h4.3v13h-4.3v4.3h-13V59.7z M368.6,38.1h8.6v-4.3h-8.6V38.1z"/>
		<path class="st4" d="M394.5,55.4h-4.3V25.2h8.6v25.9h17.3v8.6h-21.6V55.4z"/>
		<path class="st4" d="M429.1,59.7h-8.6V29.5h4.3v-4.3h17.3v4.3h4.3v30.2h-8.6v-13h-8.6v13H429.1z M437.7,38.1v-4.3h-8.6v4.3H437.7z
			"/>
		<path class="st4" d="M450.7,25.2h8.6v13h8.6v-13h8.6v17.3h-4.3v4.3h-4.3v13h-8.6v-13H455v-4.3h-4.3V25.2z"/>
	</g>
</g>
</svg>
