<?xml version="1.0" encoding="utf-8"?>
<!-- Generator: Adobe Illustrator 22.0.1, SVG Export Plug-In . SVG Version: 6.00 Build 0)  -->
<svg version="1.1" id="Layer_1" xmlns="http://www.w3.org/2000/svg" xmlns:xlink="http://www.w3.org/1999/xlink" x="0px" y="0px"
	 width="229.4px" height="39.8px" viewBox="0 0 229.4 39.8" style="enable-background:new 0 0 229.4 39.8;" xml:space="preserve">
<style type="text/css">
	.st0{fill:#5895B7;}
	.st1{opacity:0.8;}
	.st2{fill:#C17620;}
	.st3{fill:#F4C24A;}
	.st4{fill:#2A6FBA;}
	.st5{fill:#4ABAEF;}
	.st6{fill:#FFFFFF;}
	.st7{fill:#95C9C8;}
	.st8{fill:#DDEFEE;}
	.st9{fill:#1B8E6F;}
	.st10{fill:#3CEA8A;}
	.st11{opacity:0.4;fill:#666666;}
	.st12{fill:none;}
	.st13{fill:#7149A4;}
	.st14{fill:#BD86E0;}
	.st15{opacity:0.4;fill:#666666;stroke:#666666;stroke-width:4;stroke-linejoin:bevel;stroke-miterlimit:10;}
	.st16{fill:#F2F2F2;}
	.st17{fill:#E6E6E6;}
	.st18{fill:none;stroke:#000000;stroke-width:4;stroke-linejoin:bevel;stroke-miterlimit:10;}
	.st19{fill:#C6E0DE;}
	.st20{fill:#A7C6C3;}
</style>
<g>
	<rect x="113.6" y="655" class="st0" width="484" height="82"/>
	<rect x="565.6" y="729" class="st0" width="107" height="30"/>
	<g class="st1">
		<g>
			<polygon class="st0" points="129.6,675 129.6,757 33.6,757 33.6,746 45.6,746 45.6,734 57.6,734 57.6,722 69.6,722 69.6,710 
				57.6,710 57.6,698 45.6,698 45.6,686 33.6,686 33.6,675 			"/>
		</g>
		<polygon class="st0" points="115.6,733 129.6,756 129.5,733 		"/>
	</g>
	<g>
		<g>
			<polygon class="st2" points="576.6,667 576.6,749 672.6,749 672.6,738 660.6,738 660.6,726 648.6,726 648.6,714 636.6,714 
				636.6,702 648.6,702 648.6,690 660.6,690 660.6,678 672.6,678 672.6,667 			"/>
			<polygon class="st3" points="576.6,656 576.6,738 672.6,738 672.6,727 660.6,727 660.6,715 648.6,715 648.6,703 636.6,703 
				636.6,691 648.6,691 648.6,679 660.6,679 660.6,667 672.6,667 672.6,656 			"/>
		</g>
		<polygon class="st2" points="590.6,725 576.6,748 576.6,725 		"/>
		<g>
			<g>
				<polygon class="st2" points="120.6,667 120.6,749 24.6,749 24.6,738 36.6,738 36.6,726 48.6,726 48.6,714 60.6,714 60.6,702 
					48.6,702 48.6,690 36.6,690 36.6,678 24.6,678 24.6,667 				"/>
				<polygon class="st3" points="120.6,656 120.6,738 24.6,738 24.6,727 36.6,727 36.6,715 48.6,715 48.6,703 60.6,703 60.6,691 
					48.6,691 48.6,679 36.6,679 36.6,667 24.6,667 24.6,656 				"/>
			</g>
			<polygon class="st2" points="106.6,725 120.6,748 120.5,725 			"/>
		</g>
		<g>
			<rect x="106.6" y="643" class="st2" width="484" height="82"/>
			<rect x="106.6" y="631" class="st3" width="484" height="82"/>
		</g>
	</g>
	<rect x="129.4" y="656.2" class="st12" width="415.2" height="81.8"/>
	<text transform="matrix(1 0 0 1 168.5321 690.791)" class="st6" style="font-family:'EditUndoBRK'; font-size:60px;">HOW TO PLAY</text>
</g>
<polygon class="st4" points="433.6,924 421.6,924 348.6,924 348.6,936 336.6,936 336.6,1021 348.6,1021 348.6,1033 421.6,1033 
	433.6,1033 433.6,1021 445.6,1021 445.6,936 433.6,936 "/>
<polygon class="st5" points="433.6,914 421.6,914 348.6,914 348.6,926 336.6,926 336.6,1011 348.6,1011 348.6,1023 421.6,1023 
	433.6,1023 433.6,1011 445.6,1011 445.6,926 433.6,926 "/>
<rect x="348.6" y="948.2" class="st12" width="89" height="81.8"/>
<text transform="matrix(1 0 0 1 373.1464 993.7344)" class="st6" style="font-family:'EditUndoBRK'; font-size:79px;">?</text>
<g>
	<polygon class="st0" points="1468.6,768.5 1457,768.5 1457,756.9 1445.4,756.9 1445.4,744.1 946.7,744.1 946.7,756.9 935.1,756.9 
		935.1,768.5 923.6,768.5 923.6,1453.3 935.1,1453.3 935.1,1464.9 946.7,1464.9 946.7,1477.7 1445.4,1477.7 1445.4,1464.9 
		1457,1464.9 1457,1453.3 1468.6,1453.3 	"/>
	<polygon class="st7" points="1468.6,756.5 1457,756.5 1457,744.9 1445.4,744.9 1445.4,732.1 946.7,732.1 946.7,744.9 935.1,744.9 
		935.1,756.5 923.6,756.5 923.6,1441.2 935.1,1441.2 935.1,1452.9 946.7,1452.9 946.7,1465.7 1445.4,1465.7 1445.4,1452.9 
		1457,1452.9 1457,1441.2 1468.6,1441.2 	"/>
	<polygon class="st8" points="1468.6,744.5 1457,744.5 1457,732.8 1445.4,732.8 1445.4,720 946.7,720 946.7,732.8 935.1,732.8 
		935.1,744.5 923.6,744.5 923.6,1429.2 935.1,1429.2 935.1,1440.8 946.7,1440.8 946.7,1453.7 1445.4,1453.7 1445.4,1440.8 
		1457,1440.8 1457,1429.2 1468.6,1429.2 	"/>
</g>
<g>
	<polygon class="st9" points="419.6,404 409.5,404 34.6,404 34.6,414.1 24.6,414.1 24.6,472 34.6,472 34.6,482 409.5,482 419.6,482 
		419.6,472 429.7,472 429.7,414.1 419.6,414.1 	"/>
	<polygon class="st10" points="419.6,394 409.5,394 34.6,394 34.6,404.1 24.6,404.1 24.6,462 34.6,462 34.6,472 409.5,472 
		419.6,472 419.6,462 429.7,462 429.7,404.1 419.6,404.1 	"/>
	<rect x="25.6" y="417.3" class="st12" width="404" height="81.8"/>
	<text transform="matrix(1 0 0 1 137.6991 444.9135)" class="st6" style="font-family:'EditUndoBRK'; font-size:48px;">PLAYER 1</text>
</g>
<g>
	<polygon class="st11" points="58.7,283.4 56.8,277.7 52.7,265.6 34.9,271.7 36.9,277.4 31.1,279.4 35.2,291.4 40.9,289.5 
		42.9,295.2 54.9,291.2 53,285.4 	"/>
	<polygon class="st11" points="97.5,271.4 95.6,265.6 91.5,253.6 73.7,259.6 75.7,265.4 69.9,267.3 74,279.4 79.7,277.4 81.7,283.2 
		93.7,279.1 91.8,273.3 	"/>
	<rect x="38" y="224.4" transform="matrix(0.9472 -0.3207 0.3207 0.9472 -75.9696 26.1947)" width="7.1" height="38.6"/>
	<polygon points="57.1,278.6 55.2,272.9 51.1,260.8 33.3,266.9 35.2,272.6 29.5,274.6 33.5,286.6 39.3,284.7 41.3,290.4 53.3,286.4 
		51.3,280.6 	"/>
	<rect x="76.4" y="211.4" transform="matrix(0.9472 -0.3207 0.3207 0.9472 -69.7596 37.8444)" width="7.1" height="38.6"/>
	<polygon points="95.6,265.6 93.6,259.8 89.6,247.8 71.8,253.8 73.7,259.6 67.9,261.6 72,273.6 77.8,271.6 79.7,277.4 91.8,273.3 
		89.8,267.6 	"/>
	<rect x="27.9" y="202.1" transform="matrix(0.9472 -0.3207 0.3207 0.9472 -64.8554 27.7502)" width="47.7" height="17.3"/>
</g>
<g>
	<polygon class="st11" points="124.9,317 125.9,312.9 127.8,304.2 115,301.4 114.1,305.6 109.9,304.6 108,313.3 112.2,314.2 
		111.2,318.4 119.9,320.3 120.8,316.1 	"/>
	<polygon class="st11" points="152.5,323.8 153.4,319.6 155.3,311 142.5,308.2 141.6,312.3 137.4,311.4 135.5,320.1 139.7,321 
		138.8,325.1 147.4,327 148.3,322.9 	"/>
	<rect x="126.5" y="273.6" transform="matrix(0.9766 0.2149 -0.2149 0.9766 64.7073 -21.0122)" width="5" height="26.9"/>
	<polygon points="125.7,313.6 126.6,309.4 128.5,300.8 115.7,298 114.8,302.1 110.7,301.2 108.8,309.8 112.9,310.7 112,314.9 
		120.6,316.8 121.6,312.6 	"/>
	<rect x="154.2" y="279.7" transform="matrix(0.9766 0.2149 -0.2149 0.9766 66.6614 -26.8142)" width="5" height="26.9"/>
	<polygon points="153.4,319.6 154.3,315.5 156.2,306.9 143.4,304 142.5,308.2 138.3,307.3 136.4,315.9 140.6,316.8 139.7,321 
		148.3,322.9 149.2,318.7 	"/>
	<rect x="130.4" y="265.1" transform="matrix(0.9766 0.2149 -0.2149 0.9766 61.6955 -25.2566)" width="33.3" height="12"/>
</g>
<g>
	<polygon class="st11" points="201,255.2 200.3,252.2 198.9,245.8 189.5,247.9 190.2,251 187.1,251.6 188.5,258 191.6,257.3 
		192.3,260.4 198.6,258.9 197.9,255.9 	"/>
	<polygon class="st11" points="221.4,251.2 220.7,248.2 219.3,241.8 209.9,243.9 210.6,247 207.5,247.6 209,254 212,253.3 
		212.7,256.3 219,254.9 218.3,251.9 	"/>
	<rect x="192.6" y="224.2" transform="matrix(0.9761 -0.2173 0.2173 0.9761 -46.21 47.8298)" width="3.6" height="19.8"/>
	<polygon points="200.4,252.7 199.7,249.6 198.3,243.3 188.9,245.4 189.6,248.4 186.6,249.1 188,255.5 191,254.8 191.7,257.8 
		198,256.4 197.4,253.4 	"/>
	<rect x="212.9" y="219.6" transform="matrix(0.9761 -0.2173 0.2173 0.9761 -44.7425 52.1345)" width="3.6" height="19.8"/>
	<polygon points="220.7,248.2 220,245.1 218.6,238.8 209.2,240.9 209.9,243.9 206.9,244.6 208.3,250.9 211.3,250.3 212,253.3 
		218.3,251.9 217.7,248.8 	"/>
	<rect x="189.2" y="213.4" transform="matrix(0.9761 -0.2173 0.2173 0.9761 -42.5167 48.9732)" width="24.4" height="8.8"/>
</g>
<g>
	<polygon class="st11" points="221.6,301 224.2,296.9 229.6,288.3 217,280.2 214.3,284.4 210.2,281.7 204.8,290.3 208.9,292.9 
		206.3,297 214.8,302.5 217.5,298.4 	"/>
	<polygon class="st11" points="248.6,319.1 251.2,315 256.6,306.4 243.9,298.4 241.3,302.5 237.2,299.9 231.8,308.4 235.9,311 
		233.3,315.2 241.8,320.6 244.5,316.5 	"/>
	<rect x="234.8" y="254.9" transform="matrix(0.844 0.5363 -0.5363 0.844 182.0508 -85.3121)" width="5.7" height="30.9"/>
	<polygon points="223.8,297.6 226.4,293.4 231.8,284.9 219.1,276.8 216.5,280.9 212.4,278.3 207,286.9 211.1,289.5 208.5,293.6 
		217,299.1 219.6,294.9 	"/>
	<rect x="262.3" y="272.3" transform="matrix(0.844 0.5363 -0.5363 0.844 195.6752 -97.3029)" width="5.7" height="30.9"/>
	<polygon points="251.2,315 253.8,310.9 259.2,302.3 246.6,294.2 243.9,298.4 239.8,295.7 234.4,304.3 238.5,306.9 235.9,311 
		244.5,316.5 247.1,312.4 	"/>
	<rect x="244.3" y="253.3" transform="matrix(0.844 0.5363 -0.5363 0.844 180.6193 -100.6743)" width="38.2" height="13.8"/>
</g>
<g>
	<polygon class="st9" points="262.8,-71.4 256.2,-71.4 9.8,-71.4 9.8,-64.8 3.2,-64.8 3.2,-26.8 9.8,-26.8 9.8,-20.2 256.2,-20.2 
		262.8,-20.2 262.8,-26.8 269.4,-26.8 269.4,-64.8 262.8,-64.8 	"/>
	<polygon class="st10" points="262.8,-78 256.2,-78 9.8,-78 9.8,-71.4 3.2,-71.4 3.2,-33.4 9.8,-33.4 9.8,-26.7 256.2,-26.7 
		262.8,-26.7 262.8,-33.4 269.4,-33.4 269.4,-71.4 262.8,-71.4 	"/>
	<rect x="3.9" y="-62.7" class="st12" width="265.5" height="32.8"/>
	<text transform="matrix(1 0 0 1 69.6346 -44.5654)" class="st6" style="font-family:'EditUndoBRK'; font-size:31.5429px;">Calibrate</text>
</g>
<g>
	<rect x="4.8" y="10.9" class="st9" width="219.8" height="28.8"/>
	<rect y="4.4" class="st9" width="229.4" height="30.6"/>
	<polygon class="st10" points="0,0 0,29.3 4.8,29.3 4.8,35 224.6,35 224.6,29.3 229.4,29.3 229.4,0 	"/>
</g>
<polygon class="st9" points="219.8,14.9 219.8,9.8 214.7,9.8 214.7,9.7 158,9.7 127.5,9.7 101.9,9.7 78,9.7 14.7,9.7 14.7,9.7 
	9.6,9.7 9.6,14.8 4.5,14.8 4.5,22.5 9.6,22.5 9.6,27.6 14.7,27.6 14.7,27.7 78,27.7 101.9,27.7 127.5,27.7 158,27.7 214.7,27.7 
	214.7,27.6 219.8,27.6 219.8,22.5 224.9,22.5 224.9,14.9 "/>
<g>
	<rect x="-4.1" y="108.9" class="st12" width="4.7" height="0.1"/>
	<rect x="-4.1" y="126.8" class="st12" width="4.7" height="0.1"/>
	<polygon class="st6" points="16.9,126.9 16.9,121.8 22,121.8 22,114.1 16.9,114.1 16.9,109 11.8,109 11.8,108.9 0.6,108.9 0.6,109 
		-4.1,109 -4.1,126.8 0.6,126.8 0.6,126.9 11.8,126.9 11.8,126.9 	"/>
</g>
<g>
	<polygon class="st6" points="-29.9,73.4 -29.9,68.3 -35,68.3 -35,68.2 -51,68.2 -51,86.2 -35,86.2 -35,86.1 -29.9,86.1 -29.9,81 
		-24.8,81 -24.8,73.4 	"/>
	<polygon class="st6" points="-43.4,112.2 -43.4,107.1 -43.4,107.1 -43.4,107 -48,107 -48.5,107 -53,107 -53,107.1 -53.1,107.1 
		-53.1,112.2 -58.2,112.2 -58.2,119.8 -53.1,119.8 -53.1,124.9 -53,124.9 -53,125 -48.5,125 -48,125 -43.4,125 -43.4,125 -43.4,125 
		-43.4,119.9 -38.3,119.9 -38.3,112.2 	"/>
</g>
<polygon class="st6" points="-93.2,14.9 -93.2,9.8 -93.2,9.8 -93.2,9.7 -97.8,9.7 -98.3,9.7 -102.8,9.7 -102.8,9.7 -102.9,9.7 
	-102.9,14.8 -107.9,14.8 -107.9,22.5 -102.9,22.5 -102.9,27.6 -102.8,27.6 -102.8,27.7 -98.3,27.7 -97.8,27.7 -93.2,27.7 
	-93.2,27.6 -93.2,27.6 -93.2,22.5 -88.1,22.5 -88.1,14.9 "/>
<polygon class="st13" points="872.6,404 862.5,404 487.6,404 487.6,414.1 477.6,414.1 477.6,472 487.6,472 487.6,482 862.5,482 
	872.6,482 872.6,472 882.7,472 882.7,414.1 872.6,414.1 "/>
<polygon class="st14" points="872.6,394 862.5,394 487.6,394 487.6,404.1 477.6,404.1 477.6,462 487.6,462 487.6,472 862.5,472 
	872.6,472 872.6,462 882.7,462 882.7,404.1 872.6,404.1 "/>
<rect x="477.6" y="417.3" class="st12" width="405" height="81.8"/>
<text transform="matrix(1 0 0 1 583.287 444.9135)" class="st6" style="font-family:'EditUndoBRK'; font-size:48px;">PLAYER 2</text>
<g>
	<rect x="498.6" y="398" class="st6" width="45.1" height="5.7"/>
	<rect x="549.8" y="398" class="st6" width="5.7" height="5.7"/>
</g>
<g>
	<rect x="44.1" y="399" class="st6" width="45.1" height="5.7"/>
	<rect x="95.3" y="399" class="st6" width="5.7" height="5.7"/>
</g>
<polygon class="st15" points="433.2,239 439.6,244.6 434,251 454.4,268.4 454.4,306.3 475.1,280.2 506.9,309.6 512.7,303.3 
	517.7,307.9 589.3,189.2 "/>
<polygon class="st16" points="430.7,231.9 437.1,237.5 431.5,243.9 451.9,261.3 451.9,299.2 472.7,273.1 504.4,302.5 510.3,296.2 
	515.2,300.8 586.9,182.1 "/>
<polygon class="st17" points="472.7,272.9 587.1,182.1 452,261.1 452,299 "/>
<polygon class="st18" points="429.7,232.1 436,237.7 430.4,244.1 450.9,261.4 450.9,299.3 471.6,273.2 503.4,302.6 509.2,296.3 
	514.2,300.9 585.8,182.3 "/>
<g>
	<polygon class="st19" points="365.5,-74.7 365.5,89 375.9,89 375.9,98.5 386.3,98.5 386.3,108.9 833.7,108.9 833.7,98.5 
		844.1,98.5 844.1,89 854.5,89 854.5,-74.7 	"/>
	<polygon class="st19" points="854.5,-74.7 854.5,-168.8 844.1,-168.8 844.1,-178.3 833.7,-178.3 833.7,-188.8 386.3,-188.8 
		386.3,-178.3 375.9,-178.3 375.9,-168.8 365.5,-168.8 365.5,-74.7 	"/>
</g>
<g>
	<polygon class="st20" points="375.9,-172.2 386.3,-172.2 386.3,-180.2 375.9,-180.2 375.9,-172.3 365.5,-172.3 365.5,-164.3 
		375.9,-164.3 	"/>
	<rect x="386.3" y="-188.9" class="st20" width="447.5" height="8"/>
	<polygon class="st20" points="844.1,-172.3 844.1,-180.2 833.7,-180.2 833.7,-172.2 844.1,-172.2 844.1,-164.3 854.5,-164.3 
		854.5,-172.3 	"/>
</g>
<g>
	<g>
		<g>
			<rect x="-27.7" y="-253.2" width="10.2" height="10.2"/>
		</g>
	</g>
	<g>
		<g>
			<path d="M33.8-263.4v5.1h-5.1v5.1h5.1v20.5h5.1v5.1h-5.1v5.1h5.1H44v-10.2h15.4v5.1h5.1v-5.1v-30.7H33.8z M59.4-237.8H38.9v-20.5
				h20.5V-237.8z"/>
		</g>
	</g>
	<g>
		<g>
			<rect x="44" y="-253.2" width="10.2" height="10.2"/>
		</g>
	</g>
	<g>
		<g>
			<rect x="-27.7" y="-181.5" width="10.2" height="10.2"/>
		</g>
	</g>
	<g>
		<g>
			<rect x="33.8" y="-191.7" width="5.1" height="5.1"/>
		</g>
	</g>
	<g>
		<g>
			<rect x="8.2" y="-166.1" width="5.1" height="5.1"/>
		</g>
	</g>
	<g>
		<g>
			<rect x="13.3" y="-186.6" width="5.1" height="5.1"/>
		</g>
	</g>
	<g>
		<g>
			<rect x="13.3" y="-176.3" width="5.1" height="5.1"/>
		</g>
	</g>
	<g>
		<g>
			<rect x="59.4" y="-202" width="5.1" height="5.1"/>
		</g>
	</g>
	<g>
		<g>
			<rect x="-37.9" y="-202" width="5.1" height="5.1"/>
		</g>
	</g>
	<g>
		<g>
			<rect x="-37.9" y="-227.6" width="5.1" height="5.1"/>
		</g>
	</g>
	<g>
		<g>
			<polygon points="18.4,-258.3 18.4,-253.2 8.2,-253.2 8.2,-248 23.6,-248 23.6,-253.2 23.6,-258.3 			"/>
		</g>
	</g>
	<g>
		<g>
			<path d="M59.4-222.4v5.1H49.2v5.1H33.8v-5.1h-5.1v5.1H18.4v5.1h15.4v5.1H23.6h-5.1v-5.1h-5.1v5.1H8.2v-5.1H3.1v5.1H-2v5.1H8.2
				v5.1h5.1v-5.1h10.2v5.1h-5.1v5.1h5.1v10.2h5.1v5.1h5.1v-5.1h15.4v-10.2h5.1v-5.1h-5.1V-202H38.9v-5.1h10.2v5.1h5.1v-5.1h5.1v-5.1
				h5.1v-5.1v-5.1H59.4L59.4-222.4z M44-196.8v15.4H28.7v-15.4H44z"/>
		</g>
	</g>
	<g>
		<g>
			<polygon points="28.7,-232.7 23.6,-232.7 23.6,-227.6 18.4,-227.6 18.4,-222.4 18.4,-217.3 23.6,-217.3 23.6,-222.4 28.7,-222.4 
				28.7,-227.6 33.8,-227.6 33.8,-232.7 			"/>
		</g>
	</g>
	<g>
		<g>
			<rect x="18.4" y="-166.1" width="10.2" height="5.1"/>
		</g>
	</g>
	<g>
		<g>
			<rect x="3.1" y="-258.3" width="5.1" height="5.1"/>
		</g>
	</g>
	<g>
		<g>
			<rect x="44" y="-222.4" width="5.1" height="5.1"/>
		</g>
	</g>
	<g>
		<g>
			<rect x="49.2" y="-227.6" width="5.1" height="5.1"/>
		</g>
	</g>
	<g>
		<g>
			<rect x="-17.4" y="-202" width="5.1" height="5.1"/>
		</g>
	</g>
	<g>
		<g>
			<path d="M-7.2-166.1v-20.5H-2v-5.1v-5.1h-5.1v5.1h-15.4v-5.1h-5.1h-5.1v5.1h-5.1v30.7h30.7H3.1v-5.1H-7.2z M-12.3-166.1h-20.5
				v-20.5h20.5V-166.1z"/>
		</g>
	</g>
	<g>
		<g>
			<rect x="-7.2" y="-232.7" width="5.1" height="5.1"/>
		</g>
	</g>
	<g>
		<g>
			<path d="M-2-263.4h-5.1h-30.7v30.7h5.1v5.1h5.1v-5.1h5.1v5.1h5.1v-5.1h10.2v-10.2H-2v-5.1h-5.1v-10.2H-2h5.1v-5.1H-2z
				 M-12.3-237.8h-20.5v-20.5h20.5V-237.8z"/>
		</g>
	</g>
	<g>
		<g>
			<rect x="23.6" y="-248" width="5.1" height="5.1"/>
		</g>
	</g>
	<g>
		<g>
			<rect x="13.3" y="-263.4" width="5.1" height="5.1"/>
		</g>
	</g>
	<g>
		<g>
			<path d="M23.6-232.7v-5.1h-5.1v-5.1h-5.1v5.1H3.1v-5.1H-2v5.1v5.1h5.1v10.2h-15.4v-5.1h-5.1v5.1h-15.4v5.1h10.2v5.1h-15.4v5.1
				h15.4v5.1h5.1v-5.1h5.1v5.1h5.1v-5.1H3.1v-5.1H-2v-5.1h5.1h5.1v5.1h5.1h5.1v-5.1h-5.1v-5.1H8.2v-10.2H23.6L23.6-232.7z
				 M-7.2-212.2h-10.2v-5.1h10.2V-212.2z"/>
		</g>
	</g>
	<g>
		<g>
			<polygon points="8.2,-181.5 8.2,-186.6 8.2,-191.7 3.1,-191.7 3.1,-186.6 -2,-186.6 -2,-181.5 3.1,-181.5 3.1,-176.3 -2,-176.3 
				-2,-171.2 8.2,-171.2 8.2,-176.3 13.3,-176.3 13.3,-181.5 			"/>
		</g>
	</g>
	<g>
		<g>
			<polygon points="54.3,-171.2 54.3,-176.3 49.2,-176.3 49.2,-171.2 33.8,-171.2 33.8,-166.1 44,-166.1 44,-161 49.2,-161 
				49.2,-166.1 59.4,-166.1 59.4,-161 64.5,-161 64.5,-166.1 64.5,-171.2 			"/>
		</g>
	</g>
	<g>
		<g>
			<polygon points="59.4,-191.7 59.4,-186.6 54.3,-186.6 54.3,-181.5 64.5,-181.5 64.5,-186.6 64.5,-191.7 			"/>
		</g>
	</g>
</g>
</svg>
