<!-- Generator: Adobe Illustrator 19.2.1, SVG Export Plug-In  -->
<svg version="1.1"
	 xmlns="http://www.w3.org/2000/svg" xmlns:xlink="http://www.w3.org/1999/xlink" xmlns:a="http://ns.adobe.com/AdobeSVGViewerExtensions/3.0/"
	 x="0px" y="0px" width="256.7px" height="132.1px" viewBox="0 0 256.7 132.1" style="enable-background:new 0 0 256.7 132.1;"
	 xml:space="preserve">
<style type="text/css">
	.st0{opacity:0.4;fill:#666666;enable-background:new    ;}
</style>
<defs>
</defs>
<g>
	<polygon class="st0" points="32.3,88.5 30.3,82.7 26.3,70.7 8.5,76.7 10.4,82.5 4.6,84.4 8.7,96.5 14.5,94.5 16.4,100.3 28.5,96.2
		26.5,90.4 	"/>
	<polygon class="st0" points="71.1,76.4 69.1,70.7 65,58.6 47.3,64.7 49.2,70.4 43.4,72.4 47.5,84.4 53.3,82.5 55.2,88.2 67.3,84.2
		65.3,78.4 	"/>
	<rect x="11.5" y="29.5" transform="matrix(0.9472 -0.3207 0.3207 0.9472 -14.8543 7.4076)" width="7.1" height="38.6"/>
	<polygon points="30.6,83.7 28.7,77.9 24.6,65.9 6.8,71.9 8.8,77.7 3,79.6 7.1,91.7 12.9,89.7 14.8,95.5 26.8,91.4 24.9,85.6 	"/>
	<rect x="50" y="16.4" transform="matrix(0.9472 -0.3207 0.3207 0.9472 -8.6193 19.0544)" width="7.1" height="38.6"/>
	<polygon points="69.1,70.7 67.2,64.9 63.1,52.9 45.3,58.9 47.3,64.7 41.5,66.6 45.6,78.6 51.3,76.7 53.3,82.5 65.3,78.4 63.3,72.6
			"/>
	<rect x="1.5" y="7.2" transform="matrix(0.9472 -0.3207 0.3207 0.9472 -3.7407 8.9711)" width="47.7" height="17.3"/>
</g>
<g>
	<polygon class="st0" points="98.5,122.1 99.4,117.9 101.3,109.3 88.5,106.5 87.6,110.6 83.4,109.7 81.5,118.3 85.7,119.3
		84.8,123.4 93.4,125.3 94.3,121.2 	"/>
	<polygon class="st0" points="126,128.8 126.9,124.7 128.8,116.1 116,113.2 115.1,117.4 111,116.5 109.1,125.1 113.2,126
		112.3,130.2 120.9,132.1 121.8,127.9 	"/>
	<rect x="89.1" y="89.6" transform="matrix(0.2149 -0.9766 0.9766 0.2149 -9.4578 172.5075)" width="26.9" height="5"/>
	<polygon points="99.2,118.6 100.2,114.5 102.1,105.8 89.3,103 88.4,107.2 84.2,106.2 82.3,114.9 86.5,115.8 85.5,119.9 94.2,121.9
		95.1,117.7 	"/>
	<rect x="116.7" y="95.7" transform="matrix(0.2149 -0.9766 0.9766 0.2149 6.2644 204.2385)" width="26.9" height="5"/>
	<polygon points="126.9,124.7 127.8,120.6 129.7,111.9 116.9,109.1 116,113.2 111.9,112.3 110,121 114.1,121.9 113.2,126
		121.8,127.9 122.8,123.8 	"/>
	<rect x="114.5" y="59.5" transform="matrix(0.2149 -0.9766 0.9766 0.2149 20.2221 177.5009)" width="12" height="33.3"/>
</g>
<g>
	<polygon class="st0" points="174.5,60.3 173.8,57.2 172.4,50.9 163,53 163.7,56 160.7,56.7 162.1,63 165.1,62.4 165.8,65.4
		172.1,64 171.5,61 	"/>
	<polygon class="st0" points="194.9,56.3 194.2,53.2 192.8,46.9 183.4,49 184.1,52 181.1,52.7 182.5,59 185.5,58.4 186.2,61.4
		192.6,60 191.9,56.9 	"/>
	<rect x="166.1" y="29.2" transform="matrix(0.9761 -0.2173 0.2173 0.9761 -4.479 37.4172)" width="3.6" height="19.8"/>
	<polygon points="173.9,57.7 173.3,54.7 171.9,48.3 162.5,50.4 163.1,53.5 160.1,54.2 161.5,60.5 164.5,59.8 165.2,62.9 171.6,61.5
		170.9,58.4 	"/>
	<rect x="186.4" y="24.7" transform="matrix(0.9761 -0.2173 0.2173 0.9761 -3.0162 41.7219)" width="3.6" height="19.8"/>
	<polygon points="194.2,53.2 193.6,50.2 192.2,43.8 182.8,45.9 183.4,49 180.4,49.6 181.8,56 184.9,55.3 185.5,58.4 191.9,56.9
		191.2,53.9 	"/>
	<rect x="162.7" y="18.4" transform="matrix(0.9761 -0.2173 0.2173 0.9761 -0.7727 38.5457)" width="24.4" height="8.8"/>
</g>
<g>
	<polygon class="st0" points="195.1,106 197.7,101.9 203.2,93.4 190.5,85.3 187.9,89.4 183.8,86.8 178.3,95.4 182.4,98 179.8,102.1
		188.4,107.5 191,103.4 	"/>
	<polygon class="st0" points="222.1,124.2 224.7,120 230.2,111.5 217.5,103.4 214.9,107.5 210.8,104.9 205.3,113.5 209.4,116.1
		206.8,120.2 215.4,125.7 218,121.5 	"/>
	<rect x="195.8" y="72.5" transform="matrix(0.5363 -0.844 0.844 0.5363 34.3697 213.2218)" width="30.9" height="5.7"/>
	<polygon points="197.3,102.6 199.9,98.5 205.4,89.9 192.7,81.9 190.1,86 185.9,83.4 180.5,91.9 184.6,94.6 182,98.7 190.6,104.1
		193.2,100 	"/>
	<rect x="223.2" y="90" transform="matrix(0.5363 -0.844 0.844 0.5363 32.3102 244.4206)" width="30.9" height="5.7"/>
	<polygon points="224.7,120 227.3,115.9 232.8,107.4 220.1,99.3 217.5,103.4 213.4,100.8 207.9,109.4 212,112 209.4,116.1
		218,121.5 220.6,117.4 	"/>
	<rect x="230" y="46.1" transform="matrix(0.5363 -0.844 0.844 0.5363 54.8542 230.1629)" width="13.8" height="38.2"/>
</g>
</svg>
