<?xml version="1.0" encoding="utf-8"?>
<!-- Generator: Adobe Illustrator 22.0.1, SVG Export Plug-In . SVG Version: 6.00 Build 0)  -->
<svg version="1.1" id="Layer_1" xmlns="http://www.w3.org/2000/svg" xmlns:xlink="http://www.w3.org/1999/xlink" x="0px" y="0px"
	 width="89.9px" height="87.8px" viewBox="0 0 89.9 87.8" style="enable-background:new 0 0 89.9 87.8;" xml:space="preserve">
<style type="text/css">
	.st0{fill:#5895B7;}
	.st1{opacity:0.8;}
	.st2{fill:#C17620;}
	.st3{fill:#F4C24A;}
	.st4{fill:#FFFFFF;}
	.st5{fill:#2A6FBA;}
	.st6{fill:#4ABAEF;}
	.st7{fill:#95C9C8;}
	.st8{fill:#DDEFEE;}
	.st9{fill:#1B8E6F;}
	.st10{fill:#3CEA8A;}
	.st11{opacity:0.4;fill:#666666;}
	.st12{fill:#33BC6E;}
	.st13{fill:none;}
	.st14{fill:#7149A4;}
	.st15{fill:#BD86E0;}
	.st16{opacity:0.4;fill:#666666;stroke:#666666;stroke-width:4;stroke-linejoin:bevel;stroke-miterlimit:10;}
	.st17{fill:#F2F2F2;}
	.st18{fill:#E6E6E6;}
	.st19{fill:none;stroke:#000000;stroke-width:4;stroke-linejoin:bevel;stroke-miterlimit:10;}
	.st20{fill:#C6E0DE;}
	.st21{fill:#A7C6C3;}
	.st22{fill:#EE3D53;}
	.st23{fill:none;stroke:#000000;stroke-width:2;stroke-miterlimit:10;}
	.st24{fill:#A17559;}
	.st25{fill:#910E46;}
	.st26{fill:#238D6F;}
	.st27{fill:#704CA2;}
	.st28{fill:#47E88D;}
	.st29{fill:#BC88DE;}
	.st30{fill:#CCCCCC;}
	.st31{fill:#5B2616;}
	.st32{opacity:0.38;fill:#2D3D3E;}
	.st33{opacity:0.38;}
	.st34{fill:#2D3D3E;}
	.st35{fill:#3F180F;}
	.st36{fill:#1A1A1A;}
	.st37{fill:#38140C;}
</style>
<g>
	<rect x="-1739.2" y="2208.4" class="st0" width="484" height="82"/>
	<rect x="-1287.2" y="2282.4" class="st0" width="107" height="30"/>
	<g class="st1">
		<g>
			<polygon class="st0" points="-1723.2,2228.4 -1723.2,2310.4 -1819.2,2310.4 -1819.2,2299.4 -1807.2,2299.4 -1807.2,2287.4 
				-1795.2,2287.4 -1795.2,2275.4 -1783.2,2275.4 -1783.2,2263.4 -1795.2,2263.4 -1795.2,2251.4 -1807.2,2251.4 -1807.2,2239.4 
				-1819.2,2239.4 -1819.2,2228.4 			"/>
		</g>
		<polygon class="st0" points="-1737.2,2286.4 -1723.2,2309.4 -1723.2,2286.4 		"/>
	</g>
	<g>
		<g>
			<polygon class="st2" points="-1276.2,2220.4 -1276.2,2302.4 -1180.2,2302.4 -1180.2,2291.4 -1192.2,2291.4 -1192.2,2279.4 
				-1204.2,2279.4 -1204.2,2267.4 -1216.2,2267.4 -1216.2,2255.4 -1204.2,2255.4 -1204.2,2243.4 -1192.2,2243.4 -1192.2,2231.4 
				-1180.2,2231.4 -1180.2,2220.4 			"/>
			<polygon class="st3" points="-1276.2,2209.4 -1276.2,2291.4 -1180.2,2291.4 -1180.2,2280.4 -1192.2,2280.4 -1192.2,2268.4 
				-1204.2,2268.4 -1204.2,2256.4 -1216.2,2256.4 -1216.2,2244.4 -1204.2,2244.4 -1204.2,2232.4 -1192.2,2232.4 -1192.2,2220.4 
				-1180.2,2220.4 -1180.2,2209.4 			"/>
		</g>
		<polygon class="st2" points="-1262.2,2278.4 -1276.2,2301.4 -1276.1,2278.4 		"/>
		<g>
			<g>
				<polygon class="st2" points="-1732.2,2220.4 -1732.2,2302.4 -1828.2,2302.4 -1828.2,2291.4 -1816.2,2291.4 -1816.2,2279.4 
					-1804.2,2279.4 -1804.2,2267.4 -1792.2,2267.4 -1792.2,2255.4 -1804.2,2255.4 -1804.2,2243.4 -1816.2,2243.4 -1816.2,2231.4 
					-1828.2,2231.4 -1828.2,2220.4 				"/>
				<polygon class="st3" points="-1732.2,2209.4 -1732.2,2291.4 -1828.2,2291.4 -1828.2,2280.4 -1816.2,2280.4 -1816.2,2268.4 
					-1804.2,2268.4 -1804.2,2256.4 -1792.2,2256.4 -1792.2,2244.4 -1804.2,2244.4 -1804.2,2232.4 -1816.2,2232.4 -1816.2,2220.4 
					-1828.2,2220.4 -1828.2,2209.4 				"/>
			</g>
			<polygon class="st2" points="-1746.2,2278.4 -1732.2,2301.4 -1732.2,2278.4 			"/>
		</g>
		<g>
			<rect x="-1746.2" y="2196.4" class="st2" width="484" height="82"/>
			<rect x="-1746.2" y="2184.4" class="st3" width="484" height="82"/>
		</g>
	</g>
	<g>
		<path class="st4" d="M-1675.5,2244.2h-8.6v-34.6h8.6v13h8.6v-13h8.6v34.6h-8.6v-13h-8.6V2244.2z"/>
		<path class="st4" d="M-1653.9,2213.9h4.3v-4.3h17.3v4.3h4.3v25.9h-4.3v4.3h-17.3v-4.3h-4.3V2213.9z M-1645.3,2235.5h8.6v-17.3
			h-8.6V2235.5z"/>
		<path class="st4" d="M-1615.1,2244.2h-8.6v-34.6h8.6v17.3h4.3v-4.3h4.3v4.3h4.3v-17.3h8.6v34.6h-8.6v-4.3h-4.3v-4.3h-4.3v4.3h-4.3
			V2244.2z"/>
		<path class="st4" d="M-1558.9,2209.6h25.9v8.6h-8.6v25.9h-8.6v-25.9h-8.6V2209.6z"/>
		<path class="st4" d="M-1528.7,2213.9h4.3v-4.3h17.3v4.3h4.3v25.9h-4.3v4.3h-17.3v-4.3h-4.3V2213.9z M-1520,2235.5h8.6v-17.3h-8.6
			V2235.5z"/>
		<path class="st4" d="M-1459.5,2244.2h-8.6v-34.6h21.6v4.3h4.3v13h-4.3v4.3h-13V2244.2z M-1459.5,2222.6h8.6v-4.3h-8.6V2222.6z"/>
		<path class="st4" d="M-1433.6,2239.8h-4.3v-30.2h8.6v25.9h17.3v8.6h-21.6V2239.8z"/>
		<path class="st4" d="M-1399.1,2244.2h-8.6v-30.2h4.3v-4.3h17.3v4.3h4.3v30.2h-8.6v-13h-8.6V2244.2z M-1390.4,2222.6v-4.3h-8.6v4.3
			H-1390.4z"/>
		<path class="st4" d="M-1377.5,2209.6h8.6v13h8.6v-13h8.6v17.3h-4.3v4.3h-4.3v13h-8.6v-13h-4.3v-4.3h-4.3V2209.6z"/>
	</g>
</g>
<polygon class="st5" points="-1570.2,2477.4 -1582.2,2477.4 -1655.2,2477.4 -1655.2,2489.4 -1667.2,2489.4 -1667.2,2574.4 
	-1655.2,2574.4 -1655.2,2586.4 -1582.2,2586.4 -1570.2,2586.4 -1570.2,2574.4 -1558.2,2574.4 -1558.2,2489.4 -1570.2,2489.4 "/>
<polygon class="st5" points="-1570.2,2477.4 -1582.2,2477.4 -1655.2,2477.4 -1655.2,2489.4 -1667.2,2489.4 -1667.2,2574.4 
	-1655.2,2574.4 -1655.2,2586.4 -1582.2,2586.4 -1570.2,2586.4 -1570.2,2574.4 -1558.2,2574.4 -1558.2,2489.4 -1570.2,2489.4 "/>
<g>
	<path class="st4" d="M-1630.6,2511.6h28.4v5.7h5.7v17.1h-5.7v5.7h-17.1v-11.4h11.4v-5.7h-22.8V2511.6z M-1619.2,2545.7h11.4v11.4
		h-11.4V2545.7z"/>
</g>
<polygon class="st5" points="-1419.2,2477.4 -1431.2,2477.4 -1504.2,2477.4 -1504.2,2489.4 -1516.2,2489.4 -1516.2,2574.4 
	-1504.2,2574.4 -1504.2,2586.4 -1431.2,2586.4 -1419.2,2586.4 -1419.2,2574.4 -1407.2,2574.4 -1407.2,2489.4 -1419.2,2489.4 "/>
<polygon class="st6" points="-1419.2,2467.4 -1431.2,2467.4 -1504.2,2467.4 -1504.2,2479.4 -1516.2,2479.4 -1516.2,2564.4 
	-1504.2,2564.4 -1504.2,2576.4 -1431.2,2576.4 -1419.2,2576.4 -1419.2,2564.4 -1407.2,2564.4 -1407.2,2479.4 -1419.2,2479.4 "/>
<g>
	<path class="st4" d="M-1479.6,2501.6h28.4v5.7h5.7v17.1h-5.7v5.7h-17.1v-11.4h11.4v-5.7h-22.8V2501.6z M-1468.2,2535.7h11.4v11.4
		h-11.4V2535.7z"/>
</g>
<g>
	<polygon class="st0" points="-384.2,2321.9 -395.7,2321.9 -395.7,2310.3 -407.3,2310.3 -407.3,2297.5 -906,2297.5 -906,2310.3 
		-917.6,2310.3 -917.6,2321.9 -929.2,2321.9 -929.2,3006.6 -917.6,3006.6 -917.6,3018.3 -906,3018.3 -906,3031.1 -407.3,3031.1 
		-407.3,3018.3 -395.7,3018.3 -395.7,3006.6 -384.2,3006.6 	"/>
	<polygon class="st7" points="-384.2,2309.9 -395.7,2309.9 -395.7,2298.2 -407.3,2298.2 -407.3,2285.4 -906,2285.4 -906,2298.2 
		-917.6,2298.2 -917.6,2309.9 -929.2,2309.9 -929.2,2994.6 -917.6,2994.6 -917.6,3006.2 -906,3006.2 -906,3019 -407.3,3019 
		-407.3,3006.2 -395.7,3006.2 -395.7,2994.6 -384.2,2994.6 	"/>
	<polygon class="st8" points="-384.2,2297.9 -395.7,2297.9 -395.7,2286.2 -407.3,2286.2 -407.3,2273.4 -906,2273.4 -906,2286.2 
		-917.6,2286.2 -917.6,2297.9 -929.2,2297.9 -929.2,2982.6 -917.6,2982.6 -917.6,2994.2 -906,2994.2 -906,3007 -407.3,3007 
		-407.3,2994.2 -395.7,2994.2 -395.7,2982.6 -384.2,2982.6 	"/>
</g>
<g>
	<polygon class="st0" points="-1870.1,329.3 -1874.2,329.3 -1874.2,325.2 -1878.3,325.2 -1878.3,320.7 -2054.5,320.7 -2054.5,325.2 
		-2058.6,325.2 -2058.6,329.3 -2062.7,329.3 -2062.7,571.3 -2058.6,571.3 -2058.6,575.4 -2054.5,575.4 -2054.5,579.9 -1878.3,579.9 
		-1878.3,575.4 -1874.2,575.4 -1874.2,571.3 -1870.1,571.3 	"/>
	<polygon class="st7" points="-1870.1,325.1 -1874.2,325.1 -1874.2,321 -1878.3,321 -1878.3,316.4 -2054.5,316.4 -2054.5,321 
		-2058.6,321 -2058.6,325.1 -2062.7,325.1 -2062.7,567 -2058.6,567 -2058.6,571.1 -2054.5,571.1 -2054.5,575.7 -1878.3,575.7 
		-1878.3,571.1 -1874.2,571.1 -1874.2,567 -1870.1,567 	"/>
	<polygon class="st8" points="-1870.1,320.8 -1874.2,320.8 -1874.2,316.7 -1878.3,316.7 -1878.3,312.2 -2054.5,312.2 -2054.5,316.7 
		-2058.6,316.7 -2058.6,320.8 -2062.7,320.8 -2062.7,562.8 -2058.6,562.8 -2058.6,566.9 -2054.5,566.9 -2054.5,571.4 -1878.3,571.4 
		-1878.3,566.9 -1874.2,566.9 -1874.2,562.8 -1870.1,562.8 	"/>
</g>
<g>
	<polygon class="st9" points="-1433.1,1957.4 -1443.2,1957.4 -1818.1,1957.4 -1818.1,1967.5 -1828.2,1967.5 -1828.2,2025.3 
		-1818.1,2025.3 -1818.1,2035.4 -1443.2,2035.4 -1433.1,2035.4 -1433.1,2025.3 -1423.1,2025.3 -1423.1,1967.5 -1433.1,1967.5 	"/>
	<polygon class="st10" points="-1433.1,1947.4 -1443.2,1947.4 -1818.1,1947.4 -1818.1,1957.5 -1828.2,1957.5 -1828.2,2015.3 
		-1818.1,2015.3 -1818.1,2025.4 -1443.2,2025.4 -1433.1,2025.4 -1433.1,2015.3 -1423.1,2015.3 -1423.1,1957.5 -1433.1,1957.5 	"/>
	<g>
		<path class="st4" d="M-1708.1,1998.3h-6.9v-27.6h17.3v3.5h3.5v10.4h-3.5v3.5h-10.4V1998.3z M-1708.1,1981h6.9v-3.5h-6.9V1981z"/>
		<path class="st4" d="M-1687.4,1994.8h-3.5v-24.2h6.9v20.7h13.8v6.9h-17.3V1994.8z"/>
		<path class="st4" d="M-1659.7,1998.3h-6.9v-24.2h3.5v-3.5h13.8v3.5h3.5v24.2h-6.9v-10.4h-6.9V1998.3z M-1652.8,1981v-3.5h-6.9v3.5
			H-1652.8z"/>
		<path class="st4" d="M-1642.4,1970.6h6.9v10.4h6.9v-10.4h6.9v13.8h-3.5v3.5h-3.5v10.4h-6.9v-10.4h-3.5v-3.5h-3.5V1970.6z"/>
		<path class="st4" d="M-1614.8,1994.8h-3.5v-20.7h3.5v-3.5h17.3v6.9h-13.8v3.5h6.9v6.9h-6.9v3.5h13.8v6.9h-17.3V1994.8z"/>
		<path class="st4" d="M-1583.7,1987.9h-3.5v10.4h-6.9v-27.6h17.3v3.5h3.5v10.4h-3.5v3.5h3.5v10.4h-6.9v-6.9h-3.5V1987.9z
			 M-1587.1,1981h6.9v-3.5h-6.9V1981z"/>
		<path class="st4" d="M-1545.7,1970.6h6.9v27.6h-6.9V1970.6z"/>
	</g>
</g>
<g>
	<polygon class="st11" points="-1794,1836.8 -1795.9,1831 -1800,1819 -1817.8,1825 -1815.8,1830.8 -1821.6,1832.8 -1817.5,1844.8 
		-1811.8,1842.8 -1809.8,1848.6 -1797.8,1844.5 -1799.7,1838.8 	"/>
	<polygon class="st11" points="-1755.2,1824.7 -1757.1,1819 -1761.2,1806.9 -1779,1813 -1777,1818.7 -1782.8,1820.7 -1778.7,1832.7 
		-1773,1830.8 -1771,1836.5 -1759,1832.5 -1760.9,1826.7 	"/>
	<rect x="-1814.7" y="1777.8" transform="matrix(0.9472 -0.3207 0.3207 0.9472 -672.0495 -485.957)" width="7.1" height="38.6"/>
	<polygon points="-1795.6,1832 -1797.6,1826.2 -1801.6,1814.2 -1819.4,1820.2 -1817.5,1826 -1823.2,1828 -1819.2,1840 -1813.4,1838 
		-1811.4,1843.8 -1799.4,1839.7 -1801.4,1833.9 	"/>
	<rect x="-1776.3" y="1764.8" transform="matrix(0.9472 -0.3207 0.3207 0.9472 -665.8395 -474.3073)" width="7.1" height="38.6"/>
	<polygon points="-1757.1,1819 -1759.1,1813.2 -1763.2,1801.2 -1780.9,1807.2 -1779,1813 -1784.8,1814.9 -1780.7,1826.9 
		-1774.9,1825 -1773,1830.8 -1760.9,1826.7 -1762.9,1820.9 	"/>
	<rect x="-1824.8" y="1755.5" transform="matrix(0.9472 -0.3207 0.3207 0.9472 -660.9353 -484.4015)" width="47.7" height="17.3"/>
</g>
<g>
	<polygon class="st11" points="-1727.8,1870.4 -1726.8,1866.2 -1724.9,1857.6 -1737.7,1854.8 -1738.7,1858.9 -1742.8,1858 
		-1744.7,1866.7 -1740.6,1867.6 -1741.5,1871.7 -1732.8,1873.6 -1731.9,1869.5 	"/>
	<polygon class="st11" points="-1700.3,1877.2 -1699.3,1873 -1697.4,1864.4 -1710.2,1861.6 -1711.1,1865.7 -1715.3,1864.8 
		-1717.2,1873.4 -1713,1874.3 -1714,1878.5 -1705.3,1880.4 -1704.4,1876.2 	"/>
	<rect x="-1726.2" y="1827" transform="matrix(0.9766 0.2149 -0.2149 0.9766 355.2249 413.4018)" width="5" height="26.9"/>
	<polygon points="-1727,1866.9 -1726.1,1862.8 -1724.2,1854.1 -1737,1851.3 -1737.9,1855.5 -1742,1854.6 -1743.9,1863.2 
		-1739.8,1864.1 -1740.7,1868.3 -1732.1,1870.2 -1731.2,1866 	"/>
	<rect x="-1698.5" y="1833.1" transform="matrix(0.9766 0.2149 -0.2149 0.9766 357.179 407.5999)" width="5" height="26.9"/>
	<polygon points="-1699.3,1873 -1698.4,1868.9 -1696.5,1860.2 -1709.3,1857.4 -1710.2,1861.6 -1714.4,1860.6 -1716.3,1869.3 
		-1712.1,1870.2 -1713,1874.3 -1704.4,1876.2 -1703.5,1872.1 	"/>
	<rect x="-1722.3" y="1818.5" transform="matrix(0.9766 0.2149 -0.2149 0.9766 352.2131 409.1574)" width="33.3" height="12"/>
</g>
<g>
	<polygon class="st11" points="-1651.7,1808.6 -1652.4,1805.5 -1653.8,1799.2 -1663.2,1801.3 -1662.5,1804.3 -1665.6,1805 
		-1664.2,1811.4 -1661.1,1810.7 -1660.5,1813.7 -1654.1,1812.3 -1654.8,1809.3 	"/>
	<polygon class="st11" points="-1631.3,1804.6 -1632,1801.5 -1633.4,1795.2 -1642.8,1797.3 -1642.1,1800.3 -1645.2,1801 
		-1643.8,1807.3 -1640.7,1806.7 -1640,1809.7 -1633.7,1808.3 -1634.4,1805.3 	"/>
	<rect x="-1660.1" y="1777.5" transform="matrix(0.9761 -0.2173 0.2173 0.9761 -428.0013 -317.6268)" width="3.6" height="19.8"/>
	<polygon points="-1652.3,1806 -1653,1803 -1654.4,1796.7 -1663.8,1798.7 -1663.1,1801.8 -1666.2,1802.5 -1664.7,1808.8 
		-1661.7,1808.1 -1661,1811.2 -1654.7,1809.8 -1655.4,1806.7 	"/>
	<rect x="-1639.8" y="1773" transform="matrix(0.9761 -0.2173 0.2173 0.9761 -426.5337 -313.3221)" width="3.6" height="19.8"/>
	<polygon points="-1632,1801.5 -1632.7,1798.5 -1634.1,1792.1 -1643.5,1794.2 -1642.8,1797.3 -1645.8,1797.9 -1644.4,1804.3 
		-1641.4,1803.6 -1640.7,1806.7 -1634.4,1805.3 -1635,1802.2 	"/>
	<rect x="-1663.5" y="1766.8" transform="matrix(0.9761 -0.2173 0.2173 0.9761 -424.308 -316.4833)" width="24.4" height="8.8"/>
</g>
<g>
	<polygon class="st11" points="-1631.1,1854.4 -1628.5,1850.2 -1623.1,1841.7 -1635.8,1833.6 -1638.4,1837.7 -1642.5,1835.1 
		-1647.9,1843.7 -1643.8,1846.3 -1646.4,1850.4 -1637.9,1855.9 -1635.2,1851.7 	"/>
	<polygon class="st11" points="-1604.1,1872.5 -1601.5,1868.3 -1596.1,1859.8 -1608.8,1851.7 -1611.4,1855.8 -1615.5,1853.2 
		-1620.9,1861.8 -1616.8,1864.4 -1619.4,1868.5 -1610.9,1874 -1608.3,1869.8 	"/>
	<rect x="-1617.9" y="1808.2" transform="matrix(0.844 0.5363 -0.5363 0.844 726.1506 1150.6016)" width="5.7" height="30.9"/>
	<polygon points="-1629,1850.9 -1626.3,1846.8 -1620.9,1838.2 -1633.6,1830.2 -1636.2,1834.3 -1640.3,1831.7 -1645.8,1840.2 
		-1641.6,1842.9 -1644.3,1847 -1635.7,1852.4 -1633.1,1848.3 	"/>
	<rect x="-1590.4" y="1825.7" transform="matrix(0.844 0.5363 -0.5363 0.844 739.775 1138.6107)" width="5.7" height="30.9"/>
	<polygon points="-1601.5,1868.3 -1598.9,1864.2 -1593.5,1855.7 -1606.2,1847.6 -1608.8,1851.7 -1612.9,1849.1 -1618.3,1857.7 
		-1614.2,1860.3 -1616.8,1864.4 -1608.3,1869.8 -1605.6,1865.7 	"/>
	<rect x="-1608.4" y="1806.6" transform="matrix(0.844 0.5363 -0.5363 0.844 724.7191 1135.2394)" width="38.2" height="13.8"/>
</g>
<g>
	<polygon class="st9" points="-1909.9,1413.9 -1916.5,1413.9 -2162.9,1413.9 -2162.9,1420.5 -2169.5,1420.5 -2169.5,1458.6 
		-2162.9,1458.6 -2162.9,1465.2 -1916.5,1465.2 -1909.9,1465.2 -1909.9,1458.6 -1903.3,1458.6 -1903.3,1420.5 -1909.9,1420.5 	"/>
	<polygon class="st12" points="-1909.9,1413.9 -1916.5,1413.9 -2162.9,1413.9 -2162.9,1420.5 -2169.5,1420.5 -2169.5,1458.6 
		-2162.9,1458.6 -2162.9,1465.2 -1916.5,1465.2 -1909.9,1465.2 -1909.9,1458.6 -1903.3,1458.6 -1903.3,1420.5 -1909.9,1420.5 	"/>
	<g>
		<path class="st4" d="M-2103.1,1431.5h2.3v-2.3h11.4v4.5h-9.1v9.1h9.1v4.5h-11.4v-2.3h-2.3V1431.5z"/>
		<path class="st4" d="M-2082.6,1447.4h-4.5v-15.9h2.3v-2.3h9.1v2.3h2.3v15.9h-4.5v-6.8h-4.5V1447.4z M-2078.1,1436v-2.3h-4.5v2.3
			H-2078.1z"/>
		<path class="st4" d="M-2069,1445.1h-2.3v-15.9h4.5v13.6h9.1v4.5h-11.4V1445.1z"/>
		<path class="st4" d="M-2055.4,1429.2h4.5v18.2h-4.5V1429.2z"/>
		<path class="st4" d="M-2048.6,1429.2h11.4v2.3h2.3v13.6h-2.3v2.3h-11.4V1429.2z M-2044,1436h4.5v-2.3h-4.5V1436z M-2044,1442.8
			h4.5v-2.3h-4.5V1442.8z"/>
		<path class="st4" d="M-2025.9,1440.6h-2.3v6.8h-4.5v-15.9h2.3v-2.3h9.1v2.3h2.3v6.8h-2.3v2.3h2.3v6.8h-4.5v-4.5h-2.3V1440.6z
			 M-2028.1,1436h4.5v-2.3h-4.5V1436z"/>
		<path class="st4" d="M-2012.2,1447.4h-4.5v-15.9h2.3v-2.3h9.1v2.3h2.3v15.9h-4.5v-6.8h-4.5V1447.4z M-2007.7,1436v-2.3h-4.5v2.3
			H-2007.7z"/>
		<path class="st4" d="M-2000.9,1429.2h13.6v4.5h-4.5v13.6h-4.5v-13.6h-4.5V1429.2z"/>
		<path class="st4" d="M-1982.7,1445.1h-2.3v-13.6h2.3v-2.3h11.4v4.5h-9.1v2.3h4.5v4.5h-4.5v2.3h9.1v4.5h-11.4V1445.1z"/>
	</g>
</g>
<g>
	<polygon class="st9" points="-1589.9,1481.9 -1596.5,1481.9 -1842.9,1481.9 -1842.9,1488.5 -1849.5,1488.5 -1849.5,1526.6 
		-1842.9,1526.6 -1842.9,1533.2 -1596.5,1533.2 -1589.9,1533.2 -1589.9,1526.6 -1583.3,1526.6 -1583.3,1488.5 -1589.9,1488.5 	"/>
	<polygon class="st10" points="-1589.9,1475.4 -1596.5,1475.4 -1842.9,1475.4 -1842.9,1482 -1849.5,1482 -1849.5,1520 -1842.9,1520 
		-1842.9,1526.6 -1596.5,1526.6 -1589.9,1526.6 -1589.9,1520 -1583.3,1520 -1583.3,1482 -1589.9,1482 	"/>
	<g>
		<path class="st4" d="M-1783.1,1492.9h2.3v-2.3h11.4v4.5h-9.1v9.1h9.1v4.5h-11.4v-2.3h-2.3V1492.9z"/>
		<path class="st4" d="M-1762.6,1508.8h-4.5v-15.9h2.3v-2.3h9.1v2.3h2.3v15.9h-4.5v-6.8h-4.5V1508.8z M-1758.1,1497.4v-2.3h-4.5v2.3
			H-1758.1z"/>
		<path class="st4" d="M-1749,1506.5h-2.3v-15.9h4.5v13.6h9.1v4.5h-11.4V1506.5z"/>
		<path class="st4" d="M-1735.4,1490.6h4.5v18.2h-4.5V1490.6z"/>
		<path class="st4" d="M-1728.6,1490.6h11.4v2.3h2.3v13.6h-2.3v2.3h-11.4V1490.6z M-1724,1497.4h4.5v-2.3h-4.5V1497.4z
			 M-1724,1504.3h4.5v-2.3h-4.5V1504.3z"/>
		<path class="st4" d="M-1705.9,1502h-2.3v6.8h-4.5v-15.9h2.3v-2.3h9.1v2.3h2.3v6.8h-2.3v2.3h2.3v6.8h-4.5v-4.5h-2.3V1502z
			 M-1708.1,1497.4h4.5v-2.3h-4.5V1497.4z"/>
		<path class="st4" d="M-1692.2,1508.8h-4.5v-15.9h2.3v-2.3h9.1v2.3h2.3v15.9h-4.5v-6.8h-4.5V1508.8z M-1687.7,1497.4v-2.3h-4.5v2.3
			H-1687.7z"/>
		<path class="st4" d="M-1680.9,1490.6h13.6v4.5h-4.5v13.6h-4.5v-13.6h-4.5V1490.6z"/>
		<path class="st4" d="M-1662.7,1506.5h-2.3v-13.6h2.3v-2.3h11.4v4.5h-9.1v2.3h4.5v4.5h-4.5v2.3h9.1v4.5h-11.4V1506.5z"/>
	</g>
</g>
<g>
	<rect x="-1847.9" y="1564.3" class="st9" width="219.8" height="28.8"/>
	<rect x="-1852.7" y="1557.7" class="st9" width="229.4" height="30.6"/>
	<polygon class="st10" points="-1852.7,1553.4 -1852.7,1582.6 -1847.9,1582.6 -1847.9,1588.3 -1628.1,1588.3 -1628.1,1582.6 
		-1623.3,1582.6 -1623.3,1553.4 	"/>
</g>
<polygon class="st9" points="-1632.9,1568.2 -1632.9,1563.1 -1638,1563.1 -1638,1563 -1694.7,1563 -1725.2,1563 -1750.8,1563 
	-1774.7,1563 -1838,1563 -1838,1563.1 -1843.1,1563.1 -1843.1,1568.2 -1848.2,1568.2 -1848.2,1575.8 -1843.1,1575.8 -1843.1,1580.9 
	-1838,1580.9 -1838,1581 -1774.7,1581 -1750.8,1581 -1725.2,1581 -1694.7,1581 -1638,1581 -1638,1581 -1632.9,1581 -1632.9,1575.9 
	-1627.8,1575.9 -1627.8,1568.2 "/>
<g>
	<rect x="-1856.8" y="1662.3" class="st13" width="4.7" height="0.1"/>
	<rect x="-1856.8" y="1680.2" class="st13" width="4.7" height="0.1"/>
	<polygon class="st4" points="-1835.8,1680.2 -1835.8,1675.1 -1830.7,1675.1 -1830.7,1667.5 -1835.8,1667.5 -1835.8,1662.4 
		-1840.9,1662.4 -1840.9,1662.3 -1852.1,1662.3 -1852.1,1662.4 -1856.8,1662.4 -1856.8,1680.2 -1852.1,1680.2 -1852.1,1680.3 
		-1840.9,1680.3 -1840.9,1680.2 	"/>
</g>
<g>
	<polygon class="st4" points="-1882.6,1626.7 -1882.6,1621.7 -1887.7,1621.7 -1887.7,1621.6 -1903.7,1621.6 -1903.7,1639.6 
		-1887.7,1639.6 -1887.7,1639.5 -1882.6,1639.5 -1882.6,1634.4 -1877.5,1634.4 -1877.5,1626.7 	"/>
	<polygon class="st4" points="-1896.1,1665.6 -1896.1,1660.5 -1896.2,1660.5 -1896.2,1660.4 -1900.7,1660.4 -1901.2,1660.4 
		-1905.8,1660.4 -1905.8,1660.5 -1905.8,1660.5 -1905.8,1665.6 -1910.9,1665.6 -1910.9,1673.2 -1905.8,1673.2 -1905.8,1678.3 
		-1905.8,1678.3 -1905.8,1678.4 -1901.2,1678.4 -1900.7,1678.4 -1896.2,1678.4 -1896.2,1678.3 -1896.1,1678.3 -1896.1,1673.3 
		-1891,1673.3 -1891,1665.6 	"/>
</g>
<polygon class="st4" points="-1945.9,1568.2 -1945.9,1563.1 -1945.9,1563.1 -1945.9,1563 -1950.5,1563 -1951,1563 -1955.5,1563 
	-1955.5,1563.1 -1955.6,1563.1 -1955.6,1568.2 -1960.7,1568.2 -1960.7,1575.8 -1955.6,1575.8 -1955.6,1580.9 -1955.5,1580.9 
	-1955.5,1581 -1951,1581 -1950.5,1581 -1945.9,1581 -1945.9,1581 -1945.9,1581 -1945.9,1575.9 -1940.8,1575.9 -1940.8,1568.2 "/>
<polygon class="st14" points="-980.1,1957.4 -990.2,1957.4 -1365.1,1957.4 -1365.1,1967.5 -1375.2,1967.5 -1375.2,2025.3 
	-1365.1,2025.3 -1365.1,2035.4 -990.2,2035.4 -980.1,2035.4 -980.1,2025.3 -970.1,2025.3 -970.1,1967.5 -980.1,1967.5 "/>
<polygon class="st15" points="-980.1,1947.4 -990.2,1947.4 -1365.1,1947.4 -1365.1,1957.5 -1375.2,1957.5 -1375.2,2015.3 
	-1365.1,2015.3 -1365.1,2025.4 -990.2,2025.4 -980.1,2025.4 -980.1,2015.3 -970.1,2015.3 -970.1,1957.5 -980.1,1957.5 "/>
<g>
	<path class="st4" d="M-1262.5,1998.3h-6.9v-27.6h17.3v3.5h3.5v10.4h-3.5v3.5h-10.4V1998.3z M-1262.5,1981h6.9v-3.5h-6.9V1981z"/>
	<path class="st4" d="M-1241.8,1994.8h-3.5v-24.2h6.9v20.7h13.8v6.9h-17.3V1994.8z"/>
	<path class="st4" d="M-1214.1,1998.3h-6.9v-24.2h3.5v-3.5h13.8v3.5h3.5v24.2h-6.9v-10.4h-6.9V1998.3z M-1207.2,1981v-3.5h-6.9v3.5
		H-1207.2z"/>
	<path class="st4" d="M-1196.8,1970.6h6.9v10.4h6.9v-10.4h6.9v13.8h-3.5v3.5h-3.5v10.4h-6.9v-10.4h-3.5v-3.5h-3.5V1970.6z"/>
	<path class="st4" d="M-1169.2,1994.8h-3.5v-20.7h3.5v-3.5h17.3v6.9h-13.8v3.5h6.9v6.9h-6.9v3.5h13.8v6.9h-17.3V1994.8z"/>
	<path class="st4" d="M-1138.1,1987.9h-3.5v10.4h-6.9v-27.6h17.3v3.5h3.5v10.4h-3.5v3.5h3.5v10.4h-6.9v-6.9h-3.5V1987.9z
		 M-1141.6,1981h6.9v-3.5h-6.9V1981z"/>
	<path class="st4" d="M-1100.1,1970.6h17.3v3.5h3.5v10.4h-3.5v3.5h-10.4v3.5h13.8v6.9h-20.7v-13.8h3.5v-3.5h10.4v-3.5h-13.8V1970.6z
		"/>
</g>
<g>
	<rect x="-1354.2" y="1951.4" class="st4" width="45.1" height="5.7"/>
	<rect x="-1302.9" y="1951.4" class="st4" width="5.7" height="5.7"/>
</g>
<g>
	<rect x="-1808.7" y="1952.4" class="st4" width="45.1" height="5.7"/>
	<rect x="-1757.4" y="1952.4" class="st4" width="5.7" height="5.7"/>
</g>
<polygon class="st16" points="-1419.5,1792.4 -1413.1,1798 -1418.7,1804.4 -1398.3,1821.8 -1398.3,1859.6 -1377.6,1833.6 
	-1345.8,1862.9 -1340,1856.7 -1335,1861.3 -1263.4,1742.6 "/>
<polygon class="st17" points="-1422,1785.3 -1415.6,1790.9 -1421.2,1797.3 -1400.8,1814.6 -1400.8,1852.5 -1380,1826.4 
	-1348.3,1855.8 -1342.4,1849.5 -1337.5,1854.2 -1265.8,1735.5 "/>
<polygon class="st18" points="-1380,1826.2 -1265.6,1735.4 -1400.7,1814.4 -1400.7,1852.3 "/>
<polygon class="st19" points="-1423.1,1785.4 -1416.7,1791 -1422.3,1797.4 -1401.8,1814.8 -1401.8,1852.7 -1381.1,1826.6 
	-1349.3,1856 -1343.5,1849.7 -1338.5,1854.3 -1266.9,1735.6 "/>
<g>
	<polygon class="st20" points="-1487.2,1478.7 -1487.2,1642.3 -1476.8,1642.3 -1476.8,1651.8 -1466.4,1651.8 -1466.4,1662.3 
		-1019,1662.3 -1019,1651.8 -1008.6,1651.8 -1008.6,1642.3 -998.2,1642.3 -998.2,1478.7 	"/>
	<polygon class="st20" points="-998.2,1478.7 -998.2,1384.6 -1008.6,1384.6 -1008.6,1375.1 -1019,1375.1 -1019,1364.6 
		-1466.4,1364.6 -1466.4,1375.1 -1476.8,1375.1 -1476.8,1384.6 -1487.2,1384.6 -1487.2,1478.7 	"/>
</g>
<g>
	<polygon class="st21" points="-1476.8,1381.2 -1466.4,1381.2 -1466.4,1373.2 -1476.8,1373.2 -1476.8,1381.1 -1487.2,1381.1 
		-1487.2,1389.1 -1476.8,1389.1 	"/>
	<rect x="-1466.4" y="1364.5" class="st21" width="447.5" height="8"/>
	<polygon class="st21" points="-1008.6,1381.1 -1008.6,1373.2 -1019,1373.2 -1019,1381.2 -1008.6,1381.2 -1008.6,1389.1 
		-998.2,1389.1 -998.2,1381.1 	"/>
</g>
<g>
	<g>
		<g>
			<rect x="-1880.4" y="1300.2" width="10.2" height="10.2"/>
		</g>
	</g>
	<g>
		<g>
			<path d="M-1818.9,1290v5.1h-5.1v5.1h5.1v20.5h5.1v5.1h-5.1v5.1h5.1h5.1v-10.2h15.4v5.1h5.1v-5.1V1290H-1818.9z M-1793.3,1315.6
				h-20.5v-20.5h20.5V1315.6z"/>
		</g>
	</g>
	<g>
		<g>
			<rect x="-1808.7" y="1300.2" width="10.2" height="10.2"/>
		</g>
	</g>
	<g>
		<g>
			<rect x="-1880.4" y="1371.9" width="10.2" height="10.2"/>
		</g>
	</g>
	<g>
		<g>
			<rect x="-1818.9" y="1361.7" width="5.1" height="5.1"/>
		</g>
	</g>
	<g>
		<g>
			<rect x="-1844.5" y="1387.3" width="5.1" height="5.1"/>
		</g>
	</g>
	<g>
		<g>
			<rect x="-1839.4" y="1366.8" width="5.1" height="5.1"/>
		</g>
	</g>
	<g>
		<g>
			<rect x="-1839.4" y="1377" width="5.1" height="5.1"/>
		</g>
	</g>
	<g>
		<g>
			<rect x="-1793.3" y="1351.4" width="5.1" height="5.1"/>
		</g>
	</g>
	<g>
		<g>
			<rect x="-1890.6" y="1351.4" width="5.1" height="5.1"/>
		</g>
	</g>
	<g>
		<g>
			<rect x="-1890.6" y="1325.8" width="5.1" height="5.1"/>
		</g>
	</g>
	<g>
		<g>
			<polygon points="-1834.3,1295.1 -1834.3,1300.2 -1844.5,1300.2 -1844.5,1305.3 -1829.2,1305.3 -1829.2,1300.2 -1829.2,1295.1 			
				"/>
		</g>
	</g>
	<g>
		<g>
			<path d="M-1793.3,1330.9v5.1h-10.2v5.1h-15.4v-5.1h-5.1v5.1h-10.2v5.1h15.4v5.1h-10.2h-5.1v-5.1h-5.1v5.1h-5.1v-5.1h-5.1v5.1
				h-5.1v5.1h10.2v5.1h5.1v-5.1h10.2v5.1h-5.1v5.1h5.1v10.2h5.1v5.1h5.1v-5.1h15.4v-10.2h5.1v-5.1h-5.1v-10.2h-10.2v-5.1h10.2v5.1
				h5.1v-5.1h5.1v-5.1h5.1v-5.1v-5.1H-1793.3L-1793.3,1330.9z M-1808.7,1356.5v15.4h-15.4v-15.4H-1808.7z"/>
		</g>
	</g>
	<g>
		<g>
			<polygon points="-1824,1320.7 -1829.2,1320.7 -1829.2,1325.8 -1834.3,1325.8 -1834.3,1330.9 -1834.3,1336 -1829.2,1336 
				-1829.2,1330.9 -1824,1330.9 -1824,1325.8 -1818.9,1325.8 -1818.9,1320.7 			"/>
		</g>
	</g>
	<g>
		<g>
			<rect x="-1834.3" y="1387.3" width="10.2" height="5.1"/>
		</g>
	</g>
	<g>
		<g>
			<rect x="-1849.6" y="1295.1" width="5.1" height="5.1"/>
		</g>
	</g>
	<g>
		<g>
			<rect x="-1808.7" y="1330.9" width="5.1" height="5.1"/>
		</g>
	</g>
	<g>
		<g>
			<rect x="-1803.6" y="1325.8" width="5.1" height="5.1"/>
		</g>
	</g>
	<g>
		<g>
			<rect x="-1870.1" y="1351.4" width="5.1" height="5.1"/>
		</g>
	</g>
	<g>
		<g>
			<path d="M-1859.9,1387.3v-20.5h5.1v-5.1v-5.1h-5.1v5.1h-15.4v-5.1h-5.1h-5.1v5.1h-5.1v30.7h30.7h10.2v-5.1H-1859.9z
				 M-1865,1387.3h-20.5v-20.5h20.5V1387.3z"/>
		</g>
	</g>
	<g>
		<g>
			<rect x="-1859.9" y="1320.7" width="5.1" height="5.1"/>
		</g>
	</g>
	<g>
		<g>
			<path d="M-1854.8,1290h-5.1h-30.7v30.7h5.1v5.1h5.1v-5.1h5.1v5.1h5.1v-5.1h10.2v-10.2h5.1v-5.1h-5.1v-10.2h5.1h5.1v-5.1H-1854.8z
				 M-1865,1315.6h-20.5v-20.5h20.5V1315.6z"/>
		</g>
	</g>
	<g>
		<g>
			<rect x="-1829.2" y="1305.3" width="5.1" height="5.1"/>
		</g>
	</g>
	<g>
		<g>
			<rect x="-1839.4" y="1290" width="5.1" height="5.1"/>
		</g>
	</g>
	<g>
		<g>
			<path d="M-1829.2,1320.7v-5.1h-5.1v-5.1h-5.1v5.1h-10.2v-5.1h-5.1v5.1v5.1h5.1v10.2h-15.4v-5.1h-5.1v5.1h-15.4v5.1h10.2v5.1
				h-15.4v5.1h15.4v5.1h5.1v-5.1h5.1v5.1h5.1v-5.1h10.2v-5.1h-5.1v-5.1h5.1h5.1v5.1h5.1h5.1v-5.1h-5.1v-5.1h-5.1v-10.2H-1829.2
				L-1829.2,1320.7z M-1859.9,1341.2h-10.2v-5.1h10.2V1341.2z"/>
		</g>
	</g>
	<g>
		<g>
			<polygon points="-1844.5,1371.9 -1844.5,1366.8 -1844.5,1361.7 -1849.6,1361.7 -1849.6,1366.8 -1854.8,1366.8 -1854.8,1371.9 
				-1849.6,1371.9 -1849.6,1377 -1854.8,1377 -1854.8,1382.1 -1844.5,1382.1 -1844.5,1377 -1839.4,1377 -1839.4,1371.9 			"/>
		</g>
	</g>
	<g>
		<g>
			<polygon points="-1798.4,1382.1 -1798.4,1377 -1803.6,1377 -1803.6,1382.1 -1818.9,1382.1 -1818.9,1387.3 -1808.7,1387.3 
				-1808.7,1392.4 -1803.6,1392.4 -1803.6,1387.3 -1793.3,1387.3 -1793.3,1392.4 -1788.2,1392.4 -1788.2,1387.3 -1788.2,1382.1 			
				"/>
		</g>
	</g>
	<g>
		<g>
			<polygon points="-1793.3,1361.7 -1793.3,1366.8 -1798.4,1366.8 -1798.4,1371.9 -1788.2,1371.9 -1788.2,1366.8 -1788.2,1361.7 			
				"/>
		</g>
	</g>
</g>
<g>
	<g>
		<polygon class="st9" points="-2118.7,1706.1 -2122.4,1706.1 -2259.6,1706.1 -2259.6,1709.8 -2263.3,1709.8 -2263.3,1731 
			-2259.6,1731 -2259.6,1734.6 -2122.4,1734.6 -2118.7,1734.6 -2118.7,1731 -2115,1731 -2115,1709.8 -2118.7,1709.8 		"/>
		<polygon class="st12" points="-2118.7,1706.1 -2122.4,1706.1 -2259.6,1706.1 -2259.6,1709.8 -2263.3,1709.8 -2263.3,1731 
			-2259.6,1731 -2259.6,1734.6 -2122.4,1734.6 -2118.7,1734.6 -2118.7,1731 -2115,1731 -2115,1709.8 -2118.7,1709.8 		"/>
		<g>
			<path class="st4" d="M-2231.3,1720.9h-1.3v3.8h-2.5v-10.1h6.3v1.3h1.3v3.8h-1.3v1.3h1.3v3.8h-2.5v-2.5h-1.3V1720.9z
				 M-2232.6,1718.4h2.5v-1.3h-2.5V1718.4z"/>
			<path class="st4" d="M-2225,1723.4h-1.3v-7.6h1.3v-1.3h6.3v2.5h-5.1v1.3h2.5v2.5h-2.5v1.3h5.1v2.5h-6.3V1723.4z"/>
			<path class="st4" d="M-2216.2,1723.4h-1.3v-7.6h1.3v-1.3h5.1v1.3h1.3v2.5h-2.5v-1.3h-2.5v5.1h2.5v-1.3h2.5v2.5h-1.3v1.3h-5.1
				V1723.4z"/>
			<path class="st4" d="M-2206.1,1724.7h-2.5v-8.9h1.3v-1.3h5.1v1.3h1.3v8.9h-2.5v-3.8h-2.5V1724.7z M-2203.5,1718.4v-1.3h-2.5v1.3
				H-2203.5z"/>
			<path class="st4" d="M-2198.5,1723.4h-1.3v-8.9h2.5v7.6h5.1v2.5h-6.3V1723.4z"/>
			<path class="st4" d="M-2190.9,1714.6h2.5v10.1h-2.5V1714.6z"/>
			<path class="st4" d="M-2187.1,1714.6h6.3v1.3h1.3v7.6h-1.3v1.3h-6.3V1714.6z M-2184.6,1718.4h2.5v-1.3h-2.5V1718.4z
				 M-2184.6,1722.2h2.5v-1.3h-2.5V1722.2z"/>
			<path class="st4" d="M-2174.4,1720.9h-1.3v3.8h-2.5v-8.9h1.3v-1.3h5.1v1.3h1.3v3.8h-1.3v1.3h1.3v3.8h-2.5v-2.5h-1.3V1720.9z
				 M-2175.7,1718.4h2.5v-1.3h-2.5V1718.4z"/>
			<path class="st4" d="M-2166.9,1724.7h-2.5v-8.9h1.3v-1.3h5.1v1.3h1.3v8.9h-2.5v-3.8h-2.5V1724.7z M-2164.3,1718.4v-1.3h-2.5v1.3
				H-2164.3z"/>
			<path class="st4" d="M-2160.5,1714.6h7.6v2.5h-2.5v7.6h-2.5v-7.6h-2.5V1714.6z"/>
			<path class="st4" d="M-2150.4,1723.4h-1.3v-7.6h1.3v-1.3h6.3v2.5h-5.1v1.3h2.5v2.5h-2.5v1.3h5.1v2.5h-6.3V1723.4z"/>
		</g>
	</g>
	<g>
		<rect x="-2257.1" y="1708.2" class="st4" width="13.1" height="1.7"/>
		<rect x="-2242.2" y="1708.2" class="st4" width="1.7" height="1.7"/>
	</g>
</g>
<g>
	<g>
		<polygon class="st9" points="-2118.7,1748.1 -2122.4,1748.1 -2259.6,1748.1 -2259.6,1751.8 -2263.3,1751.8 -2263.3,1773 
			-2259.6,1773 -2259.6,1776.6 -2122.4,1776.6 -2118.7,1776.6 -2118.7,1773 -2115,1773 -2115,1751.8 -2118.7,1751.8 		"/>
		<polygon class="st10" points="-2118.7,1744.4 -2122.4,1744.4 -2259.6,1744.4 -2259.6,1748.1 -2263.3,1748.1 -2263.3,1769.3 
			-2259.6,1769.3 -2259.6,1773 -2122.4,1773 -2118.7,1773 -2118.7,1769.3 -2115,1769.3 -2115,1748.1 -2118.7,1748.1 		"/>
		<g>
			<path class="st4" d="M-2231.3,1759.3h-1.3v3.8h-2.5v-10.1h6.3v1.3h1.3v3.8h-1.3v1.3h1.3v3.8h-2.5v-2.5h-1.3V1759.3z
				 M-2232.6,1756.7h2.5v-1.3h-2.5V1756.7z"/>
			<path class="st4" d="M-2225,1761.8h-1.3v-7.6h1.3v-1.3h6.3v2.5h-5.1v1.3h2.5v2.5h-2.5v1.3h5.1v2.5h-6.3V1761.8z"/>
			<path class="st4" d="M-2216.2,1761.8h-1.3v-7.6h1.3v-1.3h5.1v1.3h1.3v2.5h-2.5v-1.3h-2.5v5.1h2.5v-1.3h2.5v2.5h-1.3v1.3h-5.1
				V1761.8z"/>
			<path class="st4" d="M-2206.1,1763.1h-2.5v-8.9h1.3v-1.3h5.1v1.3h1.3v8.9h-2.5v-3.8h-2.5V1763.1z M-2203.5,1756.7v-1.3h-2.5v1.3
				H-2203.5z"/>
			<path class="st4" d="M-2198.5,1761.8h-1.3v-8.9h2.5v7.6h5.1v2.5h-6.3V1761.8z"/>
			<path class="st4" d="M-2190.9,1752.9h2.5v10.1h-2.5V1752.9z"/>
			<path class="st4" d="M-2187.1,1752.9h6.3v1.3h1.3v7.6h-1.3v1.3h-6.3V1752.9z M-2184.6,1756.7h2.5v-1.3h-2.5V1756.7z
				 M-2184.6,1760.5h2.5v-1.3h-2.5V1760.5z"/>
			<path class="st4" d="M-2174.4,1759.3h-1.3v3.8h-2.5v-8.9h1.3v-1.3h5.1v1.3h1.3v3.8h-1.3v1.3h1.3v3.8h-2.5v-2.5h-1.3V1759.3z
				 M-2175.7,1756.7h2.5v-1.3h-2.5V1756.7z"/>
			<path class="st4" d="M-2166.9,1763.1h-2.5v-8.9h1.3v-1.3h5.1v1.3h1.3v8.9h-2.5v-3.8h-2.5V1763.1z M-2164.3,1756.7v-1.3h-2.5v1.3
				H-2164.3z"/>
			<path class="st4" d="M-2160.5,1752.9h7.6v2.5h-2.5v7.6h-2.5v-7.6h-2.5V1752.9z"/>
			<path class="st4" d="M-2150.4,1761.8h-1.3v-7.6h1.3v-1.3h6.3v2.5h-5.1v1.3h2.5v2.5h-2.5v1.3h5.1v2.5h-6.3V1761.8z"/>
		</g>
	</g>
	<g>
		<rect x="-2257.1" y="1747.2" class="st4" width="13.1" height="1.7"/>
		<rect x="-2242.2" y="1747.2" class="st4" width="1.7" height="1.7"/>
	</g>
</g>
<g>
	<rect x="-1837.3" y="1478.9" class="st4" width="23.6" height="3"/>
	<rect x="-1810.6" y="1478.9" class="st4" width="3" height="3"/>
</g>
<g>
	<rect x="-2157.8" y="1417.5" class="st4" width="23.6" height="3"/>
	<rect x="-2131" y="1417.5" class="st4" width="3" height="3"/>
</g>
<g>
	<polygon class="st22" points="-2187.8,1541 -2187.8,1533.5 -2206.5,1533.5 -2206.5,1541 -2213.9,1541 -2213.9,1548.4 
		-2213.9,1559.6 -2206.5,1559.6 -2206.5,1567.1 -2195.3,1567.1 -2187.8,1567.1 -2187.8,1559.6 -2180.4,1559.6 -2180.4,1548.4 
		-2180.4,1541 	"/>
	<line class="st23" x1="-2205.9" y1="1567.1" x2="-2205.9" y2="1577"/>
	<line class="st23" x1="-2188.5" y1="1567.1" x2="-2188.5" y2="1577"/>
	<polygon class="st24" points="-2189.4,1575.2 -2191.6,1575.2 -2204.9,1575.2 -2204.9,1577.4 -2207.1,1577.4 -2207.1,1592.9 
		-2204.9,1592.9 -2204.9,1595.1 -2191.6,1595.1 -2189.4,1595.1 -2189.4,1592.9 -2187.2,1592.9 -2187.2,1577.4 -2189.4,1577.4 	"/>
</g>
<polygon class="st25" points="-2120.7,1980.2 -2120.7,1972.3 -2128.7,1972.3 -2193.7,1972.3 -2262.4,1972.3 -2262.4,1980.2 
	-2270.4,1980.2 -2270.4,2025.8 -2262.4,2025.8 -2262.4,2033.7 -2193.7,2033.7 -2128.7,2033.7 -2120.7,2033.7 -2120.7,2025.8 
	-2112.8,2025.8 -2112.8,1980.2 "/>
<polygon class="st25" points="-2120.7,1980.3 -2120.7,1972.4 -2128.7,1972.4 -2193.7,1972.4 -2262.4,1972.4 -2262.4,1980.3 
	-2270.4,1980.3 -2270.4,2025.9 -2262.4,2025.9 -2262.4,2033.8 -2193.7,2033.8 -2128.7,2033.8 -2120.7,2033.8 -2120.7,2025.9 
	-2112.8,2025.9 -2112.8,1980.3 "/>
<g>
	<path class="st4" d="M-2224.2,2013.8h-5.4V1992h13.6v2.7h2.7v8.2h-2.7v2.7h-8.2V2013.8z M-2224.2,2000.2h5.4v-2.7h-5.4V2000.2z"/>
	<path class="st4" d="M-2207.9,2011h-2.7v-19h5.4v16.3h10.9v5.4h-13.6V2011z"/>
	<path class="st4" d="M-2186.2,2013.8h-5.4v-19h2.7v-2.7h10.9v2.7h2.7v19h-5.4v-8.2h-5.4V2013.8z M-2180.7,2000.2v-2.7h-5.4v2.7
		H-2180.7z"/>
	<path class="st4" d="M-2172.5,1992h5.4v8.2h5.4v-8.2h5.4v10.9h-2.7v2.7h-2.7v8.2h-5.4v-8.2h-2.7v-2.7h-2.7V1992z"/>
</g>
<polygon class="st25" points="-1950.7,1980.2 -1950.7,1972.3 -1958.7,1972.3 -2023.7,1972.3 -2092.4,1972.3 -2092.4,1980.2 
	-2100.4,1980.2 -2100.4,2025.8 -2092.4,2025.8 -2092.4,2033.7 -2023.7,2033.7 -1958.7,2033.7 -1950.7,2033.7 -1950.7,2025.8 
	-1942.8,2025.8 -1942.8,1980.2 "/>
<polygon class="st22" points="-1950.7,1972.3 -1950.7,1964.4 -1958.7,1964.4 -2023.7,1964.4 -2092.4,1964.4 -2092.4,1972.3 
	-2100.4,1972.3 -2100.4,2017.9 -2092.4,2017.9 -2092.4,2025.8 -2023.7,2025.8 -1958.7,2025.8 -1950.7,2025.8 -1950.7,2017.9 
	-1942.8,2017.9 -1942.8,1972.3 "/>
<g>
	<path class="st4" d="M-2054.2,2005.8h-5.4V1984h13.6v2.7h2.7v8.2h-2.7v2.7h-8.2V2005.8z M-2054.2,1992.2h5.4v-2.7h-5.4V1992.2z"/>
	<path class="st4" d="M-2037.9,2003h-2.7v-19h5.4v16.3h10.9v5.4h-13.6V2003z"/>
	<path class="st4" d="M-2016.2,2005.8h-5.4v-19h2.7v-2.7h10.9v2.7h2.7v19h-5.4v-8.2h-5.4V2005.8z M-2010.7,1992.2v-2.7h-5.4v2.7
		H-2010.7z"/>
	<path class="st4" d="M-2002.5,1984h5.4v8.2h5.4v-8.2h5.4v10.9h-2.7v2.7h-2.7v8.2h-5.4v-8.2h-2.7v-2.7h-2.7V1984z"/>
</g>
<g>
	<path class="st26" d="M-2944.3,1734.6h43.2v108h43.2v-108h43.2v129.6h-21.6v21.6h-21.6v21.6h-43.2v-21.6h-21.6v-21.6h-21.6V1734.6z
		"/>
	<path class="st27" d="M-2793.1,1758.3h21.6v-21.6h108v43.2h-86.4v21.6h64.8v21.6h21.6v64.8h-21.6v21.6h-108v-43.2h86.4v-21.6h-64.8
		v-21.6h-21.6V1758.3z"/>
</g>
<g>
	<path class="st28" d="M-2944.3,1713.6h43.2v108h43.2v-108h43.2v129.6h-21.6v21.6h-21.6v21.6h-43.2v-21.6h-21.6v-21.6h-21.6V1713.6z
		"/>
	<path class="st29" d="M-2793.1,1735.2h21.6v-21.6h108v43.2h-86.4v21.6h64.8v21.6h21.6v64.8h-21.6v21.6h-108v-43.2h86.4v-21.6h-64.8
		V1800h-21.6V1735.2z"/>
</g>
<g>
	<g>
		<path class="st0" d="M-2895,2092.2h27.5v68.7h27.5v-68.7h27.5v82.4h-13.7v13.7h-13.7v13.7h-27.5v-13.7h-13.7v-13.7h-13.7V2092.2z"
			/>
		<path class="st0" d="M-2798.8,2107.2h13.7v-13.7h68.7v27.5h-54.9v13.7h41.2v13.7h13.7v41.2h-13.7v13.7h-68.7v-27.5h54.9v-13.7
			h-41.2v-13.7h-13.7V2107.2z"/>
	</g>
	<g>
		<path class="st7" d="M-2895,2077.7h27.5v68.7h27.5v-68.7h27.5v82.4h-13.7v13.7h-13.7v13.7h-27.5v-13.7h-13.7v-13.7h-13.7V2077.7z"
			/>
		<path class="st7" d="M-2798.8,2092.7h13.7V2079h68.7v27.5h-54.9v13.7h41.2v13.7h13.7v41.2h-13.7v13.7h-68.7v-27.5h54.9v-13.7
			h-41.2v-13.7h-13.7V2092.7z"/>
	</g>
	<g>
		<path class="st4" d="M-2895,2064.3h27.5v68.7h27.5v-68.7h27.5v82.4h-13.7v13.7h-13.7v13.7h-27.5v-13.7h-13.7v-13.7h-13.7V2064.3z"
			/>
		<path class="st4" d="M-2798.8,2078h13.7v-13.7h68.7v27.5h-54.9v13.7h41.2v13.7h13.7v41.2h-13.7v13.7h-68.7v-27.5h54.9V2133h-41.2
			v-13.7h-13.7V2078z"/>
	</g>
</g>
<g>
	<g>
		<path class="st0" d="M-2320.5,1232.5h-21.6v-86.4h54v10.8h10.8v32.4h-10.8v10.8h-32.4V1232.5z M-2320.5,1178.5h21.6v-10.8h-21.6
			V1178.5z"/>
		<path class="st0" d="M-2266.5,1156.9h10.8v-10.8h43.2v10.8h10.8v64.8h-10.8v10.8h-43.2v-10.8h-10.8V1156.9z M-2244.9,1210.9h21.6
			v-43.2h-21.6V1210.9z"/>
		<path class="st0" d="M-2180.1,1221.7h-10.8v-75.6h21.6v64.8h43.2v21.6h-54V1221.7z"/>
		<path class="st0" d="M-2136.9,1146.1h21.6v32.4h21.6v-32.4h21.6v43.2h-10.8v10.8h-10.8v32.4h-21.6v-32.4h-10.8v-10.8h-10.8V1146.1
			z"/>
	</g>
	<g>
		<path class="st30" d="M-2320.5,1224.1h-21.6v-86.4h54v10.8h10.8v32.4h-10.8v10.8h-32.4V1224.1z M-2320.5,1170.1h21.6v-10.8h-21.6
			V1170.1z"/>
		<path class="st30" d="M-2266.5,1148.5h10.8v-10.8h43.2v10.8h10.8v64.8h-10.8v10.8h-43.2v-10.8h-10.8V1148.5z M-2244.9,1202.5h21.6
			v-43.2h-21.6V1202.5z"/>
		<path class="st30" d="M-2180.1,1213.3h-10.8v-75.6h21.6v64.8h43.2v21.6h-54V1213.3z"/>
		<path class="st30" d="M-2136.9,1137.7h21.6v32.4h21.6v-32.4h21.6v43.2h-10.8v10.8h-10.8v32.4h-21.6v-32.4h-10.8v-10.8h-10.8
			V1137.7z"/>
	</g>
	<g>
		<path class="st4" d="M-2320.5,1215.9h-21.6v-86.4h54v10.8h10.8v32.4h-10.8v10.8h-32.4V1215.9z M-2320.5,1161.9h21.6v-10.8h-21.6
			V1161.9z"/>
		<path class="st4" d="M-2266.5,1140.3h10.8v-10.8h43.2v10.8h10.8v64.8h-10.8v10.8h-43.2v-10.8h-10.8V1140.3z M-2244.9,1194.3h21.6
			v-43.2h-21.6V1194.3z"/>
		<path class="st4" d="M-2180.1,1205.1h-10.8v-75.6h21.6v64.8h43.2v21.6h-54V1205.1z"/>
		<path class="st4" d="M-2136.9,1129.5h21.6v32.4h21.6v-32.4h21.6v43.2h-10.8v10.8h-10.8v32.4h-21.6v-32.4h-10.8v-10.8h-10.8V1129.5
			z"/>
	</g>
</g>
<image style="overflow:visible;" width="843" height="1118" xlink:href="92BDA6DF2342CFF3.jpg"  transform="matrix(0.24 0 0 0.24 -2551.6343 1279.6825)">
</image>
<g>
	<g class="st1">
		<g>
			<polygon class="st0" points="-1993.7,916 -1993.7,1002.5 -1892.5,1002.5 -1892.5,990.9 -1905.1,990.9 -1905.1,978.2 
				-1917.8,978.2 -1917.8,965.6 -1930.4,965.6 -1930.4,952.9 -1917.8,952.9 -1917.8,940.3 -1905.1,940.3 -1905.1,927.6 
				-1892.5,927.6 -1892.5,916 			"/>
		</g>
		<polygon class="st0" points="-1978.9,977.2 -1993.7,1001.4 -1993.7,977.2 		"/>
	</g>
	<rect x="-2481.9" y="893.1" class="st0" width="510.3" height="86.5"/>
	<rect x="-2005.3" y="971.1" class="st0" width="112.8" height="31.6"/>
	<g class="st1">
		<g>
			<polygon class="st0" points="-2474,916.2 -2474,1002.6 -2575.2,1002.6 -2575.2,991 -2562.6,991 -2562.6,978.4 -2549.9,978.4 
				-2549.9,965.7 -2537.3,965.7 -2537.3,953.1 -2549.9,953.1 -2549.9,940.4 -2562.6,940.4 -2562.6,927.8 -2575.2,927.8 
				-2575.2,916.2 			"/>
		</g>
		<polygon class="st0" points="-2488.8,977.3 -2474,1001.6 -2474.1,977.3 		"/>
	</g>
	<g>
		<g>
			<polygon class="st2" points="-1993.7,905.7 -1993.7,992.2 -1892.5,992.2 -1892.5,980.6 -1905.1,980.6 -1905.1,968 -1917.8,968 
				-1917.8,955.3 -1930.4,955.3 -1930.4,942.6 -1917.8,942.6 -1917.8,930 -1905.1,930 -1905.1,917.3 -1892.5,917.3 -1892.5,905.7 
							"/>
			<polygon class="st3" points="-1993.7,894.1 -1993.7,980.6 -1892.5,980.6 -1892.5,969 -1905.1,969 -1905.1,956.4 -1917.8,956.4 
				-1917.8,943.7 -1930.4,943.7 -1930.4,931.1 -1917.8,931.1 -1917.8,918.4 -1905.1,918.4 -1905.1,905.7 -1892.5,905.7 
				-1892.5,894.1 			"/>
		</g>
		<polygon class="st2" points="-1978.9,966.9 -1993.7,991.2 -1993.7,966.9 		"/>
		<g>
			<g>
				<polygon class="st2" points="-2474.5,905.7 -2474.5,992.2 -2575.7,992.2 -2575.7,980.6 -2563.1,980.6 -2563.1,968 -2550.4,968 
					-2550.4,955.3 -2537.8,955.3 -2537.8,942.6 -2550.4,942.6 -2550.4,930 -2563.1,930 -2563.1,917.3 -2575.7,917.3 -2575.7,905.7 
									"/>
				<polygon class="st3" points="-2474.5,894.1 -2474.5,980.6 -2575.7,980.6 -2575.7,969 -2563.1,969 -2563.1,956.4 -2550.4,956.4 
					-2550.4,943.7 -2537.8,943.7 -2537.8,931.1 -2550.4,931.1 -2550.4,918.4 -2563.1,918.4 -2563.1,905.7 -2575.7,905.7 
					-2575.7,894.1 				"/>
			</g>
			<polygon class="st2" points="-2489.3,966.9 -2474.5,991.2 -2474.6,966.9 			"/>
		</g>
		<g>
			<rect x="-2489.3" y="880.4" class="st2" width="510.3" height="86.5"/>
			<rect x="-2489.3" y="867.8" class="st3" width="510.3" height="86.5"/>
		</g>
	</g>
</g>
<g>
	<g>
		<path class="st25" d="M-2375.1,942.7h-37.4v-59.9h37.4v7.5h7.5v15h-7.5v15h7.5v15h-7.5V942.7z M-2397.6,905.3h15v-7.5h-15V905.3z
			 M-2397.6,927.8h15v-7.5h-15V927.8z"/>
		<path class="st25" d="M-2345.2,942.7h-15v-52.4h7.5v-7.5h30v7.5h7.5v52.4h-15v-22.5h-15V942.7z M-2330.2,905.3v-7.5h-15v7.5
			H-2330.2z"/>
		<path class="st25" d="M-2300.2,935.3h-7.5v-52.4h15v44.9h30v15h-37.4V935.3z"/>
		<path class="st25" d="M-2247.8,935.3h-7.5v-52.4h15v44.9h30v15h-37.4V935.3z"/>
		<path class="st25" d="M-2202.9,890.3h7.5v-7.5h30v7.5h7.5v44.9h-7.5v7.5h-30v-7.5h-7.5V890.3z M-2187.9,927.8h15v-30h-15V927.8z"
			/>
		<path class="st25" d="M-2150.5,890.3h7.5v-7.5h30v7.5h7.5v44.9h-7.5v7.5h-30v-7.5h-7.5V890.3z M-2135.5,927.8h15v-30h-15V927.8z"
			/>
		<path class="st25" d="M-2075.6,912.8h-7.5v30h-15v-59.9h15v7.5h7.5v7.5h7.5v-15h15v59.9h-15v-22.5h-7.5V912.8z"/>
	</g>
	<g>
		<path class="st22" d="M-2375.1,936.9h-37.4V877h37.4v7.5h7.5v15h-7.5v15h7.5v15h-7.5V936.9z M-2397.6,899.5h15V892h-15V899.5z
			 M-2397.6,921.9h15v-7.5h-15V921.9z"/>
		<path class="st22" d="M-2345.2,936.9h-15v-52.4h7.5V877h30v7.5h7.5v52.4h-15v-22.5h-15V936.9z M-2330.2,899.5V892h-15v7.5H-2330.2
			z"/>
		<path class="st22" d="M-2300.2,929.4h-7.5V877h15v44.9h30v15h-37.4V929.4z"/>
		<path class="st22" d="M-2247.8,929.4h-7.5V877h15v44.9h30v15h-37.4V929.4z"/>
		<path class="st22" d="M-2202.9,884.5h7.5V877h30v7.5h7.5v44.9h-7.5v7.5h-30v-7.5h-7.5V884.5z M-2187.9,921.9h15v-30h-15V921.9z"/>
		<path class="st22" d="M-2150.5,884.5h7.5V877h30v7.5h7.5v44.9h-7.5v7.5h-30v-7.5h-7.5V884.5z M-2135.5,921.9h15v-30h-15V921.9z"/>
		<path class="st22" d="M-2075.6,907h-7.5v30h-15V877h15v7.5h7.5v7.5h7.5v-15h15v59.9h-15v-22.5h-7.5V907z"/>
	</g>
</g>
<g>
	<path class="st0" d="M-1883.5,1089.5h20.7v6.9h-20.7V1089.5z"/>
	<path class="st0" d="M-1828.2,1106.8h-6.9v-27.6h17.3v3.5h3.5v10.4h-3.5v3.5h-10.4V1106.8z M-1828.2,1089.5h6.9v-3.5h-6.9V1089.5z"
		/>
	<path class="st0" d="M-1800.6,1096.4h-3.5v10.4h-6.9v-27.6h17.3v3.5h3.5v10.4h-3.5v3.5h3.5v10.4h-6.9v-6.9h-3.5V1096.4z
		 M-1804,1089.5h6.9v-3.5h-6.9V1089.5z"/>
	<path class="st0" d="M-1783.3,1103.3h-3.5v-20.7h3.5v-3.5h17.3v6.9h-13.8v3.5h6.9v6.9h-6.9v3.5h13.8v6.9h-17.3V1103.3z"/>
	<path class="st0" d="M-1762.5,1082.6h3.5v-3.5h17.3v6.9h-13.8v3.5h10.4v3.5h3.5v10.4h-3.5v3.5h-17.3v-6.9h13.8v-3.5h-10.4v-3.5
		h-3.5V1082.6z"/>
	<path class="st0" d="M-1738.4,1082.6h3.5v-3.5h17.3v6.9h-13.8v3.5h10.4v3.5h3.5v10.4h-3.5v3.5h-17.3v-6.9h13.8v-3.5h-10.4v-3.5
		h-3.5V1082.6z"/>
	<path class="st0" d="M-1683.1,1106.8h-6.9v-24.2h3.5v-3.5h13.8v3.5h3.5v24.2h-6.9v-10.4h-6.9V1106.8z M-1676.1,1089.5v-3.5h-6.9
		v3.5H-1676.1z"/>
	<path class="st0" d="M-1655.4,1092.9h-3.5v13.8h-6.9v-27.6h6.9v3.5h3.5v3.5h3.5v-6.9h6.9v27.6h-6.9v-10.4h-3.5V1092.9z"/>
	<path class="st0" d="M-1641.6,1079.1h6.9v10.4h6.9v-10.4h6.9v13.8h-3.5v3.5h-3.5v10.4h-6.9v-10.4h-3.5v-3.5h-3.5V1079.1z"/>
	<path class="st0" d="M-1586.3,1106.8h-6.9v-27.6h6.9v6.9h3.5v-3.5h3.5v-3.5h6.9v6.9h-3.5v3.5h-3.5v6.9h3.5v3.5h3.5v6.9h-6.9v-3.5
		h-3.5v-3.5h-3.5V1106.8z"/>
	<path class="st0" d="M-1565.6,1103.3h-3.5v-20.7h3.5v-3.5h17.3v6.9h-13.8v3.5h6.9v6.9h-6.9v3.5h13.8v6.9h-17.3V1103.3z"/>
	<path class="st0" d="M-1544.8,1079.1h6.9v10.4h6.9v-10.4h6.9v13.8h-3.5v3.5h-3.5v10.4h-6.9v-10.4h-3.5v-3.5h-3.5V1079.1z"/>
	<path class="st0" d="M-1496.4,1079.1h20.7v6.9h-6.9v20.7h-6.9V1086h-6.9V1079.1z"/>
	<path class="st0" d="M-1472.2,1082.6h3.5v-3.5h13.8v3.5h3.5v20.7h-3.5v3.5h-13.8v-3.5h-3.5V1082.6z M-1465.3,1099.8h6.9V1086h-6.9
		V1099.8z"/>
	<path class="st0" d="M-1417,1106.8h-6.9v-27.6h17.3v3.5h3.5v10.4h-3.5v3.5h-10.4V1106.8z M-1417,1089.5h6.9v-3.5h-6.9V1089.5z"/>
	<path class="st0" d="M-1396.2,1103.3h-3.5v-24.2h6.9v20.7h13.8v6.9h-17.3V1103.3z"/>
	<path class="st0" d="M-1368.6,1106.8h-6.9v-24.2h3.5v-3.5h13.8v3.5h3.5v24.2h-6.9v-10.4h-6.9V1106.8z M-1361.7,1089.5v-3.5h-6.9
		v3.5H-1361.7z"/>
	<path class="st0" d="M-1351.3,1079.1h6.9v10.4h6.9v-10.4h6.9v13.8h-3.5v3.5h-3.5v10.4h-6.9v-10.4h-3.5v-3.5h-3.5V1079.1z"/>
	<path class="st0" d="M-1302.9,1089.5h20.7v6.9h-20.7V1089.5z"/>
</g>
<g>
	<path class="st30" d="M-1884.4,1083.6h20.7v6.9h-20.7V1083.6z"/>
	<path class="st30" d="M-1829.1,1100.9h-6.9v-27.6h17.3v3.5h3.5v10.4h-3.5v3.5h-10.4V1100.9z M-1829.1,1083.6h6.9v-3.5h-6.9V1083.6z
		"/>
	<path class="st30" d="M-1801.4,1090.5h-3.5v10.4h-6.9v-27.6h17.3v3.5h3.5v10.4h-3.5v3.5h3.5v10.4h-6.9v-6.9h-3.5V1090.5z
		 M-1804.9,1083.6h6.9v-3.5h-6.9V1083.6z"/>
	<path class="st30" d="M-1784.1,1097.4h-3.5v-20.7h3.5v-3.5h17.3v6.9h-13.8v3.5h6.9v6.9h-6.9v3.5h13.8v6.9h-17.3V1097.4z"/>
	<path class="st30" d="M-1763.4,1076.7h3.5v-3.5h17.3v6.9h-13.8v3.5h10.4v3.5h3.5v10.4h-3.5v3.5h-17.3v-6.9h13.8v-3.5h-10.4v-3.5
		h-3.5V1076.7z"/>
	<path class="st30" d="M-1739.2,1076.7h3.5v-3.5h17.3v6.9h-13.8v3.5h10.4v3.5h3.5v10.4h-3.5v3.5h-17.3v-6.9h13.8v-3.5h-10.4v-3.5
		h-3.5V1076.7z"/>
	<path class="st30" d="M-1683.9,1100.9h-6.9v-24.2h3.5v-3.5h13.8v3.5h3.5v24.2h-6.9v-10.4h-6.9V1100.9z M-1677,1083.6v-3.5h-6.9v3.5
		H-1677z"/>
	<path class="st30" d="M-1656.3,1087h-3.5v13.8h-6.9v-27.6h6.9v3.5h3.5v3.5h3.5v-6.9h6.9v27.6h-6.9v-10.4h-3.5V1087z"/>
	<path class="st30" d="M-1642.5,1073.2h6.9v10.4h6.9v-10.4h6.9v13.8h-3.5v3.5h-3.5v10.4h-6.9v-10.4h-3.5v-3.5h-3.5V1073.2z"/>
	<path class="st30" d="M-1587.2,1100.9h-6.9v-27.6h6.9v6.9h3.5v-3.5h3.5v-3.5h6.9v6.9h-3.5v3.5h-3.5v6.9h3.5v3.5h3.5v6.9h-6.9v-3.5
		h-3.5v-3.5h-3.5V1100.9z"/>
	<path class="st30" d="M-1566.4,1097.4h-3.5v-20.7h3.5v-3.5h17.3v6.9h-13.8v3.5h6.9v6.9h-6.9v3.5h13.8v6.9h-17.3V1097.4z"/>
	<path class="st30" d="M-1545.7,1073.2h6.9v10.4h6.9v-10.4h6.9v13.8h-3.5v3.5h-3.5v10.4h-6.9v-10.4h-3.5v-3.5h-3.5V1073.2z"/>
	<path class="st30" d="M-1497.3,1073.2h20.7v6.9h-6.9v20.7h-6.9v-20.7h-6.9V1073.2z"/>
	<path class="st30" d="M-1473.1,1076.7h3.5v-3.5h13.8v3.5h3.5v20.7h-3.5v3.5h-13.8v-3.5h-3.5V1076.7z M-1466.2,1093.9h6.9v-13.8
		h-6.9V1093.9z"/>
	<path class="st30" d="M-1417.8,1100.9h-6.9v-27.6h17.3v3.5h3.5v10.4h-3.5v3.5h-10.4V1100.9z M-1417.8,1083.6h6.9v-3.5h-6.9V1083.6z
		"/>
	<path class="st30" d="M-1397.1,1097.4h-3.5v-24.2h6.9v20.7h13.8v6.9h-17.3V1097.4z"/>
	<path class="st30" d="M-1369.4,1100.9h-6.9v-24.2h3.5v-3.5h13.8v3.5h3.5v24.2h-6.9v-10.4h-6.9V1100.9z M-1362.5,1083.6v-3.5h-6.9
		v3.5H-1362.5z"/>
	<path class="st30" d="M-1352.2,1073.2h6.9v10.4h6.9v-10.4h6.9v13.8h-3.5v3.5h-3.5v10.4h-6.9v-10.4h-3.5v-3.5h-3.5V1073.2z"/>
	<path class="st30" d="M-1303.8,1083.6h20.7v6.9h-20.7V1083.6z"/>
</g>
<g>
	<path class="st4" d="M-1884.4,1079.2h20.7v6.9h-20.7V1079.2z"/>
	<path class="st4" d="M-1829.1,1096.4h-6.9v-27.6h17.3v3.5h3.5v10.4h-3.5v3.5h-10.4V1096.4z M-1829.1,1079.2h6.9v-3.5h-6.9V1079.2z"
		/>
	<path class="st4" d="M-1801.4,1086.1h-3.5v10.4h-6.9v-27.6h17.3v3.5h3.5v10.4h-3.5v3.5h3.5v10.4h-6.9v-6.9h-3.5V1086.1z
		 M-1804.9,1079.2h6.9v-3.5h-6.9V1079.2z"/>
	<path class="st4" d="M-1784.1,1093h-3.5v-20.7h3.5v-3.5h17.3v6.9h-13.8v3.5h6.9v6.9h-6.9v3.5h13.8v6.9h-17.3V1093z"/>
	<path class="st4" d="M-1763.4,1072.3h3.5v-3.5h17.3v6.9h-13.8v3.5h10.4v3.5h3.5v10.4h-3.5v3.5h-17.3v-6.9h13.8v-3.5h-10.4v-3.5
		h-3.5V1072.3z"/>
	<path class="st4" d="M-1739.2,1072.3h3.5v-3.5h17.3v6.9h-13.8v3.5h10.4v3.5h3.5v10.4h-3.5v3.5h-17.3v-6.9h13.8v-3.5h-10.4v-3.5
		h-3.5V1072.3z"/>
	<path class="st4" d="M-1683.9,1096.4h-6.9v-24.2h3.5v-3.5h13.8v3.5h3.5v24.2h-6.9v-10.4h-6.9V1096.4z M-1677,1079.2v-3.5h-6.9v3.5
		H-1677z"/>
	<path class="st4" d="M-1656.3,1082.6h-3.5v13.8h-6.9v-27.6h6.9v3.5h3.5v3.5h3.5v-6.9h6.9v27.6h-6.9v-10.4h-3.5V1082.6z"/>
	<path class="st4" d="M-1642.5,1068.8h6.9v10.4h6.9v-10.4h6.9v13.8h-3.5v3.5h-3.5v10.4h-6.9v-10.4h-3.5v-3.5h-3.5V1068.8z"/>
	<path class="st4" d="M-1587.2,1096.4h-6.9v-27.6h6.9v6.9h3.5v-3.5h3.5v-3.5h6.9v6.9h-3.5v3.5h-3.5v6.9h3.5v3.5h3.5v6.9h-6.9v-3.5
		h-3.5v-3.5h-3.5V1096.4z"/>
	<path class="st4" d="M-1566.4,1093h-3.5v-20.7h3.5v-3.5h17.3v6.9h-13.8v3.5h6.9v6.9h-6.9v3.5h13.8v6.9h-17.3V1093z"/>
	<path class="st4" d="M-1545.7,1068.8h6.9v10.4h6.9v-10.4h6.9v13.8h-3.5v3.5h-3.5v10.4h-6.9v-10.4h-3.5v-3.5h-3.5V1068.8z"/>
	<path class="st4" d="M-1497.3,1068.8h20.7v6.9h-6.9v20.7h-6.9v-20.7h-6.9V1068.8z"/>
	<path class="st4" d="M-1473.1,1072.3h3.5v-3.5h13.8v3.5h3.5v20.7h-3.5v3.5h-13.8v-3.5h-3.5V1072.3z M-1466.2,1089.5h6.9v-13.8h-6.9
		V1089.5z"/>
	<path class="st4" d="M-1417.8,1096.4h-6.9v-27.6h17.3v3.5h3.5v10.4h-3.5v3.5h-10.4V1096.4z M-1417.8,1079.2h6.9v-3.5h-6.9V1079.2z"
		/>
	<path class="st4" d="M-1397.1,1093h-3.5v-24.2h6.9v20.7h13.8v6.9h-17.3V1093z"/>
	<path class="st4" d="M-1369.4,1096.4h-6.9v-24.2h3.5v-3.5h13.8v3.5h3.5v24.2h-6.9v-10.4h-6.9V1096.4z M-1362.5,1079.2v-3.5h-6.9
		v3.5H-1362.5z"/>
	<path class="st4" d="M-1352.2,1068.8h6.9v10.4h6.9v-10.4h6.9v13.8h-3.5v3.5h-3.5v10.4h-6.9v-10.4h-3.5v-3.5h-3.5V1068.8z"/>
	<path class="st4" d="M-1303.8,1079.2h20.7v6.9h-20.7V1079.2z"/>
</g>
<path class="st31" d="M877.4,377.1h-2.2h-10.8h-38.7h-12.9H-713.6h-12.9h-38.7h-12.9H-791v22.6v840.8v11.3v33.9v11.3v11.3h25.8
	H812.9h12.9h38.7h10.8h2.2h12.9V377.1H877.4z M864.5,433.6v818.2v11.3h-12.9v11.3h-12.9v11.3h-12.9H-726.5h-12.9v-11.3h-12.9V1263
	h-12.9v-11.3V433.6v-11.3h12.9V411h12.9v-11.3h12.9h204.3h135.5H825.8h12.9V411h12.9v11.3h12.9V433.6z"/>
<polygon class="st32" points="-402.5,19.8 -402.5,11 -412.4,11 -769.2,11 -769.2,94.5 -413.1,94.5 -413.1,85.8 -412.4,85.8 
	-402.5,85.8 -402.5,78.8 -402.5,77 -392.7,77 -392.7,70.1 -392.7,19.8 "/>
<polygon class="st31" points="-403,11.1 -403,2.4 -412.9,2.4 -780.2,2.4 -780.2,9.3 -780.2,11.1 -790.1,11.1 -790.1,61.4 
	-780.3,61.4 -780.3,68.3 -780.2,68.3 -780.2,77.1 -769.7,77.1 -769.7,85.8 -413.6,85.8 -413.6,77.1 -412.9,77.1 -403,77.1 
	-403,70.1 -403,68.3 -393.2,68.3 -393.2,61.4 -393.2,11.1 "/>
<rect x="-852" y="227.1" class="st13" width="92.2" height="32.8"/>
<text transform="matrix(1 0 0 1 -830.8607 245.3137)" class="st4" style="font-family:'EditUndoBRK'; font-size:31.5429px;">DMG</text>
<g>
	<g>
		<polygon class="st22" points="-652.2,261.5 -397.5,261.5 -397.5,243.5 -652.2,243.5 -652.2,243.6 -652.2,248.7 -659.1,248.7 
			-659.1,256.4 -652.2,256.4 -652.2,261.5 		"/>
	</g>
	<polygon class="st22" points="-388.9,248.7 -388.9,243.6 -388.9,243.5 -444.5,243.5 -444.5,261.5 -388.9,261.5 -388.9,261.4 
		-388.9,256.3 -381.9,256.3 -381.9,248.7 	"/>
</g>
<g class="st33">
	<polygon class="st34" points="-8.6,474.7 -8.6,396.7 -98.5,396.7 -98.5,406.7 -108.6,406.7 -108.6,464.6 -98.5,464.6 -98.5,474.7 	
		"/>
	<polygon class="st34" points="226.4,405.7 226.4,395.7 216.4,395.7 134.4,395.7 134.4,473.7 216.4,473.7 226.4,473.7 226.4,463.6 
		236.5,463.6 236.5,405.7 	"/>
	<rect x="-88.6" y="405.7" class="st34" width="305" height="78"/>
</g>
<g>
	<polygon class="st31" points="1.4,474.7 1.4,396.7 -88.5,396.7 -88.5,406.7 -98.6,406.7 -98.6,464.6 -88.5,464.6 -88.5,474.7 	"/>
	<polygon class="st31" points="-8.6,464.7 -8.6,386.7 -98.5,386.7 -98.5,396.7 -108.6,396.7 -108.6,454.6 -98.5,454.6 -98.5,464.7 	
		"/>
	<polygon class="st31" points="216.4,406.7 216.4,396.7 206.4,396.7 124.4,396.7 124.4,474.7 206.4,474.7 216.4,474.7 216.4,464.6 
		226.5,464.6 226.5,406.7 	"/>
	<polygon class="st31" points="226.4,396.7 226.4,386.7 216.4,386.7 134.4,386.7 134.4,464.7 216.4,464.7 226.4,464.7 226.4,454.6 
		236.5,454.6 236.5,396.7 	"/>
	<rect x="1.4" y="396.7" class="st31" width="123" height="78"/>
</g>
<g>
	<polygon class="st35" points="1.4,464.7 1.4,386.7 -88.5,386.7 -88.5,396.7 -98.6,396.7 -98.6,454.6 -88.5,454.6 -88.5,464.7 	"/>
	<polygon class="st35" points="216.4,396.7 216.4,386.7 206.4,386.7 138.4,386.7 138.4,464.7 206.4,464.7 216.4,464.7 216.4,454.6 
		226.5,454.6 226.5,396.7 	"/>
</g>
<g class="st33">
	<polygon class="st34" points="-274.9,79 -274.9,9 -355.6,9 -355.6,18.1 -364.6,18.1 -364.6,70 -355.6,70 -355.6,79 	"/>
	<polygon class="st34" points="-64.1,17.2 -64.1,8.1 -73.1,8.1 -146.7,8.1 -146.7,78.1 -73.1,78.1 -64.1,78.1 -64.1,69.1 
		-55.1,69.1 -55.1,17.2 	"/>
	<rect x="-346.7" y="17.1" class="st34" width="273.6" height="70"/>
</g>
<g>
	<polygon class="st31" points="-266,79 -266,9 -346.6,9 -346.6,18.1 -355.6,18.1 -355.6,70 -346.6,70 -346.6,79 	"/>
	<polygon class="st31" points="-274.9,70 -274.9,0.1 -355.6,0.1 -355.6,9.1 -364.6,9.1 -364.6,61 -355.6,61 -355.6,70 	"/>
	<polygon class="st31" points="-73.1,18.1 -73.1,9 -82.1,9 -155.6,9 -155.6,79 -82.1,79 -73.1,79 -73.1,70 -64.1,70 -64.1,18.1 	"/>
	<polygon class="st31" points="-64.1,9.1 -64.1,0.1 -73.1,0.1 -146.7,0.1 -146.7,70 -73.1,70 -64.1,70 -64.1,61 -55.1,61 -55.1,9.1 
			"/>
	<rect x="-266" y="9" class="st31" width="110.3" height="70"/>
</g>
<g>
	<polygon class="st35" points="-266,70 -266,0.1 -346.6,0.1 -346.6,9.1 -355.6,9.1 -355.6,61 -346.6,61 -346.6,70 	"/>
	<polygon class="st35" points="-73.1,9.1 -73.1,0.1 -82.1,0.1 -143.1,0.1 -143.1,70 -82.1,70 -73.1,70 -73.1,61 -64.1,61 -64.1,9.1 
			"/>
</g>
<rect x="-13.6" y="386.7" class="st35" width="169" height="78"/>
<rect x="-279.4" y="0.1" class="st35" width="151.6" height="70"/>
<g>
	<rect x="-18.6" y="418.9" class="st13" width="179" height="81.8"/>
	<text transform="matrix(1 0 0 1 3.496 446.5367)" class="st4" style="font-family:'EditUndoBRK'; font-size:48px;">124 KM</text>
</g>
<g>
	<rect x="867" y="396.7" class="st32" width="8" height="2"/>
	<polygon class="st32" points="786,396.7 786,406.7 776,406.7 776,464.6 785.9,464.6 785.9,474.6 786,474.6 786,474.7 795.9,474.7 
		795.9,484.7 851,484.7 851,396.7 	"/>
</g>
<polygon class="st31" points="876,396.7 876,386.7 786.1,386.7 786.1,396.7 776,396.7 776,454.6 786,454.6 786,464.6 786.1,464.6 
	786.1,464.7 796.1,464.7 796.1,474.7 886,474.7 886,396.7 "/>
<g>
	<g>
		<g>
			<polygon class="st2" points="846.1,408.2 840.7,408.2 808.2,408.2 808.2,413.5 802.9,413.5 802.9,451.3 808.2,451.3 808.2,456.7 
				840.7,456.7 846.1,456.7 846.1,451.3 851.4,451.3 851.4,413.5 846.1,413.5 			"/>
			<polygon class="st3" points="846.3,402.4 841,402.4 808.3,402.4 808.3,407.8 802.9,407.8 802.9,445.9 808.3,445.9 808.3,451.2 
				841,451.2 846.3,451.2 846.3,445.9 851.7,445.9 851.7,407.8 846.3,407.8 			"/>
		</g>
		<g>
			<rect x="815.8" y="431.5" class="st4" width="24.2" height="4.8"/>
			<rect x="815.8" y="420.4" class="st4" width="24.2" height="4.8"/>
		</g>
	</g>
	<g class="st33">
		<polygon class="st36" points="808.3,456.8 808.3,461.8 813.6,461.8 846.3,461.8 846.3,456.8 813.6,456.8 		"/>
		<rect x="802.9" y="451.4" class="st36" width="5.4" height="5"/>
		<rect x="846.3" y="451.4" class="st36" width="5.4" height="5"/>
	</g>
</g>
<g>
	<g>
		<g>
			<polygon class="st2" points="199.6,18.7 195.4,18.7 170.1,18.7 170.1,22.8 165.9,22.8 165.9,52.3 170.1,52.3 170.1,56.5 
				195.4,56.5 199.6,56.5 199.6,52.3 203.7,52.3 203.7,22.8 199.6,22.8 			"/>
			<polygon class="st3" points="199.8,14.2 195.6,14.2 170.1,14.2 170.1,18.4 165.9,18.4 165.9,48.1 170.1,48.1 170.1,52.2 
				195.6,52.2 199.8,52.2 199.8,48.1 204,48.1 204,18.4 199.8,18.4 			"/>
		</g>
		<g>
			<rect x="176" y="36.9" class="st4" width="18.9" height="3.8"/>
			<rect x="176" y="28.2" class="st4" width="18.9" height="3.8"/>
		</g>
	</g>
	<g class="st33">
		<polygon class="st36" points="170.1,56.6 170.1,60.5 174.3,60.5 199.8,60.5 199.8,56.6 174.3,56.6 		"/>
		<rect x="165.9" y="52.4" class="st36" width="4.2" height="3.9"/>
		<rect x="199.8" y="52.4" class="st36" width="4.2" height="3.9"/>
	</g>
</g>
<polygon class="st22" points="-625.6,143.9 -625.6,140.2 -635.2,140.2 -635.6,140.2 -644.8,140.2 -645.2,140.2 -654.5,140.2 
	-654.8,140.2 -664.5,140.2 -664.5,143.9 -669.2,143.9 -669.2,149.4 -664.5,149.4 -664.5,153.1 -664.2,153.1 -660,153.1 
	-659.2,153.1 -655,153.1 -654.8,153.1 -654.6,153.1 -654.5,153.1 -650.4,153.1 -649.6,153.1 -645.4,153.1 -645.2,153.1 -645,153.1 
	-644.8,153.1 -640.7,153.1 -639.9,153.1 -635.7,153.1 -635.6,153.1 -635.3,153.1 -635.2,153.1 -631.1,153.1 -630.3,153.1 
	-626.1,153.1 -625.6,153.1 -625.6,149.4 -621.1,149.4 -621.1,143.9 "/>
<polygon class="st22" points="-618.8,-92.9 -618.8,-96.7 -628.5,-96.7 -628.8,-96.7 -638.1,-96.7 -638.5,-96.7 -647.7,-96.7 
	-648.1,-96.7 -657.7,-96.7 -657.7,-93 -662.5,-93 -662.5,-87.5 -657.7,-87.5 -657.7,-83.8 -657.5,-83.8 -653.3,-83.8 -652.5,-83.8 
	-648.3,-83.8 -648.1,-83.8 -647.9,-83.8 -647.7,-83.8 -643.7,-83.8 -642.8,-83.8 -638.6,-83.8 -638.5,-83.8 -638.2,-83.8 
	-638.1,-83.8 -634,-83.8 -633.2,-83.8 -629,-83.8 -628.8,-83.8 -628.6,-83.8 -628.5,-83.8 -624.4,-83.8 -623.6,-83.8 -619.4,-83.8 
	-618.8,-83.8 -618.8,-87.5 -614.4,-87.5 -614.4,-92.9 "/>
<polygon class="st37" points="-465,-92.9 -465,-96.7 -474.6,-96.7 -475,-96.7 -484.2,-96.7 -484.6,-96.7 -493.9,-96.7 -494.2,-96.7 
	-503.3,-96.7 -503.9,-96.7 -512.9,-96.7 -513.3,-96.7 -522.5,-96.7 -522.9,-96.7 -532.2,-96.7 -532.5,-96.7 -541.8,-96.7 
	-542.2,-96.7 -551.4,-96.7 -551.8,-96.7 -561.1,-96.7 -561.4,-96.7 -570.7,-96.7 -571.1,-96.7 -580.3,-96.7 -580.7,-96.7 
	-590,-96.7 -590.3,-96.7 -599.6,-96.7 -600,-96.7 -609.2,-96.7 -609.6,-96.7 -618.8,-96.7 -619.2,-96.7 -628.5,-96.7 -628.8,-96.7 
	-638.1,-96.7 -638.5,-96.7 -647.7,-96.7 -648.1,-96.7 -657.7,-96.7 -657.7,-93 -662.5,-93 -662.5,-87.5 -657.7,-87.5 -657.7,-83.8 
	-657.5,-83.8 -653.3,-83.8 -652.5,-83.8 -648.3,-83.8 -648.1,-83.8 -647.9,-83.8 -647.7,-83.8 -643.7,-83.8 -642.8,-83.8 
	-638.6,-83.8 -638.5,-83.8 -638.2,-83.8 -638.1,-83.8 -634,-83.8 -633.2,-83.8 -629,-83.8 -628.8,-83.8 -628.6,-83.8 -628.5,-83.8 
	-624.4,-83.8 -623.6,-83.8 -619.4,-83.8 -619.2,-83.8 -619,-83.8 -618.8,-83.8 -614.8,-83.8 -613.9,-83.8 -609.7,-83.8 
	-609.6,-83.8 -609.3,-83.8 -609.2,-83.8 -605.1,-83.8 -604.3,-83.8 -600.1,-83.8 -600,-83.8 -599.7,-83.8 -599.6,-83.8 
	-595.5,-83.8 -594.7,-83.8 -590.5,-83.8 -590.3,-83.8 -590.1,-83.8 -590,-83.8 -585.9,-83.8 -585.1,-83.8 -580.8,-83.8 
	-580.7,-83.8 -580.4,-83.8 -580.3,-83.8 -576.2,-83.8 -575.4,-83.8 -571.2,-83.8 -571.1,-83.8 -570.8,-83.8 -570.7,-83.8 
	-566.6,-83.8 -565.8,-83.8 -561.6,-83.8 -561.4,-83.8 -561.2,-83.8 -561.1,-83.8 -557,-83.8 -556.2,-83.8 -552,-83.8 -551.8,-83.8 
	-551.6,-83.8 -551.4,-83.8 -547.3,-83.8 -546.5,-83.8 -542.3,-83.8 -542.2,-83.8 -541.9,-83.8 -541.8,-83.8 -537.7,-83.8 
	-536.9,-83.8 -532.7,-83.8 -532.5,-83.8 -532.3,-83.8 -532.2,-83.8 -528.1,-83.8 -527.3,-83.8 -523.1,-83.8 -522.9,-83.8 
	-522.7,-83.8 -522.5,-83.8 -518.5,-83.8 -517.6,-83.8 -513.4,-83.8 -513.3,-83.8 -513,-83.8 -512.9,-83.8 -508.8,-83.8 -508,-83.8 
	-503.9,-83.8 -503.8,-83.8 -503.6,-83.8 -503.3,-83.8 -499.4,-83.8 -498.6,-83.8 -494.4,-83.8 -494.2,-83.8 -494,-83.8 
	-493.9,-83.8 -489.8,-83.8 -489,-83.8 -484.8,-83.8 -484.6,-83.8 -484.4,-83.8 -484.2,-83.8 -480.2,-83.8 -479.3,-83.8 
	-475.1,-83.8 -475,-83.8 -474.7,-83.8 -474.6,-83.8 -470.5,-83.8 -469.7,-83.8 -465.5,-83.8 -465,-83.8 -465,-87.5 -460.5,-87.5 
	-460.5,-92.9 "/>
<g>
	<polygon class="st31" points="1086,1285.6 1091.3,1285.6 1104.2,1285.6 1104.2,1274.3 1117.1,1274.3 1117.1,1263 1130,1263 
		1130,1251.7 1130,1238.4 1155.8,1238.4 1155.8,1240.4 1155.8,1251.7 1155.8,1285.6 1155.8,1296.9 1155.8,1308.2 1130,1308.2 
		1086,1308.2 	"/>
</g>
<g>
	<polygon class="st31" points="1152.2,1238.5 1152.2,1243.8 1152.2,1256.7 1163.5,1256.7 1163.5,1269.6 1174.8,1269.6 
		1174.8,1282.5 1186.1,1282.5 1199.5,1282.5 1199.5,1308.3 1197.4,1308.3 1186.1,1308.3 1152.2,1308.3 1140.9,1308.3 1129.6,1308.3 
		1129.6,1282.5 1129.6,1238.5 	"/>
</g>
<g>
	<polygon class="st31" points="1100.1,1285.6 1100.1,1290.9 1100.1,1303.8 1111.4,1303.8 1111.4,1316.7 1122.7,1316.7 
		1122.7,1329.6 1134,1329.6 1147.3,1329.6 1147.3,1355.4 1145.3,1355.4 1134,1355.4 1100.1,1355.4 1088.8,1355.4 1077.5,1355.4 
		1077.5,1329.6 1077.5,1285.6 	"/>
</g>
<g>
	<polygon class="st31" points="1018.8,1285.6 1013.5,1285.6 1000.6,1285.6 1000.6,1274.3 987.7,1274.3 987.7,1263 974.8,1263 
		974.8,1251.7 974.8,1238.4 949,1238.4 949,1240.4 949,1251.7 949,1285.6 949,1296.9 949,1308.2 974.8,1308.2 1018.8,1308.2 	"/>
</g>
<g>
	<polygon class="st31" points="1074.3,1332.9 1069,1332.9 1056.1,1332.9 1056.1,1321.6 1043.2,1321.6 1043.2,1310.3 1030.3,1310.3 
		1030.3,1299 1030.3,1285.6 1004.5,1285.6 1004.5,1287.7 1004.5,1299 1004.5,1332.9 1004.5,1344.2 1004.5,1355.5 1030.3,1355.5 
		1074.3,1355.5 	"/>
</g>
<g>
	<polygon class="st31" points="951.8,1249.2 951.8,1254.6 951.8,1267.5 940.5,1267.5 940.5,1280.4 929.2,1280.4 929.2,1293.3 
		917.9,1293.3 904.5,1293.3 904.5,1319.1 906.6,1319.1 917.9,1319.1 951.8,1319.1 963.1,1319.1 974.4,1319.1 974.4,1293.3 
		974.4,1249.2 	"/>
</g>
<polygon class="st32" points="125.7,27 125.7,18 125.7,18 125.7,17.9 116.8,17.9 116.8,9 88.8,9 81.7,9 67.3,9 8.9,9 8.9,18 0,18 
	0,69.9 8.9,69.9 8.9,78.9 8.9,78.9 8.9,79 17.8,79 17.8,87.9 67.3,87.9 68.2,87.9 68.2,79 89.8,79 89.8,87.9 125.7,87.9 125.7,78.9 
	134.6,78.9 134.6,27 "/>
<polygon class="st31" points="89.7,9 89.7,0 9,0 9,9 0,9 0,61 9,61 9,69.9 9,69.9 9,70 18,70 18,79 98.7,79 98.7,9 "/>
</svg>
