<?xml version="1.0" encoding="utf-8"?>
<!-- Generator: Adobe Illustrator 22.0.1, SVG Export Plug-In . SVG Version: 6.00 Build 0)  -->
<svg version="1.1" id="Layer_1" xmlns="http://www.w3.org/2000/svg" xmlns:xlink="http://www.w3.org/1999/xlink" x="0px" y="0px"
	 width="48.8px" height="59.4px" viewBox="0 0 48.8 59.4" style="enable-background:new 0 0 48.8 59.4;" xml:space="preserve">
<style type="text/css">
	.st0{fill:#5895B7;}
	.st1{opacity:0.8;}
	.st2{fill:#C17620;}
	.st3{fill:#F4C24A;}
	.st4{fill:#FFFFFF;}
	.st5{fill:#2A6FBA;}
	.st6{fill:#4ABAEF;}
	.st7{fill:#95C9C8;}
	.st8{fill:#DDEFEE;}
	.st9{fill:#1B8E6F;}
	.st10{fill:#3CEA8A;}
	.st11{opacity:0.4;fill:#666666;}
	.st12{fill:#33BC6E;}
	.st13{fill:none;}
	.st14{fill:#7149A4;}
	.st15{fill:#BD86E0;}
	.st16{opacity:0.4;fill:#666666;stroke:#666666;stroke-width:4;stroke-linejoin:bevel;stroke-miterlimit:10;}
	.st17{fill:#F2F2F2;}
	.st18{fill:#E6E6E6;}
	.st19{fill:none;stroke:#000000;stroke-width:4;stroke-linejoin:bevel;stroke-miterlimit:10;}
	.st20{fill:#C6E0DE;}
	.st21{fill:#A7C6C3;}
	.st22{fill:#EE3D53;}
	.st23{fill:none;stroke:#000000;stroke-width:2;stroke-miterlimit:10;}
	.st24{fill:#A17559;}
	.st25{fill:#910E46;}
	.st26{fill:#238D6F;}
	.st27{fill:#704CA2;}
	.st28{fill:#47E88D;}
	.st29{fill:#BC88DE;}
	.st30{fill:#CCCCCC;}
	.st31{opacity:0.38;fill:#2D3D3E;}
	.st32{fill:#5B2616;}
	.st33{opacity:0.38;}
	.st34{fill:#2D3D3E;}
	.st35{fill:#3F180F;}
	.st36{fill:#1A1A1A;}
	.st37{fill:#38140C;}
</style>
<g>
	<rect x="-2542.1" y="2149.2" class="st0" width="484" height="82"/>
	<rect x="-2090.1" y="2223.2" class="st0" width="107" height="30"/>
	<g class="st1">
		<g>
			<polygon class="st0" points="-2526.1,2169.2 -2526.1,2251.2 -2622.1,2251.2 -2622.1,2240.2 -2610.1,2240.2 -2610.1,2228.2 
				-2598.1,2228.2 -2598.1,2216.2 -2586.1,2216.2 -2586.1,2204.2 -2598.1,2204.2 -2598.1,2192.2 -2610.1,2192.2 -2610.1,2180.2 
				-2622.1,2180.2 -2622.1,2169.2 			"/>
		</g>
		<polygon class="st0" points="-2540.1,2227.2 -2526.1,2250.2 -2526.1,2227.2 		"/>
	</g>
	<g>
		<g>
			<polygon class="st2" points="-2079.1,2161.2 -2079.1,2243.2 -1983.1,2243.2 -1983.1,2232.2 -1995.1,2232.2 -1995.1,2220.2 
				-2007.1,2220.2 -2007.1,2208.2 -2019.1,2208.2 -2019.1,2196.2 -2007.1,2196.2 -2007.1,2184.2 -1995.1,2184.2 -1995.1,2172.2 
				-1983.1,2172.2 -1983.1,2161.2 			"/>
			<polygon class="st3" points="-2079.1,2150.2 -2079.1,2232.2 -1983.1,2232.2 -1983.1,2221.2 -1995.1,2221.2 -1995.1,2209.2 
				-2007.1,2209.2 -2007.1,2197.2 -2019.1,2197.2 -2019.1,2185.2 -2007.1,2185.2 -2007.1,2173.2 -1995.1,2173.2 -1995.1,2161.2 
				-1983.1,2161.2 -1983.1,2150.2 			"/>
		</g>
		<polygon class="st2" points="-2065.1,2219.2 -2079.1,2242.2 -2079,2219.2 		"/>
		<g>
			<g>
				<polygon class="st2" points="-2535.1,2161.2 -2535.1,2243.2 -2631.1,2243.2 -2631.1,2232.2 -2619.1,2232.2 -2619.1,2220.2 
					-2607.1,2220.2 -2607.1,2208.2 -2595.1,2208.2 -2595.1,2196.2 -2607.1,2196.2 -2607.1,2184.2 -2619.1,2184.2 -2619.1,2172.2 
					-2631.1,2172.2 -2631.1,2161.2 				"/>
				<polygon class="st3" points="-2535.1,2150.2 -2535.1,2232.2 -2631.1,2232.2 -2631.1,2221.2 -2619.1,2221.2 -2619.1,2209.2 
					-2607.1,2209.2 -2607.1,2197.2 -2595.1,2197.2 -2595.1,2185.2 -2607.1,2185.2 -2607.1,2173.2 -2619.1,2173.2 -2619.1,2161.2 
					-2631.1,2161.2 -2631.1,2150.2 				"/>
			</g>
			<polygon class="st2" points="-2549.1,2219.2 -2535.1,2242.2 -2535.1,2219.2 			"/>
		</g>
		<g>
			<rect x="-2549.1" y="2137.2" class="st2" width="484" height="82"/>
			<rect x="-2549.1" y="2125.2" class="st3" width="484" height="82"/>
		</g>
	</g>
	<g>
		<path class="st4" d="M-2478.4,2185h-8.6v-34.6h8.6v13h8.6v-13h8.6v34.6h-8.6v-13h-8.6V2185z"/>
		<path class="st4" d="M-2456.8,2154.7h4.3v-4.3h17.3v4.3h4.3v25.9h-4.3v4.3h-17.3v-4.3h-4.3V2154.7z M-2448.2,2176.3h8.6V2159h-8.6
			V2176.3z"/>
		<path class="st4" d="M-2418,2185h-8.6v-34.6h8.6v17.3h4.3v-4.3h4.3v4.3h4.3v-17.3h8.6v34.6h-8.6v-4.3h-4.3v-4.3h-4.3v4.3h-4.3
			V2185z"/>
		<path class="st4" d="M-2361.8,2150.4h25.9v8.6h-8.6v25.9h-8.6V2159h-8.6V2150.4z"/>
		<path class="st4" d="M-2331.6,2154.7h4.3v-4.3h17.3v4.3h4.3v25.9h-4.3v4.3h-17.3v-4.3h-4.3V2154.7z M-2322.9,2176.3h8.6V2159h-8.6
			V2176.3z"/>
		<path class="st4" d="M-2262.4,2185h-8.6v-34.6h21.6v4.3h4.3v13h-4.3v4.3h-13V2185z M-2262.4,2163.4h8.6v-4.3h-8.6V2163.4z"/>
		<path class="st4" d="M-2236.5,2180.6h-4.3v-30.2h8.6v25.9h17.3v8.6h-21.6V2180.6z"/>
		<path class="st4" d="M-2202,2185h-8.6v-30.2h4.3v-4.3h17.3v4.3h4.3v30.2h-8.6v-13h-8.6V2185z M-2193.3,2163.4v-4.3h-8.6v4.3
			H-2193.3z"/>
		<path class="st4" d="M-2180.4,2150.4h8.6v13h8.6v-13h8.6v17.3h-4.3v4.3h-4.3v13h-8.6v-13h-4.3v-4.3h-4.3V2150.4z"/>
	</g>
</g>
<polygon class="st5" points="-2373.1,2418.2 -2385.1,2418.2 -2458.1,2418.2 -2458.1,2430.2 -2470.1,2430.2 -2470.1,2515.2 
	-2458.1,2515.2 -2458.1,2527.2 -2385.1,2527.2 -2373.1,2527.2 -2373.1,2515.2 -2361.1,2515.2 -2361.1,2430.2 -2373.1,2430.2 "/>
<polygon class="st5" points="-2373.1,2418.2 -2385.1,2418.2 -2458.1,2418.2 -2458.1,2430.2 -2470.1,2430.2 -2470.1,2515.2 
	-2458.1,2515.2 -2458.1,2527.2 -2385.1,2527.2 -2373.1,2527.2 -2373.1,2515.2 -2361.1,2515.2 -2361.1,2430.2 -2373.1,2430.2 "/>
<g>
	<path class="st4" d="M-2433.5,2452.4h28.4v5.7h5.7v17.1h-5.7v5.7h-17.1v-11.4h11.4v-5.7h-22.8V2452.4z M-2422.1,2486.5h11.4v11.4
		h-11.4V2486.5z"/>
</g>
<polygon class="st5" points="-2222.1,2418.2 -2234.1,2418.2 -2307.1,2418.2 -2307.1,2430.2 -2319.1,2430.2 -2319.1,2515.2 
	-2307.1,2515.2 -2307.1,2527.2 -2234.1,2527.2 -2222.1,2527.2 -2222.1,2515.2 -2210.1,2515.2 -2210.1,2430.2 -2222.1,2430.2 "/>
<polygon class="st6" points="-2222.1,2408.2 -2234.1,2408.2 -2307.1,2408.2 -2307.1,2420.2 -2319.1,2420.2 -2319.1,2505.2 
	-2307.1,2505.2 -2307.1,2517.2 -2234.1,2517.2 -2222.1,2517.2 -2222.1,2505.2 -2210.1,2505.2 -2210.1,2420.2 -2222.1,2420.2 "/>
<g>
	<path class="st4" d="M-2282.5,2442.4h28.4v5.7h5.7v17.1h-5.7v5.7h-17.1v-11.4h11.4v-5.7h-22.8V2442.4z M-2271.1,2476.5h11.4v11.4
		h-11.4V2476.5z"/>
</g>
<g>
	<polygon class="st0" points="-1187.1,2262.7 -1198.6,2262.7 -1198.6,2251.1 -1210.2,2251.1 -1210.2,2238.3 -1708.9,2238.3 
		-1708.9,2251.1 -1720.5,2251.1 -1720.5,2262.7 -1732.1,2262.7 -1732.1,2947.4 -1720.5,2947.4 -1720.5,2959.1 -1708.9,2959.1 
		-1708.9,2971.9 -1210.2,2971.9 -1210.2,2959.1 -1198.6,2959.1 -1198.6,2947.4 -1187.1,2947.4 	"/>
	<polygon class="st7" points="-1187.1,2250.7 -1198.6,2250.7 -1198.6,2239 -1210.2,2239 -1210.2,2226.2 -1708.9,2226.2 
		-1708.9,2239 -1720.5,2239 -1720.5,2250.7 -1732.1,2250.7 -1732.1,2935.4 -1720.5,2935.4 -1720.5,2947 -1708.9,2947 
		-1708.9,2959.9 -1210.2,2959.9 -1210.2,2947 -1198.6,2947 -1198.6,2935.4 -1187.1,2935.4 	"/>
	<polygon class="st8" points="-1187.1,2238.7 -1198.6,2238.7 -1198.6,2227 -1210.2,2227 -1210.2,2214.2 -1708.9,2214.2 
		-1708.9,2227 -1720.5,2227 -1720.5,2238.7 -1732.1,2238.7 -1732.1,2923.4 -1720.5,2923.4 -1720.5,2935 -1708.9,2935 
		-1708.9,2947.8 -1210.2,2947.8 -1210.2,2935 -1198.6,2935 -1198.6,2923.4 -1187.1,2923.4 	"/>
</g>
<g>
	<polygon class="st9" points="-2236,1898.2 -2246.1,1898.2 -2621,1898.2 -2621,1908.3 -2631.1,1908.3 -2631.1,1966.1 -2621,1966.1 
		-2621,1976.2 -2246.1,1976.2 -2236,1976.2 -2236,1966.1 -2226,1966.1 -2226,1908.3 -2236,1908.3 	"/>
	<polygon class="st10" points="-2236,1888.2 -2246.1,1888.2 -2621,1888.2 -2621,1898.3 -2631.1,1898.3 -2631.1,1956.1 -2621,1956.1 
		-2621,1966.2 -2246.1,1966.2 -2236,1966.2 -2236,1956.1 -2226,1956.1 -2226,1898.3 -2236,1898.3 	"/>
	<g>
		<path class="st4" d="M-2511,1939.1h-6.9v-27.6h17.3v3.5h3.5v10.4h-3.5v3.5h-10.4V1939.1z M-2511,1921.8h6.9v-3.5h-6.9V1921.8z"/>
		<path class="st4" d="M-2490.3,1935.6h-3.5v-24.2h6.9v20.7h13.8v6.9h-17.3V1935.6z"/>
		<path class="st4" d="M-2462.6,1939.1h-6.9v-24.2h3.5v-3.5h13.8v3.5h3.5v24.2h-6.9v-10.4h-6.9V1939.1z M-2455.7,1921.8v-3.5h-6.9
			v3.5H-2455.7z"/>
		<path class="st4" d="M-2445.3,1911.4h6.9v10.4h6.9v-10.4h6.9v13.8h-3.5v3.5h-3.5v10.4h-6.9v-10.4h-3.5v-3.5h-3.5V1911.4z"/>
		<path class="st4" d="M-2417.7,1935.6h-3.5v-20.7h3.5v-3.5h17.3v6.9h-13.8v3.5h6.9v6.9h-6.9v3.5h13.8v6.9h-17.3V1935.6z"/>
		<path class="st4" d="M-2386.6,1928.7h-3.5v10.4h-6.9v-27.6h17.3v3.5h3.5v10.4h-3.5v3.5h3.5v10.4h-6.9v-6.9h-3.5V1928.7z
			 M-2390,1921.8h6.9v-3.5h-6.9V1921.8z"/>
		<path class="st4" d="M-2348.6,1911.4h6.9v27.6h-6.9V1911.4z"/>
	</g>
</g>
<g>
	<polygon class="st11" points="-2596.9,1777.6 -2598.8,1771.8 -2602.9,1759.8 -2620.7,1765.8 -2618.7,1771.6 -2624.5,1773.6 
		-2620.4,1785.6 -2614.7,1783.6 -2612.7,1789.4 -2600.7,1785.3 -2602.6,1779.6 	"/>
	<polygon class="st11" points="-2558.1,1765.5 -2560,1759.8 -2564.1,1747.8 -2581.9,1753.8 -2579.9,1759.5 -2585.7,1761.5 
		-2581.6,1773.5 -2575.9,1771.6 -2573.9,1777.3 -2561.9,1773.3 -2563.8,1767.5 	"/>
	<rect x="-2617.6" y="1718.6" transform="matrix(0.9472 -0.3207 0.3207 0.9472 -695.4801 -746.5955)" width="7.1" height="38.6"/>
	<polygon points="-2598.5,1772.8 -2600.5,1767 -2604.5,1755 -2622.3,1761 -2620.4,1766.8 -2626.1,1768.8 -2622.1,1780.8 
		-2616.3,1778.8 -2614.3,1784.6 -2602.3,1780.5 -2604.3,1774.8 	"/>
	<rect x="-2579.2" y="1705.6" transform="matrix(0.9472 -0.3207 0.3207 0.9472 -689.2701 -734.9457)" width="7.1" height="38.6"/>
	<polygon points="-2560,1759.8 -2562,1754 -2566.1,1742 -2583.8,1748 -2581.9,1753.8 -2587.7,1755.7 -2583.6,1767.8 -2577.8,1765.8 
		-2575.9,1771.6 -2563.8,1767.5 -2565.8,1761.7 	"/>
	<rect x="-2627.7" y="1696.3" transform="matrix(0.9472 -0.3207 0.3207 0.9472 -684.366 -745.04)" width="47.7" height="17.3"/>
</g>
<g>
	<polygon class="st11" points="-2530.7,1811.2 -2529.7,1807 -2527.8,1798.4 -2540.6,1795.6 -2541.6,1799.7 -2545.7,1798.8 
		-2547.6,1807.5 -2543.5,1808.4 -2544.4,1812.5 -2535.7,1814.4 -2534.8,1810.3 	"/>
	<polygon class="st11" points="-2503.2,1818 -2502.2,1813.8 -2500.3,1805.2 -2513.1,1802.4 -2514,1806.5 -2518.2,1805.6 
		-2520.1,1814.2 -2515.9,1815.2 -2516.9,1819.3 -2508.2,1821.2 -2507.3,1817.1 	"/>
	<rect x="-2529.1" y="1767.8" transform="matrix(0.9766 0.2149 -0.2149 0.9766 323.748 584.5527)" width="5" height="26.9"/>
	<polygon points="-2529.9,1807.7 -2529,1803.6 -2527.1,1794.9 -2539.9,1792.1 -2540.8,1796.3 -2544.9,1795.4 -2546.8,1804 
		-2542.7,1804.9 -2543.6,1809.1 -2535,1811 -2534.1,1806.8 	"/>
	<rect x="-2501.4" y="1773.9" transform="matrix(0.9766 0.2149 -0.2149 0.9766 325.7021 578.7507)" width="5" height="26.9"/>
	<polygon points="-2502.2,1813.8 -2501.3,1809.7 -2499.4,1801 -2512.2,1798.2 -2513.1,1802.4 -2517.3,1801.4 -2519.2,1810.1 
		-2515,1811 -2515.9,1815.2 -2507.3,1817.1 -2506.4,1812.9 	"/>
	<rect x="-2525.2" y="1759.3" transform="matrix(0.9766 0.2149 -0.2149 0.9766 320.7361 580.3083)" width="33.3" height="12"/>
</g>
<g>
	<polygon class="st11" points="-2454.6,1749.4 -2455.3,1746.3 -2456.7,1740 -2466.1,1742.1 -2465.4,1745.1 -2468.5,1745.8 
		-2467.1,1752.2 -2464,1751.5 -2463.4,1754.5 -2457,1753.1 -2457.7,1750.1 	"/>
	<polygon class="st11" points="-2434.2,1745.4 -2434.9,1742.3 -2436.3,1736 -2445.7,1738.1 -2445,1741.1 -2448.1,1741.8 
		-2446.7,1748.1 -2443.6,1747.5 -2442.9,1750.5 -2436.6,1749.1 -2437.3,1746.1 	"/>
	<rect x="-2463" y="1718.3" transform="matrix(0.9761 -0.2173 0.2173 0.9761 -434.3223 -493.501)" width="3.6" height="19.8"/>
	<polygon points="-2455.2,1746.9 -2455.9,1743.8 -2457.3,1737.5 -2466.7,1739.6 -2466,1742.6 -2469.1,1743.3 -2467.6,1749.6 
		-2464.6,1748.9 -2463.9,1752 -2457.6,1750.6 -2458.3,1747.5 	"/>
	<rect x="-2442.7" y="1713.8" transform="matrix(0.9761 -0.2173 0.2173 0.9761 -432.8547 -489.1962)" width="3.6" height="19.8"/>
	<polygon points="-2434.9,1742.3 -2435.6,1739.3 -2437,1732.9 -2446.4,1735 -2445.7,1738.1 -2448.7,1738.8 -2447.3,1745.1 
		-2444.3,1744.4 -2443.6,1747.5 -2437.3,1746.1 -2437.9,1743 	"/>
	<rect x="-2466.4" y="1707.6" transform="matrix(0.9761 -0.2173 0.2173 0.9761 -430.629 -492.3575)" width="24.4" height="8.8"/>
</g>
<g>
	<polygon class="st11" points="-2434,1795.2 -2431.4,1791 -2426,1782.5 -2438.7,1774.4 -2441.3,1778.5 -2445.4,1775.9 
		-2450.8,1784.5 -2446.7,1787.1 -2449.3,1791.2 -2440.8,1796.7 -2438.1,1792.5 	"/>
	<polygon class="st11" points="-2407,1813.3 -2404.4,1809.2 -2399,1800.6 -2411.7,1792.5 -2414.3,1796.6 -2418.4,1794 
		-2423.8,1802.6 -2419.7,1805.2 -2422.3,1809.3 -2413.8,1814.8 -2411.2,1810.7 	"/>
	<rect x="-2420.8" y="1749.1" transform="matrix(0.844 0.5363 -0.5363 0.844 569.1696 1571.9706)" width="5.7" height="30.9"/>
	<polygon points="-2431.9,1791.7 -2429.2,1787.6 -2423.8,1779 -2436.5,1771 -2439.1,1775.1 -2443.2,1772.5 -2448.7,1781.1 
		-2444.5,1783.7 -2447.2,1787.8 -2438.6,1793.2 -2436,1789.1 	"/>
	<rect x="-2393.3" y="1766.5" transform="matrix(0.844 0.5363 -0.5363 0.844 582.7941 1559.9797)" width="5.7" height="30.9"/>
	<polygon points="-2404.4,1809.2 -2401.8,1805 -2396.4,1796.5 -2409.1,1788.4 -2411.7,1792.5 -2415.8,1789.9 -2421.2,1798.5 
		-2417.1,1801.1 -2419.7,1805.2 -2411.2,1810.7 -2408.5,1806.5 	"/>
	<rect x="-2411.3" y="1747.4" transform="matrix(0.844 0.5363 -0.5363 0.844 567.7381 1556.6084)" width="38.2" height="13.8"/>
</g>
<g>
	<polygon class="st9" points="-2712.8,1354.7 -2719.4,1354.7 -2965.8,1354.7 -2965.8,1361.4 -2972.4,1361.4 -2972.4,1399.4 
		-2965.8,1399.4 -2965.8,1406 -2719.4,1406 -2712.8,1406 -2712.8,1399.4 -2706.2,1399.4 -2706.2,1361.4 -2712.8,1361.4 	"/>
	<polygon class="st12" points="-2712.8,1354.7 -2719.4,1354.7 -2965.8,1354.7 -2965.8,1361.4 -2972.4,1361.4 -2972.4,1399.4 
		-2965.8,1399.4 -2965.8,1406 -2719.4,1406 -2712.8,1406 -2712.8,1399.4 -2706.2,1399.4 -2706.2,1361.4 -2712.8,1361.4 	"/>
	<g>
		<path class="st4" d="M-2906,1372.3h2.3v-2.3h11.4v4.5h-9.1v9.1h9.1v4.5h-11.4v-2.3h-2.3V1372.3z"/>
		<path class="st4" d="M-2885.5,1388.2h-4.5v-15.9h2.3v-2.3h9.1v2.3h2.3v15.9h-4.5v-6.8h-4.5V1388.2z M-2881,1376.8v-2.3h-4.5v2.3
			H-2881z"/>
		<path class="st4" d="M-2871.9,1385.9h-2.3V1370h4.5v13.6h9.1v4.5h-11.4V1385.9z"/>
		<path class="st4" d="M-2858.3,1370h4.5v18.2h-4.5V1370z"/>
		<path class="st4" d="M-2851.5,1370h11.4v2.3h2.3v13.6h-2.3v2.3h-11.4V1370z M-2846.9,1376.8h4.5v-2.3h-4.5V1376.8z
			 M-2846.9,1383.6h4.5v-2.3h-4.5V1383.6z"/>
		<path class="st4" d="M-2828.8,1381.4h-2.3v6.8h-4.5v-15.9h2.3v-2.3h9.1v2.3h2.3v6.8h-2.3v2.3h2.3v6.8h-4.5v-4.5h-2.3V1381.4z
			 M-2831,1376.8h4.5v-2.3h-4.5V1376.8z"/>
		<path class="st4" d="M-2815.1,1388.2h-4.5v-15.9h2.3v-2.3h9.1v2.3h2.3v15.9h-4.5v-6.8h-4.5V1388.2z M-2810.6,1376.8v-2.3h-4.5v2.3
			H-2810.6z"/>
		<path class="st4" d="M-2803.8,1370h13.6v4.5h-4.5v13.6h-4.5v-13.6h-4.5V1370z"/>
		<path class="st4" d="M-2785.6,1385.9h-2.3v-13.6h2.3v-2.3h11.4v4.5h-9.1v2.3h4.5v4.5h-4.5v2.3h9.1v4.5h-11.4V1385.9z"/>
	</g>
</g>
<g>
	<polygon class="st9" points="-2392.8,1422.7 -2399.4,1422.7 -2645.8,1422.7 -2645.8,1429.4 -2652.4,1429.4 -2652.4,1467.4 
		-2645.8,1467.4 -2645.8,1474 -2399.4,1474 -2392.8,1474 -2392.8,1467.4 -2386.2,1467.4 -2386.2,1429.4 -2392.8,1429.4 	"/>
	<polygon class="st10" points="-2392.8,1416.2 -2399.4,1416.2 -2645.8,1416.2 -2645.8,1422.8 -2652.4,1422.8 -2652.4,1460.8 
		-2645.8,1460.8 -2645.8,1467.4 -2399.4,1467.4 -2392.8,1467.4 -2392.8,1460.8 -2386.2,1460.8 -2386.2,1422.8 -2392.8,1422.8 	"/>
	<g>
		<path class="st4" d="M-2586,1433.7h2.3v-2.3h11.4v4.5h-9.1v9.1h9.1v4.5h-11.4v-2.3h-2.3V1433.7z"/>
		<path class="st4" d="M-2565.5,1449.6h-4.5v-15.9h2.3v-2.3h9.1v2.3h2.3v15.9h-4.5v-6.8h-4.5V1449.6z M-2561,1438.2v-2.3h-4.5v2.3
			H-2561z"/>
		<path class="st4" d="M-2551.9,1447.3h-2.3v-15.9h4.5v13.6h9.1v4.5h-11.4V1447.3z"/>
		<path class="st4" d="M-2538.3,1431.4h4.5v18.2h-4.5V1431.4z"/>
		<path class="st4" d="M-2531.5,1431.4h11.4v2.3h2.3v13.6h-2.3v2.3h-11.4V1431.4z M-2526.9,1438.2h4.5v-2.3h-4.5V1438.2z
			 M-2526.9,1445.1h4.5v-2.3h-4.5V1445.1z"/>
		<path class="st4" d="M-2508.8,1442.8h-2.3v6.8h-4.5v-15.9h2.3v-2.3h9.1v2.3h2.3v6.8h-2.3v2.3h2.3v6.8h-4.5v-4.5h-2.3V1442.8z
			 M-2511,1438.2h4.5v-2.3h-4.5V1438.2z"/>
		<path class="st4" d="M-2495.1,1449.6h-4.5v-15.9h2.3v-2.3h9.1v2.3h2.3v15.9h-4.5v-6.8h-4.5V1449.6z M-2490.6,1438.2v-2.3h-4.5v2.3
			H-2490.6z"/>
		<path class="st4" d="M-2483.8,1431.4h13.6v4.5h-4.5v13.6h-4.5V1436h-4.5V1431.4z"/>
		<path class="st4" d="M-2465.6,1447.3h-2.3v-13.6h2.3v-2.3h11.4v4.5h-9.1v2.3h4.5v4.5h-4.5v2.3h9.1v4.5h-11.4V1447.3z"/>
	</g>
</g>
<g>
	<rect x="-2650.8" y="1505.1" class="st9" width="219.8" height="28.8"/>
	<rect x="-2655.6" y="1498.5" class="st9" width="229.4" height="30.6"/>
	<polygon class="st10" points="-2655.6,1494.2 -2655.6,1523.4 -2650.8,1523.4 -2650.8,1529.1 -2431,1529.1 -2431,1523.4 
		-2426.2,1523.4 -2426.2,1494.2 	"/>
</g>
<polygon class="st9" points="-2435.8,1509 -2435.8,1503.9 -2440.9,1503.9 -2440.9,1503.8 -2497.6,1503.8 -2528.1,1503.8 
	-2553.7,1503.8 -2577.6,1503.8 -2640.9,1503.8 -2640.9,1503.9 -2646,1503.9 -2646,1509 -2651.1,1509 -2651.1,1516.6 -2646,1516.6 
	-2646,1521.7 -2640.9,1521.7 -2640.9,1521.8 -2577.6,1521.8 -2553.7,1521.8 -2528.1,1521.8 -2497.6,1521.8 -2440.9,1521.8 
	-2440.9,1521.8 -2435.8,1521.8 -2435.8,1516.7 -2430.7,1516.7 -2430.7,1509 "/>
<g>
	<rect x="-2659.7" y="1603.1" class="st13" width="4.7" height="0.1"/>
	<rect x="-2659.7" y="1621" class="st13" width="4.7" height="0.1"/>
	<polygon class="st4" points="-2638.7,1621 -2638.7,1615.9 -2633.6,1615.9 -2633.6,1608.3 -2638.7,1608.3 -2638.7,1603.2 
		-2643.8,1603.2 -2643.8,1603.1 -2655,1603.1 -2655,1603.2 -2659.7,1603.2 -2659.7,1621 -2655,1621 -2655,1621.1 -2643.8,1621.1 
		-2643.8,1621 	"/>
</g>
<g>
	<polygon class="st4" points="-2685.5,1567.6 -2685.5,1562.5 -2690.6,1562.5 -2690.6,1562.4 -2706.6,1562.4 -2706.6,1580.4 
		-2690.6,1580.4 -2690.6,1580.3 -2685.5,1580.3 -2685.5,1575.2 -2680.4,1575.2 -2680.4,1567.6 	"/>
	<polygon class="st4" points="-2699,1606.4 -2699,1601.3 -2699.1,1601.3 -2699.1,1601.2 -2703.6,1601.2 -2704.1,1601.2 
		-2708.7,1601.2 -2708.7,1601.3 -2708.7,1601.3 -2708.7,1606.4 -2713.8,1606.4 -2713.8,1614 -2708.7,1614 -2708.7,1619.1 
		-2708.7,1619.1 -2708.7,1619.2 -2704.1,1619.2 -2703.6,1619.2 -2699.1,1619.2 -2699.1,1619.2 -2699,1619.2 -2699,1614.1 
		-2693.9,1614.1 -2693.9,1606.4 	"/>
</g>
<polygon class="st4" points="-2748.8,1509 -2748.8,1503.9 -2748.8,1503.9 -2748.8,1503.8 -2753.4,1503.8 -2753.9,1503.8 
	-2758.4,1503.8 -2758.4,1503.9 -2758.5,1503.9 -2758.5,1509 -2763.6,1509 -2763.6,1516.6 -2758.5,1516.6 -2758.5,1521.7 
	-2758.4,1521.7 -2758.4,1521.8 -2753.9,1521.8 -2753.4,1521.8 -2748.8,1521.8 -2748.8,1521.8 -2748.8,1521.8 -2748.8,1516.7 
	-2743.7,1516.7 -2743.7,1509 "/>
<polygon class="st14" points="-1783,1898.2 -1793.1,1898.2 -2168,1898.2 -2168,1908.3 -2178.1,1908.3 -2178.1,1966.1 -2168,1966.1 
	-2168,1976.2 -1793.1,1976.2 -1783,1976.2 -1783,1966.1 -1773,1966.1 -1773,1908.3 -1783,1908.3 "/>
<polygon class="st15" points="-1783,1888.2 -1793.1,1888.2 -2168,1888.2 -2168,1898.3 -2178.1,1898.3 -2178.1,1956.1 -2168,1956.1 
	-2168,1966.2 -1793.1,1966.2 -1783,1966.2 -1783,1956.1 -1773,1956.1 -1773,1898.3 -1783,1898.3 "/>
<g>
	<path class="st4" d="M-2065.4,1939.1h-6.9v-27.6h17.3v3.5h3.5v10.4h-3.5v3.5h-10.4V1939.1z M-2065.4,1921.8h6.9v-3.5h-6.9V1921.8z"
		/>
	<path class="st4" d="M-2044.7,1935.6h-3.5v-24.2h6.9v20.7h13.8v6.9h-17.3V1935.6z"/>
	<path class="st4" d="M-2017,1939.1h-6.9v-24.2h3.5v-3.5h13.8v3.5h3.5v24.2h-6.9v-10.4h-6.9V1939.1z M-2010.1,1921.8v-3.5h-6.9v3.5
		H-2010.1z"/>
	<path class="st4" d="M-1999.7,1911.4h6.9v10.4h6.9v-10.4h6.9v13.8h-3.5v3.5h-3.5v10.4h-6.9v-10.4h-3.5v-3.5h-3.5V1911.4z"/>
	<path class="st4" d="M-1972.1,1935.6h-3.5v-20.7h3.5v-3.5h17.3v6.9h-13.8v3.5h6.9v6.9h-6.9v3.5h13.8v6.9h-17.3V1935.6z"/>
	<path class="st4" d="M-1941,1928.7h-3.5v10.4h-6.9v-27.6h17.3v3.5h3.5v10.4h-3.5v3.5h3.5v10.4h-6.9v-6.9h-3.5V1928.7z
		 M-1944.5,1921.8h6.9v-3.5h-6.9V1921.8z"/>
	<path class="st4" d="M-1903,1911.4h17.3v3.5h3.5v10.4h-3.5v3.5h-10.4v3.5h13.8v6.9h-20.7v-13.8h3.5v-3.5h10.4v-3.5h-13.8V1911.4z"
		/>
</g>
<g>
	<rect x="-2157.1" y="1892.2" class="st4" width="45.1" height="5.7"/>
	<rect x="-2105.8" y="1892.2" class="st4" width="5.7" height="5.7"/>
</g>
<g>
	<rect x="-2611.6" y="1893.2" class="st4" width="45.1" height="5.7"/>
	<rect x="-2560.3" y="1893.2" class="st4" width="5.7" height="5.7"/>
</g>
<polygon class="st16" points="-2222.4,1733.2 -2216,1738.8 -2221.6,1745.2 -2201.2,1762.6 -2201.2,1800.5 -2180.5,1774.4 
	-2148.7,1803.7 -2142.9,1797.5 -2137.9,1802.1 -2066.3,1683.4 "/>
<polygon class="st17" points="-2224.9,1726.1 -2218.5,1731.7 -2224.1,1738.1 -2203.7,1755.4 -2203.7,1793.3 -2182.9,1767.2 
	-2151.2,1796.6 -2145.3,1790.4 -2140.4,1795 -2068.7,1676.3 "/>
<polygon class="st18" points="-2182.9,1767 -2068.5,1676.3 -2203.6,1755.2 -2203.6,1793.1 "/>
<polygon class="st19" points="-2226,1726.2 -2219.6,1731.8 -2225.2,1738.2 -2204.7,1755.6 -2204.7,1793.5 -2184,1767.4 
	-2152.2,1796.8 -2146.4,1790.5 -2141.4,1795.1 -2069.8,1676.4 "/>
<g>
	<polygon class="st20" points="-2290.1,1419.5 -2290.1,1583.1 -2279.7,1583.1 -2279.7,1592.6 -2269.3,1592.6 -2269.3,1603.1 
		-1821.9,1603.1 -1821.9,1592.6 -1811.5,1592.6 -1811.5,1583.1 -1801.1,1583.1 -1801.1,1419.5 	"/>
	<polygon class="st20" points="-1801.1,1419.5 -1801.1,1325.4 -1811.5,1325.4 -1811.5,1315.9 -1821.9,1315.9 -1821.9,1305.4 
		-2269.3,1305.4 -2269.3,1315.9 -2279.7,1315.9 -2279.7,1325.4 -2290.1,1325.4 -2290.1,1419.5 	"/>
</g>
<g>
	<polygon class="st21" points="-2279.7,1322 -2269.3,1322 -2269.3,1314 -2279.7,1314 -2279.7,1321.9 -2290.1,1321.9 -2290.1,1329.9 
		-2279.7,1329.9 	"/>
	<rect x="-2269.3" y="1305.3" class="st21" width="447.5" height="8"/>
	<polygon class="st21" points="-1811.5,1321.9 -1811.5,1314 -1821.9,1314 -1821.9,1322 -1811.5,1322 -1811.5,1329.9 -1801.1,1329.9 
		-1801.1,1321.9 	"/>
</g>
<g>
	<g>
		<g>
			<rect x="-2683.3" y="1241" width="10.2" height="10.2"/>
		</g>
	</g>
	<g>
		<g>
			<path d="M-2621.8,1230.8v5.1h-5.1v5.1h5.1v20.5h5.1v5.1h-5.1v5.1h5.1h5.1v-10.2h15.4v5.1h5.1v-5.1v-30.7H-2621.8z
				 M-2596.2,1256.4h-20.5v-20.5h20.5V1256.4z"/>
		</g>
	</g>
	<g>
		<g>
			<rect x="-2611.6" y="1241" width="10.2" height="10.2"/>
		</g>
	</g>
	<g>
		<g>
			<rect x="-2683.3" y="1312.7" width="10.2" height="10.2"/>
		</g>
	</g>
	<g>
		<g>
			<rect x="-2621.8" y="1302.5" width="5.1" height="5.1"/>
		</g>
	</g>
	<g>
		<g>
			<rect x="-2647.4" y="1328.1" width="5.1" height="5.1"/>
		</g>
	</g>
	<g>
		<g>
			<rect x="-2642.3" y="1307.6" width="5.1" height="5.1"/>
		</g>
	</g>
	<g>
		<g>
			<rect x="-2642.3" y="1317.8" width="5.1" height="5.1"/>
		</g>
	</g>
	<g>
		<g>
			<rect x="-2596.2" y="1292.2" width="5.1" height="5.1"/>
		</g>
	</g>
	<g>
		<g>
			<rect x="-2693.5" y="1292.2" width="5.1" height="5.1"/>
		</g>
	</g>
	<g>
		<g>
			<rect x="-2693.5" y="1266.6" width="5.1" height="5.1"/>
		</g>
	</g>
	<g>
		<g>
			<polygon points="-2637.2,1235.9 -2637.2,1241 -2647.4,1241 -2647.4,1246.1 -2632.1,1246.1 -2632.1,1241 -2632.1,1235.9 			"/>
		</g>
	</g>
	<g>
		<g>
			<path d="M-2596.2,1271.7v5.1h-10.2v5.1h-15.4v-5.1h-5.1v5.1h-10.2v5.1h15.4v5.1h-10.2h-5.1v-5.1h-5.1v5.1h-5.1v-5.1h-5.1v5.1
				h-5.1v5.1h10.2v5.1h5.1v-5.1h10.2v5.1h-5.1v5.1h5.1v10.2h5.1v5.1h5.1v-5.1h15.4v-10.2h5.1v-5.1h-5.1v-10.2h-10.2v-5.1h10.2v5.1
				h5.1v-5.1h5.1v-5.1h5.1v-5.1v-5.1H-2596.2L-2596.2,1271.7z M-2611.6,1297.3v15.4h-15.4v-15.4H-2611.6z"/>
		</g>
	</g>
	<g>
		<g>
			<polygon points="-2626.9,1261.5 -2632.1,1261.5 -2632.1,1266.6 -2637.2,1266.6 -2637.2,1271.7 -2637.2,1276.9 -2632.1,1276.9 
				-2632.1,1271.7 -2626.9,1271.7 -2626.9,1266.6 -2621.8,1266.6 -2621.8,1261.5 			"/>
		</g>
	</g>
	<g>
		<g>
			<rect x="-2637.2" y="1328.1" width="10.2" height="5.1"/>
		</g>
	</g>
	<g>
		<g>
			<rect x="-2652.5" y="1235.9" width="5.1" height="5.1"/>
		</g>
	</g>
	<g>
		<g>
			<rect x="-2611.6" y="1271.7" width="5.1" height="5.1"/>
		</g>
	</g>
	<g>
		<g>
			<rect x="-2606.5" y="1266.6" width="5.1" height="5.1"/>
		</g>
	</g>
	<g>
		<g>
			<rect x="-2673" y="1292.2" width="5.1" height="5.1"/>
		</g>
	</g>
	<g>
		<g>
			<path d="M-2662.8,1328.1v-20.5h5.1v-5.1v-5.1h-5.1v5.1h-15.4v-5.1h-5.1h-5.1v5.1h-5.1v30.7h30.7h10.2v-5.1H-2662.8z
				 M-2667.9,1328.1h-20.5v-20.5h20.5V1328.1z"/>
		</g>
	</g>
	<g>
		<g>
			<rect x="-2662.8" y="1261.5" width="5.1" height="5.1"/>
		</g>
	</g>
	<g>
		<g>
			<path d="M-2657.7,1230.8h-5.1h-30.7v30.7h5.1v5.1h5.1v-5.1h5.1v5.1h5.1v-5.1h10.2v-10.2h5.1v-5.1h-5.1v-10.2h5.1h5.1v-5.1
				H-2657.7z M-2667.9,1256.4h-20.5v-20.5h20.5V1256.4z"/>
		</g>
	</g>
	<g>
		<g>
			<rect x="-2632.1" y="1246.1" width="5.1" height="5.1"/>
		</g>
	</g>
	<g>
		<g>
			<rect x="-2642.3" y="1230.8" width="5.1" height="5.1"/>
		</g>
	</g>
	<g>
		<g>
			<path d="M-2632.1,1261.5v-5.1h-5.1v-5.1h-5.1v5.1h-10.2v-5.1h-5.1v5.1v5.1h5.1v10.2h-15.4v-5.1h-5.1v5.1h-15.4v5.1h10.2v5.1
				h-15.4v5.1h15.4v5.1h5.1v-5.1h5.1v5.1h5.1v-5.1h10.2v-5.1h-5.1v-5.1h5.1h5.1v5.1h5.1h5.1v-5.1h-5.1v-5.1h-5.1v-10.2H-2632.1
				L-2632.1,1261.5z M-2662.8,1282h-10.2v-5.1h10.2V1282z"/>
		</g>
	</g>
	<g>
		<g>
			<polygon points="-2647.4,1312.7 -2647.4,1307.6 -2647.4,1302.5 -2652.5,1302.5 -2652.5,1307.6 -2657.7,1307.6 -2657.7,1312.7 
				-2652.5,1312.7 -2652.5,1317.8 -2657.7,1317.8 -2657.7,1322.9 -2647.4,1322.9 -2647.4,1317.8 -2642.3,1317.8 -2642.3,1312.7 			
				"/>
		</g>
	</g>
	<g>
		<g>
			<polygon points="-2601.3,1322.9 -2601.3,1317.8 -2606.5,1317.8 -2606.5,1322.9 -2621.8,1322.9 -2621.8,1328.1 -2611.6,1328.1 
				-2611.6,1333.2 -2606.5,1333.2 -2606.5,1328.1 -2596.2,1328.1 -2596.2,1333.2 -2591.1,1333.2 -2591.1,1328.1 -2591.1,1322.9 			
				"/>
		</g>
	</g>
	<g>
		<g>
			<polygon points="-2596.2,1302.5 -2596.2,1307.6 -2601.3,1307.6 -2601.3,1312.7 -2591.1,1312.7 -2591.1,1307.6 -2591.1,1302.5 			
				"/>
		</g>
	</g>
</g>
<g>
	<g>
		<polygon class="st9" points="-2921.6,1646.9 -2925.3,1646.9 -3062.5,1646.9 -3062.5,1650.6 -3066.2,1650.6 -3066.2,1671.8 
			-3062.5,1671.8 -3062.5,1675.4 -2925.3,1675.4 -2921.6,1675.4 -2921.6,1671.8 -2917.9,1671.8 -2917.9,1650.6 -2921.6,1650.6 		"/>
		<polygon class="st12" points="-2921.6,1646.9 -2925.3,1646.9 -3062.5,1646.9 -3062.5,1650.6 -3066.2,1650.6 -3066.2,1671.8 
			-3062.5,1671.8 -3062.5,1675.4 -2925.3,1675.4 -2921.6,1675.4 -2921.6,1671.8 -2917.9,1671.8 -2917.9,1650.6 -2921.6,1650.6 		"/>
		<g>
			<path class="st4" d="M-3034.2,1661.7h-1.3v3.8h-2.5v-10.1h6.3v1.3h1.3v3.8h-1.3v1.3h1.3v3.8h-2.5v-2.5h-1.3V1661.7z
				 M-3035.5,1659.2h2.5v-1.3h-2.5V1659.2z"/>
			<path class="st4" d="M-3027.9,1664.3h-1.3v-7.6h1.3v-1.3h6.3v2.5h-5.1v1.3h2.5v2.5h-2.5v1.3h5.1v2.5h-6.3V1664.3z"/>
			<path class="st4" d="M-3019.1,1664.3h-1.3v-7.6h1.3v-1.3h5.1v1.3h1.3v2.5h-2.5v-1.3h-2.5v5.1h2.5v-1.3h2.5v2.5h-1.3v1.3h-5.1
				V1664.3z"/>
			<path class="st4" d="M-3009,1665.5h-2.5v-8.9h1.3v-1.3h5.1v1.3h1.3v8.9h-2.5v-3.8h-2.5V1665.5z M-3006.4,1659.2v-1.3h-2.5v1.3
				H-3006.4z"/>
			<path class="st4" d="M-3001.4,1664.3h-1.3v-8.9h2.5v7.6h5.1v2.5h-6.3V1664.3z"/>
			<path class="st4" d="M-2993.8,1655.4h2.5v10.1h-2.5V1655.4z"/>
			<path class="st4" d="M-2990,1655.4h6.3v1.3h1.3v7.6h-1.3v1.3h-6.3V1655.4z M-2987.5,1659.2h2.5v-1.3h-2.5V1659.2z M-2987.5,1663
				h2.5v-1.3h-2.5V1663z"/>
			<path class="st4" d="M-2977.3,1661.7h-1.3v3.8h-2.5v-8.9h1.3v-1.3h5.1v1.3h1.3v3.8h-1.3v1.3h1.3v3.8h-2.5v-2.5h-1.3V1661.7z
				 M-2978.6,1659.2h2.5v-1.3h-2.5V1659.2z"/>
			<path class="st4" d="M-2969.8,1665.5h-2.5v-8.9h1.3v-1.3h5.1v1.3h1.3v8.9h-2.5v-3.8h-2.5V1665.5z M-2967.2,1659.2v-1.3h-2.5v1.3
				H-2967.2z"/>
			<path class="st4" d="M-2963.4,1655.4h7.6v2.5h-2.5v7.6h-2.5v-7.6h-2.5V1655.4z"/>
			<path class="st4" d="M-2953.3,1664.3h-1.3v-7.6h1.3v-1.3h6.3v2.5h-5.1v1.3h2.5v2.5h-2.5v1.3h5.1v2.5h-6.3V1664.3z"/>
		</g>
	</g>
	<g>
		<rect x="-3060" y="1649" class="st4" width="13.1" height="1.7"/>
		<rect x="-3045.1" y="1649" class="st4" width="1.7" height="1.7"/>
	</g>
</g>
<g>
	<g>
		<polygon class="st9" points="-2921.6,1688.9 -2925.3,1688.9 -3062.5,1688.9 -3062.5,1692.6 -3066.2,1692.6 -3066.2,1713.8 
			-3062.5,1713.8 -3062.5,1717.4 -2925.3,1717.4 -2921.6,1717.4 -2921.6,1713.8 -2917.9,1713.8 -2917.9,1692.6 -2921.6,1692.6 		"/>
		<polygon class="st10" points="-2921.6,1685.2 -2925.3,1685.2 -3062.5,1685.2 -3062.5,1688.9 -3066.2,1688.9 -3066.2,1710.1 
			-3062.5,1710.1 -3062.5,1713.8 -2925.3,1713.8 -2921.6,1713.8 -2921.6,1710.1 -2917.9,1710.1 -2917.9,1688.9 -2921.6,1688.9 		"/>
		<g>
			<path class="st4" d="M-3034.2,1700.1h-1.3v3.8h-2.5v-10.1h6.3v1.3h1.3v3.8h-1.3v1.3h1.3v3.8h-2.5v-2.5h-1.3V1700.1z
				 M-3035.5,1697.5h2.5v-1.3h-2.5V1697.5z"/>
			<path class="st4" d="M-3027.9,1702.6h-1.3v-7.6h1.3v-1.3h6.3v2.5h-5.1v1.3h2.5v2.5h-2.5v1.3h5.1v2.5h-6.3V1702.6z"/>
			<path class="st4" d="M-3019.1,1702.6h-1.3v-7.6h1.3v-1.3h5.1v1.3h1.3v2.5h-2.5v-1.3h-2.5v5.1h2.5v-1.3h2.5v2.5h-1.3v1.3h-5.1
				V1702.6z"/>
			<path class="st4" d="M-3009,1703.9h-2.5v-8.9h1.3v-1.3h5.1v1.3h1.3v8.9h-2.5v-3.8h-2.5V1703.9z M-3006.4,1697.5v-1.3h-2.5v1.3
				H-3006.4z"/>
			<path class="st4" d="M-3001.4,1702.6h-1.3v-8.9h2.5v7.6h5.1v2.5h-6.3V1702.6z"/>
			<path class="st4" d="M-2993.8,1693.7h2.5v10.1h-2.5V1693.7z"/>
			<path class="st4" d="M-2990,1693.7h6.3v1.3h1.3v7.6h-1.3v1.3h-6.3V1693.7z M-2987.5,1697.5h2.5v-1.3h-2.5V1697.5z
				 M-2987.5,1701.3h2.5v-1.3h-2.5V1701.3z"/>
			<path class="st4" d="M-2977.3,1700.1h-1.3v3.8h-2.5v-8.9h1.3v-1.3h5.1v1.3h1.3v3.8h-1.3v1.3h1.3v3.8h-2.5v-2.5h-1.3V1700.1z
				 M-2978.6,1697.5h2.5v-1.3h-2.5V1697.5z"/>
			<path class="st4" d="M-2969.8,1703.9h-2.5v-8.9h1.3v-1.3h5.1v1.3h1.3v8.9h-2.5v-3.8h-2.5V1703.9z M-2967.2,1697.5v-1.3h-2.5v1.3
				H-2967.2z"/>
			<path class="st4" d="M-2963.4,1693.7h7.6v2.5h-2.5v7.6h-2.5v-7.6h-2.5V1693.7z"/>
			<path class="st4" d="M-2953.3,1702.6h-1.3v-7.6h1.3v-1.3h6.3v2.5h-5.1v1.3h2.5v2.5h-2.5v1.3h5.1v2.5h-6.3V1702.6z"/>
		</g>
	</g>
	<g>
		<rect x="-3060" y="1688" class="st4" width="13.1" height="1.7"/>
		<rect x="-3045.1" y="1688" class="st4" width="1.7" height="1.7"/>
	</g>
</g>
<g>
	<rect x="-2640.2" y="1419.7" class="st4" width="23.6" height="3"/>
	<rect x="-2613.5" y="1419.7" class="st4" width="3" height="3"/>
</g>
<g>
	<rect x="-2960.7" y="1358.3" class="st4" width="23.6" height="3"/>
	<rect x="-2933.9" y="1358.3" class="st4" width="3" height="3"/>
</g>
<g>
	<polygon class="st22" points="-2990.7,1481.8 -2990.7,1474.3 -3009.4,1474.3 -3009.4,1481.8 -3016.8,1481.8 -3016.8,1489.2 
		-3016.8,1500.4 -3009.4,1500.4 -3009.4,1507.9 -2998.2,1507.9 -2990.7,1507.9 -2990.7,1500.4 -2983.3,1500.4 -2983.3,1489.2 
		-2983.3,1481.8 	"/>
	<line class="st23" x1="-3008.8" y1="1507.9" x2="-3008.8" y2="1517.8"/>
	<line class="st23" x1="-2991.4" y1="1507.9" x2="-2991.4" y2="1517.8"/>
	<polygon class="st24" points="-2992.3,1516 -2994.5,1516 -3007.8,1516 -3007.8,1518.2 -3010,1518.2 -3010,1533.7 -3007.8,1533.7 
		-3007.8,1535.9 -2994.5,1535.9 -2992.3,1535.9 -2992.3,1533.7 -2990.1,1533.7 -2990.1,1518.2 -2992.3,1518.2 	"/>
</g>
<polygon class="st25" points="-2923.6,1921 -2923.6,1913.1 -2931.6,1913.1 -2996.6,1913.1 -3065.3,1913.1 -3065.3,1921 
	-3073.3,1921 -3073.3,1966.6 -3065.3,1966.6 -3065.3,1974.5 -2996.6,1974.5 -2931.6,1974.5 -2923.6,1974.5 -2923.6,1966.6 
	-2915.7,1966.6 -2915.7,1921 "/>
<polygon class="st25" points="-2923.6,1921.1 -2923.6,1913.2 -2931.6,1913.2 -2996.6,1913.2 -3065.3,1913.2 -3065.3,1921.1 
	-3073.3,1921.1 -3073.3,1966.7 -3065.3,1966.7 -3065.3,1974.6 -2996.6,1974.6 -2931.6,1974.6 -2923.6,1974.6 -2923.6,1966.7 
	-2915.7,1966.7 -2915.7,1921.1 "/>
<g>
	<path class="st4" d="M-3027.1,1954.6h-5.4v-21.8h13.6v2.7h2.7v8.2h-2.7v2.7h-8.2V1954.6z M-3027.1,1941h5.4v-2.7h-5.4V1941z"/>
	<path class="st4" d="M-3010.8,1951.9h-2.7v-19h5.4v16.3h10.9v5.4h-13.6V1951.9z"/>
	<path class="st4" d="M-2989.1,1954.6h-5.4v-19h2.7v-2.7h10.9v2.7h2.7v19h-5.4v-8.2h-5.4V1954.6z M-2983.6,1941v-2.7h-5.4v2.7
		H-2983.6z"/>
	<path class="st4" d="M-2975.4,1932.8h5.4v8.2h5.4v-8.2h5.4v10.9h-2.7v2.7h-2.7v8.2h-5.4v-8.2h-2.7v-2.7h-2.7V1932.8z"/>
</g>
<polygon class="st25" points="-2753.6,1921 -2753.6,1913.1 -2761.6,1913.1 -2826.6,1913.1 -2895.3,1913.1 -2895.3,1921 
	-2903.3,1921 -2903.3,1966.6 -2895.3,1966.6 -2895.3,1974.5 -2826.6,1974.5 -2761.6,1974.5 -2753.6,1974.5 -2753.6,1966.6 
	-2745.7,1966.6 -2745.7,1921 "/>
<polygon class="st22" points="-2753.6,1913.1 -2753.6,1905.2 -2761.6,1905.2 -2826.6,1905.2 -2895.3,1905.2 -2895.3,1913.1 
	-2903.3,1913.1 -2903.3,1958.7 -2895.3,1958.7 -2895.3,1966.6 -2826.6,1966.6 -2761.6,1966.6 -2753.6,1966.6 -2753.6,1958.7 
	-2745.7,1958.7 -2745.7,1913.1 "/>
<g>
	<path class="st4" d="M-2857.1,1946.6h-5.4v-21.8h13.6v2.7h2.7v8.2h-2.7v2.7h-8.2V1946.6z M-2857.1,1933h5.4v-2.7h-5.4V1933z"/>
	<path class="st4" d="M-2840.8,1943.9h-2.7v-19h5.4v16.3h10.9v5.4h-13.6V1943.9z"/>
	<path class="st4" d="M-2819.1,1946.6h-5.4v-19h2.7v-2.7h10.9v2.7h2.7v19h-5.4v-8.2h-5.4V1946.6z M-2813.6,1933v-2.7h-5.4v2.7
		H-2813.6z"/>
	<path class="st4" d="M-2805.4,1924.8h5.4v8.2h5.4v-8.2h5.4v10.9h-2.7v2.7h-2.7v8.2h-5.4v-8.2h-2.7v-2.7h-2.7V1924.8z"/>
</g>
<g>
	<path class="st26" d="M-3747.2,1675.4h43.2v108h43.2v-108h43.2V1805h-21.6v21.6h-21.6v21.6h-43.2v-21.6h-21.6V1805h-21.6V1675.4z"
		/>
	<path class="st27" d="M-3596,1699.1h21.6v-21.6h108v43.2h-86.4v21.6h64.8v21.6h21.6v64.8h-21.6v21.6h-108v-43.2h86.4v-21.6h-64.8
		v-21.6h-21.6V1699.1z"/>
</g>
<g>
	<path class="st28" d="M-3747.2,1654.4h43.2v108h43.2v-108h43.2V1784h-21.6v21.6h-21.6v21.6h-43.2v-21.6h-21.6V1784h-21.6V1654.4z"
		/>
	<path class="st29" d="M-3596,1676h21.6v-21.6h108v43.2h-86.4v21.6h64.8v21.6h21.6v64.8h-21.6v21.6h-108V1784h86.4v-21.6h-64.8
		v-21.6h-21.6V1676z"/>
</g>
<g>
	<g>
		<path class="st0" d="M-3697.9,2033h27.5v68.7h27.5V2033h27.5v82.4h-13.7v13.7h-13.7v13.7h-27.5v-13.7h-13.7v-13.7h-13.7V2033z"/>
		<path class="st0" d="M-3601.7,2048h13.7v-13.7h68.7v27.5h-54.9v13.7h41.2v13.7h13.7v41.2h-13.7v13.7h-68.7v-27.5h54.9V2103h-41.2
			v-13.7h-13.7V2048z"/>
	</g>
	<g>
		<path class="st7" d="M-3697.9,2018.5h27.5v68.7h27.5v-68.7h27.5v82.4h-13.7v13.7h-13.7v13.7h-27.5v-13.7h-13.7v-13.7h-13.7V2018.5
			z"/>
		<path class="st7" d="M-3601.7,2033.5h13.7v-13.7h68.7v27.5h-54.9v13.7h41.2v13.7h13.7v41.2h-13.7v13.7h-68.7v-27.5h54.9v-13.7
			h-41.2v-13.7h-13.7V2033.5z"/>
	</g>
	<g>
		<path class="st4" d="M-3697.9,2005.1h27.5v68.7h27.5v-68.7h27.5v82.4h-13.7v13.7h-13.7v13.7h-27.5v-13.7h-13.7v-13.7h-13.7V2005.1
			z"/>
		<path class="st4" d="M-3601.7,2018.8h13.7v-13.7h68.7v27.5h-54.9v13.7h41.2v13.7h13.7v41.2h-13.7v13.7h-68.7v-27.5h54.9v-13.7
			h-41.2V2060h-13.7V2018.8z"/>
	</g>
</g>
<g>
	<g>
		<path class="st0" d="M-3123.4,1173.3h-21.6v-86.4h54v10.8h10.8v32.4h-10.8v10.8h-32.4V1173.3z M-3123.4,1119.3h21.6v-10.8h-21.6
			V1119.3z"/>
		<path class="st0" d="M-3069.4,1097.7h10.8v-10.8h43.2v10.8h10.8v64.8h-10.8v10.8h-43.2v-10.8h-10.8V1097.7z M-3047.8,1151.7h21.6
			v-43.2h-21.6V1151.7z"/>
		<path class="st0" d="M-2983,1162.5h-10.8v-75.6h21.6v64.8h43.2v21.6h-54V1162.5z"/>
		<path class="st0" d="M-2939.8,1086.9h21.6v32.4h21.6v-32.4h21.6v43.2h-10.8v10.8h-10.8v32.4h-21.6v-32.4h-10.8v-10.8h-10.8V1086.9
			z"/>
	</g>
	<g>
		<path class="st30" d="M-3123.4,1164.9h-21.6v-86.4h54v10.8h10.8v32.4h-10.8v10.8h-32.4V1164.9z M-3123.4,1110.9h21.6v-10.8h-21.6
			V1110.9z"/>
		<path class="st30" d="M-3069.4,1089.3h10.8v-10.8h43.2v10.8h10.8v64.8h-10.8v10.8h-43.2v-10.8h-10.8V1089.3z M-3047.8,1143.3h21.6
			v-43.2h-21.6V1143.3z"/>
		<path class="st30" d="M-2983,1154.1h-10.8v-75.6h21.6v64.8h43.2v21.6h-54V1154.1z"/>
		<path class="st30" d="M-2939.8,1078.5h21.6v32.4h21.6v-32.4h21.6v43.2h-10.8v10.8h-10.8v32.4h-21.6v-32.4h-10.8v-10.8h-10.8
			V1078.5z"/>
	</g>
	<g>
		<path class="st4" d="M-3123.4,1156.7h-21.6v-86.4h54v10.8h10.8v32.4h-10.8v10.8h-32.4V1156.7z M-3123.4,1102.7h21.6v-10.8h-21.6
			V1102.7z"/>
		<path class="st4" d="M-3069.4,1081.1h10.8v-10.8h43.2v10.8h10.8v64.8h-10.8v10.8h-43.2v-10.8h-10.8V1081.1z M-3047.8,1135.1h21.6
			v-43.2h-21.6V1135.1z"/>
		<path class="st4" d="M-2983,1145.9h-10.8v-75.6h21.6v64.8h43.2v21.6h-54V1145.9z"/>
		<path class="st4" d="M-2939.8,1070.3h21.6v32.4h21.6v-32.4h21.6v43.2h-10.8v10.8h-10.8v32.4h-21.6v-32.4h-10.8v-10.8h-10.8V1070.3
			z"/>
	</g>
</g>
<image style="overflow:visible;" width="843" height="1118" xlink:href="4007500903D9FF28.jpg"  transform="matrix(0.24 0 0 0.24 -3354.5342 1220.4884)">
</image>
<g>
	<g class="st1">
		<g>
			<polygon class="st0" points="-2796.6,856.8 -2796.6,943.3 -2695.4,943.3 -2695.4,931.7 -2708,931.7 -2708,919 -2720.7,919 
				-2720.7,906.4 -2733.3,906.4 -2733.3,893.7 -2720.7,893.7 -2720.7,881.1 -2708,881.1 -2708,868.4 -2695.4,868.4 -2695.4,856.8 
							"/>
		</g>
		<polygon class="st0" points="-2781.8,918 -2796.6,942.2 -2796.6,918 		"/>
	</g>
	<rect x="-3284.8" y="833.9" class="st0" width="510.3" height="86.5"/>
	<rect x="-2808.2" y="911.9" class="st0" width="112.8" height="31.6"/>
	<g class="st1">
		<g>
			<polygon class="st0" points="-3276.9,857 -3276.9,943.4 -3378.1,943.4 -3378.1,931.8 -3365.5,931.8 -3365.5,919.2 -3352.8,919.2 
				-3352.8,906.5 -3340.2,906.5 -3340.2,893.9 -3352.8,893.9 -3352.8,881.2 -3365.5,881.2 -3365.5,868.6 -3378.1,868.6 -3378.1,857 
							"/>
		</g>
		<polygon class="st0" points="-3291.7,918.1 -3276.9,942.4 -3277,918.1 		"/>
	</g>
	<g>
		<g>
			<polygon class="st2" points="-2796.6,846.6 -2796.6,933 -2695.4,933 -2695.4,921.4 -2708,921.4 -2708,908.8 -2720.7,908.8 
				-2720.7,896.1 -2733.3,896.1 -2733.3,883.5 -2720.7,883.5 -2720.7,870.8 -2708,870.8 -2708,858.1 -2695.4,858.1 -2695.4,846.6 
							"/>
			<polygon class="st3" points="-2796.6,835 -2796.6,921.4 -2695.4,921.4 -2695.4,909.8 -2708,909.8 -2708,897.2 -2720.7,897.2 
				-2720.7,884.5 -2733.3,884.5 -2733.3,871.9 -2720.7,871.9 -2720.7,859.2 -2708,859.2 -2708,846.6 -2695.4,846.6 -2695.4,835 			
				"/>
		</g>
		<polygon class="st2" points="-2781.8,907.7 -2796.6,932 -2796.6,907.7 		"/>
		<g>
			<g>
				<polygon class="st2" points="-3277.4,846.6 -3277.4,933 -3378.6,933 -3378.6,921.4 -3366,921.4 -3366,908.8 -3353.3,908.8 
					-3353.3,896.1 -3340.7,896.1 -3340.7,883.5 -3353.3,883.5 -3353.3,870.8 -3366,870.8 -3366,858.1 -3378.6,858.1 -3378.6,846.6 
									"/>
				<polygon class="st3" points="-3277.4,835 -3277.4,921.4 -3378.6,921.4 -3378.6,909.8 -3366,909.8 -3366,897.2 -3353.3,897.2 
					-3353.3,884.5 -3340.7,884.5 -3340.7,871.9 -3353.3,871.9 -3353.3,859.2 -3366,859.2 -3366,846.6 -3378.6,846.6 -3378.6,835 
									"/>
			</g>
			<polygon class="st2" points="-3292.2,907.7 -3277.4,932 -3277.5,907.7 			"/>
		</g>
		<g>
			<rect x="-3292.2" y="821.2" class="st2" width="510.3" height="86.5"/>
			<rect x="-3292.2" y="808.6" class="st3" width="510.3" height="86.5"/>
		</g>
	</g>
</g>
<g>
	<g>
		<path class="st25" d="M-3178,883.6h-37.4v-59.9h37.4v7.5h7.5v15h-7.5v15h7.5v15h-7.5V883.6z M-3200.5,846.1h15v-7.5h-15V846.1z
			 M-3200.5,868.6h15v-7.5h-15V868.6z"/>
		<path class="st25" d="M-3148.1,883.6h-15v-52.4h7.5v-7.5h30v7.5h7.5v52.4h-15v-22.5h-15V883.6z M-3133.1,846.1v-7.5h-15v7.5
			H-3133.1z"/>
		<path class="st25" d="M-3103.1,876.1h-7.5v-52.4h15v44.9h30v15h-37.4V876.1z"/>
		<path class="st25" d="M-3050.7,876.1h-7.5v-52.4h15v44.9h30v15h-37.4V876.1z"/>
		<path class="st25" d="M-3005.8,831.1h7.5v-7.5h30v7.5h7.5v44.9h-7.5v7.5h-30v-7.5h-7.5V831.1z M-2990.8,868.6h15v-30h-15V868.6z"
			/>
		<path class="st25" d="M-2953.4,831.1h7.5v-7.5h30v7.5h7.5v44.9h-7.5v7.5h-30v-7.5h-7.5V831.1z M-2938.4,868.6h15v-30h-15V868.6z"
			/>
		<path class="st25" d="M-2878.5,853.6h-7.5v30h-15v-59.9h15v7.5h7.5v7.5h7.5v-15h15v59.9h-15v-22.5h-7.5V853.6z"/>
	</g>
	<g>
		<path class="st22" d="M-3178,877.7h-37.4v-59.9h37.4v7.5h7.5v15h-7.5v15h7.5v15h-7.5V877.7z M-3200.5,840.3h15v-7.5h-15V840.3z
			 M-3200.5,862.8h15v-7.5h-15V862.8z"/>
		<path class="st22" d="M-3148.1,877.7h-15v-52.4h7.5v-7.5h30v7.5h7.5v52.4h-15v-22.5h-15V877.7z M-3133.1,840.3v-7.5h-15v7.5
			H-3133.1z"/>
		<path class="st22" d="M-3103.1,870.2h-7.5v-52.4h15v44.9h30v15h-37.4V870.2z"/>
		<path class="st22" d="M-3050.7,870.2h-7.5v-52.4h15v44.9h30v15h-37.4V870.2z"/>
		<path class="st22" d="M-3005.8,825.3h7.5v-7.5h30v7.5h7.5v44.9h-7.5v7.5h-30v-7.5h-7.5V825.3z M-2990.8,862.8h15v-30h-15V862.8z"
			/>
		<path class="st22" d="M-2953.4,825.3h7.5v-7.5h30v7.5h7.5v44.9h-7.5v7.5h-30v-7.5h-7.5V825.3z M-2938.4,862.8h15v-30h-15V862.8z"
			/>
		<path class="st22" d="M-2878.5,847.8h-7.5v30h-15v-59.9h15v7.5h7.5v7.5h7.5v-15h15v59.9h-15v-22.5h-7.5V847.8z"/>
	</g>
</g>
<g>
	<path class="st0" d="M-2686.4,1030.3h20.7v6.9h-20.7V1030.3z"/>
	<path class="st0" d="M-2631.1,1047.6h-6.9v-27.6h17.3v3.5h3.5v10.4h-3.5v3.5h-10.4V1047.6z M-2631.1,1030.3h6.9v-3.5h-6.9V1030.3z"
		/>
	<path class="st0" d="M-2603.5,1037.2h-3.5v10.4h-6.9v-27.6h17.3v3.5h3.5v10.4h-3.5v3.5h3.5v10.4h-6.9v-6.9h-3.5V1037.2z
		 M-2606.9,1030.3h6.9v-3.5h-6.9V1030.3z"/>
	<path class="st0" d="M-2586.2,1044.1h-3.5v-20.7h3.5v-3.5h17.3v6.9h-13.8v3.5h6.9v6.9h-6.9v3.5h13.8v6.9h-17.3V1044.1z"/>
	<path class="st0" d="M-2565.4,1023.4h3.5v-3.5h17.3v6.9h-13.8v3.5h10.4v3.5h3.5v10.4h-3.5v3.5h-17.3v-6.9h13.8v-3.5h-10.4v-3.5
		h-3.5V1023.4z"/>
	<path class="st0" d="M-2541.3,1023.4h3.5v-3.5h17.3v6.9h-13.8v3.5h10.4v3.5h3.5v10.4h-3.5v3.5h-17.3v-6.9h13.8v-3.5h-10.4v-3.5
		h-3.5V1023.4z"/>
	<path class="st0" d="M-2486,1047.6h-6.9v-24.2h3.5v-3.5h13.8v3.5h3.5v24.2h-6.9v-10.4h-6.9V1047.6z M-2479,1030.3v-3.5h-6.9v3.5
		H-2479z"/>
	<path class="st0" d="M-2458.3,1033.7h-3.5v13.8h-6.9v-27.6h6.9v3.5h3.5v3.5h3.5v-6.9h6.9v27.6h-6.9v-10.4h-3.5V1033.7z"/>
	<path class="st0" d="M-2444.5,1019.9h6.9v10.4h6.9v-10.4h6.9v13.8h-3.5v3.5h-3.5v10.4h-6.9v-10.4h-3.5v-3.5h-3.5V1019.9z"/>
	<path class="st0" d="M-2389.2,1047.6h-6.9v-27.6h6.9v6.9h3.5v-3.5h3.5v-3.5h6.9v6.9h-3.5v3.5h-3.5v6.9h3.5v3.5h3.5v6.9h-6.9v-3.5
		h-3.5v-3.5h-3.5V1047.6z"/>
	<path class="st0" d="M-2368.5,1044.1h-3.5v-20.7h3.5v-3.5h17.3v6.9h-13.8v3.5h6.9v6.9h-6.9v3.5h13.8v6.9h-17.3V1044.1z"/>
	<path class="st0" d="M-2347.7,1019.9h6.9v10.4h6.9v-10.4h6.9v13.8h-3.5v3.5h-3.5v10.4h-6.9v-10.4h-3.5v-3.5h-3.5V1019.9z"/>
	<path class="st0" d="M-2299.3,1019.9h20.7v6.9h-6.9v20.7h-6.9v-20.7h-6.9V1019.9z"/>
	<path class="st0" d="M-2275.1,1023.4h3.5v-3.5h13.8v3.5h3.5v20.7h-3.5v3.5h-13.8v-3.5h-3.5V1023.4z M-2268.2,1040.6h6.9v-13.8h-6.9
		V1040.6z"/>
	<path class="st0" d="M-2219.9,1047.6h-6.9v-27.6h17.3v3.5h3.5v10.4h-3.5v3.5h-10.4V1047.6z M-2219.9,1030.3h6.9v-3.5h-6.9V1030.3z"
		/>
	<path class="st0" d="M-2199.1,1044.1h-3.5v-24.2h6.9v20.7h13.8v6.9h-17.3V1044.1z"/>
	<path class="st0" d="M-2171.5,1047.6h-6.9v-24.2h3.5v-3.5h13.8v3.5h3.5v24.2h-6.9v-10.4h-6.9V1047.6z M-2164.6,1030.3v-3.5h-6.9
		v3.5H-2164.6z"/>
	<path class="st0" d="M-2154.2,1019.9h6.9v10.4h6.9v-10.4h6.9v13.8h-3.5v3.5h-3.5v10.4h-6.9v-10.4h-3.5v-3.5h-3.5V1019.9z"/>
	<path class="st0" d="M-2105.8,1030.3h20.7v6.9h-20.7V1030.3z"/>
</g>
<g>
	<path class="st30" d="M-2687.3,1024.4h20.7v6.9h-20.7V1024.4z"/>
	<path class="st30" d="M-2632,1041.7h-6.9V1014h17.3v3.5h3.5v10.4h-3.5v3.5h-10.4V1041.7z M-2632,1024.4h6.9v-3.5h-6.9V1024.4z"/>
	<path class="st30" d="M-2604.3,1031.3h-3.5v10.4h-6.9V1014h17.3v3.5h3.5v10.4h-3.5v3.5h3.5v10.4h-6.9v-6.9h-3.5V1031.3z
		 M-2607.8,1024.4h6.9v-3.5h-6.9V1024.4z"/>
	<path class="st30" d="M-2587,1038.2h-3.5v-20.7h3.5v-3.5h17.3v6.9h-13.8v3.5h6.9v6.9h-6.9v3.5h13.8v6.9h-17.3V1038.2z"/>
	<path class="st30" d="M-2566.3,1017.5h3.5v-3.5h17.3v6.9h-13.8v3.5h10.4v3.5h3.5v10.4h-3.5v3.5h-17.3v-6.9h13.8v-3.5h-10.4v-3.5
		h-3.5V1017.5z"/>
	<path class="st30" d="M-2542.1,1017.5h3.5v-3.5h17.3v6.9h-13.8v3.5h10.4v3.5h3.5v10.4h-3.5v3.5h-17.3v-6.9h13.8v-3.5h-10.4v-3.5
		h-3.5V1017.5z"/>
	<path class="st30" d="M-2486.8,1041.7h-6.9v-24.2h3.5v-3.5h13.8v3.5h3.5v24.2h-6.9v-10.4h-6.9V1041.7z M-2479.9,1024.4v-3.5h-6.9
		v3.5H-2479.9z"/>
	<path class="st30" d="M-2459.2,1027.8h-3.5v13.8h-6.9V1014h6.9v3.5h3.5v3.5h3.5v-6.9h6.9v27.6h-6.9v-10.4h-3.5V1027.8z"/>
	<path class="st30" d="M-2445.4,1014h6.9v10.4h6.9V1014h6.9v13.8h-3.5v3.5h-3.5v10.4h-6.9v-10.4h-3.5v-3.5h-3.5V1014z"/>
	<path class="st30" d="M-2390.1,1041.7h-6.9V1014h6.9v6.9h3.5v-3.5h3.5v-3.5h6.9v6.9h-3.5v3.5h-3.5v6.9h3.5v3.5h3.5v6.9h-6.9v-3.5
		h-3.5v-3.5h-3.5V1041.7z"/>
	<path class="st30" d="M-2369.3,1038.2h-3.5v-20.7h3.5v-3.5h17.3v6.9h-13.8v3.5h6.9v6.9h-6.9v3.5h13.8v6.9h-17.3V1038.2z"/>
	<path class="st30" d="M-2348.6,1014h6.9v10.4h6.9V1014h6.9v13.8h-3.5v3.5h-3.5v10.4h-6.9v-10.4h-3.5v-3.5h-3.5V1014z"/>
	<path class="st30" d="M-2300.2,1014h20.7v6.9h-6.9v20.7h-6.9v-20.7h-6.9V1014z"/>
	<path class="st30" d="M-2276,1017.5h3.5v-3.5h13.8v3.5h3.5v20.7h-3.5v3.5h-13.8v-3.5h-3.5V1017.5z M-2269.1,1034.8h6.9v-13.8h-6.9
		V1034.8z"/>
	<path class="st30" d="M-2220.7,1041.7h-6.9V1014h17.3v3.5h3.5v10.4h-3.5v3.5h-10.4V1041.7z M-2220.7,1024.4h6.9v-3.5h-6.9V1024.4z"
		/>
	<path class="st30" d="M-2200,1038.2h-3.5V1014h6.9v20.7h13.8v6.9h-17.3V1038.2z"/>
	<path class="st30" d="M-2172.3,1041.7h-6.9v-24.2h3.5v-3.5h13.8v3.5h3.5v24.2h-6.9v-10.4h-6.9V1041.7z M-2165.4,1024.4v-3.5h-6.9
		v3.5H-2165.4z"/>
	<path class="st30" d="M-2155.1,1014h6.9v10.4h6.9V1014h6.9v13.8h-3.5v3.5h-3.5v10.4h-6.9v-10.4h-3.5v-3.5h-3.5V1014z"/>
	<path class="st30" d="M-2106.7,1024.4h20.7v6.9h-20.7V1024.4z"/>
</g>
<g>
	<path class="st4" d="M-2687.3,1020h20.7v6.9h-20.7V1020z"/>
	<path class="st4" d="M-2632,1037.2h-6.9v-27.6h17.3v3.5h3.5v10.4h-3.5v3.5h-10.4V1037.2z M-2632,1020h6.9v-3.5h-6.9V1020z"/>
	<path class="st4" d="M-2604.3,1026.9h-3.5v10.4h-6.9v-27.6h17.3v3.5h3.5v10.4h-3.5v3.5h3.5v10.4h-6.9v-6.9h-3.5V1026.9z
		 M-2607.8,1020h6.9v-3.5h-6.9V1020z"/>
	<path class="st4" d="M-2587,1033.8h-3.5v-20.7h3.5v-3.5h17.3v6.9h-13.8v3.5h6.9v6.9h-6.9v3.5h13.8v6.9h-17.3V1033.8z"/>
	<path class="st4" d="M-2566.3,1013.1h3.5v-3.5h17.3v6.9h-13.8v3.5h10.4v3.5h3.5v10.4h-3.5v3.5h-17.3v-6.9h13.8v-3.5h-10.4v-3.5
		h-3.5V1013.1z"/>
	<path class="st4" d="M-2542.1,1013.1h3.5v-3.5h17.3v6.9h-13.8v3.5h10.4v3.5h3.5v10.4h-3.5v3.5h-17.3v-6.9h13.8v-3.5h-10.4v-3.5
		h-3.5V1013.1z"/>
	<path class="st4" d="M-2486.8,1037.2h-6.9v-24.2h3.5v-3.5h13.8v3.5h3.5v24.2h-6.9v-10.4h-6.9V1037.2z M-2479.9,1020v-3.5h-6.9v3.5
		H-2479.9z"/>
	<path class="st4" d="M-2459.2,1023.4h-3.5v13.8h-6.9v-27.6h6.9v3.5h3.5v3.5h3.5v-6.9h6.9v27.6h-6.9v-10.4h-3.5V1023.4z"/>
	<path class="st4" d="M-2445.4,1009.6h6.9v10.4h6.9v-10.4h6.9v13.8h-3.5v3.5h-3.5v10.4h-6.9v-10.4h-3.5v-3.5h-3.5V1009.6z"/>
	<path class="st4" d="M-2390.1,1037.2h-6.9v-27.6h6.9v6.9h3.5v-3.5h3.5v-3.5h6.9v6.9h-3.5v3.5h-3.5v6.9h3.5v3.5h3.5v6.9h-6.9v-3.5
		h-3.5v-3.5h-3.5V1037.2z"/>
	<path class="st4" d="M-2369.3,1033.8h-3.5v-20.7h3.5v-3.5h17.3v6.9h-13.8v3.5h6.9v6.9h-6.9v3.5h13.8v6.9h-17.3V1033.8z"/>
	<path class="st4" d="M-2348.6,1009.6h6.9v10.4h6.9v-10.4h6.9v13.8h-3.5v3.5h-3.5v10.4h-6.9v-10.4h-3.5v-3.5h-3.5V1009.6z"/>
	<path class="st4" d="M-2300.2,1009.6h20.7v6.9h-6.9v20.7h-6.9v-20.7h-6.9V1009.6z"/>
	<path class="st4" d="M-2276,1013.1h3.5v-3.5h13.8v3.5h3.5v20.7h-3.5v3.5h-13.8v-3.5h-3.5V1013.1z M-2269.1,1030.3h6.9v-13.8h-6.9
		V1030.3z"/>
	<path class="st4" d="M-2220.7,1037.2h-6.9v-27.6h17.3v3.5h3.5v10.4h-3.5v3.5h-10.4V1037.2z M-2220.7,1020h6.9v-3.5h-6.9V1020z"/>
	<path class="st4" d="M-2200,1033.8h-3.5v-24.2h6.9v20.7h13.8v6.9h-17.3V1033.8z"/>
	<path class="st4" d="M-2172.3,1037.2h-6.9v-24.2h3.5v-3.5h13.8v3.5h3.5v24.2h-6.9v-10.4h-6.9V1037.2z M-2165.4,1020v-3.5h-6.9v3.5
		H-2165.4z"/>
	<path class="st4" d="M-2155.1,1009.6h6.9v10.4h6.9v-10.4h6.9v13.8h-3.5v3.5h-3.5v10.4h-6.9v-10.4h-3.5v-3.5h-3.5V1009.6z"/>
	<path class="st4" d="M-2106.7,1020h20.7v6.9h-20.7V1020z"/>
</g>
<path class="st31" d="M63.5,309.1h-2.2H50.6H11.9H-1h-1526.6h-12.9h-38.7h-12.9h-12.9v22.6v840.8v11.3v33.9v11.3v11.3h25.8H-1h12.9
	h38.7h10.8h2.2h12.9V309.1H63.5z M9.9,1215.7h-1552.4h-12.9v-11.3h-12.9v-11.3h-12.9v-11.3V363.6v-11.3h12.9V341h12.9v-11.3h12.9
	H9.9h12.9V341h12.9v11.3h12.9v11.3v818.2v11.3H35.7v11.3H22.8v11.3H9.9z"/>
<path class="st32" d="M74.5,317.9h-2.2H61.6H22.9H10h-1526.6h-12.9h-38.7h-12.9h-12.9v22.6v840.8v11.3v33.9v11.3v11.3h25.8H10h12.9
	h38.7h10.8h2.2h12.9V317.9H74.5z M61.6,374.4v818.2v11.3H48.7v11.3H35.8v11.3H22.9h-1552.4h-12.9v-11.3h-12.9v-11.3h-12.9v-11.3
	V374.4v-11.3h12.9v-11.3h12.9v-11.3h12.9h204.3h135.5H22.9h12.9v11.3h12.9v11.3h12.9V374.4z"/>
<polygon class="st31" points="-1147,-36.8 -1147,-46.8 -1158.3,-46.8 -1569,-46.8 -1569,49.2 -1159.1,49.2 -1159.1,39.2 
	-1158.3,39.2 -1147,39.2 -1147,31.2 -1147,29.1 -1135.6,29.1 -1135.6,21.1 -1135.6,-36.8 "/>
<polygon class="st32" points="-1147.5,-46.8 -1147.5,-56.8 -1158.9,-56.8 -1581.6,-56.8 -1581.6,-48.8 -1581.6,-46.8 -1593,-46.8 
	-1593,11.1 -1581.7,11.1 -1581.7,19.1 -1581.6,19.1 -1581.6,29.2 -1569.5,29.2 -1569.5,39.2 -1159.7,39.2 -1159.7,29.2 
	-1158.9,29.2 -1147.5,29.2 -1147.5,21.2 -1147.5,19.1 -1136.2,19.1 -1136.2,11.1 -1136.2,-46.8 "/>
<rect x="-1654.9" y="168" class="st13" width="92.2" height="32.8"/>
<text transform="matrix(1 0 0 1 -1633.7606 186.1196)" class="st4" style="font-family:'EditUndoBRK'; font-size:31.5429px;">DMG</text>
<g>
	<g>
		<polygon class="st22" points="-1455.1,202.3 -1200.4,202.3 -1200.4,184.3 -1455.1,184.3 -1455.1,184.4 -1455.1,189.5 -1462,189.5 
			-1462,197.2 -1455.1,197.2 -1455.1,202.3 		"/>
	</g>
	<polygon class="st22" points="-1191.8,189.5 -1191.8,184.4 -1191.8,184.3 -1247.4,184.3 -1247.4,202.3 -1191.8,202.3 
		-1191.8,202.2 -1191.8,197.1 -1184.8,197.1 -1184.8,189.5 	"/>
</g>
<g class="st33">
	<polygon class="st34" points="-811.5,415.5 -811.5,337.5 -901.4,337.5 -901.4,347.5 -911.5,347.5 -911.5,405.4 -901.4,405.4 
		-901.4,415.5 	"/>
	<polygon class="st34" points="-576.5,346.5 -576.5,336.5 -586.5,336.5 -668.5,336.5 -668.5,414.5 -586.5,414.5 -576.5,414.5 
		-576.5,404.4 -566.4,404.4 -566.4,346.5 	"/>
	<rect x="-891.5" y="346.5" class="st34" width="305" height="78"/>
</g>
<g>
	<polygon class="st32" points="-801.5,415.5 -801.5,337.5 -891.4,337.5 -891.4,347.5 -901.5,347.5 -901.5,405.4 -891.4,405.4 
		-891.4,415.5 	"/>
	<polygon class="st32" points="-811.5,405.5 -811.5,327.5 -901.4,327.5 -901.4,337.5 -911.5,337.5 -911.5,395.4 -901.4,395.4 
		-901.4,405.5 	"/>
	<polygon class="st32" points="-586.5,347.5 -586.5,337.5 -596.5,337.5 -678.5,337.5 -678.5,415.5 -596.5,415.5 -586.5,415.5 
		-586.5,405.4 -576.4,405.4 -576.4,347.5 	"/>
	<polygon class="st32" points="-576.5,337.5 -576.5,327.5 -586.5,327.5 -668.5,327.5 -668.5,405.5 -586.5,405.5 -576.5,405.5 
		-576.5,395.4 -566.4,395.4 -566.4,337.5 	"/>
	<rect x="-801.5" y="337.5" class="st32" width="123" height="78"/>
</g>
<g>
	<polygon class="st35" points="-801.5,405.5 -801.5,327.5 -891.4,327.5 -891.4,337.5 -901.5,337.5 -901.5,395.4 -891.4,395.4 
		-891.4,405.5 	"/>
	<polygon class="st35" points="-586.5,337.5 -586.5,327.5 -596.5,327.5 -664.5,327.5 -664.5,405.5 -596.5,405.5 -586.5,405.5 
		-586.5,395.4 -576.4,395.4 -576.4,337.5 	"/>
</g>
<g class="st33">
	<polygon class="st34" points="-811.5,151.9 -811.5,73.9 -901.4,73.9 -901.4,83.9 -911.5,83.9 -911.5,141.8 -901.4,141.8 
		-901.4,151.9 	"/>
	<polygon class="st34" points="-576.5,82.9 -576.5,72.9 -586.5,72.9 -668.5,72.9 -668.5,150.9 -586.5,150.9 -576.5,150.9 
		-576.5,140.8 -566.4,140.8 -566.4,82.9 	"/>
	<rect x="-891.5" y="82.9" class="st34" width="305" height="78"/>
</g>
<g>
	<polygon class="st32" points="-801.5,151.9 -801.5,73.9 -891.4,73.9 -891.4,83.9 -901.5,83.9 -901.5,141.8 -891.4,141.8 
		-891.4,151.9 	"/>
	<polygon class="st32" points="-811.5,141.9 -811.5,63.9 -901.4,63.9 -901.4,73.9 -911.5,73.9 -911.5,131.8 -901.4,131.8 
		-901.4,141.9 	"/>
	<polygon class="st32" points="-586.5,83.9 -586.5,73.9 -596.5,73.9 -678.5,73.9 -678.5,151.9 -596.5,151.9 -586.5,151.9 
		-586.5,141.8 -576.4,141.8 -576.4,83.9 	"/>
	<polygon class="st32" points="-576.5,73.9 -576.5,63.9 -586.5,63.9 -668.5,63.9 -668.5,141.9 -586.5,141.9 -576.5,141.9 
		-576.5,131.8 -566.4,131.8 -566.4,73.9 	"/>
	<rect x="-801.5" y="73.9" class="st32" width="123" height="78"/>
</g>
<g>
	<polygon class="st35" points="-801.5,141.9 -801.5,63.9 -891.4,63.9 -891.4,73.9 -901.5,73.9 -901.5,131.8 -891.4,131.8 
		-891.4,141.9 	"/>
	<polygon class="st35" points="-586.5,73.9 -586.5,63.9 -596.5,63.9 -664.5,63.9 -664.5,141.9 -596.5,141.9 -586.5,141.9 
		-586.5,131.8 -576.4,131.8 -576.4,73.9 	"/>
</g>
<rect x="-816.5" y="327.5" class="st35" width="169" height="78"/>
<rect x="-816.5" y="63.9" class="st35" width="169" height="78"/>
<g>
	<rect x="-821.5" y="359.7" class="st13" width="179" height="81.8"/>
	<text transform="matrix(1 0 0 1 -799.4039 387.3427)" class="st4" style="font-family:'EditUndoBRK'; font-size:48px;">124 KM</text>
</g>
<g>
	<rect x="64.1" y="337.5" class="st31" width="8" height="2"/>
	<polygon class="st31" points="-16.9,337.5 -16.9,347.5 -26.9,347.5 -26.9,405.4 -17,405.4 -17,415.4 -16.9,415.4 -16.9,415.5 
		-7,415.5 -7,425.5 48.1,425.5 48.1,337.5 	"/>
</g>
<polygon class="st32" points="73.1,337.5 73.1,327.5 -16.8,327.5 -16.8,337.5 -26.9,337.5 -26.9,395.4 -16.9,395.4 -16.9,405.4 
	-16.8,405.4 -16.8,405.5 -6.8,405.5 -6.8,415.5 83.1,415.5 83.1,337.5 "/>
<g>
	<g>
		<g>
			<polygon class="st2" points="43.2,349 37.8,349 5.3,349 5.3,354.3 0,354.3 0,392.1 5.3,392.1 5.3,397.5 37.8,397.5 43.2,397.5 
				43.2,392.1 48.5,392.1 48.5,354.3 43.2,354.3 			"/>
			<polygon class="st3" points="43.4,343.2 38.1,343.2 5.4,343.2 5.4,348.6 0,348.6 0,386.7 5.4,386.7 5.4,392 38.1,392 43.4,392 
				43.4,386.7 48.8,386.7 48.8,348.6 43.4,348.6 			"/>
		</g>
		<g>
			<rect x="12.9" y="372.3" class="st4" width="24.2" height="4.8"/>
			<rect x="12.9" y="361.2" class="st4" width="24.2" height="4.8"/>
		</g>
	</g>
	<g class="st33">
		<polygon class="st36" points="5.4,397.6 5.4,402.6 10.7,402.6 43.4,402.6 43.4,397.6 10.7,397.6 		"/>
		<rect y="392.2" class="st36" width="5.4" height="5"/>
		<rect x="43.4" y="392.2" class="st36" width="5.4" height="5"/>
	</g>
</g>
<g>
	<rect x="64.1" y="113.8" class="st31" width="8" height="2"/>
	<polygon class="st31" points="-16.9,113.8 -16.9,123.9 -26.9,123.9 -26.9,181.7 -17,181.7 -17,191.7 -16.9,191.7 -16.9,191.8 
		-7,191.8 -7,201.8 48.1,201.8 48.1,113.8 	"/>
</g>
<polygon class="st32" points="73.1,113.8 73.1,103.8 -16.8,103.8 -16.8,113.9 -26.9,113.9 -26.9,171.7 -16.9,171.7 -16.9,181.7 
	-16.8,181.7 -16.8,181.8 -6.8,181.8 -6.8,191.8 83.1,191.8 83.1,113.8 "/>
<g>
	<g>
		<g>
			<polygon class="st2" points="43.2,5.7 37.8,5.7 5.3,5.7 5.3,11.1 0,11.1 0,48.9 5.3,48.9 5.3,54.2 37.8,54.2 43.2,54.2 
				43.2,48.9 48.5,48.9 48.5,11.1 43.2,11.1 			"/>
			<polygon class="st3" points="43.4,0 38.1,0 5.4,0 5.4,5.4 0,5.4 0,43.4 5.4,43.4 5.4,48.8 38.1,48.8 43.4,48.8 43.4,43.4 
				48.8,43.4 48.8,5.4 43.4,5.4 			"/>
		</g>
		<g>
			<rect x="12.9" y="29.1" class="st4" width="24.2" height="4.8"/>
			<rect x="12.9" y="17.9" class="st4" width="24.2" height="4.8"/>
		</g>
	</g>
	<g class="st33">
		<polygon class="st36" points="5.4,54.4 5.4,59.4 10.7,59.4 43.4,59.4 43.4,54.4 10.7,54.4 		"/>
		<rect y="49" class="st36" width="5.4" height="5"/>
		<rect x="43.4" y="49" class="st36" width="5.4" height="5"/>
	</g>
</g>
<polygon class="st22" points="-1411,86.2 -1411,81 -1424.5,81 -1425,81 -1438,81 -1438.5,81 -1451.5,81 -1452,81 -1465.5,81 
	-1465.5,86.2 -1472.1,86.2 -1472.1,93.9 -1465.5,93.9 -1465.5,99.1 -1465.1,99.1 -1459.2,99.1 -1458.1,99.1 -1452.2,99.1 
	-1452,99.1 -1451.6,99.1 -1451.5,99.1 -1445.8,99.1 -1444.6,99.1 -1438.7,99.1 -1438.5,99.1 -1438.2,99.1 -1438,99.1 -1432.3,99.1 
	-1431.1,99.1 -1425.2,99.1 -1425,99.1 -1424.7,99.1 -1424.5,99.1 -1418.8,99.1 -1417.6,99.1 -1411.8,99.1 -1411,99.1 -1411,93.9 
	-1404.7,93.9 -1404.7,86.2 "/>
<polygon class="st37" points="-1189,-150.6 -1189,-155.9 -1202.4,-155.9 -1203,-155.9 -1215.9,-155.9 -1216.4,-155.9 
	-1229.4,-155.9 -1229.9,-155.9 -1242.6,-155.9 -1243.4,-155.9 -1256,-155.9 -1256.6,-155.9 -1269.5,-155.9 -1270,-155.9 
	-1283,-155.9 -1283.5,-155.9 -1296.5,-155.9 -1297,-155.9 -1310,-155.9 -1310.5,-155.9 -1323.4,-155.9 -1324,-155.9 -1336.9,-155.9 
	-1337.4,-155.9 -1350.4,-155.9 -1350.9,-155.9 -1363.9,-155.9 -1364.4,-155.9 -1377.3,-155.9 -1377.9,-155.9 -1390.8,-155.9 
	-1391.3,-155.9 -1404.3,-155.9 -1404.8,-155.9 -1417.8,-155.9 -1418.3,-155.9 -1431.3,-155.9 -1431.8,-155.9 -1444.7,-155.9 
	-1445.3,-155.9 -1458.7,-155.9 -1458.7,-150.7 -1465.4,-150.7 -1465.4,-143 -1458.7,-143 -1458.7,-137.8 -1458.4,-137.8 
	-1452.5,-137.8 -1451.4,-137.8 -1445.5,-137.8 -1445.3,-137.8 -1444.9,-137.8 -1444.7,-137.8 -1439,-137.8 -1437.9,-137.8 
	-1432,-137.8 -1431.8,-137.8 -1431.4,-137.8 -1431.3,-137.8 -1425.6,-137.8 -1424.4,-137.8 -1418.5,-137.8 -1418.3,-137.8 
	-1418,-137.8 -1417.8,-137.8 -1412.1,-137.8 -1410.9,-137.8 -1405,-137.8 -1404.8,-137.8 -1404.5,-137.8 -1404.3,-137.8 
	-1398.6,-137.8 -1397.4,-137.8 -1391.6,-137.8 -1391.3,-137.8 -1391,-137.8 -1390.8,-137.8 -1385.1,-137.8 -1384,-137.8 
	-1378.1,-137.8 -1377.9,-137.8 -1377.5,-137.8 -1377.3,-137.8 -1371.6,-137.8 -1370.5,-137.8 -1364.6,-137.8 -1364.4,-137.8 
	-1364.1,-137.8 -1363.9,-137.8 -1358.2,-137.8 -1357,-137.8 -1351.1,-137.8 -1350.9,-137.8 -1350.6,-137.8 -1350.4,-137.8 
	-1344.7,-137.8 -1343.5,-137.8 -1337.7,-137.8 -1337.4,-137.8 -1337.1,-137.8 -1336.9,-137.8 -1331.2,-137.8 -1330.1,-137.8 
	-1324.2,-137.8 -1324,-137.8 -1323.6,-137.8 -1323.4,-137.8 -1317.7,-137.8 -1316.6,-137.8 -1310.7,-137.8 -1310.5,-137.8 
	-1310.1,-137.8 -1310,-137.8 -1304.3,-137.8 -1303.1,-137.8 -1297.2,-137.8 -1297,-137.8 -1296.7,-137.8 -1296.5,-137.8 
	-1290.8,-137.8 -1289.6,-137.8 -1283.7,-137.8 -1283.5,-137.8 -1283.2,-137.8 -1283,-137.8 -1277.3,-137.8 -1276.1,-137.8 
	-1270.3,-137.8 -1270,-137.8 -1269.7,-137.8 -1269.5,-137.8 -1263.8,-137.8 -1262.7,-137.8 -1256.8,-137.8 -1256.6,-137.8 
	-1256.2,-137.8 -1256,-137.8 -1250.3,-137.8 -1249.2,-137.8 -1243.4,-137.8 -1243.3,-137.8 -1243.1,-137.8 -1242.6,-137.8 
	-1237.2,-137.8 -1236,-137.8 -1230.1,-137.8 -1229.9,-137.8 -1229.6,-137.8 -1229.4,-137.8 -1223.7,-137.8 -1222.5,-137.8 
	-1216.7,-137.8 -1216.4,-137.8 -1216.1,-137.8 -1215.9,-137.8 -1210.2,-137.8 -1209.1,-137.8 -1203.2,-137.8 -1203,-137.8 
	-1202.6,-137.8 -1202.4,-137.8 -1196.7,-137.8 -1195.6,-137.8 -1189.7,-137.8 -1189,-137.8 -1189,-143 -1182.7,-143 -1182.7,-150.6 
	"/>
</svg>
