<!-- Generator: Adobe Illustrator 19.2.1, SVG Export Plug-In  -->
<svg version="1.1"
	 xmlns="http://www.w3.org/2000/svg" xmlns:xlink="http://www.w3.org/1999/xlink" xmlns:a="http://ns.adobe.com/AdobeSVGViewerExtensions/3.0/"
	 x="0px" y="0px" width="24.1px" height="29.3px" viewBox="0 0 24.1 29.3" style="enable-background:new 0 0 24.1 29.3;"
	 xml:space="preserve">
<style type="text/css">
	.st0{fill:#C17620;}
	.st1{fill:#F4C24A;}
	.st2{fill:#FFFFFF;}
	.st3{opacity:0.38;}
	.st4{fill:#1A1A1A;}
</style>
<defs>
</defs>
<g>
	<g>
		<g>
			<polygon class="st0" points="21.3,2.8 18.6,2.8 2.6,2.8 2.6,5.5 0,5.5 0,24.2 2.6,24.2 2.6,26.8 18.6,26.8 21.3,26.8 21.3,24.2
				23.9,24.2 23.9,5.5 21.3,5.5 			"/>
			<polygon class="st1" points="21.4,0 18.7,0 2.6,0 2.6,2.7 0,2.7 0,21.5 2.6,21.5 2.6,24.1 18.7,24.1 21.4,24.1 21.4,21.5
				24.1,21.5 24.1,2.7 21.4,2.7 			"/>
		</g>
		<g>
			<rect x="7.7" y="6.2" class="st2" width="2.4" height="12"/>
			<rect x="14.5" y="6.2" class="st2" width="2.4" height="12"/>
		</g>
	</g>
	<g class="st3">
		<polygon class="st4" points="2.6,26.8 2.6,29.3 5.3,29.3 21.4,29.3 21.4,26.8 5.3,26.8 		"/>
		<rect y="24.2" class="st4" width="2.7" height="2.5"/>
		<rect x="21.4" y="24.2" class="st4" width="2.7" height="2.5"/>
	</g>
</g>
</svg>
