<?xml version="1.0" encoding="utf-8"?>
<!-- Generator: Adobe Illustrator 22.0.1, SVG Export Plug-In . SVG Version: 6.00 Build 0)  -->
<svg version="1.1" id="Layer_1" xmlns="http://www.w3.org/2000/svg" xmlns:xlink="http://www.w3.org/1999/xlink" x="0px" y="0px"
	 width="110px" height="98.9px" viewBox="0 0 110 98.9" style="enable-background:new 0 0 110 98.9;" xml:space="preserve">
<style type="text/css">
	.st0{fill:#5895B7;}
	.st1{opacity:0.8;}
	.st2{fill:#C17620;}
	.st3{fill:#F4C24A;}
	.st4{fill:#FFFFFF;}
	.st5{fill:#2A6FBA;}
	.st6{fill:#4ABAEF;}
	.st7{fill:#95C9C8;}
	.st8{fill:#DDEFEE;}
	.st9{fill:#1B8E6F;}
	.st10{fill:#3CEA8A;}
	.st11{opacity:0.4;fill:#666666;}
	.st12{fill:#33BC6E;}
	.st13{fill:none;}
	.st14{fill:#7149A4;}
	.st15{fill:#BD86E0;}
	.st16{opacity:0.4;fill:#666666;stroke:#666666;stroke-width:4;stroke-linejoin:bevel;stroke-miterlimit:10;}
	.st17{fill:#F2F2F2;}
	.st18{fill:#E6E6E6;}
	.st19{fill:none;stroke:#000000;stroke-width:4;stroke-linejoin:bevel;stroke-miterlimit:10;}
	.st20{fill:#C6E0DE;}
	.st21{fill:#A7C6C3;}
	.st22{fill:#EE3D53;}
	.st23{fill:none;stroke:#000000;stroke-width:2;stroke-miterlimit:10;}
	.st24{fill:#A17559;}
	.st25{fill:#910E46;}
	.st26{fill:#238D6F;}
	.st27{fill:#704CA2;}
	.st28{fill:#47E88D;}
	.st29{fill:#BC88DE;}
	.st30{fill:#CCCCCC;}
	.st31{opacity:0.38;fill:#2D3D3E;}
	.st32{fill:#5B2616;}
	.st33{opacity:0.38;}
	.st34{fill:#2D3D3E;}
	.st35{fill:#3F180F;}
	.st36{fill:#1A1A1A;}
	.st37{fill:#38140C;}
</style>
<g>
	<rect x="-2515.2" y="2045.4" class="st0" width="484" height="82"/>
	<rect x="-2063.2" y="2119.4" class="st0" width="107" height="30"/>
	<g class="st1">
		<g>
			<polygon class="st0" points="-2499.2,2065.4 -2499.2,2147.4 -2595.2,2147.4 -2595.2,2136.4 -2583.2,2136.4 -2583.2,2124.4 
				-2571.2,2124.4 -2571.2,2112.4 -2559.2,2112.4 -2559.2,2100.4 -2571.2,2100.4 -2571.2,2088.4 -2583.2,2088.4 -2583.2,2076.4 
				-2595.2,2076.4 -2595.2,2065.4 			"/>
		</g>
		<polygon class="st0" points="-2513.2,2123.4 -2499.2,2146.4 -2499.2,2123.4 		"/>
	</g>
	<g>
		<g>
			<polygon class="st2" points="-2052.2,2057.4 -2052.2,2139.4 -1956.2,2139.4 -1956.2,2128.4 -1968.2,2128.4 -1968.2,2116.4 
				-1980.2,2116.4 -1980.2,2104.4 -1992.2,2104.4 -1992.2,2092.4 -1980.2,2092.4 -1980.2,2080.4 -1968.2,2080.4 -1968.2,2068.4 
				-1956.2,2068.4 -1956.2,2057.4 			"/>
			<polygon class="st3" points="-2052.2,2046.4 -2052.2,2128.4 -1956.2,2128.4 -1956.2,2117.4 -1968.2,2117.4 -1968.2,2105.4 
				-1980.2,2105.4 -1980.2,2093.4 -1992.2,2093.4 -1992.2,2081.4 -1980.2,2081.4 -1980.2,2069.4 -1968.2,2069.4 -1968.2,2057.4 
				-1956.2,2057.4 -1956.2,2046.4 			"/>
		</g>
		<polygon class="st2" points="-2038.2,2115.4 -2052.2,2138.4 -2052.1,2115.4 		"/>
		<g>
			<g>
				<polygon class="st2" points="-2508.2,2057.4 -2508.2,2139.4 -2604.2,2139.4 -2604.2,2128.4 -2592.2,2128.4 -2592.2,2116.4 
					-2580.2,2116.4 -2580.2,2104.4 -2568.2,2104.4 -2568.2,2092.4 -2580.2,2092.4 -2580.2,2080.4 -2592.2,2080.4 -2592.2,2068.4 
					-2604.2,2068.4 -2604.2,2057.4 				"/>
				<polygon class="st3" points="-2508.2,2046.4 -2508.2,2128.4 -2604.2,2128.4 -2604.2,2117.4 -2592.2,2117.4 -2592.2,2105.4 
					-2580.2,2105.4 -2580.2,2093.4 -2568.2,2093.4 -2568.2,2081.4 -2580.2,2081.4 -2580.2,2069.4 -2592.2,2069.4 -2592.2,2057.4 
					-2604.2,2057.4 -2604.2,2046.4 				"/>
			</g>
			<polygon class="st2" points="-2522.2,2115.4 -2508.2,2138.4 -2508.2,2115.4 			"/>
		</g>
		<g>
			<rect x="-2522.2" y="2033.4" class="st2" width="484" height="82"/>
			<rect x="-2522.2" y="2021.4" class="st3" width="484" height="82"/>
		</g>
	</g>
	<g>
		<path class="st4" d="M-2451.5,2081.2h-8.6v-34.6h8.6v13h8.6v-13h8.6v34.6h-8.6v-13h-8.6V2081.2z"/>
		<path class="st4" d="M-2429.9,2050.9h4.3v-4.3h17.3v4.3h4.3v25.9h-4.3v4.3h-17.3v-4.3h-4.3V2050.9z M-2421.3,2072.5h8.6v-17.3
			h-8.6V2072.5z"/>
		<path class="st4" d="M-2391.1,2081.2h-8.6v-34.6h8.6v17.3h4.3v-4.3h4.3v4.3h4.3v-17.3h8.6v34.6h-8.6v-4.3h-4.3v-4.3h-4.3v4.3h-4.3
			V2081.2z"/>
		<path class="st4" d="M-2334.9,2046.6h25.9v8.6h-8.6v25.9h-8.6v-25.9h-8.6V2046.6z"/>
		<path class="st4" d="M-2304.7,2050.9h4.3v-4.3h17.3v4.3h4.3v25.9h-4.3v4.3h-17.3v-4.3h-4.3V2050.9z M-2296,2072.5h8.6v-17.3h-8.6
			V2072.5z"/>
		<path class="st4" d="M-2235.5,2081.2h-8.6v-34.6h21.6v4.3h4.3v13h-4.3v4.3h-13V2081.2z M-2235.5,2059.6h8.6v-4.3h-8.6V2059.6z"/>
		<path class="st4" d="M-2209.6,2076.8h-4.3v-30.2h8.6v25.9h17.3v8.6h-21.6V2076.8z"/>
		<path class="st4" d="M-2175.1,2081.2h-8.6v-30.2h4.3v-4.3h17.3v4.3h4.3v30.2h-8.6v-13h-8.6V2081.2z M-2166.4,2059.6v-4.3h-8.6v4.3
			H-2166.4z"/>
		<path class="st4" d="M-2153.5,2046.6h8.6v13h8.6v-13h8.6v17.3h-4.3v4.3h-4.3v13h-8.6v-13h-4.3v-4.3h-4.3V2046.6z"/>
	</g>
</g>
<polygon class="st5" points="-2346.2,2314.4 -2358.2,2314.4 -2431.2,2314.4 -2431.2,2326.4 -2443.2,2326.4 -2443.2,2411.4 
	-2431.2,2411.4 -2431.2,2423.4 -2358.2,2423.4 -2346.2,2423.4 -2346.2,2411.4 -2334.2,2411.4 -2334.2,2326.4 -2346.2,2326.4 "/>
<polygon class="st5" points="-2346.2,2314.4 -2358.2,2314.4 -2431.2,2314.4 -2431.2,2326.4 -2443.2,2326.4 -2443.2,2411.4 
	-2431.2,2411.4 -2431.2,2423.4 -2358.2,2423.4 -2346.2,2423.4 -2346.2,2411.4 -2334.2,2411.4 -2334.2,2326.4 -2346.2,2326.4 "/>
<g>
	<path class="st4" d="M-2406.6,2348.6h28.4v5.7h5.7v17.1h-5.7v5.7h-17.1v-11.4h11.4v-5.7h-22.8V2348.6z M-2395.2,2382.7h11.4v11.4
		h-11.4V2382.7z"/>
</g>
<polygon class="st5" points="-2195.2,2314.4 -2207.2,2314.4 -2280.2,2314.4 -2280.2,2326.4 -2292.2,2326.4 -2292.2,2411.4 
	-2280.2,2411.4 -2280.2,2423.4 -2207.2,2423.4 -2195.2,2423.4 -2195.2,2411.4 -2183.2,2411.4 -2183.2,2326.4 -2195.2,2326.4 "/>
<polygon class="st6" points="-2195.2,2304.4 -2207.2,2304.4 -2280.2,2304.4 -2280.2,2316.4 -2292.2,2316.4 -2292.2,2401.4 
	-2280.2,2401.4 -2280.2,2413.4 -2207.2,2413.4 -2195.2,2413.4 -2195.2,2401.4 -2183.2,2401.4 -2183.2,2316.4 -2195.2,2316.4 "/>
<g>
	<path class="st4" d="M-2255.6,2338.6h28.4v5.7h5.7v17.1h-5.7v5.7h-17.1v-11.4h11.4v-5.7h-22.8V2338.6z M-2244.2,2372.7h11.4v11.4
		h-11.4V2372.7z"/>
</g>
<g>
	<polygon class="st0" points="-1160.2,2158.9 -1171.7,2158.9 -1171.7,2147.3 -1183.3,2147.3 -1183.3,2134.5 -1682,2134.5 
		-1682,2147.3 -1693.6,2147.3 -1693.6,2158.9 -1705.2,2158.9 -1705.2,2843.6 -1693.6,2843.6 -1693.6,2855.3 -1682,2855.3 
		-1682,2868.1 -1183.3,2868.1 -1183.3,2855.3 -1171.7,2855.3 -1171.7,2843.6 -1160.2,2843.6 	"/>
	<polygon class="st7" points="-1160.2,2146.9 -1171.7,2146.9 -1171.7,2135.2 -1183.3,2135.2 -1183.3,2122.4 -1682,2122.4 
		-1682,2135.2 -1693.6,2135.2 -1693.6,2146.9 -1705.2,2146.9 -1705.2,2831.6 -1693.6,2831.6 -1693.6,2843.2 -1682,2843.2 
		-1682,2856 -1183.3,2856 -1183.3,2843.2 -1171.7,2843.2 -1171.7,2831.6 -1160.2,2831.6 	"/>
	<polygon class="st8" points="-1160.2,2134.9 -1171.7,2134.9 -1171.7,2123.2 -1183.3,2123.2 -1183.3,2110.4 -1682,2110.4 
		-1682,2123.2 -1693.6,2123.2 -1693.6,2134.9 -1705.2,2134.9 -1705.2,2819.6 -1693.6,2819.6 -1693.6,2831.2 -1682,2831.2 
		-1682,2844 -1183.3,2844 -1183.3,2831.2 -1171.7,2831.2 -1171.7,2819.6 -1160.2,2819.6 	"/>
</g>
<g>
	<polygon class="st9" points="-2209.1,1794.4 -2219.2,1794.4 -2594.1,1794.4 -2594.1,1804.5 -2604.2,1804.5 -2604.2,1862.3 
		-2594.1,1862.3 -2594.1,1872.4 -2219.2,1872.4 -2209.1,1872.4 -2209.1,1862.3 -2199.1,1862.3 -2199.1,1804.5 -2209.1,1804.5 	"/>
	<polygon class="st10" points="-2209.1,1784.4 -2219.2,1784.4 -2594.1,1784.4 -2594.1,1794.5 -2604.2,1794.5 -2604.2,1852.3 
		-2594.1,1852.3 -2594.1,1862.4 -2219.2,1862.4 -2209.1,1862.4 -2209.1,1852.3 -2199.1,1852.3 -2199.1,1794.5 -2209.1,1794.5 	"/>
	<g>
		<path class="st4" d="M-2484.1,1835.3h-6.9v-27.6h17.3v3.5h3.5v10.4h-3.5v3.5h-10.4V1835.3z M-2484.1,1818h6.9v-3.5h-6.9V1818z"/>
		<path class="st4" d="M-2463.4,1831.8h-3.5v-24.2h6.9v20.7h13.8v6.9h-17.3V1831.8z"/>
		<path class="st4" d="M-2435.7,1835.3h-6.9v-24.2h3.5v-3.5h13.8v3.5h3.5v24.2h-6.9v-10.4h-6.9V1835.3z M-2428.8,1818v-3.5h-6.9v3.5
			H-2428.8z"/>
		<path class="st4" d="M-2418.4,1807.6h6.9v10.4h6.9v-10.4h6.9v13.8h-3.5v3.5h-3.5v10.4h-6.9v-10.4h-3.5v-3.5h-3.5V1807.6z"/>
		<path class="st4" d="M-2390.8,1831.8h-3.5v-20.7h3.5v-3.5h17.3v6.9h-13.8v3.5h6.9v6.9h-6.9v3.5h13.8v6.9h-17.3V1831.8z"/>
		<path class="st4" d="M-2359.7,1824.9h-3.5v10.4h-6.9v-27.6h17.3v3.5h3.5v10.4h-3.5v3.5h3.5v10.4h-6.9v-6.9h-3.5V1824.9z
			 M-2363.1,1818h6.9v-3.5h-6.9V1818z"/>
		<path class="st4" d="M-2321.7,1807.6h6.9v27.6h-6.9V1807.6z"/>
	</g>
</g>
<g>
	<polygon class="st11" points="-2570,1673.8 -2571.9,1668 -2576,1656 -2593.8,1662 -2591.8,1667.8 -2597.6,1669.8 -2593.5,1681.8 
		-2587.8,1679.8 -2585.8,1685.6 -2573.8,1681.5 -2575.7,1675.8 	"/>
	<polygon class="st11" points="-2531.2,1661.7 -2533.1,1656 -2537.2,1643.9 -2555,1650 -2553,1655.7 -2558.8,1657.7 -2554.7,1669.7 
		-2549,1667.8 -2547,1673.5 -2535,1669.5 -2536.9,1663.7 	"/>
	<rect x="-2590.7" y="1614.8" transform="matrix(0.9472 -0.3207 0.3207 0.9472 -660.7657 -743.4518)" width="7.1" height="38.6"/>
	<polygon points="-2571.6,1669 -2573.6,1663.2 -2577.6,1651.2 -2595.4,1657.2 -2593.5,1663 -2599.2,1665 -2595.2,1677 -2589.4,1675 
		-2587.4,1680.8 -2575.4,1676.7 -2577.4,1670.9 	"/>
	<rect x="-2552.3" y="1601.8" transform="matrix(0.9472 -0.3207 0.3207 0.9472 -654.5557 -731.8021)" width="7.1" height="38.6"/>
	<polygon points="-2533.1,1656 -2535.1,1650.2 -2539.2,1638.2 -2556.9,1644.2 -2555,1650 -2560.8,1651.9 -2556.7,1663.9 
		-2550.9,1662 -2549,1667.8 -2536.9,1663.7 -2538.9,1657.9 	"/>
	<rect x="-2600.8" y="1592.5" transform="matrix(0.9472 -0.3207 0.3207 0.9472 -649.6516 -741.8964)" width="47.7" height="17.3"/>
</g>
<g>
	<polygon class="st11" points="-2503.8,1707.4 -2502.8,1703.2 -2500.9,1694.6 -2513.7,1691.8 -2514.7,1695.9 -2518.8,1695 
		-2520.7,1703.7 -2516.6,1704.6 -2517.5,1708.7 -2508.8,1710.6 -2507.9,1706.5 	"/>
	<polygon class="st11" points="-2476.3,1714.2 -2475.3,1710 -2473.4,1701.4 -2486.2,1698.6 -2487.1,1702.7 -2491.3,1701.8 
		-2493.2,1710.4 -2489,1711.3 -2490,1715.5 -2481.3,1717.4 -2480.4,1713.2 	"/>
	<rect x="-2502.2" y="1664" transform="matrix(0.9766 0.2149 -0.2149 0.9766 302.0697 576.3472)" width="5" height="26.9"/>
	<polygon points="-2503,1703.9 -2502.1,1699.8 -2500.2,1691.1 -2513,1688.3 -2513.9,1692.5 -2518,1691.6 -2519.9,1700.2 
		-2515.8,1701.1 -2516.7,1705.3 -2508.1,1707.2 -2507.2,1703 	"/>
	<rect x="-2474.5" y="1670.1" transform="matrix(0.9766 0.2149 -0.2149 0.9766 304.0238 570.5452)" width="5" height="26.9"/>
	<polygon points="-2475.3,1710 -2474.4,1705.9 -2472.5,1697.2 -2485.3,1694.4 -2486.2,1698.6 -2490.4,1697.6 -2492.3,1706.3 
		-2488.1,1707.2 -2489,1711.3 -2480.4,1713.2 -2479.5,1709.1 	"/>
	<rect x="-2498.3" y="1655.5" transform="matrix(0.9766 0.2149 -0.2149 0.9766 299.0579 572.1028)" width="33.3" height="12"/>
</g>
<g>
	<polygon class="st11" points="-2427.7,1645.6 -2428.4,1642.5 -2429.8,1636.2 -2439.2,1638.3 -2438.5,1641.3 -2441.6,1642 
		-2440.2,1648.4 -2437.1,1647.7 -2436.5,1650.7 -2430.1,1649.3 -2430.8,1646.3 	"/>
	<polygon class="st11" points="-2407.3,1641.6 -2408,1638.5 -2409.4,1632.2 -2418.8,1634.3 -2418.1,1637.3 -2421.2,1638 
		-2419.8,1644.3 -2416.7,1643.7 -2416,1646.7 -2409.7,1645.3 -2410.4,1642.3 	"/>
	<rect x="-2436.1" y="1614.5" transform="matrix(0.9761 -0.2173 0.2173 0.9761 -411.1238 -490.1361)" width="3.6" height="19.8"/>
	<polygon points="-2428.3,1643 -2429,1640 -2430.4,1633.7 -2439.8,1635.7 -2439.1,1638.8 -2442.2,1639.5 -2440.7,1645.8 
		-2437.7,1645.1 -2437,1648.2 -2430.7,1646.8 -2431.4,1643.7 	"/>
	<rect x="-2415.8" y="1610" transform="matrix(0.9761 -0.2173 0.2173 0.9761 -409.6563 -485.8314)" width="3.6" height="19.8"/>
	<polygon points="-2408,1638.5 -2408.7,1635.5 -2410.1,1629.1 -2419.5,1631.2 -2418.8,1634.3 -2421.8,1634.9 -2420.4,1641.3 
		-2417.4,1640.6 -2416.7,1643.7 -2410.4,1642.3 -2411,1639.2 	"/>
	<rect x="-2439.5" y="1603.8" transform="matrix(0.9761 -0.2173 0.2173 0.9761 -407.4306 -488.9927)" width="24.4" height="8.8"/>
</g>
<g>
	<polygon class="st11" points="-2407.1,1691.4 -2404.5,1687.2 -2399.1,1678.7 -2411.8,1670.6 -2414.4,1674.7 -2418.5,1672.1 
		-2423.9,1680.7 -2419.8,1683.3 -2422.4,1687.4 -2413.9,1692.9 -2411.2,1688.7 	"/>
	<polygon class="st11" points="-2380.1,1709.5 -2377.5,1705.3 -2372.1,1696.8 -2384.8,1688.7 -2387.4,1692.8 -2391.5,1690.2 
		-2396.9,1698.8 -2392.8,1701.4 -2395.4,1705.5 -2386.9,1711 -2384.3,1706.8 	"/>
	<rect x="-2393.9" y="1645.2" transform="matrix(0.844 0.5363 -0.5363 0.844 517.6934 1541.3525)" width="5.7" height="30.9"/>
	<polygon points="-2405,1687.9 -2402.3,1683.8 -2396.9,1675.2 -2409.6,1667.2 -2412.2,1671.3 -2416.3,1668.7 -2421.8,1677.2 
		-2417.6,1679.9 -2420.3,1684 -2411.7,1689.4 -2409.1,1685.3 	"/>
	<rect x="-2366.4" y="1662.7" transform="matrix(0.844 0.5363 -0.5363 0.844 531.3178 1529.3617)" width="5.7" height="30.9"/>
	<polygon points="-2377.5,1705.3 -2374.9,1701.2 -2369.5,1692.7 -2382.2,1684.6 -2384.8,1688.7 -2388.9,1686.1 -2394.3,1694.7 
		-2390.2,1697.3 -2392.8,1701.4 -2384.3,1706.8 -2381.6,1702.7 	"/>
	<rect x="-2384.4" y="1643.6" transform="matrix(0.844 0.5363 -0.5363 0.844 516.2619 1525.9904)" width="38.2" height="13.8"/>
</g>
<g>
	<polygon class="st9" points="-2685.9,1250.9 -2692.5,1250.9 -2938.9,1250.9 -2938.9,1257.5 -2945.5,1257.5 -2945.5,1295.6 
		-2938.9,1295.6 -2938.9,1302.2 -2692.5,1302.2 -2685.9,1302.2 -2685.9,1295.6 -2679.3,1295.6 -2679.3,1257.5 -2685.9,1257.5 	"/>
	<polygon class="st12" points="-2685.9,1250.9 -2692.5,1250.9 -2938.9,1250.9 -2938.9,1257.5 -2945.5,1257.5 -2945.5,1295.6 
		-2938.9,1295.6 -2938.9,1302.2 -2692.5,1302.2 -2685.9,1302.2 -2685.9,1295.6 -2679.3,1295.6 -2679.3,1257.5 -2685.9,1257.5 	"/>
	<g>
		<path class="st4" d="M-2879.1,1268.5h2.3v-2.3h11.4v4.5h-9.1v9.1h9.1v4.5h-11.4v-2.3h-2.3V1268.5z"/>
		<path class="st4" d="M-2858.6,1284.4h-4.5v-15.9h2.3v-2.3h9.1v2.3h2.3v15.9h-4.5v-6.8h-4.5V1284.4z M-2854.1,1273v-2.3h-4.5v2.3
			H-2854.1z"/>
		<path class="st4" d="M-2845,1282.1h-2.3v-15.9h4.5v13.6h9.1v4.5h-11.4V1282.1z"/>
		<path class="st4" d="M-2831.4,1266.2h4.5v18.2h-4.5V1266.2z"/>
		<path class="st4" d="M-2824.6,1266.2h11.4v2.3h2.3v13.6h-2.3v2.3h-11.4V1266.2z M-2820,1273h4.5v-2.3h-4.5V1273z M-2820,1279.8
			h4.5v-2.3h-4.5V1279.8z"/>
		<path class="st4" d="M-2801.9,1277.6h-2.3v6.8h-4.5v-15.9h2.3v-2.3h9.1v2.3h2.3v6.8h-2.3v2.3h2.3v6.8h-4.5v-4.5h-2.3V1277.6z
			 M-2804.1,1273h4.5v-2.3h-4.5V1273z"/>
		<path class="st4" d="M-2788.2,1284.4h-4.5v-15.9h2.3v-2.3h9.1v2.3h2.3v15.9h-4.5v-6.8h-4.5V1284.4z M-2783.7,1273v-2.3h-4.5v2.3
			H-2783.7z"/>
		<path class="st4" d="M-2776.9,1266.2h13.6v4.5h-4.5v13.6h-4.5v-13.6h-4.5V1266.2z"/>
		<path class="st4" d="M-2758.7,1282.1h-2.3v-13.6h2.3v-2.3h11.4v4.5h-9.1v2.3h4.5v4.5h-4.5v2.3h9.1v4.5h-11.4V1282.1z"/>
	</g>
</g>
<g>
	<polygon class="st9" points="-2365.9,1318.9 -2372.5,1318.9 -2618.9,1318.9 -2618.9,1325.5 -2625.5,1325.5 -2625.5,1363.6 
		-2618.9,1363.6 -2618.9,1370.2 -2372.5,1370.2 -2365.9,1370.2 -2365.9,1363.6 -2359.3,1363.6 -2359.3,1325.5 -2365.9,1325.5 	"/>
	<polygon class="st10" points="-2365.9,1312.4 -2372.5,1312.4 -2618.9,1312.4 -2618.9,1319 -2625.5,1319 -2625.5,1357 -2618.9,1357 
		-2618.9,1363.6 -2372.5,1363.6 -2365.9,1363.6 -2365.9,1357 -2359.3,1357 -2359.3,1319 -2365.9,1319 	"/>
	<g>
		<path class="st4" d="M-2559.1,1329.9h2.3v-2.3h11.4v4.5h-9.1v9.1h9.1v4.5h-11.4v-2.3h-2.3V1329.9z"/>
		<path class="st4" d="M-2538.6,1345.8h-4.5v-15.9h2.3v-2.3h9.1v2.3h2.3v15.9h-4.5v-6.8h-4.5V1345.8z M-2534.1,1334.4v-2.3h-4.5v2.3
			H-2534.1z"/>
		<path class="st4" d="M-2525,1343.5h-2.3v-15.9h4.5v13.6h9.1v4.5h-11.4V1343.5z"/>
		<path class="st4" d="M-2511.4,1327.6h4.5v18.2h-4.5V1327.6z"/>
		<path class="st4" d="M-2504.6,1327.6h11.4v2.3h2.3v13.6h-2.3v2.3h-11.4V1327.6z M-2500,1334.4h4.5v-2.3h-4.5V1334.4z
			 M-2500,1341.3h4.5v-2.3h-4.5V1341.3z"/>
		<path class="st4" d="M-2481.9,1339h-2.3v6.8h-4.5v-15.9h2.3v-2.3h9.1v2.3h2.3v6.8h-2.3v2.3h2.3v6.8h-4.5v-4.5h-2.3V1339z
			 M-2484.1,1334.4h4.5v-2.3h-4.5V1334.4z"/>
		<path class="st4" d="M-2468.2,1345.8h-4.5v-15.9h2.3v-2.3h9.1v2.3h2.3v15.9h-4.5v-6.8h-4.5V1345.8z M-2463.7,1334.4v-2.3h-4.5v2.3
			H-2463.7z"/>
		<path class="st4" d="M-2456.9,1327.6h13.6v4.5h-4.5v13.6h-4.5v-13.6h-4.5V1327.6z"/>
		<path class="st4" d="M-2438.7,1343.5h-2.3v-13.6h2.3v-2.3h11.4v4.5h-9.1v2.3h4.5v4.5h-4.5v2.3h9.1v4.5h-11.4V1343.5z"/>
	</g>
</g>
<g>
	<rect x="-2623.9" y="1401.3" class="st9" width="219.8" height="28.8"/>
	<rect x="-2628.7" y="1394.7" class="st9" width="229.4" height="30.6"/>
	<polygon class="st10" points="-2628.7,1390.4 -2628.7,1419.6 -2623.9,1419.6 -2623.9,1425.3 -2404.1,1425.3 -2404.1,1419.6 
		-2399.3,1419.6 -2399.3,1390.4 	"/>
</g>
<polygon class="st9" points="-2408.9,1405.2 -2408.9,1400.1 -2414,1400.1 -2414,1400 -2470.7,1400 -2501.2,1400 -2526.8,1400 
	-2550.7,1400 -2614,1400 -2614,1400.1 -2619.1,1400.1 -2619.1,1405.2 -2624.2,1405.2 -2624.2,1412.8 -2619.1,1412.8 -2619.1,1417.9 
	-2614,1417.9 -2614,1418 -2550.7,1418 -2526.8,1418 -2501.2,1418 -2470.7,1418 -2414,1418 -2414,1418 -2408.9,1418 -2408.9,1412.9 
	-2403.8,1412.9 -2403.8,1405.2 "/>
<g>
	<rect x="-2632.8" y="1499.3" class="st13" width="4.7" height="0.1"/>
	<rect x="-2632.8" y="1517.2" class="st13" width="4.7" height="0.1"/>
	<polygon class="st4" points="-2611.8,1517.2 -2611.8,1512.1 -2606.7,1512.1 -2606.7,1504.5 -2611.8,1504.5 -2611.8,1499.4 
		-2616.9,1499.4 -2616.9,1499.3 -2628.1,1499.3 -2628.1,1499.4 -2632.8,1499.4 -2632.8,1517.2 -2628.1,1517.2 -2628.1,1517.3 
		-2616.9,1517.3 -2616.9,1517.2 	"/>
</g>
<g>
	<polygon class="st4" points="-2658.6,1463.7 -2658.6,1458.7 -2663.7,1458.7 -2663.7,1458.6 -2679.7,1458.6 -2679.7,1476.6 
		-2663.7,1476.6 -2663.7,1476.5 -2658.6,1476.5 -2658.6,1471.4 -2653.5,1471.4 -2653.5,1463.7 	"/>
	<polygon class="st4" points="-2672.1,1502.6 -2672.1,1497.5 -2672.2,1497.5 -2672.2,1497.4 -2676.7,1497.4 -2677.2,1497.4 
		-2681.8,1497.4 -2681.8,1497.5 -2681.8,1497.5 -2681.8,1502.6 -2686.9,1502.6 -2686.9,1510.2 -2681.8,1510.2 -2681.8,1515.3 
		-2681.8,1515.3 -2681.8,1515.4 -2677.2,1515.4 -2676.7,1515.4 -2672.2,1515.4 -2672.2,1515.3 -2672.1,1515.3 -2672.1,1510.3 
		-2667,1510.3 -2667,1502.6 	"/>
</g>
<polygon class="st4" points="-2721.9,1405.2 -2721.9,1400.1 -2721.9,1400.1 -2721.9,1400 -2726.5,1400 -2727,1400 -2731.5,1400 
	-2731.5,1400.1 -2731.6,1400.1 -2731.6,1405.2 -2736.7,1405.2 -2736.7,1412.8 -2731.6,1412.8 -2731.6,1417.9 -2731.5,1417.9 
	-2731.5,1418 -2727,1418 -2726.5,1418 -2721.9,1418 -2721.9,1418 -2721.9,1418 -2721.9,1412.9 -2716.8,1412.9 -2716.8,1405.2 "/>
<polygon class="st14" points="-1756.1,1794.4 -1766.2,1794.4 -2141.1,1794.4 -2141.1,1804.5 -2151.2,1804.5 -2151.2,1862.3 
	-2141.1,1862.3 -2141.1,1872.4 -1766.2,1872.4 -1756.1,1872.4 -1756.1,1862.3 -1746.1,1862.3 -1746.1,1804.5 -1756.1,1804.5 "/>
<polygon class="st15" points="-1756.1,1784.4 -1766.2,1784.4 -2141.1,1784.4 -2141.1,1794.5 -2151.2,1794.5 -2151.2,1852.3 
	-2141.1,1852.3 -2141.1,1862.4 -1766.2,1862.4 -1756.1,1862.4 -1756.1,1852.3 -1746.1,1852.3 -1746.1,1794.5 -1756.1,1794.5 "/>
<g>
	<path class="st4" d="M-2038.5,1835.3h-6.9v-27.6h17.3v3.5h3.5v10.4h-3.5v3.5h-10.4V1835.3z M-2038.5,1818h6.9v-3.5h-6.9V1818z"/>
	<path class="st4" d="M-2017.8,1831.8h-3.5v-24.2h6.9v20.7h13.8v6.9h-17.3V1831.8z"/>
	<path class="st4" d="M-1990.1,1835.3h-6.9v-24.2h3.5v-3.5h13.8v3.5h3.5v24.2h-6.9v-10.4h-6.9V1835.3z M-1983.2,1818v-3.5h-6.9v3.5
		H-1983.2z"/>
	<path class="st4" d="M-1972.8,1807.6h6.9v10.4h6.9v-10.4h6.9v13.8h-3.5v3.5h-3.5v10.4h-6.9v-10.4h-3.5v-3.5h-3.5V1807.6z"/>
	<path class="st4" d="M-1945.2,1831.8h-3.5v-20.7h3.5v-3.5h17.3v6.9h-13.8v3.5h6.9v6.9h-6.9v3.5h13.8v6.9h-17.3V1831.8z"/>
	<path class="st4" d="M-1914.1,1824.9h-3.5v10.4h-6.9v-27.6h17.3v3.5h3.5v10.4h-3.5v3.5h3.5v10.4h-6.9v-6.9h-3.5V1824.9z
		 M-1917.6,1818h6.9v-3.5h-6.9V1818z"/>
	<path class="st4" d="M-1876.1,1807.6h17.3v3.5h3.5v10.4h-3.5v3.5h-10.4v3.5h13.8v6.9h-20.7v-13.8h3.5v-3.5h10.4v-3.5h-13.8V1807.6z
		"/>
</g>
<g>
	<rect x="-2130.2" y="1788.4" class="st4" width="45.1" height="5.7"/>
	<rect x="-2078.9" y="1788.4" class="st4" width="5.7" height="5.7"/>
</g>
<g>
	<rect x="-2584.7" y="1789.4" class="st4" width="45.1" height="5.7"/>
	<rect x="-2533.4" y="1789.4" class="st4" width="5.7" height="5.7"/>
</g>
<polygon class="st16" points="-2195.5,1629.4 -2189.1,1635 -2194.7,1641.4 -2174.3,1658.8 -2174.3,1696.6 -2153.6,1670.6 
	-2121.8,1699.9 -2116,1693.7 -2111,1698.3 -2039.4,1579.6 "/>
<polygon class="st17" points="-2198,1622.3 -2191.6,1627.9 -2197.2,1634.3 -2176.8,1651.6 -2176.8,1689.5 -2156,1663.4 
	-2124.3,1692.8 -2118.4,1686.5 -2113.5,1691.2 -2041.8,1572.5 "/>
<polygon class="st18" points="-2156,1663.2 -2041.6,1572.4 -2176.7,1651.4 -2176.7,1689.3 "/>
<polygon class="st19" points="-2199.1,1622.4 -2192.7,1628 -2198.3,1634.4 -2177.8,1651.8 -2177.8,1689.7 -2157.1,1663.6 
	-2125.3,1693 -2119.5,1686.7 -2114.5,1691.3 -2042.9,1572.6 "/>
<g>
	<polygon class="st20" points="-2263.2,1315.7 -2263.2,1479.3 -2252.8,1479.3 -2252.8,1488.8 -2242.4,1488.8 -2242.4,1499.3 
		-1795,1499.3 -1795,1488.8 -1784.6,1488.8 -1784.6,1479.3 -1774.2,1479.3 -1774.2,1315.7 	"/>
	<polygon class="st20" points="-1774.2,1315.7 -1774.2,1221.6 -1784.6,1221.6 -1784.6,1212.1 -1795,1212.1 -1795,1201.6 
		-2242.4,1201.6 -2242.4,1212.1 -2252.8,1212.1 -2252.8,1221.6 -2263.2,1221.6 -2263.2,1315.7 	"/>
</g>
<g>
	<polygon class="st21" points="-2252.8,1218.2 -2242.4,1218.2 -2242.4,1210.2 -2252.8,1210.2 -2252.8,1218.1 -2263.2,1218.1 
		-2263.2,1226.1 -2252.8,1226.1 	"/>
	<rect x="-2242.4" y="1201.5" class="st21" width="447.5" height="8"/>
	<polygon class="st21" points="-1784.6,1218.1 -1784.6,1210.2 -1795,1210.2 -1795,1218.2 -1784.6,1218.2 -1784.6,1226.1 
		-1774.2,1226.1 -1774.2,1218.1 	"/>
</g>
<g>
	<g>
		<g>
			<rect x="-2656.4" y="1137.2" width="10.2" height="10.2"/>
		</g>
	</g>
	<g>
		<g>
			<path d="M-2594.9,1127v5.1h-5.1v5.1h5.1v20.5h5.1v5.1h-5.1v5.1h5.1h5.1v-10.2h15.4v5.1h5.1v-5.1V1127H-2594.9z M-2569.3,1152.6
				h-20.5v-20.5h20.5V1152.6z"/>
		</g>
	</g>
	<g>
		<g>
			<rect x="-2584.7" y="1137.2" width="10.2" height="10.2"/>
		</g>
	</g>
	<g>
		<g>
			<rect x="-2656.4" y="1208.9" width="10.2" height="10.2"/>
		</g>
	</g>
	<g>
		<g>
			<rect x="-2594.9" y="1198.7" width="5.1" height="5.1"/>
		</g>
	</g>
	<g>
		<g>
			<rect x="-2620.5" y="1224.3" width="5.1" height="5.1"/>
		</g>
	</g>
	<g>
		<g>
			<rect x="-2615.4" y="1203.8" width="5.1" height="5.1"/>
		</g>
	</g>
	<g>
		<g>
			<rect x="-2615.4" y="1214" width="5.1" height="5.1"/>
		</g>
	</g>
	<g>
		<g>
			<rect x="-2569.3" y="1188.4" width="5.1" height="5.1"/>
		</g>
	</g>
	<g>
		<g>
			<rect x="-2666.6" y="1188.4" width="5.1" height="5.1"/>
		</g>
	</g>
	<g>
		<g>
			<rect x="-2666.6" y="1162.8" width="5.1" height="5.1"/>
		</g>
	</g>
	<g>
		<g>
			<polygon points="-2610.3,1132.1 -2610.3,1137.2 -2620.5,1137.2 -2620.5,1142.3 -2605.2,1142.3 -2605.2,1137.2 -2605.2,1132.1 			
				"/>
		</g>
	</g>
	<g>
		<g>
			<path d="M-2569.3,1167.9v5.1h-10.2v5.1h-15.4v-5.1h-5.1v5.1h-10.2v5.1h15.4v5.1h-10.2h-5.1v-5.1h-5.1v5.1h-5.1v-5.1h-5.1v5.1
				h-5.1v5.1h10.2v5.1h5.1v-5.1h10.2v5.1h-5.1v5.1h5.1v10.2h5.1v5.1h5.1v-5.1h15.4v-10.2h5.1v-5.1h-5.1v-10.2h-10.2v-5.1h10.2v5.1
				h5.1v-5.1h5.1v-5.1h5.1v-5.1v-5.1H-2569.3L-2569.3,1167.9z M-2584.7,1193.5v15.4h-15.4v-15.4H-2584.7z"/>
		</g>
	</g>
	<g>
		<g>
			<polygon points="-2600,1157.7 -2605.2,1157.7 -2605.2,1162.8 -2610.3,1162.8 -2610.3,1167.9 -2610.3,1173 -2605.2,1173 
				-2605.2,1167.9 -2600,1167.9 -2600,1162.8 -2594.9,1162.8 -2594.9,1157.7 			"/>
		</g>
	</g>
	<g>
		<g>
			<rect x="-2610.3" y="1224.3" width="10.2" height="5.1"/>
		</g>
	</g>
	<g>
		<g>
			<rect x="-2625.6" y="1132.1" width="5.1" height="5.1"/>
		</g>
	</g>
	<g>
		<g>
			<rect x="-2584.7" y="1167.9" width="5.1" height="5.1"/>
		</g>
	</g>
	<g>
		<g>
			<rect x="-2579.6" y="1162.8" width="5.1" height="5.1"/>
		</g>
	</g>
	<g>
		<g>
			<rect x="-2646.1" y="1188.4" width="5.1" height="5.1"/>
		</g>
	</g>
	<g>
		<g>
			<path d="M-2635.9,1224.3v-20.5h5.1v-5.1v-5.1h-5.1v5.1h-15.4v-5.1h-5.1h-5.1v5.1h-5.1v30.7h30.7h10.2v-5.1H-2635.9z
				 M-2641,1224.3h-20.5v-20.5h20.5V1224.3z"/>
		</g>
	</g>
	<g>
		<g>
			<rect x="-2635.9" y="1157.7" width="5.1" height="5.1"/>
		</g>
	</g>
	<g>
		<g>
			<path d="M-2630.8,1127h-5.1h-30.7v30.7h5.1v5.1h5.1v-5.1h5.1v5.1h5.1v-5.1h10.2v-10.2h5.1v-5.1h-5.1v-10.2h5.1h5.1v-5.1H-2630.8z
				 M-2641,1152.6h-20.5v-20.5h20.5V1152.6z"/>
		</g>
	</g>
	<g>
		<g>
			<rect x="-2605.2" y="1142.3" width="5.1" height="5.1"/>
		</g>
	</g>
	<g>
		<g>
			<rect x="-2615.4" y="1127" width="5.1" height="5.1"/>
		</g>
	</g>
	<g>
		<g>
			<path d="M-2605.2,1157.7v-5.1h-5.1v-5.1h-5.1v5.1h-10.2v-5.1h-5.1v5.1v5.1h5.1v10.2h-15.4v-5.1h-5.1v5.1h-15.4v5.1h10.2v5.1
				h-15.4v5.1h15.4v5.1h5.1v-5.1h5.1v5.1h5.1v-5.1h10.2v-5.1h-5.1v-5.1h5.1h5.1v5.1h5.1h5.1v-5.1h-5.1v-5.1h-5.1v-10.2H-2605.2
				L-2605.2,1157.7z M-2635.9,1178.2h-10.2v-5.1h10.2V1178.2z"/>
		</g>
	</g>
	<g>
		<g>
			<polygon points="-2620.5,1208.9 -2620.5,1203.8 -2620.5,1198.7 -2625.6,1198.7 -2625.6,1203.8 -2630.8,1203.8 -2630.8,1208.9 
				-2625.6,1208.9 -2625.6,1214 -2630.8,1214 -2630.8,1219.1 -2620.5,1219.1 -2620.5,1214 -2615.4,1214 -2615.4,1208.9 			"/>
		</g>
	</g>
	<g>
		<g>
			<polygon points="-2574.4,1219.1 -2574.4,1214 -2579.6,1214 -2579.6,1219.1 -2594.9,1219.1 -2594.9,1224.3 -2584.7,1224.3 
				-2584.7,1229.4 -2579.6,1229.4 -2579.6,1224.3 -2569.3,1224.3 -2569.3,1229.4 -2564.2,1229.4 -2564.2,1224.3 -2564.2,1219.1 			
				"/>
		</g>
	</g>
	<g>
		<g>
			<polygon points="-2569.3,1198.7 -2569.3,1203.8 -2574.4,1203.8 -2574.4,1208.9 -2564.2,1208.9 -2564.2,1203.8 -2564.2,1198.7 			
				"/>
		</g>
	</g>
</g>
<g>
	<g>
		<polygon class="st9" points="-2894.7,1543.1 -2898.4,1543.1 -3035.6,1543.1 -3035.6,1546.8 -3039.3,1546.8 -3039.3,1568 
			-3035.6,1568 -3035.6,1571.6 -2898.4,1571.6 -2894.7,1571.6 -2894.7,1568 -2891,1568 -2891,1546.8 -2894.7,1546.8 		"/>
		<polygon class="st12" points="-2894.7,1543.1 -2898.4,1543.1 -3035.6,1543.1 -3035.6,1546.8 -3039.3,1546.8 -3039.3,1568 
			-3035.6,1568 -3035.6,1571.6 -2898.4,1571.6 -2894.7,1571.6 -2894.7,1568 -2891,1568 -2891,1546.8 -2894.7,1546.8 		"/>
		<g>
			<path class="st4" d="M-3007.3,1557.9h-1.3v3.8h-2.5v-10.1h6.3v1.3h1.3v3.8h-1.3v1.3h1.3v3.8h-2.5v-2.5h-1.3V1557.9z
				 M-3008.6,1555.4h2.5v-1.3h-2.5V1555.4z"/>
			<path class="st4" d="M-3001,1560.4h-1.3v-7.6h1.3v-1.3h6.3v2.5h-5.1v1.3h2.5v2.5h-2.5v1.3h5.1v2.5h-6.3V1560.4z"/>
			<path class="st4" d="M-2992.2,1560.4h-1.3v-7.6h1.3v-1.3h5.1v1.3h1.3v2.5h-2.5v-1.3h-2.5v5.1h2.5v-1.3h2.5v2.5h-1.3v1.3h-5.1
				V1560.4z"/>
			<path class="st4" d="M-2982.1,1561.7h-2.5v-8.9h1.3v-1.3h5.1v1.3h1.3v8.9h-2.5v-3.8h-2.5V1561.7z M-2979.5,1555.4v-1.3h-2.5v1.3
				H-2979.5z"/>
			<path class="st4" d="M-2974.5,1560.4h-1.3v-8.9h2.5v7.6h5.1v2.5h-6.3V1560.4z"/>
			<path class="st4" d="M-2966.9,1551.6h2.5v10.1h-2.5V1551.6z"/>
			<path class="st4" d="M-2963.1,1551.6h6.3v1.3h1.3v7.6h-1.3v1.3h-6.3V1551.6z M-2960.6,1555.4h2.5v-1.3h-2.5V1555.4z
				 M-2960.6,1559.2h2.5v-1.3h-2.5V1559.2z"/>
			<path class="st4" d="M-2950.4,1557.9h-1.3v3.8h-2.5v-8.9h1.3v-1.3h5.1v1.3h1.3v3.8h-1.3v1.3h1.3v3.8h-2.5v-2.5h-1.3V1557.9z
				 M-2951.7,1555.4h2.5v-1.3h-2.5V1555.4z"/>
			<path class="st4" d="M-2942.9,1561.7h-2.5v-8.9h1.3v-1.3h5.1v1.3h1.3v8.9h-2.5v-3.8h-2.5V1561.7z M-2940.3,1555.4v-1.3h-2.5v1.3
				H-2940.3z"/>
			<path class="st4" d="M-2936.5,1551.6h7.6v2.5h-2.5v7.6h-2.5v-7.6h-2.5V1551.6z"/>
			<path class="st4" d="M-2926.4,1560.4h-1.3v-7.6h1.3v-1.3h6.3v2.5h-5.1v1.3h2.5v2.5h-2.5v1.3h5.1v2.5h-6.3V1560.4z"/>
		</g>
	</g>
	<g>
		<rect x="-3033.1" y="1545.2" class="st4" width="13.1" height="1.7"/>
		<rect x="-3018.2" y="1545.2" class="st4" width="1.7" height="1.7"/>
	</g>
</g>
<g>
	<g>
		<polygon class="st9" points="-2894.7,1585.1 -2898.4,1585.1 -3035.6,1585.1 -3035.6,1588.8 -3039.3,1588.8 -3039.3,1610 
			-3035.6,1610 -3035.6,1613.6 -2898.4,1613.6 -2894.7,1613.6 -2894.7,1610 -2891,1610 -2891,1588.8 -2894.7,1588.8 		"/>
		<polygon class="st10" points="-2894.7,1581.4 -2898.4,1581.4 -3035.6,1581.4 -3035.6,1585.1 -3039.3,1585.1 -3039.3,1606.3 
			-3035.6,1606.3 -3035.6,1610 -2898.4,1610 -2894.7,1610 -2894.7,1606.3 -2891,1606.3 -2891,1585.1 -2894.7,1585.1 		"/>
		<g>
			<path class="st4" d="M-3007.3,1596.3h-1.3v3.8h-2.5v-10.1h6.3v1.3h1.3v3.8h-1.3v1.3h1.3v3.8h-2.5v-2.5h-1.3V1596.3z
				 M-3008.6,1593.7h2.5v-1.3h-2.5V1593.7z"/>
			<path class="st4" d="M-3001,1598.8h-1.3v-7.6h1.3v-1.3h6.3v2.5h-5.1v1.3h2.5v2.5h-2.5v1.3h5.1v2.5h-6.3V1598.8z"/>
			<path class="st4" d="M-2992.2,1598.8h-1.3v-7.6h1.3v-1.3h5.1v1.3h1.3v2.5h-2.5v-1.3h-2.5v5.1h2.5v-1.3h2.5v2.5h-1.3v1.3h-5.1
				V1598.8z"/>
			<path class="st4" d="M-2982.1,1600.1h-2.5v-8.9h1.3v-1.3h5.1v1.3h1.3v8.9h-2.5v-3.8h-2.5V1600.1z M-2979.5,1593.7v-1.3h-2.5v1.3
				H-2979.5z"/>
			<path class="st4" d="M-2974.5,1598.8h-1.3v-8.9h2.5v7.6h5.1v2.5h-6.3V1598.8z"/>
			<path class="st4" d="M-2966.9,1589.9h2.5v10.1h-2.5V1589.9z"/>
			<path class="st4" d="M-2963.1,1589.9h6.3v1.3h1.3v7.6h-1.3v1.3h-6.3V1589.9z M-2960.6,1593.7h2.5v-1.3h-2.5V1593.7z
				 M-2960.6,1597.5h2.5v-1.3h-2.5V1597.5z"/>
			<path class="st4" d="M-2950.4,1596.3h-1.3v3.8h-2.5v-8.9h1.3v-1.3h5.1v1.3h1.3v3.8h-1.3v1.3h1.3v3.8h-2.5v-2.5h-1.3V1596.3z
				 M-2951.7,1593.7h2.5v-1.3h-2.5V1593.7z"/>
			<path class="st4" d="M-2942.9,1600.1h-2.5v-8.9h1.3v-1.3h5.1v1.3h1.3v8.9h-2.5v-3.8h-2.5V1600.1z M-2940.3,1593.7v-1.3h-2.5v1.3
				H-2940.3z"/>
			<path class="st4" d="M-2936.5,1589.9h7.6v2.5h-2.5v7.6h-2.5v-7.6h-2.5V1589.9z"/>
			<path class="st4" d="M-2926.4,1598.8h-1.3v-7.6h1.3v-1.3h6.3v2.5h-5.1v1.3h2.5v2.5h-2.5v1.3h5.1v2.5h-6.3V1598.8z"/>
		</g>
	</g>
	<g>
		<rect x="-3033.1" y="1584.2" class="st4" width="13.1" height="1.7"/>
		<rect x="-3018.2" y="1584.2" class="st4" width="1.7" height="1.7"/>
	</g>
</g>
<g>
	<rect x="-2613.3" y="1315.9" class="st4" width="23.6" height="3"/>
	<rect x="-2586.6" y="1315.9" class="st4" width="3" height="3"/>
</g>
<g>
	<rect x="-2933.8" y="1254.5" class="st4" width="23.6" height="3"/>
	<rect x="-2907" y="1254.5" class="st4" width="3" height="3"/>
</g>
<g>
	<polygon class="st22" points="-2963.8,1378 -2963.8,1370.5 -2982.5,1370.5 -2982.5,1378 -2989.9,1378 -2989.9,1385.4 
		-2989.9,1396.6 -2982.5,1396.6 -2982.5,1404.1 -2971.3,1404.1 -2963.8,1404.1 -2963.8,1396.6 -2956.4,1396.6 -2956.4,1385.4 
		-2956.4,1378 	"/>
	<line class="st23" x1="-2981.9" y1="1404.1" x2="-2981.9" y2="1414"/>
	<line class="st23" x1="-2964.5" y1="1404.1" x2="-2964.5" y2="1414"/>
	<polygon class="st24" points="-2965.4,1412.2 -2967.6,1412.2 -2980.9,1412.2 -2980.9,1414.4 -2983.1,1414.4 -2983.1,1429.9 
		-2980.9,1429.9 -2980.9,1432.1 -2967.6,1432.1 -2965.4,1432.1 -2965.4,1429.9 -2963.2,1429.9 -2963.2,1414.4 -2965.4,1414.4 	"/>
</g>
<polygon class="st25" points="-2896.7,1817.2 -2896.7,1809.3 -2904.7,1809.3 -2969.7,1809.3 -3038.4,1809.3 -3038.4,1817.2 
	-3046.4,1817.2 -3046.4,1862.8 -3038.4,1862.8 -3038.4,1870.7 -2969.7,1870.7 -2904.7,1870.7 -2896.7,1870.7 -2896.7,1862.8 
	-2888.8,1862.8 -2888.8,1817.2 "/>
<polygon class="st25" points="-2896.7,1817.3 -2896.7,1809.4 -2904.7,1809.4 -2969.7,1809.4 -3038.4,1809.4 -3038.4,1817.3 
	-3046.4,1817.3 -3046.4,1862.9 -3038.4,1862.9 -3038.4,1870.8 -2969.7,1870.8 -2904.7,1870.8 -2896.7,1870.8 -2896.7,1862.9 
	-2888.8,1862.9 -2888.8,1817.3 "/>
<g>
	<path class="st4" d="M-3000.2,1850.8h-5.4V1829h13.6v2.7h2.7v8.2h-2.7v2.7h-8.2V1850.8z M-3000.2,1837.2h5.4v-2.7h-5.4V1837.2z"/>
	<path class="st4" d="M-2983.9,1848h-2.7v-19h5.4v16.3h10.9v5.4h-13.6V1848z"/>
	<path class="st4" d="M-2962.2,1850.8h-5.4v-19h2.7v-2.7h10.9v2.7h2.7v19h-5.4v-8.2h-5.4V1850.8z M-2956.7,1837.2v-2.7h-5.4v2.7
		H-2956.7z"/>
	<path class="st4" d="M-2948.5,1829h5.4v8.2h5.4v-8.2h5.4v10.9h-2.7v2.7h-2.7v8.2h-5.4v-8.2h-2.7v-2.7h-2.7V1829z"/>
</g>
<polygon class="st25" points="-2726.7,1817.2 -2726.7,1809.3 -2734.7,1809.3 -2799.7,1809.3 -2868.4,1809.3 -2868.4,1817.2 
	-2876.4,1817.2 -2876.4,1862.8 -2868.4,1862.8 -2868.4,1870.7 -2799.7,1870.7 -2734.7,1870.7 -2726.7,1870.7 -2726.7,1862.8 
	-2718.8,1862.8 -2718.8,1817.2 "/>
<polygon class="st22" points="-2726.7,1809.3 -2726.7,1801.4 -2734.7,1801.4 -2799.7,1801.4 -2868.4,1801.4 -2868.4,1809.3 
	-2876.4,1809.3 -2876.4,1854.9 -2868.4,1854.9 -2868.4,1862.8 -2799.7,1862.8 -2734.7,1862.8 -2726.7,1862.8 -2726.7,1854.9 
	-2718.8,1854.9 -2718.8,1809.3 "/>
<g>
	<path class="st4" d="M-2830.2,1842.8h-5.4V1821h13.6v2.7h2.7v8.2h-2.7v2.7h-8.2V1842.8z M-2830.2,1829.2h5.4v-2.7h-5.4V1829.2z"/>
	<path class="st4" d="M-2813.9,1840h-2.7v-19h5.4v16.3h10.9v5.4h-13.6V1840z"/>
	<path class="st4" d="M-2792.2,1842.8h-5.4v-19h2.7v-2.7h10.9v2.7h2.7v19h-5.4v-8.2h-5.4V1842.8z M-2786.7,1829.2v-2.7h-5.4v2.7
		H-2786.7z"/>
	<path class="st4" d="M-2778.5,1821h5.4v8.2h5.4v-8.2h5.4v10.9h-2.7v2.7h-2.7v8.2h-5.4v-8.2h-2.7v-2.7h-2.7V1821z"/>
</g>
<g>
	<path class="st26" d="M-3720.3,1571.6h43.2v108h43.2v-108h43.2v129.6h-21.6v21.6h-21.6v21.6h-43.2v-21.6h-21.6v-21.6h-21.6V1571.6z
		"/>
	<path class="st27" d="M-3569.1,1595.3h21.6v-21.6h108v43.2h-86.4v21.6h64.8v21.6h21.6v64.8h-21.6v21.6h-108v-43.2h86.4v-21.6h-64.8
		v-21.6h-21.6V1595.3z"/>
</g>
<g>
	<path class="st28" d="M-3720.3,1550.6h43.2v108h43.2v-108h43.2v129.6h-21.6v21.6h-21.6v21.6h-43.2v-21.6h-21.6v-21.6h-21.6V1550.6z
		"/>
	<path class="st29" d="M-3569.1,1572.2h21.6v-21.6h108v43.2h-86.4v21.6h64.8v21.6h21.6v64.8h-21.6v21.6h-108v-43.2h86.4v-21.6h-64.8
		V1637h-21.6V1572.2z"/>
</g>
<g>
	<g>
		<path class="st0" d="M-3671,1929.2h27.5v68.7h27.5v-68.7h27.5v82.4h-13.7v13.7h-13.7v13.7h-27.5v-13.7h-13.7v-13.7h-13.7V1929.2z"
			/>
		<path class="st0" d="M-3574.8,1944.2h13.7v-13.7h68.7v27.5h-54.9v13.7h41.2v13.7h13.7v41.2h-13.7v13.7h-68.7v-27.5h54.9v-13.7
			h-41.2v-13.7h-13.7V1944.2z"/>
	</g>
	<g>
		<path class="st7" d="M-3671,1914.7h27.5v68.7h27.5v-68.7h27.5v82.4h-13.7v13.7h-13.7v13.7h-27.5v-13.7h-13.7v-13.7h-13.7V1914.7z"
			/>
		<path class="st7" d="M-3574.8,1929.7h13.7V1916h68.7v27.5h-54.9v13.7h41.2v13.7h13.7v41.2h-13.7v13.7h-68.7v-27.5h54.9v-13.7
			h-41.2v-13.7h-13.7V1929.7z"/>
	</g>
	<g>
		<path class="st4" d="M-3671,1901.3h27.5v68.7h27.5v-68.7h27.5v82.4h-13.7v13.7h-13.7v13.7h-27.5v-13.7h-13.7v-13.7h-13.7V1901.3z"
			/>
		<path class="st4" d="M-3574.8,1915h13.7v-13.7h68.7v27.5h-54.9v13.7h41.2v13.7h13.7v41.2h-13.7v13.7h-68.7v-27.5h54.9V1970h-41.2
			v-13.7h-13.7V1915z"/>
	</g>
</g>
<g>
	<g>
		<path class="st0" d="M-3096.5,1069.5h-21.6v-86.4h54v10.8h10.8v32.4h-10.8v10.8h-32.4V1069.5z M-3096.5,1015.5h21.6v-10.8h-21.6
			V1015.5z"/>
		<path class="st0" d="M-3042.5,993.9h10.8v-10.8h43.2v10.8h10.8v64.8h-10.8v10.8h-43.2v-10.8h-10.8V993.9z M-3020.9,1047.9h21.6
			v-43.2h-21.6V1047.9z"/>
		<path class="st0" d="M-2956.1,1058.7h-10.8v-75.6h21.6v64.8h43.2v21.6h-54V1058.7z"/>
		<path class="st0" d="M-2912.9,983.1h21.6v32.4h21.6v-32.4h21.6v43.2h-10.8v10.8h-10.8v32.4h-21.6v-32.4h-10.8v-10.8h-10.8V983.1z"
			/>
	</g>
	<g>
		<path class="st30" d="M-3096.5,1061.1h-21.6v-86.4h54v10.8h10.8v32.4h-10.8v10.8h-32.4V1061.1z M-3096.5,1007.1h21.6v-10.8h-21.6
			V1007.1z"/>
		<path class="st30" d="M-3042.5,985.5h10.8v-10.8h43.2v10.8h10.8v64.8h-10.8v10.8h-43.2v-10.8h-10.8V985.5z M-3020.9,1039.5h21.6
			v-43.2h-21.6V1039.5z"/>
		<path class="st30" d="M-2956.1,1050.3h-10.8v-75.6h21.6v64.8h43.2v21.6h-54V1050.3z"/>
		<path class="st30" d="M-2912.9,974.7h21.6v32.4h21.6v-32.4h21.6v43.2h-10.8v10.8h-10.8v32.4h-21.6v-32.4h-10.8v-10.8h-10.8V974.7z
			"/>
	</g>
	<g>
		<path class="st4" d="M-3096.5,1052.9h-21.6v-86.4h54v10.8h10.8v32.4h-10.8v10.8h-32.4V1052.9z M-3096.5,998.9h21.6v-10.8h-21.6
			V998.9z"/>
		<path class="st4" d="M-3042.5,977.3h10.8v-10.8h43.2v10.8h10.8v64.8h-10.8v10.8h-43.2v-10.8h-10.8V977.3z M-3020.9,1031.3h21.6
			v-43.2h-21.6V1031.3z"/>
		<path class="st4" d="M-2956.1,1042.1h-10.8v-75.6h21.6v64.8h43.2v21.6h-54V1042.1z"/>
		<path class="st4" d="M-2912.9,966.5h21.6v32.4h21.6v-32.4h21.6v43.2h-10.8v10.8h-10.8v32.4h-21.6v-32.4h-10.8v-10.8h-10.8V966.5z"
			/>
	</g>
</g>
<image style="overflow:visible;" width="843" height="1118" xlink:href="92BDA6DF2342CFF1.jpg"  transform="matrix(0.24 0 0 0.24 -3327.6343 1116.6825)">
</image>
<g>
	<g class="st1">
		<g>
			<polygon class="st0" points="-2769.7,753 -2769.7,839.5 -2668.5,839.5 -2668.5,827.9 -2681.1,827.9 -2681.1,815.2 -2693.8,815.2 
				-2693.8,802.6 -2706.4,802.6 -2706.4,789.9 -2693.8,789.9 -2693.8,777.3 -2681.1,777.3 -2681.1,764.6 -2668.5,764.6 -2668.5,753 
							"/>
		</g>
		<polygon class="st0" points="-2754.9,814.2 -2769.7,838.4 -2769.7,814.2 		"/>
	</g>
	<rect x="-3257.9" y="730.1" class="st0" width="510.3" height="86.5"/>
	<rect x="-2781.3" y="808.1" class="st0" width="112.8" height="31.6"/>
	<g class="st1">
		<g>
			<polygon class="st0" points="-3250,753.2 -3250,839.6 -3351.2,839.6 -3351.2,828 -3338.6,828 -3338.6,815.4 -3325.9,815.4 
				-3325.9,802.7 -3313.3,802.7 -3313.3,790.1 -3325.9,790.1 -3325.9,777.4 -3338.6,777.4 -3338.6,764.8 -3351.2,764.8 
				-3351.2,753.2 			"/>
		</g>
		<polygon class="st0" points="-3264.8,814.3 -3250,838.6 -3250.1,814.3 		"/>
	</g>
	<g>
		<g>
			<polygon class="st2" points="-2769.7,742.7 -2769.7,829.2 -2668.5,829.2 -2668.5,817.6 -2681.1,817.6 -2681.1,805 -2693.8,805 
				-2693.8,792.3 -2706.4,792.3 -2706.4,779.6 -2693.8,779.6 -2693.8,767 -2681.1,767 -2681.1,754.3 -2668.5,754.3 -2668.5,742.7 
							"/>
			<polygon class="st3" points="-2769.7,731.1 -2769.7,817.6 -2668.5,817.6 -2668.5,806 -2681.1,806 -2681.1,793.4 -2693.8,793.4 
				-2693.8,780.7 -2706.4,780.7 -2706.4,768.1 -2693.8,768.1 -2693.8,755.4 -2681.1,755.4 -2681.1,742.7 -2668.5,742.7 
				-2668.5,731.1 			"/>
		</g>
		<polygon class="st2" points="-2754.9,803.9 -2769.7,828.2 -2769.7,803.9 		"/>
		<g>
			<g>
				<polygon class="st2" points="-3250.5,742.7 -3250.5,829.2 -3351.7,829.2 -3351.7,817.6 -3339.1,817.6 -3339.1,805 -3326.4,805 
					-3326.4,792.3 -3313.8,792.3 -3313.8,779.6 -3326.4,779.6 -3326.4,767 -3339.1,767 -3339.1,754.3 -3351.7,754.3 -3351.7,742.7 
									"/>
				<polygon class="st3" points="-3250.5,731.1 -3250.5,817.6 -3351.7,817.6 -3351.7,806 -3339.1,806 -3339.1,793.4 -3326.4,793.4 
					-3326.4,780.7 -3313.8,780.7 -3313.8,768.1 -3326.4,768.1 -3326.4,755.4 -3339.1,755.4 -3339.1,742.7 -3351.7,742.7 
					-3351.7,731.1 				"/>
			</g>
			<polygon class="st2" points="-3265.3,803.9 -3250.5,828.2 -3250.6,803.9 			"/>
		</g>
		<g>
			<rect x="-3265.3" y="717.4" class="st2" width="510.3" height="86.5"/>
			<rect x="-3265.3" y="704.8" class="st3" width="510.3" height="86.5"/>
		</g>
	</g>
</g>
<g>
	<g>
		<path class="st25" d="M-3151.1,779.7h-37.4v-59.9h37.4v7.5h7.5v15h-7.5v15h7.5v15h-7.5V779.7z M-3173.6,742.3h15v-7.5h-15V742.3z
			 M-3173.6,764.8h15v-7.5h-15V764.8z"/>
		<path class="st25" d="M-3121.2,779.7h-15v-52.4h7.5v-7.5h30v7.5h7.5v52.4h-15v-22.5h-15V779.7z M-3106.2,742.3v-7.5h-15v7.5
			H-3106.2z"/>
		<path class="st25" d="M-3076.2,772.3h-7.5v-52.4h15v44.9h30v15h-37.4V772.3z"/>
		<path class="st25" d="M-3023.8,772.3h-7.5v-52.4h15v44.9h30v15h-37.4V772.3z"/>
		<path class="st25" d="M-2978.9,727.3h7.5v-7.5h30v7.5h7.5v44.9h-7.5v7.5h-30v-7.5h-7.5V727.3z M-2963.9,764.8h15v-30h-15V764.8z"
			/>
		<path class="st25" d="M-2926.5,727.3h7.5v-7.5h30v7.5h7.5v44.9h-7.5v7.5h-30v-7.5h-7.5V727.3z M-2911.5,764.8h15v-30h-15V764.8z"
			/>
		<path class="st25" d="M-2851.6,749.8h-7.5v30h-15v-59.9h15v7.5h7.5v7.5h7.5v-15h15v59.9h-15v-22.5h-7.5V749.8z"/>
	</g>
	<g>
		<path class="st22" d="M-3151.1,773.9h-37.4V714h37.4v7.5h7.5v15h-7.5v15h7.5v15h-7.5V773.9z M-3173.6,736.5h15V729h-15V736.5z
			 M-3173.6,758.9h15v-7.5h-15V758.9z"/>
		<path class="st22" d="M-3121.2,773.9h-15v-52.4h7.5V714h30v7.5h7.5v52.4h-15v-22.5h-15V773.9z M-3106.2,736.5V729h-15v7.5H-3106.2
			z"/>
		<path class="st22" d="M-3076.2,766.4h-7.5V714h15v44.9h30v15h-37.4V766.4z"/>
		<path class="st22" d="M-3023.8,766.4h-7.5V714h15v44.9h30v15h-37.4V766.4z"/>
		<path class="st22" d="M-2978.9,721.5h7.5V714h30v7.5h7.5v44.9h-7.5v7.5h-30v-7.5h-7.5V721.5z M-2963.9,758.9h15v-30h-15V758.9z"/>
		<path class="st22" d="M-2926.5,721.5h7.5V714h30v7.5h7.5v44.9h-7.5v7.5h-30v-7.5h-7.5V721.5z M-2911.5,758.9h15v-30h-15V758.9z"/>
		<path class="st22" d="M-2851.6,744h-7.5v30h-15V714h15v7.5h7.5v7.5h7.5v-15h15v59.9h-15v-22.5h-7.5V744z"/>
	</g>
</g>
<g>
	<path class="st0" d="M-2659.5,926.5h20.7v6.9h-20.7V926.5z"/>
	<path class="st0" d="M-2604.2,943.8h-6.9v-27.6h17.3v3.5h3.5v10.4h-3.5v3.5h-10.4V943.8z M-2604.2,926.5h6.9V923h-6.9V926.5z"/>
	<path class="st0" d="M-2576.6,933.4h-3.5v10.4h-6.9v-27.6h17.3v3.5h3.5v10.4h-3.5v3.5h3.5v10.4h-6.9v-6.9h-3.5V933.4z M-2580,926.5
		h6.9V923h-6.9V926.5z"/>
	<path class="st0" d="M-2559.3,940.3h-3.5v-20.7h3.5v-3.5h17.3v6.9h-13.8v3.5h6.9v6.9h-6.9v3.5h13.8v6.9h-17.3V940.3z"/>
	<path class="st0" d="M-2538.5,919.6h3.5v-3.5h17.3v6.9h-13.8v3.5h10.4v3.5h3.5v10.4h-3.5v3.5h-17.3v-6.9h13.8v-3.5h-10.4v-3.5h-3.5
		V919.6z"/>
	<path class="st0" d="M-2514.4,919.6h3.5v-3.5h17.3v6.9h-13.8v3.5h10.4v3.5h3.5v10.4h-3.5v3.5h-17.3v-6.9h13.8v-3.5h-10.4v-3.5h-3.5
		V919.6z"/>
	<path class="st0" d="M-2459.1,943.8h-6.9v-24.2h3.5v-3.5h13.8v3.5h3.5v24.2h-6.9v-10.4h-6.9V943.8z M-2452.1,926.5V923h-6.9v3.5
		H-2452.1z"/>
	<path class="st0" d="M-2431.4,929.9h-3.5v13.8h-6.9v-27.6h6.9v3.5h3.5v3.5h3.5v-6.9h6.9v27.6h-6.9v-10.4h-3.5V929.9z"/>
	<path class="st0" d="M-2417.6,916.1h6.9v10.4h6.9v-10.4h6.9v13.8h-3.5v3.5h-3.5v10.4h-6.9v-10.4h-3.5v-3.5h-3.5V916.1z"/>
	<path class="st0" d="M-2362.3,943.8h-6.9v-27.6h6.9v6.9h3.5v-3.5h3.5v-3.5h6.9v6.9h-3.5v3.5h-3.5v6.9h3.5v3.5h3.5v6.9h-6.9v-3.5
		h-3.5v-3.5h-3.5V943.8z"/>
	<path class="st0" d="M-2341.6,940.3h-3.5v-20.7h3.5v-3.5h17.3v6.9h-13.8v3.5h6.9v6.9h-6.9v3.5h13.8v6.9h-17.3V940.3z"/>
	<path class="st0" d="M-2320.8,916.1h6.9v10.4h6.9v-10.4h6.9v13.8h-3.5v3.5h-3.5v10.4h-6.9v-10.4h-3.5v-3.5h-3.5V916.1z"/>
	<path class="st0" d="M-2272.4,916.1h20.7v6.9h-6.9v20.7h-6.9V923h-6.9V916.1z"/>
	<path class="st0" d="M-2248.2,919.6h3.5v-3.5h13.8v3.5h3.5v20.7h-3.5v3.5h-13.8v-3.5h-3.5V919.6z M-2241.3,936.8h6.9V923h-6.9
		V936.8z"/>
	<path class="st0" d="M-2193,943.8h-6.9v-27.6h17.3v3.5h3.5v10.4h-3.5v3.5h-10.4V943.8z M-2193,926.5h6.9V923h-6.9V926.5z"/>
	<path class="st0" d="M-2172.2,940.3h-3.5v-24.2h6.9v20.7h13.8v6.9h-17.3V940.3z"/>
	<path class="st0" d="M-2144.6,943.8h-6.9v-24.2h3.5v-3.5h13.8v3.5h3.5v24.2h-6.9v-10.4h-6.9V943.8z M-2137.7,926.5V923h-6.9v3.5
		H-2137.7z"/>
	<path class="st0" d="M-2127.3,916.1h6.9v10.4h6.9v-10.4h6.9v13.8h-3.5v3.5h-3.5v10.4h-6.9v-10.4h-3.5v-3.5h-3.5V916.1z"/>
	<path class="st0" d="M-2078.9,926.5h20.7v6.9h-20.7V926.5z"/>
</g>
<g>
	<path class="st30" d="M-2660.4,920.6h20.7v6.9h-20.7V920.6z"/>
	<path class="st30" d="M-2605.1,937.9h-6.9v-27.6h17.3v3.5h3.5V924h-3.5v3.5h-10.4V937.9z M-2605.1,920.6h6.9v-3.5h-6.9V920.6z"/>
	<path class="st30" d="M-2577.4,927.5h-3.5v10.4h-6.9v-27.6h17.3v3.5h3.5V924h-3.5v3.5h3.5v10.4h-6.9v-6.9h-3.5V927.5z
		 M-2580.9,920.6h6.9v-3.5h-6.9V920.6z"/>
	<path class="st30" d="M-2560.1,934.4h-3.5v-20.7h3.5v-3.5h17.3v6.9h-13.8v3.5h6.9v6.9h-6.9v3.5h13.8v6.9h-17.3V934.4z"/>
	<path class="st30" d="M-2539.4,913.7h3.5v-3.5h17.3v6.9h-13.8v3.5h10.4v3.5h3.5v10.4h-3.5v3.5h-17.3v-6.9h13.8v-3.5h-10.4V924h-3.5
		V913.7z"/>
	<path class="st30" d="M-2515.2,913.7h3.5v-3.5h17.3v6.9h-13.8v3.5h10.4v3.5h3.5v10.4h-3.5v3.5h-17.3v-6.9h13.8v-3.5h-10.4V924h-3.5
		V913.7z"/>
	<path class="st30" d="M-2459.9,937.9h-6.9v-24.2h3.5v-3.5h13.8v3.5h3.5v24.2h-6.9v-10.4h-6.9V937.9z M-2453,920.6v-3.5h-6.9v3.5
		H-2453z"/>
	<path class="st30" d="M-2432.3,924h-3.5v13.8h-6.9v-27.6h6.9v3.5h3.5v3.5h3.5v-6.9h6.9v27.6h-6.9v-10.4h-3.5V924z"/>
	<path class="st30" d="M-2418.5,910.2h6.9v10.4h6.9v-10.4h6.9V924h-3.5v3.5h-3.5v10.4h-6.9v-10.4h-3.5V924h-3.5V910.2z"/>
	<path class="st30" d="M-2363.2,937.9h-6.9v-27.6h6.9v6.9h3.5v-3.5h3.5v-3.5h6.9v6.9h-3.5v3.5h-3.5v6.9h3.5v3.5h3.5v6.9h-6.9v-3.5
		h-3.5v-3.5h-3.5V937.9z"/>
	<path class="st30" d="M-2342.4,934.4h-3.5v-20.7h3.5v-3.5h17.3v6.9h-13.8v3.5h6.9v6.9h-6.9v3.5h13.8v6.9h-17.3V934.4z"/>
	<path class="st30" d="M-2321.7,910.2h6.9v10.4h6.9v-10.4h6.9V924h-3.5v3.5h-3.5v10.4h-6.9v-10.4h-3.5V924h-3.5V910.2z"/>
	<path class="st30" d="M-2273.3,910.2h20.7v6.9h-6.9v20.7h-6.9v-20.7h-6.9V910.2z"/>
	<path class="st30" d="M-2249.1,913.7h3.5v-3.5h13.8v3.5h3.5v20.7h-3.5v3.5h-13.8v-3.5h-3.5V913.7z M-2242.2,930.9h6.9v-13.8h-6.9
		V930.9z"/>
	<path class="st30" d="M-2193.8,937.9h-6.9v-27.6h17.3v3.5h3.5V924h-3.5v3.5h-10.4V937.9z M-2193.8,920.6h6.9v-3.5h-6.9V920.6z"/>
	<path class="st30" d="M-2173.1,934.4h-3.5v-24.2h6.9v20.7h13.8v6.9h-17.3V934.4z"/>
	<path class="st30" d="M-2145.4,937.9h-6.9v-24.2h3.5v-3.5h13.8v3.5h3.5v24.2h-6.9v-10.4h-6.9V937.9z M-2138.5,920.6v-3.5h-6.9v3.5
		H-2138.5z"/>
	<path class="st30" d="M-2128.2,910.2h6.9v10.4h6.9v-10.4h6.9V924h-3.5v3.5h-3.5v10.4h-6.9v-10.4h-3.5V924h-3.5V910.2z"/>
	<path class="st30" d="M-2079.8,920.6h20.7v6.9h-20.7V920.6z"/>
</g>
<g>
	<path class="st4" d="M-2660.4,916.2h20.7v6.9h-20.7V916.2z"/>
	<path class="st4" d="M-2605.1,933.4h-6.9v-27.6h17.3v3.5h3.5v10.4h-3.5v3.5h-10.4V933.4z M-2605.1,916.2h6.9v-3.5h-6.9V916.2z"/>
	<path class="st4" d="M-2577.4,923.1h-3.5v10.4h-6.9v-27.6h17.3v3.5h3.5v10.4h-3.5v3.5h3.5v10.4h-6.9v-6.9h-3.5V923.1z
		 M-2580.9,916.2h6.9v-3.5h-6.9V916.2z"/>
	<path class="st4" d="M-2560.1,930h-3.5v-20.7h3.5v-3.5h17.3v6.9h-13.8v3.5h6.9v6.9h-6.9v3.5h13.8v6.9h-17.3V930z"/>
	<path class="st4" d="M-2539.4,909.3h3.5v-3.5h17.3v6.9h-13.8v3.5h10.4v3.5h3.5V930h-3.5v3.5h-17.3v-6.9h13.8v-3.5h-10.4v-3.5h-3.5
		V909.3z"/>
	<path class="st4" d="M-2515.2,909.3h3.5v-3.5h17.3v6.9h-13.8v3.5h10.4v3.5h3.5V930h-3.5v3.5h-17.3v-6.9h13.8v-3.5h-10.4v-3.5h-3.5
		V909.3z"/>
	<path class="st4" d="M-2459.9,933.4h-6.9v-24.2h3.5v-3.5h13.8v3.5h3.5v24.2h-6.9v-10.4h-6.9V933.4z M-2453,916.2v-3.5h-6.9v3.5
		H-2453z"/>
	<path class="st4" d="M-2432.3,919.6h-3.5v13.8h-6.9v-27.6h6.9v3.5h3.5v3.5h3.5v-6.9h6.9v27.6h-6.9v-10.4h-3.5V919.6z"/>
	<path class="st4" d="M-2418.5,905.8h6.9v10.4h6.9v-10.4h6.9v13.8h-3.5v3.5h-3.5v10.4h-6.9v-10.4h-3.5v-3.5h-3.5V905.8z"/>
	<path class="st4" d="M-2363.2,933.4h-6.9v-27.6h6.9v6.9h3.5v-3.5h3.5v-3.5h6.9v6.9h-3.5v3.5h-3.5v6.9h3.5v3.5h3.5v6.9h-6.9V930
		h-3.5v-3.5h-3.5V933.4z"/>
	<path class="st4" d="M-2342.4,930h-3.5v-20.7h3.5v-3.5h17.3v6.9h-13.8v3.5h6.9v6.9h-6.9v3.5h13.8v6.9h-17.3V930z"/>
	<path class="st4" d="M-2321.7,905.8h6.9v10.4h6.9v-10.4h6.9v13.8h-3.5v3.5h-3.5v10.4h-6.9v-10.4h-3.5v-3.5h-3.5V905.8z"/>
	<path class="st4" d="M-2273.3,905.8h20.7v6.9h-6.9v20.7h-6.9v-20.7h-6.9V905.8z"/>
	<path class="st4" d="M-2249.1,909.3h3.5v-3.5h13.8v3.5h3.5V930h-3.5v3.5h-13.8V930h-3.5V909.3z M-2242.2,926.5h6.9v-13.8h-6.9
		V926.5z"/>
	<path class="st4" d="M-2193.8,933.4h-6.9v-27.6h17.3v3.5h3.5v10.4h-3.5v3.5h-10.4V933.4z M-2193.8,916.2h6.9v-3.5h-6.9V916.2z"/>
	<path class="st4" d="M-2173.1,930h-3.5v-24.2h6.9v20.7h13.8v6.9h-17.3V930z"/>
	<path class="st4" d="M-2145.4,933.4h-6.9v-24.2h3.5v-3.5h13.8v3.5h3.5v24.2h-6.9v-10.4h-6.9V933.4z M-2138.5,916.2v-3.5h-6.9v3.5
		H-2138.5z"/>
	<path class="st4" d="M-2128.2,905.8h6.9v10.4h6.9v-10.4h6.9v13.8h-3.5v3.5h-3.5v10.4h-6.9v-10.4h-3.5v-3.5h-3.5V905.8z"/>
	<path class="st4" d="M-2079.8,916.2h20.7v6.9h-20.7V916.2z"/>
</g>
<path class="st31" d="M90.4,205.3h-2.2H77.5H38.8H25.9h-1526.6h-12.9h-38.7h-12.9h-12.9v22.6v840.8v11.3v33.9v11.3v11.3h25.8H25.9
	h12.9h38.7h10.8h2.2h12.9V205.3H90.4z M36.8,1111.9h-1552.4h-12.9v-11.3h-12.9v-11.3h-12.9V1078V259.8v-11.3h12.9v-11.3h12.9v-11.3
	h12.9H36.8h12.9v11.3h12.9v11.3h12.9v11.3V1078v11.3H62.6v11.3H49.7v11.3H36.8z"/>
<path class="st32" d="M101.4,214.1h-2.2H88.5H49.8H36.9h-1526.6h-12.9h-38.7h-12.9h-12.9v22.6v840.8v11.3v33.9v11.3v11.3h25.8H36.9
	h12.9h38.7h10.8h2.2h12.9V214.1H101.4z M88.5,270.6v818.2v11.3H75.6v11.3H62.7v11.3H49.8h-1552.4h-12.9v-11.3h-12.9V1100h-12.9
	v-11.3V270.6v-11.3h12.9V248h12.9v-11.3h12.9h204.3h135.5H49.8h12.9V248h12.9v11.3h12.9V270.6z"/>
<polygon class="st31" points="-1120.1,-140.6 -1120.1,-150.6 -1131.4,-150.6 -1542.1,-150.6 -1542.1,-54.6 -1132.2,-54.6 
	-1132.2,-64.6 -1131.4,-64.6 -1120.1,-64.6 -1120.1,-72.6 -1120.1,-74.7 -1108.7,-74.7 -1108.7,-82.7 -1108.7,-140.6 "/>
<polygon class="st32" points="-1120.6,-150.6 -1120.6,-160.6 -1132,-160.6 -1554.7,-160.6 -1554.7,-152.6 -1554.7,-150.6 
	-1566.1,-150.6 -1566.1,-92.7 -1554.8,-92.7 -1554.8,-84.7 -1554.7,-84.7 -1554.7,-74.6 -1542.6,-74.6 -1542.6,-64.6 -1132.8,-64.6 
	-1132.8,-74.6 -1132,-74.6 -1120.6,-74.6 -1120.6,-82.6 -1120.6,-84.7 -1109.3,-84.7 -1109.3,-92.7 -1109.3,-150.6 "/>
<rect x="-1628" y="64.1" class="st13" width="92.2" height="32.8"/>
<text transform="matrix(1 0 0 1 -1606.8607 82.3137)" class="st4" style="font-family:'EditUndoBRK'; font-size:31.5429px;">DMG</text>
<g>
	<g>
		<polygon class="st22" points="-1428.2,98.5 -1173.5,98.5 -1173.5,80.5 -1428.2,80.5 -1428.2,80.6 -1428.2,85.7 -1435.1,85.7 
			-1435.1,93.4 -1428.2,93.4 -1428.2,98.5 		"/>
	</g>
	<polygon class="st22" points="-1164.9,85.7 -1164.9,80.6 -1164.9,80.5 -1220.5,80.5 -1220.5,98.5 -1164.9,98.5 -1164.9,98.4 
		-1164.9,93.3 -1157.9,93.3 -1157.9,85.7 	"/>
</g>
<g class="st33">
	<polygon class="st34" points="-784.6,311.7 -784.6,233.7 -874.5,233.7 -874.5,243.7 -884.6,243.7 -884.6,301.6 -874.5,301.6 
		-874.5,311.7 	"/>
	<polygon class="st34" points="-549.6,242.7 -549.6,232.7 -559.6,232.7 -641.6,232.7 -641.6,310.7 -559.6,310.7 -549.6,310.7 
		-549.6,300.6 -539.5,300.6 -539.5,242.7 	"/>
	<rect x="-864.6" y="242.7" class="st34" width="305" height="78"/>
</g>
<g>
	<polygon class="st32" points="-774.6,311.7 -774.6,233.7 -864.5,233.7 -864.5,243.7 -874.6,243.7 -874.6,301.6 -864.5,301.6 
		-864.5,311.7 	"/>
	<polygon class="st32" points="-784.6,301.7 -784.6,223.7 -874.5,223.7 -874.5,233.7 -884.6,233.7 -884.6,291.6 -874.5,291.6 
		-874.5,301.7 	"/>
	<polygon class="st32" points="-559.6,243.7 -559.6,233.7 -569.6,233.7 -651.6,233.7 -651.6,311.7 -569.6,311.7 -559.6,311.7 
		-559.6,301.6 -549.5,301.6 -549.5,243.7 	"/>
	<polygon class="st32" points="-549.6,233.7 -549.6,223.7 -559.6,223.7 -641.6,223.7 -641.6,301.7 -559.6,301.7 -549.6,301.7 
		-549.6,291.6 -539.5,291.6 -539.5,233.7 	"/>
	<rect x="-774.6" y="233.7" class="st32" width="123" height="78"/>
</g>
<g>
	<polygon class="st35" points="-774.6,301.7 -774.6,223.7 -864.5,223.7 -864.5,233.7 -874.6,233.7 -874.6,291.6 -864.5,291.6 
		-864.5,301.7 	"/>
	<polygon class="st35" points="-559.6,233.7 -559.6,223.7 -569.6,223.7 -637.6,223.7 -637.6,301.7 -569.6,301.7 -559.6,301.7 
		-559.6,291.6 -549.5,291.6 -549.5,233.7 	"/>
</g>
<g class="st33">
	<polygon class="st34" points="-784.6,48.1 -784.6,-29.9 -874.5,-29.9 -874.5,-19.9 -884.6,-19.9 -884.6,38 -874.5,38 -874.5,48.1 	
		"/>
	<polygon class="st34" points="-549.6,-20.9 -549.6,-30.9 -559.6,-30.9 -641.6,-30.9 -641.6,47.1 -559.6,47.1 -549.6,47.1 
		-549.6,37 -539.5,37 -539.5,-20.9 	"/>
	<rect x="-864.6" y="-20.9" class="st34" width="305" height="78"/>
</g>
<g>
	<polygon class="st32" points="-774.6,48.1 -774.6,-29.9 -864.5,-29.9 -864.5,-19.9 -874.6,-19.9 -874.6,38 -864.5,38 -864.5,48.1 	
		"/>
	<polygon class="st32" points="-784.6,38.1 -784.6,-39.9 -874.5,-39.9 -874.5,-29.9 -884.6,-29.9 -884.6,28 -874.5,28 -874.5,38.1 	
		"/>
	<polygon class="st32" points="-559.6,-19.9 -559.6,-29.9 -569.6,-29.9 -651.6,-29.9 -651.6,48.1 -569.6,48.1 -559.6,48.1 
		-559.6,38 -549.5,38 -549.5,-19.9 	"/>
	<polygon class="st32" points="-549.6,-29.9 -549.6,-39.9 -559.6,-39.9 -641.6,-39.9 -641.6,38.1 -559.6,38.1 -549.6,38.1 
		-549.6,28 -539.5,28 -539.5,-29.9 	"/>
	<rect x="-774.6" y="-29.9" class="st32" width="123" height="78"/>
</g>
<g>
	<polygon class="st35" points="-774.6,38.1 -774.6,-39.9 -864.5,-39.9 -864.5,-29.9 -874.6,-29.9 -874.6,28 -864.5,28 -864.5,38.1 	
		"/>
	<polygon class="st35" points="-559.6,-29.9 -559.6,-39.9 -569.6,-39.9 -637.6,-39.9 -637.6,38.1 -569.6,38.1 -559.6,38.1 
		-559.6,28 -549.5,28 -549.5,-29.9 	"/>
</g>
<rect x="-789.6" y="223.7" class="st35" width="169" height="78"/>
<rect x="-789.6" y="-39.9" class="st35" width="169" height="78"/>
<g>
	<rect x="-794.6" y="255.9" class="st13" width="179" height="81.8"/>
	<text transform="matrix(1 0 0 1 -772.504 283.5367)" class="st4" style="font-family:'EditUndoBRK'; font-size:48px;">124 KM</text>
</g>
<g>
	<rect x="91" y="233.7" class="st31" width="8" height="2"/>
	<polygon class="st31" points="10,233.7 10,243.7 0,243.7 0,301.6 9.9,301.6 9.9,311.6 10,311.6 10,311.7 19.9,311.7 19.9,321.7 
		75,321.7 75,233.7 	"/>
</g>
<polygon class="st32" points="100,233.7 100,223.7 10.1,223.7 10.1,233.7 0,233.7 0,291.6 10,291.6 10,301.6 10.1,301.6 10.1,301.7 
	20.1,301.7 20.1,311.7 110,311.7 110,233.7 "/>
<g>
	<g>
		<g>
			<polygon class="st2" points="70.1,245.2 64.7,245.2 32.2,245.2 32.2,250.5 26.9,250.5 26.9,288.3 32.2,288.3 32.2,293.7 
				64.7,293.7 70.1,293.7 70.1,288.3 75.4,288.3 75.4,250.5 70.1,250.5 			"/>
			<polygon class="st3" points="70.3,239.4 65,239.4 32.3,239.4 32.3,244.8 26.9,244.8 26.9,282.9 32.3,282.9 32.3,288.2 65,288.2 
				70.3,288.2 70.3,282.9 75.7,282.9 75.7,244.8 70.3,244.8 			"/>
		</g>
		<g>
			<rect x="39.8" y="268.5" class="st4" width="24.2" height="4.8"/>
			<rect x="39.8" y="257.4" class="st4" width="24.2" height="4.8"/>
		</g>
	</g>
	<g class="st33">
		<polygon class="st36" points="32.3,293.8 32.3,298.8 37.6,298.8 70.3,298.8 70.3,293.8 37.6,293.8 		"/>
		<rect x="26.9" y="288.4" class="st36" width="5.4" height="5"/>
		<rect x="70.3" y="288.4" class="st36" width="5.4" height="5"/>
	</g>
</g>
<g>
	<rect x="91" y="10" class="st31" width="8" height="2"/>
	<polygon class="st31" points="10,10 10,20.1 0,20.1 0,77.9 9.9,77.9 9.9,87.9 10,87.9 10,88 19.9,88 19.9,98 75,98 75,10 	"/>
</g>
<polygon class="st32" points="100,10 100,0 10.1,0 10.1,10.1 0,10.1 0,67.9 10,67.9 10,77.9 10.1,77.9 10.1,78 20.1,78 20.1,88 
	110,88 110,10 "/>
<g>
	<g>
		<g>
			<polygon class="st2" points="70.1,-98.1 64.7,-98.1 32.2,-98.1 32.2,-92.7 26.9,-92.7 26.9,-54.9 32.2,-54.9 32.2,-49.6 
				64.7,-49.6 70.1,-49.6 70.1,-54.9 75.4,-54.9 75.4,-92.7 70.1,-92.7 			"/>
			<polygon class="st3" points="70.3,-103.8 65,-103.8 32.3,-103.8 32.3,-98.4 26.9,-98.4 26.9,-60.4 32.3,-60.4 32.3,-55 65,-55 
				70.3,-55 70.3,-60.4 75.7,-60.4 75.7,-98.4 70.3,-98.4 			"/>
		</g>
		<g>
			<rect x="39.8" y="-74.7" class="st4" width="24.2" height="4.8"/>
			<rect x="39.8" y="-85.9" class="st4" width="24.2" height="4.8"/>
		</g>
	</g>
	<g class="st33">
		<polygon class="st36" points="32.3,-49.4 32.3,-44.4 37.6,-44.4 70.3,-44.4 70.3,-49.4 37.6,-49.4 		"/>
		<rect x="26.9" y="-54.8" class="st36" width="5.4" height="5"/>
		<rect x="70.3" y="-54.8" class="st36" width="5.4" height="5"/>
	</g>
</g>
<polygon class="st22" points="-1384.1,-17.6 -1384.1,-22.8 -1397.6,-22.8 -1398.1,-22.8 -1411.1,-22.8 -1411.6,-22.8 -1424.6,-22.8 
	-1425.1,-22.8 -1438.6,-22.8 -1438.6,-17.6 -1445.2,-17.6 -1445.2,-10 -1438.6,-10 -1438.6,-4.8 -1438.2,-4.8 -1432.3,-4.8 
	-1431.2,-4.8 -1425.3,-4.8 -1425.1,-4.8 -1424.7,-4.8 -1424.6,-4.8 -1418.9,-4.8 -1417.7,-4.8 -1411.8,-4.8 -1411.6,-4.8 
	-1411.3,-4.8 -1411.1,-4.8 -1405.4,-4.8 -1404.2,-4.8 -1398.3,-4.8 -1398.1,-4.8 -1397.8,-4.8 -1397.6,-4.8 -1391.9,-4.8 
	-1390.7,-4.8 -1384.9,-4.8 -1384.1,-4.8 -1384.1,-9.9 -1377.8,-9.9 -1377.8,-17.6 "/>
<polygon class="st37" points="-1162.1,-254.4 -1162.1,-259.7 -1175.5,-259.7 -1176.1,-259.7 -1189,-259.7 -1189.5,-259.7 
	-1202.5,-259.7 -1203,-259.7 -1215.7,-259.7 -1216.5,-259.7 -1229.1,-259.7 -1229.7,-259.7 -1242.6,-259.7 -1243.1,-259.7 
	-1256.1,-259.7 -1256.6,-259.7 -1269.6,-259.7 -1270.1,-259.7 -1283.1,-259.7 -1283.6,-259.7 -1296.5,-259.7 -1297.1,-259.7 
	-1310,-259.7 -1310.5,-259.7 -1323.5,-259.7 -1324,-259.7 -1337,-259.7 -1337.5,-259.7 -1350.4,-259.7 -1351,-259.7 -1363.9,-259.7 
	-1364.4,-259.7 -1377.4,-259.7 -1377.9,-259.7 -1390.9,-259.7 -1391.4,-259.7 -1404.4,-259.7 -1404.9,-259.7 -1417.8,-259.7 
	-1418.4,-259.7 -1431.8,-259.7 -1431.8,-254.5 -1438.5,-254.5 -1438.5,-246.8 -1431.8,-246.8 -1431.8,-241.6 -1431.5,-241.6 
	-1425.6,-241.6 -1424.5,-241.6 -1418.6,-241.6 -1418.4,-241.6 -1418,-241.6 -1417.8,-241.6 -1412.1,-241.6 -1411,-241.6 
	-1405.1,-241.6 -1404.9,-241.6 -1404.5,-241.6 -1404.4,-241.6 -1398.7,-241.6 -1397.5,-241.6 -1391.6,-241.6 -1391.4,-241.6 
	-1391.1,-241.6 -1390.9,-241.6 -1385.2,-241.6 -1384,-241.6 -1378.1,-241.6 -1377.9,-241.6 -1377.6,-241.6 -1377.4,-241.6 
	-1371.7,-241.6 -1370.5,-241.6 -1364.7,-241.6 -1364.4,-241.6 -1364.1,-241.6 -1363.9,-241.6 -1358.2,-241.6 -1357.1,-241.6 
	-1351.2,-241.6 -1351,-241.6 -1350.6,-241.6 -1350.4,-241.6 -1344.7,-241.6 -1343.6,-241.6 -1337.7,-241.6 -1337.5,-241.6 
	-1337.2,-241.6 -1337,-241.6 -1331.3,-241.6 -1330.1,-241.6 -1324.2,-241.6 -1324,-241.6 -1323.7,-241.6 -1323.5,-241.6 
	-1317.8,-241.6 -1316.6,-241.6 -1310.8,-241.6 -1310.5,-241.6 -1310.2,-241.6 -1310,-241.6 -1304.3,-241.6 -1303.2,-241.6 
	-1297.3,-241.6 -1297.1,-241.6 -1296.7,-241.6 -1296.5,-241.6 -1290.8,-241.6 -1289.7,-241.6 -1283.8,-241.6 -1283.6,-241.6 
	-1283.2,-241.6 -1283.1,-241.6 -1277.4,-241.6 -1276.2,-241.6 -1270.3,-241.6 -1270.1,-241.6 -1269.8,-241.6 -1269.6,-241.6 
	-1263.9,-241.6 -1262.7,-241.6 -1256.8,-241.6 -1256.6,-241.6 -1256.3,-241.6 -1256.1,-241.6 -1250.4,-241.6 -1249.2,-241.6 
	-1243.4,-241.6 -1243.1,-241.6 -1242.8,-241.6 -1242.6,-241.6 -1236.9,-241.6 -1235.8,-241.6 -1229.9,-241.6 -1229.7,-241.6 
	-1229.3,-241.6 -1229.1,-241.6 -1223.4,-241.6 -1222.3,-241.6 -1216.5,-241.6 -1216.4,-241.6 -1216.2,-241.6 -1215.7,-241.6 
	-1210.3,-241.6 -1209.1,-241.6 -1203.2,-241.6 -1203,-241.6 -1202.7,-241.6 -1202.5,-241.6 -1196.8,-241.6 -1195.6,-241.6 
	-1189.8,-241.6 -1189.5,-241.6 -1189.2,-241.6 -1189,-241.6 -1183.3,-241.6 -1182.2,-241.6 -1176.3,-241.6 -1176.1,-241.6 
	-1175.7,-241.6 -1175.5,-241.6 -1169.8,-241.6 -1168.7,-241.6 -1162.8,-241.6 -1162.1,-241.6 -1162.1,-246.8 -1155.8,-246.8 
	-1155.8,-254.4 "/>
</svg>
