<?xml version="1.0" encoding="utf-8"?>
<!-- Generator: Adobe Illustrator 22.0.1, SVG Export Plug-In . SVG Version: 6.00 Build 0)  -->
<svg version="1.1" id="Layer_1" xmlns="http://www.w3.org/2000/svg" xmlns:xlink="http://www.w3.org/1999/xlink" x="0px" y="0px"
	 width="38px" height="46.3px" viewBox="0 0 38 46.3" style="enable-background:new 0 0 38 46.3;" xml:space="preserve">
<style type="text/css">
	.st0{fill:#5895B7;}
	.st1{opacity:0.8;}
	.st2{fill:#C17620;}
	.st3{fill:#F4C24A;}
	.st4{fill:#FFFFFF;}
	.st5{fill:#2A6FBA;}
	.st6{fill:#4ABAEF;}
	.st7{fill:#95C9C8;}
	.st8{fill:#DDEFEE;}
	.st9{fill:#1B8E6F;}
	.st10{fill:#3CEA8A;}
	.st11{opacity:0.4;fill:#666666;}
	.st12{fill:#33BC6E;}
	.st13{fill:none;}
	.st14{fill:#7149A4;}
	.st15{fill:#BD86E0;}
	.st16{opacity:0.4;fill:#666666;stroke:#666666;stroke-width:4;stroke-linejoin:bevel;stroke-miterlimit:10;}
	.st17{fill:#F2F2F2;}
	.st18{fill:#E6E6E6;}
	.st19{fill:none;stroke:#000000;stroke-width:4;stroke-linejoin:bevel;stroke-miterlimit:10;}
	.st20{fill:#C6E0DE;}
	.st21{fill:#A7C6C3;}
	.st22{fill:#EE3D53;}
	.st23{fill:none;stroke:#000000;stroke-width:2;stroke-miterlimit:10;}
	.st24{fill:#A17559;}
	.st25{fill:#910E46;}
	.st26{fill:#238D6F;}
	.st27{fill:#704CA2;}
	.st28{fill:#47E88D;}
	.st29{fill:#BC88DE;}
	.st30{fill:#CCCCCC;}
	.st31{fill:#5B2616;}
	.st32{opacity:0.38;fill:#2D3D3E;}
	.st33{opacity:0.38;}
	.st34{fill:#2D3D3E;}
	.st35{fill:#3F180F;}
	.st36{fill:#1A1A1A;}
	.st37{fill:#38140C;}
</style>
<g>
	<rect x="-1905.1" y="2194.2" class="st0" width="484" height="82"/>
	<rect x="-1453.1" y="2268.2" class="st0" width="107" height="30"/>
	<g class="st1">
		<g>
			<polygon class="st0" points="-1889.1,2214.2 -1889.1,2296.2 -1985.1,2296.2 -1985.1,2285.2 -1973.1,2285.2 -1973.1,2273.2 
				-1961.1,2273.2 -1961.1,2261.2 -1949.1,2261.2 -1949.1,2249.2 -1961.1,2249.2 -1961.1,2237.2 -1973.1,2237.2 -1973.1,2225.2 
				-1985.1,2225.2 -1985.1,2214.2 			"/>
		</g>
		<polygon class="st0" points="-1903.1,2272.2 -1889.1,2295.2 -1889.1,2272.2 		"/>
	</g>
	<g>
		<g>
			<polygon class="st2" points="-1442.1,2206.2 -1442.1,2288.2 -1346.1,2288.2 -1346.1,2277.2 -1358.1,2277.2 -1358.1,2265.2 
				-1370.1,2265.2 -1370.1,2253.2 -1382.1,2253.2 -1382.1,2241.2 -1370.1,2241.2 -1370.1,2229.2 -1358.1,2229.2 -1358.1,2217.2 
				-1346.1,2217.2 -1346.1,2206.2 			"/>
			<polygon class="st3" points="-1442.1,2195.2 -1442.1,2277.2 -1346.1,2277.2 -1346.1,2266.2 -1358.1,2266.2 -1358.1,2254.2 
				-1370.1,2254.2 -1370.1,2242.2 -1382.1,2242.2 -1382.1,2230.2 -1370.1,2230.2 -1370.1,2218.2 -1358.1,2218.2 -1358.1,2206.2 
				-1346.1,2206.2 -1346.1,2195.2 			"/>
		</g>
		<polygon class="st2" points="-1428.1,2264.2 -1442.1,2287.2 -1442,2264.2 		"/>
		<g>
			<g>
				<polygon class="st2" points="-1898.1,2206.2 -1898.1,2288.2 -1994.1,2288.2 -1994.1,2277.2 -1982.1,2277.2 -1982.1,2265.2 
					-1970.1,2265.2 -1970.1,2253.2 -1958.1,2253.2 -1958.1,2241.2 -1970.1,2241.2 -1970.1,2229.2 -1982.1,2229.2 -1982.1,2217.2 
					-1994.1,2217.2 -1994.1,2206.2 				"/>
				<polygon class="st3" points="-1898.1,2195.2 -1898.1,2277.2 -1994.1,2277.2 -1994.1,2266.2 -1982.1,2266.2 -1982.1,2254.2 
					-1970.1,2254.2 -1970.1,2242.2 -1958.1,2242.2 -1958.1,2230.2 -1970.1,2230.2 -1970.1,2218.2 -1982.1,2218.2 -1982.1,2206.2 
					-1994.1,2206.2 -1994.1,2195.2 				"/>
			</g>
			<polygon class="st2" points="-1912.1,2264.2 -1898.1,2287.2 -1898.1,2264.2 			"/>
		</g>
		<g>
			<rect x="-1912.1" y="2182.2" class="st2" width="484" height="82"/>
			<rect x="-1912.1" y="2170.2" class="st3" width="484" height="82"/>
		</g>
	</g>
	<g>
		<path class="st4" d="M-1841.4,2230h-8.6v-34.6h8.6v13h8.6v-13h8.6v34.6h-8.6v-13h-8.6V2230z"/>
		<path class="st4" d="M-1819.8,2199.7h4.3v-4.3h17.3v4.3h4.3v25.9h-4.3v4.3h-17.3v-4.3h-4.3V2199.7z M-1811.2,2221.3h8.6V2204h-8.6
			V2221.3z"/>
		<path class="st4" d="M-1781,2230h-8.6v-34.6h8.6v17.3h4.3v-4.3h4.3v4.3h4.3v-17.3h8.6v34.6h-8.6v-4.3h-4.3v-4.3h-4.3v4.3h-4.3
			V2230z"/>
		<path class="st4" d="M-1724.8,2195.4h25.9v8.6h-8.6v25.9h-8.6V2204h-8.6V2195.4z"/>
		<path class="st4" d="M-1694.6,2199.7h4.3v-4.3h17.3v4.3h4.3v25.9h-4.3v4.3h-17.3v-4.3h-4.3V2199.7z M-1685.9,2221.3h8.6V2204h-8.6
			V2221.3z"/>
		<path class="st4" d="M-1625.4,2230h-8.6v-34.6h21.6v4.3h4.3v13h-4.3v4.3h-13V2230z M-1625.4,2208.4h8.6v-4.3h-8.6V2208.4z"/>
		<path class="st4" d="M-1599.5,2225.6h-4.3v-30.2h8.6v25.9h17.3v8.6h-21.6V2225.6z"/>
		<path class="st4" d="M-1565,2230h-8.6v-30.2h4.3v-4.3h17.3v4.3h4.3v30.2h-8.6v-13h-8.6V2230z M-1556.3,2208.4v-4.3h-8.6v4.3
			H-1556.3z"/>
		<path class="st4" d="M-1543.4,2195.4h8.6v13h8.6v-13h8.6v17.3h-4.3v4.3h-4.3v13h-8.6v-13h-4.3v-4.3h-4.3V2195.4z"/>
	</g>
</g>
<polygon class="st5" points="-1736.1,2463.2 -1748.1,2463.2 -1821.1,2463.2 -1821.1,2475.2 -1833.1,2475.2 -1833.1,2560.2 
	-1821.1,2560.2 -1821.1,2572.2 -1748.1,2572.2 -1736.1,2572.2 -1736.1,2560.2 -1724.1,2560.2 -1724.1,2475.2 -1736.1,2475.2 "/>
<polygon class="st5" points="-1736.1,2463.2 -1748.1,2463.2 -1821.1,2463.2 -1821.1,2475.2 -1833.1,2475.2 -1833.1,2560.2 
	-1821.1,2560.2 -1821.1,2572.2 -1748.1,2572.2 -1736.1,2572.2 -1736.1,2560.2 -1724.1,2560.2 -1724.1,2475.2 -1736.1,2475.2 "/>
<g>
	<path class="st4" d="M-1796.5,2497.4h28.4v5.7h5.7v17.1h-5.7v5.7h-17.1v-11.4h11.4v-5.7h-22.8V2497.4z M-1785.1,2531.5h11.4v11.4
		h-11.4V2531.5z"/>
</g>
<polygon class="st5" points="-1585.1,2463.2 -1597.1,2463.2 -1670.1,2463.2 -1670.1,2475.2 -1682.1,2475.2 -1682.1,2560.2 
	-1670.1,2560.2 -1670.1,2572.2 -1597.1,2572.2 -1585.1,2572.2 -1585.1,2560.2 -1573.1,2560.2 -1573.1,2475.2 -1585.1,2475.2 "/>
<polygon class="st6" points="-1585.1,2453.2 -1597.1,2453.2 -1670.1,2453.2 -1670.1,2465.2 -1682.1,2465.2 -1682.1,2550.2 
	-1670.1,2550.2 -1670.1,2562.2 -1597.1,2562.2 -1585.1,2562.2 -1585.1,2550.2 -1573.1,2550.2 -1573.1,2465.2 -1585.1,2465.2 "/>
<g>
	<path class="st4" d="M-1645.5,2487.4h28.4v5.7h5.7v17.1h-5.7v5.7h-17.1v-11.4h11.4v-5.7h-22.8V2487.4z M-1634.1,2521.5h11.4v11.4
		h-11.4V2521.5z"/>
</g>
<g>
	<polygon class="st0" points="-550.1,2307.7 -561.6,2307.7 -561.6,2296.1 -573.2,2296.1 -573.2,2283.3 -1071.9,2283.3 
		-1071.9,2296.1 -1083.5,2296.1 -1083.5,2307.7 -1095.1,2307.7 -1095.1,2992.4 -1083.5,2992.4 -1083.5,3004.1 -1071.9,3004.1 
		-1071.9,3016.9 -573.2,3016.9 -573.2,3004.1 -561.6,3004.1 -561.6,2992.4 -550.1,2992.4 	"/>
	<polygon class="st7" points="-550.1,2295.7 -561.6,2295.7 -561.6,2284 -573.2,2284 -573.2,2271.2 -1071.9,2271.2 -1071.9,2284 
		-1083.5,2284 -1083.5,2295.7 -1095.1,2295.7 -1095.1,2980.4 -1083.5,2980.4 -1083.5,2992 -1071.9,2992 -1071.9,3004.9 
		-573.2,3004.9 -573.2,2992 -561.6,2992 -561.6,2980.4 -550.1,2980.4 	"/>
	<polygon class="st8" points="-550.1,2283.7 -561.6,2283.7 -561.6,2272 -573.2,2272 -573.2,2259.2 -1071.9,2259.2 -1071.9,2272 
		-1083.5,2272 -1083.5,2283.7 -1095.1,2283.7 -1095.1,2968.4 -1083.5,2968.4 -1083.5,2980 -1071.9,2980 -1071.9,2992.8 
		-573.2,2992.8 -573.2,2980 -561.6,2980 -561.6,2968.4 -550.1,2968.4 	"/>
</g>
<g>
	<polygon class="st0" points="-2036,315.1 -2040.1,315.1 -2040.1,311 -2044.2,311 -2044.2,306.5 -2220.4,306.5 -2220.4,311 
		-2224.5,311 -2224.5,315.1 -2228.6,315.1 -2228.6,557.1 -2224.5,557.1 -2224.5,561.2 -2220.4,561.2 -2220.4,565.7 -2044.2,565.7 
		-2044.2,561.2 -2040.1,561.2 -2040.1,557.1 -2036,557.1 	"/>
	<polygon class="st7" points="-2036,310.9 -2040.1,310.9 -2040.1,306.8 -2044.2,306.8 -2044.2,302.3 -2220.4,302.3 -2220.4,306.8 
		-2224.5,306.8 -2224.5,310.9 -2228.6,310.9 -2228.6,552.8 -2224.5,552.8 -2224.5,556.9 -2220.4,556.9 -2220.4,561.5 -2044.2,561.5 
		-2044.2,556.9 -2040.1,556.9 -2040.1,552.8 -2036,552.8 	"/>
	<polygon class="st8" points="-2036,306.6 -2040.1,306.6 -2040.1,302.5 -2044.2,302.5 -2044.2,298 -2220.4,298 -2220.4,302.5 
		-2224.5,302.5 -2224.5,306.6 -2228.6,306.6 -2228.6,548.6 -2224.5,548.6 -2224.5,552.7 -2220.4,552.7 -2220.4,557.2 -2044.2,557.2 
		-2044.2,552.7 -2040.1,552.7 -2040.1,548.6 -2036,548.6 	"/>
</g>
<g>
	<polygon class="st9" points="-1599,1943.2 -1609.1,1943.2 -1984,1943.2 -1984,1953.3 -1994.1,1953.3 -1994.1,2011.1 -1984,2011.1 
		-1984,2021.2 -1609.1,2021.2 -1599,2021.2 -1599,2011.1 -1589,2011.1 -1589,1953.3 -1599,1953.3 	"/>
	<polygon class="st10" points="-1599,1933.2 -1609.1,1933.2 -1984,1933.2 -1984,1943.3 -1994.1,1943.3 -1994.1,2001.1 -1984,2001.1 
		-1984,2011.2 -1609.1,2011.2 -1599,2011.2 -1599,2001.1 -1589,2001.1 -1589,1943.3 -1599,1943.3 	"/>
	<g>
		<path class="st4" d="M-1874,1984.1h-6.9v-27.6h17.3v3.5h3.5v10.4h-3.5v3.5h-10.4V1984.1z M-1874,1966.8h6.9v-3.5h-6.9V1966.8z"/>
		<path class="st4" d="M-1853.3,1980.6h-3.5v-24.2h6.9v20.7h13.8v6.9h-17.3V1980.6z"/>
		<path class="st4" d="M-1825.6,1984.1h-6.9v-24.2h3.5v-3.5h13.8v3.5h3.5v24.2h-6.9v-10.4h-6.9V1984.1z M-1818.7,1966.8v-3.5h-6.9
			v3.5H-1818.7z"/>
		<path class="st4" d="M-1808.3,1956.4h6.9v10.4h6.9v-10.4h6.9v13.8h-3.5v3.5h-3.5v10.4h-6.9v-10.4h-3.5v-3.5h-3.5V1956.4z"/>
		<path class="st4" d="M-1780.7,1980.6h-3.5v-20.7h3.5v-3.5h17.3v6.9h-13.8v3.5h6.9v6.9h-6.9v3.5h13.8v6.9h-17.3V1980.6z"/>
		<path class="st4" d="M-1749.6,1973.7h-3.5v10.4h-6.9v-27.6h17.3v3.5h3.5v10.4h-3.5v3.5h3.5v10.4h-6.9v-6.9h-3.5V1973.7z
			 M-1753,1966.8h6.9v-3.5h-6.9V1966.8z"/>
		<path class="st4" d="M-1711.6,1956.4h6.9v27.6h-6.9V1956.4z"/>
	</g>
</g>
<g>
	<polygon class="st11" points="-1959.9,1822.6 -1961.8,1816.8 -1965.9,1804.8 -1983.7,1810.8 -1981.7,1816.6 -1987.5,1818.6 
		-1983.4,1830.6 -1977.7,1828.6 -1975.7,1834.4 -1963.7,1830.3 -1965.6,1824.6 	"/>
	<polygon class="st11" points="-1921.1,1810.5 -1923,1804.8 -1927.1,1792.8 -1944.9,1798.8 -1942.9,1804.5 -1948.7,1806.5 
		-1944.6,1818.5 -1938.9,1816.6 -1936.9,1822.3 -1924.9,1818.3 -1926.8,1812.5 	"/>
	<rect x="-1980.6" y="1763.6" transform="matrix(0.9472 -0.3207 0.3207 0.9472 -676.2613 -539.9153)" width="7.1" height="38.6"/>
	<polygon points="-1961.5,1817.8 -1963.5,1812 -1967.5,1800 -1985.3,1806 -1983.4,1811.8 -1989.1,1813.8 -1985.1,1825.8 
		-1979.3,1823.8 -1977.3,1829.6 -1965.3,1825.5 -1967.3,1819.8 	"/>
	<rect x="-1942.2" y="1750.6" transform="matrix(0.9472 -0.3207 0.3207 0.9472 -670.0513 -528.2656)" width="7.1" height="38.6"/>
	<polygon points="-1923,1804.8 -1925,1799 -1929.1,1787 -1946.8,1793 -1944.9,1798.8 -1950.7,1800.7 -1946.6,1812.8 -1940.8,1810.8 
		-1938.9,1816.6 -1926.8,1812.5 -1928.8,1806.7 	"/>
	<rect x="-1990.7" y="1741.3" transform="matrix(0.9472 -0.3207 0.3207 0.9472 -665.1471 -538.3599)" width="47.7" height="17.3"/>
</g>
<g>
	<polygon class="st11" points="-1893.7,1856.2 -1892.7,1852 -1890.8,1843.4 -1903.6,1840.6 -1904.6,1844.7 -1908.7,1843.8 
		-1910.6,1852.5 -1906.5,1853.4 -1907.4,1857.5 -1898.7,1859.4 -1897.8,1855.3 	"/>
	<polygon class="st11" points="-1866.2,1863 -1865.2,1858.8 -1863.3,1850.2 -1876.1,1847.4 -1877,1851.5 -1881.2,1850.6 
		-1883.1,1859.2 -1878.9,1860.2 -1879.9,1864.3 -1871.2,1866.2 -1870.3,1862.1 	"/>
	<rect x="-1892.1" y="1812.8" transform="matrix(0.9766 0.2149 -0.2149 0.9766 348.2991 448.7202)" width="5" height="26.9"/>
	<polygon points="-1892.9,1852.7 -1892,1848.6 -1890.1,1839.9 -1902.9,1837.1 -1903.8,1841.3 -1907.9,1840.4 -1909.8,1849 
		-1905.7,1849.9 -1906.6,1854.1 -1898,1856 -1897,1851.8 	"/>
	<rect x="-1864.4" y="1818.9" transform="matrix(0.9766 0.2149 -0.2149 0.9766 350.2532 442.9182)" width="5" height="26.9"/>
	<polygon points="-1865.2,1858.8 -1864.3,1854.7 -1862.4,1846 -1875.2,1843.2 -1876.1,1847.4 -1880.3,1846.4 -1882.2,1855.1 
		-1878,1856 -1878.9,1860.2 -1870.3,1862.1 -1869.4,1857.9 	"/>
	<rect x="-1888.2" y="1804.3" transform="matrix(0.9766 0.2149 -0.2149 0.9766 345.2873 444.4757)" width="33.3" height="12"/>
</g>
<g>
	<polygon class="st11" points="-1817.6,1794.4 -1818.3,1791.3 -1819.7,1785 -1829.1,1787.1 -1828.4,1790.1 -1831.5,1790.8 
		-1830.1,1797.2 -1827,1796.5 -1826.4,1799.5 -1820,1798.1 -1820.7,1795.1 	"/>
	<polygon class="st11" points="-1797.2,1790.4 -1797.9,1787.3 -1799.3,1781 -1808.7,1783.1 -1808,1786.1 -1811.1,1786.8 
		-1809.7,1793.1 -1806.6,1792.5 -1805.9,1795.5 -1799.6,1794.1 -1800.3,1791.1 	"/>
	<rect x="-1826" y="1763.3" transform="matrix(0.9761 -0.2173 0.2173 0.9761 -428.8808 -354.0139)" width="3.6" height="19.8"/>
	<polygon points="-1818.2,1791.9 -1818.9,1788.8 -1820.3,1782.5 -1829.7,1784.6 -1829,1787.6 -1832.1,1788.3 -1830.6,1794.6 
		-1827.6,1793.9 -1826.9,1797 -1820.6,1795.6 -1821.3,1792.5 	"/>
	<rect x="-1805.7" y="1758.8" transform="matrix(0.9761 -0.2173 0.2173 0.9761 -427.4133 -349.7091)" width="3.6" height="19.8"/>
	<polygon points="-1797.9,1787.3 -1798.6,1784.3 -1800,1777.9 -1809.4,1780 -1808.7,1783.1 -1811.7,1783.8 -1810.3,1790.1 
		-1807.3,1789.4 -1806.6,1792.5 -1800.3,1791.1 -1800.9,1788 	"/>
	<rect x="-1829.4" y="1752.6" transform="matrix(0.9761 -0.2173 0.2173 0.9761 -425.1875 -352.8704)" width="24.4" height="8.8"/>
</g>
<g>
	<polygon class="st11" points="-1797,1840.2 -1794.4,1836 -1789,1827.5 -1801.7,1819.4 -1804.3,1823.5 -1808.4,1820.9 
		-1813.8,1829.5 -1809.7,1832.1 -1812.3,1836.2 -1803.8,1841.7 -1801.1,1837.5 	"/>
	<polygon class="st11" points="-1770,1858.3 -1767.4,1854.2 -1762,1845.6 -1774.7,1837.5 -1777.3,1841.6 -1781.4,1839 
		-1786.8,1847.6 -1782.7,1850.2 -1785.3,1854.3 -1776.8,1859.8 -1774.2,1855.7 	"/>
	<rect x="-1783.8" y="1794.1" transform="matrix(0.844 0.5363 -0.5363 0.844 692.6614 1237.3611)" width="5.7" height="30.9"/>
	<polygon points="-1794.9,1836.7 -1792.2,1832.6 -1786.8,1824 -1799.5,1816 -1802.1,1820.1 -1806.2,1817.5 -1811.7,1826.1 
		-1807.5,1828.7 -1810.2,1832.8 -1801.6,1838.2 -1799,1834.1 	"/>
	<rect x="-1756.3" y="1811.5" transform="matrix(0.844 0.5363 -0.5363 0.844 706.2859 1225.3702)" width="5.7" height="30.9"/>
	<polygon points="-1767.4,1854.2 -1764.8,1850 -1759.4,1841.5 -1772.1,1833.4 -1774.7,1837.5 -1778.8,1834.9 -1784.2,1843.5 
		-1780.1,1846.1 -1782.7,1850.2 -1774.2,1855.7 -1771.5,1851.5 	"/>
	<rect x="-1774.3" y="1792.4" transform="matrix(0.844 0.5363 -0.5363 0.844 691.23 1221.9989)" width="38.2" height="13.8"/>
</g>
<g>
	<polygon class="st9" points="-2075.8,1399.7 -2082.4,1399.7 -2328.8,1399.7 -2328.8,1406.4 -2335.4,1406.4 -2335.4,1444.4 
		-2328.8,1444.4 -2328.8,1451 -2082.4,1451 -2075.8,1451 -2075.8,1444.4 -2069.2,1444.4 -2069.2,1406.4 -2075.8,1406.4 	"/>
	<polygon class="st12" points="-2075.8,1399.7 -2082.4,1399.7 -2328.8,1399.7 -2328.8,1406.4 -2335.4,1406.4 -2335.4,1444.4 
		-2328.8,1444.4 -2328.8,1451 -2082.4,1451 -2075.8,1451 -2075.8,1444.4 -2069.2,1444.4 -2069.2,1406.4 -2075.8,1406.4 	"/>
	<g>
		<path class="st4" d="M-2269,1417.3h2.3v-2.3h11.4v4.5h-9.1v9.1h9.1v4.5h-11.4v-2.3h-2.3V1417.3z"/>
		<path class="st4" d="M-2248.5,1433.2h-4.5v-15.9h2.3v-2.3h9.1v2.3h2.3v15.9h-4.5v-6.8h-4.5V1433.2z M-2244,1421.8v-2.3h-4.5v2.3
			H-2244z"/>
		<path class="st4" d="M-2234.9,1430.9h-2.3V1415h4.5v13.6h9.1v4.5h-11.4V1430.9z"/>
		<path class="st4" d="M-2221.3,1415h4.5v18.2h-4.5V1415z"/>
		<path class="st4" d="M-2214.5,1415h11.4v2.3h2.3v13.6h-2.3v2.3h-11.4V1415z M-2209.9,1421.8h4.5v-2.3h-4.5V1421.8z
			 M-2209.9,1428.6h4.5v-2.3h-4.5V1428.6z"/>
		<path class="st4" d="M-2191.8,1426.4h-2.3v6.8h-4.5v-15.9h2.3v-2.3h9.1v2.3h2.3v6.8h-2.3v2.3h2.3v6.8h-4.5v-4.5h-2.3V1426.4z
			 M-2194,1421.8h4.5v-2.3h-4.5V1421.8z"/>
		<path class="st4" d="M-2178.1,1433.2h-4.5v-15.9h2.3v-2.3h9.1v2.3h2.3v15.9h-4.5v-6.8h-4.5V1433.2z M-2173.6,1421.8v-2.3h-4.5v2.3
			H-2173.6z"/>
		<path class="st4" d="M-2166.8,1415h13.6v4.5h-4.5v13.6h-4.5v-13.6h-4.5V1415z"/>
		<path class="st4" d="M-2148.6,1430.9h-2.3v-13.6h2.3v-2.3h11.4v4.5h-9.1v2.3h4.5v4.5h-4.5v2.3h9.1v4.5h-11.4V1430.9z"/>
	</g>
</g>
<g>
	<polygon class="st9" points="-1755.8,1467.7 -1762.4,1467.7 -2008.8,1467.7 -2008.8,1474.4 -2015.4,1474.4 -2015.4,1512.4 
		-2008.8,1512.4 -2008.8,1519 -1762.4,1519 -1755.8,1519 -1755.8,1512.4 -1749.2,1512.4 -1749.2,1474.4 -1755.8,1474.4 	"/>
	<polygon class="st10" points="-1755.8,1461.2 -1762.4,1461.2 -2008.8,1461.2 -2008.8,1467.8 -2015.4,1467.8 -2015.4,1505.8 
		-2008.8,1505.8 -2008.8,1512.4 -1762.4,1512.4 -1755.8,1512.4 -1755.8,1505.8 -1749.2,1505.8 -1749.2,1467.8 -1755.8,1467.8 	"/>
	<g>
		<path class="st4" d="M-1949,1478.7h2.3v-2.3h11.4v4.5h-9.1v9.1h9.1v4.5h-11.4v-2.3h-2.3V1478.7z"/>
		<path class="st4" d="M-1928.5,1494.6h-4.5v-15.9h2.3v-2.3h9.1v2.3h2.3v15.9h-4.5v-6.8h-4.5V1494.6z M-1924,1483.2v-2.3h-4.5v2.3
			H-1924z"/>
		<path class="st4" d="M-1914.9,1492.3h-2.3v-15.9h4.5v13.6h9.1v4.5h-11.4V1492.3z"/>
		<path class="st4" d="M-1901.3,1476.4h4.5v18.2h-4.5V1476.4z"/>
		<path class="st4" d="M-1894.5,1476.4h11.4v2.3h2.3v13.6h-2.3v2.3h-11.4V1476.4z M-1889.9,1483.2h4.5v-2.3h-4.5V1483.2z
			 M-1889.9,1490.1h4.5v-2.3h-4.5V1490.1z"/>
		<path class="st4" d="M-1871.8,1487.8h-2.3v6.8h-4.5v-15.9h2.3v-2.3h9.1v2.3h2.3v6.8h-2.3v2.3h2.3v6.8h-4.5v-4.5h-2.3V1487.8z
			 M-1874,1483.2h4.5v-2.3h-4.5V1483.2z"/>
		<path class="st4" d="M-1858.1,1494.6h-4.5v-15.9h2.3v-2.3h9.1v2.3h2.3v15.9h-4.5v-6.8h-4.5V1494.6z M-1853.6,1483.2v-2.3h-4.5v2.3
			H-1853.6z"/>
		<path class="st4" d="M-1846.8,1476.4h13.6v4.5h-4.5v13.6h-4.5V1481h-4.5V1476.4z"/>
		<path class="st4" d="M-1828.6,1492.3h-2.3v-13.6h2.3v-2.3h11.4v4.5h-9.1v2.3h4.5v4.5h-4.5v2.3h9.1v4.5h-11.4V1492.3z"/>
	</g>
</g>
<g>
	<rect x="-2013.8" y="1550.1" class="st9" width="219.8" height="28.8"/>
	<rect x="-2018.6" y="1543.5" class="st9" width="229.4" height="30.6"/>
	<polygon class="st10" points="-2018.6,1539.2 -2018.6,1568.4 -2013.8,1568.4 -2013.8,1574.1 -1794,1574.1 -1794,1568.4 
		-1789.2,1568.4 -1789.2,1539.2 	"/>
</g>
<polygon class="st9" points="-1798.8,1554 -1798.8,1548.9 -1803.9,1548.9 -1803.9,1548.8 -1860.6,1548.8 -1891.1,1548.8 
	-1916.7,1548.8 -1940.6,1548.8 -2003.9,1548.8 -2003.9,1548.9 -2009,1548.9 -2009,1554 -2014.1,1554 -2014.1,1561.6 -2009,1561.6 
	-2009,1566.7 -2003.9,1566.7 -2003.9,1566.8 -1940.6,1566.8 -1916.7,1566.8 -1891.1,1566.8 -1860.6,1566.8 -1803.9,1566.8 
	-1803.9,1566.8 -1798.8,1566.8 -1798.8,1561.7 -1793.7,1561.7 -1793.7,1554 "/>
<g>
	<rect x="-2022.7" y="1648.1" class="st13" width="4.7" height="0.1"/>
	<rect x="-2022.7" y="1666" class="st13" width="4.7" height="0.1"/>
	<polygon class="st4" points="-2001.7,1666 -2001.7,1660.9 -1996.6,1660.9 -1996.6,1653.3 -2001.7,1653.3 -2001.7,1648.2 
		-2006.8,1648.2 -2006.8,1648.1 -2018,1648.1 -2018,1648.2 -2022.7,1648.2 -2022.7,1666 -2018,1666 -2018,1666.1 -2006.8,1666.1 
		-2006.8,1666 	"/>
</g>
<g>
	<polygon class="st4" points="-2048.5,1612.6 -2048.5,1607.5 -2053.6,1607.5 -2053.6,1607.4 -2069.6,1607.4 -2069.6,1625.4 
		-2053.6,1625.4 -2053.6,1625.3 -2048.5,1625.3 -2048.5,1620.2 -2043.4,1620.2 -2043.4,1612.6 	"/>
	<polygon class="st4" points="-2062,1651.4 -2062,1646.3 -2062.1,1646.3 -2062.1,1646.2 -2066.6,1646.2 -2067.1,1646.2 
		-2071.7,1646.2 -2071.7,1646.3 -2071.7,1646.3 -2071.7,1651.4 -2076.8,1651.4 -2076.8,1659 -2071.7,1659 -2071.7,1664.1 
		-2071.7,1664.1 -2071.7,1664.2 -2067.1,1664.2 -2066.6,1664.2 -2062.1,1664.2 -2062.1,1664.2 -2062,1664.2 -2062,1659.1 
		-2056.9,1659.1 -2056.9,1651.4 	"/>
</g>
<polygon class="st4" points="-2111.8,1554 -2111.8,1548.9 -2111.8,1548.9 -2111.8,1548.8 -2116.4,1548.8 -2116.9,1548.8 
	-2121.4,1548.8 -2121.4,1548.9 -2121.5,1548.9 -2121.5,1554 -2126.6,1554 -2126.6,1561.6 -2121.5,1561.6 -2121.5,1566.7 
	-2121.4,1566.7 -2121.4,1566.8 -2116.9,1566.8 -2116.4,1566.8 -2111.8,1566.8 -2111.8,1566.8 -2111.8,1566.8 -2111.8,1561.7 
	-2106.7,1561.7 -2106.7,1554 "/>
<polygon class="st14" points="-1146,1943.2 -1156.1,1943.2 -1531,1943.2 -1531,1953.3 -1541.1,1953.3 -1541.1,2011.1 -1531,2011.1 
	-1531,2021.2 -1156.1,2021.2 -1146,2021.2 -1146,2011.1 -1136,2011.1 -1136,1953.3 -1146,1953.3 "/>
<polygon class="st15" points="-1146,1933.2 -1156.1,1933.2 -1531,1933.2 -1531,1943.3 -1541.1,1943.3 -1541.1,2001.1 -1531,2001.1 
	-1531,2011.2 -1156.1,2011.2 -1146,2011.2 -1146,2001.1 -1136,2001.1 -1136,1943.3 -1146,1943.3 "/>
<g>
	<path class="st4" d="M-1428.4,1984.1h-6.9v-27.6h17.3v3.5h3.5v10.4h-3.5v3.5h-10.4V1984.1z M-1428.4,1966.8h6.9v-3.5h-6.9V1966.8z"
		/>
	<path class="st4" d="M-1407.7,1980.6h-3.5v-24.2h6.9v20.7h13.8v6.9h-17.3V1980.6z"/>
	<path class="st4" d="M-1380,1984.1h-6.9v-24.2h3.5v-3.5h13.8v3.5h3.5v24.2h-6.9v-10.4h-6.9V1984.1z M-1373.1,1966.8v-3.5h-6.9v3.5
		H-1373.1z"/>
	<path class="st4" d="M-1362.7,1956.4h6.9v10.4h6.9v-10.4h6.9v13.8h-3.5v3.5h-3.5v10.4h-6.9v-10.4h-3.5v-3.5h-3.5V1956.4z"/>
	<path class="st4" d="M-1335.1,1980.6h-3.5v-20.7h3.5v-3.5h17.3v6.9h-13.8v3.5h6.9v6.9h-6.9v3.5h13.8v6.9h-17.3V1980.6z"/>
	<path class="st4" d="M-1304,1973.7h-3.5v10.4h-6.9v-27.6h17.3v3.5h3.5v10.4h-3.5v3.5h3.5v10.4h-6.9v-6.9h-3.5V1973.7z
		 M-1307.5,1966.8h6.9v-3.5h-6.9V1966.8z"/>
	<path class="st4" d="M-1266,1956.4h17.3v3.5h3.5v10.4h-3.5v3.5h-10.4v3.5h13.8v6.9h-20.7v-13.8h3.5v-3.5h10.4v-3.5h-13.8V1956.4z"
		/>
</g>
<g>
	<rect x="-1520.1" y="1937.2" class="st4" width="45.1" height="5.7"/>
	<rect x="-1468.8" y="1937.2" class="st4" width="5.7" height="5.7"/>
</g>
<g>
	<rect x="-1974.6" y="1938.2" class="st4" width="45.1" height="5.7"/>
	<rect x="-1923.3" y="1938.2" class="st4" width="5.7" height="5.7"/>
</g>
<polygon class="st16" points="-1585.4,1778.2 -1579,1783.8 -1584.6,1790.2 -1564.2,1807.6 -1564.2,1845.5 -1543.5,1819.4 
	-1511.7,1848.7 -1505.9,1842.5 -1500.9,1847.1 -1429.3,1728.4 "/>
<polygon class="st17" points="-1587.9,1771.1 -1581.5,1776.7 -1587.1,1783.1 -1566.7,1800.4 -1566.7,1838.3 -1545.9,1812.2 
	-1514.2,1841.6 -1508.3,1835.4 -1503.4,1840 -1431.7,1721.3 "/>
<polygon class="st18" points="-1545.9,1812 -1431.5,1721.3 -1566.6,1800.2 -1566.6,1838.1 "/>
<polygon class="st19" points="-1589,1771.2 -1582.6,1776.8 -1588.2,1783.2 -1567.7,1800.6 -1567.7,1838.5 -1547,1812.4 
	-1515.2,1841.8 -1509.4,1835.5 -1504.4,1840.1 -1432.8,1721.4 "/>
<g>
	<polygon class="st20" points="-1653.1,1464.5 -1653.1,1628.1 -1642.7,1628.1 -1642.7,1637.6 -1632.3,1637.6 -1632.3,1648.1 
		-1184.9,1648.1 -1184.9,1637.6 -1174.5,1637.6 -1174.5,1628.1 -1164.1,1628.1 -1164.1,1464.5 	"/>
	<polygon class="st20" points="-1164.1,1464.5 -1164.1,1370.4 -1174.5,1370.4 -1174.5,1360.9 -1184.9,1360.9 -1184.9,1350.4 
		-1632.3,1350.4 -1632.3,1360.9 -1642.7,1360.9 -1642.7,1370.4 -1653.1,1370.4 -1653.1,1464.5 	"/>
</g>
<g>
	<polygon class="st21" points="-1642.7,1367 -1632.3,1367 -1632.3,1359 -1642.7,1359 -1642.7,1366.9 -1653.1,1366.9 -1653.1,1374.9 
		-1642.7,1374.9 	"/>
	<rect x="-1632.3" y="1350.3" class="st21" width="447.5" height="8"/>
	<polygon class="st21" points="-1174.5,1366.9 -1174.5,1359 -1184.9,1359 -1184.9,1367 -1174.5,1367 -1174.5,1374.9 -1164.1,1374.9 
		-1164.1,1366.9 	"/>
</g>
<g>
	<g>
		<g>
			<rect x="-2046.3" y="1286" width="10.2" height="10.2"/>
		</g>
	</g>
	<g>
		<g>
			<path d="M-1984.8,1275.8v5.1h-5.1v5.1h5.1v20.5h5.1v5.1h-5.1v5.1h5.1h5.1v-10.2h15.4v5.1h5.1v-5.1v-30.7H-1984.8z
				 M-1959.2,1301.4h-20.5v-20.5h20.5V1301.4z"/>
		</g>
	</g>
	<g>
		<g>
			<rect x="-1974.6" y="1286" width="10.2" height="10.2"/>
		</g>
	</g>
	<g>
		<g>
			<rect x="-2046.3" y="1357.7" width="10.2" height="10.2"/>
		</g>
	</g>
	<g>
		<g>
			<rect x="-1984.8" y="1347.5" width="5.1" height="5.1"/>
		</g>
	</g>
	<g>
		<g>
			<rect x="-2010.4" y="1373.1" width="5.1" height="5.1"/>
		</g>
	</g>
	<g>
		<g>
			<rect x="-2005.3" y="1352.6" width="5.1" height="5.1"/>
		</g>
	</g>
	<g>
		<g>
			<rect x="-2005.3" y="1362.8" width="5.1" height="5.1"/>
		</g>
	</g>
	<g>
		<g>
			<rect x="-1959.2" y="1337.2" width="5.1" height="5.1"/>
		</g>
	</g>
	<g>
		<g>
			<rect x="-2056.5" y="1337.2" width="5.1" height="5.1"/>
		</g>
	</g>
	<g>
		<g>
			<rect x="-2056.5" y="1311.6" width="5.1" height="5.1"/>
		</g>
	</g>
	<g>
		<g>
			<polygon points="-2000.2,1280.9 -2000.2,1286 -2010.4,1286 -2010.4,1291.1 -1995.1,1291.1 -1995.1,1286 -1995.1,1280.9 			"/>
		</g>
	</g>
	<g>
		<g>
			<path d="M-1959.2,1316.7v5.1h-10.2v5.1h-15.4v-5.1h-5.1v5.1h-10.2v5.1h15.4v5.1h-10.2h-5.1v-5.1h-5.1v5.1h-5.1v-5.1h-5.1v5.1
				h-5.1v5.1h10.2v5.1h5.1v-5.1h10.2v5.1h-5.1v5.1h5.1v10.2h5.1v5.1h5.1v-5.1h15.4v-10.2h5.1v-5.1h-5.1v-10.2h-10.2v-5.1h10.2v5.1
				h5.1v-5.1h5.1v-5.1h5.1v-5.1v-5.1H-1959.2L-1959.2,1316.7z M-1974.6,1342.3v15.4h-15.4v-15.4H-1974.6z"/>
		</g>
	</g>
	<g>
		<g>
			<polygon points="-1989.9,1306.5 -1995.1,1306.5 -1995.1,1311.6 -2000.2,1311.6 -2000.2,1316.7 -2000.2,1321.9 -1995.1,1321.9 
				-1995.1,1316.7 -1989.9,1316.7 -1989.9,1311.6 -1984.8,1311.6 -1984.8,1306.5 			"/>
		</g>
	</g>
	<g>
		<g>
			<rect x="-2000.2" y="1373.1" width="10.2" height="5.1"/>
		</g>
	</g>
	<g>
		<g>
			<rect x="-2015.5" y="1280.9" width="5.1" height="5.1"/>
		</g>
	</g>
	<g>
		<g>
			<rect x="-1974.6" y="1316.7" width="5.1" height="5.1"/>
		</g>
	</g>
	<g>
		<g>
			<rect x="-1969.5" y="1311.6" width="5.1" height="5.1"/>
		</g>
	</g>
	<g>
		<g>
			<rect x="-2036" y="1337.2" width="5.1" height="5.1"/>
		</g>
	</g>
	<g>
		<g>
			<path d="M-2025.8,1373.1v-20.5h5.1v-5.1v-5.1h-5.1v5.1h-15.4v-5.1h-5.1h-5.1v5.1h-5.1v30.7h30.7h10.2v-5.1H-2025.8z
				 M-2030.9,1373.1h-20.5v-20.5h20.5V1373.1z"/>
		</g>
	</g>
	<g>
		<g>
			<rect x="-2025.8" y="1306.5" width="5.1" height="5.1"/>
		</g>
	</g>
	<g>
		<g>
			<path d="M-2020.7,1275.8h-5.1h-30.7v30.7h5.1v5.1h5.1v-5.1h5.1v5.1h5.1v-5.1h10.2v-10.2h5.1v-5.1h-5.1v-10.2h5.1h5.1v-5.1
				H-2020.7z M-2030.9,1301.4h-20.5v-20.5h20.5V1301.4z"/>
		</g>
	</g>
	<g>
		<g>
			<rect x="-1995.1" y="1291.1" width="5.1" height="5.1"/>
		</g>
	</g>
	<g>
		<g>
			<rect x="-2005.3" y="1275.8" width="5.1" height="5.1"/>
		</g>
	</g>
	<g>
		<g>
			<path d="M-1995.1,1306.5v-5.1h-5.1v-5.1h-5.1v5.1h-10.2v-5.1h-5.1v5.1v5.1h5.1v10.2h-15.4v-5.1h-5.1v5.1h-15.4v5.1h10.2v5.1
				h-15.4v5.1h15.4v5.1h5.1v-5.1h5.1v5.1h5.1v-5.1h10.2v-5.1h-5.1v-5.1h5.1h5.1v5.1h5.1h5.1v-5.1h-5.1v-5.1h-5.1v-10.2H-1995.1
				L-1995.1,1306.5z M-2025.8,1327h-10.2v-5.1h10.2V1327z"/>
		</g>
	</g>
	<g>
		<g>
			<polygon points="-2010.4,1357.7 -2010.4,1352.6 -2010.4,1347.5 -2015.5,1347.5 -2015.5,1352.6 -2020.7,1352.6 -2020.7,1357.7 
				-2015.5,1357.7 -2015.5,1362.8 -2020.7,1362.8 -2020.7,1367.9 -2010.4,1367.9 -2010.4,1362.8 -2005.3,1362.8 -2005.3,1357.7 			
				"/>
		</g>
	</g>
	<g>
		<g>
			<polygon points="-1964.3,1367.9 -1964.3,1362.8 -1969.5,1362.8 -1969.5,1367.9 -1984.8,1367.9 -1984.8,1373.1 -1974.6,1373.1 
				-1974.6,1378.2 -1969.5,1378.2 -1969.5,1373.1 -1959.2,1373.1 -1959.2,1378.2 -1954.1,1378.2 -1954.1,1373.1 -1954.1,1367.9 			
				"/>
		</g>
	</g>
	<g>
		<g>
			<polygon points="-1959.2,1347.5 -1959.2,1352.6 -1964.3,1352.6 -1964.3,1357.7 -1954.1,1357.7 -1954.1,1352.6 -1954.1,1347.5 			
				"/>
		</g>
	</g>
</g>
<g>
	<g>
		<polygon class="st9" points="-2284.6,1691.9 -2288.3,1691.9 -2425.5,1691.9 -2425.5,1695.6 -2429.2,1695.6 -2429.2,1716.8 
			-2425.5,1716.8 -2425.5,1720.4 -2288.3,1720.4 -2284.6,1720.4 -2284.6,1716.8 -2280.9,1716.8 -2280.9,1695.6 -2284.6,1695.6 		"/>
		<polygon class="st12" points="-2284.6,1691.9 -2288.3,1691.9 -2425.5,1691.9 -2425.5,1695.6 -2429.2,1695.6 -2429.2,1716.8 
			-2425.5,1716.8 -2425.5,1720.4 -2288.3,1720.4 -2284.6,1720.4 -2284.6,1716.8 -2280.9,1716.8 -2280.9,1695.6 -2284.6,1695.6 		"/>
		<g>
			<path class="st4" d="M-2397.2,1706.7h-1.3v3.8h-2.5v-10.1h6.3v1.3h1.3v3.8h-1.3v1.3h1.3v3.8h-2.5v-2.5h-1.3V1706.7z
				 M-2398.5,1704.2h2.5v-1.3h-2.5V1704.2z"/>
			<path class="st4" d="M-2390.9,1709.3h-1.3v-7.6h1.3v-1.3h6.3v2.5h-5.1v1.3h2.5v2.5h-2.5v1.3h5.1v2.5h-6.3V1709.3z"/>
			<path class="st4" d="M-2382.1,1709.3h-1.3v-7.6h1.3v-1.3h5.1v1.3h1.3v2.5h-2.5v-1.3h-2.5v5.1h2.5v-1.3h2.5v2.5h-1.3v1.3h-5.1
				V1709.3z"/>
			<path class="st4" d="M-2372,1710.5h-2.5v-8.9h1.3v-1.3h5.1v1.3h1.3v8.9h-2.5v-3.8h-2.5V1710.5z M-2369.4,1704.2v-1.3h-2.5v1.3
				H-2369.4z"/>
			<path class="st4" d="M-2364.4,1709.3h-1.3v-8.9h2.5v7.6h5.1v2.5h-6.3V1709.3z"/>
			<path class="st4" d="M-2356.8,1700.4h2.5v10.1h-2.5V1700.4z"/>
			<path class="st4" d="M-2353,1700.4h6.3v1.3h1.3v7.6h-1.3v1.3h-6.3V1700.4z M-2350.5,1704.2h2.5v-1.3h-2.5V1704.2z M-2350.5,1708
				h2.5v-1.3h-2.5V1708z"/>
			<path class="st4" d="M-2340.3,1706.7h-1.3v3.8h-2.5v-8.9h1.3v-1.3h5.1v1.3h1.3v3.8h-1.3v1.3h1.3v3.8h-2.5v-2.5h-1.3V1706.7z
				 M-2341.6,1704.2h2.5v-1.3h-2.5V1704.2z"/>
			<path class="st4" d="M-2332.8,1710.5h-2.5v-8.9h1.3v-1.3h5.1v1.3h1.3v8.9h-2.5v-3.8h-2.5V1710.5z M-2330.2,1704.2v-1.3h-2.5v1.3
				H-2330.2z"/>
			<path class="st4" d="M-2326.4,1700.4h7.6v2.5h-2.5v7.6h-2.5v-7.6h-2.5V1700.4z"/>
			<path class="st4" d="M-2316.3,1709.3h-1.3v-7.6h1.3v-1.3h6.3v2.5h-5.1v1.3h2.5v2.5h-2.5v1.3h5.1v2.5h-6.3V1709.3z"/>
		</g>
	</g>
	<g>
		<rect x="-2423" y="1694" class="st4" width="13.1" height="1.7"/>
		<rect x="-2408.1" y="1694" class="st4" width="1.7" height="1.7"/>
	</g>
</g>
<g>
	<g>
		<polygon class="st9" points="-2284.6,1733.9 -2288.3,1733.9 -2425.5,1733.9 -2425.5,1737.6 -2429.2,1737.6 -2429.2,1758.8 
			-2425.5,1758.8 -2425.5,1762.4 -2288.3,1762.4 -2284.6,1762.4 -2284.6,1758.8 -2280.9,1758.8 -2280.9,1737.6 -2284.6,1737.6 		"/>
		<polygon class="st10" points="-2284.6,1730.2 -2288.3,1730.2 -2425.5,1730.2 -2425.5,1733.9 -2429.2,1733.9 -2429.2,1755.1 
			-2425.5,1755.1 -2425.5,1758.8 -2288.3,1758.8 -2284.6,1758.8 -2284.6,1755.1 -2280.9,1755.1 -2280.9,1733.9 -2284.6,1733.9 		"/>
		<g>
			<path class="st4" d="M-2397.2,1745.1h-1.3v3.8h-2.5v-10.1h6.3v1.3h1.3v3.8h-1.3v1.3h1.3v3.8h-2.5v-2.5h-1.3V1745.1z
				 M-2398.5,1742.5h2.5v-1.3h-2.5V1742.5z"/>
			<path class="st4" d="M-2390.9,1747.6h-1.3v-7.6h1.3v-1.3h6.3v2.5h-5.1v1.3h2.5v2.5h-2.5v1.3h5.1v2.5h-6.3V1747.6z"/>
			<path class="st4" d="M-2382.1,1747.6h-1.3v-7.6h1.3v-1.3h5.1v1.3h1.3v2.5h-2.5v-1.3h-2.5v5.1h2.5v-1.3h2.5v2.5h-1.3v1.3h-5.1
				V1747.6z"/>
			<path class="st4" d="M-2372,1748.9h-2.5v-8.9h1.3v-1.3h5.1v1.3h1.3v8.9h-2.5v-3.8h-2.5V1748.9z M-2369.4,1742.5v-1.3h-2.5v1.3
				H-2369.4z"/>
			<path class="st4" d="M-2364.4,1747.6h-1.3v-8.9h2.5v7.6h5.1v2.5h-6.3V1747.6z"/>
			<path class="st4" d="M-2356.8,1738.7h2.5v10.1h-2.5V1738.7z"/>
			<path class="st4" d="M-2353,1738.7h6.3v1.3h1.3v7.6h-1.3v1.3h-6.3V1738.7z M-2350.5,1742.5h2.5v-1.3h-2.5V1742.5z
				 M-2350.5,1746.3h2.5v-1.3h-2.5V1746.3z"/>
			<path class="st4" d="M-2340.3,1745.1h-1.3v3.8h-2.5v-8.9h1.3v-1.3h5.1v1.3h1.3v3.8h-1.3v1.3h1.3v3.8h-2.5v-2.5h-1.3V1745.1z
				 M-2341.6,1742.5h2.5v-1.3h-2.5V1742.5z"/>
			<path class="st4" d="M-2332.8,1748.9h-2.5v-8.9h1.3v-1.3h5.1v1.3h1.3v8.9h-2.5v-3.8h-2.5V1748.9z M-2330.2,1742.5v-1.3h-2.5v1.3
				H-2330.2z"/>
			<path class="st4" d="M-2326.4,1738.7h7.6v2.5h-2.5v7.6h-2.5v-7.6h-2.5V1738.7z"/>
			<path class="st4" d="M-2316.3,1747.6h-1.3v-7.6h1.3v-1.3h6.3v2.5h-5.1v1.3h2.5v2.5h-2.5v1.3h5.1v2.5h-6.3V1747.6z"/>
		</g>
	</g>
	<g>
		<rect x="-2423" y="1733" class="st4" width="13.1" height="1.7"/>
		<rect x="-2408.1" y="1733" class="st4" width="1.7" height="1.7"/>
	</g>
</g>
<g>
	<rect x="-2003.2" y="1464.7" class="st4" width="23.6" height="3"/>
	<rect x="-1976.5" y="1464.7" class="st4" width="3" height="3"/>
</g>
<g>
	<rect x="-2323.7" y="1403.3" class="st4" width="23.6" height="3"/>
	<rect x="-2296.9" y="1403.3" class="st4" width="3" height="3"/>
</g>
<g>
	<polygon class="st22" points="-2353.7,1526.8 -2353.7,1519.3 -2372.4,1519.3 -2372.4,1526.8 -2379.8,1526.8 -2379.8,1534.2 
		-2379.8,1545.4 -2372.4,1545.4 -2372.4,1552.9 -2361.2,1552.9 -2353.7,1552.9 -2353.7,1545.4 -2346.3,1545.4 -2346.3,1534.2 
		-2346.3,1526.8 	"/>
	<line class="st23" x1="-2371.8" y1="1552.9" x2="-2371.8" y2="1562.8"/>
	<line class="st23" x1="-2354.4" y1="1552.9" x2="-2354.4" y2="1562.8"/>
	<polygon class="st24" points="-2355.3,1561 -2357.5,1561 -2370.8,1561 -2370.8,1563.2 -2373,1563.2 -2373,1578.7 -2370.8,1578.7 
		-2370.8,1580.9 -2357.5,1580.9 -2355.3,1580.9 -2355.3,1578.7 -2353.1,1578.7 -2353.1,1563.2 -2355.3,1563.2 	"/>
</g>
<polygon class="st25" points="-2286.6,1966 -2286.6,1958.1 -2294.6,1958.1 -2359.6,1958.1 -2428.3,1958.1 -2428.3,1966 
	-2436.3,1966 -2436.3,2011.6 -2428.3,2011.6 -2428.3,2019.5 -2359.6,2019.5 -2294.6,2019.5 -2286.6,2019.5 -2286.6,2011.6 
	-2278.7,2011.6 -2278.7,1966 "/>
<polygon class="st25" points="-2286.6,1966.1 -2286.6,1958.2 -2294.6,1958.2 -2359.6,1958.2 -2428.3,1958.2 -2428.3,1966.1 
	-2436.3,1966.1 -2436.3,2011.7 -2428.3,2011.7 -2428.3,2019.6 -2359.6,2019.6 -2294.6,2019.6 -2286.6,2019.6 -2286.6,2011.7 
	-2278.7,2011.7 -2278.7,1966.1 "/>
<g>
	<path class="st4" d="M-2390.1,1999.6h-5.4v-21.8h13.6v2.7h2.7v8.2h-2.7v2.7h-8.2V1999.6z M-2390.1,1986h5.4v-2.7h-5.4V1986z"/>
	<path class="st4" d="M-2373.8,1996.9h-2.7v-19h5.4v16.3h10.9v5.4h-13.6V1996.9z"/>
	<path class="st4" d="M-2352.1,1999.6h-5.4v-19h2.7v-2.7h10.9v2.7h2.7v19h-5.4v-8.2h-5.4V1999.6z M-2346.6,1986v-2.7h-5.4v2.7
		H-2346.6z"/>
	<path class="st4" d="M-2338.4,1977.8h5.4v8.2h5.4v-8.2h5.4v10.9h-2.7v2.7h-2.7v8.2h-5.4v-8.2h-2.7v-2.7h-2.7V1977.8z"/>
</g>
<polygon class="st25" points="-2116.6,1966 -2116.6,1958.1 -2124.6,1958.1 -2189.6,1958.1 -2258.3,1958.1 -2258.3,1966 
	-2266.3,1966 -2266.3,2011.6 -2258.3,2011.6 -2258.3,2019.5 -2189.6,2019.5 -2124.6,2019.5 -2116.6,2019.5 -2116.6,2011.6 
	-2108.7,2011.6 -2108.7,1966 "/>
<polygon class="st22" points="-2116.6,1958.1 -2116.6,1950.2 -2124.6,1950.2 -2189.6,1950.2 -2258.3,1950.2 -2258.3,1958.1 
	-2266.3,1958.1 -2266.3,2003.7 -2258.3,2003.7 -2258.3,2011.6 -2189.6,2011.6 -2124.6,2011.6 -2116.6,2011.6 -2116.6,2003.7 
	-2108.7,2003.7 -2108.7,1958.1 "/>
<g>
	<path class="st4" d="M-2220.1,1991.6h-5.4v-21.8h13.6v2.7h2.7v8.2h-2.7v2.7h-8.2V1991.6z M-2220.1,1978h5.4v-2.7h-5.4V1978z"/>
	<path class="st4" d="M-2203.8,1988.9h-2.7v-19h5.4v16.3h10.9v5.4h-13.6V1988.9z"/>
	<path class="st4" d="M-2182.1,1991.6h-5.4v-19h2.7v-2.7h10.9v2.7h2.7v19h-5.4v-8.2h-5.4V1991.6z M-2176.6,1978v-2.7h-5.4v2.7
		H-2176.6z"/>
	<path class="st4" d="M-2168.4,1969.8h5.4v8.2h5.4v-8.2h5.4v10.9h-2.7v2.7h-2.7v8.2h-5.4v-8.2h-2.7v-2.7h-2.7V1969.8z"/>
</g>
<g>
	<path class="st26" d="M-3110.2,1720.4h43.2v108h43.2v-108h43.2V1850h-21.6v21.6h-21.6v21.6h-43.2v-21.6h-21.6V1850h-21.6V1720.4z"
		/>
	<path class="st27" d="M-2959,1744.1h21.6v-21.6h108v43.2h-86.4v21.6h64.8v21.6h21.6v64.8h-21.6v21.6h-108v-43.2h86.4v-21.6h-64.8
		v-21.6h-21.6V1744.1z"/>
</g>
<g>
	<path class="st28" d="M-3110.2,1699.4h43.2v108h43.2v-108h43.2V1829h-21.6v21.6h-21.6v21.6h-43.2v-21.6h-21.6V1829h-21.6V1699.4z"
		/>
	<path class="st29" d="M-2959,1721h21.6v-21.6h108v43.2h-86.4v21.6h64.8v21.6h21.6v64.8h-21.6v21.6h-108V1829h86.4v-21.6h-64.8
		v-21.6h-21.6V1721z"/>
</g>
<g>
	<g>
		<path class="st0" d="M-3060.9,2078h27.5v68.7h27.5V2078h27.5v82.4h-13.7v13.7h-13.7v13.7h-27.5v-13.7h-13.7v-13.7h-13.7V2078z"/>
		<path class="st0" d="M-2964.7,2093h13.7v-13.7h68.7v27.5h-54.9v13.7h41.2v13.7h13.7v41.2h-13.7v13.7h-68.7v-27.5h54.9V2148h-41.2
			v-13.7h-13.7V2093z"/>
	</g>
	<g>
		<path class="st7" d="M-3060.9,2063.5h27.5v68.7h27.5v-68.7h27.5v82.4h-13.7v13.7h-13.7v13.7h-27.5v-13.7h-13.7v-13.7h-13.7V2063.5
			z"/>
		<path class="st7" d="M-2964.7,2078.5h13.7v-13.7h68.7v27.5h-54.9v13.7h41.2v13.7h13.7v41.2h-13.7v13.7h-68.7v-27.5h54.9v-13.7
			h-41.2v-13.7h-13.7V2078.5z"/>
	</g>
	<g>
		<path class="st4" d="M-3060.9,2050.1h27.5v68.7h27.5v-68.7h27.5v82.4h-13.7v13.7h-13.7v13.7h-27.5v-13.7h-13.7v-13.7h-13.7V2050.1
			z"/>
		<path class="st4" d="M-2964.7,2063.8h13.7v-13.7h68.7v27.5h-54.9v13.7h41.2v13.7h13.7v41.2h-13.7v13.7h-68.7v-27.5h54.9v-13.7
			h-41.2V2105h-13.7V2063.8z"/>
	</g>
</g>
<g>
	<g>
		<path class="st0" d="M-2486.4,1218.3h-21.6v-86.4h54v10.8h10.8v32.4h-10.8v10.8h-32.4V1218.3z M-2486.4,1164.3h21.6v-10.8h-21.6
			V1164.3z"/>
		<path class="st0" d="M-2432.4,1142.7h10.8v-10.8h43.2v10.8h10.8v64.8h-10.8v10.8h-43.2v-10.8h-10.8V1142.7z M-2410.8,1196.7h21.6
			v-43.2h-21.6V1196.7z"/>
		<path class="st0" d="M-2346,1207.5h-10.8v-75.6h21.6v64.8h43.2v21.6h-54V1207.5z"/>
		<path class="st0" d="M-2302.8,1131.9h21.6v32.4h21.6v-32.4h21.6v43.2h-10.8v10.8h-10.8v32.4h-21.6v-32.4h-10.8v-10.8h-10.8V1131.9
			z"/>
	</g>
	<g>
		<path class="st30" d="M-2486.4,1209.9h-21.6v-86.4h54v10.8h10.8v32.4h-10.8v10.8h-32.4V1209.9z M-2486.4,1155.9h21.6v-10.8h-21.6
			V1155.9z"/>
		<path class="st30" d="M-2432.4,1134.3h10.8v-10.8h43.2v10.8h10.8v64.8h-10.8v10.8h-43.2v-10.8h-10.8V1134.3z M-2410.8,1188.3h21.6
			v-43.2h-21.6V1188.3z"/>
		<path class="st30" d="M-2346,1199.1h-10.8v-75.6h21.6v64.8h43.2v21.6h-54V1199.1z"/>
		<path class="st30" d="M-2302.8,1123.5h21.6v32.4h21.6v-32.4h21.6v43.2h-10.8v10.8h-10.8v32.4h-21.6v-32.4h-10.8v-10.8h-10.8
			V1123.5z"/>
	</g>
	<g>
		<path class="st4" d="M-2486.4,1201.7h-21.6v-86.4h54v10.8h10.8v32.4h-10.8v10.8h-32.4V1201.7z M-2486.4,1147.7h21.6v-10.8h-21.6
			V1147.7z"/>
		<path class="st4" d="M-2432.4,1126.1h10.8v-10.8h43.2v10.8h10.8v64.8h-10.8v10.8h-43.2v-10.8h-10.8V1126.1z M-2410.8,1180.1h21.6
			v-43.2h-21.6V1180.1z"/>
		<path class="st4" d="M-2346,1190.9h-10.8v-75.6h21.6v64.8h43.2v21.6h-54V1190.9z"/>
		<path class="st4" d="M-2302.8,1115.3h21.6v32.4h21.6v-32.4h21.6v43.2h-10.8v10.8h-10.8v32.4h-21.6v-32.4h-10.8v-10.8h-10.8V1115.3
			z"/>
	</g>
</g>
<image style="overflow:visible;" width="843" height="1118" xlink:href="4007500903D9FF2A.jpg"  transform="matrix(0.24 0 0 0.24 -2717.5342 1265.4884)">
</image>
<g>
	<g class="st1">
		<g>
			<polygon class="st0" points="-2159.6,901.8 -2159.6,988.3 -2058.4,988.3 -2058.4,976.7 -2071,976.7 -2071,964 -2083.7,964 
				-2083.7,951.4 -2096.3,951.4 -2096.3,938.7 -2083.7,938.7 -2083.7,926.1 -2071,926.1 -2071,913.4 -2058.4,913.4 -2058.4,901.8 
							"/>
		</g>
		<polygon class="st0" points="-2144.8,963 -2159.6,987.2 -2159.6,963 		"/>
	</g>
	<rect x="-2647.8" y="878.9" class="st0" width="510.3" height="86.5"/>
	<rect x="-2171.2" y="956.9" class="st0" width="112.8" height="31.6"/>
	<g class="st1">
		<g>
			<polygon class="st0" points="-2639.9,902 -2639.9,988.4 -2741.1,988.4 -2741.1,976.8 -2728.5,976.8 -2728.5,964.2 -2715.8,964.2 
				-2715.8,951.5 -2703.2,951.5 -2703.2,938.9 -2715.8,938.9 -2715.8,926.2 -2728.5,926.2 -2728.5,913.6 -2741.1,913.6 -2741.1,902 
							"/>
		</g>
		<polygon class="st0" points="-2654.7,963.1 -2639.9,987.4 -2640,963.1 		"/>
	</g>
	<g>
		<g>
			<polygon class="st2" points="-2159.6,891.6 -2159.6,978 -2058.4,978 -2058.4,966.4 -2071,966.4 -2071,953.8 -2083.7,953.8 
				-2083.7,941.1 -2096.3,941.1 -2096.3,928.5 -2083.7,928.5 -2083.7,915.8 -2071,915.8 -2071,903.1 -2058.4,903.1 -2058.4,891.6 
							"/>
			<polygon class="st3" points="-2159.6,880 -2159.6,966.4 -2058.4,966.4 -2058.4,954.8 -2071,954.8 -2071,942.2 -2083.7,942.2 
				-2083.7,929.5 -2096.3,929.5 -2096.3,916.9 -2083.7,916.9 -2083.7,904.2 -2071,904.2 -2071,891.6 -2058.4,891.6 -2058.4,880 			
				"/>
		</g>
		<polygon class="st2" points="-2144.8,952.7 -2159.6,977 -2159.6,952.7 		"/>
		<g>
			<g>
				<polygon class="st2" points="-2640.4,891.6 -2640.4,978 -2741.6,978 -2741.6,966.4 -2729,966.4 -2729,953.8 -2716.3,953.8 
					-2716.3,941.1 -2703.7,941.1 -2703.7,928.5 -2716.3,928.5 -2716.3,915.8 -2729,915.8 -2729,903.1 -2741.6,903.1 -2741.6,891.6 
									"/>
				<polygon class="st3" points="-2640.4,880 -2640.4,966.4 -2741.6,966.4 -2741.6,954.8 -2729,954.8 -2729,942.2 -2716.3,942.2 
					-2716.3,929.5 -2703.7,929.5 -2703.7,916.9 -2716.3,916.9 -2716.3,904.2 -2729,904.2 -2729,891.6 -2741.6,891.6 -2741.6,880 
									"/>
			</g>
			<polygon class="st2" points="-2655.2,952.7 -2640.4,977 -2640.5,952.7 			"/>
		</g>
		<g>
			<rect x="-2655.2" y="866.2" class="st2" width="510.3" height="86.5"/>
			<rect x="-2655.2" y="853.6" class="st3" width="510.3" height="86.5"/>
		</g>
	</g>
</g>
<g>
	<g>
		<path class="st25" d="M-2541,928.6h-37.4v-59.9h37.4v7.5h7.5v15h-7.5v15h7.5v15h-7.5V928.6z M-2563.5,891.1h15v-7.5h-15V891.1z
			 M-2563.5,913.6h15v-7.5h-15V913.6z"/>
		<path class="st25" d="M-2511.1,928.6h-15v-52.4h7.5v-7.5h30v7.5h7.5v52.4h-15v-22.5h-15V928.6z M-2496.1,891.1v-7.5h-15v7.5
			H-2496.1z"/>
		<path class="st25" d="M-2466.1,921.1h-7.5v-52.4h15v44.9h30v15h-37.4V921.1z"/>
		<path class="st25" d="M-2413.7,921.1h-7.5v-52.4h15v44.9h30v15h-37.4V921.1z"/>
		<path class="st25" d="M-2368.8,876.1h7.5v-7.5h30v7.5h7.5v44.9h-7.5v7.5h-30v-7.5h-7.5V876.1z M-2353.8,913.6h15v-30h-15V913.6z"
			/>
		<path class="st25" d="M-2316.4,876.1h7.5v-7.5h30v7.5h7.5v44.9h-7.5v7.5h-30v-7.5h-7.5V876.1z M-2301.4,913.6h15v-30h-15V913.6z"
			/>
		<path class="st25" d="M-2241.5,898.6h-7.5v30h-15v-59.9h15v7.5h7.5v7.5h7.5v-15h15v59.9h-15v-22.5h-7.5V898.6z"/>
	</g>
	<g>
		<path class="st22" d="M-2541,922.7h-37.4v-59.9h37.4v7.5h7.5v15h-7.5v15h7.5v15h-7.5V922.7z M-2563.5,885.3h15v-7.5h-15V885.3z
			 M-2563.5,907.8h15v-7.5h-15V907.8z"/>
		<path class="st22" d="M-2511.1,922.7h-15v-52.4h7.5v-7.5h30v7.5h7.5v52.4h-15v-22.5h-15V922.7z M-2496.1,885.3v-7.5h-15v7.5
			H-2496.1z"/>
		<path class="st22" d="M-2466.1,915.2h-7.5v-52.4h15v44.9h30v15h-37.4V915.2z"/>
		<path class="st22" d="M-2413.7,915.2h-7.5v-52.4h15v44.9h30v15h-37.4V915.2z"/>
		<path class="st22" d="M-2368.8,870.3h7.5v-7.5h30v7.5h7.5v44.9h-7.5v7.5h-30v-7.5h-7.5V870.3z M-2353.8,907.8h15v-30h-15V907.8z"
			/>
		<path class="st22" d="M-2316.4,870.3h7.5v-7.5h30v7.5h7.5v44.9h-7.5v7.5h-30v-7.5h-7.5V870.3z M-2301.4,907.8h15v-30h-15V907.8z"
			/>
		<path class="st22" d="M-2241.5,892.8h-7.5v30h-15v-59.9h15v7.5h7.5v7.5h7.5v-15h15v59.9h-15v-22.5h-7.5V892.8z"/>
	</g>
</g>
<g>
	<path class="st0" d="M-2049.4,1075.3h20.7v6.9h-20.7V1075.3z"/>
	<path class="st0" d="M-1994.1,1092.6h-6.9v-27.6h17.3v3.5h3.5v10.4h-3.5v3.5h-10.4V1092.6z M-1994.1,1075.3h6.9v-3.5h-6.9V1075.3z"
		/>
	<path class="st0" d="M-1966.5,1082.2h-3.5v10.4h-6.9v-27.6h17.3v3.5h3.5v10.4h-3.5v3.5h3.5v10.4h-6.9v-6.9h-3.5V1082.2z
		 M-1969.9,1075.3h6.9v-3.5h-6.9V1075.3z"/>
	<path class="st0" d="M-1949.2,1089.1h-3.5v-20.7h3.5v-3.5h17.3v6.9h-13.8v3.5h6.9v6.9h-6.9v3.5h13.8v6.9h-17.3V1089.1z"/>
	<path class="st0" d="M-1928.4,1068.4h3.5v-3.5h17.3v6.9h-13.8v3.5h10.4v3.5h3.5v10.4h-3.5v3.5h-17.3v-6.9h13.8v-3.5h-10.4v-3.5
		h-3.5V1068.4z"/>
	<path class="st0" d="M-1904.3,1068.4h3.5v-3.5h17.3v6.9h-13.8v3.5h10.4v3.5h3.5v10.4h-3.5v3.5h-17.3v-6.9h13.8v-3.5h-10.4v-3.5
		h-3.5V1068.4z"/>
	<path class="st0" d="M-1849,1092.6h-6.9v-24.2h3.5v-3.5h13.8v3.5h3.5v24.2h-6.9v-10.4h-6.9V1092.6z M-1842,1075.3v-3.5h-6.9v3.5
		H-1842z"/>
	<path class="st0" d="M-1821.3,1078.7h-3.5v13.8h-6.9v-27.6h6.9v3.5h3.5v3.5h3.5v-6.9h6.9v27.6h-6.9v-10.4h-3.5V1078.7z"/>
	<path class="st0" d="M-1807.5,1064.9h6.9v10.4h6.9v-10.4h6.9v13.8h-3.5v3.5h-3.5v10.4h-6.9v-10.4h-3.5v-3.5h-3.5V1064.9z"/>
	<path class="st0" d="M-1752.2,1092.6h-6.9v-27.6h6.9v6.9h3.5v-3.5h3.5v-3.5h6.9v6.9h-3.5v3.5h-3.5v6.9h3.5v3.5h3.5v6.9h-6.9v-3.5
		h-3.5v-3.5h-3.5V1092.6z"/>
	<path class="st0" d="M-1731.5,1089.1h-3.5v-20.7h3.5v-3.5h17.3v6.9h-13.8v3.5h6.9v6.9h-6.9v3.5h13.8v6.9h-17.3V1089.1z"/>
	<path class="st0" d="M-1710.7,1064.9h6.9v10.4h6.9v-10.4h6.9v13.8h-3.5v3.5h-3.5v10.4h-6.9v-10.4h-3.5v-3.5h-3.5V1064.9z"/>
	<path class="st0" d="M-1662.3,1064.9h20.7v6.9h-6.9v20.7h-6.9v-20.7h-6.9V1064.9z"/>
	<path class="st0" d="M-1638.1,1068.4h3.5v-3.5h13.8v3.5h3.5v20.7h-3.5v3.5h-13.8v-3.5h-3.5V1068.4z M-1631.2,1085.6h6.9v-13.8h-6.9
		V1085.6z"/>
	<path class="st0" d="M-1582.9,1092.6h-6.9v-27.6h17.3v3.5h3.5v10.4h-3.5v3.5h-10.4V1092.6z M-1582.9,1075.3h6.9v-3.5h-6.9V1075.3z"
		/>
	<path class="st0" d="M-1562.1,1089.1h-3.5v-24.2h6.9v20.7h13.8v6.9h-17.3V1089.1z"/>
	<path class="st0" d="M-1534.5,1092.6h-6.9v-24.2h3.5v-3.5h13.8v3.5h3.5v24.2h-6.9v-10.4h-6.9V1092.6z M-1527.6,1075.3v-3.5h-6.9
		v3.5H-1527.6z"/>
	<path class="st0" d="M-1517.2,1064.9h6.9v10.4h6.9v-10.4h6.9v13.8h-3.5v3.5h-3.5v10.4h-6.9v-10.4h-3.5v-3.5h-3.5V1064.9z"/>
	<path class="st0" d="M-1468.8,1075.3h20.7v6.9h-20.7V1075.3z"/>
</g>
<g>
	<path class="st30" d="M-2050.3,1069.4h20.7v6.9h-20.7V1069.4z"/>
	<path class="st30" d="M-1995,1086.7h-6.9V1059h17.3v3.5h3.5v10.4h-3.5v3.5h-10.4V1086.7z M-1995,1069.4h6.9v-3.5h-6.9V1069.4z"/>
	<path class="st30" d="M-1967.3,1076.3h-3.5v10.4h-6.9V1059h17.3v3.5h3.5v10.4h-3.5v3.5h3.5v10.4h-6.9v-6.9h-3.5V1076.3z
		 M-1970.8,1069.4h6.9v-3.5h-6.9V1069.4z"/>
	<path class="st30" d="M-1950,1083.2h-3.5v-20.7h3.5v-3.5h17.3v6.9h-13.8v3.5h6.9v6.9h-6.9v3.5h13.8v6.9h-17.3V1083.2z"/>
	<path class="st30" d="M-1929.3,1062.5h3.5v-3.5h17.3v6.9h-13.8v3.5h10.4v3.5h3.5v10.4h-3.5v3.5h-17.3v-6.9h13.8v-3.5h-10.4v-3.5
		h-3.5V1062.5z"/>
	<path class="st30" d="M-1905.1,1062.5h3.5v-3.5h17.3v6.9h-13.8v3.5h10.4v3.5h3.5v10.4h-3.5v3.5h-17.3v-6.9h13.8v-3.5h-10.4v-3.5
		h-3.5V1062.5z"/>
	<path class="st30" d="M-1849.8,1086.7h-6.9v-24.2h3.5v-3.5h13.8v3.5h3.5v24.2h-6.9v-10.4h-6.9V1086.7z M-1842.9,1069.4v-3.5h-6.9
		v3.5H-1842.9z"/>
	<path class="st30" d="M-1822.2,1072.8h-3.5v13.8h-6.9V1059h6.9v3.5h3.5v3.5h3.5v-6.9h6.9v27.6h-6.9v-10.4h-3.5V1072.8z"/>
	<path class="st30" d="M-1808.4,1059h6.9v10.4h6.9V1059h6.9v13.8h-3.5v3.5h-3.5v10.4h-6.9v-10.4h-3.5v-3.5h-3.5V1059z"/>
	<path class="st30" d="M-1753.1,1086.7h-6.9V1059h6.9v6.9h3.5v-3.5h3.5v-3.5h6.9v6.9h-3.5v3.5h-3.5v6.9h3.5v3.5h3.5v6.9h-6.9v-3.5
		h-3.5v-3.5h-3.5V1086.7z"/>
	<path class="st30" d="M-1732.3,1083.2h-3.5v-20.7h3.5v-3.5h17.3v6.9h-13.8v3.5h6.9v6.9h-6.9v3.5h13.8v6.9h-17.3V1083.2z"/>
	<path class="st30" d="M-1711.6,1059h6.9v10.4h6.9V1059h6.9v13.8h-3.5v3.5h-3.5v10.4h-6.9v-10.4h-3.5v-3.5h-3.5V1059z"/>
	<path class="st30" d="M-1663.2,1059h20.7v6.9h-6.9v20.7h-6.9v-20.7h-6.9V1059z"/>
	<path class="st30" d="M-1639,1062.5h3.5v-3.5h13.8v3.5h3.5v20.7h-3.5v3.5h-13.8v-3.5h-3.5V1062.5z M-1632.1,1079.8h6.9v-13.8h-6.9
		V1079.8z"/>
	<path class="st30" d="M-1583.7,1086.7h-6.9V1059h17.3v3.5h3.5v10.4h-3.5v3.5h-10.4V1086.7z M-1583.7,1069.4h6.9v-3.5h-6.9V1069.4z"
		/>
	<path class="st30" d="M-1563,1083.2h-3.5V1059h6.9v20.7h13.8v6.9h-17.3V1083.2z"/>
	<path class="st30" d="M-1535.3,1086.7h-6.9v-24.2h3.5v-3.5h13.8v3.5h3.5v24.2h-6.9v-10.4h-6.9V1086.7z M-1528.4,1069.4v-3.5h-6.9
		v3.5H-1528.4z"/>
	<path class="st30" d="M-1518.1,1059h6.9v10.4h6.9V1059h6.9v13.8h-3.5v3.5h-3.5v10.4h-6.9v-10.4h-3.5v-3.5h-3.5V1059z"/>
	<path class="st30" d="M-1469.7,1069.4h20.7v6.9h-20.7V1069.4z"/>
</g>
<g>
	<path class="st4" d="M-2050.3,1065h20.7v6.9h-20.7V1065z"/>
	<path class="st4" d="M-1995,1082.2h-6.9v-27.6h17.3v3.5h3.5v10.4h-3.5v3.5h-10.4V1082.2z M-1995,1065h6.9v-3.5h-6.9V1065z"/>
	<path class="st4" d="M-1967.3,1071.9h-3.5v10.4h-6.9v-27.6h17.3v3.5h3.5v10.4h-3.5v3.5h3.5v10.4h-6.9v-6.9h-3.5V1071.9z
		 M-1970.8,1065h6.9v-3.5h-6.9V1065z"/>
	<path class="st4" d="M-1950,1078.8h-3.5v-20.7h3.5v-3.5h17.3v6.9h-13.8v3.5h6.9v6.9h-6.9v3.5h13.8v6.9h-17.3V1078.8z"/>
	<path class="st4" d="M-1929.3,1058.1h3.5v-3.5h17.3v6.9h-13.8v3.5h10.4v3.5h3.5v10.4h-3.5v3.5h-17.3v-6.9h13.8v-3.5h-10.4v-3.5
		h-3.5V1058.1z"/>
	<path class="st4" d="M-1905.1,1058.1h3.5v-3.5h17.3v6.9h-13.8v3.5h10.4v3.5h3.5v10.4h-3.5v3.5h-17.3v-6.9h13.8v-3.5h-10.4v-3.5
		h-3.5V1058.1z"/>
	<path class="st4" d="M-1849.8,1082.2h-6.9v-24.2h3.5v-3.5h13.8v3.5h3.5v24.2h-6.9v-10.4h-6.9V1082.2z M-1842.9,1065v-3.5h-6.9v3.5
		H-1842.9z"/>
	<path class="st4" d="M-1822.2,1068.4h-3.5v13.8h-6.9v-27.6h6.9v3.5h3.5v3.5h3.5v-6.9h6.9v27.6h-6.9v-10.4h-3.5V1068.4z"/>
	<path class="st4" d="M-1808.4,1054.6h6.9v10.4h6.9v-10.4h6.9v13.8h-3.5v3.5h-3.5v10.4h-6.9v-10.4h-3.5v-3.5h-3.5V1054.6z"/>
	<path class="st4" d="M-1753.1,1082.2h-6.9v-27.6h6.9v6.9h3.5v-3.5h3.5v-3.5h6.9v6.9h-3.5v3.5h-3.5v6.9h3.5v3.5h3.5v6.9h-6.9v-3.5
		h-3.5v-3.5h-3.5V1082.2z"/>
	<path class="st4" d="M-1732.3,1078.8h-3.5v-20.7h3.5v-3.5h17.3v6.9h-13.8v3.5h6.9v6.9h-6.9v3.5h13.8v6.9h-17.3V1078.8z"/>
	<path class="st4" d="M-1711.6,1054.6h6.9v10.4h6.9v-10.4h6.9v13.8h-3.5v3.5h-3.5v10.4h-6.9v-10.4h-3.5v-3.5h-3.5V1054.6z"/>
	<path class="st4" d="M-1663.2,1054.6h20.7v6.9h-6.9v20.7h-6.9v-20.7h-6.9V1054.6z"/>
	<path class="st4" d="M-1639,1058.1h3.5v-3.5h13.8v3.5h3.5v20.7h-3.5v3.5h-13.8v-3.5h-3.5V1058.1z M-1632.1,1075.3h6.9v-13.8h-6.9
		V1075.3z"/>
	<path class="st4" d="M-1583.7,1082.2h-6.9v-27.6h17.3v3.5h3.5v10.4h-3.5v3.5h-10.4V1082.2z M-1583.7,1065h6.9v-3.5h-6.9V1065z"/>
	<path class="st4" d="M-1563,1078.8h-3.5v-24.2h6.9v20.7h13.8v6.9h-17.3V1078.8z"/>
	<path class="st4" d="M-1535.3,1082.2h-6.9v-24.2h3.5v-3.5h13.8v3.5h3.5v24.2h-6.9v-10.4h-6.9V1082.2z M-1528.4,1065v-3.5h-6.9v3.5
		H-1528.4z"/>
	<path class="st4" d="M-1518.1,1054.6h6.9v10.4h6.9v-10.4h6.9v13.8h-3.5v3.5h-3.5v10.4h-6.9v-10.4h-3.5v-3.5h-3.5V1054.6z"/>
	<path class="st4" d="M-1469.7,1065h20.7v6.9h-20.7V1065z"/>
</g>
<path class="st31" d="M711.5,362.9h-2.2h-10.8h-38.7H647H-879.5h-12.9h-38.7H-944h-12.9v22.6v840.8v11.3v33.9v11.3v11.3h25.8H647
	h12.9h38.7h10.8h2.2h12.9V362.9H711.5z M698.6,419.4v818.2v11.3h-12.9v11.3h-12.9v11.3h-12.9H-892.4h-12.9v-11.3h-12.9v-11.3h-12.9
	v-11.3V419.4v-11.3h12.9v-11.3h12.9v-11.3h12.9h204.3h135.5H659.9h12.9v11.3h12.9v11.3h12.9V419.4z"/>
<polygon class="st32" points="-568.4,5.6 -568.4,-3.2 -578.3,-3.2 -935.1,-3.2 -935.1,80.3 -579,80.3 -579,71.6 -578.3,71.6 
	-568.4,71.6 -568.4,64.6 -568.4,62.8 -558.6,62.8 -558.6,55.9 -558.6,5.6 "/>
<polygon class="st31" points="-568.9,-3.1 -568.9,-11.8 -578.8,-11.8 -946.1,-11.8 -946.1,-4.9 -946.1,-3.1 -956,-3.1 -956,47.2 
	-946.2,47.2 -946.2,54.1 -946.1,54.1 -946.1,62.9 -935.6,62.9 -935.6,71.6 -579.5,71.6 -579.5,62.9 -578.8,62.9 -568.9,62.9 
	-568.9,55.9 -568.9,54.1 -559.1,54.1 -559.1,47.2 -559.1,-3.1 "/>
<rect x="-1017.9" y="213" class="st13" width="92.2" height="32.8"/>
<text transform="matrix(1 0 0 1 -996.7606 231.1196)" class="st4" style="font-family:'EditUndoBRK'; font-size:31.5429px;">DMG</text>
<g>
	<g>
		<polygon class="st22" points="-818.1,247.3 -563.4,247.3 -563.4,229.3 -818.1,229.3 -818.1,229.4 -818.1,234.5 -825,234.5 
			-825,242.2 -818.1,242.2 -818.1,247.3 		"/>
	</g>
	<polygon class="st22" points="-554.8,234.5 -554.8,229.4 -554.8,229.3 -610.4,229.3 -610.4,247.3 -554.8,247.3 -554.8,247.2 
		-554.8,242.1 -547.8,242.1 -547.8,234.5 	"/>
</g>
<g class="st33">
	<polygon class="st34" points="-174.5,460.5 -174.5,382.5 -264.4,382.5 -264.4,392.5 -274.5,392.5 -274.5,450.4 -264.4,450.4 
		-264.4,460.5 	"/>
	<polygon class="st34" points="60.5,391.5 60.5,381.5 50.5,381.5 -31.5,381.5 -31.5,459.5 50.5,459.5 60.5,459.5 60.5,449.4 
		70.6,449.4 70.6,391.5 	"/>
	<rect x="-254.5" y="391.5" class="st34" width="305" height="78"/>
</g>
<g>
	<polygon class="st31" points="-164.5,460.5 -164.5,382.5 -254.4,382.5 -254.4,392.5 -264.5,392.5 -264.5,450.4 -254.4,450.4 
		-254.4,460.5 	"/>
	<polygon class="st31" points="-174.5,450.5 -174.5,372.5 -264.4,372.5 -264.4,382.5 -274.5,382.5 -274.5,440.4 -264.4,440.4 
		-264.4,450.5 	"/>
	<polygon class="st31" points="50.5,392.5 50.5,382.5 40.5,382.5 -41.5,382.5 -41.5,460.5 40.5,460.5 50.5,460.5 50.5,450.4 
		60.6,450.4 60.6,392.5 	"/>
	<polygon class="st31" points="60.5,382.5 60.5,372.5 50.5,372.5 -31.5,372.5 -31.5,450.5 50.5,450.5 60.5,450.5 60.5,440.4 
		70.6,440.4 70.6,382.5 	"/>
	<rect x="-164.5" y="382.5" class="st31" width="123" height="78"/>
</g>
<g>
	<polygon class="st35" points="-164.5,450.5 -164.5,372.5 -254.4,372.5 -254.4,382.5 -264.5,382.5 -264.5,440.4 -254.4,440.4 
		-254.4,450.5 	"/>
	<polygon class="st35" points="50.5,382.5 50.5,372.5 40.5,372.5 -27.5,372.5 -27.5,450.5 40.5,450.5 50.5,450.5 50.5,440.4 
		60.6,440.4 60.6,382.5 	"/>
</g>
<g class="st33">
	<polygon class="st34" points="-440.8,64.8 -440.8,-5.1 -521.5,-5.1 -521.5,3.9 -530.5,3.9 -530.5,55.8 -521.5,55.8 -521.5,64.8 	
		"/>
	<polygon class="st34" points="-230,3 -230,-6 -239,-6 -312.6,-6 -312.6,63.9 -239,63.9 -230,63.9 -230,54.9 -221,54.9 -221,3 	"/>
	<rect x="-512.6" y="2.9" class="st34" width="273.6" height="70"/>
</g>
<g>
	<polygon class="st31" points="-431.9,64.8 -431.9,-5.1 -512.5,-5.1 -512.5,3.9 -521.5,3.9 -521.5,55.8 -512.5,55.8 -512.5,64.8 	
		"/>
	<polygon class="st31" points="-440.8,55.8 -440.8,-14.1 -521.5,-14.1 -521.5,-5.1 -530.5,-5.1 -530.5,46.8 -521.5,46.8 
		-521.5,55.8 	"/>
	<polygon class="st31" points="-239,3.9 -239,-5.1 -248,-5.1 -321.5,-5.1 -321.5,64.8 -248,64.8 -239,64.8 -239,55.8 -230,55.8 
		-230,3.9 	"/>
	<polygon class="st31" points="-230,-5.1 -230,-14.1 -239,-14.1 -312.6,-14.1 -312.6,55.8 -239,55.8 -230,55.8 -230,46.8 -221,46.8 
		-221,-5.1 	"/>
	<rect x="-431.9" y="-5.1" class="st31" width="110.3" height="70"/>
</g>
<g>
	<polygon class="st35" points="-431.9,55.8 -431.9,-14.1 -512.5,-14.1 -512.5,-5.1 -521.5,-5.1 -521.5,46.8 -512.5,46.8 
		-512.5,55.8 	"/>
	<polygon class="st35" points="-239,-5.1 -239,-14.1 -248,-14.1 -309,-14.1 -309,55.8 -248,55.8 -239,55.8 -239,46.8 -230,46.8 
		-230,-5.1 	"/>
</g>
<rect x="-179.5" y="372.5" class="st35" width="169" height="78"/>
<rect x="-445.3" y="-14.1" class="st35" width="151.6" height="70"/>
<g>
	<rect x="-184.5" y="404.7" class="st13" width="179" height="81.8"/>
	<text transform="matrix(1 0 0 1 -162.4039 432.3427)" class="st4" style="font-family:'EditUndoBRK'; font-size:48px;">124 KM</text>
</g>
<g>
	<rect x="701.1" y="382.5" class="st32" width="8" height="2"/>
	<polygon class="st32" points="620.1,382.5 620.1,392.5 610.1,392.5 610.1,450.4 620,450.4 620,460.4 620.1,460.4 620.1,460.5 
		630,460.5 630,470.5 685.1,470.5 685.1,382.5 	"/>
</g>
<polygon class="st31" points="710.1,382.5 710.1,372.5 620.2,372.5 620.2,382.5 610.1,382.5 610.1,440.4 620.1,440.4 620.1,450.4 
	620.2,450.4 620.2,450.5 630.2,450.5 630.2,460.5 720.1,460.5 720.1,382.5 "/>
<g>
	<g>
		<g>
			<polygon class="st2" points="680.2,394 674.8,394 642.3,394 642.3,399.3 637,399.3 637,437.1 642.3,437.1 642.3,442.5 
				674.8,442.5 680.2,442.5 680.2,437.1 685.5,437.1 685.5,399.3 680.2,399.3 			"/>
			<polygon class="st3" points="680.4,388.2 675.1,388.2 642.4,388.2 642.4,393.6 637,393.6 637,431.7 642.4,431.7 642.4,437 
				675.1,437 680.4,437 680.4,431.7 685.8,431.7 685.8,393.6 680.4,393.6 			"/>
		</g>
		<g>
			<rect x="649.9" y="417.3" class="st4" width="24.2" height="4.8"/>
			<rect x="649.9" y="406.2" class="st4" width="24.2" height="4.8"/>
		</g>
	</g>
	<g class="st33">
		<polygon class="st36" points="642.4,442.6 642.4,447.6 647.7,447.6 680.4,447.6 680.4,442.6 647.7,442.6 		"/>
		<rect x="637" y="437.2" class="st36" width="5.4" height="5"/>
		<rect x="680.4" y="437.2" class="st36" width="5.4" height="5"/>
	</g>
</g>
<g>
	<g>
		<g>
			<polygon class="st2" points="33.7,4.5 29.5,4.5 4.2,4.5 4.2,8.6 0,8.6 0,38.1 4.2,38.1 4.2,42.3 29.5,42.3 33.7,42.3 33.7,38.1 
				37.8,38.1 37.8,8.6 33.7,8.6 			"/>
			<polygon class="st3" points="33.9,0 29.7,0 4.2,0 4.2,4.2 0,4.2 0,33.9 4.2,33.9 4.2,38.1 29.7,38.1 33.9,38.1 33.9,33.9 
				38.1,33.9 38.1,4.2 33.9,4.2 			"/>
		</g>
		<g>
			
				<rect x="4.7" y="17.3" transform="matrix(-1.836970e-16 1 -1 -1.836970e-16 33.3632 5.0725)" class="st4" width="18.9" height="3.8"/>
			
				<rect x="15.4" y="17.3" transform="matrix(-1.836970e-16 1 -1 -1.836970e-16 44.0657 -5.63)" class="st4" width="18.9" height="3.8"/>
		</g>
	</g>
	<g class="st33">
		<polygon class="st36" points="4.2,42.4 4.2,46.3 8.4,46.3 33.9,46.3 33.9,42.4 8.4,42.4 		"/>
		<rect y="38.2" class="st36" width="4.2" height="3.9"/>
		<rect x="33.9" y="38.2" class="st36" width="4.2" height="3.9"/>
	</g>
</g>
<polygon class="st22" points="-791.5,129.7 -791.5,126 -801.1,126 -801.5,126 -810.7,126 -811.1,126 -820.4,126 -820.7,126 
	-830.4,126 -830.4,129.7 -835.1,129.7 -835.1,135.2 -830.4,135.2 -830.4,138.9 -830.1,138.9 -825.9,138.9 -825.1,138.9 
	-820.9,138.9 -820.7,138.9 -820.5,138.9 -820.4,138.9 -816.3,138.9 -815.5,138.9 -811.3,138.9 -811.1,138.9 -810.9,138.9 
	-810.7,138.9 -806.6,138.9 -805.8,138.9 -801.6,138.9 -801.5,138.9 -801.2,138.9 -801.1,138.9 -797,138.9 -796.2,138.9 -792,138.9 
	-791.5,138.9 -791.5,135.2 -787,135.2 -787,129.7 "/>
<polygon class="st22" points="-784.7,-107.1 -784.7,-110.9 -794.4,-110.9 -794.7,-110.9 -804,-110.9 -804.4,-110.9 -813.6,-110.9 
	-814,-110.9 -823.6,-110.9 -823.6,-107.2 -828.4,-107.2 -828.4,-101.7 -823.6,-101.7 -823.6,-98 -823.4,-98 -819.2,-98 -818.4,-98 
	-814.2,-98 -814,-98 -813.8,-98 -813.6,-98 -809.6,-98 -808.7,-98 -804.5,-98 -804.4,-98 -804.1,-98 -804,-98 -799.9,-98 
	-799.1,-98 -794.9,-98 -794.7,-98 -794.5,-98 -794.4,-98 -790.3,-98 -789.5,-98 -785.3,-98 -784.7,-98 -784.7,-101.7 -780.3,-101.7 
	-780.3,-107.1 "/>
<polygon class="st37" points="-630.9,-107.1 -630.9,-110.9 -640.5,-110.9 -640.9,-110.9 -650.1,-110.9 -650.5,-110.9 -659.8,-110.9 
	-660.1,-110.9 -669.2,-110.9 -669.8,-110.9 -678.8,-110.9 -679.2,-110.9 -688.4,-110.9 -688.8,-110.9 -698.1,-110.9 -698.4,-110.9 
	-707.7,-110.9 -708.1,-110.9 -717.3,-110.9 -717.7,-110.9 -727,-110.9 -727.3,-110.9 -736.6,-110.9 -737,-110.9 -746.2,-110.9 
	-746.6,-110.9 -755.8,-110.9 -756.2,-110.9 -765.5,-110.9 -765.9,-110.9 -775.1,-110.9 -775.5,-110.9 -784.7,-110.9 -785.1,-110.9 
	-794.4,-110.9 -794.7,-110.9 -804,-110.9 -804.4,-110.9 -813.6,-110.9 -814,-110.9 -823.6,-110.9 -823.6,-107.2 -828.4,-107.2 
	-828.4,-101.7 -823.6,-101.7 -823.6,-98 -823.4,-98 -819.2,-98 -818.4,-98 -814.2,-98 -814,-98 -813.8,-98 -813.6,-98 -809.6,-98 
	-808.7,-98 -804.5,-98 -804.4,-98 -804.1,-98 -804,-98 -799.9,-98 -799.1,-98 -794.9,-98 -794.7,-98 -794.5,-98 -794.4,-98 
	-790.3,-98 -789.5,-98 -785.3,-98 -785.1,-98 -784.9,-98 -784.7,-98 -780.7,-98 -779.8,-98 -775.6,-98 -775.5,-98 -775.2,-98 
	-775.1,-98 -771,-98 -770.2,-98 -766,-98 -765.9,-98 -765.6,-98 -765.5,-98 -761.4,-98 -760.6,-98 -756.4,-98 -756.2,-98 -756,-98 
	-755.8,-98 -751.8,-98 -751,-98 -746.7,-98 -746.6,-98 -746.3,-98 -746.2,-98 -742.1,-98 -741.3,-98 -737.1,-98 -737,-98 
	-736.7,-98 -736.6,-98 -732.5,-98 -731.7,-98 -727.5,-98 -727.3,-98 -727.1,-98 -727,-98 -722.9,-98 -722.1,-98 -717.9,-98 
	-717.7,-98 -717.5,-98 -717.3,-98 -713.2,-98 -712.4,-98 -708.2,-98 -708.1,-98 -707.8,-98 -707.7,-98 -703.6,-98 -702.8,-98 
	-698.6,-98 -698.4,-98 -698.2,-98 -698.1,-98 -694,-98 -693.2,-98 -689,-98 -688.8,-98 -688.6,-98 -688.4,-98 -684.4,-98 
	-683.5,-98 -679.3,-98 -679.2,-98 -678.9,-98 -678.8,-98 -674.7,-98 -673.9,-98 -669.8,-98 -669.7,-98 -669.5,-98 -669.2,-98 
	-665.3,-98 -664.5,-98 -660.3,-98 -660.1,-98 -659.9,-98 -659.8,-98 -655.7,-98 -654.9,-98 -650.7,-98 -650.5,-98 -650.3,-98 
	-650.1,-98 -646.1,-98 -645.2,-98 -641,-98 -640.9,-98 -640.6,-98 -640.5,-98 -636.4,-98 -635.6,-98 -631.4,-98 -630.9,-98 
	-630.9,-101.7 -626.4,-101.7 -626.4,-107.1 "/>
<g>
	<polygon class="st31" points="920.1,1271.4 925.4,1271.4 938.3,1271.4 938.3,1260.1 951.2,1260.1 951.2,1248.8 964.1,1248.8 
		964.1,1237.5 964.1,1224.2 989.9,1224.2 989.9,1226.2 989.9,1237.5 989.9,1271.4 989.9,1282.7 989.9,1294 964.1,1294 920.1,1294 	
		"/>
</g>
<g>
	<polygon class="st31" points="986.3,1224.3 986.3,1229.6 986.3,1242.5 997.6,1242.5 997.6,1255.4 1008.9,1255.4 1008.9,1268.3 
		1020.2,1268.3 1033.6,1268.3 1033.6,1294.1 1031.5,1294.1 1020.2,1294.1 986.3,1294.1 975,1294.1 963.7,1294.1 963.7,1268.3 
		963.7,1224.3 	"/>
</g>
<g>
	<polygon class="st31" points="934.2,1271.4 934.2,1276.7 934.2,1289.6 945.5,1289.6 945.5,1302.5 956.8,1302.5 956.8,1315.4 
		968.1,1315.4 981.4,1315.4 981.4,1341.2 979.4,1341.2 968.1,1341.2 934.2,1341.2 922.9,1341.2 911.6,1341.2 911.6,1315.4 
		911.6,1271.4 	"/>
</g>
<g>
	<polygon class="st31" points="852.9,1271.4 847.6,1271.4 834.7,1271.4 834.7,1260.1 821.8,1260.1 821.8,1248.8 808.9,1248.8 
		808.9,1237.5 808.9,1224.2 783.1,1224.2 783.1,1226.2 783.1,1237.5 783.1,1271.4 783.1,1282.7 783.1,1294 808.9,1294 852.9,1294 	
		"/>
</g>
<g>
	<polygon class="st31" points="908.4,1318.7 903.1,1318.7 890.2,1318.7 890.2,1307.4 877.3,1307.4 877.3,1296.1 864.4,1296.1 
		864.4,1284.8 864.4,1271.4 838.6,1271.4 838.6,1273.5 838.6,1284.8 838.6,1318.7 838.6,1330 838.6,1341.3 864.4,1341.3 
		908.4,1341.3 	"/>
</g>
<g>
	<polygon class="st31" points="785.9,1235.1 785.9,1240.4 785.9,1253.3 774.6,1253.3 774.6,1266.2 763.3,1266.2 763.3,1279.1 
		752,1279.1 738.6,1279.1 738.6,1304.9 740.7,1304.9 752,1304.9 785.9,1304.9 797.2,1304.9 808.5,1304.9 808.5,1279.1 808.5,1235.1 
			"/>
</g>
<polygon class="st32" points="-40.2,12.8 -40.2,3.8 -40.2,3.8 -40.2,3.8 -49.1,3.8 -49.1,-5.2 -77.1,-5.2 -84.2,-5.2 -98.6,-5.2 
	-157,-5.2 -157,3.8 -165.9,3.8 -165.9,55.7 -157,55.7 -157,64.7 -157,64.7 -157,64.8 -148.1,64.8 -148.1,73.7 -98.6,73.7 
	-97.7,73.7 -97.7,64.8 -76.1,64.8 -76.1,73.7 -40.2,73.7 -40.2,64.7 -31.3,64.7 -31.3,12.8 "/>
<polygon class="st31" points="-76.2,-5.2 -76.2,-14.2 -156.9,-14.2 -156.9,-5.2 -165.9,-5.2 -165.9,46.8 -156.9,46.8 -156.9,55.7 
	-156.9,55.7 -156.9,55.8 -147.9,55.8 -147.9,64.8 -67.2,64.8 -67.2,-5.2 "/>
<g>
	<polygon class="st7" points="2046.5,429.4 2030,429.4 2030,421.5 2013.5,421.5 2013.5,412.7 1301.5,412.7 1301.5,421.5 1285,421.5 
		1285,429.4 1268.4,429.4 1268.4,897.4 1285,897.4 1285,905.3 1301.5,905.3 1301.5,914.1 2013.5,914.1 2013.5,905.3 2030,905.3 
		2030,897.4 2046.5,897.4 	"/>
	<polygon class="st8" points="2046.5,421.2 2030,421.2 2030,413.3 2013.5,413.3 2013.5,404.5 1301.5,404.5 1301.5,413.3 1285,413.3 
		1285,421.2 1268.4,421.2 1268.4,889.1 1285,889.1 1285,897.1 1301.5,897.1 1301.5,905.9 2013.5,905.9 2013.5,897.1 2030,897.1 
		2030,889.1 2046.5,889.1 	"/>
</g>
<g>
	<g>
		<polygon class="st20" points="2123.2,527.7 2123.2,704.7 2136.6,704.7 2136.6,715 2150.1,715 2150.1,726.3 2731.7,726.3 
			2731.7,715 2745.2,715 2745.2,704.7 2758.7,704.7 2758.7,527.7 		"/>
		<polygon class="st20" points="2758.7,527.7 2758.7,425.8 2745.2,425.8 2745.2,415.5 2731.7,415.5 2731.7,404.2 2150.1,404.2 
			2150.1,415.5 2136.6,415.5 2136.6,425.8 2123.2,425.8 2123.2,527.7 		"/>
	</g>
	<g>
		<polygon class="st21" points="2136.6,425.9 2150.1,425.9 2150.1,415.5 2136.6,415.5 2136.6,425.8 2123.2,425.8 2123.2,436.2 
			2136.6,436.2 		"/>
		<rect x="2150.1" y="404.2" class="st21" width="581.6" height="10.4"/>
		<polygon class="st21" points="2745.2,425.8 2745.2,415.5 2731.7,415.5 2731.7,425.9 2745.2,425.9 2745.2,436.2 2758.7,436.2 
			2758.7,425.8 		"/>
	</g>
</g>
<g>
	<polygon class="st2" points="1541,962.6 1534,962.6 1275.4,962.6 1275.4,969.5 1268.4,969.5 1268.4,1009.4 1275.4,1009.4 
		1275.4,1016.4 1534,1016.4 1541,1016.4 1541,1009.4 1547.9,1009.4 1547.9,969.5 1541,969.5 	"/>
	<polygon class="st3" points="1541,955.7 1534,955.7 1275.4,955.7 1275.4,962.6 1268.4,962.6 1268.4,1002.5 1275.4,1002.5 
		1275.4,1009.5 1534,1009.5 1541,1009.5 1541,1002.5 1547.9,1002.5 1547.9,962.6 1541,962.6 	"/>
	<rect x="1269.1" y="971.7" class="st13" width="278.7" height="56.4"/>
	<text transform="matrix(1 0 0 1 1307.153 990.7688)" class="st4" style="font-family:'EditUndoBRK'; font-size:33.1169px;">BACK TO MENU</text>
</g>
<g>
	<polygon class="st2" points="2039.6,960.2 2032.7,960.2 1774,960.2 1774,967.1 1767.1,967.1 1767.1,1007 1774,1007 1774,1014 
		2032.7,1014 2039.6,1014 2039.6,1007 2046.5,1007 2046.5,967.1 2039.6,967.1 	"/>
	<polygon class="st3" points="2039.6,953.3 2032.7,953.3 1774,953.3 1774,960.2 1767.1,960.2 1767.1,1000.1 1774,1000.1 
		1774,1007.1 2032.7,1007.1 2039.6,1007.1 2039.6,1000.1 2046.5,1000.1 2046.5,960.2 2039.6,960.2 	"/>
	<rect x="1767.7" y="969.3" class="st13" width="278.7" height="56.4"/>
	<text transform="matrix(1 0 0 1 1831.999 988.354)" class="st4" style="font-family:'EditUndoBRK'; font-size:33.1169px;">TRY AGAIN</text>
</g>
</svg>
