<!-- Generator: Adobe Illustrator 19.2.1, SVG Export Plug-In  -->
<svg version="1.1"
	 xmlns="http://www.w3.org/2000/svg" xmlns:xlink="http://www.w3.org/1999/xlink" xmlns:a="http://ns.adobe.com/AdobeSVGViewerExtensions/3.0/"
	 x="0px" y="0px" width="99.7px" height="43.9px" viewBox="0 0 99.7 43.9" style="enable-background:new 0 0 99.7 43.9;"
	 xml:space="preserve">
<style type="text/css">
	.st0{fill:#910E46;}
	.st1{fill:#EE3D53;}
	.st2{fill:#FFFFFF;}
</style>
<defs>
</defs>
<polygon class="st0" points="94.7,10 94.7,4.9 89.7,4.9 48.6,4.9 5,4.9 5,10 0,10 0,38.8 5,38.8 5,43.9 48.6,43.9 89.7,43.9
	94.7,43.9 94.7,38.8 99.7,38.8 99.7,10 "/>
<polygon class="st1" points="94.7,5 94.7,0 89.7,0 48.6,0 5,0 5,5 0,5 0,33.8 5,33.8 5,38.9 48.6,38.9 89.7,38.9 94.7,38.9
	94.7,33.8 99.7,33.8 99.7,5 "/>
<g>
	<path class="st2" d="M29.2,26.1h-3.4V12.3h8.6v1.7h1.7v5.2h-1.7V21h-5.2L29.2,26.1L29.2,26.1z M29.2,17.5h3.4v-1.7h-3.4V17.5z"/>
	<path class="st2" d="M39.5,24.4h-1.7v-12h3.4v10.3h6.9v3.4h-8.6V24.4z"/>
	<path class="st2" d="M53.3,26.1h-3.4v-12h1.7v-1.7h6.9v1.7h1.7v12h-3.4V21h-3.4L53.3,26.1L53.3,26.1z M56.7,17.5v-1.7h-3.4v1.7
		H56.7z"/>
	<path class="st2" d="M61.9,12.3h3.4v5.2h3.4v-5.2h3.4v6.9h-1.7V21h-1.7v5.2h-3.4V21h-1.7v-1.7h-1.7L61.9,12.3L61.9,12.3z"/>
</g>
</svg>
