<?xml version="1.0" encoding="utf-8"?>
<!-- Generator: Adobe Illustrator 22.0.1, SVG Export Plug-In . SVG Version: 6.00 Build 0)  -->
<svg version="1.1" id="Layer_1" xmlns="http://www.w3.org/2000/svg" xmlns:xlink="http://www.w3.org/1999/xlink" x="0px" y="0px"
	 width="157.5px" height="69.5px" viewBox="0 0 157.5 69.5" style="enable-background:new 0 0 157.5 69.5;" xml:space="preserve">
<style type="text/css">
	.st0{fill:#5895B7;}
	.st1{opacity:0.8;}
	.st2{fill:#C17620;}
	.st3{fill:#F4C24A;}
	.st4{fill:#2A6FBA;}
	.st5{fill:#FFFFFF;}
	.st6{fill:#4ABAEF;}
	.st7{fill:#95C9C8;}
	.st8{fill:#DDEFEE;}
	.st9{fill:#1B8E6F;}
	.st10{fill:#3CEA8A;}
	.st11{opacity:0.4;fill:#666666;}
	.st12{fill:#33BC6E;}
	.st13{fill:none;}
	.st14{fill:#7149A4;}
	.st15{fill:#BD86E0;}
	.st16{opacity:0.4;fill:#666666;stroke:#666666;stroke-width:4;stroke-linejoin:bevel;stroke-miterlimit:10;}
	.st17{fill:#F2F2F2;}
	.st18{fill:#E6E6E6;}
	.st19{fill:none;stroke:#000000;stroke-width:4;stroke-linejoin:bevel;stroke-miterlimit:10;}
	.st20{fill:#C6E0DE;}
	.st21{fill:#A7C6C3;}
	.st22{fill:#EE3D53;}
	.st23{fill:none;stroke:#000000;stroke-width:2;stroke-miterlimit:10;}
	.st24{fill:#A17559;}
	.st25{fill:#910E46;}
	.st26{font-family:'EditUndoBRK';}
	.st27{font-size:37.7933px;}
</style>
<g>
	<rect x="531.2" y="243.9" class="st0" width="484" height="82"/>
	<rect x="983.2" y="317.9" class="st0" width="107" height="30"/>
	<g class="st1">
		<g>
			<polygon class="st0" points="547.2,263.9 547.2,345.9 451.2,345.9 451.2,334.9 463.2,334.9 463.2,322.9 475.2,322.9 475.2,310.9 
				487.2,310.9 487.2,298.9 475.2,298.9 475.2,286.9 463.2,286.9 463.2,274.9 451.2,274.9 451.2,263.9 			"/>
		</g>
		<polygon class="st0" points="533.2,321.9 547.2,344.9 547.2,321.9 		"/>
	</g>
	<g>
		<g>
			<polygon class="st2" points="994.2,255.9 994.2,337.9 1090.2,337.9 1090.2,326.9 1078.2,326.9 1078.2,314.9 1066.2,314.9 
				1066.2,302.9 1054.2,302.9 1054.2,290.9 1066.2,290.9 1066.2,278.9 1078.2,278.9 1078.2,266.9 1090.2,266.9 1090.2,255.9 			"/>
			<polygon class="st3" points="994.2,244.9 994.2,326.9 1090.2,326.9 1090.2,315.9 1078.2,315.9 1078.2,303.9 1066.2,303.9 
				1066.2,291.9 1054.2,291.9 1054.2,279.9 1066.2,279.9 1066.2,267.9 1078.2,267.9 1078.2,255.9 1090.2,255.9 1090.2,244.9 			"/>
		</g>
		<polygon class="st2" points="1008.2,313.9 994.2,336.9 994.3,313.9 		"/>
		<g>
			<g>
				<polygon class="st2" points="538.2,255.9 538.2,337.9 442.2,337.9 442.2,326.9 454.2,326.9 454.2,314.9 466.2,314.9 
					466.2,302.9 478.2,302.9 478.2,290.9 466.2,290.9 466.2,278.9 454.2,278.9 454.2,266.9 442.2,266.9 442.2,255.9 				"/>
				<polygon class="st3" points="538.2,244.9 538.2,326.9 442.2,326.9 442.2,315.9 454.2,315.9 454.2,303.9 466.2,303.9 
					466.2,291.9 478.2,291.9 478.2,279.9 466.2,279.9 466.2,267.9 454.2,267.9 454.2,255.9 442.2,255.9 442.2,244.9 				"/>
			</g>
			<polygon class="st2" points="524.2,313.9 538.2,336.9 538.2,313.9 			"/>
		</g>
		<g>
			<rect x="524.2" y="231.9" class="st2" width="484" height="82"/>
			<rect x="524.2" y="219.9" class="st3" width="484" height="82"/>
		</g>
	</g>
	<rect x="547.1" y="245.2" class="st13" width="415.2" height="81.8"/>
	<text transform="matrix(1 0 0 1 586.192 279.7383)" class="st5 st26" style="font-size:60px;">HOW TO PLAY</text>
</g>
<polygon class="st4" points="700.2,512.9 688.2,512.9 615.2,512.9 615.2,524.9 603.2,524.9 603.2,609.9 615.2,609.9 615.2,621.9 
	688.2,621.9 700.2,621.9 700.2,609.9 712.2,609.9 712.2,524.9 700.2,524.9 "/>
<polygon class="st4" points="700.2,512.9 688.2,512.9 615.2,512.9 615.2,524.9 603.2,524.9 603.2,609.9 615.2,609.9 615.2,621.9 
	688.2,621.9 700.2,621.9 700.2,609.9 712.2,609.9 712.2,524.9 700.2,524.9 "/>
<rect x="615.2" y="547.2" class="st13" width="89" height="81.8"/>
<text transform="matrix(1 0 0 1 639.8062 592.6816)" class="st5 st26" style="font-size:79px;">?</text>
<polygon class="st4" points="851.2,512.9 839.2,512.9 766.2,512.9 766.2,524.9 754.2,524.9 754.2,609.9 766.2,609.9 766.2,621.9 
	839.2,621.9 851.2,621.9 851.2,609.9 863.2,609.9 863.2,524.9 851.2,524.9 "/>
<polygon class="st6" points="851.2,502.9 839.2,502.9 766.2,502.9 766.2,514.9 754.2,514.9 754.2,599.9 766.2,599.9 766.2,611.9 
	839.2,611.9 851.2,611.9 851.2,599.9 863.2,599.9 863.2,514.9 851.2,514.9 "/>
<rect x="766.2" y="537.2" class="st13" width="89" height="81.8"/>
<text transform="matrix(1 0 0 1 790.8062 582.6816)" class="st5 st26" style="font-size:79px;">?</text>
<g>
	<polygon class="st0" points="1886.2,357.5 1874.6,357.5 1874.6,345.8 1863.1,345.8 1863.1,333 1364.4,333 1364.4,345.8 
		1352.8,345.8 1352.8,357.5 1341.2,357.5 1341.2,1042.2 1352.8,1042.2 1352.8,1053.9 1364.4,1053.9 1364.4,1066.7 1863.1,1066.7 
		1863.1,1053.9 1874.6,1053.9 1874.6,1042.2 1886.2,1042.2 	"/>
	<polygon class="st7" points="1886.2,345.5 1874.6,345.5 1874.6,333.8 1863.1,333.8 1863.1,321 1364.4,321 1364.4,333.8 
		1352.8,333.8 1352.8,345.5 1341.2,345.5 1341.2,1030.2 1352.8,1030.2 1352.8,1041.8 1364.4,1041.8 1364.4,1054.6 1863.1,1054.6 
		1863.1,1041.8 1874.6,1041.8 1874.6,1030.2 1886.2,1030.2 	"/>
	<polygon class="st8" points="1886.2,333.4 1874.6,333.4 1874.6,321.8 1863.1,321.8 1863.1,309 1364.4,309 1364.4,321.8 
		1352.8,321.8 1352.8,333.4 1341.2,333.4 1341.2,1018.2 1352.8,1018.2 1352.8,1029.8 1364.4,1029.8 1364.4,1042.6 1863.1,1042.6 
		1863.1,1029.8 1874.6,1029.8 1874.6,1018.2 1886.2,1018.2 	"/>
</g>
<g>
	<polygon class="st9" points="837.2,-7 827.2,-7 452.3,-7 452.3,3 442.2,3 442.2,60.9 452.3,60.9 452.3,71 827.2,71 837.2,71 
		837.2,60.9 847.3,60.9 847.3,3 837.2,3 	"/>
	<polygon class="st10" points="837.2,-17 827.2,-17 452.3,-17 452.3,-7 442.2,-7 442.2,50.9 452.3,50.9 452.3,61 827.2,61 837.2,61 
		837.2,50.9 847.3,50.9 847.3,-7 837.2,-7 	"/>
	<rect x="443.2" y="6.2" class="st13" width="404" height="81.8"/>
	<text transform="matrix(1 0 0 1 555.3589 33.8607)" class="st5 st26" style="font-size:48px;">PLAYER 1</text>
</g>
<g>
	<polygon class="st11" points="476.4,-127.6 474.4,-133.4 470.4,-145.4 452.6,-139.4 454.5,-133.6 448.8,-131.7 452.8,-119.6 
		458.6,-121.6 460.6,-115.8 472.6,-119.9 470.6,-125.7 	"/>
	<polygon class="st11" points="515.2,-139.7 513.2,-145.4 509.2,-157.5 491.4,-151.4 493.3,-145.7 487.6,-143.7 491.6,-131.7 
		497.4,-133.7 499.4,-127.9 511.4,-132 509.4,-137.7 	"/>
	<rect x="455.6" y="-186.6" transform="matrix(0.9472 -0.3207 0.3207 0.9472 77.9302 138.4341)" width="7.1" height="38.6"/>
	<polygon points="474.8,-132.4 472.8,-138.2 468.7,-150.2 451,-144.2 452.9,-138.4 447.1,-136.5 451.2,-124.4 457,-126.4 
		458.9,-120.6 471,-124.7 469,-130.5 	"/>
	<rect x="494.1" y="-199.7" transform="matrix(0.9472 -0.3207 0.3207 0.9472 84.1402 150.0838)" width="7.1" height="38.6"/>
	<polygon points="513.2,-145.4 511.3,-151.2 507.2,-163.2 489.4,-157.2 491.4,-151.4 485.6,-149.5 489.7,-137.5 495.4,-139.4 
		497.4,-133.7 509.4,-137.7 507.5,-143.5 	"/>
	<rect x="445.6" y="-208.9" transform="matrix(0.9472 -0.3207 0.3207 0.9472 89.0444 139.9896)" width="47.7" height="17.3"/>
</g>
<g>
	<polygon class="st11" points="542.6,-94 543.5,-98.2 545.4,-106.8 532.6,-109.6 531.7,-105.5 527.6,-106.4 525.7,-97.8 
		529.8,-96.8 528.9,-92.7 537.5,-90.8 538.5,-94.9 	"/>
	<polygon class="st11" points="570.1,-87.3 571,-91.4 572.9,-100 560.1,-102.9 559.2,-98.7 555.1,-99.6 553.2,-91 557.3,-90.1 
		556.4,-85.9 565.1,-84 566,-88.2 	"/>
	<rect x="544.2" y="-137.4" transform="matrix(0.9766 0.2149 -0.2149 0.9766 -13.866 -120.3652)" width="5" height="26.9"/>
	<polygon points="543.4,-97.5 544.3,-101.6 546.2,-110.3 533.4,-113.1 532.5,-108.9 528.3,-109.9 526.4,-101.2 530.6,-100.3 
		529.7,-96.2 538.3,-94.3 539.2,-98.4 	"/>
	<rect x="571.8" y="-131.3" transform="matrix(0.9766 0.2149 -0.2149 0.9766 -11.9119 -126.1671)" width="5" height="26.9"/>
	<polygon points="571,-91.4 571.9,-95.6 573.8,-104.2 561.1,-107 560.1,-102.9 556,-103.8 554.1,-95.1 558.2,-94.2 557.3,-90.1 
		566,-88.2 566.9,-92.3 	"/>
	<rect x="548" y="-145.9" transform="matrix(0.9766 0.2149 -0.2149 0.9766 -16.8778 -124.6096)" width="33.3" height="12"/>
</g>
<g>
	<polygon class="st11" points="618.6,-155.8 617.9,-158.9 616.5,-165.2 607.1,-163.1 607.8,-160.1 604.8,-159.4 606.2,-153.1 
		609.2,-153.7 609.9,-150.7 616.3,-152.1 615.6,-155.2 	"/>
	<polygon class="st11" points="639,-159.8 638.4,-162.9 637,-169.2 627.6,-167.1 628.2,-164.1 625.2,-163.4 626.6,-157.1 
		629.7,-157.8 630.3,-154.7 636.7,-156.1 636,-159.2 	"/>
	<rect x="610.2" y="-186.9" transform="matrix(0.9761 -0.2173 0.2173 0.9761 53.0854 128.7609)" width="3.6" height="19.8"/>
	<polygon points="618.1,-158.4 617.4,-161.4 616,-167.8 606.6,-165.7 607.3,-162.6 604.2,-161.9 605.6,-155.6 608.7,-156.3 
		609.3,-153.2 615.7,-154.6 615,-157.7 	"/>
	<rect x="630.5" y="-191.4" transform="matrix(0.9761 -0.2173 0.2173 0.9761 54.5529 133.0657)" width="3.6" height="19.8"/>
	<polygon points="638.4,-162.9 637.7,-165.9 636.3,-172.3 626.9,-170.2 627.6,-167.1 624.5,-166.5 625.9,-160.1 629,-160.8 
		629.7,-157.8 636,-159.2 635.3,-162.2 	"/>
	<rect x="606.9" y="-197.7" transform="matrix(0.9761 -0.2173 0.2173 0.9761 56.7786 129.9044)" width="24.4" height="8.8"/>
</g>
<g>
	<polygon class="st11" points="639.2,-110.1 641.8,-114.2 647.3,-122.7 634.6,-130.8 632,-126.7 627.9,-129.3 622.4,-120.7 
		626.6,-118.1 623.9,-114 632.5,-108.6 635.1,-112.7 	"/>
	<polygon class="st11" points="666.2,-92 668.8,-96.1 674.3,-104.6 661.6,-112.7 659,-108.6 654.9,-111.2 649.4,-102.6 653.5,-100 
		650.9,-95.9 659.5,-90.5 662.1,-94.6 	"/>
	<rect x="652.5" y="-156.2" transform="matrix(0.844 0.5363 -0.5363 0.844 26.7455 -373.4218)" width="5.7" height="30.9"/>
	<polygon points="641.4,-113.5 644,-117.6 649.5,-126.2 636.8,-134.2 634.2,-130.1 630.1,-132.7 624.6,-124.2 628.7,-121.6 
		626.1,-117.4 634.7,-112 637.3,-116.1 	"/>
	<rect x="679.9" y="-138.7" transform="matrix(0.844 0.5363 -0.5363 0.844 40.3699 -385.4126)" width="5.7" height="30.9"/>
	<polygon points="668.8,-96.1 671.5,-100.2 676.9,-108.8 664.2,-116.8 661.6,-112.7 657.5,-115.3 652,-106.7 656.2,-104.1 
		653.5,-100 662.1,-94.6 664.7,-98.7 	"/>
	<rect x="662" y="-157.8" transform="matrix(0.844 0.5363 -0.5363 0.844 25.314 -388.784)" width="38.2" height="13.8"/>
</g>
<g>
	<polygon class="st9" points="360.5,-550.5 353.9,-550.5 107.5,-550.5 107.5,-543.9 100.9,-543.9 100.9,-505.8 107.5,-505.8 
		107.5,-499.2 353.9,-499.2 360.5,-499.2 360.5,-505.8 367.1,-505.8 367.1,-543.9 360.5,-543.9 	"/>
	<polygon class="st12" points="360.5,-550.5 353.9,-550.5 107.5,-550.5 107.5,-543.9 100.9,-543.9 100.9,-505.8 107.5,-505.8 
		107.5,-499.2 353.9,-499.2 360.5,-499.2 360.5,-505.8 367.1,-505.8 367.1,-543.9 360.5,-543.9 	"/>
	<rect x="101.5" y="-535.2" class="st13" width="265.5" height="32.8"/>
	<text transform="matrix(1 0 0 1 167.2945 -517.0468)" class="st5 st26" style="font-size:31.5429px;">Calibrate</text>
</g>
<g>
	<polygon class="st9" points="680.5,-482.5 673.9,-482.5 427.5,-482.5 427.5,-475.9 420.9,-475.9 420.9,-437.8 427.5,-437.8 
		427.5,-431.2 673.9,-431.2 680.5,-431.2 680.5,-437.8 687.1,-437.8 687.1,-475.9 680.5,-475.9 	"/>
	<polygon class="st10" points="680.5,-489.1 673.9,-489.1 427.5,-489.1 427.5,-482.4 420.9,-482.4 420.9,-444.4 427.5,-444.4 
		427.5,-437.8 673.9,-437.8 680.5,-437.8 680.5,-444.4 687.1,-444.4 687.1,-482.4 680.5,-482.4 	"/>
	<rect x="421.5" y="-473.8" class="st13" width="265.5" height="32.8"/>
	<text transform="matrix(1 0 0 1 487.2945 -455.6181)" class="st5 st26" style="font-size:31.5429px;">Calibrate</text>
</g>
<g>
	<rect x="422.5" y="-400.1" class="st9" width="219.8" height="28.8"/>
	<rect x="417.7" y="-406.7" class="st9" width="229.4" height="30.6"/>
	<polygon class="st10" points="417.7,-411.1 417.7,-381.8 422.5,-381.8 422.5,-376.1 642.2,-376.1 642.2,-381.8 647,-381.8 
		647,-411.1 	"/>
</g>
<polygon class="st9" points="637.5,-396.2 637.5,-401.3 632.4,-401.3 632.4,-401.4 575.7,-401.4 545.1,-401.4 519.5,-401.4 
	495.7,-401.4 432.3,-401.4 432.3,-401.3 427.2,-401.3 427.2,-396.2 422.1,-396.2 422.1,-388.6 427.2,-388.6 427.2,-383.5 
	432.3,-383.5 432.3,-383.4 495.7,-383.4 519.5,-383.4 545.1,-383.4 575.7,-383.4 632.4,-383.4 632.4,-383.5 637.5,-383.5 
	637.5,-388.5 642.5,-388.5 642.5,-396.2 "/>
<g>
	<rect x="413.5" y="-302.1" class="st13" width="4.7" height="0.1"/>
	<rect x="413.5" y="-284.2" class="st13" width="4.7" height="0.1"/>
	<polygon class="st5" points="434.6,-284.2 434.6,-289.3 439.6,-289.3 439.6,-296.9 434.6,-296.9 434.6,-302 429.5,-302 
		429.5,-302.1 418.3,-302.1 418.3,-302.1 413.5,-302.1 413.5,-284.2 418.3,-284.2 418.3,-284.1 429.5,-284.1 429.5,-284.2 	"/>
</g>
<g>
	<polygon class="st5" points="387.7,-337.7 387.7,-342.8 382.6,-342.8 382.6,-342.9 366.7,-342.9 366.7,-324.9 382.6,-324.9 
		382.6,-324.9 387.7,-324.9 387.7,-330 392.8,-330 392.8,-337.7 	"/>
	<polygon class="st5" points="374.2,-298.8 374.2,-303.9 374.2,-303.9 374.2,-304 369.7,-304 369.1,-304 364.6,-304 364.6,-303.9 
		364.6,-303.9 364.6,-298.9 359.5,-298.9 359.5,-291.2 364.6,-291.2 364.6,-286.1 364.6,-286.1 364.6,-286 369.1,-286 369.7,-286 
		374.2,-286 374.2,-286.1 374.2,-286.1 374.2,-291.2 379.3,-291.2 379.3,-298.8 	"/>
</g>
<polygon class="st5" points="324.4,-396.2 324.4,-401.3 324.4,-401.3 324.4,-401.4 319.9,-401.4 319.3,-401.4 314.8,-401.4 
	314.8,-401.3 314.8,-401.3 314.8,-396.2 309.7,-396.2 309.7,-388.6 314.8,-388.6 314.8,-383.5 314.8,-383.5 314.8,-383.4 
	319.3,-383.4 319.9,-383.4 324.4,-383.4 324.4,-383.5 324.4,-383.5 324.4,-388.5 329.5,-388.5 329.5,-396.2 "/>
<polygon class="st14" points="1290.2,-7 1280.2,-7 905.3,-7 905.3,3 895.2,3 895.2,60.9 905.3,60.9 905.3,71 1280.2,71 1290.2,71 
	1290.2,60.9 1300.3,60.9 1300.3,3 1290.2,3 "/>
<polygon class="st15" points="1290.2,-17 1280.2,-17 905.3,-17 905.3,-7 895.2,-7 895.2,50.9 905.3,50.9 905.3,61 1280.2,61 
	1290.2,61 1290.2,50.9 1300.3,50.9 1300.3,-7 1290.2,-7 "/>
<rect x="895.2" y="6.2" class="st13" width="405" height="81.8"/>
<text transform="matrix(1 0 0 1 1000.9468 33.8608)" class="st5 st26" style="font-size:48px;">PLAYER 2</text>
<g>
	<rect x="916.2" y="-13" class="st5" width="45.1" height="5.7"/>
	<rect x="967.5" y="-13" class="st5" width="5.7" height="5.7"/>
</g>
<g>
	<rect x="461.7" y="-12" class="st5" width="45.1" height="5.7"/>
	<rect x="513" y="-12" class="st5" width="5.7" height="5.7"/>
</g>
<polygon class="st16" points="850.8,-172 857.2,-166.4 851.6,-160 872.1,-142.7 872.1,-104.8 892.8,-130.9 924.6,-101.5 
	930.4,-107.7 935.4,-103.1 1007,-221.8 "/>
<polygon class="st17" points="848.4,-179.1 854.8,-173.5 849.2,-167.1 869.6,-149.8 869.6,-111.9 890.3,-138 922.1,-108.6 
	927.9,-114.9 932.9,-110.2 1004.5,-228.9 "/>
<polygon class="st18" points="890.4,-138.2 1004.8,-229 869.7,-150 869.7,-112.1 "/>
<polygon class="st19" points="847.3,-179 853.7,-173.4 848.1,-167 868.5,-149.6 868.5,-111.7 889.3,-137.8 921,-108.5 926.9,-114.7 
	931.8,-110.1 1003.5,-228.8 "/>
<g>
	<polygon class="st20" points="783.2,-485.7 783.2,-322.1 793.5,-322.1 793.5,-312.6 803.9,-312.6 803.9,-302.1 1251.4,-302.1 
		1251.4,-312.6 1261.8,-312.6 1261.8,-322.1 1272.2,-322.1 1272.2,-485.7 	"/>
	<polygon class="st20" points="1272.2,-485.7 1272.2,-579.8 1261.8,-579.8 1261.8,-589.4 1251.4,-589.4 1251.4,-599.8 803.9,-599.8 
		803.9,-589.4 793.5,-589.4 793.5,-579.8 783.2,-579.8 783.2,-485.7 	"/>
</g>
<g>
	<polygon class="st21" points="793.5,-583.2 803.9,-583.2 803.9,-591.2 793.5,-591.2 793.5,-583.3 783.2,-583.3 783.2,-575.3 
		793.5,-575.3 	"/>
	<rect x="803.9" y="-599.9" class="st21" width="447.5" height="8"/>
	<polygon class="st21" points="1261.8,-583.3 1261.8,-591.2 1251.4,-591.2 1251.4,-583.2 1261.8,-583.2 1261.8,-575.3 
		1272.2,-575.3 1272.2,-583.3 	"/>
</g>
<g>
	<g>
		<g>
			<rect x="390" y="-664.2" width="10.2" height="10.2"/>
		</g>
	</g>
	<g>
		<g>
			<path d="M451.5-674.5v5.1h-5.1v5.1h5.1v20.5h5.1v5.1h-5.1v5.1h5.1h5.1v-10.2h15.4v5.1h5.1v-5.1v-30.7H451.5z M477.1-648.9h-20.5
				v-20.5h20.5V-648.9z"/>
		</g>
	</g>
	<g>
		<g>
			<rect x="461.7" y="-664.2" width="10.2" height="10.2"/>
		</g>
	</g>
	<g>
		<g>
			<rect x="390" y="-592.5" width="10.2" height="10.2"/>
		</g>
	</g>
	<g>
		<g>
			<rect x="451.5" y="-602.8" width="5.1" height="5.1"/>
		</g>
	</g>
	<g>
		<g>
			<rect x="425.9" y="-577.2" width="5.1" height="5.1"/>
		</g>
	</g>
	<g>
		<g>
			<rect x="431" y="-597.6" width="5.1" height="5.1"/>
		</g>
	</g>
	<g>
		<g>
			<rect x="431" y="-587.4" width="5.1" height="5.1"/>
		</g>
	</g>
	<g>
		<g>
			<rect x="477.1" y="-613" width="5.1" height="5.1"/>
		</g>
	</g>
	<g>
		<g>
			<rect x="379.8" y="-613" width="5.1" height="5.1"/>
		</g>
	</g>
	<g>
		<g>
			<rect x="379.8" y="-638.6" width="5.1" height="5.1"/>
		</g>
	</g>
	<g>
		<g>
			<polygon points="436.1,-669.3 436.1,-664.2 425.9,-664.2 425.9,-659.1 441.2,-659.1 441.2,-664.2 441.2,-669.3 			"/>
		</g>
	</g>
	<g>
		<g>
			<path d="M477.1-633.5v5.1h-10.2v5.1h-15.4v-5.1h-5.1v5.1h-10.2v5.1h15.4v5.1h-10.2h-5.1v-5.1H431v5.1h-5.1v-5.1h-5.1v5.1h-5.1
				v5.1h10.2v5.1h5.1v-5.1h10.2v5.1h-5.1v5.1h5.1v10.2h5.1v5.1h5.1v-5.1h15.4v-10.2h5.1v-5.1h-5.1V-613h-10.2v-5.1h10.2v5.1h5.1
				v-5.1h5.1v-5.1h5.1v-5.1v-5.1H477.1L477.1-633.5z M461.7-607.9v15.4h-15.4v-15.4H461.7z"/>
		</g>
	</g>
	<g>
		<g>
			<polygon points="446.3,-643.7 441.2,-643.7 441.2,-638.6 436.1,-638.6 436.1,-633.5 436.1,-628.4 441.2,-628.4 441.2,-633.5 
				446.3,-633.5 446.3,-638.6 451.5,-638.6 451.5,-643.7 			"/>
		</g>
	</g>
	<g>
		<g>
			<rect x="436.1" y="-577.2" width="10.2" height="5.1"/>
		</g>
	</g>
	<g>
		<g>
			<rect x="420.7" y="-669.3" width="5.1" height="5.1"/>
		</g>
	</g>
	<g>
		<g>
			<rect x="461.7" y="-633.5" width="5.1" height="5.1"/>
		</g>
	</g>
	<g>
		<g>
			<rect x="466.8" y="-638.6" width="5.1" height="5.1"/>
		</g>
	</g>
	<g>
		<g>
			<rect x="400.2" y="-613" width="5.1" height="5.1"/>
		</g>
	</g>
	<g>
		<g>
			<path d="M410.5-577.2v-20.5h5.1v-5.1v-5.1h-5.1v5.1h-15.4v-5.1H390h-5.1v5.1h-5.1v30.7h30.7h10.2v-5.1H410.5z M405.4-577.2h-20.5
				v-20.5h20.5V-577.2z"/>
		</g>
	</g>
	<g>
		<g>
			<rect x="410.5" y="-643.7" width="5.1" height="5.1"/>
		</g>
	</g>
	<g>
		<g>
			<path d="M415.6-674.5h-5.1h-30.7v30.7h5.1v5.1h5.1v-5.1h5.1v5.1h5.1v-5.1h10.2V-654h5.1v-5.1h-5.1v-10.2h5.1h5.1v-5.1H415.6z
				 M405.4-648.9h-20.5v-20.5h20.5V-648.9z"/>
		</g>
	</g>
	<g>
		<g>
			<rect x="441.2" y="-659.1" width="5.1" height="5.1"/>
		</g>
	</g>
	<g>
		<g>
			<rect x="431" y="-674.5" width="5.1" height="5.1"/>
		</g>
	</g>
	<g>
		<g>
			<path d="M441.2-643.7v-5.1h-5.1v-5.1H431v5.1h-10.2v-5.1h-5.1v5.1v5.1h5.1v10.2h-15.4v-5.1h-5.1v5.1h-15.4v5.1h10.2v5.1h-15.4
				v5.1h15.4v5.1h5.1v-5.1h5.1v5.1h5.1v-5.1h10.2v-5.1h-5.1v-5.1h5.1h5.1v5.1h5.1h5.1v-5.1H431v-5.1h-5.1v-10.2H441.2L441.2-643.7z
				 M410.5-623.2h-10.2v-5.1h10.2V-623.2z"/>
		</g>
	</g>
	<g>
		<g>
			<polygon points="425.9,-592.5 425.9,-597.6 425.9,-602.8 420.7,-602.8 420.7,-597.6 415.6,-597.6 415.6,-592.5 420.7,-592.5 
				420.7,-587.4 415.6,-587.4 415.6,-582.3 425.9,-582.3 425.9,-587.4 431,-587.4 431,-592.5 			"/>
		</g>
	</g>
	<g>
		<g>
			<polygon points="471.9,-582.3 471.9,-587.4 466.8,-587.4 466.8,-582.3 451.5,-582.3 451.5,-577.2 461.7,-577.2 461.7,-572 
				466.8,-572 466.8,-577.2 477.1,-577.2 477.1,-572 482.2,-572 482.2,-577.2 482.2,-582.3 			"/>
		</g>
	</g>
	<g>
		<g>
			<polygon points="477.1,-602.8 477.1,-597.6 471.9,-597.6 471.9,-592.5 482.2,-592.5 482.2,-597.6 482.2,-602.8 			"/>
		</g>
	</g>
</g>
<g>
	<g>
		<polygon class="st9" points="151.7,-258.3 148,-258.3 10.8,-258.3 10.8,-254.6 7.1,-254.6 7.1,-233.5 10.8,-233.5 10.8,-229.8 
			148,-229.8 151.7,-229.8 151.7,-233.5 155.3,-233.5 155.3,-254.6 151.7,-254.6 		"/>
		<polygon class="st12" points="151.7,-258.3 148,-258.3 10.8,-258.3 10.8,-254.6 7.1,-254.6 7.1,-233.5 10.8,-233.5 10.8,-229.8 
			148,-229.8 151.7,-229.8 151.7,-233.5 155.3,-233.5 155.3,-254.6 151.7,-254.6 		"/>
		<rect x="7.5" y="-249.8" class="st13" width="147.8" height="18.3"/>
		<text transform="matrix(1 0 0 1 35.2335 -239.7024)" class="st5 st26" style="font-size:17.5636px;">Recalibrate</text>
	</g>
	<g>
		<rect x="13.2" y="-256.2" class="st5" width="13.1" height="1.7"/>
		<rect x="28.1" y="-256.2" class="st5" width="1.7" height="1.7"/>
	</g>
</g>
<g>
	<g>
		<polygon class="st9" points="151.7,-216.3 148,-216.3 10.8,-216.3 10.8,-212.6 7.1,-212.6 7.1,-191.5 10.8,-191.5 10.8,-187.8 
			148,-187.8 151.7,-187.8 151.7,-191.5 155.3,-191.5 155.3,-212.6 151.7,-212.6 		"/>
		<polygon class="st10" points="151.7,-220 148,-220 10.8,-220 10.8,-216.3 7.1,-216.3 7.1,-195.1 10.8,-195.1 10.8,-191.4 
			148,-191.4 151.7,-191.4 151.7,-195.1 155.3,-195.1 155.3,-216.3 151.7,-216.3 		"/>
		<rect x="7.5" y="-211.5" class="st13" width="147.8" height="18.3"/>
		<text transform="matrix(1 0 0 1 35.2335 -201.3614)" class="st5 st26" style="font-size:17.5636px;">Recalibrate</text>
	</g>
	<g>
		<rect x="13.2" y="-217.2" class="st5" width="13.1" height="1.7"/>
		<rect x="28.1" y="-217.2" class="st5" width="1.7" height="1.7"/>
	</g>
</g>
<g>
	<rect x="433" y="-485.5" class="st5" width="23.6" height="3"/>
	<rect x="459.8" y="-485.5" class="st5" width="3" height="3"/>
</g>
<g>
	<rect x="112.6" y="-546.9" class="st5" width="23.6" height="3"/>
	<rect x="139.4" y="-546.9" class="st5" width="3" height="3"/>
</g>
<g>
	<polygon class="st22" points="82.5,-423.4 82.5,-430.9 63.9,-430.9 63.9,-423.4 56.4,-423.4 56.4,-416 56.4,-404.8 63.9,-404.8 
		63.9,-397.3 75.1,-397.3 82.5,-397.3 82.5,-404.8 90,-404.8 90,-416 90,-423.4 	"/>
	<line class="st23" x1="64.5" y1="-397.3" x2="64.5" y2="-387.4"/>
	<line class="st23" x1="81.9" y1="-397.3" x2="81.9" y2="-387.4"/>
	<polygon class="st24" points="81,-389.3 78.8,-389.3 65.5,-389.3 65.5,-387.1 63.3,-387.1 63.3,-371.5 65.5,-371.5 65.5,-369.4 
		78.8,-369.4 81,-369.4 81,-371.5 83.2,-371.5 83.2,-387.1 81,-387.1 	"/>
</g>
<polygon class="st25" points="149.6,15.8 149.6,7.9 141.7,7.9 76.7,7.9 7.9,7.9 7.9,15.8 0,15.8 0,61.4 7.9,61.4 7.9,69.3 
	76.7,69.3 141.7,69.3 149.6,69.3 149.6,61.4 157.5,61.4 157.5,15.8 "/>
<polygon class="st25" points="149.6,15.9 149.6,8 141.7,8 76.7,8 7.9,8 7.9,15.9 0,15.9 0,61.5 7.9,61.5 7.9,69.4 76.7,69.4 
	141.7,69.4 149.6,69.4 149.6,61.5 157.5,61.5 157.5,15.9 "/>
<rect x="25.2" y="27.6" class="st13" width="107.1" height="64.4"/>
<text transform="matrix(1 0 0 1 40.6783 49.3509)" class="st5 st26 st27">PLAY</text>
<polygon class="st25" points="319.6,15.8 319.6,7.9 311.7,7.9 246.7,7.9 177.9,7.9 177.9,15.8 170,15.8 170,61.4 177.9,61.4 
	177.9,69.3 246.7,69.3 311.7,69.3 319.6,69.3 319.6,61.4 327.5,61.4 327.5,15.8 "/>
<polygon class="st22" points="319.6,7.9 319.6,0 311.7,0 246.7,0 177.9,0 177.9,7.9 170,7.9 170,53.5 177.9,53.5 177.9,61.4 
	246.7,61.4 311.7,61.4 319.6,61.4 319.6,53.5 327.5,53.5 327.5,7.9 "/>
<rect x="195.2" y="19.6" class="st13" width="107.1" height="64.4"/>
<text transform="matrix(1 0 0 1 210.6783 41.3509)" class="st5 st26 st27">PLAY</text>
</svg>
