<?xml version="1.0" encoding="utf-8"?>
<!-- Generator: Adobe Illustrator 22.0.1, SVG Export Plug-In . SVG Version: 6.00 Build 0)  -->
<svg version="1.1" id="Layer_1" xmlns="http://www.w3.org/2000/svg" xmlns:xlink="http://www.w3.org/1999/xlink" x="0px" y="0px"
	 width="385.1px" height="68.2px" viewBox="0 0 385.1 68.2" style="enable-background:new 0 0 385.1 68.2;" xml:space="preserve">
<style type="text/css">
	.st0{fill:#1B8E6F;}
	.st1{fill:#3CEA8A;}
	.st2{fill:#FFFFFF;}
</style>
<g>
	<polygon class="st0" points="341.4,7.7 333.6,7.7 43.7,7.7 43.7,15.5 35.9,15.5 35.9,60.2 43.7,60.2 43.7,68 333.6,68 341.4,68 
		341.4,60.2 349.2,60.2 349.2,15.5 341.4,15.5 	"/>
	<polygon class="st1" points="341.4,0 333.6,0 43.7,0 43.7,7.8 35.9,7.8 35.9,52.5 43.7,52.5 43.7,60.3 333.6,60.3 341.4,60.3 
		341.4,52.5 349.2,52.5 349.2,7.8 341.4,7.8 	"/>
	<g>
		<path class="st2" d="M128.8,39.4h-5.3V17.9h13.4v2.7h2.7v8h-2.7v2.7h-8V39.4z M128.8,26h5.3v-2.7h-5.3V26z"/>
		<path class="st2" d="M144.8,36.7h-2.7V17.9h5.3V34h10.7v5.3h-13.4L144.8,36.7L144.8,36.7z"/>
		<path class="st2" d="M166.1,39.4h-5.3V20.6h2.7v-2.7h10.7v2.7h2.7v18.7h-5.3v-8h-5.3L166.1,39.4L166.1,39.4z M171.6,26v-2.7h-5.3
			V26H171.6z"/>
		<path class="st2" d="M179.5,17.9h5.3v8h5.3v-8h5.3v10.7h-2.6v2.7h-2.7v8h-5.3v-8h-2.7v-2.7h-2.7L179.5,17.9L179.5,17.9z"/>
		<path class="st2" d="M200.9,36.7h-2.7v-16h2.7v-2.7h13.4v5.3h-10.7V26h5.3v5.3h-5.3V34h10.7v5.3h-13.4V36.7z"/>
		<path class="st2" d="M225,31.3h-2.7v8h-5.3V17.9h13.4v2.7h2.7v8h-2.7v2.7h2.7v8h-5.3V34H225L225,31.3L225,31.3z M222.3,26h5.3
			v-2.7h-5.3V26z"/>
		<path class="st2" d="M254.4,17.9h5.3v21.3h-5.3V17.9z"/>
	</g>
</g>
<g>
	<rect x="51" y="3.9" class="st2" width="34.9" height="4.4"/>
	<rect x="90.7" y="3.9" class="st2" width="4.4" height="4.4"/>
</g>
</svg>
