<?xml version="1.0" encoding="utf-8"?>
<!-- Generator: Adobe Illustrator 22.0.1, SVG Export Plug-In . SVG Version: 6.00 Build 0)  -->
<svg version="1.1" id="Layer_1" xmlns="http://www.w3.org/2000/svg" xmlns:xlink="http://www.w3.org/1999/xlink" x="0px" y="0px"
	 width="385.1px" height="68.2px" viewBox="0 0 405.1 88.2" style="enable-background:new 0 0 405.1 88.2;" xml:space="preserve">
<style type="text/css">
	.st0{fill:#5895B7;}
	.st1{opacity:0.8;}
	.st2{fill:#C17620;}
	.st3{fill:#F4C24A;}
	.st4{fill:#2A6FBA;}
	.st5{fill:#4ABAEF;}
	.st6{fill:#FFFFFF;}
	.st7{fill:#95C9C8;}
	.st8{fill:#DDEFEE;}
	.st9{fill:#1B8E6F;}
	.st10{fill:#3CEA8A;}
	.st11{fill:none;}
	.st12{font-family:'EditUndoBRK';}
	.st13{font-size:48px;}
	.st14{opacity:0.4;fill:#666666;}
	.st15{fill:#7149A4;}
	.st16{fill:#BD86E0;}
</style>
<g>
	<rect x="89" y="261" class="st0" width="484" height="82"/>
	<rect x="541" y="335" class="st0" width="107" height="30"/>
	<g class="st1">
		<g>
			<polygon class="st0" points="105,281 105,363 9,363 9,352 21,352 21,340 33,340 33,328 45,328 45,316 33,316 33,304 21,304
				21,292 9,292 9,281 			"/>
		</g>
		<polygon class="st0" points="91,339 105,362 105,339 		"/>
	</g>
	<g>
		<g>
			<polygon class="st2" points="552,273 552,355 648,355 648,344 636,344 636,332 624,332 624,320 612,320 612,308 624,308 624,296
				636,296 636,284 648,284 648,273 			"/>
			<polygon class="st3" points="552,262 552,344 648,344 648,333 636,333 636,321 624,321 624,309 612,309 612,297 624,297 624,285
				636,285 636,273 648,273 648,262 			"/>
		</g>
		<polygon class="st2" points="566,331 552,354 552,331 		"/>
		<g>
			<g>
				<polygon class="st2" points="96,273 96,355 0,355 0,344 12,344 12,332 24,332 24,320 36,320 36,308 24,308 24,296 12,296
					12,284 0,284 0,273 				"/>
				<polygon class="st3" points="96,262 96,344 0,344 0,333 12,333 12,321 24,321 24,309 36,309 36,297 24,297 24,285 12,285
					12,273 0,273 0,262 				"/>
			</g>
			<polygon class="st2" points="82,331 96,354 96,331 			"/>
		</g>
		<g>
			<rect x="82" y="249" class="st2" width="484" height="82"/>
			<rect x="82" y="237" class="st3" width="484" height="82"/>
		</g>
	</g>
	<rect x="104.8" y="262.2" class="st11" width="415.2" height="81.8"/>
	<text transform="matrix(1 0 0 1 143.9775 296.7564)" class="st6 st12" style="font-size:60px;">HOW TO PLAY</text>
</g>
<polygon class="st4" points="409,530 397,530 324,530 324,542 312,542 312,627 324,627 324,639 397,639 409,639 409,627 421,627
	421,542 409,542 "/>
<polygon class="st5" points="409,520 397,520 324,520 324,532 312,532 312,617 324,617 324,629 397,629 409,629 409,617 421,617
	421,532 409,532 "/>
<rect x="324" y="554.2" class="st11" width="89" height="81.8"/>
<text transform="matrix(1 0 0 1 348.5918 599.6998)" class="st6 st12" style="font-size:79px;">?</text>
<g>
	<polygon class="st0" points="1444,368.7 1432.4,368.7 1432.4,358.4 1420.9,358.4 1420.9,347.2 922.1,347.2 922.1,358.4
		910.6,358.4 910.6,368.7 899,368.7 899,971.4 910.6,971.4 910.6,981.7 922.1,981.7 922.1,993 1420.9,993 1420.9,981.7
		1432.4,981.7 1432.4,971.4 1444,971.4 	"/>
	<polygon class="st7" points="1444,358.1 1432.4,358.1 1432.4,347.9 1420.9,347.9 1420.9,336.6 922.1,336.6 922.1,347.9
		910.6,347.9 910.6,358.1 899,358.1 899,960.9 910.6,960.9 910.6,971.1 922.1,971.1 922.1,982.4 1420.9,982.4 1420.9,971.1
		1432.4,971.1 1432.4,960.9 1444,960.9 	"/>
	<polygon class="st8" points="1444,347.5 1432.4,347.5 1432.4,337.3 1420.9,337.3 1420.9,326 922.1,326 922.1,337.3 910.6,337.3
		910.6,347.5 899,347.5 899,950.3 910.6,950.3 910.6,960.5 922.1,960.5 922.1,971.8 1420.9,971.8 1420.9,960.5 1432.4,960.5
		1432.4,950.3 1444,950.3 	"/>
</g>
<g>
	<polygon class="st9" points="395,10 385,10 10.1,10 10.1,20.1 0,20.1 0,77.9 10.1,77.9 10.1,88 385,88 395,88 395,77.9 405.1,77.9
		405.1,20.1 395,20.1 	"/>
	<polygon class="st10" points="395,0 385,0 10.1,0 10.1,10.1 0,10.1 0,67.9 10.1,67.9 10.1,78 385,78 395,78 395,67.9 405.1,67.9
		405.1,10.1 395,10.1 	"/>
	<rect x="1" y="23.2" class="st11" width="404" height="81.8"/>
	<text transform="matrix(1 0 0 1 113.1445 50.8789)" class="st6 st12 st13">PLAYER 1</text>
</g>
<g>
	<polygon class="st14" points="34.2,-110.6 32.2,-116.4 28.2,-128.4 10.4,-122.4 12.3,-116.6 6.5,-114.6 10.6,-102.6 16.4,-104.6
		18.3,-98.8 30.4,-102.9 28.4,-108.6 	"/>
	<polygon class="st14" points="73,-122.7 71,-128.4 67,-140.4 49.2,-134.4 51.1,-128.7 45.3,-126.7 49.4,-114.7 55.2,-116.6
		57.1,-110.9 69.2,-114.9 67.2,-120.7 	"/>
	<rect x="13.4" y="-169.6" transform="matrix(0.9472 -0.3207 0.3207 0.9472 49.1106 -2.4968)" width="7.1" height="38.6"/>
	<polygon points="32.6,-115.4 30.6,-121.2 26.5,-133.2 8.7,-127.2 10.7,-121.4 4.9,-119.4 9,-107.4 14.8,-109.4 16.7,-103.6
		28.7,-107.7 26.8,-113.4 	"/>
	<rect x="51.9" y="-182.6" transform="matrix(0.9472 -0.3207 0.3207 0.9472 55.3206 9.153)" width="7.1" height="38.6"/>
	<polygon points="71,-128.4 69.1,-134.2 65,-146.2 47.2,-140.2 49.2,-134.4 43.4,-132.5 47.5,-120.5 53.2,-122.4 55.2,-116.6
		67.2,-120.7 65.3,-126.5 	"/>
	<rect x="3.4" y="-191.9" transform="matrix(0.9472 -0.3207 0.3207 0.9472 60.2248 -0.9413)" width="47.7" height="17.3"/>
</g>
<g>
	<polygon class="st14" points="100.4,-77 101.3,-81.2 103.2,-89.8 90.4,-92.6 89.5,-88.5 85.4,-89.4 83.4,-80.7 87.6,-79.8
		86.7,-75.7 95.3,-73.8 96.2,-77.9 	"/>
	<polygon class="st14" points="127.9,-70.2 128.8,-74.4 130.7,-83 117.9,-85.8 117,-81.7 112.9,-82.6 111,-74 115.1,-73.1
		114.2,-68.9 122.8,-67 123.8,-71.1 	"/>
	<rect x="102" y="-120.4" transform="matrix(0.9766 0.2149 -0.2149 0.9766 -20.5397 -24.9409)" width="5" height="26.9"/>
	<polygon points="101.2,-80.5 102.1,-84.6 104,-93.3 91.2,-96.1 90.3,-91.9 86.1,-92.8 84.2,-84.2 88.4,-83.3 87.4,-79.1
		96.1,-77.2 97,-81.4 	"/>
	<rect x="129.6" y="-114.3" transform="matrix(0.9766 0.2149 -0.2149 0.9766 -18.5856 -30.7429)" width="5" height="26.9"/>
	<polygon points="128.8,-74.4 129.7,-78.5 131.6,-87.2 118.8,-90 117.9,-85.8 113.8,-86.8 111.9,-78.1 116,-77.2 115.1,-73.1
		123.8,-71.1 124.7,-75.3 	"/>
	<rect x="105.8" y="-128.9" transform="matrix(0.9766 0.2149 -0.2149 0.9766 -23.5515 -29.1853)" width="33.3" height="12"/>
</g>
<g>
	<polygon class="st14" points="176.4,-138.8 175.7,-141.9 174.3,-148.2 164.9,-146.1 165.6,-143.1 162.6,-142.4 164,-136
		167,-136.7 167.7,-133.7 174,-135.1 173.4,-138.1 	"/>
	<polygon class="st14" points="196.8,-142.8 196.2,-145.9 194.7,-152.2 185.4,-150.1 186,-147.1 183,-146.4 184.4,-140.1
		187.4,-140.7 188.1,-137.7 194.5,-139.1 193.8,-142.1 	"/>
	<rect x="168" y="-169.9" transform="matrix(0.9761 -0.2173 0.2173 0.9761 38.822 33.08)" width="3.6" height="19.8"/>
	<polygon points="175.8,-141.3 175.2,-144.4 173.8,-150.7 164.4,-148.7 165,-145.6 162,-144.9 163.4,-138.6 166.5,-139.3
		167.1,-136.2 173.5,-137.6 172.8,-140.7 	"/>
	<rect x="188.3" y="-174.4" transform="matrix(0.9761 -0.2173 0.2173 0.9761 40.2896 37.3847)" width="3.6" height="19.8"/>
	<polygon points="196.2,-145.9 195.5,-148.9 194.1,-155.3 184.7,-153.2 185.4,-150.1 182.3,-149.4 183.7,-143.1 186.8,-143.8
		187.4,-140.7 193.8,-142.1 193.1,-145.2 	"/>
	<rect x="164.7" y="-180.6" transform="matrix(0.9761 -0.2173 0.2173 0.9761 42.5153 34.2234)" width="24.4" height="8.8"/>
</g>
<g>
	<polygon class="st14" points="197,-93 199.6,-97.2 205.1,-105.7 192.4,-113.8 189.8,-109.7 185.7,-112.3 180.2,-103.7
		184.3,-101.1 181.7,-97 190.3,-91.5 192.9,-95.7 	"/>
	<polygon class="st14" points="224,-74.9 226.6,-79 232.1,-87.6 219.4,-95.7 216.8,-91.6 212.7,-94.2 207.2,-85.6 211.3,-83
		208.7,-78.9 217.3,-73.4 219.9,-77.5 	"/>
	<rect x="210.3" y="-139.1" transform="matrix(0.844 0.5363 -0.5363 0.844 -33.1032 -133.604)" width="5.7" height="30.9"/>
	<polygon points="199.2,-96.5 201.8,-100.6 207.3,-109.2 194.6,-117.2 192,-113.1 187.8,-115.7 182.4,-107.1 186.5,-104.5
		183.9,-100.4 192.5,-95 195.1,-99.1 	"/>
	<rect x="237.7" y="-121.7" transform="matrix(0.844 0.5363 -0.5363 0.844 -19.4788 -145.5948)" width="5.7" height="30.9"/>
	<polygon points="226.6,-79 229.2,-83.2 234.7,-91.7 222,-99.8 219.4,-95.7 215.3,-98.3 209.8,-89.7 213.9,-87.1 211.3,-83
		219.9,-77.5 222.5,-81.7 	"/>
	<rect x="219.7" y="-140.8" transform="matrix(0.844 0.5363 -0.5363 0.844 -34.5347 -148.9662)" width="38.2" height="13.8"/>
</g>
<g>
	<polygon class="st9" points="238.3,-465.5 231.7,-465.5 -14.7,-465.5 -14.7,-458.8 -21.3,-458.8 -21.3,-420.8 -14.7,-420.8
		-14.7,-414.2 231.7,-414.2 238.3,-414.2 238.3,-420.8 244.9,-420.8 244.9,-458.8 238.3,-458.8 	"/>
	<polygon class="st10" points="238.3,-472 231.7,-472 -14.7,-472 -14.7,-465.4 -21.3,-465.4 -21.3,-427.4 -14.7,-427.4
		-14.7,-420.8 231.7,-420.8 238.3,-420.8 238.3,-427.4 244.9,-427.4 244.9,-465.4 238.3,-465.4 	"/>
	<rect x="-20.7" y="-456.8" class="st11" width="265.5" height="32.8"/>
	<text transform="matrix(1 0 0 1 45.0801 -438.6)" class="st6 st12" style="font-size:31.5429px;">Calibrate</text>
</g>
<g>
	<rect x="-19.7" y="-383.1" class="st9" width="219.8" height="28.8"/>
	<rect x="-24.6" y="-389.7" class="st9" width="229.4" height="30.6"/>
	<polygon class="st10" points="-24.6,-394 -24.6,-364.8 -19.7,-364.8 -19.7,-359.1 200,-359.1 200,-364.8 204.8,-364.8 204.8,-394
		"/>
</g>
<polygon class="st9" points="195.2,-379.2 195.2,-384.3 190.1,-384.3 190.1,-384.4 133.5,-384.4 102.9,-384.4 77.3,-384.4
	53.5,-384.4 -9.9,-384.4 -9.9,-384.3 -15,-384.3 -15,-379.2 -20.1,-379.2 -20.1,-371.6 -15,-371.6 -15,-366.5 -9.9,-366.5
	-9.9,-366.4 53.5,-366.4 77.3,-366.4 102.9,-366.4 133.5,-366.4 190.1,-366.4 190.1,-366.4 195.2,-366.4 195.2,-371.5 200.3,-371.5
	200.3,-379.2 "/>
<g>
	<rect x="-28.7" y="-285.1" class="st11" width="4.7" height="0.1"/>
	<rect x="-28.7" y="-267.2" class="st11" width="4.7" height="0.1"/>
	<polygon class="st6" points="-7.7,-267.2 -7.7,-272.3 -2.6,-272.3 -2.6,-279.9 -7.7,-279.9 -7.7,-285 -12.8,-285 -12.8,-285.1
		-24,-285.1 -24,-285 -28.7,-285 -28.7,-267.2 -24,-267.2 -24,-267.1 -12.8,-267.1 -12.8,-267.2 	"/>
</g>
<g>
	<polygon class="st6" points="-54.5,-320.6 -54.5,-325.7 -59.6,-325.7 -59.6,-325.8 -75.5,-325.8 -75.5,-307.8 -59.6,-307.8
		-59.6,-307.9 -54.5,-307.9 -54.5,-313 -49.4,-313 -49.4,-320.6 	"/>
	<polygon class="st6" points="-68,-281.8 -68,-286.9 -68,-286.9 -68,-287 -72.5,-287 -73.1,-287 -77.6,-287 -77.6,-286.9
		-77.6,-286.9 -77.6,-281.8 -82.7,-281.8 -82.7,-274.2 -77.6,-274.2 -77.6,-269.1 -77.6,-269.1 -77.6,-269 -73.1,-269 -72.5,-269
		-68,-269 -68,-269.1 -68,-269.1 -68,-274.1 -62.9,-274.1 -62.9,-281.8 	"/>
</g>
<polygon class="st6" points="-117.8,-379.2 -117.8,-384.3 -117.8,-384.3 -117.8,-384.4 -122.3,-384.4 -122.9,-384.4 -127.4,-384.4
	-127.4,-384.3 -127.4,-384.3 -127.4,-379.2 -132.5,-379.2 -132.5,-371.6 -127.4,-371.6 -127.4,-366.5 -127.4,-366.5 -127.4,-366.4
	-122.9,-366.4 -122.3,-366.4 -117.8,-366.4 -117.8,-366.4 -117.8,-366.4 -117.8,-371.5 -112.7,-371.5 -112.7,-379.2 "/>
<polygon class="st15" points="848,10 838,10 463.1,10 463.1,20.1 453,20.1 453,77.9 463.1,77.9 463.1,88 838,88 848,88 848,77.9
	858.1,77.9 858.1,20.1 848,20.1 "/>
<polygon class="st16" points="848,0 838,0 463.1,0 463.1,10.1 453,10.1 453,67.9 463.1,67.9 463.1,78 838,78 848,78 848,67.9
	858.1,67.9 858.1,10.1 848,10.1 "/>
<rect x="453" y="23.2" class="st11" width="405" height="81.8"/>
<text transform="matrix(1 0 0 1 558.7324 50.8789)" class="st6 st12 st13">PLAYER 2</text>
<g>
	<rect x="474" y="4" class="st6" width="45.1" height="5.7"/>
	<rect x="525.3" y="4" class="st6" width="5.7" height="5.7"/>
</g>
<g>
	<rect x="19.5" y="5" class="st6" width="45.1" height="5.7"/>
	<rect x="70.8" y="5" class="st6" width="5.7" height="5.7"/>
</g>
</svg>
