<?xml version="1.0" encoding="utf-8"?>
<!-- Generator: Adobe Illustrator 22.0.1, SVG Export Plug-In . SVG Version: 6.00 Build 0)  -->
<svg version="1.1" id="Layer_1" xmlns="http://www.w3.org/2000/svg" xmlns:xlink="http://www.w3.org/1999/xlink" x="0px" y="0px"
	 width="157.5px" height="69.5px" viewBox="0 0 157.5 69.5" style="enable-background:new 0 0 157.5 69.5;" xml:space="preserve">
<style type="text/css">
	.st0{fill:#5895B7;}
	.st1{opacity:0.8;}
	.st2{fill:#C17620;}
	.st3{fill:#F4C24A;}
	.st4{fill:#FFFFFF;}
	.st5{fill:#2A6FBA;}
	.st6{fill:#4ABAEF;}
	.st7{fill:#95C9C8;}
	.st8{fill:#DDEFEE;}
	.st9{fill:#1B8E6F;}
	.st10{fill:#3CEA8A;}
	.st11{opacity:0.4;fill:#666666;}
	.st12{fill:#33BC6E;}
	.st13{fill:none;}
	.st14{fill:#7149A4;}
	.st15{fill:#BD86E0;}
	.st16{opacity:0.4;fill:#666666;stroke:#666666;stroke-width:4;stroke-linejoin:bevel;stroke-miterlimit:10;}
	.st17{fill:#F2F2F2;}
	.st18{fill:#E6E6E6;}
	.st19{fill:none;stroke:#000000;stroke-width:4;stroke-linejoin:bevel;stroke-miterlimit:10;}
	.st20{fill:#C6E0DE;}
	.st21{fill:#A7C6C3;}
	.st22{fill:#EE3D53;}
	.st23{fill:none;stroke:#000000;stroke-width:2;stroke-miterlimit:10;}
	.st24{fill:#A17559;}
	.st25{fill:#910E46;}
	.st26{fill:#238D6F;}
	.st27{fill:#704CA2;}
	.st28{fill:#47E88D;}
	.st29{fill:#BC88DE;}
</style>
<g>
	<rect x="361.2" y="243.9" class="st0" width="484" height="82"/>
	<rect x="813.2" y="317.9" class="st0" width="107" height="30"/>
	<g class="st1">
		<g>
			<polygon class="st0" points="377.2,263.9 377.2,345.9 281.2,345.9 281.2,334.9 293.2,334.9 293.2,322.9 305.2,322.9 305.2,310.9 
				317.2,310.9 317.2,298.9 305.2,298.9 305.2,286.9 293.2,286.9 293.2,274.9 281.2,274.9 281.2,263.9 			"/>
		</g>
		<polygon class="st0" points="363.2,321.9 377.2,344.9 377.2,321.9 		"/>
	</g>
	<g>
		<g>
			<polygon class="st2" points="824.2,255.9 824.2,337.9 920.2,337.9 920.2,326.9 908.2,326.9 908.2,314.9 896.2,314.9 896.2,302.9 
				884.2,302.9 884.2,290.9 896.2,290.9 896.2,278.9 908.2,278.9 908.2,266.9 920.2,266.9 920.2,255.9 			"/>
			<polygon class="st3" points="824.2,244.9 824.2,326.9 920.2,326.9 920.2,315.9 908.2,315.9 908.2,303.9 896.2,303.9 896.2,291.9 
				884.2,291.9 884.2,279.9 896.2,279.9 896.2,267.9 908.2,267.9 908.2,255.9 920.2,255.9 920.2,244.9 			"/>
		</g>
		<polygon class="st2" points="838.2,313.9 824.2,336.9 824.3,313.9 		"/>
		<g>
			<g>
				<polygon class="st2" points="368.2,255.9 368.2,337.9 272.2,337.9 272.2,326.9 284.2,326.9 284.2,314.9 296.2,314.9 
					296.2,302.9 308.2,302.9 308.2,290.9 296.2,290.9 296.2,278.9 284.2,278.9 284.2,266.9 272.2,266.9 272.2,255.9 				"/>
				<polygon class="st3" points="368.2,244.9 368.2,326.9 272.2,326.9 272.2,315.9 284.2,315.9 284.2,303.9 296.2,303.9 
					296.2,291.9 308.2,291.9 308.2,279.9 296.2,279.9 296.2,267.9 284.2,267.9 284.2,255.9 272.2,255.9 272.2,244.9 				"/>
			</g>
			<polygon class="st2" points="354.2,313.9 368.2,336.9 368.2,313.9 			"/>
		</g>
		<g>
			<rect x="354.2" y="231.9" class="st2" width="484" height="82"/>
			<rect x="354.2" y="219.9" class="st3" width="484" height="82"/>
		</g>
	</g>
	<g>
		<path class="st4" d="M424.8,279.7h-8.6v-34.6h8.6v13h8.6v-13h8.6v34.6h-8.6v-13h-8.6V279.7z"/>
		<path class="st4" d="M446.4,249.5h4.3v-4.3H468v4.3h4.3v25.9H468v4.3h-17.3v-4.3h-4.3V249.5z M455.1,271.1h8.6v-17.3h-8.6V271.1z"
			/>
		<path class="st4" d="M485.3,279.7h-8.6v-34.6h8.6v17.3h4.3v-4.3h4.3v4.3h4.3v-17.3h8.6v34.6h-8.6v-4.3H494v-4.3h-4.3v4.3h-4.3
			V279.7z"/>
		<path class="st4" d="M541.5,245.2h25.9v8.6h-8.6v25.9h-8.6v-25.9h-8.6V245.2z"/>
		<path class="st4" d="M571.7,249.5h4.3v-4.3h17.3v4.3h4.3v25.9h-4.3v4.3H576v-4.3h-4.3V249.5z M580.4,271.1h8.6v-17.3h-8.6V271.1z"
			/>
		<path class="st4" d="M640.8,279.7h-8.6v-34.6h21.6v4.3h4.3v13h-4.3v4.3h-13V279.7z M640.8,258.1h8.6v-4.3h-8.6V258.1z"/>
		<path class="st4" d="M666.8,275.4h-4.3v-30.2h8.6v25.9h17.3v8.6h-21.6V275.4z"/>
		<path class="st4" d="M701.3,279.7h-8.6v-30.2h4.3v-4.3h17.3v4.3h4.3v30.2H710v-13h-8.6V279.7z M710,258.1v-4.3h-8.6v4.3H710z"/>
		<path class="st4" d="M722.9,245.2h8.6v13h8.6v-13h8.6v17.3h-4.3v4.3h-4.3v13h-8.6v-13h-4.3v-4.3h-4.3V245.2z"/>
	</g>
</g>
<polygon class="st5" points="530.2,512.9 518.2,512.9 445.2,512.9 445.2,524.9 433.2,524.9 433.2,609.9 445.2,609.9 445.2,621.9 
	518.2,621.9 530.2,621.9 530.2,609.9 542.2,609.9 542.2,524.9 530.2,524.9 "/>
<polygon class="st5" points="530.2,512.9 518.2,512.9 445.2,512.9 445.2,524.9 433.2,524.9 433.2,609.9 445.2,609.9 445.2,621.9 
	518.2,621.9 530.2,621.9 530.2,609.9 542.2,609.9 542.2,524.9 530.2,524.9 "/>
<g>
	<path class="st4" d="M469.8,547.2h28.4v5.7h5.7v17.1h-5.7v5.7h-17.1v-11.4h11.4v-5.7h-22.8V547.2z M481.2,581.3h11.4v11.4h-11.4
		V581.3z"/>
</g>
<polygon class="st5" points="681.2,512.9 669.2,512.9 596.2,512.9 596.2,524.9 584.2,524.9 584.2,609.9 596.2,609.9 596.2,621.9 
	669.2,621.9 681.2,621.9 681.2,609.9 693.2,609.9 693.2,524.9 681.2,524.9 "/>
<polygon class="st6" points="681.2,502.9 669.2,502.9 596.2,502.9 596.2,514.9 584.2,514.9 584.2,599.9 596.2,599.9 596.2,611.9 
	669.2,611.9 681.2,611.9 681.2,599.9 693.2,599.9 693.2,514.9 681.2,514.9 "/>
<g>
	<path class="st4" d="M620.8,537.2h28.4v5.7h5.7v17.1h-5.7v5.7h-17.1v-11.4h11.4v-5.7h-22.8V537.2z M632.2,571.3h11.4v11.4h-11.4
		V571.3z"/>
</g>
<g>
	<polygon class="st0" points="1716.2,357.5 1704.6,357.5 1704.6,345.8 1693.1,345.8 1693.1,333 1194.4,333 1194.4,345.8 
		1182.8,345.8 1182.8,357.5 1171.2,357.5 1171.2,1042.2 1182.8,1042.2 1182.8,1053.9 1194.4,1053.9 1194.4,1066.7 1693.1,1066.7 
		1693.1,1053.9 1704.6,1053.9 1704.6,1042.2 1716.2,1042.2 	"/>
	<polygon class="st7" points="1716.2,345.5 1704.6,345.5 1704.6,333.8 1693.1,333.8 1693.1,321 1194.4,321 1194.4,333.8 
		1182.8,333.8 1182.8,345.5 1171.2,345.5 1171.2,1030.2 1182.8,1030.2 1182.8,1041.8 1194.4,1041.8 1194.4,1054.6 1693.1,1054.6 
		1693.1,1041.8 1704.6,1041.8 1704.6,1030.2 1716.2,1030.2 	"/>
	<polygon class="st8" points="1716.2,333.4 1704.6,333.4 1704.6,321.8 1693.1,321.8 1693.1,309 1194.4,309 1194.4,321.8 
		1182.8,321.8 1182.8,333.4 1171.2,333.4 1171.2,1018.2 1182.8,1018.2 1182.8,1029.8 1194.4,1029.8 1194.4,1042.6 1693.1,1042.6 
		1693.1,1029.8 1704.6,1029.8 1704.6,1018.2 1716.2,1018.2 	"/>
</g>
<g>
	<polygon class="st9" points="667.2,-7 657.2,-7 282.3,-7 282.3,3 272.2,3 272.2,60.9 282.3,60.9 282.3,71 657.2,71 667.2,71 
		667.2,60.9 677.3,60.9 677.3,3 667.2,3 	"/>
	<polygon class="st10" points="667.2,-17 657.2,-17 282.3,-17 282.3,-7 272.2,-7 272.2,50.9 282.3,50.9 282.3,61 657.2,61 667.2,61 
		667.2,50.9 677.3,50.9 677.3,-7 667.2,-7 	"/>
	<g>
		<path class="st4" d="M392.3,33.9h-6.9V6.2h17.3v3.5h3.5V20h-3.5v3.5h-10.4V33.9z M392.3,16.6h6.9v-3.5h-6.9V16.6z"/>
		<path class="st4" d="M413,30.4h-3.5V6.2h6.9v20.7h13.8v6.9H413V30.4z"/>
		<path class="st4" d="M440.7,33.9h-6.9V9.7h3.5V6.2H451v3.5h3.5v24.2h-6.9V23.5h-6.9V33.9z M447.6,16.6v-3.5h-6.9v3.5H447.6z"/>
		<path class="st4" d="M457.9,6.2h6.9v10.4h6.9V6.2h6.9V20h-3.5v3.5h-3.5v10.4h-6.9V23.5h-3.5V20h-3.5V6.2z"/>
		<path class="st4" d="M485.6,30.4h-3.5V9.7h3.5V6.2h17.3v6.9H489v3.5h6.9v6.9H489v3.5h13.8v6.9h-17.3V30.4z"/>
		<path class="st4" d="M516.7,23.5h-3.5v10.4h-6.9V6.2h17.3v3.5h3.5V20h-3.5v3.5h3.5v10.4h-6.9v-6.9h-3.5V23.5z M513.2,16.6h6.9
			v-3.5h-6.9V16.6z"/>
		<path class="st4" d="M554.7,6.2h6.9v27.6h-6.9V6.2z"/>
	</g>
</g>
<g>
	<polygon class="st11" points="306.4,-127.6 304.4,-133.4 300.4,-145.4 282.6,-139.4 284.5,-133.6 278.8,-131.7 282.8,-119.6 
		288.6,-121.6 290.6,-115.8 302.6,-119.9 300.6,-125.7 	"/>
	<polygon class="st11" points="345.2,-139.7 343.2,-145.4 339.2,-157.5 321.4,-151.4 323.3,-145.7 317.6,-143.7 321.6,-131.7 
		327.4,-133.7 329.4,-127.9 341.4,-132 339.4,-137.7 	"/>
	<rect x="285.6" y="-186.6" transform="matrix(0.9472 -0.3207 0.3207 0.9472 68.9494 83.9106)" width="7.1" height="38.6"/>
	<polygon points="304.8,-132.4 302.8,-138.2 298.7,-150.2 281,-144.2 282.9,-138.4 277.1,-136.5 281.2,-124.4 287,-126.4 
		288.9,-120.6 301,-124.7 299,-130.5 	"/>
	<rect x="324.1" y="-199.7" transform="matrix(0.9472 -0.3207 0.3207 0.9472 75.1594 95.5603)" width="7.1" height="38.6"/>
	<polygon points="343.2,-145.4 341.3,-151.2 337.2,-163.2 319.4,-157.2 321.4,-151.4 315.6,-149.5 319.7,-137.5 325.4,-139.4 
		327.4,-133.7 339.4,-137.7 337.5,-143.5 	"/>
	<rect x="275.6" y="-208.9" transform="matrix(0.9472 -0.3207 0.3207 0.9472 80.0636 85.4661)" width="47.7" height="17.3"/>
</g>
<g>
	<polygon class="st11" points="372.6,-94 373.5,-98.2 375.4,-106.8 362.6,-109.6 361.7,-105.5 357.6,-106.4 355.7,-97.8 
		359.8,-96.8 358.9,-92.7 367.5,-90.8 368.5,-94.9 	"/>
	<polygon class="st11" points="400.1,-87.3 401,-91.4 402.9,-100 390.1,-102.9 389.2,-98.7 385.1,-99.6 383.2,-91 387.3,-90.1 
		386.4,-85.9 395.1,-84 396,-88.2 	"/>
	<rect x="374.2" y="-137.4" transform="matrix(0.9766 0.2149 -0.2149 0.9766 -17.8374 -83.8342)" width="5" height="26.9"/>
	<polygon points="373.4,-97.5 374.3,-101.6 376.2,-110.3 363.4,-113.1 362.5,-108.9 358.3,-109.9 356.4,-101.2 360.6,-100.3 
		359.7,-96.2 368.3,-94.3 369.2,-98.4 	"/>
	<rect x="401.8" y="-131.3" transform="matrix(0.9766 0.2149 -0.2149 0.9766 -15.8833 -89.6361)" width="5" height="26.9"/>
	<polygon points="401,-91.4 401.9,-95.6 403.8,-104.2 391.1,-107 390.1,-102.9 386,-103.8 384.1,-95.1 388.2,-94.2 387.3,-90.1 
		396,-88.2 396.9,-92.3 	"/>
	<rect x="378" y="-145.9" transform="matrix(0.9766 0.2149 -0.2149 0.9766 -20.8492 -88.0786)" width="33.3" height="12"/>
</g>
<g>
	<polygon class="st11" points="448.6,-155.8 447.9,-158.9 446.5,-165.2 437.1,-163.1 437.8,-160.1 434.8,-159.4 436.2,-153.1 
		439.2,-153.7 439.9,-150.7 446.3,-152.1 445.6,-155.2 	"/>
	<polygon class="st11" points="469,-159.8 468.4,-162.9 467,-169.2 457.6,-167.1 458.2,-164.1 455.2,-163.4 456.6,-157.1 
		459.7,-157.8 460.3,-154.7 466.7,-156.1 466,-159.2 	"/>
	<rect x="440.2" y="-186.9" transform="matrix(0.9761 -0.2173 0.2173 0.9761 49.0237 91.8221)" width="3.6" height="19.8"/>
	<polygon points="448.1,-158.4 447.4,-161.4 446,-167.8 436.6,-165.7 437.3,-162.6 434.2,-161.9 435.6,-155.6 438.7,-156.3 
		439.3,-153.2 445.7,-154.6 445,-157.7 	"/>
	<rect x="460.5" y="-191.4" transform="matrix(0.9761 -0.2173 0.2173 0.9761 50.4912 96.1268)" width="3.6" height="19.8"/>
	<polygon points="468.4,-162.9 467.7,-165.9 466.3,-172.3 456.9,-170.2 457.6,-167.1 454.5,-166.5 455.9,-160.1 459,-160.8 
		459.7,-157.8 466,-159.2 465.3,-162.2 	"/>
	<rect x="436.9" y="-197.7" transform="matrix(0.9761 -0.2173 0.2173 0.9761 52.717 92.9655)" width="24.4" height="8.8"/>
</g>
<g>
	<polygon class="st11" points="469.2,-110.1 471.8,-114.2 477.3,-122.7 464.6,-130.8 462,-126.7 457.9,-129.3 452.4,-120.7 
		456.6,-118.1 453.9,-114 462.5,-108.6 465.1,-112.7 	"/>
	<polygon class="st11" points="496.2,-92 498.8,-96.1 504.3,-104.6 491.6,-112.7 489,-108.6 484.9,-111.2 479.4,-102.6 483.5,-100 
		480.9,-95.9 489.5,-90.5 492.1,-94.6 	"/>
	<rect x="482.5" y="-156.2" transform="matrix(0.844 0.5363 -0.5363 0.844 0.2292 -282.2493)" width="5.7" height="30.9"/>
	<polygon points="471.4,-113.5 474,-117.6 479.5,-126.2 466.8,-134.2 464.2,-130.1 460.1,-132.7 454.6,-124.2 458.7,-121.6 
		456.1,-117.4 464.7,-112 467.3,-116.1 	"/>
	<rect x="509.9" y="-138.7" transform="matrix(0.844 0.5363 -0.5363 0.844 13.8537 -294.2402)" width="5.7" height="30.9"/>
	<polygon points="498.8,-96.1 501.5,-100.2 506.9,-108.8 494.2,-116.8 491.6,-112.7 487.5,-115.3 482,-106.7 486.2,-104.1 
		483.5,-100 492.1,-94.6 494.7,-98.7 	"/>
	<rect x="492" y="-157.8" transform="matrix(0.844 0.5363 -0.5363 0.844 -1.2023 -297.6115)" width="38.2" height="13.8"/>
</g>
<g>
	<polygon class="st9" points="190.5,-550.5 183.9,-550.5 -62.5,-550.5 -62.5,-543.9 -69.1,-543.9 -69.1,-505.8 -62.5,-505.8 
		-62.5,-499.2 183.9,-499.2 190.5,-499.2 190.5,-505.8 197.1,-505.8 197.1,-543.9 190.5,-543.9 	"/>
	<polygon class="st12" points="190.5,-550.5 183.9,-550.5 -62.5,-550.5 -62.5,-543.9 -69.1,-543.9 -69.1,-505.8 -62.5,-505.8 
		-62.5,-499.2 183.9,-499.2 190.5,-499.2 190.5,-505.8 197.1,-505.8 197.1,-543.9 190.5,-543.9 	"/>
	<g>
		<path class="st4" d="M-2.7-532.9h2.3v-2.3h11.4v4.5H1.8v9.1h9.1v4.5H-0.4v-2.3h-2.3V-532.9z"/>
		<path class="st4" d="M17.7-517h-4.5v-15.9h2.3v-2.3h9.1v2.3h2.3v15.9h-4.5v-6.8h-4.5V-517z M22.3-528.4v-2.3h-4.5v2.3H22.3z"/>
		<path class="st4" d="M31.4-519.3h-2.3v-15.9h4.5v13.6h9.1v4.5H31.4V-519.3z"/>
		<path class="st4" d="M45-535.2h4.5v18.2H45V-535.2z"/>
		<path class="st4" d="M51.8-535.2h11.4v2.3h2.3v13.6h-2.3v2.3H51.8V-535.2z M56.3-528.4h4.5v-2.3h-4.5V-528.4z M56.3-521.6h4.5
			v-2.3h-4.5V-521.6z"/>
		<path class="st4" d="M74.5-523.9h-2.3v6.8h-4.5v-15.9H70v-2.3h9.1v2.3h2.3v6.8h-2.3v2.3h2.3v6.8h-4.5v-4.5h-2.3V-523.9z
			 M72.2-528.4h4.5v-2.3h-4.5V-528.4z"/>
		<path class="st4" d="M88.1-517h-4.5v-15.9h2.3v-2.3h9.1v2.3h2.3v15.9h-4.5v-6.8h-4.5V-517z M92.7-528.4v-2.3h-4.5v2.3H92.7z"/>
		<path class="st4" d="M99.5-535.2h13.6v4.5h-4.5v13.6H104v-13.6h-4.5V-535.2z"/>
		<path class="st4" d="M117.7-519.3h-2.3v-13.6h2.3v-2.3H129v4.5h-9.1v2.3h4.5v4.5h-4.5v2.3h9.1v4.5h-11.4V-519.3z"/>
	</g>
</g>
<g>
	<polygon class="st9" points="510.5,-482.5 503.9,-482.5 257.5,-482.5 257.5,-475.9 250.9,-475.9 250.9,-437.8 257.5,-437.8 
		257.5,-431.2 503.9,-431.2 510.5,-431.2 510.5,-437.8 517.1,-437.8 517.1,-475.9 510.5,-475.9 	"/>
	<polygon class="st10" points="510.5,-489.1 503.9,-489.1 257.5,-489.1 257.5,-482.4 250.9,-482.4 250.9,-444.4 257.5,-444.4 
		257.5,-437.8 503.9,-437.8 510.5,-437.8 510.5,-444.4 517.1,-444.4 517.1,-482.4 510.5,-482.4 	"/>
	<g>
		<path class="st4" d="M317.3-471.5h2.3v-2.3h11.4v4.5h-9.1v9.1h9.1v4.5h-11.4v-2.3h-2.3V-471.5z"/>
		<path class="st4" d="M337.7-455.6h-4.5v-15.9h2.3v-2.3h9.1v2.3h2.3v15.9h-4.5v-6.8h-4.5V-455.6z M342.3-467v-2.3h-4.5v2.3H342.3z"
			/>
		<path class="st4" d="M351.4-457.9h-2.3v-15.9h4.5v13.6h9.1v4.5h-11.4V-457.9z"/>
		<path class="st4" d="M365-473.8h4.5v18.2H365V-473.8z"/>
		<path class="st4" d="M371.8-473.8h11.4v2.3h2.3v13.6h-2.3v2.3h-11.4V-473.8z M376.3-467h4.5v-2.3h-4.5V-467z M376.3-460.2h4.5
			v-2.3h-4.5V-460.2z"/>
		<path class="st4" d="M394.5-462.4h-2.3v6.8h-4.5v-15.9h2.3v-2.3h9.1v2.3h2.3v6.8h-2.3v2.3h2.3v6.8h-4.5v-4.5h-2.3V-462.4z
			 M392.2-467h4.5v-2.3h-4.5V-467z"/>
		<path class="st4" d="M408.1-455.6h-4.5v-15.9h2.3v-2.3h9.1v2.3h2.3v15.9h-4.5v-6.8h-4.5V-455.6z M412.7-467v-2.3h-4.5v2.3H412.7z"
			/>
		<path class="st4" d="M419.5-473.8h13.6v4.5h-4.5v13.6H424v-13.6h-4.5V-473.8z"/>
		<path class="st4" d="M437.7-457.9h-2.3v-13.6h2.3v-2.3H449v4.5h-9.1v2.3h4.5v4.5h-4.5v2.3h9.1v4.5h-11.4V-457.9z"/>
	</g>
</g>
<g>
	<rect x="252.5" y="-400.1" class="st9" width="219.8" height="28.8"/>
	<rect x="247.7" y="-406.7" class="st9" width="229.4" height="30.6"/>
	<polygon class="st10" points="247.7,-411.1 247.7,-381.8 252.5,-381.8 252.5,-376.1 472.2,-376.1 472.2,-381.8 477,-381.8 
		477,-411.1 	"/>
</g>
<polygon class="st9" points="467.5,-396.2 467.5,-401.3 462.4,-401.3 462.4,-401.4 405.7,-401.4 375.1,-401.4 349.5,-401.4 
	325.7,-401.4 262.3,-401.4 262.3,-401.3 257.2,-401.3 257.2,-396.2 252.1,-396.2 252.1,-388.6 257.2,-388.6 257.2,-383.5 
	262.3,-383.5 262.3,-383.4 325.7,-383.4 349.5,-383.4 375.1,-383.4 405.7,-383.4 462.4,-383.4 462.4,-383.5 467.5,-383.5 
	467.5,-388.5 472.5,-388.5 472.5,-396.2 "/>
<g>
	<rect x="243.5" y="-302.1" class="st13" width="4.7" height="0.1"/>
	<rect x="243.5" y="-284.2" class="st13" width="4.7" height="0.1"/>
	<polygon class="st4" points="264.6,-284.2 264.6,-289.3 269.6,-289.3 269.6,-296.9 264.6,-296.9 264.6,-302 259.5,-302 
		259.5,-302.1 248.3,-302.1 248.3,-302.1 243.5,-302.1 243.5,-284.2 248.3,-284.2 248.3,-284.1 259.5,-284.1 259.5,-284.2 	"/>
</g>
<g>
	<polygon class="st4" points="217.7,-337.7 217.7,-342.8 212.6,-342.8 212.6,-342.9 196.7,-342.9 196.7,-324.9 212.6,-324.9 
		212.6,-324.9 217.7,-324.9 217.7,-330 222.8,-330 222.8,-337.7 	"/>
	<polygon class="st4" points="204.2,-298.8 204.2,-303.9 204.2,-303.9 204.2,-304 199.7,-304 199.1,-304 194.6,-304 194.6,-303.9 
		194.6,-303.9 194.6,-298.9 189.5,-298.9 189.5,-291.2 194.6,-291.2 194.6,-286.1 194.6,-286.1 194.6,-286 199.1,-286 199.7,-286 
		204.2,-286 204.2,-286.1 204.2,-286.1 204.2,-291.2 209.3,-291.2 209.3,-298.8 	"/>
</g>
<polygon class="st4" points="154.4,-396.2 154.4,-401.3 154.4,-401.3 154.4,-401.4 149.9,-401.4 149.3,-401.4 144.8,-401.4 
	144.8,-401.3 144.8,-401.3 144.8,-396.2 139.7,-396.2 139.7,-388.6 144.8,-388.6 144.8,-383.5 144.8,-383.5 144.8,-383.4 
	149.3,-383.4 149.9,-383.4 154.4,-383.4 154.4,-383.5 154.4,-383.5 154.4,-388.5 159.5,-388.5 159.5,-396.2 "/>
<polygon class="st14" points="1120.2,-7 1110.2,-7 735.3,-7 735.3,3 725.2,3 725.2,60.9 735.3,60.9 735.3,71 1110.2,71 1120.2,71 
	1120.2,60.9 1130.3,60.9 1130.3,3 1120.2,3 "/>
<polygon class="st15" points="1120.2,-17 1110.2,-17 735.3,-17 735.3,-7 725.2,-7 725.2,50.9 735.3,50.9 735.3,61 1110.2,61 
	1120.2,61 1120.2,50.9 1130.3,50.9 1130.3,-7 1120.2,-7 "/>
<g>
	<path class="st4" d="M837.9,33.9h-6.9V6.2h17.3v3.5h3.5V20h-3.5v3.5h-10.4V33.9z M837.9,16.6h6.9v-3.5h-6.9V16.6z"/>
	<path class="st4" d="M858.6,30.4h-3.5V6.2h6.9v20.7h13.8v6.9h-17.3V30.4z"/>
	<path class="st4" d="M886.2,33.9h-6.9V9.7h3.5V6.2h13.8v3.5h3.5v24.2h-6.9V23.5h-6.9V33.9z M893.2,16.6v-3.5h-6.9v3.5H893.2z"/>
	<path class="st4" d="M903.5,6.2h6.9v10.4h6.9V6.2h6.9V20h-3.5v3.5h-3.5v10.4h-6.9V23.5H907V20h-3.5V6.2z"/>
	<path class="st4" d="M931.2,30.4h-3.5V9.7h3.5V6.2h17.3v6.9h-13.8v3.5h6.9v6.9h-6.9v3.5h13.8v6.9h-17.3V30.4z"/>
	<path class="st4" d="M962.3,23.5h-3.5v10.4h-6.9V6.2h17.3v3.5h3.5V20h-3.5v3.5h3.5v10.4h-6.9v-6.9h-3.5V23.5z M958.8,16.6h6.9v-3.5
		h-6.9V16.6z"/>
	<path class="st4" d="M1000.3,6.2h17.3v3.5h3.5V20h-3.5v3.5h-10.4v3.5h13.8v6.9h-20.7V20h3.5v-3.5h10.4v-3.5h-13.8V6.2z"/>
</g>
<g>
	<rect x="746.2" y="-13" class="st4" width="45.1" height="5.7"/>
	<rect x="797.5" y="-13" class="st4" width="5.7" height="5.7"/>
</g>
<g>
	<rect x="291.7" y="-12" class="st4" width="45.1" height="5.7"/>
	<rect x="343" y="-12" class="st4" width="5.7" height="5.7"/>
</g>
<polygon class="st16" points="680.8,-172 687.2,-166.4 681.6,-160 702.1,-142.7 702.1,-104.8 722.8,-130.9 754.6,-101.5 
	760.4,-107.7 765.4,-103.1 837,-221.8 "/>
<polygon class="st17" points="678.4,-179.1 684.8,-173.5 679.2,-167.1 699.6,-149.8 699.6,-111.9 720.3,-138 752.1,-108.6 
	757.9,-114.9 762.9,-110.2 834.5,-228.9 "/>
<polygon class="st18" points="720.4,-138.2 834.8,-229 699.7,-150 699.7,-112.1 "/>
<polygon class="st19" points="677.3,-179 683.7,-173.4 678.1,-167 698.5,-149.6 698.5,-111.7 719.3,-137.8 751,-108.5 756.9,-114.7 
	761.8,-110.1 833.5,-228.8 "/>
<g>
	<polygon class="st20" points="613.2,-485.7 613.2,-322.1 623.5,-322.1 623.5,-312.6 633.9,-312.6 633.9,-302.1 1081.4,-302.1 
		1081.4,-312.6 1091.8,-312.6 1091.8,-322.1 1102.2,-322.1 1102.2,-485.7 	"/>
	<polygon class="st20" points="1102.2,-485.7 1102.2,-579.8 1091.8,-579.8 1091.8,-589.4 1081.4,-589.4 1081.4,-599.8 633.9,-599.8 
		633.9,-589.4 623.5,-589.4 623.5,-579.8 613.2,-579.8 613.2,-485.7 	"/>
</g>
<g>
	<polygon class="st21" points="623.5,-583.2 633.9,-583.2 633.9,-591.2 623.5,-591.2 623.5,-583.3 613.2,-583.3 613.2,-575.3 
		623.5,-575.3 	"/>
	<rect x="633.9" y="-599.9" class="st21" width="447.5" height="8"/>
	<polygon class="st21" points="1091.8,-583.3 1091.8,-591.2 1081.4,-591.2 1081.4,-583.2 1091.8,-583.2 1091.8,-575.3 
		1102.2,-575.3 1102.2,-583.3 	"/>
</g>
<g>
	<g>
		<g>
			<rect x="220" y="-664.2" width="10.2" height="10.2"/>
		</g>
	</g>
	<g>
		<g>
			<path d="M281.5-674.5v5.1h-5.1v5.1h5.1v20.5h5.1v5.1h-5.1v5.1h5.1h5.1v-10.2h15.4v5.1h5.1v-5.1v-30.7H281.5z M307.1-648.9h-20.5
				v-20.5h20.5V-648.9z"/>
		</g>
	</g>
	<g>
		<g>
			<rect x="291.7" y="-664.2" width="10.2" height="10.2"/>
		</g>
	</g>
	<g>
		<g>
			<rect x="220" y="-592.5" width="10.2" height="10.2"/>
		</g>
	</g>
	<g>
		<g>
			<rect x="281.5" y="-602.8" width="5.1" height="5.1"/>
		</g>
	</g>
	<g>
		<g>
			<rect x="255.9" y="-577.2" width="5.1" height="5.1"/>
		</g>
	</g>
	<g>
		<g>
			<rect x="261" y="-597.6" width="5.1" height="5.1"/>
		</g>
	</g>
	<g>
		<g>
			<rect x="261" y="-587.4" width="5.1" height="5.1"/>
		</g>
	</g>
	<g>
		<g>
			<rect x="307.1" y="-613" width="5.1" height="5.1"/>
		</g>
	</g>
	<g>
		<g>
			<rect x="209.8" y="-613" width="5.1" height="5.1"/>
		</g>
	</g>
	<g>
		<g>
			<rect x="209.8" y="-638.6" width="5.1" height="5.1"/>
		</g>
	</g>
	<g>
		<g>
			<polygon points="266.1,-669.3 266.1,-664.2 255.9,-664.2 255.9,-659.1 271.2,-659.1 271.2,-664.2 271.2,-669.3 			"/>
		</g>
	</g>
	<g>
		<g>
			<path d="M307.1-633.5v5.1h-10.2v5.1h-15.4v-5.1h-5.1v5.1h-10.2v5.1h15.4v5.1h-10.2h-5.1v-5.1H261v5.1h-5.1v-5.1h-5.1v5.1h-5.1
				v5.1h10.2v5.1h5.1v-5.1h10.2v5.1h-5.1v5.1h5.1v10.2h5.1v5.1h5.1v-5.1h15.4v-10.2h5.1v-5.1h-5.1V-613h-10.2v-5.1h10.2v5.1h5.1
				v-5.1h5.1v-5.1h5.1v-5.1v-5.1H307.1L307.1-633.5z M291.7-607.9v15.4h-15.4v-15.4H291.7z"/>
		</g>
	</g>
	<g>
		<g>
			<polygon points="276.3,-643.7 271.2,-643.7 271.2,-638.6 266.1,-638.6 266.1,-633.5 266.1,-628.4 271.2,-628.4 271.2,-633.5 
				276.3,-633.5 276.3,-638.6 281.5,-638.6 281.5,-643.7 			"/>
		</g>
	</g>
	<g>
		<g>
			<rect x="266.1" y="-577.2" width="10.2" height="5.1"/>
		</g>
	</g>
	<g>
		<g>
			<rect x="250.7" y="-669.3" width="5.1" height="5.1"/>
		</g>
	</g>
	<g>
		<g>
			<rect x="291.7" y="-633.5" width="5.1" height="5.1"/>
		</g>
	</g>
	<g>
		<g>
			<rect x="296.8" y="-638.6" width="5.1" height="5.1"/>
		</g>
	</g>
	<g>
		<g>
			<rect x="230.2" y="-613" width="5.1" height="5.1"/>
		</g>
	</g>
	<g>
		<g>
			<path d="M240.5-577.2v-20.5h5.1v-5.1v-5.1h-5.1v5.1h-15.4v-5.1H220h-5.1v5.1h-5.1v30.7h30.7h10.2v-5.1H240.5z M235.4-577.2h-20.5
				v-20.5h20.5V-577.2z"/>
		</g>
	</g>
	<g>
		<g>
			<rect x="240.5" y="-643.7" width="5.1" height="5.1"/>
		</g>
	</g>
	<g>
		<g>
			<path d="M245.6-674.5h-5.1h-30.7v30.7h5.1v5.1h5.1v-5.1h5.1v5.1h5.1v-5.1h10.2V-654h5.1v-5.1h-5.1v-10.2h5.1h5.1v-5.1H245.6z
				 M235.4-648.9h-20.5v-20.5h20.5V-648.9z"/>
		</g>
	</g>
	<g>
		<g>
			<rect x="271.2" y="-659.1" width="5.1" height="5.1"/>
		</g>
	</g>
	<g>
		<g>
			<rect x="261" y="-674.5" width="5.1" height="5.1"/>
		</g>
	</g>
	<g>
		<g>
			<path d="M271.2-643.7v-5.1h-5.1v-5.1H261v5.1h-10.2v-5.1h-5.1v5.1v5.1h5.1v10.2h-15.4v-5.1h-5.1v5.1h-15.4v5.1h10.2v5.1h-15.4
				v5.1h15.4v5.1h5.1v-5.1h5.1v5.1h5.1v-5.1h10.2v-5.1h-5.1v-5.1h5.1h5.1v5.1h5.1h5.1v-5.1H261v-5.1h-5.1v-10.2H271.2L271.2-643.7z
				 M240.5-623.2h-10.2v-5.1h10.2V-623.2z"/>
		</g>
	</g>
	<g>
		<g>
			<polygon points="255.9,-592.5 255.9,-597.6 255.9,-602.8 250.7,-602.8 250.7,-597.6 245.6,-597.6 245.6,-592.5 250.7,-592.5 
				250.7,-587.4 245.6,-587.4 245.6,-582.3 255.9,-582.3 255.9,-587.4 261,-587.4 261,-592.5 			"/>
		</g>
	</g>
	<g>
		<g>
			<polygon points="301.9,-582.3 301.9,-587.4 296.8,-587.4 296.8,-582.3 281.5,-582.3 281.5,-577.2 291.7,-577.2 291.7,-572 
				296.8,-572 296.8,-577.2 307.1,-577.2 307.1,-572 312.2,-572 312.2,-577.2 312.2,-582.3 			"/>
		</g>
	</g>
	<g>
		<g>
			<polygon points="307.1,-602.8 307.1,-597.6 301.9,-597.6 301.9,-592.5 312.2,-592.5 312.2,-597.6 312.2,-602.8 			"/>
		</g>
	</g>
</g>
<g>
	<g>
		<polygon class="st9" points="-18.3,-258.3 -22,-258.3 -159.2,-258.3 -159.2,-254.6 -162.9,-254.6 -162.9,-233.5 -159.2,-233.5 
			-159.2,-229.8 -22,-229.8 -18.3,-229.8 -18.3,-233.5 -14.7,-233.5 -14.7,-254.6 -18.3,-254.6 		"/>
		<polygon class="st12" points="-18.3,-258.3 -22,-258.3 -159.2,-258.3 -159.2,-254.6 -162.9,-254.6 -162.9,-233.5 -159.2,-233.5 
			-159.2,-229.8 -22,-229.8 -18.3,-229.8 -18.3,-233.5 -14.7,-233.5 -14.7,-254.6 -18.3,-254.6 		"/>
		<g>
			<path class="st4" d="M-131-243.5h-1.3v3.8h-2.5v-10.1h6.3v1.3h1.3v3.8h-1.3v1.3h1.3v3.8h-2.5v-2.5h-1.3V-243.5z M-132.2-246h2.5
				v-1.3h-2.5V-246z"/>
			<path class="st4" d="M-124.7-241h-1.3v-7.6h1.3v-1.3h6.3v2.5h-5.1v1.3h2.5v2.5h-2.5v1.3h5.1v2.5h-6.3V-241z"/>
			<path class="st4" d="M-115.8-241h-1.3v-7.6h1.3v-1.3h5.1v1.3h1.3v2.5h-2.5v-1.3h-2.5v5.1h2.5v-1.3h2.5v2.5h-1.3v1.3h-5.1V-241z"
				/>
			<path class="st4" d="M-105.7-239.7h-2.5v-8.9h1.3v-1.3h5.1v1.3h1.3v8.9h-2.5v-3.8h-2.5V-239.7z M-103.2-246v-1.3h-2.5v1.3H-103.2
				z"/>
			<path class="st4" d="M-98.1-241h-1.3v-8.9h2.5v7.6h5.1v2.5h-6.3V-241z"/>
			<path class="st4" d="M-90.5-249.8h2.5v10.1h-2.5V-249.8z"/>
			<path class="st4" d="M-86.7-249.8h6.3v1.3h1.3v7.6h-1.3v1.3h-6.3V-249.8z M-84.2-246h2.5v-1.3h-2.5V-246z M-84.2-242.2h2.5v-1.3
				h-2.5V-242.2z"/>
			<path class="st4" d="M-74.1-243.5h-1.3v3.8h-2.5v-8.9h1.3v-1.3h5.1v1.3h1.3v3.8h-1.3v1.3h1.3v3.8h-2.5v-2.5h-1.3V-243.5z
				 M-75.3-246h2.5v-1.3h-2.5V-246z"/>
			<path class="st4" d="M-66.5-239.7H-69v-8.9h1.3v-1.3h5.1v1.3h1.3v8.9H-64v-3.8h-2.5V-239.7z M-64-246v-1.3h-2.5v1.3H-64z"/>
			<path class="st4" d="M-60.2-249.8h7.6v2.5h-2.5v7.6h-2.5v-7.6h-2.5V-249.8z"/>
			<path class="st4" d="M-50-241h-1.3v-7.6h1.3v-1.3h6.3v2.5h-5.1v1.3h2.5v2.5h-2.5v1.3h5.1v2.5H-50V-241z"/>
		</g>
	</g>
	<g>
		<rect x="-156.8" y="-256.2" class="st4" width="13.1" height="1.7"/>
		<rect x="-141.9" y="-256.2" class="st4" width="1.7" height="1.7"/>
	</g>
</g>
<g>
	<g>
		<polygon class="st9" points="-18.3,-216.3 -22,-216.3 -159.2,-216.3 -159.2,-212.6 -162.9,-212.6 -162.9,-191.5 -159.2,-191.5 
			-159.2,-187.8 -22,-187.8 -18.3,-187.8 -18.3,-191.5 -14.7,-191.5 -14.7,-212.6 -18.3,-212.6 		"/>
		<polygon class="st10" points="-18.3,-220 -22,-220 -159.2,-220 -159.2,-216.3 -162.9,-216.3 -162.9,-195.1 -159.2,-195.1 
			-159.2,-191.4 -22,-191.4 -18.3,-191.4 -18.3,-195.1 -14.7,-195.1 -14.7,-216.3 -18.3,-216.3 		"/>
		<g>
			<path class="st4" d="M-131-205.2h-1.3v3.8h-2.5v-10.1h6.3v1.3h1.3v3.8h-1.3v1.3h1.3v3.8h-2.5v-2.5h-1.3V-205.2z M-132.2-207.7
				h2.5v-1.3h-2.5V-207.7z"/>
			<path class="st4" d="M-124.7-202.6h-1.3v-7.6h1.3v-1.3h6.3v2.5h-5.1v1.3h2.5v2.5h-2.5v1.3h5.1v2.5h-6.3V-202.6z"/>
			<path class="st4" d="M-115.8-202.6h-1.3v-7.6h1.3v-1.3h5.1v1.3h1.3v2.5h-2.5v-1.3h-2.5v5.1h2.5v-1.3h2.5v2.5h-1.3v1.3h-5.1
				V-202.6z"/>
			<path class="st4" d="M-105.7-201.4h-2.5v-8.9h1.3v-1.3h5.1v1.3h1.3v8.9h-2.5v-3.8h-2.5V-201.4z M-103.2-207.7v-1.3h-2.5v1.3
				H-103.2z"/>
			<path class="st4" d="M-98.1-202.6h-1.3v-8.9h2.5v7.6h5.1v2.5h-6.3V-202.6z"/>
			<path class="st4" d="M-90.5-211.5h2.5v10.1h-2.5V-211.5z"/>
			<path class="st4" d="M-86.7-211.5h6.3v1.3h1.3v7.6h-1.3v1.3h-6.3V-211.5z M-84.2-207.7h2.5v-1.3h-2.5V-207.7z M-84.2-203.9h2.5
				v-1.3h-2.5V-203.9z"/>
			<path class="st4" d="M-74.1-205.2h-1.3v3.8h-2.5v-8.9h1.3v-1.3h5.1v1.3h1.3v3.8h-1.3v1.3h1.3v3.8h-2.5v-2.5h-1.3V-205.2z
				 M-75.3-207.7h2.5v-1.3h-2.5V-207.7z"/>
			<path class="st4" d="M-66.5-201.4H-69v-8.9h1.3v-1.3h5.1v1.3h1.3v8.9H-64v-3.8h-2.5V-201.4z M-64-207.7v-1.3h-2.5v1.3H-64z"/>
			<path class="st4" d="M-60.2-211.5h7.6v2.5h-2.5v7.6h-2.5v-7.6h-2.5V-211.5z"/>
			<path class="st4" d="M-50-202.6h-1.3v-7.6h1.3v-1.3h6.3v2.5h-5.1v1.3h2.5v2.5h-2.5v1.3h5.1v2.5H-50V-202.6z"/>
		</g>
	</g>
	<g>
		<rect x="-156.8" y="-217.2" class="st4" width="13.1" height="1.7"/>
		<rect x="-141.9" y="-217.2" class="st4" width="1.7" height="1.7"/>
	</g>
</g>
<g>
	<rect x="263" y="-485.5" class="st4" width="23.6" height="3"/>
	<rect x="289.8" y="-485.5" class="st4" width="3" height="3"/>
</g>
<g>
	<rect x="-57.4" y="-546.9" class="st4" width="23.6" height="3"/>
	<rect x="-30.6" y="-546.9" class="st4" width="3" height="3"/>
</g>
<g>
	<polygon class="st22" points="-87.5,-423.4 -87.5,-430.9 -106.1,-430.9 -106.1,-423.4 -113.6,-423.4 -113.6,-416 -113.6,-404.8 
		-106.1,-404.8 -106.1,-397.3 -94.9,-397.3 -87.5,-397.3 -87.5,-404.8 -80,-404.8 -80,-416 -80,-423.4 	"/>
	<line class="st23" x1="-105.5" y1="-397.3" x2="-105.5" y2="-387.4"/>
	<line class="st23" x1="-88.1" y1="-397.3" x2="-88.1" y2="-387.4"/>
	<polygon class="st24" points="-89,-389.3 -91.2,-389.3 -104.5,-389.3 -104.5,-387.1 -106.7,-387.1 -106.7,-371.5 -104.5,-371.5 
		-104.5,-369.4 -91.2,-369.4 -89,-369.4 -89,-371.5 -86.8,-371.5 -86.8,-387.1 -89,-387.1 	"/>
</g>
<polygon class="st25" points="-20.4,15.8 -20.4,7.9 -28.3,7.9 -93.3,7.9 -162.1,7.9 -162.1,15.8 -170,15.8 -170,61.4 -162.1,61.4 
	-162.1,69.3 -93.3,69.3 -28.3,69.3 -20.4,69.3 -20.4,61.4 -12.5,61.4 -12.5,15.8 "/>
<polygon class="st25" points="-20.4,15.9 -20.4,8 -28.3,8 -93.3,8 -162.1,8 -162.1,15.9 -170,15.9 -170,61.5 -162.1,61.5 
	-162.1,69.4 -93.3,69.4 -28.3,69.4 -20.4,69.4 -20.4,61.5 -12.5,61.5 -12.5,15.9 "/>
<g>
	<path class="st4" d="M-123.9,49.4h-5.4V27.6h13.6v2.7h2.7v8.2h-2.7v2.7h-8.2V49.4z M-123.9,35.7h5.4V33h-5.4V35.7z"/>
	<path class="st4" d="M-107.6,46.6h-2.7v-19h5.4v16.3h10.9v5.4h-13.6V46.6z"/>
	<path class="st4" d="M-85.8,49.4h-5.4v-19h2.7v-2.7h10.9v2.7h2.7v19h-5.4v-8.2h-5.4V49.4z M-80.3,35.7V33h-5.4v2.7H-80.3z"/>
	<path class="st4" d="M-72.2,27.6h5.4v8.2h5.4v-8.2h5.4v10.9h-2.7v2.7h-2.7v8.2h-5.4v-8.2h-2.7v-2.7h-2.7V27.6z"/>
</g>
<polygon class="st25" points="149.6,15.8 149.6,7.9 141.7,7.9 76.7,7.9 7.9,7.9 7.9,15.8 0,15.8 0,61.4 7.9,61.4 7.9,69.3 
	76.7,69.3 141.7,69.3 149.6,69.3 149.6,61.4 157.5,61.4 157.5,15.8 "/>
<polygon class="st22" points="149.6,7.9 149.6,0 141.7,0 76.7,0 7.9,0 7.9,7.9 0,7.9 0,53.5 7.9,53.5 7.9,61.4 76.7,61.4 
	141.7,61.4 149.6,61.4 149.6,53.5 157.5,53.5 157.5,7.9 "/>
<g>
	<path class="st4" d="M46.1,41.4h-5.4V19.6h13.6v2.7H57v8.2h-2.7v2.7h-8.2V41.4z M46.1,27.7h5.4V25h-5.4V27.7z"/>
	<path class="st4" d="M62.4,38.6h-2.7v-19h5.4v16.3h10.9v5.4H62.4V38.6z"/>
	<path class="st4" d="M84.2,41.4h-5.4v-19h2.7v-2.7h10.9v2.7h2.7v19h-5.4v-8.2h-5.4V41.4z M89.7,27.7V25h-5.4v2.7H89.7z"/>
	<path class="st4" d="M97.8,19.6h5.4v8.2h5.4v-8.2h5.4v10.9h-2.7v2.7h-2.7v8.2h-5.4v-8.2h-2.7v-2.7h-2.7V19.6z"/>
</g>
<g>
	<path class="st26" d="M-843.9-229.8h43.2v108h43.2v-108h43.2v129.6h-21.6v21.6h-21.6V-57h-43.2v-21.6h-21.6v-21.6h-21.6V-229.8z"/>
	<path class="st27" d="M-692.8-206.1h21.6v-21.6h108v43.2h-86.4v21.6h64.8v21.6h21.6v64.8h-21.6v21.6h-108v-43.2h86.4v-21.6h-64.8
		v-21.6h-21.6V-206.1z"/>
</g>
<g>
	<path class="st28" d="M-843.9-250.9h43.2v108h43.2v-108h43.2v129.6h-21.6v21.6h-21.6v21.6h-43.2v-21.6h-21.6v-21.6h-21.6V-250.9z"
		/>
	<path class="st29" d="M-692.8-229.3h21.6v-21.6h108v43.2h-86.4v21.6h64.8v21.6h21.6v64.8h-21.6v21.6h-108v-43.2h86.4v-21.6h-64.8
		v-21.6h-21.6V-229.3z"/>
</g>
<g>
	<g>
		<path class="st0" d="M-794.6,127.8h27.5v68.7h27.5v-68.7h27.5v82.4h-13.7v13.7h-13.7v13.7h-27.5v-13.7h-13.7v-13.7h-13.7V127.8z"
			/>
		<path class="st0" d="M-698.5,142.8h13.7v-13.7h68.7v27.5H-671v13.7h41.2V184h13.7v41.2h-13.7v13.7h-68.7v-27.5h54.9v-13.7h-41.2
			V184h-13.7V142.8z"/>
	</g>
	<g>
		<path class="st7" d="M-794.6,113.3h27.5v68.7h27.5v-68.7h27.5v82.4h-13.7v13.7h-13.7v13.7h-27.5v-13.7h-13.7v-13.7h-13.7V113.3z"
			/>
		<path class="st7" d="M-698.5,128.3h13.7v-13.7h68.7v27.5H-671v13.7h41.2v13.7h13.7v41.2h-13.7v13.7h-68.7V197h54.9v-13.7h-41.2
			v-13.7h-13.7V128.3z"/>
	</g>
	<g>
		<path class="st4" d="M-794.6,99.9h27.5v68.7h27.5V99.9h27.5v82.4h-13.7V196h-13.7v13.7h-27.5V196h-13.7v-13.7h-13.7V99.9z"/>
		<path class="st4" d="M-698.5,113.6h13.7V99.9h68.7v27.5H-671v13.7h41.2v13.7h13.7V196h-13.7v13.7h-68.7v-27.5h54.9v-13.7h-41.2
			v-13.7h-13.7V113.6z"/>
	</g>
</g>
</svg>
