<!-- Generator: Adobe Illustrator 19.2.1, SVG Export Plug-In  -->
<svg version="1.1"
	 xmlns="http://www.w3.org/2000/svg" xmlns:xlink="http://www.w3.org/1999/xlink" xmlns:a="http://ns.adobe.com/AdobeSVGViewerExtensions/3.0/"
	 x="0px" y="0px" width="313.3px" height="68px" viewBox="0 0 313.3 68" style="enable-background:new 0 0 313.3 68;"
	 xml:space="preserve">
<style type="text/css">
	.st0{fill:#1B8E6F;}
	.st1{fill:#3CEA8A;}
	.st2{fill:#FFFFFF;}
</style>
<defs>
</defs>
<g>
	<polygon class="st0" points="305.5,7.7 297.7,7.7 7.8,7.7 7.8,15.5 0,15.5 0,60.2 7.8,60.2 7.8,68 297.7,68 305.5,68 305.5,60.2
		313.3,60.2 313.3,15.5 305.5,15.5 	"/>
	<polygon class="st1" points="305.5,0 297.7,0 7.8,0 7.8,7.8 0,7.8 0,52.5 7.8,52.5 7.8,60.3 297.7,60.3 305.5,60.3 305.5,52.5
		313.3,52.5 313.3,7.8 305.5,7.8 	"/>
	<g>
		<path class="st2" d="M92.9,39.4h-5.3V17.9H101v2.7h2.7v8H101v2.7h-8L92.9,39.4L92.9,39.4z M92.9,26h5.3v-2.7h-5.3V26z"/>
		<path class="st2" d="M108.9,36.7h-2.7V17.9h5.3V34h10.7v5.3h-13.4L108.9,36.7L108.9,36.7z"/>
		<path class="st2" d="M130.2,39.4h-5.3V20.6h2.7v-2.7h10.7v2.7h2.7v18.7h-5.3v-8h-5.3L130.2,39.4L130.2,39.4z M135.7,26v-2.7h-5.3
			V26H135.7z"/>
		<path class="st2" d="M143.6,17.9h5.3v8h5.3v-8h5.3v10.7h-2.6v2.7h-2.7v8h-5.3v-8h-2.7v-2.7h-2.7L143.6,17.9L143.6,17.9z"/>
		<path class="st2" d="M165,36.7h-2.7v-16h2.7V18h13.4v5.3h-10.7V26h5.3v5.3h-5.3V34h10.7v5.3H165V36.7z"/>
		<path class="st2" d="M189.1,31.3h-2.7v8h-5.3V17.9h13.4v2.7h2.7v8h-2.7v2.7h2.7v8h-5.3V34h-2.8V31.3L189.1,31.3z M186.4,26h5.3
			v-2.7h-5.3V26z"/>
		<path class="st2" d="M218.5,17.9h5.3v21.3h-5.3L218.5,17.9L218.5,17.9z"/>
	</g>
</g>
<g>
	<rect x="15.1" y="3.9" class="st2" width="34.9" height="4.4"/>
	<rect x="54.8" y="3.9" class="st2" width="4.4" height="4.4"/>
</g>
</svg>
