<?xml version="1.0" encoding="utf-8"?>
<!-- Generator: Adobe Illustrator 22.0.1, SVG Export Plug-In . SVG Version: 6.00 Build 0)  -->
<svg version="1.1" id="Layer_1" xmlns="http://www.w3.org/2000/svg" xmlns:xlink="http://www.w3.org/1999/xlink" x="0px" y="0px"
	 width="385.1px" height="68.2px" viewBox="0 0 405.1 88.2" style="enable-background:new 0 0 405.1 88.2;" xml:space="preserve">
<style type="text/css">
	.st0{fill:#5895B7;}
	.st1{opacity:0.8;}
	.st2{fill:#C17620;}
	.st3{fill:#F4C24A;}
	.st4{fill:#2A6FBA;}
	.st5{fill:#4ABAEF;}
	.st6{fill:#FFFFFF;}
	.st7{fill:#95C9C8;}
	.st8{fill:#DDEFEE;}
	.st9{fill:#1B8E6F;}
	.st10{fill:#3CEA8A;}
	.st11{opacity:0.4;fill:#666666;}
	.st12{fill:none;}
	.st13{fill:#7149A4;}
	.st14{fill:#BD86E0;}
	.st15{font-family:'EditUndoBRK';}
	.st16{font-size:48px;}
</style>
<g>
	<rect x="-364" y="261" class="st0" width="484" height="82"/>
	<rect x="88" y="335" class="st0" width="107" height="30"/>
	<g class="st1">
		<g>
			<polygon class="st0" points="-348,281 -348,363 -444,363 -444,352 -432,352 -432,340 -420,340 -420,328 -408,328 -408,316
				-420,316 -420,304 -432,304 -432,292 -444,292 -444,281 			"/>
		</g>
		<polygon class="st0" points="-362,339 -348,362 -348,339 		"/>
	</g>
	<g>
		<g>
			<polygon class="st2" points="99,273 99,355 195,355 195,344 183,344 183,332 171,332 171,320 159,320 159,308 171,308 171,296
				183,296 183,284 195,284 195,273 			"/>
			<polygon class="st3" points="99,262 99,344 195,344 195,333 183,333 183,321 171,321 171,309 159,309 159,297 171,297 171,285
				183,285 183,273 195,273 195,262 			"/>
		</g>
		<polygon class="st2" points="113,331 99,354 99,331 		"/>
		<g>
			<g>
				<polygon class="st2" points="-357,273 -357,355 -453,355 -453,344 -441,344 -441,332 -429,332 -429,320 -417,320 -417,308
					-429,308 -429,296 -441,296 -441,284 -453,284 -453,273 				"/>
				<polygon class="st3" points="-357,262 -357,344 -453,344 -453,333 -441,333 -441,321 -429,321 -429,309 -417,309 -417,297
					-429,297 -429,285 -441,285 -441,273 -453,273 -453,262 				"/>
			</g>
			<polygon class="st2" points="-371,331 -357,354 -357,331 			"/>
		</g>
		<g>
			<rect x="-371" y="249" class="st2" width="484" height="82"/>
			<rect x="-371" y="237" class="st3" width="484" height="82"/>
		</g>
	</g>
	<rect x="-348.2" y="262.2" class="st12" width="415.2" height="81.8"/>
	<text transform="matrix(1 0 0 1 -309.0225 296.7564)" class="st6 st15" style="font-size:60px;">HOW TO PLAY</text>
</g>
<polygon class="st4" points="-44,530 -56,530 -129,530 -129,542 -141,542 -141,627 -129,627 -129,639 -56,639 -44,639 -44,627
	-32,627 -32,542 -44,542 "/>
<polygon class="st5" points="-44,520 -56,520 -129,520 -129,532 -141,532 -141,617 -129,617 -129,629 -56,629 -44,629 -44,617
	-32,617 -32,532 -44,532 "/>
<rect x="-129" y="554.2" class="st12" width="89" height="81.8"/>
<text transform="matrix(1 0 0 1 -104.4082 599.6998)" class="st6 st15" style="font-size:79px;">?</text>
<g>
	<polygon class="st0" points="991,368.7 979.4,368.7 979.4,358.4 967.9,358.4 967.9,347.2 469.1,347.2 469.1,358.4 457.6,358.4
		457.6,368.7 446,368.7 446,971.4 457.6,971.4 457.6,981.7 469.1,981.7 469.1,993 967.9,993 967.9,981.7 979.4,981.7 979.4,971.4
		991,971.4 	"/>
	<polygon class="st7" points="991,358.1 979.4,358.1 979.4,347.9 967.9,347.9 967.9,336.6 469.1,336.6 469.1,347.9 457.6,347.9
		457.6,358.1 446,358.1 446,960.9 457.6,960.9 457.6,971.1 469.1,971.1 469.1,982.4 967.9,982.4 967.9,971.1 979.4,971.1
		979.4,960.9 991,960.9 	"/>
	<polygon class="st8" points="991,347.5 979.4,347.5 979.4,337.3 967.9,337.3 967.9,326 469.1,326 469.1,337.3 457.6,337.3
		457.6,347.5 446,347.5 446,950.3 457.6,950.3 457.6,960.5 469.1,960.5 469.1,971.8 967.9,971.8 967.9,960.5 979.4,960.5
		979.4,950.3 991,950.3 	"/>
</g>
<g>
	<polygon class="st9" points="-58,10 -68,10 -442.9,10 -442.9,20.1 -453,20.1 -453,77.9 -442.9,77.9 -442.9,88 -68,88 -58,88
		-58,77.9 -47.9,77.9 -47.9,20.1 -58,20.1 	"/>
	<polygon class="st10" points="-58,0 -68,0 -442.9,0 -442.9,10.1 -453,10.1 -453,67.9 -442.9,67.9 -442.9,78 -68,78 -58,78
		-58,67.9 -47.9,67.9 -47.9,10.1 -58,10.1 	"/>
	<rect x="-452" y="23.2" class="st12" width="404" height="81.8"/>
	<text transform="matrix(1 0 0 1 -339.8555 50.8789)" class="st6 st15 st16">PLAYER 1</text>
</g>
<g>
	<polygon class="st11" points="-418.8,-110.6 -420.8,-116.4 -424.8,-128.4 -442.6,-122.4 -440.7,-116.6 -446.5,-114.6
		-442.4,-102.6 -436.6,-104.6 -434.7,-98.8 -422.6,-102.9 -424.6,-108.6 	"/>
	<polygon class="st11" points="-380,-122.7 -382,-128.4 -386,-140.4 -403.8,-134.4 -401.9,-128.7 -407.7,-126.7 -403.6,-114.7
		-397.8,-116.6 -395.9,-110.9 -383.8,-114.9 -385.8,-120.7 	"/>
	<rect x="-439.6" y="-169.6" transform="matrix(0.9472 -0.3207 0.3207 0.9472 25.1795 -147.7859)" width="7.1" height="38.6"/>
	<polygon points="-420.4,-115.4 -422.4,-121.2 -426.5,-133.2 -444.3,-127.2 -442.3,-121.4 -448.1,-119.4 -444,-107.4 -438.2,-109.4
		-436.3,-103.6 -424.3,-107.7 -426.2,-113.4 	"/>
	<rect x="-401.1" y="-182.6" transform="matrix(0.9472 -0.3207 0.3207 0.9472 31.3895 -136.1362)" width="7.1" height="38.6"/>
	<polygon points="-382,-128.4 -383.9,-134.2 -388,-146.2 -405.8,-140.2 -403.8,-134.4 -409.6,-132.5 -405.5,-120.5 -399.8,-122.4
		-397.8,-116.6 -385.8,-120.7 -387.7,-126.5 	"/>
	<rect x="-449.6" y="-191.9" transform="matrix(0.9472 -0.3207 0.3207 0.9472 36.2937 -146.2304)" width="47.7" height="17.3"/>
</g>
<g>
	<polygon class="st11" points="-352.6,-77 -351.7,-81.2 -349.8,-89.8 -362.6,-92.6 -363.5,-88.5 -367.6,-89.4 -369.6,-80.7
		-365.4,-79.8 -366.3,-75.7 -357.7,-73.8 -356.8,-77.9 	"/>
	<polygon class="st11" points="-325.1,-70.2 -324.2,-74.4 -322.3,-83 -335.1,-85.8 -336,-81.7 -340.1,-82.6 -342,-74 -337.9,-73.1
		-338.8,-68.9 -330.2,-67 -329.2,-71.1 	"/>
	<rect x="-351" y="-120.4" transform="matrix(0.9766 0.2149 -0.2149 0.9766 -31.1224 72.4035)" width="5" height="26.9"/>
	<polygon points="-351.8,-80.5 -350.9,-84.6 -349,-93.3 -361.8,-96.1 -362.7,-91.9 -366.9,-92.8 -368.8,-84.2 -364.6,-83.3
		-365.6,-79.1 -356.9,-77.2 -356,-81.4 	"/>
	<rect x="-323.4" y="-114.3" transform="matrix(0.9766 0.2149 -0.2149 0.9766 -29.1683 66.6015)" width="5" height="26.9"/>
	<polygon points="-324.2,-74.4 -323.3,-78.5 -321.4,-87.2 -334.2,-90 -335.1,-85.8 -339.2,-86.8 -341.1,-78.1 -337,-77.2
		-337.9,-73.1 -329.2,-71.1 -328.3,-75.3 	"/>
	<rect x="-347.2" y="-128.9" transform="matrix(0.9766 0.2149 -0.2149 0.9766 -34.1342 68.159)" width="33.3" height="12"/>
</g>
<g>
	<polygon class="st11" points="-276.6,-138.8 -277.3,-141.9 -278.7,-148.2 -288.1,-146.1 -287.4,-143.1 -290.4,-142.4 -289,-136
		-286,-136.7 -285.3,-133.7 -279,-135.1 -279.6,-138.1 	"/>
	<polygon class="st11" points="-256.2,-142.8 -256.8,-145.9 -258.3,-152.2 -267.6,-150.1 -267,-147.1 -270,-146.4 -268.6,-140.1
		-265.6,-140.7 -264.9,-137.7 -258.5,-139.1 -259.2,-142.1 	"/>
	<rect x="-285" y="-169.9" transform="matrix(0.9761 -0.2173 0.2173 0.9761 27.9988 -65.3511)" width="3.6" height="19.8"/>
	<polygon points="-277.2,-141.3 -277.8,-144.4 -279.2,-150.7 -288.6,-148.7 -288,-145.6 -291,-144.9 -289.6,-138.6 -286.5,-139.3
		-285.9,-136.2 -279.5,-137.6 -280.2,-140.7 	"/>
	<rect x="-264.7" y="-174.4" transform="matrix(0.9761 -0.2173 0.2173 0.9761 29.4663 -61.0464)" width="3.6" height="19.8"/>
	<polygon points="-256.8,-145.9 -257.5,-148.9 -258.9,-155.3 -268.3,-153.2 -267.6,-150.1 -270.7,-149.4 -269.3,-143.1
		-266.2,-143.8 -265.6,-140.7 -259.2,-142.1 -259.9,-145.2 	"/>
	<rect x="-288.3" y="-180.6" transform="matrix(0.9761 -0.2173 0.2173 0.9761 31.6921 -64.2077)" width="24.4" height="8.8"/>
</g>
<g>
	<polygon class="st11" points="-256,-93 -253.4,-97.2 -247.9,-105.7 -260.6,-113.8 -263.2,-109.7 -267.3,-112.3 -272.8,-103.7
		-268.7,-101.1 -271.3,-97 -262.7,-91.5 -260.1,-95.7 	"/>
	<polygon class="st11" points="-229,-74.9 -226.4,-79 -220.9,-87.6 -233.6,-95.7 -236.2,-91.6 -240.3,-94.2 -245.8,-85.6
		-241.7,-83 -244.3,-78.9 -235.7,-73.4 -233.1,-77.5 	"/>
	<rect x="-242.7" y="-139.1" transform="matrix(0.844 0.5363 -0.5363 0.844 -103.7612 109.3438)" width="5.7" height="30.9"/>
	<polygon points="-253.8,-96.5 -251.2,-100.6 -245.7,-109.2 -258.4,-117.2 -261,-113.1 -265.2,-115.7 -270.6,-107.1 -266.5,-104.5
		-269.1,-100.4 -260.5,-95 -257.9,-99.1 	"/>
	<rect x="-215.3" y="-121.7" transform="matrix(0.844 0.5363 -0.5363 0.844 -90.1368 97.3529)" width="5.7" height="30.9"/>
	<polygon points="-226.4,-79 -223.8,-83.2 -218.3,-91.7 -231,-99.8 -233.6,-95.7 -237.7,-98.3 -243.2,-89.7 -239.1,-87.1
		-241.7,-83 -233.1,-77.5 -230.5,-81.7 	"/>
	<rect x="-233.3" y="-140.8" transform="matrix(0.844 0.5363 -0.5363 0.844 -105.1927 93.9815)" width="38.2" height="13.8"/>
</g>
<g>
	<polygon class="st9" points="-214.7,-465.5 -221.3,-465.5 -467.7,-465.5 -467.7,-458.8 -474.3,-458.8 -474.3,-420.8 -467.7,-420.8
		-467.7,-414.2 -221.3,-414.2 -214.7,-414.2 -214.7,-420.8 -208.1,-420.8 -208.1,-458.8 -214.7,-458.8 	"/>
	<polygon class="st10" points="-214.7,-472 -221.3,-472 -467.7,-472 -467.7,-465.4 -474.3,-465.4 -474.3,-427.4 -467.7,-427.4
		-467.7,-420.8 -221.3,-420.8 -214.7,-420.8 -214.7,-427.4 -208.1,-427.4 -208.1,-465.4 -214.7,-465.4 	"/>
	<rect x="-473.7" y="-456.8" class="st12" width="265.5" height="32.8"/>
	<text transform="matrix(1 0 0 1 -407.9199 -438.6)" class="st6 st15" style="font-size:31.5429px;">Calibrate</text>
</g>
<g>
	<rect x="-472.7" y="-383.1" class="st9" width="219.8" height="28.8"/>
	<rect x="-477.6" y="-389.7" class="st9" width="229.4" height="30.6"/>
	<polygon class="st10" points="-477.6,-394 -477.6,-364.8 -472.7,-364.8 -472.7,-359.1 -253,-359.1 -253,-364.8 -248.2,-364.8
		-248.2,-394 	"/>
</g>
<polygon class="st9" points="-257.8,-379.2 -257.8,-384.3 -262.9,-384.3 -262.9,-384.4 -319.5,-384.4 -350.1,-384.4 -375.7,-384.4
	-399.5,-384.4 -462.9,-384.4 -462.9,-384.3 -468,-384.3 -468,-379.2 -473.1,-379.2 -473.1,-371.6 -468,-371.6 -468,-366.5
	-462.9,-366.5 -462.9,-366.4 -399.5,-366.4 -375.7,-366.4 -350.1,-366.4 -319.5,-366.4 -262.9,-366.4 -262.9,-366.4 -257.8,-366.4
	-257.8,-371.5 -252.7,-371.5 -252.7,-379.2 "/>
<g>
	<rect x="-481.7" y="-285.1" class="st12" width="4.7" height="0.1"/>
	<rect x="-481.7" y="-267.2" class="st12" width="4.7" height="0.1"/>
	<polygon class="st6" points="-460.7,-267.2 -460.7,-272.3 -455.6,-272.3 -455.6,-279.9 -460.7,-279.9 -460.7,-285 -465.8,-285
		-465.8,-285.1 -477,-285.1 -477,-285 -481.7,-285 -481.7,-267.2 -477,-267.2 -477,-267.1 -465.8,-267.1 -465.8,-267.2 	"/>
</g>
<g>
	<polygon class="st6" points="-507.5,-320.6 -507.5,-325.7 -512.6,-325.7 -512.6,-325.8 -528.5,-325.8 -528.5,-307.8 -512.6,-307.8
		-512.6,-307.9 -507.5,-307.9 -507.5,-313 -502.4,-313 -502.4,-320.6 	"/>
	<polygon class="st6" points="-521,-281.8 -521,-286.9 -521,-286.9 -521,-287 -525.5,-287 -526.1,-287 -530.6,-287 -530.6,-286.9
		-530.6,-286.9 -530.6,-281.8 -535.7,-281.8 -535.7,-274.2 -530.6,-274.2 -530.6,-269.1 -530.6,-269.1 -530.6,-269 -526.1,-269
		-525.5,-269 -521,-269 -521,-269.1 -521,-269.1 -521,-274.1 -515.9,-274.1 -515.9,-281.8 	"/>
</g>
<polygon class="st6" points="-570.8,-379.2 -570.8,-384.3 -570.8,-384.3 -570.8,-384.4 -575.3,-384.4 -575.9,-384.4 -580.4,-384.4
	-580.4,-384.3 -580.4,-384.3 -580.4,-379.2 -585.5,-379.2 -585.5,-371.6 -580.4,-371.6 -580.4,-366.5 -580.4,-366.5 -580.4,-366.4
	-575.9,-366.4 -575.3,-366.4 -570.8,-366.4 -570.8,-366.4 -570.8,-366.4 -570.8,-371.5 -565.7,-371.5 -565.7,-379.2 "/>
<polygon class="st13" points="395,10 385,10 10.1,10 10.1,20.1 0,20.1 0,77.9 10.1,77.9 10.1,88 385,88 395,88 395,77.9 405.1,77.9
	405.1,20.1 395,20.1 "/>
<polygon class="st14" points="395,0 385,0 10.1,0 10.1,10.1 0,10.1 0,67.9 10.1,67.9 10.1,78 385,78 395,78 395,67.9 405.1,67.9
	405.1,10.1 395,10.1 "/>
<rect y="23.2" class="st12" width="405" height="81.8"/>
<text transform="matrix(1 0 0 1 105.7324 50.8789)" class="st6 st15 st16">PLAYER 2</text>
<g>
	<rect x="21" y="4" class="st6" width="45.1" height="5.7"/>
	<rect x="72.3" y="4" class="st6" width="5.7" height="5.7"/>
</g>
<g>
	<rect x="-433.5" y="5" class="st6" width="45.1" height="5.7"/>
	<rect x="-382.2" y="5" class="st6" width="5.7" height="5.7"/>
</g>
</svg>
