<?xml version="1.0" encoding="utf-8"?>
<!-- Generator: Adobe Illustrator 22.0.1, SVG Export Plug-In . SVG Version: 6.00 Build 0)  -->
<svg version="1.1" id="Layer_1" xmlns="http://www.w3.org/2000/svg" xmlns:xlink="http://www.w3.org/1999/xlink" x="0px" y="0px"
	 width="385.1px" height="68.2px" viewBox="0 0 405.1 88.2" style="enable-background:new 0 0 405.1 88.2;" xml:space="preserve">
<style type="text/css">
	.st0{fill:#5895B7;}
	.st1{opacity:0.8;}
	.st2{fill:#C17620;}
	.st3{fill:#F4C24A;}
	.st4{fill:#FFFFFF;}
	.st5{fill:#2A6FBA;}
	.st6{fill:#4ABAEF;}
	.st7{fill:#95C9C8;}
	.st8{fill:#DDEFEE;}
	.st9{fill:#1B8E6F;}
	.st10{fill:#3CEA8A;}
	.st11{opacity:0.4;fill:#666666;}
	.st12{fill:#33BC6E;}
	.st13{fill:none;}
	.st14{fill:#7149A4;}
	.st15{fill:#BD86E0;}
	.st16{opacity:0.4;fill:#666666;stroke:#666666;stroke-width:4;stroke-linejoin:bevel;stroke-miterlimit:10;}
	.st17{fill:#F2F2F2;}
	.st18{fill:#E6E6E6;}
	.st19{fill:none;stroke:#000000;stroke-width:4;stroke-linejoin:bevel;stroke-miterlimit:10;}
	.st20{fill:#C6E0DE;}
	.st21{fill:#A7C6C3;}
	.st22{fill:#EE3D53;}
	.st23{fill:none;stroke:#000000;stroke-width:2;stroke-miterlimit:10;}
	.st24{fill:#A17559;}
	.st25{fill:#910E46;}
	.st26{fill:#238D6F;}
	.st27{fill:#704CA2;}
	.st28{fill:#47E88D;}
	.st29{fill:#BC88DE;}
</style>
<g>
	<rect x="89" y="261" class="st0" width="484" height="82"/>
	<rect x="541" y="335" class="st0" width="107" height="30"/>
	<g class="st1">
		<g>
			<polygon class="st0" points="105,281 105,363 9,363 9,352 21,352 21,340 33,340 33,328 45,328 45,316 33,316 33,304 21,304
				21,292 9,292 9,281 			"/>
		</g>
		<polygon class="st0" points="91,339 105,362 105,339 		"/>
	</g>
	<g>
		<g>
			<polygon class="st2" points="552,273 552,355 648,355 648,344 636,344 636,332 624,332 624,320 612,320 612,308 624,308 624,296
				636,296 636,284 648,284 648,273 			"/>
			<polygon class="st3" points="552,262 552,344 648,344 648,333 636,333 636,321 624,321 624,309 612,309 612,297 624,297 624,285
				636,285 636,273 648,273 648,262 			"/>
		</g>
		<polygon class="st2" points="566,331 552,354 552,331 		"/>
		<g>
			<g>
				<polygon class="st2" points="96,273 96,355 0,355 0,344 12,344 12,332 24,332 24,320 36,320 36,308 24,308 24,296 12,296
					12,284 0,284 0,273 				"/>
				<polygon class="st3" points="96,262 96,344 0,344 0,333 12,333 12,321 24,321 24,309 36,309 36,297 24,297 24,285 12,285
					12,273 0,273 0,262 				"/>
			</g>
			<polygon class="st2" points="82,331 96,354 96,331 			"/>
		</g>
		<g>
			<rect x="82" y="249" class="st2" width="484" height="82"/>
			<rect x="82" y="237" class="st3" width="484" height="82"/>
		</g>
	</g>
	<g>
		<path class="st4" d="M152.6,296.8H144v-34.6h8.6v13h8.6v-13h8.6v34.6h-8.6v-13h-8.6V296.8z"/>
		<path class="st4" d="M174.2,266.5h4.3v-4.3h17.3v4.3h4.3v25.9h-4.3v4.3h-17.3v-4.3h-4.3V266.5z M182.9,288.1h8.6v-17.3h-8.6V288.1
			z"/>
		<path class="st4" d="M213.1,296.8h-8.6v-34.6h8.6v17.3h4.3v-4.3h4.3v4.3h4.3v-17.3h8.6v34.6h-8.6v-4.3h-4.3v-4.3h-4.3v4.3h-4.3
			V296.8z"/>
		<path class="st4" d="M269.3,262.2h25.9v8.6h-8.6v25.9h-8.6v-25.9h-8.6V262.2z"/>
		<path class="st4" d="M299.5,266.5h4.3v-4.3h17.3v4.3h4.3v25.9h-4.3v4.3h-17.3v-4.3h-4.3V266.5z M308.1,288.1h8.6v-17.3h-8.6V288.1
			z"/>
		<path class="st4" d="M368.6,296.8H360v-34.6h21.6v4.3h4.3v13h-4.3v4.3h-13V296.8z M368.6,275.2h8.6v-4.3h-8.6V275.2z"/>
		<path class="st4" d="M394.5,292.4h-4.3v-30.2h8.6v25.9h17.3v8.6h-21.6V292.4z"/>
		<path class="st4" d="M429.1,296.8h-8.6v-30.2h4.3v-4.3h17.3v4.3h4.3v30.2h-8.6v-13h-8.6V296.8z M437.7,275.2v-4.3h-8.6v4.3H437.7z
			"/>
		<path class="st4" d="M450.7,262.2h8.6v13h8.6v-13h8.6v17.3h-4.3v4.3H468v13h-8.6v-13H455v-4.3h-4.3V262.2z"/>
	</g>
</g>
<polygon class="st5" points="258,530 246,530 173,530 173,542 161,542 161,627 173,627 173,639 246,639 258,639 258,627 270,627
	270,542 258,542 "/>
<polygon class="st5" points="258,530 246,530 173,530 173,542 161,542 161,627 173,627 173,639 246,639 258,639 258,627 270,627
	270,542 258,542 "/>
<g>
	<path class="st4" d="M197.6,564.2H226v5.7h5.7v17.1H226v5.7H209v-11.4h11.4v-5.7h-22.8V564.2z M209,598.3h11.4v11.4H209V598.3z"/>
</g>
<polygon class="st5" points="409,530 397,530 324,530 324,542 312,542 312,627 324,627 324,639 397,639 409,639 409,627 421,627
	421,542 409,542 "/>
<polygon class="st6" points="409,520 397,520 324,520 324,532 312,532 312,617 324,617 324,629 397,629 409,629 409,617 421,617
	421,532 409,532 "/>
<g>
	<path class="st4" d="M348.6,554.2H377v5.7h5.7v17.1H377v5.7H360v-11.4h11.4v-5.7h-22.8V554.2z M360,588.3h11.4v11.4H360V588.3z"/>
</g>
<g>
	<polygon class="st0" points="1444,374.5 1432.4,374.5 1432.4,362.9 1420.9,362.9 1420.9,350.1 922.1,350.1 922.1,362.9
		910.6,362.9 910.6,374.5 899,374.5 899,1059.2 910.6,1059.2 910.6,1070.9 922.1,1070.9 922.1,1083.7 1420.9,1083.7 1420.9,1070.9
		1432.4,1070.9 1432.4,1059.2 1444,1059.2 	"/>
	<polygon class="st7" points="1444,362.5 1432.4,362.5 1432.4,350.8 1420.9,350.8 1420.9,338 922.1,338 922.1,350.8 910.6,350.8
		910.6,362.5 899,362.5 899,1047.2 910.6,1047.2 910.6,1058.8 922.1,1058.8 922.1,1071.7 1420.9,1071.7 1420.9,1058.8
		1432.4,1058.8 1432.4,1047.2 1444,1047.2 	"/>
	<polygon class="st8" points="1444,350.5 1432.4,350.5 1432.4,338.8 1420.9,338.8 1420.9,326 922.1,326 922.1,338.8 910.6,338.8
		910.6,350.5 899,350.5 899,1035.2 910.6,1035.2 910.6,1046.8 922.1,1046.8 922.1,1059.6 1420.9,1059.6 1420.9,1046.8
		1432.4,1046.8 1432.4,1035.2 1444,1035.2 	"/>
</g>
<g>
	<polygon class="st9" points="395,10 385,10 10.1,10 10.1,20.1 0,20.1 0,77.9 10.1,77.9 10.1,88 385,88 395,88 395,77.9 405.1,77.9
		405.1,20.1 395,20.1 	"/>
	<polygon class="st10" points="395,0 385,0 10.1,0 10.1,10.1 0,10.1 0,67.9 10.1,67.9 10.1,78 385,78 395,78 395,67.9 405.1,67.9
		405.1,10.1 395,10.1 	"/>
	<g>
		<path class="st4" d="M120.1,50.9h-6.9V23.2h17.3v3.5h3.5v10.4h-3.5v3.5h-10.4V50.9z M120.1,33.6h6.9v-3.5h-6.9V33.6z"/>
		<path class="st4" d="M140.8,47.4h-3.5V23.2h6.9V44h13.8v6.9h-17.3V47.4z"/>
		<path class="st4" d="M168.4,50.9h-6.9V26.7h3.5v-3.5h13.8v3.5h3.5v24.2h-6.9V40.5h-6.9V50.9z M175.4,33.6v-3.5h-6.9v3.5H175.4z"/>
		<path class="st4" d="M185.7,23.2h6.9v10.4h6.9V23.2h6.9v13.8H203v3.5h-3.5v10.4h-6.9V40.5h-3.5v-3.5h-3.5V23.2z"/>
		<path class="st4" d="M213.4,47.4h-3.5V26.7h3.5v-3.5h17.3v6.9h-13.8v3.5h6.9v6.9h-6.9V44h13.8v6.9h-17.3V47.4z"/>
		<path class="st4" d="M244.5,40.5H241v10.4h-6.9V23.2h17.3v3.5h3.5v10.4h-3.5v3.5h3.5v10.4h-6.9V44h-3.5V40.5z M241,33.6h6.9v-3.5
			H241V33.6z"/>
		<path class="st4" d="M282.5,23.2h6.9v27.6h-6.9V23.2z"/>
	</g>
</g>
<g>
	<polygon class="st11" points="34.2,-110.6 32.2,-116.4 28.2,-128.4 10.4,-122.4 12.3,-116.6 6.5,-114.6 10.6,-102.6 16.4,-104.6
		18.3,-98.8 30.4,-102.9 28.4,-108.6 	"/>
	<polygon class="st11" points="73,-122.7 71,-128.4 67,-140.4 49.2,-134.4 51.1,-128.7 45.3,-126.7 49.4,-114.7 55.2,-116.6
		57.1,-110.9 69.2,-114.9 67.2,-120.7 	"/>
	<rect x="13.4" y="-169.6" transform="matrix(0.9472 -0.3207 0.3207 0.9472 49.1106 -2.4968)" width="7.1" height="38.6"/>
	<polygon points="32.6,-115.4 30.6,-121.2 26.5,-133.2 8.7,-127.2 10.7,-121.4 4.9,-119.4 9,-107.4 14.8,-109.4 16.7,-103.6
		28.7,-107.7 26.8,-113.4 	"/>
	<rect x="51.9" y="-182.6" transform="matrix(0.9472 -0.3207 0.3207 0.9472 55.3206 9.153)" width="7.1" height="38.6"/>
	<polygon points="71,-128.4 69.1,-134.2 65,-146.2 47.2,-140.2 49.2,-134.4 43.4,-132.5 47.5,-120.5 53.2,-122.4 55.2,-116.6
		67.2,-120.7 65.3,-126.5 	"/>
	<rect x="3.4" y="-191.9" transform="matrix(0.9472 -0.3207 0.3207 0.9472 60.2248 -0.9413)" width="47.7" height="17.3"/>
</g>
<g>
	<polygon class="st11" points="100.4,-77 101.3,-81.2 103.2,-89.8 90.4,-92.6 89.5,-88.5 85.4,-89.4 83.4,-80.7 87.6,-79.8
		86.7,-75.7 95.3,-73.8 96.2,-77.9 	"/>
	<polygon class="st11" points="127.9,-70.2 128.8,-74.4 130.7,-83 117.9,-85.8 117,-81.7 112.9,-82.6 111,-74 115.1,-73.1
		114.2,-68.9 122.8,-67 123.8,-71.1 	"/>
	<rect x="102" y="-120.4" transform="matrix(0.9766 0.2149 -0.2149 0.9766 -20.5397 -24.9409)" width="5" height="26.9"/>
	<polygon points="101.2,-80.5 102.1,-84.6 104,-93.3 91.2,-96.1 90.3,-91.9 86.1,-92.8 84.2,-84.2 88.4,-83.3 87.4,-79.1
		96.1,-77.2 97,-81.4 	"/>
	<rect x="129.6" y="-114.3" transform="matrix(0.9766 0.2149 -0.2149 0.9766 -18.5856 -30.7429)" width="5" height="26.9"/>
	<polygon points="128.8,-74.4 129.7,-78.5 131.6,-87.2 118.8,-90 117.9,-85.8 113.8,-86.8 111.9,-78.1 116,-77.2 115.1,-73.1
		123.8,-71.1 124.7,-75.3 	"/>
	<rect x="105.8" y="-128.9" transform="matrix(0.9766 0.2149 -0.2149 0.9766 -23.5515 -29.1853)" width="33.3" height="12"/>
</g>
<g>
	<polygon class="st11" points="176.4,-138.8 175.7,-141.9 174.3,-148.2 164.9,-146.1 165.6,-143.1 162.6,-142.4 164,-136
		167,-136.7 167.7,-133.7 174,-135.1 173.4,-138.1 	"/>
	<polygon class="st11" points="196.8,-142.8 196.2,-145.9 194.7,-152.2 185.4,-150.1 186,-147.1 183,-146.4 184.4,-140.1
		187.4,-140.7 188.1,-137.7 194.5,-139.1 193.8,-142.1 	"/>
	<rect x="168" y="-169.9" transform="matrix(0.9761 -0.2173 0.2173 0.9761 38.822 33.08)" width="3.6" height="19.8"/>
	<polygon points="175.8,-141.3 175.2,-144.4 173.8,-150.7 164.4,-148.7 165,-145.6 162,-144.9 163.4,-138.6 166.5,-139.3
		167.1,-136.2 173.5,-137.6 172.8,-140.7 	"/>
	<rect x="188.3" y="-174.4" transform="matrix(0.9761 -0.2173 0.2173 0.9761 40.2896 37.3847)" width="3.6" height="19.8"/>
	<polygon points="196.2,-145.9 195.5,-148.9 194.1,-155.3 184.7,-153.2 185.4,-150.1 182.3,-149.4 183.7,-143.1 186.8,-143.8
		187.4,-140.7 193.8,-142.1 193.1,-145.2 	"/>
	<rect x="164.7" y="-180.6" transform="matrix(0.9761 -0.2173 0.2173 0.9761 42.5153 34.2234)" width="24.4" height="8.8"/>
</g>
<g>
	<polygon class="st11" points="197,-93 199.6,-97.2 205.1,-105.7 192.4,-113.8 189.8,-109.7 185.7,-112.3 180.2,-103.7
		184.3,-101.1 181.7,-97 190.3,-91.5 192.9,-95.7 	"/>
	<polygon class="st11" points="224,-74.9 226.6,-79 232.1,-87.6 219.4,-95.7 216.8,-91.6 212.7,-94.2 207.2,-85.6 211.3,-83
		208.7,-78.9 217.3,-73.4 219.9,-77.5 	"/>
	<rect x="210.3" y="-139.1" transform="matrix(0.844 0.5363 -0.5363 0.844 -33.1032 -133.604)" width="5.7" height="30.9"/>
	<polygon points="199.2,-96.5 201.8,-100.6 207.3,-109.2 194.6,-117.2 192,-113.1 187.8,-115.7 182.4,-107.1 186.5,-104.5
		183.9,-100.4 192.5,-95 195.1,-99.1 	"/>
	<rect x="237.7" y="-121.7" transform="matrix(0.844 0.5363 -0.5363 0.844 -19.4788 -145.5948)" width="5.7" height="30.9"/>
	<polygon points="226.6,-79 229.2,-83.2 234.7,-91.7 222,-99.8 219.4,-95.7 215.3,-98.3 209.8,-89.7 213.9,-87.1 211.3,-83
		219.9,-77.5 222.5,-81.7 	"/>
	<rect x="219.7" y="-140.8" transform="matrix(0.844 0.5363 -0.5363 0.844 -34.5347 -148.9662)" width="38.2" height="13.8"/>
</g>
<g>
	<polygon class="st9" points="-81.7,-533.5 -88.3,-533.5 -334.7,-533.5 -334.7,-526.8 -341.3,-526.8 -341.3,-488.8 -334.7,-488.8
		-334.7,-482.2 -88.3,-482.2 -81.7,-482.2 -81.7,-488.8 -75.1,-488.8 -75.1,-526.8 -81.7,-526.8 	"/>
	<polygon class="st12" points="-81.7,-533.5 -88.3,-533.5 -334.7,-533.5 -334.7,-526.8 -341.3,-526.8 -341.3,-488.8 -334.7,-488.8
		-334.7,-482.2 -88.3,-482.2 -81.7,-482.2 -81.7,-488.8 -75.1,-488.8 -75.1,-526.8 -81.7,-526.8 	"/>
	<g>
		<path class="st4" d="M-274.9-515.9h2.3v-2.3h11.4v4.5h-9.1v9.1h9.1v4.5h-11.4v-2.3h-2.3V-515.9z"/>
		<path class="st4" d="M-254.5-500h-4.5v-15.9h2.3v-2.3h9.1v2.3h2.3v15.9h-4.5v-6.8h-4.5V-500z M-249.9-511.4v-2.3h-4.5v2.3H-249.9z
			"/>
		<path class="st4" d="M-240.9-502.3h-2.3v-15.9h4.5v13.6h9.1v4.5h-11.4V-502.3z"/>
		<path class="st4" d="M-227.2-518.2h4.5v18.2h-4.5V-518.2z"/>
		<path class="st4" d="M-220.4-518.2h11.4v2.3h2.3v13.6h-2.3v2.3h-11.4V-518.2z M-215.9-511.4h4.5v-2.3h-4.5V-511.4z M-215.9-504.6
			h4.5v-2.3h-4.5V-504.6z"/>
		<path class="st4" d="M-197.7-506.8h-2.3v6.8h-4.5v-15.9h2.3v-2.3h9.1v2.3h2.3v6.8h-2.3v2.3h2.3v6.8h-4.5v-4.5h-2.3V-506.8z
			 M-200-511.4h4.5v-2.3h-4.5V-511.4z"/>
		<path class="st4" d="M-184.1-500h-4.5v-15.9h2.3v-2.3h9.1v2.3h2.3v15.9h-4.5v-6.8h-4.5V-500z M-179.5-511.4v-2.3h-4.5v2.3H-179.5z
			"/>
		<path class="st4" d="M-172.7-518.2h13.6v4.5h-4.5v13.6h-4.5v-13.6h-4.5V-518.2z"/>
		<path class="st4" d="M-154.6-502.3h-2.3v-13.6h2.3v-2.3h11.4v4.5h-9.1v2.3h4.5v4.5h-4.5v2.3h9.1v4.5h-11.4V-502.3z"/>
	</g>
</g>
<g>
	<polygon class="st9" points="238.3,-465.5 231.7,-465.5 -14.7,-465.5 -14.7,-458.8 -21.3,-458.8 -21.3,-420.8 -14.7,-420.8
		-14.7,-414.2 231.7,-414.2 238.3,-414.2 238.3,-420.8 244.9,-420.8 244.9,-458.8 238.3,-458.8 	"/>
	<polygon class="st10" points="238.3,-472 231.7,-472 -14.7,-472 -14.7,-465.4 -21.3,-465.4 -21.3,-427.4 -14.7,-427.4
		-14.7,-420.8 231.7,-420.8 238.3,-420.8 238.3,-427.4 244.9,-427.4 244.9,-465.4 238.3,-465.4 	"/>
	<g>
		<path class="st4" d="M45.1-454.5h2.3v-2.3h11.4v4.5h-9.1v9.1h9.1v4.5H47.4v-2.3h-2.3V-454.5z"/>
		<path class="st4" d="M65.5-438.6H61v-15.9h2.3v-2.3h9.1v2.3h2.3v15.9h-4.5v-6.8h-4.5V-438.6z M70.1-450v-2.3h-4.5v2.3H70.1z"/>
		<path class="st4" d="M79.1-440.9h-2.3v-15.9h4.5v13.6h9.1v4.5H79.1V-440.9z"/>
		<path class="st4" d="M92.8-456.8h4.5v18.2h-4.5V-456.8z"/>
		<path class="st4" d="M99.6-456.8h11.4v2.3h2.3v13.6h-2.3v2.3H99.6V-456.8z M104.1-450h4.5v-2.3h-4.5V-450z M104.1-443.1h4.5v-2.3
			h-4.5V-443.1z"/>
		<path class="st4" d="M122.3-445.4H120v6.8h-4.5v-15.9h2.3v-2.3h9.1v2.3h2.3v6.8h-2.3v2.3h2.3v6.8h-4.5v-4.5h-2.3V-445.4z M120-450
			h4.5v-2.3H120V-450z"/>
		<path class="st4" d="M135.9-438.6h-4.5v-15.9h2.3v-2.3h9.1v2.3h2.3v15.9h-4.5v-6.8h-4.5V-438.6z M140.5-450v-2.3h-4.5v2.3H140.5z"
			/>
		<path class="st4" d="M147.3-456.8h13.6v4.5h-4.5v13.6h-4.5v-13.6h-4.5V-456.8z"/>
		<path class="st4" d="M165.4-440.9h-2.3v-13.6h2.3v-2.3h11.4v4.5h-9.1v2.3h4.5v4.5h-4.5v2.3h9.1v4.5h-11.4V-440.9z"/>
	</g>
</g>
<g>
	<rect x="-19.7" y="-383.1" class="st9" width="219.8" height="28.8"/>
	<rect x="-24.6" y="-389.7" class="st9" width="229.4" height="30.6"/>
	<polygon class="st10" points="-24.6,-394 -24.6,-364.8 -19.7,-364.8 -19.7,-359.1 200,-359.1 200,-364.8 204.8,-364.8 204.8,-394
		"/>
</g>
<polygon class="st9" points="195.2,-379.2 195.2,-384.3 190.1,-384.3 190.1,-384.4 133.5,-384.4 102.9,-384.4 77.3,-384.4
	53.5,-384.4 -9.9,-384.4 -9.9,-384.3 -15,-384.3 -15,-379.2 -20.1,-379.2 -20.1,-371.6 -15,-371.6 -15,-366.5 -9.9,-366.5
	-9.9,-366.4 53.5,-366.4 77.3,-366.4 102.9,-366.4 133.5,-366.4 190.1,-366.4 190.1,-366.4 195.2,-366.4 195.2,-371.5 200.3,-371.5
	200.3,-379.2 "/>
<g>
	<rect x="-28.7" y="-285.1" class="st13" width="4.7" height="0.1"/>
	<rect x="-28.7" y="-267.2" class="st13" width="4.7" height="0.1"/>
	<polygon class="st4" points="-7.7,-267.2 -7.7,-272.3 -2.6,-272.3 -2.6,-279.9 -7.7,-279.9 -7.7,-285 -12.8,-285 -12.8,-285.1
		-24,-285.1 -24,-285 -28.7,-285 -28.7,-267.2 -24,-267.2 -24,-267.1 -12.8,-267.1 -12.8,-267.2 	"/>
</g>
<g>
	<polygon class="st4" points="-54.5,-320.6 -54.5,-325.7 -59.6,-325.7 -59.6,-325.8 -75.5,-325.8 -75.5,-307.8 -59.6,-307.8
		-59.6,-307.9 -54.5,-307.9 -54.5,-313 -49.4,-313 -49.4,-320.6 	"/>
	<polygon class="st4" points="-68,-281.8 -68,-286.9 -68,-286.9 -68,-287 -72.5,-287 -73.1,-287 -77.6,-287 -77.6,-286.9
		-77.6,-286.9 -77.6,-281.8 -82.7,-281.8 -82.7,-274.2 -77.6,-274.2 -77.6,-269.1 -77.6,-269.1 -77.6,-269 -73.1,-269 -72.5,-269
		-68,-269 -68,-269.1 -68,-269.1 -68,-274.1 -62.9,-274.1 -62.9,-281.8 	"/>
</g>
<polygon class="st4" points="-117.8,-379.2 -117.8,-384.3 -117.8,-384.3 -117.8,-384.4 -122.3,-384.4 -122.9,-384.4 -127.4,-384.4
	-127.4,-384.3 -127.4,-384.3 -127.4,-379.2 -132.5,-379.2 -132.5,-371.6 -127.4,-371.6 -127.4,-366.5 -127.4,-366.5 -127.4,-366.4
	-122.9,-366.4 -122.3,-366.4 -117.8,-366.4 -117.8,-366.4 -117.8,-366.4 -117.8,-371.5 -112.7,-371.5 -112.7,-379.2 "/>
<polygon class="st14" points="848,10 838,10 463.1,10 463.1,20.1 453,20.1 453,77.9 463.1,77.9 463.1,88 838,88 848,88 848,77.9
	858.1,77.9 858.1,20.1 848,20.1 "/>
<polygon class="st15" points="848,0 838,0 463.1,0 463.1,10.1 453,10.1 453,67.9 463.1,67.9 463.1,78 838,78 848,78 848,67.9
	858.1,67.9 858.1,10.1 848,10.1 "/>
<g>
	<path class="st4" d="M565.6,50.9h-6.9V23.2H576v3.5h3.5v10.4H576v3.5h-10.4V50.9z M565.6,33.6h6.9v-3.5h-6.9V33.6z"/>
	<path class="st4" d="M586.4,47.4h-3.5V23.2h6.9V44h13.8v6.9h-17.3V47.4z"/>
	<path class="st4" d="M614,50.9h-6.9V26.7h3.5v-3.5h13.8v3.5h3.5v24.2h-6.9V40.5H614V50.9z M620.9,33.6v-3.5H614v3.5H620.9z"/>
	<path class="st4" d="M631.3,23.2h6.9v10.4h6.9V23.2h6.9v13.8h-3.5v3.5h-3.5v10.4h-6.9V40.5h-3.5v-3.5h-3.5V23.2z"/>
	<path class="st4" d="M659,47.4h-3.5V26.7h3.5v-3.5h17.3v6.9h-13.8v3.5h6.9v6.9h-6.9V44h13.8v6.9H659V47.4z"/>
	<path class="st4" d="M690.1,40.5h-3.5v10.4h-6.9V23.2H697v3.5h3.5v10.4H697v3.5h3.5v10.4h-6.9V44h-3.5V40.5z M686.6,33.6h6.9v-3.5
		h-6.9V33.6z"/>
	<path class="st4" d="M728.1,23.2h17.3v3.5h3.5v10.4h-3.5v3.5H735V44h13.8v6.9h-20.7V37.1h3.5v-3.5h10.4v-3.5h-13.8V23.2z"/>
</g>
<g>
	<rect x="474" y="4" class="st4" width="45.1" height="5.7"/>
	<rect x="525.3" y="4" class="st4" width="5.7" height="5.7"/>
</g>
<g>
	<rect x="19.5" y="5" class="st4" width="45.1" height="5.7"/>
	<rect x="70.8" y="5" class="st4" width="5.7" height="5.7"/>
</g>
<polygon class="st16" points="408.6,-155 415,-149.4 409.4,-143 429.8,-125.6 429.8,-87.7 450.6,-113.8 482.3,-84.5 488.2,-90.7
	493.2,-86.1 564.8,-204.8 "/>
<polygon class="st17" points="406.2,-162.1 412.5,-156.5 406.9,-150.1 427.4,-132.8 427.4,-94.9 448.1,-121 479.9,-91.6
	485.7,-97.9 490.7,-93.2 562.3,-211.9 "/>
<polygon class="st18" points="448.2,-121.2 562.6,-211.9 427.5,-133 427.5,-95.1 "/>
<polygon class="st19" points="405.1,-162 411.5,-156.4 405.9,-150 426.3,-132.6 426.3,-94.7 447.1,-120.8 478.8,-91.4 484.7,-97.7
	489.6,-93.1 561.3,-211.8 "/>
<g>
	<polygon class="st20" points="340.9,-468.7 340.9,-305.1 351.3,-305.1 351.3,-295.6 361.7,-295.6 361.7,-285.1 809.2,-285.1
		809.2,-295.6 819.6,-295.6 819.6,-305.1 829.9,-305.1 829.9,-468.7 	"/>
	<polygon class="st20" points="829.9,-468.7 829.9,-562.8 819.6,-562.8 819.6,-572.3 809.2,-572.3 809.2,-582.8 361.7,-582.8
		361.7,-572.3 351.3,-572.3 351.3,-562.8 340.9,-562.8 340.9,-468.7 	"/>
</g>
<g>
	<polygon class="st21" points="351.3,-566.2 361.7,-566.2 361.7,-574.2 351.3,-574.2 351.3,-566.3 340.9,-566.3 340.9,-558.3
		351.3,-558.3 	"/>
	<rect x="361.7" y="-582.9" class="st21" width="447.5" height="8"/>
	<polygon class="st21" points="819.6,-566.3 819.6,-574.2 809.2,-574.2 809.2,-566.2 819.6,-566.2 819.6,-558.3 829.9,-558.3
		829.9,-566.3 	"/>
</g>
<g>
	<g>
		<g>
			<rect x="-52.2" y="-647.2" width="10.2" height="10.2"/>
		</g>
	</g>
	<g>
		<g>
			<path d="M9.2-657.4v5.1H4.1v5.1h5.1v20.5h5.1v5.1H9.2v5.1h5.1h5.1v-10.2h15.4v5.1H40v-5.1v-30.7H9.2z M34.8-631.8H14.4v-20.5
				h20.5V-631.8z"/>
		</g>
	</g>
	<g>
		<g>
			<rect x="19.5" y="-647.2" width="10.2" height="10.2"/>
		</g>
	</g>
	<g>
		<g>
			<rect x="-52.2" y="-575.5" width="10.2" height="10.2"/>
		</g>
	</g>
	<g>
		<g>
			<rect x="9.2" y="-585.7" width="5.1" height="5.1"/>
		</g>
	</g>
	<g>
		<g>
			<rect x="-16.4" y="-560.1" width="5.1" height="5.1"/>
		</g>
	</g>
	<g>
		<g>
			<rect x="-11.2" y="-580.6" width="5.1" height="5.1"/>
		</g>
	</g>
	<g>
		<g>
			<rect x="-11.2" y="-570.4" width="5.1" height="5.1"/>
		</g>
	</g>
	<g>
		<g>
			<rect x="34.8" y="-596" width="5.1" height="5.1"/>
		</g>
	</g>
	<g>
		<g>
			<rect x="-62.4" y="-596" width="5.1" height="5.1"/>
		</g>
	</g>
	<g>
		<g>
			<rect x="-62.4" y="-621.6" width="5.1" height="5.1"/>
		</g>
	</g>
	<g>
		<g>
			<polygon points="-6.1,-652.3 -6.1,-647.2 -16.4,-647.2 -16.4,-642.1 -1,-642.1 -1,-647.2 -1,-652.3 			"/>
		</g>
	</g>
	<g>
		<g>
			<path d="M34.8-616.5v5.1H24.6v5.1H9.2v-5.1H4.1v5.1H-6.1v5.1H9.2v5.1H-1h-5.1v-5.1h-5.1v5.1h-5.1v-5.1h-5.1v5.1h-5.1v5.1h10.2
				v5.1h5.1v-5.1H-1v5.1h-5.1v5.1H-1v10.2h5.1v5.1h5.1v-5.1h15.4v-10.2h5.1v-5.1h-5.1V-596H14.4v-5.1h10.2v5.1h5.1v-5.1h5.1v-5.1H40
				v-5.1v-5.1H34.8L34.8-616.5z M19.5-590.9v15.4H4.1v-15.4H19.5z"/>
		</g>
	</g>
	<g>
		<g>
			<polygon points="4.1,-626.7 -1,-626.7 -1,-621.6 -6.1,-621.6 -6.1,-616.5 -6.1,-611.3 -1,-611.3 -1,-616.5 4.1,-616.5
				4.1,-621.6 9.2,-621.6 9.2,-626.7 			"/>
		</g>
	</g>
	<g>
		<g>
			<rect x="-6.1" y="-560.1" width="10.2" height="5.1"/>
		</g>
	</g>
	<g>
		<g>
			<rect x="-21.5" y="-652.3" width="5.1" height="5.1"/>
		</g>
	</g>
	<g>
		<g>
			<rect x="19.5" y="-616.5" width="5.1" height="5.1"/>
		</g>
	</g>
	<g>
		<g>
			<rect x="24.6" y="-621.6" width="5.1" height="5.1"/>
		</g>
	</g>
	<g>
		<g>
			<rect x="-42" y="-596" width="5.1" height="5.1"/>
		</g>
	</g>
	<g>
		<g>
			<path d="M-31.7-560.1v-20.5h5.1v-5.1v-5.1h-5.1v5.1h-15.4v-5.1h-5.1h-5.1v5.1h-5.1v30.7h30.7h10.2v-5.1H-31.7z M-36.8-560.1
				h-20.5v-20.5h20.5V-560.1z"/>
		</g>
	</g>
	<g>
		<g>
			<rect x="-31.7" y="-626.7" width="5.1" height="5.1"/>
		</g>
	</g>
	<g>
		<g>
			<path d="M-26.6-657.4h-5.1h-30.7v30.7h5.1v5.1h5.1v-5.1h5.1v5.1h5.1v-5.1h10.2V-637h5.1v-5.1h-5.1v-10.2h5.1h5.1v-5.1H-26.6z
				 M-36.8-631.8h-20.5v-20.5h20.5V-631.8z"/>
		</g>
	</g>
	<g>
		<g>
			<rect x="-1" y="-642.1" width="5.1" height="5.1"/>
		</g>
	</g>
	<g>
		<g>
			<rect x="-11.2" y="-657.4" width="5.1" height="5.1"/>
		</g>
	</g>
	<g>
		<g>
			<path d="M-1-626.7v-5.1h-5.1v-5.1h-5.1v5.1h-10.2v-5.1h-5.1v5.1v5.1h5.1v10.2h-15.4v-5.1H-42v5.1h-15.4v5.1h10.2v5.1h-15.4v5.1
				h15.4v5.1h5.1v-5.1h5.1v5.1h5.1v-5.1h10.2v-5.1h-5.1v-5.1h5.1h5.1v5.1h5.1h5.1v-5.1h-5.1v-5.1h-5.1v-10.2H-1L-1-626.7z
				 M-31.7-606.2H-42v-5.1h10.2V-606.2z"/>
		</g>
	</g>
	<g>
		<g>
			<polygon points="-16.4,-575.5 -16.4,-580.6 -16.4,-585.7 -21.5,-585.7 -21.5,-580.6 -26.6,-580.6 -26.6,-575.5 -21.5,-575.5
				-21.5,-570.4 -26.6,-570.4 -26.6,-565.3 -16.4,-565.3 -16.4,-570.4 -11.2,-570.4 -11.2,-575.5 			"/>
		</g>
	</g>
	<g>
		<g>
			<polygon points="29.7,-565.3 29.7,-570.4 24.6,-570.4 24.6,-565.3 9.2,-565.3 9.2,-560.1 19.5,-560.1 19.5,-555 24.6,-555
				24.6,-560.1 34.8,-560.1 34.8,-555 40,-555 40,-560.1 40,-565.3 			"/>
		</g>
	</g>
	<g>
		<g>
			<polygon points="34.8,-585.7 34.8,-580.6 29.7,-580.6 29.7,-575.5 40,-575.5 40,-580.6 40,-585.7 			"/>
		</g>
	</g>
</g>
<g>
	<g>
		<polygon class="st9" points="-290.6,-241.3 -294.2,-241.3 -431.4,-241.3 -431.4,-237.6 -435.1,-237.6 -435.1,-216.4
			-431.4,-216.4 -431.4,-212.8 -294.2,-212.8 -290.6,-212.8 -290.6,-216.4 -286.9,-216.4 -286.9,-237.6 -290.6,-237.6 		"/>
		<polygon class="st12" points="-290.6,-241.3 -294.2,-241.3 -431.4,-241.3 -431.4,-237.6 -435.1,-237.6 -435.1,-216.4
			-431.4,-216.4 -431.4,-212.8 -294.2,-212.8 -290.6,-212.8 -290.6,-216.4 -286.9,-216.4 -286.9,-237.6 -290.6,-237.6 		"/>
		<g>
			<path class="st4" d="M-403.2-226.5h-1.3v3.8h-2.5v-10.1h6.3v1.3h1.3v3.8h-1.3v1.3h1.3v3.8h-2.5v-2.5h-1.3V-226.5z M-404.5-229
				h2.5v-1.3h-2.5V-229z"/>
			<path class="st4" d="M-396.9-223.9h-1.3v-7.6h1.3v-1.3h6.3v2.5h-5.1v1.3h2.5v2.5h-2.5v1.3h5.1v2.5h-6.3V-223.9z"/>
			<path class="st4" d="M-388-223.9h-1.3v-7.6h1.3v-1.3h5.1v1.3h1.3v2.5h-2.5v-1.3h-2.5v5.1h2.5v-1.3h2.5v2.5h-1.3v1.3h-5.1V-223.9z
				"/>
			<path class="st4" d="M-377.9-222.7h-2.5v-8.9h1.3v-1.3h5.1v1.3h1.3v8.9h-2.5v-3.8h-2.5V-222.7z M-375.4-229v-1.3h-2.5v1.3H-375.4
				z"/>
			<path class="st4" d="M-370.3-223.9h-1.3v-8.9h2.5v7.6h5.1v2.5h-6.3V-223.9z"/>
			<path class="st4" d="M-362.7-232.8h2.5v10.1h-2.5V-232.8z"/>
			<path class="st4" d="M-358.9-232.8h6.3v1.3h1.3v7.6h-1.3v1.3h-6.3V-232.8z M-356.4-229h2.5v-1.3h-2.5V-229z M-356.4-225.2h2.5
				v-1.3h-2.5V-225.2z"/>
			<path class="st4" d="M-346.3-226.5h-1.3v3.8h-2.5v-8.9h1.3v-1.3h5.1v1.3h1.3v3.8h-1.3v1.3h1.3v3.8h-2.5v-2.5h-1.3V-226.5z
				 M-347.5-229h2.5v-1.3h-2.5V-229z"/>
			<path class="st4" d="M-338.7-222.7h-2.5v-8.9h1.3v-1.3h5.1v1.3h1.3v8.9h-2.5v-3.8h-2.5V-222.7z M-336.2-229v-1.3h-2.5v1.3H-336.2
				z"/>
			<path class="st4" d="M-332.4-232.8h7.6v2.5h-2.5v7.6h-2.5v-7.6h-2.5V-232.8z"/>
			<path class="st4" d="M-322.3-223.9h-1.3v-7.6h1.3v-1.3h6.3v2.5h-5.1v1.3h2.5v2.5h-2.5v1.3h5.1v2.5h-6.3V-223.9z"/>
		</g>
	</g>
	<g>
		<rect x="-429" y="-239.2" class="st4" width="13.1" height="1.7"/>
		<rect x="-414.1" y="-239.2" class="st4" width="1.7" height="1.7"/>
	</g>
</g>
<g>
	<g>
		<polygon class="st9" points="-290.6,-199.3 -294.2,-199.3 -431.4,-199.3 -431.4,-195.6 -435.1,-195.6 -435.1,-174.4
			-431.4,-174.4 -431.4,-170.8 -294.2,-170.8 -290.6,-170.8 -290.6,-174.4 -286.9,-174.4 -286.9,-195.6 -290.6,-195.6 		"/>
		<polygon class="st10" points="-290.6,-203 -294.2,-203 -431.4,-203 -431.4,-199.3 -435.1,-199.3 -435.1,-178.1 -431.4,-178.1
			-431.4,-174.4 -294.2,-174.4 -290.6,-174.4 -290.6,-178.1 -286.9,-178.1 -286.9,-199.3 -290.6,-199.3 		"/>
		<g>
			<path class="st4" d="M-403.2-188.1h-1.3v3.8h-2.5v-10.1h6.3v1.3h1.3v3.8h-1.3v1.3h1.3v3.8h-2.5v-2.5h-1.3V-188.1z M-404.5-190.7
				h2.5v-1.3h-2.5V-190.7z"/>
			<path class="st4" d="M-396.9-185.6h-1.3v-7.6h1.3v-1.3h6.3v2.5h-5.1v1.3h2.5v2.5h-2.5v1.3h5.1v2.5h-6.3V-185.6z"/>
			<path class="st4" d="M-388-185.6h-1.3v-7.6h1.3v-1.3h5.1v1.3h1.3v2.5h-2.5v-1.3h-2.5v5.1h2.5v-1.3h2.5v2.5h-1.3v1.3h-5.1V-185.6z
				"/>
			<path class="st4" d="M-377.9-184.3h-2.5v-8.9h1.3v-1.3h5.1v1.3h1.3v8.9h-2.5v-3.8h-2.5V-184.3z M-375.4-190.7v-1.3h-2.5v1.3
				H-375.4z"/>
			<path class="st4" d="M-370.3-185.6h-1.3v-8.9h2.5v7.6h5.1v2.5h-6.3V-185.6z"/>
			<path class="st4" d="M-362.7-194.5h2.5v10.1h-2.5V-194.5z"/>
			<path class="st4" d="M-358.9-194.5h6.3v1.3h1.3v7.6h-1.3v1.3h-6.3V-194.5z M-356.4-190.7h2.5v-1.3h-2.5V-190.7z M-356.4-186.9
				h2.5v-1.3h-2.5V-186.9z"/>
			<path class="st4" d="M-346.3-188.1h-1.3v3.8h-2.5v-8.9h1.3v-1.3h5.1v1.3h1.3v3.8h-1.3v1.3h1.3v3.8h-2.5v-2.5h-1.3V-188.1z
				 M-347.5-190.7h2.5v-1.3h-2.5V-190.7z"/>
			<path class="st4" d="M-338.7-184.3h-2.5v-8.9h1.3v-1.3h5.1v1.3h1.3v8.9h-2.5v-3.8h-2.5V-184.3z M-336.2-190.7v-1.3h-2.5v1.3
				H-336.2z"/>
			<path class="st4" d="M-332.4-194.5h7.6v2.5h-2.5v7.6h-2.5v-7.6h-2.5V-194.5z"/>
			<path class="st4" d="M-322.3-185.6h-1.3v-7.6h1.3v-1.3h6.3v2.5h-5.1v1.3h2.5v2.5h-2.5v1.3h5.1v2.5h-6.3V-185.6z"/>
		</g>
	</g>
	<g>
		<rect x="-429" y="-200.2" class="st4" width="13.1" height="1.7"/>
		<rect x="-414.1" y="-200.2" class="st4" width="1.7" height="1.7"/>
	</g>
</g>
<g>
	<rect x="-9.2" y="-468.5" class="st4" width="23.6" height="3"/>
	<rect x="17.6" y="-468.5" class="st4" width="3" height="3"/>
</g>
<g>
	<rect x="-329.6" y="-529.9" class="st4" width="23.6" height="3"/>
	<rect x="-302.8" y="-529.9" class="st4" width="3" height="3"/>
</g>
<g>
	<polygon class="st22" points="-359.7,-406.4 -359.7,-413.9 -378.3,-413.9 -378.3,-406.4 -385.8,-406.4 -385.8,-399 -385.8,-387.8
		-378.3,-387.8 -378.3,-380.3 -367.1,-380.3 -359.7,-380.3 -359.7,-387.8 -352.2,-387.8 -352.2,-399 -352.2,-406.4 	"/>
	<line class="st23" x1="-377.7" y1="-380.3" x2="-377.7" y2="-370.4"/>
	<line class="st23" x1="-360.3" y1="-380.3" x2="-360.3" y2="-370.4"/>
	<polygon class="st24" points="-361.3,-372.2 -363.4,-372.2 -376.8,-372.2 -376.8,-370 -379,-370 -379,-354.5 -376.8,-354.5
		-376.8,-352.3 -363.4,-352.3 -361.3,-352.3 -361.3,-354.5 -359.1,-354.5 -359.1,-370 -361.3,-370 	"/>
</g>
<polygon class="st25" points="-292.6,32.8 -292.6,24.9 -300.5,24.9 -365.5,24.9 -434.3,24.9 -434.3,32.8 -442.2,32.8 -442.2,78.4
	-434.3,78.4 -434.3,86.3 -365.5,86.3 -300.5,86.3 -292.6,86.3 -292.6,78.4 -284.7,78.4 -284.7,32.8 "/>
<polygon class="st25" points="-292.6,32.9 -292.6,25 -300.5,25 -365.5,25 -434.3,25 -434.3,32.9 -442.2,32.9 -442.2,78.5
	-434.3,78.5 -434.3,86.4 -365.5,86.4 -300.5,86.4 -292.6,86.4 -292.6,78.5 -284.7,78.5 -284.7,32.9 "/>
<g>
	<path class="st4" d="M-396.1,66.4h-5.4V44.6h13.6v2.7h2.7v8.2h-2.7v2.7h-8.2V66.4z M-396.1,52.8h5.4V50h-5.4V52.8z"/>
	<path class="st4" d="M-379.8,63.6h-2.7v-19h5.4v16.3h10.9v5.4h-13.6V63.6z"/>
	<path class="st4" d="M-358,66.4h-5.4v-19h2.7v-2.7h10.9v2.7h2.7v19h-5.4v-8.2h-5.4V66.4z M-352.6,52.8V50h-5.4v2.7H-352.6z"/>
	<path class="st4" d="M-344.4,44.6h5.4v8.2h5.4v-8.2h5.4v10.9h-2.7v2.7h-2.7v8.2h-5.4v-8.2h-2.7v-2.7h-2.7V44.6z"/>
</g>
<polygon class="st25" points="-122.6,32.8 -122.6,24.9 -130.5,24.9 -195.5,24.9 -264.3,24.9 -264.3,32.8 -272.2,32.8 -272.2,78.4
	-264.3,78.4 -264.3,86.3 -195.5,86.3 -130.5,86.3 -122.6,86.3 -122.6,78.4 -114.7,78.4 -114.7,32.8 "/>
<polygon class="st22" points="-122.6,24.9 -122.6,17 -130.5,17 -195.5,17 -264.3,17 -264.3,24.9 -272.2,24.9 -272.2,70.5
	-264.3,70.5 -264.3,78.4 -195.5,78.4 -130.5,78.4 -122.6,78.4 -122.6,70.5 -114.7,70.5 -114.7,24.9 "/>
<g>
	<path class="st4" d="M-226.1,58.4h-5.4V36.6h13.6v2.7h2.7v8.2h-2.7v2.7h-8.2V58.4z M-226.1,44.8h5.4V42h-5.4V44.8z"/>
	<path class="st4" d="M-209.8,55.6h-2.7v-19h5.4v16.3h10.9v5.4h-13.6V55.6z"/>
	<path class="st4" d="M-188,58.4h-5.4v-19h2.7v-2.7h10.9v2.7h2.7v19h-5.4v-8.2h-5.4V58.4z M-182.6,44.8V42h-5.4v2.7H-182.6z"/>
	<path class="st4" d="M-174.4,36.6h5.4v8.2h5.4v-8.2h5.4v10.9h-2.7v2.7h-2.7v8.2h-5.4v-8.2h-2.7v-2.7h-2.7V36.6z"/>
</g>
<g>
	<path class="st26" d="M-1116.2-212.8h43.2v108h43.2v-108h43.2v129.6h-21.6v21.6h-21.6V-40h-43.2v-21.6h-21.6v-21.6h-21.6V-212.8z"
		/>
	<path class="st27" d="M-965-189.1h21.6v-21.6h108v43.2h-86.4v21.6h64.8v21.6h21.6v64.8H-857v21.6h-108v-43.2h86.4v-21.6h-64.8
		v-21.6H-965V-189.1z"/>
</g>
<g>
	<path class="st28" d="M-1116.2-233.8h43.2v108h43.2v-108h43.2v129.6h-21.6v21.6h-21.6V-61h-43.2v-21.6h-21.6v-21.6h-21.6V-233.8z"
		/>
	<path class="st29" d="M-965-212.2h21.6v-21.6h108v43.2h-86.4v21.6h64.8v21.6h21.6v64.8H-857V-61h-108v-43.2h86.4v-21.6h-64.8v-21.6
		H-965V-212.2z"/>
</g>
<g>
	<g>
		<path class="st0" d="M-1066.8,144.8h27.5v68.7h27.5v-68.7h27.5v82.4h-13.7v13.7h-13.7v13.7h-27.5v-13.7h-13.7v-13.7h-13.7V144.8z"
			/>
		<path class="st0" d="M-970.7,159.8h13.7v-13.7h68.7v27.5h-54.9v13.7h41.2V201h13.7v41.2H-902V256h-68.7v-27.5h54.9v-13.7h-41.2
			V201h-13.7V159.8z"/>
	</g>
	<g>
		<path class="st7" d="M-1066.8,130.3h27.5V199h27.5v-68.7h27.5v82.4h-13.7v13.7h-13.7v13.7h-27.5v-13.7h-13.7v-13.7h-13.7V130.3z"
			/>
		<path class="st7" d="M-970.7,145.3h13.7v-13.7h68.7v27.5h-54.9v13.7h41.2v13.7h13.7v41.2H-902v13.7h-68.7V214h54.9v-13.7h-41.2
			v-13.7h-13.7V145.3z"/>
	</g>
	<g>
		<path class="st4" d="M-1066.8,116.9h27.5v68.7h27.5v-68.7h27.5v82.4h-13.7V213h-13.7v13.7h-27.5V213h-13.7v-13.7h-13.7V116.9z"/>
		<path class="st4" d="M-970.7,130.6h13.7v-13.7h68.7v27.5h-54.9v13.7h41.2v13.7h13.7V213H-902v13.7h-68.7v-27.5h54.9v-13.7h-41.2
			v-13.7h-13.7V130.6z"/>
	</g>
</g>
</svg>
