<!-- Generator: Adobe Illustrator 19.2.1, SVG Export Plug-In  -->
<svg version="1.1"
	 xmlns="http://www.w3.org/2000/svg" xmlns:xlink="http://www.w3.org/1999/xlink" xmlns:a="http://ns.adobe.com/AdobeSVGViewerExtensions/3.0/"
	 x="0px" y="0px" width="170.9px" height="65.2px" viewBox="0 0 170.9 65.2" style="enable-background:new 0 0 170.9 65.2;"
	 xml:space="preserve">
<style type="text/css">
	.st0{fill:#5895B7;}
	.st1{fill:#CCCCCC;}
	.st2{fill:#FFFFFF;}
</style>
<defs>
</defs>
<g>
	<g>
		<path class="st0" d="M13.7,65.2H0V10.5h34.2v6.8H41v20.5h-6.8v6.8H13.7V65.2z M13.7,31h13.7v-6.8H13.7V31z"/>
		<path class="st0" d="M47.9,17.3h6.8v-6.8H82v6.8h6.8v41H82v6.8H54.7v-6.8h-6.8V17.3z M61.5,51.5h13.7V24.2H61.5V51.5z"/>
		<path class="st0" d="M102.6,58.4h-6.8V10.5h13.7v41h27.3v13.7h-34.2V58.4z"/>
		<path class="st0" d="M129.9,10.5h13.7V31h13.7V10.5h13.7v27.3h-6.8v6.8h-6.8v20.5h-13.7V44.7h-6.8v-6.8h-6.8V10.5z"/>
	</g>
	<g>
		<path class="st1" d="M13.7,59.9H0V5.2h34.2V12H41v20.5h-6.8v6.8H13.7V59.9z M13.7,25.7h13.7v-6.8H13.7V25.7z"/>
		<path class="st1" d="M47.9,12h6.8V5.2H82V12h6.8v41H82v6.8H54.7V53h-6.8V12z M61.5,46.2h13.7V18.9H61.5V46.2z"/>
		<path class="st1" d="M102.6,53h-6.8V5.2h13.7v41h27.3v13.7h-34.2V53z"/>
		<path class="st1" d="M129.9,5.2h13.7v20.5h13.7V5.2h13.7v27.3h-6.8v6.8h-6.8v20.5h-13.7V39.4h-6.8v-6.8h-6.8V5.2z"/>
	</g>
	<g>
		<path class="st2" d="M13.7,54.7H0V0h34.2v6.8H41v20.5h-6.8v6.8H13.7V54.7z M13.7,20.5h13.7v-6.8H13.7V20.5z"/>
		<path class="st2" d="M47.9,6.8h6.8V0H82v6.8h6.8v41H82v6.8H54.7v-6.8h-6.8V6.8z M61.5,41h13.7V13.7H61.5V41z"/>
		<path class="st2" d="M102.6,47.9h-6.8V0h13.7v41h27.3v13.7h-34.2V47.9z"/>
		<path class="st2" d="M129.9,0h13.7v20.5h13.7V0h13.7v27.3h-6.8v6.8h-6.8v20.5h-13.7V34.2h-6.8v-6.8h-6.8V0z"/>
	</g>
</g>
</svg>
