<!-- Generator: Adobe Illustrator 19.2.1, SVG Export Plug-In  -->
<svg version="1.1"
	 xmlns="http://www.w3.org/2000/svg" xmlns:xlink="http://www.w3.org/1999/xlink" xmlns:a="http://ns.adobe.com/AdobeSVGViewerExtensions/3.0/"
	 x="0px" y="0px" width="381.2px" height="24.2px" viewBox="0 0 381.2 24.2" style="enable-background:new 0 0 381.2 24.2;"
	 xml:space="preserve">
<style type="text/css">
	.st0{fill:#5895B7;}
	.st1{fill:#CCCCCC;}
	.st2{fill:#FFFFFF;}
</style>
<defs>
</defs>
<g>
	<path class="st0" d="M0.6,13.1h13.1v4.4H0.6V13.1z"/>
	<path class="st0" d="M35.5,24.1h-4.4V6.6h11v2.2h2.2v6.6h-2.2v2.2h-6.6V24.1z M35.5,13.1h4.4v-2.2h-4.4V13.1z"/>
	<path class="st0" d="M53,17.5h-2.2v6.6h-4.4V6.6h11v2.2h2.2v6.6h-2.2v2.2h2.2v6.6h-4.4v-4.4H53V17.5z M50.8,13.1h4.4v-2.2h-4.4
		V13.1z"/>
	<path class="st0" d="M64,21.8h-2.2V8.7H64V6.5h11v4.4h-8.7v2.2h4.4v4.4h-4.4v2.2H75v4.4H64V21.8z"/>
	<path class="st0" d="M77.1,8.7h2.2V6.5h11v4.4h-8.7v2.2h6.6v2.2h2.2v6.6h-2.2v2.2h-11v-4.4h8.7v-2.2h-6.6v-2.2h-2.2V8.7z"/>
	<path class="st0" d="M92.4,8.7h2.2V6.5h11v4.4h-8.7v2.2h6.6v2.2h2.2v6.6h-2.2v2.2h-11v-4.4h8.7v-2.2h-6.6v-2.2h-2.2V8.7z"/>
	<path class="st0" d="M127.4,24.1h-4.4V8.7h2.2V6.5h8.7v2.2h2.2v15.3h-4.4v-6.6h-4.4L127.4,24.1L127.4,24.1z M131.8,13.1v-2.2h-4.4
		v2.2H131.8z"/>
	<path class="st0" d="M144.9,15.3h-2.2v8.7h-4.4V6.6h4.4v2.2h2.2V11h2.2V6.6h4.4v17.5h-4.4v-6.6h-2.2V15.3z"/>
	<path class="st0" d="M153.7,6.5h4.4v6.6h4.4V6.5h4.4v8.7h-2.2v2.2h-2.2v6.6H158v-6.6h-2.2v-2.2h-2.2V6.5H153.7z"/>
	<path class="st0" d="M188.7,24.1h-4.4V6.6h4.4V11h2.2V8.7h2.2V6.5h4.4v4.4h-2.2v2.2h-2.2v4.4h2.2v2.2h2.2v4.4h-4.4v-2.2h-2.2v-2.2
		h-2.2V24.1z"/>
	<path class="st0" d="M201.8,21.8h-2.2V8.7h2.2V6.5h11v4.4H204v2.2h4.4v4.4H204v2.2h8.7v4.4h-11V21.8z"/>
	<path class="st0" d="M214.9,6.5h4.4v6.6h4.4V6.5h4.4v8.7h-2.2v2.2h-2.2v6.6h-4.4v-6.6H217v-2.2h-2.2V6.5H214.9z"/>
	<path class="st0" d="M245.6,6.5h13.1v4.4h-4.4V24h-4.4V10.9h-4.4V6.5z"/>
	<path class="st0" d="M260.9,8.7h2.2V6.5h8.7v2.2h2.2v13.1h-2.2v2.2h-8.7v-2.2h-2.2V8.7z M265.2,19.7h4.4V11h-4.4V19.7z"/>
	<path class="st0" d="M295.9,24.1h-4.4V6.6h11v2.2h2.2v6.6h-2.2v2.2h-6.6V24.1z M295.9,13.1h4.4v-2.2h-4.4V13.1z"/>
	<path class="st0" d="M309,21.8h-2.2V6.5h4.4v13.1h8.7V24h-11L309,21.8L309,21.8z"/>
	<path class="st0" d="M326.5,24.1h-4.4V8.7h2.2V6.5h8.7v2.2h2.2v15.3h-4.4v-6.6h-4.4L326.5,24.1L326.5,24.1z M330.9,13.1v-2.2h-4.4
		v2.2H330.9z"/>
	<path class="st0" d="M337.5,6.5h4.4v6.6h4.4V6.5h4.4v8.7h-2.2v2.2h-2.2v6.6h-4.4v-6.6h-2.2v-2.2h-2.2V6.5H337.5z"/>
	<path class="st0" d="M368,13.1h13.2v4.4h-13.1L368,13.1L368,13.1z"/>
</g>
<g>
	<path class="st1" d="M0,9.4h13.1v4.4H0V9.4z"/>
	<path class="st1" d="M35,20.3h-4.4V2.8h11v2.2h2.2v6.6h-2.2v2.2H35V20.3z M35,9.4h4.4V7.2H35V9.4z"/>
	<path class="st1" d="M52.5,13.7h-2.2v6.6h-4.4V2.8h11v2.2h2.2v6.6h-2.2v2.2h2.2v6.6h-4.4v-4.4h-2.2V13.7z M50.3,9.4h4.4V7.2h-4.4
		V9.4z"/>
	<path class="st1" d="M63.4,18.1h-2.2V5h2.2V2.8h11v4.4h-8.7v2.2H70v4.4h-4.4V16h8.7v4.4h-11V18.1z"/>
	<path class="st1" d="M76.5,5h2.2V2.8h11v4.4H81v2.2h6.6v2.2h2.2v6.6h-2.2v2.2h-11V16h8.7v-2.2h-6.6v-2.2h-2.2V5z"/>
	<path class="st1" d="M91.9,5h2.2V2.8h11v4.4h-8.7v2.2h6.6v2.2h2.2v6.6h-2.2v2.2h-11V16h8.7v-2.2h-6.6v-2.2h-2.2V5z"/>
	<path class="st1" d="M126.9,20.3h-4.4V5h2.2V2.8h8.7V5h2.2v15.3h-4.4v-6.6h-4.4L126.9,20.3L126.9,20.3z M131.2,9.4V7.2h-4.4v2.2
		H131.2z"/>
	<path class="st1" d="M144.4,11.6h-2.2v8.7h-4.4V2.8h4.4v2.2h2.2v2.2h2.2V2.9h4.4v17.5h-4.4v-6.6h-2.2V11.6z"/>
	<path class="st1" d="M153.1,2.8h4.4v6.6h4.4V2.8h4.4v8.7H164v2.2h-2.2v6.6h-4.4v-6.6h-2.2v-2.2H153V2.8H153.1z"/>
	<path class="st1" d="M188.1,20.3h-4.4V2.8h4.4v4.4h2.2V5h2.2V2.8h4.4v4.4h-2.2v2.2h-2.2v4.4h2.2V16h2.2v4.4h-4.4v-2.2h-2.2v-2.2
		h-2.2V20.3z"/>
	<path class="st1" d="M201.2,18.1H199V5h2.2V2.8h11v4.4h-8.7v2.2h4.4v4.4h-4.4V16h8.7v4.4h-11V18.1z"/>
	<path class="st1" d="M214.4,2.8h4.4v6.6h4.4V2.8h4.4v8.7h-2.2v2.2h-2.2v6.6h-4.4v-6.6h-2.2v-2.2h-2.2V2.8H214.4z"/>
	<path class="st1" d="M245,2.8h13.1v4.4h-4.4v13.1h-4.4V7.2H245V2.8z"/>
	<path class="st1" d="M260.3,5h2.2V2.8h8.7V5h2.2v13.1h-2.2v2.2h-8.7v-2.2h-2.2V5z M264.7,16h4.4V7.2h-4.4V16z"/>
	<path class="st1" d="M295.3,20.3h-4.4V2.8h11v2.2h2.2v6.6h-2.2v2.2h-6.6V20.3z M295.3,9.4h4.4V7.2h-4.4V9.4z"/>
	<path class="st1" d="M308.5,18.1h-2.2V2.8h4.4v13.1h8.7v4.4h-11L308.5,18.1L308.5,18.1z"/>
	<path class="st1" d="M325.9,20.3h-4.4V5h2.2V2.8h8.7V5h2.2v15.3h-4.4v-6.6H326L325.9,20.3L325.9,20.3z M330.3,9.4V7.2h-4.4v2.2
		H330.3z"/>
	<path class="st1" d="M336.9,2.8h4.4v6.6h4.4V2.8h4.4v8.7h-2.2v2.2h-2.2v6.6h-4.4v-6.6H339v-2.2h-2.1V2.8z"/>
	<path class="st1" d="M367.5,9.4h13.1v4.4h-13.1V9.4z"/>
</g>
<g>
	<path class="st2" d="M0,6.6h13.1V11H0V6.6z"/>
	<path class="st2" d="M35,17.5h-4.4V0.1h11v2.2h2.2v6.6h-2.2v2.2H35V17.5z M35,6.6h4.4V4.4H35V6.6z"/>
	<path class="st2" d="M52.5,11h-2.2v6.6h-4.4V0.1h11v2.2h2.2v6.6h-2.2v2.2h2.2v6.6h-4.4v-4.4h-2.2V11z M50.3,6.6h4.4V4.4h-4.4V6.6z"
		/>
	<path class="st2" d="M63.4,15.3h-2.2V2.2h2.2V0h11v4.4h-8.7v2.2H70V11h-4.4v2.2h8.7v4.4h-11V15.3z"/>
	<path class="st2" d="M76.5,2.2h2.2V0h11v4.4H81v2.2h6.6v2.2h2.2v6.6h-2.2v2.2h-11v-4.4h8.7V11h-6.6V8.8h-2.2V2.2z"/>
	<path class="st2" d="M91.9,2.2h2.2V0h11v4.4h-8.7v2.2h6.6v2.2h2.2v6.6h-2.2v2.2h-11v-4.4h8.7V11h-6.6V8.8h-2.2V2.2z"/>
	<path class="st2" d="M126.9,17.5h-4.4V2.2h2.2V0h8.7v2.2h2.2v15.3h-4.4V11h-4.4L126.9,17.5L126.9,17.5z M131.2,6.6V4.4h-4.4v2.2
		H131.2z"/>
	<path class="st2" d="M144.4,8.8h-2.2v8.7h-4.4V0.1h4.4v2.2h2.2v2.2h2.2V0.1h4.4v17.5h-4.4V11h-2.2V8.8z"/>
	<path class="st2" d="M153.1,0h4.4v6.6h4.4V0h4.4v8.7H164V11h-2.2v6.6h-4.4V11h-2.2V8.7H153V0H153.1z"/>
	<path class="st2" d="M188.1,17.5h-4.4V0.1h4.4v4.4h2.2V2.2h2.2V0h4.4v4.4h-2.2v2.2h-2.2V11h2.2v2.2h2.2v4.4h-4.4v-2.2h-2.2v-2.2
		h-2.2V17.5z"/>
	<path class="st2" d="M201.2,15.3H199V2.2h2.2V0h11v4.4h-8.7v2.2h4.4V11h-4.4v2.2h8.7v4.4h-11V15.3z"/>
	<path class="st2" d="M214.4,0h4.4v6.6h4.4V0h4.4v8.7h-2.2V11h-2.2v6.6h-4.4V11h-2.2V8.7h-2.2V0H214.4z"/>
	<path class="st2" d="M245,0h13.1v4.4h-4.4v13.1h-4.4V4.4H245V0z"/>
	<path class="st2" d="M260.3,2.2h2.2V0h8.7v2.2h2.2v13.1h-2.2v2.2h-8.7v-2.2h-2.2V2.2z M264.7,13.2h4.4V4.4h-4.4V13.2z"/>
	<path class="st2" d="M295.3,17.5h-4.4V0.1h11v2.2h2.2v6.6h-2.2v2.2h-6.6V17.5z M295.3,6.6h4.4V4.4h-4.4V6.6z"/>
	<path class="st2" d="M308.5,15.3h-2.2V0h4.4v13.1h8.7v4.4h-11L308.5,15.3L308.5,15.3z"/>
	<path class="st2" d="M325.9,17.5h-4.4V2.2h2.2V0h8.7v2.2h2.2v15.3h-4.4V11H326L325.9,17.5L325.9,17.5z M330.3,6.6V4.4h-4.4v2.2
		H330.3z"/>
	<path class="st2" d="M336.9,0h4.4v6.6h4.4V0h4.4v8.7h-2.2V11h-2.2v6.6h-4.4V11H339V8.7h-2.1V0z"/>
	<path class="st2" d="M367.5,6.6h13.1V11h-13.1V6.6z"/>
</g>
</svg>
