<?xml version="1.0" encoding="utf-8"?>
<!-- Generator: Adobe Illustrator 22.0.1, SVG Export Plug-In . SVG Version: 6.00 Build 0)  -->
<svg version="1.1" id="Layer_1" xmlns="http://www.w3.org/2000/svg" xmlns:xlink="http://www.w3.org/1999/xlink" x="0px" y="0px"
	 width="69px" height="78.6px" viewBox="0 0 109 118.6" style="enable-background:new 0 0 109 118.6;" xml:space="preserve">
<style type="text/css">
	.st0{fill:#5895B7;}
	.st1{opacity:0.8;}
	.st2{fill:#C17620;}
	.st3{fill:#F4C24A;}
	.st4{fill:#FFFFFF;}
	.st5{fill:#2A6FBA;}
	.st6{fill:#4ABAEF;}
	.st7{fill:#95C9C8;}
	.st8{fill:#DDEFEE;}
	.st9{fill:#1B8E6F;}
	.st10{fill:#3CEA8A;}
	.st11{opacity:0.4;fill:#666666;}
	.st12{fill:#33BC6E;}
	.st13{fill:none;}
	.st14{fill:#7149A4;}
	.st15{fill:#BD86E0;}
	.st16{opacity:0.4;fill:#666666;stroke:#666666;stroke-width:4;stroke-linejoin:bevel;stroke-miterlimit:10;}
	.st17{fill:#F2F2F2;}
	.st18{fill:#E6E6E6;}
	.st19{fill:none;stroke:#000000;stroke-width:4;stroke-linejoin:bevel;stroke-miterlimit:10;}
	.st20{fill:#C6E0DE;}
	.st21{fill:#A7C6C3;}
	.st22{fill:#EE3D53;}
	.st23{fill:none;stroke:#000000;stroke-width:2;stroke-miterlimit:10;}
	.st24{fill:#A17559;}
	.st25{fill:#910E46;}
	.st26{fill:#238D6F;}
	.st27{fill:#704CA2;}
	.st28{fill:#47E88D;}
	.st29{fill:#BC88DE;}
</style>
<g>
	<rect x="-223" y="-259" class="st0" width="484" height="82"/>
	<rect x="229" y="-185" class="st0" width="107" height="30"/>
	<g class="st1">
		<g>
			<polygon class="st0" points="-207,-239 -207,-157 -303,-157 -303,-168 -291,-168 -291,-180 -279,-180 -279,-192 -267,-192
				-267,-204 -279,-204 -279,-216 -291,-216 -291,-228 -303,-228 -303,-239 			"/>
		</g>
		<polygon class="st0" points="-221,-181 -207,-158 -207,-181 		"/>
	</g>
	<g>
		<g>
			<polygon class="st2" points="240,-247 240,-165 336,-165 336,-176 324,-176 324,-188 312,-188 312,-200 300,-200 300,-212
				312,-212 312,-224 324,-224 324,-236 336,-236 336,-247 			"/>
			<polygon class="st3" points="240,-258 240,-176 336,-176 336,-187 324,-187 324,-199 312,-199 312,-211 300,-211 300,-223
				312,-223 312,-235 324,-235 324,-247 336,-247 336,-258 			"/>
		</g>
		<polygon class="st2" points="254,-189 240,-166 240,-189 		"/>
		<g>
			<g>
				<polygon class="st2" points="-216,-247 -216,-165 -312,-165 -312,-176 -300,-176 -300,-188 -288,-188 -288,-200 -276,-200
					-276,-212 -288,-212 -288,-224 -300,-224 -300,-236 -312,-236 -312,-247 				"/>
				<polygon class="st3" points="-216,-258 -216,-176 -312,-176 -312,-187 -300,-187 -300,-199 -288,-199 -288,-211 -276,-211
					-276,-223 -288,-223 -288,-235 -300,-235 -300,-247 -312,-247 -312,-258 				"/>
			</g>
			<polygon class="st2" points="-230,-189 -216,-166 -216,-189 			"/>
		</g>
		<g>
			<rect x="-230" y="-271" class="st2" width="484" height="82"/>
			<rect x="-230" y="-283" class="st3" width="484" height="82"/>
		</g>
	</g>
	<g>
		<path class="st4" d="M-159.4-223.2h-8.6v-34.6h8.6v13h8.6v-13h8.6v34.6h-8.6v-13h-8.6V-223.2z"/>
		<path class="st4" d="M-137.8-253.4h4.3v-4.3h17.3v4.3h4.3v25.9h-4.3v4.3h-17.3v-4.3h-4.3V-253.4z M-129.1-231.8h8.6v-17.3h-8.6
			V-231.8z"/>
		<path class="st4" d="M-98.9-223.2h-8.6v-34.6h8.6v17.3h4.3v-4.3h4.3v4.3h4.3v-17.3h8.6v34.6h-8.6v-4.3h-4.3v-4.3h-4.3v4.3h-4.3
			V-223.2z"/>
		<path class="st4" d="M-42.7-257.8h25.9v8.6h-8.6v25.9h-8.6v-25.9h-8.6V-257.8z"/>
		<path class="st4" d="M-12.5-253.4h4.3v-4.3H9.1v4.3h4.3v25.9H9.1v4.3H-8.2v-4.3h-4.3V-253.4z M-3.9-231.8h8.6v-17.3h-8.6V-231.8z"
			/>
		<path class="st4" d="M56.6-223.2H48v-34.6h21.6v4.3h4.3v13h-4.3v4.3h-13V-223.2z M56.6-244.8h8.6v-4.3h-8.6V-244.8z"/>
		<path class="st4" d="M82.5-227.5h-4.3v-30.2h8.6v25.9h17.3v8.6H82.5V-227.5z"/>
		<path class="st4" d="M117.1-223.2h-8.6v-30.2h4.3v-4.3h17.3v4.3h4.3v30.2h-8.6v-13h-8.6V-223.2z M125.7-244.8v-4.3h-8.6v4.3H125.7
			z"/>
		<path class="st4" d="M138.7-257.8h8.6v13h8.6v-13h8.6v17.3h-4.3v4.3H156v13h-8.6v-13H143v-4.3h-4.3V-257.8z"/>
	</g>
</g>
<polygon class="st5" points="-54,10 -66,10 -139,10 -139,22 -151,22 -151,107 -139,107 -139,119 -66,119 -54,119 -54,107 -42,107
	-42,22 -54,22 "/>
<polygon class="st5" points="-54,10 -66,10 -139,10 -139,22 -151,22 -151,107 -139,107 -139,119 -66,119 -54,119 -54,107 -42,107
	-42,22 -54,22 "/>
<g>
	<path class="st4" d="M-114.4,44.2H-86v5.7h5.7V67H-86v5.7H-103V61.3h11.4v-5.7h-22.8V44.2z M-103,78.4h11.4v11.4H-103V78.4z"/>
</g>
<polygon class="st5" points="97,10 85,10 12,10 12,22 0,22 0,107 12,107 12,119 85,119 97,119 97,107 109,107 109,22 97,22 "/>
<polygon class="st6" points="97,0 85,0 12,0 12,12 0,12 0,97 12,97 12,109 85,109 97,109 97,97 109,97 109,12 97,12 "/>
<g>
	<path class="st4" d="M36.6,34.2H65v5.7h5.7V57H65v5.7H48V51.3h11.4v-5.7H36.6V34.2z M48,68.4h11.4v11.4H48V68.4z"/>
</g>
<g>
	<polygon class="st0" points="1132,-145.5 1120.4,-145.5 1120.4,-157.1 1108.9,-157.1 1108.9,-169.9 610.1,-169.9 610.1,-157.1
		598.6,-157.1 598.6,-145.5 587,-145.5 587,539.3 598.6,539.3 598.6,550.9 610.1,550.9 610.1,563.7 1108.9,563.7 1108.9,550.9
		1120.4,550.9 1120.4,539.3 1132,539.3 	"/>
	<polygon class="st7" points="1132,-157.5 1120.4,-157.5 1120.4,-169.1 1108.9,-169.1 1108.9,-181.9 610.1,-181.9 610.1,-169.1
		598.6,-169.1 598.6,-157.5 587,-157.5 587,527.2 598.6,527.2 598.6,538.9 610.1,538.9 610.1,551.7 1108.9,551.7 1108.9,538.9
		1120.4,538.9 1120.4,527.2 1132,527.2 	"/>
	<polygon class="st8" points="1132,-169.5 1120.4,-169.5 1120.4,-181.2 1108.9,-181.2 1108.9,-194 610.1,-194 610.1,-181.2
		598.6,-181.2 598.6,-169.5 587,-169.5 587,515.2 598.6,515.2 598.6,526.8 610.1,526.8 610.1,539.7 1108.9,539.7 1108.9,526.8
		1120.4,526.8 1120.4,515.2 1132,515.2 	"/>
</g>
<g>
	<polygon class="st9" points="83,-510 73,-510 -301.9,-510 -301.9,-499.9 -312,-499.9 -312,-442 -301.9,-442 -301.9,-432 73,-432
		83,-432 83,-442 93.1,-442 93.1,-499.9 83,-499.9 	"/>
	<polygon class="st10" points="83,-520 73,-520 -301.9,-520 -301.9,-509.9 -312,-509.9 -312,-452 -301.9,-452 -301.9,-442 73,-442
		83,-442 83,-452 93.1,-452 93.1,-509.9 83,-509.9 	"/>
	<g>
		<path class="st4" d="M-191.9-469.1h-6.9v-27.6h17.3v3.5h3.5v10.4h-3.5v3.5h-10.4V-469.1z M-191.9-486.4h6.9v-3.5h-6.9V-486.4z"/>
		<path class="st4" d="M-171.2-472.5h-3.5v-24.2h6.9v20.7h13.8v6.9h-17.3V-472.5z"/>
		<path class="st4" d="M-143.6-469.1h-6.9v-24.2h3.5v-3.5h13.8v3.5h3.5v24.2h-6.9v-10.4h-6.9V-469.1z M-136.6-486.4v-3.5h-6.9v3.5
			H-136.6z"/>
		<path class="st4" d="M-126.3-496.7h6.9v10.4h6.9v-10.4h6.9v13.8h-3.5v3.5h-3.5v10.4h-6.9v-10.4h-3.5v-3.5h-3.5V-496.7z"/>
		<path class="st4" d="M-98.6-472.5h-3.5v-20.7h3.5v-3.5h17.3v6.9h-13.8v3.5h6.9v6.9h-6.9v3.5h13.8v6.9h-17.3V-472.5z"/>
		<path class="st4" d="M-67.5-479.5H-71v10.4h-6.9v-27.6h17.3v3.5h3.5v10.4h-3.5v3.5h3.5v10.4h-6.9v-6.9h-3.5V-479.5z M-71-486.4
			h6.9v-3.5H-71V-486.4z"/>
		<path class="st4" d="M-29.5-496.7h6.9v27.6h-6.9V-496.7z"/>
	</g>
</g>
<g>
	<polygon class="st11" points="-277.8,-630.6 -279.8,-636.3 -283.8,-648.4 -301.6,-642.3 -299.7,-636.6 -305.5,-634.6
		-301.4,-622.6 -295.6,-624.5 -293.7,-618.8 -281.6,-622.8 -283.6,-628.6 	"/>
	<polygon class="st11" points="-239,-642.6 -241,-648.4 -245,-660.4 -262.8,-654.4 -260.9,-648.6 -266.7,-646.7 -262.6,-634.6
		-256.8,-636.6 -254.9,-630.8 -242.8,-634.9 -244.8,-640.7 	"/>
	<rect x="-298.6" y="-689.6" transform="matrix(0.9472 -0.3207 0.3207 0.9472 199.395 -130.0323)" width="7.1" height="38.6"/>
	<polygon points="-279.4,-635.4 -281.4,-641.1 -285.5,-653.2 -303.3,-647.1 -301.3,-641.4 -307.1,-639.4 -303,-627.4 -297.2,-629.3
		-295.3,-623.6 -283.3,-627.6 -285.2,-633.4 	"/>
	<rect x="-260.1" y="-702.6" transform="matrix(0.9472 -0.3207 0.3207 0.9472 205.605 -118.3826)" width="7.1" height="38.6"/>
	<polygon points="-241,-648.4 -242.9,-654.2 -247,-666.2 -264.8,-660.2 -262.8,-654.4 -268.6,-652.4 -264.5,-640.4 -258.8,-642.4
		-256.8,-636.6 -244.8,-640.7 -246.7,-646.4 	"/>
	<rect x="-308.6" y="-711.9" transform="matrix(0.9472 -0.3207 0.3207 0.9472 210.5092 -128.4768)" width="47.7" height="17.3"/>
</g>
<g>
	<polygon class="st11" points="-211.6,-597 -210.7,-601.1 -208.8,-609.8 -221.6,-612.6 -222.5,-608.4 -226.6,-609.4 -228.6,-600.7
		-224.4,-599.8 -225.3,-595.6 -216.7,-593.7 -215.8,-597.9 	"/>
	<polygon class="st11" points="-184.1,-590.2 -183.2,-594.4 -181.3,-603 -194.1,-605.8 -195,-601.7 -199.1,-602.6 -201,-593.9
		-196.9,-593 -197.8,-588.9 -189.2,-587 -188.2,-591.1 	"/>
	<rect x="-210" y="-640.4" transform="matrix(0.9766 0.2149 -0.2149 0.9766 -139.5629 29.9571)" width="5" height="26.9"/>
	<polygon points="-210.8,-600.4 -209.9,-604.6 -208,-613.2 -220.8,-616 -221.7,-611.9 -225.9,-612.8 -227.8,-604.2 -223.6,-603.3
		-224.6,-599.1 -215.9,-597.2 -215,-601.4 	"/>
	<rect x="-182.4" y="-634.3" transform="matrix(0.9766 0.2149 -0.2149 0.9766 -137.6088 24.1552)" width="5" height="26.9"/>
	<polygon points="-183.2,-594.4 -182.3,-598.5 -180.4,-607.1 -193.2,-610 -194.1,-605.8 -198.2,-606.7 -200.1,-598.1 -196,-597.2
		-196.9,-593 -188.2,-591.1 -187.3,-595.3 	"/>
	<rect x="-206.2" y="-648.9" transform="matrix(0.9766 0.2149 -0.2149 0.9766 -142.5748 25.7127)" width="33.3" height="12"/>
</g>
<g>
	<polygon class="st11" points="-135.6,-658.8 -136.3,-661.8 -137.7,-668.2 -147.1,-666.1 -146.4,-663 -149.4,-662.4 -148,-656
		-145,-656.7 -144.3,-653.6 -138,-655.1 -138.6,-658.1 	"/>
	<polygon class="st11" points="-115.2,-662.8 -115.8,-665.8 -117.3,-672.2 -126.6,-670.1 -126,-667 -129,-666.4 -127.6,-660
		-124.6,-660.7 -123.9,-657.7 -117.5,-659.1 -118.2,-662.1 	"/>
	<rect x="-144" y="-689.8" transform="matrix(0.9761 -0.2173 0.2173 0.9761 144.3495 -47.1368)" width="3.6" height="19.8"/>
	<polygon points="-136.2,-661.3 -136.8,-664.4 -138.2,-670.7 -147.6,-668.6 -147,-665.6 -150,-664.9 -148.6,-658.5 -145.5,-659.2
		-144.9,-656.2 -138.5,-657.6 -139.2,-660.6 	"/>
	<rect x="-123.7" y="-694.4" transform="matrix(0.9761 -0.2173 0.2173 0.9761 145.817 -42.8321)" width="3.6" height="19.8"/>
	<polygon points="-115.8,-665.8 -116.5,-668.9 -117.9,-675.2 -127.3,-673.1 -126.6,-670.1 -129.7,-669.4 -128.3,-663.1
		-125.2,-663.7 -124.6,-660.7 -118.2,-662.1 -118.9,-665.2 	"/>
	<rect x="-147.3" y="-700.6" transform="matrix(0.9761 -0.2173 0.2173 0.9761 148.0428 -45.9934)" width="24.4" height="8.8"/>
</g>
<g>
	<polygon class="st11" points="-115,-613 -112.4,-617.1 -106.9,-625.7 -119.6,-633.8 -122.2,-629.6 -126.3,-632.3 -131.8,-623.7
		-127.7,-621.1 -130.3,-617 -121.7,-611.5 -119.1,-615.6 	"/>
	<polygon class="st11" points="-88,-594.9 -85.4,-599 -79.9,-607.6 -92.6,-615.6 -95.2,-611.5 -99.3,-614.1 -104.8,-605.6
		-100.7,-603 -103.3,-598.8 -94.7,-593.4 -92.1,-597.5 	"/>
	<rect x="-101.7" y="-659.1" transform="matrix(0.844 0.5363 -0.5363 0.844 -360.6302 -47.3789)" width="5.7" height="30.9"/>
	<polygon points="-112.8,-616.4 -110.2,-620.6 -104.7,-629.1 -117.4,-637.2 -120,-633.1 -124.2,-635.7 -129.6,-627.1 -125.5,-624.5
		-128.1,-620.4 -119.5,-614.9 -116.9,-619.1 	"/>
	<rect x="-74.3" y="-641.7" transform="matrix(0.844 0.5363 -0.5363 0.844 -347.0058 -59.3697)" width="5.7" height="30.9"/>
	<polygon points="-85.4,-599 -82.8,-603.1 -77.3,-611.7 -90,-619.8 -92.6,-615.6 -96.7,-618.3 -102.2,-609.7 -98.1,-607.1
		-100.7,-603 -92.1,-597.5 -89.5,-601.6 	"/>
	<rect x="-92.3" y="-660.7" transform="matrix(0.844 0.5363 -0.5363 0.844 -362.0617 -62.7411)" width="38.2" height="13.8"/>
</g>
<g>
	<polygon class="st9" points="-393.7,-1053.4 -400.3,-1053.4 -646.7,-1053.4 -646.7,-1046.8 -653.3,-1046.8 -653.3,-1008.8
		-646.7,-1008.8 -646.7,-1002.2 -400.3,-1002.2 -393.7,-1002.2 -393.7,-1008.8 -387.1,-1008.8 -387.1,-1046.8 -393.7,-1046.8 	"/>
	<polygon class="st12" points="-393.7,-1053.4 -400.3,-1053.4 -646.7,-1053.4 -646.7,-1046.8 -653.3,-1046.8 -653.3,-1008.8
		-646.7,-1008.8 -646.7,-1002.2 -400.3,-1002.2 -393.7,-1002.2 -393.7,-1008.8 -387.1,-1008.8 -387.1,-1046.8 -393.7,-1046.8 	"/>
	<g>
		<path class="st4" d="M-586.9-1035.9h2.3v-2.3h11.4v4.5h-9.1v9.1h9.1v4.5h-11.4v-2.3h-2.3V-1035.9z"/>
		<path class="st4" d="M-566.5-1020h-4.5v-15.9h2.3v-2.3h9.1v2.3h2.3v15.9h-4.5v-6.8h-4.5V-1020z M-561.9-1031.3v-2.3h-4.5v2.3
			H-561.9z"/>
		<path class="st4" d="M-552.9-1022.3h-2.3v-15.9h4.5v13.6h9.1v4.5h-11.4V-1022.3z"/>
		<path class="st4" d="M-539.2-1038.2h4.5v18.2h-4.5V-1038.2z"/>
		<path class="st4" d="M-532.4-1038.2h11.4v2.3h2.3v13.6h-2.3v2.3h-11.4V-1038.2z M-527.9-1031.3h4.5v-2.3h-4.5V-1031.3z
			 M-527.9-1024.5h4.5v-2.3h-4.5V-1024.5z"/>
		<path class="st4" d="M-509.7-1026.8h-2.3v6.8h-4.5v-15.9h2.3v-2.3h9.1v2.3h2.3v6.8h-2.3v2.3h2.3v6.8h-4.5v-4.5h-2.3V-1026.8z
			 M-512-1031.3h4.5v-2.3h-4.5V-1031.3z"/>
		<path class="st4" d="M-496.1-1020h-4.5v-15.9h2.3v-2.3h9.1v2.3h2.3v15.9h-4.5v-6.8h-4.5V-1020z M-491.5-1031.3v-2.3h-4.5v2.3
			H-491.5z"/>
		<path class="st4" d="M-484.7-1038.2h13.6v4.5h-4.5v13.6h-4.5v-13.6h-4.5V-1038.2z"/>
		<path class="st4" d="M-466.6-1022.3h-2.3v-13.6h2.3v-2.3h11.4v4.5h-9.1v2.3h4.5v4.5h-4.5v2.3h9.1v4.5h-11.4V-1022.3z"/>
	</g>
</g>
<g>
	<polygon class="st9" points="-73.7,-985.4 -80.3,-985.4 -326.7,-985.4 -326.7,-978.8 -333.3,-978.8 -333.3,-940.8 -326.7,-940.8
		-326.7,-934.2 -80.3,-934.2 -73.7,-934.2 -73.7,-940.8 -67.1,-940.8 -67.1,-978.8 -73.7,-978.8 	"/>
	<polygon class="st10" points="-73.7,-992 -80.3,-992 -326.7,-992 -326.7,-985.4 -333.3,-985.4 -333.3,-947.4 -326.7,-947.4
		-326.7,-940.7 -80.3,-940.7 -73.7,-940.7 -73.7,-947.4 -67.1,-947.4 -67.1,-985.4 -73.7,-985.4 	"/>
	<g>
		<path class="st4" d="M-266.9-974.5h2.3v-2.3h11.4v4.5h-9.1v9.1h9.1v4.5h-11.4v-2.3h-2.3V-974.5z"/>
		<path class="st4" d="M-246.5-958.6h-4.5v-15.9h2.3v-2.3h9.1v2.3h2.3v15.9h-4.5v-6.8h-4.5V-958.6z M-241.9-969.9v-2.3h-4.5v2.3
			H-241.9z"/>
		<path class="st4" d="M-232.9-960.8h-2.3v-15.9h4.5v13.6h9.1v4.5h-11.4V-960.8z"/>
		<path class="st4" d="M-219.2-976.7h4.5v18.2h-4.5V-976.7z"/>
		<path class="st4" d="M-212.4-976.7h11.4v2.3h2.3v13.6h-2.3v2.3h-11.4V-976.7z M-207.9-969.9h4.5v-2.3h-4.5V-969.9z M-207.9-963.1
			h4.5v-2.3h-4.5V-963.1z"/>
		<path class="st4" d="M-189.7-965.4h-2.3v6.8h-4.5v-15.9h2.3v-2.3h9.1v2.3h2.3v6.8h-2.3v2.3h2.3v6.8h-4.5v-4.5h-2.3V-965.4z
			 M-192-969.9h4.5v-2.3h-4.5V-969.9z"/>
		<path class="st4" d="M-176.1-958.6h-4.5v-15.9h2.3v-2.3h9.1v2.3h2.3v15.9h-4.5v-6.8h-4.5V-958.6z M-171.5-969.9v-2.3h-4.5v2.3
			H-171.5z"/>
		<path class="st4" d="M-164.7-976.7h13.6v4.5h-4.5v13.6h-4.5v-13.6h-4.5V-976.7z"/>
		<path class="st4" d="M-146.6-960.8h-2.3v-13.6h2.3v-2.3h11.4v4.5h-9.1v2.3h4.5v4.5h-4.5v2.3h9.1v4.5h-11.4V-960.8z"/>
	</g>
</g>
<g>
	<rect x="-331.7" y="-903.1" class="st9" width="219.8" height="28.8"/>
	<rect x="-336.6" y="-909.6" class="st9" width="229.4" height="30.6"/>
	<polygon class="st10" points="-336.6,-914 -336.6,-884.7 -331.7,-884.7 -331.7,-879 -112,-879 -112,-884.7 -107.2,-884.7
		-107.2,-914 	"/>
</g>
<polygon class="st9" points="-116.8,-899.1 -116.8,-904.2 -121.9,-904.2 -121.9,-904.3 -178.5,-904.3 -209.1,-904.3 -234.7,-904.3
	-258.5,-904.3 -321.9,-904.3 -321.9,-904.3 -327,-904.3 -327,-899.2 -332.1,-899.2 -332.1,-891.5 -327,-891.5 -327,-886.4
	-321.9,-886.4 -321.9,-886.3 -258.5,-886.3 -234.7,-886.3 -209.1,-886.3 -178.5,-886.3 -121.9,-886.3 -121.9,-886.4 -116.8,-886.4
	-116.8,-891.5 -111.7,-891.5 -111.7,-899.1 "/>
<g>
	<rect x="-340.7" y="-805.1" class="st13" width="4.7" height="0.1"/>
	<rect x="-340.7" y="-787.2" class="st13" width="4.7" height="0.1"/>
	<polygon class="st4" points="-319.7,-787.1 -319.7,-792.2 -314.6,-792.2 -314.6,-799.9 -319.7,-799.9 -319.7,-805 -324.8,-805
		-324.8,-805.1 -336,-805.1 -336,-805 -340.7,-805 -340.7,-787.2 -336,-787.2 -336,-787.1 -324.8,-787.1 -324.8,-787.1 	"/>
</g>
<g>
	<polygon class="st4" points="-366.5,-840.6 -366.5,-845.7 -371.6,-845.7 -371.6,-845.8 -387.5,-845.8 -387.5,-827.8 -371.6,-827.8
		-371.6,-827.9 -366.5,-827.9 -366.5,-833 -361.4,-833 -361.4,-840.6 	"/>
	<polygon class="st4" points="-380,-801.8 -380,-806.9 -380,-806.9 -380,-807 -384.5,-807 -385.1,-807 -389.6,-807 -389.6,-806.9
		-389.6,-806.9 -389.6,-801.8 -394.7,-801.8 -394.7,-794.2 -389.6,-794.2 -389.6,-789.1 -389.6,-789.1 -389.6,-789 -385.1,-789
		-384.5,-789 -380,-789 -380,-789 -380,-789 -380,-794.1 -374.9,-794.1 -374.9,-801.8 	"/>
</g>
<polygon class="st4" points="-429.8,-899.1 -429.8,-904.2 -429.8,-904.2 -429.8,-904.3 -434.3,-904.3 -434.9,-904.3 -439.4,-904.3
	-439.4,-904.3 -439.4,-904.3 -439.4,-899.2 -444.5,-899.2 -444.5,-891.5 -439.4,-891.5 -439.4,-886.4 -439.4,-886.4 -439.4,-886.3
	-434.9,-886.3 -434.3,-886.3 -429.8,-886.3 -429.8,-886.4 -429.8,-886.4 -429.8,-891.5 -424.7,-891.5 -424.7,-899.1 "/>
<polygon class="st14" points="536,-510 526,-510 151.1,-510 151.1,-499.9 141,-499.9 141,-442 151.1,-442 151.1,-432 526,-432
	536,-432 536,-442 546.1,-442 546.1,-499.9 536,-499.9 "/>
<polygon class="st15" points="536,-520 526,-520 151.1,-520 151.1,-509.9 141,-509.9 141,-452 151.1,-452 151.1,-442 526,-442
	536,-442 536,-452 546.1,-452 546.1,-509.9 536,-509.9 "/>
<g>
	<path class="st4" d="M253.6-469.1h-6.9v-27.6H264v3.5h3.5v10.4H264v3.5h-10.4V-469.1z M253.6-486.4h6.9v-3.5h-6.9V-486.4z"/>
	<path class="st4" d="M274.4-472.5h-3.5v-24.2h6.9v20.7h13.8v6.9h-17.3V-472.5z"/>
	<path class="st4" d="M302-469.1h-6.9v-24.2h3.5v-3.5h13.8v3.5h3.5v24.2h-6.9v-10.4H302V-469.1z M308.9-486.4v-3.5H302v3.5H308.9z"
		/>
	<path class="st4" d="M319.3-496.7h6.9v10.4h6.9v-10.4h6.9v13.8h-3.5v3.5h-3.5v10.4h-6.9v-10.4h-3.5v-3.5h-3.5V-496.7z"/>
	<path class="st4" d="M347-472.5h-3.5v-20.7h3.5v-3.5h17.3v6.9h-13.8v3.5h6.9v6.9h-6.9v3.5h13.8v6.9H347V-472.5z"/>
	<path class="st4" d="M378.1-479.5h-3.5v10.4h-6.9v-27.6H385v3.5h3.5v10.4H385v3.5h3.5v10.4h-6.9v-6.9h-3.5V-479.5z M374.6-486.4
		h6.9v-3.5h-6.9V-486.4z"/>
	<path class="st4" d="M416.1-496.7h17.3v3.5h3.5v10.4h-3.5v3.5H423v3.5h13.8v6.9h-20.7v-13.8h3.5v-3.5h10.4v-3.5h-13.8V-496.7z"/>
</g>
<g>
	<rect x="162" y="-516" class="st4" width="45.1" height="5.7"/>
	<rect x="213.3" y="-516" class="st4" width="5.7" height="5.7"/>
</g>
<g>
	<rect x="-292.5" y="-515" class="st4" width="45.1" height="5.7"/>
	<rect x="-241.2" y="-515" class="st4" width="5.7" height="5.7"/>
</g>
<polygon class="st16" points="96.6,-675 103,-669.4 97.4,-663 117.8,-645.6 117.8,-607.7 138.6,-633.8 170.3,-604.4 176.2,-610.7
	181.2,-606.1 252.8,-724.8 "/>
<polygon class="st17" points="94.2,-682.1 100.5,-676.5 94.9,-670.1 115.4,-652.7 115.4,-614.8 136.1,-640.9 167.9,-611.5
	173.7,-617.8 178.7,-613.2 250.3,-731.9 "/>
<polygon class="st18" points="136.2,-641.1 250.6,-731.9 115.5,-652.9 115.5,-615 "/>
<polygon class="st19" points="93.1,-681.9 99.5,-676.3 93.9,-669.9 114.3,-652.6 114.3,-614.7 135.1,-640.8 166.8,-611.4
	172.7,-617.7 177.6,-613.1 249.3,-731.7 "/>
<g>
	<polygon class="st20" points="28.9,-988.7 28.9,-825 39.3,-825 39.3,-815.5 49.7,-815.5 49.7,-805.1 497.2,-805.1 497.2,-815.5
		507.6,-815.5 507.6,-825 517.9,-825 517.9,-988.7 	"/>
	<polygon class="st20" points="517.9,-988.7 517.9,-1082.8 507.6,-1082.8 507.6,-1092.3 497.2,-1092.3 497.2,-1102.8 49.7,-1102.8
		49.7,-1092.3 39.3,-1092.3 39.3,-1082.8 28.9,-1082.8 28.9,-988.7 	"/>
</g>
<g>
	<polygon class="st21" points="39.3,-1086.2 49.7,-1086.2 49.7,-1094.2 39.3,-1094.2 39.3,-1086.3 28.9,-1086.3 28.9,-1078.3
		39.3,-1078.3 	"/>
	<rect x="49.7" y="-1102.9" class="st21" width="447.5" height="8"/>
	<polygon class="st21" points="507.6,-1086.3 507.6,-1094.2 497.2,-1094.2 497.2,-1086.2 507.6,-1086.2 507.6,-1078.3
		517.9,-1078.3 517.9,-1086.3 	"/>
</g>
<g>
	<g>
		<g>
			<rect x="-364.2" y="-1167.2" width="10.2" height="10.2"/>
		</g>
	</g>
	<g>
		<g>
			<path d="M-302.8-1177.4v5.1h-5.1v5.1h5.1v20.5h5.1v5.1h-5.1v5.1h5.1h5.1v-10.2h15.4v5.1h5.1v-5.1v-30.7H-302.8z M-277.2-1151.8
				h-20.5v-20.5h20.5V-1151.8z"/>
		</g>
	</g>
	<g>
		<g>
			<rect x="-292.5" y="-1167.2" width="10.2" height="10.2"/>
		</g>
	</g>
	<g>
		<g>
			<rect x="-364.2" y="-1095.5" width="10.2" height="10.2"/>
		</g>
	</g>
	<g>
		<g>
			<rect x="-302.8" y="-1105.7" width="5.1" height="5.1"/>
		</g>
	</g>
	<g>
		<g>
			<rect x="-328.4" y="-1080.1" width="5.1" height="5.1"/>
		</g>
	</g>
	<g>
		<g>
			<rect x="-323.2" y="-1100.6" width="5.1" height="5.1"/>
		</g>
	</g>
	<g>
		<g>
			<rect x="-323.2" y="-1090.3" width="5.1" height="5.1"/>
		</g>
	</g>
	<g>
		<g>
			<rect x="-277.2" y="-1116" width="5.1" height="5.1"/>
		</g>
	</g>
	<g>
		<g>
			<rect x="-374.4" y="-1116" width="5.1" height="5.1"/>
		</g>
	</g>
	<g>
		<g>
			<rect x="-374.4" y="-1141.6" width="5.1" height="5.1"/>
		</g>
	</g>
	<g>
		<g>
			<polygon points="-318.1,-1172.3 -318.1,-1167.2 -328.4,-1167.2 -328.4,-1162 -313,-1162 -313,-1167.2 -313,-1172.3 			"/>
		</g>
	</g>
	<g>
		<g>
			<path d="M-277.2-1136.4v5.1h-10.2v5.1h-15.4v-5.1h-5.1v5.1h-10.2v5.1h15.4v5.1H-313h-5.1v-5.1h-5.1v5.1h-5.1v-5.1h-5.1v5.1h-5.1
				v5.1h10.2v5.1h5.1v-5.1h10.2v5.1h-5.1v5.1h5.1v10.2h5.1v5.1h5.1v-5.1h15.4v-10.2h5.1v-5.1h-5.1v-10.2h-10.2v-5.1h10.2v5.1h5.1
				v-5.1h5.1v-5.1h5.1v-5.1v-5.1H-277.2L-277.2-1136.4z M-292.5-1110.8v15.4h-15.4v-15.4H-292.5z"/>
		</g>
	</g>
	<g>
		<g>
			<polygon points="-307.9,-1146.7 -313,-1146.7 -313,-1141.6 -318.1,-1141.6 -318.1,-1136.4 -318.1,-1131.3 -313,-1131.3
				-313,-1136.4 -307.9,-1136.4 -307.9,-1141.6 -302.8,-1141.6 -302.8,-1146.7 			"/>
		</g>
	</g>
	<g>
		<g>
			<rect x="-318.1" y="-1080.1" width="10.2" height="5.1"/>
		</g>
	</g>
	<g>
		<g>
			<rect x="-333.5" y="-1172.3" width="5.1" height="5.1"/>
		</g>
	</g>
	<g>
		<g>
			<rect x="-292.5" y="-1136.4" width="5.1" height="5.1"/>
		</g>
	</g>
	<g>
		<g>
			<rect x="-287.4" y="-1141.6" width="5.1" height="5.1"/>
		</g>
	</g>
	<g>
		<g>
			<rect x="-354" y="-1116" width="5.1" height="5.1"/>
		</g>
	</g>
	<g>
		<g>
			<path d="M-343.7-1080.1v-20.5h5.1v-5.1v-5.1h-5.1v5.1h-15.4v-5.1h-5.1h-5.1v5.1h-5.1v30.7h30.7h10.2v-5.1H-343.7z M-348.8-1080.1
				h-20.5v-20.5h20.5V-1080.1z"/>
		</g>
	</g>
	<g>
		<g>
			<rect x="-343.7" y="-1146.7" width="5.1" height="5.1"/>
		</g>
	</g>
	<g>
		<g>
			<path d="M-338.6-1177.4h-5.1h-30.7v30.7h5.1v5.1h5.1v-5.1h5.1v5.1h5.1v-5.1h10.2v-10.2h5.1v-5.1h-5.1v-10.2h5.1h5.1v-5.1H-338.6z
				 M-348.8-1151.8h-20.5v-20.5h20.5V-1151.8z"/>
		</g>
	</g>
	<g>
		<g>
			<rect x="-313" y="-1162" width="5.1" height="5.1"/>
		</g>
	</g>
	<g>
		<g>
			<rect x="-323.2" y="-1177.4" width="5.1" height="5.1"/>
		</g>
	</g>
	<g>
		<g>
			<path d="M-313-1146.7v-5.1h-5.1v-5.1h-5.1v5.1h-10.2v-5.1h-5.1v5.1v5.1h5.1v10.2h-15.4v-5.1h-5.1v5.1h-15.4v5.1h10.2v5.1h-15.4
				v5.1h15.4v5.1h5.1v-5.1h5.1v5.1h5.1v-5.1h10.2v-5.1h-5.1v-5.1h5.1h5.1v5.1h5.1h5.1v-5.1h-5.1v-5.1h-5.1v-10.2H-313L-313-1146.7z
				 M-343.7-1126.2H-354v-5.1h10.2V-1126.2z"/>
		</g>
	</g>
	<g>
		<g>
			<polygon points="-328.4,-1095.5 -328.4,-1100.6 -328.4,-1105.7 -333.5,-1105.7 -333.5,-1100.6 -338.6,-1100.6 -338.6,-1095.5
				-333.5,-1095.5 -333.5,-1090.3 -338.6,-1090.3 -338.6,-1085.2 -328.4,-1085.2 -328.4,-1090.3 -323.2,-1090.3 -323.2,-1095.5
				"/>
		</g>
	</g>
	<g>
		<g>
			<polygon points="-282.3,-1085.2 -282.3,-1090.3 -287.4,-1090.3 -287.4,-1085.2 -302.8,-1085.2 -302.8,-1080.1 -292.5,-1080.1
				-292.5,-1075 -287.4,-1075 -287.4,-1080.1 -277.2,-1080.1 -277.2,-1075 -272,-1075 -272,-1080.1 -272,-1085.2 			"/>
		</g>
	</g>
	<g>
		<g>
			<polygon points="-277.2,-1105.7 -277.2,-1100.6 -282.3,-1100.6 -282.3,-1095.5 -272,-1095.5 -272,-1100.6 -272,-1105.7 			"/>
		</g>
	</g>
</g>
<g>
	<g>
		<polygon class="st9" points="-602.6,-761.3 -606.2,-761.3 -743.4,-761.3 -743.4,-757.6 -747.1,-757.6 -747.1,-736.4
			-743.4,-736.4 -743.4,-732.7 -606.2,-732.7 -602.6,-732.7 -602.6,-736.4 -598.9,-736.4 -598.9,-757.6 -602.6,-757.6 		"/>
		<polygon class="st12" points="-602.6,-761.3 -606.2,-761.3 -743.4,-761.3 -743.4,-757.6 -747.1,-757.6 -747.1,-736.4
			-743.4,-736.4 -743.4,-732.7 -606.2,-732.7 -602.6,-732.7 -602.6,-736.4 -598.9,-736.4 -598.9,-757.6 -602.6,-757.6 		"/>
		<g>
			<path class="st4" d="M-715.2-746.4h-1.3v3.8h-2.5v-10.1h6.3v1.3h1.3v3.8h-1.3v1.3h1.3v3.8h-2.5v-2.5h-1.3V-746.4z M-716.5-749
				h2.5v-1.3h-2.5V-749z"/>
			<path class="st4" d="M-708.9-743.9h-1.3v-7.6h1.3v-1.3h6.3v2.5h-5.1v1.3h2.5v2.5h-2.5v1.3h5.1v2.5h-6.3V-743.9z"/>
			<path class="st4" d="M-700-743.9h-1.3v-7.6h1.3v-1.3h5.1v1.3h1.3v2.5h-2.5v-1.3h-2.5v5.1h2.5v-1.3h2.5v2.5h-1.3v1.3h-5.1V-743.9z
				"/>
			<path class="st4" d="M-689.9-742.6h-2.5v-8.9h1.3v-1.3h5.1v1.3h1.3v8.9h-2.5v-3.8h-2.5V-742.6z M-687.4-749v-1.3h-2.5v1.3H-687.4
				z"/>
			<path class="st4" d="M-682.3-743.9h-1.3v-8.9h2.5v7.6h5.1v2.5h-6.3V-743.9z"/>
			<path class="st4" d="M-674.7-752.8h2.5v10.1h-2.5V-752.8z"/>
			<path class="st4" d="M-670.9-752.8h6.3v1.3h1.3v7.6h-1.3v1.3h-6.3V-752.8z M-668.4-749h2.5v-1.3h-2.5V-749z M-668.4-745.2h2.5
				v-1.3h-2.5V-745.2z"/>
			<path class="st4" d="M-658.3-746.4h-1.3v3.8h-2.5v-8.9h1.3v-1.3h5.1v1.3h1.3v3.8h-1.3v1.3h1.3v3.8h-2.5v-2.5h-1.3V-746.4z
				 M-659.5-749h2.5v-1.3h-2.5V-749z"/>
			<path class="st4" d="M-650.7-742.6h-2.5v-8.9h1.3v-1.3h5.1v1.3h1.3v8.9h-2.5v-3.8h-2.5V-742.6z M-648.2-749v-1.3h-2.5v1.3H-648.2
				z"/>
			<path class="st4" d="M-644.4-752.8h7.6v2.5h-2.5v7.6h-2.5v-7.6h-2.5V-752.8z"/>
			<path class="st4" d="M-634.3-743.9h-1.3v-7.6h1.3v-1.3h6.3v2.5h-5.1v1.3h2.5v2.5h-2.5v1.3h5.1v2.5h-6.3V-743.9z"/>
		</g>
	</g>
	<g>
		<rect x="-741" y="-759.1" class="st4" width="13.1" height="1.7"/>
		<rect x="-726.1" y="-759.1" class="st4" width="1.7" height="1.7"/>
	</g>
</g>
<g>
	<g>
		<polygon class="st9" points="-602.6,-719.3 -606.2,-719.3 -743.4,-719.3 -743.4,-715.6 -747.1,-715.6 -747.1,-694.4
			-743.4,-694.4 -743.4,-690.7 -606.2,-690.7 -602.6,-690.7 -602.6,-694.4 -598.9,-694.4 -598.9,-715.6 -602.6,-715.6 		"/>
		<polygon class="st10" points="-602.6,-722.9 -606.2,-722.9 -743.4,-722.9 -743.4,-719.2 -747.1,-719.2 -747.1,-698.1
			-743.4,-698.1 -743.4,-694.4 -606.2,-694.4 -602.6,-694.4 -602.6,-698.1 -598.9,-698.1 -598.9,-719.2 -602.6,-719.2 		"/>
		<g>
			<path class="st4" d="M-715.2-708.1h-1.3v3.8h-2.5v-10.1h6.3v1.3h1.3v3.8h-1.3v1.3h1.3v3.8h-2.5v-2.5h-1.3V-708.1z M-716.5-710.6
				h2.5v-1.3h-2.5V-710.6z"/>
			<path class="st4" d="M-708.9-705.6h-1.3v-7.6h1.3v-1.3h6.3v2.5h-5.1v1.3h2.5v2.5h-2.5v1.3h5.1v2.5h-6.3V-705.6z"/>
			<path class="st4" d="M-700-705.6h-1.3v-7.6h1.3v-1.3h5.1v1.3h1.3v2.5h-2.5v-1.3h-2.5v5.1h2.5v-1.3h2.5v2.5h-1.3v1.3h-5.1V-705.6z
				"/>
			<path class="st4" d="M-689.9-704.3h-2.5v-8.9h1.3v-1.3h5.1v1.3h1.3v8.9h-2.5v-3.8h-2.5V-704.3z M-687.4-710.6v-1.3h-2.5v1.3
				H-687.4z"/>
			<path class="st4" d="M-682.3-705.6h-1.3v-8.9h2.5v7.6h5.1v2.5h-6.3V-705.6z"/>
			<path class="st4" d="M-674.7-714.4h2.5v10.1h-2.5V-714.4z"/>
			<path class="st4" d="M-670.9-714.4h6.3v1.3h1.3v7.6h-1.3v1.3h-6.3V-714.4z M-668.4-710.6h2.5v-1.3h-2.5V-710.6z M-668.4-706.8
				h2.5v-1.3h-2.5V-706.8z"/>
			<path class="st4" d="M-658.3-708.1h-1.3v3.8h-2.5v-8.9h1.3v-1.3h5.1v1.3h1.3v3.8h-1.3v1.3h1.3v3.8h-2.5v-2.5h-1.3V-708.1z
				 M-659.5-710.6h2.5v-1.3h-2.5V-710.6z"/>
			<path class="st4" d="M-650.7-704.3h-2.5v-8.9h1.3v-1.3h5.1v1.3h1.3v8.9h-2.5v-3.8h-2.5V-704.3z M-648.2-710.6v-1.3h-2.5v1.3
				H-648.2z"/>
			<path class="st4" d="M-644.4-714.4h7.6v2.5h-2.5v7.6h-2.5v-7.6h-2.5V-714.4z"/>
			<path class="st4" d="M-634.3-705.6h-1.3v-7.6h1.3v-1.3h6.3v2.5h-5.1v1.3h2.5v2.5h-2.5v1.3h5.1v2.5h-6.3V-705.6z"/>
		</g>
	</g>
	<g>
		<rect x="-741" y="-720.1" class="st4" width="13.1" height="1.7"/>
		<rect x="-726.1" y="-720.1" class="st4" width="1.7" height="1.7"/>
	</g>
</g>
<g>
	<rect x="-321.2" y="-988.4" class="st4" width="23.6" height="3"/>
	<rect x="-294.4" y="-988.4" class="st4" width="3" height="3"/>
</g>
<g>
	<rect x="-641.6" y="-1049.9" class="st4" width="23.6" height="3"/>
	<rect x="-614.8" y="-1049.9" class="st4" width="3" height="3"/>
</g>
<g>
	<polygon class="st22" points="-671.7,-926.4 -671.7,-933.9 -690.3,-933.9 -690.3,-926.4 -697.8,-926.4 -697.8,-918.9
		-697.8,-907.7 -690.3,-907.7 -690.3,-900.3 -679.1,-900.3 -671.7,-900.3 -671.7,-907.7 -664.2,-907.7 -664.2,-918.9 -664.2,-926.4
			"/>
	<line class="st23" x1="-689.7" y1="-900.3" x2="-689.7" y2="-890.3"/>
	<line class="st23" x1="-672.3" y1="-900.3" x2="-672.3" y2="-890.3"/>
	<polygon class="st24" points="-673.3,-892.2 -675.4,-892.2 -688.8,-892.2 -688.8,-890 -691,-890 -691,-874.5 -688.8,-874.5
		-688.8,-872.3 -675.4,-872.3 -673.3,-872.3 -673.3,-874.5 -671.1,-874.5 -671.1,-890 -673.3,-890 	"/>
</g>
<polygon class="st25" points="-604.6,-487.1 -604.6,-495.1 -612.5,-495.1 -677.5,-495.1 -746.3,-495.1 -746.3,-487.1 -754.2,-487.1
	-754.2,-441.6 -746.3,-441.6 -746.3,-433.6 -677.5,-433.6 -612.5,-433.6 -604.6,-433.6 -604.6,-441.6 -596.7,-441.6 -596.7,-487.1
	"/>
<polygon class="st25" points="-604.6,-487 -604.6,-494.9 -612.5,-494.9 -677.5,-494.9 -746.3,-494.9 -746.3,-487 -754.2,-487
	-754.2,-441.5 -746.3,-441.5 -746.3,-433.5 -677.5,-433.5 -612.5,-433.5 -604.6,-433.5 -604.6,-441.5 -596.7,-441.5 -596.7,-487 "/>
<g>
	<path class="st4" d="M-708.1-453.6h-5.4v-21.8h13.6v2.7h2.7v8.2h-2.7v2.7h-8.2V-453.6z M-708.1-467.2h5.4v-2.7h-5.4V-467.2z"/>
	<path class="st4" d="M-691.8-456.3h-2.7v-19h5.4v16.3h10.9v5.4h-13.6V-456.3z"/>
	<path class="st4" d="M-670-453.6h-5.4v-19h2.7v-2.7h10.9v2.7h2.7v19h-5.4v-8.2h-5.4V-453.6z M-664.6-467.2v-2.7h-5.4v2.7H-664.6z"
		/>
	<path class="st4" d="M-656.4-475.4h5.4v8.2h5.4v-8.2h5.4v10.9h-2.7v2.7h-2.7v8.2h-5.4v-8.2h-2.7v-2.7h-2.7V-475.4z"/>
</g>
<polygon class="st25" points="-434.6,-487.1 -434.6,-495.1 -442.5,-495.1 -507.5,-495.1 -576.3,-495.1 -576.3,-487.1 -584.2,-487.1
	-584.2,-441.6 -576.3,-441.6 -576.3,-433.6 -507.5,-433.6 -442.5,-433.6 -434.6,-433.6 -434.6,-441.6 -426.7,-441.6 -426.7,-487.1
	"/>
<polygon class="st22" points="-434.6,-495 -434.6,-502.9 -442.5,-502.9 -507.5,-502.9 -576.3,-502.9 -576.3,-495 -584.2,-495
	-584.2,-449.5 -576.3,-449.5 -576.3,-441.5 -507.5,-441.5 -442.5,-441.5 -434.6,-441.5 -434.6,-449.5 -426.7,-449.5 -426.7,-495 "/>
<g>
	<path class="st4" d="M-538.1-461.6h-5.4v-21.8h13.6v2.7h2.7v8.2h-2.7v2.7h-8.2V-461.6z M-538.1-475.2h5.4v-2.7h-5.4V-475.2z"/>
	<path class="st4" d="M-521.8-464.3h-2.7v-19h5.4v16.3h10.9v5.4h-13.6V-464.3z"/>
	<path class="st4" d="M-500-461.6h-5.4v-19h2.7v-2.7h10.9v2.7h2.7v19h-5.4v-8.2h-5.4V-461.6z M-494.6-475.2v-2.7h-5.4v2.7H-494.6z"
		/>
	<path class="st4" d="M-486.4-483.4h5.4v8.2h5.4v-8.2h5.4v10.9h-2.7v2.7h-2.7v8.2h-5.4v-8.2h-2.7v-2.7h-2.7V-483.4z"/>
</g>
<g>
	<path class="st26" d="M-1428.2-732.7h43.2v108h43.2v-108h43.2v129.6h-21.6v21.6h-21.6v21.6h-43.2v-21.6h-21.6v-21.6h-21.6V-732.7z"
		/>
	<path class="st27" d="M-1277-709.1h21.6v-21.6h108v43.2h-86.4v21.6h64.8v21.6h21.6v64.8h-21.6v21.6h-108v-43.2h86.4v-21.6h-64.8
		v-21.6h-21.6V-709.1z"/>
</g>
<g>
	<path class="st28" d="M-1428.2-753.8h43.2v108h43.2v-108h43.2v129.6h-21.6v21.6h-21.6v21.6h-43.2v-21.6h-21.6v-21.6h-21.6V-753.8z"
		/>
	<path class="st29" d="M-1277-732.2h21.6v-21.6h108v43.2h-86.4v21.6h64.8v21.6h21.6v64.8h-21.6v21.6h-108v-43.2h86.4v-21.6h-64.8
		v-21.6h-21.6V-732.2z"/>
</g>
<g>
	<g>
		<path class="st0" d="M-1378.8-375.2h27.5v68.7h27.5v-68.7h27.5v82.4h-13.7v13.7h-13.7v13.7h-27.5V-279h-13.7v-13.7h-13.7V-375.2z"
			/>
		<path class="st0" d="M-1282.7-360.1h13.7v-13.7h68.7v27.5h-54.9v13.7h41.2v13.7h13.7v41.2h-13.7v13.7h-68.7v-27.5h54.9v-13.7
			h-41.2v-13.7h-13.7V-360.1z"/>
	</g>
	<g>
		<path class="st7" d="M-1378.8-389.7h27.5v68.7h27.5v-68.7h27.5v82.4h-13.7v13.7h-13.7v13.7h-27.5v-13.7h-13.7v-13.7h-13.7V-389.7z
			"/>
		<path class="st7" d="M-1282.7-374.6h13.7v-13.7h68.7v27.5h-54.9v13.7h41.2v13.7h13.7v41.2h-13.7v13.7h-68.7V-306h54.9v-13.7h-41.2
			v-13.7h-13.7V-374.6z"/>
	</g>
	<g>
		<path class="st4" d="M-1378.8-403.1h27.5v68.7h27.5v-68.7h27.5v82.4h-13.7v13.7h-13.7v13.7h-27.5v-13.7h-13.7v-13.7h-13.7V-403.1z
			"/>
		<path class="st4" d="M-1282.7-389.3h13.7v-13.7h68.7v27.5h-54.9v13.7h41.2v13.7h13.7v41.2h-13.7v13.7h-68.7v-27.5h54.9v-13.7
			h-41.2v-13.7h-13.7V-389.3z"/>
	</g>
</g>
</svg>
