<?xml version="1.0" encoding="utf-8"?>
<!-- Generator: Adobe Illustrator 22.0.1, SVG Export Plug-In . SVG Version: 6.00 Build 0)  -->
<svg version="1.1" id="Layer_1" xmlns="http://www.w3.org/2000/svg" xmlns:xlink="http://www.w3.org/1999/xlink" x="0px" y="0px"
	 width="69px" height="78.6px" viewBox="0 0 109 118.6" style="enable-background:new 0 0 109 118.6;" xml:space="preserve">
<style type="text/css">
	.st0{fill:#5895B7;}
	.st1{opacity:0.8;}
	.st2{fill:#C17620;}
	.st3{fill:#F4C24A;}
	.st4{fill:#2A6FBA;}
	.st5{fill:none;}
	.st6{fill:#FFFFFF;}
	.st7{font-family:'EditUndoBRK';}
	.st8{font-size:79px;}
	.st9{fill:#4ABAEF;}
	.st10{fill:#95C9C8;}
	.st11{fill:#DDEFEE;}
	.st12{fill:#1B8E6F;}
	.st13{fill:#3CEA8A;}
	.st14{opacity:0.4;fill:#666666;}
	.st15{fill:#33BC6E;}
	.st16{fill:#7149A4;}
	.st17{fill:#BD86E0;}
	.st18{opacity:0.4;fill:#666666;stroke:#666666;stroke-width:4;stroke-linejoin:bevel;stroke-miterlimit:10;}
	.st19{fill:#F2F2F2;}
	.st20{fill:#E6E6E6;}
	.st21{fill:none;stroke:#000000;stroke-width:4;stroke-linejoin:bevel;stroke-miterlimit:10;}
	.st22{fill:#C6E0DE;}
	.st23{fill:#A7C6C3;}
</style>
<g>
	<rect x="-72" y="-259" class="st0" width="484" height="82"/>
	<rect x="380" y="-185" class="st0" width="107" height="30"/>
	<g class="st1">
		<g>
			<polygon class="st0" points="-56,-239 -56,-157 -152,-157 -152,-168 -140,-168 -140,-180 -128,-180 -128,-192 -116,-192
				-116,-204 -128,-204 -128,-216 -140,-216 -140,-228 -152,-228 -152,-239 			"/>
		</g>
		<polygon class="st0" points="-70,-181 -56,-158 -56,-181 		"/>
	</g>
	<g>
		<g>
			<polygon class="st2" points="391,-247 391,-165 487,-165 487,-176 475,-176 475,-188 463,-188 463,-200 451,-200 451,-212
				463,-212 463,-224 475,-224 475,-236 487,-236 487,-247 			"/>
			<polygon class="st3" points="391,-258 391,-176 487,-176 487,-187 475,-187 475,-199 463,-199 463,-211 451,-211 451,-223
				463,-223 463,-235 475,-235 475,-247 487,-247 487,-258 			"/>
		</g>
		<polygon class="st2" points="405,-189 391,-166 391,-189 		"/>
		<g>
			<g>
				<polygon class="st2" points="-65,-247 -65,-165 -161,-165 -161,-176 -149,-176 -149,-188 -137,-188 -137,-200 -125,-200
					-125,-212 -137,-212 -137,-224 -149,-224 -149,-236 -161,-236 -161,-247 				"/>
				<polygon class="st3" points="-65,-258 -65,-176 -161,-176 -161,-187 -149,-187 -149,-199 -137,-199 -137,-211 -125,-211
					-125,-223 -137,-223 -137,-235 -149,-235 -149,-247 -161,-247 -161,-258 				"/>
			</g>
			<polygon class="st2" points="-79,-189 -65,-166 -65,-189 			"/>
		</g>
		<g>
			<rect x="-79" y="-271" class="st2" width="484" height="82"/>
			<rect x="-79" y="-283" class="st3" width="484" height="82"/>
		</g>
	</g>
	<rect x="-56.2" y="-257.8" class="st5" width="415.2" height="81.8"/>
	<text transform="matrix(1 0 0 1 -17.0225 -223.209)" class="st6 st7" style="font-size:60px;">HOW TO PLAY</text>
</g>
<polygon class="st4" points="97,10 85,10 12,10 12,22 0,22 0,107 12,107 12,119 85,119 97,119 97,107 109,107 109,22 97,22 "/>
<polygon class="st4" points="97,10 85,10 12,10 12,22 0,22 0,107 12,107 12,119 85,119 97,119 97,107 109,107 109,22 97,22 "/>
<rect x="12" y="44.2" class="st5" width="89" height="81.8"/>
<text transform="matrix(1 0 0 1 36.5918 89.7344)" class="st6 st7 st8">?</text>
<polygon class="st4" points="248,10 236,10 163,10 163,22 151,22 151,107 163,107 163,119 236,119 248,119 248,107 260,107 260,22
	248,22 "/>
<polygon class="st9" points="248,0 236,0 163,0 163,12 151,12 151,97 163,97 163,109 236,109 248,109 248,97 260,97 260,12 248,12
	"/>
<rect x="163" y="34.2" class="st5" width="89" height="81.8"/>
<text transform="matrix(1 0 0 1 187.5918 79.7344)" class="st6 st7 st8">?</text>
<g>
	<polygon class="st0" points="1283,-145.5 1271.4,-145.5 1271.4,-157.1 1259.9,-157.1 1259.9,-169.9 761.1,-169.9 761.1,-157.1
		749.6,-157.1 749.6,-145.5 738,-145.5 738,539.3 749.6,539.3 749.6,550.9 761.1,550.9 761.1,563.7 1259.9,563.7 1259.9,550.9
		1271.4,550.9 1271.4,539.3 1283,539.3 	"/>
	<polygon class="st10" points="1283,-157.5 1271.4,-157.5 1271.4,-169.1 1259.9,-169.1 1259.9,-181.9 761.1,-181.9 761.1,-169.1
		749.6,-169.1 749.6,-157.5 738,-157.5 738,527.2 749.6,527.2 749.6,538.9 761.1,538.9 761.1,551.7 1259.9,551.7 1259.9,538.9
		1271.4,538.9 1271.4,527.2 1283,527.2 	"/>
	<polygon class="st11" points="1283,-169.5 1271.4,-169.5 1271.4,-181.2 1259.9,-181.2 1259.9,-194 761.1,-194 761.1,-181.2
		749.6,-181.2 749.6,-169.5 738,-169.5 738,515.2 749.6,515.2 749.6,526.8 761.1,526.8 761.1,539.7 1259.9,539.7 1259.9,526.8
		1271.4,526.8 1271.4,515.2 1283,515.2 	"/>
</g>
<g>
	<polygon class="st12" points="234,-510 224,-510 -150.9,-510 -150.9,-499.9 -161,-499.9 -161,-442 -150.9,-442 -150.9,-432
		224,-432 234,-432 234,-442 244.1,-442 244.1,-499.9 234,-499.9 	"/>
	<polygon class="st13" points="234,-520 224,-520 -150.9,-520 -150.9,-509.9 -161,-509.9 -161,-452 -150.9,-452 -150.9,-442
		224,-442 234,-442 234,-452 244.1,-452 244.1,-509.9 234,-509.9 	"/>
	<rect x="-160" y="-496.7" class="st5" width="404" height="81.8"/>
	<text transform="matrix(1 0 0 1 -47.8555 -469.0865)" class="st6 st7" style="font-size:48px;">PLAYER 1</text>
</g>
<g>
	<polygon class="st14" points="-126.8,-630.6 -128.8,-636.3 -132.8,-648.4 -150.6,-642.3 -148.7,-636.6 -154.5,-634.6
		-150.4,-622.6 -144.6,-624.5 -142.7,-618.8 -130.6,-622.8 -132.6,-628.6 	"/>
	<polygon class="st14" points="-88,-642.6 -90,-648.4 -94,-660.4 -111.8,-654.4 -109.9,-648.6 -115.7,-646.7 -111.6,-634.6
		-105.8,-636.6 -103.9,-630.8 -91.8,-634.9 -93.8,-640.7 	"/>
	<rect x="-147.6" y="-689.6" transform="matrix(0.9472 -0.3207 0.3207 0.9472 207.3721 -81.6026)" width="7.1" height="38.6"/>
	<polygon points="-128.4,-635.4 -130.4,-641.1 -134.5,-653.2 -152.3,-647.1 -150.3,-641.4 -156.1,-639.4 -152,-627.4 -146.2,-629.3
		-144.3,-623.6 -132.3,-627.6 -134.2,-633.4 	"/>
	<rect x="-109.1" y="-702.6" transform="matrix(0.9472 -0.3207 0.3207 0.9472 213.5821 -69.9529)" width="7.1" height="38.6"/>
	<polygon points="-90,-648.4 -91.9,-654.2 -96,-666.2 -113.8,-660.2 -111.8,-654.4 -117.6,-652.4 -113.5,-640.4 -107.8,-642.4
		-105.8,-636.6 -93.8,-640.7 -95.7,-646.4 	"/>
	<rect x="-157.6" y="-711.9" transform="matrix(0.9472 -0.3207 0.3207 0.9472 218.4862 -80.0471)" width="47.7" height="17.3"/>
</g>
<g>
	<polygon class="st14" points="-60.6,-597 -59.7,-601.1 -57.8,-609.8 -70.6,-612.6 -71.5,-608.4 -75.6,-609.4 -77.6,-600.7
		-73.4,-599.8 -74.3,-595.6 -65.7,-593.7 -64.8,-597.9 	"/>
	<polygon class="st14" points="-33.1,-590.2 -32.2,-594.4 -30.3,-603 -43.1,-605.8 -44,-601.7 -48.1,-602.6 -50,-593.9 -45.9,-593
		-46.8,-588.9 -38.2,-587 -37.2,-591.1 	"/>
	<rect x="-59" y="-640.4" transform="matrix(0.9766 0.2149 -0.2149 0.9766 -136.0354 -2.491)" width="5" height="26.9"/>
	<polygon points="-59.8,-600.4 -58.9,-604.6 -57,-613.2 -69.8,-616 -70.7,-611.9 -74.9,-612.8 -76.8,-604.2 -72.6,-603.3
		-73.6,-599.1 -64.9,-597.2 -64,-601.4 	"/>
	<rect x="-31.4" y="-634.3" transform="matrix(0.9766 0.2149 -0.2149 0.9766 -134.0813 -8.293)" width="5" height="26.9"/>
	<polygon points="-32.2,-594.4 -31.3,-598.5 -29.4,-607.1 -42.2,-610 -43.1,-605.8 -47.2,-606.7 -49.1,-598.1 -45,-597.2
		-45.9,-593 -37.2,-591.1 -36.3,-595.3 	"/>
	<rect x="-55.2" y="-648.9" transform="matrix(0.9766 0.2149 -0.2149 0.9766 -139.0472 -6.7354)" width="33.3" height="12"/>
</g>
<g>
	<polygon class="st14" points="15.4,-658.8 14.7,-661.8 13.3,-668.2 3.9,-666.1 4.6,-663 1.6,-662.4 3,-656 6,-656.7 6.7,-653.6
		13,-655.1 12.4,-658.1 	"/>
	<polygon class="st14" points="35.8,-662.8 35.2,-665.8 33.7,-672.2 24.4,-670.1 25,-667 22,-666.4 23.4,-660 26.4,-660.7
		27.1,-657.7 33.5,-659.1 32.8,-662.1 	"/>
	<rect x="7" y="-689.8" transform="matrix(0.9761 -0.2173 0.2173 0.9761 147.9572 -14.3264)" width="3.6" height="19.8"/>
	<polygon points="14.8,-661.3 14.2,-664.4 12.8,-670.7 3.4,-668.6 4,-665.6 1,-664.9 2.4,-658.5 5.5,-659.2 6.1,-656.2 12.5,-657.6
		11.8,-660.6 	"/>
	<rect x="27.3" y="-694.4" transform="matrix(0.9761 -0.2173 0.2173 0.9761 149.4247 -10.0217)" width="3.6" height="19.8"/>
	<polygon points="35.2,-665.8 34.5,-668.9 33.1,-675.2 23.7,-673.1 24.4,-670.1 21.3,-669.4 22.7,-663.1 25.8,-663.7 26.4,-660.7
		32.8,-662.1 32.1,-665.2 	"/>
	<rect x="3.7" y="-700.6" transform="matrix(0.9761 -0.2173 0.2173 0.9761 151.6505 -13.183)" width="24.4" height="8.8"/>
</g>
<g>
	<polygon class="st14" points="36,-613 38.6,-617.1 44.1,-625.7 31.4,-633.8 28.8,-629.6 24.7,-632.3 19.2,-623.7 23.3,-621.1
		20.7,-617 29.3,-611.5 31.9,-615.6 	"/>
	<polygon class="st14" points="63,-594.9 65.6,-599 71.1,-607.6 58.4,-615.6 55.8,-611.5 51.7,-614.1 46.2,-605.6 50.3,-603
		47.7,-598.8 56.3,-593.4 58.9,-597.5 	"/>
	<rect x="49.3" y="-659.1" transform="matrix(0.844 0.5363 -0.5363 0.844 -337.0775 -128.3615)" width="5.7" height="30.9"/>
	<polygon points="38.2,-616.4 40.8,-620.6 46.3,-629.1 33.6,-637.2 31,-633.1 26.8,-635.7 21.4,-627.1 25.5,-624.5 22.9,-620.4
		31.5,-614.9 34.1,-619.1 	"/>
	<rect x="76.7" y="-641.7" transform="matrix(0.844 0.5363 -0.5363 0.844 -323.4531 -140.3523)" width="5.7" height="30.9"/>
	<polygon points="65.6,-599 68.2,-603.1 73.7,-611.7 61,-619.8 58.4,-615.6 54.3,-618.3 48.8,-609.7 52.9,-607.1 50.3,-603
		58.9,-597.5 61.5,-601.6 	"/>
	<rect x="58.7" y="-660.7" transform="matrix(0.844 0.5363 -0.5363 0.844 -338.509 -143.7237)" width="38.2" height="13.8"/>
</g>
<g>
	<polygon class="st12" points="-242.7,-1053.4 -249.3,-1053.4 -495.7,-1053.4 -495.7,-1046.8 -502.3,-1046.8 -502.3,-1008.8
		-495.7,-1008.8 -495.7,-1002.2 -249.3,-1002.2 -242.7,-1002.2 -242.7,-1008.8 -236.1,-1008.8 -236.1,-1046.8 -242.7,-1046.8 	"/>
	<polygon class="st15" points="-242.7,-1053.4 -249.3,-1053.4 -495.7,-1053.4 -495.7,-1046.8 -502.3,-1046.8 -502.3,-1008.8
		-495.7,-1008.8 -495.7,-1002.2 -249.3,-1002.2 -242.7,-1002.2 -242.7,-1008.8 -236.1,-1008.8 -236.1,-1046.8 -242.7,-1046.8 	"/>
	<rect x="-501.7" y="-1038.2" class="st5" width="265.5" height="32.8"/>
	<text transform="matrix(1 0 0 1 -435.9199 -1019.994)" class="st6 st7" style="font-size:31.5429px;">Calibrate</text>
</g>
<g>
	<polygon class="st12" points="77.3,-985.4 70.7,-985.4 -175.7,-985.4 -175.7,-978.8 -182.3,-978.8 -182.3,-940.8 -175.7,-940.8
		-175.7,-934.2 70.7,-934.2 77.3,-934.2 77.3,-940.8 83.9,-940.8 83.9,-978.8 77.3,-978.8 	"/>
	<polygon class="st13" points="77.3,-992 70.7,-992 -175.7,-992 -175.7,-985.4 -182.3,-985.4 -182.3,-947.4 -175.7,-947.4
		-175.7,-940.7 70.7,-940.7 77.3,-940.7 77.3,-947.4 83.9,-947.4 83.9,-985.4 77.3,-985.4 	"/>
	<rect x="-181.7" y="-976.7" class="st5" width="265.5" height="32.8"/>
	<text transform="matrix(1 0 0 1 -115.9199 -958.5654)" class="st6 st7" style="font-size:31.5429px;">Calibrate</text>
</g>
<g>
	<rect x="-180.7" y="-903.1" class="st12" width="219.8" height="28.8"/>
	<rect x="-185.6" y="-909.6" class="st12" width="229.4" height="30.6"/>
	<polygon class="st13" points="-185.6,-914 -185.6,-884.7 -180.7,-884.7 -180.7,-879 39,-879 39,-884.7 43.8,-884.7 43.8,-914 	"/>
</g>
<polygon class="st12" points="34.2,-899.1 34.2,-904.2 29.1,-904.2 29.1,-904.3 -27.5,-904.3 -58.1,-904.3 -83.7,-904.3
	-107.5,-904.3 -170.9,-904.3 -170.9,-904.3 -176,-904.3 -176,-899.2 -181.1,-899.2 -181.1,-891.5 -176,-891.5 -176,-886.4
	-170.9,-886.4 -170.9,-886.3 -107.5,-886.3 -83.7,-886.3 -58.1,-886.3 -27.5,-886.3 29.1,-886.3 29.1,-886.4 34.2,-886.4
	34.2,-891.5 39.3,-891.5 39.3,-899.1 "/>
<g>
	<rect x="-189.7" y="-805.1" class="st5" width="4.7" height="0.1"/>
	<rect x="-189.7" y="-787.2" class="st5" width="4.7" height="0.1"/>
	<polygon class="st6" points="-168.7,-787.1 -168.7,-792.2 -163.6,-792.2 -163.6,-799.9 -168.7,-799.9 -168.7,-805 -173.8,-805
		-173.8,-805.1 -185,-805.1 -185,-805 -189.7,-805 -189.7,-787.2 -185,-787.2 -185,-787.1 -173.8,-787.1 -173.8,-787.1 	"/>
</g>
<g>
	<polygon class="st6" points="-215.5,-840.6 -215.5,-845.7 -220.6,-845.7 -220.6,-845.8 -236.5,-845.8 -236.5,-827.8 -220.6,-827.8
		-220.6,-827.9 -215.5,-827.9 -215.5,-833 -210.4,-833 -210.4,-840.6 	"/>
	<polygon class="st6" points="-229,-801.8 -229,-806.9 -229,-806.9 -229,-807 -233.5,-807 -234.1,-807 -238.6,-807 -238.6,-806.9
		-238.6,-806.9 -238.6,-801.8 -243.7,-801.8 -243.7,-794.2 -238.6,-794.2 -238.6,-789.1 -238.6,-789.1 -238.6,-789 -234.1,-789
		-233.5,-789 -229,-789 -229,-789 -229,-789 -229,-794.1 -223.9,-794.1 -223.9,-801.8 	"/>
</g>
<polygon class="st6" points="-278.8,-899.1 -278.8,-904.2 -278.8,-904.2 -278.8,-904.3 -283.3,-904.3 -283.9,-904.3 -288.4,-904.3
	-288.4,-904.3 -288.4,-904.3 -288.4,-899.2 -293.5,-899.2 -293.5,-891.5 -288.4,-891.5 -288.4,-886.4 -288.4,-886.4 -288.4,-886.3
	-283.9,-886.3 -283.3,-886.3 -278.8,-886.3 -278.8,-886.4 -278.8,-886.4 -278.8,-891.5 -273.7,-891.5 -273.7,-899.1 "/>
<polygon class="st16" points="687,-510 677,-510 302.1,-510 302.1,-499.9 292,-499.9 292,-442 302.1,-442 302.1,-432 677,-432
	687,-432 687,-442 697.1,-442 697.1,-499.9 687,-499.9 "/>
<polygon class="st17" points="687,-520 677,-520 302.1,-520 302.1,-509.9 292,-509.9 292,-452 302.1,-452 302.1,-442 677,-442
	687,-442 687,-452 697.1,-452 697.1,-509.9 687,-509.9 "/>
<rect x="292" y="-496.7" class="st5" width="405" height="81.8"/>
<text transform="matrix(1 0 0 1 397.7324 -469.0865)" class="st6 st7" style="font-size:48px;">PLAYER 2</text>
<g>
	<rect x="313" y="-516" class="st6" width="45.1" height="5.7"/>
	<rect x="364.3" y="-516" class="st6" width="5.7" height="5.7"/>
</g>
<g>
	<rect x="-141.5" y="-515" class="st6" width="45.1" height="5.7"/>
	<rect x="-90.2" y="-515" class="st6" width="5.7" height="5.7"/>
</g>
<polygon class="st18" points="247.6,-675 254,-669.4 248.4,-663 268.8,-645.6 268.8,-607.7 289.6,-633.8 321.3,-604.4 327.2,-610.7
	332.2,-606.1 403.8,-724.8 "/>
<polygon class="st19" points="245.2,-682.1 251.5,-676.5 245.9,-670.1 266.4,-652.7 266.4,-614.8 287.1,-640.9 318.9,-611.5
	324.7,-617.8 329.7,-613.2 401.3,-731.9 "/>
<polygon class="st20" points="287.2,-641.1 401.6,-731.9 266.5,-652.9 266.5,-615 "/>
<polygon class="st21" points="244.1,-681.9 250.5,-676.3 244.9,-669.9 265.3,-652.6 265.3,-614.7 286.1,-640.8 317.8,-611.4
	323.7,-617.7 328.6,-613.1 400.3,-731.7 "/>
<g>
	<polygon class="st22" points="179.9,-988.7 179.9,-825 190.3,-825 190.3,-815.5 200.7,-815.5 200.7,-805.1 648.2,-805.1
		648.2,-815.5 658.6,-815.5 658.6,-825 668.9,-825 668.9,-988.7 	"/>
	<polygon class="st22" points="668.9,-988.7 668.9,-1082.8 658.6,-1082.8 658.6,-1092.3 648.2,-1092.3 648.2,-1102.8 200.7,-1102.8
		200.7,-1092.3 190.3,-1092.3 190.3,-1082.8 179.9,-1082.8 179.9,-988.7 	"/>
</g>
<g>
	<polygon class="st23" points="190.3,-1086.2 200.7,-1086.2 200.7,-1094.2 190.3,-1094.2 190.3,-1086.3 179.9,-1086.3
		179.9,-1078.3 190.3,-1078.3 	"/>
	<rect x="200.7" y="-1102.9" class="st23" width="447.5" height="8"/>
	<polygon class="st23" points="658.6,-1086.3 658.6,-1094.2 648.2,-1094.2 648.2,-1086.2 658.6,-1086.2 658.6,-1078.3
		668.9,-1078.3 668.9,-1086.3 	"/>
</g>
<g>
	<g>
		<g>
			<rect x="-213.2" y="-1167.2" width="10.2" height="10.2"/>
		</g>
	</g>
	<g>
		<g>
			<path d="M-151.8-1177.4v5.1h-5.1v5.1h5.1v20.5h5.1v5.1h-5.1v5.1h5.1h5.1v-10.2h15.4v5.1h5.1v-5.1v-30.7H-151.8z M-126.2-1151.8
				h-20.5v-20.5h20.5V-1151.8z"/>
		</g>
	</g>
	<g>
		<g>
			<rect x="-141.5" y="-1167.2" width="10.2" height="10.2"/>
		</g>
	</g>
	<g>
		<g>
			<rect x="-213.2" y="-1095.5" width="10.2" height="10.2"/>
		</g>
	</g>
	<g>
		<g>
			<rect x="-151.8" y="-1105.7" width="5.1" height="5.1"/>
		</g>
	</g>
	<g>
		<g>
			<rect x="-177.4" y="-1080.1" width="5.1" height="5.1"/>
		</g>
	</g>
	<g>
		<g>
			<rect x="-172.2" y="-1100.6" width="5.1" height="5.1"/>
		</g>
	</g>
	<g>
		<g>
			<rect x="-172.2" y="-1090.3" width="5.1" height="5.1"/>
		</g>
	</g>
	<g>
		<g>
			<rect x="-126.2" y="-1116" width="5.1" height="5.1"/>
		</g>
	</g>
	<g>
		<g>
			<rect x="-223.4" y="-1116" width="5.1" height="5.1"/>
		</g>
	</g>
	<g>
		<g>
			<rect x="-223.4" y="-1141.6" width="5.1" height="5.1"/>
		</g>
	</g>
	<g>
		<g>
			<polygon points="-167.1,-1172.3 -167.1,-1167.2 -177.4,-1167.2 -177.4,-1162 -162,-1162 -162,-1167.2 -162,-1172.3 			"/>
		</g>
	</g>
	<g>
		<g>
			<path d="M-126.2-1136.4v5.1h-10.2v5.1h-15.4v-5.1h-5.1v5.1h-10.2v5.1h15.4v5.1H-162h-5.1v-5.1h-5.1v5.1h-5.1v-5.1h-5.1v5.1h-5.1
				v5.1h10.2v5.1h5.1v-5.1h10.2v5.1h-5.1v5.1h5.1v10.2h5.1v5.1h5.1v-5.1h15.4v-10.2h5.1v-5.1h-5.1v-10.2h-10.2v-5.1h10.2v5.1h5.1
				v-5.1h5.1v-5.1h5.1v-5.1v-5.1H-126.2L-126.2-1136.4z M-141.5-1110.8v15.4h-15.4v-15.4H-141.5z"/>
		</g>
	</g>
	<g>
		<g>
			<polygon points="-156.9,-1146.7 -162,-1146.7 -162,-1141.6 -167.1,-1141.6 -167.1,-1136.4 -167.1,-1131.3 -162,-1131.3
				-162,-1136.4 -156.9,-1136.4 -156.9,-1141.6 -151.8,-1141.6 -151.8,-1146.7 			"/>
		</g>
	</g>
	<g>
		<g>
			<rect x="-167.1" y="-1080.1" width="10.2" height="5.1"/>
		</g>
	</g>
	<g>
		<g>
			<rect x="-182.5" y="-1172.3" width="5.1" height="5.1"/>
		</g>
	</g>
	<g>
		<g>
			<rect x="-141.5" y="-1136.4" width="5.1" height="5.1"/>
		</g>
	</g>
	<g>
		<g>
			<rect x="-136.4" y="-1141.6" width="5.1" height="5.1"/>
		</g>
	</g>
	<g>
		<g>
			<rect x="-203" y="-1116" width="5.1" height="5.1"/>
		</g>
	</g>
	<g>
		<g>
			<path d="M-192.7-1080.1v-20.5h5.1v-5.1v-5.1h-5.1v5.1h-15.4v-5.1h-5.1h-5.1v5.1h-5.1v30.7h30.7h10.2v-5.1H-192.7z M-197.8-1080.1
				h-20.5v-20.5h20.5V-1080.1z"/>
		</g>
	</g>
	<g>
		<g>
			<rect x="-192.7" y="-1146.7" width="5.1" height="5.1"/>
		</g>
	</g>
	<g>
		<g>
			<path d="M-187.6-1177.4h-5.1h-30.7v30.7h5.1v5.1h5.1v-5.1h5.1v5.1h5.1v-5.1h10.2v-10.2h5.1v-5.1h-5.1v-10.2h5.1h5.1v-5.1H-187.6z
				 M-197.8-1151.8h-20.5v-20.5h20.5V-1151.8z"/>
		</g>
	</g>
	<g>
		<g>
			<rect x="-162" y="-1162" width="5.1" height="5.1"/>
		</g>
	</g>
	<g>
		<g>
			<rect x="-172.2" y="-1177.4" width="5.1" height="5.1"/>
		</g>
	</g>
	<g>
		<g>
			<path d="M-162-1146.7v-5.1h-5.1v-5.1h-5.1v5.1h-10.2v-5.1h-5.1v5.1v5.1h5.1v10.2h-15.4v-5.1h-5.1v5.1h-15.4v5.1h10.2v5.1h-15.4
				v5.1h15.4v5.1h5.1v-5.1h5.1v5.1h5.1v-5.1h10.2v-5.1h-5.1v-5.1h5.1h5.1v5.1h5.1h5.1v-5.1h-5.1v-5.1h-5.1v-10.2H-162L-162-1146.7z
				 M-192.7-1126.2H-203v-5.1h10.2V-1126.2z"/>
		</g>
	</g>
	<g>
		<g>
			<polygon points="-177.4,-1095.5 -177.4,-1100.6 -177.4,-1105.7 -182.5,-1105.7 -182.5,-1100.6 -187.6,-1100.6 -187.6,-1095.5
				-182.5,-1095.5 -182.5,-1090.3 -187.6,-1090.3 -187.6,-1085.2 -177.4,-1085.2 -177.4,-1090.3 -172.2,-1090.3 -172.2,-1095.5
				"/>
		</g>
	</g>
	<g>
		<g>
			<polygon points="-131.3,-1085.2 -131.3,-1090.3 -136.4,-1090.3 -136.4,-1085.2 -151.8,-1085.2 -151.8,-1080.1 -141.5,-1080.1
				-141.5,-1075 -136.4,-1075 -136.4,-1080.1 -126.2,-1080.1 -126.2,-1075 -121,-1075 -121,-1080.1 -121,-1085.2 			"/>
		</g>
	</g>
	<g>
		<g>
			<polygon points="-126.2,-1105.7 -126.2,-1100.6 -131.3,-1100.6 -131.3,-1095.5 -121,-1095.5 -121,-1100.6 -121,-1105.7 			"/>
		</g>
	</g>
</g>
</svg>
