<?xml version="1.0" encoding="utf-8"?>
<!-- Generator: Adobe Illustrator 22.0.1, SVG Export Plug-In . SVG Version: 6.00 Build 0)  -->
<svg version="1.1" id="Layer_1" xmlns="http://www.w3.org/2000/svg" xmlns:xlink="http://www.w3.org/1999/xlink" x="0px" y="0px"
	 width="148.2px" height="32.2px" viewBox="0 0 148.2 32.2" style="enable-background:new 0 0 148.2 32.2;" xml:space="preserve">
<style type="text/css">
	.st0{fill:#5895B7;}
	.st1{opacity:0.8;}
	.st2{fill:#C17620;}
	.st3{fill:#F4C24A;}
	.st4{fill:#FFFFFF;}
	.st5{fill:#2A6FBA;}
	.st6{fill:#4ABAEF;}
	.st7{fill:#95C9C8;}
	.st8{fill:#DDEFEE;}
	.st9{fill:#1B8E6F;}
	.st10{fill:#3CEA8A;}
	.st11{opacity:0.4;fill:#666666;}
	.st12{fill:#33BC6E;}
	.st13{fill:none;}
	.st14{fill:#7149A4;}
	.st15{fill:#BD86E0;}
	.st16{opacity:0.4;fill:#666666;stroke:#666666;stroke-width:4;stroke-linejoin:bevel;stroke-miterlimit:10;}
	.st17{fill:#F2F2F2;}
	.st18{fill:#E6E6E6;}
	.st19{fill:none;stroke:#000000;stroke-width:4;stroke-linejoin:bevel;stroke-miterlimit:10;}
	.st20{fill:#C6E0DE;}
	.st21{fill:#A7C6C3;}
	.st22{fill:#910E46;}
	.st23{fill:#EE3D53;}
	.st24{fill:none;stroke:#000000;stroke-width:2;stroke-miterlimit:10;}
	.st25{fill:#A17559;}
	.st26{fill:#238D6F;}
	.st27{fill:#704CA2;}
	.st28{fill:#47E88D;}
	.st29{fill:#BC88DE;}
	.st30{fill:#CCCCCC;}
	.st31{fill:#5B2616;}
	.st32{opacity:0.38;fill:#2D3D3E;}
	.st33{opacity:0.38;}
	.st34{fill:#2D3D3E;}
	.st35{fill:#3F180F;}
	.st36{fill:#1A1A1A;}
	.st37{fill:#38140C;}
</style>
<g>
	<rect x="352.1" y="505.9" class="st0" width="484" height="82"/>
	<rect x="804.1" y="579.9" class="st0" width="107" height="30"/>
	<g class="st1">
		<g>
			<polygon class="st0" points="368.1,525.9 368.1,607.9 272.1,607.9 272.1,596.9 284.1,596.9 284.1,584.9 296.1,584.9 296.1,572.9 
				308.1,572.9 308.1,560.9 296.1,560.9 296.1,548.9 284.1,548.9 284.1,536.9 272.1,536.9 272.1,525.9 			"/>
		</g>
		<polygon class="st0" points="354.1,583.9 368.1,606.9 368.1,583.9 		"/>
	</g>
	<g>
		<g>
			<polygon class="st2" points="815.1,517.9 815.1,599.9 911.1,599.9 911.1,588.9 899.1,588.9 899.1,576.9 887.1,576.9 887.1,564.9 
				875.1,564.9 875.1,552.9 887.1,552.9 887.1,540.9 899.1,540.9 899.1,528.9 911.1,528.9 911.1,517.9 			"/>
			<polygon class="st3" points="815.1,506.9 815.1,588.9 911.1,588.9 911.1,577.9 899.1,577.9 899.1,565.9 887.1,565.9 887.1,553.9 
				875.1,553.9 875.1,541.9 887.1,541.9 887.1,529.9 899.1,529.9 899.1,517.9 911.1,517.9 911.1,506.9 			"/>
		</g>
		<polygon class="st2" points="829.1,575.9 815.1,598.9 815.2,575.9 		"/>
		<g>
			<g>
				<polygon class="st2" points="359.1,517.9 359.1,599.9 263.1,599.9 263.1,588.9 275.1,588.9 275.1,576.9 287.1,576.9 
					287.1,564.9 299.1,564.9 299.1,552.9 287.1,552.9 287.1,540.9 275.1,540.9 275.1,528.9 263.1,528.9 263.1,517.9 				"/>
				<polygon class="st3" points="359.1,506.9 359.1,588.9 263.1,588.9 263.1,577.9 275.1,577.9 275.1,565.9 287.1,565.9 
					287.1,553.9 299.1,553.9 299.1,541.9 287.1,541.9 287.1,529.9 275.1,529.9 275.1,517.9 263.1,517.9 263.1,506.9 				"/>
			</g>
			<polygon class="st2" points="345.1,575.9 359.1,598.9 359.1,575.9 			"/>
		</g>
		<g>
			<rect x="345.1" y="493.9" class="st2" width="484" height="82"/>
			<rect x="345.1" y="481.9" class="st3" width="484" height="82"/>
		</g>
	</g>
	<g>
		<path class="st4" d="M415.7,541.7h-8.6v-34.6h8.6v13h8.6v-13h8.6v34.6h-8.6v-13h-8.6V541.7z"/>
		<path class="st4" d="M437.3,511.5h4.3v-4.3h17.3v4.3h4.3v25.9h-4.3v4.3h-17.3v-4.3h-4.3V511.5z M446,533.1h8.6v-17.3H446V533.1z"
			/>
		<path class="st4" d="M476.2,541.7h-8.6v-34.6h8.6v17.3h4.3v-4.3h4.3v4.3h4.3v-17.3h8.6v34.6h-8.6v-4.3h-4.3v-4.3h-4.3v4.3h-4.3
			V541.7z"/>
		<path class="st4" d="M532.4,507.2h25.9v8.6h-8.6v25.9H541v-25.9h-8.6V507.2z"/>
		<path class="st4" d="M562.6,511.5h4.3v-4.3h17.3v4.3h4.3v25.9h-4.3v4.3h-17.3v-4.3h-4.3V511.5z M571.2,533.1h8.6v-17.3h-8.6V533.1
			z"/>
		<path class="st4" d="M631.7,541.7h-8.6v-34.6h21.6v4.3h4.3v13h-4.3v4.3h-13V541.7z M631.7,520.1h8.6v-4.3h-8.6V520.1z"/>
		<path class="st4" d="M657.6,537.4h-4.3v-30.2h8.6v25.9h17.3v8.6h-21.6V537.4z"/>
		<path class="st4" d="M692.2,541.7h-8.6v-30.2h4.3v-4.3h17.3v4.3h4.3v30.2h-8.6v-13h-8.6V541.7z M700.8,520.1v-4.3h-8.6v4.3H700.8z
			"/>
		<path class="st4" d="M713.8,507.2h8.6v13h8.6v-13h8.6v17.3h-4.3v4.3h-4.3v13h-8.6v-13h-4.3v-4.3h-4.3V507.2z"/>
	</g>
</g>
<polygon class="st5" points="521.1,774.9 509.1,774.9 436.1,774.9 436.1,786.9 424.1,786.9 424.1,871.9 436.1,871.9 436.1,883.9 
	509.1,883.9 521.1,883.9 521.1,871.9 533.1,871.9 533.1,786.9 521.1,786.9 "/>
<polygon class="st5" points="521.1,774.9 509.1,774.9 436.1,774.9 436.1,786.9 424.1,786.9 424.1,871.9 436.1,871.9 436.1,883.9 
	509.1,883.9 521.1,883.9 521.1,871.9 533.1,871.9 533.1,786.9 521.1,786.9 "/>
<g>
	<path class="st4" d="M460.7,809.2h28.4v5.7h5.7v17.1h-5.7v5.7h-17.1v-11.4h11.4v-5.7h-22.8V809.2z M472.1,843.3h11.4v11.4h-11.4
		V843.3z"/>
</g>
<polygon class="st5" points="672.1,774.9 660.1,774.9 587.1,774.9 587.1,786.9 575.1,786.9 575.1,871.9 587.1,871.9 587.1,883.9 
	660.1,883.9 672.1,883.9 672.1,871.9 684.1,871.9 684.1,786.9 672.1,786.9 "/>
<polygon class="st6" points="672.1,764.9 660.1,764.9 587.1,764.9 587.1,776.9 575.1,776.9 575.1,861.9 587.1,861.9 587.1,873.9 
	660.1,873.9 672.1,873.9 672.1,861.9 684.1,861.9 684.1,776.9 672.1,776.9 "/>
<g>
	<path class="st4" d="M611.7,799.2h28.4v5.7h5.7v17.1h-5.7v5.7h-17.1v-11.4h11.4v-5.7h-22.8V799.2z M623.1,833.3h11.4v11.4h-11.4
		V833.3z"/>
</g>
<g>
	<polygon class="st0" points="1707.1,619.5 1695.5,619.5 1695.5,607.8 1684,607.8 1684,595 1185.2,595 1185.2,607.8 1173.7,607.8 
		1173.7,619.5 1162.1,619.5 1162.1,1304.2 1173.7,1304.2 1173.7,1315.8 1185.2,1315.8 1185.2,1328.6 1684,1328.6 1684,1315.8 
		1695.5,1315.8 1695.5,1304.2 1707.1,1304.2 	"/>
	<polygon class="st7" points="1707.1,607.4 1695.5,607.4 1695.5,595.8 1684,595.8 1684,583 1185.2,583 1185.2,595.8 1173.7,595.8 
		1173.7,607.4 1162.1,607.4 1162.1,1292.2 1173.7,1292.2 1173.7,1303.8 1185.2,1303.8 1185.2,1316.6 1684,1316.6 1684,1303.8 
		1695.5,1303.8 1695.5,1292.2 1707.1,1292.2 	"/>
	<polygon class="st8" points="1707.1,595.4 1695.5,595.4 1695.5,583.8 1684,583.8 1684,571 1185.2,571 1185.2,583.8 1173.7,583.8 
		1173.7,595.4 1162.1,595.4 1162.1,1280.1 1173.7,1280.1 1173.7,1291.8 1185.2,1291.8 1185.2,1304.6 1684,1304.6 1684,1291.8 
		1695.5,1291.8 1695.5,1280.1 1707.1,1280.1 	"/>
</g>
<g>
	<polygon class="st0" points="221.1,-1373.1 217,-1373.1 217,-1377.2 213,-1377.2 213,-1381.7 36.7,-1381.7 36.7,-1377.2 
		32.7,-1377.2 32.7,-1373.1 28.6,-1373.1 28.6,-1131.2 32.7,-1131.2 32.7,-1127 36.7,-1127 36.7,-1122.5 213,-1122.5 213,-1127 
		217,-1127 217,-1131.2 221.1,-1131.2 	"/>
	<polygon class="st7" points="221.1,-1377.4 217,-1377.4 217,-1381.5 213,-1381.5 213,-1386 36.7,-1386 36.7,-1381.5 32.7,-1381.5 
		32.7,-1377.4 28.6,-1377.4 28.6,-1135.4 32.7,-1135.4 32.7,-1131.3 36.7,-1131.3 36.7,-1126.8 213,-1126.8 213,-1131.3 
		217,-1131.3 217,-1135.4 221.1,-1135.4 	"/>
	<polygon class="st8" points="221.1,-1381.6 217,-1381.6 217,-1385.7 213,-1385.7 213,-1390.2 36.7,-1390.2 36.7,-1385.7 
		32.7,-1385.7 32.7,-1381.6 28.6,-1381.6 28.6,-1139.7 32.7,-1139.7 32.7,-1135.5 36.7,-1135.5 36.7,-1131 213,-1131 213,-1135.5 
		217,-1135.5 217,-1139.7 221.1,-1139.7 	"/>
</g>
<g>
	<polygon class="st9" points="658.1,255 648.1,255 273.2,255 273.2,265 263.1,265 263.1,322.9 273.2,322.9 273.2,333 648.1,333 
		658.1,333 658.1,322.9 668.2,322.9 668.2,265 658.1,265 	"/>
	<polygon class="st10" points="658.1,245 648.1,245 273.2,245 273.2,255 263.1,255 263.1,312.9 273.2,312.9 273.2,323 648.1,323 
		658.1,323 658.1,312.9 668.2,312.9 668.2,255 658.1,255 	"/>
	<g>
		<path class="st4" d="M383.2,295.8h-6.9v-27.6h17.3v3.5h3.5V282h-3.5v3.5h-10.4V295.8z M383.2,278.6h6.9v-3.5h-6.9V278.6z"/>
		<path class="st4" d="M403.9,292.4h-3.5v-24.2h6.9v20.7h13.8v6.9h-17.3V292.4z"/>
		<path class="st4" d="M431.5,295.8h-6.9v-24.2h3.5v-3.5h13.8v3.5h3.5v24.2h-6.9v-10.4h-6.9V295.8z M438.5,278.6v-3.5h-6.9v3.5
			H438.5z"/>
		<path class="st4" d="M448.8,268.2h6.9v10.4h6.9v-10.4h6.9V282h-3.5v3.5h-3.5v10.4h-6.9v-10.4h-3.5V282h-3.5V268.2z"/>
		<path class="st4" d="M476.5,292.4H473v-20.7h3.5v-3.5h17.3v6.9h-13.8v3.5h6.9v6.9h-6.9v3.5h13.8v6.9h-17.3V292.4z"/>
		<path class="st4" d="M507.6,285.5h-3.5v10.4h-6.9v-27.6h17.3v3.5h3.5V282h-3.5v3.5h3.5v10.4H511v-6.9h-3.5V285.5z M504.1,278.6
			h6.9v-3.5h-6.9V278.6z"/>
		<path class="st4" d="M545.6,268.2h6.9v27.6h-6.9V268.2z"/>
	</g>
</g>
<g>
	<polygon class="st11" points="297.3,134.4 295.3,128.6 291.3,116.6 273.5,122.6 275.4,128.4 269.7,130.3 273.7,142.3 279.5,140.4 
		281.4,146.2 293.5,142.1 291.5,136.3 	"/>
	<polygon class="st11" points="336.1,122.3 334.1,116.5 330.1,104.5 312.3,110.5 314.2,116.3 308.4,118.3 312.5,130.3 318.3,128.3 
		320.2,134.1 332.3,130 330.3,124.3 	"/>
	<rect x="276.5" y="75.3" transform="matrix(0.9472 -0.3207 0.3207 0.9472 -15.5554 94.8283)" width="7.1" height="38.6"/>
	<polygon points="295.7,129.6 293.7,123.8 289.6,111.8 271.8,117.8 273.8,123.6 268,125.5 272.1,137.5 277.9,135.6 279.8,141.4 
		291.8,137.3 289.9,131.5 	"/>
	<rect x="315" y="62.3" transform="matrix(0.9472 -0.3207 0.3207 0.9472 -9.3454 106.478)" width="7.1" height="38.6"/>
	<polygon points="334.1,116.5 332.2,110.8 328.1,98.7 310.3,104.8 312.3,110.5 306.5,112.5 310.6,124.5 316.3,122.6 318.3,128.3 
		330.3,124.3 328.4,118.5 	"/>
	<rect x="266.5" y="53" transform="matrix(0.9472 -0.3207 0.3207 0.9472 -4.4412 96.3838)" width="47.7" height="17.3"/>
</g>
<g>
	<polygon class="st11" points="363.5,167.9 364.4,163.8 366.3,155.2 353.5,152.3 352.6,156.5 348.5,155.6 346.6,164.2 350.7,165.1 
		349.8,169.3 358.4,171.2 359.3,167 	"/>
	<polygon class="st11" points="391,174.7 391.9,170.6 393.8,161.9 381,159.1 380.1,163.3 376,162.4 374.1,171 378.2,171.9 
		377.3,176.1 385.9,178 386.9,173.8 	"/>
	<rect x="365.1" y="124.6" transform="matrix(0.9766 0.2149 -0.2149 0.9766 38.2458 -75.7561)" width="5" height="26.9"/>
	<polygon points="364.3,164.5 365.2,160.3 367.1,151.7 354.3,148.9 353.4,153 349.2,152.1 347.3,160.8 351.5,161.7 350.6,165.8 
		359.2,167.7 360.1,163.6 	"/>
	<rect x="392.7" y="130.7" transform="matrix(0.9766 0.2149 -0.2149 0.9766 40.1999 -81.5581)" width="5" height="26.9"/>
	<polygon points="391.9,170.6 392.8,166.4 394.7,157.8 381.9,155 381,159.1 376.9,158.2 375,166.8 379.1,167.8 378.2,171.9 
		386.9,173.8 387.8,169.7 	"/>
	<rect x="368.9" y="116" transform="matrix(0.9766 0.2149 -0.2149 0.9766 35.234 -80.0005)" width="33.3" height="12"/>
</g>
<g>
	<polygon class="st11" points="439.5,106.1 438.8,103.1 437.4,96.8 428,98.8 428.7,101.9 425.7,102.6 427.1,108.9 430.1,108.2 
		430.8,111.3 437.1,109.9 436.5,106.8 	"/>
	<polygon class="st11" points="459.9,102.1 459.3,99.1 457.8,92.7 448.5,94.8 449.1,97.9 446.1,98.6 447.5,104.9 450.5,104.2 
		451.2,107.3 457.6,105.9 456.9,102.8 	"/>
	<rect x="431.1" y="75.1" transform="matrix(0.9761 -0.2173 0.2173 0.9761 -8.1186 96.1016)" width="3.6" height="19.8"/>
	<polygon points="439,103.6 438.3,100.6 436.9,94.2 427.5,96.3 428.1,99.4 425.1,100 426.5,106.4 429.6,105.7 430.2,108.7 
		436.6,107.3 435.9,104.3 	"/>
	<rect x="451.4" y="70.6" transform="matrix(0.9761 -0.2173 0.2173 0.9761 -6.6511 100.4064)" width="3.6" height="19.8"/>
	<polygon points="459.3,99.1 458.6,96 457.2,89.7 447.8,91.8 448.5,94.8 445.4,95.5 446.8,101.9 449.9,101.2 450.5,104.2 
		456.9,102.8 456.2,99.8 	"/>
	<rect x="427.8" y="64.3" transform="matrix(0.9761 -0.2173 0.2173 0.9761 -4.4253 97.2451)" width="24.4" height="8.8"/>
</g>
<g>
	<polygon class="st11" points="460.1,151.9 462.7,147.8 468.2,139.2 455.5,131.2 452.9,135.3 448.8,132.7 443.3,141.2 447.4,143.9 
		444.8,148 453.4,153.4 456,149.3 	"/>
	<polygon class="st11" points="487.1,170 489.7,165.9 495.2,157.3 482.5,149.3 479.9,153.4 475.8,150.8 470.3,159.4 474.4,162 
		471.8,166.1 480.4,171.5 483,167.4 	"/>
	<rect x="473.4" y="105.8" transform="matrix(0.844 0.5363 -0.5363 0.844 139.3094 -236.5001)" width="5.7" height="30.9"/>
	<polygon points="462.3,148.5 464.9,144.4 470.4,135.8 457.7,127.7 455.1,131.9 450.9,129.2 445.5,137.8 449.6,140.4 447,144.5 
		455.6,150 458.2,145.9 	"/>
	<rect x="500.8" y="123.2" transform="matrix(0.844 0.5363 -0.5363 0.844 152.9338 -248.4909)" width="5.7" height="30.9"/>
	<polygon points="489.7,165.9 492.3,161.8 497.8,153.2 485.1,145.2 482.5,149.3 478.4,146.7 472.9,155.2 477,157.9 474.4,162 
		483,167.4 485.6,163.3 	"/>
	<rect x="482.8" y="104.2" transform="matrix(0.844 0.5363 -0.5363 0.844 137.8779 -251.8623)" width="38.2" height="13.8"/>
</g>
<g>
	<polygon class="st9" points="181.4,-288.5 174.8,-288.5 -71.6,-288.5 -71.6,-281.9 -78.2,-281.9 -78.2,-243.9 -71.6,-243.9 
		-71.6,-237.2 174.8,-237.2 181.4,-237.2 181.4,-243.9 188,-243.9 188,-281.9 181.4,-281.9 	"/>
	<polygon class="st12" points="181.4,-288.5 174.8,-288.5 -71.6,-288.5 -71.6,-281.9 -78.2,-281.9 -78.2,-243.9 -71.6,-243.9 
		-71.6,-237.2 174.8,-237.2 181.4,-237.2 181.4,-243.9 188,-243.9 188,-281.9 181.4,-281.9 	"/>
	<g>
		<path class="st4" d="M-11.8-271h2.3v-2.3H1.8v4.5h-9.1v9.1h9.1v4.5H-9.5v-2.3h-2.3V-271z"/>
		<path class="st4" d="M8.6-255.1H4.1V-271h2.3v-2.3h9.1v2.3h2.3v15.9h-4.5v-6.8H8.6V-255.1z M13.2-266.4v-2.3H8.6v2.3H13.2z"/>
		<path class="st4" d="M22.2-257.3H20v-15.9h4.5v13.6h9.1v4.5H22.2V-257.3z"/>
		<path class="st4" d="M35.9-273.2h4.5v18.2h-4.5V-273.2z"/>
		<path class="st4" d="M42.7-273.2H54v2.3h2.3v13.6H54v2.3H42.7V-273.2z M47.2-266.4h4.5v-2.3h-4.5V-266.4z M47.2-259.6h4.5v-2.3
			h-4.5V-259.6z"/>
		<path class="st4" d="M65.4-261.9h-2.3v6.8h-4.5V-271h2.3v-2.3h9.1v2.3h2.3v6.8h-2.3v2.3h2.3v6.8h-4.5v-4.5h-2.3V-261.9z
			 M63.1-266.4h4.5v-2.3h-4.5V-266.4z"/>
		<path class="st4" d="M79-255.1h-4.5V-271h2.3v-2.3h9.1v2.3h2.3v15.9h-4.5v-6.8H79V-255.1z M83.6-266.4v-2.3H79v2.3H83.6z"/>
		<path class="st4" d="M90.4-273.2H104v4.5h-4.5v13.6h-4.5v-13.6h-4.5V-273.2z"/>
		<path class="st4" d="M108.5-257.3h-2.3V-271h2.3v-2.3h11.4v4.5h-9.1v2.3h4.5v4.5h-4.5v2.3h9.1v4.5h-11.4V-257.3z"/>
	</g>
</g>
<g>
	<polygon class="st9" points="501.4,-220.5 494.8,-220.5 248.4,-220.5 248.4,-213.9 241.8,-213.9 241.8,-175.9 248.4,-175.9 
		248.4,-169.2 494.8,-169.2 501.4,-169.2 501.4,-175.9 508,-175.9 508,-213.9 501.4,-213.9 	"/>
	<polygon class="st10" points="501.4,-227.1 494.8,-227.1 248.4,-227.1 248.4,-220.5 241.8,-220.5 241.8,-182.4 248.4,-182.4 
		248.4,-175.8 494.8,-175.8 501.4,-175.8 501.4,-182.4 508,-182.4 508,-220.5 501.4,-220.5 	"/>
	<g>
		<path class="st4" d="M308.2-209.5h2.3v-2.3h11.4v4.5h-9.1v9.1h9.1v4.5h-11.4v-2.3h-2.3V-209.5z"/>
		<path class="st4" d="M328.6-193.6h-4.5v-15.9h2.3v-2.3h9.1v2.3h2.3v15.9h-4.5v-6.8h-4.5V-193.6z M333.2-205v-2.3h-4.5v2.3H333.2z"
			/>
		<path class="st4" d="M342.2-195.9H340v-15.9h4.5v13.6h9.1v4.5h-11.4V-195.9z"/>
		<path class="st4" d="M355.9-211.8h4.5v18.2h-4.5V-211.8z"/>
		<path class="st4" d="M362.7-211.8H374v2.3h2.3v13.6H374v2.3h-11.4V-211.8z M367.2-205h4.5v-2.3h-4.5V-205z M367.2-198.2h4.5v-2.3
			h-4.5V-198.2z"/>
		<path class="st4" d="M385.4-200.5h-2.3v6.8h-4.5v-15.9h2.3v-2.3h9.1v2.3h2.3v6.8h-2.3v2.3h2.3v6.8h-4.5v-4.5h-2.3V-200.5z
			 M383.1-205h4.5v-2.3h-4.5V-205z"/>
		<path class="st4" d="M399-193.6h-4.5v-15.9h2.3v-2.3h9.1v2.3h2.3v15.9h-4.5v-6.8H399V-193.6z M403.6-205v-2.3H399v2.3H403.6z"/>
		<path class="st4" d="M410.4-211.8H424v4.5h-4.5v13.6h-4.5v-13.6h-4.5V-211.8z"/>
		<path class="st4" d="M428.5-195.9h-2.3v-13.6h2.3v-2.3h11.4v4.5h-9.1v2.3h4.5v4.5h-4.5v2.3h9.1v4.5h-11.4V-195.9z"/>
	</g>
</g>
<g>
	<rect x="243.4" y="-138.2" class="st9" width="219.8" height="28.8"/>
	<rect x="238.5" y="-144.7" class="st9" width="229.4" height="30.6"/>
	<polygon class="st10" points="238.5,-149.1 238.5,-119.8 243.4,-119.8 243.4,-114.1 463.1,-114.1 463.1,-119.8 467.9,-119.8 
		467.9,-149.1 	"/>
</g>
<polygon class="st9" points="458.3,-134.2 458.3,-139.3 453.2,-139.3 453.2,-139.4 396.6,-139.4 366,-139.4 340.4,-139.4 
	316.6,-139.4 253.2,-139.4 253.2,-139.4 248.1,-139.4 248.1,-134.3 243,-134.3 243,-126.6 248.1,-126.6 248.1,-121.5 253.2,-121.5 
	253.2,-121.4 316.6,-121.4 340.4,-121.4 366,-121.4 396.6,-121.4 453.2,-121.4 453.2,-121.5 458.3,-121.5 458.3,-126.6 
	463.4,-126.6 463.4,-134.2 "/>
<g>
	<rect x="234.4" y="-40.1" class="st13" width="4.7" height="0.1"/>
	<rect x="234.4" y="-22.2" class="st13" width="4.7" height="0.1"/>
	<polygon class="st4" points="255.4,-22.2 255.4,-27.3 260.5,-27.3 260.5,-34.9 255.4,-34.9 255.4,-40 250.4,-40 250.4,-40.1 
		239.2,-40.1 239.2,-40.1 234.4,-40.1 234.4,-22.2 239.2,-22.2 239.2,-22.1 250.4,-22.1 250.4,-22.2 	"/>
</g>
<g>
	<polygon class="st4" points="208.6,-75.7 208.6,-80.8 203.5,-80.8 203.5,-80.9 187.6,-80.9 187.6,-62.9 203.5,-62.9 203.5,-62.9 
		208.6,-62.9 208.6,-68 213.7,-68 213.7,-75.7 	"/>
	<polygon class="st4" points="195.1,-36.8 195.1,-41.9 195.1,-41.9 195.1,-42 190.6,-42 190,-42 185.5,-42 185.5,-42 185.5,-42 
		185.5,-36.9 180.4,-36.9 180.4,-29.2 185.5,-29.2 185.5,-24.1 185.5,-24.1 185.5,-24 190,-24 190.6,-24 195.1,-24 195.1,-24.1 
		195.1,-24.1 195.1,-29.2 200.2,-29.2 200.2,-36.8 	"/>
</g>
<polygon class="st4" points="145.3,-134.2 145.3,-139.3 145.3,-139.3 145.3,-139.4 140.8,-139.4 140.2,-139.4 135.7,-139.4 
	135.7,-139.4 135.7,-139.4 135.7,-134.3 130.6,-134.3 130.6,-126.6 135.7,-126.6 135.7,-121.5 135.7,-121.5 135.7,-121.4 
	140.2,-121.4 140.8,-121.4 145.3,-121.4 145.3,-121.5 145.3,-121.5 145.3,-126.6 150.4,-126.6 150.4,-134.2 "/>
<polygon class="st14" points="1111.1,255 1101.1,255 726.2,255 726.2,265 716.1,265 716.1,322.9 726.2,322.9 726.2,333 1101.1,333 
	1111.1,333 1111.1,322.9 1121.2,322.9 1121.2,265 1111.1,265 "/>
<polygon class="st15" points="1111.1,245 1101.1,245 726.2,245 726.2,255 716.1,255 716.1,312.9 726.2,312.9 726.2,323 1101.1,323 
	1111.1,323 1111.1,312.9 1121.2,312.9 1121.2,255 1111.1,255 "/>
<g>
	<path class="st4" d="M828.7,295.8h-6.9v-27.6h17.3v3.5h3.5V282h-3.5v3.5h-10.4V295.8z M828.7,278.6h6.9v-3.5h-6.9V278.6z"/>
	<path class="st4" d="M849.5,292.4H846v-24.2h6.9v20.7h13.8v6.9h-17.3V292.4z"/>
	<path class="st4" d="M877.1,295.8h-6.9v-24.2h3.5v-3.5h13.8v3.5h3.5v24.2H884v-10.4h-6.9V295.8z M884,278.6v-3.5h-6.9v3.5H884z"/>
	<path class="st4" d="M894.4,268.2h6.9v10.4h6.9v-10.4h6.9V282h-3.5v3.5h-3.5v10.4h-6.9v-10.4h-3.5V282h-3.5V268.2z"/>
	<path class="st4" d="M922.1,292.4h-3.5v-20.7h3.5v-3.5h17.3v6.9h-13.8v3.5h6.9v6.9h-6.9v3.5h13.8v6.9h-17.3V292.4z"/>
	<path class="st4" d="M953.2,285.5h-3.5v10.4h-6.9v-27.6h17.3v3.5h3.5V282h-3.5v3.5h3.5v10.4h-6.9v-6.9h-3.5V285.5z M949.7,278.6
		h6.9v-3.5h-6.9V278.6z"/>
	<path class="st4" d="M991.2,268.2h17.3v3.5h3.5V282h-3.5v3.5h-10.4v3.5h13.8v6.9h-20.7V282h3.5v-3.5h10.4v-3.5h-13.8V268.2z"/>
</g>
<g>
	<rect x="737.1" y="249" class="st4" width="45.1" height="5.7"/>
	<rect x="788.4" y="249" class="st4" width="5.7" height="5.7"/>
</g>
<g>
	<rect x="282.6" y="250" class="st4" width="45.1" height="5.7"/>
	<rect x="333.9" y="250" class="st4" width="5.7" height="5.7"/>
</g>
<polygon class="st16" points="671.7,90 678.1,95.6 672.5,102 693,119.3 693,157.2 713.7,131.1 745.5,160.5 751.3,154.2 756.3,158.9 
	827.9,40.2 "/>
<polygon class="st17" points="669.3,82.8 675.6,88.4 670,94.8 690.5,112.2 690.5,150.1 711.2,124 743,153.4 748.8,147.1 
	753.8,151.7 825.4,33 "/>
<polygon class="st18" points="711.3,123.8 825.7,33 690.6,112 690.6,149.9 "/>
<polygon class="st19" points="668.2,83 674.6,88.6 669,95 689.4,112.3 689.4,150.2 710.2,124.1 741.9,153.5 747.8,147.3 
	752.7,151.9 824.4,33.2 "/>
<g>
	<polygon class="st20" points="604,-223.7 604,-60.1 614.4,-60.1 614.4,-50.6 624.8,-50.6 624.8,-40.1 1072.3,-40.1 1072.3,-50.6 
		1082.7,-50.6 1082.7,-60.1 1093,-60.1 1093,-223.7 	"/>
	<polygon class="st20" points="1093,-223.7 1093,-317.9 1082.7,-317.9 1082.7,-327.4 1072.3,-327.4 1072.3,-337.8 624.8,-337.8 
		624.8,-327.4 614.4,-327.4 614.4,-317.9 604,-317.9 604,-223.7 	"/>
</g>
<g>
	<polygon class="st21" points="614.4,-321.3 624.8,-321.3 624.8,-329.3 614.4,-329.3 614.4,-321.3 604,-321.3 604,-313.3 
		614.4,-313.3 	"/>
	<rect x="624.8" y="-338" class="st21" width="447.5" height="8"/>
	<polygon class="st21" points="1082.7,-321.3 1082.7,-329.3 1072.3,-329.3 1072.3,-321.3 1082.7,-321.3 1082.7,-313.3 1093,-313.3 
		1093,-321.3 	"/>
</g>
<g>
	<g>
		<g>
			<rect x="210.9" y="-402.2" width="10.2" height="10.2"/>
		</g>
	</g>
	<g>
		<g>
			<path d="M272.3-412.5v5.1h-5.1v5.1h5.1v20.5h5.1v5.1h-5.1v5.1h5.1h5.1v-10.2h15.4v5.1h5.1v-5.1v-30.7H272.3z M297.9-386.9h-20.5
				v-20.5h20.5V-386.9z"/>
		</g>
	</g>
	<g>
		<g>
			<rect x="282.6" y="-402.2" width="10.2" height="10.2"/>
		</g>
	</g>
	<g>
		<g>
			<rect x="210.9" y="-330.5" width="10.2" height="10.2"/>
		</g>
	</g>
	<g>
		<g>
			<rect x="272.3" y="-340.8" width="5.1" height="5.1"/>
		</g>
	</g>
	<g>
		<g>
			<rect x="246.7" y="-315.2" width="5.1" height="5.1"/>
		</g>
	</g>
	<g>
		<g>
			<rect x="251.9" y="-335.7" width="5.1" height="5.1"/>
		</g>
	</g>
	<g>
		<g>
			<rect x="251.9" y="-325.4" width="5.1" height="5.1"/>
		</g>
	</g>
	<g>
		<g>
			<rect x="297.9" y="-351" width="5.1" height="5.1"/>
		</g>
	</g>
	<g>
		<g>
			<rect x="200.7" y="-351" width="5.1" height="5.1"/>
		</g>
	</g>
	<g>
		<g>
			<rect x="200.7" y="-376.6" width="5.1" height="5.1"/>
		</g>
	</g>
	<g>
		<g>
			<polygon points="257,-407.4 257,-402.2 246.7,-402.2 246.7,-397.1 262.1,-397.1 262.1,-402.2 262.1,-407.4 			"/>
		</g>
	</g>
	<g>
		<g>
			<path d="M297.9-371.5v5.1h-10.2v5.1h-15.4v-5.1h-5.1v5.1H257v5.1h15.4v5.1h-10.2H257v-5.1h-5.1v5.1h-5.1v-5.1h-5.1v5.1h-5.1v5.1
				h10.2v5.1h5.1v-5.1h10.2v5.1H257v5.1h5.1v10.2h5.1v5.1h5.1v-5.1h15.4v-10.2h5.1v-5.1h-5.1V-351h-10.2v-5.1h10.2v5.1h5.1v-5.1h5.1
				v-5.1h5.1v-5.1v-5.1H297.9L297.9-371.5z M282.6-345.9v15.4h-15.4v-15.4H282.6z"/>
		</g>
	</g>
	<g>
		<g>
			<polygon points="267.2,-381.8 262.1,-381.8 262.1,-376.6 257,-376.6 257,-371.5 257,-366.4 262.1,-366.4 262.1,-371.5 
				267.2,-371.5 267.2,-376.6 272.3,-376.6 272.3,-381.8 			"/>
		</g>
	</g>
	<g>
		<g>
			<rect x="257" y="-315.2" width="10.2" height="5.1"/>
		</g>
	</g>
	<g>
		<g>
			<rect x="241.6" y="-407.4" width="5.1" height="5.1"/>
		</g>
	</g>
	<g>
		<g>
			<rect x="282.6" y="-371.5" width="5.1" height="5.1"/>
		</g>
	</g>
	<g>
		<g>
			<rect x="287.7" y="-376.6" width="5.1" height="5.1"/>
		</g>
	</g>
	<g>
		<g>
			<rect x="221.1" y="-351" width="5.1" height="5.1"/>
		</g>
	</g>
	<g>
		<g>
			<path d="M231.4-315.2v-20.5h5.1v-5.1v-5.1h-5.1v5.1H216v-5.1h-5.1h-5.1v5.1h-5.1v30.7h30.7h10.2v-5.1H231.4z M226.3-315.2h-20.5
				v-20.5h20.5V-315.2z"/>
		</g>
	</g>
	<g>
		<g>
			<rect x="231.4" y="-381.8" width="5.1" height="5.1"/>
		</g>
	</g>
	<g>
		<g>
			<path d="M236.5-412.5h-5.1h-30.7v30.7h5.1v5.1h5.1v-5.1h5.1v5.1h5.1v-5.1h10.2V-392h5.1v-5.1h-5.1v-10.2h5.1h5.1v-5.1H236.5z
				 M226.3-386.9h-20.5v-20.5h20.5V-386.9z"/>
		</g>
	</g>
	<g>
		<g>
			<rect x="262.1" y="-397.1" width="5.1" height="5.1"/>
		</g>
	</g>
	<g>
		<g>
			<rect x="251.9" y="-412.5" width="5.1" height="5.1"/>
		</g>
	</g>
	<g>
		<g>
			<path d="M262.1-381.8v-5.1H257v-5.1h-5.1v5.1h-10.2v-5.1h-5.1v5.1v5.1h5.1v10.2h-15.4v-5.1h-5.1v5.1h-15.4v5.1H216v5.1h-15.4v5.1
				H216v5.1h5.1v-5.1h5.1v5.1h5.1v-5.1h10.2v-5.1h-5.1v-5.1h5.1h5.1v5.1h5.1h5.1v-5.1h-5.1v-5.1h-5.1v-10.2H262.1L262.1-381.8z
				 M231.4-361.3h-10.2v-5.1h10.2V-361.3z"/>
		</g>
	</g>
	<g>
		<g>
			<polygon points="246.7,-330.5 246.7,-335.7 246.7,-340.8 241.6,-340.8 241.6,-335.7 236.5,-335.7 236.5,-330.5 241.6,-330.5 
				241.6,-325.4 236.5,-325.4 236.5,-320.3 246.7,-320.3 246.7,-325.4 251.9,-325.4 251.9,-330.5 			"/>
		</g>
	</g>
	<g>
		<g>
			<polygon points="292.8,-320.3 292.8,-325.4 287.7,-325.4 287.7,-320.3 272.3,-320.3 272.3,-315.2 282.6,-315.2 282.6,-310.1 
				287.7,-310.1 287.7,-315.2 297.9,-315.2 297.9,-310.1 303.1,-310.1 303.1,-315.2 303.1,-320.3 			"/>
		</g>
	</g>
	<g>
		<g>
			<polygon points="297.9,-340.8 297.9,-335.7 292.8,-335.7 292.8,-330.5 303.1,-330.5 303.1,-335.7 303.1,-340.8 			"/>
		</g>
	</g>
</g>
<g>
	<g>
		<polygon class="st22" points="144.5,3.7 140.9,3.7 3.7,3.7 3.7,7.3 0,7.3 0,28.5 3.7,28.5 3.7,32.2 140.9,32.2 144.5,32.2 
			144.5,28.5 148.2,28.5 148.2,7.3 144.5,7.3 		"/>
		<polygon class="st22" points="144.5,3.7 140.9,3.7 3.7,3.7 3.7,7.3 0,7.3 0,28.5 3.7,28.5 3.7,32.2 140.9,32.2 144.5,32.2 
			144.5,28.5 148.2,28.5 148.2,7.3 144.5,7.3 		"/>
	</g>
	<g>
		<rect x="6.1" y="5.8" class="st4" width="13.1" height="1.7"/>
		<rect x="21" y="5.8" class="st4" width="1.7" height="1.7"/>
	</g>
</g>
<g>
	<g>
		<polygon class="st9" points="-27.5,3.7 -31.1,3.7 -168.3,3.7 -168.3,7.3 -172,7.3 -172,28.5 -168.3,28.5 -168.3,32.2 -31.1,32.2 
			-27.5,32.2 -27.5,28.5 -23.8,28.5 -23.8,7.3 -27.5,7.3 		"/>
		<polygon class="st12" points="-27.5,3.7 -31.1,3.7 -168.3,3.7 -168.3,7.3 -172,7.3 -172,28.5 -168.3,28.5 -168.3,32.2 -31.1,32.2 
			-27.5,32.2 -27.5,28.5 -23.8,28.5 -23.8,7.3 -27.5,7.3 		"/>
		<g>
			<path class="st4" d="M-140.1,18.5h-1.3v3.8h-2.5V12.2h6.3v1.3h1.3v3.8h-1.3v1.3h1.3v3.8h-2.5v-2.5h-1.3V18.5z M-141.3,16h2.5
				v-1.3h-2.5V16z"/>
			<path class="st4" d="M-133.8,21h-1.3v-7.6h1.3v-1.3h6.3v2.5h-5.1V16h2.5v2.5h-2.5v1.3h5.1v2.5h-6.3V21z"/>
			<path class="st4" d="M-124.9,21h-1.3v-7.6h1.3v-1.3h5.1v1.3h1.3V16h-2.5v-1.3h-2.5v5.1h2.5v-1.3h2.5V21h-1.3v1.3h-5.1V21z"/>
			<path class="st4" d="M-114.8,22.3h-2.5v-8.9h1.3v-1.3h5.1v1.3h1.3v8.9h-2.5v-3.8h-2.5V22.3z M-112.3,16v-1.3h-2.5V16H-112.3z"/>
			<path class="st4" d="M-107.2,21h-1.3v-8.9h2.5v7.6h5.1v2.5h-6.3V21z"/>
			<path class="st4" d="M-99.6,12.2h2.5v10.1h-2.5V12.2z"/>
			<path class="st4" d="M-95.8,12.2h6.3v1.3h1.3V21h-1.3v1.3h-6.3V12.2z M-93.3,16h2.5v-1.3h-2.5V16z M-93.3,19.7h2.5v-1.3h-2.5
				V19.7z"/>
			<path class="st4" d="M-83.2,18.5h-1.3v3.8H-87v-8.9h1.3v-1.3h5.1v1.3h1.3v3.8h-1.3v1.3h1.3v3.8h-2.5v-2.5h-1.3V18.5z M-84.4,16
				h2.5v-1.3h-2.5V16z"/>
			<path class="st4" d="M-75.6,22.3h-2.5v-8.9h1.3v-1.3h5.1v1.3h1.3v8.9h-2.5v-3.8h-2.5V22.3z M-73.1,16v-1.3h-2.5V16H-73.1z"/>
			<path class="st4" d="M-69.3,12.2h7.6v2.5h-2.5v7.6h-2.5v-7.6h-2.5V12.2z"/>
			<path class="st4" d="M-59.2,21h-1.3v-7.6h1.3v-1.3h6.3v2.5h-5.1V16h2.5v2.5h-2.5v1.3h5.1v2.5h-6.3V21z"/>
		</g>
	</g>
	<g>
		<rect x="-165.9" y="5.8" class="st4" width="13.1" height="1.7"/>
		<rect x="-151" y="5.8" class="st4" width="1.7" height="1.7"/>
	</g>
</g>
<g>
	<g>
		<polygon class="st9" points="-27.5,45.7 -31.1,45.7 -168.3,45.7 -168.3,49.3 -172,49.3 -172,70.5 -168.3,70.5 -168.3,74.2 
			-31.1,74.2 -27.5,74.2 -27.5,70.5 -23.8,70.5 -23.8,49.3 -27.5,49.3 		"/>
		<polygon class="st10" points="-27.5,42 -31.1,42 -168.3,42 -168.3,45.7 -172,45.7 -172,66.9 -168.3,66.9 -168.3,70.5 -31.1,70.5 
			-27.5,70.5 -27.5,66.9 -23.8,66.9 -23.8,45.7 -27.5,45.7 		"/>
		<g>
			<path class="st4" d="M-140.1,56.8h-1.3v3.8h-2.5V50.5h6.3v1.3h1.3v3.8h-1.3v1.3h1.3v3.8h-2.5v-2.5h-1.3V56.8z M-141.3,54.3h2.5
				V53h-2.5V54.3z"/>
			<path class="st4" d="M-133.8,59.4h-1.3v-7.6h1.3v-1.3h6.3V53h-5.1v1.3h2.5v2.5h-2.5v1.3h5.1v2.5h-6.3V59.4z"/>
			<path class="st4" d="M-124.9,59.4h-1.3v-7.6h1.3v-1.3h5.1v1.3h1.3v2.5h-2.5V53h-2.5v5.1h2.5v-1.3h2.5v2.5h-1.3v1.3h-5.1V59.4z"/>
			<path class="st4" d="M-114.8,60.6h-2.5v-8.9h1.3v-1.3h5.1v1.3h1.3v8.9h-2.5v-3.8h-2.5V60.6z M-112.3,54.3V53h-2.5v1.3H-112.3z"/>
			<path class="st4" d="M-107.2,59.4h-1.3v-8.9h2.5v7.6h5.1v2.5h-6.3V59.4z"/>
			<path class="st4" d="M-99.6,50.5h2.5v10.1h-2.5V50.5z"/>
			<path class="st4" d="M-95.8,50.5h6.3v1.3h1.3v7.6h-1.3v1.3h-6.3V50.5z M-93.3,54.3h2.5V53h-2.5V54.3z M-93.3,58.1h2.5v-1.3h-2.5
				V58.1z"/>
			<path class="st4" d="M-83.2,56.8h-1.3v3.8H-87v-8.9h1.3v-1.3h5.1v1.3h1.3v3.8h-1.3v1.3h1.3v3.8h-2.5v-2.5h-1.3V56.8z M-84.4,54.3
				h2.5V53h-2.5V54.3z"/>
			<path class="st4" d="M-75.6,60.6h-2.5v-8.9h1.3v-1.3h5.1v1.3h1.3v8.9h-2.5v-3.8h-2.5V60.6z M-73.1,54.3V53h-2.5v1.3H-73.1z"/>
			<path class="st4" d="M-69.3,50.5h7.6V53h-2.5v7.6h-2.5V53h-2.5V50.5z"/>
			<path class="st4" d="M-59.2,59.4h-1.3v-7.6h1.3v-1.3h6.3V53h-5.1v1.3h2.5v2.5h-2.5v1.3h5.1v2.5h-6.3V59.4z"/>
		</g>
	</g>
	<g>
		<rect x="-165.9" y="44.8" class="st4" width="13.1" height="1.7"/>
		<rect x="-151" y="44.8" class="st4" width="1.7" height="1.7"/>
	</g>
</g>
<g>
	<g>
		<polygon class="st22" points="144.5,45.7 140.9,45.7 3.7,45.7 3.7,49.3 0,49.3 0,70.5 3.7,70.5 3.7,74.2 140.9,74.2 144.5,74.2 
			144.5,70.5 148.2,70.5 148.2,49.3 144.5,49.3 		"/>
		<polygon class="st23" points="144.5,42 140.9,42 3.7,42 3.7,45.7 0,45.7 0,66.9 3.7,66.9 3.7,70.5 140.9,70.5 144.5,70.5 
			144.5,66.9 148.2,66.9 148.2,45.7 144.5,45.7 		"/>
	</g>
	<g>
		<rect x="6.1" y="44.8" class="st4" width="13.1" height="1.7"/>
		<rect x="21" y="44.8" class="st4" width="1.7" height="1.7"/>
	</g>
</g>
<g>
	<rect x="253.9" y="-223.5" class="st4" width="23.6" height="3"/>
	<rect x="280.7" y="-223.5" class="st4" width="3" height="3"/>
</g>
<g>
	<rect x="-66.5" y="-285" class="st4" width="23.6" height="3"/>
	<rect x="-39.7" y="-285" class="st4" width="3" height="3"/>
</g>
<g>
	<polygon class="st23" points="-96.6,-161.5 -96.6,-168.9 -115.2,-168.9 -115.2,-161.5 -122.7,-161.5 -122.7,-154 -122.7,-142.8 
		-115.2,-142.8 -115.2,-135.4 -104,-135.4 -96.6,-135.4 -96.6,-142.8 -89.1,-142.8 -89.1,-154 -89.1,-161.5 	"/>
	<line class="st24" x1="-114.6" y1="-135.4" x2="-114.6" y2="-125.4"/>
	<line class="st24" x1="-97.2" y1="-135.4" x2="-97.2" y2="-125.4"/>
	<polygon class="st25" points="-98.1,-127.3 -100.3,-127.3 -113.7,-127.3 -113.7,-125.1 -115.9,-125.1 -115.9,-109.6 -113.7,-109.6 
		-113.7,-107.4 -100.3,-107.4 -98.1,-107.4 -98.1,-109.6 -96,-109.6 -96,-125.1 -98.1,-125.1 	"/>
</g>
<polygon class="st22" points="-29.5,277.8 -29.5,269.9 -37.4,269.9 -102.4,269.9 -171.2,269.9 -171.2,277.8 -179.1,277.8 
	-179.1,323.4 -171.2,323.4 -171.2,331.3 -102.4,331.3 -37.4,331.3 -29.5,331.3 -29.5,323.4 -21.6,323.4 -21.6,277.8 "/>
<polygon class="st22" points="-29.5,277.9 -29.5,270 -37.4,270 -102.4,270 -171.2,270 -171.2,277.9 -179.1,277.9 -179.1,323.5 
	-171.2,323.5 -171.2,331.4 -102.4,331.4 -37.4,331.4 -29.5,331.4 -29.5,323.5 -21.6,323.5 -21.6,277.9 "/>
<g>
	<path class="st4" d="M-133,311.3h-5.4v-21.8h13.6v2.7h2.7v8.2h-2.7v2.7h-8.2V311.3z M-133,297.7h5.4V295h-5.4V297.7z"/>
	<path class="st4" d="M-116.7,308.6h-2.7v-19h5.4v16.3h10.9v5.4h-13.6V308.6z"/>
	<path class="st4" d="M-94.9,311.3h-5.4v-19h2.7v-2.7h10.9v2.7h2.7v19h-5.4v-8.2h-5.4V311.3z M-89.5,297.7V295h-5.4v2.7H-89.5z"/>
	<path class="st4" d="M-81.3,289.6h5.4v8.2h5.4v-8.2h5.4v10.9h-2.7v2.7h-2.7v8.2h-5.4v-8.2h-2.7v-2.7h-2.7V289.6z"/>
</g>
<polygon class="st22" points="140.5,277.8 140.5,269.9 132.6,269.9 67.6,269.9 -1.2,269.9 -1.2,277.8 -9.1,277.8 -9.1,323.4 
	-1.2,323.4 -1.2,331.3 67.6,331.3 132.6,331.3 140.5,331.3 140.5,323.4 148.4,323.4 148.4,277.8 "/>
<polygon class="st23" points="140.5,269.9 140.5,262 132.6,262 67.6,262 -1.2,262 -1.2,269.9 -9.1,269.9 -9.1,315.5 -1.2,315.5 
	-1.2,323.4 67.6,323.4 132.6,323.4 140.5,323.4 140.5,315.5 148.4,315.5 148.4,269.9 "/>
<g>
	<path class="st4" d="M37,303.3h-5.4v-21.8h13.6v2.7h2.7v8.2h-2.7v2.7H37V303.3z M37,289.7h5.4V287H37V289.7z"/>
	<path class="st4" d="M53.3,300.6h-2.7v-19h5.4v16.3h10.9v5.4H53.3V300.6z"/>
	<path class="st4" d="M75.1,303.3h-5.4v-19h2.7v-2.7h10.9v2.7H86v19h-5.4v-8.2h-5.4V303.3z M80.5,289.7V287h-5.4v2.7H80.5z"/>
	<path class="st4" d="M88.7,281.6h5.4v8.2h5.4v-8.2h5.4v10.9h-2.7v2.7h-2.7v8.2h-5.4v-8.2h-2.7v-2.7h-2.7V281.6z"/>
</g>
<g>
	<path class="st26" d="M-853.1,32.2h43.2v108h43.2v-108h43.2v129.6h-21.6v21.6h-21.6V205h-43.2v-21.6h-21.6v-21.6h-21.6V32.2z"/>
	<path class="st27" d="M-701.9,55.9h21.6V34.3h108v43.2h-86.4v21.6h64.8v21.6h21.6v64.8h-21.6v21.6h-108v-43.2h86.4v-21.6h-64.8
		v-21.6h-21.6V55.9z"/>
</g>
<g>
	<path class="st28" d="M-853.1,11.1h43.2v108h43.2v-108h43.2v129.6h-21.6v21.6h-21.6v21.6h-43.2v-21.6h-21.6v-21.6h-21.6V11.1z"/>
	<path class="st29" d="M-701.9,32.7h21.6V11.1h108v43.2h-86.4v21.6h64.8v21.6h21.6v64.8h-21.6v21.6h-108v-43.2h86.4v-21.6h-64.8
		V97.5h-21.6V32.7z"/>
</g>
<g>
	<g>
		<path class="st0" d="M-803.7,389.8h27.5v68.7h27.5v-68.7h27.5v82.4H-735v13.7h-13.7v13.7h-27.5v-13.7H-790v-13.7h-13.7V389.8z"/>
		<path class="st0" d="M-707.6,404.8h13.7v-13.7h68.7v27.5h-54.9v13.7h41.2V446h13.7v41.2h-13.7v13.7h-68.7v-27.5h54.9v-13.7h-41.2
			V446h-13.7V404.8z"/>
	</g>
	<g>
		<path class="st7" d="M-803.7,375.3h27.5v68.7h27.5v-68.7h27.5v82.4H-735v13.7h-13.7v13.7h-27.5v-13.7H-790v-13.7h-13.7V375.3z"/>
		<path class="st7" d="M-707.6,390.3h13.7v-13.7h68.7V404h-54.9v13.7h41.2v13.7h13.7v41.2h-13.7v13.7h-68.7V459h54.9v-13.7h-41.2
			v-13.7h-13.7V390.3z"/>
	</g>
	<g>
		<path class="st4" d="M-803.7,361.9h27.5v68.7h27.5v-68.7h27.5v82.4H-735V458h-13.7v13.7h-27.5V458H-790v-13.7h-13.7V361.9z"/>
		<path class="st4" d="M-707.6,375.6h13.7v-13.7h68.7v27.5h-54.9v13.7h41.2v13.7h13.7V458h-13.7v13.7h-68.7v-27.5h54.9v-13.7h-41.2
			v-13.7h-13.7V375.6z"/>
	</g>
</g>
<g>
	<g>
		<path class="st0" d="M-229.3-469.9h-21.6v-86.4h54v10.8h10.8v32.4h-10.8v10.8h-32.4V-469.9z M-229.3-523.9h21.6v-10.8h-21.6
			V-523.9z"/>
		<path class="st0" d="M-175.3-545.5h10.8v-10.8h43.2v10.8h10.8v64.8h-10.8v10.8h-43.2v-10.8h-10.8V-545.5z M-153.7-491.5h21.6
			v-43.2h-21.6V-491.5z"/>
		<path class="st0" d="M-88.9-480.7h-10.8v-75.6h21.6v64.8h43.2v21.6h-54V-480.7z"/>
		<path class="st0" d="M-45.7-556.3h21.6v32.4h21.6v-32.4h21.6v43.2H8.3v10.8H-2.5v32.4h-21.6v-32.4h-10.8v-10.8h-10.8V-556.3z"/>
	</g>
	<g>
		<path class="st30" d="M-229.3-478.4h-21.6v-86.4h54v10.8h10.8v32.4h-10.8v10.8h-32.4V-478.4z M-229.3-532.4h21.6v-10.8h-21.6
			V-532.4z"/>
		<path class="st30" d="M-175.3-554h10.8v-10.8h43.2v10.8h10.8v64.8h-10.8v10.8h-43.2v-10.8h-10.8V-554z M-153.7-500h21.6v-43.2
			h-21.6V-500z"/>
		<path class="st30" d="M-88.9-489.2h-10.8v-75.6h21.6v64.8h43.2v21.6h-54V-489.2z"/>
		<path class="st30" d="M-45.7-564.8h21.6v32.4h21.6v-32.4h21.6v43.2H8.3v10.8H-2.5v32.4h-21.6v-32.4h-10.8v-10.8h-10.8V-564.8z"/>
	</g>
	<g>
		<path class="st4" d="M-229.3-486.5h-21.6v-86.4h54v10.8h10.8v32.4h-10.8v10.8h-32.4V-486.5z M-229.3-540.5h21.6v-10.8h-21.6
			V-540.5z"/>
		<path class="st4" d="M-175.3-562.1h10.8v-10.8h43.2v10.8h10.8v64.8h-10.8v10.8h-43.2v-10.8h-10.8V-562.1z M-153.7-508.1h21.6
			v-43.2h-21.6V-508.1z"/>
		<path class="st4" d="M-88.9-497.3h-10.8v-75.6h21.6v64.8h43.2v21.6h-54V-497.3z"/>
		<path class="st4" d="M-45.7-572.9h21.6v32.4h21.6v-32.4h21.6v43.2H8.3v10.8H-2.5v32.4h-21.6v-32.4h-10.8v-10.8h-10.8V-572.9z"/>
	</g>
</g>
<g>
	<g class="st1">
		<g>
			<polygon class="st0" points="97.6,-786.4 97.6,-700 198.8,-700 198.8,-711.6 186.1,-711.6 186.1,-724.2 173.5,-724.2 
				173.5,-736.9 160.8,-736.9 160.8,-749.5 173.5,-749.5 173.5,-762.2 186.1,-762.2 186.1,-774.8 198.8,-774.8 198.8,-786.4 			"/>
		</g>
		<polygon class="st0" points="112.3,-725.3 97.6,-701 97.6,-725.3 		"/>
	</g>
	<rect x="-390.6" y="-809.3" class="st0" width="510.3" height="86.5"/>
	<rect x="86" y="-731.3" class="st0" width="112.8" height="31.6"/>
	<g class="st1">
		<g>
			<polygon class="st0" points="-382.8,-786.3 -382.8,-699.8 -484,-699.8 -484,-711.4 -471.3,-711.4 -471.3,-724 -458.7,-724 
				-458.7,-736.7 -446,-736.7 -446,-749.4 -458.7,-749.4 -458.7,-762 -471.3,-762 -471.3,-774.7 -484,-774.7 -484,-786.3 			"/>
		</g>
		<polygon class="st0" points="-397.5,-725.1 -382.8,-700.8 -382.8,-725.1 		"/>
	</g>
	<g>
		<g>
			<polygon class="st2" points="97.6,-796.7 97.6,-710.2 198.8,-710.2 198.8,-721.8 186.1,-721.8 186.1,-734.5 173.5,-734.5 
				173.5,-747.1 160.8,-747.1 160.8,-759.8 173.5,-759.8 173.5,-772.4 186.1,-772.4 186.1,-785.1 198.8,-785.1 198.8,-796.7 			"/>
			<polygon class="st3" points="97.6,-808.3 97.6,-721.8 198.8,-721.8 198.8,-733.4 186.1,-733.4 186.1,-746.1 173.5,-746.1 
				173.5,-758.7 160.8,-758.7 160.8,-771.4 173.5,-771.4 173.5,-784 186.1,-784 186.1,-796.7 198.8,-796.7 198.8,-808.3 			"/>
		</g>
		<polygon class="st2" points="112.3,-735.5 97.6,-711.3 97.6,-735.5 		"/>
		<g>
			<g>
				<polygon class="st2" points="-383.3,-796.7 -383.3,-710.2 -484.5,-710.2 -484.5,-721.8 -471.8,-721.8 -471.8,-734.5 
					-459.2,-734.5 -459.2,-747.1 -446.5,-747.1 -446.5,-759.8 -459.2,-759.8 -459.2,-772.4 -471.8,-772.4 -471.8,-785.1 
					-484.5,-785.1 -484.5,-796.7 				"/>
				<polygon class="st3" points="-383.3,-808.3 -383.3,-721.8 -484.5,-721.8 -484.5,-733.4 -471.8,-733.4 -471.8,-746.1 
					-459.2,-746.1 -459.2,-758.7 -446.5,-758.7 -446.5,-771.4 -459.2,-771.4 -459.2,-784 -471.8,-784 -471.8,-796.7 -484.5,-796.7 
					-484.5,-808.3 				"/>
			</g>
			<polygon class="st2" points="-398,-735.5 -383.3,-711.3 -383.3,-735.5 			"/>
		</g>
		<g>
			<rect x="-398" y="-822" class="st2" width="510.3" height="86.5"/>
			<rect x="-398" y="-834.7" class="st3" width="510.3" height="86.5"/>
		</g>
	</g>
</g>
<g>
	<g>
		<path class="st22" d="M-283.9-759.7h-37.4v-59.9h37.4v7.5h7.5v15h-7.5v15h7.5v15h-7.5V-759.7z M-306.3-797.1h15v-7.5h-15V-797.1z
			 M-306.3-774.7h15v-7.5h-15V-774.7z"/>
		<path class="st22" d="M-253.9-759.7h-15v-52.4h7.5v-7.5h30v7.5h7.5v52.4h-15v-22.5h-15V-759.7z M-238.9-797.1v-7.5h-15v7.5H-238.9
			z"/>
		<path class="st22" d="M-209-767.2h-7.5v-52.4h15v44.9h30v15H-209V-767.2z"/>
		<path class="st22" d="M-156.6-767.2h-7.5v-52.4h15v44.9h30v15h-37.4V-767.2z"/>
		<path class="st22" d="M-111.6-812.1h7.5v-7.5h30v7.5h7.5v44.9h-7.5v7.5h-30v-7.5h-7.5V-812.1z M-96.6-774.7h15v-30h-15V-774.7z"/>
		<path class="st22" d="M-59.2-812.1h7.5v-7.5h30v7.5h7.5v44.9h-7.5v7.5h-30v-7.5h-7.5V-812.1z M-44.2-774.7h15v-30h-15V-774.7z"/>
		<path class="st22" d="M15.7-789.6H8.2v30h-15v-59.9h15v7.5h7.5v7.5h7.5v-15h15v59.9h-15v-22.5h-7.5V-789.6z"/>
	</g>
	<g>
		<path class="st23" d="M-283.9-765.5h-37.4v-59.9h37.4v7.5h7.5v15h-7.5v15h7.5v15h-7.5V-765.5z M-306.3-803h15v-7.5h-15V-803z
			 M-306.3-780.5h15v-7.5h-15V-780.5z"/>
		<path class="st23" d="M-253.9-765.5h-15v-52.4h7.5v-7.5h30v7.5h7.5v52.4h-15V-788h-15V-765.5z M-238.9-803v-7.5h-15v7.5H-238.9z"
			/>
		<path class="st23" d="M-209-773h-7.5v-52.4h15v44.9h30v15H-209V-773z"/>
		<path class="st23" d="M-156.6-773h-7.5v-52.4h15v44.9h30v15h-37.4V-773z"/>
		<path class="st23" d="M-111.6-817.9h7.5v-7.5h30v7.5h7.5v44.9h-7.5v7.5h-30v-7.5h-7.5V-817.9z M-96.6-780.5h15v-30h-15V-780.5z"/>
		<path class="st23" d="M-59.2-817.9h7.5v-7.5h30v7.5h7.5v44.9h-7.5v7.5h-30v-7.5h-7.5V-817.9z M-44.2-780.5h15v-30h-15V-780.5z"/>
		<path class="st23" d="M15.7-795.5H8.2v30h-15v-59.9h15v7.5h7.5v7.5h7.5v-15h15v59.9h-15V-788h-7.5V-795.5z"/>
	</g>
</g>
<g>
	<path class="st0" d="M207.8-613h20.7v6.9h-20.7V-613z"/>
	<path class="st0" d="M263-595.7h-6.9v-27.6h17.3v3.5h3.5v10.4h-3.5v3.5H263V-595.7z M263-613h6.9v-3.5H263V-613z"/>
	<path class="st0" d="M290.7-606.1h-3.5v10.4h-6.9v-27.6h17.3v3.5h3.5v10.4h-3.5v3.5h3.5v10.4h-6.9v-6.9h-3.5V-606.1z M287.2-613
		h6.9v-3.5h-6.9V-613z"/>
	<path class="st0" d="M308-599.1h-3.5v-20.7h3.5v-3.5h17.3v6.9h-13.8v3.5h6.9v6.9h-6.9v3.5h13.8v6.9H308V-599.1z"/>
	<path class="st0" d="M328.7-619.9h3.5v-3.5h17.3v6.9h-13.8v3.5H346v3.5h3.5v10.4H346v3.5h-17.3v-6.9h13.8v-3.5h-10.4v-3.5h-3.5
		V-619.9z"/>
	<path class="st0" d="M352.9-619.9h3.5v-3.5h17.3v6.9h-13.8v3.5h10.4v3.5h3.5v10.4h-3.5v3.5h-17.3v-6.9h13.8v-3.5h-10.4v-3.5h-3.5
		V-619.9z"/>
	<path class="st0" d="M408.2-595.7h-6.9v-24.2h3.5v-3.5h13.8v3.5h3.5v24.2h-6.9v-10.4h-6.9V-595.7z M415.1-613v-3.5h-6.9v3.5H415.1z
		"/>
	<path class="st0" d="M435.8-609.5h-3.5v13.8h-6.9v-27.6h6.9v3.5h3.5v3.5h3.5v-6.9h6.9v27.6h-6.9v-10.4h-3.5V-609.5z"/>
	<path class="st0" d="M449.7-623.3h6.9v10.4h6.9v-10.4h6.9v13.8h-3.5v3.5h-3.5v10.4h-6.9v-10.4h-3.5v-3.5h-3.5V-623.3z"/>
	<path class="st0" d="M505-595.7h-6.9v-27.6h6.9v6.9h3.5v-3.5h3.5v-3.5h6.9v6.9h-3.5v3.5h-3.5v6.9h3.5v3.5h3.5v6.9h-6.9v-3.5h-3.5
		v-3.5H505V-595.7z"/>
	<path class="st0" d="M525.7-599.1h-3.5v-20.7h3.5v-3.5H543v6.9h-13.8v3.5h6.9v6.9h-6.9v3.5H543v6.9h-17.3V-599.1z"/>
	<path class="st0" d="M546.4-623.3h6.9v10.4h6.9v-10.4h6.9v13.8h-3.5v3.5h-3.5v10.4h-6.9v-10.4h-3.5v-3.5h-3.5V-623.3z"/>
	<path class="st0" d="M594.8-623.3h20.7v6.9h-6.9v20.7h-6.9v-20.7h-6.9V-623.3z"/>
	<path class="st0" d="M619-619.9h3.5v-3.5h13.8v3.5h3.5v20.7h-3.5v3.5h-13.8v-3.5H619V-619.9z M625.9-602.6h6.9v-13.8h-6.9V-602.6z"
		/>
	<path class="st0" d="M674.3-595.7h-6.9v-27.6h17.3v3.5h3.5v10.4h-3.5v3.5h-10.4V-595.7z M674.3-613h6.9v-3.5h-6.9V-613z"/>
	<path class="st0" d="M695-599.1h-3.5v-24.2h6.9v20.7h13.8v6.9H695V-599.1z"/>
	<path class="st0" d="M722.7-595.7h-6.9v-24.2h3.5v-3.5h13.8v3.5h3.5v24.2h-6.9v-10.4h-6.9V-595.7z M729.6-613v-3.5h-6.9v3.5H729.6z
		"/>
	<path class="st0" d="M740-623.3h6.9v10.4h6.9v-10.4h6.9v13.8h-3.5v3.5h-3.5v10.4h-6.9v-10.4h-3.5v-3.5H740V-623.3z"/>
	<path class="st0" d="M788.3-613h20.7v6.9h-20.7V-613z"/>
</g>
<g>
	<path class="st30" d="M206.9-618.9h20.7v6.9h-20.7V-618.9z"/>
	<path class="st30" d="M262.2-601.6h-6.9v-27.6h17.3v3.5h3.5v10.4h-3.5v3.5h-10.4V-601.6z M262.2-618.9h6.9v-3.5h-6.9V-618.9z"/>
	<path class="st30" d="M289.8-611.9h-3.5v10.4h-6.9v-27.6h17.3v3.5h3.5v10.4h-3.5v3.5h3.5v10.4h-6.9v-6.9h-3.5V-611.9z M286.4-618.9
		h6.9v-3.5h-6.9V-618.9z"/>
	<path class="st30" d="M307.1-605h-3.5v-20.7h3.5v-3.5h17.3v6.9h-13.8v3.5h6.9v6.9h-6.9v3.5h13.8v6.9h-17.3V-605z"/>
	<path class="st30" d="M327.8-625.8h3.5v-3.5h17.3v6.9h-13.8v3.5h10.4v3.5h3.5v10.4h-3.5v3.5h-17.3v-6.9h13.8v-3.5h-10.4v-3.5h-3.5
		V-625.8z"/>
	<path class="st30" d="M352-625.8h3.5v-3.5h17.3v6.9h-13.8v3.5h10.4v3.5h3.5v10.4h-3.5v3.5H352v-6.9h13.8v-3.5h-10.4v-3.5H352
		V-625.8z"/>
	<path class="st30" d="M407.3-601.6h-6.9v-24.2h3.5v-3.5h13.8v3.5h3.5v24.2h-6.9v-10.4h-6.9V-601.6z M414.2-618.9v-3.5h-6.9v3.5
		H414.2z"/>
	<path class="st30" d="M435-615.4h-3.5v13.8h-6.9v-27.6h6.9v3.5h3.5v3.5h3.5v-6.9h6.9v27.6h-6.9v-10.4H435V-615.4z"/>
	<path class="st30" d="M448.8-629.2h6.9v10.4h6.9v-10.4h6.9v13.8h-3.5v3.5h-3.5v10.4h-6.9v-10.4h-3.5v-3.5h-3.5V-629.2z"/>
	<path class="st30" d="M504.1-601.6h-6.9v-27.6h6.9v6.9h3.5v-3.5h3.5v-3.5h6.9v6.9h-3.5v3.5H511v6.9h3.5v3.5h3.5v6.9H511v-3.5h-3.5
		v-3.5h-3.5V-601.6z"/>
	<path class="st30" d="M524.8-605h-3.5v-20.7h3.5v-3.5h17.3v6.9h-13.8v3.5h6.9v6.9h-6.9v3.5h13.8v6.9h-17.3V-605z"/>
	<path class="st30" d="M545.6-629.2h6.9v10.4h6.9v-10.4h6.9v13.8h-3.5v3.5h-3.5v10.4h-6.9v-10.4H549v-3.5h-3.5V-629.2z"/>
	<path class="st30" d="M594-629.2h20.7v6.9h-6.9v20.7h-6.9v-20.7H594V-629.2z"/>
	<path class="st30" d="M618.1-625.8h3.5v-3.5h13.8v3.5h3.5v20.7h-3.5v3.5h-13.8v-3.5h-3.5V-625.8z M625.1-608.5h6.9v-13.8h-6.9
		V-608.5z"/>
	<path class="st30" d="M673.4-601.6h-6.9v-27.6h17.3v3.5h3.5v10.4h-3.5v3.5h-10.4V-601.6z M673.4-618.9h6.9v-3.5h-6.9V-618.9z"/>
	<path class="st30" d="M694.2-605h-3.5v-24.2h6.9v20.7h13.8v6.9h-17.3V-605z"/>
	<path class="st30" d="M721.8-601.6h-6.9v-24.2h3.5v-3.5h13.8v3.5h3.5v24.2h-6.9v-10.4h-6.9V-601.6z M728.7-618.9v-3.5h-6.9v3.5
		H728.7z"/>
	<path class="st30" d="M739.1-629.2h6.9v10.4h6.9v-10.4h6.9v13.8h-3.5v3.5h-3.5v10.4H746v-10.4h-3.5v-3.5h-3.5V-629.2z"/>
	<path class="st30" d="M787.5-618.9h20.7v6.9h-20.7V-618.9z"/>
</g>
<g>
	<path class="st4" d="M206.9-623.3h20.7v6.9h-20.7V-623.3z"/>
	<path class="st4" d="M262.2-606h-6.9v-27.6h17.3v3.5h3.5v10.4h-3.5v3.5h-10.4V-606z M262.2-623.3h6.9v-3.5h-6.9V-623.3z"/>
	<path class="st4" d="M289.8-616.4h-3.5v10.4h-6.9v-27.6h17.3v3.5h3.5v10.4h-3.5v3.5h3.5v10.4h-6.9v-6.9h-3.5V-616.4z M286.4-623.3
		h6.9v-3.5h-6.9V-623.3z"/>
	<path class="st4" d="M307.1-609.4h-3.5v-20.7h3.5v-3.5h17.3v6.9h-13.8v3.5h6.9v6.9h-6.9v3.5h13.8v6.9h-17.3V-609.4z"/>
	<path class="st4" d="M327.8-630.2h3.5v-3.5h17.3v6.9h-13.8v3.5h10.4v3.5h3.5v10.4h-3.5v3.5h-17.3v-6.9h13.8v-3.5h-10.4v-3.5h-3.5
		V-630.2z"/>
	<path class="st4" d="M352-630.2h3.5v-3.5h17.3v6.9h-13.8v3.5h10.4v3.5h3.5v10.4h-3.5v3.5H352v-6.9h13.8v-3.5h-10.4v-3.5H352V-630.2
		z"/>
	<path class="st4" d="M407.3-606h-6.9v-24.2h3.5v-3.5h13.8v3.5h3.5v24.2h-6.9v-10.4h-6.9V-606z M414.2-623.3v-3.5h-6.9v3.5H414.2z"
		/>
	<path class="st4" d="M435-619.8h-3.5v13.8h-6.9v-27.6h6.9v3.5h3.5v3.5h3.5v-6.9h6.9v27.6h-6.9v-10.4H435V-619.8z"/>
	<path class="st4" d="M448.8-633.6h6.9v10.4h6.9v-10.4h6.9v13.8h-3.5v3.5h-3.5v10.4h-6.9v-10.4h-3.5v-3.5h-3.5V-633.6z"/>
	<path class="st4" d="M504.1-606h-6.9v-27.6h6.9v6.9h3.5v-3.5h3.5v-3.5h6.9v6.9h-3.5v3.5H511v6.9h3.5v3.5h3.5v6.9H511v-3.5h-3.5
		v-3.5h-3.5V-606z"/>
	<path class="st4" d="M524.8-609.4h-3.5v-20.7h3.5v-3.5h17.3v6.9h-13.8v3.5h6.9v6.9h-6.9v3.5h13.8v6.9h-17.3V-609.4z"/>
	<path class="st4" d="M545.6-633.6h6.9v10.4h6.9v-10.4h6.9v13.8h-3.5v3.5h-3.5v10.4h-6.9v-10.4H549v-3.5h-3.5V-633.6z"/>
	<path class="st4" d="M594-633.6h20.7v6.9h-6.9v20.7h-6.9v-20.7H594V-633.6z"/>
	<path class="st4" d="M618.1-630.2h3.5v-3.5h13.8v3.5h3.5v20.7h-3.5v3.5h-13.8v-3.5h-3.5V-630.2z M625.1-612.9h6.9v-13.8h-6.9
		V-612.9z"/>
	<path class="st4" d="M673.4-606h-6.9v-27.6h17.3v3.5h3.5v10.4h-3.5v3.5h-10.4V-606z M673.4-623.3h6.9v-3.5h-6.9V-623.3z"/>
	<path class="st4" d="M694.2-609.4h-3.5v-24.2h6.9v20.7h13.8v6.9h-17.3V-609.4z"/>
	<path class="st4" d="M721.8-606h-6.9v-24.2h3.5v-3.5h13.8v3.5h3.5v24.2h-6.9v-10.4h-6.9V-606z M728.7-623.3v-3.5h-6.9v3.5H728.7z"
		/>
	<path class="st4" d="M739.1-633.6h6.9v10.4h6.9v-10.4h6.9v13.8h-3.5v3.5h-3.5v10.4H746v-10.4h-3.5v-3.5h-3.5V-633.6z"/>
	<path class="st4" d="M787.5-623.3h20.7v6.9h-20.7V-623.3z"/>
</g>
<path class="st31" d="M2968.7-1325.4h-2.2h-10.8h-38.7h-12.9H1377.6h-12.9H1326h-12.9h-12.9v22.6V-462v11.3v33.9v11.3v11.3h25.8
	h1578.2h12.9h38.7h10.8h2.2h12.9v-931.2H2968.7z M2955.8-1268.9v818.2v11.3h-12.9v11.3H2930v11.3h-12.9H1364.7h-12.9v-11.3h-12.9
	v-11.3H1326v-11.3v-818.2v-11.3h12.9v-11.3h12.9v-11.3h12.9H1569h135.5h1212.7h12.9v11.3h12.9v11.3h12.9V-1268.9z"/>
<polygon class="st32" points="1688.7,-1682.6 1688.7,-1691.4 1678.9,-1691.4 1322,-1691.4 1322,-1608 1678.1,-1608 1678.1,-1616.7 
	1678.9,-1616.7 1688.7,-1616.7 1688.7,-1623.6 1688.7,-1625.4 1698.6,-1625.4 1698.6,-1632.4 1698.6,-1682.6 "/>
<polygon class="st31" points="1688.2,-1691.3 1688.2,-1700.1 1678.4,-1700.1 1311.1,-1700.1 1311.1,-1693.1 1311.1,-1691.3 
	1301.2,-1691.3 1301.2,-1641.1 1311,-1641.1 1311,-1634.1 1311.1,-1634.1 1311.1,-1625.4 1321.6,-1625.4 1321.6,-1616.7 
	1677.7,-1616.7 1677.7,-1625.4 1678.4,-1625.4 1688.2,-1625.4 1688.2,-1632.3 1688.2,-1634.1 1698.1,-1634.1 1698.1,-1641.1 
	1698.1,-1691.3 "/>
<rect x="1239.3" y="-1475.3" class="st13" width="92.2" height="32.8"/>
<text transform="matrix(1 0 0 1 1260.3967 -1457.123)" class="st4" style="font-family:'EditUndoBRK'; font-size:31.5429px;">DMG</text>
<g>
	<g>
		<polygon class="st23" points="1439.1,-1440.9 1693.8,-1440.9 1693.8,-1458.9 1439.1,-1458.9 1439.1,-1458.8 1439.1,-1453.7 
			1432.1,-1453.7 1432.1,-1446.1 1439.1,-1446.1 1439.1,-1441 		"/>
	</g>
	<polygon class="st23" points="1702.4,-1453.7 1702.4,-1458.8 1702.4,-1458.9 1646.7,-1458.9 1646.7,-1440.9 1702.4,-1440.9 
		1702.4,-1441 1702.4,-1446.1 1709.3,-1446.1 1709.3,-1453.7 	"/>
</g>
<g class="st33">
	<polygon class="st34" points="2082.6,-1227.8 2082.6,-1305.8 1992.7,-1305.8 1992.7,-1295.7 1982.6,-1295.7 1982.6,-1237.8 
		1992.7,-1237.8 1992.7,-1227.8 	"/>
	<polygon class="st34" points="2317.7,-1296.7 2317.7,-1306.8 2307.6,-1306.8 2225.6,-1306.8 2225.6,-1228.8 2307.6,-1228.8 
		2317.7,-1228.8 2317.7,-1238.8 2327.7,-1238.8 2327.7,-1296.7 	"/>
	<rect x="2002.6" y="-1296.8" class="st34" width="305" height="78"/>
</g>
<g>
	<polygon class="st31" points="2092.6,-1227.8 2092.6,-1305.8 2002.7,-1305.8 2002.7,-1295.7 1992.6,-1295.7 1992.6,-1237.8 
		2002.7,-1237.8 2002.7,-1227.8 	"/>
	<polygon class="st31" points="2082.6,-1237.8 2082.6,-1315.8 1992.7,-1315.8 1992.7,-1305.7 1982.6,-1305.7 1982.6,-1247.8 
		1992.7,-1247.8 1992.7,-1237.8 	"/>
	<polygon class="st31" points="2307.7,-1295.7 2307.7,-1305.8 2297.6,-1305.8 2215.6,-1305.8 2215.6,-1227.8 2297.6,-1227.8 
		2307.7,-1227.8 2307.7,-1237.8 2317.7,-1237.8 2317.7,-1295.7 	"/>
	<polygon class="st31" points="2317.7,-1305.7 2317.7,-1315.8 2307.6,-1315.8 2225.6,-1315.8 2225.6,-1237.8 2307.6,-1237.8 
		2317.7,-1237.8 2317.7,-1247.8 2327.7,-1247.8 2327.7,-1305.7 	"/>
	<rect x="2092.6" y="-1305.8" class="st31" width="123" height="78"/>
</g>
<g>
	<polygon class="st35" points="2092.6,-1237.8 2092.6,-1315.8 2002.7,-1315.8 2002.7,-1305.7 1992.6,-1305.7 1992.6,-1247.8 
		2002.7,-1247.8 2002.7,-1237.8 	"/>
	<polygon class="st35" points="2307.7,-1305.7 2307.7,-1315.8 2297.6,-1315.8 2229.6,-1315.8 2229.6,-1237.8 2297.6,-1237.8 
		2307.7,-1237.8 2307.7,-1247.8 2317.7,-1247.8 2317.7,-1305.7 	"/>
</g>
<g class="st33">
	<polygon class="st34" points="1816.3,-1623.4 1816.3,-1693.4 1735.7,-1693.4 1735.7,-1684.4 1726.6,-1684.4 1726.6,-1632.5 
		1735.7,-1632.5 1735.7,-1623.4 	"/>
	<polygon class="st34" points="2027.1,-1685.3 2027.1,-1694.3 2018.1,-1694.3 1944.6,-1694.3 1944.6,-1624.3 2018.1,-1624.3 
		2027.1,-1624.3 2027.1,-1633.4 2036.2,-1633.4 2036.2,-1685.3 	"/>
	<rect x="1744.6" y="-1685.3" class="st34" width="273.6" height="70"/>
</g>
<g>
	<polygon class="st31" points="1825.3,-1623.4 1825.3,-1693.4 1744.6,-1693.4 1744.6,-1684.4 1735.6,-1684.4 1735.6,-1632.5 
		1744.6,-1632.5 1744.6,-1623.4 	"/>
	<polygon class="st31" points="1816.3,-1632.4 1816.3,-1702.4 1735.7,-1702.4 1735.7,-1693.3 1726.6,-1693.3 1726.6,-1641.4 
		1735.7,-1641.4 1735.7,-1632.4 	"/>
	<polygon class="st31" points="2018.2,-1684.4 2018.2,-1693.4 2009.1,-1693.4 1935.6,-1693.4 1935.6,-1623.4 2009.1,-1623.4 
		2018.2,-1623.4 2018.2,-1632.5 2027.2,-1632.5 2027.2,-1684.4 	"/>
	<polygon class="st31" points="2027.1,-1693.3 2027.1,-1702.4 2018.1,-1702.4 1944.6,-1702.4 1944.6,-1632.4 2018.1,-1632.4 
		2027.1,-1632.4 2027.1,-1641.4 2036.2,-1641.4 2036.2,-1693.3 	"/>
	<rect x="1825.3" y="-1693.4" class="st31" width="110.3" height="70"/>
</g>
<g>
	<polygon class="st35" points="1825.3,-1632.4 1825.3,-1702.4 1744.6,-1702.4 1744.6,-1693.3 1735.6,-1693.3 1735.6,-1641.4 
		1744.6,-1641.4 1744.6,-1632.4 	"/>
	<polygon class="st35" points="2018.2,-1693.3 2018.2,-1702.4 2009.1,-1702.4 1948.2,-1702.4 1948.2,-1632.4 2009.1,-1632.4 
		2018.2,-1632.4 2018.2,-1641.4 2027.2,-1641.4 2027.2,-1693.3 	"/>
</g>
<rect x="2077.6" y="-1315.8" class="st35" width="169" height="78"/>
<rect x="1811.9" y="-1702.4" class="st35" width="151.6" height="70"/>
<g>
	<rect x="2072.6" y="-1283.5" class="st13" width="179" height="81.8"/>
	<text transform="matrix(1 0 0 1 2094.7534 -1255.9)" class="st4" style="font-family:'EditUndoBRK'; font-size:48px;">124 KM</text>
</g>
<g>
	<rect x="2958.3" y="-1305.8" class="st32" width="8" height="2"/>
	<polygon class="st32" points="2877.2,-1305.8 2877.2,-1295.7 2867.3,-1295.7 2867.3,-1237.8 2877.2,-1237.8 2877.2,-1227.8 
		2877.2,-1227.8 2877.2,-1227.8 2887.1,-1227.8 2887.1,-1217.8 2942.3,-1217.8 2942.3,-1305.8 	"/>
</g>
<polygon class="st31" points="2967.3,-1305.8 2967.3,-1315.8 2877.3,-1315.8 2877.3,-1305.7 2867.3,-1305.7 2867.3,-1247.8 
	2877.3,-1247.8 2877.3,-1237.8 2877.3,-1237.8 2877.3,-1237.8 2887.3,-1237.8 2887.3,-1227.8 2977.3,-1227.8 2977.3,-1305.8 "/>
<g>
	<g>
		<g>
			<polygon class="st2" points="2937.3,-1294.3 2932,-1294.3 2899.5,-1294.3 2899.5,-1288.9 2894.2,-1288.9 2894.2,-1251.1 
				2899.5,-1251.1 2899.5,-1245.8 2932,-1245.8 2937.3,-1245.8 2937.3,-1251.1 2942.6,-1251.1 2942.6,-1288.9 2937.3,-1288.9 			"/>
			<polygon class="st3" points="2937.6,-1300 2932.2,-1300 2899.5,-1300 2899.5,-1294.6 2894.2,-1294.6 2894.2,-1256.6 
				2899.5,-1256.6 2899.5,-1251.2 2932.2,-1251.2 2937.6,-1251.2 2937.6,-1256.6 2943,-1256.6 2943,-1294.6 2937.6,-1294.6 			"/>
		</g>
		<g>
			<rect x="2907.1" y="-1270.9" class="st4" width="24.2" height="4.8"/>
			<rect x="2907.1" y="-1282.1" class="st4" width="24.2" height="4.8"/>
		</g>
	</g>
	<g class="st33">
		<polygon class="st36" points="2899.5,-1245.6 2899.5,-1240.6 2904.9,-1240.6 2937.6,-1240.6 2937.6,-1245.6 2904.9,-1245.6 		"/>
		<rect x="2894.2" y="-1251" class="st36" width="5.4" height="5"/>
		<rect x="2937.6" y="-1251" class="st36" width="5.4" height="5"/>
	</g>
</g>
<g>
	<g>
		<g>
			<polygon class="st2" points="2290.8,-1683.8 2286.6,-1683.8 2261.3,-1683.8 2261.3,-1679.6 2257.2,-1679.6 2257.2,-1650.1 
				2261.3,-1650.1 2261.3,-1646 2286.6,-1646 2290.8,-1646 2290.8,-1650.1 2295,-1650.1 2295,-1679.6 2290.8,-1679.6 			"/>
			<polygon class="st3" points="2291,-1688.2 2286.8,-1688.2 2261.3,-1688.2 2261.3,-1684.1 2257.2,-1684.1 2257.2,-1654.4 
				2261.3,-1654.4 2261.3,-1650.2 2286.8,-1650.2 2291,-1650.2 2291,-1654.4 2295.2,-1654.4 2295.2,-1684.1 2291,-1684.1 			"/>
		</g>
		<g>
			
				<rect x="2261.9" y="-1670.9" transform="matrix(-1.836970e-16 1 -1 -1.836970e-16 602.278 -3940.3274)" class="st4" width="18.9" height="3.8"/>
			
				<rect x="2272.6" y="-1670.9" transform="matrix(-1.836970e-16 1 -1 -1.836970e-16 612.9805 -3951.03)" class="st4" width="18.9" height="3.8"/>
		</g>
	</g>
	<g class="st33">
		<polygon class="st36" points="2261.3,-1645.8 2261.3,-1641.9 2265.5,-1641.9 2291,-1641.9 2291,-1645.8 2265.5,-1645.8 		"/>
		<rect x="2257.2" y="-1650" class="st36" width="4.2" height="3.9"/>
		<rect x="2291" y="-1650" class="st36" width="4.2" height="3.9"/>
	</g>
</g>
<polygon class="st23" points="1465.7,-1558.5 1465.7,-1562.3 1456.1,-1562.3 1455.7,-1562.3 1446.4,-1562.3 1446.1,-1562.3 
	1436.8,-1562.3 1436.4,-1562.3 1426.8,-1562.3 1426.8,-1558.5 1422,-1558.5 1422,-1553.1 1426.8,-1553.1 1426.8,-1549.3 
	1427,-1549.3 1431.2,-1549.3 1432.1,-1549.3 1436.3,-1549.3 1436.4,-1549.3 1436.7,-1549.3 1436.8,-1549.3 1440.9,-1549.3 
	1441.7,-1549.3 1445.9,-1549.3 1446.1,-1549.3 1446.3,-1549.3 1446.4,-1549.3 1450.5,-1549.3 1451.3,-1549.3 1455.5,-1549.3 
	1455.7,-1549.3 1455.9,-1549.3 1456.1,-1549.3 1460.1,-1549.3 1461,-1549.3 1465.2,-1549.3 1465.7,-1549.3 1465.7,-1553 
	1470.2,-1553 1470.2,-1558.5 "/>
<polygon class="st23" points="1472.4,-1795.4 1472.4,-1799.1 1462.8,-1799.1 1462.4,-1799.1 1453.2,-1799.1 1452.8,-1799.1 
	1443.5,-1799.1 1443.1,-1799.1 1433.5,-1799.1 1433.5,-1795.4 1428.7,-1795.4 1428.7,-1789.9 1433.5,-1789.9 1433.5,-1786.2 
	1433.8,-1786.2 1438,-1786.2 1438.8,-1786.2 1443,-1786.2 1443.1,-1786.2 1443.4,-1786.2 1443.5,-1786.2 1447.6,-1786.2 
	1448.4,-1786.2 1452.6,-1786.2 1452.8,-1786.2 1453,-1786.2 1453.2,-1786.2 1457.2,-1786.2 1458,-1786.2 1462.3,-1786.2 
	1462.4,-1786.2 1462.7,-1786.2 1462.8,-1786.2 1466.9,-1786.2 1467.7,-1786.2 1471.9,-1786.2 1472.4,-1786.2 1472.4,-1789.9 
	1476.9,-1789.9 1476.9,-1795.4 "/>
<polygon class="st37" points="1626.3,-1795.4 1626.3,-1799.1 1616.7,-1799.1 1616.3,-1799.1 1607,-1799.1 1606.7,-1799.1 
	1597.4,-1799.1 1597,-1799.1 1588,-1799.1 1587.4,-1799.1 1578.4,-1799.1 1578,-1799.1 1568.7,-1799.1 1568.4,-1799.1 
	1559.1,-1799.1 1558.7,-1799.1 1549.5,-1799.1 1549.1,-1799.1 1539.8,-1799.1 1539.5,-1799.1 1530.2,-1799.1 1529.8,-1799.1 
	1520.6,-1799.1 1520.2,-1799.1 1510.9,-1799.1 1510.6,-1799.1 1501.3,-1799.1 1500.9,-1799.1 1491.7,-1799.1 1491.3,-1799.1 
	1482,-1799.1 1481.7,-1799.1 1472.4,-1799.1 1472,-1799.1 1462.8,-1799.1 1462.4,-1799.1 1453.2,-1799.1 1452.8,-1799.1 
	1443.5,-1799.1 1443.1,-1799.1 1433.5,-1799.1 1433.5,-1795.4 1428.7,-1795.4 1428.7,-1789.9 1433.5,-1789.9 1433.5,-1786.2 
	1433.8,-1786.2 1438,-1786.2 1438.8,-1786.2 1443,-1786.2 1443.1,-1786.2 1443.4,-1786.2 1443.5,-1786.2 1447.6,-1786.2 
	1448.4,-1786.2 1452.6,-1786.2 1452.8,-1786.2 1453,-1786.2 1453.2,-1786.2 1457.2,-1786.2 1458,-1786.2 1462.3,-1786.2 
	1462.4,-1786.2 1462.7,-1786.2 1462.8,-1786.2 1466.9,-1786.2 1467.7,-1786.2 1471.9,-1786.2 1472,-1786.2 1472.3,-1786.2 
	1472.4,-1786.2 1476.5,-1786.2 1477.3,-1786.2 1481.5,-1786.2 1481.7,-1786.2 1481.9,-1786.2 1482,-1786.2 1486.1,-1786.2 
	1486.9,-1786.2 1491.1,-1786.2 1491.3,-1786.2 1491.5,-1786.2 1491.7,-1786.2 1495.8,-1786.2 1496.6,-1786.2 1500.8,-1786.2 
	1500.9,-1786.2 1501.2,-1786.2 1501.3,-1786.2 1505.4,-1786.2 1506.2,-1786.2 1510.4,-1786.2 1510.6,-1786.2 1510.8,-1786.2 
	1510.9,-1786.2 1515,-1786.2 1515.8,-1786.2 1520,-1786.2 1520.2,-1786.2 1520.4,-1786.2 1520.6,-1786.2 1524.6,-1786.2 
	1525.5,-1786.2 1529.7,-1786.2 1529.8,-1786.2 1530.1,-1786.2 1530.2,-1786.2 1534.3,-1786.2 1535.1,-1786.2 1539.3,-1786.2 
	1539.5,-1786.2 1539.7,-1786.2 1539.8,-1786.2 1543.9,-1786.2 1544.7,-1786.2 1548.9,-1786.2 1549.1,-1786.2 1549.3,-1786.2 
	1549.5,-1786.2 1553.5,-1786.2 1554.4,-1786.2 1558.6,-1786.2 1558.7,-1786.2 1559,-1786.2 1559.1,-1786.2 1563.2,-1786.2 
	1564,-1786.2 1568.2,-1786.2 1568.4,-1786.2 1568.6,-1786.2 1568.7,-1786.2 1572.8,-1786.2 1573.6,-1786.2 1577.8,-1786.2 
	1578,-1786.2 1578.2,-1786.2 1578.4,-1786.2 1582.4,-1786.2 1583.3,-1786.2 1587.4,-1786.2 1587.5,-1786.2 1587.6,-1786.2 
	1588,-1786.2 1591.8,-1786.2 1592.7,-1786.2 1596.9,-1786.2 1597,-1786.2 1597.3,-1786.2 1597.4,-1786.2 1601.5,-1786.2 
	1602.3,-1786.2 1606.5,-1786.2 1606.7,-1786.2 1606.9,-1786.2 1607,-1786.2 1611.1,-1786.2 1611.9,-1786.2 1616.1,-1786.2 
	1616.3,-1786.2 1616.5,-1786.2 1616.7,-1786.2 1620.7,-1786.2 1621.6,-1786.2 1625.8,-1786.2 1626.3,-1786.2 1626.3,-1789.9 
	1630.8,-1789.9 1630.8,-1795.4 "/>
<g>
	<polygon class="st31" points="3177.3,-416.8 3182.6,-416.8 3195.5,-416.8 3195.5,-428.1 3208.4,-428.1 3208.4,-439.4 
		3221.3,-439.4 3221.3,-450.7 3221.3,-464.1 3247.1,-464.1 3247.1,-462 3247.1,-450.7 3247.1,-416.8 3247.1,-405.5 3247.1,-394.2 
		3221.3,-394.2 3177.3,-394.2 	"/>
</g>
<g>
	<polygon class="st31" points="3243.5,-464 3243.5,-458.7 3243.5,-445.8 3254.8,-445.8 3254.8,-432.9 3266.1,-432.9 3266.1,-420 
		3277.4,-420 3290.7,-420 3290.7,-394.2 3288.7,-394.2 3277.4,-394.2 3243.5,-394.2 3232.2,-394.2 3220.9,-394.2 3220.9,-420 
		3220.9,-464 	"/>
</g>
<g>
	<polygon class="st31" points="3191.3,-416.8 3191.3,-411.5 3191.3,-398.6 3202.6,-398.6 3202.6,-385.7 3213.9,-385.7 
		3213.9,-372.8 3225.2,-372.8 3238.6,-372.8 3238.6,-347 3236.5,-347 3225.2,-347 3191.3,-347 3180,-347 3168.7,-347 3168.7,-372.8 
		3168.7,-416.8 	"/>
</g>
<g>
	<polygon class="st31" points="3110.1,-416.8 3104.8,-416.8 3091.9,-416.8 3091.9,-428.1 3079,-428.1 3079,-439.4 3066.1,-439.4 
		3066.1,-450.7 3066.1,-464.1 3040.3,-464.1 3040.3,-462 3040.3,-450.7 3040.3,-416.8 3040.3,-405.5 3040.3,-394.2 3066.1,-394.2 
		3110.1,-394.2 	"/>
</g>
<g>
	<polygon class="st31" points="3165.5,-369.6 3160.2,-369.6 3147.3,-369.6 3147.3,-380.9 3134.4,-380.9 3134.4,-392.2 
		3121.5,-392.2 3121.5,-403.5 3121.5,-416.8 3095.7,-416.8 3095.7,-414.8 3095.7,-403.5 3095.7,-369.6 3095.7,-358.3 3095.7,-347 
		3121.5,-347 3165.5,-347 	"/>
</g>
<g>
	<polygon class="st31" points="3043.1,-453.2 3043.1,-447.9 3043.1,-435 3031.8,-435 3031.8,-422.1 3020.5,-422.1 3020.5,-409.2 
		3009.2,-409.2 2995.8,-409.2 2995.8,-383.4 2997.9,-383.4 3009.2,-383.4 3043.1,-383.4 3054.4,-383.4 3065.7,-383.4 3065.7,-409.2 
		3065.7,-453.2 	"/>
</g>
<polygon class="st32" points="2217,-1675.5 2217,-1684.4 2216.9,-1684.4 2216.9,-1684.5 2208,-1684.5 2208,-1693.5 2180.1,-1693.5 
	2172.9,-1693.5 2158.6,-1693.5 2100.2,-1693.5 2100.2,-1684.4 2091.3,-1684.4 2091.3,-1632.5 2100.1,-1632.5 2100.1,-1623.5 
	2100.2,-1623.5 2100.2,-1623.5 2109.1,-1623.5 2109.1,-1614.5 2158.6,-1614.5 2159.4,-1614.5 2159.4,-1623.5 2181.1,-1623.5 
	2181.1,-1614.5 2216.9,-1614.5 2216.9,-1623.5 2225.9,-1623.5 2225.9,-1675.5 "/>
<polygon class="st31" points="2181,-1693.5 2181,-1702.4 2100.3,-1702.4 2100.3,-1693.4 2091.3,-1693.4 2091.3,-1641.5 
	2100.2,-1641.5 2100.2,-1632.5 2100.3,-1632.5 2100.3,-1632.4 2109.3,-1632.4 2109.3,-1623.5 2190,-1623.5 2190,-1693.5 "/>
<g>
	<polygon class="st7" points="4303.7,-1258.8 4287.2,-1258.8 4287.2,-1266.8 4270.7,-1266.8 4270.7,-1275.5 3558.6,-1275.5 
		3558.6,-1266.8 3542.1,-1266.8 3542.1,-1258.8 3525.6,-1258.8 3525.6,-790.9 3542.1,-790.9 3542.1,-782.9 3558.6,-782.9 
		3558.6,-774.2 4270.7,-774.2 4270.7,-782.9 4287.2,-782.9 4287.2,-790.9 4303.7,-790.9 	"/>
	<polygon class="st8" points="4303.7,-1267 4287.2,-1267 4287.2,-1275 4270.7,-1275 4270.7,-1283.7 3558.6,-1283.7 3558.6,-1275 
		3542.1,-1275 3542.1,-1267 3525.6,-1267 3525.6,-799.1 3542.1,-799.1 3542.1,-791.1 3558.6,-791.1 3558.6,-782.4 4270.7,-782.4 
		4270.7,-791.1 4287.2,-791.1 4287.2,-799.1 4303.7,-799.1 	"/>
</g>
<g>
	<g>
		<polygon class="st20" points="4380.3,-1160.6 4380.3,-983.6 4393.8,-983.6 4393.8,-973.3 4407.3,-973.3 4407.3,-962 4988.9,-962 
			4988.9,-973.3 5002.4,-973.3 5002.4,-983.6 5015.9,-983.6 5015.9,-1160.6 		"/>
		<polygon class="st20" points="5015.9,-1160.6 5015.9,-1262.4 5002.4,-1262.4 5002.4,-1272.7 4988.9,-1272.7 4988.9,-1284.1 
			4407.3,-1284.1 4407.3,-1272.7 4393.8,-1272.7 4393.8,-1262.4 4380.3,-1262.4 4380.3,-1160.6 		"/>
	</g>
	<g>
		<polygon class="st21" points="4393.8,-1262.3 4407.3,-1262.3 4407.3,-1272.7 4393.8,-1272.7 4393.8,-1262.4 4380.3,-1262.4 
			4380.3,-1252 4393.8,-1252 		"/>
		<rect x="4407.3" y="-1284.1" class="st21" width="581.6" height="10.4"/>
		<polygon class="st21" points="5002.4,-1262.4 5002.4,-1272.7 4988.9,-1272.7 4988.9,-1262.3 5002.4,-1262.3 5002.4,-1252 
			5015.9,-1252 5015.9,-1262.4 		"/>
	</g>
</g>
<g>
	<polygon class="st2" points="3798.1,-725.7 3791.2,-725.7 3532.5,-725.7 3532.5,-718.7 3525.6,-718.7 3525.6,-678.8 3532.5,-678.8 
		3532.5,-671.9 3791.2,-671.9 3798.1,-671.9 3798.1,-678.8 3805.1,-678.8 3805.1,-718.7 3798.1,-718.7 	"/>
	<polygon class="st3" points="3798.1,-732.6 3791.2,-732.6 3532.5,-732.6 3532.5,-725.6 3525.6,-725.6 3525.6,-685.7 3532.5,-685.7 
		3532.5,-678.8 3791.2,-678.8 3798.1,-678.8 3798.1,-685.7 3805.1,-685.7 3805.1,-725.6 3798.1,-725.6 	"/>
	<g>
		<path class="st4" d="M3576.2-697.5h-11.9v-19.1h11.9v2.4h2.4v4.8h-2.4v4.8h2.4v4.8h-2.4V-697.5z M3569.1-709.4h4.8v-2.4h-4.8
			V-709.4z M3569.1-702.2h4.8v-2.4h-4.8V-702.2z"/>
		<path class="st4" d="M3585.8-697.5h-4.8v-16.7h2.4v-2.4h9.5v2.4h2.4v16.7h-4.8v-7.2h-4.8V-697.5z M3590.5-709.4v-2.4h-4.8v2.4
			H3590.5z"/>
		<path class="st4" d="M3597.7-714.2h2.4v-2.4h11.9v4.8h-9.5v9.5h9.5v4.8h-11.9v-2.4h-2.4V-714.2z"/>
		<path class="st4" d="M3619.2-697.5h-4.8v-19.1h4.8v4.8h2.4v-2.4h2.4v-2.4h4.8v4.8h-2.4v2.4h-2.4v4.8h2.4v2.4h2.4v4.8h-4.8v-2.4
			h-2.4v-2.4h-2.4V-697.5z"/>
		<path class="st4" d="M3647.8-716.5h14.3v4.8h-4.8v14.3h-4.8v-14.3h-4.8V-716.5z"/>
		<path class="st4" d="M3664.5-714.2h2.4v-2.4h9.5v2.4h2.4v14.3h-2.4v2.4h-9.5v-2.4h-2.4V-714.2z M3669.2-702.2h4.8v-9.5h-4.8
			V-702.2z"/>
		<path class="st4" d="M3702.6-697.5h-4.8v-19.1h4.8v2.4h2.4v2.4h2.4v-2.4h2.4v-2.4h4.8v19.1h-4.8v-9.5h-2.4v2.4h-2.4v-2.4h-2.4
			V-697.5z"/>
		<path class="st4" d="M3719.3-699.9h-2.4v-14.3h2.4v-2.4h11.9v4.8h-9.5v2.4h4.8v4.8h-4.8v2.4h9.5v4.8h-11.9V-699.9z"/>
		<path class="st4" d="M3740.8-707h-2.4v9.5h-4.8v-19.1h4.8v2.4h2.4v2.4h2.4v-4.8h4.8v19.1h-4.8v-7.2h-2.4V-707z"/>
		<path class="st4" d="M3750.3-716.5h4.8v14.3h4.8v-14.3h4.8v16.7h-2.4v2.4h-9.5v-2.4h-2.4V-716.5z"/>
	</g>
</g>
<g>
	<polygon class="st2" points="4296.8,-645.1 4289.8,-645.1 4031.2,-645.1 4031.2,-638.1 4024.2,-638.1 4024.2,-598.2 4031.2,-598.2 
		4031.2,-591.3 4289.8,-591.3 4296.8,-591.3 4296.8,-598.2 4303.7,-598.2 4303.7,-638.1 4296.8,-638.1 	"/>
	<polygon class="st2" points="4296.8,-645 4289.8,-645 4031.2,-645 4031.2,-638 4024.2,-638 4024.2,-598.1 4031.2,-598.1 
		4031.2,-591.2 4289.8,-591.2 4296.8,-591.2 4296.8,-598.1 4303.7,-598.1 4303.7,-638 4296.8,-638 	"/>
	<g>
		<path class="st4" d="M4089.2-629h14.3v4.8h-4.8v14.3h-4.8v-14.3h-4.8V-629z"/>
		<path class="st4" d="M4113-617h-2.4v7.2h-4.8V-629h11.9v2.4h2.4v7.2h-2.4v2.4h2.4v7.2h-4.8v-4.8h-2.4V-617z M4110.6-621.8h4.8
			v-2.4h-4.8V-621.8z"/>
		<path class="st4" d="M4122.5-629h4.8v7.2h4.8v-7.2h4.8v9.5h-2.4v2.4h-2.4v7.2h-4.8v-7.2h-2.4v-2.4h-2.4V-629z"/>
		<path class="st4" d="M4160.7-609.9h-4.8v-16.7h2.4v-2.4h9.5v2.4h2.4v16.7h-4.8v-7.2h-4.8V-609.9z M4165.5-621.8v-2.4h-4.8v2.4
			H4165.5z"/>
		<path class="st4" d="M4175-612.3h-2.4v-14.3h2.4v-2.4h11.9v4.8h-9.5v9.5h4.8v-2.4h-2.4v-4.8h7.2v11.9H4175V-612.3z"/>
		<path class="st4" d="M4194.1-609.9h-4.8v-16.7h2.4v-2.4h9.5v2.4h2.4v16.7h-4.8v-7.2h-4.8V-609.9z M4198.8-621.8v-2.4h-4.8v2.4
			H4198.8z"/>
		<path class="st4" d="M4206-629h14.3v4.8h-4.8v9.5h4.8v4.8H4206v-4.8h4.8v-9.5h-4.8V-629z"/>
		<path class="st4" d="M4229.8-619.4h-2.4v9.5h-4.8V-629h4.8v2.4h2.4v2.4h2.4v-4.8h4.8v19.1h-4.8v-7.2h-2.4V-619.4z"/>
	</g>
</g>
<g>
	<polygon class="st2" points="4296.8,-728.1 4289.8,-728.1 4031.2,-728.1 4031.2,-721.1 4024.2,-721.1 4024.2,-681.2 4031.2,-681.2 
		4031.2,-674.3 4289.8,-674.3 4296.8,-674.3 4296.8,-681.2 4303.7,-681.2 4303.7,-721.1 4296.8,-721.1 	"/>
	<polygon class="st3" points="4296.8,-735 4289.8,-735 4031.2,-735 4031.2,-728 4024.2,-728 4024.2,-688.1 4031.2,-688.1 
		4031.2,-681.2 4289.8,-681.2 4296.8,-681.2 4296.8,-688.1 4303.7,-688.1 4303.7,-728 4296.8,-728 	"/>
	<g>
		<path class="st4" d="M4089.2-719h14.3v4.8h-4.8v14.3h-4.8v-14.3h-4.8V-719z"/>
		<path class="st4" d="M4113-707h-2.4v7.2h-4.8V-719h11.9v2.4h2.4v7.2h-2.4v2.4h2.4v7.2h-4.8v-4.8h-2.4V-707z M4110.6-711.8h4.8
			v-2.4h-4.8V-711.8z"/>
		<path class="st4" d="M4122.5-719h4.8v7.2h4.8v-7.2h4.8v9.5h-2.4v2.4h-2.4v7.2h-4.8v-7.2h-2.4v-2.4h-2.4V-719z"/>
		<path class="st4" d="M4160.7-699.9h-4.8v-16.7h2.4v-2.4h9.5v2.4h2.4v16.7h-4.8v-7.2h-4.8V-699.9z M4165.5-711.8v-2.4h-4.8v2.4
			H4165.5z"/>
		<path class="st4" d="M4175-702.3h-2.4v-14.3h2.4v-2.4h11.9v4.8h-9.5v9.5h4.8v-2.4h-2.4v-4.8h7.2v11.9H4175V-702.3z"/>
		<path class="st4" d="M4194.1-699.9h-4.8v-16.7h2.4v-2.4h9.5v2.4h2.4v16.7h-4.8v-7.2h-4.8V-699.9z M4198.8-711.8v-2.4h-4.8v2.4
			H4198.8z"/>
		<path class="st4" d="M4206-719h14.3v4.8h-4.8v9.5h4.8v4.8H4206v-4.8h4.8v-9.5h-4.8V-719z"/>
		<path class="st4" d="M4229.8-709.4h-2.4v9.5h-4.8V-719h4.8v2.4h2.4v2.4h2.4v-4.8h4.8v19.1h-4.8v-7.2h-2.4V-709.4z"/>
	</g>
</g>
<g>
	<polygon class="st2" points="3798.1,-644.7 3791.2,-644.7 3532.5,-644.7 3532.5,-637.7 3525.6,-637.7 3525.6,-597.8 3532.5,-597.8 
		3532.5,-590.9 3791.2,-590.9 3798.1,-590.9 3798.1,-597.8 3805.1,-597.8 3805.1,-637.7 3798.1,-637.7 	"/>
	<polygon class="st2" points="3798.1,-644.6 3791.2,-644.6 3532.5,-644.6 3532.5,-637.6 3525.6,-637.6 3525.6,-597.7 3532.5,-597.7 
		3532.5,-590.8 3791.2,-590.8 3798.1,-590.8 3798.1,-597.7 3805.1,-597.7 3805.1,-637.6 3798.1,-637.6 	"/>
	<g>
		<path class="st4" d="M3576.2-609.5h-11.9v-19.1h11.9v2.4h2.4v4.8h-2.4v4.8h2.4v4.8h-2.4V-609.5z M3569.1-621.4h4.8v-2.4h-4.8
			V-621.4z M3569.1-614.2h4.8v-2.4h-4.8V-614.2z"/>
		<path class="st4" d="M3585.8-609.5h-4.8v-16.7h2.4v-2.4h9.5v2.4h2.4v16.7h-4.8v-7.2h-4.8V-609.5z M3590.5-621.4v-2.4h-4.8v2.4
			H3590.5z"/>
		<path class="st4" d="M3597.7-626.2h2.4v-2.4h11.9v4.8h-9.5v9.5h9.5v4.8h-11.9v-2.4h-2.4V-626.2z"/>
		<path class="st4" d="M3619.2-609.5h-4.8v-19.1h4.8v4.8h2.4v-2.4h2.4v-2.4h4.8v4.8h-2.4v2.4h-2.4v4.8h2.4v2.4h2.4v4.8h-4.8v-2.4
			h-2.4v-2.4h-2.4V-609.5z"/>
		<path class="st4" d="M3647.8-628.5h14.3v4.8h-4.8v14.3h-4.8v-14.3h-4.8V-628.5z"/>
		<path class="st4" d="M3664.5-626.2h2.4v-2.4h9.5v2.4h2.4v14.3h-2.4v2.4h-9.5v-2.4h-2.4V-626.2z M3669.2-614.2h4.8v-9.5h-4.8
			V-614.2z"/>
		<path class="st4" d="M3702.6-609.5h-4.8v-19.1h4.8v2.4h2.4v2.4h2.4v-2.4h2.4v-2.4h4.8v19.1h-4.8v-9.5h-2.4v2.4h-2.4v-2.4h-2.4
			V-609.5z"/>
		<path class="st4" d="M3719.3-611.9h-2.4v-14.3h2.4v-2.4h11.9v4.8h-9.5v2.4h4.8v4.8h-4.8v2.4h9.5v4.8h-11.9V-611.9z"/>
		<path class="st4" d="M3740.8-619h-2.4v9.5h-4.8v-19.1h4.8v2.4h2.4v2.4h2.4v-4.8h4.8v19.1h-4.8v-7.2h-2.4V-619z"/>
		<path class="st4" d="M3750.3-628.5h4.8v14.3h4.8v-14.3h4.8v16.7h-2.4v2.4h-9.5v-2.4h-2.4V-628.5z"/>
	</g>
</g>
<g>
	<path class="st4" d="M27.7,58.6h-1.3v3.9h-2.6V52.1h6.5v1.3h1.3v3.9h-1.3v1.3h1.3v3.9H29v-2.6h-1.3V58.6z M26.4,56H29v-1.3h-2.6V56
		z"/>
	<path class="st4" d="M34.2,61.2h-1.3v-7.8h1.3v-1.3h6.5v2.6h-5.2V56h2.6v2.6h-2.6v1.3h5.2v2.6h-6.5V61.2z"/>
	<path class="st4" d="M44.6,62.5H42v-9.1h1.3v-1.3h5.2v1.3h1.3v9.1h-2.6v-3.9h-2.6V62.5z M47.2,56v-1.3h-2.6V56H47.2z"/>
	<path class="st4" d="M56.2,62.5H51V52.1h5.2v1.3h1.3v1.3h1.3v5.2h-1.3v1.3h-1.3V62.5z M54.9,54.7h-1.3v5.2h1.3v-1.3h1.3V56h-1.3
		V54.7z"/>
	<path class="st4" d="M60.1,52.1h2.6V56h2.6v-3.9h2.6v5.2h-1.3v1.3h-1.3v3.9h-2.6v-3.9h-1.3v-1.3h-1.3V52.1z"/>
	<path class="st4" d="M78.3,52.1H86v2.6h-2.6v7.8h-2.6v-7.8h-2.6V52.1z"/>
	<path class="st4" d="M87.3,53.4h1.3v-1.3h5.2v1.3h1.3v7.8h-1.3v1.3h-5.2v-1.3h-1.3V53.4z M89.9,59.9h2.6v-5.2h-2.6V59.9z"/>
	<path class="st4" d="M106.8,61.2h-1.3v-7.8h1.3v-1.3h6.5v2.6h-5.2v5.2h2.6v-1.3h-1.3V56h3.9v6.5h-6.5V61.2z"/>
	<path class="st4" d="M114.6,53.4h1.3v-1.3h5.2v1.3h1.3v7.8H121v1.3h-5.2v-1.3h-1.3V53.4z M117.1,59.9h2.6v-5.2h-2.6V59.9z"/>
	<path class="st4" d="M123.6,52.1h2.6v6.5h-2.6V52.1z M123.6,59.9h2.6v2.6h-2.6V59.9z"/>
</g>
<g>
	<path class="st4" d="M27.7,18.6h-1.3v3.9h-2.6V12.2h6.5v1.3h1.3v3.9h-1.3v1.3h1.3v3.9H29v-2.6h-1.3V18.6z M26.4,16H29v-1.3h-2.6V16
		z"/>
	<path class="st4" d="M34.2,21.2h-1.3v-7.8h1.3v-1.3h6.5v2.6h-5.2V16h2.6v2.6h-2.6v1.3h5.2v2.6h-6.5V21.2z"/>
	<path class="st4" d="M44.6,22.5H42v-9.1h1.3v-1.3h5.2v1.3h1.3v9.1h-2.6v-3.9h-2.6V22.5z M47.2,16v-1.3h-2.6V16H47.2z"/>
	<path class="st4" d="M56.2,22.5H51V12.2h5.2v1.3h1.3v1.3h1.3v5.2h-1.3v1.3h-1.3V22.5z M54.9,14.8h-1.3v5.2h1.3v-1.3h1.3V16h-1.3
		V14.8z"/>
	<path class="st4" d="M60.1,12.2h2.6V16h2.6v-3.9h2.6v5.2h-1.3v1.3h-1.3v3.9h-2.6v-3.9h-1.3v-1.3h-1.3V12.2z"/>
	<path class="st4" d="M78.3,12.2H86v2.6h-2.6v7.8h-2.6v-7.8h-2.6V12.2z"/>
	<path class="st4" d="M87.3,13.5h1.3v-1.3h5.2v1.3h1.3v7.8h-1.3v1.3h-5.2v-1.3h-1.3V13.5z M89.9,19.9h2.6v-5.2h-2.6V19.9z"/>
	<path class="st4" d="M106.8,21.2h-1.3v-7.8h1.3v-1.3h6.5v2.6h-5.2v5.2h2.6v-1.3h-1.3V16h3.9v6.5h-6.5V21.2z"/>
	<path class="st4" d="M114.6,13.5h1.3v-1.3h5.2v1.3h1.3v7.8H121v1.3h-5.2v-1.3h-1.3V13.5z M117.1,19.9h2.6v-5.2h-2.6V19.9z"/>
	<path class="st4" d="M123.6,12.2h2.6v6.5h-2.6V12.2z M123.6,19.9h2.6v2.6h-2.6V19.9z"/>
</g>
</svg>
