<!-- Generator: Adobe Illustrator 19.2.1, SVG Export Plug-In  -->
<svg version="1.1"
	 xmlns="http://www.w3.org/2000/svg" xmlns:xlink="http://www.w3.org/1999/xlink" xmlns:a="http://ns.adobe.com/AdobeSVGViewerExtensions/3.0/"
	 x="0px" y="0px" width="93.8px" height="20.4px" viewBox="0 0 93.8 20.4" style="enable-background:new 0 0 93.8 20.4;"
	 xml:space="preserve">
<style type="text/css">
	.st0{fill:#910E46;}
	.st1{fill:#EE3D53;}
	.st2{fill:#FFFFFF;}
</style>
<defs>
</defs>
<g>
	<g>
		<polygon class="st0" points="91.5,2.3 89.2,2.3 2.3,2.3 2.3,4.6 0,4.6 0,18 2.3,18 2.3,20.4 89.2,20.4 91.5,20.4 91.5,18 93.8,18
			93.8,4.6 91.5,4.6 		"/>
		<polygon class="st1" points="91.5,0 89.2,0 2.3,0 2.3,2.3 0,2.3 0,15.7 2.3,15.7 2.3,18 89.2,18 91.5,18 91.5,15.7 93.8,15.7
			93.8,2.3 91.5,2.3 		"/>
	</g>
	<g>
		<rect x="3.9" y="1.8" class="st2" width="8.3" height="1.1"/>
		<rect x="13.3" y="1.8" class="st2" width="1.1" height="1.1"/>
	</g>
</g>
<g>
	<path class="st2" d="M17.5,10.5h-0.8V13h-1.6V6.4h4.1v0.8H20v2.5h-0.8v0.8H20V13h-1.6v-1.6h-0.8L17.5,10.5L17.5,10.5z M16.7,8.9
		h1.6V8h-1.6V8.9z"/>
	<path class="st2" d="M21.6,12.2h-0.8V7.2h0.8V6.4h4.1V8h-3.3v0.8h1.6v1.6h-1.6v0.8h3.3V13h-4.1V12.2z"/>
	<path class="st2" d="M28.2,13h-1.6V7.2h0.8V6.4h3.3v0.8h0.8V13h-1.6v-2.5h-1.6L28.2,13L28.2,13z M29.9,8.9V8h-1.6v0.8H29.9z"/>
	<path class="st2" d="M35.6,13h-3.3V6.4h3.3v0.8h0.8V8h0.8v3.3h-0.8v0.8h-0.8V13z M34.8,8h-0.8v3.3h0.8v-0.8h0.8V8.9h-0.8V8z"/>
	<path class="st2" d="M38,6.4h1.6v2.5h1.6V6.4H43v3.3h-0.8v0.8h-0.8V13h-1.6v-2.5h-0.8V9.7H38L38,6.4L38,6.4z"/>
	<path class="st2" d="M49.6,6.4h4.9V8h-1.6V13h-1.6V8h-1.6L49.6,6.4L49.6,6.4z"/>
	<path class="st2" d="M55.3,7.2h0.8V6.4h3.3v0.8h0.8v4.9h-0.8V13h-3.3v-0.8h-0.8V7.2z M56.9,11.3h1.6V8h-1.6V11.3z"/>
	<path class="st2" d="M67.6,12.2h-0.8V7.2h0.8V6.4h4.1V8h-3.3v3.3h1.6v-0.8h-0.8V8.9h2.5V13h-4.1V12.2z"/>
	<path class="st2" d="M72.5,7.2h0.8V6.4h3.3v0.8h0.8v4.9h-0.8V13h-3.3v-0.8h-0.8V7.2z M74.1,11.3h1.6V8h-1.6V11.3z"/>
	<path class="st2" d="M78.2,6.4h1.6v4.1h-1.6V6.4z M78.2,11.3h1.6V13h-1.6V11.3z"/>
</g>
</svg>
