<?xml version="1.0" encoding="utf-8"?>
<!-- Generator: Adobe Illustrator 22.0.1, SVG Export Plug-In . SVG Version: 6.00 Build 0)  -->
<svg version="1.1" id="Layer_1" xmlns="http://www.w3.org/2000/svg" xmlns:xlink="http://www.w3.org/1999/xlink" x="0px" y="0px"
	 width="148.2px" height="32.2px" viewBox="0 0 148.2 32.2" style="enable-background:new 0 0 148.2 32.2;" xml:space="preserve">
<style type="text/css">
	.st0{fill:#5895B7;}
	.st1{opacity:0.8;}
	.st2{fill:#C17620;}
	.st3{fill:#F4C24A;}
	.st4{fill:#FFFFFF;}
	.st5{fill:#2A6FBA;}
	.st6{fill:#4ABAEF;}
	.st7{fill:#95C9C8;}
	.st8{fill:#DDEFEE;}
	.st9{fill:#1B8E6F;}
	.st10{fill:#3CEA8A;}
	.st11{opacity:0.4;fill:#666666;}
	.st12{fill:#33BC6E;}
	.st13{fill:none;}
	.st14{fill:#7149A4;}
	.st15{fill:#BD86E0;}
	.st16{opacity:0.4;fill:#666666;stroke:#666666;stroke-width:4;stroke-linejoin:bevel;stroke-miterlimit:10;}
	.st17{fill:#F2F2F2;}
	.st18{fill:#E6E6E6;}
	.st19{fill:none;stroke:#000000;stroke-width:4;stroke-linejoin:bevel;stroke-miterlimit:10;}
	.st20{fill:#C6E0DE;}
	.st21{fill:#A7C6C3;}
	.st22{fill:#910E46;}
	.st23{fill:#EE3D53;}
	.st24{fill:none;stroke:#000000;stroke-width:2;stroke-miterlimit:10;}
	.st25{fill:#A17559;}
	.st26{fill:#238D6F;}
	.st27{fill:#704CA2;}
	.st28{fill:#47E88D;}
	.st29{fill:#BC88DE;}
	.st30{fill:#CCCCCC;}
	.st31{fill:#5B2616;}
	.st32{opacity:0.38;fill:#2D3D3E;}
	.st33{opacity:0.38;}
	.st34{fill:#2D3D3E;}
	.st35{fill:#3F180F;}
	.st36{fill:#1A1A1A;}
	.st37{fill:#38140C;}
</style>
<g>
	<rect x="352.1" y="463.9" class="st0" width="484" height="82"/>
	<rect x="804.1" y="537.9" class="st0" width="107" height="30"/>
	<g class="st1">
		<g>
			<polygon class="st0" points="368.1,483.9 368.1,565.9 272.1,565.9 272.1,554.9 284.1,554.9 284.1,542.9 296.1,542.9 296.1,530.9 
				308.1,530.9 308.1,518.9 296.1,518.9 296.1,506.9 284.1,506.9 284.1,494.9 272.1,494.9 272.1,483.9 			"/>
		</g>
		<polygon class="st0" points="354.1,541.9 368.1,564.9 368.1,541.9 		"/>
	</g>
	<g>
		<g>
			<polygon class="st2" points="815.1,475.9 815.1,557.9 911.1,557.9 911.1,546.9 899.1,546.9 899.1,534.9 887.1,534.9 887.1,522.9 
				875.1,522.9 875.1,510.9 887.1,510.9 887.1,498.9 899.1,498.9 899.1,486.9 911.1,486.9 911.1,475.9 			"/>
			<polygon class="st3" points="815.1,464.9 815.1,546.9 911.1,546.9 911.1,535.9 899.1,535.9 899.1,523.9 887.1,523.9 887.1,511.9 
				875.1,511.9 875.1,499.9 887.1,499.9 887.1,487.9 899.1,487.9 899.1,475.9 911.1,475.9 911.1,464.9 			"/>
		</g>
		<polygon class="st2" points="829.1,533.9 815.1,556.9 815.2,533.9 		"/>
		<g>
			<g>
				<polygon class="st2" points="359.1,475.9 359.1,557.9 263.1,557.9 263.1,546.9 275.1,546.9 275.1,534.9 287.1,534.9 
					287.1,522.9 299.1,522.9 299.1,510.9 287.1,510.9 287.1,498.9 275.1,498.9 275.1,486.9 263.1,486.9 263.1,475.9 				"/>
				<polygon class="st3" points="359.1,464.9 359.1,546.9 263.1,546.9 263.1,535.9 275.1,535.9 275.1,523.9 287.1,523.9 
					287.1,511.9 299.1,511.9 299.1,499.9 287.1,499.9 287.1,487.9 275.1,487.9 275.1,475.9 263.1,475.9 263.1,464.9 				"/>
			</g>
			<polygon class="st2" points="345.1,533.9 359.1,556.9 359.1,533.9 			"/>
		</g>
		<g>
			<rect x="345.1" y="451.9" class="st2" width="484" height="82"/>
			<rect x="345.1" y="439.9" class="st3" width="484" height="82"/>
		</g>
	</g>
	<g>
		<path class="st4" d="M415.7,499.7h-8.6v-34.6h8.6v13h8.6v-13h8.6v34.6h-8.6v-13h-8.6V499.7z"/>
		<path class="st4" d="M437.3,469.5h4.3v-4.3h17.3v4.3h4.3v25.9h-4.3v4.3h-17.3v-4.3h-4.3V469.5z M446,491.1h8.6v-17.3H446V491.1z"
			/>
		<path class="st4" d="M476.2,499.7h-8.6v-34.6h8.6v17.3h4.3v-4.3h4.3v4.3h4.3v-17.3h8.6v34.6h-8.6v-4.3h-4.3v-4.3h-4.3v4.3h-4.3
			V499.7z"/>
		<path class="st4" d="M532.4,465.2h25.9v8.6h-8.6v25.9H541v-25.9h-8.6V465.2z"/>
		<path class="st4" d="M562.6,469.5h4.3v-4.3h17.3v4.3h4.3v25.9h-4.3v4.3h-17.3v-4.3h-4.3V469.5z M571.2,491.1h8.6v-17.3h-8.6V491.1
			z"/>
		<path class="st4" d="M631.7,499.7h-8.6v-34.6h21.6v4.3h4.3v13h-4.3v4.3h-13V499.7z M631.7,478.1h8.6v-4.3h-8.6V478.1z"/>
		<path class="st4" d="M657.6,495.4h-4.3v-30.2h8.6v25.9h17.3v8.6h-21.6V495.4z"/>
		<path class="st4" d="M692.2,499.7h-8.6v-30.2h4.3v-4.3h17.3v4.3h4.3v30.2h-8.6v-13h-8.6V499.7z M700.8,478.1v-4.3h-8.6v4.3H700.8z
			"/>
		<path class="st4" d="M713.8,465.2h8.6v13h8.6v-13h8.6v17.3h-4.3v4.3h-4.3v13h-8.6v-13h-4.3v-4.3h-4.3V465.2z"/>
	</g>
</g>
<polygon class="st5" points="521.1,732.9 509.1,732.9 436.1,732.9 436.1,744.9 424.1,744.9 424.1,829.9 436.1,829.9 436.1,841.9 
	509.1,841.9 521.1,841.9 521.1,829.9 533.1,829.9 533.1,744.9 521.1,744.9 "/>
<polygon class="st5" points="521.1,732.9 509.1,732.9 436.1,732.9 436.1,744.9 424.1,744.9 424.1,829.9 436.1,829.9 436.1,841.9 
	509.1,841.9 521.1,841.9 521.1,829.9 533.1,829.9 533.1,744.9 521.1,744.9 "/>
<g>
	<path class="st4" d="M460.7,767.2h28.4v5.7h5.7v17.1h-5.7v5.7h-17.1v-11.4h11.4v-5.7h-22.8V767.2z M472.1,801.3h11.4v11.4h-11.4
		V801.3z"/>
</g>
<polygon class="st5" points="672.1,732.9 660.1,732.9 587.1,732.9 587.1,744.9 575.1,744.9 575.1,829.9 587.1,829.9 587.1,841.9 
	660.1,841.9 672.1,841.9 672.1,829.9 684.1,829.9 684.1,744.9 672.1,744.9 "/>
<polygon class="st6" points="672.1,722.9 660.1,722.9 587.1,722.9 587.1,734.9 575.1,734.9 575.1,819.9 587.1,819.9 587.1,831.9 
	660.1,831.9 672.1,831.9 672.1,819.9 684.1,819.9 684.1,734.9 672.1,734.9 "/>
<g>
	<path class="st4" d="M611.7,757.2h28.4v5.7h5.7v17.1h-5.7v5.7h-17.1v-11.4h11.4v-5.7h-22.8V757.2z M623.1,791.3h11.4v11.4h-11.4
		V791.3z"/>
</g>
<g>
	<polygon class="st0" points="1707.1,577.5 1695.5,577.5 1695.5,565.8 1684,565.8 1684,553 1185.2,553 1185.2,565.8 1173.7,565.8 
		1173.7,577.5 1162.1,577.5 1162.1,1262.2 1173.7,1262.2 1173.7,1273.8 1185.2,1273.8 1185.2,1286.6 1684,1286.6 1684,1273.8 
		1695.5,1273.8 1695.5,1262.2 1707.1,1262.2 	"/>
	<polygon class="st7" points="1707.1,565.4 1695.5,565.4 1695.5,553.8 1684,553.8 1684,541 1185.2,541 1185.2,553.8 1173.7,553.8 
		1173.7,565.4 1162.1,565.4 1162.1,1250.2 1173.7,1250.2 1173.7,1261.8 1185.2,1261.8 1185.2,1274.6 1684,1274.6 1684,1261.8 
		1695.5,1261.8 1695.5,1250.2 1707.1,1250.2 	"/>
	<polygon class="st8" points="1707.1,553.4 1695.5,553.4 1695.5,541.8 1684,541.8 1684,529 1185.2,529 1185.2,541.8 1173.7,541.8 
		1173.7,553.4 1162.1,553.4 1162.1,1238.1 1173.7,1238.1 1173.7,1249.8 1185.2,1249.8 1185.2,1262.6 1684,1262.6 1684,1249.8 
		1695.5,1249.8 1695.5,1238.1 1707.1,1238.1 	"/>
</g>
<g>
	<polygon class="st0" points="221.1,-1415.1 217,-1415.1 217,-1419.2 213,-1419.2 213,-1423.7 36.7,-1423.7 36.7,-1419.2 
		32.7,-1419.2 32.7,-1415.1 28.6,-1415.1 28.6,-1173.2 32.7,-1173.2 32.7,-1169 36.7,-1169 36.7,-1164.5 213,-1164.5 213,-1169 
		217,-1169 217,-1173.2 221.1,-1173.2 	"/>
	<polygon class="st7" points="221.1,-1419.4 217,-1419.4 217,-1423.5 213,-1423.5 213,-1428 36.7,-1428 36.7,-1423.5 32.7,-1423.5 
		32.7,-1419.4 28.6,-1419.4 28.6,-1177.4 32.7,-1177.4 32.7,-1173.3 36.7,-1173.3 36.7,-1168.8 213,-1168.8 213,-1173.3 
		217,-1173.3 217,-1177.4 221.1,-1177.4 	"/>
	<polygon class="st8" points="221.1,-1423.6 217,-1423.6 217,-1427.7 213,-1427.7 213,-1432.2 36.7,-1432.2 36.7,-1427.7 
		32.7,-1427.7 32.7,-1423.6 28.6,-1423.6 28.6,-1181.7 32.7,-1181.7 32.7,-1177.5 36.7,-1177.5 36.7,-1173 213,-1173 213,-1177.5 
		217,-1177.5 217,-1181.7 221.1,-1181.7 	"/>
</g>
<g>
	<polygon class="st9" points="658.1,213 648.1,213 273.2,213 273.2,223 263.1,223 263.1,280.9 273.2,280.9 273.2,291 648.1,291 
		658.1,291 658.1,280.9 668.2,280.9 668.2,223 658.1,223 	"/>
	<polygon class="st10" points="658.1,203 648.1,203 273.2,203 273.2,213 263.1,213 263.1,270.9 273.2,270.9 273.2,281 648.1,281 
		658.1,281 658.1,270.9 668.2,270.9 668.2,213 658.1,213 	"/>
	<g>
		<path class="st4" d="M383.2,253.8h-6.9v-27.6h17.3v3.5h3.5V240h-3.5v3.5h-10.4V253.8z M383.2,236.6h6.9v-3.5h-6.9V236.6z"/>
		<path class="st4" d="M403.9,250.4h-3.5v-24.2h6.9v20.7h13.8v6.9h-17.3V250.4z"/>
		<path class="st4" d="M431.5,253.8h-6.9v-24.2h3.5v-3.5h13.8v3.5h3.5v24.2h-6.9v-10.4h-6.9V253.8z M438.5,236.6v-3.5h-6.9v3.5
			H438.5z"/>
		<path class="st4" d="M448.8,226.2h6.9v10.4h6.9v-10.4h6.9V240h-3.5v3.5h-3.5v10.4h-6.9v-10.4h-3.5V240h-3.5V226.2z"/>
		<path class="st4" d="M476.5,250.4H473v-20.7h3.5v-3.5h17.3v6.9h-13.8v3.5h6.9v6.9h-6.9v3.5h13.8v6.9h-17.3V250.4z"/>
		<path class="st4" d="M507.6,243.5h-3.5v10.4h-6.9v-27.6h17.3v3.5h3.5V240h-3.5v3.5h3.5v10.4H511v-6.9h-3.5V243.5z M504.1,236.6
			h6.9v-3.5h-6.9V236.6z"/>
		<path class="st4" d="M545.6,226.2h6.9v27.6h-6.9V226.2z"/>
	</g>
</g>
<g>
	<polygon class="st11" points="297.3,92.4 295.3,86.6 291.3,74.6 273.5,80.6 275.4,86.4 269.7,88.3 273.7,100.3 279.5,98.4 
		281.4,104.2 293.5,100.1 291.5,94.3 	"/>
	<polygon class="st11" points="336.1,80.3 334.1,74.5 330.1,62.5 312.3,68.5 314.2,74.3 308.4,76.3 312.5,88.3 318.3,86.3 
		320.2,92.1 332.3,88 330.3,82.3 	"/>
	<rect x="276.5" y="33.3" transform="matrix(0.9472 -0.3207 0.3207 0.9472 -2.0849 92.6095)" width="7.1" height="38.6"/>
	<polygon points="295.7,87.6 293.7,81.8 289.6,69.8 271.8,75.8 273.8,81.6 268,83.5 272.1,95.5 277.9,93.6 279.8,99.4 291.8,95.3 
		289.9,89.5 	"/>
	<rect x="315" y="20.3" transform="matrix(0.9472 -0.3207 0.3207 0.9472 4.1251 104.2592)" width="7.1" height="38.6"/>
	<polygon points="334.1,74.5 332.2,68.8 328.1,56.7 310.3,62.8 312.3,68.5 306.5,70.5 310.6,82.5 316.3,80.6 318.3,86.3 330.3,82.3 
		328.4,76.5 	"/>
	<rect x="266.5" y="11" transform="matrix(0.9472 -0.3207 0.3207 0.9472 9.0293 94.165)" width="47.7" height="17.3"/>
</g>
<g>
	<polygon class="st11" points="363.5,125.9 364.4,121.8 366.3,113.2 353.5,110.3 352.6,114.5 348.5,113.6 346.6,122.2 350.7,123.1 
		349.8,127.3 358.4,129.2 359.3,125 	"/>
	<polygon class="st11" points="391,132.7 391.9,128.6 393.8,119.9 381,117.1 380.1,121.3 376,120.4 374.1,129 378.2,129.9 
		377.3,134.1 385.9,136 386.9,131.8 	"/>
	<rect x="365.1" y="82.6" transform="matrix(0.9766 0.2149 -0.2149 0.9766 29.2205 -76.7373)" width="5" height="26.9"/>
	<polygon points="364.3,122.5 365.2,118.3 367.1,109.7 354.3,106.9 353.4,111 349.2,110.1 347.3,118.8 351.5,119.7 350.6,123.8 
		359.2,125.7 360.1,121.6 	"/>
	<rect x="392.7" y="88.7" transform="matrix(0.9766 0.2149 -0.2149 0.9766 31.1746 -82.5393)" width="5" height="26.9"/>
	<polygon points="391.9,128.6 392.8,124.4 394.7,115.8 381.9,113 381,117.1 376.9,116.2 375,124.8 379.1,125.8 378.2,129.9 
		386.9,131.8 387.8,127.7 	"/>
	<rect x="368.9" y="74" transform="matrix(0.9766 0.2149 -0.2149 0.9766 26.2087 -80.9817)" width="33.3" height="12"/>
</g>
<g>
	<polygon class="st11" points="439.5,64.1 438.8,61.1 437.4,54.8 428,56.8 428.7,59.9 425.7,60.6 427.1,66.9 430.1,66.2 430.8,69.3 
		437.1,67.9 436.5,64.8 	"/>
	<polygon class="st11" points="459.9,60.1 459.3,57.1 457.8,50.7 448.5,52.8 449.1,55.9 446.1,56.6 447.5,62.9 450.5,62.2 
		451.2,65.3 457.6,63.9 456.9,60.8 	"/>
	<rect x="431.1" y="33.1" transform="matrix(0.9761 -0.2173 0.2173 0.9761 1.0075 95.0981)" width="3.6" height="19.8"/>
	<polygon points="439,61.6 438.3,58.6 436.9,52.2 427.5,54.3 428.1,57.4 425.1,58 426.5,64.4 429.6,63.7 430.2,66.7 436.6,65.3 
		435.9,62.3 	"/>
	<rect x="451.4" y="28.6" transform="matrix(0.9761 -0.2173 0.2173 0.9761 2.475 99.4029)" width="3.6" height="19.8"/>
	<polygon points="459.3,57.1 458.6,54 457.2,47.7 447.8,49.8 448.5,52.8 445.4,53.5 446.8,59.9 449.9,59.2 450.5,62.2 456.9,60.8 
		456.2,57.8 	"/>
	<rect x="427.8" y="22.3" transform="matrix(0.9761 -0.2173 0.2173 0.9761 4.7007 96.2416)" width="24.4" height="8.8"/>
</g>
<g>
	<polygon class="st11" points="460.1,109.9 462.7,105.8 468.2,97.2 455.5,89.2 452.9,93.3 448.8,90.7 443.3,99.2 447.4,101.9 
		444.8,106 453.4,111.4 456,107.3 	"/>
	<polygon class="st11" points="487.1,128 489.7,123.9 495.2,115.3 482.5,107.3 479.9,111.4 475.8,108.8 470.3,117.4 474.4,120 
		471.8,124.1 480.4,129.5 483,125.4 	"/>
	<rect x="473.4" y="63.8" transform="matrix(0.844 0.5363 -0.5363 0.844 116.7844 -243.0511)" width="5.7" height="30.9"/>
	<polygon points="462.3,106.5 464.9,102.4 470.4,93.8 457.7,85.7 455.1,89.9 450.9,87.2 445.5,95.8 449.6,98.4 447,102.5 455.6,108 
		458.2,103.9 	"/>
	<rect x="500.8" y="81.2" transform="matrix(0.844 0.5363 -0.5363 0.844 130.4089 -255.042)" width="5.7" height="30.9"/>
	<polygon points="489.7,123.9 492.3,119.8 497.8,111.2 485.1,103.2 482.5,107.3 478.4,104.7 472.9,113.2 477,115.9 474.4,120 
		483,125.4 485.6,121.3 	"/>
	<rect x="482.8" y="62.2" transform="matrix(0.844 0.5363 -0.5363 0.844 115.353 -258.4134)" width="38.2" height="13.8"/>
</g>
<g>
	<polygon class="st9" points="181.4,-330.5 174.8,-330.5 -71.6,-330.5 -71.6,-323.9 -78.2,-323.9 -78.2,-285.9 -71.6,-285.9 
		-71.6,-279.2 174.8,-279.2 181.4,-279.2 181.4,-285.9 188,-285.9 188,-323.9 181.4,-323.9 	"/>
	<polygon class="st12" points="181.4,-330.5 174.8,-330.5 -71.6,-330.5 -71.6,-323.9 -78.2,-323.9 -78.2,-285.9 -71.6,-285.9 
		-71.6,-279.2 174.8,-279.2 181.4,-279.2 181.4,-285.9 188,-285.9 188,-323.9 181.4,-323.9 	"/>
	<g>
		<path class="st4" d="M-11.8-313h2.3v-2.3H1.8v4.5h-9.1v9.1h9.1v4.5H-9.5v-2.3h-2.3V-313z"/>
		<path class="st4" d="M8.6-297.1H4.1V-313h2.3v-2.3h9.1v2.3h2.3v15.9h-4.5v-6.8H8.6V-297.1z M13.2-308.4v-2.3H8.6v2.3H13.2z"/>
		<path class="st4" d="M22.2-299.3H20v-15.9h4.5v13.6h9.1v4.5H22.2V-299.3z"/>
		<path class="st4" d="M35.9-315.2h4.5v18.2h-4.5V-315.2z"/>
		<path class="st4" d="M42.7-315.2H54v2.3h2.3v13.6H54v2.3H42.7V-315.2z M47.2-308.4h4.5v-2.3h-4.5V-308.4z M47.2-301.6h4.5v-2.3
			h-4.5V-301.6z"/>
		<path class="st4" d="M65.4-303.9h-2.3v6.8h-4.5V-313h2.3v-2.3h9.1v2.3h2.3v6.8h-2.3v2.3h2.3v6.8h-4.5v-4.5h-2.3V-303.9z
			 M63.1-308.4h4.5v-2.3h-4.5V-308.4z"/>
		<path class="st4" d="M79-297.1h-4.5V-313h2.3v-2.3h9.1v2.3h2.3v15.9h-4.5v-6.8H79V-297.1z M83.6-308.4v-2.3H79v2.3H83.6z"/>
		<path class="st4" d="M90.4-315.2H104v4.5h-4.5v13.6h-4.5v-13.6h-4.5V-315.2z"/>
		<path class="st4" d="M108.5-299.3h-2.3V-313h2.3v-2.3h11.4v4.5h-9.1v2.3h4.5v4.5h-4.5v2.3h9.1v4.5h-11.4V-299.3z"/>
	</g>
</g>
<g>
	<polygon class="st9" points="501.4,-262.5 494.8,-262.5 248.4,-262.5 248.4,-255.9 241.8,-255.9 241.8,-217.9 248.4,-217.9 
		248.4,-211.2 494.8,-211.2 501.4,-211.2 501.4,-217.9 508,-217.9 508,-255.9 501.4,-255.9 	"/>
	<polygon class="st10" points="501.4,-269.1 494.8,-269.1 248.4,-269.1 248.4,-262.5 241.8,-262.5 241.8,-224.4 248.4,-224.4 
		248.4,-217.8 494.8,-217.8 501.4,-217.8 501.4,-224.4 508,-224.4 508,-262.5 501.4,-262.5 	"/>
	<g>
		<path class="st4" d="M308.2-251.5h2.3v-2.3h11.4v4.5h-9.1v9.1h9.1v4.5h-11.4v-2.3h-2.3V-251.5z"/>
		<path class="st4" d="M328.6-235.6h-4.5v-15.9h2.3v-2.3h9.1v2.3h2.3v15.9h-4.5v-6.8h-4.5V-235.6z M333.2-247v-2.3h-4.5v2.3H333.2z"
			/>
		<path class="st4" d="M342.2-237.9H340v-15.9h4.5v13.6h9.1v4.5h-11.4V-237.9z"/>
		<path class="st4" d="M355.9-253.8h4.5v18.2h-4.5V-253.8z"/>
		<path class="st4" d="M362.7-253.8H374v2.3h2.3v13.6H374v2.3h-11.4V-253.8z M367.2-247h4.5v-2.3h-4.5V-247z M367.2-240.2h4.5v-2.3
			h-4.5V-240.2z"/>
		<path class="st4" d="M385.4-242.5h-2.3v6.8h-4.5v-15.9h2.3v-2.3h9.1v2.3h2.3v6.8h-2.3v2.3h2.3v6.8h-4.5v-4.5h-2.3V-242.5z
			 M383.1-247h4.5v-2.3h-4.5V-247z"/>
		<path class="st4" d="M399-235.6h-4.5v-15.9h2.3v-2.3h9.1v2.3h2.3v15.9h-4.5v-6.8H399V-235.6z M403.6-247v-2.3H399v2.3H403.6z"/>
		<path class="st4" d="M410.4-253.8H424v4.5h-4.5v13.6h-4.5v-13.6h-4.5V-253.8z"/>
		<path class="st4" d="M428.5-237.9h-2.3v-13.6h2.3v-2.3h11.4v4.5h-9.1v2.3h4.5v4.5h-4.5v2.3h9.1v4.5h-11.4V-237.9z"/>
	</g>
</g>
<g>
	<rect x="243.4" y="-180.2" class="st9" width="219.8" height="28.8"/>
	<rect x="238.5" y="-186.7" class="st9" width="229.4" height="30.6"/>
	<polygon class="st10" points="238.5,-191.1 238.5,-161.8 243.4,-161.8 243.4,-156.1 463.1,-156.1 463.1,-161.8 467.9,-161.8 
		467.9,-191.1 	"/>
</g>
<polygon class="st9" points="458.3,-176.2 458.3,-181.3 453.2,-181.3 453.2,-181.4 396.6,-181.4 366,-181.4 340.4,-181.4 
	316.6,-181.4 253.2,-181.4 253.2,-181.4 248.1,-181.4 248.1,-176.3 243,-176.3 243,-168.6 248.1,-168.6 248.1,-163.5 253.2,-163.5 
	253.2,-163.4 316.6,-163.4 340.4,-163.4 366,-163.4 396.6,-163.4 453.2,-163.4 453.2,-163.5 458.3,-163.5 458.3,-168.6 
	463.4,-168.6 463.4,-176.2 "/>
<g>
	<rect x="234.4" y="-82.1" class="st13" width="4.7" height="0.1"/>
	<rect x="234.4" y="-64.2" class="st13" width="4.7" height="0.1"/>
	<polygon class="st4" points="255.4,-64.2 255.4,-69.3 260.5,-69.3 260.5,-76.9 255.4,-76.9 255.4,-82 250.4,-82 250.4,-82.1 
		239.2,-82.1 239.2,-82.1 234.4,-82.1 234.4,-64.2 239.2,-64.2 239.2,-64.1 250.4,-64.1 250.4,-64.2 	"/>
</g>
<g>
	<polygon class="st4" points="208.6,-117.7 208.6,-122.8 203.5,-122.8 203.5,-122.9 187.6,-122.9 187.6,-104.9 203.5,-104.9 
		203.5,-104.9 208.6,-104.9 208.6,-110 213.7,-110 213.7,-117.7 	"/>
	<polygon class="st4" points="195.1,-78.8 195.1,-83.9 195.1,-83.9 195.1,-84 190.6,-84 190,-84 185.5,-84 185.5,-84 185.5,-84 
		185.5,-78.9 180.4,-78.9 180.4,-71.2 185.5,-71.2 185.5,-66.1 185.5,-66.1 185.5,-66 190,-66 190.6,-66 195.1,-66 195.1,-66.1 
		195.1,-66.1 195.1,-71.2 200.2,-71.2 200.2,-78.8 	"/>
</g>
<polygon class="st4" points="145.3,-176.2 145.3,-181.3 145.3,-181.3 145.3,-181.4 140.8,-181.4 140.2,-181.4 135.7,-181.4 
	135.7,-181.4 135.7,-181.4 135.7,-176.3 130.6,-176.3 130.6,-168.6 135.7,-168.6 135.7,-163.5 135.7,-163.5 135.7,-163.4 
	140.2,-163.4 140.8,-163.4 145.3,-163.4 145.3,-163.5 145.3,-163.5 145.3,-168.6 150.4,-168.6 150.4,-176.2 "/>
<polygon class="st14" points="1111.1,213 1101.1,213 726.2,213 726.2,223 716.1,223 716.1,280.9 726.2,280.9 726.2,291 1101.1,291 
	1111.1,291 1111.1,280.9 1121.2,280.9 1121.2,223 1111.1,223 "/>
<polygon class="st15" points="1111.1,203 1101.1,203 726.2,203 726.2,213 716.1,213 716.1,270.9 726.2,270.9 726.2,281 1101.1,281 
	1111.1,281 1111.1,270.9 1121.2,270.9 1121.2,213 1111.1,213 "/>
<g>
	<path class="st4" d="M828.7,253.8h-6.9v-27.6h17.3v3.5h3.5V240h-3.5v3.5h-10.4V253.8z M828.7,236.6h6.9v-3.5h-6.9V236.6z"/>
	<path class="st4" d="M849.5,250.4H846v-24.2h6.9v20.7h13.8v6.9h-17.3V250.4z"/>
	<path class="st4" d="M877.1,253.8h-6.9v-24.2h3.5v-3.5h13.8v3.5h3.5v24.2H884v-10.4h-6.9V253.8z M884,236.6v-3.5h-6.9v3.5H884z"/>
	<path class="st4" d="M894.4,226.2h6.9v10.4h6.9v-10.4h6.9V240h-3.5v3.5h-3.5v10.4h-6.9v-10.4h-3.5V240h-3.5V226.2z"/>
	<path class="st4" d="M922.1,250.4h-3.5v-20.7h3.5v-3.5h17.3v6.9h-13.8v3.5h6.9v6.9h-6.9v3.5h13.8v6.9h-17.3V250.4z"/>
	<path class="st4" d="M953.2,243.5h-3.5v10.4h-6.9v-27.6h17.3v3.5h3.5V240h-3.5v3.5h3.5v10.4h-6.9v-6.9h-3.5V243.5z M949.7,236.6
		h6.9v-3.5h-6.9V236.6z"/>
	<path class="st4" d="M991.2,226.2h17.3v3.5h3.5V240h-3.5v3.5h-10.4v3.5h13.8v6.9h-20.7V240h3.5v-3.5h10.4v-3.5h-13.8V226.2z"/>
</g>
<g>
	<rect x="737.1" y="207" class="st4" width="45.1" height="5.7"/>
	<rect x="788.4" y="207" class="st4" width="5.7" height="5.7"/>
</g>
<g>
	<rect x="282.6" y="208" class="st4" width="45.1" height="5.7"/>
	<rect x="333.9" y="208" class="st4" width="5.7" height="5.7"/>
</g>
<polygon class="st16" points="671.7,48 678.1,53.6 672.5,60 693,77.3 693,115.2 713.7,89.1 745.5,118.5 751.3,112.2 756.3,116.9 
	827.9,-1.8 "/>
<polygon class="st17" points="669.3,40.8 675.6,46.4 670,52.8 690.5,70.2 690.5,108.1 711.2,82 743,111.4 748.8,105.1 753.8,109.7 
	825.4,-9 "/>
<polygon class="st18" points="711.3,81.8 825.7,-9 690.6,70 690.6,107.9 "/>
<polygon class="st19" points="668.2,41 674.6,46.6 669,53 689.4,70.3 689.4,108.2 710.2,82.1 741.9,111.5 747.8,105.3 752.7,109.9 
	824.4,-8.8 "/>
<g>
	<polygon class="st20" points="604,-265.7 604,-102.1 614.4,-102.1 614.4,-92.6 624.8,-92.6 624.8,-82.1 1072.3,-82.1 1072.3,-92.6 
		1082.7,-92.6 1082.7,-102.1 1093,-102.1 1093,-265.7 	"/>
	<polygon class="st20" points="1093,-265.7 1093,-359.9 1082.7,-359.9 1082.7,-369.4 1072.3,-369.4 1072.3,-379.8 624.8,-379.8 
		624.8,-369.4 614.4,-369.4 614.4,-359.9 604,-359.9 604,-265.7 	"/>
</g>
<g>
	<polygon class="st21" points="614.4,-363.3 624.8,-363.3 624.8,-371.3 614.4,-371.3 614.4,-363.3 604,-363.3 604,-355.3 
		614.4,-355.3 	"/>
	<rect x="624.8" y="-380" class="st21" width="447.5" height="8"/>
	<polygon class="st21" points="1082.7,-363.3 1082.7,-371.3 1072.3,-371.3 1072.3,-363.3 1082.7,-363.3 1082.7,-355.3 1093,-355.3 
		1093,-363.3 	"/>
</g>
<g>
	<g>
		<g>
			<rect x="210.9" y="-444.2" width="10.2" height="10.2"/>
		</g>
	</g>
	<g>
		<g>
			<path d="M272.3-454.5v5.1h-5.1v5.1h5.1v20.5h5.1v5.1h-5.1v5.1h5.1h5.1v-10.2h15.4v5.1h5.1v-5.1v-30.7H272.3z M297.9-428.9h-20.5
				v-20.5h20.5V-428.9z"/>
		</g>
	</g>
	<g>
		<g>
			<rect x="282.6" y="-444.2" width="10.2" height="10.2"/>
		</g>
	</g>
	<g>
		<g>
			<rect x="210.9" y="-372.5" width="10.2" height="10.2"/>
		</g>
	</g>
	<g>
		<g>
			<rect x="272.3" y="-382.8" width="5.1" height="5.1"/>
		</g>
	</g>
	<g>
		<g>
			<rect x="246.7" y="-357.2" width="5.1" height="5.1"/>
		</g>
	</g>
	<g>
		<g>
			<rect x="251.9" y="-377.7" width="5.1" height="5.1"/>
		</g>
	</g>
	<g>
		<g>
			<rect x="251.9" y="-367.4" width="5.1" height="5.1"/>
		</g>
	</g>
	<g>
		<g>
			<rect x="297.9" y="-393" width="5.1" height="5.1"/>
		</g>
	</g>
	<g>
		<g>
			<rect x="200.7" y="-393" width="5.1" height="5.1"/>
		</g>
	</g>
	<g>
		<g>
			<rect x="200.7" y="-418.6" width="5.1" height="5.1"/>
		</g>
	</g>
	<g>
		<g>
			<polygon points="257,-449.4 257,-444.2 246.7,-444.2 246.7,-439.1 262.1,-439.1 262.1,-444.2 262.1,-449.4 			"/>
		</g>
	</g>
	<g>
		<g>
			<path d="M297.9-413.5v5.1h-10.2v5.1h-15.4v-5.1h-5.1v5.1H257v5.1h15.4v5.1h-10.2H257v-5.1h-5.1v5.1h-5.1v-5.1h-5.1v5.1h-5.1v5.1
				h10.2v5.1h5.1v-5.1h10.2v5.1H257v5.1h5.1v10.2h5.1v5.1h5.1v-5.1h15.4v-10.2h5.1v-5.1h-5.1V-393h-10.2v-5.1h10.2v5.1h5.1v-5.1h5.1
				v-5.1h5.1v-5.1v-5.1H297.9L297.9-413.5z M282.6-387.9v15.4h-15.4v-15.4H282.6z"/>
		</g>
	</g>
	<g>
		<g>
			<polygon points="267.2,-423.8 262.1,-423.8 262.1,-418.6 257,-418.6 257,-413.5 257,-408.4 262.1,-408.4 262.1,-413.5 
				267.2,-413.5 267.2,-418.6 272.3,-418.6 272.3,-423.8 			"/>
		</g>
	</g>
	<g>
		<g>
			<rect x="257" y="-357.2" width="10.2" height="5.1"/>
		</g>
	</g>
	<g>
		<g>
			<rect x="241.6" y="-449.4" width="5.1" height="5.1"/>
		</g>
	</g>
	<g>
		<g>
			<rect x="282.6" y="-413.5" width="5.1" height="5.1"/>
		</g>
	</g>
	<g>
		<g>
			<rect x="287.7" y="-418.6" width="5.1" height="5.1"/>
		</g>
	</g>
	<g>
		<g>
			<rect x="221.1" y="-393" width="5.1" height="5.1"/>
		</g>
	</g>
	<g>
		<g>
			<path d="M231.4-357.2v-20.5h5.1v-5.1v-5.1h-5.1v5.1H216v-5.1h-5.1h-5.1v5.1h-5.1v30.7h30.7h10.2v-5.1H231.4z M226.3-357.2h-20.5
				v-20.5h20.5V-357.2z"/>
		</g>
	</g>
	<g>
		<g>
			<rect x="231.4" y="-423.8" width="5.1" height="5.1"/>
		</g>
	</g>
	<g>
		<g>
			<path d="M236.5-454.5h-5.1h-30.7v30.7h5.1v5.1h5.1v-5.1h5.1v5.1h5.1v-5.1h10.2V-434h5.1v-5.1h-5.1v-10.2h5.1h5.1v-5.1H236.5z
				 M226.3-428.9h-20.5v-20.5h20.5V-428.9z"/>
		</g>
	</g>
	<g>
		<g>
			<rect x="262.1" y="-439.1" width="5.1" height="5.1"/>
		</g>
	</g>
	<g>
		<g>
			<rect x="251.9" y="-454.5" width="5.1" height="5.1"/>
		</g>
	</g>
	<g>
		<g>
			<path d="M262.1-423.8v-5.1H257v-5.1h-5.1v5.1h-10.2v-5.1h-5.1v5.1v5.1h5.1v10.2h-15.4v-5.1h-5.1v5.1h-15.4v5.1H216v5.1h-15.4v5.1
				H216v5.1h5.1v-5.1h5.1v5.1h5.1v-5.1h10.2v-5.1h-5.1v-5.1h5.1h5.1v5.1h5.1h5.1v-5.1h-5.1v-5.1h-5.1v-10.2H262.1L262.1-423.8z
				 M231.4-403.3h-10.2v-5.1h10.2V-403.3z"/>
		</g>
	</g>
	<g>
		<g>
			<polygon points="246.7,-372.5 246.7,-377.7 246.7,-382.8 241.6,-382.8 241.6,-377.7 236.5,-377.7 236.5,-372.5 241.6,-372.5 
				241.6,-367.4 236.5,-367.4 236.5,-362.3 246.7,-362.3 246.7,-367.4 251.9,-367.4 251.9,-372.5 			"/>
		</g>
	</g>
	<g>
		<g>
			<polygon points="292.8,-362.3 292.8,-367.4 287.7,-367.4 287.7,-362.3 272.3,-362.3 272.3,-357.2 282.6,-357.2 282.6,-352.1 
				287.7,-352.1 287.7,-357.2 297.9,-357.2 297.9,-352.1 303.1,-352.1 303.1,-357.2 303.1,-362.3 			"/>
		</g>
	</g>
	<g>
		<g>
			<polygon points="297.9,-382.8 297.9,-377.7 292.8,-377.7 292.8,-372.5 303.1,-372.5 303.1,-377.7 303.1,-382.8 			"/>
		</g>
	</g>
</g>
<g>
	<g>
		<polygon class="st22" points="144.5,-38.3 140.9,-38.3 3.7,-38.3 3.7,-34.7 0,-34.7 0,-13.5 3.7,-13.5 3.7,-9.8 140.9,-9.8 
			144.5,-9.8 144.5,-13.5 148.2,-13.5 148.2,-34.7 144.5,-34.7 		"/>
		<polygon class="st22" points="144.5,-38.3 140.9,-38.3 3.7,-38.3 3.7,-34.7 0,-34.7 0,-13.5 3.7,-13.5 3.7,-9.8 140.9,-9.8 
			144.5,-9.8 144.5,-13.5 148.2,-13.5 148.2,-34.7 144.5,-34.7 		"/>
	</g>
	<g>
		<rect x="6.1" y="-36.2" class="st22" width="13.1" height="1.7"/>
		<rect x="21" y="-36.2" class="st22" width="1.7" height="1.7"/>
	</g>
</g>
<g>
	<g>
		<polygon class="st9" points="-27.5,-38.3 -31.1,-38.3 -168.3,-38.3 -168.3,-34.7 -172,-34.7 -172,-13.5 -168.3,-13.5 -168.3,-9.8 
			-31.1,-9.8 -27.5,-9.8 -27.5,-13.5 -23.8,-13.5 -23.8,-34.7 -27.5,-34.7 		"/>
		<polygon class="st12" points="-27.5,-38.3 -31.1,-38.3 -168.3,-38.3 -168.3,-34.7 -172,-34.7 -172,-13.5 -168.3,-13.5 
			-168.3,-9.8 -31.1,-9.8 -27.5,-9.8 -27.5,-13.5 -23.8,-13.5 -23.8,-34.7 -27.5,-34.7 		"/>
		<g>
			<path class="st4" d="M-140.1-23.5h-1.3v3.8h-2.5v-10.1h6.3v1.3h1.3v3.8h-1.3v1.3h1.3v3.8h-2.5v-2.5h-1.3V-23.5z M-141.3-26h2.5
				v-1.3h-2.5V-26z"/>
			<path class="st4" d="M-133.8-21h-1.3v-7.6h1.3v-1.3h6.3v2.5h-5.1v1.3h2.5v2.5h-2.5v1.3h5.1v2.5h-6.3V-21z"/>
			<path class="st4" d="M-124.9-21h-1.3v-7.6h1.3v-1.3h5.1v1.3h1.3v2.5h-2.5v-1.3h-2.5v5.1h2.5v-1.3h2.5v2.5h-1.3v1.3h-5.1V-21z"/>
			<path class="st4" d="M-114.8-19.7h-2.5v-8.9h1.3v-1.3h5.1v1.3h1.3v8.9h-2.5v-3.8h-2.5V-19.7z M-112.3-26v-1.3h-2.5v1.3H-112.3z"
				/>
			<path class="st4" d="M-107.2-21h-1.3v-8.9h2.5v7.6h5.1v2.5h-6.3V-21z"/>
			<path class="st4" d="M-99.6-29.8h2.5v10.1h-2.5V-29.8z"/>
			<path class="st4" d="M-95.8-29.8h6.3v1.3h1.3v7.6h-1.3v1.3h-6.3V-29.8z M-93.3-26h2.5v-1.3h-2.5V-26z M-93.3-22.3h2.5v-1.3h-2.5
				V-22.3z"/>
			<path class="st4" d="M-83.2-23.5h-1.3v3.8H-87v-8.9h1.3v-1.3h5.1v1.3h1.3v3.8h-1.3v1.3h1.3v3.8h-2.5v-2.5h-1.3V-23.5z M-84.4-26
				h2.5v-1.3h-2.5V-26z"/>
			<path class="st4" d="M-75.6-19.7h-2.5v-8.9h1.3v-1.3h5.1v1.3h1.3v8.9h-2.5v-3.8h-2.5V-19.7z M-73.1-26v-1.3h-2.5v1.3H-73.1z"/>
			<path class="st4" d="M-69.3-29.8h7.6v2.5h-2.5v7.6h-2.5v-7.6h-2.5V-29.8z"/>
			<path class="st4" d="M-59.2-21h-1.3v-7.6h1.3v-1.3h6.3v2.5h-5.1v1.3h2.5v2.5h-2.5v1.3h5.1v2.5h-6.3V-21z"/>
		</g>
	</g>
	<g>
		<rect x="-165.9" y="-36.2" class="st4" width="13.1" height="1.7"/>
		<rect x="-151" y="-36.2" class="st4" width="1.7" height="1.7"/>
	</g>
</g>
<g>
	<g>
		<polygon class="st9" points="-27.5,3.7 -31.1,3.7 -168.3,3.7 -168.3,7.3 -172,7.3 -172,28.5 -168.3,28.5 -168.3,32.2 -31.1,32.2 
			-27.5,32.2 -27.5,28.5 -23.8,28.5 -23.8,7.3 -27.5,7.3 		"/>
		<polygon class="st10" points="-27.5,0 -31.1,0 -168.3,0 -168.3,3.7 -172,3.7 -172,24.9 -168.3,24.9 -168.3,28.5 -31.1,28.5 
			-27.5,28.5 -27.5,24.9 -23.8,24.9 -23.8,3.7 -27.5,3.7 		"/>
		<g>
			<path class="st4" d="M-140.1,14.8h-1.3v3.8h-2.5V8.5h6.3v1.3h1.3v3.8h-1.3v1.3h1.3v3.8h-2.5v-2.5h-1.3V14.8z M-141.3,12.3h2.5V11
				h-2.5V12.3z"/>
			<path class="st4" d="M-133.8,17.4h-1.3V9.8h1.3V8.5h6.3V11h-5.1v1.3h2.5v2.5h-2.5v1.3h5.1v2.5h-6.3V17.4z"/>
			<path class="st4" d="M-124.9,17.4h-1.3V9.8h1.3V8.5h5.1v1.3h1.3v2.5h-2.5V11h-2.5v5.1h2.5v-1.3h2.5v2.5h-1.3v1.3h-5.1V17.4z"/>
			<path class="st4" d="M-114.8,18.6h-2.5V9.8h1.3V8.5h5.1v1.3h1.3v8.9h-2.5v-3.8h-2.5V18.6z M-112.3,12.3V11h-2.5v1.3H-112.3z"/>
			<path class="st4" d="M-107.2,17.4h-1.3V8.5h2.5v7.6h5.1v2.5h-6.3V17.4z"/>
			<path class="st4" d="M-99.6,8.5h2.5v10.1h-2.5V8.5z"/>
			<path class="st4" d="M-95.8,8.5h6.3v1.3h1.3v7.6h-1.3v1.3h-6.3V8.5z M-93.3,12.3h2.5V11h-2.5V12.3z M-93.3,16.1h2.5v-1.3h-2.5
				V16.1z"/>
			<path class="st4" d="M-83.2,14.8h-1.3v3.8H-87V9.8h1.3V8.5h5.1v1.3h1.3v3.8h-1.3v1.3h1.3v3.8h-2.5v-2.5h-1.3V14.8z M-84.4,12.3
				h2.5V11h-2.5V12.3z"/>
			<path class="st4" d="M-75.6,18.6h-2.5V9.8h1.3V8.5h5.1v1.3h1.3v8.9h-2.5v-3.8h-2.5V18.6z M-73.1,12.3V11h-2.5v1.3H-73.1z"/>
			<path class="st4" d="M-69.3,8.5h7.6V11h-2.5v7.6h-2.5V11h-2.5V8.5z"/>
			<path class="st4" d="M-59.2,17.4h-1.3V9.8h1.3V8.5h6.3V11h-5.1v1.3h2.5v2.5h-2.5v1.3h5.1v2.5h-6.3V17.4z"/>
		</g>
	</g>
	<g>
		<rect x="-165.9" y="2.8" class="st4" width="13.1" height="1.7"/>
		<rect x="-151" y="2.8" class="st4" width="1.7" height="1.7"/>
	</g>
</g>
<g>
	<g>
		<polygon class="st22" points="144.5,3.7 140.9,3.7 3.7,3.7 3.7,7.3 0,7.3 0,28.5 3.7,28.5 3.7,32.2 140.9,32.2 144.5,32.2 
			144.5,28.5 148.2,28.5 148.2,7.3 144.5,7.3 		"/>
		<polygon class="st23" points="144.5,0 140.9,0 3.7,0 3.7,3.7 0,3.7 0,24.9 3.7,24.9 3.7,28.5 140.9,28.5 144.5,28.5 144.5,24.9 
			148.2,24.9 148.2,3.7 144.5,3.7 		"/>
	</g>
	<g>
		<rect x="6.1" y="2.8" class="st4" width="13.1" height="1.7"/>
		<rect x="21" y="2.8" class="st4" width="1.7" height="1.7"/>
	</g>
</g>
<g>
	<rect x="253.9" y="-265.5" class="st4" width="23.6" height="3"/>
	<rect x="280.7" y="-265.5" class="st4" width="3" height="3"/>
</g>
<g>
	<rect x="-66.5" y="-327" class="st4" width="23.6" height="3"/>
	<rect x="-39.7" y="-327" class="st4" width="3" height="3"/>
</g>
<g>
	<polygon class="st23" points="-96.6,-203.5 -96.6,-210.9 -115.2,-210.9 -115.2,-203.5 -122.7,-203.5 -122.7,-196 -122.7,-184.8 
		-115.2,-184.8 -115.2,-177.4 -104,-177.4 -96.6,-177.4 -96.6,-184.8 -89.1,-184.8 -89.1,-196 -89.1,-203.5 	"/>
	<line class="st24" x1="-114.6" y1="-177.4" x2="-114.6" y2="-167.4"/>
	<line class="st24" x1="-97.2" y1="-177.4" x2="-97.2" y2="-167.4"/>
	<polygon class="st25" points="-98.1,-169.3 -100.3,-169.3 -113.7,-169.3 -113.7,-167.1 -115.9,-167.1 -115.9,-151.6 -113.7,-151.6 
		-113.7,-149.4 -100.3,-149.4 -98.1,-149.4 -98.1,-151.6 -96,-151.6 -96,-167.1 -98.1,-167.1 	"/>
</g>
<polygon class="st22" points="-29.5,235.8 -29.5,227.9 -37.4,227.9 -102.4,227.9 -171.2,227.9 -171.2,235.8 -179.1,235.8 
	-179.1,281.4 -171.2,281.4 -171.2,289.3 -102.4,289.3 -37.4,289.3 -29.5,289.3 -29.5,281.4 -21.6,281.4 -21.6,235.8 "/>
<polygon class="st22" points="-29.5,235.9 -29.5,228 -37.4,228 -102.4,228 -171.2,228 -171.2,235.9 -179.1,235.9 -179.1,281.5 
	-171.2,281.5 -171.2,289.4 -102.4,289.4 -37.4,289.4 -29.5,289.4 -29.5,281.5 -21.6,281.5 -21.6,235.9 "/>
<g>
	<path class="st4" d="M-133,269.3h-5.4v-21.8h13.6v2.7h2.7v8.2h-2.7v2.7h-8.2V269.3z M-133,255.7h5.4V253h-5.4V255.7z"/>
	<path class="st4" d="M-116.7,266.6h-2.7v-19h5.4v16.3h10.9v5.4h-13.6V266.6z"/>
	<path class="st4" d="M-94.9,269.3h-5.4v-19h2.7v-2.7h10.9v2.7h2.7v19h-5.4v-8.2h-5.4V269.3z M-89.5,255.7V253h-5.4v2.7H-89.5z"/>
	<path class="st4" d="M-81.3,247.6h5.4v8.2h5.4v-8.2h5.4v10.9h-2.7v2.7h-2.7v8.2h-5.4v-8.2h-2.7v-2.7h-2.7V247.6z"/>
</g>
<polygon class="st22" points="140.5,235.8 140.5,227.9 132.6,227.9 67.6,227.9 -1.2,227.9 -1.2,235.8 -9.1,235.8 -9.1,281.4 
	-1.2,281.4 -1.2,289.3 67.6,289.3 132.6,289.3 140.5,289.3 140.5,281.4 148.4,281.4 148.4,235.8 "/>
<polygon class="st23" points="140.5,227.9 140.5,220 132.6,220 67.6,220 -1.2,220 -1.2,227.9 -9.1,227.9 -9.1,273.5 -1.2,273.5 
	-1.2,281.4 67.6,281.4 132.6,281.4 140.5,281.4 140.5,273.5 148.4,273.5 148.4,227.9 "/>
<g>
	<path class="st4" d="M37,261.3h-5.4v-21.8h13.6v2.7h2.7v8.2h-2.7v2.7H37V261.3z M37,247.7h5.4V245H37V247.7z"/>
	<path class="st4" d="M53.3,258.6h-2.7v-19h5.4v16.3h10.9v5.4H53.3V258.6z"/>
	<path class="st4" d="M75.1,261.3h-5.4v-19h2.7v-2.7h10.9v2.7H86v19h-5.4v-8.2h-5.4V261.3z M80.5,247.7V245h-5.4v2.7H80.5z"/>
	<path class="st4" d="M88.7,239.6h5.4v8.2h5.4v-8.2h5.4v10.9h-2.7v2.7h-2.7v8.2h-5.4v-8.2h-2.7v-2.7h-2.7V239.6z"/>
</g>
<g>
	<path class="st26" d="M-853.1-9.8h43.2v108h43.2v-108h43.2v129.6h-21.6v21.6h-21.6V163h-43.2v-21.6h-21.6v-21.6h-21.6V-9.8z"/>
	<path class="st27" d="M-701.9,13.9h21.6V-7.7h108v43.2h-86.4v21.6h64.8v21.6h21.6v64.8h-21.6v21.6h-108v-43.2h86.4v-21.6h-64.8
		V78.7h-21.6V13.9z"/>
</g>
<g>
	<path class="st28" d="M-853.1-30.9h43.2v108h43.2v-108h43.2V98.7h-21.6v21.6h-21.6v21.6h-43.2v-21.6h-21.6V98.7h-21.6V-30.9z"/>
	<path class="st29" d="M-701.9-9.3h21.6v-21.6h108v43.2h-86.4v21.6h64.8v21.6h21.6v64.8h-21.6v21.6h-108V98.7h86.4V77.1h-64.8V55.5
		h-21.6V-9.3z"/>
</g>
<g>
	<g>
		<path class="st0" d="M-803.7,347.8h27.5v68.7h27.5v-68.7h27.5v82.4H-735v13.7h-13.7v13.7h-27.5v-13.7H-790v-13.7h-13.7V347.8z"/>
		<path class="st0" d="M-707.6,362.8h13.7v-13.7h68.7v27.5h-54.9v13.7h41.2V404h13.7v41.2h-13.7v13.7h-68.7v-27.5h54.9v-13.7h-41.2
			V404h-13.7V362.8z"/>
	</g>
	<g>
		<path class="st7" d="M-803.7,333.3h27.5v68.7h27.5v-68.7h27.5v82.4H-735v13.7h-13.7v13.7h-27.5v-13.7H-790v-13.7h-13.7V333.3z"/>
		<path class="st7" d="M-707.6,348.3h13.7v-13.7h68.7V362h-54.9v13.7h41.2v13.7h13.7v41.2h-13.7v13.7h-68.7V417h54.9v-13.7h-41.2
			v-13.7h-13.7V348.3z"/>
	</g>
	<g>
		<path class="st4" d="M-803.7,319.9h27.5v68.7h27.5v-68.7h27.5v82.4H-735V416h-13.7v13.7h-27.5V416H-790v-13.7h-13.7V319.9z"/>
		<path class="st4" d="M-707.6,333.6h13.7v-13.7h68.7v27.5h-54.9v13.7h41.2v13.7h13.7V416h-13.7v13.7h-68.7v-27.5h54.9v-13.7h-41.2
			v-13.7h-13.7V333.6z"/>
	</g>
</g>
<g>
	<g>
		<path class="st0" d="M-229.3-511.9h-21.6v-86.4h54v10.8h10.8v32.4h-10.8v10.8h-32.4V-511.9z M-229.3-565.9h21.6v-10.8h-21.6
			V-565.9z"/>
		<path class="st0" d="M-175.3-587.5h10.8v-10.8h43.2v10.8h10.8v64.8h-10.8v10.8h-43.2v-10.8h-10.8V-587.5z M-153.7-533.5h21.6
			v-43.2h-21.6V-533.5z"/>
		<path class="st0" d="M-88.9-522.7h-10.8v-75.6h21.6v64.8h43.2v21.6h-54V-522.7z"/>
		<path class="st0" d="M-45.7-598.3h21.6v32.4h21.6v-32.4h21.6v43.2H8.3v10.8H-2.5v32.4h-21.6v-32.4h-10.8v-10.8h-10.8V-598.3z"/>
	</g>
	<g>
		<path class="st30" d="M-229.3-520.4h-21.6v-86.4h54v10.8h10.8v32.4h-10.8v10.8h-32.4V-520.4z M-229.3-574.4h21.6v-10.8h-21.6
			V-574.4z"/>
		<path class="st30" d="M-175.3-596h10.8v-10.8h43.2v10.8h10.8v64.8h-10.8v10.8h-43.2v-10.8h-10.8V-596z M-153.7-542h21.6v-43.2
			h-21.6V-542z"/>
		<path class="st30" d="M-88.9-531.2h-10.8v-75.6h21.6v64.8h43.2v21.6h-54V-531.2z"/>
		<path class="st30" d="M-45.7-606.8h21.6v32.4h21.6v-32.4h21.6v43.2H8.3v10.8H-2.5v32.4h-21.6v-32.4h-10.8v-10.8h-10.8V-606.8z"/>
	</g>
	<g>
		<path class="st4" d="M-229.3-528.5h-21.6v-86.4h54v10.8h10.8v32.4h-10.8v10.8h-32.4V-528.5z M-229.3-582.5h21.6v-10.8h-21.6
			V-582.5z"/>
		<path class="st4" d="M-175.3-604.1h10.8v-10.8h43.2v10.8h10.8v64.8h-10.8v10.8h-43.2v-10.8h-10.8V-604.1z M-153.7-550.1h21.6
			v-43.2h-21.6V-550.1z"/>
		<path class="st4" d="M-88.9-539.3h-10.8v-75.6h21.6v64.8h43.2v21.6h-54V-539.3z"/>
		<path class="st4" d="M-45.7-614.9h21.6v32.4h21.6v-32.4h21.6v43.2H8.3v10.8H-2.5v32.4h-21.6v-32.4h-10.8v-10.8h-10.8V-614.9z"/>
	</g>
</g>
<g>
	<g class="st1">
		<g>
			<polygon class="st0" points="97.6,-828.4 97.6,-742 198.8,-742 198.8,-753.6 186.1,-753.6 186.1,-766.2 173.5,-766.2 
				173.5,-778.9 160.8,-778.9 160.8,-791.5 173.5,-791.5 173.5,-804.2 186.1,-804.2 186.1,-816.8 198.8,-816.8 198.8,-828.4 			"/>
		</g>
		<polygon class="st0" points="112.3,-767.3 97.6,-743 97.6,-767.3 		"/>
	</g>
	<rect x="-390.6" y="-851.3" class="st0" width="510.3" height="86.5"/>
	<rect x="86" y="-773.3" class="st0" width="112.8" height="31.6"/>
	<g class="st1">
		<g>
			<polygon class="st0" points="-382.8,-828.3 -382.8,-741.8 -484,-741.8 -484,-753.4 -471.3,-753.4 -471.3,-766 -458.7,-766 
				-458.7,-778.7 -446,-778.7 -446,-791.4 -458.7,-791.4 -458.7,-804 -471.3,-804 -471.3,-816.7 -484,-816.7 -484,-828.3 			"/>
		</g>
		<polygon class="st0" points="-397.5,-767.1 -382.8,-742.8 -382.8,-767.1 		"/>
	</g>
	<g>
		<g>
			<polygon class="st2" points="97.6,-838.7 97.6,-752.2 198.8,-752.2 198.8,-763.8 186.1,-763.8 186.1,-776.5 173.5,-776.5 
				173.5,-789.1 160.8,-789.1 160.8,-801.8 173.5,-801.8 173.5,-814.4 186.1,-814.4 186.1,-827.1 198.8,-827.1 198.8,-838.7 			"/>
			<polygon class="st3" points="97.6,-850.3 97.6,-763.8 198.8,-763.8 198.8,-775.4 186.1,-775.4 186.1,-788.1 173.5,-788.1 
				173.5,-800.7 160.8,-800.7 160.8,-813.4 173.5,-813.4 173.5,-826 186.1,-826 186.1,-838.7 198.8,-838.7 198.8,-850.3 			"/>
		</g>
		<polygon class="st2" points="112.3,-777.5 97.6,-753.3 97.6,-777.5 		"/>
		<g>
			<g>
				<polygon class="st2" points="-383.3,-838.7 -383.3,-752.2 -484.5,-752.2 -484.5,-763.8 -471.8,-763.8 -471.8,-776.5 
					-459.2,-776.5 -459.2,-789.1 -446.5,-789.1 -446.5,-801.8 -459.2,-801.8 -459.2,-814.4 -471.8,-814.4 -471.8,-827.1 
					-484.5,-827.1 -484.5,-838.7 				"/>
				<polygon class="st3" points="-383.3,-850.3 -383.3,-763.8 -484.5,-763.8 -484.5,-775.4 -471.8,-775.4 -471.8,-788.1 
					-459.2,-788.1 -459.2,-800.7 -446.5,-800.7 -446.5,-813.4 -459.2,-813.4 -459.2,-826 -471.8,-826 -471.8,-838.7 -484.5,-838.7 
					-484.5,-850.3 				"/>
			</g>
			<polygon class="st2" points="-398,-777.5 -383.3,-753.3 -383.3,-777.5 			"/>
		</g>
		<g>
			<rect x="-398" y="-864" class="st2" width="510.3" height="86.5"/>
			<rect x="-398" y="-876.7" class="st3" width="510.3" height="86.5"/>
		</g>
	</g>
</g>
<g>
	<g>
		<path class="st22" d="M-283.9-801.7h-37.4v-59.9h37.4v7.5h7.5v15h-7.5v15h7.5v15h-7.5V-801.7z M-306.3-839.1h15v-7.5h-15V-839.1z
			 M-306.3-816.7h15v-7.5h-15V-816.7z"/>
		<path class="st22" d="M-253.9-801.7h-15v-52.4h7.5v-7.5h30v7.5h7.5v52.4h-15v-22.5h-15V-801.7z M-238.9-839.1v-7.5h-15v7.5H-238.9
			z"/>
		<path class="st22" d="M-209-809.2h-7.5v-52.4h15v44.9h30v15H-209V-809.2z"/>
		<path class="st22" d="M-156.6-809.2h-7.5v-52.4h15v44.9h30v15h-37.4V-809.2z"/>
		<path class="st22" d="M-111.6-854.1h7.5v-7.5h30v7.5h7.5v44.9h-7.5v7.5h-30v-7.5h-7.5V-854.1z M-96.6-816.7h15v-30h-15V-816.7z"/>
		<path class="st22" d="M-59.2-854.1h7.5v-7.5h30v7.5h7.5v44.9h-7.5v7.5h-30v-7.5h-7.5V-854.1z M-44.2-816.7h15v-30h-15V-816.7z"/>
		<path class="st22" d="M15.7-831.6H8.2v30h-15v-59.9h15v7.5h7.5v7.5h7.5v-15h15v59.9h-15v-22.5h-7.5V-831.6z"/>
	</g>
	<g>
		<path class="st23" d="M-283.9-807.5h-37.4v-59.9h37.4v7.5h7.5v15h-7.5v15h7.5v15h-7.5V-807.5z M-306.3-845h15v-7.5h-15V-845z
			 M-306.3-822.5h15v-7.5h-15V-822.5z"/>
		<path class="st23" d="M-253.9-807.5h-15v-52.4h7.5v-7.5h30v7.5h7.5v52.4h-15V-830h-15V-807.5z M-238.9-845v-7.5h-15v7.5H-238.9z"
			/>
		<path class="st23" d="M-209-815h-7.5v-52.4h15v44.9h30v15H-209V-815z"/>
		<path class="st23" d="M-156.6-815h-7.5v-52.4h15v44.9h30v15h-37.4V-815z"/>
		<path class="st23" d="M-111.6-859.9h7.5v-7.5h30v7.5h7.5v44.9h-7.5v7.5h-30v-7.5h-7.5V-859.9z M-96.6-822.5h15v-30h-15V-822.5z"/>
		<path class="st23" d="M-59.2-859.9h7.5v-7.5h30v7.5h7.5v44.9h-7.5v7.5h-30v-7.5h-7.5V-859.9z M-44.2-822.5h15v-30h-15V-822.5z"/>
		<path class="st23" d="M15.7-837.5H8.2v30h-15v-59.9h15v7.5h7.5v7.5h7.5v-15h15v59.9h-15V-830h-7.5V-837.5z"/>
	</g>
</g>
<g>
	<path class="st0" d="M207.8-655h20.7v6.9h-20.7V-655z"/>
	<path class="st0" d="M263-637.7h-6.9v-27.6h17.3v3.5h3.5v10.4h-3.5v3.5H263V-637.7z M263-655h6.9v-3.5H263V-655z"/>
	<path class="st0" d="M290.7-648.1h-3.5v10.4h-6.9v-27.6h17.3v3.5h3.5v10.4h-3.5v3.5h3.5v10.4h-6.9v-6.9h-3.5V-648.1z M287.2-655
		h6.9v-3.5h-6.9V-655z"/>
	<path class="st0" d="M308-641.1h-3.5v-20.7h3.5v-3.5h17.3v6.9h-13.8v3.5h6.9v6.9h-6.9v3.5h13.8v6.9H308V-641.1z"/>
	<path class="st0" d="M328.7-661.9h3.5v-3.5h17.3v6.9h-13.8v3.5H346v3.5h3.5v10.4H346v3.5h-17.3v-6.9h13.8v-3.5h-10.4v-3.5h-3.5
		V-661.9z"/>
	<path class="st0" d="M352.9-661.9h3.5v-3.5h17.3v6.9h-13.8v3.5h10.4v3.5h3.5v10.4h-3.5v3.5h-17.3v-6.9h13.8v-3.5h-10.4v-3.5h-3.5
		V-661.9z"/>
	<path class="st0" d="M408.2-637.7h-6.9v-24.2h3.5v-3.5h13.8v3.5h3.5v24.2h-6.9v-10.4h-6.9V-637.7z M415.1-655v-3.5h-6.9v3.5H415.1z
		"/>
	<path class="st0" d="M435.8-651.5h-3.5v13.8h-6.9v-27.6h6.9v3.5h3.5v3.5h3.5v-6.9h6.9v27.6h-6.9v-10.4h-3.5V-651.5z"/>
	<path class="st0" d="M449.7-665.3h6.9v10.4h6.9v-10.4h6.9v13.8h-3.5v3.5h-3.5v10.4h-6.9v-10.4h-3.5v-3.5h-3.5V-665.3z"/>
	<path class="st0" d="M505-637.7h-6.9v-27.6h6.9v6.9h3.5v-3.5h3.5v-3.5h6.9v6.9h-3.5v3.5h-3.5v6.9h3.5v3.5h3.5v6.9h-6.9v-3.5h-3.5
		v-3.5H505V-637.7z"/>
	<path class="st0" d="M525.7-641.1h-3.5v-20.7h3.5v-3.5H543v6.9h-13.8v3.5h6.9v6.9h-6.9v3.5H543v6.9h-17.3V-641.1z"/>
	<path class="st0" d="M546.4-665.3h6.9v10.4h6.9v-10.4h6.9v13.8h-3.5v3.5h-3.5v10.4h-6.9v-10.4h-3.5v-3.5h-3.5V-665.3z"/>
	<path class="st0" d="M594.8-665.3h20.7v6.9h-6.9v20.7h-6.9v-20.7h-6.9V-665.3z"/>
	<path class="st0" d="M619-661.9h3.5v-3.5h13.8v3.5h3.5v20.7h-3.5v3.5h-13.8v-3.5H619V-661.9z M625.9-644.6h6.9v-13.8h-6.9V-644.6z"
		/>
	<path class="st0" d="M674.3-637.7h-6.9v-27.6h17.3v3.5h3.5v10.4h-3.5v3.5h-10.4V-637.7z M674.3-655h6.9v-3.5h-6.9V-655z"/>
	<path class="st0" d="M695-641.1h-3.5v-24.2h6.9v20.7h13.8v6.9H695V-641.1z"/>
	<path class="st0" d="M722.7-637.7h-6.9v-24.2h3.5v-3.5h13.8v3.5h3.5v24.2h-6.9v-10.4h-6.9V-637.7z M729.6-655v-3.5h-6.9v3.5H729.6z
		"/>
	<path class="st0" d="M740-665.3h6.9v10.4h6.9v-10.4h6.9v13.8h-3.5v3.5h-3.5v10.4h-6.9v-10.4h-3.5v-3.5H740V-665.3z"/>
	<path class="st0" d="M788.3-655h20.7v6.9h-20.7V-655z"/>
</g>
<g>
	<path class="st30" d="M206.9-660.9h20.7v6.9h-20.7V-660.9z"/>
	<path class="st30" d="M262.2-643.6h-6.9v-27.6h17.3v3.5h3.5v10.4h-3.5v3.5h-10.4V-643.6z M262.2-660.9h6.9v-3.5h-6.9V-660.9z"/>
	<path class="st30" d="M289.8-653.9h-3.5v10.4h-6.9v-27.6h17.3v3.5h3.5v10.4h-3.5v3.5h3.5v10.4h-6.9v-6.9h-3.5V-653.9z M286.4-660.9
		h6.9v-3.5h-6.9V-660.9z"/>
	<path class="st30" d="M307.1-647h-3.5v-20.7h3.5v-3.5h17.3v6.9h-13.8v3.5h6.9v6.9h-6.9v3.5h13.8v6.9h-17.3V-647z"/>
	<path class="st30" d="M327.8-667.8h3.5v-3.5h17.3v6.9h-13.8v3.5h10.4v3.5h3.5v10.4h-3.5v3.5h-17.3v-6.9h13.8v-3.5h-10.4v-3.5h-3.5
		V-667.8z"/>
	<path class="st30" d="M352-667.8h3.5v-3.5h17.3v6.9h-13.8v3.5h10.4v3.5h3.5v10.4h-3.5v3.5H352v-6.9h13.8v-3.5h-10.4v-3.5H352
		V-667.8z"/>
	<path class="st30" d="M407.3-643.6h-6.9v-24.2h3.5v-3.5h13.8v3.5h3.5v24.2h-6.9v-10.4h-6.9V-643.6z M414.2-660.9v-3.5h-6.9v3.5
		H414.2z"/>
	<path class="st30" d="M435-657.4h-3.5v13.8h-6.9v-27.6h6.9v3.5h3.5v3.5h3.5v-6.9h6.9v27.6h-6.9v-10.4H435V-657.4z"/>
	<path class="st30" d="M448.8-671.2h6.9v10.4h6.9v-10.4h6.9v13.8h-3.5v3.5h-3.5v10.4h-6.9v-10.4h-3.5v-3.5h-3.5V-671.2z"/>
	<path class="st30" d="M504.1-643.6h-6.9v-27.6h6.9v6.9h3.5v-3.5h3.5v-3.5h6.9v6.9h-3.5v3.5H511v6.9h3.5v3.5h3.5v6.9H511v-3.5h-3.5
		v-3.5h-3.5V-643.6z"/>
	<path class="st30" d="M524.8-647h-3.5v-20.7h3.5v-3.5h17.3v6.9h-13.8v3.5h6.9v6.9h-6.9v3.5h13.8v6.9h-17.3V-647z"/>
	<path class="st30" d="M545.6-671.2h6.9v10.4h6.9v-10.4h6.9v13.8h-3.5v3.5h-3.5v10.4h-6.9v-10.4H549v-3.5h-3.5V-671.2z"/>
	<path class="st30" d="M594-671.2h20.7v6.9h-6.9v20.7h-6.9v-20.7H594V-671.2z"/>
	<path class="st30" d="M618.1-667.8h3.5v-3.5h13.8v3.5h3.5v20.7h-3.5v3.5h-13.8v-3.5h-3.5V-667.8z M625.1-650.5h6.9v-13.8h-6.9
		V-650.5z"/>
	<path class="st30" d="M673.4-643.6h-6.9v-27.6h17.3v3.5h3.5v10.4h-3.5v3.5h-10.4V-643.6z M673.4-660.9h6.9v-3.5h-6.9V-660.9z"/>
	<path class="st30" d="M694.2-647h-3.5v-24.2h6.9v20.7h13.8v6.9h-17.3V-647z"/>
	<path class="st30" d="M721.8-643.6h-6.9v-24.2h3.5v-3.5h13.8v3.5h3.5v24.2h-6.9v-10.4h-6.9V-643.6z M728.7-660.9v-3.5h-6.9v3.5
		H728.7z"/>
	<path class="st30" d="M739.1-671.2h6.9v10.4h6.9v-10.4h6.9v13.8h-3.5v3.5h-3.5v10.4H746v-10.4h-3.5v-3.5h-3.5V-671.2z"/>
	<path class="st30" d="M787.5-660.9h20.7v6.9h-20.7V-660.9z"/>
</g>
<g>
	<path class="st4" d="M206.9-665.3h20.7v6.9h-20.7V-665.3z"/>
	<path class="st4" d="M262.2-648h-6.9v-27.6h17.3v3.5h3.5v10.4h-3.5v3.5h-10.4V-648z M262.2-665.3h6.9v-3.5h-6.9V-665.3z"/>
	<path class="st4" d="M289.8-658.4h-3.5v10.4h-6.9v-27.6h17.3v3.5h3.5v10.4h-3.5v3.5h3.5v10.4h-6.9v-6.9h-3.5V-658.4z M286.4-665.3
		h6.9v-3.5h-6.9V-665.3z"/>
	<path class="st4" d="M307.1-651.4h-3.5v-20.7h3.5v-3.5h17.3v6.9h-13.8v3.5h6.9v6.9h-6.9v3.5h13.8v6.9h-17.3V-651.4z"/>
	<path class="st4" d="M327.8-672.2h3.5v-3.5h17.3v6.9h-13.8v3.5h10.4v3.5h3.5v10.4h-3.5v3.5h-17.3v-6.9h13.8v-3.5h-10.4v-3.5h-3.5
		V-672.2z"/>
	<path class="st4" d="M352-672.2h3.5v-3.5h17.3v6.9h-13.8v3.5h10.4v3.5h3.5v10.4h-3.5v3.5H352v-6.9h13.8v-3.5h-10.4v-3.5H352V-672.2
		z"/>
	<path class="st4" d="M407.3-648h-6.9v-24.2h3.5v-3.5h13.8v3.5h3.5v24.2h-6.9v-10.4h-6.9V-648z M414.2-665.3v-3.5h-6.9v3.5H414.2z"
		/>
	<path class="st4" d="M435-661.8h-3.5v13.8h-6.9v-27.6h6.9v3.5h3.5v3.5h3.5v-6.9h6.9v27.6h-6.9v-10.4H435V-661.8z"/>
	<path class="st4" d="M448.8-675.6h6.9v10.4h6.9v-10.4h6.9v13.8h-3.5v3.5h-3.5v10.4h-6.9v-10.4h-3.5v-3.5h-3.5V-675.6z"/>
	<path class="st4" d="M504.1-648h-6.9v-27.6h6.9v6.9h3.5v-3.5h3.5v-3.5h6.9v6.9h-3.5v3.5H511v6.9h3.5v3.5h3.5v6.9H511v-3.5h-3.5
		v-3.5h-3.5V-648z"/>
	<path class="st4" d="M524.8-651.4h-3.5v-20.7h3.5v-3.5h17.3v6.9h-13.8v3.5h6.9v6.9h-6.9v3.5h13.8v6.9h-17.3V-651.4z"/>
	<path class="st4" d="M545.6-675.6h6.9v10.4h6.9v-10.4h6.9v13.8h-3.5v3.5h-3.5v10.4h-6.9v-10.4H549v-3.5h-3.5V-675.6z"/>
	<path class="st4" d="M594-675.6h20.7v6.9h-6.9v20.7h-6.9v-20.7H594V-675.6z"/>
	<path class="st4" d="M618.1-672.2h3.5v-3.5h13.8v3.5h3.5v20.7h-3.5v3.5h-13.8v-3.5h-3.5V-672.2z M625.1-654.9h6.9v-13.8h-6.9
		V-654.9z"/>
	<path class="st4" d="M673.4-648h-6.9v-27.6h17.3v3.5h3.5v10.4h-3.5v3.5h-10.4V-648z M673.4-665.3h6.9v-3.5h-6.9V-665.3z"/>
	<path class="st4" d="M694.2-651.4h-3.5v-24.2h6.9v20.7h13.8v6.9h-17.3V-651.4z"/>
	<path class="st4" d="M721.8-648h-6.9v-24.2h3.5v-3.5h13.8v3.5h3.5v24.2h-6.9v-10.4h-6.9V-648z M728.7-665.3v-3.5h-6.9v3.5H728.7z"
		/>
	<path class="st4" d="M739.1-675.6h6.9v10.4h6.9v-10.4h6.9v13.8h-3.5v3.5h-3.5v10.4H746v-10.4h-3.5v-3.5h-3.5V-675.6z"/>
	<path class="st4" d="M787.5-665.3h20.7v6.9h-20.7V-665.3z"/>
</g>
<path class="st31" d="M2968.7-1367.4h-2.2h-10.8h-38.7h-12.9H1377.6h-12.9H1326h-12.9h-12.9v22.6V-504v11.3v33.9v11.3v11.3h25.8
	h1578.2h12.9h38.7h10.8h2.2h12.9v-931.2H2968.7z M2955.8-1310.9v818.2v11.3h-12.9v11.3H2930v11.3h-12.9H1364.7h-12.9v-11.3h-12.9
	v-11.3H1326v-11.3v-818.2v-11.3h12.9v-11.3h12.9v-11.3h12.9H1569h135.5h1212.7h12.9v11.3h12.9v11.3h12.9V-1310.9z"/>
<polygon class="st32" points="1688.7,-1724.6 1688.7,-1733.4 1678.9,-1733.4 1322,-1733.4 1322,-1650 1678.1,-1650 1678.1,-1658.7 
	1678.9,-1658.7 1688.7,-1658.7 1688.7,-1665.6 1688.7,-1667.4 1698.6,-1667.4 1698.6,-1674.4 1698.6,-1724.6 "/>
<polygon class="st31" points="1688.2,-1733.3 1688.2,-1742.1 1678.4,-1742.1 1311.1,-1742.1 1311.1,-1735.1 1311.1,-1733.3 
	1301.2,-1733.3 1301.2,-1683.1 1311,-1683.1 1311,-1676.1 1311.1,-1676.1 1311.1,-1667.4 1321.6,-1667.4 1321.6,-1658.7 
	1677.7,-1658.7 1677.7,-1667.4 1678.4,-1667.4 1688.2,-1667.4 1688.2,-1674.3 1688.2,-1676.1 1698.1,-1676.1 1698.1,-1683.1 
	1698.1,-1733.3 "/>
<rect x="1239.3" y="-1517.3" class="st13" width="92.2" height="32.8"/>
<text transform="matrix(1 0 0 1 1260.3967 -1499.123)" class="st4" style="font-family:'EditUndoBRK'; font-size:31.5429px;">DMG</text>
<g>
	<g>
		<polygon class="st23" points="1439.1,-1482.9 1693.8,-1482.9 1693.8,-1500.9 1439.1,-1500.9 1439.1,-1500.8 1439.1,-1495.7 
			1432.1,-1495.7 1432.1,-1488.1 1439.1,-1488.1 1439.1,-1483 		"/>
	</g>
	<polygon class="st23" points="1702.4,-1495.7 1702.4,-1500.8 1702.4,-1500.9 1646.7,-1500.9 1646.7,-1482.9 1702.4,-1482.9 
		1702.4,-1483 1702.4,-1488.1 1709.3,-1488.1 1709.3,-1495.7 	"/>
</g>
<g class="st33">
	<polygon class="st34" points="2082.6,-1269.8 2082.6,-1347.8 1992.7,-1347.8 1992.7,-1337.7 1982.6,-1337.7 1982.6,-1279.8 
		1992.7,-1279.8 1992.7,-1269.8 	"/>
	<polygon class="st34" points="2317.7,-1338.7 2317.7,-1348.8 2307.6,-1348.8 2225.6,-1348.8 2225.6,-1270.8 2307.6,-1270.8 
		2317.7,-1270.8 2317.7,-1280.8 2327.7,-1280.8 2327.7,-1338.7 	"/>
	<rect x="2002.6" y="-1338.8" class="st34" width="305" height="78"/>
</g>
<g>
	<polygon class="st31" points="2092.6,-1269.8 2092.6,-1347.8 2002.7,-1347.8 2002.7,-1337.7 1992.6,-1337.7 1992.6,-1279.8 
		2002.7,-1279.8 2002.7,-1269.8 	"/>
	<polygon class="st31" points="2082.6,-1279.8 2082.6,-1357.8 1992.7,-1357.8 1992.7,-1347.7 1982.6,-1347.7 1982.6,-1289.8 
		1992.7,-1289.8 1992.7,-1279.8 	"/>
	<polygon class="st31" points="2307.7,-1337.7 2307.7,-1347.8 2297.6,-1347.8 2215.6,-1347.8 2215.6,-1269.8 2297.6,-1269.8 
		2307.7,-1269.8 2307.7,-1279.8 2317.7,-1279.8 2317.7,-1337.7 	"/>
	<polygon class="st31" points="2317.7,-1347.7 2317.7,-1357.8 2307.6,-1357.8 2225.6,-1357.8 2225.6,-1279.8 2307.6,-1279.8 
		2317.7,-1279.8 2317.7,-1289.8 2327.7,-1289.8 2327.7,-1347.7 	"/>
	<rect x="2092.6" y="-1347.8" class="st31" width="123" height="78"/>
</g>
<g>
	<polygon class="st35" points="2092.6,-1279.8 2092.6,-1357.8 2002.7,-1357.8 2002.7,-1347.7 1992.6,-1347.7 1992.6,-1289.8 
		2002.7,-1289.8 2002.7,-1279.8 	"/>
	<polygon class="st35" points="2307.7,-1347.7 2307.7,-1357.8 2297.6,-1357.8 2229.6,-1357.8 2229.6,-1279.8 2297.6,-1279.8 
		2307.7,-1279.8 2307.7,-1289.8 2317.7,-1289.8 2317.7,-1347.7 	"/>
</g>
<g class="st33">
	<polygon class="st34" points="1816.3,-1665.4 1816.3,-1735.4 1735.7,-1735.4 1735.7,-1726.4 1726.6,-1726.4 1726.6,-1674.5 
		1735.7,-1674.5 1735.7,-1665.4 	"/>
	<polygon class="st34" points="2027.1,-1727.3 2027.1,-1736.3 2018.1,-1736.3 1944.6,-1736.3 1944.6,-1666.3 2018.1,-1666.3 
		2027.1,-1666.3 2027.1,-1675.4 2036.2,-1675.4 2036.2,-1727.3 	"/>
	<rect x="1744.6" y="-1727.3" class="st34" width="273.6" height="70"/>
</g>
<g>
	<polygon class="st31" points="1825.3,-1665.4 1825.3,-1735.4 1744.6,-1735.4 1744.6,-1726.4 1735.6,-1726.4 1735.6,-1674.5 
		1744.6,-1674.5 1744.6,-1665.4 	"/>
	<polygon class="st31" points="1816.3,-1674.4 1816.3,-1744.4 1735.7,-1744.4 1735.7,-1735.3 1726.6,-1735.3 1726.6,-1683.4 
		1735.7,-1683.4 1735.7,-1674.4 	"/>
	<polygon class="st31" points="2018.2,-1726.4 2018.2,-1735.4 2009.1,-1735.4 1935.6,-1735.4 1935.6,-1665.4 2009.1,-1665.4 
		2018.2,-1665.4 2018.2,-1674.5 2027.2,-1674.5 2027.2,-1726.4 	"/>
	<polygon class="st31" points="2027.1,-1735.3 2027.1,-1744.4 2018.1,-1744.4 1944.6,-1744.4 1944.6,-1674.4 2018.1,-1674.4 
		2027.1,-1674.4 2027.1,-1683.4 2036.2,-1683.4 2036.2,-1735.3 	"/>
	<rect x="1825.3" y="-1735.4" class="st31" width="110.3" height="70"/>
</g>
<g>
	<polygon class="st35" points="1825.3,-1674.4 1825.3,-1744.4 1744.6,-1744.4 1744.6,-1735.3 1735.6,-1735.3 1735.6,-1683.4 
		1744.6,-1683.4 1744.6,-1674.4 	"/>
	<polygon class="st35" points="2018.2,-1735.3 2018.2,-1744.4 2009.1,-1744.4 1948.2,-1744.4 1948.2,-1674.4 2009.1,-1674.4 
		2018.2,-1674.4 2018.2,-1683.4 2027.2,-1683.4 2027.2,-1735.3 	"/>
</g>
<rect x="2077.6" y="-1357.8" class="st35" width="169" height="78"/>
<rect x="1811.9" y="-1744.4" class="st35" width="151.6" height="70"/>
<g>
	<rect x="2072.6" y="-1325.5" class="st13" width="179" height="81.8"/>
	<text transform="matrix(1 0 0 1 2094.7534 -1297.9)" class="st4" style="font-family:'EditUndoBRK'; font-size:48px;">124 KM</text>
</g>
<g>
	<rect x="2958.3" y="-1347.8" class="st32" width="8" height="2"/>
	<polygon class="st32" points="2877.2,-1347.8 2877.2,-1337.7 2867.3,-1337.7 2867.3,-1279.8 2877.2,-1279.8 2877.2,-1269.8 
		2877.2,-1269.8 2877.2,-1269.8 2887.1,-1269.8 2887.1,-1259.8 2942.3,-1259.8 2942.3,-1347.8 	"/>
</g>
<polygon class="st31" points="2967.3,-1347.8 2967.3,-1357.8 2877.3,-1357.8 2877.3,-1347.7 2867.3,-1347.7 2867.3,-1289.8 
	2877.3,-1289.8 2877.3,-1279.8 2877.3,-1279.8 2877.3,-1279.8 2887.3,-1279.8 2887.3,-1269.8 2977.3,-1269.8 2977.3,-1347.8 "/>
<g>
	<g>
		<g>
			<polygon class="st2" points="2937.3,-1336.3 2932,-1336.3 2899.5,-1336.3 2899.5,-1330.9 2894.2,-1330.9 2894.2,-1293.1 
				2899.5,-1293.1 2899.5,-1287.8 2932,-1287.8 2937.3,-1287.8 2937.3,-1293.1 2942.6,-1293.1 2942.6,-1330.9 2937.3,-1330.9 			"/>
			<polygon class="st3" points="2937.6,-1342 2932.2,-1342 2899.5,-1342 2899.5,-1336.6 2894.2,-1336.6 2894.2,-1298.6 
				2899.5,-1298.6 2899.5,-1293.2 2932.2,-1293.2 2937.6,-1293.2 2937.6,-1298.6 2943,-1298.6 2943,-1336.6 2937.6,-1336.6 			"/>
		</g>
		<g>
			<rect x="2907.1" y="-1312.9" class="st4" width="24.2" height="4.8"/>
			<rect x="2907.1" y="-1324.1" class="st4" width="24.2" height="4.8"/>
		</g>
	</g>
	<g class="st33">
		<polygon class="st36" points="2899.5,-1287.6 2899.5,-1282.6 2904.9,-1282.6 2937.6,-1282.6 2937.6,-1287.6 2904.9,-1287.6 		"/>
		<rect x="2894.2" y="-1293" class="st36" width="5.4" height="5"/>
		<rect x="2937.6" y="-1293" class="st36" width="5.4" height="5"/>
	</g>
</g>
<g>
	<g>
		<g>
			<polygon class="st2" points="2290.8,-1725.8 2286.6,-1725.8 2261.3,-1725.8 2261.3,-1721.6 2257.2,-1721.6 2257.2,-1692.1 
				2261.3,-1692.1 2261.3,-1688 2286.6,-1688 2290.8,-1688 2290.8,-1692.1 2295,-1692.1 2295,-1721.6 2290.8,-1721.6 			"/>
			<polygon class="st3" points="2291,-1730.2 2286.8,-1730.2 2261.3,-1730.2 2261.3,-1726.1 2257.2,-1726.1 2257.2,-1696.4 
				2261.3,-1696.4 2261.3,-1692.2 2286.8,-1692.2 2291,-1692.2 2291,-1696.4 2295.2,-1696.4 2295.2,-1726.1 2291,-1726.1 			"/>
		</g>
		<g>
			
				<rect x="2261.9" y="-1712.9" transform="matrix(-1.836970e-16 1 -1 -1.836970e-16 560.278 -3982.3274)" class="st4" width="18.9" height="3.8"/>
			
				<rect x="2272.6" y="-1712.9" transform="matrix(-1.836970e-16 1 -1 -1.836970e-16 570.9805 -3993.03)" class="st4" width="18.9" height="3.8"/>
		</g>
	</g>
	<g class="st33">
		<polygon class="st36" points="2261.3,-1687.8 2261.3,-1683.9 2265.5,-1683.9 2291,-1683.9 2291,-1687.8 2265.5,-1687.8 		"/>
		<rect x="2257.2" y="-1692" class="st36" width="4.2" height="3.9"/>
		<rect x="2291" y="-1692" class="st36" width="4.2" height="3.9"/>
	</g>
</g>
<polygon class="st23" points="1465.7,-1600.5 1465.7,-1604.3 1456.1,-1604.3 1455.7,-1604.3 1446.4,-1604.3 1446.1,-1604.3 
	1436.8,-1604.3 1436.4,-1604.3 1426.8,-1604.3 1426.8,-1600.5 1422,-1600.5 1422,-1595.1 1426.8,-1595.1 1426.8,-1591.3 
	1427,-1591.3 1431.2,-1591.3 1432.1,-1591.3 1436.3,-1591.3 1436.4,-1591.3 1436.7,-1591.3 1436.8,-1591.3 1440.9,-1591.3 
	1441.7,-1591.3 1445.9,-1591.3 1446.1,-1591.3 1446.3,-1591.3 1446.4,-1591.3 1450.5,-1591.3 1451.3,-1591.3 1455.5,-1591.3 
	1455.7,-1591.3 1455.9,-1591.3 1456.1,-1591.3 1460.1,-1591.3 1461,-1591.3 1465.2,-1591.3 1465.7,-1591.3 1465.7,-1595 
	1470.2,-1595 1470.2,-1600.5 "/>
<polygon class="st23" points="1472.4,-1837.4 1472.4,-1841.1 1462.8,-1841.1 1462.4,-1841.1 1453.2,-1841.1 1452.8,-1841.1 
	1443.5,-1841.1 1443.1,-1841.1 1433.5,-1841.1 1433.5,-1837.4 1428.7,-1837.4 1428.7,-1831.9 1433.5,-1831.9 1433.5,-1828.2 
	1433.8,-1828.2 1438,-1828.2 1438.8,-1828.2 1443,-1828.2 1443.1,-1828.2 1443.4,-1828.2 1443.5,-1828.2 1447.6,-1828.2 
	1448.4,-1828.2 1452.6,-1828.2 1452.8,-1828.2 1453,-1828.2 1453.2,-1828.2 1457.2,-1828.2 1458,-1828.2 1462.3,-1828.2 
	1462.4,-1828.2 1462.7,-1828.2 1462.8,-1828.2 1466.9,-1828.2 1467.7,-1828.2 1471.9,-1828.2 1472.4,-1828.2 1472.4,-1831.9 
	1476.9,-1831.9 1476.9,-1837.4 "/>
<polygon class="st37" points="1626.3,-1837.4 1626.3,-1841.1 1616.7,-1841.1 1616.3,-1841.1 1607,-1841.1 1606.7,-1841.1 
	1597.4,-1841.1 1597,-1841.1 1588,-1841.1 1587.4,-1841.1 1578.4,-1841.1 1578,-1841.1 1568.7,-1841.1 1568.4,-1841.1 
	1559.1,-1841.1 1558.7,-1841.1 1549.5,-1841.1 1549.1,-1841.1 1539.8,-1841.1 1539.5,-1841.1 1530.2,-1841.1 1529.8,-1841.1 
	1520.6,-1841.1 1520.2,-1841.1 1510.9,-1841.1 1510.6,-1841.1 1501.3,-1841.1 1500.9,-1841.1 1491.7,-1841.1 1491.3,-1841.1 
	1482,-1841.1 1481.7,-1841.1 1472.4,-1841.1 1472,-1841.1 1462.8,-1841.1 1462.4,-1841.1 1453.2,-1841.1 1452.8,-1841.1 
	1443.5,-1841.1 1443.1,-1841.1 1433.5,-1841.1 1433.5,-1837.4 1428.7,-1837.4 1428.7,-1831.9 1433.5,-1831.9 1433.5,-1828.2 
	1433.8,-1828.2 1438,-1828.2 1438.8,-1828.2 1443,-1828.2 1443.1,-1828.2 1443.4,-1828.2 1443.5,-1828.2 1447.6,-1828.2 
	1448.4,-1828.2 1452.6,-1828.2 1452.8,-1828.2 1453,-1828.2 1453.2,-1828.2 1457.2,-1828.2 1458,-1828.2 1462.3,-1828.2 
	1462.4,-1828.2 1462.7,-1828.2 1462.8,-1828.2 1466.9,-1828.2 1467.7,-1828.2 1471.9,-1828.2 1472,-1828.2 1472.3,-1828.2 
	1472.4,-1828.2 1476.5,-1828.2 1477.3,-1828.2 1481.5,-1828.2 1481.7,-1828.2 1481.9,-1828.2 1482,-1828.2 1486.1,-1828.2 
	1486.9,-1828.2 1491.1,-1828.2 1491.3,-1828.2 1491.5,-1828.2 1491.7,-1828.2 1495.8,-1828.2 1496.6,-1828.2 1500.8,-1828.2 
	1500.9,-1828.2 1501.2,-1828.2 1501.3,-1828.2 1505.4,-1828.2 1506.2,-1828.2 1510.4,-1828.2 1510.6,-1828.2 1510.8,-1828.2 
	1510.9,-1828.2 1515,-1828.2 1515.8,-1828.2 1520,-1828.2 1520.2,-1828.2 1520.4,-1828.2 1520.6,-1828.2 1524.6,-1828.2 
	1525.5,-1828.2 1529.7,-1828.2 1529.8,-1828.2 1530.1,-1828.2 1530.2,-1828.2 1534.3,-1828.2 1535.1,-1828.2 1539.3,-1828.2 
	1539.5,-1828.2 1539.7,-1828.2 1539.8,-1828.2 1543.9,-1828.2 1544.7,-1828.2 1548.9,-1828.2 1549.1,-1828.2 1549.3,-1828.2 
	1549.5,-1828.2 1553.5,-1828.2 1554.4,-1828.2 1558.6,-1828.2 1558.7,-1828.2 1559,-1828.2 1559.1,-1828.2 1563.2,-1828.2 
	1564,-1828.2 1568.2,-1828.2 1568.4,-1828.2 1568.6,-1828.2 1568.7,-1828.2 1572.8,-1828.2 1573.6,-1828.2 1577.8,-1828.2 
	1578,-1828.2 1578.2,-1828.2 1578.4,-1828.2 1582.4,-1828.2 1583.3,-1828.2 1587.4,-1828.2 1587.5,-1828.2 1587.6,-1828.2 
	1588,-1828.2 1591.8,-1828.2 1592.7,-1828.2 1596.9,-1828.2 1597,-1828.2 1597.3,-1828.2 1597.4,-1828.2 1601.5,-1828.2 
	1602.3,-1828.2 1606.5,-1828.2 1606.7,-1828.2 1606.9,-1828.2 1607,-1828.2 1611.1,-1828.2 1611.9,-1828.2 1616.1,-1828.2 
	1616.3,-1828.2 1616.5,-1828.2 1616.7,-1828.2 1620.7,-1828.2 1621.6,-1828.2 1625.8,-1828.2 1626.3,-1828.2 1626.3,-1831.9 
	1630.8,-1831.9 1630.8,-1837.4 "/>
<g>
	<polygon class="st31" points="3177.3,-458.8 3182.6,-458.8 3195.5,-458.8 3195.5,-470.1 3208.4,-470.1 3208.4,-481.4 
		3221.3,-481.4 3221.3,-492.7 3221.3,-506.1 3247.1,-506.1 3247.1,-504 3247.1,-492.7 3247.1,-458.8 3247.1,-447.5 3247.1,-436.2 
		3221.3,-436.2 3177.3,-436.2 	"/>
</g>
<g>
	<polygon class="st31" points="3243.5,-506 3243.5,-500.7 3243.5,-487.8 3254.8,-487.8 3254.8,-474.9 3266.1,-474.9 3266.1,-462 
		3277.4,-462 3290.7,-462 3290.7,-436.2 3288.7,-436.2 3277.4,-436.2 3243.5,-436.2 3232.2,-436.2 3220.9,-436.2 3220.9,-462 
		3220.9,-506 	"/>
</g>
<g>
	<polygon class="st31" points="3191.3,-458.8 3191.3,-453.5 3191.3,-440.6 3202.6,-440.6 3202.6,-427.7 3213.9,-427.7 
		3213.9,-414.8 3225.2,-414.8 3238.6,-414.8 3238.6,-389 3236.5,-389 3225.2,-389 3191.3,-389 3180,-389 3168.7,-389 3168.7,-414.8 
		3168.7,-458.8 	"/>
</g>
<g>
	<polygon class="st31" points="3110.1,-458.8 3104.8,-458.8 3091.9,-458.8 3091.9,-470.1 3079,-470.1 3079,-481.4 3066.1,-481.4 
		3066.1,-492.7 3066.1,-506.1 3040.3,-506.1 3040.3,-504 3040.3,-492.7 3040.3,-458.8 3040.3,-447.5 3040.3,-436.2 3066.1,-436.2 
		3110.1,-436.2 	"/>
</g>
<g>
	<polygon class="st31" points="3165.5,-411.6 3160.2,-411.6 3147.3,-411.6 3147.3,-422.9 3134.4,-422.9 3134.4,-434.2 
		3121.5,-434.2 3121.5,-445.5 3121.5,-458.8 3095.7,-458.8 3095.7,-456.8 3095.7,-445.5 3095.7,-411.6 3095.7,-400.3 3095.7,-389 
		3121.5,-389 3165.5,-389 	"/>
</g>
<g>
	<polygon class="st31" points="3043.1,-495.2 3043.1,-489.9 3043.1,-477 3031.8,-477 3031.8,-464.1 3020.5,-464.1 3020.5,-451.2 
		3009.2,-451.2 2995.8,-451.2 2995.8,-425.4 2997.9,-425.4 3009.2,-425.4 3043.1,-425.4 3054.4,-425.4 3065.7,-425.4 3065.7,-451.2 
		3065.7,-495.2 	"/>
</g>
<polygon class="st32" points="2217,-1717.5 2217,-1726.4 2216.9,-1726.4 2216.9,-1726.5 2208,-1726.5 2208,-1735.5 2180.1,-1735.5 
	2172.9,-1735.5 2158.6,-1735.5 2100.2,-1735.5 2100.2,-1726.4 2091.3,-1726.4 2091.3,-1674.5 2100.1,-1674.5 2100.1,-1665.5 
	2100.2,-1665.5 2100.2,-1665.5 2109.1,-1665.5 2109.1,-1656.5 2158.6,-1656.5 2159.4,-1656.5 2159.4,-1665.5 2181.1,-1665.5 
	2181.1,-1656.5 2216.9,-1656.5 2216.9,-1665.5 2225.9,-1665.5 2225.9,-1717.5 "/>
<polygon class="st31" points="2181,-1735.5 2181,-1744.4 2100.3,-1744.4 2100.3,-1735.4 2091.3,-1735.4 2091.3,-1683.5 
	2100.2,-1683.5 2100.2,-1674.5 2100.3,-1674.5 2100.3,-1674.4 2109.3,-1674.4 2109.3,-1665.5 2190,-1665.5 2190,-1735.5 "/>
<g>
	<polygon class="st7" points="4303.7,-1300.8 4287.2,-1300.8 4287.2,-1308.8 4270.7,-1308.8 4270.7,-1317.5 3558.6,-1317.5 
		3558.6,-1308.8 3542.1,-1308.8 3542.1,-1300.8 3525.6,-1300.8 3525.6,-832.9 3542.1,-832.9 3542.1,-824.9 3558.6,-824.9 
		3558.6,-816.2 4270.7,-816.2 4270.7,-824.9 4287.2,-824.9 4287.2,-832.9 4303.7,-832.9 	"/>
	<polygon class="st8" points="4303.7,-1309 4287.2,-1309 4287.2,-1317 4270.7,-1317 4270.7,-1325.7 3558.6,-1325.7 3558.6,-1317 
		3542.1,-1317 3542.1,-1309 3525.6,-1309 3525.6,-841.1 3542.1,-841.1 3542.1,-833.1 3558.6,-833.1 3558.6,-824.4 4270.7,-824.4 
		4270.7,-833.1 4287.2,-833.1 4287.2,-841.1 4303.7,-841.1 	"/>
</g>
<g>
	<g>
		<polygon class="st20" points="4380.3,-1202.6 4380.3,-1025.6 4393.8,-1025.6 4393.8,-1015.3 4407.3,-1015.3 4407.3,-1004 
			4988.9,-1004 4988.9,-1015.3 5002.4,-1015.3 5002.4,-1025.6 5015.9,-1025.6 5015.9,-1202.6 		"/>
		<polygon class="st20" points="5015.9,-1202.6 5015.9,-1304.4 5002.4,-1304.4 5002.4,-1314.7 4988.9,-1314.7 4988.9,-1326.1 
			4407.3,-1326.1 4407.3,-1314.7 4393.8,-1314.7 4393.8,-1304.4 4380.3,-1304.4 4380.3,-1202.6 		"/>
	</g>
	<g>
		<polygon class="st21" points="4393.8,-1304.3 4407.3,-1304.3 4407.3,-1314.7 4393.8,-1314.7 4393.8,-1304.4 4380.3,-1304.4 
			4380.3,-1294 4393.8,-1294 		"/>
		<rect x="4407.3" y="-1326.1" class="st21" width="581.6" height="10.4"/>
		<polygon class="st21" points="5002.4,-1304.4 5002.4,-1314.7 4988.9,-1314.7 4988.9,-1304.3 5002.4,-1304.3 5002.4,-1294 
			5015.9,-1294 5015.9,-1304.4 		"/>
	</g>
</g>
<g>
	<polygon class="st2" points="3798.1,-767.7 3791.2,-767.7 3532.5,-767.7 3532.5,-760.7 3525.6,-760.7 3525.6,-720.8 3532.5,-720.8 
		3532.5,-713.9 3791.2,-713.9 3798.1,-713.9 3798.1,-720.8 3805.1,-720.8 3805.1,-760.7 3798.1,-760.7 	"/>
	<polygon class="st3" points="3798.1,-774.6 3791.2,-774.6 3532.5,-774.6 3532.5,-767.6 3525.6,-767.6 3525.6,-727.7 3532.5,-727.7 
		3532.5,-720.8 3791.2,-720.8 3798.1,-720.8 3798.1,-727.7 3805.1,-727.7 3805.1,-767.6 3798.1,-767.6 	"/>
	<g>
		<path class="st4" d="M3576.2-739.5h-11.9v-19.1h11.9v2.4h2.4v4.8h-2.4v4.8h2.4v4.8h-2.4V-739.5z M3569.1-751.4h4.8v-2.4h-4.8
			V-751.4z M3569.1-744.2h4.8v-2.4h-4.8V-744.2z"/>
		<path class="st4" d="M3585.8-739.5h-4.8v-16.7h2.4v-2.4h9.5v2.4h2.4v16.7h-4.8v-7.2h-4.8V-739.5z M3590.5-751.4v-2.4h-4.8v2.4
			H3590.5z"/>
		<path class="st4" d="M3597.7-756.2h2.4v-2.4h11.9v4.8h-9.5v9.5h9.5v4.8h-11.9v-2.4h-2.4V-756.2z"/>
		<path class="st4" d="M3619.2-739.5h-4.8v-19.1h4.8v4.8h2.4v-2.4h2.4v-2.4h4.8v4.8h-2.4v2.4h-2.4v4.8h2.4v2.4h2.4v4.8h-4.8v-2.4
			h-2.4v-2.4h-2.4V-739.5z"/>
		<path class="st4" d="M3647.8-758.5h14.3v4.8h-4.8v14.3h-4.8v-14.3h-4.8V-758.5z"/>
		<path class="st4" d="M3664.5-756.2h2.4v-2.4h9.5v2.4h2.4v14.3h-2.4v2.4h-9.5v-2.4h-2.4V-756.2z M3669.2-744.2h4.8v-9.5h-4.8
			V-744.2z"/>
		<path class="st4" d="M3702.6-739.5h-4.8v-19.1h4.8v2.4h2.4v2.4h2.4v-2.4h2.4v-2.4h4.8v19.1h-4.8v-9.5h-2.4v2.4h-2.4v-2.4h-2.4
			V-739.5z"/>
		<path class="st4" d="M3719.3-741.9h-2.4v-14.3h2.4v-2.4h11.9v4.8h-9.5v2.4h4.8v4.8h-4.8v2.4h9.5v4.8h-11.9V-741.9z"/>
		<path class="st4" d="M3740.8-749h-2.4v9.5h-4.8v-19.1h4.8v2.4h2.4v2.4h2.4v-4.8h4.8v19.1h-4.8v-7.2h-2.4V-749z"/>
		<path class="st4" d="M3750.3-758.5h4.8v14.3h4.8v-14.3h4.8v16.7h-2.4v2.4h-9.5v-2.4h-2.4V-758.5z"/>
	</g>
</g>
<g>
	<polygon class="st2" points="4296.8,-687.1 4289.8,-687.1 4031.2,-687.1 4031.2,-680.1 4024.2,-680.1 4024.2,-640.2 4031.2,-640.2 
		4031.2,-633.3 4289.8,-633.3 4296.8,-633.3 4296.8,-640.2 4303.7,-640.2 4303.7,-680.1 4296.8,-680.1 	"/>
	<polygon class="st2" points="4296.8,-687 4289.8,-687 4031.2,-687 4031.2,-680 4024.2,-680 4024.2,-640.1 4031.2,-640.1 
		4031.2,-633.2 4289.8,-633.2 4296.8,-633.2 4296.8,-640.1 4303.7,-640.1 4303.7,-680 4296.8,-680 	"/>
	<g>
		<path class="st4" d="M4089.2-671h14.3v4.8h-4.8v14.3h-4.8v-14.3h-4.8V-671z"/>
		<path class="st4" d="M4113-659h-2.4v7.2h-4.8V-671h11.9v2.4h2.4v7.2h-2.4v2.4h2.4v7.2h-4.8v-4.8h-2.4V-659z M4110.6-663.8h4.8
			v-2.4h-4.8V-663.8z"/>
		<path class="st4" d="M4122.5-671h4.8v7.2h4.8v-7.2h4.8v9.5h-2.4v2.4h-2.4v7.2h-4.8v-7.2h-2.4v-2.4h-2.4V-671z"/>
		<path class="st4" d="M4160.7-651.9h-4.8v-16.7h2.4v-2.4h9.5v2.4h2.4v16.7h-4.8v-7.2h-4.8V-651.9z M4165.5-663.8v-2.4h-4.8v2.4
			H4165.5z"/>
		<path class="st4" d="M4175-654.3h-2.4v-14.3h2.4v-2.4h11.9v4.8h-9.5v9.5h4.8v-2.4h-2.4v-4.8h7.2v11.9H4175V-654.3z"/>
		<path class="st4" d="M4194.1-651.9h-4.8v-16.7h2.4v-2.4h9.5v2.4h2.4v16.7h-4.8v-7.2h-4.8V-651.9z M4198.8-663.8v-2.4h-4.8v2.4
			H4198.8z"/>
		<path class="st4" d="M4206-671h14.3v4.8h-4.8v9.5h4.8v4.8H4206v-4.8h4.8v-9.5h-4.8V-671z"/>
		<path class="st4" d="M4229.8-661.4h-2.4v9.5h-4.8V-671h4.8v2.4h2.4v2.4h2.4v-4.8h4.8v19.1h-4.8v-7.2h-2.4V-661.4z"/>
	</g>
</g>
<g>
	<polygon class="st2" points="4296.8,-770.1 4289.8,-770.1 4031.2,-770.1 4031.2,-763.1 4024.2,-763.1 4024.2,-723.2 4031.2,-723.2 
		4031.2,-716.3 4289.8,-716.3 4296.8,-716.3 4296.8,-723.2 4303.7,-723.2 4303.7,-763.1 4296.8,-763.1 	"/>
	<polygon class="st3" points="4296.8,-777 4289.8,-777 4031.2,-777 4031.2,-770 4024.2,-770 4024.2,-730.1 4031.2,-730.1 
		4031.2,-723.2 4289.8,-723.2 4296.8,-723.2 4296.8,-730.1 4303.7,-730.1 4303.7,-770 4296.8,-770 	"/>
	<g>
		<path class="st4" d="M4089.2-761h14.3v4.8h-4.8v14.3h-4.8v-14.3h-4.8V-761z"/>
		<path class="st4" d="M4113-749h-2.4v7.2h-4.8V-761h11.9v2.4h2.4v7.2h-2.4v2.4h2.4v7.2h-4.8v-4.8h-2.4V-749z M4110.6-753.8h4.8
			v-2.4h-4.8V-753.8z"/>
		<path class="st4" d="M4122.5-761h4.8v7.2h4.8v-7.2h4.8v9.5h-2.4v2.4h-2.4v7.2h-4.8v-7.2h-2.4v-2.4h-2.4V-761z"/>
		<path class="st4" d="M4160.7-741.9h-4.8v-16.7h2.4v-2.4h9.5v2.4h2.4v16.7h-4.8v-7.2h-4.8V-741.9z M4165.5-753.8v-2.4h-4.8v2.4
			H4165.5z"/>
		<path class="st4" d="M4175-744.3h-2.4v-14.3h2.4v-2.4h11.9v4.8h-9.5v9.5h4.8v-2.4h-2.4v-4.8h7.2v11.9H4175V-744.3z"/>
		<path class="st4" d="M4194.1-741.9h-4.8v-16.7h2.4v-2.4h9.5v2.4h2.4v16.7h-4.8v-7.2h-4.8V-741.9z M4198.8-753.8v-2.4h-4.8v2.4
			H4198.8z"/>
		<path class="st4" d="M4206-761h14.3v4.8h-4.8v9.5h4.8v4.8H4206v-4.8h4.8v-9.5h-4.8V-761z"/>
		<path class="st4" d="M4229.8-751.4h-2.4v9.5h-4.8V-761h4.8v2.4h2.4v2.4h2.4v-4.8h4.8v19.1h-4.8v-7.2h-2.4V-751.4z"/>
	</g>
</g>
<g>
	<polygon class="st2" points="3798.1,-686.7 3791.2,-686.7 3532.5,-686.7 3532.5,-679.7 3525.6,-679.7 3525.6,-639.8 3532.5,-639.8 
		3532.5,-632.9 3791.2,-632.9 3798.1,-632.9 3798.1,-639.8 3805.1,-639.8 3805.1,-679.7 3798.1,-679.7 	"/>
	<polygon class="st2" points="3798.1,-686.6 3791.2,-686.6 3532.5,-686.6 3532.5,-679.6 3525.6,-679.6 3525.6,-639.7 3532.5,-639.7 
		3532.5,-632.8 3791.2,-632.8 3798.1,-632.8 3798.1,-639.7 3805.1,-639.7 3805.1,-679.6 3798.1,-679.6 	"/>
	<g>
		<path class="st4" d="M3576.2-651.5h-11.9v-19.1h11.9v2.4h2.4v4.8h-2.4v4.8h2.4v4.8h-2.4V-651.5z M3569.1-663.4h4.8v-2.4h-4.8
			V-663.4z M3569.1-656.2h4.8v-2.4h-4.8V-656.2z"/>
		<path class="st4" d="M3585.8-651.5h-4.8v-16.7h2.4v-2.4h9.5v2.4h2.4v16.7h-4.8v-7.2h-4.8V-651.5z M3590.5-663.4v-2.4h-4.8v2.4
			H3590.5z"/>
		<path class="st4" d="M3597.7-668.2h2.4v-2.4h11.9v4.8h-9.5v9.5h9.5v4.8h-11.9v-2.4h-2.4V-668.2z"/>
		<path class="st4" d="M3619.2-651.5h-4.8v-19.1h4.8v4.8h2.4v-2.4h2.4v-2.4h4.8v4.8h-2.4v2.4h-2.4v4.8h2.4v2.4h2.4v4.8h-4.8v-2.4
			h-2.4v-2.4h-2.4V-651.5z"/>
		<path class="st4" d="M3647.8-670.5h14.3v4.8h-4.8v14.3h-4.8v-14.3h-4.8V-670.5z"/>
		<path class="st4" d="M3664.5-668.2h2.4v-2.4h9.5v2.4h2.4v14.3h-2.4v2.4h-9.5v-2.4h-2.4V-668.2z M3669.2-656.2h4.8v-9.5h-4.8
			V-656.2z"/>
		<path class="st4" d="M3702.6-651.5h-4.8v-19.1h4.8v2.4h2.4v2.4h2.4v-2.4h2.4v-2.4h4.8v19.1h-4.8v-9.5h-2.4v2.4h-2.4v-2.4h-2.4
			V-651.5z"/>
		<path class="st4" d="M3719.3-653.9h-2.4v-14.3h2.4v-2.4h11.9v4.8h-9.5v2.4h4.8v4.8h-4.8v2.4h9.5v4.8h-11.9V-653.9z"/>
		<path class="st4" d="M3740.8-661h-2.4v9.5h-4.8v-19.1h4.8v2.4h2.4v2.4h2.4v-4.8h4.8v19.1h-4.8v-7.2h-2.4V-661z"/>
		<path class="st4" d="M3750.3-670.5h4.8v14.3h4.8v-14.3h4.8v16.7h-2.4v2.4h-9.5v-2.4h-2.4V-670.5z"/>
	</g>
</g>
<g>
	<path class="st4" d="M27.7,16.6h-1.3v3.9h-2.6V10.1h6.5v1.3h1.3v3.9h-1.3v1.3h1.3v3.9H29v-2.6h-1.3V16.6z M26.4,14H29v-1.3h-2.6V14
		z"/>
	<path class="st4" d="M34.2,19.2h-1.3v-7.8h1.3v-1.3h6.5v2.6h-5.2V14h2.6v2.6h-2.6v1.3h5.2v2.6h-6.5V19.2z"/>
	<path class="st4" d="M44.6,20.5H42v-9.1h1.3v-1.3h5.2v1.3h1.3v9.1h-2.6v-3.9h-2.6V20.5z M47.2,14v-1.3h-2.6V14H47.2z"/>
	<path class="st4" d="M56.2,20.5H51V10.1h5.2v1.3h1.3v1.3h1.3v5.2h-1.3v1.3h-1.3V20.5z M54.9,12.7h-1.3v5.2h1.3v-1.3h1.3V14h-1.3
		V12.7z"/>
	<path class="st4" d="M60.1,10.1h2.6V14h2.6v-3.9h2.6v5.2h-1.3v1.3h-1.3v3.9h-2.6v-3.9h-1.3v-1.3h-1.3V10.1z"/>
	<path class="st4" d="M78.3,10.1H86v2.6h-2.6v7.8h-2.6v-7.8h-2.6V10.1z"/>
	<path class="st4" d="M87.3,11.4h1.3v-1.3h5.2v1.3h1.3v7.8h-1.3v1.3h-5.2v-1.3h-1.3V11.4z M89.9,17.9h2.6v-5.2h-2.6V17.9z"/>
	<path class="st4" d="M106.8,19.2h-1.3v-7.8h1.3v-1.3h6.5v2.6h-5.2v5.2h2.6v-1.3h-1.3V14h3.9v6.5h-6.5V19.2z"/>
	<path class="st4" d="M114.6,11.4h1.3v-1.3h5.2v1.3h1.3v7.8H121v1.3h-5.2v-1.3h-1.3V11.4z M117.1,17.9h2.6v-5.2h-2.6V17.9z"/>
	<path class="st4" d="M123.6,10.1h2.6v6.5h-2.6V10.1z M123.6,17.9h2.6v2.6h-2.6V17.9z"/>
</g>
<g>
	<path class="st4" d="M27.7-23.4h-1.3v3.9h-2.6v-10.4h6.5v1.3h1.3v3.9h-1.3v1.3h1.3v3.9H29v-2.6h-1.3V-23.4z M26.4-26H29v-1.3h-2.6
		V-26z"/>
	<path class="st4" d="M34.2-20.8h-1.3v-7.8h1.3v-1.3h6.5v2.6h-5.2v1.3h2.6v2.6h-2.6v1.3h5.2v2.6h-6.5V-20.8z"/>
	<path class="st4" d="M44.6-19.5H42v-9.1h1.3v-1.3h5.2v1.3h1.3v9.1h-2.6v-3.9h-2.6V-19.5z M47.2-26v-1.3h-2.6v1.3H47.2z"/>
	<path class="st4" d="M56.2-19.5H51v-10.4h5.2v1.3h1.3v1.3h1.3v5.2h-1.3v1.3h-1.3V-19.5z M54.9-27.2h-1.3v5.2h1.3v-1.3h1.3V-26h-1.3
		V-27.2z"/>
	<path class="st4" d="M60.1-29.8h2.6v3.9h2.6v-3.9h2.6v5.2h-1.3v1.3h-1.3v3.9h-2.6v-3.9h-1.3v-1.3h-1.3V-29.8z"/>
	<path class="st4" d="M78.3-29.8H86v2.6h-2.6v7.8h-2.6v-7.8h-2.6V-29.8z"/>
	<path class="st4" d="M87.3-28.5h1.3v-1.3h5.2v1.3h1.3v7.8h-1.3v1.3h-5.2v-1.3h-1.3V-28.5z M89.9-22.1h2.6v-5.2h-2.6V-22.1z"/>
	<path class="st4" d="M106.8-20.8h-1.3v-7.8h1.3v-1.3h6.5v2.6h-5.2v5.2h2.6v-1.3h-1.3V-26h3.9v6.5h-6.5V-20.8z"/>
	<path class="st4" d="M114.6-28.5h1.3v-1.3h5.2v1.3h1.3v7.8H121v1.3h-5.2v-1.3h-1.3V-28.5z M117.1-22.1h2.6v-5.2h-2.6V-22.1z"/>
	<path class="st4" d="M123.6-29.8h2.6v6.5h-2.6V-29.8z M123.6-22.1h2.6v2.6h-2.6V-22.1z"/>
</g>
</svg>
