<!-- Generator: Adobe Illustrator 19.2.1, SVG Export Plug-In  -->
<svg version="1.1"
	 xmlns="http://www.w3.org/2000/svg" xmlns:xlink="http://www.w3.org/1999/xlink" xmlns:a="http://ns.adobe.com/AdobeSVGViewerExtensions/3.0/"
	 x="0px" y="0px" width="93.8px" height="18.1px" viewBox="0 0 93.8 18.1" style="enable-background:new 0 0 93.8 18.1;"
	 xml:space="preserve">
<style type="text/css">
	.st0{fill:#910E46;}
	.st1{fill:#FFFFFF;}
</style>
<defs>
</defs>
<g>
	<g>
		<polygon class="st0" points="91.5,0 89.2,0 2.3,0 2.3,2.3 0,2.3 0,15.8 2.3,15.8 2.3,18.1 89.2,18.1 91.5,18.1 91.5,15.8
			93.8,15.8 93.8,2.3 91.5,2.3 		"/>
		<polygon class="st0" points="91.5,0 89.2,0 2.3,0 2.3,2.3 0,2.3 0,15.8 2.3,15.8 2.3,18.1 89.2,18.1 91.5,18.1 91.5,15.8
			93.8,15.8 93.8,2.3 91.5,2.3 		"/>
	</g>
	<g>
		<rect x="3.9" y="1.4" class="st1" width="8.3" height="1.1"/>
		<rect x="13.3" y="1.4" class="st1" width="1.1" height="1.1"/>
	</g>
</g>
<g>
	<path class="st1" d="M17.5,9.5h-0.8V12h-1.6V5.4h4.1v0.8H20v2.5h-0.8v0.8H20V12h-1.6v-1.6h-0.8L17.5,9.5L17.5,9.5z M16.7,7.8h1.6V7
		h-1.6V7.8z"/>
	<path class="st1" d="M21.6,11.1h-0.8V6.2h0.8V5.4h4.1V7h-3.3v0.8h1.6v1.6h-1.6v0.8h3.3V12h-4.1V11.1z"/>
	<path class="st1" d="M28.2,12h-1.6V6.2h0.8V5.4h3.3v0.8h0.8V12h-1.6V9.5h-1.6L28.2,12L28.2,12z M29.9,7.8V7h-1.6v0.8H29.9z"/>
	<path class="st1" d="M35.6,12h-3.3V5.4h3.3v0.8h0.8V7h0.8v3.3h-0.8v0.8h-0.8V12z M34.8,7h-0.8v3.3h0.8V9.5h0.8V7.8h-0.8V7z"/>
	<path class="st1" d="M38,5.4h1.6v2.5h1.6V5.4H43v3.3h-0.8v0.8h-0.8V12h-1.6V9.5h-0.8V8.7H38L38,5.4L38,5.4z"/>
	<path class="st1" d="M49.6,5.4h4.9V7h-1.6V12h-1.6V7h-1.6L49.6,5.4L49.6,5.4z"/>
	<path class="st1" d="M55.3,6.2h0.8V5.4h3.3v0.8h0.8v4.9h-0.8V12h-3.3v-0.8h-0.8V6.2z M56.9,10.3h1.6V7h-1.6V10.3z"/>
	<path class="st1" d="M67.6,11.1h-0.8V6.2h0.8V5.4h4.1V7h-3.3v3.3h1.6V9.5h-0.8V7.8h2.5V12h-4.1V11.1z"/>
	<path class="st1" d="M72.5,6.2h0.8V5.4h3.3v0.8h0.8v4.9h-0.8V12h-3.3v-0.8h-0.8V6.2z M74.1,10.3h1.6V7h-1.6V10.3z"/>
	<path class="st1" d="M78.2,5.4h1.6v4.1h-1.6V5.4z M78.2,10.3h1.6V12h-1.6V10.3z"/>
</g>
</svg>
