<?xml version="1.0" encoding="utf-8"?>
<!-- Generator: Adobe Illustrator 22.0.1, SVG Export Plug-In . SVG Version: 6.00 Build 0)  -->
<svg version="1.1" id="Layer_1" xmlns="http://www.w3.org/2000/svg" xmlns:xlink="http://www.w3.org/1999/xlink" x="0px" y="0px"
	 width="148.2px" height="32.2px" viewBox="0 0 148.2 32.2" style="enable-background:new 0 0 148.2 32.2;" xml:space="preserve">
<style type="text/css">
	.st0{fill:#5895B7;}
	.st1{opacity:0.8;}
	.st2{fill:#C17620;}
	.st3{fill:#F4C24A;}
	.st4{fill:#2A6FBA;}
	.st5{fill:#FFFFFF;}
	.st6{fill:#4ABAEF;}
	.st7{fill:#95C9C8;}
	.st8{fill:#DDEFEE;}
	.st9{fill:#1B8E6F;}
	.st10{fill:#3CEA8A;}
	.st11{opacity:0.4;fill:#666666;}
	.st12{fill:#33BC6E;}
	.st13{fill:none;}
	.st14{fill:#7149A4;}
	.st15{fill:#BD86E0;}
	.st16{opacity:0.4;fill:#666666;stroke:#666666;stroke-width:4;stroke-linejoin:bevel;stroke-miterlimit:10;}
	.st17{fill:#F2F2F2;}
	.st18{fill:#E6E6E6;}
	.st19{fill:none;stroke:#000000;stroke-width:4;stroke-linejoin:bevel;stroke-miterlimit:10;}
	.st20{fill:#C6E0DE;}
	.st21{fill:#A7C6C3;}
	.st22{font-family:'EditUndoBRK';}
	.st23{font-size:17.5636px;}
</style>
<g>
	<rect x="524.1" y="463.9" class="st0" width="484" height="82"/>
	<rect x="976.1" y="537.9" class="st0" width="107" height="30"/>
	<g class="st1">
		<g>
			<polygon class="st0" points="540.1,483.9 540.1,565.9 444.1,565.9 444.1,554.9 456.1,554.9 456.1,542.9 468.1,542.9 468.1,530.9 
				480.1,530.9 480.1,518.9 468.1,518.9 468.1,506.9 456.1,506.9 456.1,494.9 444.1,494.9 444.1,483.9 			"/>
		</g>
		<polygon class="st0" points="526.1,541.9 540.1,564.9 540.1,541.9 		"/>
	</g>
	<g>
		<g>
			<polygon class="st2" points="987.1,475.9 987.1,557.9 1083.1,557.9 1083.1,546.9 1071.1,546.9 1071.1,534.9 1059.1,534.9 
				1059.1,522.9 1047.1,522.9 1047.1,510.9 1059.1,510.9 1059.1,498.9 1071.1,498.9 1071.1,486.9 1083.1,486.9 1083.1,475.9 			"/>
			<polygon class="st3" points="987.1,464.9 987.1,546.9 1083.1,546.9 1083.1,535.9 1071.1,535.9 1071.1,523.9 1059.1,523.9 
				1059.1,511.9 1047.1,511.9 1047.1,499.9 1059.1,499.9 1059.1,487.9 1071.1,487.9 1071.1,475.9 1083.1,475.9 1083.1,464.9 			"/>
		</g>
		<polygon class="st2" points="1001.1,533.9 987.1,556.9 987.2,533.9 		"/>
		<g>
			<g>
				<polygon class="st2" points="531.1,475.9 531.1,557.9 435.1,557.9 435.1,546.9 447.1,546.9 447.1,534.9 459.1,534.9 
					459.1,522.9 471.1,522.9 471.1,510.9 459.1,510.9 459.1,498.9 447.1,498.9 447.1,486.9 435.1,486.9 435.1,475.9 				"/>
				<polygon class="st3" points="531.1,464.9 531.1,546.9 435.1,546.9 435.1,535.9 447.1,535.9 447.1,523.9 459.1,523.9 
					459.1,511.9 471.1,511.9 471.1,499.9 459.1,499.9 459.1,487.9 447.1,487.9 447.1,475.9 435.1,475.9 435.1,464.9 				"/>
			</g>
			<polygon class="st2" points="517.1,533.9 531.1,556.9 531.1,533.9 			"/>
		</g>
		<g>
			<rect x="517.1" y="451.9" class="st2" width="484" height="82"/>
			<rect x="517.1" y="439.9" class="st3" width="484" height="82"/>
		</g>
	</g>
	<rect x="539.9" y="465.2" class="st13" width="415.2" height="81.8"/>
	<text transform="matrix(1 0 0 1 579.0808 499.7168)" class="st5 st22" style="font-size:60px;">HOW TO PLAY</text>
</g>
<polygon class="st4" points="693.1,732.9 681.1,732.9 608.1,732.9 608.1,744.9 596.1,744.9 596.1,829.9 608.1,829.9 608.1,841.9 
	681.1,841.9 693.1,841.9 693.1,829.9 705.1,829.9 705.1,744.9 693.1,744.9 "/>
<polygon class="st4" points="693.1,732.9 681.1,732.9 608.1,732.9 608.1,744.9 596.1,744.9 596.1,829.9 608.1,829.9 608.1,841.9 
	681.1,841.9 693.1,841.9 693.1,829.9 705.1,829.9 705.1,744.9 693.1,744.9 "/>
<rect x="608.1" y="767.2" class="st13" width="89" height="81.8"/>
<text transform="matrix(1 0 0 1 632.6951 812.6602)" class="st5 st22" style="font-size:79px;">?</text>
<polygon class="st4" points="844.1,732.9 832.1,732.9 759.1,732.9 759.1,744.9 747.1,744.9 747.1,829.9 759.1,829.9 759.1,841.9 
	832.1,841.9 844.1,841.9 844.1,829.9 856.1,829.9 856.1,744.9 844.1,744.9 "/>
<polygon class="st6" points="844.1,722.9 832.1,722.9 759.1,722.9 759.1,734.9 747.1,734.9 747.1,819.9 759.1,819.9 759.1,831.9 
	832.1,831.9 844.1,831.9 844.1,819.9 856.1,819.9 856.1,734.9 844.1,734.9 "/>
<rect x="759.1" y="757.2" class="st13" width="89" height="81.8"/>
<text transform="matrix(1 0 0 1 783.6951 802.6602)" class="st5 st22" style="font-size:79px;">?</text>
<g>
	<polygon class="st0" points="1879.1,577.5 1867.5,577.5 1867.5,565.8 1856,565.8 1856,553 1357.2,553 1357.2,565.8 1345.7,565.8 
		1345.7,577.5 1334.1,577.5 1334.1,1262.2 1345.7,1262.2 1345.7,1273.8 1357.2,1273.8 1357.2,1286.6 1856,1286.6 1856,1273.8 
		1867.5,1273.8 1867.5,1262.2 1879.1,1262.2 	"/>
	<polygon class="st7" points="1879.1,565.4 1867.5,565.4 1867.5,553.8 1856,553.8 1856,541 1357.2,541 1357.2,553.8 1345.7,553.8 
		1345.7,565.4 1334.1,565.4 1334.1,1250.2 1345.7,1250.2 1345.7,1261.8 1357.2,1261.8 1357.2,1274.6 1856,1274.6 1856,1261.8 
		1867.5,1261.8 1867.5,1250.2 1879.1,1250.2 	"/>
	<polygon class="st8" points="1879.1,553.4 1867.5,553.4 1867.5,541.8 1856,541.8 1856,529 1357.2,529 1357.2,541.8 1345.7,541.8 
		1345.7,553.4 1334.1,553.4 1334.1,1238.1 1345.7,1238.1 1345.7,1249.8 1357.2,1249.8 1357.2,1262.6 1856,1262.6 1856,1249.8 
		1867.5,1249.8 1867.5,1238.1 1879.1,1238.1 	"/>
</g>
<g>
	<polygon class="st9" points="830.1,213 820.1,213 445.2,213 445.2,223 435.1,223 435.1,280.9 445.2,280.9 445.2,291 820.1,291 
		830.1,291 830.1,280.9 840.2,280.9 840.2,223 830.1,223 	"/>
	<polygon class="st10" points="830.1,203 820.1,203 445.2,203 445.2,213 435.1,213 435.1,270.9 445.2,270.9 445.2,281 820.1,281 
		830.1,281 830.1,270.9 840.2,270.9 840.2,213 830.1,213 	"/>
	<rect x="436.1" y="226.2" class="st13" width="404" height="81.8"/>
	<text transform="matrix(1 0 0 1 548.2478 253.8393)" class="st5 st22" style="font-size:48px;">PLAYER 1</text>
</g>
<g>
	<polygon class="st11" points="469.3,92.4 467.3,86.6 463.3,74.6 445.5,80.6 447.4,86.4 441.7,88.3 445.7,100.3 451.5,98.4 
		453.4,104.2 465.5,100.1 463.5,94.3 	"/>
	<polygon class="st11" points="508.1,80.3 506.1,74.5 502.1,62.5 484.3,68.5 486.2,74.3 480.4,76.3 484.5,88.3 490.3,86.3 
		492.2,92.1 504.3,88 502.3,82.3 	"/>
	<rect x="448.5" y="33.3" transform="matrix(0.9472 -0.3207 0.3207 0.9472 7.0016 147.7745)" width="7.1" height="38.6"/>
	<polygon points="467.7,87.6 465.7,81.8 461.6,69.8 443.8,75.8 445.8,81.6 440,83.5 444.1,95.5 449.9,93.6 451.8,99.4 463.8,95.3 
		461.9,89.5 	"/>
	<rect x="487" y="20.3" transform="matrix(0.9472 -0.3207 0.3207 0.9472 13.2116 159.4242)" width="7.1" height="38.6"/>
	<polygon points="506.1,74.5 504.2,68.8 500.1,56.7 482.3,62.8 484.3,68.5 478.5,70.5 482.6,82.5 488.3,80.6 490.3,86.3 502.3,82.3 
		500.4,76.5 	"/>
	<rect x="438.5" y="11" transform="matrix(0.9472 -0.3207 0.3207 0.9472 18.1157 149.33)" width="47.7" height="17.3"/>
</g>
<g>
	<polygon class="st11" points="535.5,125.9 536.4,121.8 538.3,113.2 525.5,110.3 524.6,114.5 520.5,113.6 518.6,122.2 522.7,123.1 
		521.8,127.3 530.4,129.2 531.3,125 	"/>
	<polygon class="st11" points="563,132.7 563.9,128.6 565.8,119.9 553,117.1 552.1,121.3 548,120.4 546.1,129 550.2,129.9 
		549.3,134.1 557.9,136 558.9,131.8 	"/>
	<rect x="537.1" y="82.6" transform="matrix(0.9766 0.2149 -0.2149 0.9766 33.2387 -113.6981)" width="5" height="26.9"/>
	<polygon points="536.3,122.5 537.2,118.3 539.1,109.7 526.3,106.9 525.4,111 521.2,110.1 519.3,118.8 523.5,119.7 522.6,123.8 
		531.2,125.7 532.1,121.6 	"/>
	<rect x="564.7" y="88.7" transform="matrix(0.9766 0.2149 -0.2149 0.9766 35.1928 -119.5)" width="5" height="26.9"/>
	<polygon points="563.9,128.6 564.8,124.4 566.7,115.8 553.9,113 553,117.1 548.9,116.2 547,124.8 551.1,125.8 550.2,129.9 
		558.9,131.8 559.8,127.7 	"/>
	<rect x="540.9" y="74" transform="matrix(0.9766 0.2149 -0.2149 0.9766 30.2269 -117.9425)" width="33.3" height="12"/>
</g>
<g>
	<polygon class="st11" points="611.5,64.1 610.8,61.1 609.4,54.8 600,56.8 600.7,59.9 597.7,60.6 599.1,66.9 602.1,66.2 602.8,69.3 
		609.1,67.9 608.5,64.8 	"/>
	<polygon class="st11" points="631.9,60.1 631.3,57.1 629.8,50.7 620.5,52.8 621.1,55.9 618.1,56.6 619.5,62.9 622.5,62.2 
		623.2,65.3 629.6,63.9 628.9,60.8 	"/>
	<rect x="603.1" y="33.1" transform="matrix(0.9761 -0.2173 0.2173 0.9761 5.117 132.4715)" width="3.6" height="19.8"/>
	<polygon points="611,61.6 610.3,58.6 608.9,52.2 599.5,54.3 600.1,57.4 597.1,58 598.5,64.4 601.6,63.7 602.2,66.7 608.6,65.3 
		607.9,62.3 	"/>
	<rect x="623.4" y="28.6" transform="matrix(0.9761 -0.2173 0.2173 0.9761 6.5845 136.7763)" width="3.6" height="19.8"/>
	<polygon points="631.3,57.1 630.6,54 629.2,47.7 619.8,49.8 620.5,52.8 617.4,53.5 618.8,59.9 621.9,59.2 622.5,62.2 628.9,60.8 
		628.2,57.8 	"/>
	<rect x="599.8" y="22.3" transform="matrix(0.9761 -0.2173 0.2173 0.9761 8.8102 133.615)" width="24.4" height="8.8"/>
</g>
<g>
	<polygon class="st11" points="632.1,109.9 634.7,105.8 640.2,97.2 627.5,89.2 624.9,93.3 620.8,90.7 615.3,99.2 619.4,101.9 
		616.8,106 625.4,111.4 628,107.3 	"/>
	<polygon class="st11" points="659.1,128 661.7,123.9 667.2,115.3 654.5,107.3 651.9,111.4 647.8,108.8 642.3,117.4 646.4,120 
		643.8,124.1 652.4,129.5 655,125.4 	"/>
	<rect x="645.4" y="63.8" transform="matrix(0.844 0.5363 -0.5363 0.844 143.6127 -335.2962)" width="5.7" height="30.9"/>
	<polygon points="634.3,106.5 636.9,102.4 642.4,93.8 629.7,85.7 627.1,89.9 622.9,87.2 617.5,95.8 621.6,98.4 619,102.5 627.6,108 
		630.2,103.9 	"/>
	<rect x="672.8" y="81.2" transform="matrix(0.844 0.5363 -0.5363 0.844 157.2371 -347.287)" width="5.7" height="30.9"/>
	<polygon points="661.7,123.9 664.3,119.8 669.8,111.2 657.1,103.2 654.5,107.3 650.4,104.7 644.9,113.2 649,115.9 646.4,120 
		655,125.4 657.6,121.3 	"/>
	<rect x="654.8" y="62.2" transform="matrix(0.844 0.5363 -0.5363 0.844 142.1812 -350.6584)" width="38.2" height="13.8"/>
</g>
<g>
	<polygon class="st9" points="353.4,-330.5 346.8,-330.5 100.4,-330.5 100.4,-323.9 93.8,-323.9 93.8,-285.9 100.4,-285.9 
		100.4,-279.2 346.8,-279.2 353.4,-279.2 353.4,-285.9 360,-285.9 360,-323.9 353.4,-323.9 	"/>
	<polygon class="st12" points="353.4,-330.5 346.8,-330.5 100.4,-330.5 100.4,-323.9 93.8,-323.9 93.8,-285.9 100.4,-285.9 
		100.4,-279.2 346.8,-279.2 353.4,-279.2 353.4,-285.9 360,-285.9 360,-323.9 353.4,-323.9 	"/>
	<rect x="94.4" y="-315.2" class="st13" width="265.5" height="32.8"/>
	<text transform="matrix(1 0 0 1 160.1834 -297.0682)" class="st5 st22" style="font-size:31.5429px;">Calibrate</text>
</g>
<g>
	<polygon class="st9" points="673.4,-262.5 666.8,-262.5 420.4,-262.5 420.4,-255.9 413.8,-255.9 413.8,-217.9 420.4,-217.9 
		420.4,-211.2 666.8,-211.2 673.4,-211.2 673.4,-217.9 680,-217.9 680,-255.9 673.4,-255.9 	"/>
	<polygon class="st10" points="673.4,-269.1 666.8,-269.1 420.4,-269.1 420.4,-262.5 413.8,-262.5 413.8,-224.4 420.4,-224.4 
		420.4,-217.8 666.8,-217.8 673.4,-217.8 673.4,-224.4 680,-224.4 680,-262.5 673.4,-262.5 	"/>
	<rect x="414.4" y="-253.8" class="st13" width="265.5" height="32.8"/>
	<text transform="matrix(1 0 0 1 480.1833 -235.6396)" class="st5 st22" style="font-size:31.5429px;">Calibrate</text>
</g>
<g>
	<rect x="415.4" y="-180.2" class="st9" width="219.8" height="28.8"/>
	<rect x="410.5" y="-186.7" class="st9" width="229.4" height="30.6"/>
	<polygon class="st10" points="410.5,-191.1 410.5,-161.8 415.4,-161.8 415.4,-156.1 635.1,-156.1 635.1,-161.8 639.9,-161.8 
		639.9,-191.1 	"/>
</g>
<polygon class="st9" points="630.3,-176.2 630.3,-181.3 625.2,-181.3 625.2,-181.4 568.6,-181.4 538,-181.4 512.4,-181.4 
	488.6,-181.4 425.2,-181.4 425.2,-181.4 420.1,-181.4 420.1,-176.3 415,-176.3 415,-168.6 420.1,-168.6 420.1,-163.5 425.2,-163.5 
	425.2,-163.4 488.6,-163.4 512.4,-163.4 538,-163.4 568.6,-163.4 625.2,-163.4 625.2,-163.5 630.3,-163.5 630.3,-168.6 
	635.4,-168.6 635.4,-176.2 "/>
<g>
	<rect x="406.4" y="-82.1" class="st13" width="4.7" height="0.1"/>
	<rect x="406.4" y="-64.2" class="st13" width="4.7" height="0.1"/>
	<polygon class="st5" points="427.4,-64.2 427.4,-69.3 432.5,-69.3 432.5,-76.9 427.4,-76.9 427.4,-82 422.4,-82 422.4,-82.1 
		411.2,-82.1 411.2,-82.1 406.4,-82.1 406.4,-64.2 411.2,-64.2 411.2,-64.1 422.4,-64.1 422.4,-64.2 	"/>
</g>
<g>
	<polygon class="st5" points="380.6,-117.7 380.6,-122.8 375.5,-122.8 375.5,-122.9 359.6,-122.9 359.6,-104.9 375.5,-104.9 
		375.5,-104.9 380.6,-104.9 380.6,-110 385.7,-110 385.7,-117.7 	"/>
	<polygon class="st5" points="367.1,-78.8 367.1,-83.9 367.1,-83.9 367.1,-84 362.6,-84 362,-84 357.5,-84 357.5,-84 357.5,-84 
		357.5,-78.9 352.4,-78.9 352.4,-71.2 357.5,-71.2 357.5,-66.1 357.5,-66.1 357.5,-66 362,-66 362.6,-66 367.1,-66 367.1,-66.1 
		367.1,-66.1 367.1,-71.2 372.2,-71.2 372.2,-78.8 	"/>
</g>
<polygon class="st5" points="317.3,-176.2 317.3,-181.3 317.3,-181.3 317.3,-181.4 312.8,-181.4 312.2,-181.4 307.7,-181.4 
	307.7,-181.4 307.7,-181.4 307.7,-176.3 302.6,-176.3 302.6,-168.6 307.7,-168.6 307.7,-163.5 307.7,-163.5 307.7,-163.4 
	312.2,-163.4 312.8,-163.4 317.3,-163.4 317.3,-163.5 317.3,-163.5 317.3,-168.6 322.4,-168.6 322.4,-176.2 "/>
<polygon class="st14" points="1283.1,213 1273.1,213 898.2,213 898.2,223 888.1,223 888.1,280.9 898.2,280.9 898.2,291 1273.1,291 
	1283.1,291 1283.1,280.9 1293.2,280.9 1293.2,223 1283.1,223 "/>
<polygon class="st15" points="1283.1,203 1273.1,203 898.2,203 898.2,213 888.1,213 888.1,270.9 898.2,270.9 898.2,281 1273.1,281 
	1283.1,281 1283.1,270.9 1293.2,270.9 1293.2,213 1283.1,213 "/>
<rect x="888.1" y="226.2" class="st13" width="405" height="81.8"/>
<text transform="matrix(1 0 0 1 993.8357 253.8393)" class="st5 st22" style="font-size:48px;">PLAYER 2</text>
<g>
	<rect x="909.1" y="207" class="st5" width="45.1" height="5.7"/>
	<rect x="960.4" y="207" class="st5" width="5.7" height="5.7"/>
</g>
<g>
	<rect x="454.6" y="208" class="st5" width="45.1" height="5.7"/>
	<rect x="505.9" y="208" class="st5" width="5.7" height="5.7"/>
</g>
<polygon class="st16" points="843.7,48 850.1,53.6 844.5,60 865,77.3 865,115.2 885.7,89.1 917.5,118.5 923.3,112.2 928.3,116.9 
	999.9,-1.8 "/>
<polygon class="st17" points="841.3,40.8 847.6,46.4 842,52.8 862.5,70.2 862.5,108.1 883.2,82 915,111.4 920.8,105.1 925.8,109.7 
	997.4,-9 "/>
<polygon class="st18" points="883.3,81.8 997.7,-9 862.6,70 862.6,107.9 "/>
<polygon class="st19" points="840.2,41 846.6,46.6 841,53 861.4,70.3 861.4,108.2 882.2,82.1 913.9,111.5 919.8,105.3 924.7,109.9 
	996.4,-8.8 "/>
<g>
	<polygon class="st20" points="776,-265.7 776,-102.1 786.4,-102.1 786.4,-92.6 796.8,-92.6 796.8,-82.1 1244.3,-82.1 1244.3,-92.6 
		1254.7,-92.6 1254.7,-102.1 1265,-102.1 1265,-265.7 	"/>
	<polygon class="st20" points="1265,-265.7 1265,-359.9 1254.7,-359.9 1254.7,-369.4 1244.3,-369.4 1244.3,-379.8 796.8,-379.8 
		796.8,-369.4 786.4,-369.4 786.4,-359.9 776,-359.9 776,-265.7 	"/>
</g>
<g>
	<polygon class="st21" points="786.4,-363.3 796.8,-363.3 796.8,-371.3 786.4,-371.3 786.4,-363.3 776,-363.3 776,-355.3 
		786.4,-355.3 	"/>
	<rect x="796.8" y="-380" class="st21" width="447.5" height="8"/>
	<polygon class="st21" points="1254.7,-363.3 1254.7,-371.3 1244.3,-371.3 1244.3,-363.3 1254.7,-363.3 1254.7,-355.3 1265,-355.3 
		1265,-363.3 	"/>
</g>
<g>
	<g>
		<g>
			<rect x="382.9" y="-444.2" width="10.2" height="10.2"/>
		</g>
	</g>
	<g>
		<g>
			<path d="M444.3-454.5v5.1h-5.1v5.1h5.1v20.5h5.1v5.1h-5.1v5.1h5.1h5.1v-10.2h15.4v5.1h5.1v-5.1v-30.7H444.3z M469.9-428.9h-20.5
				v-20.5h20.5V-428.9z"/>
		</g>
	</g>
	<g>
		<g>
			<rect x="454.6" y="-444.2" width="10.2" height="10.2"/>
		</g>
	</g>
	<g>
		<g>
			<rect x="382.9" y="-372.5" width="10.2" height="10.2"/>
		</g>
	</g>
	<g>
		<g>
			<rect x="444.3" y="-382.8" width="5.1" height="5.1"/>
		</g>
	</g>
	<g>
		<g>
			<rect x="418.7" y="-357.2" width="5.1" height="5.1"/>
		</g>
	</g>
	<g>
		<g>
			<rect x="423.9" y="-377.7" width="5.1" height="5.1"/>
		</g>
	</g>
	<g>
		<g>
			<rect x="423.9" y="-367.4" width="5.1" height="5.1"/>
		</g>
	</g>
	<g>
		<g>
			<rect x="469.9" y="-393" width="5.1" height="5.1"/>
		</g>
	</g>
	<g>
		<g>
			<rect x="372.7" y="-393" width="5.1" height="5.1"/>
		</g>
	</g>
	<g>
		<g>
			<rect x="372.7" y="-418.6" width="5.1" height="5.1"/>
		</g>
	</g>
	<g>
		<g>
			<polygon points="429,-449.4 429,-444.2 418.7,-444.2 418.7,-439.1 434.1,-439.1 434.1,-444.2 434.1,-449.4 			"/>
		</g>
	</g>
	<g>
		<g>
			<path d="M469.9-413.5v5.1h-10.2v5.1h-15.4v-5.1h-5.1v5.1H429v5.1h15.4v5.1h-10.2H429v-5.1h-5.1v5.1h-5.1v-5.1h-5.1v5.1h-5.1v5.1
				h10.2v5.1h5.1v-5.1h10.2v5.1H429v5.1h5.1v10.2h5.1v5.1h5.1v-5.1h15.4v-10.2h5.1v-5.1h-5.1V-393h-10.2v-5.1h10.2v5.1h5.1v-5.1h5.1
				v-5.1h5.1v-5.1v-5.1H469.9L469.9-413.5z M454.6-387.9v15.4h-15.4v-15.4H454.6z"/>
		</g>
	</g>
	<g>
		<g>
			<polygon points="439.2,-423.8 434.1,-423.8 434.1,-418.6 429,-418.6 429,-413.5 429,-408.4 434.1,-408.4 434.1,-413.5 
				439.2,-413.5 439.2,-418.6 444.3,-418.6 444.3,-423.8 			"/>
		</g>
	</g>
	<g>
		<g>
			<rect x="429" y="-357.2" width="10.2" height="5.1"/>
		</g>
	</g>
	<g>
		<g>
			<rect x="413.6" y="-449.4" width="5.1" height="5.1"/>
		</g>
	</g>
	<g>
		<g>
			<rect x="454.6" y="-413.5" width="5.1" height="5.1"/>
		</g>
	</g>
	<g>
		<g>
			<rect x="459.7" y="-418.6" width="5.1" height="5.1"/>
		</g>
	</g>
	<g>
		<g>
			<rect x="393.1" y="-393" width="5.1" height="5.1"/>
		</g>
	</g>
	<g>
		<g>
			<path d="M403.4-357.2v-20.5h5.1v-5.1v-5.1h-5.1v5.1H388v-5.1h-5.1h-5.1v5.1h-5.1v30.7h30.7h10.2v-5.1H403.4z M398.3-357.2h-20.5
				v-20.5h20.5V-357.2z"/>
		</g>
	</g>
	<g>
		<g>
			<rect x="403.4" y="-423.8" width="5.1" height="5.1"/>
		</g>
	</g>
	<g>
		<g>
			<path d="M408.5-454.5h-5.1h-30.7v30.7h5.1v5.1h5.1v-5.1h5.1v5.1h5.1v-5.1h10.2V-434h5.1v-5.1h-5.1v-10.2h5.1h5.1v-5.1H408.5z
				 M398.3-428.9h-20.5v-20.5h20.5V-428.9z"/>
		</g>
	</g>
	<g>
		<g>
			<rect x="434.1" y="-439.1" width="5.1" height="5.1"/>
		</g>
	</g>
	<g>
		<g>
			<rect x="423.9" y="-454.5" width="5.1" height="5.1"/>
		</g>
	</g>
	<g>
		<g>
			<path d="M434.1-423.8v-5.1H429v-5.1h-5.1v5.1h-10.2v-5.1h-5.1v5.1v5.1h5.1v10.2h-15.4v-5.1h-5.1v5.1h-15.4v5.1H388v5.1h-15.4v5.1
				H388v5.1h5.1v-5.1h5.1v5.1h5.1v-5.1h10.2v-5.1h-5.1v-5.1h5.1h5.1v5.1h5.1h5.1v-5.1h-5.1v-5.1h-5.1v-10.2H434.1L434.1-423.8z
				 M403.4-403.3h-10.2v-5.1h10.2V-403.3z"/>
		</g>
	</g>
	<g>
		<g>
			<polygon points="418.7,-372.5 418.7,-377.7 418.7,-382.8 413.6,-382.8 413.6,-377.7 408.5,-377.7 408.5,-372.5 413.6,-372.5 
				413.6,-367.4 408.5,-367.4 408.5,-362.3 418.7,-362.3 418.7,-367.4 423.9,-367.4 423.9,-372.5 			"/>
		</g>
	</g>
	<g>
		<g>
			<polygon points="464.8,-362.3 464.8,-367.4 459.7,-367.4 459.7,-362.3 444.3,-362.3 444.3,-357.2 454.6,-357.2 454.6,-352.1 
				459.7,-352.1 459.7,-357.2 469.9,-357.2 469.9,-352.1 475.1,-352.1 475.1,-357.2 475.1,-362.3 			"/>
		</g>
	</g>
	<g>
		<g>
			<polygon points="469.9,-382.8 469.9,-377.7 464.8,-377.7 464.8,-372.5 475.1,-372.5 475.1,-377.7 475.1,-382.8 			"/>
		</g>
	</g>
</g>
<g>
	<g>
		<polygon class="st9" points="144.5,-38.3 140.9,-38.3 3.7,-38.3 3.7,-34.7 0,-34.7 0,-13.5 3.7,-13.5 3.7,-9.8 140.9,-9.8 
			144.5,-9.8 144.5,-13.5 148.2,-13.5 148.2,-34.7 144.5,-34.7 		"/>
		<polygon class="st12" points="144.5,-38.3 140.9,-38.3 3.7,-38.3 3.7,-34.7 0,-34.7 0,-13.5 3.7,-13.5 3.7,-9.8 140.9,-9.8 
			144.5,-9.8 144.5,-13.5 148.2,-13.5 148.2,-34.7 144.5,-34.7 		"/>
		<rect x="0.4" y="-29.8" class="st13" width="147.8" height="18.3"/>
		<text transform="matrix(1 0 0 1 28.1223 -19.7238)" class="st5 st22 st23">Recalibrate</text>
	</g>
	<g>
		<rect x="6.1" y="-36.2" class="st5" width="13.1" height="1.7"/>
		<rect x="21" y="-36.2" class="st5" width="1.7" height="1.7"/>
	</g>
</g>
<g>
	<g>
		<polygon class="st9" points="144.5,3.7 140.9,3.7 3.7,3.7 3.7,7.3 0,7.3 0,28.5 3.7,28.5 3.7,32.2 140.9,32.2 144.5,32.2 
			144.5,28.5 148.2,28.5 148.2,7.3 144.5,7.3 		"/>
		<polygon class="st10" points="144.5,0 140.9,0 3.7,0 3.7,3.7 0,3.7 0,24.9 3.7,24.9 3.7,28.5 140.9,28.5 144.5,28.5 144.5,24.9 
			148.2,24.9 148.2,3.7 144.5,3.7 		"/>
		<rect x="0.4" y="8.5" class="st13" width="147.8" height="18.3"/>
		<text transform="matrix(1 0 0 1 28.1223 18.6171)" class="st5 st22 st23">Recalibrate</text>
	</g>
	<g>
		<rect x="6.1" y="2.8" class="st5" width="13.1" height="1.7"/>
		<rect x="21" y="2.8" class="st5" width="1.7" height="1.7"/>
	</g>
</g>
</svg>
