<?xml version="1.0" encoding="utf-8"?>
<!-- Generator: Adobe Illustrator 22.0.1, SVG Export Plug-In . SVG Version: 6.00 Build 0)  -->
<svg version="1.1" id="Layer_1" xmlns="http://www.w3.org/2000/svg" xmlns:xlink="http://www.w3.org/1999/xlink" x="0px" y="0px"
	 width="148.2px" height="32.2px" viewBox="0 0 148.2 32.2" style="enable-background:new 0 0 148.2 32.2;" xml:space="preserve">
<style type="text/css">
	.st0{fill:#5895B7;}
	.st1{opacity:0.8;}
	.st2{fill:#C17620;}
	.st3{fill:#F4C24A;}
	.st4{fill:#2A6FBA;}
	.st5{fill:#FFFFFF;}
	.st6{fill:#4ABAEF;}
	.st7{fill:#95C9C8;}
	.st8{fill:#DDEFEE;}
	.st9{fill:#1B8E6F;}
	.st10{fill:#3CEA8A;}
	.st11{opacity:0.4;fill:#666666;}
	.st12{fill:#33BC6E;}
	.st13{fill:none;}
	.st14{fill:#7149A4;}
	.st15{fill:#BD86E0;}
	.st16{opacity:0.4;fill:#666666;stroke:#666666;stroke-width:4;stroke-linejoin:bevel;stroke-miterlimit:10;}
	.st17{fill:#F2F2F2;}
	.st18{fill:#E6E6E6;}
	.st19{fill:none;stroke:#000000;stroke-width:4;stroke-linejoin:bevel;stroke-miterlimit:10;}
	.st20{fill:#C6E0DE;}
	.st21{fill:#A7C6C3;}
	.st22{font-family:'EditUndoBRK';}
	.st23{font-size:17.5636px;}
</style>
<g>
	<rect x="524.1" y="505.9" class="st0" width="484" height="82"/>
	<rect x="976.1" y="579.9" class="st0" width="107" height="30"/>
	<g class="st1">
		<g>
			<polygon class="st0" points="540.1,525.9 540.1,607.9 444.1,607.9 444.1,596.9 456.1,596.9 456.1,584.9 468.1,584.9 468.1,572.9 
				480.1,572.9 480.1,560.9 468.1,560.9 468.1,548.9 456.1,548.9 456.1,536.9 444.1,536.9 444.1,525.9 			"/>
		</g>
		<polygon class="st0" points="526.1,583.9 540.1,606.9 540.1,583.9 		"/>
	</g>
	<g>
		<g>
			<polygon class="st2" points="987.1,517.9 987.1,599.9 1083.1,599.9 1083.1,588.9 1071.1,588.9 1071.1,576.9 1059.1,576.9 
				1059.1,564.9 1047.1,564.9 1047.1,552.9 1059.1,552.9 1059.1,540.9 1071.1,540.9 1071.1,528.9 1083.1,528.9 1083.1,517.9 			"/>
			<polygon class="st3" points="987.1,506.9 987.1,588.9 1083.1,588.9 1083.1,577.9 1071.1,577.9 1071.1,565.9 1059.1,565.9 
				1059.1,553.9 1047.1,553.9 1047.1,541.9 1059.1,541.9 1059.1,529.9 1071.1,529.9 1071.1,517.9 1083.1,517.9 1083.1,506.9 			"/>
		</g>
		<polygon class="st2" points="1001.1,575.9 987.1,598.9 987.2,575.9 		"/>
		<g>
			<g>
				<polygon class="st2" points="531.1,517.9 531.1,599.9 435.1,599.9 435.1,588.9 447.1,588.9 447.1,576.9 459.1,576.9 
					459.1,564.9 471.1,564.9 471.1,552.9 459.1,552.9 459.1,540.9 447.1,540.9 447.1,528.9 435.1,528.9 435.1,517.9 				"/>
				<polygon class="st3" points="531.1,506.9 531.1,588.9 435.1,588.9 435.1,577.9 447.1,577.9 447.1,565.9 459.1,565.9 
					459.1,553.9 471.1,553.9 471.1,541.9 459.1,541.9 459.1,529.9 447.1,529.9 447.1,517.9 435.1,517.9 435.1,506.9 				"/>
			</g>
			<polygon class="st2" points="517.1,575.9 531.1,598.9 531.1,575.9 			"/>
		</g>
		<g>
			<rect x="517.1" y="493.9" class="st2" width="484" height="82"/>
			<rect x="517.1" y="481.9" class="st3" width="484" height="82"/>
		</g>
	</g>
	<rect x="539.9" y="507.2" class="st13" width="415.2" height="81.8"/>
	<text transform="matrix(1 0 0 1 579.0808 541.7169)" class="st5 st22" style="font-size:60px;">HOW TO PLAY</text>
</g>
<polygon class="st4" points="693.1,774.9 681.1,774.9 608.1,774.9 608.1,786.9 596.1,786.9 596.1,871.9 608.1,871.9 608.1,883.9 
	681.1,883.9 693.1,883.9 693.1,871.9 705.1,871.9 705.1,786.9 693.1,786.9 "/>
<polygon class="st4" points="693.1,774.9 681.1,774.9 608.1,774.9 608.1,786.9 596.1,786.9 596.1,871.9 608.1,871.9 608.1,883.9 
	681.1,883.9 693.1,883.9 693.1,871.9 705.1,871.9 705.1,786.9 693.1,786.9 "/>
<rect x="608.1" y="809.2" class="st13" width="89" height="81.8"/>
<text transform="matrix(1 0 0 1 632.6951 854.6602)" class="st5 st22" style="font-size:79px;">?</text>
<polygon class="st4" points="844.1,774.9 832.1,774.9 759.1,774.9 759.1,786.9 747.1,786.9 747.1,871.9 759.1,871.9 759.1,883.9 
	832.1,883.9 844.1,883.9 844.1,871.9 856.1,871.9 856.1,786.9 844.1,786.9 "/>
<polygon class="st6" points="844.1,764.9 832.1,764.9 759.1,764.9 759.1,776.9 747.1,776.9 747.1,861.9 759.1,861.9 759.1,873.9 
	832.1,873.9 844.1,873.9 844.1,861.9 856.1,861.9 856.1,776.9 844.1,776.9 "/>
<rect x="759.1" y="799.2" class="st13" width="89" height="81.8"/>
<text transform="matrix(1 0 0 1 783.6951 844.6602)" class="st5 st22" style="font-size:79px;">?</text>
<g>
	<polygon class="st0" points="1879.1,619.5 1867.5,619.5 1867.5,607.8 1856,607.8 1856,595 1357.2,595 1357.2,607.8 1345.7,607.8 
		1345.7,619.5 1334.1,619.5 1334.1,1304.2 1345.7,1304.2 1345.7,1315.8 1357.2,1315.8 1357.2,1328.6 1856,1328.6 1856,1315.8 
		1867.5,1315.8 1867.5,1304.2 1879.1,1304.2 	"/>
	<polygon class="st7" points="1879.1,607.4 1867.5,607.4 1867.5,595.8 1856,595.8 1856,583 1357.2,583 1357.2,595.8 1345.7,595.8 
		1345.7,607.4 1334.1,607.4 1334.1,1292.2 1345.7,1292.2 1345.7,1303.8 1357.2,1303.8 1357.2,1316.6 1856,1316.6 1856,1303.8 
		1867.5,1303.8 1867.5,1292.2 1879.1,1292.2 	"/>
	<polygon class="st8" points="1879.1,595.4 1867.5,595.4 1867.5,583.8 1856,583.8 1856,571 1357.2,571 1357.2,583.8 1345.7,583.8 
		1345.7,595.4 1334.1,595.4 1334.1,1280.1 1345.7,1280.1 1345.7,1291.8 1357.2,1291.8 1357.2,1304.6 1856,1304.6 1856,1291.8 
		1867.5,1291.8 1867.5,1280.1 1879.1,1280.1 	"/>
</g>
<g>
	<polygon class="st9" points="830.1,255 820.1,255 445.2,255 445.2,265 435.1,265 435.1,322.9 445.2,322.9 445.2,333 820.1,333 
		830.1,333 830.1,322.9 840.2,322.9 840.2,265 830.1,265 	"/>
	<polygon class="st10" points="830.1,245 820.1,245 445.2,245 445.2,255 435.1,255 435.1,312.9 445.2,312.9 445.2,323 820.1,323 
		830.1,323 830.1,312.9 840.2,312.9 840.2,255 830.1,255 	"/>
	<rect x="436.1" y="268.2" class="st13" width="404" height="81.8"/>
	<text transform="matrix(1 0 0 1 548.2478 295.8393)" class="st5 st22" style="font-size:48px;">PLAYER 1</text>
</g>
<g>
	<polygon class="st11" points="469.3,134.4 467.3,128.6 463.3,116.6 445.5,122.6 447.4,128.4 441.7,130.3 445.7,142.3 451.5,140.4 
		453.4,146.2 465.5,142.1 463.5,136.3 	"/>
	<polygon class="st11" points="508.1,122.3 506.1,116.5 502.1,104.5 484.3,110.5 486.2,116.3 480.4,118.3 484.5,130.3 490.3,128.3 
		492.2,134.1 504.3,130 502.3,124.3 	"/>
	<rect x="448.5" y="75.3" transform="matrix(0.9472 -0.3207 0.3207 0.9472 -6.469 149.9933)" width="7.1" height="38.6"/>
	<polygon points="467.7,129.6 465.7,123.8 461.6,111.8 443.8,117.8 445.8,123.6 440,125.5 444.1,137.5 449.9,135.6 451.8,141.4 
		463.8,137.3 461.9,131.5 	"/>
	<rect x="487" y="62.3" transform="matrix(0.9472 -0.3207 0.3207 0.9472 -0.259 161.643)" width="7.1" height="38.6"/>
	<polygon points="506.1,116.5 504.2,110.8 500.1,98.7 482.3,104.8 484.3,110.5 478.5,112.5 482.6,124.5 488.3,122.6 490.3,128.3 
		502.3,124.3 500.4,118.5 	"/>
	<rect x="438.5" y="53" transform="matrix(0.9472 -0.3207 0.3207 0.9472 4.6452 151.5487)" width="47.7" height="17.3"/>
</g>
<g>
	<polygon class="st11" points="535.5,167.9 536.4,163.8 538.3,155.2 525.5,152.3 524.6,156.5 520.5,155.6 518.6,164.2 522.7,165.1 
		521.8,169.3 530.4,171.2 531.3,167 	"/>
	<polygon class="st11" points="563,174.7 563.9,170.6 565.8,161.9 553,159.1 552.1,163.3 548,162.4 546.1,171 550.2,171.9 
		549.3,176.1 557.9,178 558.9,173.8 	"/>
	<rect x="537.1" y="124.6" transform="matrix(0.9766 0.2149 -0.2149 0.9766 42.264 -112.7169)" width="5" height="26.9"/>
	<polygon points="536.3,164.5 537.2,160.3 539.1,151.7 526.3,148.9 525.4,153 521.2,152.1 519.3,160.8 523.5,161.7 522.6,165.8 
		531.2,167.7 532.1,163.6 	"/>
	<rect x="564.7" y="130.7" transform="matrix(0.9766 0.2149 -0.2149 0.9766 44.2181 -118.5189)" width="5" height="26.9"/>
	<polygon points="563.9,170.6 564.8,166.4 566.7,157.8 553.9,155 553,159.1 548.9,158.2 547,166.8 551.1,167.8 550.2,171.9 
		558.9,173.8 559.8,169.7 	"/>
	<rect x="540.9" y="116" transform="matrix(0.9766 0.2149 -0.2149 0.9766 39.2522 -116.9613)" width="33.3" height="12"/>
</g>
<g>
	<polygon class="st11" points="611.5,106.1 610.8,103.1 609.4,96.8 600,98.8 600.7,101.9 597.7,102.6 599.1,108.9 602.1,108.2 
		602.8,111.3 609.1,109.9 608.5,106.8 	"/>
	<polygon class="st11" points="631.9,102.1 631.3,99.1 629.8,92.7 620.5,94.8 621.1,97.9 618.1,98.6 619.5,104.9 622.5,104.2 
		623.2,107.3 629.6,105.9 628.9,102.8 	"/>
	<rect x="603.1" y="75.1" transform="matrix(0.9761 -0.2173 0.2173 0.9761 -4.0091 133.475)" width="3.6" height="19.8"/>
	<polygon points="611,103.6 610.3,100.6 608.9,94.2 599.5,96.3 600.1,99.4 597.1,100 598.5,106.4 601.6,105.7 602.2,108.7 
		608.6,107.3 607.9,104.3 	"/>
	<rect x="623.4" y="70.6" transform="matrix(0.9761 -0.2173 0.2173 0.9761 -2.5416 137.7798)" width="3.6" height="19.8"/>
	<polygon points="631.3,99.1 630.6,96 629.2,89.7 619.8,91.8 620.5,94.8 617.4,95.5 618.8,101.9 621.9,101.2 622.5,104.2 
		628.9,102.8 628.2,99.8 	"/>
	<rect x="599.8" y="64.3" transform="matrix(0.9761 -0.2173 0.2173 0.9761 -0.3158 134.6185)" width="24.4" height="8.8"/>
</g>
<g>
	<polygon class="st11" points="632.1,151.9 634.7,147.8 640.2,139.2 627.5,131.2 624.9,135.3 620.8,132.7 615.3,141.2 619.4,143.9 
		616.8,148 625.4,153.4 628,149.3 	"/>
	<polygon class="st11" points="659.1,170 661.7,165.9 667.2,157.3 654.5,149.3 651.9,153.4 647.8,150.8 642.3,159.4 646.4,162 
		643.8,166.1 652.4,171.5 655,167.4 	"/>
	<rect x="645.4" y="105.8" transform="matrix(0.844 0.5363 -0.5363 0.844 166.1376 -328.7451)" width="5.7" height="30.9"/>
	<polygon points="634.3,148.5 636.9,144.4 642.4,135.8 629.7,127.7 627.1,131.9 622.9,129.2 617.5,137.8 621.6,140.4 619,144.5 
		627.6,150 630.2,145.9 	"/>
	<rect x="672.8" y="123.2" transform="matrix(0.844 0.5363 -0.5363 0.844 179.762 -340.736)" width="5.7" height="30.9"/>
	<polygon points="661.7,165.9 664.3,161.8 669.8,153.2 657.1,145.2 654.5,149.3 650.4,146.7 644.9,155.2 649,157.9 646.4,162 
		655,167.4 657.6,163.3 	"/>
	<rect x="654.8" y="104.2" transform="matrix(0.844 0.5363 -0.5363 0.844 164.7061 -344.1073)" width="38.2" height="13.8"/>
</g>
<g>
	<polygon class="st9" points="353.4,-288.5 346.8,-288.5 100.4,-288.5 100.4,-281.9 93.8,-281.9 93.8,-243.9 100.4,-243.9 
		100.4,-237.2 346.8,-237.2 353.4,-237.2 353.4,-243.9 360,-243.9 360,-281.9 353.4,-281.9 	"/>
	<polygon class="st12" points="353.4,-288.5 346.8,-288.5 100.4,-288.5 100.4,-281.9 93.8,-281.9 93.8,-243.9 100.4,-243.9 
		100.4,-237.2 346.8,-237.2 353.4,-237.2 353.4,-243.9 360,-243.9 360,-281.9 353.4,-281.9 	"/>
	<rect x="94.4" y="-273.2" class="st13" width="265.5" height="32.8"/>
	<text transform="matrix(1 0 0 1 160.1834 -255.0682)" class="st5 st22" style="font-size:31.5429px;">Calibrate</text>
</g>
<g>
	<polygon class="st9" points="673.4,-220.5 666.8,-220.5 420.4,-220.5 420.4,-213.9 413.8,-213.9 413.8,-175.9 420.4,-175.9 
		420.4,-169.2 666.8,-169.2 673.4,-169.2 673.4,-175.9 680,-175.9 680,-213.9 673.4,-213.9 	"/>
	<polygon class="st10" points="673.4,-227.1 666.8,-227.1 420.4,-227.1 420.4,-220.5 413.8,-220.5 413.8,-182.4 420.4,-182.4 
		420.4,-175.8 666.8,-175.8 673.4,-175.8 673.4,-182.4 680,-182.4 680,-220.5 673.4,-220.5 	"/>
	<rect x="414.4" y="-211.8" class="st13" width="265.5" height="32.8"/>
	<text transform="matrix(1 0 0 1 480.1833 -193.6396)" class="st5 st22" style="font-size:31.5429px;">Calibrate</text>
</g>
<g>
	<rect x="415.4" y="-138.2" class="st9" width="219.8" height="28.8"/>
	<rect x="410.5" y="-144.7" class="st9" width="229.4" height="30.6"/>
	<polygon class="st10" points="410.5,-149.1 410.5,-119.8 415.4,-119.8 415.4,-114.1 635.1,-114.1 635.1,-119.8 639.9,-119.8 
		639.9,-149.1 	"/>
</g>
<polygon class="st9" points="630.3,-134.2 630.3,-139.3 625.2,-139.3 625.2,-139.4 568.6,-139.4 538,-139.4 512.4,-139.4 
	488.6,-139.4 425.2,-139.4 425.2,-139.4 420.1,-139.4 420.1,-134.3 415,-134.3 415,-126.6 420.1,-126.6 420.1,-121.5 425.2,-121.5 
	425.2,-121.4 488.6,-121.4 512.4,-121.4 538,-121.4 568.6,-121.4 625.2,-121.4 625.2,-121.5 630.3,-121.5 630.3,-126.6 
	635.4,-126.6 635.4,-134.2 "/>
<g>
	<rect x="406.4" y="-40.1" class="st13" width="4.7" height="0.1"/>
	<rect x="406.4" y="-22.2" class="st13" width="4.7" height="0.1"/>
	<polygon class="st5" points="427.4,-22.2 427.4,-27.3 432.5,-27.3 432.5,-34.9 427.4,-34.9 427.4,-40 422.4,-40 422.4,-40.1 
		411.2,-40.1 411.2,-40.1 406.4,-40.1 406.4,-22.2 411.2,-22.2 411.2,-22.1 422.4,-22.1 422.4,-22.2 	"/>
</g>
<g>
	<polygon class="st5" points="380.6,-75.7 380.6,-80.8 375.5,-80.8 375.5,-80.9 359.6,-80.9 359.6,-62.9 375.5,-62.9 375.5,-62.9 
		380.6,-62.9 380.6,-68 385.7,-68 385.7,-75.7 	"/>
	<polygon class="st5" points="367.1,-36.8 367.1,-41.9 367.1,-41.9 367.1,-42 362.6,-42 362,-42 357.5,-42 357.5,-42 357.5,-42 
		357.5,-36.9 352.4,-36.9 352.4,-29.2 357.5,-29.2 357.5,-24.1 357.5,-24.1 357.5,-24 362,-24 362.6,-24 367.1,-24 367.1,-24.1 
		367.1,-24.1 367.1,-29.2 372.2,-29.2 372.2,-36.8 	"/>
</g>
<polygon class="st5" points="317.3,-134.2 317.3,-139.3 317.3,-139.3 317.3,-139.4 312.8,-139.4 312.2,-139.4 307.7,-139.4 
	307.7,-139.4 307.7,-139.4 307.7,-134.3 302.6,-134.3 302.6,-126.6 307.7,-126.6 307.7,-121.5 307.7,-121.5 307.7,-121.4 
	312.2,-121.4 312.8,-121.4 317.3,-121.4 317.3,-121.5 317.3,-121.5 317.3,-126.6 322.4,-126.6 322.4,-134.2 "/>
<polygon class="st14" points="1283.1,255 1273.1,255 898.2,255 898.2,265 888.1,265 888.1,322.9 898.2,322.9 898.2,333 1273.1,333 
	1283.1,333 1283.1,322.9 1293.2,322.9 1293.2,265 1283.1,265 "/>
<polygon class="st15" points="1283.1,245 1273.1,245 898.2,245 898.2,255 888.1,255 888.1,312.9 898.2,312.9 898.2,323 1273.1,323 
	1283.1,323 1283.1,312.9 1293.2,312.9 1293.2,255 1283.1,255 "/>
<rect x="888.1" y="268.2" class="st13" width="405" height="81.8"/>
<text transform="matrix(1 0 0 1 993.8357 295.8393)" class="st5 st22" style="font-size:48px;">PLAYER 2</text>
<g>
	<rect x="909.1" y="249" class="st5" width="45.1" height="5.7"/>
	<rect x="960.4" y="249" class="st5" width="5.7" height="5.7"/>
</g>
<g>
	<rect x="454.6" y="250" class="st5" width="45.1" height="5.7"/>
	<rect x="505.9" y="250" class="st5" width="5.7" height="5.7"/>
</g>
<polygon class="st16" points="843.7,90 850.1,95.6 844.5,102 865,119.3 865,157.2 885.7,131.1 917.5,160.5 923.3,154.2 928.3,158.9 
	999.9,40.2 "/>
<polygon class="st17" points="841.3,82.8 847.6,88.4 842,94.8 862.5,112.2 862.5,150.1 883.2,124 915,153.4 920.8,147.1 
	925.8,151.7 997.4,33 "/>
<polygon class="st18" points="883.3,123.8 997.7,33 862.6,112 862.6,149.9 "/>
<polygon class="st19" points="840.2,83 846.6,88.6 841,95 861.4,112.3 861.4,150.2 882.2,124.1 913.9,153.5 919.8,147.3 
	924.7,151.9 996.4,33.2 "/>
<g>
	<polygon class="st20" points="776,-223.7 776,-60.1 786.4,-60.1 786.4,-50.6 796.8,-50.6 796.8,-40.1 1244.3,-40.1 1244.3,-50.6 
		1254.7,-50.6 1254.7,-60.1 1265,-60.1 1265,-223.7 	"/>
	<polygon class="st20" points="1265,-223.7 1265,-317.9 1254.7,-317.9 1254.7,-327.4 1244.3,-327.4 1244.3,-337.8 796.8,-337.8 
		796.8,-327.4 786.4,-327.4 786.4,-317.9 776,-317.9 776,-223.7 	"/>
</g>
<g>
	<polygon class="st21" points="786.4,-321.3 796.8,-321.3 796.8,-329.3 786.4,-329.3 786.4,-321.3 776,-321.3 776,-313.3 
		786.4,-313.3 	"/>
	<rect x="796.8" y="-338" class="st21" width="447.5" height="8"/>
	<polygon class="st21" points="1254.7,-321.3 1254.7,-329.3 1244.3,-329.3 1244.3,-321.3 1254.7,-321.3 1254.7,-313.3 1265,-313.3 
		1265,-321.3 	"/>
</g>
<g>
	<g>
		<g>
			<rect x="382.9" y="-402.2" width="10.2" height="10.2"/>
		</g>
	</g>
	<g>
		<g>
			<path d="M444.3-412.5v5.1h-5.1v5.1h5.1v20.5h5.1v5.1h-5.1v5.1h5.1h5.1v-10.2h15.4v5.1h5.1v-5.1v-30.7H444.3z M469.9-386.9h-20.5
				v-20.5h20.5V-386.9z"/>
		</g>
	</g>
	<g>
		<g>
			<rect x="454.6" y="-402.2" width="10.2" height="10.2"/>
		</g>
	</g>
	<g>
		<g>
			<rect x="382.9" y="-330.5" width="10.2" height="10.2"/>
		</g>
	</g>
	<g>
		<g>
			<rect x="444.3" y="-340.8" width="5.1" height="5.1"/>
		</g>
	</g>
	<g>
		<g>
			<rect x="418.7" y="-315.2" width="5.1" height="5.1"/>
		</g>
	</g>
	<g>
		<g>
			<rect x="423.9" y="-335.7" width="5.1" height="5.1"/>
		</g>
	</g>
	<g>
		<g>
			<rect x="423.9" y="-325.4" width="5.1" height="5.1"/>
		</g>
	</g>
	<g>
		<g>
			<rect x="469.9" y="-351" width="5.1" height="5.1"/>
		</g>
	</g>
	<g>
		<g>
			<rect x="372.7" y="-351" width="5.1" height="5.1"/>
		</g>
	</g>
	<g>
		<g>
			<rect x="372.7" y="-376.6" width="5.1" height="5.1"/>
		</g>
	</g>
	<g>
		<g>
			<polygon points="429,-407.4 429,-402.2 418.7,-402.2 418.7,-397.1 434.1,-397.1 434.1,-402.2 434.1,-407.4 			"/>
		</g>
	</g>
	<g>
		<g>
			<path d="M469.9-371.5v5.1h-10.2v5.1h-15.4v-5.1h-5.1v5.1H429v5.1h15.4v5.1h-10.2H429v-5.1h-5.1v5.1h-5.1v-5.1h-5.1v5.1h-5.1v5.1
				h10.2v5.1h5.1v-5.1h10.2v5.1H429v5.1h5.1v10.2h5.1v5.1h5.1v-5.1h15.4v-10.2h5.1v-5.1h-5.1V-351h-10.2v-5.1h10.2v5.1h5.1v-5.1h5.1
				v-5.1h5.1v-5.1v-5.1H469.9L469.9-371.5z M454.6-345.9v15.4h-15.4v-15.4H454.6z"/>
		</g>
	</g>
	<g>
		<g>
			<polygon points="439.2,-381.8 434.1,-381.8 434.1,-376.6 429,-376.6 429,-371.5 429,-366.4 434.1,-366.4 434.1,-371.5 
				439.2,-371.5 439.2,-376.6 444.3,-376.6 444.3,-381.8 			"/>
		</g>
	</g>
	<g>
		<g>
			<rect x="429" y="-315.2" width="10.2" height="5.1"/>
		</g>
	</g>
	<g>
		<g>
			<rect x="413.6" y="-407.4" width="5.1" height="5.1"/>
		</g>
	</g>
	<g>
		<g>
			<rect x="454.6" y="-371.5" width="5.1" height="5.1"/>
		</g>
	</g>
	<g>
		<g>
			<rect x="459.7" y="-376.6" width="5.1" height="5.1"/>
		</g>
	</g>
	<g>
		<g>
			<rect x="393.1" y="-351" width="5.1" height="5.1"/>
		</g>
	</g>
	<g>
		<g>
			<path d="M403.4-315.2v-20.5h5.1v-5.1v-5.1h-5.1v5.1H388v-5.1h-5.1h-5.1v5.1h-5.1v30.7h30.7h10.2v-5.1H403.4z M398.3-315.2h-20.5
				v-20.5h20.5V-315.2z"/>
		</g>
	</g>
	<g>
		<g>
			<rect x="403.4" y="-381.8" width="5.1" height="5.1"/>
		</g>
	</g>
	<g>
		<g>
			<path d="M408.5-412.5h-5.1h-30.7v30.7h5.1v5.1h5.1v-5.1h5.1v5.1h5.1v-5.1h10.2V-392h5.1v-5.1h-5.1v-10.2h5.1h5.1v-5.1H408.5z
				 M398.3-386.9h-20.5v-20.5h20.5V-386.9z"/>
		</g>
	</g>
	<g>
		<g>
			<rect x="434.1" y="-397.1" width="5.1" height="5.1"/>
		</g>
	</g>
	<g>
		<g>
			<rect x="423.9" y="-412.5" width="5.1" height="5.1"/>
		</g>
	</g>
	<g>
		<g>
			<path d="M434.1-381.8v-5.1H429v-5.1h-5.1v5.1h-10.2v-5.1h-5.1v5.1v5.1h5.1v10.2h-15.4v-5.1h-5.1v5.1h-15.4v5.1H388v5.1h-15.4v5.1
				H388v5.1h5.1v-5.1h5.1v5.1h5.1v-5.1h10.2v-5.1h-5.1v-5.1h5.1h5.1v5.1h5.1h5.1v-5.1h-5.1v-5.1h-5.1v-10.2H434.1L434.1-381.8z
				 M403.4-361.3h-10.2v-5.1h10.2V-361.3z"/>
		</g>
	</g>
	<g>
		<g>
			<polygon points="418.7,-330.5 418.7,-335.7 418.7,-340.8 413.6,-340.8 413.6,-335.7 408.5,-335.7 408.5,-330.5 413.6,-330.5 
				413.6,-325.4 408.5,-325.4 408.5,-320.3 418.7,-320.3 418.7,-325.4 423.9,-325.4 423.9,-330.5 			"/>
		</g>
	</g>
	<g>
		<g>
			<polygon points="464.8,-320.3 464.8,-325.4 459.7,-325.4 459.7,-320.3 444.3,-320.3 444.3,-315.2 454.6,-315.2 454.6,-310.1 
				459.7,-310.1 459.7,-315.2 469.9,-315.2 469.9,-310.1 475.1,-310.1 475.1,-315.2 475.1,-320.3 			"/>
		</g>
	</g>
	<g>
		<g>
			<polygon points="469.9,-340.8 469.9,-335.7 464.8,-335.7 464.8,-330.5 475.1,-330.5 475.1,-335.7 475.1,-340.8 			"/>
		</g>
	</g>
</g>
<g>
	<g>
		<polygon class="st9" points="144.5,3.7 140.9,3.7 3.7,3.7 3.7,7.3 0,7.3 0,28.5 3.7,28.5 3.7,32.2 140.9,32.2 144.5,32.2 
			144.5,28.5 148.2,28.5 148.2,7.3 144.5,7.3 		"/>
		<polygon class="st12" points="144.5,3.7 140.9,3.7 3.7,3.7 3.7,7.3 0,7.3 0,28.5 3.7,28.5 3.7,32.2 140.9,32.2 144.5,32.2 
			144.5,28.5 148.2,28.5 148.2,7.3 144.5,7.3 		"/>
		<rect x="0.4" y="12.2" class="st13" width="147.8" height="18.3"/>
		<text transform="matrix(1 0 0 1 28.1223 22.2762)" class="st5 st22 st23">Recalibrate</text>
	</g>
	<g>
		<rect x="6.1" y="5.8" class="st5" width="13.1" height="1.7"/>
		<rect x="21" y="5.8" class="st5" width="1.7" height="1.7"/>
	</g>
</g>
<g>
	<g>
		<polygon class="st9" points="144.5,45.7 140.9,45.7 3.7,45.7 3.7,49.3 0,49.3 0,70.5 3.7,70.5 3.7,74.2 140.9,74.2 144.5,74.2 
			144.5,70.5 148.2,70.5 148.2,49.3 144.5,49.3 		"/>
		<polygon class="st10" points="144.5,42 140.9,42 3.7,42 3.7,45.7 0,45.7 0,66.9 3.7,66.9 3.7,70.5 140.9,70.5 144.5,70.5 
			144.5,66.9 148.2,66.9 148.2,45.7 144.5,45.7 		"/>
		<rect x="0.4" y="50.5" class="st13" width="147.8" height="18.3"/>
		<text transform="matrix(1 0 0 1 28.1223 60.6171)" class="st5 st22 st23">Recalibrate</text>
	</g>
	<g>
		<rect x="6.1" y="44.8" class="st5" width="13.1" height="1.7"/>
		<rect x="21" y="44.8" class="st5" width="1.7" height="1.7"/>
	</g>
</g>
</svg>
