<!-- Generator: Adobe Illustrator 19.2.1, SVG Export Plug-In  -->
<svg version="1.1"
	 xmlns="http://www.w3.org/2000/svg" xmlns:xlink="http://www.w3.org/1999/xlink" xmlns:a="http://ns.adobe.com/AdobeSVGViewerExtensions/3.0/"
	 x="0px" y="0px" width="93.8px" height="20.4px" viewBox="0 0 93.8 20.4" style="enable-background:new 0 0 93.8 20.4;"
	 xml:space="preserve">
<style type="text/css">
	.st0{fill:#1B8E6F;}
	.st1{fill:#3CEA8A;}
	.st2{fill:#FFFFFF;}
</style>
<defs>
</defs>
<g>
	<g>
		<polygon class="st0" points="91.5,2.3 89.2,2.3 2.3,2.3 2.3,4.6 0,4.6 0,18 2.3,18 2.3,20.4 89.2,20.4 91.5,20.4 91.5,18 93.8,18
			93.8,4.6 91.5,4.6 		"/>
		<polygon class="st1" points="91.5,0 89.2,0 2.3,0 2.3,2.3 0,2.3 0,15.7 2.3,15.7 2.3,18 89.2,18 91.5,18 91.5,15.7 93.8,15.7
			93.8,2.3 91.5,2.3 		"/>
		<g>
			<path class="st2" d="M20.2,9.4h-0.8v2.4h-1.6V5.4h4v0.8h0.8v2.4h-0.8v0.8h0.8v2.4H21v-1.6h-0.8V9.4z M19.4,7.8H21V7h-1.6V7.8z"/>
			<path class="st2" d="M24.2,11h-0.8V6.1h0.8V5.3h4v1.6h-3.2v0.8h1.6v1.6h-1.6v0.8h3.2v1.6h-4V11z"/>
			<path class="st2" d="M29.8,11H29V6.1h0.8V5.3H33v0.8h0.8v1.6h-1.6V6.9h-1.6v3.2h1.6V9.3h1.6v1.6H33v0.8h-3.2V11z"/>
			<path class="st2" d="M36.2,11.8h-1.6V6.1h0.8V5.3h3.2v0.8h0.8v5.6h-1.6V9.4h-1.6v2.4H36.2z M37.8,7.8V7h-1.6v0.8H37.8z"/>
			<path class="st2" d="M41,11h-0.8V5.3h1.6v4.8H45v1.6h-4V11z"/>
			<path class="st2" d="M45.8,5.4h1.6v6.4h-1.6V5.4z"/>
			<path class="st2" d="M48.2,5.4h4v0.8H53V11h-0.8v0.8h-4V5.4z M49.8,7.8h1.6V7h-1.6V7.8z M49.8,10.2h1.6V9.4h-1.6V10.2z"/>
			<path class="st2" d="M56.2,9.4h-0.8v2.4h-1.6V6.1h0.8V5.3h3.2v0.8h0.8v2.4h-0.8v0.8h0.8v2.4h-1.6v-1.6h-0.8L56.2,9.4L56.2,9.4z
				 M55.5,7.8H57V7h-1.6V7.8z"/>
			<path class="st2" d="M61,11.8h-1.6V6.1h0.8V5.3h3.2v0.8h0.8v5.6h-1.6V9.4h-1.6v2.4H61z M62.6,7.8V7H61v0.8H62.6z"/>
			<path class="st2" d="M65,5.4h4.8V7h-1.6v4.8h-1.6V7h-1.6L65,5.4L65,5.4z"/>
			<path class="st2" d="M71.4,11h-0.8V6.1h0.8V5.3h4v1.6h-3.2v0.8h1.6v1.6h-1.6v0.8h3.2v1.6h-4V11z"/>
		</g>
	</g>
	<g>
		<rect x="3.9" y="1.8" class="st2" width="8.3" height="1.1"/>
		<rect x="13.3" y="1.8" class="st2" width="1.1" height="1.1"/>
	</g>
</g>
</svg>
