<?xml version="1.0" encoding="utf-8"?>
<!-- Generator: Adobe Illustrator 22.0.1, SVG Export Plug-In . SVG Version: 6.00 Build 0)  -->
<svg version="1.1" id="Layer_1" xmlns="http://www.w3.org/2000/svg" xmlns:xlink="http://www.w3.org/1999/xlink" x="0px" y="0px"
	 width="148.2px" height="32.2px" viewBox="0 0 148.2 32.2" style="enable-background:new 0 0 148.2 32.2;" xml:space="preserve">
<style type="text/css">
	.st0{fill:#5895B7;}
	.st1{opacity:0.8;}
	.st2{fill:#C17620;}
	.st3{fill:#F4C24A;}
	.st4{fill:#FFFFFF;}
	.st5{fill:#2A6FBA;}
	.st6{fill:#4ABAEF;}
	.st7{fill:#95C9C8;}
	.st8{fill:#DDEFEE;}
	.st9{fill:#1B8E6F;}
	.st10{fill:#3CEA8A;}
	.st11{opacity:0.4;fill:#666666;}
	.st12{fill:#33BC6E;}
	.st13{fill:none;}
	.st14{fill:#7149A4;}
	.st15{fill:#BD86E0;}
	.st16{opacity:0.4;fill:#666666;stroke:#666666;stroke-width:4;stroke-linejoin:bevel;stroke-miterlimit:10;}
	.st17{fill:#F2F2F2;}
	.st18{fill:#E6E6E6;}
	.st19{fill:none;stroke:#000000;stroke-width:4;stroke-linejoin:bevel;stroke-miterlimit:10;}
	.st20{fill:#C6E0DE;}
	.st21{fill:#A7C6C3;}
	.st22{fill:#EE3D53;}
	.st23{fill:none;stroke:#000000;stroke-width:2;stroke-miterlimit:10;}
	.st24{fill:#A17559;}
	.st25{fill:#910E46;}
	.st26{fill:#238D6F;}
	.st27{fill:#704CA2;}
	.st28{fill:#47E88D;}
	.st29{fill:#BC88DE;}
</style>
<g>
	<rect x="524.1" y="463.9" class="st0" width="484" height="82"/>
	<rect x="976.1" y="537.9" class="st0" width="107" height="30"/>
	<g class="st1">
		<g>
			<polygon class="st0" points="540.1,483.9 540.1,565.9 444.1,565.9 444.1,554.9 456.1,554.9 456.1,542.9 468.1,542.9 468.1,530.9 
				480.1,530.9 480.1,518.9 468.1,518.9 468.1,506.9 456.1,506.9 456.1,494.9 444.1,494.9 444.1,483.9 			"/>
		</g>
		<polygon class="st0" points="526.1,541.9 540.1,564.9 540.1,541.9 		"/>
	</g>
	<g>
		<g>
			<polygon class="st2" points="987.1,475.9 987.1,557.9 1083.1,557.9 1083.1,546.9 1071.1,546.9 1071.1,534.9 1059.1,534.9 
				1059.1,522.9 1047.1,522.9 1047.1,510.9 1059.1,510.9 1059.1,498.9 1071.1,498.9 1071.1,486.9 1083.1,486.9 1083.1,475.9 			"/>
			<polygon class="st3" points="987.1,464.9 987.1,546.9 1083.1,546.9 1083.1,535.9 1071.1,535.9 1071.1,523.9 1059.1,523.9 
				1059.1,511.9 1047.1,511.9 1047.1,499.9 1059.1,499.9 1059.1,487.9 1071.1,487.9 1071.1,475.9 1083.1,475.9 1083.1,464.9 			"/>
		</g>
		<polygon class="st2" points="1001.1,533.9 987.1,556.9 987.2,533.9 		"/>
		<g>
			<g>
				<polygon class="st2" points="531.1,475.9 531.1,557.9 435.1,557.9 435.1,546.9 447.1,546.9 447.1,534.9 459.1,534.9 
					459.1,522.9 471.1,522.9 471.1,510.9 459.1,510.9 459.1,498.9 447.1,498.9 447.1,486.9 435.1,486.9 435.1,475.9 				"/>
				<polygon class="st3" points="531.1,464.9 531.1,546.9 435.1,546.9 435.1,535.9 447.1,535.9 447.1,523.9 459.1,523.9 
					459.1,511.9 471.1,511.9 471.1,499.9 459.1,499.9 459.1,487.9 447.1,487.9 447.1,475.9 435.1,475.9 435.1,464.9 				"/>
			</g>
			<polygon class="st2" points="517.1,533.9 531.1,556.9 531.1,533.9 			"/>
		</g>
		<g>
			<rect x="517.1" y="451.9" class="st2" width="484" height="82"/>
			<rect x="517.1" y="439.9" class="st3" width="484" height="82"/>
		</g>
	</g>
	<g>
		<path class="st4" d="M587.7,499.7h-8.6v-34.6h8.6v13h8.6v-13h8.6v34.6h-8.6v-13h-8.6V499.7z"/>
		<path class="st4" d="M609.3,469.5h4.3v-4.3h17.3v4.3h4.3v25.9h-4.3v4.3h-17.3v-4.3h-4.3V469.5z M618,491.1h8.6v-17.3H618V491.1z"
			/>
		<path class="st4" d="M648.2,499.7h-8.6v-34.6h8.6v17.3h4.3v-4.3h4.3v4.3h4.3v-17.3h8.6v34.6h-8.6v-4.3h-4.3v-4.3h-4.3v4.3h-4.3
			V499.7z"/>
		<path class="st4" d="M704.4,465.2h25.9v8.6h-8.6v25.9H713v-25.9h-8.6V465.2z"/>
		<path class="st4" d="M734.6,469.5h4.3v-4.3h17.3v4.3h4.3v25.9h-4.3v4.3h-17.3v-4.3h-4.3V469.5z M743.2,491.1h8.6v-17.3h-8.6V491.1
			z"/>
		<path class="st4" d="M803.7,499.7h-8.6v-34.6h21.6v4.3h4.3v13h-4.3v4.3h-13V499.7z M803.7,478.1h8.6v-4.3h-8.6V478.1z"/>
		<path class="st4" d="M829.6,495.4h-4.3v-30.2h8.6v25.9h17.3v8.6h-21.6V495.4z"/>
		<path class="st4" d="M864.2,499.7h-8.6v-30.2h4.3v-4.3h17.3v4.3h4.3v30.2h-8.6v-13h-8.6V499.7z M872.8,478.1v-4.3h-8.6v4.3H872.8z
			"/>
		<path class="st4" d="M885.8,465.2h8.6v13h8.6v-13h8.6v17.3h-4.3v4.3h-4.3v13h-8.6v-13h-4.3v-4.3h-4.3V465.2z"/>
	</g>
</g>
<polygon class="st5" points="693.1,732.9 681.1,732.9 608.1,732.9 608.1,744.9 596.1,744.9 596.1,829.9 608.1,829.9 608.1,841.9 
	681.1,841.9 693.1,841.9 693.1,829.9 705.1,829.9 705.1,744.9 693.1,744.9 "/>
<polygon class="st5" points="693.1,732.9 681.1,732.9 608.1,732.9 608.1,744.9 596.1,744.9 596.1,829.9 608.1,829.9 608.1,841.9 
	681.1,841.9 693.1,841.9 693.1,829.9 705.1,829.9 705.1,744.9 693.1,744.9 "/>
<g>
	<path class="st4" d="M632.7,767.2h28.4v5.7h5.7v17.1h-5.7v5.7h-17.1v-11.4h11.4v-5.7h-22.8V767.2z M644.1,801.3h11.4v11.4h-11.4
		V801.3z"/>
</g>
<polygon class="st5" points="844.1,732.9 832.1,732.9 759.1,732.9 759.1,744.9 747.1,744.9 747.1,829.9 759.1,829.9 759.1,841.9 
	832.1,841.9 844.1,841.9 844.1,829.9 856.1,829.9 856.1,744.9 844.1,744.9 "/>
<polygon class="st6" points="844.1,722.9 832.1,722.9 759.1,722.9 759.1,734.9 747.1,734.9 747.1,819.9 759.1,819.9 759.1,831.9 
	832.1,831.9 844.1,831.9 844.1,819.9 856.1,819.9 856.1,734.9 844.1,734.9 "/>
<g>
	<path class="st4" d="M783.7,757.2h28.4v5.7h5.7v17.1h-5.7v5.7h-17.1v-11.4h11.4v-5.7h-22.8V757.2z M795.1,791.3h11.4v11.4h-11.4
		V791.3z"/>
</g>
<g>
	<polygon class="st0" points="1879.1,577.5 1867.5,577.5 1867.5,565.8 1856,565.8 1856,553 1357.2,553 1357.2,565.8 1345.7,565.8 
		1345.7,577.5 1334.1,577.5 1334.1,1262.2 1345.7,1262.2 1345.7,1273.8 1357.2,1273.8 1357.2,1286.6 1856,1286.6 1856,1273.8 
		1867.5,1273.8 1867.5,1262.2 1879.1,1262.2 	"/>
	<polygon class="st7" points="1879.1,565.4 1867.5,565.4 1867.5,553.8 1856,553.8 1856,541 1357.2,541 1357.2,553.8 1345.7,553.8 
		1345.7,565.4 1334.1,565.4 1334.1,1250.2 1345.7,1250.2 1345.7,1261.8 1357.2,1261.8 1357.2,1274.6 1856,1274.6 1856,1261.8 
		1867.5,1261.8 1867.5,1250.2 1879.1,1250.2 	"/>
	<polygon class="st8" points="1879.1,553.4 1867.5,553.4 1867.5,541.8 1856,541.8 1856,529 1357.2,529 1357.2,541.8 1345.7,541.8 
		1345.7,553.4 1334.1,553.4 1334.1,1238.1 1345.7,1238.1 1345.7,1249.8 1357.2,1249.8 1357.2,1262.6 1856,1262.6 1856,1249.8 
		1867.5,1249.8 1867.5,1238.1 1879.1,1238.1 	"/>
</g>
<g>
	<polygon class="st9" points="830.1,213 820.1,213 445.2,213 445.2,223 435.1,223 435.1,280.9 445.2,280.9 445.2,291 820.1,291 
		830.1,291 830.1,280.9 840.2,280.9 840.2,223 830.1,223 	"/>
	<polygon class="st10" points="830.1,203 820.1,203 445.2,203 445.2,213 435.1,213 435.1,270.9 445.2,270.9 445.2,281 820.1,281 
		830.1,281 830.1,270.9 840.2,270.9 840.2,213 830.1,213 	"/>
	<g>
		<path class="st4" d="M555.2,253.8h-6.9v-27.6h17.3v3.5h3.5V240h-3.5v3.5h-10.4V253.8z M555.2,236.6h6.9v-3.5h-6.9V236.6z"/>
		<path class="st4" d="M575.9,250.4h-3.5v-24.2h6.9v20.7h13.8v6.9h-17.3V250.4z"/>
		<path class="st4" d="M603.5,253.8h-6.9v-24.2h3.5v-3.5h13.8v3.5h3.5v24.2h-6.9v-10.4h-6.9V253.8z M610.5,236.6v-3.5h-6.9v3.5
			H610.5z"/>
		<path class="st4" d="M620.8,226.2h6.9v10.4h6.9v-10.4h6.9V240h-3.5v3.5h-3.5v10.4h-6.9v-10.4h-3.5V240h-3.5V226.2z"/>
		<path class="st4" d="M648.5,250.4H645v-20.7h3.5v-3.5h17.3v6.9h-13.8v3.5h6.9v6.9h-6.9v3.5h13.8v6.9h-17.3V250.4z"/>
		<path class="st4" d="M679.6,243.5h-3.5v10.4h-6.9v-27.6h17.3v3.5h3.5V240h-3.5v3.5h3.5v10.4H683v-6.9h-3.5V243.5z M676.1,236.6
			h6.9v-3.5h-6.9V236.6z"/>
		<path class="st4" d="M717.6,226.2h6.9v27.6h-6.9V226.2z"/>
	</g>
</g>
<g>
	<polygon class="st11" points="469.3,92.4 467.3,86.6 463.3,74.6 445.5,80.6 447.4,86.4 441.7,88.3 445.7,100.3 451.5,98.4 
		453.4,104.2 465.5,100.1 463.5,94.3 	"/>
	<polygon class="st11" points="508.1,80.3 506.1,74.5 502.1,62.5 484.3,68.5 486.2,74.3 480.4,76.3 484.5,88.3 490.3,86.3 
		492.2,92.1 504.3,88 502.3,82.3 	"/>
	<rect x="448.5" y="33.3" transform="matrix(0.9472 -0.3207 0.3207 0.9472 7.0016 147.7745)" width="7.1" height="38.6"/>
	<polygon points="467.7,87.6 465.7,81.8 461.6,69.8 443.8,75.8 445.8,81.6 440,83.5 444.1,95.5 449.9,93.6 451.8,99.4 463.8,95.3 
		461.9,89.5 	"/>
	<rect x="487" y="20.3" transform="matrix(0.9472 -0.3207 0.3207 0.9472 13.2116 159.4242)" width="7.1" height="38.6"/>
	<polygon points="506.1,74.5 504.2,68.8 500.1,56.7 482.3,62.8 484.3,68.5 478.5,70.5 482.6,82.5 488.3,80.6 490.3,86.3 502.3,82.3 
		500.4,76.5 	"/>
	<rect x="438.5" y="11" transform="matrix(0.9472 -0.3207 0.3207 0.9472 18.1157 149.33)" width="47.7" height="17.3"/>
</g>
<g>
	<polygon class="st11" points="535.5,125.9 536.4,121.8 538.3,113.2 525.5,110.3 524.6,114.5 520.5,113.6 518.6,122.2 522.7,123.1 
		521.8,127.3 530.4,129.2 531.3,125 	"/>
	<polygon class="st11" points="563,132.7 563.9,128.6 565.8,119.9 553,117.1 552.1,121.3 548,120.4 546.1,129 550.2,129.9 
		549.3,134.1 557.9,136 558.9,131.8 	"/>
	<rect x="537.1" y="82.6" transform="matrix(0.9766 0.2149 -0.2149 0.9766 33.2387 -113.6981)" width="5" height="26.9"/>
	<polygon points="536.3,122.5 537.2,118.3 539.1,109.7 526.3,106.9 525.4,111 521.2,110.1 519.3,118.8 523.5,119.7 522.6,123.8 
		531.2,125.7 532.1,121.6 	"/>
	<rect x="564.7" y="88.7" transform="matrix(0.9766 0.2149 -0.2149 0.9766 35.1928 -119.5)" width="5" height="26.9"/>
	<polygon points="563.9,128.6 564.8,124.4 566.7,115.8 553.9,113 553,117.1 548.9,116.2 547,124.8 551.1,125.8 550.2,129.9 
		558.9,131.8 559.8,127.7 	"/>
	<rect x="540.9" y="74" transform="matrix(0.9766 0.2149 -0.2149 0.9766 30.2269 -117.9425)" width="33.3" height="12"/>
</g>
<g>
	<polygon class="st11" points="611.5,64.1 610.8,61.1 609.4,54.8 600,56.8 600.7,59.9 597.7,60.6 599.1,66.9 602.1,66.2 602.8,69.3 
		609.1,67.9 608.5,64.8 	"/>
	<polygon class="st11" points="631.9,60.1 631.3,57.1 629.8,50.7 620.5,52.8 621.1,55.9 618.1,56.6 619.5,62.9 622.5,62.2 
		623.2,65.3 629.6,63.9 628.9,60.8 	"/>
	<rect x="603.1" y="33.1" transform="matrix(0.9761 -0.2173 0.2173 0.9761 5.117 132.4715)" width="3.6" height="19.8"/>
	<polygon points="611,61.6 610.3,58.6 608.9,52.2 599.5,54.3 600.1,57.4 597.1,58 598.5,64.4 601.6,63.7 602.2,66.7 608.6,65.3 
		607.9,62.3 	"/>
	<rect x="623.4" y="28.6" transform="matrix(0.9761 -0.2173 0.2173 0.9761 6.5845 136.7763)" width="3.6" height="19.8"/>
	<polygon points="631.3,57.1 630.6,54 629.2,47.7 619.8,49.8 620.5,52.8 617.4,53.5 618.8,59.9 621.9,59.2 622.5,62.2 628.9,60.8 
		628.2,57.8 	"/>
	<rect x="599.8" y="22.3" transform="matrix(0.9761 -0.2173 0.2173 0.9761 8.8102 133.615)" width="24.4" height="8.8"/>
</g>
<g>
	<polygon class="st11" points="632.1,109.9 634.7,105.8 640.2,97.2 627.5,89.2 624.9,93.3 620.8,90.7 615.3,99.2 619.4,101.9 
		616.8,106 625.4,111.4 628,107.3 	"/>
	<polygon class="st11" points="659.1,128 661.7,123.9 667.2,115.3 654.5,107.3 651.9,111.4 647.8,108.8 642.3,117.4 646.4,120 
		643.8,124.1 652.4,129.5 655,125.4 	"/>
	<rect x="645.4" y="63.8" transform="matrix(0.844 0.5363 -0.5363 0.844 143.6127 -335.2962)" width="5.7" height="30.9"/>
	<polygon points="634.3,106.5 636.9,102.4 642.4,93.8 629.7,85.7 627.1,89.9 622.9,87.2 617.5,95.8 621.6,98.4 619,102.5 627.6,108 
		630.2,103.9 	"/>
	<rect x="672.8" y="81.2" transform="matrix(0.844 0.5363 -0.5363 0.844 157.2371 -347.287)" width="5.7" height="30.9"/>
	<polygon points="661.7,123.9 664.3,119.8 669.8,111.2 657.1,103.2 654.5,107.3 650.4,104.7 644.9,113.2 649,115.9 646.4,120 
		655,125.4 657.6,121.3 	"/>
	<rect x="654.8" y="62.2" transform="matrix(0.844 0.5363 -0.5363 0.844 142.1812 -350.6584)" width="38.2" height="13.8"/>
</g>
<g>
	<polygon class="st9" points="353.4,-330.5 346.8,-330.5 100.4,-330.5 100.4,-323.9 93.8,-323.9 93.8,-285.9 100.4,-285.9 
		100.4,-279.2 346.8,-279.2 353.4,-279.2 353.4,-285.9 360,-285.9 360,-323.9 353.4,-323.9 	"/>
	<polygon class="st12" points="353.4,-330.5 346.8,-330.5 100.4,-330.5 100.4,-323.9 93.8,-323.9 93.8,-285.9 100.4,-285.9 
		100.4,-279.2 346.8,-279.2 353.4,-279.2 353.4,-285.9 360,-285.9 360,-323.9 353.4,-323.9 	"/>
	<g>
		<path class="st4" d="M160.2-313h2.3v-2.3h11.4v4.5h-9.1v9.1h9.1v4.5h-11.4v-2.3h-2.3V-313z"/>
		<path class="st4" d="M180.6-297.1h-4.5V-313h2.3v-2.3h9.1v2.3h2.3v15.9h-4.5v-6.8h-4.5V-297.1z M185.2-308.4v-2.3h-4.5v2.3H185.2z
			"/>
		<path class="st4" d="M194.2-299.3H192v-15.9h4.5v13.6h9.1v4.5h-11.4V-299.3z"/>
		<path class="st4" d="M207.9-315.2h4.5v18.2h-4.5V-315.2z"/>
		<path class="st4" d="M214.7-315.2H226v2.3h2.3v13.6H226v2.3h-11.4V-315.2z M219.2-308.4h4.5v-2.3h-4.5V-308.4z M219.2-301.6h4.5
			v-2.3h-4.5V-301.6z"/>
		<path class="st4" d="M237.4-303.9h-2.3v6.8h-4.5V-313h2.3v-2.3h9.1v2.3h2.3v6.8h-2.3v2.3h2.3v6.8h-4.5v-4.5h-2.3V-303.9z
			 M235.1-308.4h4.5v-2.3h-4.5V-308.4z"/>
		<path class="st4" d="M251-297.1h-4.5V-313h2.3v-2.3h9.1v2.3h2.3v15.9h-4.5v-6.8H251V-297.1z M255.6-308.4v-2.3H251v2.3H255.6z"/>
		<path class="st4" d="M262.4-315.2H276v4.5h-4.5v13.6h-4.5v-13.6h-4.5V-315.2z"/>
		<path class="st4" d="M280.5-299.3h-2.3V-313h2.3v-2.3h11.4v4.5h-9.1v2.3h4.5v4.5h-4.5v2.3h9.1v4.5h-11.4V-299.3z"/>
	</g>
</g>
<g>
	<polygon class="st9" points="673.4,-262.5 666.8,-262.5 420.4,-262.5 420.4,-255.9 413.8,-255.9 413.8,-217.9 420.4,-217.9 
		420.4,-211.2 666.8,-211.2 673.4,-211.2 673.4,-217.9 680,-217.9 680,-255.9 673.4,-255.9 	"/>
	<polygon class="st10" points="673.4,-269.1 666.8,-269.1 420.4,-269.1 420.4,-262.5 413.8,-262.5 413.8,-224.4 420.4,-224.4 
		420.4,-217.8 666.8,-217.8 673.4,-217.8 673.4,-224.4 680,-224.4 680,-262.5 673.4,-262.5 	"/>
	<g>
		<path class="st4" d="M480.2-251.5h2.3v-2.3h11.4v4.5h-9.1v9.1h9.1v4.5h-11.4v-2.3h-2.3V-251.5z"/>
		<path class="st4" d="M500.6-235.6h-4.5v-15.9h2.3v-2.3h9.1v2.3h2.3v15.9h-4.5v-6.8h-4.5V-235.6z M505.2-247v-2.3h-4.5v2.3H505.2z"
			/>
		<path class="st4" d="M514.2-237.9H512v-15.9h4.5v13.6h9.1v4.5h-11.4V-237.9z"/>
		<path class="st4" d="M527.9-253.8h4.5v18.2h-4.5V-253.8z"/>
		<path class="st4" d="M534.7-253.8H546v2.3h2.3v13.6H546v2.3h-11.4V-253.8z M539.2-247h4.5v-2.3h-4.5V-247z M539.2-240.2h4.5v-2.3
			h-4.5V-240.2z"/>
		<path class="st4" d="M557.4-242.5h-2.3v6.8h-4.5v-15.9h2.3v-2.3h9.1v2.3h2.3v6.8h-2.3v2.3h2.3v6.8h-4.5v-4.5h-2.3V-242.5z
			 M555.1-247h4.5v-2.3h-4.5V-247z"/>
		<path class="st4" d="M571-235.6h-4.5v-15.9h2.3v-2.3h9.1v2.3h2.3v15.9h-4.5v-6.8H571V-235.6z M575.6-247v-2.3H571v2.3H575.6z"/>
		<path class="st4" d="M582.4-253.8H596v4.5h-4.5v13.6h-4.5v-13.6h-4.5V-253.8z"/>
		<path class="st4" d="M600.5-237.9h-2.3v-13.6h2.3v-2.3h11.4v4.5h-9.1v2.3h4.5v4.5h-4.5v2.3h9.1v4.5h-11.4V-237.9z"/>
	</g>
</g>
<g>
	<rect x="415.4" y="-180.2" class="st9" width="219.8" height="28.8"/>
	<rect x="410.5" y="-186.7" class="st9" width="229.4" height="30.6"/>
	<polygon class="st10" points="410.5,-191.1 410.5,-161.8 415.4,-161.8 415.4,-156.1 635.1,-156.1 635.1,-161.8 639.9,-161.8 
		639.9,-191.1 	"/>
</g>
<polygon class="st9" points="630.3,-176.2 630.3,-181.3 625.2,-181.3 625.2,-181.4 568.6,-181.4 538,-181.4 512.4,-181.4 
	488.6,-181.4 425.2,-181.4 425.2,-181.4 420.1,-181.4 420.1,-176.3 415,-176.3 415,-168.6 420.1,-168.6 420.1,-163.5 425.2,-163.5 
	425.2,-163.4 488.6,-163.4 512.4,-163.4 538,-163.4 568.6,-163.4 625.2,-163.4 625.2,-163.5 630.3,-163.5 630.3,-168.6 
	635.4,-168.6 635.4,-176.2 "/>
<g>
	<rect x="406.4" y="-82.1" class="st13" width="4.7" height="0.1"/>
	<rect x="406.4" y="-64.2" class="st13" width="4.7" height="0.1"/>
	<polygon class="st4" points="427.4,-64.2 427.4,-69.3 432.5,-69.3 432.5,-76.9 427.4,-76.9 427.4,-82 422.4,-82 422.4,-82.1 
		411.2,-82.1 411.2,-82.1 406.4,-82.1 406.4,-64.2 411.2,-64.2 411.2,-64.1 422.4,-64.1 422.4,-64.2 	"/>
</g>
<g>
	<polygon class="st4" points="380.6,-117.7 380.6,-122.8 375.5,-122.8 375.5,-122.9 359.6,-122.9 359.6,-104.9 375.5,-104.9 
		375.5,-104.9 380.6,-104.9 380.6,-110 385.7,-110 385.7,-117.7 	"/>
	<polygon class="st4" points="367.1,-78.8 367.1,-83.9 367.1,-83.9 367.1,-84 362.6,-84 362,-84 357.5,-84 357.5,-84 357.5,-84 
		357.5,-78.9 352.4,-78.9 352.4,-71.2 357.5,-71.2 357.5,-66.1 357.5,-66.1 357.5,-66 362,-66 362.6,-66 367.1,-66 367.1,-66.1 
		367.1,-66.1 367.1,-71.2 372.2,-71.2 372.2,-78.8 	"/>
</g>
<polygon class="st4" points="317.3,-176.2 317.3,-181.3 317.3,-181.3 317.3,-181.4 312.8,-181.4 312.2,-181.4 307.7,-181.4 
	307.7,-181.4 307.7,-181.4 307.7,-176.3 302.6,-176.3 302.6,-168.6 307.7,-168.6 307.7,-163.5 307.7,-163.5 307.7,-163.4 
	312.2,-163.4 312.8,-163.4 317.3,-163.4 317.3,-163.5 317.3,-163.5 317.3,-168.6 322.4,-168.6 322.4,-176.2 "/>
<polygon class="st14" points="1283.1,213 1273.1,213 898.2,213 898.2,223 888.1,223 888.1,280.9 898.2,280.9 898.2,291 1273.1,291 
	1283.1,291 1283.1,280.9 1293.2,280.9 1293.2,223 1283.1,223 "/>
<polygon class="st15" points="1283.1,203 1273.1,203 898.2,203 898.2,213 888.1,213 888.1,270.9 898.2,270.9 898.2,281 1273.1,281 
	1283.1,281 1283.1,270.9 1293.2,270.9 1293.2,213 1283.1,213 "/>
<g>
	<path class="st4" d="M1000.7,253.8h-6.9v-27.6h17.3v3.5h3.5V240h-3.5v3.5h-10.4V253.8z M1000.7,236.6h6.9v-3.5h-6.9V236.6z"/>
	<path class="st4" d="M1021.5,250.4h-3.5v-24.2h6.9v20.7h13.8v6.9h-17.3V250.4z"/>
	<path class="st4" d="M1049.1,253.8h-6.9v-24.2h3.5v-3.5h13.8v3.5h3.5v24.2h-6.9v-10.4h-6.9V253.8z M1056,236.6v-3.5h-6.9v3.5H1056z
		"/>
	<path class="st4" d="M1066.4,226.2h6.9v10.4h6.9v-10.4h6.9V240h-3.5v3.5h-3.5v10.4h-6.9v-10.4h-3.5V240h-3.5V226.2z"/>
	<path class="st4" d="M1094.1,250.4h-3.5v-20.7h3.5v-3.5h17.3v6.9h-13.8v3.5h6.9v6.9h-6.9v3.5h13.8v6.9h-17.3V250.4z"/>
	<path class="st4" d="M1125.2,243.5h-3.5v10.4h-6.9v-27.6h17.3v3.5h3.5V240h-3.5v3.5h3.5v10.4h-6.9v-6.9h-3.5V243.5z M1121.7,236.6
		h6.9v-3.5h-6.9V236.6z"/>
	<path class="st4" d="M1163.2,226.2h17.3v3.5h3.5V240h-3.5v3.5h-10.4v3.5h13.8v6.9h-20.7V240h3.5v-3.5h10.4v-3.5h-13.8V226.2z"/>
</g>
<g>
	<rect x="909.1" y="207" class="st4" width="45.1" height="5.7"/>
	<rect x="960.4" y="207" class="st4" width="5.7" height="5.7"/>
</g>
<g>
	<rect x="454.6" y="208" class="st4" width="45.1" height="5.7"/>
	<rect x="505.9" y="208" class="st4" width="5.7" height="5.7"/>
</g>
<polygon class="st16" points="843.7,48 850.1,53.6 844.5,60 865,77.3 865,115.2 885.7,89.1 917.5,118.5 923.3,112.2 928.3,116.9 
	999.9,-1.8 "/>
<polygon class="st17" points="841.3,40.8 847.6,46.4 842,52.8 862.5,70.2 862.5,108.1 883.2,82 915,111.4 920.8,105.1 925.8,109.7 
	997.4,-9 "/>
<polygon class="st18" points="883.3,81.8 997.7,-9 862.6,70 862.6,107.9 "/>
<polygon class="st19" points="840.2,41 846.6,46.6 841,53 861.4,70.3 861.4,108.2 882.2,82.1 913.9,111.5 919.8,105.3 924.7,109.9 
	996.4,-8.8 "/>
<g>
	<polygon class="st20" points="776,-265.7 776,-102.1 786.4,-102.1 786.4,-92.6 796.8,-92.6 796.8,-82.1 1244.3,-82.1 1244.3,-92.6 
		1254.7,-92.6 1254.7,-102.1 1265,-102.1 1265,-265.7 	"/>
	<polygon class="st20" points="1265,-265.7 1265,-359.9 1254.7,-359.9 1254.7,-369.4 1244.3,-369.4 1244.3,-379.8 796.8,-379.8 
		796.8,-369.4 786.4,-369.4 786.4,-359.9 776,-359.9 776,-265.7 	"/>
</g>
<g>
	<polygon class="st21" points="786.4,-363.3 796.8,-363.3 796.8,-371.3 786.4,-371.3 786.4,-363.3 776,-363.3 776,-355.3 
		786.4,-355.3 	"/>
	<rect x="796.8" y="-380" class="st21" width="447.5" height="8"/>
	<polygon class="st21" points="1254.7,-363.3 1254.7,-371.3 1244.3,-371.3 1244.3,-363.3 1254.7,-363.3 1254.7,-355.3 1265,-355.3 
		1265,-363.3 	"/>
</g>
<g>
	<g>
		<g>
			<rect x="382.9" y="-444.2" width="10.2" height="10.2"/>
		</g>
	</g>
	<g>
		<g>
			<path d="M444.3-454.5v5.1h-5.1v5.1h5.1v20.5h5.1v5.1h-5.1v5.1h5.1h5.1v-10.2h15.4v5.1h5.1v-5.1v-30.7H444.3z M469.9-428.9h-20.5
				v-20.5h20.5V-428.9z"/>
		</g>
	</g>
	<g>
		<g>
			<rect x="454.6" y="-444.2" width="10.2" height="10.2"/>
		</g>
	</g>
	<g>
		<g>
			<rect x="382.9" y="-372.5" width="10.2" height="10.2"/>
		</g>
	</g>
	<g>
		<g>
			<rect x="444.3" y="-382.8" width="5.1" height="5.1"/>
		</g>
	</g>
	<g>
		<g>
			<rect x="418.7" y="-357.2" width="5.1" height="5.1"/>
		</g>
	</g>
	<g>
		<g>
			<rect x="423.9" y="-377.7" width="5.1" height="5.1"/>
		</g>
	</g>
	<g>
		<g>
			<rect x="423.9" y="-367.4" width="5.1" height="5.1"/>
		</g>
	</g>
	<g>
		<g>
			<rect x="469.9" y="-393" width="5.1" height="5.1"/>
		</g>
	</g>
	<g>
		<g>
			<rect x="372.7" y="-393" width="5.1" height="5.1"/>
		</g>
	</g>
	<g>
		<g>
			<rect x="372.7" y="-418.6" width="5.1" height="5.1"/>
		</g>
	</g>
	<g>
		<g>
			<polygon points="429,-449.4 429,-444.2 418.7,-444.2 418.7,-439.1 434.1,-439.1 434.1,-444.2 434.1,-449.4 			"/>
		</g>
	</g>
	<g>
		<g>
			<path d="M469.9-413.5v5.1h-10.2v5.1h-15.4v-5.1h-5.1v5.1H429v5.1h15.4v5.1h-10.2H429v-5.1h-5.1v5.1h-5.1v-5.1h-5.1v5.1h-5.1v5.1
				h10.2v5.1h5.1v-5.1h10.2v5.1H429v5.1h5.1v10.2h5.1v5.1h5.1v-5.1h15.4v-10.2h5.1v-5.1h-5.1V-393h-10.2v-5.1h10.2v5.1h5.1v-5.1h5.1
				v-5.1h5.1v-5.1v-5.1H469.9L469.9-413.5z M454.6-387.9v15.4h-15.4v-15.4H454.6z"/>
		</g>
	</g>
	<g>
		<g>
			<polygon points="439.2,-423.8 434.1,-423.8 434.1,-418.6 429,-418.6 429,-413.5 429,-408.4 434.1,-408.4 434.1,-413.5 
				439.2,-413.5 439.2,-418.6 444.3,-418.6 444.3,-423.8 			"/>
		</g>
	</g>
	<g>
		<g>
			<rect x="429" y="-357.2" width="10.2" height="5.1"/>
		</g>
	</g>
	<g>
		<g>
			<rect x="413.6" y="-449.4" width="5.1" height="5.1"/>
		</g>
	</g>
	<g>
		<g>
			<rect x="454.6" y="-413.5" width="5.1" height="5.1"/>
		</g>
	</g>
	<g>
		<g>
			<rect x="459.7" y="-418.6" width="5.1" height="5.1"/>
		</g>
	</g>
	<g>
		<g>
			<rect x="393.1" y="-393" width="5.1" height="5.1"/>
		</g>
	</g>
	<g>
		<g>
			<path d="M403.4-357.2v-20.5h5.1v-5.1v-5.1h-5.1v5.1H388v-5.1h-5.1h-5.1v5.1h-5.1v30.7h30.7h10.2v-5.1H403.4z M398.3-357.2h-20.5
				v-20.5h20.5V-357.2z"/>
		</g>
	</g>
	<g>
		<g>
			<rect x="403.4" y="-423.8" width="5.1" height="5.1"/>
		</g>
	</g>
	<g>
		<g>
			<path d="M408.5-454.5h-5.1h-30.7v30.7h5.1v5.1h5.1v-5.1h5.1v5.1h5.1v-5.1h10.2V-434h5.1v-5.1h-5.1v-10.2h5.1h5.1v-5.1H408.5z
				 M398.3-428.9h-20.5v-20.5h20.5V-428.9z"/>
		</g>
	</g>
	<g>
		<g>
			<rect x="434.1" y="-439.1" width="5.1" height="5.1"/>
		</g>
	</g>
	<g>
		<g>
			<rect x="423.9" y="-454.5" width="5.1" height="5.1"/>
		</g>
	</g>
	<g>
		<g>
			<path d="M434.1-423.8v-5.1H429v-5.1h-5.1v5.1h-10.2v-5.1h-5.1v5.1v5.1h5.1v10.2h-15.4v-5.1h-5.1v5.1h-15.4v5.1H388v5.1h-15.4v5.1
				H388v5.1h5.1v-5.1h5.1v5.1h5.1v-5.1h10.2v-5.1h-5.1v-5.1h5.1h5.1v5.1h5.1h5.1v-5.1h-5.1v-5.1h-5.1v-10.2H434.1L434.1-423.8z
				 M403.4-403.3h-10.2v-5.1h10.2V-403.3z"/>
		</g>
	</g>
	<g>
		<g>
			<polygon points="418.7,-372.5 418.7,-377.7 418.7,-382.8 413.6,-382.8 413.6,-377.7 408.5,-377.7 408.5,-372.5 413.6,-372.5 
				413.6,-367.4 408.5,-367.4 408.5,-362.3 418.7,-362.3 418.7,-367.4 423.9,-367.4 423.9,-372.5 			"/>
		</g>
	</g>
	<g>
		<g>
			<polygon points="464.8,-362.3 464.8,-367.4 459.7,-367.4 459.7,-362.3 444.3,-362.3 444.3,-357.2 454.6,-357.2 454.6,-352.1 
				459.7,-352.1 459.7,-357.2 469.9,-357.2 469.9,-352.1 475.1,-352.1 475.1,-357.2 475.1,-362.3 			"/>
		</g>
	</g>
	<g>
		<g>
			<polygon points="469.9,-382.8 469.9,-377.7 464.8,-377.7 464.8,-372.5 475.1,-372.5 475.1,-377.7 475.1,-382.8 			"/>
		</g>
	</g>
</g>
<g>
	<g>
		<polygon class="st9" points="144.5,-38.3 140.9,-38.3 3.7,-38.3 3.7,-34.7 0,-34.7 0,-13.5 3.7,-13.5 3.7,-9.8 140.9,-9.8 
			144.5,-9.8 144.5,-13.5 148.2,-13.5 148.2,-34.7 144.5,-34.7 		"/>
		<polygon class="st12" points="144.5,-38.3 140.9,-38.3 3.7,-38.3 3.7,-34.7 0,-34.7 0,-13.5 3.7,-13.5 3.7,-9.8 140.9,-9.8 
			144.5,-9.8 144.5,-13.5 148.2,-13.5 148.2,-34.7 144.5,-34.7 		"/>
		<g>
			<path class="st4" d="M31.9-23.5h-1.3v3.8h-2.5v-10.1h6.3v1.3h1.3v3.8h-1.3v1.3h1.3v3.8h-2.5v-2.5h-1.3V-23.5z M30.7-26h2.5v-1.3
				h-2.5V-26z"/>
			<path class="st4" d="M38.2-21H37v-7.6h1.3v-1.3h6.3v2.5h-5.1v1.3H42v2.5h-2.5v1.3h5.1v2.5h-6.3V-21z"/>
			<path class="st4" d="M47.1-21h-1.3v-7.6h1.3v-1.3h5.1v1.3h1.3v2.5h-2.5v-1.3h-2.5v5.1h2.5v-1.3h2.5v2.5h-1.3v1.3h-5.1V-21z"/>
			<path class="st4" d="M57.2-19.7h-2.5v-8.9h1.3v-1.3H61v1.3h1.3v8.9h-2.5v-3.8h-2.5V-19.7z M59.7-26v-1.3h-2.5v1.3H59.7z"/>
			<path class="st4" d="M64.8-21h-1.3v-8.9h2.5v7.6h5.1v2.5h-6.3V-21z"/>
			<path class="st4" d="M72.4-29.8h2.5v10.1h-2.5V-29.8z"/>
			<path class="st4" d="M76.2-29.8h6.3v1.3h1.3v7.6h-1.3v1.3h-6.3V-29.8z M78.7-26h2.5v-1.3h-2.5V-26z M78.7-22.3h2.5v-1.3h-2.5
				V-22.3z"/>
			<path class="st4" d="M88.8-23.5h-1.3v3.8H85v-8.9h1.3v-1.3h5.1v1.3h1.3v3.8h-1.3v1.3h1.3v3.8h-2.5v-2.5h-1.3V-23.5z M87.6-26h2.5
				v-1.3h-2.5V-26z"/>
			<path class="st4" d="M96.4-19.7h-2.5v-8.9h1.3v-1.3h5.1v1.3h1.3v8.9h-2.5v-3.8h-2.5V-19.7z M98.9-26v-1.3h-2.5v1.3H98.9z"/>
			<path class="st4" d="M102.7-29.8h7.6v2.5h-2.5v7.6h-2.5v-7.6h-2.5V-29.8z"/>
			<path class="st4" d="M112.8-21h-1.3v-7.6h1.3v-1.3h6.3v2.5h-5.1v1.3h2.5v2.5h-2.5v1.3h5.1v2.5h-6.3V-21z"/>
		</g>
	</g>
	<g>
		<rect x="6.1" y="-36.2" class="st4" width="13.1" height="1.7"/>
		<rect x="21" y="-36.2" class="st4" width="1.7" height="1.7"/>
	</g>
</g>
<g>
	<g>
		<polygon class="st9" points="144.5,3.7 140.9,3.7 3.7,3.7 3.7,7.3 0,7.3 0,28.5 3.7,28.5 3.7,32.2 140.9,32.2 144.5,32.2 
			144.5,28.5 148.2,28.5 148.2,7.3 144.5,7.3 		"/>
		<polygon class="st10" points="144.5,0 140.9,0 3.7,0 3.7,3.7 0,3.7 0,24.9 3.7,24.9 3.7,28.5 140.9,28.5 144.5,28.5 144.5,24.9 
			148.2,24.9 148.2,3.7 144.5,3.7 		"/>
		<g>
			<path class="st4" d="M31.9,14.8h-1.3v3.8h-2.5V8.5h6.3v1.3h1.3v3.8h-1.3v1.3h1.3v3.8h-2.5v-2.5h-1.3V14.8z M30.7,12.3h2.5V11
				h-2.5V12.3z"/>
			<path class="st4" d="M38.2,17.4H37V9.8h1.3V8.5h6.3V11h-5.1v1.3H42v2.5h-2.5v1.3h5.1v2.5h-6.3V17.4z"/>
			<path class="st4" d="M47.1,17.4h-1.3V9.8h1.3V8.5h5.1v1.3h1.3v2.5h-2.5V11h-2.5v5.1h2.5v-1.3h2.5v2.5h-1.3v1.3h-5.1V17.4z"/>
			<path class="st4" d="M57.2,18.6h-2.5V9.8h1.3V8.5H61v1.3h1.3v8.9h-2.5v-3.8h-2.5V18.6z M59.7,12.3V11h-2.5v1.3H59.7z"/>
			<path class="st4" d="M64.8,17.4h-1.3V8.5h2.5v7.6h5.1v2.5h-6.3V17.4z"/>
			<path class="st4" d="M72.4,8.5h2.5v10.1h-2.5V8.5z"/>
			<path class="st4" d="M76.2,8.5h6.3v1.3h1.3v7.6h-1.3v1.3h-6.3V8.5z M78.7,12.3h2.5V11h-2.5V12.3z M78.7,16.1h2.5v-1.3h-2.5V16.1z
				"/>
			<path class="st4" d="M88.8,14.8h-1.3v3.8H85V9.8h1.3V8.5h5.1v1.3h1.3v3.8h-1.3v1.3h1.3v3.8h-2.5v-2.5h-1.3V14.8z M87.6,12.3h2.5
				V11h-2.5V12.3z"/>
			<path class="st4" d="M96.4,18.6h-2.5V9.8h1.3V8.5h5.1v1.3h1.3v8.9h-2.5v-3.8h-2.5V18.6z M98.9,12.3V11h-2.5v1.3H98.9z"/>
			<path class="st4" d="M102.7,8.5h7.6V11h-2.5v7.6h-2.5V11h-2.5V8.5z"/>
			<path class="st4" d="M112.8,17.4h-1.3V9.8h1.3V8.5h6.3V11h-5.1v1.3h2.5v2.5h-2.5v1.3h5.1v2.5h-6.3V17.4z"/>
		</g>
	</g>
	<g>
		<rect x="6.1" y="2.8" class="st4" width="13.1" height="1.7"/>
		<rect x="21" y="2.8" class="st4" width="1.7" height="1.7"/>
	</g>
</g>
<g>
	<rect x="425.9" y="-265.5" class="st4" width="23.6" height="3"/>
	<rect x="452.7" y="-265.5" class="st4" width="3" height="3"/>
</g>
<g>
	<rect x="105.5" y="-327" class="st4" width="23.6" height="3"/>
	<rect x="132.3" y="-327" class="st4" width="3" height="3"/>
</g>
<g>
	<polygon class="st22" points="75.4,-203.5 75.4,-210.9 56.8,-210.9 56.8,-203.5 49.3,-203.5 49.3,-196 49.3,-184.8 56.8,-184.8 
		56.8,-177.4 68,-177.4 75.4,-177.4 75.4,-184.8 82.9,-184.8 82.9,-196 82.9,-203.5 	"/>
	<line class="st23" x1="57.4" y1="-177.4" x2="57.4" y2="-167.4"/>
	<line class="st23" x1="74.8" y1="-177.4" x2="74.8" y2="-167.4"/>
	<polygon class="st24" points="73.9,-169.3 71.7,-169.3 58.3,-169.3 58.3,-167.1 56.1,-167.1 56.1,-151.6 58.3,-151.6 58.3,-149.4 
		71.7,-149.4 73.9,-149.4 73.9,-151.6 76,-151.6 76,-167.1 73.9,-167.1 	"/>
</g>
<polygon class="st25" points="142.5,235.8 142.5,227.9 134.6,227.9 69.6,227.9 0.8,227.9 0.8,235.8 -7.1,235.8 -7.1,281.4 
	0.8,281.4 0.8,289.3 69.6,289.3 134.6,289.3 142.5,289.3 142.5,281.4 150.4,281.4 150.4,235.8 "/>
<polygon class="st25" points="142.5,235.9 142.5,228 134.6,228 69.6,228 0.8,228 0.8,235.9 -7.1,235.9 -7.1,281.5 0.8,281.5 
	0.8,289.4 69.6,289.4 134.6,289.4 142.5,289.4 142.5,281.5 150.4,281.5 150.4,235.9 "/>
<g>
	<path class="st4" d="M39,269.3h-5.4v-21.8h13.6v2.7h2.7v8.2h-2.7v2.7H39V269.3z M39,255.7h5.4V253H39V255.7z"/>
	<path class="st4" d="M55.3,266.6h-2.7v-19h5.4v16.3h10.9v5.4H55.3V266.6z"/>
	<path class="st4" d="M77.1,269.3h-5.4v-19h2.7v-2.7h10.9v2.7H88v19h-5.4v-8.2h-5.4V269.3z M82.5,255.7V253h-5.4v2.7H82.5z"/>
	<path class="st4" d="M90.7,247.6h5.4v8.2h5.4v-8.2h5.4v10.9h-2.7v2.7h-2.7v8.2h-5.4v-8.2h-2.7v-2.7h-2.7V247.6z"/>
</g>
<polygon class="st25" points="312.5,235.8 312.5,227.9 304.6,227.9 239.6,227.9 170.8,227.9 170.8,235.8 162.9,235.8 162.9,281.4 
	170.8,281.4 170.8,289.3 239.6,289.3 304.6,289.3 312.5,289.3 312.5,281.4 320.4,281.4 320.4,235.8 "/>
<polygon class="st22" points="312.5,227.9 312.5,220 304.6,220 239.6,220 170.8,220 170.8,227.9 162.9,227.9 162.9,273.5 
	170.8,273.5 170.8,281.4 239.6,281.4 304.6,281.4 312.5,281.4 312.5,273.5 320.4,273.5 320.4,227.9 "/>
<g>
	<path class="st4" d="M209,261.3h-5.4v-21.8h13.6v2.7h2.7v8.2h-2.7v2.7H209V261.3z M209,247.7h5.4V245H209V247.7z"/>
	<path class="st4" d="M225.3,258.6h-2.7v-19h5.4v16.3h10.9v5.4h-13.6V258.6z"/>
	<path class="st4" d="M247.1,261.3h-5.4v-19h2.7v-2.7h10.9v2.7h2.7v19h-5.4v-8.2h-5.4V261.3z M252.5,247.7V245h-5.4v2.7H252.5z"/>
	<path class="st4" d="M260.7,239.6h5.4v8.2h5.4v-8.2h5.4v10.9h-2.7v2.7h-2.7v8.2h-5.4v-8.2h-2.7v-2.7h-2.7V239.6z"/>
</g>
<g>
	<path class="st26" d="M-681.1-9.8h43.2v108h43.2v-108h43.2v129.6h-21.6v21.6h-21.6V163h-43.2v-21.6h-21.6v-21.6h-21.6V-9.8z"/>
	<path class="st27" d="M-529.9,13.9h21.6V-7.7h108v43.2h-86.4v21.6h64.8v21.6h21.6v64.8h-21.6v21.6h-108v-43.2h86.4v-21.6h-64.8
		V78.7h-21.6V13.9z"/>
</g>
<g>
	<path class="st28" d="M-681.1-30.9h43.2v108h43.2v-108h43.2V98.7h-21.6v21.6h-21.6v21.6h-43.2v-21.6h-21.6V98.7h-21.6V-30.9z"/>
	<path class="st29" d="M-529.9-9.3h21.6v-21.6h108v43.2h-86.4v21.6h64.8v21.6h21.6v64.8h-21.6v21.6h-108V98.7h86.4V77.1h-64.8V55.5
		h-21.6V-9.3z"/>
</g>
<g>
	<g>
		<path class="st0" d="M-631.7,347.8h27.5v68.7h27.5v-68.7h27.5v82.4H-563v13.7h-13.7v13.7h-27.5v-13.7H-618v-13.7h-13.7V347.8z"/>
		<path class="st0" d="M-535.6,362.8h13.7v-13.7h68.7v27.5h-54.9v13.7h41.2V404h13.7v41.2h-13.7v13.7h-68.7v-27.5h54.9v-13.7h-41.2
			V404h-13.7V362.8z"/>
	</g>
	<g>
		<path class="st7" d="M-631.7,333.3h27.5v68.7h27.5v-68.7h27.5v82.4H-563v13.7h-13.7v13.7h-27.5v-13.7H-618v-13.7h-13.7V333.3z"/>
		<path class="st7" d="M-535.6,348.3h13.7v-13.7h68.7V362h-54.9v13.7h41.2v13.7h13.7v41.2h-13.7v13.7h-68.7V417h54.9v-13.7h-41.2
			v-13.7h-13.7V348.3z"/>
	</g>
	<g>
		<path class="st4" d="M-631.7,319.9h27.5v68.7h27.5v-68.7h27.5v82.4H-563V416h-13.7v13.7h-27.5V416H-618v-13.7h-13.7V319.9z"/>
		<path class="st4" d="M-535.6,333.6h13.7v-13.7h68.7v27.5h-54.9v13.7h41.2v13.7h13.7V416h-13.7v13.7h-68.7v-27.5h54.9v-13.7h-41.2
			v-13.7h-13.7V333.6z"/>
	</g>
</g>
</svg>
