<?xml version="1.0" encoding="utf-8"?>
<!-- Generator: Adobe Illustrator 22.0.1, SVG Export Plug-In . SVG Version: 6.00 Build 0)  -->
<svg version="1.1" id="Layer_1" xmlns="http://www.w3.org/2000/svg" xmlns:xlink="http://www.w3.org/1999/xlink" x="0px" y="0px"
	 width="635.6px" height="322.1px" viewBox="0 0 635.6 322.1" style="enable-background:new 0 0 635.6 322.1;" xml:space="preserve"
	>
<style type="text/css">
	.st0{fill:#5895B7;}
	.st1{opacity:0.8;}
	.st2{fill:#C17620;}
	.st3{fill:#F4C24A;}
	.st4{fill:#FFFFFF;}
	.st5{fill:#2A6FBA;}
	.st6{fill:#4ABAEF;}
	.st7{fill:#95C9C8;}
	.st8{fill:#DDEFEE;}
	.st9{fill:#1B8E6F;}
	.st10{fill:#3CEA8A;}
	.st11{opacity:0.4;fill:#666666;}
	.st12{fill:#33BC6E;}
	.st13{fill:none;}
	.st14{fill:#7149A4;}
	.st15{fill:#BD86E0;}
	.st16{opacity:0.4;fill:#666666;stroke:#666666;stroke-width:4;stroke-linejoin:bevel;stroke-miterlimit:10;}
	.st17{fill:#F2F2F2;}
	.st18{fill:#E6E6E6;}
	.st19{fill:none;stroke:#000000;stroke-width:4;stroke-linejoin:bevel;stroke-miterlimit:10;}
	.st20{fill:#C6E0DE;}
	.st21{fill:#A7C6C3;}
	.st22{fill:#EE3D53;}
	.st23{fill:none;stroke:#000000;stroke-width:2;stroke-miterlimit:10;}
	.st24{fill:#A17559;}
	.st25{fill:#910E46;}
	.st26{fill:#238D6F;}
	.st27{fill:#704CA2;}
	.st28{fill:#47E88D;}
	.st29{fill:#BC88DE;}
	.st30{fill:#CCCCCC;}
	.st31{fill:#5B2616;}
	.st32{opacity:0.38;fill:#2D3D3E;}
	.st33{opacity:0.38;}
	.st34{fill:#2D3D3E;}
	.st35{fill:#3F180F;}
	.st36{fill:#1A1A1A;}
	.st37{fill:#38140C;}
</style>
<g>
	<rect x="-4028.2" y="1790" class="st0" width="484" height="82"/>
	<rect x="-3576.2" y="1864" class="st0" width="107" height="30"/>
	<g class="st1">
		<g>
			<polygon class="st0" points="-4012.2,1810 -4012.2,1892 -4108.2,1892 -4108.2,1881 -4096.2,1881 -4096.2,1869 -4084.2,1869 
				-4084.2,1857 -4072.2,1857 -4072.2,1845 -4084.2,1845 -4084.2,1833 -4096.2,1833 -4096.2,1821 -4108.2,1821 -4108.2,1810 			"/>
		</g>
		<polygon class="st0" points="-4026.2,1868 -4012.2,1891 -4012.3,1868 		"/>
	</g>
	<g>
		<g>
			<polygon class="st2" points="-3565.2,1802 -3565.2,1884 -3469.2,1884 -3469.2,1873 -3481.2,1873 -3481.2,1861 -3493.2,1861 
				-3493.2,1849 -3505.2,1849 -3505.2,1837 -3493.2,1837 -3493.2,1825 -3481.2,1825 -3481.2,1813 -3469.2,1813 -3469.2,1802 			"/>
			<polygon class="st3" points="-3565.2,1791 -3565.2,1873 -3469.2,1873 -3469.2,1862 -3481.2,1862 -3481.2,1850 -3493.2,1850 
				-3493.2,1838 -3505.2,1838 -3505.2,1826 -3493.2,1826 -3493.2,1814 -3481.2,1814 -3481.2,1802 -3469.2,1802 -3469.2,1791 			"/>
		</g>
		<polygon class="st2" points="-3551.2,1860 -3565.2,1883 -3565.2,1860 		"/>
		<g>
			<g>
				<polygon class="st2" points="-4021.2,1802 -4021.2,1884 -4117.2,1884 -4117.2,1873 -4105.2,1873 -4105.2,1861 -4093.2,1861 
					-4093.2,1849 -4081.2,1849 -4081.2,1837 -4093.2,1837 -4093.2,1825 -4105.2,1825 -4105.2,1813 -4117.2,1813 -4117.2,1802 				
					"/>
				<polygon class="st3" points="-4021.2,1791 -4021.2,1873 -4117.2,1873 -4117.2,1862 -4105.2,1862 -4105.2,1850 -4093.2,1850 
					-4093.2,1838 -4081.2,1838 -4081.2,1826 -4093.2,1826 -4093.2,1814 -4105.2,1814 -4105.2,1802 -4117.2,1802 -4117.2,1791 				
					"/>
			</g>
			<polygon class="st2" points="-4035.2,1860 -4021.2,1883 -4021.3,1860 			"/>
		</g>
		<g>
			<rect x="-4035.2" y="1778" class="st2" width="484" height="82"/>
			<rect x="-4035.2" y="1766" class="st3" width="484" height="82"/>
		</g>
	</g>
	<g>
		<path class="st4" d="M-3964.6,1825.8h-8.6v-34.6h8.6v13h8.6v-13h8.6v34.6h-8.6v-13h-8.6V1825.8z"/>
		<path class="st4" d="M-3943,1795.5h4.3v-4.3h17.3v4.3h4.3v25.9h-4.3v4.3h-17.3v-4.3h-4.3V1795.5z M-3934.4,1817.1h8.6v-17.3h-8.6
			V1817.1z"/>
		<path class="st4" d="M-3904.1,1825.8h-8.6v-34.6h8.6v17.3h4.3v-4.3h4.3v4.3h4.3v-17.3h8.6v34.6h-8.6v-4.3h-4.3v-4.3h-4.3v4.3h-4.3
			V1825.8z"/>
		<path class="st4" d="M-3848,1791.2h25.9v8.6h-8.6v25.9h-8.6v-25.9h-8.6V1791.2z"/>
		<path class="st4" d="M-3817.7,1795.5h4.3v-4.3h17.3v4.3h4.3v25.9h-4.3v4.3h-17.3v-4.3h-4.3V1795.5z M-3809.1,1817.1h8.6v-17.3
			h-8.6V1817.1z"/>
		<path class="st4" d="M-3748.6,1825.8h-8.6v-34.6h21.6v4.3h4.3v13h-4.3v4.3h-13V1825.8z M-3748.6,1804.2h8.6v-4.3h-8.6V1804.2z"/>
		<path class="st4" d="M-3722.7,1821.5h-4.3v-30.2h8.6v25.9h17.3v8.6h-21.6V1821.5z"/>
		<path class="st4" d="M-3688.1,1825.8h-8.6v-30.2h4.3v-4.3h17.3v4.3h4.3v30.2h-8.6v-13h-8.6V1825.8z M-3679.5,1804.2v-4.3h-8.6v4.3
			H-3679.5z"/>
		<path class="st4" d="M-3666.5,1791.2h8.6v13h8.6v-13h8.6v17.3h-4.3v4.3h-4.3v13h-8.6v-13h-4.3v-4.3h-4.3V1791.2z"/>
	</g>
</g>
<polygon class="st5" points="-3859.2,2059 -3871.2,2059 -3944.2,2059 -3944.2,2071 -3956.2,2071 -3956.2,2156 -3944.2,2156 
	-3944.2,2168 -3871.2,2168 -3859.2,2168 -3859.2,2156 -3847.2,2156 -3847.2,2071 -3859.2,2071 "/>
<polygon class="st5" points="-3859.2,2059 -3871.2,2059 -3944.2,2059 -3944.2,2071 -3956.2,2071 -3956.2,2156 -3944.2,2156 
	-3944.2,2168 -3871.2,2168 -3859.2,2168 -3859.2,2156 -3847.2,2156 -3847.2,2071 -3859.2,2071 "/>
<g>
	<path class="st4" d="M-3919.6,2093.2h28.4v5.7h5.7v17.1h-5.7v5.7h-17.1v-11.4h11.4v-5.7h-22.8V2093.2z M-3908.2,2127.3h11.4v11.4
		h-11.4V2127.3z"/>
</g>
<polygon class="st5" points="-3708.2,2059 -3720.2,2059 -3793.2,2059 -3793.2,2071 -3805.2,2071 -3805.2,2156 -3793.2,2156 
	-3793.2,2168 -3720.2,2168 -3708.2,2168 -3708.2,2156 -3696.2,2156 -3696.2,2071 -3708.2,2071 "/>
<polygon class="st6" points="-3708.2,2049 -3720.2,2049 -3793.2,2049 -3793.2,2061 -3805.2,2061 -3805.2,2146 -3793.2,2146 
	-3793.2,2158 -3720.2,2158 -3708.2,2158 -3708.2,2146 -3696.2,2146 -3696.2,2061 -3708.2,2061 "/>
<g>
	<path class="st4" d="M-3768.6,2083.2h28.4v5.7h5.7v17.1h-5.7v5.7h-17.1v-11.4h11.4v-5.7h-22.8V2083.2z M-3757.2,2117.3h11.4v11.4
		h-11.4V2117.3z"/>
</g>
<g>
	<polygon class="st0" points="-2673.2,1903.5 -2684.8,1903.5 -2684.8,1891.9 -2696.4,1891.9 -2696.4,1879.1 -3195.1,1879.1 
		-3195.1,1891.9 -3206.6,1891.9 -3206.6,1903.5 -3218.2,1903.5 -3218.2,2588.2 -3206.6,2588.2 -3206.6,2599.9 -3195.1,2599.9 
		-3195.1,2612.7 -2696.4,2612.7 -2696.4,2599.9 -2684.8,2599.9 -2684.8,2588.2 -2673.2,2588.2 	"/>
	<polygon class="st7" points="-2673.2,1891.5 -2684.8,1891.5 -2684.8,1879.9 -2696.4,1879.9 -2696.4,1867 -3195.1,1867 
		-3195.1,1879.9 -3206.6,1879.9 -3206.6,1891.5 -3218.2,1891.5 -3218.2,2576.2 -3206.6,2576.2 -3206.6,2587.9 -3195.1,2587.9 
		-3195.1,2600.7 -2696.4,2600.7 -2696.4,2587.9 -2684.8,2587.9 -2684.8,2576.2 -2673.2,2576.2 	"/>
	<polygon class="st8" points="-2673.2,1879.5 -2684.8,1879.5 -2684.8,1867.8 -2696.4,1867.8 -2696.4,1855 -3195.1,1855 
		-3195.1,1867.8 -3206.6,1867.8 -3206.6,1879.5 -3218.2,1879.5 -3218.2,2564.2 -3206.6,2564.2 -3206.6,2575.8 -3195.1,2575.8 
		-3195.1,2588.6 -2696.4,2588.6 -2696.4,2575.8 -2684.8,2575.8 -2684.8,2564.2 -2673.2,2564.2 	"/>
</g>
<g>
	<polygon class="st0" points="-4159.2,-89 -4163.3,-89 -4163.3,-93.2 -4167.4,-93.2 -4167.4,-97.7 -4343.6,-97.7 -4343.6,-93.2 
		-4347.7,-93.2 -4347.7,-89 -4351.7,-89 -4351.7,152.9 -4347.7,152.9 -4347.7,157 -4343.6,157 -4343.6,161.5 -4167.4,161.5 
		-4167.4,157 -4163.3,157 -4163.3,152.9 -4159.2,152.9 	"/>
	<polygon class="st7" points="-4159.2,-93.3 -4163.3,-93.3 -4163.3,-97.4 -4167.4,-97.4 -4167.4,-101.9 -4343.6,-101.9 
		-4343.6,-97.4 -4347.7,-97.4 -4347.7,-93.3 -4351.7,-93.3 -4351.7,148.6 -4347.7,148.6 -4347.7,152.8 -4343.6,152.8 -4343.6,157.3 
		-4167.4,157.3 -4167.4,152.8 -4163.3,152.8 -4163.3,148.6 -4159.2,148.6 	"/>
	<polygon class="st8" points="-4159.2,-97.5 -4163.3,-97.5 -4163.3,-101.7 -4167.4,-101.7 -4167.4,-106.2 -4343.6,-106.2 
		-4343.6,-101.7 -4347.7,-101.7 -4347.7,-97.5 -4351.7,-97.5 -4351.7,144.4 -4347.7,144.4 -4347.7,148.5 -4343.6,148.5 -4343.6,153 
		-4167.4,153 -4167.4,148.5 -4163.3,148.5 -4163.3,144.4 -4159.2,144.4 	"/>
</g>
<g>
	<polygon class="st9" points="-3722.2,1539 -3732.2,1539 -4107.1,1539 -4107.1,1549.1 -4117.2,1549.1 -4117.2,1607 -4107.1,1607 
		-4107.1,1617 -3732.2,1617 -3722.2,1617 -3722.2,1607 -3712.1,1607 -3712.1,1549.1 -3722.2,1549.1 	"/>
	<polygon class="st10" points="-3722.2,1529 -3732.2,1529 -4107.1,1529 -4107.1,1539.1 -4117.2,1539.1 -4117.2,1597 -4107.1,1597 
		-4107.1,1607 -3732.2,1607 -3722.2,1607 -3722.2,1597 -3712.1,1597 -3712.1,1539.1 -3722.2,1539.1 	"/>
	<g>
		<path class="st4" d="M-3997.2,1579.9h-6.9v-27.6h17.3v3.5h3.5v10.4h-3.5v3.5h-10.4V1579.9z M-3997.2,1562.6h6.9v-3.5h-6.9V1562.6z
			"/>
		<path class="st4" d="M-3976.4,1576.4h-3.5v-24.2h6.9v20.7h13.8v6.9h-17.3V1576.4z"/>
		<path class="st4" d="M-3948.8,1579.9h-6.9v-24.2h3.5v-3.5h13.8v3.5h3.5v24.2h-6.9v-10.4h-6.9V1579.9z M-3941.9,1562.6v-3.5h-6.9
			v3.5H-3941.9z"/>
		<path class="st4" d="M-3931.5,1552.3h6.9v10.4h6.9v-10.4h6.9v13.8h-3.5v3.5h-3.5v10.4h-6.9v-10.4h-3.5v-3.5h-3.5V1552.3z"/>
		<path class="st4" d="M-3903.8,1576.4h-3.5v-20.7h3.5v-3.5h17.3v6.9h-13.8v3.5h6.9v6.9h-6.9v3.5h13.8v6.9h-17.3V1576.4z"/>
		<path class="st4" d="M-3872.7,1569.5h-3.5v10.4h-6.9v-27.6h17.3v3.5h3.5v10.4h-3.5v3.5h3.5v10.4h-6.9v-6.9h-3.5V1569.5z
			 M-3876.2,1562.6h6.9v-3.5h-6.9V1562.6z"/>
		<path class="st4" d="M-3834.7,1552.3h6.9v27.6h-6.9V1552.3z"/>
	</g>
</g>
<g>
	<polygon class="st11" points="-4083,1418.4 -4085,1412.7 -4089.1,1400.6 -4106.8,1406.7 -4104.9,1412.4 -4110.7,1414.4 
		-4106.6,1426.4 -4100.8,1424.5 -4098.9,1430.2 -4086.8,1426.2 -4088.8,1420.4 	"/>
	<polygon class="st11" points="-4044.2,1406.4 -4046.2,1400.6 -4050.3,1388.6 -4068.1,1394.6 -4066.1,1400.4 -4071.9,1402.3 
		-4067.8,1414.3 -4062,1412.4 -4060.1,1418.2 -4048.1,1414.1 -4050,1408.3 	"/>
	<rect x="-4103.8" y="1359.4" transform="matrix(0.9472 -0.3207 0.3207 0.9472 -658.7914 -1242.2203)" width="7.1" height="38.6"/>
	<polygon points="-4084.7,1413.6 -4086.6,1407.8 -4090.7,1395.8 -4108.5,1401.9 -4106.5,1407.6 -4112.3,1409.6 -4108.2,1421.6 
		-4102.4,1419.6 -4100.5,1425.4 -4088.5,1421.3 -4090.4,1415.6 	"/>
	<rect x="-4065.3" y="1346.4" transform="matrix(0.9472 -0.3207 0.3207 0.9472 -652.5815 -1230.5707)" width="7.1" height="38.6"/>
	<polygon points="-4046.2,1400.6 -4048.1,1394.8 -4052.2,1382.8 -4070,1388.8 -4068.1,1394.6 -4073.8,1396.5 -4069.7,1408.6 
		-4064,1406.6 -4062,1412.4 -4050,1408.3 -4052,1402.5 	"/>
	<rect x="-4113.8" y="1337.1" transform="matrix(0.9472 -0.3207 0.3207 0.9472 -647.6773 -1240.6649)" width="47.7" height="17.3"/>
</g>
<g>
	<polygon class="st11" points="-4016.8,1452 -4015.9,1447.9 -4014,1439.2 -4026.8,1436.4 -4027.7,1440.5 -4031.9,1439.6 
		-4033.8,1448.3 -4029.6,1449.2 -4030.5,1453.3 -4021.9,1455.2 -4021,1451.1 	"/>
	<polygon class="st11" points="-3989.3,1458.8 -3988.4,1454.6 -3986.5,1446 -3999.3,1443.2 -4000.2,1447.3 -4004.3,1446.4 
		-4006.3,1455.1 -4002.1,1456 -4003,1460.1 -3994.4,1462 -3993.5,1457.9 	"/>
	<rect x="-4015.2" y="1408.6" transform="matrix(0.9766 0.2149 -0.2149 0.9766 211.8451 895.5193)" width="5" height="26.9"/>
	<polygon points="-4016.1,1448.5 -4015.1,1444.4 -4013.2,1435.8 -4026,1432.9 -4026.9,1437.1 -4031.1,1436.2 -4033,1444.8 
		-4028.9,1445.7 -4029.8,1449.9 -4021.1,1451.8 -4020.2,1447.6 	"/>
	<rect x="-3987.6" y="1414.7" transform="matrix(0.9766 0.2149 -0.2149 0.9766 213.7992 889.7173)" width="5" height="26.9"/>
	<polygon points="-3988.4,1454.6 -3987.5,1450.5 -3985.6,1441.8 -3998.4,1439 -3999.3,1443.2 -4003.4,1442.3 -4005.3,1450.9 
		-4001.2,1451.8 -4002.1,1456 -3993.5,1457.9 -3992.5,1453.7 	"/>
	<rect x="-4011.4" y="1400.1" transform="matrix(0.9766 0.2149 -0.2149 0.9766 208.8333 891.2748)" width="33.3" height="12"/>
</g>
<g>
	<polygon class="st11" points="-3940.8,1390.2 -3941.5,1387.2 -3942.9,1380.8 -3952.3,1382.9 -3951.6,1386 -3954.6,1386.6 
		-3953.2,1393 -3950.2,1392.3 -3949.5,1395.3 -3943.2,1393.9 -3943.8,1390.9 	"/>
	<polygon class="st11" points="-3920.4,1386.2 -3921.1,1383.2 -3922.5,1376.8 -3931.9,1378.9 -3931.2,1381.9 -3934.2,1382.6 
		-3932.8,1389 -3929.8,1388.3 -3929.1,1391.3 -3922.7,1389.9 -3923.4,1386.9 	"/>
	<rect x="-3949.2" y="1359.1" transform="matrix(0.9761 -0.2173 0.2173 0.9761 -391.784 -825.0054)" width="3.6" height="19.8"/>
	<polygon points="-3941.4,1387.7 -3942,1384.6 -3943.5,1378.3 -3952.8,1380.4 -3952.2,1383.4 -3955.2,1384.1 -3953.8,1390.4 
		-3950.8,1389.8 -3950.1,1392.8 -3943.7,1391.4 -3944.4,1388.3 	"/>
	<rect x="-3928.9" y="1354.6" transform="matrix(0.9761 -0.2173 0.2173 0.9761 -390.3165 -820.7007)" width="3.6" height="19.8"/>
	<polygon points="-3921.1,1383.2 -3921.7,1380.1 -3923.1,1373.8 -3932.5,1375.8 -3931.9,1378.9 -3934.9,1379.6 -3933.5,1385.9 
		-3930.4,1385.2 -3929.8,1388.3 -3923.4,1386.9 -3924.1,1383.8 	"/>
	<rect x="-3952.6" y="1348.4" transform="matrix(0.9761 -0.2173 0.2173 0.9761 -388.0908 -823.862)" width="24.4" height="8.8"/>
</g>
<g>
	<polygon class="st11" points="-3920.2,1436 -3917.6,1431.9 -3912.1,1423.3 -3924.8,1415.2 -3927.4,1419.3 -3931.5,1416.7 
		-3937,1425.3 -3932.9,1427.9 -3935.5,1432 -3926.9,1437.5 -3924.3,1433.4 	"/>
	<polygon class="st11" points="-3893.2,1454.1 -3890.6,1450 -3885.1,1441.4 -3897.8,1433.3 -3900.4,1437.5 -3904.6,1434.8 
		-3910,1443.4 -3905.9,1446 -3908.5,1450.1 -3899.9,1455.6 -3897.3,1451.5 	"/>
	<rect x="-3906.9" y="1389.9" transform="matrix(0.844 0.5363 -0.5363 0.844 144.729 2312.9841)" width="5.7" height="30.9"/>
	<polygon points="-3918,1432.5 -3915.4,1428.4 -3910,1419.9 -3922.6,1411.8 -3925.2,1415.9 -3929.4,1413.3 -3934.8,1421.9 
		-3930.7,1424.5 -3933.3,1428.6 -3924.7,1434 -3922.1,1429.9 	"/>
	<rect x="-3879.5" y="1407.3" transform="matrix(0.844 0.5363 -0.5363 0.844 158.3535 2300.9934)" width="5.7" height="30.9"/>
	<polygon points="-3890.6,1450 -3888,1445.9 -3882.5,1437.3 -3895.2,1429.2 -3897.8,1433.3 -3901.9,1430.7 -3907.4,1439.3 
		-3903.3,1441.9 -3905.9,1446 -3897.3,1451.5 -3894.7,1447.4 	"/>
	<rect x="-3897.5" y="1388.3" transform="matrix(0.844 0.5363 -0.5363 0.844 143.2975 2297.6218)" width="38.2" height="13.8"/>
</g>
<g>
	<polygon class="st9" points="-4198.9,995.6 -4205.6,995.6 -4451.9,995.6 -4451.9,1002.2 -4458.5,1002.2 -4458.5,1040.2 
		-4451.9,1040.2 -4451.9,1046.8 -4205.6,1046.8 -4198.9,1046.8 -4198.9,1040.2 -4192.3,1040.2 -4192.3,1002.2 -4198.9,1002.2 	"/>
	<polygon class="st12" points="-4198.9,995.6 -4205.6,995.6 -4451.9,995.6 -4451.9,1002.2 -4458.5,1002.2 -4458.5,1040.2 
		-4451.9,1040.2 -4451.9,1046.8 -4205.6,1046.8 -4198.9,1046.8 -4198.9,1040.2 -4192.3,1040.2 -4192.3,1002.2 -4198.9,1002.2 	"/>
	<g>
		<path class="st4" d="M-4392.1,1013.1h2.3v-2.3h11.4v4.5h-9.1v9.1h9.1v4.5h-11.4v-2.3h-2.3V1013.1z"/>
		<path class="st4" d="M-4371.7,1029h-4.5v-15.9h2.3v-2.3h9.1v2.3h2.3v15.9h-4.5v-6.8h-4.5V1029z M-4367.1,1017.6v-2.3h-4.5v2.3
			H-4367.1z"/>
		<path class="st4" d="M-4358.1,1026.7h-2.3v-15.9h4.5v13.6h9.1v4.5h-11.4V1026.7z"/>
		<path class="st4" d="M-4344.4,1010.8h4.5v18.2h-4.5V1010.8z"/>
		<path class="st4" d="M-4337.6,1010.8h11.4v2.3h2.3v13.6h-2.3v2.3h-11.4V1010.8z M-4333.1,1017.6h4.5v-2.3h-4.5V1017.6z
			 M-4333.1,1024.4h4.5v-2.3h-4.5V1024.4z"/>
		<path class="st4" d="M-4314.9,1022.2h-2.3v6.8h-4.5v-15.9h2.3v-2.3h9.1v2.3h2.3v6.8h-2.3v2.3h2.3v6.8h-4.5v-4.5h-2.3V1022.2z
			 M-4317.2,1017.6h4.5v-2.3h-4.5V1017.6z"/>
		<path class="st4" d="M-4301.3,1029h-4.5v-15.9h2.3v-2.3h9.1v2.3h2.3v15.9h-4.5v-6.8h-4.5V1029z M-4296.7,1017.6v-2.3h-4.5v2.3
			H-4296.7z"/>
		<path class="st4" d="M-4289.9,1010.8h13.6v4.5h-4.5v13.6h-4.5v-13.6h-4.5V1010.8z"/>
		<path class="st4" d="M-4271.8,1026.7h-2.3v-13.6h2.3v-2.3h11.4v4.5h-9.1v2.3h4.5v4.5h-4.5v2.3h9.1v4.5h-11.4V1026.7z"/>
	</g>
</g>
<g>
	<polygon class="st9" points="-3878.9,1063.6 -3885.6,1063.6 -4131.9,1063.6 -4131.9,1070.2 -4138.5,1070.2 -4138.5,1108.2 
		-4131.9,1108.2 -4131.9,1114.8 -3885.6,1114.8 -3878.9,1114.8 -3878.9,1108.2 -3872.3,1108.2 -3872.3,1070.2 -3878.9,1070.2 	"/>
	<polygon class="st10" points="-3878.9,1057 -3885.6,1057 -4131.9,1057 -4131.9,1063.6 -4138.5,1063.6 -4138.5,1101.6 
		-4131.9,1101.6 -4131.9,1108.2 -3885.6,1108.2 -3878.9,1108.2 -3878.9,1101.6 -3872.3,1101.6 -3872.3,1063.6 -3878.9,1063.6 	"/>
	<g>
		<path class="st4" d="M-4072.1,1074.5h2.3v-2.3h11.4v4.5h-9.1v9.1h9.1v4.5h-11.4v-2.3h-2.3V1074.5z"/>
		<path class="st4" d="M-4051.7,1090.4h-4.5v-15.9h2.3v-2.3h9.1v2.3h2.3v15.9h-4.5v-6.8h-4.5V1090.4z M-4047.1,1079.1v-2.3h-4.5v2.3
			H-4047.1z"/>
		<path class="st4" d="M-4038.1,1088.1h-2.3v-15.9h4.5v13.6h9.1v4.5h-11.4V1088.1z"/>
		<path class="st4" d="M-4024.4,1072.3h4.5v18.2h-4.5V1072.3z"/>
		<path class="st4" d="M-4017.6,1072.3h11.4v2.3h2.3v13.6h-2.3v2.3h-11.4V1072.3z M-4013.1,1079.1h4.5v-2.3h-4.5V1079.1z
			 M-4013.1,1085.9h4.5v-2.3h-4.5V1085.9z"/>
		<path class="st4" d="M-3994.9,1083.6h-2.3v6.8h-4.5v-15.9h2.3v-2.3h9.1v2.3h2.3v6.8h-2.3v2.3h2.3v6.8h-4.5v-4.5h-2.3V1083.6z
			 M-3997.2,1079.1h4.5v-2.3h-4.5V1079.1z"/>
		<path class="st4" d="M-3981.3,1090.4h-4.5v-15.9h2.3v-2.3h9.1v2.3h2.3v15.9h-4.5v-6.8h-4.5V1090.4z M-3976.7,1079.1v-2.3h-4.5v2.3
			H-3976.7z"/>
		<path class="st4" d="M-3969.9,1072.3h13.6v4.5h-4.5v13.6h-4.5v-13.6h-4.5V1072.3z"/>
		<path class="st4" d="M-3951.8,1088.1h-2.3v-13.6h2.3v-2.3h11.4v4.5h-9.1v2.3h4.5v4.5h-4.5v2.3h9.1v4.5h-11.4V1088.1z"/>
	</g>
</g>
<g>
	<rect x="-4137" y="1145.9" class="st9" width="219.8" height="28.8"/>
	<rect x="-4141.8" y="1139.4" class="st9" width="229.4" height="30.6"/>
	<polygon class="st10" points="-4141.8,1135 -4141.8,1164.3 -4137,1164.3 -4137,1169.9 -3917.2,1169.9 -3917.2,1164.3 
		-3912.4,1164.3 -3912.4,1135 	"/>
</g>
<polygon class="st9" points="-3922,1149.8 -3922,1144.7 -3927.1,1144.7 -3927.1,1144.6 -3983.7,1144.6 -4014.3,1144.6 
	-4039.9,1144.6 -4063.7,1144.6 -4127.1,1144.6 -4127.1,1144.7 -4132.2,1144.7 -4132.2,1149.8 -4137.3,1149.8 -4137.3,1157.4 
	-4132.2,1157.4 -4132.2,1162.5 -4127.1,1162.5 -4127.1,1162.6 -4063.7,1162.6 -4039.9,1162.6 -4014.3,1162.6 -3983.7,1162.6 
	-3927.1,1162.6 -3927.1,1162.6 -3922,1162.6 -3922,1157.5 -3916.9,1157.5 -3916.9,1149.8 "/>
<g>
	<rect x="-4145.9" y="1243.9" class="st13" width="4.7" height="0.1"/>
	<rect x="-4145.9" y="1261.8" class="st13" width="4.7" height="0.1"/>
	<polygon class="st4" points="-4124.9,1261.9 -4124.9,1256.8 -4119.8,1256.8 -4119.8,1249.1 -4124.9,1249.1 -4124.9,1244 
		-4130,1244 -4130,1243.9 -4141.2,1243.9 -4141.2,1244 -4145.9,1244 -4145.9,1261.8 -4141.2,1261.8 -4141.2,1261.9 -4130,1261.9 
		-4130,1261.9 	"/>
</g>
<g>
	<polygon class="st4" points="-4171.7,1208.4 -4171.7,1203.3 -4176.8,1203.3 -4176.8,1203.2 -4192.7,1203.2 -4192.7,1221.2 
		-4176.8,1221.2 -4176.8,1221.1 -4171.7,1221.1 -4171.7,1216 -4166.6,1216 -4166.6,1208.4 	"/>
	<polygon class="st4" points="-4185.2,1247.2 -4185.2,1242.1 -4185.2,1242.1 -4185.2,1242 -4189.7,1242 -4190.3,1242 -4194.8,1242 
		-4194.8,1242.1 -4194.8,1242.1 -4194.8,1247.2 -4199.9,1247.2 -4199.9,1254.8 -4194.8,1254.8 -4194.8,1259.9 -4194.8,1259.9 
		-4194.8,1260 -4190.3,1260 -4189.7,1260 -4185.2,1260 -4185.2,1260 -4185.2,1260 -4185.2,1254.9 -4180.1,1254.9 -4180.1,1247.2 	
		"/>
</g>
<polygon class="st4" points="-4235,1149.8 -4235,1144.7 -4235,1144.7 -4235,1144.6 -4239.5,1144.6 -4240.1,1144.6 -4244.6,1144.6 
	-4244.6,1144.7 -4244.6,1144.7 -4244.6,1149.8 -4249.7,1149.8 -4249.7,1157.4 -4244.6,1157.4 -4244.6,1162.5 -4244.6,1162.5 
	-4244.6,1162.6 -4240.1,1162.6 -4239.5,1162.6 -4235,1162.6 -4235,1162.6 -4235,1162.6 -4235,1157.5 -4229.9,1157.5 -4229.9,1149.8 
	"/>
<polygon class="st14" points="-3269.2,1539 -3279.2,1539 -3654.1,1539 -3654.1,1549.1 -3664.2,1549.1 -3664.2,1607 -3654.1,1607 
	-3654.1,1617 -3279.2,1617 -3269.2,1617 -3269.2,1607 -3259.1,1607 -3259.1,1549.1 -3269.2,1549.1 "/>
<polygon class="st15" points="-3269.2,1529 -3279.2,1529 -3654.1,1529 -3654.1,1539.1 -3664.2,1539.1 -3664.2,1597 -3654.1,1597 
	-3654.1,1607 -3279.2,1607 -3269.2,1607 -3269.2,1597 -3259.1,1597 -3259.1,1539.1 -3269.2,1539.1 "/>
<g>
	<path class="st4" d="M-3551.6,1579.9h-6.9v-27.6h17.3v3.5h3.5v10.4h-3.5v3.5h-10.4V1579.9z M-3551.6,1562.6h6.9v-3.5h-6.9V1562.6z"
		/>
	<path class="st4" d="M-3530.8,1576.4h-3.5v-24.2h6.9v20.7h13.8v6.9h-17.3V1576.4z"/>
	<path class="st4" d="M-3503.2,1579.9h-6.9v-24.2h3.5v-3.5h13.8v3.5h3.5v24.2h-6.9v-10.4h-6.9V1579.9z M-3496.3,1562.6v-3.5h-6.9
		v3.5H-3496.3z"/>
	<path class="st4" d="M-3485.9,1552.3h6.9v10.4h6.9v-10.4h6.9v13.8h-3.5v3.5h-3.5v10.4h-6.9v-10.4h-3.5v-3.5h-3.5V1552.3z"/>
	<path class="st4" d="M-3458.3,1576.4h-3.5v-20.7h3.5v-3.5h17.3v6.9h-13.8v3.5h6.9v6.9h-6.9v3.5h13.8v6.9h-17.3V1576.4z"/>
	<path class="st4" d="M-3427.2,1569.5h-3.5v10.4h-6.9v-27.6h17.3v3.5h3.5v10.4h-3.5v3.5h3.5v10.4h-6.9v-6.9h-3.5V1569.5z
		 M-3430.6,1562.6h6.9v-3.5h-6.9V1562.6z"/>
	<path class="st4" d="M-3389.1,1552.3h17.3v3.5h3.5v10.4h-3.5v3.5h-10.4v3.5h13.8v6.9h-20.7v-13.8h3.5v-3.5h10.4v-3.5h-13.8V1552.3z
		"/>
</g>
<g>
	<rect x="-3643.2" y="1533" class="st4" width="45.1" height="5.7"/>
	<rect x="-3592" y="1533" class="st4" width="5.7" height="5.7"/>
</g>
<g>
	<rect x="-4097.7" y="1534" class="st4" width="45.1" height="5.7"/>
	<rect x="-4046.5" y="1534" class="st4" width="5.7" height="5.7"/>
</g>
<polygon class="st16" points="-3708.6,1374 -3702.2,1379.6 -3707.8,1386 -3687.4,1403.4 -3687.4,1441.3 -3666.6,1415.2 
	-3634.9,1444.6 -3629,1438.3 -3624.1,1442.9 -3552.4,1324.2 "/>
<polygon class="st17" points="-3711.1,1366.9 -3704.7,1372.5 -3710.3,1378.9 -3689.8,1396.3 -3689.8,1434.2 -3669.1,1408.1 
	-3637.3,1437.4 -3631.5,1431.2 -3626.5,1435.8 -3554.9,1317.1 "/>
<polygon class="st18" points="-3669,1407.9 -3554.7,1317.1 -3689.8,1396.1 -3689.8,1433.9 "/>
<polygon class="st19" points="-3712.1,1367 -3705.7,1372.6 -3711.3,1379 -3690.9,1396.4 -3690.9,1434.3 -3670.2,1408.2 
	-3638.4,1437.6 -3632.5,1431.3 -3627.6,1435.9 -3556,1317.2 "/>
<g>
	<polygon class="st20" points="-3776.3,1060.3 -3776.3,1223.9 -3765.9,1223.9 -3765.9,1233.5 -3755.5,1233.5 -3755.5,1243.9 
		-3308,1243.9 -3308,1233.5 -3297.6,1233.5 -3297.6,1223.9 -3287.3,1223.9 -3287.3,1060.3 	"/>
	<polygon class="st20" points="-3287.3,1060.3 -3287.3,966.2 -3297.6,966.2 -3297.6,956.7 -3308,956.7 -3308,946.2 -3755.5,946.2 
		-3755.5,956.7 -3765.9,956.7 -3765.9,966.2 -3776.3,966.2 -3776.3,1060.3 	"/>
</g>
<g>
	<polygon class="st21" points="-3765.9,962.8 -3755.5,962.8 -3755.5,954.8 -3765.9,954.8 -3765.9,962.7 -3776.3,962.7 
		-3776.3,970.7 -3765.9,970.7 	"/>
	<rect x="-3755.5" y="946.1" class="st21" width="447.5" height="8"/>
	<polygon class="st21" points="-3297.6,962.7 -3297.6,954.8 -3308,954.8 -3308,962.8 -3297.6,962.8 -3297.6,970.7 -3287.3,970.7 
		-3287.3,962.7 	"/>
</g>
<g>
	<g>
		<g>
			<rect x="-4169.4" y="881.8" width="10.2" height="10.2"/>
		</g>
	</g>
	<g>
		<g>
			<path d="M-4108,871.6v5.1h-5.1v5.1h5.1v20.5h5.1v5.1h-5.1v5.1h5.1h5.1v-10.2h15.4v5.1h5.1v-5.1v-30.7H-4108z M-4082.4,897.2
				h-20.5v-20.5h20.5V897.2z"/>
		</g>
	</g>
	<g>
		<g>
			<rect x="-4097.7" y="881.8" width="10.2" height="10.2"/>
		</g>
	</g>
	<g>
		<g>
			<rect x="-4169.4" y="953.5" width="10.2" height="10.2"/>
		</g>
	</g>
	<g>
		<g>
			<rect x="-4108" y="943.3" width="5.1" height="5.1"/>
		</g>
	</g>
	<g>
		<g>
			<rect x="-4133.6" y="968.9" width="5.1" height="5.1"/>
		</g>
	</g>
	<g>
		<g>
			<rect x="-4128.5" y="948.4" width="5.1" height="5.1"/>
		</g>
	</g>
	<g>
		<g>
			<rect x="-4128.5" y="958.6" width="5.1" height="5.1"/>
		</g>
	</g>
	<g>
		<g>
			<rect x="-4082.4" y="933" width="5.1" height="5.1"/>
		</g>
	</g>
	<g>
		<g>
			<rect x="-4179.7" y="933" width="5.1" height="5.1"/>
		</g>
	</g>
	<g>
		<g>
			<rect x="-4179.7" y="907.4" width="5.1" height="5.1"/>
		</g>
	</g>
	<g>
		<g>
			<polygon points="-4123.3,876.7 -4123.3,881.8 -4133.6,881.8 -4133.6,886.9 -4118.2,886.9 -4118.2,881.8 -4118.2,876.7 			"/>
		</g>
	</g>
	<g>
		<g>
			<path d="M-4082.4,912.5v5.1h-10.2v5.1h-15.4v-5.1h-5.1v5.1h-10.2v5.1h15.4v5.1h-10.2h-5.1v-5.1h-5.1v5.1h-5.1v-5.1h-5.1v5.1h-5.1
				v5.1h10.2v5.1h5.1v-5.1h10.2v5.1h-5.1v5.1h5.1v10.2h5.1v5.1h5.1v-5.1h15.4v-10.2h5.1v-5.1h-5.1V933h-10.2v-5.1h10.2v5.1h5.1v-5.1
				h5.1v-5.1h5.1v-5.1v-5.1H-4082.4L-4082.4,912.5z M-4097.7,938.2v15.4h-15.4v-15.4H-4097.7z"/>
		</g>
	</g>
	<g>
		<g>
			<polygon points="-4113.1,902.3 -4118.2,902.3 -4118.2,907.4 -4123.3,907.4 -4123.3,912.5 -4123.3,917.7 -4118.2,917.7 
				-4118.2,912.5 -4113.1,912.5 -4113.1,907.4 -4108,907.4 -4108,902.3 			"/>
		</g>
	</g>
	<g>
		<g>
			<rect x="-4123.3" y="968.9" width="10.2" height="5.1"/>
		</g>
	</g>
	<g>
		<g>
			<rect x="-4138.7" y="876.7" width="5.1" height="5.1"/>
		</g>
	</g>
	<g>
		<g>
			<rect x="-4097.7" y="912.5" width="5.1" height="5.1"/>
		</g>
	</g>
	<g>
		<g>
			<rect x="-4092.6" y="907.4" width="5.1" height="5.1"/>
		</g>
	</g>
	<g>
		<g>
			<rect x="-4159.2" y="933" width="5.1" height="5.1"/>
		</g>
	</g>
	<g>
		<g>
			<path d="M-4148.9,968.9v-20.5h5.1v-5.1v-5.1h-5.1v5.1h-15.4v-5.1h-5.1h-5.1v5.1h-5.1V974h30.7h10.2v-5.1H-4148.9z M-4154.1,968.9
				h-20.5v-20.5h20.5V968.9z"/>
		</g>
	</g>
	<g>
		<g>
			<rect x="-4148.9" y="902.3" width="5.1" height="5.1"/>
		</g>
	</g>
	<g>
		<g>
			<path d="M-4143.8,871.6h-5.1h-30.7v30.7h5.1v5.1h5.1v-5.1h5.1v5.1h5.1v-5.1h10.2v-10.2h5.1v-5.1h-5.1v-10.2h5.1h5.1v-5.1H-4143.8
				z M-4154.1,897.2h-20.5v-20.5h20.5V897.2z"/>
		</g>
	</g>
	<g>
		<g>
			<rect x="-4118.2" y="886.9" width="5.1" height="5.1"/>
		</g>
	</g>
	<g>
		<g>
			<rect x="-4128.5" y="871.6" width="5.1" height="5.1"/>
		</g>
	</g>
	<g>
		<g>
			<path d="M-4118.2,902.3v-5.1h-5.1v-5.1h-5.1v5.1h-10.2v-5.1h-5.1v5.1v5.1h5.1v10.2h-15.4v-5.1h-5.1v5.1h-15.4v5.1h10.2v5.1h-15.4
				v5.1h15.4v5.1h5.1v-5.1h5.1v5.1h5.1v-5.1h10.2v-5.1h-5.1v-5.1h5.1h5.1v5.1h5.1h5.1v-5.1h-5.1v-5.1h-5.1v-10.2L-4118.2,902.3
				L-4118.2,902.3z M-4148.9,922.8h-10.2v-5.1h10.2V922.8z"/>
		</g>
	</g>
	<g>
		<g>
			<polygon points="-4133.6,953.5 -4133.6,948.4 -4133.6,943.3 -4138.7,943.3 -4138.7,948.4 -4143.8,948.4 -4143.8,953.5 
				-4138.7,953.5 -4138.7,958.6 -4143.8,958.6 -4143.8,963.8 -4133.6,963.8 -4133.6,958.6 -4128.5,958.6 -4128.5,953.5 			"/>
		</g>
	</g>
	<g>
		<g>
			<polygon points="-4087.5,963.8 -4087.5,958.6 -4092.6,958.6 -4092.6,963.8 -4108,963.8 -4108,968.9 -4097.7,968.9 -4097.7,974 
				-4092.6,974 -4092.6,968.9 -4082.4,968.9 -4082.4,974 -4077.2,974 -4077.2,968.9 -4077.2,963.8 			"/>
		</g>
	</g>
	<g>
		<g>
			<polygon points="-4082.4,943.3 -4082.4,948.4 -4087.5,948.4 -4087.5,953.5 -4077.2,953.5 -4077.2,948.4 -4077.2,943.3 			"/>
		</g>
	</g>
</g>
<g>
	<g>
		<polygon class="st9" points="-4407.8,1287.7 -4411.5,1287.7 -4548.6,1287.7 -4548.6,1291.4 -4552.3,1291.4 -4552.3,1312.6 
			-4548.6,1312.6 -4548.6,1316.3 -4411.5,1316.3 -4407.8,1316.3 -4407.8,1312.6 -4404.1,1312.6 -4404.1,1291.4 -4407.8,1291.4 		"/>
		<polygon class="st12" points="-4407.8,1287.7 -4411.5,1287.7 -4548.6,1287.7 -4548.6,1291.4 -4552.3,1291.4 -4552.3,1312.6 
			-4548.6,1312.6 -4548.6,1316.3 -4411.5,1316.3 -4407.8,1316.3 -4407.8,1312.6 -4404.1,1312.6 -4404.1,1291.4 -4407.8,1291.4 		"/>
		<g>
			<path class="st4" d="M-4520.4,1302.5h-1.3v3.8h-2.5v-10.1h6.3v1.3h1.3v3.8h-1.3v1.3h1.3v3.8h-2.5v-2.5h-1.3V1302.5z
				 M-4521.7,1300h2.5v-1.3h-2.5V1300z"/>
			<path class="st4" d="M-4514.1,1305.1h-1.3v-7.6h1.3v-1.3h6.3v2.5h-5.1v1.3h2.5v2.5h-2.5v1.3h5.1v2.5h-6.3V1305.1z"/>
			<path class="st4" d="M-4505.2,1305.1h-1.3v-7.6h1.3v-1.3h5.1v1.3h1.3v2.5h-2.5v-1.3h-2.5v5.1h2.5v-1.3h2.5v2.5h-1.3v1.3h-5.1
				V1305.1z"/>
			<path class="st4" d="M-4495.1,1306.3h-2.5v-8.9h1.3v-1.3h5.1v1.3h1.3v8.9h-2.5v-3.8h-2.5V1306.3z M-4492.6,1300v-1.3h-2.5v1.3
				H-4492.6z"/>
			<path class="st4" d="M-4487.5,1305.1h-1.3v-8.9h2.5v7.6h5.1v2.5h-6.3V1305.1z"/>
			<path class="st4" d="M-4479.9,1296.2h2.5v10.1h-2.5V1296.2z"/>
			<path class="st4" d="M-4476.1,1296.2h6.3v1.3h1.3v7.6h-1.3v1.3h-6.3V1296.2z M-4473.6,1300h2.5v-1.3h-2.5V1300z M-4473.6,1303.8
				h2.5v-1.3h-2.5V1303.8z"/>
			<path class="st4" d="M-4463.5,1302.5h-1.3v3.8h-2.5v-8.9h1.3v-1.3h5.1v1.3h1.3v3.8h-1.3v1.3h1.3v3.8h-2.5v-2.5h-1.3V1302.5z
				 M-4464.8,1300h2.5v-1.3h-2.5V1300z"/>
			<path class="st4" d="M-4455.9,1306.3h-2.5v-8.9h1.3v-1.3h5.1v1.3h1.3v8.9h-2.5v-3.8h-2.5V1306.3z M-4453.4,1300v-1.3h-2.5v1.3
				H-4453.4z"/>
			<path class="st4" d="M-4449.6,1296.2h7.6v2.5h-2.5v7.6h-2.5v-7.6h-2.5V1296.2z"/>
			<path class="st4" d="M-4439.5,1305.1h-1.3v-7.6h1.3v-1.3h6.3v2.5h-5.1v1.3h2.5v2.5h-2.5v1.3h5.1v2.5h-6.3V1305.1z"/>
		</g>
	</g>
	<g>
		<rect x="-4546.2" y="1289.8" class="st4" width="13.1" height="1.7"/>
		<rect x="-4531.3" y="1289.8" class="st4" width="1.7" height="1.7"/>
	</g>
</g>
<g>
	<g>
		<polygon class="st9" points="-4407.8,1329.7 -4411.5,1329.7 -4548.6,1329.7 -4548.6,1333.4 -4552.3,1333.4 -4552.3,1354.6 
			-4548.6,1354.6 -4548.6,1358.3 -4411.5,1358.3 -4407.8,1358.3 -4407.8,1354.6 -4404.1,1354.6 -4404.1,1333.4 -4407.8,1333.4 		"/>
		<polygon class="st10" points="-4407.8,1326.1 -4411.5,1326.1 -4548.6,1326.1 -4548.6,1329.7 -4552.3,1329.7 -4552.3,1350.9 
			-4548.6,1350.9 -4548.6,1354.6 -4411.5,1354.6 -4407.8,1354.6 -4407.8,1350.9 -4404.1,1350.9 -4404.1,1329.7 -4407.8,1329.7 		"/>
		<g>
			<path class="st4" d="M-4520.4,1340.9h-1.3v3.8h-2.5v-10.1h6.3v1.3h1.3v3.8h-1.3v1.3h1.3v3.8h-2.5v-2.5h-1.3V1340.9z
				 M-4521.7,1338.4h2.5v-1.3h-2.5V1338.4z"/>
			<path class="st4" d="M-4514.1,1343.4h-1.3v-7.6h1.3v-1.3h6.3v2.5h-5.1v1.3h2.5v2.5h-2.5v1.3h5.1v2.5h-6.3V1343.4z"/>
			<path class="st4" d="M-4505.2,1343.4h-1.3v-7.6h1.3v-1.3h5.1v1.3h1.3v2.5h-2.5v-1.3h-2.5v5.1h2.5v-1.3h2.5v2.5h-1.3v1.3h-5.1
				V1343.4z"/>
			<path class="st4" d="M-4495.1,1344.7h-2.5v-8.9h1.3v-1.3h5.1v1.3h1.3v8.9h-2.5v-3.8h-2.5V1344.7z M-4492.6,1338.4v-1.3h-2.5v1.3
				H-4492.6z"/>
			<path class="st4" d="M-4487.5,1343.4h-1.3v-8.9h2.5v7.6h5.1v2.5h-6.3V1343.4z"/>
			<path class="st4" d="M-4479.9,1334.6h2.5v10.1h-2.5V1334.6z"/>
			<path class="st4" d="M-4476.1,1334.6h6.3v1.3h1.3v7.6h-1.3v1.3h-6.3V1334.6z M-4473.6,1338.4h2.5v-1.3h-2.5V1338.4z
				 M-4473.6,1342.1h2.5v-1.3h-2.5V1342.1z"/>
			<path class="st4" d="M-4463.5,1340.9h-1.3v3.8h-2.5v-8.9h1.3v-1.3h5.1v1.3h1.3v3.8h-1.3v1.3h1.3v3.8h-2.5v-2.5h-1.3V1340.9z
				 M-4464.8,1338.4h2.5v-1.3h-2.5V1338.4z"/>
			<path class="st4" d="M-4455.9,1344.7h-2.5v-8.9h1.3v-1.3h5.1v1.3h1.3v8.9h-2.5v-3.8h-2.5V1344.7z M-4453.4,1338.4v-1.3h-2.5v1.3
				H-4453.4z"/>
			<path class="st4" d="M-4449.6,1334.6h7.6v2.5h-2.5v7.6h-2.5v-7.6h-2.5V1334.6z"/>
			<path class="st4" d="M-4439.5,1343.4h-1.3v-7.6h1.3v-1.3h6.3v2.5h-5.1v1.3h2.5v2.5h-2.5v1.3h5.1v2.5h-6.3V1343.4z"/>
		</g>
	</g>
	<g>
		<rect x="-4546.2" y="1328.8" class="st4" width="13.1" height="1.7"/>
		<rect x="-4531.3" y="1328.8" class="st4" width="1.7" height="1.7"/>
	</g>
</g>
<g>
	<rect x="-4126.4" y="1060.6" class="st4" width="23.6" height="3"/>
	<rect x="-4099.6" y="1060.6" class="st4" width="3" height="3"/>
</g>
<g>
	<rect x="-4446.8" y="999.1" class="st4" width="23.6" height="3"/>
	<rect x="-4420.1" y="999.1" class="st4" width="3" height="3"/>
</g>
<g>
	<polygon class="st22" points="-4476.9,1122.6 -4476.9,1115.1 -4495.5,1115.1 -4495.5,1122.6 -4503,1122.6 -4503,1130.1 
		-4503,1141.2 -4495.5,1141.2 -4495.5,1148.7 -4484.4,1148.7 -4476.9,1148.7 -4476.9,1141.2 -4469.4,1141.2 -4469.4,1130.1 
		-4469.4,1122.6 	"/>
	<line class="st23" x1="-4494.9" y1="1148.7" x2="-4494.9" y2="1158.7"/>
	<line class="st23" x1="-4477.5" y1="1148.7" x2="-4477.5" y2="1158.7"/>
	<polygon class="st24" points="-4478.5,1156.8 -4480.7,1156.8 -4494,1156.8 -4494,1159 -4496.2,1159 -4496.2,1174.5 -4494,1174.5 
		-4494,1176.7 -4480.7,1176.7 -4478.5,1176.7 -4478.5,1174.5 -4476.3,1174.5 -4476.3,1159 -4478.5,1159 	"/>
</g>
<polygon class="st25" points="-4409.8,1561.9 -4409.8,1553.9 -4417.7,1553.9 -4482.8,1553.9 -4551.5,1553.9 -4551.5,1561.9 
	-4559.4,1561.9 -4559.4,1607.4 -4551.5,1607.4 -4551.5,1615.3 -4482.8,1615.3 -4417.7,1615.3 -4409.8,1615.3 -4409.8,1607.4 
	-4401.9,1607.4 -4401.9,1561.9 "/>
<polygon class="st25" points="-4409.8,1562 -4409.8,1554 -4417.7,1554 -4482.8,1554 -4551.5,1554 -4551.5,1562 -4559.4,1562 
	-4559.4,1607.5 -4551.5,1607.5 -4551.5,1615.5 -4482.8,1615.5 -4417.7,1615.5 -4409.8,1615.5 -4409.8,1607.5 -4401.9,1607.5 
	-4401.9,1562 "/>
<g>
	<path class="st4" d="M-4513.3,1595.4h-5.4v-21.8h13.6v2.7h2.7v8.2h-2.7v2.7h-8.2V1595.4z M-4513.3,1581.8h5.4v-2.7h-5.4V1581.8z"/>
	<path class="st4" d="M-4497,1592.7h-2.7v-19h5.4v16.3h10.9v5.4h-13.6V1592.7z"/>
	<path class="st4" d="M-4475.2,1595.4h-5.4v-19h2.7v-2.7h10.9v2.7h2.7v19h-5.4v-8.2h-5.4V1595.4z M-4469.8,1581.8v-2.7h-5.4v2.7
		H-4469.8z"/>
	<path class="st4" d="M-4461.6,1573.6h5.4v8.2h5.4v-8.2h5.4v10.9h-2.7v2.7h-2.7v8.2h-5.4v-8.2h-2.7v-2.7h-2.7V1573.6z"/>
</g>
<polygon class="st25" points="-4239.8,1561.9 -4239.8,1553.9 -4247.7,1553.9 -4312.8,1553.9 -4381.5,1553.9 -4381.5,1561.9 
	-4389.4,1561.9 -4389.4,1607.4 -4381.5,1607.4 -4381.5,1615.3 -4312.8,1615.3 -4247.7,1615.3 -4239.8,1615.3 -4239.8,1607.4 
	-4231.9,1607.4 -4231.9,1561.9 "/>
<polygon class="st22" points="-4239.8,1554 -4239.8,1546 -4247.7,1546 -4312.8,1546 -4381.5,1546 -4381.5,1554 -4389.4,1554 
	-4389.4,1599.5 -4381.5,1599.5 -4381.5,1607.5 -4312.8,1607.5 -4247.7,1607.5 -4239.8,1607.5 -4239.8,1599.5 -4231.9,1599.5 
	-4231.9,1554 "/>
<g>
	<path class="st4" d="M-4343.3,1587.4h-5.4v-21.8h13.6v2.7h2.7v8.2h-2.7v2.7h-8.2V1587.4z M-4343.3,1573.8h5.4v-2.7h-5.4V1573.8z"/>
	<path class="st4" d="M-4327,1584.7h-2.7v-19h5.4v16.3h10.9v5.4h-13.6V1584.7z"/>
	<path class="st4" d="M-4305.2,1587.4h-5.4v-19h2.7v-2.7h10.9v2.7h2.7v19h-5.4v-8.2h-5.4V1587.4z M-4299.8,1573.8v-2.7h-5.4v2.7
		H-4299.8z"/>
	<path class="st4" d="M-4291.6,1565.6h5.4v8.2h5.4v-8.2h5.4v10.9h-2.7v2.7h-2.7v8.2h-5.4v-8.2h-2.7v-2.7h-2.7V1565.6z"/>
</g>
<g>
	<path class="st26" d="M-5233.4,1316.3h43.2v108h43.2v-108h43.2v129.6h-21.6v21.6h-21.6v21.6h-43.2v-21.6h-21.6v-21.6h-21.6V1316.3z
		"/>
	<path class="st27" d="M-5082.2,1339.9h21.6v-21.6h108v43.2h-86.4v21.6h64.8v21.6h21.6v64.8h-21.6v21.6h-108v-43.2h86.4v-21.6h-64.8
		v-21.6h-21.6V1339.9z"/>
</g>
<g>
	<path class="st28" d="M-5233.4,1295.2h43.2v108h43.2v-108h43.2v129.6h-21.6v21.6h-21.6v21.6h-43.2v-21.6h-21.6v-21.6h-21.6V1295.2z
		"/>
	<path class="st29" d="M-5082.2,1316.8h21.6v-21.6h108v43.2h-86.4v21.6h64.8v21.6h21.6v64.8h-21.6v21.6h-108v-43.2h86.4v-21.6h-64.8
		v-21.6h-21.6V1316.8z"/>
</g>
<g>
	<g>
		<path class="st0" d="M-5184,1673.8h27.5v68.7h27.5v-68.7h27.5v82.4h-13.7v13.7h-13.7v13.7h-27.5v-13.7h-13.7v-13.7h-13.7V1673.8z"
			/>
		<path class="st0" d="M-5087.9,1688.9h13.7v-13.7h68.7v27.5h-54.9v13.7h41.2v13.7h13.7v41.2h-13.7v13.7h-68.7v-27.5h54.9v-13.7
			h-41.2v-13.7h-13.7V1688.9z"/>
	</g>
	<g>
		<path class="st7" d="M-5184,1659.3h27.5v68.7h27.5v-68.7h27.5v82.4h-13.7v13.7h-13.7v13.7h-27.5v-13.7h-13.7v-13.7h-13.7V1659.3z"
			/>
		<path class="st7" d="M-5087.9,1674.4h13.7v-13.7h68.7v27.5h-54.9v13.7h41.2v13.7h13.7v41.2h-13.7v13.7h-68.7V1743h54.9v-13.7
			h-41.2v-13.7h-13.7V1674.4z"/>
	</g>
	<g>
		<path class="st4" d="M-5184,1645.9h27.5v68.7h27.5v-68.7h27.5v82.4h-13.7v13.7h-13.7v13.7h-27.5V1742h-13.7v-13.7h-13.7V1645.9z"
			/>
		<path class="st4" d="M-5087.9,1659.6h13.7v-13.7h68.7v27.5h-54.9v13.7h41.2v13.7h13.7v41.2h-13.7v13.7h-68.7v-27.5h54.9v-13.7
			h-41.2v-13.7h-13.7V1659.6z"/>
	</g>
</g>
<g>
	<g>
		<path class="st0" d="M-4609.6,814.1h-21.6v-86.4h54v10.8h10.8v32.4h-10.8v10.8h-32.4V814.1z M-4609.6,760.1h21.6v-10.8h-21.6
			V760.1z"/>
		<path class="st0" d="M-4555.6,738.5h10.8v-10.8h43.2v10.8h10.8v64.8h-10.8v10.8h-43.2v-10.8h-10.8V738.5z M-4534,792.5h21.6v-43.2
			h-21.6V792.5z"/>
		<path class="st0" d="M-4469.2,803.3h-10.8v-75.6h21.6v64.8h43.2v21.6h-54V803.3z"/>
		<path class="st0" d="M-4426,727.7h21.6v32.4h21.6v-32.4h21.6v43.2h-10.8v10.8h-10.8v32.4h-21.6v-32.4h-10.8v-10.8h-10.8V727.7z"/>
	</g>
	<g>
		<path class="st30" d="M-4609.6,805.7h-21.6v-86.4h54v10.8h10.8v32.4h-10.8v10.8h-32.4V805.7z M-4609.6,751.7h21.6v-10.8h-21.6
			V751.7z"/>
		<path class="st30" d="M-4555.6,730.1h10.8v-10.8h43.2v10.8h10.8v64.8h-10.8v10.8h-43.2v-10.8h-10.8V730.1z M-4534,784.1h21.6
			v-43.2h-21.6V784.1z"/>
		<path class="st30" d="M-4469.2,794.9h-10.8v-75.6h21.6v64.8h43.2v21.6h-54V794.9z"/>
		<path class="st30" d="M-4426,719.3h21.6v32.4h21.6v-32.4h21.6v43.2h-10.8v10.8h-10.8v32.4h-21.6v-32.4h-10.8v-10.8h-10.8V719.3z"
			/>
	</g>
	<g>
		<path class="st4" d="M-4609.6,797.5h-21.6v-86.4h54v10.8h10.8v32.4h-10.8v10.8h-32.4V797.5z M-4609.6,743.5h21.6v-10.8h-21.6
			V743.5z"/>
		<path class="st4" d="M-4555.6,721.9h10.8v-10.8h43.2v10.8h10.8v64.8h-10.8v10.8h-43.2v-10.8h-10.8V721.9z M-4534,775.9h21.6v-43.2
			h-21.6V775.9z"/>
		<path class="st4" d="M-4469.2,786.7h-10.8v-75.6h21.6v64.8h43.2v21.6h-54V786.7z"/>
		<path class="st4" d="M-4426,711.1h21.6v32.4h21.6v-32.4h21.6v43.2h-10.8v10.8h-10.8v32.4h-21.6v-32.4h-10.8v-10.8h-10.8V711.1z"/>
	</g>
</g>
<image style="overflow:visible;" width="843" height="1118" xlink:href="E3F025FC18D28763.jpg"  transform="matrix(0.24 0 0 0.24 -4840.6904 861.3052)">
</image>
<g>
	<g class="st1">
		<g>
			<polygon class="st0" points="-4282.8,497.6 -4282.8,584.1 -4181.5,584.1 -4181.5,572.5 -4194.2,572.5 -4194.2,559.8 
				-4206.8,559.8 -4206.8,547.2 -4219.5,547.2 -4219.5,534.5 -4206.8,534.5 -4206.8,521.9 -4194.2,521.9 -4194.2,509.2 
				-4181.5,509.2 -4181.5,497.6 			"/>
		</g>
		<polygon class="st0" points="-4268,558.8 -4282.8,583 -4282.7,558.8 		"/>
	</g>
	<rect x="-4771" y="474.7" class="st0" width="510.3" height="86.5"/>
	<rect x="-4294.4" y="552.7" class="st0" width="112.8" height="31.6"/>
	<g class="st1">
		<g>
			<polygon class="st0" points="-4763.1,497.8 -4763.1,584.3 -4864.3,584.3 -4864.3,572.7 -4851.7,572.7 -4851.7,560 -4839,560 
				-4839,547.4 -4826.3,547.4 -4826.3,534.7 -4839,534.7 -4839,522.1 -4851.7,522.1 -4851.7,509.4 -4864.3,509.4 -4864.3,497.8 			
				"/>
		</g>
		<polygon class="st0" points="-4777.8,559 -4763.1,583.2 -4763.1,559 		"/>
	</g>
	<g>
		<g>
			<polygon class="st2" points="-4282.8,487.4 -4282.8,573.8 -4181.5,573.8 -4181.5,562.2 -4194.2,562.2 -4194.2,549.6 
				-4206.8,549.6 -4206.8,536.9 -4219.5,536.9 -4219.5,524.3 -4206.8,524.3 -4206.8,511.6 -4194.2,511.6 -4194.2,499 -4181.5,499 
				-4181.5,487.4 			"/>
			<polygon class="st3" points="-4282.8,475.8 -4282.8,562.2 -4181.5,562.2 -4181.5,550.6 -4194.2,550.6 -4194.2,538 -4206.8,538 
				-4206.8,525.3 -4219.5,525.3 -4219.5,512.7 -4206.8,512.7 -4206.8,500 -4194.2,500 -4194.2,487.4 -4181.5,487.4 -4181.5,475.8 
							"/>
		</g>
		<polygon class="st2" points="-4268,548.5 -4282.8,572.8 -4282.7,548.5 		"/>
		<g>
			<g>
				<polygon class="st2" points="-4763.6,487.4 -4763.6,573.8 -4864.8,573.8 -4864.8,562.2 -4852.1,562.2 -4852.1,549.6 
					-4839.5,549.6 -4839.5,536.9 -4826.8,536.9 -4826.8,524.3 -4839.5,524.3 -4839.5,511.6 -4852.1,511.6 -4852.1,499 -4864.8,499 
					-4864.8,487.4 				"/>
				<polygon class="st3" points="-4763.6,475.8 -4763.6,562.2 -4864.8,562.2 -4864.8,550.6 -4852.1,550.6 -4852.1,538 -4839.5,538 
					-4839.5,525.3 -4826.8,525.3 -4826.8,512.7 -4839.5,512.7 -4839.5,500 -4852.1,500 -4852.1,487.4 -4864.8,487.4 -4864.8,475.8 
									"/>
			</g>
			<polygon class="st2" points="-4778.3,548.5 -4763.6,572.8 -4763.6,548.5 			"/>
		</g>
		<g>
			<rect x="-4778.3" y="462.1" class="st2" width="510.3" height="86.5"/>
			<rect x="-4778.3" y="449.4" class="st3" width="510.3" height="86.5"/>
		</g>
	</g>
</g>
<g>
	<g>
		<path class="st25" d="M-4664.2,524.4h-37.4v-59.9h37.4v7.5h7.5v15h-7.5v15h7.5v15h-7.5V524.4z M-4686.7,486.9h15v-7.5h-15V486.9z
			 M-4686.7,509.4h15v-7.5h-15V509.4z"/>
		<path class="st25" d="M-4634.2,524.4h-15v-52.4h7.5v-7.5h30v7.5h7.5v52.4h-15v-22.5h-15V524.4z M-4619.3,486.9v-7.5h-15v7.5
			H-4619.3z"/>
		<path class="st25" d="M-4589.3,516.9h-7.5v-52.4h15v44.9h30v15h-37.4V516.9z"/>
		<path class="st25" d="M-4536.9,516.9h-7.5v-52.4h15v44.9h30v15h-37.4V516.9z"/>
		<path class="st25" d="M-4491.9,471.9h7.5v-7.5h30v7.5h7.5v44.9h-7.5v7.5h-30v-7.5h-7.5V471.9z M-4477,509.4h15v-30h-15V509.4z"/>
		<path class="st25" d="M-4439.5,471.9h7.5v-7.5h30v7.5h7.5v44.9h-7.5v7.5h-30v-7.5h-7.5V471.9z M-4424.5,509.4h15v-30h-15V509.4z"
			/>
		<path class="st25" d="M-4364.6,494.4h-7.5v30h-15v-59.9h15v7.5h7.5v7.5h7.5v-15h15v59.9h-15v-22.5h-7.5V494.4z"/>
	</g>
	<g>
		<path class="st22" d="M-4664.2,518.5h-37.4v-59.9h37.4v7.5h7.5v15h-7.5v15h7.5v15h-7.5V518.5z M-4686.7,481.1h15v-7.5h-15V481.1z
			 M-4686.7,503.6h15v-7.5h-15V503.6z"/>
		<path class="st22" d="M-4634.2,518.5h-15v-52.4h7.5v-7.5h30v7.5h7.5v52.4h-15v-22.5h-15V518.5z M-4619.3,481.1v-7.5h-15v7.5
			H-4619.3z"/>
		<path class="st22" d="M-4589.3,511.1h-7.5v-52.4h15v44.9h30v15h-37.4V511.1z"/>
		<path class="st22" d="M-4536.9,511.1h-7.5v-52.4h15v44.9h30v15h-37.4V511.1z"/>
		<path class="st22" d="M-4491.9,466.1h7.5v-7.5h30v7.5h7.5v44.9h-7.5v7.5h-30v-7.5h-7.5V466.1z M-4477,503.6h15v-30h-15V503.6z"/>
		<path class="st22" d="M-4439.5,466.1h7.5v-7.5h30v7.5h7.5v44.9h-7.5v7.5h-30v-7.5h-7.5V466.1z M-4424.5,503.6h15v-30h-15V503.6z"
			/>
		<path class="st22" d="M-4364.6,488.6h-7.5v30h-15v-59.9h15v7.5h7.5v7.5h7.5v-15h15v59.9h-15v-22.5h-7.5V488.6z"/>
	</g>
</g>
<g>
	<path class="st0" d="M-4172.6,671.1h20.7v6.9h-20.7V671.1z"/>
	<path class="st0" d="M-4117.3,688.4h-6.9v-27.6h17.3v3.5h3.5v10.4h-3.5v3.5h-10.4V688.4z M-4117.3,671.1h6.9v-3.5h-6.9V671.1z"/>
	<path class="st0" d="M-4089.6,678h-3.5v10.4h-6.9v-27.6h17.3v3.5h3.5v10.4h-3.5v3.5h3.5v10.4h-6.9v-6.9h-3.5V678z M-4093.1,671.1
		h6.9v-3.5h-6.9V671.1z"/>
	<path class="st0" d="M-4072.3,684.9h-3.5v-20.7h3.5v-3.5h17.3v6.9h-13.8v3.5h6.9v6.9h-6.9v3.5h13.8v6.9h-17.3V684.9z"/>
	<path class="st0" d="M-4051.6,664.2h3.5v-3.5h17.3v6.9h-13.8v3.5h10.4v3.5h3.5v10.4h-3.5v3.5h-17.3v-6.9h13.8V678h-10.4v-3.5h-3.5
		V664.2z"/>
	<path class="st0" d="M-4027.4,664.2h3.5v-3.5h17.3v6.9h-13.8v3.5h10.4v3.5h3.5v10.4h-3.5v3.5h-17.3v-6.9h13.8V678h-10.4v-3.5h-3.5
		V664.2z"/>
	<path class="st0" d="M-3972.1,688.4h-6.9v-24.2h3.5v-3.5h13.8v3.5h3.5v24.2h-6.9V678h-6.9V688.4z M-3965.2,671.1v-3.5h-6.9v3.5
		H-3965.2z"/>
	<path class="st0" d="M-3944.5,674.6h-3.5v13.8h-6.9v-27.6h6.9v3.5h3.5v3.5h3.5v-6.9h6.9v27.6h-6.9V678h-3.5V674.6z"/>
	<path class="st0" d="M-3930.6,660.7h6.9v10.4h6.9v-10.4h6.9v13.8h-3.5v3.5h-3.5v10.4h-6.9V678h-3.5v-3.5h-3.5V660.7z"/>
	<path class="st0" d="M-3875.4,688.4h-6.9v-27.6h6.9v6.9h3.5v-3.5h3.5v-3.5h6.9v6.9h-3.5v3.5h-3.5v6.9h3.5v3.5h3.5v6.9h-6.9v-3.5
		h-3.5v-3.5h-3.5V688.4z"/>
	<path class="st0" d="M-3854.6,684.9h-3.5v-20.7h3.5v-3.5h17.3v6.9h-13.8v3.5h6.9v6.9h-6.9v3.5h13.8v6.9h-17.3V684.9z"/>
	<path class="st0" d="M-3833.9,660.7h6.9v10.4h6.9v-10.4h6.9v13.8h-3.5v3.5h-3.5v10.4h-6.9V678h-3.5v-3.5h-3.5V660.7z"/>
	<path class="st0" d="M-3785.5,660.7h20.7v6.9h-6.9v20.7h-6.9v-20.7h-6.9V660.7z"/>
	<path class="st0" d="M-3761.3,664.2h3.5v-3.5h13.8v3.5h3.5v20.7h-3.5v3.5h-13.8v-3.5h-3.5V664.2z M-3754.4,681.5h6.9v-13.8h-6.9
		V681.5z"/>
	<path class="st0" d="M-3706,688.4h-6.9v-27.6h17.3v3.5h3.5v10.4h-3.5v3.5h-10.4V688.4z M-3706,671.1h6.9v-3.5h-6.9V671.1z"/>
	<path class="st0" d="M-3685.3,684.9h-3.5v-24.2h6.9v20.7h13.8v6.9h-17.3V684.9z"/>
	<path class="st0" d="M-3657.6,688.4h-6.9v-24.2h3.5v-3.5h13.8v3.5h3.5v24.2h-6.9V678h-6.9V688.4z M-3650.7,671.1v-3.5h-6.9v3.5
		H-3650.7z"/>
	<path class="st0" d="M-3640.3,660.7h6.9v10.4h6.9v-10.4h6.9v13.8h-3.5v3.5h-3.5v10.4h-6.9V678h-3.5v-3.5h-3.5V660.7z"/>
	<path class="st0" d="M-3592,671.1h20.7v6.9h-20.7V671.1z"/>
</g>
<g>
	<path class="st30" d="M-4173.4,665.2h20.7v6.9h-20.7V665.2z"/>
	<path class="st30" d="M-4118.1,682.5h-6.9v-27.6h17.3v3.5h3.5v10.4h-3.5v3.5h-10.4V682.5z M-4118.1,665.2h6.9v-3.5h-6.9V665.2z"/>
	<path class="st30" d="M-4090.5,672.1h-3.5v10.4h-6.9v-27.6h17.3v3.5h3.5v10.4h-3.5v3.5h3.5v10.4h-6.9v-6.9h-3.5V672.1z
		 M-4093.9,665.2h6.9v-3.5h-6.9V665.2z"/>
	<path class="st30" d="M-4073.2,679h-3.5v-20.7h3.5v-3.5h17.3v6.9h-13.8v3.5h6.9v6.9h-6.9v3.5h13.8v6.9h-17.3V679z"/>
	<path class="st30" d="M-4052.5,658.3h3.5v-3.5h17.3v6.9h-13.8v3.5h10.4v3.5h3.5V679h-3.5v3.5h-17.3v-6.9h13.8v-3.5h-10.4v-3.5h-3.5
		V658.3z"/>
	<path class="st30" d="M-4028.3,658.3h3.5v-3.5h17.3v6.9h-13.8v3.5h10.4v3.5h3.5V679h-3.5v3.5h-17.3v-6.9h13.8v-3.5h-10.4v-3.5h-3.5
		V658.3z"/>
	<path class="st30" d="M-3973,682.5h-6.9v-24.2h3.5v-3.5h13.8v3.5h3.5v24.2h-6.9v-10.4h-6.9V682.5z M-3966.1,665.2v-3.5h-6.9v3.5
		H-3966.1z"/>
	<path class="st30" d="M-3945.3,668.7h-3.5v13.8h-6.9v-27.6h6.9v3.5h3.5v3.5h3.5v-6.9h6.9v27.6h-6.9v-10.4h-3.5V668.7z"/>
	<path class="st30" d="M-3931.5,654.8h6.9v10.4h6.9v-10.4h6.9v13.8h-3.5v3.5h-3.5v10.4h-6.9v-10.4h-3.5v-3.5h-3.5V654.8z"/>
	<path class="st30" d="M-3876.2,682.5h-6.9v-27.6h6.9v6.9h3.5v-3.5h3.5v-3.5h6.9v6.9h-3.5v3.5h-3.5v6.9h3.5v3.5h3.5v6.9h-6.9V679
		h-3.5v-3.5h-3.5V682.5z"/>
	<path class="st30" d="M-3855.5,679h-3.5v-20.7h3.5v-3.5h17.3v6.9h-13.8v3.5h6.9v6.9h-6.9v3.5h13.8v6.9h-17.3V679z"/>
	<path class="st30" d="M-3834.7,654.8h6.9v10.4h6.9v-10.4h6.9v13.8h-3.5v3.5h-3.5v10.4h-6.9v-10.4h-3.5v-3.5h-3.5V654.8z"/>
	<path class="st30" d="M-3786.4,654.8h20.7v6.9h-6.9v20.7h-6.9v-20.7h-6.9V654.8z"/>
	<path class="st30" d="M-3762.2,658.3h3.5v-3.5h13.8v3.5h3.5V679h-3.5v3.5h-13.8V679h-3.5V658.3z M-3755.3,675.6h6.9v-13.8h-6.9
		V675.6z"/>
	<path class="st30" d="M-3706.9,682.5h-6.9v-27.6h17.3v3.5h3.5v10.4h-3.5v3.5h-10.4V682.5z M-3706.9,665.2h6.9v-3.5h-6.9V665.2z"/>
	<path class="st30" d="M-3686.1,679h-3.5v-24.2h6.9v20.7h13.8v6.9h-17.3V679z"/>
	<path class="st30" d="M-3658.5,682.5h-6.9v-24.2h3.5v-3.5h13.8v3.5h3.5v24.2h-6.9v-10.4h-6.9V682.5z M-3651.6,665.2v-3.5h-6.9v3.5
		H-3651.6z"/>
	<path class="st30" d="M-3641.2,654.8h6.9v10.4h6.9v-10.4h6.9v13.8h-3.5v3.5h-3.5v10.4h-6.9v-10.4h-3.5v-3.5h-3.5V654.8z"/>
	<path class="st30" d="M-3592.8,665.2h20.7v6.9h-20.7V665.2z"/>
</g>
<g>
	<path class="st4" d="M-4173.4,660.8h20.7v6.9h-20.7V660.8z"/>
	<path class="st4" d="M-4118.1,678.1h-6.9v-27.6h17.3v3.5h3.5v10.4h-3.5v3.5h-10.4V678.1z M-4118.1,660.8h6.9v-3.5h-6.9V660.8z"/>
	<path class="st4" d="M-4090.5,667.7h-3.5v10.4h-6.9v-27.6h17.3v3.5h3.5v10.4h-3.5v3.5h3.5v10.4h-6.9v-6.9h-3.5V667.7z
		 M-4093.9,660.8h6.9v-3.5h-6.9V660.8z"/>
	<path class="st4" d="M-4073.2,674.6h-3.5v-20.7h3.5v-3.5h17.3v6.9h-13.8v3.5h6.9v6.9h-6.9v3.5h13.8v6.9h-17.3V674.6z"/>
	<path class="st4" d="M-4052.5,653.9h3.5v-3.5h17.3v6.9h-13.8v3.5h10.4v3.5h3.5v10.4h-3.5v3.5h-17.3v-6.9h13.8v-3.5h-10.4v-3.5h-3.5
		V653.9z"/>
	<path class="st4" d="M-4028.3,653.9h3.5v-3.5h17.3v6.9h-13.8v3.5h10.4v3.5h3.5v10.4h-3.5v3.5h-17.3v-6.9h13.8v-3.5h-10.4v-3.5h-3.5
		V653.9z"/>
	<path class="st4" d="M-3973,678.1h-6.9v-24.2h3.5v-3.5h13.8v3.5h3.5v24.2h-6.9v-10.4h-6.9V678.1z M-3966.1,660.8v-3.5h-6.9v3.5
		H-3966.1z"/>
	<path class="st4" d="M-3945.3,664.2h-3.5v13.8h-6.9v-27.6h6.9v3.5h3.5v3.5h3.5v-6.9h6.9v27.6h-6.9v-10.4h-3.5V664.2z"/>
	<path class="st4" d="M-3931.5,650.4h6.9v10.4h6.9v-10.4h6.9v13.8h-3.5v3.5h-3.5v10.4h-6.9v-10.4h-3.5v-3.5h-3.5V650.4z"/>
	<path class="st4" d="M-3876.2,678.1h-6.9v-27.6h6.9v6.9h3.5v-3.5h3.5v-3.5h6.9v6.9h-3.5v3.5h-3.5v6.9h3.5v3.5h3.5v6.9h-6.9v-3.5
		h-3.5v-3.5h-3.5V678.1z"/>
	<path class="st4" d="M-3855.5,674.6h-3.5v-20.7h3.5v-3.5h17.3v6.9h-13.8v3.5h6.9v6.9h-6.9v3.5h13.8v6.9h-17.3V674.6z"/>
	<path class="st4" d="M-3834.7,650.4h6.9v10.4h6.9v-10.4h6.9v13.8h-3.5v3.5h-3.5v10.4h-6.9v-10.4h-3.5v-3.5h-3.5V650.4z"/>
	<path class="st4" d="M-3786.4,650.4h20.7v6.9h-6.9v20.7h-6.9v-20.7h-6.9V650.4z"/>
	<path class="st4" d="M-3762.2,653.9h3.5v-3.5h13.8v3.5h3.5v20.7h-3.5v3.5h-13.8v-3.5h-3.5V653.9z M-3755.3,671.2h6.9v-13.8h-6.9
		V671.2z"/>
	<path class="st4" d="M-3706.9,678.1h-6.9v-27.6h17.3v3.5h3.5v10.4h-3.5v3.5h-10.4V678.1z M-3706.9,660.8h6.9v-3.5h-6.9V660.8z"/>
	<path class="st4" d="M-3686.1,674.6h-3.5v-24.2h6.9v20.7h13.8v6.9h-17.3V674.6z"/>
	<path class="st4" d="M-3658.5,678.1h-6.9v-24.2h3.5v-3.5h13.8v3.5h3.5v24.2h-6.9v-10.4h-6.9V678.1z M-3651.6,660.8v-3.5h-6.9v3.5
		H-3651.6z"/>
	<path class="st4" d="M-3641.2,650.4h6.9v10.4h6.9v-10.4h6.9v13.8h-3.5v3.5h-3.5v10.4h-6.9v-10.4h-3.5v-3.5h-3.5V650.4z"/>
	<path class="st4" d="M-3592.8,660.8h20.7v6.9h-20.7V660.8z"/>
</g>
<path class="st31" d="M-1411.6-41.3h-2.2h-10.8h-38.7h-12.9h-1526.6h-12.9h-38.7h-12.9h-12.9v22.6v840.8v11.3v33.9v11.3v11.3h25.8
	h1578.2h12.9h38.7h10.8h2.2h12.9V-41.3H-1411.6z M-1424.5,15.2v818.2v11.3h-12.9V856h-12.9v11.3h-12.9h-1552.4h-12.9V856h-12.9
	v-11.3h-12.9v-11.3V15.2V3.9h12.9V-7.4h12.9v-11.3h12.9h204.3h135.5h1212.7h12.9v11.3h12.9V3.9h12.9V15.2z"/>
<polygon class="st32" points="-2691.6,-398.6 -2691.6,-407.3 -2701.5,-407.3 -3058.3,-407.3 -3058.3,-323.9 -2702.2,-323.9 
	-2702.2,-332.6 -2701.5,-332.6 -2691.6,-332.6 -2691.6,-339.6 -2691.6,-341.4 -2681.7,-341.4 -2681.7,-348.3 -2681.7,-398.6 "/>
<polygon class="st31" points="-2692.1,-407.3 -2692.1,-416 -2701.9,-416 -3069.3,-416 -3069.3,-409.1 -3069.3,-407.3 
	-3079.1,-407.3 -3079.1,-357 -3069.3,-357 -3069.3,-350 -3069.3,-350 -3069.3,-341.3 -3058.7,-341.3 -3058.7,-332.6 -2702.6,-332.6 
	-2702.6,-341.3 -2701.9,-341.3 -2692.1,-341.3 -2692.1,-348.2 -2692.1,-350 -2682.2,-350 -2682.2,-357 -2682.2,-407.3 "/>
<rect x="-3141.1" y="-191.2" class="st13" width="92.2" height="32.8"/>
<text transform="matrix(1 0 0 1 -3119.917 -173.0636)" class="st4" style="font-family:'EditUndoBRK'; font-size:31.5429px;">DMG</text>
<g>
	<g>
		<polygon class="st22" points="-2941.3,-156.8 -2686.6,-156.8 -2686.6,-174.8 -2941.3,-174.8 -2941.3,-174.7 -2941.3,-169.6 
			-2948.2,-169.6 -2948.2,-162 -2941.3,-162 -2941.3,-156.9 		"/>
	</g>
	<polygon class="st22" points="-2677.9,-169.7 -2677.9,-174.8 -2677.9,-174.8 -2733.6,-174.8 -2733.6,-156.8 -2677.9,-156.8 
		-2677.9,-156.9 -2677.9,-162 -2671,-162 -2671,-169.7 	"/>
</g>
<g class="st33">
	<polygon class="st34" points="-2297.7,56.3 -2297.7,-21.7 -2387.6,-21.7 -2387.6,-11.7 -2397.7,-11.7 -2397.7,46.2 -2387.6,46.2 
		-2387.6,56.3 	"/>
	<polygon class="st34" points="-2062.6,-12.7 -2062.6,-22.7 -2072.7,-22.7 -2154.7,-22.7 -2154.7,55.3 -2072.7,55.3 -2062.6,55.3 
		-2062.6,45.2 -2052.6,45.2 -2052.6,-12.7 	"/>
	<rect x="-2377.7" y="-12.7" class="st34" width="305" height="78"/>
</g>
<g>
	<polygon class="st31" points="-2287.7,56.3 -2287.7,-21.7 -2377.6,-21.7 -2377.6,-11.7 -2387.7,-11.7 -2387.7,46.2 -2377.6,46.2 
		-2377.6,56.3 	"/>
	<polygon class="st31" points="-2297.7,46.3 -2297.7,-31.7 -2387.6,-31.7 -2387.6,-21.7 -2397.7,-21.7 -2397.7,36.2 -2387.6,36.2 
		-2387.6,46.3 	"/>
	<polygon class="st31" points="-2072.6,-11.7 -2072.6,-21.7 -2082.7,-21.7 -2164.7,-21.7 -2164.7,56.3 -2082.7,56.3 -2072.6,56.3 
		-2072.6,46.2 -2062.6,46.2 -2062.6,-11.7 	"/>
	<polygon class="st31" points="-2062.6,-21.7 -2062.6,-31.7 -2072.7,-31.7 -2154.7,-31.7 -2154.7,46.3 -2072.7,46.3 -2062.6,46.3 
		-2062.6,36.2 -2052.6,36.2 -2052.6,-21.7 	"/>
	<rect x="-2287.7" y="-21.7" class="st31" width="123" height="78"/>
</g>
<g>
	<polygon class="st35" points="-2287.7,46.3 -2287.7,-31.7 -2377.6,-31.7 -2377.6,-21.7 -2387.7,-21.7 -2387.7,36.2 -2377.6,36.2 
		-2377.6,46.3 	"/>
	<polygon class="st35" points="-2072.6,-21.7 -2072.6,-31.7 -2082.7,-31.7 -2150.7,-31.7 -2150.7,46.3 -2082.7,46.3 -2072.6,46.3 
		-2072.6,36.2 -2062.6,36.2 -2062.6,-21.7 	"/>
</g>
<g class="st33">
	<polygon class="st34" points="-2564,-339.4 -2564,-409.3 -2644.6,-409.3 -2644.6,-400.3 -2653.7,-400.3 -2653.7,-348.4 
		-2644.6,-348.4 -2644.6,-339.4 	"/>
	<polygon class="st34" points="-2353.2,-401.2 -2353.2,-410.2 -2362.2,-410.2 -2435.7,-410.2 -2435.7,-340.3 -2362.2,-340.3 
		-2353.2,-340.3 -2353.2,-349.3 -2344.1,-349.3 -2344.1,-401.2 	"/>
	<rect x="-2635.7" y="-401.3" class="st34" width="273.6" height="70"/>
</g>
<g>
	<polygon class="st31" points="-2555,-339.4 -2555,-409.3 -2635.7,-409.3 -2635.7,-400.3 -2644.7,-400.3 -2644.7,-348.4 
		-2635.7,-348.4 -2635.7,-339.4 	"/>
	<polygon class="st31" points="-2564,-348.3 -2564,-418.3 -2644.6,-418.3 -2644.6,-409.3 -2653.7,-409.3 -2653.7,-357.4 
		-2644.6,-357.4 -2644.6,-348.3 	"/>
	<polygon class="st31" points="-2362.1,-400.3 -2362.1,-409.3 -2371.2,-409.3 -2444.7,-409.3 -2444.7,-339.4 -2371.2,-339.4 
		-2362.1,-339.4 -2362.1,-348.4 -2353.1,-348.4 -2353.1,-400.3 	"/>
	<polygon class="st31" points="-2353.2,-409.3 -2353.2,-418.3 -2362.2,-418.3 -2435.7,-418.3 -2435.7,-348.3 -2362.2,-348.3 
		-2353.2,-348.3 -2353.2,-357.4 -2344.1,-357.4 -2344.1,-409.3 	"/>
	<rect x="-2555" y="-409.3" class="st31" width="110.3" height="70"/>
</g>
<g>
	<polygon class="st35" points="-2555,-348.3 -2555,-418.3 -2635.7,-418.3 -2635.7,-409.3 -2644.7,-409.3 -2644.7,-357.4 
		-2635.7,-357.4 -2635.7,-348.3 	"/>
	<polygon class="st35" points="-2362.1,-409.3 -2362.1,-418.3 -2371.2,-418.3 -2432.1,-418.3 -2432.1,-348.3 -2371.2,-348.3 
		-2362.1,-348.3 -2362.1,-357.4 -2353.1,-357.4 -2353.1,-409.3 	"/>
</g>
<rect x="-2302.7" y="-31.7" class="st35" width="169" height="78"/>
<rect x="-2568.5" y="-418.3" class="st35" width="151.6" height="70"/>
<g>
	<rect x="-2307.7" y="0.5" class="st13" width="179" height="81.8"/>
	<text transform="matrix(1 0 0 1 -2285.5603 28.1594)" class="st4" style="font-family:'EditUndoBRK'; font-size:48px;">124 KM</text>
</g>
<g>
	<rect x="-1422.1" y="-21.7" class="st32" width="8" height="2"/>
	<polygon class="st32" points="-1503.1,-21.7 -1503.1,-11.7 -1513.1,-11.7 -1513.1,46.2 -1503.2,46.2 -1503.2,56.2 -1503.1,56.2 
		-1503.1,56.3 -1493.2,56.3 -1493.2,66.3 -1438.1,66.3 -1438.1,-21.7 	"/>
</g>
<polygon class="st31" points="-1413.1,-21.7 -1413.1,-31.7 -1503,-31.7 -1503,-21.7 -1513.1,-21.7 -1513.1,36.2 -1503.1,36.2 
	-1503.1,46.2 -1503,46.2 -1503,46.3 -1493,46.3 -1493,56.3 -1403.1,56.3 -1403.1,-21.7 "/>
<g>
	<g>
		<g>
			<polygon class="st2" points="-1443,-10.2 -1448.3,-10.2 -1480.8,-10.2 -1480.8,-4.9 -1486.2,-4.9 -1486.2,32.9 -1480.8,32.9 
				-1480.8,38.3 -1448.3,38.3 -1443,38.3 -1443,32.9 -1437.7,32.9 -1437.7,-4.9 -1443,-4.9 			"/>
			<polygon class="st3" points="-1442.7,-15.9 -1448.1,-15.9 -1480.8,-15.9 -1480.8,-10.6 -1486.2,-10.6 -1486.2,27.5 -1480.8,27.5 
				-1480.8,32.9 -1448.1,32.9 -1442.7,32.9 -1442.7,27.5 -1437.4,27.5 -1437.4,-10.6 -1442.7,-10.6 			"/>
		</g>
		<g>
			<rect x="-1473.3" y="13.1" class="st4" width="24.2" height="4.8"/>
			<rect x="-1473.3" y="2" class="st4" width="24.2" height="4.8"/>
		</g>
	</g>
	<g class="st33">
		<polygon class="st36" points="-1480.8,38.4 -1480.8,43.4 -1475.4,43.4 -1442.7,43.4 -1442.7,38.4 -1475.4,38.4 		"/>
		<rect x="-1486.2" y="33.1" class="st36" width="5.4" height="5"/>
		<rect x="-1442.7" y="33.1" class="st36" width="5.4" height="5"/>
	</g>
</g>
<g>
	<g>
		<g>
			<polygon class="st2" points="-2089.5,-399.7 -2093.7,-399.7 -2119,-399.7 -2119,-395.6 -2123.2,-395.6 -2123.2,-366.1 
				-2119,-366.1 -2119,-361.9 -2093.7,-361.9 -2089.5,-361.9 -2089.5,-366.1 -2085.3,-366.1 -2085.3,-395.6 -2089.5,-395.6 			"/>
			<polygon class="st3" points="-2089.3,-404.2 -2093.5,-404.2 -2119,-404.2 -2119,-400 -2123.2,-400 -2123.2,-370.3 -2119,-370.3 
				-2119,-366.1 -2093.5,-366.1 -2089.3,-366.1 -2089.3,-370.3 -2085.1,-370.3 -2085.1,-400 -2089.3,-400 			"/>
		</g>
		<g>
			
				<rect x="-2118.4" y="-386.9" transform="matrix(-1.836970e-16 1 -1 -1.836970e-16 -2493.9763 1724.0457)" class="st4" width="18.9" height="3.8"/>
			
				<rect x="-2107.7" y="-386.9" transform="matrix(-1.836970e-16 1 -1 -1.836970e-16 -2483.2737 1713.3431)" class="st4" width="18.9" height="3.8"/>
		</g>
	</g>
	<g class="st33">
		<polygon class="st36" points="-2119,-361.8 -2119,-357.9 -2114.8,-357.9 -2089.3,-357.9 -2089.3,-361.8 -2114.8,-361.8 		"/>
		<rect x="-2123.2" y="-366" class="st36" width="4.2" height="3.9"/>
		<rect x="-2089.3" y="-366" class="st36" width="4.2" height="3.9"/>
	</g>
</g>
<polygon class="st22" points="-2914.6,-274.4 -2914.6,-278.2 -2924.2,-278.2 -2924.6,-278.2 -2933.9,-278.2 -2934.3,-278.2 
	-2943.5,-278.2 -2943.9,-278.2 -2953.5,-278.2 -2953.5,-274.5 -2958.3,-274.5 -2958.3,-269 -2953.5,-269 -2953.5,-265.3 
	-2953.3,-265.3 -2949.1,-265.3 -2948.2,-265.3 -2944,-265.3 -2943.9,-265.3 -2943.6,-265.3 -2943.5,-265.3 -2939.4,-265.3 
	-2938.6,-265.3 -2934.4,-265.3 -2934.3,-265.3 -2934,-265.3 -2933.9,-265.3 -2929.8,-265.3 -2929,-265.3 -2924.8,-265.3 
	-2924.6,-265.3 -2924.4,-265.3 -2924.2,-265.3 -2920.2,-265.3 -2919.3,-265.3 -2915.1,-265.3 -2914.6,-265.3 -2914.6,-269 
	-2910.1,-269 -2910.1,-274.4 "/>
<polygon class="st22" points="-2907.9,-511.3 -2907.9,-515.1 -2917.5,-515.1 -2917.9,-515.1 -2927.2,-515.1 -2927.5,-515.1 
	-2936.8,-515.1 -2937.2,-515.1 -2946.8,-515.1 -2946.8,-511.3 -2951.6,-511.3 -2951.6,-505.9 -2946.8,-505.9 -2946.8,-502.2 
	-2946.6,-502.2 -2942.4,-502.2 -2941.5,-502.2 -2937.3,-502.2 -2937.2,-502.2 -2936.9,-502.2 -2936.8,-502.2 -2932.7,-502.2 
	-2931.9,-502.2 -2927.7,-502.2 -2927.5,-502.2 -2927.3,-502.2 -2927.2,-502.2 -2923.1,-502.2 -2922.3,-502.2 -2918.1,-502.2 
	-2917.9,-502.2 -2917.7,-502.2 -2917.5,-502.2 -2913.5,-502.2 -2912.6,-502.2 -2908.4,-502.2 -2907.9,-502.2 -2907.9,-505.8 
	-2903.4,-505.8 -2903.4,-511.3 "/>
<polygon class="st37" points="-2754,-511.3 -2754,-515.1 -2763.7,-515.1 -2764,-515.1 -2773.3,-515.1 -2773.7,-515.1 
	-2782.9,-515.1 -2783.3,-515.1 -2792.3,-515.1 -2792.9,-515.1 -2802,-515.1 -2802.3,-515.1 -2811.6,-515.1 -2812,-515.1 
	-2821.2,-515.1 -2821.6,-515.1 -2830.8,-515.1 -2831.2,-515.1 -2840.5,-515.1 -2840.9,-515.1 -2850.1,-515.1 -2850.5,-515.1 
	-2859.7,-515.1 -2860.1,-515.1 -2869.4,-515.1 -2869.7,-515.1 -2879,-515.1 -2879.4,-515.1 -2888.6,-515.1 -2889,-515.1 
	-2898.3,-515.1 -2898.6,-515.1 -2907.9,-515.1 -2908.3,-515.1 -2917.5,-515.1 -2917.9,-515.1 -2927.2,-515.1 -2927.5,-515.1 
	-2936.8,-515.1 -2937.2,-515.1 -2946.8,-515.1 -2946.8,-511.3 -2951.6,-511.3 -2951.6,-505.9 -2946.8,-505.9 -2946.8,-502.2 
	-2946.6,-502.2 -2942.4,-502.2 -2941.5,-502.2 -2937.3,-502.2 -2937.2,-502.2 -2936.9,-502.2 -2936.8,-502.2 -2932.7,-502.2 
	-2931.9,-502.2 -2927.7,-502.2 -2927.5,-502.2 -2927.3,-502.2 -2927.2,-502.2 -2923.1,-502.2 -2922.3,-502.2 -2918.1,-502.2 
	-2917.9,-502.2 -2917.7,-502.2 -2917.5,-502.2 -2913.5,-502.2 -2912.6,-502.2 -2908.4,-502.2 -2908.3,-502.2 -2908,-502.2 
	-2907.9,-502.2 -2903.8,-502.2 -2903,-502.2 -2898.8,-502.2 -2898.6,-502.2 -2898.4,-502.2 -2898.3,-502.2 -2894.2,-502.2 
	-2893.4,-502.2 -2889.2,-502.2 -2889,-502.2 -2888.8,-502.2 -2888.6,-502.2 -2884.6,-502.2 -2883.7,-502.2 -2879.5,-502.2 
	-2879.4,-502.2 -2879.1,-502.2 -2879,-502.2 -2874.9,-502.2 -2874.1,-502.2 -2869.9,-502.2 -2869.7,-502.2 -2869.5,-502.2 
	-2869.4,-502.2 -2865.3,-502.2 -2864.5,-502.2 -2860.3,-502.2 -2860.1,-502.2 -2859.9,-502.2 -2859.7,-502.2 -2855.7,-502.2 
	-2854.8,-502.2 -2850.6,-502.2 -2850.5,-502.2 -2850.2,-502.2 -2850.1,-502.2 -2846,-502.2 -2845.2,-502.2 -2841,-502.2 
	-2840.9,-502.2 -2840.6,-502.2 -2840.5,-502.2 -2836.4,-502.2 -2835.6,-502.2 -2831.4,-502.2 -2831.2,-502.2 -2831,-502.2 
	-2830.8,-502.2 -2826.8,-502.2 -2826,-502.2 -2821.7,-502.2 -2821.6,-502.2 -2821.3,-502.2 -2821.2,-502.2 -2817.1,-502.2 
	-2816.3,-502.2 -2812.1,-502.2 -2812,-502.2 -2811.7,-502.2 -2811.6,-502.2 -2807.5,-502.2 -2806.7,-502.2 -2802.5,-502.2 
	-2802.3,-502.2 -2802.1,-502.2 -2802,-502.2 -2797.9,-502.2 -2797.1,-502.2 -2792.9,-502.2 -2792.9,-502.2 -2792.7,-502.2 
	-2792.3,-502.2 -2788.5,-502.2 -2787.7,-502.2 -2783.4,-502.2 -2783.3,-502.2 -2783,-502.2 -2782.9,-502.2 -2778.8,-502.2 
	-2778,-502.2 -2773.8,-502.2 -2773.7,-502.2 -2773.4,-502.2 -2773.3,-502.2 -2769.2,-502.2 -2768.4,-502.2 -2764.2,-502.2 
	-2764,-502.2 -2763.8,-502.2 -2763.7,-502.2 -2759.6,-502.2 -2758.8,-502.2 -2754.6,-502.2 -2754,-502.2 -2754,-505.8 
	-2749.5,-505.8 -2749.5,-511.3 "/>
<g>
	<polygon class="st31" points="-1203,867.3 -1197.7,867.3 -1184.8,867.3 -1184.8,856 -1171.9,856 -1171.9,844.7 -1159,844.7 
		-1159,833.4 -1159,820 -1133.2,820 -1133.2,822.1 -1133.2,833.4 -1133.2,867.3 -1133.2,878.5 -1133.2,889.8 -1159,889.8 
		-1203,889.8 	"/>
</g>
<g>
	<polygon class="st31" points="-1136.8,820.1 -1136.8,825.4 -1136.8,838.3 -1125.5,838.3 -1125.5,851.2 -1114.2,851.2 
		-1114.2,864.1 -1102.9,864.1 -1089.6,864.1 -1089.6,889.9 -1091.6,889.9 -1102.9,889.9 -1136.8,889.9 -1148.1,889.9 -1159.4,889.9 
		-1159.4,864.1 -1159.4,820.1 	"/>
</g>
<g>
	<polygon class="st31" points="-1189,867.2 -1189,872.6 -1189,885.5 -1177.7,885.5 -1177.7,898.4 -1166.4,898.4 -1166.4,911.3 
		-1155.1,911.3 -1141.7,911.3 -1141.7,937.1 -1143.8,937.1 -1155.1,937.1 -1189,937.1 -1200.3,937.1 -1211.6,937.1 -1211.6,911.3 
		-1211.6,867.2 	"/>
</g>
<g>
	<polygon class="st31" points="-1270.2,867.3 -1275.5,867.3 -1288.4,867.3 -1288.4,856 -1301.3,856 -1301.3,844.7 -1314.2,844.7 
		-1314.2,833.4 -1314.2,820 -1340,820 -1340,822.1 -1340,833.4 -1340,867.3 -1340,878.5 -1340,889.8 -1314.2,889.8 -1270.2,889.8 	
		"/>
</g>
<g>
	<polygon class="st31" points="-1214.8,914.5 -1220.1,914.5 -1233,914.5 -1233,903.2 -1245.9,903.2 -1245.9,891.9 -1258.8,891.9 
		-1258.8,880.6 -1258.8,867.2 -1284.6,867.2 -1284.6,869.3 -1284.6,880.6 -1284.6,914.5 -1284.6,925.8 -1284.6,937.1 -1258.8,937.1 
		-1214.8,937.1 	"/>
</g>
<g>
	<polygon class="st31" points="-1337.3,830.9 -1337.3,836.2 -1337.3,849.1 -1348.6,849.1 -1348.6,862 -1359.8,862 -1359.8,874.9 
		-1371.1,874.9 -1384.5,874.9 -1384.5,900.7 -1382.4,900.7 -1371.1,900.7 -1337.3,900.7 -1326,900.7 -1314.7,900.7 -1314.7,874.9 
		-1314.7,830.9 	"/>
</g>
<polygon class="st32" points="-2163.3,-391.4 -2163.3,-400.4 -2163.4,-400.4 -2163.4,-400.4 -2172.3,-400.4 -2172.3,-409.4 
	-2200.2,-409.4 -2207.4,-409.4 -2221.8,-409.4 -2280.1,-409.4 -2280.1,-400.4 -2289.1,-400.4 -2289.1,-348.4 -2280.2,-348.4 
	-2280.2,-339.5 -2280.1,-339.5 -2280.1,-339.4 -2271.2,-339.4 -2271.2,-330.4 -2221.8,-330.4 -2220.9,-330.4 -2220.9,-339.4 
	-2199.2,-339.4 -2199.2,-330.4 -2163.4,-330.4 -2163.4,-339.5 -2154.5,-339.5 -2154.5,-391.4 "/>
<polygon class="st31" points="-2199.3,-409.4 -2199.3,-418.4 -2280,-418.4 -2280,-409.3 -2289.1,-409.3 -2289.1,-357.4 
	-2280.1,-357.4 -2280.1,-348.4 -2280,-348.4 -2280,-348.4 -2271.1,-348.4 -2271.1,-339.4 -2190.4,-339.4 -2190.4,-409.4 "/>
<g>
	<polygon class="st7" points="-76.6,25.3 -93.1,25.3 -93.1,17.3 -109.7,17.3 -109.7,8.6 -821.7,8.6 -821.7,17.3 -838.2,17.3 
		-838.2,25.3 -854.7,25.3 -854.7,493.2 -838.2,493.2 -838.2,501.1 -821.7,501.1 -821.7,509.9 -109.7,509.9 -109.7,501.1 
		-93.1,501.1 -93.1,493.2 -76.6,493.2 	"/>
	<polygon class="st8" points="-76.6,17 -93.1,17 -93.1,9.1 -109.7,9.1 -109.7,0.3 -821.7,0.3 -821.7,9.1 -838.2,9.1 -838.2,17 
		-854.7,17 -854.7,485 -838.2,485 -838.2,492.9 -821.7,492.9 -821.7,501.7 -109.7,501.7 -109.7,492.9 -93.1,492.9 -93.1,485 
		-76.6,485 	"/>
</g>
<g>
	<g>
		<polygon class="st20" points="0,123.5 0,300.5 13.5,300.5 13.5,310.8 27,310.8 27,322.1 608.6,322.1 608.6,310.8 622.1,310.8 
			622.1,300.5 635.6,300.5 635.6,123.5 		"/>
		<polygon class="st20" points="635.6,123.5 635.6,21.6 622.1,21.6 622.1,11.3 608.6,11.3 608.6,0 27,0 27,11.3 13.5,11.3 
			13.5,21.6 0,21.6 0,123.5 		"/>
	</g>
	<g>
		<polygon class="st21" points="13.5,21.7 27,21.7 27,11.3 13.5,11.3 13.5,21.6 0,21.6 0,32 13.5,32 		"/>
		<rect x="27" class="st21" width="581.6" height="10.4"/>
		<polygon class="st21" points="622.1,21.6 622.1,11.3 608.6,11.3 608.6,21.7 622.1,21.7 622.1,32 635.6,32 635.6,21.6 		"/>
	</g>
</g>
<g>
	<polygon class="st2" points="-582.2,558.4 -589.1,558.4 -847.8,558.4 -847.8,565.3 -854.7,565.3 -854.7,605.3 -847.8,605.3 
		-847.8,612.2 -589.1,612.2 -582.2,612.2 -582.2,605.3 -575.2,605.3 -575.2,565.3 -582.2,565.3 	"/>
	<polygon class="st3" points="-582.2,551.5 -589.1,551.5 -847.8,551.5 -847.8,558.4 -854.7,558.4 -854.7,598.4 -847.8,598.4 
		-847.8,605.3 -589.1,605.3 -582.2,605.3 -582.2,598.4 -575.2,598.4 -575.2,558.4 -582.2,558.4 	"/>
	<rect x="-854" y="567.5" class="st13" width="278.7" height="56.4"/>
	<text transform="matrix(1 0 0 1 -816.0033 586.5856)" class="st4" style="font-family:'EditUndoBRK'; font-size:33.1169px;">BACK TO MENU</text>
</g>
<g>
	<polygon class="st2" points="-83.6,556 -90.5,556 -349.2,556 -349.2,562.9 -356.1,562.9 -356.1,602.8 -349.2,602.8 -349.2,609.8 
		-90.5,609.8 -83.6,609.8 -83.6,602.8 -76.6,602.8 -76.6,562.9 -83.6,562.9 	"/>
	<polygon class="st3" points="-83.6,549.1 -90.5,549.1 -349.2,549.1 -349.2,556 -356.1,556 -356.1,595.9 -349.2,595.9 -349.2,602.9 
		-90.5,602.9 -83.6,602.9 -83.6,595.9 -76.6,595.9 -76.6,556 -83.6,556 	"/>
	<rect x="-355.4" y="565.1" class="st13" width="278.7" height="56.4"/>
	<text transform="matrix(1 0 0 1 -291.1573 584.1708)" class="st4" style="font-family:'EditUndoBRK'; font-size:33.1169px;">TRY AGAIN</text>
</g>
</svg>
