<!-- Generator: Adobe Illustrator 19.2.1, SVG Export Plug-In  -->
<svg version="1.1"
	 xmlns="http://www.w3.org/2000/svg" xmlns:xlink="http://www.w3.org/1999/xlink" xmlns:a="http://ns.adobe.com/AdobeSVGViewerExtensions/3.0/"
	 x="0px" y="0px" width="245.7px" height="148.6px" viewBox="0 0 245.7 148.6" style="enable-background:new 0 0 245.7 148.6;"
	 xml:space="preserve">
<style type="text/css">
	.st0{fill:#C6E0DE;}
	.st1{fill:#A7C6C3;}
</style>
<defs>
</defs>
<g>
	<g>
		<polygon class="st0" points="0,57 0,138.7 5.2,138.7 5.2,143.4 10.5,143.4 10.5,148.6 235.3,148.6 235.3,143.4 240.5,143.4
			240.5,138.7 245.7,138.7 245.7,57 		"/>
		<polygon class="st0" points="245.7,57 245.7,10 240.5,10 240.5,5.2 235.3,5.2 235.3,0 10.5,0 10.5,5.2 5.2,5.2 5.2,10 0,10 0,57
					"/>
	</g>
	<g>
		<polygon class="st1" points="5.2,10 10.5,10 10.5,5.2 5.2,5.2 5.2,10 0,10 0,14.8 5.2,14.8 		"/>
		<rect x="10.5" class="st1" width="224.8" height="4.8"/>
		<polygon class="st1" points="240.5,10 240.5,5.2 235.3,5.2 235.3,10 240.5,10 240.5,14.8 245.7,14.8 245.7,10 		"/>
	</g>
</g>
<g>
	<path d="M17.9,23.4h1.5v-1.5h7.5v3h-6v1.5h4.5v1.5h1.5v4.5h-1.5v1.5H18v-3h6v-1.5h-4.5v-1.5h-1.5V23.4z"/>
	<path d="M29.9,32.3h-1.5V21.9h3v8.9h6v3h-7.5L29.9,32.3L29.9,32.3z"/>
	<path d="M38.8,21.9h8.9v3h-3v6h3v3h-8.9v-3h3v-6h-3V21.9z"/>
	<path d="M55.2,33.8h-6V21.9h6v1.5h1.5v1.5h1.5v6h-1.5v1.5h-1.5V33.8z M53.8,24.9h-1.5v6h1.5v-1.5h1.5v-3h-1.5V24.9z"/>
	<path d="M61.2,32.3h-1.5v-8.9h1.5v-1.5h7.5v3h-6v1.5h3v3h-3v1.5h6v3h-7.5V32.3z"/>
	<path d="M80.6,21.9h8.9v3h-3v8.9h-3v-8.9h-3L80.6,21.9L80.6,21.9z"/>
	<path d="M91.1,23.4h1.5v-1.5h6v1.5h1.5v8.9h-1.5v1.5h-6v-1.5h-1.5V23.4z M94,30.8h3v-6h-3V30.8z"/>
	<path d="M112,21.9h8.9v3h-3v8.9h-3v-8.9h-3L112,21.9L112,21.9z"/>
	<path d="M125.4,33.8h-3V21.9h3v4.5h3v-4.5h3v11.9h-3v-4.5h-3V33.8z"/>
	<path d="M134.3,32.3h-1.5v-8.9h1.5v-1.5h7.5v3h-6v1.5h3v3h-3v1.5h6v3h-7.5V32.3z"/>
	<path d="M155.2,32.3h-1.5V21.9h3v8.9h6v3h-7.5L155.2,32.3L155.2,32.3z"/>
	<path d="M165.7,32.3h-1.5v-8.9h1.5v-1.5h7.5v3h-6v1.5h3v3h-3v1.5h6v3h-7.5V32.3z"/>
	<path d="M177.6,33.8h-3V23.4h1.5v-1.5h7.5v3h-6v1.5h3v3h-3L177.6,33.8L177.6,33.8z"/>
	<path d="M185.1,21.9h8.9v3h-3v8.9h-3v-8.9h-3L185.1,21.9L185.1,21.9z"/>
	<path d="M206,21.9h8.9v3h-3v8.9h-3v-8.9h-3V21.9z"/>
	<path d="M216.4,23.4h1.5v-1.5h6v1.5h1.5v8.9h-1.5v1.5h-6v-1.5h-1.5V23.4z M219.4,30.8h3v-6h-3V30.8z"/>
	<path d="M20.9,48.2h1.5v-1.5h7.5v3h-6v1.5h4.5v1.5H30v4.5h-1.5v1.5H21v-3h6v-1.5h-4.5v-1.5h-1.5L20.9,48.2L20.9,48.2z"/>
	<path d="M34.4,58.7h-3V46.8h3v4.5h3v-4.5h3v11.9h-3v-4.5h-3V58.7z"/>
	<path d="M41.8,48.2h1.5v-1.5h6v1.5h1.5v8.9h-1.5v1.5h-6v-1.5h-1.5V48.2z M44.8,55.7h3v-6h-3V55.7z"/>
	<path d="M52.3,48.2h1.5v-1.5h6v1.5h1.5v8.9h-1.5v1.5h-6v-1.5h-1.5V48.2z M55.2,55.7h3v-6h-3V55.7z"/>
	<path d="M62.7,46.8h8.9v3h-3v8.9h-3v-8.9h-3C62.7,49.7,62.7,46.8,62.7,46.8z"/>
	<path d="M83.6,46.8h3v4.5h3v-4.5h3v6h-1.5v1.5h-1.5v4.5h-3v-4.5h-1.5v-1.5h-1.5L83.6,46.8L83.6,46.8z"/>
	<path d="M94,48.2h1.5v-1.5h6v1.5h1.5v8.9h-1.5v1.5h-6v-1.5H94V48.2z M97,55.7h3v-6h-3V55.7z"/>
	<path d="M104.5,46.8h3v8.9h3v-8.9h3v10.4h-1.5v1.5h-6v-1.5h-1.5L104.5,46.8L104.5,46.8z"/>
	<path d="M119.4,54.2h-1.5v4.5h-3V46.8h7.5v1.5h1.5v4.5h-1.5v1.5h1.5v4.5h-3v-3h-1.5V54.2z M117.9,51.2h3v-1.5h-3V51.2z"/>
	<path d="M138.8,58.7h-3V48.2h1.5v-1.5h6v1.5h1.5v10.4h-3v-4.5h-3L138.8,58.7L138.8,58.7z M141.8,51.2v-1.5h-3v1.5H141.8z"/>
	<path d="M146.3,46.8h8.9v3h-3v6h3v3h-8.9v-3h3v-6h-3V46.8z"/>
	<path d="M161.2,54.2h-1.5v4.5h-3V46.8h7.5v1.5h1.5v4.5h-1.5v1.5h1.5v4.5h-3v-3h-1.5V54.2z M159.7,51.2h3v-1.5h-3V51.2z"/>
	<path d="M170.1,58.7h-3V46.8h7.5v1.5h1.5v4.5h-1.5v1.5h-4.5V58.7z M170.1,51.2h3v-1.5h-3V51.2z"/>
	<path d="M179.1,57.2h-1.5V46.8h3v8.9h6v3h-7.5L179.1,57.2L179.1,57.2z"/>
	<path d="M191,58.7h-3V48.2h1.5v-1.5h6v1.5h1.5v10.4h-3v-4.5h-3L191,58.7L191,58.7z M194,51.2v-1.5h-3v1.5H194z"/>
	<path d="M203,52.7h-1.5v6h-3V46.8h3v1.5h1.5v1.5h1.5v-3h3v11.9h-3v-4.5H203V52.7z"/>
	<path d="M210.5,57.2H209v-8.9h1.5v-1.5h7.5v3h-6v1.5h3v3h-3v1.5h6v3h-7.5V57.2z"/>
	<path d="M219.4,46.8h3v7.5h-3V46.8z M219.4,55.7h3v3h-3V55.7z"/>
</g>
<g>
	<rect x="89" y="105.4" width="5.2" height="5.2"/>
	<rect x="94.1" y="100.3" width="5.2" height="5.2"/>
	<rect x="99.3" y="95.1" width="5.2" height="5.2"/>
	<rect x="99.3" y="100.3" width="5.2" height="5.2"/>
	<rect x="99.3" y="105.4" width="5.2" height="5.2"/>
	<rect x="99.3" y="110.6" width="5.2" height="5.2"/>
	<rect x="99.3" y="115.8" width="5.2" height="5.2"/>
	<rect x="104.5" y="95.1" width="5.2" height="5.2"/>
	<rect x="104.5" y="89.9" width="5.2" height="5.2"/>
	<rect x="104.5" y="100.3" width="5.2" height="5.2"/>
	<rect x="104.5" y="105.4" width="5.2" height="5.2"/>
	<rect x="104.5" y="110.6" width="5.2" height="5.2"/>
	<rect x="104.5" y="115.8" width="5.2" height="5.2"/>
	<rect x="104.5" y="121" width="5.2" height="5.2"/>
	<rect x="109.7" y="95.1" width="5.2" height="5.2"/>
	<rect x="109.7" y="89.9" width="5.2" height="5.2"/>
	<rect x="109.7" y="84.7" width="5.2" height="5.2"/>
	<rect x="109.7" y="100.3" width="5.2" height="5.2"/>
	<rect x="109.7" y="105.4" width="5.2" height="5.2"/>
	<rect x="114.9" y="105.4" width="5.2" height="5.2"/>
	<rect x="120" y="105.4" width="5.2" height="5.2"/>
	<rect x="125.2" y="105.4" width="5.2" height="5.2"/>
	<rect x="130.4" y="105.4" width="5.2" height="5.2"/>
	<rect x="135.6" y="105.4" width="5.2" height="5.2"/>
	<rect x="140.8" y="105.4" width="5.2" height="5.2"/>
	<rect x="114.9" y="100.3" width="5.2" height="5.2"/>
	<rect x="120" y="100.3" width="5.2" height="5.2"/>
	<rect x="125.2" y="100.3" width="5.2" height="5.2"/>
	<rect x="130.4" y="100.3" width="5.2" height="5.2"/>
	<rect x="135.6" y="100.3" width="5.2" height="5.2"/>
	<rect x="140.8" y="100.3" width="5.2" height="5.2"/>
	<rect x="146" y="105.4" width="5.2" height="5.2"/>
	<rect x="114.9" y="110.6" width="5.2" height="5.2"/>
	<rect x="120" y="110.6" width="5.2" height="5.2"/>
	<rect x="125.2" y="110.6" width="5.2" height="5.2"/>
	<rect x="130.4" y="110.6" width="5.2" height="5.2"/>
	<rect x="135.6" y="110.6" width="5.2" height="5.2"/>
	<rect x="140.8" y="110.6" width="5.2" height="5.2"/>
	<rect x="146" y="110.6" width="5.2" height="5.2"/>
	<rect x="146" y="100.3" width="5.2" height="5.2"/>
	<rect x="109.7" y="110.6" width="5.2" height="5.2"/>
	<rect x="109.7" y="115.8" width="5.2" height="5.2"/>
	<rect x="109.7" y="121" width="5.2" height="5.2"/>
	<rect x="109.7" y="126.2" width="5.2" height="5.2"/>
	<rect x="94.1" y="105.4" width="5.2" height="5.2"/>
	<rect x="94.1" y="110.6" width="5.2" height="5.2"/>
</g>
</svg>
