<?xml version="1.0" encoding="utf-8"?>
<!-- Generator: Adobe Illustrator 22.0.1, SVG Export Plug-In . SVG Version: 6.00 Build 0)  -->
<svg version="1.1" id="Layer_1" xmlns="http://www.w3.org/2000/svg" xmlns:xlink="http://www.w3.org/1999/xlink" x="0px" y="0px"
	 width="279.5px" height="60.9px" viewBox="0 0 279.5 60.9" style="enable-background:new 0 0 279.5 60.9;" xml:space="preserve">
<style type="text/css">
	.st0{fill:#5895B7;}
	.st1{opacity:0.8;}
	.st2{fill:#C17620;}
	.st3{fill:#F4C24A;}
	.st4{fill:#FFFFFF;}
	.st5{fill:#2A6FBA;}
	.st6{fill:#4ABAEF;}
	.st7{fill:#95C9C8;}
	.st8{fill:#DDEFEE;}
	.st9{fill:#1B8E6F;}
	.st10{fill:#3CEA8A;}
	.st11{opacity:0.4;fill:#666666;}
	.st12{fill:#33BC6E;}
	.st13{fill:none;}
	.st14{fill:#7149A4;}
	.st15{fill:#BD86E0;}
	.st16{opacity:0.4;fill:#666666;stroke:#666666;stroke-width:4;stroke-linejoin:bevel;stroke-miterlimit:10;}
	.st17{fill:#F2F2F2;}
	.st18{fill:#E6E6E6;}
	.st19{fill:none;stroke:#000000;stroke-width:4;stroke-linejoin:bevel;stroke-miterlimit:10;}
	.st20{fill:#C6E0DE;}
	.st21{fill:#A7C6C3;}
	.st22{fill:#EE3D53;}
	.st23{fill:none;stroke:#000000;stroke-width:2;stroke-miterlimit:10;}
	.st24{fill:#A17559;}
	.st25{fill:#910E46;}
	.st26{fill:#238D6F;}
	.st27{fill:#704CA2;}
	.st28{fill:#47E88D;}
	.st29{fill:#BC88DE;}
	.st30{fill:#CCCCCC;}
	.st31{fill:#5B2616;}
	.st32{opacity:0.38;fill:#2D3D3E;}
	.st33{opacity:0.38;}
	.st34{fill:#2D3D3E;}
	.st35{fill:#3F180F;}
	.st36{fill:#1A1A1A;}
	.st37{fill:#38140C;}
	.st38{font-family:'EditUndoBRK';}
	.st39{font-size:33.1169px;}
</style>
<g>
	<rect x="-3672.1" y="1240.9" class="st0" width="484" height="82"/>
	<rect x="-3220.1" y="1314.9" class="st0" width="107" height="30"/>
	<g class="st1">
		<g>
			<polygon class="st0" points="-3656.1,1260.9 -3656.1,1342.9 -3752.1,1342.9 -3752.1,1331.9 -3740.1,1331.9 -3740.1,1319.9 
				-3728.1,1319.9 -3728.1,1307.9 -3716.1,1307.9 -3716.1,1295.9 -3728.1,1295.9 -3728.1,1283.9 -3740.1,1283.9 -3740.1,1271.9 
				-3752.1,1271.9 -3752.1,1260.9 			"/>
		</g>
		<polygon class="st0" points="-3670.1,1318.9 -3656.1,1341.9 -3656.2,1318.9 		"/>
	</g>
	<g>
		<g>
			<polygon class="st2" points="-3209.1,1252.9 -3209.1,1334.9 -3113.1,1334.9 -3113.1,1323.9 -3125.1,1323.9 -3125.1,1311.9 
				-3137.1,1311.9 -3137.1,1299.9 -3149.1,1299.9 -3149.1,1287.9 -3137.1,1287.9 -3137.1,1275.9 -3125.1,1275.9 -3125.1,1263.9 
				-3113.1,1263.9 -3113.1,1252.9 			"/>
			<polygon class="st3" points="-3209.1,1241.9 -3209.1,1323.9 -3113.1,1323.9 -3113.1,1312.9 -3125.1,1312.9 -3125.1,1300.9 
				-3137.1,1300.9 -3137.1,1288.9 -3149.1,1288.9 -3149.1,1276.9 -3137.1,1276.9 -3137.1,1264.9 -3125.1,1264.9 -3125.1,1252.9 
				-3113.1,1252.9 -3113.1,1241.9 			"/>
		</g>
		<polygon class="st2" points="-3195.1,1310.9 -3209.1,1333.9 -3209.1,1310.9 		"/>
		<g>
			<g>
				<polygon class="st2" points="-3665.1,1252.9 -3665.1,1334.9 -3761.1,1334.9 -3761.1,1323.9 -3749.1,1323.9 -3749.1,1311.9 
					-3737.1,1311.9 -3737.1,1299.9 -3725.1,1299.9 -3725.1,1287.9 -3737.1,1287.9 -3737.1,1275.9 -3749.1,1275.9 -3749.1,1263.9 
					-3761.1,1263.9 -3761.1,1252.9 				"/>
				<polygon class="st3" points="-3665.1,1241.9 -3665.1,1323.9 -3761.1,1323.9 -3761.1,1312.9 -3749.1,1312.9 -3749.1,1300.9 
					-3737.1,1300.9 -3737.1,1288.9 -3725.1,1288.9 -3725.1,1276.9 -3737.1,1276.9 -3737.1,1264.9 -3749.1,1264.9 -3749.1,1252.9 
					-3761.1,1252.9 -3761.1,1241.9 				"/>
			</g>
			<polygon class="st2" points="-3679.1,1310.9 -3665.1,1333.9 -3665.2,1310.9 			"/>
		</g>
		<g>
			<rect x="-3679.1" y="1228.9" class="st2" width="484" height="82"/>
			<rect x="-3679.1" y="1216.9" class="st3" width="484" height="82"/>
		</g>
	</g>
	<g>
		<path class="st4" d="M-3608.5,1276.7h-8.6v-34.6h8.6v13h8.6v-13h8.6v34.6h-8.6v-13h-8.6V1276.7z"/>
		<path class="st4" d="M-3586.9,1246.5h4.3v-4.3h17.3v4.3h4.3v25.9h-4.3v4.3h-17.3v-4.3h-4.3V1246.5z M-3578.2,1268.1h8.6v-17.3
			h-8.6V1268.1z"/>
		<path class="st4" d="M-3548,1276.7h-8.6v-34.6h8.6v17.3h4.3v-4.3h4.3v4.3h4.3v-17.3h8.6v34.6h-8.6v-4.3h-4.3v-4.3h-4.3v4.3h-4.3
			V1276.7z"/>
		<path class="st4" d="M-3491.8,1242.1h25.9v8.6h-8.6v25.9h-8.6v-25.9h-8.6V1242.1z"/>
		<path class="st4" d="M-3461.6,1246.5h4.3v-4.3h17.3v4.3h4.3v25.9h-4.3v4.3h-17.3v-4.3h-4.3V1246.5z M-3453,1268.1h8.6v-17.3h-8.6
			V1268.1z"/>
		<path class="st4" d="M-3392.5,1276.7h-8.6v-34.6h21.6v4.3h4.3v13h-4.3v4.3h-13V1276.7z M-3392.5,1255.1h8.6v-4.3h-8.6V1255.1z"/>
		<path class="st4" d="M-3366.6,1272.4h-4.3v-30.2h8.6v25.9h17.3v8.6h-21.6V1272.4z"/>
		<path class="st4" d="M-3332,1276.7h-8.6v-30.2h4.3v-4.3h17.3v4.3h4.3v30.2h-8.6v-13h-8.6V1276.7z M-3323.4,1255.1v-4.3h-8.6v4.3
			H-3323.4z"/>
		<path class="st4" d="M-3310.4,1242.1h8.6v13h8.6v-13h8.6v17.3h-4.3v4.3h-4.3v13h-8.6v-13h-4.3v-4.3h-4.3V1242.1z"/>
	</g>
</g>
<polygon class="st5" points="-3503.1,1509.9 -3515.1,1509.9 -3588.1,1509.9 -3588.1,1521.9 -3600.1,1521.9 -3600.1,1606.9 
	-3588.1,1606.9 -3588.1,1618.9 -3515.1,1618.9 -3503.1,1618.9 -3503.1,1606.9 -3491.1,1606.9 -3491.1,1521.9 -3503.1,1521.9 "/>
<polygon class="st5" points="-3503.1,1509.9 -3515.1,1509.9 -3588.1,1509.9 -3588.1,1521.9 -3600.1,1521.9 -3600.1,1606.9 
	-3588.1,1606.9 -3588.1,1618.9 -3515.1,1618.9 -3503.1,1618.9 -3503.1,1606.9 -3491.1,1606.9 -3491.1,1521.9 -3503.1,1521.9 "/>
<g>
	<path class="st4" d="M-3563.5,1544.1h28.4v5.7h5.7v17.1h-5.7v5.7h-17.1v-11.4h11.4v-5.7h-22.8V1544.1z M-3552.1,1578.3h11.4v11.4
		h-11.4V1578.3z"/>
</g>
<polygon class="st5" points="-3352.1,1509.9 -3364.1,1509.9 -3437.1,1509.9 -3437.1,1521.9 -3449.1,1521.9 -3449.1,1606.9 
	-3437.1,1606.9 -3437.1,1618.9 -3364.1,1618.9 -3352.1,1618.9 -3352.1,1606.9 -3340.1,1606.9 -3340.1,1521.9 -3352.1,1521.9 "/>
<polygon class="st6" points="-3352.1,1499.9 -3364.1,1499.9 -3437.1,1499.9 -3437.1,1511.9 -3449.1,1511.9 -3449.1,1596.9 
	-3437.1,1596.9 -3437.1,1608.9 -3364.1,1608.9 -3352.1,1608.9 -3352.1,1596.9 -3340.1,1596.9 -3340.1,1511.9 -3352.1,1511.9 "/>
<g>
	<path class="st4" d="M-3412.5,1534.1h28.4v5.7h5.7v17.1h-5.7v5.7h-17.1v-11.4h11.4v-5.7h-22.8V1534.1z M-3401.1,1568.3h11.4v11.4
		h-11.4V1568.3z"/>
</g>
<g>
	<polygon class="st0" points="-2317.1,1354.5 -2328.7,1354.5 -2328.7,1342.8 -2340.2,1342.8 -2340.2,1330 -2839,1330 -2839,1342.8 
		-2850.5,1342.8 -2850.5,1354.5 -2862.1,1354.5 -2862.1,2039.2 -2850.5,2039.2 -2850.5,2050.8 -2839,2050.8 -2839,2063.6 
		-2340.2,2063.6 -2340.2,2050.8 -2328.7,2050.8 -2328.7,2039.2 -2317.1,2039.2 	"/>
	<polygon class="st7" points="-2317.1,1342.4 -2328.7,1342.4 -2328.7,1330.8 -2340.2,1330.8 -2340.2,1318 -2839,1318 -2839,1330.8 
		-2850.5,1330.8 -2850.5,1342.4 -2862.1,1342.4 -2862.1,2027.1 -2850.5,2027.1 -2850.5,2038.8 -2839,2038.8 -2839,2051.6 
		-2340.2,2051.6 -2340.2,2038.8 -2328.7,2038.8 -2328.7,2027.1 -2317.1,2027.1 	"/>
	<polygon class="st8" points="-2317.1,1330.4 -2328.7,1330.4 -2328.7,1318.8 -2340.2,1318.8 -2340.2,1306 -2839,1306 -2839,1318.8 
		-2850.5,1318.8 -2850.5,1330.4 -2862.1,1330.4 -2862.1,2015.1 -2850.5,2015.1 -2850.5,2026.8 -2839,2026.8 -2839,2039.6 
		-2340.2,2039.6 -2340.2,2026.8 -2328.7,2026.8 -2328.7,2015.1 -2317.1,2015.1 	"/>
</g>
<g>
	<polygon class="st0" points="-3803.1,-638.1 -3807.2,-638.1 -3807.2,-642.2 -3811.2,-642.2 -3811.2,-646.8 -3987.5,-646.8 
		-3987.5,-642.2 -3991.6,-642.2 -3991.6,-638.1 -3995.6,-638.1 -3995.6,-396.2 -3991.6,-396.2 -3991.6,-392.1 -3987.5,-392.1 
		-3987.5,-387.5 -3811.2,-387.5 -3811.2,-392.1 -3807.2,-392.1 -3807.2,-396.2 -3803.1,-396.2 	"/>
	<polygon class="st7" points="-3803.1,-642.4 -3807.2,-642.4 -3807.2,-646.5 -3811.2,-646.5 -3811.2,-651 -3987.5,-651 
		-3987.5,-646.5 -3991.6,-646.5 -3991.6,-642.4 -3995.6,-642.4 -3995.6,-400.4 -3991.6,-400.4 -3991.6,-396.3 -3987.5,-396.3 
		-3987.5,-391.8 -3811.2,-391.8 -3811.2,-396.3 -3807.2,-396.3 -3807.2,-400.4 -3803.1,-400.4 	"/>
	<polygon class="st8" points="-3803.1,-646.6 -3807.2,-646.6 -3807.2,-650.7 -3811.2,-650.7 -3811.2,-655.3 -3987.5,-655.3 
		-3987.5,-650.7 -3991.6,-650.7 -3991.6,-646.6 -3995.6,-646.6 -3995.6,-404.7 -3991.6,-404.7 -3991.6,-400.6 -3987.5,-400.6 
		-3987.5,-396 -3811.2,-396 -3811.2,-400.6 -3807.2,-400.6 -3807.2,-404.7 -3803.1,-404.7 	"/>
</g>
<g>
	<polygon class="st9" points="-3366.1,990 -3376.1,990 -3751,990 -3751,1000 -3761.1,1000 -3761.1,1057.9 -3751,1057.9 -3751,1068 
		-3376.1,1068 -3366.1,1068 -3366.1,1057.9 -3356,1057.9 -3356,1000 -3366.1,1000 	"/>
	<polygon class="st10" points="-3366.1,980 -3376.1,980 -3751,980 -3751,990 -3761.1,990 -3761.1,1047.9 -3751,1047.9 -3751,1058 
		-3376.1,1058 -3366.1,1058 -3366.1,1047.9 -3356,1047.9 -3356,990 -3366.1,990 	"/>
	<g>
		<path class="st4" d="M-3641,1030.8h-6.9v-27.6h17.3v3.5h3.5v10.4h-3.5v3.5h-10.4V1030.8z M-3641,1013.6h6.9v-3.5h-6.9V1013.6z"/>
		<path class="st4" d="M-3620.3,1027.4h-3.5v-24.2h6.9v20.7h13.8v6.9h-17.3V1027.4z"/>
		<path class="st4" d="M-3592.7,1030.8h-6.9v-24.2h3.5v-3.5h13.8v3.5h3.5v24.2h-6.9v-10.4h-6.9V1030.8z M-3585.8,1013.6v-3.5h-6.9
			v3.5H-3585.8z"/>
		<path class="st4" d="M-3575.4,1003.2h6.9v10.4h6.9v-10.4h6.9v13.8h-3.5v3.5h-3.5v10.4h-6.9v-10.4h-3.5v-3.5h-3.5V1003.2z"/>
		<path class="st4" d="M-3547.7,1027.4h-3.5v-20.7h3.5v-3.5h17.3v6.9h-13.8v3.5h6.9v6.9h-6.9v3.5h13.8v6.9h-17.3V1027.4z"/>
		<path class="st4" d="M-3516.6,1020.5h-3.5v10.4h-6.9v-27.6h17.3v3.5h3.5v10.4h-3.5v3.5h3.5v10.4h-6.9v-6.9h-3.5V1020.5z
			 M-3520.1,1013.6h6.9v-3.5h-6.9V1013.6z"/>
		<path class="st4" d="M-3478.6,1003.2h6.9v27.6h-6.9V1003.2z"/>
	</g>
</g>
<g>
	<polygon class="st11" points="-3726.9,869.4 -3728.9,863.6 -3732.9,851.6 -3750.7,857.6 -3748.8,863.4 -3754.6,865.3 
		-3750.5,877.3 -3744.7,875.4 -3742.8,881.2 -3730.7,877.1 -3732.7,871.3 	"/>
	<polygon class="st11" points="-3688.1,857.3 -3690.1,851.5 -3694.2,839.5 -3711.9,845.5 -3710,851.3 -3715.8,853.3 -3711.7,865.3 
		-3705.9,863.3 -3704,869.1 -3691.9,865 -3693.9,859.2 	"/>
	<rect x="-3747.7" y="810.3" transform="matrix(0.9472 -0.3207 0.3207 0.9472 -463.8784 -1157.0143)" width="7.1" height="38.6"/>
	<polygon points="-3728.6,864.5 -3730.5,858.8 -3734.6,846.8 -3752.4,852.8 -3750.4,858.6 -3756.2,860.5 -3752.1,872.5 
		-3746.3,870.6 -3744.4,876.3 -3732.4,872.3 -3734.3,866.5 	"/>
	<rect x="-3709.2" y="797.3" transform="matrix(0.9472 -0.3207 0.3207 0.9472 -457.6684 -1145.3645)" width="7.1" height="38.6"/>
	<polygon points="-3690.1,851.5 -3692,845.8 -3696.1,833.7 -3713.9,839.8 -3711.9,845.5 -3717.7,847.5 -3713.6,859.5 -3707.9,857.5 
		-3705.9,863.3 -3693.9,859.2 -3695.9,853.5 	"/>
	<rect x="-3757.7" y="788" transform="matrix(0.9472 -0.3207 0.3207 0.9472 -452.7642 -1155.4587)" width="47.7" height="17.3"/>
</g>
<g>
	<polygon class="st11" points="-3660.7,902.9 -3659.8,898.8 -3657.9,890.1 -3670.7,887.3 -3671.6,891.5 -3675.8,890.6 
		-3677.7,899.2 -3673.5,900.1 -3674.4,904.3 -3665.8,906.2 -3664.9,902 	"/>
	<polygon class="st11" points="-3633.2,909.7 -3632.3,905.6 -3630.4,896.9 -3643.2,894.1 -3644.1,898.3 -3648.2,897.3 -3650.1,906 
		-3646,906.9 -3646.9,911 -3638.3,913 -3637.4,908.8 	"/>
	<rect x="-3659.1" y="859.6" transform="matrix(0.9766 0.2149 -0.2149 0.9766 102.1759 806.1695)" width="5" height="26.9"/>
	<polygon points="-3660,899.5 -3659,895.3 -3657.1,886.7 -3669.9,883.9 -3670.8,888 -3675,887.1 -3676.9,895.8 -3672.7,896.7 
		-3673.7,900.8 -3665,902.7 -3664.1,898.6 	"/>
	<rect x="-3631.5" y="865.6" transform="matrix(0.9766 0.2149 -0.2149 0.9766 104.13 800.3676)" width="5" height="26.9"/>
	<polygon points="-3632.3,905.6 -3631.4,901.4 -3629.5,892.8 -3642.3,890 -3643.2,894.1 -3647.3,893.2 -3649.2,901.8 -3645.1,902.8 
		-3646,906.9 -3637.4,908.8 -3636.4,904.7 	"/>
	<rect x="-3655.3" y="851" transform="matrix(0.9766 0.2149 -0.2149 0.9766 99.1641 801.9251)" width="33.3" height="12"/>
</g>
<g>
	<polygon class="st11" points="-3584.7,841.1 -3585.4,838.1 -3586.8,831.7 -3596.2,833.8 -3595.5,836.9 -3598.5,837.6 
		-3597.1,843.9 -3594.1,843.2 -3593.4,846.3 -3587.1,844.9 -3587.7,841.8 	"/>
	<polygon class="st11" points="-3564.3,837.1 -3564.9,834.1 -3566.4,827.7 -3575.8,829.8 -3575.1,832.9 -3578.1,833.6 
		-3576.7,839.9 -3573.7,839.2 -3573,842.3 -3566.6,840.9 -3567.3,837.8 	"/>
	<rect x="-3593.1" y="810.1" transform="matrix(0.9761 -0.2173 0.2173 0.9761 -263.9704 -760.7469)" width="3.6" height="19.8"/>
	<polygon points="-3585.3,838.6 -3585.9,835.6 -3587.3,829.2 -3596.7,831.3 -3596.1,834.3 -3599.1,835 -3597.7,841.4 -3594.6,840.7 
		-3594,843.7 -3587.6,842.3 -3588.3,839.3 	"/>
	<rect x="-3572.8" y="805.6" transform="matrix(0.9761 -0.2173 0.2173 0.9761 -262.5029 -756.4421)" width="3.6" height="19.8"/>
	<polygon points="-3564.9,834.1 -3565.6,831 -3567,824.7 -3576.4,826.8 -3575.8,829.8 -3578.8,830.5 -3577.4,836.9 -3574.3,836.2 
		-3573.7,839.2 -3567.3,837.8 -3568,834.8 	"/>
	<rect x="-3596.4" y="799.3" transform="matrix(0.9761 -0.2173 0.2173 0.9761 -260.2771 -759.6034)" width="24.4" height="8.8"/>
</g>
<g>
	<polygon class="st11" points="-3564.1,886.9 -3561.5,882.8 -3556,874.2 -3568.7,866.2 -3571.3,870.3 -3575.4,867.7 -3580.9,876.2 
		-3576.8,878.8 -3579.4,883 -3570.8,888.4 -3568.2,884.3 	"/>
	<polygon class="st11" points="-3537.1,905 -3534.5,900.9 -3529,892.3 -3541.7,884.3 -3544.3,888.4 -3548.4,885.8 -3553.9,894.3 
		-3549.8,897 -3552.4,901.1 -3543.8,906.5 -3541.2,902.4 	"/>
	<rect x="-3550.8" y="840.8" transform="matrix(0.844 0.5363 -0.5363 0.844 -94.1963 2036.3595)" width="5.7" height="30.9"/>
	<polygon points="-3561.9,883.5 -3559.3,879.4 -3553.8,870.8 -3566.5,862.7 -3569.1,866.8 -3573.3,864.2 -3578.7,872.8 
		-3574.6,875.4 -3577.2,879.5 -3568.6,885 -3566,880.9 	"/>
	<rect x="-3523.4" y="858.2" transform="matrix(0.844 0.5363 -0.5363 0.844 -80.5718 2024.3687)" width="5.7" height="30.9"/>
	<polygon points="-3534.5,900.9 -3531.9,896.8 -3526.4,888.2 -3539.1,880.2 -3541.7,884.3 -3545.8,881.7 -3551.3,890.2 
		-3547.2,892.8 -3549.8,897 -3541.2,902.4 -3538.6,898.3 	"/>
	<rect x="-3541.4" y="839.2" transform="matrix(0.844 0.5363 -0.5363 0.844 -95.6277 2020.9973)" width="38.2" height="13.8"/>
</g>
<g>
	<polygon class="st9" points="-3842.8,446.5 -3849.4,446.5 -4095.8,446.5 -4095.8,453.1 -4102.4,453.1 -4102.4,491.1 -4095.8,491.1 
		-4095.8,497.7 -3849.4,497.7 -3842.8,497.7 -3842.8,491.1 -3836.2,491.1 -3836.2,453.1 -3842.8,453.1 	"/>
	<polygon class="st12" points="-3842.8,446.5 -3849.4,446.5 -4095.8,446.5 -4095.8,453.1 -4102.4,453.1 -4102.4,491.1 
		-4095.8,491.1 -4095.8,497.7 -3849.4,497.7 -3842.8,497.7 -3842.8,491.1 -3836.2,491.1 -3836.2,453.1 -3842.8,453.1 	"/>
	<g>
		<path class="st4" d="M-4036,464h2.3v-2.3h11.4v4.5h-9.1v9.1h9.1v4.5h-11.4v-2.3h-2.3V464z"/>
		<path class="st4" d="M-4015.6,479.9h-4.5V464h2.3v-2.3h9.1v2.3h2.3v15.9h-4.5v-6.8h-4.5V479.9z M-4011,468.6v-2.3h-4.5v2.3H-4011z
			"/>
		<path class="st4" d="M-4002,477.7h-2.3v-15.9h4.5v13.6h9.1v4.5h-11.4V477.7z"/>
		<path class="st4" d="M-3988.3,461.8h4.5v18.2h-4.5V461.8z"/>
		<path class="st4" d="M-3981.5,461.8h11.4v2.3h2.3v13.6h-2.3v2.3h-11.4V461.8z M-3977,468.6h4.5v-2.3h-4.5V468.6z M-3977,475.4h4.5
			v-2.3h-4.5V475.4z"/>
		<path class="st4" d="M-3958.8,473.1h-2.3v6.8h-4.5V464h2.3v-2.3h9.1v2.3h2.3v6.8h-2.3v2.3h2.3v6.8h-4.5v-4.5h-2.3V473.1z
			 M-3961.1,468.6h4.5v-2.3h-4.5V468.6z"/>
		<path class="st4" d="M-3945.2,479.9h-4.5V464h2.3v-2.3h9.1v2.3h2.3v15.9h-4.5v-6.8h-4.5V479.9z M-3940.6,468.6v-2.3h-4.5v2.3
			H-3940.6z"/>
		<path class="st4" d="M-3933.8,461.8h13.6v4.5h-4.5v13.6h-4.5v-13.6h-4.5V461.8z"/>
		<path class="st4" d="M-3915.7,477.7h-2.3V464h2.3v-2.3h11.4v4.5h-9.1v2.3h4.5v4.5h-4.5v2.3h9.1v4.5h-11.4V477.7z"/>
	</g>
</g>
<g>
	<polygon class="st9" points="-3522.8,514.5 -3529.4,514.5 -3775.8,514.5 -3775.8,521.1 -3782.4,521.1 -3782.4,559.1 -3775.8,559.1 
		-3775.8,565.7 -3529.4,565.7 -3522.8,565.7 -3522.8,559.1 -3516.2,559.1 -3516.2,521.1 -3522.8,521.1 	"/>
	<polygon class="st10" points="-3522.8,507.9 -3529.4,507.9 -3775.8,507.9 -3775.8,514.5 -3782.4,514.5 -3782.4,552.6 
		-3775.8,552.6 -3775.8,559.2 -3529.4,559.2 -3522.8,559.2 -3522.8,552.6 -3516.2,552.6 -3516.2,514.5 -3522.8,514.5 	"/>
	<g>
		<path class="st4" d="M-3716,525.5h2.3v-2.3h11.4v4.5h-9.1v9.1h9.1v4.5h-11.4v-2.3h-2.3V525.5z"/>
		<path class="st4" d="M-3695.6,541.4h-4.5v-15.9h2.3v-2.3h9.1v2.3h2.3v15.9h-4.5v-6.8h-4.5V541.4z M-3691,530v-2.3h-4.5v2.3H-3691z
			"/>
		<path class="st4" d="M-3682,539.1h-2.3v-15.9h4.5v13.6h9.1v4.5h-11.4V539.1z"/>
		<path class="st4" d="M-3668.3,523.2h4.5v18.2h-4.5V523.2z"/>
		<path class="st4" d="M-3661.5,523.2h11.4v2.3h2.3v13.6h-2.3v2.3h-11.4V523.2z M-3657,530h4.5v-2.3h-4.5V530z M-3657,536.8h4.5
			v-2.3h-4.5V536.8z"/>
		<path class="st4" d="M-3638.8,534.5h-2.3v6.8h-4.5v-15.9h2.3v-2.3h9.1v2.3h2.3v6.8h-2.3v2.3h2.3v6.8h-4.5v-4.5h-2.3V534.5z
			 M-3641.1,530h4.5v-2.3h-4.5V530z"/>
		<path class="st4" d="M-3625.2,541.4h-4.5v-15.9h2.3v-2.3h9.1v2.3h2.3v15.9h-4.5v-6.8h-4.5V541.4z M-3620.6,530v-2.3h-4.5v2.3
			H-3620.6z"/>
		<path class="st4" d="M-3613.8,523.2h13.6v4.5h-4.5v13.6h-4.5v-13.6h-4.5V523.2z"/>
		<path class="st4" d="M-3595.7,539.1h-2.3v-13.6h2.3v-2.3h11.4v4.5h-9.1v2.3h4.5v4.5h-4.5v2.3h9.1v4.5h-11.4V539.1z"/>
	</g>
</g>
<g>
	<rect x="-3780.9" y="596.8" class="st9" width="219.8" height="28.8"/>
	<rect x="-3785.7" y="590.3" class="st9" width="229.4" height="30.6"/>
	<polygon class="st10" points="-3785.7,585.9 -3785.7,615.2 -3780.9,615.2 -3780.9,620.9 -3561.1,620.9 -3561.1,615.2 
		-3556.3,615.2 -3556.3,585.9 	"/>
</g>
<polygon class="st9" points="-3565.9,600.8 -3565.9,595.7 -3571,595.7 -3571,595.6 -3627.6,595.6 -3658.2,595.6 -3683.8,595.6 
	-3707.6,595.6 -3771,595.6 -3771,595.6 -3776.1,595.6 -3776.1,600.7 -3781.2,600.7 -3781.2,608.4 -3776.1,608.4 -3776.1,613.5 
	-3771,613.5 -3771,613.6 -3707.6,613.6 -3683.8,613.6 -3658.2,613.6 -3627.6,613.6 -3571,613.6 -3571,613.5 -3565.9,613.5 
	-3565.9,608.4 -3560.8,608.4 -3560.8,600.8 "/>
<g>
	<rect x="-3789.8" y="694.8" class="st13" width="4.7" height="0.1"/>
	<rect x="-3789.8" y="712.7" class="st13" width="4.7" height="0.1"/>
	<polygon class="st4" points="-3768.8,712.8 -3768.8,707.7 -3763.7,707.7 -3763.7,700 -3768.8,700 -3768.8,695 -3773.9,695 
		-3773.9,694.8 -3785.1,694.8 -3785.1,694.9 -3789.8,694.9 -3789.8,712.7 -3785.1,712.7 -3785.1,712.8 -3773.9,712.8 -3773.9,712.8 
			"/>
</g>
<g>
	<polygon class="st4" points="-3815.6,659.3 -3815.6,654.2 -3820.7,654.2 -3820.7,654.1 -3836.6,654.1 -3836.6,672.1 -3820.7,672.1 
		-3820.7,672 -3815.6,672 -3815.6,667 -3810.5,667 -3810.5,659.3 	"/>
	<polygon class="st4" points="-3829.1,698.2 -3829.1,693.1 -3829.1,693.1 -3829.1,693 -3833.6,693 -3834.2,693 -3838.7,693 
		-3838.7,693 -3838.7,693 -3838.7,698.1 -3843.8,698.1 -3843.8,705.8 -3838.7,705.8 -3838.7,710.9 -3838.7,710.9 -3838.7,711 
		-3834.2,711 -3833.6,711 -3829.1,711 -3829.1,710.9 -3829.1,710.9 -3829.1,705.8 -3824,705.8 -3824,698.2 	"/>
</g>
<polygon class="st4" points="-3878.9,600.8 -3878.9,595.7 -3878.9,595.7 -3878.9,595.6 -3883.4,595.6 -3884,595.6 -3888.5,595.6 
	-3888.5,595.6 -3888.5,595.6 -3888.5,600.7 -3893.6,600.7 -3893.6,608.4 -3888.5,608.4 -3888.5,613.5 -3888.5,613.5 -3888.5,613.6 
	-3884,613.6 -3883.4,613.6 -3878.9,613.6 -3878.9,613.5 -3878.9,613.5 -3878.9,608.4 -3873.8,608.4 -3873.8,600.8 "/>
<polygon class="st14" points="-2913.1,990 -2923.1,990 -3298,990 -3298,1000 -3308.1,1000 -3308.1,1057.9 -3298,1057.9 -3298,1068 
	-2923.1,1068 -2913.1,1068 -2913.1,1057.9 -2903,1057.9 -2903,1000 -2913.1,1000 "/>
<polygon class="st15" points="-2913.1,980 -2923.1,980 -3298,980 -3298,990 -3308.1,990 -3308.1,1047.9 -3298,1047.9 -3298,1058 
	-2923.1,1058 -2913.1,1058 -2913.1,1047.9 -2903,1047.9 -2903,990 -2913.1,990 "/>
<g>
	<path class="st4" d="M-3195.5,1030.8h-6.9v-27.6h17.3v3.5h3.5v10.4h-3.5v3.5h-10.4V1030.8z M-3195.5,1013.6h6.9v-3.5h-6.9V1013.6z"
		/>
	<path class="st4" d="M-3174.7,1027.4h-3.5v-24.2h6.9v20.7h13.8v6.9h-17.3V1027.4z"/>
	<path class="st4" d="M-3147.1,1030.8h-6.9v-24.2h3.5v-3.5h13.8v3.5h3.5v24.2h-6.9v-10.4h-6.9V1030.8z M-3140.2,1013.6v-3.5h-6.9
		v3.5H-3140.2z"/>
	<path class="st4" d="M-3129.8,1003.2h6.9v10.4h6.9v-10.4h6.9v13.8h-3.5v3.5h-3.5v10.4h-6.9v-10.4h-3.5v-3.5h-3.5V1003.2z"/>
	<path class="st4" d="M-3102.2,1027.4h-3.5v-20.7h3.5v-3.5h17.3v6.9h-13.8v3.5h6.9v6.9h-6.9v3.5h13.8v6.9h-17.3V1027.4z"/>
	<path class="st4" d="M-3071,1020.5h-3.5v10.4h-6.9v-27.6h17.3v3.5h3.5v10.4h-3.5v3.5h3.5v10.4h-6.9v-6.9h-3.5V1020.5z
		 M-3074.5,1013.6h6.9v-3.5h-6.9V1013.6z"/>
	<path class="st4" d="M-3033,1003.2h17.3v3.5h3.5v10.4h-3.5v3.5h-10.4v3.5h13.8v6.9h-20.7V1017h3.5v-3.5h10.4v-3.5h-13.8V1003.2z"/>
</g>
<g>
	<rect x="-3287.1" y="984" class="st4" width="45.1" height="5.7"/>
	<rect x="-3235.9" y="984" class="st4" width="5.7" height="5.7"/>
</g>
<g>
	<rect x="-3741.6" y="985" class="st4" width="45.1" height="5.7"/>
	<rect x="-3690.4" y="985" class="st4" width="5.7" height="5.7"/>
</g>
<polygon class="st16" points="-3352.5,825 -3346.1,830.6 -3351.7,837 -3331.3,854.3 -3331.3,892.2 -3310.5,866.1 -3278.8,895.5 
	-3272.9,889.2 -3268,893.8 -3196.3,775.1 "/>
<polygon class="st17" points="-3355,817.8 -3348.6,823.4 -3354.2,829.8 -3333.7,847.2 -3333.7,885.1 -3313,859 -3281.2,888.4 
	-3275.4,882.1 -3270.4,886.7 -3198.8,768 "/>
<polygon class="st18" points="-3312.9,858.8 -3198.5,768 -3333.7,847 -3333.7,884.9 "/>
<polygon class="st19" points="-3356,818 -3349.6,823.6 -3355.2,830 -3334.8,847.3 -3334.8,885.2 -3314,859.1 -3282.3,888.5 
	-3276.4,882.2 -3271.5,886.9 -3199.9,768.2 "/>
<g>
	<polygon class="st20" points="-3420.2,511.3 -3420.2,674.9 -3409.8,674.9 -3409.8,684.4 -3399.4,684.4 -3399.4,694.8 
		-2951.9,694.8 -2951.9,684.4 -2941.5,684.4 -2941.5,674.9 -2931.2,674.9 -2931.2,511.3 	"/>
	<polygon class="st20" points="-2931.2,511.3 -2931.2,417.1 -2941.5,417.1 -2941.5,407.6 -2951.9,407.6 -2951.9,397.1 
		-3399.4,397.1 -3399.4,407.6 -3409.8,407.6 -3409.8,417.1 -3420.2,417.1 -3420.2,511.3 	"/>
</g>
<g>
	<polygon class="st21" points="-3409.8,413.7 -3399.4,413.7 -3399.4,405.7 -3409.8,405.7 -3409.8,413.7 -3420.2,413.7 
		-3420.2,421.7 -3409.8,421.7 	"/>
	<rect x="-3399.4" y="397" class="st21" width="447.5" height="8"/>
	<polygon class="st21" points="-2941.5,413.7 -2941.5,405.7 -2951.9,405.7 -2951.9,413.7 -2941.5,413.7 -2941.5,421.7 
		-2931.2,421.7 -2931.2,413.7 	"/>
</g>
<g>
	<g>
		<g>
			<rect x="-3813.3" y="332.8" width="10.2" height="10.2"/>
		</g>
	</g>
	<g>
		<g>
			<path d="M-3751.9,322.5v5.1h-5.1v5.1h5.1v20.5h5.1v5.1h-5.1v5.1h5.1h5.1v-10.2h15.4v5.1h5.1v-5.1v-30.7H-3751.9z M-3726.3,348.1
				h-20.5v-20.5h20.5V348.1z"/>
		</g>
	</g>
	<g>
		<g>
			<rect x="-3741.6" y="332.8" width="10.2" height="10.2"/>
		</g>
	</g>
	<g>
		<g>
			<rect x="-3813.3" y="404.4" width="10.2" height="10.2"/>
		</g>
	</g>
	<g>
		<g>
			<rect x="-3751.9" y="394.2" width="5.1" height="5.1"/>
		</g>
	</g>
	<g>
		<g>
			<rect x="-3777.5" y="419.8" width="5.1" height="5.1"/>
		</g>
	</g>
	<g>
		<g>
			<rect x="-3772.3" y="399.3" width="5.1" height="5.1"/>
		</g>
	</g>
	<g>
		<g>
			<rect x="-3772.3" y="409.6" width="5.1" height="5.1"/>
		</g>
	</g>
	<g>
		<g>
			<rect x="-3726.3" y="384" width="5.1" height="5.1"/>
		</g>
	</g>
	<g>
		<g>
			<rect x="-3823.6" y="384" width="5.1" height="5.1"/>
		</g>
	</g>
	<g>
		<g>
			<rect x="-3823.6" y="358.4" width="5.1" height="5.1"/>
		</g>
	</g>
	<g>
		<g>
			<polygon points="-3767.2,327.6 -3767.2,332.8 -3777.5,332.8 -3777.5,337.9 -3762.1,337.9 -3762.1,332.8 -3762.1,327.6 			"/>
		</g>
	</g>
	<g>
		<g>
			<path d="M-3726.3,363.5v5.1h-10.2v5.1h-15.4v-5.1h-5.1v5.1h-10.2v5.1h15.4v5.1h-10.2h-5.1v-5.1h-5.1v5.1h-5.1v-5.1h-5.1v5.1h-5.1
				v5.1h10.2v5.1h5.1v-5.1h10.2v5.1h-5.1v5.1h5.1v10.2h5.1v5.1h5.1v-5.1h15.4v-10.2h5.1v-5.1h-5.1V384h-10.2v-5.1h10.2v5.1h5.1v-5.1
				h5.1v-5.1h5.1v-5.1v-5.1H-3726.3L-3726.3,363.5z M-3741.6,389.1v15.4h-15.4v-15.4H-3741.6z"/>
		</g>
	</g>
	<g>
		<g>
			<polygon points="-3757,353.2 -3762.1,353.2 -3762.1,358.4 -3767.2,358.4 -3767.2,363.5 -3767.2,368.6 -3762.1,368.6 
				-3762.1,363.5 -3757,363.5 -3757,358.4 -3751.9,358.4 -3751.9,353.2 			"/>
		</g>
	</g>
	<g>
		<g>
			<rect x="-3767.2" y="419.8" width="10.2" height="5.1"/>
		</g>
	</g>
	<g>
		<g>
			<rect x="-3782.6" y="327.6" width="5.1" height="5.1"/>
		</g>
	</g>
	<g>
		<g>
			<rect x="-3741.6" y="363.5" width="5.1" height="5.1"/>
		</g>
	</g>
	<g>
		<g>
			<rect x="-3736.5" y="358.4" width="5.1" height="5.1"/>
		</g>
	</g>
	<g>
		<g>
			<rect x="-3803.1" y="384" width="5.1" height="5.1"/>
		</g>
	</g>
	<g>
		<g>
			<path d="M-3792.8,419.8v-20.5h5.1v-5.1v-5.1h-5.1v5.1h-15.4v-5.1h-5.1h-5.1v5.1h-5.1v30.7h30.7h10.2v-5.1H-3792.8z M-3798,419.8
				h-20.5v-20.5h20.5V419.8z"/>
		</g>
	</g>
	<g>
		<g>
			<rect x="-3792.8" y="353.2" width="5.1" height="5.1"/>
		</g>
	</g>
	<g>
		<g>
			<path d="M-3787.7,322.5h-5.1h-30.7v30.7h5.1v5.1h5.1v-5.1h5.1v5.1h5.1v-5.1h10.2V343h5.1v-5.1h-5.1v-10.2h5.1h5.1v-5.1H-3787.7z
				 M-3798,348.1h-20.5v-20.5h20.5V348.1z"/>
		</g>
	</g>
	<g>
		<g>
			<rect x="-3762.1" y="337.9" width="5.1" height="5.1"/>
		</g>
	</g>
	<g>
		<g>
			<rect x="-3772.3" y="322.5" width="5.1" height="5.1"/>
		</g>
	</g>
	<g>
		<g>
			<path d="M-3762.1,353.2v-5.1h-5.1V343h-5.1v5.1h-10.2V343h-5.1v5.1v5.1h5.1v10.2h-15.4v-5.1h-5.1v5.1h-15.4v5.1h10.2v5.1h-15.4
				v5.1h15.4v5.1h5.1v-5.1h5.1v5.1h5.1v-5.1h10.2v-5.1h-5.1v-5.1h5.1h5.1v5.1h5.1h5.1v-5.1h-5.1v-5.1h-5.1v-10.2H-3762.1
				L-3762.1,353.2z M-3792.8,373.7h-10.2v-5.1h10.2V373.7z"/>
		</g>
	</g>
	<g>
		<g>
			<polygon points="-3777.5,404.4 -3777.5,399.3 -3777.5,394.2 -3782.6,394.2 -3782.6,399.3 -3787.7,399.3 -3787.7,404.4 
				-3782.6,404.4 -3782.6,409.6 -3787.7,409.6 -3787.7,414.7 -3777.5,414.7 -3777.5,409.6 -3772.3,409.6 -3772.3,404.4 			"/>
		</g>
	</g>
	<g>
		<g>
			<polygon points="-3731.4,414.7 -3731.4,409.6 -3736.5,409.6 -3736.5,414.7 -3751.9,414.7 -3751.9,419.8 -3741.6,419.8 
				-3741.6,424.9 -3736.5,424.9 -3736.5,419.8 -3726.3,419.8 -3726.3,424.9 -3721.1,424.9 -3721.1,419.8 -3721.1,414.7 			"/>
		</g>
	</g>
	<g>
		<g>
			<polygon points="-3726.3,394.2 -3726.3,399.3 -3731.4,399.3 -3731.4,404.4 -3721.1,404.4 -3721.1,399.3 -3721.1,394.2 			"/>
		</g>
	</g>
</g>
<g>
	<g>
		<polygon class="st9" points="-4051.7,738.7 -4055.3,738.7 -4192.5,738.7 -4192.5,742.3 -4196.2,742.3 -4196.2,763.5 
			-4192.5,763.5 -4192.5,767.2 -4055.3,767.2 -4051.7,767.2 -4051.7,763.5 -4048,763.5 -4048,742.3 -4051.7,742.3 		"/>
		<polygon class="st12" points="-4051.7,738.7 -4055.3,738.7 -4192.5,738.7 -4192.5,742.3 -4196.2,742.3 -4196.2,763.5 
			-4192.5,763.5 -4192.5,767.2 -4055.3,767.2 -4051.7,767.2 -4051.7,763.5 -4048,763.5 -4048,742.3 -4051.7,742.3 		"/>
		<g>
			<path class="st4" d="M-4164.3,753.5h-1.3v3.8h-2.5v-10.1h6.3v1.3h1.3v3.8h-1.3v1.3h1.3v3.8h-2.5v-2.5h-1.3V753.5z M-4165.6,750.9
				h2.5v-1.3h-2.5V750.9z"/>
			<path class="st4" d="M-4158,756h-1.3v-7.6h1.3v-1.3h6.3v2.5h-5.1v1.3h2.5v2.5h-2.5v1.3h5.1v2.5h-6.3V756z"/>
			<path class="st4" d="M-4149.1,756h-1.3v-7.6h1.3v-1.3h5.1v1.3h1.3v2.5h-2.5v-1.3h-2.5v5.1h2.5v-1.3h2.5v2.5h-1.3v1.3h-5.1V756z"
				/>
			<path class="st4" d="M-4139,757.3h-2.5v-8.9h1.3v-1.3h5.1v1.3h1.3v8.9h-2.5v-3.8h-2.5V757.3z M-4136.5,750.9v-1.3h-2.5v1.3
				H-4136.5z"/>
			<path class="st4" d="M-4131.4,756h-1.3v-8.9h2.5v7.6h5.1v2.5h-6.3V756z"/>
			<path class="st4" d="M-4123.8,747.2h2.5v10.1h-2.5V747.2z"/>
			<path class="st4" d="M-4120,747.2h6.3v1.3h1.3v7.6h-1.3v1.3h-6.3V747.2z M-4117.5,750.9h2.5v-1.3h-2.5V750.9z M-4117.5,754.7h2.5
				v-1.3h-2.5V754.7z"/>
			<path class="st4" d="M-4107.4,753.5h-1.3v3.8h-2.5v-8.9h1.3v-1.3h5.1v1.3h1.3v3.8h-1.3v1.3h1.3v3.8h-2.5v-2.5h-1.3V753.5z
				 M-4108.7,750.9h2.5v-1.3h-2.5V750.9z"/>
			<path class="st4" d="M-4099.8,757.3h-2.5v-8.9h1.3v-1.3h5.1v1.3h1.3v8.9h-2.5v-3.8h-2.5V757.3z M-4097.3,750.9v-1.3h-2.5v1.3
				H-4097.3z"/>
			<path class="st4" d="M-4093.5,747.2h7.6v2.5h-2.5v7.6h-2.5v-7.6h-2.5V747.2z"/>
			<path class="st4" d="M-4083.4,756h-1.3v-7.6h1.3v-1.3h6.3v2.5h-5.1v1.3h2.5v2.5h-2.5v1.3h5.1v2.5h-6.3V756z"/>
		</g>
	</g>
	<g>
		<rect x="-4190.1" y="740.8" class="st4" width="13.1" height="1.7"/>
		<rect x="-4175.2" y="740.8" class="st4" width="1.7" height="1.7"/>
	</g>
</g>
<g>
	<g>
		<polygon class="st9" points="-4051.7,780.7 -4055.3,780.7 -4192.5,780.7 -4192.5,784.3 -4196.2,784.3 -4196.2,805.5 
			-4192.5,805.5 -4192.5,809.2 -4055.3,809.2 -4051.7,809.2 -4051.7,805.5 -4048,805.5 -4048,784.3 -4051.7,784.3 		"/>
		<polygon class="st10" points="-4051.7,777 -4055.3,777 -4192.5,777 -4192.5,780.7 -4196.2,780.7 -4196.2,801.8 -4192.5,801.8 
			-4192.5,805.5 -4055.3,805.5 -4051.7,805.5 -4051.7,801.8 -4048,801.8 -4048,780.7 -4051.7,780.7 		"/>
		<g>
			<path class="st4" d="M-4164.3,791.8h-1.3v3.8h-2.5v-10.1h6.3v1.3h1.3v3.8h-1.3v1.3h1.3v3.8h-2.5v-2.5h-1.3V791.8z M-4165.6,789.3
				h2.5V788h-2.5V789.3z"/>
			<path class="st4" d="M-4158,794.3h-1.3v-7.6h1.3v-1.3h6.3v2.5h-5.1v1.3h2.5v2.5h-2.5v1.3h5.1v2.5h-6.3V794.3z"/>
			<path class="st4" d="M-4149.1,794.3h-1.3v-7.6h1.3v-1.3h5.1v1.3h1.3v2.5h-2.5V788h-2.5v5.1h2.5v-1.3h2.5v2.5h-1.3v1.3h-5.1V794.3
				z"/>
			<path class="st4" d="M-4139,795.6h-2.5v-8.9h1.3v-1.3h5.1v1.3h1.3v8.9h-2.5v-3.8h-2.5V795.6z M-4136.5,789.3V788h-2.5v1.3
				H-4136.5z"/>
			<path class="st4" d="M-4131.4,794.3h-1.3v-8.9h2.5v7.6h5.1v2.5h-6.3V794.3z"/>
			<path class="st4" d="M-4123.8,785.5h2.5v10.1h-2.5V785.5z"/>
			<path class="st4" d="M-4120,785.5h6.3v1.3h1.3v7.6h-1.3v1.3h-6.3V785.5z M-4117.5,789.3h2.5V788h-2.5V789.3z M-4117.5,793.1h2.5
				v-1.3h-2.5V793.1z"/>
			<path class="st4" d="M-4107.4,791.8h-1.3v3.8h-2.5v-8.9h1.3v-1.3h5.1v1.3h1.3v3.8h-1.3v1.3h1.3v3.8h-2.5v-2.5h-1.3V791.8z
				 M-4108.7,789.3h2.5V788h-2.5V789.3z"/>
			<path class="st4" d="M-4099.8,795.6h-2.5v-8.9h1.3v-1.3h5.1v1.3h1.3v8.9h-2.5v-3.8h-2.5V795.6z M-4097.3,789.3V788h-2.5v1.3
				H-4097.3z"/>
			<path class="st4" d="M-4093.5,785.5h7.6v2.5h-2.5v7.6h-2.5V788h-2.5V785.5z"/>
			<path class="st4" d="M-4083.4,794.3h-1.3v-7.6h1.3v-1.3h6.3v2.5h-5.1v1.3h2.5v2.5h-2.5v1.3h5.1v2.5h-6.3V794.3z"/>
		</g>
	</g>
	<g>
		<rect x="-4190.1" y="779.8" class="st4" width="13.1" height="1.7"/>
		<rect x="-4175.2" y="779.8" class="st4" width="1.7" height="1.7"/>
	</g>
</g>
<g>
	<rect x="-3770.3" y="511.5" class="st4" width="23.6" height="3"/>
	<rect x="-3743.5" y="511.5" class="st4" width="3" height="3"/>
</g>
<g>
	<rect x="-4090.7" y="450" class="st4" width="23.6" height="3"/>
	<rect x="-4064" y="450" class="st4" width="3" height="3"/>
</g>
<g>
	<polygon class="st22" points="-4120.8,573.5 -4120.8,566.1 -4139.4,566.1 -4139.4,573.5 -4146.9,573.5 -4146.9,581 -4146.9,592.2 
		-4139.4,592.2 -4139.4,599.6 -4128.2,599.6 -4120.8,599.6 -4120.8,592.2 -4113.3,592.2 -4113.3,581 -4113.3,573.5 	"/>
	<line class="st23" x1="-4138.8" y1="599.6" x2="-4138.8" y2="609.6"/>
	<line class="st23" x1="-4121.4" y1="599.6" x2="-4121.4" y2="609.6"/>
	<polygon class="st24" points="-4122.4,607.7 -4124.5,607.7 -4137.9,607.7 -4137.9,609.9 -4140.1,609.9 -4140.1,625.4 
		-4137.9,625.4 -4137.9,627.6 -4124.5,627.6 -4122.4,627.6 -4122.4,625.4 -4120.2,625.4 -4120.2,609.9 -4122.4,609.9 	"/>
</g>
<polygon class="st25" points="-4053.7,1012.8 -4053.7,1004.9 -4061.6,1004.9 -4126.6,1004.9 -4195.4,1004.9 -4195.4,1012.8 
	-4203.3,1012.8 -4203.3,1058.4 -4195.4,1058.4 -4195.4,1066.3 -4126.6,1066.3 -4061.6,1066.3 -4053.7,1066.3 -4053.7,1058.4 
	-4045.8,1058.4 -4045.8,1012.8 "/>
<polygon class="st25" points="-4053.7,1012.9 -4053.7,1005 -4061.6,1005 -4126.6,1005 -4195.4,1005 -4195.4,1012.9 -4203.3,1012.9 
	-4203.3,1058.5 -4195.4,1058.5 -4195.4,1066.4 -4126.6,1066.4 -4061.6,1066.4 -4053.7,1066.4 -4053.7,1058.5 -4045.8,1058.5 
	-4045.8,1012.9 "/>
<g>
	<path class="st4" d="M-4157.2,1046.3h-5.4v-21.8h13.6v2.7h2.7v8.2h-2.7v2.7h-8.2V1046.3z M-4157.2,1032.7h5.4v-2.7h-5.4V1032.7z"/>
	<path class="st4" d="M-4140.9,1043.6h-2.7v-19h5.4v16.3h10.9v5.4h-13.6V1043.6z"/>
	<path class="st4" d="M-4119.1,1046.3h-5.4v-19h2.7v-2.7h10.9v2.7h2.7v19h-5.4v-8.2h-5.4V1046.3z M-4113.7,1032.7v-2.7h-5.4v2.7
		H-4113.7z"/>
	<path class="st4" d="M-4105.5,1024.6h5.4v8.2h5.4v-8.2h5.4v10.9h-2.7v2.7h-2.7v8.2h-5.4v-8.2h-2.7v-2.7h-2.7V1024.6z"/>
</g>
<polygon class="st25" points="-3883.7,1012.8 -3883.7,1004.9 -3891.6,1004.9 -3956.6,1004.9 -4025.4,1004.9 -4025.4,1012.8 
	-4033.3,1012.8 -4033.3,1058.4 -4025.4,1058.4 -4025.4,1066.3 -3956.6,1066.3 -3891.6,1066.3 -3883.7,1066.3 -3883.7,1058.4 
	-3875.8,1058.4 -3875.8,1012.8 "/>
<polygon class="st22" points="-3883.7,1004.9 -3883.7,997 -3891.6,997 -3956.6,997 -4025.4,997 -4025.4,1004.9 -4033.3,1004.9 
	-4033.3,1050.5 -4025.4,1050.5 -4025.4,1058.4 -3956.6,1058.4 -3891.6,1058.4 -3883.7,1058.4 -3883.7,1050.5 -3875.8,1050.5 
	-3875.8,1004.9 "/>
<g>
	<path class="st4" d="M-3987.2,1038.3h-5.4v-21.8h13.6v2.7h2.7v8.2h-2.7v2.7h-8.2V1038.3z M-3987.2,1024.7h5.4v-2.7h-5.4V1024.7z"/>
	<path class="st4" d="M-3970.9,1035.6h-2.7v-19h5.4v16.3h10.9v5.4h-13.6V1035.6z"/>
	<path class="st4" d="M-3949.1,1038.3h-5.4v-19h2.7v-2.7h10.9v2.7h2.7v19h-5.4v-8.2h-5.4V1038.3z M-3943.7,1024.7v-2.7h-5.4v2.7
		H-3943.7z"/>
	<path class="st4" d="M-3935.5,1016.6h5.4v8.2h5.4v-8.2h5.4v10.9h-2.7v2.7h-2.7v8.2h-5.4v-8.2h-2.7v-2.7h-2.7V1016.6z"/>
</g>
<g>
	<path class="st26" d="M-4877.3,767.2h43.2v108h43.2v-108h43.2v129.6h-21.6v21.6h-21.6V940h-43.2v-21.6h-21.6v-21.6h-21.6V767.2z"/>
	<path class="st27" d="M-4726.1,790.8h21.6v-21.6h108v43.2h-86.4V834h64.8v21.6h21.6v64.8h-21.6V942h-108v-43.2h86.4v-21.6h-64.8
		v-21.6h-21.6V790.8z"/>
</g>
<g>
	<path class="st28" d="M-4877.3,746.1h43.2v108h43.2v-108h43.2v129.6h-21.6v21.6h-21.6v21.6h-43.2v-21.6h-21.6v-21.6h-21.6V746.1z"
		/>
	<path class="st29" d="M-4726.1,767.7h21.6v-21.6h108v43.2h-86.4v21.6h64.8v21.6h21.6v64.8h-21.6v21.6h-108v-43.2h86.4v-21.6h-64.8
		v-21.6h-21.6V767.7z"/>
</g>
<g>
	<g>
		<path class="st0" d="M-4827.9,1124.7h27.5v68.7h27.5v-68.7h27.5v82.4h-13.7v13.7h-13.7v13.7h-27.5v-13.7h-13.7v-13.7h-13.7V1124.7
			z"/>
		<path class="st0" d="M-4731.8,1139.8h13.7v-13.7h68.7v27.5h-54.9v13.7h41.2v13.7h13.7v41.2h-13.7v13.7h-68.7v-27.5h54.9v-13.7
			h-41.2V1181h-13.7V1139.8z"/>
	</g>
	<g>
		<path class="st7" d="M-4827.9,1110.3h27.5v68.7h27.5v-68.7h27.5v82.4h-13.7v13.7h-13.7v13.7h-27.5v-13.7h-13.7v-13.7h-13.7V1110.3
			z"/>
		<path class="st7" d="M-4731.8,1125.3h13.7v-13.7h68.7v27.5h-54.9v13.7h41.2v13.7h13.7v41.2h-13.7v13.7h-68.7V1194h54.9v-13.7
			h-41.2v-13.7h-13.7V1125.3z"/>
	</g>
	<g>
		<path class="st4" d="M-4827.9,1096.8h27.5v68.7h27.5v-68.7h27.5v82.4h-13.7v13.7h-13.7v13.7h-27.5V1193h-13.7v-13.7h-13.7V1096.8z
			"/>
		<path class="st4" d="M-4731.8,1110.6h13.7v-13.7h68.7v27.5h-54.9v13.7h41.2v13.7h13.7v41.2h-13.7v13.7h-68.7v-27.5h54.9v-13.7
			h-41.2v-13.7h-13.7V1110.6z"/>
	</g>
</g>
<g>
	<g>
		<path class="st0" d="M-4253.5,265.1h-21.6v-86.4h54v10.8h10.8v32.4h-10.8v10.8h-32.4V265.1z M-4253.5,211.1h21.6v-10.8h-21.6
			V211.1z"/>
		<path class="st0" d="M-4199.5,189.5h10.8v-10.8h43.2v10.8h10.8v64.8h-10.8v10.8h-43.2v-10.8h-10.8V189.5z M-4177.9,243.5h21.6
			v-43.2h-21.6V243.5z"/>
		<path class="st0" d="M-4113.1,254.3h-10.8v-75.6h21.6v64.8h43.2v21.6h-54V254.3z"/>
		<path class="st0" d="M-4069.9,178.7h21.6v32.4h21.6v-32.4h21.6v43.2h-10.8v10.8h-10.8v32.4h-21.6v-32.4h-10.8v-10.8h-10.8V178.7z"
			/>
	</g>
	<g>
		<path class="st30" d="M-4253.5,256.6h-21.6v-86.4h54V181h10.8v32.4h-10.8v10.8h-32.4V256.6z M-4253.5,202.6h21.6v-10.8h-21.6
			V202.6z"/>
		<path class="st30" d="M-4199.5,181h10.8v-10.8h43.2V181h10.8v64.8h-10.8v10.8h-43.2v-10.8h-10.8V181z M-4177.9,235h21.6v-43.2
			h-21.6V235z"/>
		<path class="st30" d="M-4113.1,245.8h-10.8v-75.6h21.6V235h43.2v21.6h-54V245.8z"/>
		<path class="st30" d="M-4069.9,170.2h21.6v32.4h21.6v-32.4h21.6v43.2h-10.8v10.8h-10.8v32.4h-21.6v-32.4h-10.8v-10.8h-10.8V170.2z
			"/>
	</g>
	<g>
		<path class="st4" d="M-4253.5,248.5h-21.6v-86.4h54v10.8h10.8v32.4h-10.8v10.8h-32.4V248.5z M-4253.5,194.5h21.6v-10.8h-21.6
			V194.5z"/>
		<path class="st4" d="M-4199.5,172.9h10.8v-10.8h43.2v10.8h10.8v64.8h-10.8v10.8h-43.2v-10.8h-10.8V172.9z M-4177.9,226.9h21.6
			v-43.2h-21.6V226.9z"/>
		<path class="st4" d="M-4113.1,237.7h-10.8v-75.6h21.6v64.8h43.2v21.6h-54V237.7z"/>
		<path class="st4" d="M-4069.9,162.1h21.6v32.4h21.6v-32.4h21.6v43.2h-10.8v10.8h-10.8v32.4h-21.6v-32.4h-10.8v-10.8h-10.8V162.1z"
			/>
	</g>
</g>
<image style="overflow:visible;" width="843" height="1118" xlink:href="5EAA92B149F45DF8.jpg"  transform="matrix(0.24 0 0 0.24 -4484.5854 312.2372)">
</image>
<g>
	<g class="st1">
		<g>
			<polygon class="st0" points="-3926.7,-51.4 -3926.7,35 -3825.4,35 -3825.4,23.4 -3838.1,23.4 -3838.1,10.8 -3850.7,10.8 
				-3850.7,-1.9 -3863.4,-1.9 -3863.4,-14.5 -3850.7,-14.5 -3850.7,-27.2 -3838.1,-27.2 -3838.1,-39.8 -3825.4,-39.8 -3825.4,-51.4 
							"/>
		</g>
		<polygon class="st0" points="-3911.9,9.7 -3926.7,34 -3926.6,9.7 		"/>
	</g>
	<rect x="-4414.8" y="-74.4" class="st0" width="510.3" height="86.5"/>
	<rect x="-3938.3" y="3.7" class="st0" width="112.8" height="31.6"/>
	<g class="st1">
		<g>
			<polygon class="st0" points="-4407,-51.3 -4407,35.2 -4508.2,35.2 -4508.2,23.6 -4495.5,23.6 -4495.5,10.9 -4482.9,10.9 
				-4482.9,-1.7 -4470.2,-1.7 -4470.2,-14.4 -4482.9,-14.4 -4482.9,-27 -4495.5,-27 -4495.5,-39.7 -4508.2,-39.7 -4508.2,-51.3 			
				"/>
		</g>
		<polygon class="st0" points="-4421.7,9.9 -4407,34.1 -4407,9.9 		"/>
	</g>
	<g>
		<g>
			<polygon class="st2" points="-3926.7,-61.7 -3926.7,24.8 -3825.4,24.8 -3825.4,13.2 -3838.1,13.2 -3838.1,0.5 -3850.7,0.5 
				-3850.7,-12.1 -3863.4,-12.1 -3863.4,-24.8 -3850.7,-24.8 -3850.7,-37.4 -3838.1,-37.4 -3838.1,-50.1 -3825.4,-50.1 
				-3825.4,-61.7 			"/>
			<polygon class="st3" points="-3926.7,-73.3 -3926.7,13.2 -3825.4,13.2 -3825.4,1.6 -3838.1,1.6 -3838.1,-11.1 -3850.7,-11.1 
				-3850.7,-23.7 -3863.4,-23.7 -3863.4,-36.4 -3850.7,-36.4 -3850.7,-49 -3838.1,-49 -3838.1,-61.7 -3825.4,-61.7 -3825.4,-73.3 
							"/>
		</g>
		<polygon class="st2" points="-3911.9,-0.5 -3926.7,23.7 -3926.6,-0.5 		"/>
		<g>
			<g>
				<polygon class="st2" points="-4407.5,-61.7 -4407.5,24.8 -4508.7,24.8 -4508.7,13.2 -4496,13.2 -4496,0.5 -4483.4,0.5 
					-4483.4,-12.1 -4470.7,-12.1 -4470.7,-24.8 -4483.4,-24.8 -4483.4,-37.4 -4496,-37.4 -4496,-50.1 -4508.7,-50.1 -4508.7,-61.7 
									"/>
				<polygon class="st3" points="-4407.5,-73.3 -4407.5,13.2 -4508.7,13.2 -4508.7,1.6 -4496,1.6 -4496,-11.1 -4483.4,-11.1 
					-4483.4,-23.7 -4470.7,-23.7 -4470.7,-36.4 -4483.4,-36.4 -4483.4,-49 -4496,-49 -4496,-61.7 -4508.7,-61.7 -4508.7,-73.3 				
					"/>
			</g>
			<polygon class="st2" points="-4422.2,-0.5 -4407.5,23.7 -4407.5,-0.5 			"/>
		</g>
		<g>
			<rect x="-4422.2" y="-87" class="st2" width="510.3" height="86.5"/>
			<rect x="-4422.2" y="-99.7" class="st3" width="510.3" height="86.5"/>
		</g>
	</g>
</g>
<g>
	<g>
		<path class="st25" d="M-4308.1-24.7h-37.4v-59.9h37.4v7.5h7.5v15h-7.5v15h7.5v15h-7.5V-24.7z M-4330.6-62.1h15v-7.5h-15V-62.1z
			 M-4330.6-39.7h15v-7.5h-15V-39.7z"/>
		<path class="st25" d="M-4278.1-24.7h-15v-52.4h7.5v-7.5h30v7.5h7.5v52.4h-15v-22.5h-15V-24.7z M-4263.1-62.1v-7.5h-15v7.5H-4263.1
			z"/>
		<path class="st25" d="M-4233.2-32.2h-7.5v-52.4h15v44.9h30v15h-37.4V-32.2z"/>
		<path class="st25" d="M-4180.8-32.2h-7.5v-52.4h15v44.9h30v15h-37.4V-32.2z"/>
		<path class="st25" d="M-4135.8-77.1h7.5v-7.5h30v7.5h7.5v44.9h-7.5v7.5h-30v-7.5h-7.5V-77.1z M-4120.9-39.7h15v-30h-15V-39.7z"/>
		<path class="st25" d="M-4083.4-77.1h7.5v-7.5h30v7.5h7.5v44.9h-7.5v7.5h-30v-7.5h-7.5V-77.1z M-4068.4-39.7h15v-30h-15V-39.7z"/>
		<path class="st25" d="M-4008.5-54.7h-7.5v30h-15v-59.9h15v7.5h7.5v7.5h7.5v-15h15v59.9h-15v-22.5h-7.5V-54.7z"/>
	</g>
	<g>
		<path class="st22" d="M-4308.1-30.5h-37.4v-59.9h37.4v7.5h7.5v15h-7.5v15h7.5v15h-7.5V-30.5z M-4330.6-68h15v-7.5h-15V-68z
			 M-4330.6-45.5h15V-53h-15V-45.5z"/>
		<path class="st22" d="M-4278.1-30.5h-15v-52.4h7.5v-7.5h30v7.5h7.5v52.4h-15V-53h-15V-30.5z M-4263.1-68v-7.5h-15v7.5H-4263.1z"/>
		<path class="st22" d="M-4233.2-38h-7.5v-52.4h15v44.9h30v15h-37.4V-38z"/>
		<path class="st22" d="M-4180.8-38h-7.5v-52.4h15v44.9h30v15h-37.4V-38z"/>
		<path class="st22" d="M-4135.8-82.9h7.5v-7.5h30v7.5h7.5V-38h-7.5v7.5h-30V-38h-7.5V-82.9z M-4120.9-45.5h15v-30h-15V-45.5z"/>
		<path class="st22" d="M-4083.4-82.9h7.5v-7.5h30v7.5h7.5V-38h-7.5v7.5h-30V-38h-7.5V-82.9z M-4068.4-45.5h15v-30h-15V-45.5z"/>
		<path class="st22" d="M-4008.5-60.5h-7.5v30h-15v-59.9h15v7.5h7.5v7.5h7.5v-15h15v59.9h-15V-53h-7.5V-60.5z"/>
	</g>
</g>
<g>
	<path class="st0" d="M-3816.5,122h20.7v6.9h-20.7V122z"/>
	<path class="st0" d="M-3761.2,139.3h-6.9v-27.6h17.3v3.5h3.5v10.4h-3.5v3.5h-10.4V139.3z M-3761.2,122h6.9v-3.5h-6.9V122z"/>
	<path class="st0" d="M-3733.5,128.9h-3.5v10.4h-6.9v-27.6h17.3v3.5h3.5v10.4h-3.5v3.5h3.5v10.4h-6.9v-6.9h-3.5V128.9z M-3737,122
		h6.9v-3.5h-6.9V122z"/>
	<path class="st0" d="M-3716.2,135.9h-3.5v-20.7h3.5v-3.5h17.3v6.9h-13.8v3.5h6.9v6.9h-6.9v3.5h13.8v6.9h-17.3V135.9z"/>
	<path class="st0" d="M-3695.5,115.1h3.5v-3.5h17.3v6.9h-13.8v3.5h10.4v3.5h3.5v10.4h-3.5v3.5h-17.3v-6.9h13.8v-3.5h-10.4v-3.5h-3.5
		V115.1z"/>
	<path class="st0" d="M-3671.3,115.1h3.5v-3.5h17.3v6.9h-13.8v3.5h10.4v3.5h3.5v10.4h-3.5v3.5h-17.3v-6.9h13.8v-3.5h-10.4v-3.5h-3.5
		V115.1z"/>
	<path class="st0" d="M-3616,139.3h-6.9v-24.2h3.5v-3.5h13.8v3.5h3.5v24.2h-6.9v-10.4h-6.9V139.3z M-3609.1,122v-3.5h-6.9v3.5
		H-3609.1z"/>
	<path class="st0" d="M-3588.4,125.5h-3.5v13.8h-6.9v-27.6h6.9v3.5h3.5v3.5h3.5v-6.9h6.9v27.6h-6.9v-10.4h-3.5V125.5z"/>
	<path class="st0" d="M-3574.5,111.7h6.9V122h6.9v-10.4h6.9v13.8h-3.5v3.5h-3.5v10.4h-6.9v-10.4h-3.5v-3.5h-3.5V111.7z"/>
	<path class="st0" d="M-3519.2,139.3h-6.9v-27.6h6.9v6.9h3.5v-3.5h3.5v-3.5h6.9v6.9h-3.5v3.5h-3.5v6.9h3.5v3.5h3.5v6.9h-6.9v-3.5
		h-3.5v-3.5h-3.5V139.3z"/>
	<path class="st0" d="M-3498.5,135.9h-3.5v-20.7h3.5v-3.5h17.3v6.9h-13.8v3.5h6.9v6.9h-6.9v3.5h13.8v6.9h-17.3V135.9z"/>
	<path class="st0" d="M-3477.8,111.7h6.9V122h6.9v-10.4h6.9v13.8h-3.5v3.5h-3.5v10.4h-6.9v-10.4h-3.5v-3.5h-3.5V111.7z"/>
	<path class="st0" d="M-3429.4,111.7h20.7v6.9h-6.9v20.7h-6.9v-20.7h-6.9V111.7z"/>
	<path class="st0" d="M-3405.2,115.1h3.5v-3.5h13.8v3.5h3.5v20.7h-3.5v3.5h-13.8v-3.5h-3.5V115.1z M-3398.3,132.4h6.9v-13.8h-6.9
		V132.4z"/>
	<path class="st0" d="M-3349.9,139.3h-6.9v-27.6h17.3v3.5h3.5v10.4h-3.5v3.5h-10.4V139.3z M-3349.9,122h6.9v-3.5h-6.9V122z"/>
	<path class="st0" d="M-3329.2,135.9h-3.5v-24.2h6.9v20.7h13.8v6.9h-17.3V135.9z"/>
	<path class="st0" d="M-3301.5,139.3h-6.9v-24.2h3.5v-3.5h13.8v3.5h3.5v24.2h-6.9v-10.4h-6.9V139.3z M-3294.6,122v-3.5h-6.9v3.5
		H-3294.6z"/>
	<path class="st0" d="M-3284.2,111.7h6.9V122h6.9v-10.4h6.9v13.8h-3.5v3.5h-3.5v10.4h-6.9v-10.4h-3.5v-3.5h-3.5V111.7z"/>
	<path class="st0" d="M-3235.9,122h20.7v6.9h-20.7V122z"/>
</g>
<g>
	<path class="st30" d="M-3817.3,116.1h20.7v6.9h-20.7V116.1z"/>
	<path class="st30" d="M-3762,133.4h-6.9v-27.6h17.3v3.5h3.5v10.4h-3.5v3.5h-10.4V133.4z M-3762,116.1h6.9v-3.5h-6.9V116.1z"/>
	<path class="st30" d="M-3734.4,123h-3.5v10.4h-6.9v-27.6h17.3v3.5h3.5v10.4h-3.5v3.5h3.5v10.4h-6.9v-6.9h-3.5V123z M-3737.8,116.1
		h6.9v-3.5h-6.9V116.1z"/>
	<path class="st30" d="M-3717.1,130h-3.5v-20.7h3.5v-3.5h17.3v6.9h-13.8v3.5h6.9v6.9h-6.9v3.5h13.8v6.9h-17.3V130z"/>
	<path class="st30" d="M-3696.4,109.2h3.5v-3.5h17.3v6.9h-13.8v3.5h10.4v3.5h3.5V130h-3.5v3.5h-17.3v-6.9h13.8V123h-10.4v-3.5h-3.5
		V109.2z"/>
	<path class="st30" d="M-3672.2,109.2h3.5v-3.5h17.3v6.9h-13.8v3.5h10.4v3.5h3.5V130h-3.5v3.5h-17.3v-6.9h13.8V123h-10.4v-3.5h-3.5
		V109.2z"/>
	<path class="st30" d="M-3616.9,133.4h-6.9v-24.2h3.5v-3.5h13.8v3.5h3.5v24.2h-6.9V123h-6.9V133.4z M-3610,116.1v-3.5h-6.9v3.5
		H-3610z"/>
	<path class="st30" d="M-3589.2,119.6h-3.5v13.8h-6.9v-27.6h6.9v3.5h3.5v3.5h3.5v-6.9h6.9v27.6h-6.9V123h-3.5V119.6z"/>
	<path class="st30" d="M-3575.4,105.8h6.9v10.4h6.9v-10.4h6.9v13.8h-3.5v3.5h-3.5v10.4h-6.9V123h-3.5v-3.5h-3.5V105.8z"/>
	<path class="st30" d="M-3520.1,133.4h-6.9v-27.6h6.9v6.9h3.5v-3.5h3.5v-3.5h6.9v6.9h-3.5v3.5h-3.5v6.9h3.5v3.5h3.5v6.9h-6.9V130
		h-3.5v-3.5h-3.5V133.4z"/>
	<path class="st30" d="M-3499.4,130h-3.5v-20.7h3.5v-3.5h17.3v6.9h-13.8v3.5h6.9v6.9h-6.9v3.5h13.8v6.9h-17.3V130z"/>
	<path class="st30" d="M-3478.6,105.8h6.9v10.4h6.9v-10.4h6.9v13.8h-3.5v3.5h-3.5v10.4h-6.9V123h-3.5v-3.5h-3.5V105.8z"/>
	<path class="st30" d="M-3430.3,105.8h20.7v6.9h-6.9v20.7h-6.9v-20.7h-6.9V105.8z"/>
	<path class="st30" d="M-3406.1,109.2h3.5v-3.5h13.8v3.5h3.5V130h-3.5v3.5h-13.8V130h-3.5V109.2z M-3399.2,126.5h6.9v-13.8h-6.9
		V126.5z"/>
	<path class="st30" d="M-3350.8,133.4h-6.9v-27.6h17.3v3.5h3.5v10.4h-3.5v3.5h-10.4V133.4z M-3350.8,116.1h6.9v-3.5h-6.9V116.1z"/>
	<path class="st30" d="M-3330,130h-3.5v-24.2h6.9v20.7h13.8v6.9h-17.3V130z"/>
	<path class="st30" d="M-3302.4,133.4h-6.9v-24.2h3.5v-3.5h13.8v3.5h3.5v24.2h-6.9V123h-6.9V133.4z M-3295.5,116.1v-3.5h-6.9v3.5
		H-3295.5z"/>
	<path class="st30" d="M-3285.1,105.8h6.9v10.4h6.9v-10.4h6.9v13.8h-3.5v3.5h-3.5v10.4h-6.9V123h-3.5v-3.5h-3.5V105.8z"/>
	<path class="st30" d="M-3236.7,116.1h20.7v6.9h-20.7V116.1z"/>
</g>
<g>
	<path class="st4" d="M-3817.3,111.7h20.7v6.9h-20.7V111.7z"/>
	<path class="st4" d="M-3762,129h-6.9v-27.6h17.3v3.5h3.5v10.4h-3.5v3.5h-10.4V129z M-3762,111.7h6.9v-3.5h-6.9V111.7z"/>
	<path class="st4" d="M-3734.4,118.6h-3.5V129h-6.9v-27.6h17.3v3.5h3.5v10.4h-3.5v3.5h3.5V129h-6.9v-6.9h-3.5V118.6z M-3737.8,111.7
		h6.9v-3.5h-6.9V111.7z"/>
	<path class="st4" d="M-3717.1,125.5h-3.5v-20.7h3.5v-3.5h17.3v6.9h-13.8v3.5h6.9v6.9h-6.9v3.5h13.8v6.9h-17.3V125.5z"/>
	<path class="st4" d="M-3696.4,104.8h3.5v-3.5h17.3v6.9h-13.8v3.5h10.4v3.5h3.5v10.4h-3.5v3.5h-17.3v-6.9h13.8v-3.5h-10.4v-3.5h-3.5
		V104.8z"/>
	<path class="st4" d="M-3672.2,104.8h3.5v-3.5h17.3v6.9h-13.8v3.5h10.4v3.5h3.5v10.4h-3.5v3.5h-17.3v-6.9h13.8v-3.5h-10.4v-3.5h-3.5
		V104.8z"/>
	<path class="st4" d="M-3616.9,129h-6.9v-24.2h3.5v-3.5h13.8v3.5h3.5V129h-6.9v-10.4h-6.9V129z M-3610,111.7v-3.5h-6.9v3.5H-3610z"
		/>
	<path class="st4" d="M-3589.2,115.2h-3.5V129h-6.9v-27.6h6.9v3.5h3.5v3.5h3.5v-6.9h6.9V129h-6.9v-10.4h-3.5V115.2z"/>
	<path class="st4" d="M-3575.4,101.4h6.9v10.4h6.9v-10.4h6.9v13.8h-3.5v3.5h-3.5V129h-6.9v-10.4h-3.5v-3.5h-3.5V101.4z"/>
	<path class="st4" d="M-3520.1,129h-6.9v-27.6h6.9v6.9h3.5v-3.5h3.5v-3.5h6.9v6.9h-3.5v3.5h-3.5v6.9h3.5v3.5h3.5v6.9h-6.9v-3.5h-3.5
		v-3.5h-3.5V129z"/>
	<path class="st4" d="M-3499.4,125.5h-3.5v-20.7h3.5v-3.5h17.3v6.9h-13.8v3.5h6.9v6.9h-6.9v3.5h13.8v6.9h-17.3V125.5z"/>
	<path class="st4" d="M-3478.6,101.4h6.9v10.4h6.9v-10.4h6.9v13.8h-3.5v3.5h-3.5V129h-6.9v-10.4h-3.5v-3.5h-3.5V101.4z"/>
	<path class="st4" d="M-3430.3,101.4h20.7v6.9h-6.9V129h-6.9v-20.7h-6.9V101.4z"/>
	<path class="st4" d="M-3406.1,104.8h3.5v-3.5h13.8v3.5h3.5v20.7h-3.5v3.5h-13.8v-3.5h-3.5V104.8z M-3399.2,122.1h6.9v-13.8h-6.9
		V122.1z"/>
	<path class="st4" d="M-3350.8,129h-6.9v-27.6h17.3v3.5h3.5v10.4h-3.5v3.5h-10.4V129z M-3350.8,111.7h6.9v-3.5h-6.9V111.7z"/>
	<path class="st4" d="M-3330,125.5h-3.5v-24.2h6.9v20.7h13.8v6.9h-17.3V125.5z"/>
	<path class="st4" d="M-3302.4,129h-6.9v-24.2h3.5v-3.5h13.8v3.5h3.5V129h-6.9v-10.4h-6.9V129z M-3295.5,111.7v-3.5h-6.9v3.5
		H-3295.5z"/>
	<path class="st4" d="M-3285.1,101.4h6.9v10.4h6.9v-10.4h6.9v13.8h-3.5v3.5h-3.5V129h-6.9v-10.4h-3.5v-3.5h-3.5V101.4z"/>
	<path class="st4" d="M-3236.7,111.7h20.7v6.9h-20.7V111.7z"/>
</g>
<path class="st31" d="M-1055.5-590.4h-2.2h-10.8h-38.7h-12.9h-1526.6h-12.9h-38.7h-12.9h-12.9v22.6V273v11.3v33.9v11.3v11.3h25.8
	H-1120h12.9h38.7h10.8h2.2h12.9v-931.2H-1055.5z M-1068.4-533.9v818.2v11.3h-12.9v11.3h-12.9v11.3h-12.9h-1552.4h-12.9v-11.3h-12.9
	v-11.3h-12.9v-11.3v-818.2v-11.3h12.9v-11.3h12.9v-11.3h12.9h204.3h135.5h1212.7h12.9v11.3h12.9v11.3h12.9V-533.9z"/>
<polygon class="st32" points="-2335.5,-947.7 -2335.5,-956.4 -2345.4,-956.4 -2702.2,-956.4 -2702.2,-873 -2346.1,-873 
	-2346.1,-881.7 -2345.4,-881.7 -2335.5,-881.7 -2335.5,-888.6 -2335.5,-890.4 -2325.6,-890.4 -2325.6,-897.4 -2325.6,-947.7 "/>
<polygon class="st31" points="-2336,-956.3 -2336,-965.1 -2345.8,-965.1 -2713.2,-965.1 -2713.2,-958.1 -2713.2,-956.3 
	-2723,-956.3 -2723,-906.1 -2713.2,-906.1 -2713.2,-899.1 -2713.2,-899.1 -2713.2,-890.4 -2702.6,-890.4 -2702.6,-881.7 
	-2346.5,-881.7 -2346.5,-890.4 -2345.8,-890.4 -2336,-890.4 -2336,-897.3 -2336,-899.1 -2326.1,-899.1 -2326.1,-906.1 
	-2326.1,-956.3 "/>
<rect x="-2784.9" y="-740.3" class="st13" width="92.2" height="32.8"/>
<text transform="matrix(1 0 0 1 -2763.8118 -722.1316)" class="st4 st38" style="font-size:31.5429px;">DMG</text>
<g>
	<g>
		<polygon class="st22" points="-2585.1,-705.9 -2330.5,-705.9 -2330.5,-723.9 -2585.1,-723.9 -2585.1,-723.8 -2585.1,-718.7 
			-2592.1,-718.7 -2592.1,-711.1 -2585.1,-711.1 -2585.1,-706 		"/>
	</g>
	<polygon class="st22" points="-2321.8,-718.8 -2321.8,-723.9 -2321.8,-723.9 -2377.5,-723.9 -2377.5,-705.9 -2321.8,-705.9 
		-2321.8,-706 -2321.8,-711.1 -2314.9,-711.1 -2314.9,-718.8 	"/>
</g>
<g class="st33">
	<polygon class="st34" points="-1941.6,-492.8 -1941.6,-570.8 -2031.5,-570.8 -2031.5,-560.7 -2041.6,-560.7 -2041.6,-502.9 
		-2031.5,-502.9 -2031.5,-492.8 	"/>
	<polygon class="st34" points="-1706.5,-561.7 -1706.5,-571.8 -1716.6,-571.8 -1798.6,-571.8 -1798.6,-493.8 -1716.6,-493.8 
		-1706.5,-493.8 -1706.5,-503.9 -1696.5,-503.9 -1696.5,-561.7 	"/>
	<rect x="-2021.6" y="-561.8" class="st34" width="305" height="78"/>
</g>
<g>
	<polygon class="st31" points="-1931.6,-492.8 -1931.6,-570.8 -2021.5,-570.8 -2021.5,-560.7 -2031.6,-560.7 -2031.6,-502.9 
		-2021.5,-502.9 -2021.5,-492.8 	"/>
	<polygon class="st31" points="-1941.6,-502.8 -1941.6,-580.8 -2031.5,-580.8 -2031.5,-570.7 -2041.6,-570.7 -2041.6,-512.9 
		-2031.5,-512.9 -2031.5,-502.8 	"/>
	<polygon class="st31" points="-1716.5,-560.7 -1716.5,-570.8 -1726.6,-570.8 -1808.6,-570.8 -1808.6,-492.8 -1726.6,-492.8 
		-1716.5,-492.8 -1716.5,-502.9 -1706.5,-502.9 -1706.5,-560.7 	"/>
	<polygon class="st31" points="-1706.5,-570.7 -1706.5,-580.8 -1716.6,-580.8 -1798.6,-580.8 -1798.6,-502.8 -1716.6,-502.8 
		-1706.5,-502.8 -1706.5,-512.9 -1696.5,-512.9 -1696.5,-570.7 	"/>
	<rect x="-1931.6" y="-570.8" class="st31" width="123" height="78"/>
</g>
<g>
	<polygon class="st35" points="-1931.6,-502.8 -1931.6,-580.8 -2021.5,-580.8 -2021.5,-570.7 -2031.6,-570.7 -2031.6,-512.9 
		-2021.5,-512.9 -2021.5,-502.8 	"/>
	<polygon class="st35" points="-1716.5,-570.7 -1716.5,-580.8 -1726.6,-580.8 -1794.6,-580.8 -1794.6,-502.8 -1726.6,-502.8 
		-1716.5,-502.8 -1716.5,-512.9 -1706.5,-512.9 -1706.5,-570.7 	"/>
</g>
<g class="st33">
	<polygon class="st34" points="-2207.9,-888.4 -2207.9,-958.4 -2288.5,-958.4 -2288.5,-949.4 -2297.6,-949.4 -2297.6,-897.5 
		-2288.5,-897.5 -2288.5,-888.4 	"/>
	<polygon class="st34" points="-1997.1,-950.3 -1997.1,-959.3 -2006.1,-959.3 -2079.6,-959.3 -2079.6,-889.3 -2006.1,-889.3 
		-1997.1,-889.3 -1997.1,-898.4 -1988,-898.4 -1988,-950.3 	"/>
	<rect x="-2279.6" y="-950.3" class="st34" width="273.6" height="70"/>
</g>
<g>
	<polygon class="st31" points="-2198.9,-888.4 -2198.9,-958.4 -2279.6,-958.4 -2279.6,-949.4 -2288.6,-949.4 -2288.6,-897.5 
		-2279.6,-897.5 -2279.6,-888.4 	"/>
	<polygon class="st31" points="-2207.9,-897.4 -2207.9,-967.4 -2288.5,-967.4 -2288.5,-958.3 -2297.6,-958.3 -2297.6,-906.4 
		-2288.5,-906.4 -2288.5,-897.4 	"/>
	<polygon class="st31" points="-2006,-949.4 -2006,-958.4 -2015.1,-958.4 -2088.6,-958.4 -2088.6,-888.4 -2015.1,-888.4 
		-2006,-888.4 -2006,-897.5 -1997,-897.5 -1997,-949.4 	"/>
	<polygon class="st31" points="-1997.1,-958.3 -1997.1,-967.4 -2006.1,-967.4 -2079.6,-967.4 -2079.6,-897.4 -2006.1,-897.4 
		-1997.1,-897.4 -1997.1,-906.4 -1988,-906.4 -1988,-958.3 	"/>
	<rect x="-2198.9" y="-958.4" class="st31" width="110.3" height="70"/>
</g>
<g>
	<polygon class="st35" points="-2198.9,-897.4 -2198.9,-967.4 -2279.6,-967.4 -2279.6,-958.3 -2288.6,-958.3 -2288.6,-906.4 
		-2279.6,-906.4 -2279.6,-897.4 	"/>
	<polygon class="st35" points="-2006,-958.3 -2006,-967.4 -2015.1,-967.4 -2076,-967.4 -2076,-897.4 -2015.1,-897.4 -2006,-897.4 
		-2006,-906.4 -1997,-906.4 -1997,-958.3 	"/>
</g>
<rect x="-1946.6" y="-580.8" class="st35" width="169" height="78"/>
<rect x="-2212.4" y="-967.4" class="st35" width="151.6" height="70"/>
<g>
	<rect x="-1951.6" y="-548.6" class="st13" width="179" height="81.8"/>
	<text transform="matrix(1 0 0 1 -1929.4552 -520.9086)" class="st4 st38" style="font-size:48px;">124 KM</text>
</g>
<g>
	<rect x="-1066" y="-570.8" class="st32" width="8" height="2"/>
	<polygon class="st32" points="-1147,-570.8 -1147,-560.7 -1157,-560.7 -1157,-502.9 -1147.1,-502.9 -1147.1,-492.9 -1147,-492.9 
		-1147,-492.8 -1137.1,-492.8 -1137.1,-482.8 -1082,-482.8 -1082,-570.8 	"/>
</g>
<polygon class="st31" points="-1057,-570.8 -1057,-580.8 -1146.9,-580.8 -1146.9,-570.7 -1157,-570.7 -1157,-512.9 -1147,-512.9 
	-1147,-502.9 -1146.9,-502.9 -1146.9,-502.8 -1136.9,-502.8 -1136.9,-492.8 -1047,-492.8 -1047,-570.8 "/>
<g>
	<g>
		<g>
			<polygon class="st2" points="-1086.9,-559.3 -1092.2,-559.3 -1124.7,-559.3 -1124.7,-553.9 -1130.1,-553.9 -1130.1,-516.1 
				-1124.7,-516.1 -1124.7,-510.8 -1092.2,-510.8 -1086.9,-510.8 -1086.9,-516.1 -1081.6,-516.1 -1081.6,-553.9 -1086.9,-553.9 			
				"/>
			<polygon class="st3" points="-1086.6,-565 -1092,-565 -1124.7,-565 -1124.7,-559.6 -1130.1,-559.6 -1130.1,-521.6 
				-1124.7,-521.6 -1124.7,-516.2 -1092,-516.2 -1086.6,-516.2 -1086.6,-521.6 -1081.3,-521.6 -1081.3,-559.6 -1086.6,-559.6 			"/>
		</g>
		<g>
			<rect x="-1117.1" y="-535.9" class="st4" width="24.2" height="4.8"/>
			<rect x="-1117.1" y="-547.1" class="st4" width="24.2" height="4.8"/>
		</g>
	</g>
	<g class="st33">
		<polygon class="st36" points="-1124.7,-510.6 -1124.7,-505.6 -1119.3,-505.6 -1086.6,-505.6 -1086.6,-510.6 -1119.3,-510.6 		"/>
		<rect x="-1130.1" y="-516" class="st36" width="5.4" height="5"/>
		<rect x="-1086.6" y="-516" class="st36" width="5.4" height="5"/>
	</g>
</g>
<g>
	<g>
		<g>
			<polygon class="st2" points="-1733.4,-948.8 -1737.6,-948.8 -1762.9,-948.8 -1762.9,-944.6 -1767.1,-944.6 -1767.1,-915.1 
				-1762.9,-915.1 -1762.9,-911 -1737.6,-911 -1733.4,-911 -1733.4,-915.1 -1729.2,-915.1 -1729.2,-944.6 -1733.4,-944.6 			"/>
			<polygon class="st3" points="-1733.2,-953.3 -1737.4,-953.3 -1762.9,-953.3 -1762.9,-949.1 -1767.1,-949.1 -1767.1,-919.4 
				-1762.9,-919.4 -1762.9,-915.2 -1737.4,-915.2 -1733.2,-915.2 -1733.2,-919.4 -1729,-919.4 -1729,-949.1 -1733.2,-949.1 			"/>
		</g>
		<g>
			
				<rect x="-1762.3" y="-935.9" transform="matrix(-1.836970e-16 1 -1 -1.836970e-16 -2686.9392 818.8726)" class="st4" width="18.9" height="3.8"/>
			
				<rect x="-1751.6" y="-935.9" transform="matrix(-1.836970e-16 1 -1 -1.836970e-16 -2676.2368 808.1701)" class="st4" width="18.9" height="3.8"/>
		</g>
	</g>
	<g class="st33">
		<polygon class="st36" points="-1762.9,-910.9 -1762.9,-907 -1758.7,-907 -1733.2,-907 -1733.2,-910.9 -1758.7,-910.9 		"/>
		<rect x="-1767.1" y="-915" class="st36" width="4.2" height="3.9"/>
		<rect x="-1733.2" y="-915" class="st36" width="4.2" height="3.9"/>
	</g>
</g>
<polygon class="st22" points="-2558.5,-823.5 -2558.5,-827.3 -2568.1,-827.3 -2568.5,-827.3 -2577.8,-827.3 -2578.1,-827.3 
	-2587.4,-827.3 -2587.8,-827.3 -2597.4,-827.3 -2597.4,-823.5 -2602.2,-823.5 -2602.2,-818.1 -2597.4,-818.1 -2597.4,-814.4 
	-2597.2,-814.4 -2593,-814.4 -2592.1,-814.4 -2587.9,-814.4 -2587.8,-814.4 -2587.5,-814.4 -2587.4,-814.4 -2583.3,-814.4 
	-2582.5,-814.4 -2578.3,-814.4 -2578.1,-814.4 -2577.9,-814.4 -2577.8,-814.4 -2573.7,-814.4 -2572.9,-814.4 -2568.7,-814.4 
	-2568.5,-814.4 -2568.3,-814.4 -2568.1,-814.4 -2564.1,-814.4 -2563.2,-814.4 -2559,-814.4 -2558.5,-814.4 -2558.5,-818 -2554,-818 
	-2554,-823.5 "/>
<polygon class="st22" points="-2551.8,-1060.4 -2551.8,-1064.1 -2561.4,-1064.1 -2561.8,-1064.1 -2571.1,-1064.1 -2571.4,-1064.1 
	-2580.7,-1064.1 -2581.1,-1064.1 -2590.7,-1064.1 -2590.7,-1060.4 -2595.5,-1060.4 -2595.5,-1054.9 -2590.7,-1054.9 
	-2590.7,-1051.2 -2590.5,-1051.2 -2586.2,-1051.2 -2585.4,-1051.2 -2581.2,-1051.2 -2581.1,-1051.2 -2580.8,-1051.2 
	-2580.7,-1051.2 -2576.6,-1051.2 -2575.8,-1051.2 -2571.6,-1051.2 -2571.4,-1051.2 -2571.2,-1051.2 -2571.1,-1051.2 -2567,-1051.2 
	-2566.2,-1051.2 -2562,-1051.2 -2561.8,-1051.2 -2561.6,-1051.2 -2561.4,-1051.2 -2557.4,-1051.2 -2556.5,-1051.2 -2552.3,-1051.2 
	-2551.8,-1051.2 -2551.8,-1054.9 -2547.3,-1054.9 -2547.3,-1060.4 "/>
<polygon class="st37" points="-2397.9,-1060.4 -2397.9,-1064.1 -2407.6,-1064.1 -2407.9,-1064.1 -2417.2,-1064.1 -2417.6,-1064.1 
	-2426.8,-1064.1 -2427.2,-1064.1 -2436.2,-1064.1 -2436.8,-1064.1 -2445.9,-1064.1 -2446.2,-1064.1 -2455.5,-1064.1 
	-2455.9,-1064.1 -2465.1,-1064.1 -2465.5,-1064.1 -2474.7,-1064.1 -2475.1,-1064.1 -2484.4,-1064.1 -2484.7,-1064.1 -2494,-1064.1 
	-2494.4,-1064.1 -2503.6,-1064.1 -2504,-1064.1 -2513.3,-1064.1 -2513.6,-1064.1 -2522.9,-1064.1 -2523.3,-1064.1 -2532.5,-1064.1 
	-2532.9,-1064.1 -2542.2,-1064.1 -2542.5,-1064.1 -2551.8,-1064.1 -2552.2,-1064.1 -2561.4,-1064.1 -2561.8,-1064.1 
	-2571.1,-1064.1 -2571.4,-1064.1 -2580.7,-1064.1 -2581.1,-1064.1 -2590.7,-1064.1 -2590.7,-1060.4 -2595.5,-1060.4 
	-2595.5,-1054.9 -2590.7,-1054.9 -2590.7,-1051.2 -2590.4,-1051.2 -2586.2,-1051.2 -2585.4,-1051.2 -2581.2,-1051.2 
	-2581.1,-1051.2 -2580.8,-1051.2 -2580.7,-1051.2 -2576.6,-1051.2 -2575.8,-1051.2 -2571.6,-1051.2 -2571.4,-1051.2 
	-2571.2,-1051.2 -2571.1,-1051.2 -2567,-1051.2 -2566.2,-1051.2 -2562,-1051.2 -2561.8,-1051.2 -2561.6,-1051.2 -2561.4,-1051.2 
	-2557.4,-1051.2 -2556.5,-1051.2 -2552.3,-1051.2 -2552.2,-1051.2 -2551.9,-1051.2 -2551.8,-1051.2 -2547.7,-1051.2 
	-2546.9,-1051.2 -2542.7,-1051.2 -2542.5,-1051.2 -2542.3,-1051.2 -2542.2,-1051.2 -2538.1,-1051.2 -2537.3,-1051.2 
	-2533.1,-1051.2 -2532.9,-1051.2 -2532.7,-1051.2 -2532.5,-1051.2 -2528.5,-1051.2 -2527.6,-1051.2 -2523.4,-1051.2 
	-2523.3,-1051.2 -2523,-1051.2 -2522.9,-1051.2 -2518.8,-1051.2 -2518,-1051.2 -2513.8,-1051.2 -2513.6,-1051.2 -2513.4,-1051.2 
	-2513.3,-1051.2 -2509.2,-1051.2 -2508.4,-1051.2 -2504.2,-1051.2 -2504,-1051.2 -2503.8,-1051.2 -2503.6,-1051.2 -2499.6,-1051.2 
	-2498.7,-1051.2 -2494.5,-1051.2 -2494.4,-1051.2 -2494.1,-1051.2 -2494,-1051.2 -2489.9,-1051.2 -2489.1,-1051.2 -2484.9,-1051.2 
	-2484.7,-1051.2 -2484.5,-1051.2 -2484.4,-1051.2 -2480.3,-1051.2 -2479.5,-1051.2 -2475.3,-1051.2 -2475.1,-1051.2 
	-2474.9,-1051.2 -2474.7,-1051.2 -2470.7,-1051.2 -2469.8,-1051.2 -2465.6,-1051.2 -2465.5,-1051.2 -2465.2,-1051.2 
	-2465.1,-1051.2 -2461,-1051.2 -2460.2,-1051.2 -2456,-1051.2 -2455.9,-1051.2 -2455.6,-1051.2 -2455.5,-1051.2 -2451.4,-1051.2 
	-2450.6,-1051.2 -2446.4,-1051.2 -2446.2,-1051.2 -2446,-1051.2 -2445.9,-1051.2 -2441.8,-1051.2 -2441,-1051.2 -2436.8,-1051.2 
	-2436.7,-1051.2 -2436.6,-1051.2 -2436.2,-1051.2 -2432.4,-1051.2 -2431.5,-1051.2 -2427.3,-1051.2 -2427.2,-1051.2 
	-2426.9,-1051.2 -2426.8,-1051.2 -2422.7,-1051.2 -2421.9,-1051.2 -2417.7,-1051.2 -2417.6,-1051.2 -2417.3,-1051.2 
	-2417.2,-1051.2 -2413.1,-1051.2 -2412.3,-1051.2 -2408.1,-1051.2 -2407.9,-1051.2 -2407.7,-1051.2 -2407.6,-1051.2 
	-2403.5,-1051.2 -2402.7,-1051.2 -2398.4,-1051.2 -2397.9,-1051.2 -2397.9,-1054.9 -2393.4,-1054.9 -2393.4,-1060.4 "/>
<g>
	<polygon class="st31" points="-846.9,318.2 -841.6,318.2 -828.7,318.2 -828.7,306.9 -815.8,306.9 -815.8,295.6 -802.9,295.6 
		-802.9,284.3 -802.9,270.9 -777.1,270.9 -777.1,273 -777.1,284.3 -777.1,318.2 -777.1,329.5 -777.1,340.8 -802.9,340.8 
		-846.9,340.8 	"/>
</g>
<g>
	<polygon class="st31" points="-780.7,271 -780.7,276.3 -780.7,289.2 -769.4,289.2 -769.4,302.1 -758.1,302.1 -758.1,315 
		-746.8,315 -733.5,315 -733.5,340.8 -735.5,340.8 -746.8,340.8 -780.7,340.8 -792,340.8 -803.3,340.8 -803.3,315 -803.3,271 	"/>
</g>
<g>
	<polygon class="st31" points="-832.9,318.2 -832.9,323.5 -832.9,336.4 -821.6,336.4 -821.6,349.3 -810.3,349.3 -810.3,362.2 
		-799,362.2 -785.6,362.2 -785.6,388 -787.7,388 -799,388 -832.9,388 -844.2,388 -855.5,388 -855.5,362.2 -855.5,318.2 	"/>
</g>
<g>
	<polygon class="st31" points="-914.1,318.2 -919.4,318.2 -932.3,318.2 -932.3,306.9 -945.2,306.9 -945.2,295.6 -958.1,295.6 
		-958.1,284.3 -958.1,270.9 -983.9,270.9 -983.9,273 -983.9,284.3 -983.9,318.2 -983.9,329.5 -983.9,340.8 -958.1,340.8 
		-914.1,340.8 	"/>
</g>
<g>
	<polygon class="st31" points="-858.7,365.4 -864,365.4 -876.9,365.4 -876.9,354.1 -889.8,354.1 -889.8,342.8 -902.7,342.8 
		-902.7,331.5 -902.7,318.2 -928.5,318.2 -928.5,320.2 -928.5,331.5 -928.5,365.4 -928.5,376.7 -928.5,388 -902.7,388 -858.7,388 	
		"/>
</g>
<g>
	<polygon class="st31" points="-981.1,281.8 -981.1,287.1 -981.1,300 -992.4,300 -992.4,312.9 -1003.7,312.9 -1003.7,325.8 
		-1015,325.8 -1028.4,325.8 -1028.4,351.6 -1026.3,351.6 -1015,351.6 -981.1,351.6 -969.8,351.6 -958.6,351.6 -958.6,325.8 
		-958.6,281.8 	"/>
</g>
<polygon class="st32" points="-1807.2,-940.5 -1807.2,-949.4 -1807.3,-949.4 -1807.3,-949.5 -1816.2,-949.5 -1816.2,-958.5 
	-1844.1,-958.5 -1851.3,-958.5 -1865.7,-958.5 -1924,-958.5 -1924,-949.4 -1933,-949.4 -1933,-897.5 -1924.1,-897.5 -1924.1,-888.5 
	-1924,-888.5 -1924,-888.5 -1915.1,-888.5 -1915.1,-879.5 -1865.7,-879.5 -1864.8,-879.5 -1864.8,-888.5 -1843.1,-888.5 
	-1843.1,-879.5 -1807.3,-879.5 -1807.3,-888.5 -1798.4,-888.5 -1798.4,-940.5 "/>
<polygon class="st31" points="-1843.2,-958.5 -1843.2,-967.4 -1923.9,-967.4 -1923.9,-958.4 -1933,-958.4 -1933,-906.5 
	-1924,-906.5 -1924,-897.5 -1923.9,-897.5 -1923.9,-897.5 -1914.9,-897.5 -1914.9,-888.5 -1834.2,-888.5 -1834.2,-958.5 "/>
<g>
	<polygon class="st7" points="279.5,-523.8 263,-523.8 263,-531.8 246.4,-531.8 246.4,-540.5 -465.6,-540.5 -465.6,-531.8 
		-482.1,-531.8 -482.1,-523.8 -498.6,-523.8 -498.6,-55.9 -482.1,-55.9 -482.1,-47.9 -465.6,-47.9 -465.6,-39.2 246.4,-39.2 
		246.4,-47.9 263,-47.9 263,-55.9 279.5,-55.9 	"/>
	<polygon class="st8" points="279.5,-532 263,-532 263,-540 246.4,-540 246.4,-548.7 -465.6,-548.7 -465.6,-540 -482.1,-540 
		-482.1,-532 -498.6,-532 -498.6,-64.1 -482.1,-64.1 -482.1,-56.1 -465.6,-56.1 -465.6,-47.4 246.4,-47.4 246.4,-56.1 263,-56.1 
		263,-64.1 279.5,-64.1 	"/>
</g>
<g>
	<g>
		<polygon class="st20" points="356.1,-425.6 356.1,-248.6 369.6,-248.6 369.6,-238.3 383.1,-238.3 383.1,-227 964.7,-227 
			964.7,-238.3 978.2,-238.3 978.2,-248.6 991.7,-248.6 991.7,-425.6 		"/>
		<polygon class="st20" points="991.7,-425.6 991.7,-527.5 978.2,-527.5 978.2,-537.7 964.7,-537.7 964.7,-549.1 383.1,-549.1 
			383.1,-537.7 369.6,-537.7 369.6,-527.5 356.1,-527.5 356.1,-425.6 		"/>
	</g>
	<g>
		<polygon class="st21" points="369.6,-527.3 383.1,-527.3 383.1,-537.7 369.6,-537.7 369.6,-527.5 356.1,-527.5 356.1,-517.1 
			369.6,-517.1 		"/>
		<rect x="383.1" y="-549.1" class="st21" width="581.6" height="10.4"/>
		<polygon class="st21" points="978.2,-527.5 978.2,-537.7 964.7,-537.7 964.7,-527.3 978.2,-527.3 978.2,-517.1 991.7,-517.1 
			991.7,-527.5 		"/>
	</g>
</g>
<g>
	<polygon class="st2" points="-226.1,9.3 -233,9.3 -491.7,9.3 -491.7,16.3 -498.6,16.3 -498.6,56.2 -491.7,56.2 -491.7,63.1 
		-233,63.1 -226.1,63.1 -226.1,56.2 -219.1,56.2 -219.1,16.3 -226.1,16.3 	"/>
	<polygon class="st3" points="-226.1,2.4 -233,2.4 -491.7,2.4 -491.7,9.4 -498.6,9.4 -498.6,49.3 -491.7,49.3 -491.7,56.2 
		-233,56.2 -226.1,56.2 -226.1,49.3 -219.1,49.3 -219.1,9.4 -226.1,9.4 	"/>
	<rect x="-497.9" y="18.4" class="st13" width="278.7" height="56.4"/>
	<text transform="matrix(1 0 0 1 -459.8983 37.5176)" class="st4 st38 st39">BACK TO MENU</text>
</g>
<g>
	<polygon class="st2" points="272.5,6.9 265.6,6.9 6.9,6.9 6.9,13.8 0,13.8 0,53.8 6.9,53.8 6.9,60.7 265.6,60.7 272.5,60.7 
		272.5,53.8 279.5,53.8 279.5,13.8 272.5,13.8 	"/>
	<polygon class="st3" points="272.5,0 265.6,0 6.9,0 6.9,6.9 0,6.9 0,46.9 6.9,46.9 6.9,53.8 265.6,53.8 272.5,53.8 272.5,46.9 
		279.5,46.9 279.5,6.9 272.5,6.9 	"/>
	<rect x="0.7" y="16" class="st13" width="278.7" height="56.4"/>
	<text transform="matrix(1 0 0 1 64.9478 35.1028)" class="st4 st38 st39">TRY AGAIN</text>
</g>
</svg>
