<?xml version="1.0" encoding="utf-8"?>
<!-- Generator: Adobe Illustrator 22.0.1, SVG Export Plug-In . SVG Version: 6.00 Build 0)  -->
<svg version="1.1" id="Layer_1" xmlns="http://www.w3.org/2000/svg" xmlns:xlink="http://www.w3.org/1999/xlink" x="0px" y="0px"
	 width="279.5px" height="60.9px" viewBox="0 0 279.5 60.9" style="enable-background:new 0 0 279.5 60.9;" xml:space="preserve">
<style type="text/css">
	.st0{fill:#5895B7;}
	.st1{opacity:0.8;}
	.st2{fill:#C17620;}
	.st3{fill:#F4C24A;}
	.st4{fill:#FFFFFF;}
	.st5{fill:#2A6FBA;}
	.st6{fill:#4ABAEF;}
	.st7{fill:#95C9C8;}
	.st8{fill:#DDEFEE;}
	.st9{fill:#1B8E6F;}
	.st10{fill:#3CEA8A;}
	.st11{opacity:0.4;fill:#666666;}
	.st12{fill:#33BC6E;}
	.st13{fill:none;}
	.st14{fill:#7149A4;}
	.st15{fill:#BD86E0;}
	.st16{opacity:0.4;fill:#666666;stroke:#666666;stroke-width:4;stroke-linejoin:bevel;stroke-miterlimit:10;}
	.st17{fill:#F2F2F2;}
	.st18{fill:#E6E6E6;}
	.st19{fill:none;stroke:#000000;stroke-width:4;stroke-linejoin:bevel;stroke-miterlimit:10;}
	.st20{fill:#C6E0DE;}
	.st21{fill:#A7C6C3;}
	.st22{fill:#910E46;}
	.st23{fill:#EE3D53;}
	.st24{fill:none;stroke:#000000;stroke-width:2;stroke-miterlimit:10;}
	.st25{fill:#A17559;}
	.st26{fill:#238D6F;}
	.st27{fill:#704CA2;}
	.st28{fill:#47E88D;}
	.st29{fill:#BC88DE;}
	.st30{fill:#CCCCCC;}
	.st31{fill:#5B2616;}
	.st32{opacity:0.38;fill:#2D3D3E;}
	.st33{opacity:0.38;}
	.st34{fill:#2D3D3E;}
	.st35{fill:#3F180F;}
	.st36{fill:#1A1A1A;}
	.st37{fill:#38140C;}
</style>
<g>
	<rect x="-3672.1" y="1157.9" class="st0" width="484" height="82"/>
	<rect x="-3220.1" y="1231.9" class="st0" width="107" height="30"/>
	<g class="st1">
		<g>
			<polygon class="st0" points="-3656.1,1177.9 -3656.1,1259.9 -3752.1,1259.9 -3752.1,1248.9 -3740.1,1248.9 -3740.1,1236.9 
				-3728.1,1236.9 -3728.1,1224.9 -3716.1,1224.9 -3716.1,1212.9 -3728.1,1212.9 -3728.1,1200.9 -3740.1,1200.9 -3740.1,1188.9 
				-3752.1,1188.9 -3752.1,1177.9 			"/>
		</g>
		<polygon class="st0" points="-3670.1,1235.9 -3656.1,1258.9 -3656.2,1235.9 		"/>
	</g>
	<g>
		<g>
			<polygon class="st2" points="-3209.1,1169.9 -3209.1,1251.9 -3113.1,1251.9 -3113.1,1240.9 -3125.1,1240.9 -3125.1,1228.9 
				-3137.1,1228.9 -3137.1,1216.9 -3149.1,1216.9 -3149.1,1204.9 -3137.1,1204.9 -3137.1,1192.9 -3125.1,1192.9 -3125.1,1180.9 
				-3113.1,1180.9 -3113.1,1169.9 			"/>
			<polygon class="st3" points="-3209.1,1158.9 -3209.1,1240.9 -3113.1,1240.9 -3113.1,1229.9 -3125.1,1229.9 -3125.1,1217.9 
				-3137.1,1217.9 -3137.1,1205.9 -3149.1,1205.9 -3149.1,1193.9 -3137.1,1193.9 -3137.1,1181.9 -3125.1,1181.9 -3125.1,1169.9 
				-3113.1,1169.9 -3113.1,1158.9 			"/>
		</g>
		<polygon class="st2" points="-3195.1,1227.9 -3209.1,1250.9 -3209.1,1227.9 		"/>
		<g>
			<g>
				<polygon class="st2" points="-3665.1,1169.9 -3665.1,1251.9 -3761.1,1251.9 -3761.1,1240.9 -3749.1,1240.9 -3749.1,1228.9 
					-3737.1,1228.9 -3737.1,1216.9 -3725.1,1216.9 -3725.1,1204.9 -3737.1,1204.9 -3737.1,1192.9 -3749.1,1192.9 -3749.1,1180.9 
					-3761.1,1180.9 -3761.1,1169.9 				"/>
				<polygon class="st3" points="-3665.1,1158.9 -3665.1,1240.9 -3761.1,1240.9 -3761.1,1229.9 -3749.1,1229.9 -3749.1,1217.9 
					-3737.1,1217.9 -3737.1,1205.9 -3725.1,1205.9 -3725.1,1193.9 -3737.1,1193.9 -3737.1,1181.9 -3749.1,1181.9 -3749.1,1169.9 
					-3761.1,1169.9 -3761.1,1158.9 				"/>
			</g>
			<polygon class="st2" points="-3679.1,1227.9 -3665.1,1250.9 -3665.2,1227.9 			"/>
		</g>
		<g>
			<rect x="-3679.1" y="1145.9" class="st2" width="484" height="82"/>
			<rect x="-3679.1" y="1133.9" class="st3" width="484" height="82"/>
		</g>
	</g>
	<g>
		<path class="st4" d="M-3608.5,1193.7h-8.6v-34.6h8.6v13h8.6v-13h8.6v34.6h-8.6v-13h-8.6V1193.7z"/>
		<path class="st4" d="M-3586.9,1163.5h4.3v-4.3h17.3v4.3h4.3v25.9h-4.3v4.3h-17.3v-4.3h-4.3V1163.5z M-3578.2,1185.1h8.6v-17.3
			h-8.6V1185.1z"/>
		<path class="st4" d="M-3548,1193.7h-8.6v-34.6h8.6v17.3h4.3v-4.3h4.3v4.3h4.3v-17.3h8.6v34.6h-8.6v-4.3h-4.3v-4.3h-4.3v4.3h-4.3
			V1193.7z"/>
		<path class="st4" d="M-3491.8,1159.1h25.9v8.6h-8.6v25.9h-8.6v-25.9h-8.6V1159.1z"/>
		<path class="st4" d="M-3461.6,1163.5h4.3v-4.3h17.3v4.3h4.3v25.9h-4.3v4.3h-17.3v-4.3h-4.3V1163.5z M-3453,1185.1h8.6v-17.3h-8.6
			V1185.1z"/>
		<path class="st4" d="M-3392.5,1193.7h-8.6v-34.6h21.6v4.3h4.3v13h-4.3v4.3h-13V1193.7z M-3392.5,1172.1h8.6v-4.3h-8.6V1172.1z"/>
		<path class="st4" d="M-3366.6,1189.4h-4.3v-30.2h8.6v25.9h17.3v8.6h-21.6V1189.4z"/>
		<path class="st4" d="M-3332,1193.7h-8.6v-30.2h4.3v-4.3h17.3v4.3h4.3v30.2h-8.6v-13h-8.6V1193.7z M-3323.4,1172.1v-4.3h-8.6v4.3
			H-3323.4z"/>
		<path class="st4" d="M-3310.4,1159.1h8.6v13h8.6v-13h8.6v17.3h-4.3v4.3h-4.3v13h-8.6v-13h-4.3v-4.3h-4.3V1159.1z"/>
	</g>
</g>
<polygon class="st5" points="-3503.1,1426.9 -3515.1,1426.9 -3588.1,1426.9 -3588.1,1438.9 -3600.1,1438.9 -3600.1,1523.9 
	-3588.1,1523.9 -3588.1,1535.9 -3515.1,1535.9 -3503.1,1535.9 -3503.1,1523.9 -3491.1,1523.9 -3491.1,1438.9 -3503.1,1438.9 "/>
<polygon class="st5" points="-3503.1,1426.9 -3515.1,1426.9 -3588.1,1426.9 -3588.1,1438.9 -3600.1,1438.9 -3600.1,1523.9 
	-3588.1,1523.9 -3588.1,1535.9 -3515.1,1535.9 -3503.1,1535.9 -3503.1,1523.9 -3491.1,1523.9 -3491.1,1438.9 -3503.1,1438.9 "/>
<g>
	<path class="st4" d="M-3563.5,1461.1h28.4v5.7h5.7v17.1h-5.7v5.7h-17.1v-11.4h11.4v-5.7h-22.8V1461.1z M-3552.1,1495.3h11.4v11.4
		h-11.4V1495.3z"/>
</g>
<polygon class="st5" points="-3352.1,1426.9 -3364.1,1426.9 -3437.1,1426.9 -3437.1,1438.9 -3449.1,1438.9 -3449.1,1523.9 
	-3437.1,1523.9 -3437.1,1535.9 -3364.1,1535.9 -3352.1,1535.9 -3352.1,1523.9 -3340.1,1523.9 -3340.1,1438.9 -3352.1,1438.9 "/>
<polygon class="st6" points="-3352.1,1416.9 -3364.1,1416.9 -3437.1,1416.9 -3437.1,1428.9 -3449.1,1428.9 -3449.1,1513.9 
	-3437.1,1513.9 -3437.1,1525.9 -3364.1,1525.9 -3352.1,1525.9 -3352.1,1513.9 -3340.1,1513.9 -3340.1,1428.9 -3352.1,1428.9 "/>
<g>
	<path class="st4" d="M-3412.5,1451.1h28.4v5.7h5.7v17.1h-5.7v5.7h-17.1v-11.4h11.4v-5.7h-22.8V1451.1z M-3401.1,1485.3h11.4v11.4
		h-11.4V1485.3z"/>
</g>
<g>
	<polygon class="st0" points="-2317.1,1271.5 -2328.7,1271.5 -2328.7,1259.8 -2340.2,1259.8 -2340.2,1247 -2839,1247 -2839,1259.8 
		-2850.5,1259.8 -2850.5,1271.5 -2862.1,1271.5 -2862.1,1956.2 -2850.5,1956.2 -2850.5,1967.8 -2839,1967.8 -2839,1980.6 
		-2340.2,1980.6 -2340.2,1967.8 -2328.7,1967.8 -2328.7,1956.2 -2317.1,1956.2 	"/>
	<polygon class="st7" points="-2317.1,1259.4 -2328.7,1259.4 -2328.7,1247.8 -2340.2,1247.8 -2340.2,1235 -2839,1235 -2839,1247.8 
		-2850.5,1247.8 -2850.5,1259.4 -2862.1,1259.4 -2862.1,1944.1 -2850.5,1944.1 -2850.5,1955.8 -2839,1955.8 -2839,1968.6 
		-2340.2,1968.6 -2340.2,1955.8 -2328.7,1955.8 -2328.7,1944.1 -2317.1,1944.1 	"/>
	<polygon class="st8" points="-2317.1,1247.4 -2328.7,1247.4 -2328.7,1235.8 -2340.2,1235.8 -2340.2,1223 -2839,1223 -2839,1235.8 
		-2850.5,1235.8 -2850.5,1247.4 -2862.1,1247.4 -2862.1,1932.1 -2850.5,1932.1 -2850.5,1943.8 -2839,1943.8 -2839,1956.6 
		-2340.2,1956.6 -2340.2,1943.8 -2328.7,1943.8 -2328.7,1932.1 -2317.1,1932.1 	"/>
</g>
<g>
	<polygon class="st0" points="-3803.1,-721.1 -3807.2,-721.1 -3807.2,-725.2 -3811.2,-725.2 -3811.2,-729.8 -3987.5,-729.8 
		-3987.5,-725.2 -3991.6,-725.2 -3991.6,-721.1 -3995.6,-721.1 -3995.6,-479.2 -3991.6,-479.2 -3991.6,-475.1 -3987.5,-475.1 
		-3987.5,-470.5 -3811.2,-470.5 -3811.2,-475.1 -3807.2,-475.1 -3807.2,-479.2 -3803.1,-479.2 	"/>
	<polygon class="st7" points="-3803.1,-725.4 -3807.2,-725.4 -3807.2,-729.5 -3811.2,-729.5 -3811.2,-734 -3987.5,-734 
		-3987.5,-729.5 -3991.6,-729.5 -3991.6,-725.4 -3995.6,-725.4 -3995.6,-483.4 -3991.6,-483.4 -3991.6,-479.3 -3987.5,-479.3 
		-3987.5,-474.8 -3811.2,-474.8 -3811.2,-479.3 -3807.2,-479.3 -3807.2,-483.4 -3803.1,-483.4 	"/>
	<polygon class="st8" points="-3803.1,-729.6 -3807.2,-729.6 -3807.2,-733.7 -3811.2,-733.7 -3811.2,-738.3 -3987.5,-738.3 
		-3987.5,-733.7 -3991.6,-733.7 -3991.6,-729.6 -3995.6,-729.6 -3995.6,-487.7 -3991.6,-487.7 -3991.6,-483.6 -3987.5,-483.6 
		-3987.5,-479 -3811.2,-479 -3811.2,-483.6 -3807.2,-483.6 -3807.2,-487.7 -3803.1,-487.7 	"/>
</g>
<g>
	<polygon class="st9" points="-3366.1,907 -3376.1,907 -3751,907 -3751,917 -3761.1,917 -3761.1,974.9 -3751,974.9 -3751,985 
		-3376.1,985 -3366.1,985 -3366.1,974.9 -3356,974.9 -3356,917 -3366.1,917 	"/>
	<polygon class="st10" points="-3366.1,897 -3376.1,897 -3751,897 -3751,907 -3761.1,907 -3761.1,964.9 -3751,964.9 -3751,975 
		-3376.1,975 -3366.1,975 -3366.1,964.9 -3356,964.9 -3356,907 -3366.1,907 	"/>
	<g>
		<path class="st4" d="M-3641,947.8h-6.9v-27.6h17.3v3.5h3.5V934h-3.5v3.5h-10.4V947.8z M-3641,930.6h6.9v-3.5h-6.9V930.6z"/>
		<path class="st4" d="M-3620.3,944.4h-3.5v-24.2h6.9v20.7h13.8v6.9h-17.3V944.4z"/>
		<path class="st4" d="M-3592.7,947.8h-6.9v-24.2h3.5v-3.5h13.8v3.5h3.5v24.2h-6.9v-10.4h-6.9V947.8z M-3585.8,930.6v-3.5h-6.9v3.5
			H-3585.8z"/>
		<path class="st4" d="M-3575.4,920.2h6.9v10.4h6.9v-10.4h6.9V934h-3.5v3.5h-3.5v10.4h-6.9v-10.4h-3.5V934h-3.5V920.2z"/>
		<path class="st4" d="M-3547.7,944.4h-3.5v-20.7h3.5v-3.5h17.3v6.9h-13.8v3.5h6.9v6.9h-6.9v3.5h13.8v6.9h-17.3V944.4z"/>
		<path class="st4" d="M-3516.6,937.5h-3.5v10.4h-6.9v-27.6h17.3v3.5h3.5V934h-3.5v3.5h3.5v10.4h-6.9v-6.9h-3.5V937.5z
			 M-3520.1,930.6h6.9v-3.5h-6.9V930.6z"/>
		<path class="st4" d="M-3478.6,920.2h6.9v27.6h-6.9V920.2z"/>
	</g>
</g>
<g>
	<polygon class="st11" points="-3726.9,786.4 -3728.9,780.6 -3732.9,768.6 -3750.7,774.6 -3748.8,780.4 -3754.6,782.3 
		-3750.5,794.3 -3744.7,792.4 -3742.8,798.2 -3730.7,794.1 -3732.7,788.3 	"/>
	<polygon class="st11" points="-3688.1,774.3 -3690.1,768.5 -3694.2,756.5 -3711.9,762.5 -3710,768.3 -3715.8,770.3 -3711.7,782.3 
		-3705.9,780.3 -3704,786.1 -3691.9,782 -3693.9,776.2 	"/>
	<rect x="-3747.7" y="727.3" transform="matrix(0.9472 -0.3207 0.3207 0.9472 -437.2581 -1161.399)" width="7.1" height="38.6"/>
	<polygon points="-3728.6,781.5 -3730.5,775.8 -3734.6,763.8 -3752.4,769.8 -3750.4,775.6 -3756.2,777.5 -3752.1,789.5 
		-3746.3,787.6 -3744.4,793.3 -3732.4,789.3 -3734.3,783.5 	"/>
	<rect x="-3709.2" y="714.3" transform="matrix(0.9472 -0.3207 0.3207 0.9472 -431.0481 -1149.7493)" width="7.1" height="38.6"/>
	<polygon points="-3690.1,768.5 -3692,762.8 -3696.1,750.7 -3713.9,756.8 -3711.9,762.5 -3717.7,764.5 -3713.6,776.5 -3707.9,774.5 
		-3705.9,780.3 -3693.9,776.2 -3695.9,770.5 	"/>
	<rect x="-3757.7" y="705" transform="matrix(0.9472 -0.3207 0.3207 0.9472 -426.1439 -1159.8435)" width="47.7" height="17.3"/>
</g>
<g>
	<polygon class="st11" points="-3660.7,819.9 -3659.8,815.8 -3657.9,807.1 -3670.7,804.3 -3671.6,808.5 -3675.8,807.6 
		-3677.7,816.2 -3673.5,817.1 -3674.4,821.3 -3665.8,823.2 -3664.9,819 	"/>
	<polygon class="st11" points="-3633.2,826.7 -3632.3,822.6 -3630.4,813.9 -3643.2,811.1 -3644.1,815.3 -3648.2,814.3 -3650.1,823 
		-3646,823.9 -3646.9,828 -3638.3,830 -3637.4,825.8 	"/>
	<rect x="-3659.1" y="776.6" transform="matrix(0.9766 0.2149 -0.2149 0.9766 84.3402 804.2305)" width="5" height="26.9"/>
	<polygon points="-3660,816.5 -3659,812.3 -3657.1,803.7 -3669.9,800.9 -3670.8,805 -3675,804.1 -3676.9,812.8 -3672.7,813.7 
		-3673.7,817.8 -3665,819.7 -3664.1,815.6 	"/>
	<rect x="-3631.5" y="782.6" transform="matrix(0.9766 0.2149 -0.2149 0.9766 86.2943 798.4285)" width="5" height="26.9"/>
	<polygon points="-3632.3,822.6 -3631.4,818.4 -3629.5,809.8 -3642.3,807 -3643.2,811.1 -3647.3,810.2 -3649.2,818.8 -3645.1,819.8 
		-3646,823.9 -3637.4,825.8 -3636.4,821.7 	"/>
	<rect x="-3655.3" y="768" transform="matrix(0.9766 0.2149 -0.2149 0.9766 81.3283 799.9861)" width="33.3" height="12"/>
</g>
<g>
	<polygon class="st11" points="-3584.7,758.1 -3585.4,755.1 -3586.8,748.7 -3596.2,750.8 -3595.5,753.9 -3598.5,754.6 
		-3597.1,760.9 -3594.1,760.2 -3593.4,763.3 -3587.1,761.9 -3587.7,758.8 	"/>
	<polygon class="st11" points="-3564.3,754.1 -3564.9,751.1 -3566.4,744.7 -3575.8,746.8 -3575.1,749.9 -3578.1,750.6 
		-3576.7,756.9 -3573.7,756.2 -3573,759.3 -3566.6,757.9 -3567.3,754.8 	"/>
	<rect x="-3593.1" y="727.1" transform="matrix(0.9761 -0.2173 0.2173 0.9761 -245.9355 -762.7299)" width="3.6" height="19.8"/>
	<polygon points="-3585.3,755.6 -3585.9,752.6 -3587.3,746.2 -3596.7,748.3 -3596.1,751.3 -3599.1,752 -3597.7,758.4 -3594.6,757.7 
		-3594,760.7 -3587.6,759.3 -3588.3,756.3 	"/>
	<rect x="-3572.8" y="722.6" transform="matrix(0.9761 -0.2173 0.2173 0.9761 -244.468 -758.4252)" width="3.6" height="19.8"/>
	<polygon points="-3564.9,751.1 -3565.6,748 -3567,741.7 -3576.4,743.8 -3575.8,746.8 -3578.8,747.5 -3577.4,753.9 -3574.3,753.2 
		-3573.7,756.2 -3567.3,754.8 -3568,751.8 	"/>
	<rect x="-3596.4" y="716.3" transform="matrix(0.9761 -0.2173 0.2173 0.9761 -242.2423 -761.5865)" width="24.4" height="8.8"/>
</g>
<g>
	<polygon class="st11" points="-3564.1,803.9 -3561.5,799.8 -3556,791.2 -3568.7,783.2 -3571.3,787.3 -3575.4,784.7 -3580.9,793.2 
		-3576.8,795.8 -3579.4,800 -3570.8,805.4 -3568.2,801.3 	"/>
	<polygon class="st11" points="-3537.1,822 -3534.5,817.9 -3529,809.3 -3541.7,801.3 -3544.3,805.4 -3548.4,802.8 -3553.9,811.3 
		-3549.8,814 -3552.4,818.1 -3543.8,823.5 -3541.2,819.4 	"/>
	<rect x="-3550.8" y="757.8" transform="matrix(0.844 0.5363 -0.5363 0.844 -138.7099 2023.4133)" width="5.7" height="30.9"/>
	<polygon points="-3561.9,800.5 -3559.3,796.4 -3553.8,787.8 -3566.5,779.7 -3569.1,783.8 -3573.3,781.2 -3578.7,789.8 
		-3574.6,792.4 -3577.2,796.5 -3568.6,802 -3566,797.9 	"/>
	<rect x="-3523.4" y="775.2" transform="matrix(0.844 0.5363 -0.5363 0.844 -125.0854 2011.4225)" width="5.7" height="30.9"/>
	<polygon points="-3534.5,817.9 -3531.9,813.8 -3526.4,805.2 -3539.1,797.2 -3541.7,801.3 -3545.8,798.7 -3551.3,807.2 
		-3547.2,809.8 -3549.8,814 -3541.2,819.4 -3538.6,815.3 	"/>
	<rect x="-3541.4" y="756.2" transform="matrix(0.844 0.5363 -0.5363 0.844 -140.1413 2008.0511)" width="38.2" height="13.8"/>
</g>
<g>
	<polygon class="st9" points="-3842.8,363.5 -3849.4,363.5 -4095.8,363.5 -4095.8,370.1 -4102.4,370.1 -4102.4,408.1 -4095.8,408.1 
		-4095.8,414.7 -3849.4,414.7 -3842.8,414.7 -3842.8,408.1 -3836.2,408.1 -3836.2,370.1 -3842.8,370.1 	"/>
	<polygon class="st12" points="-3842.8,363.5 -3849.4,363.5 -4095.8,363.5 -4095.8,370.1 -4102.4,370.1 -4102.4,408.1 
		-4095.8,408.1 -4095.8,414.7 -3849.4,414.7 -3842.8,414.7 -3842.8,408.1 -3836.2,408.1 -3836.2,370.1 -3842.8,370.1 	"/>
	<g>
		<path class="st4" d="M-4036,381h2.3v-2.3h11.4v4.5h-9.1v9.1h9.1v4.5h-11.4v-2.3h-2.3V381z"/>
		<path class="st4" d="M-4015.6,396.9h-4.5V381h2.3v-2.3h9.1v2.3h2.3v15.9h-4.5v-6.8h-4.5V396.9z M-4011,385.6v-2.3h-4.5v2.3H-4011z
			"/>
		<path class="st4" d="M-4002,394.7h-2.3v-15.9h4.5v13.6h9.1v4.5h-11.4V394.7z"/>
		<path class="st4" d="M-3988.3,378.8h4.5v18.2h-4.5V378.8z"/>
		<path class="st4" d="M-3981.5,378.8h11.4v2.3h2.3v13.6h-2.3v2.3h-11.4V378.8z M-3977,385.6h4.5v-2.3h-4.5V385.6z M-3977,392.4h4.5
			v-2.3h-4.5V392.4z"/>
		<path class="st4" d="M-3958.8,390.1h-2.3v6.8h-4.5V381h2.3v-2.3h9.1v2.3h2.3v6.8h-2.3v2.3h2.3v6.8h-4.5v-4.5h-2.3V390.1z
			 M-3961.1,385.6h4.5v-2.3h-4.5V385.6z"/>
		<path class="st4" d="M-3945.2,396.9h-4.5V381h2.3v-2.3h9.1v2.3h2.3v15.9h-4.5v-6.8h-4.5V396.9z M-3940.6,385.6v-2.3h-4.5v2.3
			H-3940.6z"/>
		<path class="st4" d="M-3933.8,378.8h13.6v4.5h-4.5v13.6h-4.5v-13.6h-4.5V378.8z"/>
		<path class="st4" d="M-3915.7,394.7h-2.3V381h2.3v-2.3h11.4v4.5h-9.1v2.3h4.5v4.5h-4.5v2.3h9.1v4.5h-11.4V394.7z"/>
	</g>
</g>
<g>
	<polygon class="st9" points="-3522.8,431.5 -3529.4,431.5 -3775.8,431.5 -3775.8,438.1 -3782.4,438.1 -3782.4,476.1 -3775.8,476.1 
		-3775.8,482.7 -3529.4,482.7 -3522.8,482.7 -3522.8,476.1 -3516.2,476.1 -3516.2,438.1 -3522.8,438.1 	"/>
	<polygon class="st10" points="-3522.8,424.9 -3529.4,424.9 -3775.8,424.9 -3775.8,431.5 -3782.4,431.5 -3782.4,469.6 
		-3775.8,469.6 -3775.8,476.2 -3529.4,476.2 -3522.8,476.2 -3522.8,469.6 -3516.2,469.6 -3516.2,431.5 -3522.8,431.5 	"/>
	<g>
		<path class="st4" d="M-3716,442.5h2.3v-2.3h11.4v4.5h-9.1v9.1h9.1v4.5h-11.4v-2.3h-2.3V442.5z"/>
		<path class="st4" d="M-3695.6,458.4h-4.5v-15.9h2.3v-2.3h9.1v2.3h2.3v15.9h-4.5v-6.8h-4.5V458.4z M-3691,447v-2.3h-4.5v2.3H-3691z
			"/>
		<path class="st4" d="M-3682,456.1h-2.3v-15.9h4.5v13.6h9.1v4.5h-11.4V456.1z"/>
		<path class="st4" d="M-3668.3,440.2h4.5v18.2h-4.5V440.2z"/>
		<path class="st4" d="M-3661.5,440.2h11.4v2.3h2.3v13.6h-2.3v2.3h-11.4V440.2z M-3657,447h4.5v-2.3h-4.5V447z M-3657,453.8h4.5
			v-2.3h-4.5V453.8z"/>
		<path class="st4" d="M-3638.8,451.5h-2.3v6.8h-4.5v-15.9h2.3v-2.3h9.1v2.3h2.3v6.8h-2.3v2.3h2.3v6.8h-4.5v-4.5h-2.3V451.5z
			 M-3641.1,447h4.5v-2.3h-4.5V447z"/>
		<path class="st4" d="M-3625.2,458.4h-4.5v-15.9h2.3v-2.3h9.1v2.3h2.3v15.9h-4.5v-6.8h-4.5V458.4z M-3620.6,447v-2.3h-4.5v2.3
			H-3620.6z"/>
		<path class="st4" d="M-3613.8,440.2h13.6v4.5h-4.5v13.6h-4.5v-13.6h-4.5V440.2z"/>
		<path class="st4" d="M-3595.7,456.1h-2.3v-13.6h2.3v-2.3h11.4v4.5h-9.1v2.3h4.5v4.5h-4.5v2.3h9.1v4.5h-11.4V456.1z"/>
	</g>
</g>
<g>
	<rect x="-3780.9" y="513.8" class="st9" width="219.8" height="28.8"/>
	<rect x="-3785.7" y="507.3" class="st9" width="229.4" height="30.6"/>
	<polygon class="st10" points="-3785.7,502.9 -3785.7,532.2 -3780.9,532.2 -3780.9,537.9 -3561.1,537.9 -3561.1,532.2 
		-3556.3,532.2 -3556.3,502.9 	"/>
</g>
<polygon class="st9" points="-3565.9,517.8 -3565.9,512.7 -3571,512.7 -3571,512.6 -3627.6,512.6 -3658.2,512.6 -3683.8,512.6 
	-3707.6,512.6 -3771,512.6 -3771,512.6 -3776.1,512.6 -3776.1,517.7 -3781.2,517.7 -3781.2,525.4 -3776.1,525.4 -3776.1,530.5 
	-3771,530.5 -3771,530.6 -3707.6,530.6 -3683.8,530.6 -3658.2,530.6 -3627.6,530.6 -3571,530.6 -3571,530.5 -3565.9,530.5 
	-3565.9,525.4 -3560.8,525.4 -3560.8,517.8 "/>
<g>
	<rect x="-3789.8" y="611.8" class="st13" width="4.7" height="0.1"/>
	<rect x="-3789.8" y="629.7" class="st13" width="4.7" height="0.1"/>
	<polygon class="st4" points="-3768.8,629.8 -3768.8,624.7 -3763.7,624.7 -3763.7,617 -3768.8,617 -3768.8,612 -3773.9,612 
		-3773.9,611.8 -3785.1,611.8 -3785.1,611.9 -3789.8,611.9 -3789.8,629.7 -3785.1,629.7 -3785.1,629.8 -3773.9,629.8 -3773.9,629.8 
			"/>
</g>
<g>
	<polygon class="st4" points="-3815.6,576.3 -3815.6,571.2 -3820.7,571.2 -3820.7,571.1 -3836.6,571.1 -3836.6,589.1 -3820.7,589.1 
		-3820.7,589 -3815.6,589 -3815.6,584 -3810.5,584 -3810.5,576.3 	"/>
	<polygon class="st4" points="-3829.1,615.2 -3829.1,610.1 -3829.1,610.1 -3829.1,610 -3833.6,610 -3834.2,610 -3838.7,610 
		-3838.7,610 -3838.7,610 -3838.7,615.1 -3843.8,615.1 -3843.8,622.8 -3838.7,622.8 -3838.7,627.9 -3838.7,627.9 -3838.7,628 
		-3834.2,628 -3833.6,628 -3829.1,628 -3829.1,627.9 -3829.1,627.9 -3829.1,622.8 -3824,622.8 -3824,615.2 	"/>
</g>
<polygon class="st4" points="-3878.9,517.8 -3878.9,512.7 -3878.9,512.7 -3878.9,512.6 -3883.4,512.6 -3884,512.6 -3888.5,512.6 
	-3888.5,512.6 -3888.5,512.6 -3888.5,517.7 -3893.6,517.7 -3893.6,525.4 -3888.5,525.4 -3888.5,530.5 -3888.5,530.5 -3888.5,530.6 
	-3884,530.6 -3883.4,530.6 -3878.9,530.6 -3878.9,530.5 -3878.9,530.5 -3878.9,525.4 -3873.8,525.4 -3873.8,517.8 "/>
<polygon class="st14" points="-2913.1,907 -2923.1,907 -3298,907 -3298,917 -3308.1,917 -3308.1,974.9 -3298,974.9 -3298,985 
	-2923.1,985 -2913.1,985 -2913.1,974.9 -2903,974.9 -2903,917 -2913.1,917 "/>
<polygon class="st15" points="-2913.1,897 -2923.1,897 -3298,897 -3298,907 -3308.1,907 -3308.1,964.9 -3298,964.9 -3298,975 
	-2923.1,975 -2913.1,975 -2913.1,964.9 -2903,964.9 -2903,907 -2913.1,907 "/>
<g>
	<path class="st4" d="M-3195.5,947.8h-6.9v-27.6h17.3v3.5h3.5V934h-3.5v3.5h-10.4V947.8z M-3195.5,930.6h6.9v-3.5h-6.9V930.6z"/>
	<path class="st4" d="M-3174.7,944.4h-3.5v-24.2h6.9v20.7h13.8v6.9h-17.3V944.4z"/>
	<path class="st4" d="M-3147.1,947.8h-6.9v-24.2h3.5v-3.5h13.8v3.5h3.5v24.2h-6.9v-10.4h-6.9V947.8z M-3140.2,930.6v-3.5h-6.9v3.5
		H-3140.2z"/>
	<path class="st4" d="M-3129.8,920.2h6.9v10.4h6.9v-10.4h6.9V934h-3.5v3.5h-3.5v10.4h-6.9v-10.4h-3.5V934h-3.5V920.2z"/>
	<path class="st4" d="M-3102.2,944.4h-3.5v-20.7h3.5v-3.5h17.3v6.9h-13.8v3.5h6.9v6.9h-6.9v3.5h13.8v6.9h-17.3V944.4z"/>
	<path class="st4" d="M-3071,937.5h-3.5v10.4h-6.9v-27.6h17.3v3.5h3.5V934h-3.5v3.5h3.5v10.4h-6.9v-6.9h-3.5V937.5z M-3074.5,930.6
		h6.9v-3.5h-6.9V930.6z"/>
	<path class="st4" d="M-3033,920.2h17.3v3.5h3.5V934h-3.5v3.5h-10.4v3.5h13.8v6.9h-20.7V934h3.5v-3.5h10.4v-3.5h-13.8V920.2z"/>
</g>
<g>
	<rect x="-3287.1" y="901" class="st4" width="45.1" height="5.7"/>
	<rect x="-3235.9" y="901" class="st4" width="5.7" height="5.7"/>
</g>
<g>
	<rect x="-3741.6" y="902" class="st4" width="45.1" height="5.7"/>
	<rect x="-3690.4" y="902" class="st4" width="5.7" height="5.7"/>
</g>
<polygon class="st16" points="-3352.5,742 -3346.1,747.6 -3351.7,754 -3331.3,771.3 -3331.3,809.2 -3310.5,783.1 -3278.8,812.5 
	-3272.9,806.2 -3268,810.8 -3196.3,692.1 "/>
<polygon class="st17" points="-3355,734.8 -3348.6,740.4 -3354.2,746.8 -3333.7,764.2 -3333.7,802.1 -3313,776 -3281.2,805.4 
	-3275.4,799.1 -3270.4,803.7 -3198.8,685 "/>
<polygon class="st18" points="-3312.9,775.8 -3198.5,685 -3333.7,764 -3333.7,801.9 "/>
<polygon class="st19" points="-3356,735 -3349.6,740.6 -3355.2,747 -3334.8,764.3 -3334.8,802.2 -3314,776.1 -3282.3,805.5 
	-3276.4,799.2 -3271.5,803.9 -3199.9,685.2 "/>
<g>
	<polygon class="st20" points="-3420.2,428.3 -3420.2,591.9 -3409.8,591.9 -3409.8,601.4 -3399.4,601.4 -3399.4,611.8 
		-2951.9,611.8 -2951.9,601.4 -2941.5,601.4 -2941.5,591.9 -2931.2,591.9 -2931.2,428.3 	"/>
	<polygon class="st20" points="-2931.2,428.3 -2931.2,334.1 -2941.5,334.1 -2941.5,324.6 -2951.9,324.6 -2951.9,314.1 
		-3399.4,314.1 -3399.4,324.6 -3409.8,324.6 -3409.8,334.1 -3420.2,334.1 -3420.2,428.3 	"/>
</g>
<g>
	<polygon class="st21" points="-3409.8,330.7 -3399.4,330.7 -3399.4,322.7 -3409.8,322.7 -3409.8,330.7 -3420.2,330.7 
		-3420.2,338.7 -3409.8,338.7 	"/>
	<rect x="-3399.4" y="314" class="st21" width="447.5" height="8"/>
	<polygon class="st21" points="-2941.5,330.7 -2941.5,322.7 -2951.9,322.7 -2951.9,330.7 -2941.5,330.7 -2941.5,338.7 
		-2931.2,338.7 -2931.2,330.7 	"/>
</g>
<g>
	<g>
		<g>
			<rect x="-3813.3" y="249.8" width="10.2" height="10.2"/>
		</g>
	</g>
	<g>
		<g>
			<path d="M-3751.9,239.5v5.1h-5.1v5.1h5.1v20.5h5.1v5.1h-5.1v5.1h5.1h5.1v-10.2h15.4v5.1h5.1v-5.1v-30.7H-3751.9z M-3726.3,265.1
				h-20.5v-20.5h20.5V265.1z"/>
		</g>
	</g>
	<g>
		<g>
			<rect x="-3741.6" y="249.8" width="10.2" height="10.2"/>
		</g>
	</g>
	<g>
		<g>
			<rect x="-3813.3" y="321.4" width="10.2" height="10.2"/>
		</g>
	</g>
	<g>
		<g>
			<rect x="-3751.9" y="311.2" width="5.1" height="5.1"/>
		</g>
	</g>
	<g>
		<g>
			<rect x="-3777.5" y="336.8" width="5.1" height="5.1"/>
		</g>
	</g>
	<g>
		<g>
			<rect x="-3772.3" y="316.3" width="5.1" height="5.1"/>
		</g>
	</g>
	<g>
		<g>
			<rect x="-3772.3" y="326.6" width="5.1" height="5.1"/>
		</g>
	</g>
	<g>
		<g>
			<rect x="-3726.3" y="301" width="5.1" height="5.1"/>
		</g>
	</g>
	<g>
		<g>
			<rect x="-3823.6" y="301" width="5.1" height="5.1"/>
		</g>
	</g>
	<g>
		<g>
			<rect x="-3823.6" y="275.4" width="5.1" height="5.1"/>
		</g>
	</g>
	<g>
		<g>
			<polygon points="-3767.2,244.6 -3767.2,249.8 -3777.5,249.8 -3777.5,254.9 -3762.1,254.9 -3762.1,249.8 -3762.1,244.6 			"/>
		</g>
	</g>
	<g>
		<g>
			<path d="M-3726.3,280.5v5.1h-10.2v5.1h-15.4v-5.1h-5.1v5.1h-10.2v5.1h15.4v5.1h-10.2h-5.1v-5.1h-5.1v5.1h-5.1v-5.1h-5.1v5.1h-5.1
				v5.1h10.2v5.1h5.1v-5.1h10.2v5.1h-5.1v5.1h5.1v10.2h5.1v5.1h5.1v-5.1h15.4v-10.2h5.1v-5.1h-5.1V301h-10.2v-5.1h10.2v5.1h5.1v-5.1
				h5.1v-5.1h5.1v-5.1v-5.1H-3726.3L-3726.3,280.5z M-3741.6,306.1v15.4h-15.4v-15.4H-3741.6z"/>
		</g>
	</g>
	<g>
		<g>
			<polygon points="-3757,270.2 -3762.1,270.2 -3762.1,275.4 -3767.2,275.4 -3767.2,280.5 -3767.2,285.6 -3762.1,285.6 
				-3762.1,280.5 -3757,280.5 -3757,275.4 -3751.9,275.4 -3751.9,270.2 			"/>
		</g>
	</g>
	<g>
		<g>
			<rect x="-3767.2" y="336.8" width="10.2" height="5.1"/>
		</g>
	</g>
	<g>
		<g>
			<rect x="-3782.6" y="244.6" width="5.1" height="5.1"/>
		</g>
	</g>
	<g>
		<g>
			<rect x="-3741.6" y="280.5" width="5.1" height="5.1"/>
		</g>
	</g>
	<g>
		<g>
			<rect x="-3736.5" y="275.4" width="5.1" height="5.1"/>
		</g>
	</g>
	<g>
		<g>
			<rect x="-3803.1" y="301" width="5.1" height="5.1"/>
		</g>
	</g>
	<g>
		<g>
			<path d="M-3792.8,336.8v-20.5h5.1v-5.1v-5.1h-5.1v5.1h-15.4v-5.1h-5.1h-5.1v5.1h-5.1v30.7h30.7h10.2v-5.1H-3792.8z M-3798,336.8
				h-20.5v-20.5h20.5V336.8z"/>
		</g>
	</g>
	<g>
		<g>
			<rect x="-3792.8" y="270.2" width="5.1" height="5.1"/>
		</g>
	</g>
	<g>
		<g>
			<path d="M-3787.7,239.5h-5.1h-30.7v30.7h5.1v5.1h5.1v-5.1h5.1v5.1h5.1v-5.1h10.2V260h5.1v-5.1h-5.1v-10.2h5.1h5.1v-5.1H-3787.7z
				 M-3798,265.1h-20.5v-20.5h20.5V265.1z"/>
		</g>
	</g>
	<g>
		<g>
			<rect x="-3762.1" y="254.9" width="5.1" height="5.1"/>
		</g>
	</g>
	<g>
		<g>
			<rect x="-3772.3" y="239.5" width="5.1" height="5.1"/>
		</g>
	</g>
	<g>
		<g>
			<path d="M-3762.1,270.2v-5.1h-5.1V260h-5.1v5.1h-10.2V260h-5.1v5.1v5.1h5.1v10.2h-15.4v-5.1h-5.1v5.1h-15.4v5.1h10.2v5.1h-15.4
				v5.1h15.4v5.1h5.1v-5.1h5.1v5.1h5.1v-5.1h10.2v-5.1h-5.1v-5.1h5.1h5.1v5.1h5.1h5.1v-5.1h-5.1v-5.1h-5.1v-10.2H-3762.1
				L-3762.1,270.2z M-3792.8,290.7h-10.2v-5.1h10.2V290.7z"/>
		</g>
	</g>
	<g>
		<g>
			<polygon points="-3777.5,321.4 -3777.5,316.3 -3777.5,311.2 -3782.6,311.2 -3782.6,316.3 -3787.7,316.3 -3787.7,321.4 
				-3782.6,321.4 -3782.6,326.6 -3787.7,326.6 -3787.7,331.7 -3777.5,331.7 -3777.5,326.6 -3772.3,326.6 -3772.3,321.4 			"/>
		</g>
	</g>
	<g>
		<g>
			<polygon points="-3731.4,331.7 -3731.4,326.6 -3736.5,326.6 -3736.5,331.7 -3751.9,331.7 -3751.9,336.8 -3741.6,336.8 
				-3741.6,341.9 -3736.5,341.9 -3736.5,336.8 -3726.3,336.8 -3726.3,341.9 -3721.1,341.9 -3721.1,336.8 -3721.1,331.7 			"/>
		</g>
	</g>
	<g>
		<g>
			<polygon points="-3726.3,311.2 -3726.3,316.3 -3731.4,316.3 -3731.4,321.4 -3721.1,321.4 -3721.1,316.3 -3721.1,311.2 			"/>
		</g>
	</g>
</g>
<g>
	<g>
		<polygon class="st22" points="-3879.7,655.7 -3883.3,655.7 -4020.5,655.7 -4020.5,659.3 -4024.2,659.3 -4024.2,680.5 
			-4020.5,680.5 -4020.5,684.2 -3883.3,684.2 -3879.7,684.2 -3879.7,680.5 -3876,680.5 -3876,659.3 -3879.7,659.3 		"/>
		<polygon class="st22" points="-3879.7,655.7 -3883.3,655.7 -4020.5,655.7 -4020.5,659.3 -4024.2,659.3 -4024.2,680.5 
			-4020.5,680.5 -4020.5,684.2 -3883.3,684.2 -3879.7,684.2 -3879.7,680.5 -3876,680.5 -3876,659.3 -3879.7,659.3 		"/>
	</g>
	<g>
		<rect x="-4018.1" y="657.8" class="st22" width="13.1" height="1.7"/>
		<rect x="-4003.2" y="657.8" class="st22" width="1.7" height="1.7"/>
	</g>
</g>
<g>
	<g>
		<polygon class="st9" points="-4051.7,655.7 -4055.3,655.7 -4192.5,655.7 -4192.5,659.3 -4196.2,659.3 -4196.2,680.5 
			-4192.5,680.5 -4192.5,684.2 -4055.3,684.2 -4051.7,684.2 -4051.7,680.5 -4048,680.5 -4048,659.3 -4051.7,659.3 		"/>
		<polygon class="st12" points="-4051.7,655.7 -4055.3,655.7 -4192.5,655.7 -4192.5,659.3 -4196.2,659.3 -4196.2,680.5 
			-4192.5,680.5 -4192.5,684.2 -4055.3,684.2 -4051.7,684.2 -4051.7,680.5 -4048,680.5 -4048,659.3 -4051.7,659.3 		"/>
		<g>
			<path class="st4" d="M-4164.3,670.5h-1.3v3.8h-2.5v-10.1h6.3v1.3h1.3v3.8h-1.3v1.3h1.3v3.8h-2.5v-2.5h-1.3V670.5z M-4165.6,667.9
				h2.5v-1.3h-2.5V667.9z"/>
			<path class="st4" d="M-4158,673h-1.3v-7.6h1.3v-1.3h6.3v2.5h-5.1v1.3h2.5v2.5h-2.5v1.3h5.1v2.5h-6.3V673z"/>
			<path class="st4" d="M-4149.1,673h-1.3v-7.6h1.3v-1.3h5.1v1.3h1.3v2.5h-2.5v-1.3h-2.5v5.1h2.5v-1.3h2.5v2.5h-1.3v1.3h-5.1V673z"
				/>
			<path class="st4" d="M-4139,674.3h-2.5v-8.9h1.3v-1.3h5.1v1.3h1.3v8.9h-2.5v-3.8h-2.5V674.3z M-4136.5,667.9v-1.3h-2.5v1.3
				H-4136.5z"/>
			<path class="st4" d="M-4131.4,673h-1.3v-8.9h2.5v7.6h5.1v2.5h-6.3V673z"/>
			<path class="st4" d="M-4123.8,664.2h2.5v10.1h-2.5V664.2z"/>
			<path class="st4" d="M-4120,664.2h6.3v1.3h1.3v7.6h-1.3v1.3h-6.3V664.2z M-4117.5,667.9h2.5v-1.3h-2.5V667.9z M-4117.5,671.7h2.5
				v-1.3h-2.5V671.7z"/>
			<path class="st4" d="M-4107.4,670.5h-1.3v3.8h-2.5v-8.9h1.3v-1.3h5.1v1.3h1.3v3.8h-1.3v1.3h1.3v3.8h-2.5v-2.5h-1.3V670.5z
				 M-4108.7,667.9h2.5v-1.3h-2.5V667.9z"/>
			<path class="st4" d="M-4099.8,674.3h-2.5v-8.9h1.3v-1.3h5.1v1.3h1.3v8.9h-2.5v-3.8h-2.5V674.3z M-4097.3,667.9v-1.3h-2.5v1.3
				H-4097.3z"/>
			<path class="st4" d="M-4093.5,664.2h7.6v2.5h-2.5v7.6h-2.5v-7.6h-2.5V664.2z"/>
			<path class="st4" d="M-4083.4,673h-1.3v-7.6h1.3v-1.3h6.3v2.5h-5.1v1.3h2.5v2.5h-2.5v1.3h5.1v2.5h-6.3V673z"/>
		</g>
	</g>
	<g>
		<rect x="-4190.1" y="657.8" class="st4" width="13.1" height="1.7"/>
		<rect x="-4175.2" y="657.8" class="st4" width="1.7" height="1.7"/>
	</g>
</g>
<g>
	<g>
		<polygon class="st9" points="-4051.7,697.7 -4055.3,697.7 -4192.5,697.7 -4192.5,701.3 -4196.2,701.3 -4196.2,722.5 
			-4192.5,722.5 -4192.5,726.2 -4055.3,726.2 -4051.7,726.2 -4051.7,722.5 -4048,722.5 -4048,701.3 -4051.7,701.3 		"/>
		<polygon class="st10" points="-4051.7,694 -4055.3,694 -4192.5,694 -4192.5,697.7 -4196.2,697.7 -4196.2,718.8 -4192.5,718.8 
			-4192.5,722.5 -4055.3,722.5 -4051.7,722.5 -4051.7,718.8 -4048,718.8 -4048,697.7 -4051.7,697.7 		"/>
		<g>
			<path class="st4" d="M-4164.3,708.8h-1.3v3.8h-2.5v-10.1h6.3v1.3h1.3v3.8h-1.3v1.3h1.3v3.8h-2.5v-2.5h-1.3V708.8z M-4165.6,706.3
				h2.5V705h-2.5V706.3z"/>
			<path class="st4" d="M-4158,711.3h-1.3v-7.6h1.3v-1.3h6.3v2.5h-5.1v1.3h2.5v2.5h-2.5v1.3h5.1v2.5h-6.3V711.3z"/>
			<path class="st4" d="M-4149.1,711.3h-1.3v-7.6h1.3v-1.3h5.1v1.3h1.3v2.5h-2.5V705h-2.5v5.1h2.5v-1.3h2.5v2.5h-1.3v1.3h-5.1V711.3
				z"/>
			<path class="st4" d="M-4139,712.6h-2.5v-8.9h1.3v-1.3h5.1v1.3h1.3v8.9h-2.5v-3.8h-2.5V712.6z M-4136.5,706.3V705h-2.5v1.3
				H-4136.5z"/>
			<path class="st4" d="M-4131.4,711.3h-1.3v-8.9h2.5v7.6h5.1v2.5h-6.3V711.3z"/>
			<path class="st4" d="M-4123.8,702.5h2.5v10.1h-2.5V702.5z"/>
			<path class="st4" d="M-4120,702.5h6.3v1.3h1.3v7.6h-1.3v1.3h-6.3V702.5z M-4117.5,706.3h2.5V705h-2.5V706.3z M-4117.5,710.1h2.5
				v-1.3h-2.5V710.1z"/>
			<path class="st4" d="M-4107.4,708.8h-1.3v3.8h-2.5v-8.9h1.3v-1.3h5.1v1.3h1.3v3.8h-1.3v1.3h1.3v3.8h-2.5v-2.5h-1.3V708.8z
				 M-4108.7,706.3h2.5V705h-2.5V706.3z"/>
			<path class="st4" d="M-4099.8,712.6h-2.5v-8.9h1.3v-1.3h5.1v1.3h1.3v8.9h-2.5v-3.8h-2.5V712.6z M-4097.3,706.3V705h-2.5v1.3
				H-4097.3z"/>
			<path class="st4" d="M-4093.5,702.5h7.6v2.5h-2.5v7.6h-2.5V705h-2.5V702.5z"/>
			<path class="st4" d="M-4083.4,711.3h-1.3v-7.6h1.3v-1.3h6.3v2.5h-5.1v1.3h2.5v2.5h-2.5v1.3h5.1v2.5h-6.3V711.3z"/>
		</g>
	</g>
	<g>
		<rect x="-4190.1" y="696.8" class="st4" width="13.1" height="1.7"/>
		<rect x="-4175.2" y="696.8" class="st4" width="1.7" height="1.7"/>
	</g>
</g>
<g>
	<g>
		<polygon class="st22" points="-3879.7,697.7 -3883.3,697.7 -4020.5,697.7 -4020.5,701.3 -4024.2,701.3 -4024.2,722.5 
			-4020.5,722.5 -4020.5,726.2 -3883.3,726.2 -3879.7,726.2 -3879.7,722.5 -3876,722.5 -3876,701.3 -3879.7,701.3 		"/>
		<polygon class="st23" points="-3879.7,694 -3883.3,694 -4020.5,694 -4020.5,697.7 -4024.2,697.7 -4024.2,718.8 -4020.5,718.8 
			-4020.5,722.5 -3883.3,722.5 -3879.7,722.5 -3879.7,718.8 -3876,718.8 -3876,697.7 -3879.7,697.7 		"/>
	</g>
	<g>
		<rect x="-4018.1" y="696.8" class="st4" width="13.1" height="1.7"/>
		<rect x="-4003.2" y="696.8" class="st4" width="1.7" height="1.7"/>
	</g>
</g>
<g>
	<rect x="-3770.3" y="428.5" class="st4" width="23.6" height="3"/>
	<rect x="-3743.5" y="428.5" class="st4" width="3" height="3"/>
</g>
<g>
	<rect x="-4090.7" y="367" class="st4" width="23.6" height="3"/>
	<rect x="-4064" y="367" class="st4" width="3" height="3"/>
</g>
<g>
	<polygon class="st23" points="-4120.8,490.5 -4120.8,483.1 -4139.4,483.1 -4139.4,490.5 -4146.9,490.5 -4146.9,498 -4146.9,509.2 
		-4139.4,509.2 -4139.4,516.6 -4128.2,516.6 -4120.8,516.6 -4120.8,509.2 -4113.3,509.2 -4113.3,498 -4113.3,490.5 	"/>
	<line class="st24" x1="-4138.8" y1="516.6" x2="-4138.8" y2="526.6"/>
	<line class="st24" x1="-4121.4" y1="516.6" x2="-4121.4" y2="526.6"/>
	<polygon class="st25" points="-4122.4,524.7 -4124.5,524.7 -4137.9,524.7 -4137.9,526.9 -4140.1,526.9 -4140.1,542.4 
		-4137.9,542.4 -4137.9,544.6 -4124.5,544.6 -4122.4,544.6 -4122.4,542.4 -4120.2,542.4 -4120.2,526.9 -4122.4,526.9 	"/>
</g>
<polygon class="st22" points="-4053.7,929.8 -4053.7,921.9 -4061.6,921.9 -4126.6,921.9 -4195.4,921.9 -4195.4,929.8 -4203.3,929.8 
	-4203.3,975.4 -4195.4,975.4 -4195.4,983.3 -4126.6,983.3 -4061.6,983.3 -4053.7,983.3 -4053.7,975.4 -4045.8,975.4 -4045.8,929.8 
	"/>
<polygon class="st22" points="-4053.7,929.9 -4053.7,922 -4061.6,922 -4126.6,922 -4195.4,922 -4195.4,929.9 -4203.3,929.9 
	-4203.3,975.5 -4195.4,975.5 -4195.4,983.4 -4126.6,983.4 -4061.6,983.4 -4053.7,983.4 -4053.7,975.5 -4045.8,975.5 -4045.8,929.9 
	"/>
<g>
	<path class="st4" d="M-4157.2,963.3h-5.4v-21.8h13.6v2.7h2.7v8.2h-2.7v2.7h-8.2V963.3z M-4157.2,949.7h5.4V947h-5.4V949.7z"/>
	<path class="st4" d="M-4140.9,960.6h-2.7v-19h5.4v16.3h10.9v5.4h-13.6V960.6z"/>
	<path class="st4" d="M-4119.1,963.3h-5.4v-19h2.7v-2.7h10.9v2.7h2.7v19h-5.4v-8.2h-5.4V963.3z M-4113.7,949.7V947h-5.4v2.7H-4113.7
		z"/>
	<path class="st4" d="M-4105.5,941.6h5.4v8.2h5.4v-8.2h5.4v10.9h-2.7v2.7h-2.7v8.2h-5.4v-8.2h-2.7v-2.7h-2.7V941.6z"/>
</g>
<polygon class="st22" points="-3883.7,929.8 -3883.7,921.9 -3891.6,921.9 -3956.6,921.9 -4025.4,921.9 -4025.4,929.8 -4033.3,929.8 
	-4033.3,975.4 -4025.4,975.4 -4025.4,983.3 -3956.6,983.3 -3891.6,983.3 -3883.7,983.3 -3883.7,975.4 -3875.8,975.4 -3875.8,929.8 
	"/>
<polygon class="st23" points="-3883.7,921.9 -3883.7,914 -3891.6,914 -3956.6,914 -4025.4,914 -4025.4,921.9 -4033.3,921.9 
	-4033.3,967.5 -4025.4,967.5 -4025.4,975.4 -3956.6,975.4 -3891.6,975.4 -3883.7,975.4 -3883.7,967.5 -3875.8,967.5 -3875.8,921.9 
	"/>
<g>
	<path class="st4" d="M-3987.2,955.3h-5.4v-21.8h13.6v2.7h2.7v8.2h-2.7v2.7h-8.2V955.3z M-3987.2,941.7h5.4V939h-5.4V941.7z"/>
	<path class="st4" d="M-3970.9,952.6h-2.7v-19h5.4v16.3h10.9v5.4h-13.6V952.6z"/>
	<path class="st4" d="M-3949.1,955.3h-5.4v-19h2.7v-2.7h10.9v2.7h2.7v19h-5.4v-8.2h-5.4V955.3z M-3943.7,941.7V939h-5.4v2.7H-3943.7
		z"/>
	<path class="st4" d="M-3935.5,933.6h5.4v8.2h5.4v-8.2h5.4v10.9h-2.7v2.7h-2.7v8.2h-5.4v-8.2h-2.7v-2.7h-2.7V933.6z"/>
</g>
<g>
	<path class="st26" d="M-4877.3,684.2h43.2v108h43.2v-108h43.2v129.6h-21.6v21.6h-21.6V857h-43.2v-21.6h-21.6v-21.6h-21.6V684.2z"/>
	<path class="st27" d="M-4726.1,707.8h21.6v-21.6h108v43.2h-86.4V751h64.8v21.6h21.6v64.8h-21.6V859h-108v-43.2h86.4v-21.6h-64.8
		v-21.6h-21.6V707.8z"/>
</g>
<g>
	<path class="st28" d="M-4877.3,663.1h43.2v108h43.2v-108h43.2v129.6h-21.6v21.6h-21.6v21.6h-43.2v-21.6h-21.6v-21.6h-21.6V663.1z"
		/>
	<path class="st29" d="M-4726.1,684.7h21.6v-21.6h108v43.2h-86.4v21.6h64.8v21.6h21.6v64.8h-21.6v21.6h-108v-43.2h86.4v-21.6h-64.8
		v-21.6h-21.6V684.7z"/>
</g>
<g>
	<g>
		<path class="st0" d="M-4827.9,1041.7h27.5v68.7h27.5v-68.7h27.5v82.4h-13.7v13.7h-13.7v13.7h-27.5v-13.7h-13.7v-13.7h-13.7V1041.7
			z"/>
		<path class="st0" d="M-4731.8,1056.8h13.7v-13.7h68.7v27.5h-54.9v13.7h41.2v13.7h13.7v41.2h-13.7v13.7h-68.7v-27.5h54.9v-13.7
			h-41.2V1098h-13.7V1056.8z"/>
	</g>
	<g>
		<path class="st7" d="M-4827.9,1027.3h27.5v68.7h27.5v-68.7h27.5v82.4h-13.7v13.7h-13.7v13.7h-27.5v-13.7h-13.7v-13.7h-13.7V1027.3
			z"/>
		<path class="st7" d="M-4731.8,1042.3h13.7v-13.7h68.7v27.5h-54.9v13.7h41.2v13.7h13.7v41.2h-13.7v13.7h-68.7V1111h54.9v-13.7
			h-41.2v-13.7h-13.7V1042.3z"/>
	</g>
	<g>
		<path class="st4" d="M-4827.9,1013.8h27.5v68.7h27.5v-68.7h27.5v82.4h-13.7v13.7h-13.7v13.7h-27.5V1110h-13.7v-13.7h-13.7V1013.8z
			"/>
		<path class="st4" d="M-4731.8,1027.6h13.7v-13.7h68.7v27.5h-54.9v13.7h41.2v13.7h13.7v41.2h-13.7v13.7h-68.7v-27.5h54.9v-13.7
			h-41.2v-13.7h-13.7V1027.6z"/>
	</g>
</g>
<g>
	<g>
		<path class="st0" d="M-4253.5,182.1h-21.6V95.7h54v10.8h10.8v32.4h-10.8v10.8h-32.4V182.1z M-4253.5,128.1h21.6v-10.8h-21.6V128.1
			z"/>
		<path class="st0" d="M-4199.5,106.5h10.8V95.7h43.2v10.8h10.8v64.8h-10.8v10.8h-43.2v-10.8h-10.8V106.5z M-4177.9,160.5h21.6
			v-43.2h-21.6V160.5z"/>
		<path class="st0" d="M-4113.1,171.3h-10.8V95.7h21.6v64.8h43.2v21.6h-54V171.3z"/>
		<path class="st0" d="M-4069.9,95.7h21.6v32.4h21.6V95.7h21.6v43.2h-10.8v10.8h-10.8v32.4h-21.6v-32.4h-10.8v-10.8h-10.8V95.7z"/>
	</g>
	<g>
		<path class="st30" d="M-4253.5,173.6h-21.6V87.2h54V98h10.8v32.4h-10.8v10.8h-32.4V173.6z M-4253.5,119.6h21.6v-10.8h-21.6V119.6z
			"/>
		<path class="st30" d="M-4199.5,98h10.8V87.2h43.2V98h10.8v64.8h-10.8v10.8h-43.2v-10.8h-10.8V98z M-4177.9,152h21.6v-43.2h-21.6
			V152z"/>
		<path class="st30" d="M-4113.1,162.8h-10.8V87.2h21.6V152h43.2v21.6h-54V162.8z"/>
		<path class="st30" d="M-4069.9,87.2h21.6v32.4h21.6V87.2h21.6v43.2h-10.8v10.8h-10.8v32.4h-21.6v-32.4h-10.8v-10.8h-10.8V87.2z"/>
	</g>
	<g>
		<path class="st4" d="M-4253.5,165.5h-21.6V79.1h54v10.8h10.8v32.4h-10.8v10.8h-32.4V165.5z M-4253.5,111.5h21.6v-10.8h-21.6V111.5
			z"/>
		<path class="st4" d="M-4199.5,89.9h10.8V79.1h43.2v10.8h10.8v64.8h-10.8v10.8h-43.2v-10.8h-10.8V89.9z M-4177.9,143.9h21.6v-43.2
			h-21.6V143.9z"/>
		<path class="st4" d="M-4113.1,154.7h-10.8V79.1h21.6v64.8h43.2v21.6h-54V154.7z"/>
		<path class="st4" d="M-4069.9,79.1h21.6v32.4h21.6V79.1h21.6v43.2h-10.8v10.8h-10.8v32.4h-21.6v-32.4h-10.8v-10.8h-10.8V79.1z"/>
	</g>
</g>
<image style="overflow:visible;" width="843" height="1118" xlink:href="7F732DBCCA0B4E2A.jpg"  transform="matrix(0.24 0 0 0.24 -4484.5854 229.2373)">
</image>
<g>
	<g class="st1">
		<g>
			<polygon class="st0" points="-3926.7,-134.4 -3926.7,-48 -3825.4,-48 -3825.4,-59.6 -3838.1,-59.6 -3838.1,-72.2 -3850.7,-72.2 
				-3850.7,-84.9 -3863.4,-84.9 -3863.4,-97.5 -3850.7,-97.5 -3850.7,-110.2 -3838.1,-110.2 -3838.1,-122.8 -3825.4,-122.8 
				-3825.4,-134.4 			"/>
		</g>
		<polygon class="st0" points="-3911.9,-73.3 -3926.7,-49 -3926.6,-73.3 		"/>
	</g>
	<rect x="-4414.8" y="-157.4" class="st0" width="510.3" height="86.5"/>
	<rect x="-3938.3" y="-79.3" class="st0" width="112.8" height="31.6"/>
	<g class="st1">
		<g>
			<polygon class="st0" points="-4407,-134.3 -4407,-47.8 -4508.2,-47.8 -4508.2,-59.4 -4495.5,-59.4 -4495.5,-72.1 -4482.9,-72.1 
				-4482.9,-84.7 -4470.2,-84.7 -4470.2,-97.4 -4482.9,-97.4 -4482.9,-110 -4495.5,-110 -4495.5,-122.7 -4508.2,-122.7 
				-4508.2,-134.3 			"/>
		</g>
		<polygon class="st0" points="-4421.7,-73.1 -4407,-48.9 -4407,-73.1 		"/>
	</g>
	<g>
		<g>
			<polygon class="st2" points="-3926.7,-144.7 -3926.7,-58.2 -3825.4,-58.2 -3825.4,-69.8 -3838.1,-69.8 -3838.1,-82.5 
				-3850.7,-82.5 -3850.7,-95.1 -3863.4,-95.1 -3863.4,-107.8 -3850.7,-107.8 -3850.7,-120.4 -3838.1,-120.4 -3838.1,-133.1 
				-3825.4,-133.1 -3825.4,-144.7 			"/>
			<polygon class="st3" points="-3926.7,-156.3 -3926.7,-69.8 -3825.4,-69.8 -3825.4,-81.4 -3838.1,-81.4 -3838.1,-94.1 
				-3850.7,-94.1 -3850.7,-106.7 -3863.4,-106.7 -3863.4,-119.4 -3850.7,-119.4 -3850.7,-132 -3838.1,-132 -3838.1,-144.7 
				-3825.4,-144.7 -3825.4,-156.3 			"/>
		</g>
		<polygon class="st2" points="-3911.9,-83.5 -3926.7,-59.3 -3926.6,-83.5 		"/>
		<g>
			<g>
				<polygon class="st2" points="-4407.5,-144.7 -4407.5,-58.2 -4508.7,-58.2 -4508.7,-69.8 -4496,-69.8 -4496,-82.5 -4483.4,-82.5 
					-4483.4,-95.1 -4470.7,-95.1 -4470.7,-107.8 -4483.4,-107.8 -4483.4,-120.4 -4496,-120.4 -4496,-133.1 -4508.7,-133.1 
					-4508.7,-144.7 				"/>
				<polygon class="st3" points="-4407.5,-156.3 -4407.5,-69.8 -4508.7,-69.8 -4508.7,-81.4 -4496,-81.4 -4496,-94.1 -4483.4,-94.1 
					-4483.4,-106.7 -4470.7,-106.7 -4470.7,-119.4 -4483.4,-119.4 -4483.4,-132 -4496,-132 -4496,-144.7 -4508.7,-144.7 
					-4508.7,-156.3 				"/>
			</g>
			<polygon class="st2" points="-4422.2,-83.5 -4407.5,-59.3 -4407.5,-83.5 			"/>
		</g>
		<g>
			<rect x="-4422.2" y="-170" class="st2" width="510.3" height="86.5"/>
			<rect x="-4422.2" y="-182.7" class="st3" width="510.3" height="86.5"/>
		</g>
	</g>
</g>
<g>
	<g>
		<path class="st22" d="M-4308.1-107.7h-37.4v-59.9h37.4v7.5h7.5v15h-7.5v15h7.5v15h-7.5V-107.7z M-4330.6-145.1h15v-7.5h-15V-145.1
			z M-4330.6-122.7h15v-7.5h-15V-122.7z"/>
		<path class="st22" d="M-4278.1-107.7h-15v-52.4h7.5v-7.5h30v7.5h7.5v52.4h-15v-22.5h-15V-107.7z M-4263.1-145.1v-7.5h-15v7.5
			H-4263.1z"/>
		<path class="st22" d="M-4233.2-115.2h-7.5v-52.4h15v44.9h30v15h-37.4V-115.2z"/>
		<path class="st22" d="M-4180.8-115.2h-7.5v-52.4h15v44.9h30v15h-37.4V-115.2z"/>
		<path class="st22" d="M-4135.8-160.1h7.5v-7.5h30v7.5h7.5v44.9h-7.5v7.5h-30v-7.5h-7.5V-160.1z M-4120.9-122.7h15v-30h-15V-122.7z
			"/>
		<path class="st22" d="M-4083.4-160.1h7.5v-7.5h30v7.5h7.5v44.9h-7.5v7.5h-30v-7.5h-7.5V-160.1z M-4068.4-122.7h15v-30h-15V-122.7z
			"/>
		<path class="st22" d="M-4008.5-137.7h-7.5v30h-15v-59.9h15v7.5h7.5v7.5h7.5v-15h15v59.9h-15v-22.5h-7.5V-137.7z"/>
	</g>
	<g>
		<path class="st23" d="M-4308.1-113.5h-37.4v-59.9h37.4v7.5h7.5v15h-7.5v15h7.5v15h-7.5V-113.5z M-4330.6-151h15v-7.5h-15V-151z
			 M-4330.6-128.5h15v-7.5h-15V-128.5z"/>
		<path class="st23" d="M-4278.1-113.5h-15v-52.4h7.5v-7.5h30v7.5h7.5v52.4h-15V-136h-15V-113.5z M-4263.1-151v-7.5h-15v7.5H-4263.1
			z"/>
		<path class="st23" d="M-4233.2-121h-7.5v-52.4h15v44.9h30v15h-37.4V-121z"/>
		<path class="st23" d="M-4180.8-121h-7.5v-52.4h15v44.9h30v15h-37.4V-121z"/>
		<path class="st23" d="M-4135.8-165.9h7.5v-7.5h30v7.5h7.5v44.9h-7.5v7.5h-30v-7.5h-7.5V-165.9z M-4120.9-128.5h15v-30h-15V-128.5z
			"/>
		<path class="st23" d="M-4083.4-165.9h7.5v-7.5h30v7.5h7.5v44.9h-7.5v7.5h-30v-7.5h-7.5V-165.9z M-4068.4-128.5h15v-30h-15V-128.5z
			"/>
		<path class="st23" d="M-4008.5-143.5h-7.5v30h-15v-59.9h15v7.5h7.5v7.5h7.5v-15h15v59.9h-15V-136h-7.5V-143.5z"/>
	</g>
</g>
<g>
	<path class="st0" d="M-3816.5,39h20.7v6.9h-20.7V39z"/>
	<path class="st0" d="M-3761.2,56.3h-6.9V28.7h17.3v3.5h3.5v10.4h-3.5v3.5h-10.4V56.3z M-3761.2,39h6.9v-3.5h-6.9V39z"/>
	<path class="st0" d="M-3733.5,45.9h-3.5v10.4h-6.9V28.7h17.3v3.5h3.5v10.4h-3.5v3.5h3.5v10.4h-6.9v-6.9h-3.5V45.9z M-3737,39h6.9
		v-3.5h-6.9V39z"/>
	<path class="st0" d="M-3716.2,52.9h-3.5V32.1h3.5v-3.5h17.3v6.9h-13.8V39h6.9v6.9h-6.9v3.5h13.8v6.9h-17.3V52.9z"/>
	<path class="st0" d="M-3695.5,32.1h3.5v-3.5h17.3v6.9h-13.8V39h10.4v3.5h3.5v10.4h-3.5v3.5h-17.3v-6.9h13.8v-3.5h-10.4v-3.5h-3.5
		V32.1z"/>
	<path class="st0" d="M-3671.3,32.1h3.5v-3.5h17.3v6.9h-13.8V39h10.4v3.5h3.5v10.4h-3.5v3.5h-17.3v-6.9h13.8v-3.5h-10.4v-3.5h-3.5
		V32.1z"/>
	<path class="st0" d="M-3616,56.3h-6.9V32.1h3.5v-3.5h13.8v3.5h3.5v24.2h-6.9V45.9h-6.9V56.3z M-3609.1,39v-3.5h-6.9V39H-3609.1z"/>
	<path class="st0" d="M-3588.4,42.5h-3.5v13.8h-6.9V28.7h6.9v3.5h3.5v3.5h3.5v-6.9h6.9v27.6h-6.9V45.9h-3.5V42.5z"/>
	<path class="st0" d="M-3574.5,28.7h6.9V39h6.9V28.7h6.9v13.8h-3.5v3.5h-3.5v10.4h-6.9V45.9h-3.5v-3.5h-3.5V28.7z"/>
	<path class="st0" d="M-3519.2,56.3h-6.9V28.7h6.9v6.9h3.5v-3.5h3.5v-3.5h6.9v6.9h-3.5V39h-3.5v6.9h3.5v3.5h3.5v6.9h-6.9v-3.5h-3.5
		v-3.5h-3.5V56.3z"/>
	<path class="st0" d="M-3498.5,52.9h-3.5V32.1h3.5v-3.5h17.3v6.9h-13.8V39h6.9v6.9h-6.9v3.5h13.8v6.9h-17.3V52.9z"/>
	<path class="st0" d="M-3477.8,28.7h6.9V39h6.9V28.7h6.9v13.8h-3.5v3.5h-3.5v10.4h-6.9V45.9h-3.5v-3.5h-3.5V28.7z"/>
	<path class="st0" d="M-3429.4,28.7h20.7v6.9h-6.9v20.7h-6.9V35.6h-6.9V28.7z"/>
	<path class="st0" d="M-3405.2,32.1h3.5v-3.5h13.8v3.5h3.5v20.7h-3.5v3.5h-13.8v-3.5h-3.5V32.1z M-3398.3,49.4h6.9V35.6h-6.9V49.4z"
		/>
	<path class="st0" d="M-3349.9,56.3h-6.9V28.7h17.3v3.5h3.5v10.4h-3.5v3.5h-10.4V56.3z M-3349.9,39h6.9v-3.5h-6.9V39z"/>
	<path class="st0" d="M-3329.2,52.9h-3.5V28.7h6.9v20.7h13.8v6.9h-17.3V52.9z"/>
	<path class="st0" d="M-3301.5,56.3h-6.9V32.1h3.5v-3.5h13.8v3.5h3.5v24.2h-6.9V45.9h-6.9V56.3z M-3294.6,39v-3.5h-6.9V39H-3294.6z"
		/>
	<path class="st0" d="M-3284.2,28.7h6.9V39h6.9V28.7h6.9v13.8h-3.5v3.5h-3.5v10.4h-6.9V45.9h-3.5v-3.5h-3.5V28.7z"/>
	<path class="st0" d="M-3235.9,39h20.7v6.9h-20.7V39z"/>
</g>
<g>
	<path class="st30" d="M-3817.3,33.1h20.7V40h-20.7V33.1z"/>
	<path class="st30" d="M-3762,50.4h-6.9V22.8h17.3v3.5h3.5v10.4h-3.5V40h-10.4V50.4z M-3762,33.1h6.9v-3.5h-6.9V33.1z"/>
	<path class="st30" d="M-3734.4,40h-3.5v10.4h-6.9V22.8h17.3v3.5h3.5v10.4h-3.5V40h3.5v10.4h-6.9v-6.9h-3.5V40z M-3737.8,33.1h6.9
		v-3.5h-6.9V33.1z"/>
	<path class="st30" d="M-3717.1,47h-3.5V26.2h3.5v-3.5h17.3v6.9h-13.8v3.5h6.9V40h-6.9v3.5h13.8v6.9h-17.3V47z"/>
	<path class="st30" d="M-3696.4,26.2h3.5v-3.5h17.3v6.9h-13.8v3.5h10.4v3.5h3.5V47h-3.5v3.5h-17.3v-6.9h13.8V40h-10.4v-3.5h-3.5
		V26.2z"/>
	<path class="st30" d="M-3672.2,26.2h3.5v-3.5h17.3v6.9h-13.8v3.5h10.4v3.5h3.5V47h-3.5v3.5h-17.3v-6.9h13.8V40h-10.4v-3.5h-3.5
		V26.2z"/>
	<path class="st30" d="M-3616.9,50.4h-6.9V26.2h3.5v-3.5h13.8v3.5h3.5v24.2h-6.9V40h-6.9V50.4z M-3610,33.1v-3.5h-6.9v3.5H-3610z"/>
	<path class="st30" d="M-3589.2,36.6h-3.5v13.8h-6.9V22.8h6.9v3.5h3.5v3.5h3.5v-6.9h6.9v27.6h-6.9V40h-3.5V36.6z"/>
	<path class="st30" d="M-3575.4,22.8h6.9v10.4h6.9V22.8h6.9v13.8h-3.5V40h-3.5v10.4h-6.9V40h-3.5v-3.5h-3.5V22.8z"/>
	<path class="st30" d="M-3520.1,50.4h-6.9V22.8h6.9v6.9h3.5v-3.5h3.5v-3.5h6.9v6.9h-3.5v3.5h-3.5V40h3.5v3.5h3.5v6.9h-6.9V47h-3.5
		v-3.5h-3.5V50.4z"/>
	<path class="st30" d="M-3499.4,47h-3.5V26.2h3.5v-3.5h17.3v6.9h-13.8v3.5h6.9V40h-6.9v3.5h13.8v6.9h-17.3V47z"/>
	<path class="st30" d="M-3478.6,22.8h6.9v10.4h6.9V22.8h6.9v13.8h-3.5V40h-3.5v10.4h-6.9V40h-3.5v-3.5h-3.5V22.8z"/>
	<path class="st30" d="M-3430.3,22.8h20.7v6.9h-6.9v20.7h-6.9V29.7h-6.9V22.8z"/>
	<path class="st30" d="M-3406.1,26.2h3.5v-3.5h13.8v3.5h3.5V47h-3.5v3.5h-13.8V47h-3.5V26.2z M-3399.2,43.5h6.9V29.7h-6.9V43.5z"/>
	<path class="st30" d="M-3350.8,50.4h-6.9V22.8h17.3v3.5h3.5v10.4h-3.5V40h-10.4V50.4z M-3350.8,33.1h6.9v-3.5h-6.9V33.1z"/>
	<path class="st30" d="M-3330,47h-3.5V22.8h6.9v20.7h13.8v6.9h-17.3V47z"/>
	<path class="st30" d="M-3302.4,50.4h-6.9V26.2h3.5v-3.5h13.8v3.5h3.5v24.2h-6.9V40h-6.9V50.4z M-3295.5,33.1v-3.5h-6.9v3.5H-3295.5
		z"/>
	<path class="st30" d="M-3285.1,22.8h6.9v10.4h6.9V22.8h6.9v13.8h-3.5V40h-3.5v10.4h-6.9V40h-3.5v-3.5h-3.5V22.8z"/>
	<path class="st30" d="M-3236.7,33.1h20.7V40h-20.7V33.1z"/>
</g>
<g>
	<path class="st4" d="M-3817.3,28.7h20.7v6.9h-20.7V28.7z"/>
	<path class="st4" d="M-3762,46h-6.9V18.4h17.3v3.5h3.5v10.4h-3.5v3.5h-10.4V46z M-3762,28.7h6.9v-3.5h-6.9V28.7z"/>
	<path class="st4" d="M-3734.4,35.6h-3.5V46h-6.9V18.4h17.3v3.5h3.5v10.4h-3.5v3.5h3.5V46h-6.9v-6.9h-3.5V35.6z M-3737.8,28.7h6.9
		v-3.5h-6.9V28.7z"/>
	<path class="st4" d="M-3717.1,42.5h-3.5V21.8h3.5v-3.5h17.3v6.9h-13.8v3.5h6.9v6.9h-6.9v3.5h13.8V46h-17.3V42.5z"/>
	<path class="st4" d="M-3696.4,21.8h3.5v-3.5h17.3v6.9h-13.8v3.5h10.4v3.5h3.5v10.4h-3.5V46h-17.3v-6.9h13.8v-3.5h-10.4v-3.5h-3.5
		V21.8z"/>
	<path class="st4" d="M-3672.2,21.8h3.5v-3.5h17.3v6.9h-13.8v3.5h10.4v3.5h3.5v10.4h-3.5V46h-17.3v-6.9h13.8v-3.5h-10.4v-3.5h-3.5
		V21.8z"/>
	<path class="st4" d="M-3616.9,46h-6.9V21.8h3.5v-3.5h13.8v3.5h3.5V46h-6.9V35.6h-6.9V46z M-3610,28.7v-3.5h-6.9v3.5H-3610z"/>
	<path class="st4" d="M-3589.2,32.2h-3.5V46h-6.9V18.4h6.9v3.5h3.5v3.5h3.5v-6.9h6.9V46h-6.9V35.6h-3.5V32.2z"/>
	<path class="st4" d="M-3575.4,18.4h6.9v10.4h6.9V18.4h6.9v13.8h-3.5v3.5h-3.5V46h-6.9V35.6h-3.5v-3.5h-3.5V18.4z"/>
	<path class="st4" d="M-3520.1,46h-6.9V18.4h6.9v6.9h3.5v-3.5h3.5v-3.5h6.9v6.9h-3.5v3.5h-3.5v6.9h3.5v3.5h3.5V46h-6.9v-3.5h-3.5
		v-3.5h-3.5V46z"/>
	<path class="st4" d="M-3499.4,42.5h-3.5V21.8h3.5v-3.5h17.3v6.9h-13.8v3.5h6.9v6.9h-6.9v3.5h13.8V46h-17.3V42.5z"/>
	<path class="st4" d="M-3478.6,18.4h6.9v10.4h6.9V18.4h6.9v13.8h-3.5v3.5h-3.5V46h-6.9V35.6h-3.5v-3.5h-3.5V18.4z"/>
	<path class="st4" d="M-3430.3,18.4h20.7v6.9h-6.9V46h-6.9V25.3h-6.9V18.4z"/>
	<path class="st4" d="M-3406.1,21.8h3.5v-3.5h13.8v3.5h3.5v20.7h-3.5V46h-13.8v-3.5h-3.5V21.8z M-3399.2,39.1h6.9V25.3h-6.9V39.1z"
		/>
	<path class="st4" d="M-3350.8,46h-6.9V18.4h17.3v3.5h3.5v10.4h-3.5v3.5h-10.4V46z M-3350.8,28.7h6.9v-3.5h-6.9V28.7z"/>
	<path class="st4" d="M-3330,42.5h-3.5V18.4h6.9v20.7h13.8V46h-17.3V42.5z"/>
	<path class="st4" d="M-3302.4,46h-6.9V21.8h3.5v-3.5h13.8v3.5h3.5V46h-6.9V35.6h-6.9V46z M-3295.5,28.7v-3.5h-6.9v3.5H-3295.5z"/>
	<path class="st4" d="M-3285.1,18.4h6.9v10.4h6.9V18.4h6.9v13.8h-3.5v3.5h-3.5V46h-6.9V35.6h-3.5v-3.5h-3.5V18.4z"/>
	<path class="st4" d="M-3236.7,28.7h20.7v6.9h-20.7V28.7z"/>
</g>
<path class="st31" d="M-1055.5-673.4h-2.2h-10.8h-38.7h-12.9h-1526.6h-12.9h-38.7h-12.9h-12.9v22.6V190v11.3v33.9v11.3v11.3h25.8
	H-1120h12.9h38.7h10.8h2.2h12.9v-931.2H-1055.5z M-1068.4-616.9v818.2v11.3h-12.9v11.3h-12.9v11.3h-12.9h-1552.4h-12.9v-11.3h-12.9
	v-11.3h-12.9v-11.3v-818.2v-11.3h12.9v-11.3h12.9v-11.3h12.9h204.3h135.5h1212.7h12.9v11.3h12.9v11.3h12.9V-616.9z"/>
<polygon class="st32" points="-2335.5,-1030.7 -2335.5,-1039.4 -2345.4,-1039.4 -2702.2,-1039.4 -2702.2,-956 -2346.1,-956 
	-2346.1,-964.7 -2345.4,-964.7 -2335.5,-964.7 -2335.5,-971.6 -2335.5,-973.4 -2325.6,-973.4 -2325.6,-980.4 -2325.6,-1030.7 "/>
<polygon class="st31" points="-2336,-1039.3 -2336,-1048.1 -2345.8,-1048.1 -2713.2,-1048.1 -2713.2,-1041.1 -2713.2,-1039.3 
	-2723,-1039.3 -2723,-989.1 -2713.2,-989.1 -2713.2,-982.1 -2713.2,-982.1 -2713.2,-973.4 -2702.6,-973.4 -2702.6,-964.7 
	-2346.5,-964.7 -2346.5,-973.4 -2345.8,-973.4 -2336,-973.4 -2336,-980.3 -2336,-982.1 -2326.1,-982.1 -2326.1,-989.1 
	-2326.1,-1039.3 "/>
<rect x="-2784.9" y="-823.3" class="st13" width="92.2" height="32.8"/>
<text transform="matrix(1 0 0 1 -2763.8118 -805.1316)" class="st4" style="font-family:'EditUndoBRK'; font-size:31.5429px;">DMG</text>
<g>
	<g>
		<polygon class="st23" points="-2585.1,-788.9 -2330.5,-788.9 -2330.5,-806.9 -2585.1,-806.9 -2585.1,-806.8 -2585.1,-801.7 
			-2592.1,-801.7 -2592.1,-794.1 -2585.1,-794.1 -2585.1,-789 		"/>
	</g>
	<polygon class="st23" points="-2321.8,-801.8 -2321.8,-806.9 -2321.8,-806.9 -2377.5,-806.9 -2377.5,-788.9 -2321.8,-788.9 
		-2321.8,-789 -2321.8,-794.1 -2314.9,-794.1 -2314.9,-801.8 	"/>
</g>
<g class="st33">
	<polygon class="st34" points="-1941.6,-575.8 -1941.6,-653.8 -2031.5,-653.8 -2031.5,-643.7 -2041.6,-643.7 -2041.6,-585.9 
		-2031.5,-585.9 -2031.5,-575.8 	"/>
	<polygon class="st34" points="-1706.5,-644.7 -1706.5,-654.8 -1716.6,-654.8 -1798.6,-654.8 -1798.6,-576.8 -1716.6,-576.8 
		-1706.5,-576.8 -1706.5,-586.9 -1696.5,-586.9 -1696.5,-644.7 	"/>
	<rect x="-2021.6" y="-644.8" class="st34" width="305" height="78"/>
</g>
<g>
	<polygon class="st31" points="-1931.6,-575.8 -1931.6,-653.8 -2021.5,-653.8 -2021.5,-643.7 -2031.6,-643.7 -2031.6,-585.9 
		-2021.5,-585.9 -2021.5,-575.8 	"/>
	<polygon class="st31" points="-1941.6,-585.8 -1941.6,-663.8 -2031.5,-663.8 -2031.5,-653.7 -2041.6,-653.7 -2041.6,-595.9 
		-2031.5,-595.9 -2031.5,-585.8 	"/>
	<polygon class="st31" points="-1716.5,-643.7 -1716.5,-653.8 -1726.6,-653.8 -1808.6,-653.8 -1808.6,-575.8 -1726.6,-575.8 
		-1716.5,-575.8 -1716.5,-585.9 -1706.5,-585.9 -1706.5,-643.7 	"/>
	<polygon class="st31" points="-1706.5,-653.7 -1706.5,-663.8 -1716.6,-663.8 -1798.6,-663.8 -1798.6,-585.8 -1716.6,-585.8 
		-1706.5,-585.8 -1706.5,-595.9 -1696.5,-595.9 -1696.5,-653.7 	"/>
	<rect x="-1931.6" y="-653.8" class="st31" width="123" height="78"/>
</g>
<g>
	<polygon class="st35" points="-1931.6,-585.8 -1931.6,-663.8 -2021.5,-663.8 -2021.5,-653.7 -2031.6,-653.7 -2031.6,-595.9 
		-2021.5,-595.9 -2021.5,-585.8 	"/>
	<polygon class="st35" points="-1716.5,-653.7 -1716.5,-663.8 -1726.6,-663.8 -1794.6,-663.8 -1794.6,-585.8 -1726.6,-585.8 
		-1716.5,-585.8 -1716.5,-595.9 -1706.5,-595.9 -1706.5,-653.7 	"/>
</g>
<g class="st33">
	<polygon class="st34" points="-2207.9,-971.4 -2207.9,-1041.4 -2288.5,-1041.4 -2288.5,-1032.4 -2297.6,-1032.4 -2297.6,-980.5 
		-2288.5,-980.5 -2288.5,-971.4 	"/>
	<polygon class="st34" points="-1997.1,-1033.3 -1997.1,-1042.3 -2006.1,-1042.3 -2079.6,-1042.3 -2079.6,-972.3 -2006.1,-972.3 
		-1997.1,-972.3 -1997.1,-981.4 -1988,-981.4 -1988,-1033.3 	"/>
	<rect x="-2279.6" y="-1033.3" class="st34" width="273.6" height="70"/>
</g>
<g>
	<polygon class="st31" points="-2198.9,-971.4 -2198.9,-1041.4 -2279.6,-1041.4 -2279.6,-1032.4 -2288.6,-1032.4 -2288.6,-980.5 
		-2279.6,-980.5 -2279.6,-971.4 	"/>
	<polygon class="st31" points="-2207.9,-980.4 -2207.9,-1050.4 -2288.5,-1050.4 -2288.5,-1041.3 -2297.6,-1041.3 -2297.6,-989.4 
		-2288.5,-989.4 -2288.5,-980.4 	"/>
	<polygon class="st31" points="-2006,-1032.4 -2006,-1041.4 -2015.1,-1041.4 -2088.6,-1041.4 -2088.6,-971.4 -2015.1,-971.4 
		-2006,-971.4 -2006,-980.5 -1997,-980.5 -1997,-1032.4 	"/>
	<polygon class="st31" points="-1997.1,-1041.3 -1997.1,-1050.4 -2006.1,-1050.4 -2079.6,-1050.4 -2079.6,-980.4 -2006.1,-980.4 
		-1997.1,-980.4 -1997.1,-989.4 -1988,-989.4 -1988,-1041.3 	"/>
	<rect x="-2198.9" y="-1041.4" class="st31" width="110.3" height="70"/>
</g>
<g>
	<polygon class="st35" points="-2198.9,-980.4 -2198.9,-1050.4 -2279.6,-1050.4 -2279.6,-1041.3 -2288.6,-1041.3 -2288.6,-989.4 
		-2279.6,-989.4 -2279.6,-980.4 	"/>
	<polygon class="st35" points="-2006,-1041.3 -2006,-1050.4 -2015.1,-1050.4 -2076,-1050.4 -2076,-980.4 -2015.1,-980.4 
		-2006,-980.4 -2006,-989.4 -1997,-989.4 -1997,-1041.3 	"/>
</g>
<rect x="-1946.6" y="-663.8" class="st35" width="169" height="78"/>
<rect x="-2212.4" y="-1050.4" class="st35" width="151.6" height="70"/>
<g>
	<rect x="-1951.6" y="-631.6" class="st13" width="179" height="81.8"/>
	<text transform="matrix(1 0 0 1 -1929.4552 -603.9086)" class="st4" style="font-family:'EditUndoBRK'; font-size:48px;">124 KM</text>
</g>
<g>
	<rect x="-1066" y="-653.8" class="st32" width="8" height="2"/>
	<polygon class="st32" points="-1147,-653.8 -1147,-643.7 -1157,-643.7 -1157,-585.9 -1147.1,-585.9 -1147.1,-575.9 -1147,-575.9 
		-1147,-575.8 -1137.1,-575.8 -1137.1,-565.8 -1082,-565.8 -1082,-653.8 	"/>
</g>
<polygon class="st31" points="-1057,-653.8 -1057,-663.8 -1146.9,-663.8 -1146.9,-653.7 -1157,-653.7 -1157,-595.9 -1147,-595.9 
	-1147,-585.9 -1146.9,-585.9 -1146.9,-585.8 -1136.9,-585.8 -1136.9,-575.8 -1047,-575.8 -1047,-653.8 "/>
<g>
	<g>
		<g>
			<polygon class="st2" points="-1086.9,-642.3 -1092.2,-642.3 -1124.7,-642.3 -1124.7,-636.9 -1130.1,-636.9 -1130.1,-599.1 
				-1124.7,-599.1 -1124.7,-593.8 -1092.2,-593.8 -1086.9,-593.8 -1086.9,-599.1 -1081.6,-599.1 -1081.6,-636.9 -1086.9,-636.9 			
				"/>
			<polygon class="st3" points="-1086.6,-648 -1092,-648 -1124.7,-648 -1124.7,-642.6 -1130.1,-642.6 -1130.1,-604.6 
				-1124.7,-604.6 -1124.7,-599.2 -1092,-599.2 -1086.6,-599.2 -1086.6,-604.6 -1081.3,-604.6 -1081.3,-642.6 -1086.6,-642.6 			"/>
		</g>
		<g>
			<rect x="-1117.1" y="-618.9" class="st4" width="24.2" height="4.8"/>
			<rect x="-1117.1" y="-630.1" class="st4" width="24.2" height="4.8"/>
		</g>
	</g>
	<g class="st33">
		<polygon class="st36" points="-1124.7,-593.6 -1124.7,-588.6 -1119.3,-588.6 -1086.6,-588.6 -1086.6,-593.6 -1119.3,-593.6 		"/>
		<rect x="-1130.1" y="-599" class="st36" width="5.4" height="5"/>
		<rect x="-1086.6" y="-599" class="st36" width="5.4" height="5"/>
	</g>
</g>
<g>
	<g>
		<g>
			<polygon class="st2" points="-1733.4,-1031.8 -1737.6,-1031.8 -1762.9,-1031.8 -1762.9,-1027.6 -1767.1,-1027.6 -1767.1,-998.1 
				-1762.9,-998.1 -1762.9,-994 -1737.6,-994 -1733.4,-994 -1733.4,-998.1 -1729.2,-998.1 -1729.2,-1027.6 -1733.4,-1027.6 			"/>
			<polygon class="st3" points="-1733.2,-1036.3 -1737.4,-1036.3 -1762.9,-1036.3 -1762.9,-1032.1 -1767.1,-1032.1 -1767.1,-1002.4 
				-1762.9,-1002.4 -1762.9,-998.2 -1737.4,-998.2 -1733.2,-998.2 -1733.2,-1002.4 -1729,-1002.4 -1729,-1032.1 -1733.2,-1032.1 			
				"/>
		</g>
		<g>
			
				<rect x="-1762.3" y="-1018.9" transform="matrix(-1.836970e-16 1 -1 -1.836970e-16 -2769.9392 735.8726)" class="st4" width="18.9" height="3.8"/>
			
				<rect x="-1751.6" y="-1018.9" transform="matrix(-1.836970e-16 1 -1 -1.836970e-16 -2759.2368 725.1701)" class="st4" width="18.9" height="3.8"/>
		</g>
	</g>
	<g class="st33">
		<polygon class="st36" points="-1762.9,-993.9 -1762.9,-990 -1758.7,-990 -1733.2,-990 -1733.2,-993.9 -1758.7,-993.9 		"/>
		<rect x="-1767.1" y="-998" class="st36" width="4.2" height="3.9"/>
		<rect x="-1733.2" y="-998" class="st36" width="4.2" height="3.9"/>
	</g>
</g>
<polygon class="st23" points="-2558.5,-906.5 -2558.5,-910.3 -2568.1,-910.3 -2568.5,-910.3 -2577.8,-910.3 -2578.1,-910.3 
	-2587.4,-910.3 -2587.8,-910.3 -2597.4,-910.3 -2597.4,-906.5 -2602.2,-906.5 -2602.2,-901.1 -2597.4,-901.1 -2597.4,-897.4 
	-2597.2,-897.4 -2593,-897.4 -2592.1,-897.4 -2587.9,-897.4 -2587.8,-897.4 -2587.5,-897.4 -2587.4,-897.4 -2583.3,-897.4 
	-2582.5,-897.4 -2578.3,-897.4 -2578.1,-897.4 -2577.9,-897.4 -2577.8,-897.4 -2573.7,-897.4 -2572.9,-897.4 -2568.7,-897.4 
	-2568.5,-897.4 -2568.3,-897.4 -2568.1,-897.4 -2564.1,-897.4 -2563.2,-897.4 -2559,-897.4 -2558.5,-897.4 -2558.5,-901 -2554,-901 
	-2554,-906.5 "/>
<polygon class="st23" points="-2551.8,-1143.4 -2551.8,-1147.1 -2561.4,-1147.1 -2561.8,-1147.1 -2571.1,-1147.1 -2571.4,-1147.1 
	-2580.7,-1147.1 -2581.1,-1147.1 -2590.7,-1147.1 -2590.7,-1143.4 -2595.5,-1143.4 -2595.5,-1137.9 -2590.7,-1137.9 
	-2590.7,-1134.2 -2590.5,-1134.2 -2586.2,-1134.2 -2585.4,-1134.2 -2581.2,-1134.2 -2581.1,-1134.2 -2580.8,-1134.2 
	-2580.7,-1134.2 -2576.6,-1134.2 -2575.8,-1134.2 -2571.6,-1134.2 -2571.4,-1134.2 -2571.2,-1134.2 -2571.1,-1134.2 -2567,-1134.2 
	-2566.2,-1134.2 -2562,-1134.2 -2561.8,-1134.2 -2561.6,-1134.2 -2561.4,-1134.2 -2557.4,-1134.2 -2556.5,-1134.2 -2552.3,-1134.2 
	-2551.8,-1134.2 -2551.8,-1137.9 -2547.3,-1137.9 -2547.3,-1143.4 "/>
<polygon class="st37" points="-2397.9,-1143.4 -2397.9,-1147.1 -2407.6,-1147.1 -2407.9,-1147.1 -2417.2,-1147.1 -2417.6,-1147.1 
	-2426.8,-1147.1 -2427.2,-1147.1 -2436.2,-1147.1 -2436.8,-1147.1 -2445.9,-1147.1 -2446.2,-1147.1 -2455.5,-1147.1 
	-2455.9,-1147.1 -2465.1,-1147.1 -2465.5,-1147.1 -2474.7,-1147.1 -2475.1,-1147.1 -2484.4,-1147.1 -2484.7,-1147.1 -2494,-1147.1 
	-2494.4,-1147.1 -2503.6,-1147.1 -2504,-1147.1 -2513.3,-1147.1 -2513.6,-1147.1 -2522.9,-1147.1 -2523.3,-1147.1 -2532.5,-1147.1 
	-2532.9,-1147.1 -2542.2,-1147.1 -2542.5,-1147.1 -2551.8,-1147.1 -2552.2,-1147.1 -2561.4,-1147.1 -2561.8,-1147.1 
	-2571.1,-1147.1 -2571.4,-1147.1 -2580.7,-1147.1 -2581.1,-1147.1 -2590.7,-1147.1 -2590.7,-1143.4 -2595.5,-1143.4 
	-2595.5,-1137.9 -2590.7,-1137.9 -2590.7,-1134.2 -2590.4,-1134.2 -2586.2,-1134.2 -2585.4,-1134.2 -2581.2,-1134.2 
	-2581.1,-1134.2 -2580.8,-1134.2 -2580.7,-1134.2 -2576.6,-1134.2 -2575.8,-1134.2 -2571.6,-1134.2 -2571.4,-1134.2 
	-2571.2,-1134.2 -2571.1,-1134.2 -2567,-1134.2 -2566.2,-1134.2 -2562,-1134.2 -2561.8,-1134.2 -2561.6,-1134.2 -2561.4,-1134.2 
	-2557.4,-1134.2 -2556.5,-1134.2 -2552.3,-1134.2 -2552.2,-1134.2 -2551.9,-1134.2 -2551.8,-1134.2 -2547.7,-1134.2 
	-2546.9,-1134.2 -2542.7,-1134.2 -2542.5,-1134.2 -2542.3,-1134.2 -2542.2,-1134.2 -2538.1,-1134.2 -2537.3,-1134.2 
	-2533.1,-1134.2 -2532.9,-1134.2 -2532.7,-1134.2 -2532.5,-1134.2 -2528.5,-1134.2 -2527.6,-1134.2 -2523.4,-1134.2 
	-2523.3,-1134.2 -2523,-1134.2 -2522.9,-1134.2 -2518.8,-1134.2 -2518,-1134.2 -2513.8,-1134.2 -2513.6,-1134.2 -2513.4,-1134.2 
	-2513.3,-1134.2 -2509.2,-1134.2 -2508.4,-1134.2 -2504.2,-1134.2 -2504,-1134.2 -2503.8,-1134.2 -2503.6,-1134.2 -2499.6,-1134.2 
	-2498.7,-1134.2 -2494.5,-1134.2 -2494.4,-1134.2 -2494.1,-1134.2 -2494,-1134.2 -2489.9,-1134.2 -2489.1,-1134.2 -2484.9,-1134.2 
	-2484.7,-1134.2 -2484.5,-1134.2 -2484.4,-1134.2 -2480.3,-1134.2 -2479.5,-1134.2 -2475.3,-1134.2 -2475.1,-1134.2 
	-2474.9,-1134.2 -2474.7,-1134.2 -2470.7,-1134.2 -2469.8,-1134.2 -2465.6,-1134.2 -2465.5,-1134.2 -2465.2,-1134.2 
	-2465.1,-1134.2 -2461,-1134.2 -2460.2,-1134.2 -2456,-1134.2 -2455.9,-1134.2 -2455.6,-1134.2 -2455.5,-1134.2 -2451.4,-1134.2 
	-2450.6,-1134.2 -2446.4,-1134.2 -2446.2,-1134.2 -2446,-1134.2 -2445.9,-1134.2 -2441.8,-1134.2 -2441,-1134.2 -2436.8,-1134.2 
	-2436.7,-1134.2 -2436.6,-1134.2 -2436.2,-1134.2 -2432.4,-1134.2 -2431.5,-1134.2 -2427.3,-1134.2 -2427.2,-1134.2 
	-2426.9,-1134.2 -2426.8,-1134.2 -2422.7,-1134.2 -2421.9,-1134.2 -2417.7,-1134.2 -2417.6,-1134.2 -2417.3,-1134.2 
	-2417.2,-1134.2 -2413.1,-1134.2 -2412.3,-1134.2 -2408.1,-1134.2 -2407.9,-1134.2 -2407.7,-1134.2 -2407.6,-1134.2 
	-2403.5,-1134.2 -2402.7,-1134.2 -2398.4,-1134.2 -2397.9,-1134.2 -2397.9,-1137.9 -2393.4,-1137.9 -2393.4,-1143.4 "/>
<g>
	<polygon class="st31" points="-846.9,235.2 -841.6,235.2 -828.7,235.2 -828.7,223.9 -815.8,223.9 -815.8,212.6 -802.9,212.6 
		-802.9,201.3 -802.9,187.9 -777.1,187.9 -777.1,190 -777.1,201.3 -777.1,235.2 -777.1,246.5 -777.1,257.8 -802.9,257.8 
		-846.9,257.8 	"/>
</g>
<g>
	<polygon class="st31" points="-780.7,188 -780.7,193.3 -780.7,206.2 -769.4,206.2 -769.4,219.1 -758.1,219.1 -758.1,232 
		-746.8,232 -733.5,232 -733.5,257.8 -735.5,257.8 -746.8,257.8 -780.7,257.8 -792,257.8 -803.3,257.8 -803.3,232 -803.3,188 	"/>
</g>
<g>
	<polygon class="st31" points="-832.9,235.2 -832.9,240.5 -832.9,253.4 -821.6,253.4 -821.6,266.3 -810.3,266.3 -810.3,279.2 
		-799,279.2 -785.6,279.2 -785.6,305 -787.7,305 -799,305 -832.9,305 -844.2,305 -855.5,305 -855.5,279.2 -855.5,235.2 	"/>
</g>
<g>
	<polygon class="st31" points="-914.1,235.2 -919.4,235.2 -932.3,235.2 -932.3,223.9 -945.2,223.9 -945.2,212.6 -958.1,212.6 
		-958.1,201.3 -958.1,187.9 -983.9,187.9 -983.9,190 -983.9,201.3 -983.9,235.2 -983.9,246.5 -983.9,257.8 -958.1,257.8 
		-914.1,257.8 	"/>
</g>
<g>
	<polygon class="st31" points="-858.7,282.4 -864,282.4 -876.9,282.4 -876.9,271.1 -889.8,271.1 -889.8,259.8 -902.7,259.8 
		-902.7,248.5 -902.7,235.2 -928.5,235.2 -928.5,237.2 -928.5,248.5 -928.5,282.4 -928.5,293.7 -928.5,305 -902.7,305 -858.7,305 	
		"/>
</g>
<g>
	<polygon class="st31" points="-981.1,198.8 -981.1,204.1 -981.1,217 -992.4,217 -992.4,229.9 -1003.7,229.9 -1003.7,242.8 
		-1015,242.8 -1028.4,242.8 -1028.4,268.6 -1026.3,268.6 -1015,268.6 -981.1,268.6 -969.8,268.6 -958.6,268.6 -958.6,242.8 
		-958.6,198.8 	"/>
</g>
<polygon class="st32" points="-1807.2,-1023.5 -1807.2,-1032.4 -1807.3,-1032.4 -1807.3,-1032.5 -1816.2,-1032.5 -1816.2,-1041.5 
	-1844.1,-1041.5 -1851.3,-1041.5 -1865.7,-1041.5 -1924,-1041.5 -1924,-1032.4 -1933,-1032.4 -1933,-980.5 -1924.1,-980.5 
	-1924.1,-971.5 -1924,-971.5 -1924,-971.5 -1915.1,-971.5 -1915.1,-962.5 -1865.7,-962.5 -1864.8,-962.5 -1864.8,-971.5 
	-1843.1,-971.5 -1843.1,-962.5 -1807.3,-962.5 -1807.3,-971.5 -1798.4,-971.5 -1798.4,-1023.5 "/>
<polygon class="st31" points="-1843.2,-1041.5 -1843.2,-1050.4 -1923.9,-1050.4 -1923.9,-1041.4 -1933,-1041.4 -1933,-989.5 
	-1924,-989.5 -1924,-980.5 -1923.9,-980.5 -1923.9,-980.5 -1914.9,-980.5 -1914.9,-971.5 -1834.2,-971.5 -1834.2,-1041.5 "/>
<g>
	<polygon class="st7" points="279.5,-606.8 263,-606.8 263,-614.8 246.4,-614.8 246.4,-623.5 -465.6,-623.5 -465.6,-614.8 
		-482.1,-614.8 -482.1,-606.8 -498.6,-606.8 -498.6,-138.9 -482.1,-138.9 -482.1,-130.9 -465.6,-130.9 -465.6,-122.2 246.4,-122.2 
		246.4,-130.9 263,-130.9 263,-138.9 279.5,-138.9 	"/>
	<polygon class="st8" points="279.5,-615 263,-615 263,-623 246.4,-623 246.4,-631.7 -465.6,-631.7 -465.6,-623 -482.1,-623 
		-482.1,-615 -498.6,-615 -498.6,-147.1 -482.1,-147.1 -482.1,-139.1 -465.6,-139.1 -465.6,-130.4 246.4,-130.4 246.4,-139.1 
		263,-139.1 263,-147.1 279.5,-147.1 	"/>
</g>
<g>
	<g>
		<polygon class="st20" points="356.1,-508.6 356.1,-331.6 369.6,-331.6 369.6,-321.3 383.1,-321.3 383.1,-310 964.7,-310 
			964.7,-321.3 978.2,-321.3 978.2,-331.6 991.7,-331.6 991.7,-508.6 		"/>
		<polygon class="st20" points="991.7,-508.6 991.7,-610.5 978.2,-610.5 978.2,-620.7 964.7,-620.7 964.7,-632.1 383.1,-632.1 
			383.1,-620.7 369.6,-620.7 369.6,-610.5 356.1,-610.5 356.1,-508.6 		"/>
	</g>
	<g>
		<polygon class="st21" points="369.6,-610.3 383.1,-610.3 383.1,-620.7 369.6,-620.7 369.6,-610.5 356.1,-610.5 356.1,-600.1 
			369.6,-600.1 		"/>
		<rect x="383.1" y="-632.1" class="st21" width="581.6" height="10.4"/>
		<polygon class="st21" points="978.2,-610.5 978.2,-620.7 964.7,-620.7 964.7,-610.3 978.2,-610.3 978.2,-600.1 991.7,-600.1 
			991.7,-610.5 		"/>
	</g>
</g>
<g>
	<polygon class="st2" points="-226.1,-73.7 -233,-73.7 -491.7,-73.7 -491.7,-66.7 -498.6,-66.7 -498.6,-26.8 -491.7,-26.8 
		-491.7,-19.9 -233,-19.9 -226.1,-19.9 -226.1,-26.8 -219.1,-26.8 -219.1,-66.7 -226.1,-66.7 	"/>
	<polygon class="st3" points="-226.1,-80.6 -233,-80.6 -491.7,-80.6 -491.7,-73.6 -498.6,-73.6 -498.6,-33.7 -491.7,-33.7 
		-491.7,-26.8 -233,-26.8 -226.1,-26.8 -226.1,-33.7 -219.1,-33.7 -219.1,-73.6 -226.1,-73.6 	"/>
	<g>
		<path class="st4" d="M-448-45.5h-11.9v-19.1h11.9v2.4h2.4v4.8h-2.4v4.8h2.4v4.8h-2.4V-45.5z M-455.1-57.4h4.8v-2.4h-4.8V-57.4z
			 M-455.1-50.3h4.8v-2.4h-4.8V-50.3z"/>
		<path class="st4" d="M-438.4-45.5h-4.8v-16.7h2.4v-2.4h9.5v2.4h2.4v16.7h-4.8v-7.2h-4.8V-45.5z M-433.7-57.4v-2.4h-4.8v2.4H-433.7
			z"/>
		<path class="st4" d="M-426.5-62.2h2.4v-2.4h11.9v4.8h-9.5v9.5h9.5v4.8h-11.9v-2.4h-2.4V-62.2z"/>
		<path class="st4" d="M-405.1-45.5h-4.8v-19.1h4.8v4.8h2.4v-2.4h2.4v-2.4h4.8v4.8h-2.4v2.4h-2.4v4.8h2.4v2.4h2.4v4.8h-4.8v-2.4
			h-2.4v-2.4h-2.4V-45.5z"/>
		<path class="st4" d="M-376.4-64.6h14.3v4.8h-4.8v14.3h-4.8v-14.3h-4.8V-64.6z"/>
		<path class="st4" d="M-359.8-62.2h2.4v-2.4h9.5v2.4h2.4v14.3h-2.4v2.4h-9.5v-2.4h-2.4V-62.2z M-355-50.3h4.8v-9.5h-4.8V-50.3z"/>
		<path class="st4" d="M-321.6-45.5h-4.8v-19.1h4.8v2.4h2.4v2.4h2.4v-2.4h2.4v-2.4h4.8v19.1h-4.8V-55h-2.4v2.4h-2.4V-55h-2.4V-45.5z
			"/>
		<path class="st4" d="M-304.9-47.9h-2.4v-14.3h2.4v-2.4h11.9v4.8h-9.5v2.4h4.8v4.8h-4.8v2.4h9.5v4.8h-11.9V-47.9z"/>
		<path class="st4" d="M-283.5-55h-2.4v9.5h-4.8v-19.1h4.8v2.4h2.4v2.4h2.4v-4.8h4.8v19.1h-4.8v-7.2h-2.4V-55z"/>
		<path class="st4" d="M-273.9-64.6h4.8v14.3h4.8v-14.3h4.8v16.7h-2.4v2.4h-9.5v-2.4h-2.4V-64.6z"/>
	</g>
</g>
<g>
	<polygon class="st2" points="272.5,6.9 265.6,6.9 6.9,6.9 6.9,13.8 0,13.8 0,53.8 6.9,53.8 6.9,60.7 265.6,60.7 272.5,60.7 
		272.5,53.8 279.5,53.8 279.5,13.8 272.5,13.8 	"/>
	<polygon class="st2" points="272.5,7 265.6,7 6.9,7 6.9,13.9 0,13.9 0,53.9 6.9,53.9 6.9,60.8 265.6,60.8 272.5,60.8 272.5,53.9 
		279.5,53.9 279.5,13.9 272.5,13.9 	"/>
	<g>
		<path class="st4" d="M64.9,23h14.3v4.8h-4.8v14.3h-4.8V27.8h-4.8V23z"/>
		<path class="st4" d="M88.8,34.9h-2.4v7.2h-4.8V23h11.9v2.4h2.4v7.2h-2.4v2.4h2.4v7.2h-4.8v-4.8h-2.4V34.9z M86.4,30.2h4.8v-2.4
			h-4.8V30.2z"/>
		<path class="st4" d="M98.3,23h4.8v7.2h4.8V23h4.8v9.5h-2.4v2.4h-2.4v7.2h-4.8v-7.2h-2.4v-2.4h-2.4V23z"/>
		<path class="st4" d="M136.5,42.1h-4.8V25.4h2.4V23h9.5v2.4h2.4v16.7h-4.8v-7.2h-4.8V42.1z M141.2,30.2v-2.4h-4.8v2.4H141.2z"/>
		<path class="st4" d="M150.8,39.7h-2.4V25.4h2.4V23h11.9v4.8h-9.5v9.5h4.8v-2.4h-2.4v-4.8h7.2v11.9h-11.9V39.7z"/>
		<path class="st4" d="M169.9,42.1h-4.8V25.4h2.4V23h9.5v2.4h2.4v16.7h-4.8v-7.2h-4.8V42.1z M174.6,30.2v-2.4h-4.8v2.4H174.6z"/>
		<path class="st4" d="M181.8,23h14.3v4.8h-4.8v9.5h4.8v4.8h-14.3v-4.8h4.8v-9.5h-4.8V23z"/>
		<path class="st4" d="M205.6,32.6h-2.4v9.5h-4.8V23h4.8v2.4h2.4v2.4h2.4V23h4.8v19.1H208v-7.2h-2.4V32.6z"/>
	</g>
</g>
<g>
	<polygon class="st2" points="272.5,-76.1 265.6,-76.1 6.9,-76.1 6.9,-69.2 0,-69.2 0,-29.2 6.9,-29.2 6.9,-22.3 265.6,-22.3 
		272.5,-22.3 272.5,-29.2 279.5,-29.2 279.5,-69.2 272.5,-69.2 	"/>
	<polygon class="st3" points="272.5,-83 265.6,-83 6.9,-83 6.9,-76.1 0,-76.1 0,-36.1 6.9,-36.1 6.9,-29.2 265.6,-29.2 272.5,-29.2 
		272.5,-36.1 279.5,-36.1 279.5,-76.1 272.5,-76.1 	"/>
	<g>
		<path class="st4" d="M64.9-67h14.3v4.8h-4.8v14.3h-4.8v-14.3h-4.8V-67z"/>
		<path class="st4" d="M88.8-55.1h-2.4v7.2h-4.8V-67h11.9v2.4h2.4v7.2h-2.4v2.4h2.4v7.2h-4.8v-4.8h-2.4V-55.1z M86.4-59.8h4.8v-2.4
			h-4.8V-59.8z"/>
		<path class="st4" d="M98.3-67h4.8v7.2h4.8V-67h4.8v9.5h-2.4v2.4h-2.4v7.2h-4.8v-7.2h-2.4v-2.4h-2.4V-67z"/>
		<path class="st4" d="M136.5-47.9h-4.8v-16.7h2.4V-67h9.5v2.4h2.4v16.7h-4.8v-7.2h-4.8V-47.9z M141.2-59.8v-2.4h-4.8v2.4H141.2z"/>
		<path class="st4" d="M150.8-50.3h-2.4v-14.3h2.4V-67h11.9v4.8h-9.5v9.5h4.8v-2.4h-2.4v-4.8h7.2v11.9h-11.9V-50.3z"/>
		<path class="st4" d="M169.9-47.9h-4.8v-16.7h2.4V-67h9.5v2.4h2.4v16.7h-4.8v-7.2h-4.8V-47.9z M174.6-59.8v-2.4h-4.8v2.4H174.6z"/>
		<path class="st4" d="M181.8-67h14.3v4.8h-4.8v9.5h4.8v4.8h-14.3v-4.8h4.8v-9.5h-4.8V-67z"/>
		<path class="st4" d="M205.6-57.4h-2.4v9.5h-4.8V-67h4.8v2.4h2.4v2.4h2.4V-67h4.8v19.1H208v-7.2h-2.4V-57.4z"/>
	</g>
</g>
<g>
	<polygon class="st2" points="-226.1,7.3 -233,7.3 -491.7,7.3 -491.7,14.3 -498.6,14.3 -498.6,54.2 -491.7,54.2 -491.7,61.1 
		-233,61.1 -226.1,61.1 -226.1,54.2 -219.1,54.2 -219.1,14.3 -226.1,14.3 	"/>
	<polygon class="st2" points="-226.1,7.4 -233,7.4 -491.7,7.4 -491.7,14.4 -498.6,14.4 -498.6,54.3 -491.7,54.3 -491.7,61.2 
		-233,61.2 -226.1,61.2 -226.1,54.3 -219.1,54.3 -219.1,14.4 -226.1,14.4 	"/>
	<g>
		<path class="st4" d="M-448,42.5h-11.9V23.4h11.9v2.4h2.4v4.8h-2.4v4.8h2.4v4.8h-2.4V42.5z M-455.1,30.6h4.8v-2.4h-4.8V30.6z
			 M-455.1,37.7h4.8v-2.4h-4.8V37.7z"/>
		<path class="st4" d="M-438.4,42.5h-4.8V25.8h2.4v-2.4h9.5v2.4h2.4v16.7h-4.8v-7.2h-4.8V42.5z M-433.7,30.6v-2.4h-4.8v2.4H-433.7z"
			/>
		<path class="st4" d="M-426.5,25.8h2.4v-2.4h11.9v4.8h-9.5v9.5h9.5v4.8h-11.9v-2.4h-2.4V25.8z"/>
		<path class="st4" d="M-405.1,42.5h-4.8V23.4h4.8v4.8h2.4v-2.4h2.4v-2.4h4.8v4.8h-2.4v2.4h-2.4v4.8h2.4v2.4h2.4v4.8h-4.8v-2.4h-2.4
			v-2.4h-2.4V42.5z"/>
		<path class="st4" d="M-376.4,23.4h14.3v4.8h-4.8v14.3h-4.8V28.2h-4.8V23.4z"/>
		<path class="st4" d="M-359.8,25.8h2.4v-2.4h9.5v2.4h2.4v14.3h-2.4v2.4h-9.5v-2.4h-2.4V25.8z M-355,37.7h4.8v-9.5h-4.8V37.7z"/>
		<path class="st4" d="M-321.6,42.5h-4.8V23.4h4.8v2.4h2.4v2.4h2.4v-2.4h2.4v-2.4h4.8v19.1h-4.8V33h-2.4v2.4h-2.4V33h-2.4V42.5z"/>
		<path class="st4" d="M-304.9,40.1h-2.4V25.8h2.4v-2.4h11.9v4.8h-9.5v2.4h4.8v4.8h-4.8v2.4h9.5v4.8h-11.9V40.1z"/>
		<path class="st4" d="M-283.5,33h-2.4v9.5h-4.8V23.4h4.8v2.4h2.4v2.4h2.4v-4.8h4.8v19.1h-4.8v-7.2h-2.4V33z"/>
		<path class="st4" d="M-273.9,23.4h4.8v14.3h4.8V23.4h4.8v16.7h-2.4v2.4h-9.5v-2.4h-2.4V23.4z"/>
	</g>
</g>
<g>
	<path class="st4" d="M-3996.5,710.6h-1.3v3.9h-2.6v-10.4h6.5v1.3h1.3v3.9h-1.3v1.3h1.3v3.9h-2.6v-2.6h-1.3V710.6z M-3997.8,708h2.6
		v-1.3h-2.6V708z"/>
	<path class="st4" d="M-3990,713.2h-1.3v-7.8h1.3v-1.3h6.5v2.6h-5.2v1.3h2.6v2.6h-2.6v1.3h5.2v2.6h-6.5V713.2z"/>
	<path class="st4" d="M-3979.6,714.5h-2.6v-9.1h1.3v-1.3h5.2v1.3h1.3v9.1h-2.6v-3.9h-2.6V714.5z M-3977,708v-1.3h-2.6v1.3H-3977z"/>
	<path class="st4" d="M-3968,714.5h-5.2v-10.4h5.2v1.3h1.3v1.3h1.3v5.2h-1.3v1.3h-1.3V714.5z M-3969.3,706.7h-1.3v5.2h1.3v-1.3h1.3
		V708h-1.3V706.7z"/>
	<path class="st4" d="M-3964.1,704.1h2.6v3.9h2.6v-3.9h2.6v5.2h-1.3v1.3h-1.3v3.9h-2.6v-3.9h-1.3v-1.3h-1.3V704.1z"/>
	<path class="st4" d="M-3945.9,704.1h7.8v2.6h-2.6v7.8h-2.6v-7.8h-2.6V704.1z"/>
	<path class="st4" d="M-3936.9,705.4h1.3v-1.3h5.2v1.3h1.3v7.8h-1.3v1.3h-5.2v-1.3h-1.3V705.4z M-3934.3,711.9h2.6v-5.2h-2.6V711.9z
		"/>
	<path class="st4" d="M-3917.4,713.2h-1.3v-7.8h1.3v-1.3h6.5v2.6h-5.2v5.2h2.6v-1.3h-1.3V708h3.9v6.5h-6.5V713.2z"/>
	<path class="st4" d="M-3909.7,705.4h1.3v-1.3h5.2v1.3h1.3v7.8h-1.3v1.3h-5.2v-1.3h-1.3V705.4z M-3907.1,711.9h2.6v-5.2h-2.6V711.9z
		"/>
	<path class="st4" d="M-3900.6,704.1h2.6v6.5h-2.6V704.1z M-3900.6,711.9h2.6v2.6h-2.6V711.9z"/>
</g>
<g>
	<path class="st4" d="M-3996.5,670.6h-1.3v3.9h-2.6v-10.4h6.5v1.3h1.3v3.9h-1.3v1.3h1.3v3.9h-2.6v-2.6h-1.3V670.6z M-3997.8,668h2.6
		v-1.3h-2.6V668z"/>
	<path class="st4" d="M-3990,673.2h-1.3v-7.8h1.3v-1.3h6.5v2.6h-5.2v1.3h2.6v2.6h-2.6v1.3h5.2v2.6h-6.5V673.2z"/>
	<path class="st4" d="M-3979.6,674.5h-2.6v-9.1h1.3v-1.3h5.2v1.3h1.3v9.1h-2.6v-3.9h-2.6V674.5z M-3977,668v-1.3h-2.6v1.3H-3977z"/>
	<path class="st4" d="M-3968,674.5h-5.2v-10.4h5.2v1.3h1.3v1.3h1.3v5.2h-1.3v1.3h-1.3V674.5z M-3969.3,666.7h-1.3v5.2h1.3v-1.3h1.3
		V668h-1.3V666.7z"/>
	<path class="st4" d="M-3964.1,664.2h2.6v3.9h2.6v-3.9h2.6v5.2h-1.3v1.3h-1.3v3.9h-2.6v-3.9h-1.3v-1.3h-1.3V664.2z"/>
	<path class="st4" d="M-3945.9,664.2h7.8v2.6h-2.6v7.8h-2.6v-7.8h-2.6V664.2z"/>
	<path class="st4" d="M-3936.9,665.4h1.3v-1.3h5.2v1.3h1.3v7.8h-1.3v1.3h-5.2v-1.3h-1.3V665.4z M-3934.3,671.9h2.6v-5.2h-2.6V671.9z
		"/>
	<path class="st4" d="M-3917.4,673.2h-1.3v-7.8h1.3v-1.3h6.5v2.6h-5.2v5.2h2.6v-1.3h-1.3V668h3.9v6.5h-6.5V673.2z"/>
	<path class="st4" d="M-3909.7,665.4h1.3v-1.3h5.2v1.3h1.3v7.8h-1.3v1.3h-5.2v-1.3h-1.3V665.4z M-3907.1,671.9h2.6v-5.2h-2.6V671.9z
		"/>
	<path class="st4" d="M-3900.6,664.2h2.6v6.5h-2.6V664.2z M-3900.6,671.9h2.6v2.6h-2.6V671.9z"/>
</g>
</svg>
