<!-- Generator: Adobe Illustrator 19.2.1, SVG Export Plug-In  -->
<svg version="1.1"
	 xmlns="http://www.w3.org/2000/svg" xmlns:xlink="http://www.w3.org/1999/xlink" xmlns:a="http://ns.adobe.com/AdobeSVGViewerExtensions/3.0/"
	 x="0px" y="0px" width="200px" height="36.9px" viewBox="0 0 200 36.9" style="enable-background:new 0 0 200 36.9;"
	 xml:space="preserve">
<style type="text/css">
	.st0{fill:#BD86E0;}
</style>
<defs>
</defs>
<g>
	<path class="st0" d="M3,12H0V0h3v6h1.5V4.5H6V6h1.5V0h3V12h-3v-1.5H6V8.9H4.5v1.5H3V12z"/>
	<path class="st0" d="M14.9,12h-3V1.5h1.5V0h6v1.5h1.5V12h-3V7.5h-3L14.9,12L14.9,12z M17.9,4.5V3h-3v1.5H17.9z"/>
	<path class="st0" d="M22.4,0h8.9v3h-3v6h3v3h-8.9V9h3V3h-3V0z"/>
	<path class="st0" d="M32.8,0h8.9v3h-3V12h-3V3h-3C32.8,3,32.8,0,32.8,0z"/>
	<path class="st0" d="M43.3,0h8.9v3h-3v6h3v3h-8.9V9h3V3h-3V0z"/>
	<path class="st0" d="M58.2,6h-1.5v6h-3V0h3v1.5h1.5v1.5h1.5v-3h3V12h-3V7.5h-1.5V6z"/>
	<path class="st0" d="M65.6,10.5h-1.5V1.6h1.5V0h7.5v3h-6v6h3V7.5h-1.5v-3h4.5V12h-7.5V10.5z"/>
	<path class="st0" d="M88,12h-3V1.5h1.5V0H94v3h-6v1.5h3v3h-3V12z"/>
	<path class="st0" d="M95.5,1.5H97V0h6v1.5h1.5v8.9H103V12h-6v-1.5h-1.5V1.5z M98.5,9h3V3h-3V9z"/>
	<path class="st0" d="M110.4,7.5h-1.5V12h-3V0h7.5v1.5h1.5V6h-1.5v1.5h1.5V12h-3v-3h-1.5V7.5z M108.9,4.5h3V3h-3V4.5z"/>
	<path class="st0" d="M128.3,10.5h-1.5V1.6h1.5V0h7.5v3h-6v6h3V7.5h-1.5v-3h4.5V12h-7.5V10.5z"/>
	<path class="st0" d="M140.3,12h-3V1.5h1.5V0h6v1.5h1.5V12h-3V7.5h-3V12z M143.2,4.5V3h-3v1.5H143.2z"/>
	<path class="st0" d="M150.7,12h-3V0h3v1.5h1.5v1.5h1.5V1.6h1.5V0h3V12h-3V6h-1.5v1.5h-1.5V6h-1.5V12z"/>
	<path class="st0" d="M161.2,10.5h-1.5V1.6h1.5V0h7.5v3h-6v1.5h3v3h-3V9h6v3h-7.5V10.5z"/>
	<path class="st0" d="M180.5,0h8.9v3h-3V12h-3V3h-3L180.5,0L180.5,0z"/>
	<path class="st0" d="M191,1.5h1.5V0h6v1.5h1.5v8.9h-1.5V12h-6v-1.5H191V1.5z M194,9h3V3h-3V9z"/>
	<path class="st0" d="M67.9,26.4h1.5v-1.5h7.5v3h-6v1.5h4.5v1.5h1.5v4.5h-1.5v1.5h-7.5v-3h6v-1.5h-4.5v-1.5h-1.5V26.4z"/>
	<path class="st0" d="M78.3,24.9h8.9v3h-3v8.9h-3v-8.9h-3L78.3,24.9L78.3,24.9z"/>
	<path class="st0" d="M91.8,36.8h-3V26.4h1.5v-1.5h6v1.5h1.5v10.5h-3v-4.5h-3L91.8,36.8L91.8,36.8z M94.7,29.4v-1.5h-3v1.5
		L94.7,29.4L94.7,29.4z"/>
	<path class="st0" d="M103.7,32.3h-1.5v4.5h-3V24.9h7.5v1.5h1.5v4.5h-1.5v1.5h1.5v4.5h-3v-3h-1.5V32.3z M102.2,29.4h3v-1.5h-3V29.4z
		"/>
	<path class="st0" d="M109.7,24.9h8.9v3h-3v8.9h-3v-8.9h-3L109.7,24.9L109.7,24.9z"/>
	<path class="st0" d="M120.1,33.9h3v3h-3V33.9z"/>
	<path class="st0" d="M124.6,33.9h3v3h-3V33.9z"/>
	<path class="st0" d="M129.1,33.9h3v3h-3V33.9z"/>
</g>
</svg>
